G75*
%MOIN*%
%OFA0B0*%
%FSLAX25Y25*%
%IPPOS*%
%LPD*%
%AMOC8*
5,1,8,0,0,1.08239X$1,22.5*
%
%ADD10C,0.00000*%
%ADD11C,0.00512*%
%ADD12C,0.00600*%
%ADD13C,0.10000*%
%ADD14OC8,0.10000*%
%ADD15C,0.07050*%
%ADD16OC8,0.05200*%
%ADD17C,0.10650*%
%ADD18C,0.06000*%
%ADD19C,0.05200*%
%ADD20R,0.09449X0.09449*%
%ADD21R,0.12661X0.12661*%
%ADD22OC8,0.06600*%
%ADD23OC8,0.06000*%
%ADD24OC8,0.12500*%
%ADD25R,0.15000X0.15000*%
%ADD26C,0.15000*%
%ADD27C,0.01200*%
%ADD28C,0.01600*%
%ADD29C,0.03562*%
%ADD30C,0.04000*%
D10*
X0240000Y0265000D02*
X0240000Y0605000D01*
X0840000Y0605000D01*
X0840000Y0265000D01*
X0240000Y0265000D01*
X0253500Y0285000D02*
X0253502Y0285161D01*
X0253508Y0285321D01*
X0253518Y0285482D01*
X0253532Y0285642D01*
X0253550Y0285802D01*
X0253571Y0285961D01*
X0253597Y0286120D01*
X0253627Y0286278D01*
X0253660Y0286435D01*
X0253698Y0286592D01*
X0253739Y0286747D01*
X0253784Y0286901D01*
X0253833Y0287054D01*
X0253886Y0287206D01*
X0253942Y0287357D01*
X0254003Y0287506D01*
X0254066Y0287654D01*
X0254134Y0287800D01*
X0254205Y0287944D01*
X0254279Y0288086D01*
X0254357Y0288227D01*
X0254439Y0288365D01*
X0254524Y0288502D01*
X0254612Y0288636D01*
X0254704Y0288768D01*
X0254799Y0288898D01*
X0254897Y0289026D01*
X0254998Y0289151D01*
X0255102Y0289273D01*
X0255209Y0289393D01*
X0255319Y0289510D01*
X0255432Y0289625D01*
X0255548Y0289736D01*
X0255667Y0289845D01*
X0255788Y0289950D01*
X0255912Y0290053D01*
X0256038Y0290153D01*
X0256166Y0290249D01*
X0256297Y0290342D01*
X0256431Y0290432D01*
X0256566Y0290519D01*
X0256704Y0290602D01*
X0256843Y0290682D01*
X0256985Y0290758D01*
X0257128Y0290831D01*
X0257273Y0290900D01*
X0257420Y0290966D01*
X0257568Y0291028D01*
X0257718Y0291086D01*
X0257869Y0291141D01*
X0258022Y0291192D01*
X0258176Y0291239D01*
X0258331Y0291282D01*
X0258487Y0291321D01*
X0258643Y0291357D01*
X0258801Y0291388D01*
X0258959Y0291416D01*
X0259118Y0291440D01*
X0259278Y0291460D01*
X0259438Y0291476D01*
X0259598Y0291488D01*
X0259759Y0291496D01*
X0259920Y0291500D01*
X0260080Y0291500D01*
X0260241Y0291496D01*
X0260402Y0291488D01*
X0260562Y0291476D01*
X0260722Y0291460D01*
X0260882Y0291440D01*
X0261041Y0291416D01*
X0261199Y0291388D01*
X0261357Y0291357D01*
X0261513Y0291321D01*
X0261669Y0291282D01*
X0261824Y0291239D01*
X0261978Y0291192D01*
X0262131Y0291141D01*
X0262282Y0291086D01*
X0262432Y0291028D01*
X0262580Y0290966D01*
X0262727Y0290900D01*
X0262872Y0290831D01*
X0263015Y0290758D01*
X0263157Y0290682D01*
X0263296Y0290602D01*
X0263434Y0290519D01*
X0263569Y0290432D01*
X0263703Y0290342D01*
X0263834Y0290249D01*
X0263962Y0290153D01*
X0264088Y0290053D01*
X0264212Y0289950D01*
X0264333Y0289845D01*
X0264452Y0289736D01*
X0264568Y0289625D01*
X0264681Y0289510D01*
X0264791Y0289393D01*
X0264898Y0289273D01*
X0265002Y0289151D01*
X0265103Y0289026D01*
X0265201Y0288898D01*
X0265296Y0288768D01*
X0265388Y0288636D01*
X0265476Y0288502D01*
X0265561Y0288365D01*
X0265643Y0288227D01*
X0265721Y0288086D01*
X0265795Y0287944D01*
X0265866Y0287800D01*
X0265934Y0287654D01*
X0265997Y0287506D01*
X0266058Y0287357D01*
X0266114Y0287206D01*
X0266167Y0287054D01*
X0266216Y0286901D01*
X0266261Y0286747D01*
X0266302Y0286592D01*
X0266340Y0286435D01*
X0266373Y0286278D01*
X0266403Y0286120D01*
X0266429Y0285961D01*
X0266450Y0285802D01*
X0266468Y0285642D01*
X0266482Y0285482D01*
X0266492Y0285321D01*
X0266498Y0285161D01*
X0266500Y0285000D01*
X0266498Y0284839D01*
X0266492Y0284679D01*
X0266482Y0284518D01*
X0266468Y0284358D01*
X0266450Y0284198D01*
X0266429Y0284039D01*
X0266403Y0283880D01*
X0266373Y0283722D01*
X0266340Y0283565D01*
X0266302Y0283408D01*
X0266261Y0283253D01*
X0266216Y0283099D01*
X0266167Y0282946D01*
X0266114Y0282794D01*
X0266058Y0282643D01*
X0265997Y0282494D01*
X0265934Y0282346D01*
X0265866Y0282200D01*
X0265795Y0282056D01*
X0265721Y0281914D01*
X0265643Y0281773D01*
X0265561Y0281635D01*
X0265476Y0281498D01*
X0265388Y0281364D01*
X0265296Y0281232D01*
X0265201Y0281102D01*
X0265103Y0280974D01*
X0265002Y0280849D01*
X0264898Y0280727D01*
X0264791Y0280607D01*
X0264681Y0280490D01*
X0264568Y0280375D01*
X0264452Y0280264D01*
X0264333Y0280155D01*
X0264212Y0280050D01*
X0264088Y0279947D01*
X0263962Y0279847D01*
X0263834Y0279751D01*
X0263703Y0279658D01*
X0263569Y0279568D01*
X0263434Y0279481D01*
X0263296Y0279398D01*
X0263157Y0279318D01*
X0263015Y0279242D01*
X0262872Y0279169D01*
X0262727Y0279100D01*
X0262580Y0279034D01*
X0262432Y0278972D01*
X0262282Y0278914D01*
X0262131Y0278859D01*
X0261978Y0278808D01*
X0261824Y0278761D01*
X0261669Y0278718D01*
X0261513Y0278679D01*
X0261357Y0278643D01*
X0261199Y0278612D01*
X0261041Y0278584D01*
X0260882Y0278560D01*
X0260722Y0278540D01*
X0260562Y0278524D01*
X0260402Y0278512D01*
X0260241Y0278504D01*
X0260080Y0278500D01*
X0259920Y0278500D01*
X0259759Y0278504D01*
X0259598Y0278512D01*
X0259438Y0278524D01*
X0259278Y0278540D01*
X0259118Y0278560D01*
X0258959Y0278584D01*
X0258801Y0278612D01*
X0258643Y0278643D01*
X0258487Y0278679D01*
X0258331Y0278718D01*
X0258176Y0278761D01*
X0258022Y0278808D01*
X0257869Y0278859D01*
X0257718Y0278914D01*
X0257568Y0278972D01*
X0257420Y0279034D01*
X0257273Y0279100D01*
X0257128Y0279169D01*
X0256985Y0279242D01*
X0256843Y0279318D01*
X0256704Y0279398D01*
X0256566Y0279481D01*
X0256431Y0279568D01*
X0256297Y0279658D01*
X0256166Y0279751D01*
X0256038Y0279847D01*
X0255912Y0279947D01*
X0255788Y0280050D01*
X0255667Y0280155D01*
X0255548Y0280264D01*
X0255432Y0280375D01*
X0255319Y0280490D01*
X0255209Y0280607D01*
X0255102Y0280727D01*
X0254998Y0280849D01*
X0254897Y0280974D01*
X0254799Y0281102D01*
X0254704Y0281232D01*
X0254612Y0281364D01*
X0254524Y0281498D01*
X0254439Y0281635D01*
X0254357Y0281773D01*
X0254279Y0281914D01*
X0254205Y0282056D01*
X0254134Y0282200D01*
X0254066Y0282346D01*
X0254003Y0282494D01*
X0253942Y0282643D01*
X0253886Y0282794D01*
X0253833Y0282946D01*
X0253784Y0283099D01*
X0253739Y0283253D01*
X0253698Y0283408D01*
X0253660Y0283565D01*
X0253627Y0283722D01*
X0253597Y0283880D01*
X0253571Y0284039D01*
X0253550Y0284198D01*
X0253532Y0284358D01*
X0253518Y0284518D01*
X0253508Y0284679D01*
X0253502Y0284839D01*
X0253500Y0285000D01*
X0558500Y0285000D02*
X0558502Y0285161D01*
X0558508Y0285321D01*
X0558518Y0285482D01*
X0558532Y0285642D01*
X0558550Y0285802D01*
X0558571Y0285961D01*
X0558597Y0286120D01*
X0558627Y0286278D01*
X0558660Y0286435D01*
X0558698Y0286592D01*
X0558739Y0286747D01*
X0558784Y0286901D01*
X0558833Y0287054D01*
X0558886Y0287206D01*
X0558942Y0287357D01*
X0559003Y0287506D01*
X0559066Y0287654D01*
X0559134Y0287800D01*
X0559205Y0287944D01*
X0559279Y0288086D01*
X0559357Y0288227D01*
X0559439Y0288365D01*
X0559524Y0288502D01*
X0559612Y0288636D01*
X0559704Y0288768D01*
X0559799Y0288898D01*
X0559897Y0289026D01*
X0559998Y0289151D01*
X0560102Y0289273D01*
X0560209Y0289393D01*
X0560319Y0289510D01*
X0560432Y0289625D01*
X0560548Y0289736D01*
X0560667Y0289845D01*
X0560788Y0289950D01*
X0560912Y0290053D01*
X0561038Y0290153D01*
X0561166Y0290249D01*
X0561297Y0290342D01*
X0561431Y0290432D01*
X0561566Y0290519D01*
X0561704Y0290602D01*
X0561843Y0290682D01*
X0561985Y0290758D01*
X0562128Y0290831D01*
X0562273Y0290900D01*
X0562420Y0290966D01*
X0562568Y0291028D01*
X0562718Y0291086D01*
X0562869Y0291141D01*
X0563022Y0291192D01*
X0563176Y0291239D01*
X0563331Y0291282D01*
X0563487Y0291321D01*
X0563643Y0291357D01*
X0563801Y0291388D01*
X0563959Y0291416D01*
X0564118Y0291440D01*
X0564278Y0291460D01*
X0564438Y0291476D01*
X0564598Y0291488D01*
X0564759Y0291496D01*
X0564920Y0291500D01*
X0565080Y0291500D01*
X0565241Y0291496D01*
X0565402Y0291488D01*
X0565562Y0291476D01*
X0565722Y0291460D01*
X0565882Y0291440D01*
X0566041Y0291416D01*
X0566199Y0291388D01*
X0566357Y0291357D01*
X0566513Y0291321D01*
X0566669Y0291282D01*
X0566824Y0291239D01*
X0566978Y0291192D01*
X0567131Y0291141D01*
X0567282Y0291086D01*
X0567432Y0291028D01*
X0567580Y0290966D01*
X0567727Y0290900D01*
X0567872Y0290831D01*
X0568015Y0290758D01*
X0568157Y0290682D01*
X0568296Y0290602D01*
X0568434Y0290519D01*
X0568569Y0290432D01*
X0568703Y0290342D01*
X0568834Y0290249D01*
X0568962Y0290153D01*
X0569088Y0290053D01*
X0569212Y0289950D01*
X0569333Y0289845D01*
X0569452Y0289736D01*
X0569568Y0289625D01*
X0569681Y0289510D01*
X0569791Y0289393D01*
X0569898Y0289273D01*
X0570002Y0289151D01*
X0570103Y0289026D01*
X0570201Y0288898D01*
X0570296Y0288768D01*
X0570388Y0288636D01*
X0570476Y0288502D01*
X0570561Y0288365D01*
X0570643Y0288227D01*
X0570721Y0288086D01*
X0570795Y0287944D01*
X0570866Y0287800D01*
X0570934Y0287654D01*
X0570997Y0287506D01*
X0571058Y0287357D01*
X0571114Y0287206D01*
X0571167Y0287054D01*
X0571216Y0286901D01*
X0571261Y0286747D01*
X0571302Y0286592D01*
X0571340Y0286435D01*
X0571373Y0286278D01*
X0571403Y0286120D01*
X0571429Y0285961D01*
X0571450Y0285802D01*
X0571468Y0285642D01*
X0571482Y0285482D01*
X0571492Y0285321D01*
X0571498Y0285161D01*
X0571500Y0285000D01*
X0571498Y0284839D01*
X0571492Y0284679D01*
X0571482Y0284518D01*
X0571468Y0284358D01*
X0571450Y0284198D01*
X0571429Y0284039D01*
X0571403Y0283880D01*
X0571373Y0283722D01*
X0571340Y0283565D01*
X0571302Y0283408D01*
X0571261Y0283253D01*
X0571216Y0283099D01*
X0571167Y0282946D01*
X0571114Y0282794D01*
X0571058Y0282643D01*
X0570997Y0282494D01*
X0570934Y0282346D01*
X0570866Y0282200D01*
X0570795Y0282056D01*
X0570721Y0281914D01*
X0570643Y0281773D01*
X0570561Y0281635D01*
X0570476Y0281498D01*
X0570388Y0281364D01*
X0570296Y0281232D01*
X0570201Y0281102D01*
X0570103Y0280974D01*
X0570002Y0280849D01*
X0569898Y0280727D01*
X0569791Y0280607D01*
X0569681Y0280490D01*
X0569568Y0280375D01*
X0569452Y0280264D01*
X0569333Y0280155D01*
X0569212Y0280050D01*
X0569088Y0279947D01*
X0568962Y0279847D01*
X0568834Y0279751D01*
X0568703Y0279658D01*
X0568569Y0279568D01*
X0568434Y0279481D01*
X0568296Y0279398D01*
X0568157Y0279318D01*
X0568015Y0279242D01*
X0567872Y0279169D01*
X0567727Y0279100D01*
X0567580Y0279034D01*
X0567432Y0278972D01*
X0567282Y0278914D01*
X0567131Y0278859D01*
X0566978Y0278808D01*
X0566824Y0278761D01*
X0566669Y0278718D01*
X0566513Y0278679D01*
X0566357Y0278643D01*
X0566199Y0278612D01*
X0566041Y0278584D01*
X0565882Y0278560D01*
X0565722Y0278540D01*
X0565562Y0278524D01*
X0565402Y0278512D01*
X0565241Y0278504D01*
X0565080Y0278500D01*
X0564920Y0278500D01*
X0564759Y0278504D01*
X0564598Y0278512D01*
X0564438Y0278524D01*
X0564278Y0278540D01*
X0564118Y0278560D01*
X0563959Y0278584D01*
X0563801Y0278612D01*
X0563643Y0278643D01*
X0563487Y0278679D01*
X0563331Y0278718D01*
X0563176Y0278761D01*
X0563022Y0278808D01*
X0562869Y0278859D01*
X0562718Y0278914D01*
X0562568Y0278972D01*
X0562420Y0279034D01*
X0562273Y0279100D01*
X0562128Y0279169D01*
X0561985Y0279242D01*
X0561843Y0279318D01*
X0561704Y0279398D01*
X0561566Y0279481D01*
X0561431Y0279568D01*
X0561297Y0279658D01*
X0561166Y0279751D01*
X0561038Y0279847D01*
X0560912Y0279947D01*
X0560788Y0280050D01*
X0560667Y0280155D01*
X0560548Y0280264D01*
X0560432Y0280375D01*
X0560319Y0280490D01*
X0560209Y0280607D01*
X0560102Y0280727D01*
X0559998Y0280849D01*
X0559897Y0280974D01*
X0559799Y0281102D01*
X0559704Y0281232D01*
X0559612Y0281364D01*
X0559524Y0281498D01*
X0559439Y0281635D01*
X0559357Y0281773D01*
X0559279Y0281914D01*
X0559205Y0282056D01*
X0559134Y0282200D01*
X0559066Y0282346D01*
X0559003Y0282494D01*
X0558942Y0282643D01*
X0558886Y0282794D01*
X0558833Y0282946D01*
X0558784Y0283099D01*
X0558739Y0283253D01*
X0558698Y0283408D01*
X0558660Y0283565D01*
X0558627Y0283722D01*
X0558597Y0283880D01*
X0558571Y0284039D01*
X0558550Y0284198D01*
X0558532Y0284358D01*
X0558518Y0284518D01*
X0558508Y0284679D01*
X0558502Y0284839D01*
X0558500Y0285000D01*
X0698500Y0285000D02*
X0698502Y0285161D01*
X0698508Y0285321D01*
X0698518Y0285482D01*
X0698532Y0285642D01*
X0698550Y0285802D01*
X0698571Y0285961D01*
X0698597Y0286120D01*
X0698627Y0286278D01*
X0698660Y0286435D01*
X0698698Y0286592D01*
X0698739Y0286747D01*
X0698784Y0286901D01*
X0698833Y0287054D01*
X0698886Y0287206D01*
X0698942Y0287357D01*
X0699003Y0287506D01*
X0699066Y0287654D01*
X0699134Y0287800D01*
X0699205Y0287944D01*
X0699279Y0288086D01*
X0699357Y0288227D01*
X0699439Y0288365D01*
X0699524Y0288502D01*
X0699612Y0288636D01*
X0699704Y0288768D01*
X0699799Y0288898D01*
X0699897Y0289026D01*
X0699998Y0289151D01*
X0700102Y0289273D01*
X0700209Y0289393D01*
X0700319Y0289510D01*
X0700432Y0289625D01*
X0700548Y0289736D01*
X0700667Y0289845D01*
X0700788Y0289950D01*
X0700912Y0290053D01*
X0701038Y0290153D01*
X0701166Y0290249D01*
X0701297Y0290342D01*
X0701431Y0290432D01*
X0701566Y0290519D01*
X0701704Y0290602D01*
X0701843Y0290682D01*
X0701985Y0290758D01*
X0702128Y0290831D01*
X0702273Y0290900D01*
X0702420Y0290966D01*
X0702568Y0291028D01*
X0702718Y0291086D01*
X0702869Y0291141D01*
X0703022Y0291192D01*
X0703176Y0291239D01*
X0703331Y0291282D01*
X0703487Y0291321D01*
X0703643Y0291357D01*
X0703801Y0291388D01*
X0703959Y0291416D01*
X0704118Y0291440D01*
X0704278Y0291460D01*
X0704438Y0291476D01*
X0704598Y0291488D01*
X0704759Y0291496D01*
X0704920Y0291500D01*
X0705080Y0291500D01*
X0705241Y0291496D01*
X0705402Y0291488D01*
X0705562Y0291476D01*
X0705722Y0291460D01*
X0705882Y0291440D01*
X0706041Y0291416D01*
X0706199Y0291388D01*
X0706357Y0291357D01*
X0706513Y0291321D01*
X0706669Y0291282D01*
X0706824Y0291239D01*
X0706978Y0291192D01*
X0707131Y0291141D01*
X0707282Y0291086D01*
X0707432Y0291028D01*
X0707580Y0290966D01*
X0707727Y0290900D01*
X0707872Y0290831D01*
X0708015Y0290758D01*
X0708157Y0290682D01*
X0708296Y0290602D01*
X0708434Y0290519D01*
X0708569Y0290432D01*
X0708703Y0290342D01*
X0708834Y0290249D01*
X0708962Y0290153D01*
X0709088Y0290053D01*
X0709212Y0289950D01*
X0709333Y0289845D01*
X0709452Y0289736D01*
X0709568Y0289625D01*
X0709681Y0289510D01*
X0709791Y0289393D01*
X0709898Y0289273D01*
X0710002Y0289151D01*
X0710103Y0289026D01*
X0710201Y0288898D01*
X0710296Y0288768D01*
X0710388Y0288636D01*
X0710476Y0288502D01*
X0710561Y0288365D01*
X0710643Y0288227D01*
X0710721Y0288086D01*
X0710795Y0287944D01*
X0710866Y0287800D01*
X0710934Y0287654D01*
X0710997Y0287506D01*
X0711058Y0287357D01*
X0711114Y0287206D01*
X0711167Y0287054D01*
X0711216Y0286901D01*
X0711261Y0286747D01*
X0711302Y0286592D01*
X0711340Y0286435D01*
X0711373Y0286278D01*
X0711403Y0286120D01*
X0711429Y0285961D01*
X0711450Y0285802D01*
X0711468Y0285642D01*
X0711482Y0285482D01*
X0711492Y0285321D01*
X0711498Y0285161D01*
X0711500Y0285000D01*
X0711498Y0284839D01*
X0711492Y0284679D01*
X0711482Y0284518D01*
X0711468Y0284358D01*
X0711450Y0284198D01*
X0711429Y0284039D01*
X0711403Y0283880D01*
X0711373Y0283722D01*
X0711340Y0283565D01*
X0711302Y0283408D01*
X0711261Y0283253D01*
X0711216Y0283099D01*
X0711167Y0282946D01*
X0711114Y0282794D01*
X0711058Y0282643D01*
X0710997Y0282494D01*
X0710934Y0282346D01*
X0710866Y0282200D01*
X0710795Y0282056D01*
X0710721Y0281914D01*
X0710643Y0281773D01*
X0710561Y0281635D01*
X0710476Y0281498D01*
X0710388Y0281364D01*
X0710296Y0281232D01*
X0710201Y0281102D01*
X0710103Y0280974D01*
X0710002Y0280849D01*
X0709898Y0280727D01*
X0709791Y0280607D01*
X0709681Y0280490D01*
X0709568Y0280375D01*
X0709452Y0280264D01*
X0709333Y0280155D01*
X0709212Y0280050D01*
X0709088Y0279947D01*
X0708962Y0279847D01*
X0708834Y0279751D01*
X0708703Y0279658D01*
X0708569Y0279568D01*
X0708434Y0279481D01*
X0708296Y0279398D01*
X0708157Y0279318D01*
X0708015Y0279242D01*
X0707872Y0279169D01*
X0707727Y0279100D01*
X0707580Y0279034D01*
X0707432Y0278972D01*
X0707282Y0278914D01*
X0707131Y0278859D01*
X0706978Y0278808D01*
X0706824Y0278761D01*
X0706669Y0278718D01*
X0706513Y0278679D01*
X0706357Y0278643D01*
X0706199Y0278612D01*
X0706041Y0278584D01*
X0705882Y0278560D01*
X0705722Y0278540D01*
X0705562Y0278524D01*
X0705402Y0278512D01*
X0705241Y0278504D01*
X0705080Y0278500D01*
X0704920Y0278500D01*
X0704759Y0278504D01*
X0704598Y0278512D01*
X0704438Y0278524D01*
X0704278Y0278540D01*
X0704118Y0278560D01*
X0703959Y0278584D01*
X0703801Y0278612D01*
X0703643Y0278643D01*
X0703487Y0278679D01*
X0703331Y0278718D01*
X0703176Y0278761D01*
X0703022Y0278808D01*
X0702869Y0278859D01*
X0702718Y0278914D01*
X0702568Y0278972D01*
X0702420Y0279034D01*
X0702273Y0279100D01*
X0702128Y0279169D01*
X0701985Y0279242D01*
X0701843Y0279318D01*
X0701704Y0279398D01*
X0701566Y0279481D01*
X0701431Y0279568D01*
X0701297Y0279658D01*
X0701166Y0279751D01*
X0701038Y0279847D01*
X0700912Y0279947D01*
X0700788Y0280050D01*
X0700667Y0280155D01*
X0700548Y0280264D01*
X0700432Y0280375D01*
X0700319Y0280490D01*
X0700209Y0280607D01*
X0700102Y0280727D01*
X0699998Y0280849D01*
X0699897Y0280974D01*
X0699799Y0281102D01*
X0699704Y0281232D01*
X0699612Y0281364D01*
X0699524Y0281498D01*
X0699439Y0281635D01*
X0699357Y0281773D01*
X0699279Y0281914D01*
X0699205Y0282056D01*
X0699134Y0282200D01*
X0699066Y0282346D01*
X0699003Y0282494D01*
X0698942Y0282643D01*
X0698886Y0282794D01*
X0698833Y0282946D01*
X0698784Y0283099D01*
X0698739Y0283253D01*
X0698698Y0283408D01*
X0698660Y0283565D01*
X0698627Y0283722D01*
X0698597Y0283880D01*
X0698571Y0284039D01*
X0698550Y0284198D01*
X0698532Y0284358D01*
X0698518Y0284518D01*
X0698508Y0284679D01*
X0698502Y0284839D01*
X0698500Y0285000D01*
X0698500Y0585000D02*
X0698502Y0585161D01*
X0698508Y0585321D01*
X0698518Y0585482D01*
X0698532Y0585642D01*
X0698550Y0585802D01*
X0698571Y0585961D01*
X0698597Y0586120D01*
X0698627Y0586278D01*
X0698660Y0586435D01*
X0698698Y0586592D01*
X0698739Y0586747D01*
X0698784Y0586901D01*
X0698833Y0587054D01*
X0698886Y0587206D01*
X0698942Y0587357D01*
X0699003Y0587506D01*
X0699066Y0587654D01*
X0699134Y0587800D01*
X0699205Y0587944D01*
X0699279Y0588086D01*
X0699357Y0588227D01*
X0699439Y0588365D01*
X0699524Y0588502D01*
X0699612Y0588636D01*
X0699704Y0588768D01*
X0699799Y0588898D01*
X0699897Y0589026D01*
X0699998Y0589151D01*
X0700102Y0589273D01*
X0700209Y0589393D01*
X0700319Y0589510D01*
X0700432Y0589625D01*
X0700548Y0589736D01*
X0700667Y0589845D01*
X0700788Y0589950D01*
X0700912Y0590053D01*
X0701038Y0590153D01*
X0701166Y0590249D01*
X0701297Y0590342D01*
X0701431Y0590432D01*
X0701566Y0590519D01*
X0701704Y0590602D01*
X0701843Y0590682D01*
X0701985Y0590758D01*
X0702128Y0590831D01*
X0702273Y0590900D01*
X0702420Y0590966D01*
X0702568Y0591028D01*
X0702718Y0591086D01*
X0702869Y0591141D01*
X0703022Y0591192D01*
X0703176Y0591239D01*
X0703331Y0591282D01*
X0703487Y0591321D01*
X0703643Y0591357D01*
X0703801Y0591388D01*
X0703959Y0591416D01*
X0704118Y0591440D01*
X0704278Y0591460D01*
X0704438Y0591476D01*
X0704598Y0591488D01*
X0704759Y0591496D01*
X0704920Y0591500D01*
X0705080Y0591500D01*
X0705241Y0591496D01*
X0705402Y0591488D01*
X0705562Y0591476D01*
X0705722Y0591460D01*
X0705882Y0591440D01*
X0706041Y0591416D01*
X0706199Y0591388D01*
X0706357Y0591357D01*
X0706513Y0591321D01*
X0706669Y0591282D01*
X0706824Y0591239D01*
X0706978Y0591192D01*
X0707131Y0591141D01*
X0707282Y0591086D01*
X0707432Y0591028D01*
X0707580Y0590966D01*
X0707727Y0590900D01*
X0707872Y0590831D01*
X0708015Y0590758D01*
X0708157Y0590682D01*
X0708296Y0590602D01*
X0708434Y0590519D01*
X0708569Y0590432D01*
X0708703Y0590342D01*
X0708834Y0590249D01*
X0708962Y0590153D01*
X0709088Y0590053D01*
X0709212Y0589950D01*
X0709333Y0589845D01*
X0709452Y0589736D01*
X0709568Y0589625D01*
X0709681Y0589510D01*
X0709791Y0589393D01*
X0709898Y0589273D01*
X0710002Y0589151D01*
X0710103Y0589026D01*
X0710201Y0588898D01*
X0710296Y0588768D01*
X0710388Y0588636D01*
X0710476Y0588502D01*
X0710561Y0588365D01*
X0710643Y0588227D01*
X0710721Y0588086D01*
X0710795Y0587944D01*
X0710866Y0587800D01*
X0710934Y0587654D01*
X0710997Y0587506D01*
X0711058Y0587357D01*
X0711114Y0587206D01*
X0711167Y0587054D01*
X0711216Y0586901D01*
X0711261Y0586747D01*
X0711302Y0586592D01*
X0711340Y0586435D01*
X0711373Y0586278D01*
X0711403Y0586120D01*
X0711429Y0585961D01*
X0711450Y0585802D01*
X0711468Y0585642D01*
X0711482Y0585482D01*
X0711492Y0585321D01*
X0711498Y0585161D01*
X0711500Y0585000D01*
X0711498Y0584839D01*
X0711492Y0584679D01*
X0711482Y0584518D01*
X0711468Y0584358D01*
X0711450Y0584198D01*
X0711429Y0584039D01*
X0711403Y0583880D01*
X0711373Y0583722D01*
X0711340Y0583565D01*
X0711302Y0583408D01*
X0711261Y0583253D01*
X0711216Y0583099D01*
X0711167Y0582946D01*
X0711114Y0582794D01*
X0711058Y0582643D01*
X0710997Y0582494D01*
X0710934Y0582346D01*
X0710866Y0582200D01*
X0710795Y0582056D01*
X0710721Y0581914D01*
X0710643Y0581773D01*
X0710561Y0581635D01*
X0710476Y0581498D01*
X0710388Y0581364D01*
X0710296Y0581232D01*
X0710201Y0581102D01*
X0710103Y0580974D01*
X0710002Y0580849D01*
X0709898Y0580727D01*
X0709791Y0580607D01*
X0709681Y0580490D01*
X0709568Y0580375D01*
X0709452Y0580264D01*
X0709333Y0580155D01*
X0709212Y0580050D01*
X0709088Y0579947D01*
X0708962Y0579847D01*
X0708834Y0579751D01*
X0708703Y0579658D01*
X0708569Y0579568D01*
X0708434Y0579481D01*
X0708296Y0579398D01*
X0708157Y0579318D01*
X0708015Y0579242D01*
X0707872Y0579169D01*
X0707727Y0579100D01*
X0707580Y0579034D01*
X0707432Y0578972D01*
X0707282Y0578914D01*
X0707131Y0578859D01*
X0706978Y0578808D01*
X0706824Y0578761D01*
X0706669Y0578718D01*
X0706513Y0578679D01*
X0706357Y0578643D01*
X0706199Y0578612D01*
X0706041Y0578584D01*
X0705882Y0578560D01*
X0705722Y0578540D01*
X0705562Y0578524D01*
X0705402Y0578512D01*
X0705241Y0578504D01*
X0705080Y0578500D01*
X0704920Y0578500D01*
X0704759Y0578504D01*
X0704598Y0578512D01*
X0704438Y0578524D01*
X0704278Y0578540D01*
X0704118Y0578560D01*
X0703959Y0578584D01*
X0703801Y0578612D01*
X0703643Y0578643D01*
X0703487Y0578679D01*
X0703331Y0578718D01*
X0703176Y0578761D01*
X0703022Y0578808D01*
X0702869Y0578859D01*
X0702718Y0578914D01*
X0702568Y0578972D01*
X0702420Y0579034D01*
X0702273Y0579100D01*
X0702128Y0579169D01*
X0701985Y0579242D01*
X0701843Y0579318D01*
X0701704Y0579398D01*
X0701566Y0579481D01*
X0701431Y0579568D01*
X0701297Y0579658D01*
X0701166Y0579751D01*
X0701038Y0579847D01*
X0700912Y0579947D01*
X0700788Y0580050D01*
X0700667Y0580155D01*
X0700548Y0580264D01*
X0700432Y0580375D01*
X0700319Y0580490D01*
X0700209Y0580607D01*
X0700102Y0580727D01*
X0699998Y0580849D01*
X0699897Y0580974D01*
X0699799Y0581102D01*
X0699704Y0581232D01*
X0699612Y0581364D01*
X0699524Y0581498D01*
X0699439Y0581635D01*
X0699357Y0581773D01*
X0699279Y0581914D01*
X0699205Y0582056D01*
X0699134Y0582200D01*
X0699066Y0582346D01*
X0699003Y0582494D01*
X0698942Y0582643D01*
X0698886Y0582794D01*
X0698833Y0582946D01*
X0698784Y0583099D01*
X0698739Y0583253D01*
X0698698Y0583408D01*
X0698660Y0583565D01*
X0698627Y0583722D01*
X0698597Y0583880D01*
X0698571Y0584039D01*
X0698550Y0584198D01*
X0698532Y0584358D01*
X0698518Y0584518D01*
X0698508Y0584679D01*
X0698502Y0584839D01*
X0698500Y0585000D01*
X0558500Y0585000D02*
X0558502Y0585161D01*
X0558508Y0585321D01*
X0558518Y0585482D01*
X0558532Y0585642D01*
X0558550Y0585802D01*
X0558571Y0585961D01*
X0558597Y0586120D01*
X0558627Y0586278D01*
X0558660Y0586435D01*
X0558698Y0586592D01*
X0558739Y0586747D01*
X0558784Y0586901D01*
X0558833Y0587054D01*
X0558886Y0587206D01*
X0558942Y0587357D01*
X0559003Y0587506D01*
X0559066Y0587654D01*
X0559134Y0587800D01*
X0559205Y0587944D01*
X0559279Y0588086D01*
X0559357Y0588227D01*
X0559439Y0588365D01*
X0559524Y0588502D01*
X0559612Y0588636D01*
X0559704Y0588768D01*
X0559799Y0588898D01*
X0559897Y0589026D01*
X0559998Y0589151D01*
X0560102Y0589273D01*
X0560209Y0589393D01*
X0560319Y0589510D01*
X0560432Y0589625D01*
X0560548Y0589736D01*
X0560667Y0589845D01*
X0560788Y0589950D01*
X0560912Y0590053D01*
X0561038Y0590153D01*
X0561166Y0590249D01*
X0561297Y0590342D01*
X0561431Y0590432D01*
X0561566Y0590519D01*
X0561704Y0590602D01*
X0561843Y0590682D01*
X0561985Y0590758D01*
X0562128Y0590831D01*
X0562273Y0590900D01*
X0562420Y0590966D01*
X0562568Y0591028D01*
X0562718Y0591086D01*
X0562869Y0591141D01*
X0563022Y0591192D01*
X0563176Y0591239D01*
X0563331Y0591282D01*
X0563487Y0591321D01*
X0563643Y0591357D01*
X0563801Y0591388D01*
X0563959Y0591416D01*
X0564118Y0591440D01*
X0564278Y0591460D01*
X0564438Y0591476D01*
X0564598Y0591488D01*
X0564759Y0591496D01*
X0564920Y0591500D01*
X0565080Y0591500D01*
X0565241Y0591496D01*
X0565402Y0591488D01*
X0565562Y0591476D01*
X0565722Y0591460D01*
X0565882Y0591440D01*
X0566041Y0591416D01*
X0566199Y0591388D01*
X0566357Y0591357D01*
X0566513Y0591321D01*
X0566669Y0591282D01*
X0566824Y0591239D01*
X0566978Y0591192D01*
X0567131Y0591141D01*
X0567282Y0591086D01*
X0567432Y0591028D01*
X0567580Y0590966D01*
X0567727Y0590900D01*
X0567872Y0590831D01*
X0568015Y0590758D01*
X0568157Y0590682D01*
X0568296Y0590602D01*
X0568434Y0590519D01*
X0568569Y0590432D01*
X0568703Y0590342D01*
X0568834Y0590249D01*
X0568962Y0590153D01*
X0569088Y0590053D01*
X0569212Y0589950D01*
X0569333Y0589845D01*
X0569452Y0589736D01*
X0569568Y0589625D01*
X0569681Y0589510D01*
X0569791Y0589393D01*
X0569898Y0589273D01*
X0570002Y0589151D01*
X0570103Y0589026D01*
X0570201Y0588898D01*
X0570296Y0588768D01*
X0570388Y0588636D01*
X0570476Y0588502D01*
X0570561Y0588365D01*
X0570643Y0588227D01*
X0570721Y0588086D01*
X0570795Y0587944D01*
X0570866Y0587800D01*
X0570934Y0587654D01*
X0570997Y0587506D01*
X0571058Y0587357D01*
X0571114Y0587206D01*
X0571167Y0587054D01*
X0571216Y0586901D01*
X0571261Y0586747D01*
X0571302Y0586592D01*
X0571340Y0586435D01*
X0571373Y0586278D01*
X0571403Y0586120D01*
X0571429Y0585961D01*
X0571450Y0585802D01*
X0571468Y0585642D01*
X0571482Y0585482D01*
X0571492Y0585321D01*
X0571498Y0585161D01*
X0571500Y0585000D01*
X0571498Y0584839D01*
X0571492Y0584679D01*
X0571482Y0584518D01*
X0571468Y0584358D01*
X0571450Y0584198D01*
X0571429Y0584039D01*
X0571403Y0583880D01*
X0571373Y0583722D01*
X0571340Y0583565D01*
X0571302Y0583408D01*
X0571261Y0583253D01*
X0571216Y0583099D01*
X0571167Y0582946D01*
X0571114Y0582794D01*
X0571058Y0582643D01*
X0570997Y0582494D01*
X0570934Y0582346D01*
X0570866Y0582200D01*
X0570795Y0582056D01*
X0570721Y0581914D01*
X0570643Y0581773D01*
X0570561Y0581635D01*
X0570476Y0581498D01*
X0570388Y0581364D01*
X0570296Y0581232D01*
X0570201Y0581102D01*
X0570103Y0580974D01*
X0570002Y0580849D01*
X0569898Y0580727D01*
X0569791Y0580607D01*
X0569681Y0580490D01*
X0569568Y0580375D01*
X0569452Y0580264D01*
X0569333Y0580155D01*
X0569212Y0580050D01*
X0569088Y0579947D01*
X0568962Y0579847D01*
X0568834Y0579751D01*
X0568703Y0579658D01*
X0568569Y0579568D01*
X0568434Y0579481D01*
X0568296Y0579398D01*
X0568157Y0579318D01*
X0568015Y0579242D01*
X0567872Y0579169D01*
X0567727Y0579100D01*
X0567580Y0579034D01*
X0567432Y0578972D01*
X0567282Y0578914D01*
X0567131Y0578859D01*
X0566978Y0578808D01*
X0566824Y0578761D01*
X0566669Y0578718D01*
X0566513Y0578679D01*
X0566357Y0578643D01*
X0566199Y0578612D01*
X0566041Y0578584D01*
X0565882Y0578560D01*
X0565722Y0578540D01*
X0565562Y0578524D01*
X0565402Y0578512D01*
X0565241Y0578504D01*
X0565080Y0578500D01*
X0564920Y0578500D01*
X0564759Y0578504D01*
X0564598Y0578512D01*
X0564438Y0578524D01*
X0564278Y0578540D01*
X0564118Y0578560D01*
X0563959Y0578584D01*
X0563801Y0578612D01*
X0563643Y0578643D01*
X0563487Y0578679D01*
X0563331Y0578718D01*
X0563176Y0578761D01*
X0563022Y0578808D01*
X0562869Y0578859D01*
X0562718Y0578914D01*
X0562568Y0578972D01*
X0562420Y0579034D01*
X0562273Y0579100D01*
X0562128Y0579169D01*
X0561985Y0579242D01*
X0561843Y0579318D01*
X0561704Y0579398D01*
X0561566Y0579481D01*
X0561431Y0579568D01*
X0561297Y0579658D01*
X0561166Y0579751D01*
X0561038Y0579847D01*
X0560912Y0579947D01*
X0560788Y0580050D01*
X0560667Y0580155D01*
X0560548Y0580264D01*
X0560432Y0580375D01*
X0560319Y0580490D01*
X0560209Y0580607D01*
X0560102Y0580727D01*
X0559998Y0580849D01*
X0559897Y0580974D01*
X0559799Y0581102D01*
X0559704Y0581232D01*
X0559612Y0581364D01*
X0559524Y0581498D01*
X0559439Y0581635D01*
X0559357Y0581773D01*
X0559279Y0581914D01*
X0559205Y0582056D01*
X0559134Y0582200D01*
X0559066Y0582346D01*
X0559003Y0582494D01*
X0558942Y0582643D01*
X0558886Y0582794D01*
X0558833Y0582946D01*
X0558784Y0583099D01*
X0558739Y0583253D01*
X0558698Y0583408D01*
X0558660Y0583565D01*
X0558627Y0583722D01*
X0558597Y0583880D01*
X0558571Y0584039D01*
X0558550Y0584198D01*
X0558532Y0584358D01*
X0558518Y0584518D01*
X0558508Y0584679D01*
X0558502Y0584839D01*
X0558500Y0585000D01*
X0253500Y0585000D02*
X0253502Y0585161D01*
X0253508Y0585321D01*
X0253518Y0585482D01*
X0253532Y0585642D01*
X0253550Y0585802D01*
X0253571Y0585961D01*
X0253597Y0586120D01*
X0253627Y0586278D01*
X0253660Y0586435D01*
X0253698Y0586592D01*
X0253739Y0586747D01*
X0253784Y0586901D01*
X0253833Y0587054D01*
X0253886Y0587206D01*
X0253942Y0587357D01*
X0254003Y0587506D01*
X0254066Y0587654D01*
X0254134Y0587800D01*
X0254205Y0587944D01*
X0254279Y0588086D01*
X0254357Y0588227D01*
X0254439Y0588365D01*
X0254524Y0588502D01*
X0254612Y0588636D01*
X0254704Y0588768D01*
X0254799Y0588898D01*
X0254897Y0589026D01*
X0254998Y0589151D01*
X0255102Y0589273D01*
X0255209Y0589393D01*
X0255319Y0589510D01*
X0255432Y0589625D01*
X0255548Y0589736D01*
X0255667Y0589845D01*
X0255788Y0589950D01*
X0255912Y0590053D01*
X0256038Y0590153D01*
X0256166Y0590249D01*
X0256297Y0590342D01*
X0256431Y0590432D01*
X0256566Y0590519D01*
X0256704Y0590602D01*
X0256843Y0590682D01*
X0256985Y0590758D01*
X0257128Y0590831D01*
X0257273Y0590900D01*
X0257420Y0590966D01*
X0257568Y0591028D01*
X0257718Y0591086D01*
X0257869Y0591141D01*
X0258022Y0591192D01*
X0258176Y0591239D01*
X0258331Y0591282D01*
X0258487Y0591321D01*
X0258643Y0591357D01*
X0258801Y0591388D01*
X0258959Y0591416D01*
X0259118Y0591440D01*
X0259278Y0591460D01*
X0259438Y0591476D01*
X0259598Y0591488D01*
X0259759Y0591496D01*
X0259920Y0591500D01*
X0260080Y0591500D01*
X0260241Y0591496D01*
X0260402Y0591488D01*
X0260562Y0591476D01*
X0260722Y0591460D01*
X0260882Y0591440D01*
X0261041Y0591416D01*
X0261199Y0591388D01*
X0261357Y0591357D01*
X0261513Y0591321D01*
X0261669Y0591282D01*
X0261824Y0591239D01*
X0261978Y0591192D01*
X0262131Y0591141D01*
X0262282Y0591086D01*
X0262432Y0591028D01*
X0262580Y0590966D01*
X0262727Y0590900D01*
X0262872Y0590831D01*
X0263015Y0590758D01*
X0263157Y0590682D01*
X0263296Y0590602D01*
X0263434Y0590519D01*
X0263569Y0590432D01*
X0263703Y0590342D01*
X0263834Y0590249D01*
X0263962Y0590153D01*
X0264088Y0590053D01*
X0264212Y0589950D01*
X0264333Y0589845D01*
X0264452Y0589736D01*
X0264568Y0589625D01*
X0264681Y0589510D01*
X0264791Y0589393D01*
X0264898Y0589273D01*
X0265002Y0589151D01*
X0265103Y0589026D01*
X0265201Y0588898D01*
X0265296Y0588768D01*
X0265388Y0588636D01*
X0265476Y0588502D01*
X0265561Y0588365D01*
X0265643Y0588227D01*
X0265721Y0588086D01*
X0265795Y0587944D01*
X0265866Y0587800D01*
X0265934Y0587654D01*
X0265997Y0587506D01*
X0266058Y0587357D01*
X0266114Y0587206D01*
X0266167Y0587054D01*
X0266216Y0586901D01*
X0266261Y0586747D01*
X0266302Y0586592D01*
X0266340Y0586435D01*
X0266373Y0586278D01*
X0266403Y0586120D01*
X0266429Y0585961D01*
X0266450Y0585802D01*
X0266468Y0585642D01*
X0266482Y0585482D01*
X0266492Y0585321D01*
X0266498Y0585161D01*
X0266500Y0585000D01*
X0266498Y0584839D01*
X0266492Y0584679D01*
X0266482Y0584518D01*
X0266468Y0584358D01*
X0266450Y0584198D01*
X0266429Y0584039D01*
X0266403Y0583880D01*
X0266373Y0583722D01*
X0266340Y0583565D01*
X0266302Y0583408D01*
X0266261Y0583253D01*
X0266216Y0583099D01*
X0266167Y0582946D01*
X0266114Y0582794D01*
X0266058Y0582643D01*
X0265997Y0582494D01*
X0265934Y0582346D01*
X0265866Y0582200D01*
X0265795Y0582056D01*
X0265721Y0581914D01*
X0265643Y0581773D01*
X0265561Y0581635D01*
X0265476Y0581498D01*
X0265388Y0581364D01*
X0265296Y0581232D01*
X0265201Y0581102D01*
X0265103Y0580974D01*
X0265002Y0580849D01*
X0264898Y0580727D01*
X0264791Y0580607D01*
X0264681Y0580490D01*
X0264568Y0580375D01*
X0264452Y0580264D01*
X0264333Y0580155D01*
X0264212Y0580050D01*
X0264088Y0579947D01*
X0263962Y0579847D01*
X0263834Y0579751D01*
X0263703Y0579658D01*
X0263569Y0579568D01*
X0263434Y0579481D01*
X0263296Y0579398D01*
X0263157Y0579318D01*
X0263015Y0579242D01*
X0262872Y0579169D01*
X0262727Y0579100D01*
X0262580Y0579034D01*
X0262432Y0578972D01*
X0262282Y0578914D01*
X0262131Y0578859D01*
X0261978Y0578808D01*
X0261824Y0578761D01*
X0261669Y0578718D01*
X0261513Y0578679D01*
X0261357Y0578643D01*
X0261199Y0578612D01*
X0261041Y0578584D01*
X0260882Y0578560D01*
X0260722Y0578540D01*
X0260562Y0578524D01*
X0260402Y0578512D01*
X0260241Y0578504D01*
X0260080Y0578500D01*
X0259920Y0578500D01*
X0259759Y0578504D01*
X0259598Y0578512D01*
X0259438Y0578524D01*
X0259278Y0578540D01*
X0259118Y0578560D01*
X0258959Y0578584D01*
X0258801Y0578612D01*
X0258643Y0578643D01*
X0258487Y0578679D01*
X0258331Y0578718D01*
X0258176Y0578761D01*
X0258022Y0578808D01*
X0257869Y0578859D01*
X0257718Y0578914D01*
X0257568Y0578972D01*
X0257420Y0579034D01*
X0257273Y0579100D01*
X0257128Y0579169D01*
X0256985Y0579242D01*
X0256843Y0579318D01*
X0256704Y0579398D01*
X0256566Y0579481D01*
X0256431Y0579568D01*
X0256297Y0579658D01*
X0256166Y0579751D01*
X0256038Y0579847D01*
X0255912Y0579947D01*
X0255788Y0580050D01*
X0255667Y0580155D01*
X0255548Y0580264D01*
X0255432Y0580375D01*
X0255319Y0580490D01*
X0255209Y0580607D01*
X0255102Y0580727D01*
X0254998Y0580849D01*
X0254897Y0580974D01*
X0254799Y0581102D01*
X0254704Y0581232D01*
X0254612Y0581364D01*
X0254524Y0581498D01*
X0254439Y0581635D01*
X0254357Y0581773D01*
X0254279Y0581914D01*
X0254205Y0582056D01*
X0254134Y0582200D01*
X0254066Y0582346D01*
X0254003Y0582494D01*
X0253942Y0582643D01*
X0253886Y0582794D01*
X0253833Y0582946D01*
X0253784Y0583099D01*
X0253739Y0583253D01*
X0253698Y0583408D01*
X0253660Y0583565D01*
X0253627Y0583722D01*
X0253597Y0583880D01*
X0253571Y0584039D01*
X0253550Y0584198D01*
X0253532Y0584358D01*
X0253518Y0584518D01*
X0253508Y0584679D01*
X0253502Y0584839D01*
X0253500Y0585000D01*
D11*
X0260000Y0264000D02*
X0260000Y0217323D01*
X0260256Y0225000D02*
X0270236Y0223976D01*
X0270236Y0223743D02*
X0260256Y0225000D01*
X0270236Y0226024D01*
X0270236Y0226257D02*
X0270236Y0223743D01*
X0270236Y0224488D02*
X0260256Y0225000D01*
X0270236Y0225512D01*
X0270236Y0226257D02*
X0260256Y0225000D01*
X0564744Y0225000D01*
X0554764Y0223976D01*
X0554764Y0223743D02*
X0564744Y0225000D01*
X0554764Y0226024D01*
X0554764Y0226257D02*
X0554764Y0223743D01*
X0554764Y0224488D02*
X0564744Y0225000D01*
X0554764Y0225512D01*
X0554764Y0226257D02*
X0564744Y0225000D01*
X0565256Y0225000D02*
X0575236Y0223976D01*
X0575236Y0223743D02*
X0565256Y0225000D01*
X0575236Y0226024D01*
X0575236Y0226257D02*
X0575236Y0223743D01*
X0575236Y0224488D02*
X0565256Y0225000D01*
X0575236Y0225512D01*
X0575236Y0226257D02*
X0565256Y0225000D01*
X0704744Y0225000D01*
X0694764Y0223976D01*
X0694764Y0223743D02*
X0704744Y0225000D01*
X0694764Y0226024D01*
X0694764Y0226257D02*
X0694764Y0223743D01*
X0694764Y0224488D02*
X0704744Y0225000D01*
X0694764Y0225512D01*
X0694764Y0226257D02*
X0704744Y0225000D01*
X0705000Y0217323D02*
X0705000Y0264000D01*
X0840000Y0265000D02*
X0892677Y0265000D01*
X0885000Y0265256D02*
X0886024Y0275236D01*
X0886257Y0275236D02*
X0885000Y0265256D01*
X0883976Y0275236D01*
X0883743Y0275236D02*
X0886257Y0275236D01*
X0885512Y0275236D02*
X0885000Y0265256D01*
X0884488Y0275236D01*
X0883743Y0275236D02*
X0885000Y0265256D01*
X0885000Y0604744D01*
X0886024Y0594764D01*
X0886257Y0594764D02*
X0885000Y0604744D01*
X0883976Y0594764D01*
X0883743Y0594764D02*
X0886257Y0594764D01*
X0885512Y0594764D02*
X0885000Y0604744D01*
X0884488Y0594764D01*
X0883743Y0594764D02*
X0885000Y0604744D01*
X0892677Y0605000D02*
X0840000Y0605000D01*
X0840000Y0662677D01*
X0839744Y0655000D02*
X0829764Y0653976D01*
X0829764Y0653743D02*
X0839744Y0655000D01*
X0829764Y0656024D01*
X0829764Y0656257D02*
X0829764Y0653743D01*
X0829764Y0654488D02*
X0839744Y0655000D01*
X0829764Y0655512D01*
X0829764Y0656257D02*
X0839744Y0655000D01*
X0240256Y0655000D01*
X0250236Y0653976D01*
X0250236Y0653743D02*
X0240256Y0655000D01*
X0250236Y0656024D01*
X0250236Y0656257D02*
X0250236Y0653743D01*
X0250236Y0654488D02*
X0240256Y0655000D01*
X0250236Y0655512D01*
X0250236Y0656257D02*
X0240256Y0655000D01*
X0240000Y0662677D02*
X0240000Y0605000D01*
X0239000Y0585000D02*
X0186900Y0585000D01*
X0194577Y0584744D02*
X0195601Y0574764D01*
X0195834Y0574764D02*
X0194577Y0584744D01*
X0193553Y0574764D01*
X0193320Y0574764D02*
X0195834Y0574764D01*
X0195089Y0574764D02*
X0194577Y0584744D01*
X0194065Y0574764D01*
X0193320Y0574764D02*
X0194577Y0584744D01*
X0194577Y0285256D01*
X0195601Y0295236D01*
X0195834Y0295236D02*
X0194577Y0285256D01*
X0193553Y0295236D01*
X0193320Y0295236D02*
X0195834Y0295236D01*
X0195089Y0295236D02*
X0194577Y0285256D01*
X0194065Y0295236D01*
X0193320Y0295236D02*
X0194577Y0285256D01*
X0186900Y0285000D02*
X0239000Y0285000D01*
X0207323Y0285000D01*
X0215000Y0285256D02*
X0216024Y0295236D01*
X0216257Y0295236D02*
X0215000Y0285256D01*
X0213976Y0295236D01*
X0213743Y0295236D02*
X0216257Y0295236D01*
X0215512Y0295236D02*
X0215000Y0285256D01*
X0214488Y0295236D01*
X0213743Y0295236D02*
X0215000Y0285256D01*
X0215000Y0338284D01*
X0215000Y0264744D02*
X0216024Y0254764D01*
X0216257Y0254764D02*
X0215000Y0264744D01*
X0213976Y0254764D01*
X0213743Y0254764D02*
X0216257Y0254764D01*
X0215512Y0254764D02*
X0215000Y0264744D01*
X0214488Y0254764D01*
X0213743Y0254764D02*
X0215000Y0264744D01*
X0215000Y0244528D01*
X0219528Y0240000D02*
X0239744Y0240000D01*
X0229764Y0238976D01*
X0229764Y0238743D02*
X0239744Y0240000D01*
X0229764Y0241024D01*
X0229764Y0241257D02*
X0229764Y0238743D01*
X0229764Y0239488D02*
X0239744Y0240000D01*
X0229764Y0240512D01*
X0229764Y0241257D02*
X0239744Y0240000D01*
X0240000Y0232323D02*
X0240000Y0264000D01*
X0239000Y0265000D02*
X0207323Y0265000D01*
X0260000Y0264000D02*
X0260000Y0232323D01*
X0260256Y0240000D02*
X0270236Y0238976D01*
X0270236Y0238743D02*
X0260256Y0240000D01*
X0270236Y0241024D01*
X0270236Y0241257D02*
X0270236Y0238743D01*
X0270236Y0239488D02*
X0260256Y0240000D01*
X0270236Y0240512D01*
X0270236Y0241257D02*
X0260256Y0240000D01*
X0313284Y0240000D01*
X0565000Y0217323D02*
X0565000Y0264000D01*
X0565000Y0217323D01*
D12*
X0613776Y0227562D02*
X0618046Y0227562D01*
X0615911Y0227562D02*
X0615911Y0233967D01*
X0613776Y0231832D01*
X0620221Y0228629D02*
X0621289Y0228629D01*
X0621289Y0227562D01*
X0620221Y0227562D01*
X0620221Y0228629D01*
X0623444Y0230765D02*
X0627715Y0230765D01*
X0629890Y0232900D02*
X0630957Y0233967D01*
X0633092Y0233967D01*
X0634160Y0232900D01*
X0629890Y0228629D01*
X0630957Y0227562D01*
X0633092Y0227562D01*
X0634160Y0228629D01*
X0634160Y0232900D01*
X0636335Y0232900D02*
X0637403Y0233967D01*
X0639538Y0233967D01*
X0640606Y0232900D01*
X0636335Y0228629D01*
X0637403Y0227562D01*
X0639538Y0227562D01*
X0640606Y0228629D01*
X0640606Y0232900D01*
X0642781Y0231832D02*
X0643848Y0231832D01*
X0643848Y0227562D01*
X0642781Y0227562D02*
X0644916Y0227562D01*
X0647078Y0227562D02*
X0647078Y0231832D01*
X0650280Y0231832D01*
X0651348Y0230765D01*
X0651348Y0227562D01*
X0653523Y0228629D02*
X0654591Y0227562D01*
X0657794Y0227562D01*
X0659969Y0227562D02*
X0659969Y0233967D01*
X0661036Y0231832D02*
X0663171Y0231832D01*
X0664239Y0230765D01*
X0664239Y0227562D01*
X0659969Y0230765D02*
X0661036Y0231832D01*
X0657794Y0231832D02*
X0654591Y0231832D01*
X0653523Y0230765D01*
X0653523Y0228629D01*
X0643848Y0233967D02*
X0643848Y0235035D01*
X0636335Y0232900D02*
X0636335Y0228629D01*
X0629890Y0228629D02*
X0629890Y0232900D01*
X0626647Y0233967D02*
X0623444Y0230765D01*
X0626647Y0227562D02*
X0626647Y0233967D01*
X0441739Y0230765D02*
X0441739Y0227562D01*
X0441739Y0230765D02*
X0440671Y0231832D01*
X0438536Y0231832D01*
X0437469Y0230765D01*
X0435294Y0231832D02*
X0432091Y0231832D01*
X0431023Y0230765D01*
X0431023Y0228629D01*
X0432091Y0227562D01*
X0435294Y0227562D01*
X0437469Y0227562D02*
X0437469Y0233967D01*
X0428848Y0230765D02*
X0428848Y0227562D01*
X0428848Y0230765D02*
X0427780Y0231832D01*
X0424578Y0231832D01*
X0424578Y0227562D01*
X0422416Y0227562D02*
X0420281Y0227562D01*
X0421348Y0227562D02*
X0421348Y0231832D01*
X0420281Y0231832D01*
X0421348Y0233967D02*
X0421348Y0235035D01*
X0418106Y0232900D02*
X0413835Y0228629D01*
X0414903Y0227562D01*
X0417038Y0227562D01*
X0418106Y0228629D01*
X0418106Y0232900D01*
X0417038Y0233967D01*
X0414903Y0233967D01*
X0413835Y0232900D01*
X0413835Y0228629D01*
X0411660Y0228629D02*
X0410592Y0227562D01*
X0408457Y0227562D01*
X0407390Y0228629D01*
X0407390Y0230765D02*
X0409525Y0231832D01*
X0410592Y0231832D01*
X0411660Y0230765D01*
X0411660Y0228629D01*
X0407390Y0230765D02*
X0407390Y0233967D01*
X0411660Y0233967D01*
X0405215Y0232900D02*
X0400944Y0228629D01*
X0402012Y0227562D01*
X0404147Y0227562D01*
X0405215Y0228629D01*
X0405215Y0232900D01*
X0404147Y0233967D01*
X0402012Y0233967D01*
X0400944Y0232900D01*
X0400944Y0228629D01*
X0398789Y0228629D02*
X0398789Y0227562D01*
X0397721Y0227562D01*
X0397721Y0228629D01*
X0398789Y0228629D01*
X0395546Y0228629D02*
X0394479Y0227562D01*
X0392344Y0227562D01*
X0391276Y0228629D01*
X0393411Y0230765D02*
X0394479Y0230765D01*
X0395546Y0229697D01*
X0395546Y0228629D01*
X0394479Y0230765D02*
X0395546Y0231832D01*
X0395546Y0232900D01*
X0394479Y0233967D01*
X0392344Y0233967D01*
X0391276Y0232900D01*
X0320999Y0242562D02*
X0320999Y0245765D01*
X0319932Y0246832D01*
X0317797Y0246832D01*
X0316729Y0245765D01*
X0314554Y0246832D02*
X0311351Y0246832D01*
X0310283Y0245765D01*
X0310283Y0243629D01*
X0311351Y0242562D01*
X0314554Y0242562D01*
X0316729Y0242562D02*
X0316729Y0248967D01*
X0308108Y0245765D02*
X0308108Y0242562D01*
X0308108Y0245765D02*
X0307041Y0246832D01*
X0303838Y0246832D01*
X0303838Y0242562D01*
X0301676Y0242562D02*
X0299541Y0242562D01*
X0300609Y0242562D02*
X0300609Y0246832D01*
X0299541Y0246832D01*
X0300609Y0248967D02*
X0300609Y0250035D01*
X0297366Y0247900D02*
X0296298Y0248967D01*
X0294163Y0248967D01*
X0293095Y0247900D01*
X0293095Y0243629D01*
X0297366Y0247900D01*
X0297366Y0243629D01*
X0296298Y0242562D01*
X0294163Y0242562D01*
X0293095Y0243629D01*
X0290920Y0243629D02*
X0289853Y0242562D01*
X0287718Y0242562D01*
X0286650Y0243629D01*
X0290920Y0247900D01*
X0290920Y0243629D01*
X0286650Y0243629D02*
X0286650Y0247900D01*
X0287718Y0248967D01*
X0289853Y0248967D01*
X0290920Y0247900D01*
X0284475Y0247900D02*
X0283407Y0248967D01*
X0281272Y0248967D01*
X0280204Y0247900D01*
X0284475Y0247900D02*
X0284475Y0246832D01*
X0280204Y0242562D01*
X0284475Y0242562D01*
X0278049Y0242562D02*
X0276982Y0242562D01*
X0276982Y0243629D01*
X0278049Y0243629D01*
X0278049Y0242562D01*
X0274807Y0243629D02*
X0273739Y0242562D01*
X0271604Y0242562D01*
X0270536Y0243629D01*
X0274807Y0247900D01*
X0274807Y0243629D01*
X0274807Y0247900D02*
X0273739Y0248967D01*
X0271604Y0248967D01*
X0270536Y0247900D01*
X0270536Y0243629D01*
X0212438Y0296604D02*
X0211371Y0295536D01*
X0207100Y0299807D01*
X0211371Y0299807D01*
X0212438Y0298739D01*
X0212438Y0296604D01*
X0211371Y0295536D02*
X0207100Y0295536D01*
X0206033Y0296604D01*
X0206033Y0298739D01*
X0207100Y0299807D01*
X0211371Y0301982D02*
X0211371Y0303049D01*
X0212438Y0303049D01*
X0212438Y0301982D01*
X0211371Y0301982D01*
X0212438Y0305204D02*
X0208168Y0309475D01*
X0207100Y0309475D01*
X0206033Y0308407D01*
X0206033Y0306272D01*
X0207100Y0305204D01*
X0212438Y0305204D02*
X0212438Y0309475D01*
X0211371Y0311650D02*
X0207100Y0315920D01*
X0211371Y0315920D01*
X0212438Y0314853D01*
X0212438Y0312718D01*
X0211371Y0311650D01*
X0207100Y0311650D01*
X0206033Y0312718D01*
X0206033Y0314853D01*
X0207100Y0315920D01*
X0207100Y0318095D02*
X0206033Y0319163D01*
X0206033Y0321298D01*
X0207100Y0322366D01*
X0211371Y0318095D01*
X0212438Y0319163D01*
X0212438Y0321298D01*
X0211371Y0322366D01*
X0207100Y0322366D01*
X0208168Y0324541D02*
X0208168Y0325609D01*
X0212438Y0325609D01*
X0212438Y0326676D02*
X0212438Y0324541D01*
X0212438Y0328838D02*
X0208168Y0328838D01*
X0208168Y0332041D01*
X0209235Y0333108D01*
X0212438Y0333108D01*
X0211371Y0335283D02*
X0209235Y0335283D01*
X0208168Y0336351D01*
X0208168Y0339554D01*
X0209235Y0341729D02*
X0208168Y0342797D01*
X0208168Y0344932D01*
X0209235Y0345999D01*
X0212438Y0345999D01*
X0212438Y0341729D02*
X0206033Y0341729D01*
X0212438Y0339554D02*
X0212438Y0336351D01*
X0211371Y0335283D01*
X0206033Y0325609D02*
X0204965Y0325609D01*
X0207100Y0318095D02*
X0211371Y0318095D01*
X0190948Y0413776D02*
X0192015Y0414844D01*
X0192015Y0416979D01*
X0190948Y0418046D01*
X0189880Y0418046D01*
X0188812Y0416979D01*
X0188812Y0415911D01*
X0188812Y0416979D02*
X0187745Y0418046D01*
X0186677Y0418046D01*
X0185610Y0416979D01*
X0185610Y0414844D01*
X0186677Y0413776D01*
X0190948Y0420221D02*
X0190948Y0421289D01*
X0192015Y0421289D01*
X0192015Y0420221D01*
X0190948Y0420221D01*
X0190948Y0423444D02*
X0186677Y0427715D01*
X0190948Y0427715D01*
X0192015Y0426647D01*
X0192015Y0424512D01*
X0190948Y0423444D01*
X0186677Y0423444D01*
X0185610Y0424512D01*
X0185610Y0426647D01*
X0186677Y0427715D01*
X0186677Y0429890D02*
X0185610Y0430957D01*
X0185610Y0433092D01*
X0186677Y0434160D01*
X0190948Y0429890D01*
X0192015Y0430957D01*
X0192015Y0433092D01*
X0190948Y0434160D01*
X0186677Y0434160D01*
X0186677Y0436335D02*
X0185610Y0437403D01*
X0185610Y0439538D01*
X0186677Y0440606D01*
X0190948Y0436335D01*
X0192015Y0437403D01*
X0192015Y0439538D01*
X0190948Y0440606D01*
X0186677Y0440606D01*
X0187745Y0442781D02*
X0187745Y0443848D01*
X0192015Y0443848D01*
X0192015Y0442781D02*
X0192015Y0444916D01*
X0192015Y0447078D02*
X0187745Y0447078D01*
X0187745Y0450280D01*
X0188812Y0451348D01*
X0192015Y0451348D01*
X0190948Y0453523D02*
X0192015Y0454591D01*
X0192015Y0457794D01*
X0192015Y0459969D02*
X0185610Y0459969D01*
X0187745Y0461036D02*
X0187745Y0463171D01*
X0188812Y0464239D01*
X0192015Y0464239D01*
X0188812Y0459969D02*
X0187745Y0461036D01*
X0187745Y0457794D02*
X0187745Y0454591D01*
X0188812Y0453523D01*
X0190948Y0453523D01*
X0185610Y0443848D02*
X0184542Y0443848D01*
X0186677Y0436335D02*
X0190948Y0436335D01*
X0190948Y0429890D02*
X0186677Y0429890D01*
X0518776Y0658629D02*
X0519844Y0657562D01*
X0521979Y0657562D01*
X0523046Y0658629D01*
X0523046Y0659697D01*
X0521979Y0660765D01*
X0518776Y0660765D01*
X0518776Y0658629D01*
X0518776Y0660765D02*
X0520911Y0662900D01*
X0523046Y0663967D01*
X0528444Y0662900D02*
X0528444Y0658629D01*
X0532715Y0662900D01*
X0532715Y0658629D01*
X0531647Y0657562D01*
X0529512Y0657562D01*
X0528444Y0658629D01*
X0526289Y0658629D02*
X0526289Y0657562D01*
X0525221Y0657562D01*
X0525221Y0658629D01*
X0526289Y0658629D01*
X0528444Y0662900D02*
X0529512Y0663967D01*
X0531647Y0663967D01*
X0532715Y0662900D01*
X0534890Y0662900D02*
X0534890Y0658629D01*
X0539160Y0662900D01*
X0539160Y0658629D01*
X0538092Y0657562D01*
X0535957Y0657562D01*
X0534890Y0658629D01*
X0534890Y0662900D02*
X0535957Y0663967D01*
X0538092Y0663967D01*
X0539160Y0662900D01*
X0541335Y0662900D02*
X0542403Y0663967D01*
X0544538Y0663967D01*
X0545606Y0662900D01*
X0541335Y0658629D01*
X0542403Y0657562D01*
X0544538Y0657562D01*
X0545606Y0658629D01*
X0545606Y0662900D01*
X0547781Y0661832D02*
X0548848Y0661832D01*
X0548848Y0657562D01*
X0547781Y0657562D02*
X0549916Y0657562D01*
X0552078Y0657562D02*
X0552078Y0661832D01*
X0555280Y0661832D01*
X0556348Y0660765D01*
X0556348Y0657562D01*
X0558523Y0658629D02*
X0559591Y0657562D01*
X0562794Y0657562D01*
X0564969Y0657562D02*
X0564969Y0663967D01*
X0566036Y0661832D02*
X0564969Y0660765D01*
X0566036Y0661832D02*
X0568171Y0661832D01*
X0569239Y0660765D01*
X0569239Y0657562D01*
X0562794Y0661832D02*
X0559591Y0661832D01*
X0558523Y0660765D01*
X0558523Y0658629D01*
X0548848Y0663967D02*
X0548848Y0665035D01*
X0541335Y0662900D02*
X0541335Y0658629D01*
X0876033Y0459969D02*
X0882438Y0459969D01*
X0882438Y0457794D02*
X0882438Y0454591D01*
X0881371Y0453523D01*
X0879235Y0453523D01*
X0878168Y0454591D01*
X0878168Y0457794D01*
X0879235Y0459969D02*
X0878168Y0461036D01*
X0878168Y0463171D01*
X0879235Y0464239D01*
X0882438Y0464239D01*
X0882438Y0451348D02*
X0879235Y0451348D01*
X0878168Y0450280D01*
X0878168Y0447078D01*
X0882438Y0447078D01*
X0882438Y0444916D02*
X0882438Y0442781D01*
X0882438Y0443848D02*
X0878168Y0443848D01*
X0878168Y0442781D01*
X0876033Y0443848D02*
X0874965Y0443848D01*
X0877100Y0440606D02*
X0881371Y0436335D01*
X0882438Y0437403D01*
X0882438Y0439538D01*
X0881371Y0440606D01*
X0877100Y0440606D01*
X0876033Y0439538D01*
X0876033Y0437403D01*
X0877100Y0436335D01*
X0881371Y0436335D01*
X0881371Y0434160D02*
X0877100Y0434160D01*
X0881371Y0429890D01*
X0882438Y0430957D01*
X0882438Y0433092D01*
X0881371Y0434160D01*
X0881371Y0429890D02*
X0877100Y0429890D01*
X0876033Y0430957D01*
X0876033Y0433092D01*
X0877100Y0434160D01*
X0879235Y0427715D02*
X0879235Y0423444D01*
X0876033Y0426647D01*
X0882438Y0426647D01*
X0882438Y0421289D02*
X0882438Y0420221D01*
X0881371Y0420221D01*
X0881371Y0421289D01*
X0882438Y0421289D01*
X0881371Y0418046D02*
X0882438Y0416979D01*
X0882438Y0414844D01*
X0881371Y0413776D01*
X0879235Y0415911D02*
X0879235Y0416979D01*
X0880303Y0418046D01*
X0881371Y0418046D01*
X0879235Y0416979D02*
X0878168Y0418046D01*
X0877100Y0418046D01*
X0876033Y0416979D01*
X0876033Y0414844D01*
X0877100Y0413776D01*
D13*
X0330000Y0510000D03*
D14*
X0330000Y0530000D03*
D15*
X0531475Y0540000D02*
X0538525Y0540000D01*
X0538525Y0560000D02*
X0531475Y0560000D01*
X0531475Y0500000D02*
X0538525Y0500000D01*
X0538525Y0480000D02*
X0531475Y0480000D01*
X0671475Y0480000D02*
X0678525Y0480000D01*
X0678525Y0500000D02*
X0671475Y0500000D01*
X0671475Y0540000D02*
X0678525Y0540000D01*
X0678525Y0560000D02*
X0671475Y0560000D01*
X0811475Y0560000D02*
X0818525Y0560000D01*
X0818525Y0540000D02*
X0811475Y0540000D01*
X0811475Y0500000D02*
X0818525Y0500000D01*
X0818525Y0480000D02*
X0811475Y0480000D01*
D16*
X0355000Y0385000D03*
X0355000Y0375000D03*
X0355000Y0365000D03*
X0355000Y0355000D03*
X0355000Y0345000D03*
X0355000Y0335000D03*
X0335000Y0335000D03*
X0335000Y0345000D03*
X0335000Y0355000D03*
X0335000Y0365000D03*
X0315000Y0352500D03*
X0305000Y0352500D03*
X0300000Y0365000D03*
X0290000Y0365000D03*
X0290000Y0340000D03*
X0300000Y0340000D03*
X0335000Y0375000D03*
X0335000Y0385000D03*
X0315000Y0435000D03*
X0285000Y0435000D03*
X0290000Y0455000D03*
X0260000Y0455000D03*
X0265000Y0397500D03*
X0265000Y0387500D03*
X0250000Y0525000D03*
X0250000Y0555000D03*
D17*
X0299675Y0418500D02*
X0310325Y0418500D01*
X0310325Y0400000D02*
X0299675Y0400000D01*
X0299675Y0381500D02*
X0310325Y0381500D01*
D18*
X0265000Y0427000D02*
X0265000Y0433000D01*
X0255000Y0433000D02*
X0255000Y0427000D01*
X0265000Y0507000D02*
X0265000Y0513000D01*
X0275000Y0513000D02*
X0275000Y0507000D01*
X0285000Y0507000D02*
X0285000Y0513000D01*
D19*
X0292400Y0485000D02*
X0297600Y0485000D01*
X0257600Y0485000D02*
X0252400Y0485000D01*
D20*
X0405000Y0550000D03*
X0435000Y0550000D03*
X0465000Y0550000D03*
X0575000Y0550000D03*
X0605000Y0550000D03*
X0635000Y0550000D03*
X0715000Y0550000D03*
X0745000Y0550000D03*
X0775000Y0550000D03*
X0760000Y0350000D03*
X0745000Y0350000D03*
X0730000Y0350000D03*
X0620000Y0350000D03*
X0605000Y0350000D03*
X0590000Y0350000D03*
X0450000Y0350000D03*
X0435000Y0350000D03*
X0420000Y0350000D03*
D21*
X0405000Y0350000D03*
X0465000Y0350000D03*
X0575000Y0350000D03*
X0635000Y0350000D03*
X0715000Y0350000D03*
X0775000Y0350000D03*
D22*
X0815000Y0430000D03*
X0815000Y0460000D03*
X0340000Y0460000D03*
X0340000Y0430000D03*
D23*
X0275000Y0355000D03*
X0275000Y0345000D03*
X0275000Y0335000D03*
X0265000Y0335000D03*
X0265000Y0345000D03*
X0265000Y0355000D03*
X0265000Y0325000D03*
X0265000Y0315000D03*
X0275000Y0315000D03*
X0275000Y0325000D03*
X0535000Y0315000D03*
X0535000Y0405000D03*
X0675000Y0405000D03*
X0675000Y0315000D03*
X0815000Y0315000D03*
X0815000Y0405000D03*
D24*
X0815000Y0295000D03*
X0815000Y0280000D03*
X0800000Y0280000D03*
X0800000Y0295000D03*
X0785000Y0295000D03*
X0785000Y0280000D03*
X0770000Y0280000D03*
X0770000Y0295000D03*
X0755000Y0295000D03*
X0755000Y0280000D03*
X0740000Y0280000D03*
X0740000Y0295000D03*
X0675000Y0295000D03*
X0675000Y0280000D03*
X0660000Y0280000D03*
X0660000Y0295000D03*
X0645000Y0295000D03*
X0645000Y0280000D03*
X0630000Y0280000D03*
X0630000Y0295000D03*
X0615000Y0295000D03*
X0615000Y0280000D03*
X0600000Y0280000D03*
X0600000Y0295000D03*
X0535000Y0295000D03*
X0535000Y0280000D03*
X0520000Y0280000D03*
X0520000Y0295000D03*
X0505000Y0295000D03*
X0505000Y0280000D03*
X0490000Y0280000D03*
X0490000Y0295000D03*
X0475000Y0295000D03*
X0475000Y0280000D03*
X0460000Y0280000D03*
X0460000Y0295000D03*
X0420000Y0295000D03*
X0420000Y0280000D03*
X0405000Y0280000D03*
X0405000Y0295000D03*
X0390000Y0295000D03*
X0390000Y0280000D03*
X0375000Y0280000D03*
X0375000Y0295000D03*
X0360000Y0295000D03*
X0360000Y0280000D03*
X0345000Y0280000D03*
X0345000Y0295000D03*
X0330000Y0295000D03*
X0330000Y0280000D03*
X0315000Y0280000D03*
X0315000Y0295000D03*
X0315000Y0310000D03*
X0330000Y0310000D03*
X0345000Y0310000D03*
X0360000Y0310000D03*
X0375000Y0310000D03*
X0390000Y0310000D03*
X0405000Y0310000D03*
X0420000Y0310000D03*
D25*
X0300000Y0580000D03*
D26*
X0331047Y0580000D03*
D27*
X0331647Y0580452D02*
X0557900Y0580452D01*
X0557964Y0580298D02*
X0557964Y0580298D01*
X0560298Y0577964D01*
X0563349Y0576700D01*
X0564586Y0576700D01*
X0566651Y0576700D01*
X0569702Y0577964D01*
X0572036Y0580298D01*
X0572036Y0580298D01*
X0573300Y0583349D01*
X0573300Y0586651D01*
X0572036Y0589702D01*
X0569702Y0592036D01*
X0566651Y0593300D01*
X0563349Y0593300D01*
X0560298Y0592036D01*
X0557964Y0589702D01*
X0557964Y0589702D01*
X0556700Y0586651D01*
X0556700Y0583349D01*
X0557964Y0580298D01*
X0557404Y0581650D02*
X0340008Y0581650D01*
X0339991Y0581779D02*
X0339682Y0582931D01*
X0339226Y0584033D01*
X0338629Y0585067D01*
X0337903Y0586013D01*
X0337060Y0586856D01*
X0336113Y0587583D01*
X0335080Y0588179D01*
X0333978Y0588636D01*
X0332826Y0588944D01*
X0331647Y0589100D01*
X0331647Y0580600D01*
X0340146Y0580600D01*
X0339991Y0581779D01*
X0339705Y0582849D02*
X0556907Y0582849D01*
X0556700Y0584047D02*
X0339218Y0584047D01*
X0338492Y0585246D02*
X0556700Y0585246D01*
X0556700Y0586444D02*
X0337472Y0586444D01*
X0336009Y0587643D02*
X0557111Y0587643D01*
X0557607Y0588841D02*
X0333211Y0588841D01*
X0331647Y0588841D02*
X0330447Y0588841D01*
X0330447Y0589100D02*
X0329268Y0588944D01*
X0328115Y0588636D01*
X0327013Y0588179D01*
X0325980Y0587583D01*
X0325034Y0586856D01*
X0324190Y0586013D01*
X0323464Y0585067D01*
X0322868Y0584033D01*
X0322411Y0582931D01*
X0322103Y0581779D01*
X0321947Y0580600D01*
X0330447Y0580600D01*
X0330447Y0589100D01*
X0330447Y0587643D02*
X0331647Y0587643D01*
X0331647Y0586444D02*
X0330447Y0586444D01*
X0330447Y0585246D02*
X0331647Y0585246D01*
X0331647Y0584047D02*
X0330447Y0584047D01*
X0330447Y0582849D02*
X0331647Y0582849D01*
X0331647Y0581650D02*
X0330447Y0581650D01*
X0330447Y0580600D02*
X0331647Y0580600D01*
X0331647Y0579400D01*
X0340146Y0579400D01*
X0339991Y0578221D01*
X0339682Y0577069D01*
X0339226Y0575967D01*
X0338629Y0574933D01*
X0337903Y0573987D01*
X0337060Y0573144D01*
X0336113Y0572417D01*
X0335080Y0571821D01*
X0333978Y0571364D01*
X0332826Y0571056D01*
X0331647Y0570900D01*
X0331647Y0579400D01*
X0330447Y0579400D01*
X0330447Y0570900D01*
X0329268Y0571056D01*
X0328115Y0571364D01*
X0327013Y0571821D01*
X0325980Y0572417D01*
X0325034Y0573144D01*
X0324190Y0573987D01*
X0323464Y0574933D01*
X0322868Y0575967D01*
X0322411Y0577069D01*
X0322103Y0578221D01*
X0321947Y0579400D01*
X0330447Y0579400D01*
X0330447Y0580600D01*
X0330447Y0580452D02*
X0308907Y0580452D01*
X0308907Y0581650D02*
X0322086Y0581650D01*
X0322389Y0582849D02*
X0308907Y0582849D01*
X0308907Y0584047D02*
X0322876Y0584047D01*
X0323602Y0585246D02*
X0308907Y0585246D01*
X0308907Y0586444D02*
X0324622Y0586444D01*
X0326084Y0587643D02*
X0308907Y0587643D01*
X0308907Y0588083D02*
X0308083Y0588907D01*
X0291917Y0588907D01*
X0291093Y0588083D01*
X0291093Y0571917D01*
X0291917Y0571093D01*
X0308083Y0571093D01*
X0308907Y0571917D01*
X0308907Y0588083D01*
X0308149Y0588841D02*
X0328883Y0588841D01*
X0330447Y0579253D02*
X0331647Y0579253D01*
X0331647Y0578055D02*
X0330447Y0578055D01*
X0330447Y0576856D02*
X0331647Y0576856D01*
X0331647Y0575658D02*
X0330447Y0575658D01*
X0330447Y0574459D02*
X0331647Y0574459D01*
X0331647Y0573261D02*
X0330447Y0573261D01*
X0330447Y0572062D02*
X0331647Y0572062D01*
X0335498Y0572062D02*
X0838400Y0572062D01*
X0838400Y0570864D02*
X0241600Y0570864D01*
X0241600Y0572062D02*
X0291093Y0572062D01*
X0291093Y0573261D02*
X0241600Y0573261D01*
X0241600Y0574459D02*
X0291093Y0574459D01*
X0291093Y0575658D02*
X0241600Y0575658D01*
X0241600Y0576856D02*
X0257972Y0576856D01*
X0258349Y0576700D02*
X0260414Y0576700D01*
X0261651Y0576700D01*
X0264702Y0577964D01*
X0267036Y0580298D01*
X0267036Y0580298D01*
X0267036Y0580298D01*
X0268300Y0583349D01*
X0268300Y0586651D01*
X0267036Y0589702D01*
X0264702Y0592036D01*
X0261651Y0593300D01*
X0258349Y0593300D01*
X0255298Y0592036D01*
X0252964Y0589702D01*
X0252964Y0589702D01*
X0251700Y0586651D01*
X0251700Y0583349D01*
X0252964Y0580298D01*
X0255298Y0577964D01*
X0258349Y0576700D01*
X0255298Y0577964D02*
X0255298Y0577964D01*
X0255207Y0578055D02*
X0241600Y0578055D01*
X0241600Y0579253D02*
X0254009Y0579253D01*
X0252964Y0580298D02*
X0252964Y0580298D01*
X0252900Y0580452D02*
X0241600Y0580452D01*
X0241600Y0581650D02*
X0252404Y0581650D01*
X0251907Y0582849D02*
X0241600Y0582849D01*
X0241600Y0584047D02*
X0251700Y0584047D01*
X0251700Y0585246D02*
X0241600Y0585246D01*
X0241600Y0586444D02*
X0251700Y0586444D01*
X0252111Y0587643D02*
X0241600Y0587643D01*
X0241600Y0588841D02*
X0252607Y0588841D01*
X0253302Y0590040D02*
X0241600Y0590040D01*
X0241600Y0591238D02*
X0254500Y0591238D01*
X0255298Y0592036D02*
X0255298Y0592036D01*
X0256265Y0592437D02*
X0241600Y0592437D01*
X0241600Y0593635D02*
X0838400Y0593635D01*
X0838400Y0592437D02*
X0708735Y0592437D01*
X0709702Y0592036D02*
X0706651Y0593300D01*
X0703349Y0593300D01*
X0700298Y0592036D01*
X0697964Y0589702D01*
X0697964Y0589702D01*
X0696700Y0586651D01*
X0696700Y0583349D01*
X0697964Y0580298D01*
X0700298Y0577964D01*
X0703349Y0576700D01*
X0704586Y0576700D01*
X0706651Y0576700D01*
X0709702Y0577964D01*
X0712036Y0580298D01*
X0712036Y0580298D01*
X0713300Y0583349D01*
X0713300Y0586651D01*
X0712036Y0589702D01*
X0709702Y0592036D01*
X0709702Y0592036D01*
X0710500Y0591238D02*
X0838400Y0591238D01*
X0838400Y0590040D02*
X0711698Y0590040D01*
X0712036Y0589702D02*
X0712036Y0589702D01*
X0712393Y0588841D02*
X0838400Y0588841D01*
X0838400Y0587643D02*
X0712889Y0587643D01*
X0713300Y0586444D02*
X0838400Y0586444D01*
X0838400Y0585246D02*
X0713300Y0585246D01*
X0713300Y0584047D02*
X0838400Y0584047D01*
X0838400Y0582849D02*
X0713093Y0582849D01*
X0712596Y0581650D02*
X0838400Y0581650D01*
X0838400Y0580452D02*
X0712100Y0580452D01*
X0710991Y0579253D02*
X0838400Y0579253D01*
X0838400Y0578055D02*
X0709793Y0578055D01*
X0709702Y0577964D02*
X0709702Y0577964D01*
X0707028Y0576856D02*
X0838400Y0576856D01*
X0838400Y0575658D02*
X0339048Y0575658D01*
X0339594Y0576856D02*
X0562972Y0576856D01*
X0560207Y0578055D02*
X0339947Y0578055D01*
X0340127Y0579253D02*
X0559009Y0579253D01*
X0567028Y0576856D02*
X0702972Y0576856D01*
X0700298Y0577964D02*
X0700298Y0577964D01*
X0700207Y0578055D02*
X0569793Y0578055D01*
X0569702Y0577964D02*
X0569702Y0577964D01*
X0570991Y0579253D02*
X0699009Y0579253D01*
X0697964Y0580298D02*
X0697964Y0580298D01*
X0697900Y0580452D02*
X0572100Y0580452D01*
X0572596Y0581650D02*
X0697404Y0581650D01*
X0696907Y0582849D02*
X0573093Y0582849D01*
X0573300Y0584047D02*
X0696700Y0584047D01*
X0696700Y0585246D02*
X0573300Y0585246D01*
X0573300Y0586444D02*
X0696700Y0586444D01*
X0697111Y0587643D02*
X0572889Y0587643D01*
X0572393Y0588841D02*
X0697607Y0588841D01*
X0698302Y0590040D02*
X0571698Y0590040D01*
X0572036Y0589702D02*
X0572036Y0589702D01*
X0570500Y0591238D02*
X0699500Y0591238D01*
X0700298Y0592036D02*
X0700298Y0592036D01*
X0701265Y0592437D02*
X0568735Y0592437D01*
X0569702Y0592036D02*
X0569702Y0592036D01*
X0561265Y0592437D02*
X0263735Y0592437D01*
X0264702Y0592036D02*
X0264702Y0592036D01*
X0265500Y0591238D02*
X0559500Y0591238D01*
X0560298Y0592036D02*
X0560298Y0592036D01*
X0558302Y0590040D02*
X0266698Y0590040D01*
X0267036Y0589702D02*
X0267036Y0589702D01*
X0267393Y0588841D02*
X0291851Y0588841D01*
X0291093Y0587643D02*
X0267889Y0587643D01*
X0268300Y0586444D02*
X0291093Y0586444D01*
X0291093Y0585246D02*
X0268300Y0585246D01*
X0268300Y0584047D02*
X0291093Y0584047D01*
X0291093Y0582849D02*
X0268093Y0582849D01*
X0267596Y0581650D02*
X0291093Y0581650D01*
X0291093Y0580452D02*
X0267100Y0580452D01*
X0265991Y0579253D02*
X0291093Y0579253D01*
X0291093Y0578055D02*
X0264793Y0578055D01*
X0264702Y0577964D02*
X0264702Y0577964D01*
X0262028Y0576856D02*
X0291093Y0576856D01*
X0308907Y0576856D02*
X0322499Y0576856D01*
X0322147Y0578055D02*
X0308907Y0578055D01*
X0308907Y0579253D02*
X0321967Y0579253D01*
X0323046Y0575658D02*
X0308907Y0575658D01*
X0308907Y0574459D02*
X0323828Y0574459D01*
X0324917Y0573261D02*
X0308907Y0573261D01*
X0308907Y0572062D02*
X0326596Y0572062D01*
X0337177Y0573261D02*
X0838400Y0573261D01*
X0838400Y0574459D02*
X0338265Y0574459D01*
X0332734Y0536600D02*
X0330400Y0536600D01*
X0330400Y0530400D01*
X0329600Y0530400D01*
X0329600Y0536600D01*
X0327266Y0536600D01*
X0323400Y0532734D01*
X0323400Y0530400D01*
X0329600Y0530400D01*
X0329600Y0529600D01*
X0323400Y0529600D01*
X0323400Y0527266D01*
X0327266Y0523400D01*
X0329600Y0523400D01*
X0329600Y0529600D01*
X0330400Y0529600D01*
X0330400Y0530400D01*
X0336600Y0530400D01*
X0336600Y0532734D01*
X0332734Y0536600D01*
X0333227Y0536107D02*
X0528393Y0536107D01*
X0528681Y0535819D02*
X0530494Y0535068D01*
X0539506Y0535068D01*
X0541319Y0535819D01*
X0542706Y0537206D01*
X0543457Y0539019D01*
X0543457Y0540981D01*
X0542706Y0542794D01*
X0541319Y0544181D01*
X0539506Y0544932D01*
X0530494Y0544932D01*
X0528681Y0544181D01*
X0527294Y0542794D01*
X0526543Y0540981D01*
X0526543Y0539019D01*
X0527294Y0537206D01*
X0528681Y0535819D01*
X0527253Y0537305D02*
X0241600Y0537305D01*
X0241600Y0536107D02*
X0326773Y0536107D01*
X0325574Y0534908D02*
X0241600Y0534908D01*
X0241600Y0533710D02*
X0324376Y0533710D01*
X0323400Y0532511D02*
X0241600Y0532511D01*
X0241600Y0531313D02*
X0323400Y0531313D01*
X0323400Y0528916D02*
X0251751Y0528916D01*
X0251660Y0529007D02*
X0248340Y0529007D01*
X0245993Y0526660D01*
X0245993Y0523340D01*
X0248340Y0520993D01*
X0251660Y0520993D01*
X0254007Y0523340D01*
X0254007Y0526660D01*
X0251660Y0529007D01*
X0252950Y0527717D02*
X0323400Y0527717D01*
X0324148Y0526519D02*
X0254007Y0526519D01*
X0254007Y0525320D02*
X0325346Y0525320D01*
X0326545Y0524122D02*
X0254007Y0524122D01*
X0253590Y0522923D02*
X0351593Y0522923D01*
X0351593Y0521725D02*
X0252391Y0521725D01*
X0247609Y0521725D02*
X0241600Y0521725D01*
X0241600Y0522923D02*
X0246410Y0522923D01*
X0245993Y0524122D02*
X0241600Y0524122D01*
X0241600Y0525320D02*
X0245993Y0525320D01*
X0245993Y0526519D02*
X0241600Y0526519D01*
X0241600Y0527717D02*
X0247050Y0527717D01*
X0248249Y0528916D02*
X0241600Y0528916D01*
X0241600Y0530114D02*
X0329600Y0530114D01*
X0330400Y0530114D02*
X0351593Y0530114D01*
X0351593Y0530678D02*
X0351593Y0452500D01*
X0293440Y0452500D01*
X0294200Y0453260D01*
X0294200Y0454800D01*
X0290200Y0454800D01*
X0290200Y0455200D01*
X0294200Y0455200D01*
X0294200Y0456740D01*
X0291740Y0459200D01*
X0290200Y0459200D01*
X0290200Y0455200D01*
X0289800Y0455200D01*
X0289800Y0459200D01*
X0288260Y0459200D01*
X0285800Y0456740D01*
X0285800Y0455200D01*
X0289800Y0455200D01*
X0289800Y0454800D01*
X0285800Y0454800D01*
X0285800Y0453260D01*
X0286560Y0452500D01*
X0263167Y0452500D01*
X0264007Y0453340D01*
X0264007Y0456660D01*
X0261660Y0459007D01*
X0258340Y0459007D01*
X0255993Y0456660D01*
X0255993Y0453340D01*
X0256833Y0452500D01*
X0241600Y0452500D01*
X0241600Y0603400D01*
X0838400Y0603400D01*
X0838400Y0452500D01*
X0358407Y0452500D01*
X0358407Y0530678D01*
X0357888Y0531930D01*
X0356930Y0532888D01*
X0355678Y0533407D01*
X0354322Y0533407D01*
X0353070Y0532888D01*
X0352112Y0531930D01*
X0351593Y0530678D01*
X0351856Y0531313D02*
X0336600Y0531313D01*
X0336600Y0532511D02*
X0352693Y0532511D01*
X0351593Y0528916D02*
X0336600Y0528916D01*
X0336600Y0529600D02*
X0330400Y0529600D01*
X0330400Y0523400D01*
X0332734Y0523400D01*
X0336600Y0527266D01*
X0336600Y0529600D01*
X0336600Y0527717D02*
X0351593Y0527717D01*
X0351593Y0526519D02*
X0335852Y0526519D01*
X0334654Y0525320D02*
X0351593Y0525320D01*
X0351593Y0524122D02*
X0333455Y0524122D01*
X0330400Y0524122D02*
X0329600Y0524122D01*
X0329600Y0525320D02*
X0330400Y0525320D01*
X0330400Y0526519D02*
X0329600Y0526519D01*
X0329600Y0527717D02*
X0330400Y0527717D01*
X0330400Y0528916D02*
X0329600Y0528916D01*
X0329600Y0531313D02*
X0330400Y0531313D01*
X0330400Y0532511D02*
X0329600Y0532511D01*
X0329600Y0533710D02*
X0330400Y0533710D01*
X0330400Y0534908D02*
X0329600Y0534908D01*
X0329600Y0536107D02*
X0330400Y0536107D01*
X0334426Y0534908D02*
X0838400Y0534908D01*
X0838400Y0533710D02*
X0335624Y0533710D01*
X0331274Y0516407D02*
X0328726Y0516407D01*
X0326371Y0515432D01*
X0324568Y0513629D01*
X0323593Y0511274D01*
X0323593Y0508726D01*
X0324568Y0506371D01*
X0326371Y0504568D01*
X0328726Y0503593D01*
X0331274Y0503593D01*
X0333629Y0504568D01*
X0335432Y0506371D01*
X0336407Y0508726D01*
X0336407Y0511274D01*
X0335432Y0513629D01*
X0333629Y0515432D01*
X0331274Y0516407D01*
X0332904Y0515732D02*
X0351593Y0515732D01*
X0351593Y0514534D02*
X0334527Y0514534D01*
X0335554Y0513335D02*
X0351593Y0513335D01*
X0351593Y0512137D02*
X0336050Y0512137D01*
X0336407Y0510938D02*
X0351593Y0510938D01*
X0351593Y0509739D02*
X0336407Y0509739D01*
X0336331Y0508541D02*
X0351593Y0508541D01*
X0351593Y0507342D02*
X0335834Y0507342D01*
X0335205Y0506144D02*
X0351593Y0506144D01*
X0351593Y0504945D02*
X0334006Y0504945D01*
X0331646Y0503747D02*
X0351593Y0503747D01*
X0351593Y0502548D02*
X0241600Y0502548D01*
X0241600Y0501350D02*
X0351593Y0501350D01*
X0351593Y0500151D02*
X0241600Y0500151D01*
X0241600Y0498953D02*
X0351593Y0498953D01*
X0351593Y0497754D02*
X0241600Y0497754D01*
X0241600Y0496556D02*
X0351593Y0496556D01*
X0351593Y0495357D02*
X0241600Y0495357D01*
X0241600Y0494159D02*
X0351593Y0494159D01*
X0351593Y0492960D02*
X0241600Y0492960D01*
X0241600Y0491762D02*
X0351593Y0491762D01*
X0351593Y0490563D02*
X0241600Y0490563D01*
X0241600Y0489365D02*
X0351593Y0489365D01*
X0351593Y0488166D02*
X0300101Y0488166D01*
X0299870Y0488397D02*
X0298397Y0489007D01*
X0291603Y0489007D01*
X0290130Y0488397D01*
X0289003Y0487270D01*
X0288393Y0485797D01*
X0288393Y0484203D01*
X0289003Y0482730D01*
X0290130Y0481603D01*
X0291603Y0480993D01*
X0298397Y0480993D01*
X0299870Y0481603D01*
X0300997Y0482730D01*
X0301607Y0484203D01*
X0301607Y0485797D01*
X0300997Y0487270D01*
X0299870Y0488397D01*
X0301122Y0486968D02*
X0351593Y0486968D01*
X0351593Y0485769D02*
X0301607Y0485769D01*
X0301607Y0484571D02*
X0351593Y0484571D01*
X0351593Y0483372D02*
X0301263Y0483372D01*
X0300441Y0482174D02*
X0351593Y0482174D01*
X0351593Y0480975D02*
X0241600Y0480975D01*
X0241600Y0479777D02*
X0351593Y0479777D01*
X0351593Y0478578D02*
X0241600Y0478578D01*
X0241600Y0477380D02*
X0351593Y0477380D01*
X0351593Y0476181D02*
X0241600Y0476181D01*
X0241600Y0474983D02*
X0351593Y0474983D01*
X0351593Y0473784D02*
X0241600Y0473784D01*
X0241600Y0472586D02*
X0351593Y0472586D01*
X0351593Y0471387D02*
X0241600Y0471387D01*
X0241600Y0470189D02*
X0351593Y0470189D01*
X0351593Y0468990D02*
X0241600Y0468990D01*
X0241600Y0467792D02*
X0351593Y0467792D01*
X0351593Y0466593D02*
X0241600Y0466593D01*
X0241600Y0465395D02*
X0351593Y0465395D01*
X0351593Y0464196D02*
X0342734Y0464196D01*
X0342030Y0464900D02*
X0340500Y0464900D01*
X0340500Y0460500D01*
X0339500Y0460500D01*
X0339500Y0464900D01*
X0337970Y0464900D01*
X0335100Y0462030D01*
X0335100Y0460500D01*
X0339500Y0460500D01*
X0339500Y0459500D01*
X0335100Y0459500D01*
X0335100Y0457970D01*
X0337970Y0455100D01*
X0339500Y0455100D01*
X0339500Y0459500D01*
X0340500Y0459500D01*
X0340500Y0460500D01*
X0344900Y0460500D01*
X0344900Y0462030D01*
X0342030Y0464900D01*
X0340500Y0464196D02*
X0339500Y0464196D01*
X0339500Y0462998D02*
X0340500Y0462998D01*
X0340500Y0461799D02*
X0339500Y0461799D01*
X0339500Y0460601D02*
X0340500Y0460601D01*
X0340500Y0459500D02*
X0344900Y0459500D01*
X0344900Y0457970D01*
X0342030Y0455100D01*
X0340500Y0455100D01*
X0340500Y0459500D01*
X0340500Y0459402D02*
X0339500Y0459402D01*
X0339500Y0458203D02*
X0340500Y0458203D01*
X0340500Y0457005D02*
X0339500Y0457005D01*
X0339500Y0455806D02*
X0340500Y0455806D01*
X0342736Y0455806D02*
X0351593Y0455806D01*
X0351593Y0454608D02*
X0294200Y0454608D01*
X0294200Y0455806D02*
X0337264Y0455806D01*
X0336065Y0457005D02*
X0293935Y0457005D01*
X0292736Y0458203D02*
X0335100Y0458203D01*
X0335100Y0459402D02*
X0241600Y0459402D01*
X0241600Y0460601D02*
X0335100Y0460601D01*
X0335100Y0461799D02*
X0241600Y0461799D01*
X0241600Y0462998D02*
X0336068Y0462998D01*
X0337266Y0464196D02*
X0241600Y0464196D01*
X0241600Y0458203D02*
X0257537Y0458203D01*
X0256338Y0457005D02*
X0241600Y0457005D01*
X0241600Y0455806D02*
X0255993Y0455806D01*
X0255993Y0454608D02*
X0241600Y0454608D01*
X0241600Y0453409D02*
X0255993Y0453409D01*
X0264007Y0453409D02*
X0285800Y0453409D01*
X0285800Y0454608D02*
X0264007Y0454608D01*
X0264007Y0455806D02*
X0285800Y0455806D01*
X0286065Y0457005D02*
X0263662Y0457005D01*
X0262463Y0458203D02*
X0287264Y0458203D01*
X0289800Y0458203D02*
X0290200Y0458203D01*
X0290200Y0457005D02*
X0289800Y0457005D01*
X0289800Y0455806D02*
X0290200Y0455806D01*
X0294200Y0453409D02*
X0351593Y0453409D01*
X0351593Y0457005D02*
X0343935Y0457005D01*
X0344900Y0458203D02*
X0351593Y0458203D01*
X0351593Y0459402D02*
X0344900Y0459402D01*
X0344900Y0460601D02*
X0351593Y0460601D01*
X0351593Y0461799D02*
X0344900Y0461799D01*
X0343932Y0462998D02*
X0351593Y0462998D01*
X0358407Y0462998D02*
X0811068Y0462998D01*
X0810100Y0462030D02*
X0810100Y0460500D01*
X0814500Y0460500D01*
X0814500Y0464900D01*
X0812970Y0464900D01*
X0810100Y0462030D01*
X0810100Y0461799D02*
X0358407Y0461799D01*
X0358407Y0460601D02*
X0810100Y0460601D01*
X0810100Y0459500D02*
X0810100Y0457970D01*
X0812970Y0455100D01*
X0814500Y0455100D01*
X0814500Y0459500D01*
X0810100Y0459500D01*
X0810100Y0459402D02*
X0358407Y0459402D01*
X0358407Y0458203D02*
X0810100Y0458203D01*
X0811065Y0457005D02*
X0358407Y0457005D01*
X0358407Y0455806D02*
X0812264Y0455806D01*
X0814500Y0455806D02*
X0815500Y0455806D01*
X0815500Y0455100D02*
X0817030Y0455100D01*
X0819900Y0457970D01*
X0819900Y0459500D01*
X0815500Y0459500D01*
X0815500Y0460500D01*
X0814500Y0460500D01*
X0814500Y0459500D01*
X0815500Y0459500D01*
X0815500Y0455100D01*
X0815500Y0457005D02*
X0814500Y0457005D01*
X0814500Y0458203D02*
X0815500Y0458203D01*
X0815500Y0459402D02*
X0814500Y0459402D01*
X0814500Y0460601D02*
X0815500Y0460601D01*
X0815500Y0460500D02*
X0815500Y0464900D01*
X0817030Y0464900D01*
X0819900Y0462030D01*
X0819900Y0460500D01*
X0815500Y0460500D01*
X0815500Y0461799D02*
X0814500Y0461799D01*
X0814500Y0462998D02*
X0815500Y0462998D01*
X0815500Y0464196D02*
X0814500Y0464196D01*
X0812266Y0464196D02*
X0358407Y0464196D01*
X0358407Y0465395D02*
X0838400Y0465395D01*
X0838400Y0466593D02*
X0358407Y0466593D01*
X0358407Y0467792D02*
X0838400Y0467792D01*
X0838400Y0468990D02*
X0358407Y0468990D01*
X0358407Y0470189D02*
X0838400Y0470189D01*
X0838400Y0471387D02*
X0358407Y0471387D01*
X0358407Y0472586D02*
X0838400Y0472586D01*
X0838400Y0473784D02*
X0358407Y0473784D01*
X0358407Y0474983D02*
X0838400Y0474983D01*
X0838400Y0476181D02*
X0821681Y0476181D01*
X0821319Y0475819D02*
X0822706Y0477206D01*
X0823457Y0479019D01*
X0823457Y0480981D01*
X0822706Y0482794D01*
X0821319Y0484181D01*
X0819506Y0484932D01*
X0810494Y0484932D01*
X0808681Y0484181D01*
X0807294Y0482794D01*
X0806543Y0480981D01*
X0806543Y0479019D01*
X0807294Y0477206D01*
X0808681Y0475819D01*
X0810494Y0475068D01*
X0819506Y0475068D01*
X0821319Y0475819D01*
X0822778Y0477380D02*
X0838400Y0477380D01*
X0838400Y0478578D02*
X0823275Y0478578D01*
X0823457Y0479777D02*
X0838400Y0479777D01*
X0838400Y0480975D02*
X0823457Y0480975D01*
X0822963Y0482174D02*
X0838400Y0482174D01*
X0838400Y0483372D02*
X0822128Y0483372D01*
X0820378Y0484571D02*
X0838400Y0484571D01*
X0838400Y0485769D02*
X0358407Y0485769D01*
X0358407Y0484571D02*
X0529622Y0484571D01*
X0530494Y0484932D02*
X0528681Y0484181D01*
X0527294Y0482794D01*
X0526543Y0480981D01*
X0526543Y0479019D01*
X0527294Y0477206D01*
X0528681Y0475819D01*
X0530494Y0475068D01*
X0539506Y0475068D01*
X0541319Y0475819D01*
X0542706Y0477206D01*
X0543457Y0479019D01*
X0543457Y0480981D01*
X0542706Y0482794D01*
X0541319Y0484181D01*
X0539506Y0484932D01*
X0530494Y0484932D01*
X0527872Y0483372D02*
X0358407Y0483372D01*
X0358407Y0482174D02*
X0527037Y0482174D01*
X0526543Y0480975D02*
X0358407Y0480975D01*
X0358407Y0479777D02*
X0526543Y0479777D01*
X0526725Y0478578D02*
X0358407Y0478578D01*
X0358407Y0477380D02*
X0527222Y0477380D01*
X0528319Y0476181D02*
X0358407Y0476181D01*
X0358407Y0486968D02*
X0838400Y0486968D01*
X0838400Y0488166D02*
X0358407Y0488166D01*
X0358407Y0489365D02*
X0838400Y0489365D01*
X0838400Y0490563D02*
X0358407Y0490563D01*
X0358407Y0491762D02*
X0838400Y0491762D01*
X0838400Y0492960D02*
X0358407Y0492960D01*
X0358407Y0494159D02*
X0838400Y0494159D01*
X0838400Y0495357D02*
X0820205Y0495357D01*
X0819506Y0495068D02*
X0821319Y0495819D01*
X0822706Y0497206D01*
X0823457Y0499019D01*
X0823457Y0500981D01*
X0822706Y0502794D01*
X0821319Y0504181D01*
X0819506Y0504932D01*
X0810494Y0504932D01*
X0808681Y0504181D01*
X0807294Y0502794D01*
X0806543Y0500981D01*
X0806543Y0499019D01*
X0807294Y0497206D01*
X0808681Y0495819D01*
X0810494Y0495068D01*
X0819506Y0495068D01*
X0822056Y0496556D02*
X0838400Y0496556D01*
X0838400Y0497754D02*
X0822933Y0497754D01*
X0823430Y0498953D02*
X0838400Y0498953D01*
X0838400Y0500151D02*
X0823457Y0500151D01*
X0823304Y0501350D02*
X0838400Y0501350D01*
X0838400Y0502548D02*
X0822808Y0502548D01*
X0821753Y0503747D02*
X0838400Y0503747D01*
X0838400Y0504945D02*
X0358407Y0504945D01*
X0358407Y0503747D02*
X0528247Y0503747D01*
X0528681Y0504181D02*
X0527294Y0502794D01*
X0526543Y0500981D01*
X0526543Y0499019D01*
X0527294Y0497206D01*
X0528681Y0495819D01*
X0530494Y0495068D01*
X0539506Y0495068D01*
X0541319Y0495819D01*
X0542706Y0497206D01*
X0543457Y0499019D01*
X0543457Y0500981D01*
X0542706Y0502794D01*
X0541319Y0504181D01*
X0539506Y0504932D01*
X0530494Y0504932D01*
X0528681Y0504181D01*
X0527192Y0502548D02*
X0358407Y0502548D01*
X0358407Y0501350D02*
X0526696Y0501350D01*
X0526543Y0500151D02*
X0358407Y0500151D01*
X0358407Y0498953D02*
X0526570Y0498953D01*
X0527067Y0497754D02*
X0358407Y0497754D01*
X0358407Y0496556D02*
X0527944Y0496556D01*
X0529795Y0495357D02*
X0358407Y0495357D01*
X0358407Y0506144D02*
X0838400Y0506144D01*
X0838400Y0507342D02*
X0358407Y0507342D01*
X0358407Y0508541D02*
X0838400Y0508541D01*
X0838400Y0509739D02*
X0358407Y0509739D01*
X0358407Y0510938D02*
X0838400Y0510938D01*
X0838400Y0512137D02*
X0358407Y0512137D01*
X0358407Y0513335D02*
X0838400Y0513335D01*
X0838400Y0514534D02*
X0358407Y0514534D01*
X0358407Y0515732D02*
X0838400Y0515732D01*
X0838400Y0516931D02*
X0358407Y0516931D01*
X0358407Y0518129D02*
X0838400Y0518129D01*
X0838400Y0519328D02*
X0358407Y0519328D01*
X0358407Y0520526D02*
X0838400Y0520526D01*
X0838400Y0521725D02*
X0358407Y0521725D01*
X0358407Y0522923D02*
X0838400Y0522923D01*
X0838400Y0524122D02*
X0358407Y0524122D01*
X0358407Y0525320D02*
X0838400Y0525320D01*
X0838400Y0526519D02*
X0358407Y0526519D01*
X0358407Y0527717D02*
X0838400Y0527717D01*
X0838400Y0528916D02*
X0358407Y0528916D01*
X0358407Y0530114D02*
X0838400Y0530114D01*
X0838400Y0531313D02*
X0358144Y0531313D01*
X0357307Y0532511D02*
X0838400Y0532511D01*
X0838400Y0536107D02*
X0821607Y0536107D01*
X0821319Y0535819D02*
X0822706Y0537206D01*
X0823457Y0539019D01*
X0823457Y0540981D01*
X0822706Y0542794D01*
X0821319Y0544181D01*
X0819506Y0544932D01*
X0810494Y0544932D01*
X0808681Y0544181D01*
X0807294Y0542794D01*
X0806543Y0540981D01*
X0806543Y0539019D01*
X0807294Y0537206D01*
X0808681Y0535819D01*
X0810494Y0535068D01*
X0819506Y0535068D01*
X0821319Y0535819D01*
X0822747Y0537305D02*
X0838400Y0537305D01*
X0838400Y0538504D02*
X0823244Y0538504D01*
X0823457Y0539702D02*
X0838400Y0539702D01*
X0838400Y0540901D02*
X0823457Y0540901D01*
X0822994Y0542099D02*
X0838400Y0542099D01*
X0838400Y0543298D02*
X0822202Y0543298D01*
X0820558Y0544496D02*
X0838400Y0544496D01*
X0838400Y0545695D02*
X0781131Y0545695D01*
X0781131Y0544693D02*
X0781131Y0555307D01*
X0780307Y0556131D01*
X0769693Y0556131D01*
X0768869Y0555307D01*
X0768869Y0544693D01*
X0769693Y0543869D01*
X0780307Y0543869D01*
X0781131Y0544693D01*
X0780935Y0544496D02*
X0809442Y0544496D01*
X0807798Y0543298D02*
X0682202Y0543298D01*
X0682706Y0542794D02*
X0681319Y0544181D01*
X0679506Y0544932D01*
X0670494Y0544932D01*
X0668681Y0544181D01*
X0667294Y0542794D01*
X0666543Y0540981D01*
X0666543Y0539019D01*
X0667294Y0537206D01*
X0668681Y0535819D01*
X0670494Y0535068D01*
X0679506Y0535068D01*
X0681319Y0535819D01*
X0682706Y0537206D01*
X0683457Y0539019D01*
X0683457Y0540981D01*
X0682706Y0542794D01*
X0682994Y0542099D02*
X0807006Y0542099D01*
X0806543Y0540901D02*
X0683457Y0540901D01*
X0683457Y0539702D02*
X0806543Y0539702D01*
X0806756Y0538504D02*
X0683244Y0538504D01*
X0682747Y0537305D02*
X0807253Y0537305D01*
X0808393Y0536107D02*
X0681607Y0536107D01*
X0680558Y0544496D02*
X0708878Y0544496D01*
X0708785Y0544658D02*
X0708995Y0544293D01*
X0709293Y0543995D01*
X0709658Y0543785D01*
X0710065Y0543676D01*
X0714400Y0543676D01*
X0714400Y0549400D01*
X0715600Y0549400D01*
X0715600Y0550600D01*
X0714400Y0550600D01*
X0714400Y0556324D01*
X0710065Y0556324D01*
X0709658Y0556215D01*
X0709293Y0556005D01*
X0708995Y0555707D01*
X0708785Y0555342D01*
X0708676Y0554935D01*
X0708676Y0550600D01*
X0714400Y0550600D01*
X0714400Y0549400D01*
X0708676Y0549400D01*
X0708676Y0545065D01*
X0708785Y0544658D01*
X0708676Y0545695D02*
X0641131Y0545695D01*
X0641131Y0544693D02*
X0641131Y0555307D01*
X0640307Y0556131D01*
X0629693Y0556131D01*
X0628869Y0555307D01*
X0628869Y0544693D01*
X0629693Y0543869D01*
X0640307Y0543869D01*
X0641131Y0544693D01*
X0640935Y0544496D02*
X0669442Y0544496D01*
X0667798Y0543298D02*
X0542202Y0543298D01*
X0542994Y0542099D02*
X0667006Y0542099D01*
X0666543Y0540901D02*
X0543457Y0540901D01*
X0543457Y0539702D02*
X0666543Y0539702D01*
X0666756Y0538504D02*
X0543244Y0538504D01*
X0542747Y0537305D02*
X0667253Y0537305D01*
X0668393Y0536107D02*
X0541607Y0536107D01*
X0526756Y0538504D02*
X0241600Y0538504D01*
X0241600Y0539702D02*
X0526543Y0539702D01*
X0526543Y0540901D02*
X0241600Y0540901D01*
X0241600Y0542099D02*
X0527006Y0542099D01*
X0527798Y0543298D02*
X0241600Y0543298D01*
X0241600Y0544496D02*
X0398878Y0544496D01*
X0398785Y0544658D02*
X0398995Y0544293D01*
X0399293Y0543995D01*
X0399658Y0543785D01*
X0400065Y0543676D01*
X0404400Y0543676D01*
X0404400Y0549400D01*
X0405600Y0549400D01*
X0405600Y0550600D01*
X0404400Y0550600D01*
X0404400Y0556324D01*
X0400065Y0556324D01*
X0399658Y0556215D01*
X0399293Y0556005D01*
X0398995Y0555707D01*
X0398785Y0555342D01*
X0398676Y0554935D01*
X0398676Y0550600D01*
X0404400Y0550600D01*
X0404400Y0549400D01*
X0398676Y0549400D01*
X0398676Y0545065D01*
X0398785Y0544658D01*
X0398676Y0545695D02*
X0241600Y0545695D01*
X0241600Y0546893D02*
X0398676Y0546893D01*
X0398676Y0548092D02*
X0241600Y0548092D01*
X0241600Y0549290D02*
X0398676Y0549290D01*
X0398676Y0551687D02*
X0252354Y0551687D01*
X0251660Y0550993D02*
X0254007Y0553340D01*
X0254007Y0556660D01*
X0251660Y0559007D01*
X0248340Y0559007D01*
X0245993Y0556660D01*
X0245993Y0553340D01*
X0248340Y0550993D01*
X0251660Y0550993D01*
X0253553Y0552886D02*
X0398676Y0552886D01*
X0398676Y0554084D02*
X0254007Y0554084D01*
X0254007Y0555283D02*
X0398769Y0555283D01*
X0395000Y0555283D02*
X0415000Y0555283D01*
X0415000Y0556481D02*
X0395000Y0556481D01*
X0395000Y0557680D02*
X0415000Y0557680D01*
X0415000Y0558878D02*
X0395000Y0558878D01*
X0395000Y0560000D02*
X0415000Y0560000D01*
X0415000Y0540000D01*
X0395000Y0540000D01*
X0395000Y0560000D01*
X0395000Y0554084D02*
X0415000Y0554084D01*
X0415000Y0552886D02*
X0395000Y0552886D01*
X0395000Y0551687D02*
X0415000Y0551687D01*
X0415000Y0550489D02*
X0395000Y0550489D01*
X0395000Y0549290D02*
X0415000Y0549290D01*
X0415000Y0548092D02*
X0395000Y0548092D01*
X0395000Y0546893D02*
X0415000Y0546893D01*
X0415000Y0545695D02*
X0395000Y0545695D01*
X0395000Y0544496D02*
X0415000Y0544496D01*
X0415000Y0543298D02*
X0395000Y0543298D01*
X0395000Y0542099D02*
X0415000Y0542099D01*
X0415000Y0540901D02*
X0395000Y0540901D01*
X0404400Y0544496D02*
X0405600Y0544496D01*
X0405600Y0543676D02*
X0405600Y0549400D01*
X0411324Y0549400D01*
X0411324Y0545065D01*
X0411215Y0544658D01*
X0411005Y0544293D01*
X0410707Y0543995D01*
X0410342Y0543785D01*
X0409935Y0543676D01*
X0405600Y0543676D01*
X0405600Y0545695D02*
X0404400Y0545695D01*
X0404400Y0546893D02*
X0405600Y0546893D01*
X0405600Y0548092D02*
X0404400Y0548092D01*
X0404400Y0549290D02*
X0405600Y0549290D01*
X0405600Y0550489D02*
X0428869Y0550489D01*
X0428869Y0551687D02*
X0411324Y0551687D01*
X0411324Y0550600D02*
X0411324Y0554935D01*
X0411215Y0555342D01*
X0411005Y0555707D01*
X0410707Y0556005D01*
X0410342Y0556215D01*
X0409935Y0556324D01*
X0405600Y0556324D01*
X0405600Y0550600D01*
X0411324Y0550600D01*
X0411324Y0549290D02*
X0428869Y0549290D01*
X0428869Y0548092D02*
X0411324Y0548092D01*
X0411324Y0546893D02*
X0428869Y0546893D01*
X0428869Y0545695D02*
X0411324Y0545695D01*
X0411122Y0544496D02*
X0429065Y0544496D01*
X0428869Y0544693D02*
X0429693Y0543869D01*
X0440307Y0543869D01*
X0441131Y0544693D01*
X0441131Y0555307D01*
X0440307Y0556131D01*
X0429693Y0556131D01*
X0428869Y0555307D01*
X0428869Y0544693D01*
X0428869Y0552886D02*
X0411324Y0552886D01*
X0411324Y0554084D02*
X0428869Y0554084D01*
X0428869Y0555283D02*
X0411231Y0555283D01*
X0405600Y0555283D02*
X0404400Y0555283D01*
X0404400Y0554084D02*
X0405600Y0554084D01*
X0405600Y0552886D02*
X0404400Y0552886D01*
X0404400Y0551687D02*
X0405600Y0551687D01*
X0404400Y0550489D02*
X0241600Y0550489D01*
X0241600Y0551687D02*
X0247646Y0551687D01*
X0246447Y0552886D02*
X0241600Y0552886D01*
X0241600Y0554084D02*
X0245993Y0554084D01*
X0245993Y0555283D02*
X0241600Y0555283D01*
X0241600Y0556481D02*
X0245993Y0556481D01*
X0247013Y0557680D02*
X0241600Y0557680D01*
X0241600Y0558878D02*
X0248212Y0558878D01*
X0251788Y0558878D02*
X0526601Y0558878D01*
X0526543Y0559019D02*
X0527294Y0557206D01*
X0528681Y0555819D01*
X0530494Y0555068D01*
X0539506Y0555068D01*
X0541319Y0555819D01*
X0542706Y0557206D01*
X0543457Y0559019D01*
X0543457Y0560981D01*
X0542706Y0562794D01*
X0541319Y0564181D01*
X0539506Y0564932D01*
X0530494Y0564932D01*
X0528681Y0564181D01*
X0527294Y0562794D01*
X0526543Y0560981D01*
X0526543Y0559019D01*
X0526543Y0560077D02*
X0241600Y0560077D01*
X0241600Y0561275D02*
X0526665Y0561275D01*
X0527161Y0562474D02*
X0241600Y0562474D01*
X0241600Y0563672D02*
X0528172Y0563672D01*
X0530346Y0564871D02*
X0241600Y0564871D01*
X0241600Y0566070D02*
X0838400Y0566070D01*
X0838400Y0567268D02*
X0241600Y0567268D01*
X0241600Y0568467D02*
X0838400Y0568467D01*
X0838400Y0569665D02*
X0241600Y0569665D01*
X0261651Y0576700D02*
X0261651Y0576700D01*
X0241600Y0594834D02*
X0838400Y0594834D01*
X0838400Y0596032D02*
X0241600Y0596032D01*
X0241600Y0597231D02*
X0838400Y0597231D01*
X0838400Y0598429D02*
X0241600Y0598429D01*
X0241600Y0599628D02*
X0838400Y0599628D01*
X0838400Y0600826D02*
X0241600Y0600826D01*
X0241600Y0602025D02*
X0838400Y0602025D01*
X0838400Y0603223D02*
X0241600Y0603223D01*
X0252987Y0557680D02*
X0527098Y0557680D01*
X0528019Y0556481D02*
X0254007Y0556481D01*
X0241600Y0520526D02*
X0351593Y0520526D01*
X0351593Y0519328D02*
X0241600Y0519328D01*
X0241600Y0518129D02*
X0351593Y0518129D01*
X0351593Y0516931D02*
X0287027Y0516931D01*
X0287496Y0516736D02*
X0285877Y0517407D01*
X0284123Y0517407D01*
X0282504Y0516736D01*
X0281264Y0515496D01*
X0280593Y0513877D01*
X0280593Y0506123D01*
X0281264Y0504504D01*
X0282504Y0503264D01*
X0284123Y0502593D01*
X0285877Y0502593D01*
X0287496Y0503264D01*
X0288736Y0504504D01*
X0289407Y0506123D01*
X0289407Y0513877D01*
X0288736Y0515496D01*
X0287496Y0516736D01*
X0288501Y0515732D02*
X0327096Y0515732D01*
X0325473Y0514534D02*
X0289135Y0514534D01*
X0289407Y0513335D02*
X0324446Y0513335D01*
X0323950Y0512137D02*
X0289407Y0512137D01*
X0289407Y0510938D02*
X0323593Y0510938D01*
X0323593Y0509739D02*
X0289407Y0509739D01*
X0289407Y0508541D02*
X0323669Y0508541D01*
X0324166Y0507342D02*
X0289407Y0507342D01*
X0289407Y0506144D02*
X0324795Y0506144D01*
X0325994Y0504945D02*
X0288919Y0504945D01*
X0287979Y0503747D02*
X0328354Y0503747D01*
X0289899Y0488166D02*
X0260101Y0488166D01*
X0259870Y0488397D02*
X0258397Y0489007D01*
X0251603Y0489007D01*
X0250130Y0488397D01*
X0249003Y0487270D01*
X0248393Y0485797D01*
X0248393Y0484203D01*
X0249003Y0482730D01*
X0250130Y0481603D01*
X0251603Y0480993D01*
X0258397Y0480993D01*
X0259870Y0481603D01*
X0260997Y0482730D01*
X0261607Y0484203D01*
X0261607Y0485797D01*
X0260997Y0487270D01*
X0259870Y0488397D01*
X0261122Y0486968D02*
X0288878Y0486968D01*
X0288393Y0485769D02*
X0261607Y0485769D01*
X0261607Y0484571D02*
X0288393Y0484571D01*
X0288737Y0483372D02*
X0261263Y0483372D01*
X0260441Y0482174D02*
X0289559Y0482174D01*
X0282021Y0503747D02*
X0277979Y0503747D01*
X0277496Y0503264D02*
X0278736Y0504504D01*
X0279407Y0506123D01*
X0279407Y0513877D01*
X0278736Y0515496D01*
X0277496Y0516736D01*
X0275877Y0517407D01*
X0274123Y0517407D01*
X0272504Y0516736D01*
X0271264Y0515496D01*
X0270593Y0513877D01*
X0270593Y0506123D01*
X0271264Y0504504D01*
X0272504Y0503264D01*
X0274123Y0502593D01*
X0275877Y0502593D01*
X0277496Y0503264D01*
X0278919Y0504945D02*
X0281081Y0504945D01*
X0280593Y0506144D02*
X0279407Y0506144D01*
X0279407Y0507342D02*
X0280593Y0507342D01*
X0280593Y0508541D02*
X0279407Y0508541D01*
X0279407Y0509739D02*
X0280593Y0509739D01*
X0280593Y0510938D02*
X0279407Y0510938D01*
X0279407Y0512137D02*
X0280593Y0512137D01*
X0280593Y0513335D02*
X0279407Y0513335D01*
X0279135Y0514534D02*
X0280865Y0514534D01*
X0281499Y0515732D02*
X0278501Y0515732D01*
X0277027Y0516931D02*
X0282973Y0516931D01*
X0272973Y0516931D02*
X0267027Y0516931D01*
X0267496Y0516736D02*
X0265877Y0517407D01*
X0264123Y0517407D01*
X0262504Y0516736D01*
X0261264Y0515496D01*
X0260593Y0513877D01*
X0260593Y0506123D01*
X0261264Y0504504D01*
X0262504Y0503264D01*
X0264123Y0502593D01*
X0265877Y0502593D01*
X0267496Y0503264D01*
X0268736Y0504504D01*
X0269407Y0506123D01*
X0269407Y0513877D01*
X0268736Y0515496D01*
X0267496Y0516736D01*
X0268501Y0515732D02*
X0271499Y0515732D01*
X0270865Y0514534D02*
X0269135Y0514534D01*
X0269407Y0513335D02*
X0270593Y0513335D01*
X0270593Y0512137D02*
X0269407Y0512137D01*
X0269407Y0510938D02*
X0270593Y0510938D01*
X0270593Y0509739D02*
X0269407Y0509739D01*
X0269407Y0508541D02*
X0270593Y0508541D01*
X0270593Y0507342D02*
X0269407Y0507342D01*
X0269407Y0506144D02*
X0270593Y0506144D01*
X0271081Y0504945D02*
X0268919Y0504945D01*
X0267979Y0503747D02*
X0272021Y0503747D01*
X0262021Y0503747D02*
X0241600Y0503747D01*
X0241600Y0504945D02*
X0261081Y0504945D01*
X0260593Y0506144D02*
X0241600Y0506144D01*
X0241600Y0507342D02*
X0260593Y0507342D01*
X0260593Y0508541D02*
X0241600Y0508541D01*
X0241600Y0509739D02*
X0260593Y0509739D01*
X0260593Y0510938D02*
X0241600Y0510938D01*
X0241600Y0512137D02*
X0260593Y0512137D01*
X0260593Y0513335D02*
X0241600Y0513335D01*
X0241600Y0514534D02*
X0260865Y0514534D01*
X0261499Y0515732D02*
X0241600Y0515732D01*
X0241600Y0516931D02*
X0262973Y0516931D01*
X0249899Y0488166D02*
X0241600Y0488166D01*
X0241600Y0486968D02*
X0248878Y0486968D01*
X0248393Y0485769D02*
X0241600Y0485769D01*
X0241600Y0484571D02*
X0248393Y0484571D01*
X0248737Y0483372D02*
X0241600Y0483372D01*
X0241600Y0482174D02*
X0249559Y0482174D01*
X0241600Y0447500D02*
X0351593Y0447500D01*
X0351593Y0444322D01*
X0352112Y0443070D01*
X0353070Y0442112D01*
X0354322Y0441593D01*
X0355678Y0441593D01*
X0356930Y0442112D01*
X0357888Y0443070D01*
X0358407Y0444322D01*
X0358407Y0447500D01*
X0838400Y0447500D01*
X0838400Y0266600D01*
X0241600Y0266600D01*
X0241600Y0447500D01*
X0241600Y0447417D02*
X0351593Y0447417D01*
X0351593Y0446218D02*
X0241600Y0446218D01*
X0241600Y0445020D02*
X0351593Y0445020D01*
X0351800Y0443821D02*
X0241600Y0443821D01*
X0241600Y0442623D02*
X0352559Y0442623D01*
X0357441Y0442623D02*
X0838400Y0442623D01*
X0838400Y0443821D02*
X0358200Y0443821D01*
X0358407Y0445020D02*
X0838400Y0445020D01*
X0838400Y0446218D02*
X0358407Y0446218D01*
X0358407Y0447417D02*
X0838400Y0447417D01*
X0838400Y0453409D02*
X0358407Y0453409D01*
X0358407Y0454608D02*
X0838400Y0454608D01*
X0838400Y0455806D02*
X0817736Y0455806D01*
X0818935Y0457005D02*
X0838400Y0457005D01*
X0838400Y0458203D02*
X0819900Y0458203D01*
X0819900Y0459402D02*
X0838400Y0459402D01*
X0838400Y0460601D02*
X0819900Y0460601D01*
X0819900Y0461799D02*
X0838400Y0461799D01*
X0838400Y0462998D02*
X0818932Y0462998D01*
X0817734Y0464196D02*
X0838400Y0464196D01*
X0838400Y0441424D02*
X0241600Y0441424D01*
X0241600Y0440226D02*
X0838400Y0440226D01*
X0838400Y0439027D02*
X0241600Y0439027D01*
X0241600Y0437829D02*
X0282162Y0437829D01*
X0280993Y0436660D02*
X0280993Y0433340D01*
X0283340Y0430993D01*
X0286660Y0430993D01*
X0289007Y0433340D01*
X0289007Y0436660D01*
X0286660Y0439007D01*
X0283340Y0439007D01*
X0280993Y0436660D01*
X0280993Y0436630D02*
X0267602Y0436630D01*
X0267496Y0436736D02*
X0265877Y0437407D01*
X0264123Y0437407D01*
X0262504Y0436736D01*
X0261264Y0435496D01*
X0260593Y0433877D01*
X0260593Y0426123D01*
X0261264Y0424504D01*
X0262504Y0423264D01*
X0264123Y0422593D01*
X0265877Y0422593D01*
X0267496Y0423264D01*
X0268736Y0424504D01*
X0269407Y0426123D01*
X0269407Y0433877D01*
X0268736Y0435496D01*
X0267496Y0436736D01*
X0268763Y0435432D02*
X0280993Y0435432D01*
X0280993Y0434233D02*
X0269259Y0434233D01*
X0269407Y0433035D02*
X0281298Y0433035D01*
X0282497Y0431836D02*
X0269407Y0431836D01*
X0269407Y0430638D02*
X0335100Y0430638D01*
X0335100Y0430500D02*
X0339500Y0430500D01*
X0339500Y0434900D01*
X0337970Y0434900D01*
X0335100Y0432030D01*
X0335100Y0430500D01*
X0335100Y0429500D02*
X0335100Y0427970D01*
X0337970Y0425100D01*
X0339500Y0425100D01*
X0339500Y0429500D01*
X0335100Y0429500D01*
X0335100Y0429439D02*
X0269407Y0429439D01*
X0269407Y0428241D02*
X0335100Y0428241D01*
X0336028Y0427042D02*
X0269407Y0427042D01*
X0269291Y0425844D02*
X0337227Y0425844D01*
X0339500Y0425844D02*
X0340500Y0425844D01*
X0340500Y0425100D02*
X0342030Y0425100D01*
X0344900Y0427970D01*
X0344900Y0429500D01*
X0340500Y0429500D01*
X0340500Y0430500D01*
X0339500Y0430500D01*
X0339500Y0429500D01*
X0340500Y0429500D01*
X0340500Y0425100D01*
X0340500Y0427042D02*
X0339500Y0427042D01*
X0339500Y0428241D02*
X0340500Y0428241D01*
X0340500Y0429439D02*
X0339500Y0429439D01*
X0339500Y0430638D02*
X0340500Y0430638D01*
X0340500Y0430500D02*
X0340500Y0434900D01*
X0342030Y0434900D01*
X0344900Y0432030D01*
X0344900Y0430500D01*
X0340500Y0430500D01*
X0340500Y0431836D02*
X0339500Y0431836D01*
X0339500Y0433035D02*
X0340500Y0433035D01*
X0340500Y0434233D02*
X0339500Y0434233D01*
X0337304Y0434233D02*
X0319007Y0434233D01*
X0319007Y0433340D02*
X0316660Y0430993D01*
X0313340Y0430993D01*
X0310993Y0433340D01*
X0310993Y0436660D01*
X0313340Y0439007D01*
X0316660Y0439007D01*
X0319007Y0436660D01*
X0319007Y0433340D01*
X0318702Y0433035D02*
X0336105Y0433035D01*
X0335100Y0431836D02*
X0317503Y0431836D01*
X0319007Y0435432D02*
X0838400Y0435432D01*
X0838400Y0436630D02*
X0319007Y0436630D01*
X0317838Y0437829D02*
X0838400Y0437829D01*
X0838400Y0434233D02*
X0817696Y0434233D01*
X0817030Y0434900D02*
X0815500Y0434900D01*
X0815500Y0430500D01*
X0814500Y0430500D01*
X0814500Y0434900D01*
X0812970Y0434900D01*
X0810100Y0432030D01*
X0810100Y0430500D01*
X0814500Y0430500D01*
X0814500Y0429500D01*
X0810100Y0429500D01*
X0810100Y0427970D01*
X0812970Y0425100D01*
X0814500Y0425100D01*
X0814500Y0429500D01*
X0815500Y0429500D01*
X0815500Y0430500D01*
X0819900Y0430500D01*
X0819900Y0432030D01*
X0817030Y0434900D01*
X0815500Y0434233D02*
X0814500Y0434233D01*
X0814500Y0433035D02*
X0815500Y0433035D01*
X0815500Y0431836D02*
X0814500Y0431836D01*
X0814500Y0430638D02*
X0815500Y0430638D01*
X0815500Y0429500D02*
X0819900Y0429500D01*
X0819900Y0427970D01*
X0817030Y0425100D01*
X0815500Y0425100D01*
X0815500Y0429500D01*
X0815500Y0429439D02*
X0814500Y0429439D01*
X0814500Y0428241D02*
X0815500Y0428241D01*
X0815500Y0427042D02*
X0814500Y0427042D01*
X0814500Y0425844D02*
X0815500Y0425844D01*
X0817773Y0425844D02*
X0838400Y0425844D01*
X0838400Y0427042D02*
X0818972Y0427042D01*
X0819900Y0428241D02*
X0838400Y0428241D01*
X0838400Y0429439D02*
X0819900Y0429439D01*
X0819900Y0430638D02*
X0838400Y0430638D01*
X0838400Y0431836D02*
X0819900Y0431836D01*
X0818895Y0433035D02*
X0838400Y0433035D01*
X0838400Y0424645D02*
X0313081Y0424645D01*
X0314138Y0424207D02*
X0311664Y0425232D01*
X0298336Y0425232D01*
X0295862Y0424207D01*
X0293968Y0422313D01*
X0292943Y0419839D01*
X0292943Y0417161D01*
X0293968Y0414687D01*
X0295862Y0412793D01*
X0298336Y0411768D01*
X0311664Y0411768D01*
X0314138Y0412793D01*
X0316032Y0414687D01*
X0317057Y0417161D01*
X0317057Y0419839D01*
X0316032Y0422313D01*
X0314138Y0424207D01*
X0314899Y0423447D02*
X0838400Y0423447D01*
X0838400Y0422248D02*
X0316059Y0422248D01*
X0316556Y0421050D02*
X0838400Y0421050D01*
X0838400Y0419851D02*
X0317052Y0419851D01*
X0317057Y0418653D02*
X0838400Y0418653D01*
X0838400Y0417454D02*
X0317057Y0417454D01*
X0316682Y0416256D02*
X0838400Y0416256D01*
X0838400Y0415057D02*
X0316186Y0415057D01*
X0315204Y0413859D02*
X0838400Y0413859D01*
X0838400Y0412660D02*
X0313818Y0412660D01*
X0311664Y0406732D02*
X0298336Y0406732D01*
X0295862Y0405707D01*
X0293968Y0403813D01*
X0292943Y0401339D01*
X0292943Y0398661D01*
X0293968Y0396187D01*
X0295862Y0394293D01*
X0298336Y0393268D01*
X0311664Y0393268D01*
X0314138Y0394293D01*
X0316032Y0396187D01*
X0317057Y0398661D01*
X0317057Y0401339D01*
X0316032Y0403813D01*
X0314138Y0405707D01*
X0311664Y0406732D01*
X0311820Y0406668D02*
X0530593Y0406668D01*
X0530593Y0406825D02*
X0530593Y0403175D01*
X0533175Y0400593D01*
X0536825Y0400593D01*
X0539407Y0403175D01*
X0539407Y0406825D01*
X0536825Y0409407D01*
X0533175Y0409407D01*
X0530593Y0406825D01*
X0530593Y0405469D02*
X0314377Y0405469D01*
X0315575Y0404270D02*
X0530593Y0404270D01*
X0530695Y0403072D02*
X0316339Y0403072D01*
X0316836Y0401873D02*
X0531894Y0401873D01*
X0533092Y0400675D02*
X0317057Y0400675D01*
X0317057Y0399476D02*
X0838400Y0399476D01*
X0838400Y0398278D02*
X0316898Y0398278D01*
X0316402Y0397079D02*
X0838400Y0397079D01*
X0838400Y0395881D02*
X0315727Y0395881D01*
X0314528Y0394682D02*
X0838400Y0394682D01*
X0838400Y0393484D02*
X0312185Y0393484D01*
X0311664Y0388232D02*
X0298336Y0388232D01*
X0295862Y0387207D01*
X0293968Y0385313D01*
X0292943Y0382839D01*
X0292943Y0380161D01*
X0293968Y0377687D01*
X0295862Y0375793D01*
X0298336Y0374768D01*
X0311664Y0374768D01*
X0314138Y0375793D01*
X0316032Y0377687D01*
X0317057Y0380161D01*
X0317057Y0382839D01*
X0316032Y0385313D01*
X0314138Y0387207D01*
X0311664Y0388232D01*
X0313452Y0387491D02*
X0331824Y0387491D01*
X0330993Y0386660D02*
X0330993Y0383340D01*
X0333340Y0380993D01*
X0336660Y0380993D01*
X0339007Y0383340D01*
X0339007Y0386660D01*
X0336660Y0389007D01*
X0333340Y0389007D01*
X0330993Y0386660D01*
X0330993Y0386293D02*
X0315053Y0386293D01*
X0316123Y0385094D02*
X0330993Y0385094D01*
X0330993Y0383896D02*
X0316619Y0383896D01*
X0317057Y0382697D02*
X0331636Y0382697D01*
X0332834Y0381499D02*
X0317057Y0381499D01*
X0317057Y0380300D02*
X0838400Y0380300D01*
X0838400Y0379102D02*
X0316618Y0379102D01*
X0316122Y0377903D02*
X0332236Y0377903D01*
X0333340Y0379007D02*
X0330993Y0376660D01*
X0330993Y0373340D01*
X0333340Y0370993D01*
X0336660Y0370993D01*
X0339007Y0373340D01*
X0339007Y0376660D01*
X0336660Y0379007D01*
X0333340Y0379007D01*
X0331038Y0376705D02*
X0315050Y0376705D01*
X0313446Y0375506D02*
X0330993Y0375506D01*
X0330993Y0374308D02*
X0241600Y0374308D01*
X0241600Y0375506D02*
X0296553Y0375506D01*
X0294950Y0376705D02*
X0241600Y0376705D01*
X0241600Y0377903D02*
X0293878Y0377903D01*
X0293382Y0379102D02*
X0241600Y0379102D01*
X0241600Y0380300D02*
X0292943Y0380300D01*
X0292943Y0381499D02*
X0241600Y0381499D01*
X0241600Y0382697D02*
X0292943Y0382697D01*
X0293381Y0383896D02*
X0267063Y0383896D01*
X0266660Y0383493D02*
X0269007Y0385840D01*
X0269007Y0389160D01*
X0266660Y0391507D01*
X0263340Y0391507D01*
X0260993Y0389160D01*
X0260993Y0385840D01*
X0263340Y0383493D01*
X0266660Y0383493D01*
X0268261Y0385094D02*
X0293877Y0385094D01*
X0294947Y0386293D02*
X0269007Y0386293D01*
X0269007Y0387491D02*
X0296548Y0387491D01*
X0297815Y0393484D02*
X0241600Y0393484D01*
X0241600Y0394682D02*
X0262151Y0394682D01*
X0260993Y0395840D02*
X0263340Y0393493D01*
X0266660Y0393493D01*
X0269007Y0395840D01*
X0269007Y0399160D01*
X0266660Y0401507D01*
X0263340Y0401507D01*
X0260993Y0399160D01*
X0260993Y0395840D01*
X0260993Y0395881D02*
X0241600Y0395881D01*
X0241600Y0397079D02*
X0260993Y0397079D01*
X0260993Y0398278D02*
X0241600Y0398278D01*
X0241600Y0399476D02*
X0261310Y0399476D01*
X0262508Y0400675D02*
X0241600Y0400675D01*
X0241600Y0401873D02*
X0293164Y0401873D01*
X0292943Y0400675D02*
X0267492Y0400675D01*
X0268690Y0399476D02*
X0292943Y0399476D01*
X0293102Y0398278D02*
X0269007Y0398278D01*
X0269007Y0397079D02*
X0293598Y0397079D01*
X0294273Y0395881D02*
X0269007Y0395881D01*
X0267849Y0394682D02*
X0295472Y0394682D01*
X0293661Y0403072D02*
X0241600Y0403072D01*
X0241600Y0404270D02*
X0294425Y0404270D01*
X0295623Y0405469D02*
X0241600Y0405469D01*
X0241600Y0406668D02*
X0298180Y0406668D01*
X0296182Y0412660D02*
X0241600Y0412660D01*
X0241600Y0411462D02*
X0838400Y0411462D01*
X0838400Y0410263D02*
X0241600Y0410263D01*
X0241600Y0409065D02*
X0532832Y0409065D01*
X0531633Y0407866D02*
X0241600Y0407866D01*
X0241600Y0413859D02*
X0294796Y0413859D01*
X0293814Y0415057D02*
X0241600Y0415057D01*
X0241600Y0416256D02*
X0293318Y0416256D01*
X0292943Y0417454D02*
X0241600Y0417454D01*
X0241600Y0418653D02*
X0292943Y0418653D01*
X0292948Y0419851D02*
X0241600Y0419851D01*
X0241600Y0421050D02*
X0293444Y0421050D01*
X0293941Y0422248D02*
X0241600Y0422248D01*
X0241600Y0423447D02*
X0252321Y0423447D01*
X0252504Y0423264D02*
X0254123Y0422593D01*
X0255877Y0422593D01*
X0257496Y0423264D01*
X0258736Y0424504D01*
X0259407Y0426123D01*
X0259407Y0433877D01*
X0258736Y0435496D01*
X0257496Y0436736D01*
X0255877Y0437407D01*
X0254123Y0437407D01*
X0252504Y0436736D01*
X0251264Y0435496D01*
X0250593Y0433877D01*
X0250593Y0426123D01*
X0251264Y0424504D01*
X0252504Y0423264D01*
X0251205Y0424645D02*
X0241600Y0424645D01*
X0241600Y0425844D02*
X0250709Y0425844D01*
X0250593Y0427042D02*
X0241600Y0427042D01*
X0241600Y0428241D02*
X0250593Y0428241D01*
X0250593Y0429439D02*
X0241600Y0429439D01*
X0241600Y0430638D02*
X0250593Y0430638D01*
X0250593Y0431836D02*
X0241600Y0431836D01*
X0241600Y0433035D02*
X0250593Y0433035D01*
X0250741Y0434233D02*
X0241600Y0434233D01*
X0241600Y0435432D02*
X0251237Y0435432D01*
X0252398Y0436630D02*
X0241600Y0436630D01*
X0257602Y0436630D02*
X0262398Y0436630D01*
X0261237Y0435432D02*
X0258763Y0435432D01*
X0259259Y0434233D02*
X0260741Y0434233D01*
X0260593Y0433035D02*
X0259407Y0433035D01*
X0259407Y0431836D02*
X0260593Y0431836D01*
X0260593Y0430638D02*
X0259407Y0430638D01*
X0259407Y0429439D02*
X0260593Y0429439D01*
X0260593Y0428241D02*
X0259407Y0428241D01*
X0259407Y0427042D02*
X0260593Y0427042D01*
X0260709Y0425844D02*
X0259291Y0425844D01*
X0258795Y0424645D02*
X0261205Y0424645D01*
X0262321Y0423447D02*
X0257679Y0423447D01*
X0267679Y0423447D02*
X0295101Y0423447D01*
X0296919Y0424645D02*
X0268795Y0424645D01*
X0287503Y0431836D02*
X0312497Y0431836D01*
X0311298Y0433035D02*
X0288702Y0433035D01*
X0289007Y0434233D02*
X0310993Y0434233D01*
X0310993Y0435432D02*
X0289007Y0435432D01*
X0289007Y0436630D02*
X0310993Y0436630D01*
X0312162Y0437829D02*
X0287838Y0437829D01*
X0342696Y0434233D02*
X0812304Y0434233D01*
X0811105Y0433035D02*
X0343895Y0433035D01*
X0344900Y0431836D02*
X0810100Y0431836D01*
X0810100Y0430638D02*
X0344900Y0430638D01*
X0344900Y0429439D02*
X0810100Y0429439D01*
X0810100Y0428241D02*
X0344900Y0428241D01*
X0343972Y0427042D02*
X0811028Y0427042D01*
X0812227Y0425844D02*
X0342773Y0425844D01*
X0336977Y0388690D02*
X0353023Y0388690D01*
X0353340Y0389007D02*
X0350993Y0386660D01*
X0350993Y0383340D01*
X0353340Y0380993D01*
X0356660Y0380993D01*
X0359007Y0383340D01*
X0359007Y0386660D01*
X0356660Y0389007D01*
X0353340Y0389007D01*
X0351824Y0387491D02*
X0338176Y0387491D01*
X0339007Y0386293D02*
X0350993Y0386293D01*
X0350993Y0385094D02*
X0339007Y0385094D01*
X0339007Y0383896D02*
X0350993Y0383896D01*
X0351636Y0382697D02*
X0338364Y0382697D01*
X0337166Y0381499D02*
X0352834Y0381499D01*
X0353340Y0379007D02*
X0350993Y0376660D01*
X0350993Y0373340D01*
X0353340Y0370993D01*
X0356660Y0370993D01*
X0359007Y0373340D01*
X0359007Y0376660D01*
X0356660Y0379007D01*
X0353340Y0379007D01*
X0352236Y0377903D02*
X0337764Y0377903D01*
X0338962Y0376705D02*
X0351038Y0376705D01*
X0350993Y0375506D02*
X0339007Y0375506D01*
X0339007Y0374308D02*
X0350993Y0374308D01*
X0351224Y0373109D02*
X0338776Y0373109D01*
X0337578Y0371911D02*
X0352422Y0371911D01*
X0353340Y0369007D02*
X0350993Y0366660D01*
X0350993Y0363340D01*
X0353340Y0360993D01*
X0356660Y0360993D01*
X0359007Y0363340D01*
X0359007Y0366660D01*
X0356660Y0369007D01*
X0353340Y0369007D01*
X0352648Y0368315D02*
X0337352Y0368315D01*
X0336660Y0369007D02*
X0333340Y0369007D01*
X0330993Y0366660D01*
X0330993Y0363340D01*
X0333340Y0360993D01*
X0336660Y0360993D01*
X0339007Y0363340D01*
X0339007Y0366660D01*
X0336660Y0369007D01*
X0338550Y0367117D02*
X0351450Y0367117D01*
X0350993Y0365918D02*
X0339007Y0365918D01*
X0339007Y0364720D02*
X0350993Y0364720D01*
X0350993Y0363521D02*
X0339007Y0363521D01*
X0337989Y0362323D02*
X0352011Y0362323D01*
X0353209Y0361124D02*
X0336791Y0361124D01*
X0336660Y0359007D02*
X0333340Y0359007D01*
X0330993Y0356660D01*
X0330993Y0353340D01*
X0333340Y0350993D01*
X0336660Y0350993D01*
X0339007Y0353340D01*
X0339007Y0356660D01*
X0336660Y0359007D01*
X0336940Y0358727D02*
X0353060Y0358727D01*
X0353340Y0359007D02*
X0350993Y0356660D01*
X0350993Y0353340D01*
X0353340Y0350993D01*
X0356660Y0350993D01*
X0359007Y0353340D01*
X0359007Y0356660D01*
X0356660Y0359007D01*
X0353340Y0359007D01*
X0351862Y0357529D02*
X0338138Y0357529D01*
X0339007Y0356330D02*
X0350993Y0356330D01*
X0350993Y0355132D02*
X0339007Y0355132D01*
X0339007Y0353933D02*
X0350993Y0353933D01*
X0351599Y0352734D02*
X0338401Y0352734D01*
X0337203Y0351536D02*
X0352797Y0351536D01*
X0353340Y0349007D02*
X0350993Y0346660D01*
X0350993Y0343340D01*
X0353340Y0340993D01*
X0356660Y0340993D01*
X0359007Y0343340D01*
X0359007Y0346660D01*
X0356660Y0349007D01*
X0353340Y0349007D01*
X0352274Y0347940D02*
X0337726Y0347940D01*
X0336660Y0349007D02*
X0333340Y0349007D01*
X0330993Y0346660D01*
X0330993Y0343340D01*
X0333340Y0340993D01*
X0336660Y0340993D01*
X0339007Y0343340D01*
X0339007Y0346660D01*
X0336660Y0349007D01*
X0338925Y0346742D02*
X0351075Y0346742D01*
X0350993Y0345543D02*
X0339007Y0345543D01*
X0339007Y0344345D02*
X0350993Y0344345D01*
X0351187Y0343146D02*
X0338813Y0343146D01*
X0337615Y0341948D02*
X0352385Y0341948D01*
X0353340Y0339007D02*
X0350993Y0336660D01*
X0350993Y0333340D01*
X0353340Y0330993D01*
X0356660Y0330993D01*
X0359007Y0333340D01*
X0359007Y0336660D01*
X0356660Y0339007D01*
X0353340Y0339007D01*
X0352685Y0338352D02*
X0337314Y0338352D01*
X0336660Y0339007D02*
X0333340Y0339007D01*
X0330993Y0336660D01*
X0330993Y0333340D01*
X0333340Y0330993D01*
X0336660Y0330993D01*
X0339007Y0333340D01*
X0339007Y0336660D01*
X0336660Y0339007D01*
X0338513Y0337154D02*
X0351487Y0337154D01*
X0350993Y0335955D02*
X0339007Y0335955D01*
X0339007Y0334757D02*
X0350993Y0334757D01*
X0350993Y0333558D02*
X0339007Y0333558D01*
X0338027Y0332360D02*
X0351973Y0332360D01*
X0353172Y0331161D02*
X0336828Y0331161D01*
X0333172Y0331161D02*
X0277394Y0331161D01*
X0276825Y0330593D02*
X0279407Y0333175D01*
X0279407Y0336825D01*
X0276825Y0339407D01*
X0273175Y0339407D01*
X0270593Y0336825D01*
X0270593Y0333175D01*
X0273175Y0330593D01*
X0276825Y0330593D01*
X0276825Y0329407D02*
X0273175Y0329407D01*
X0270593Y0326825D01*
X0270593Y0323175D01*
X0273175Y0320593D01*
X0276825Y0320593D01*
X0279407Y0323175D01*
X0279407Y0326825D01*
X0276825Y0329407D01*
X0277468Y0328764D02*
X0838400Y0328764D01*
X0838400Y0327566D02*
X0278667Y0327566D01*
X0279407Y0326367D02*
X0838400Y0326367D01*
X0838400Y0325169D02*
X0279407Y0325169D01*
X0279407Y0323970D02*
X0838400Y0323970D01*
X0838400Y0322772D02*
X0279004Y0322772D01*
X0277806Y0321573D02*
X0838400Y0321573D01*
X0838400Y0320375D02*
X0241600Y0320375D01*
X0241600Y0321573D02*
X0262194Y0321573D01*
X0263175Y0320593D02*
X0266825Y0320593D01*
X0269407Y0323175D01*
X0269407Y0326825D01*
X0266825Y0329407D01*
X0263175Y0329407D01*
X0260593Y0326825D01*
X0260593Y0323175D01*
X0263175Y0320593D01*
X0263095Y0319600D02*
X0260400Y0316905D01*
X0260400Y0315400D01*
X0264600Y0315400D01*
X0264600Y0319600D01*
X0263095Y0319600D01*
X0262671Y0319176D02*
X0241600Y0319176D01*
X0241600Y0317978D02*
X0261472Y0317978D01*
X0260400Y0316779D02*
X0241600Y0316779D01*
X0241600Y0315581D02*
X0260400Y0315581D01*
X0260400Y0314600D02*
X0260400Y0313095D01*
X0263095Y0310400D01*
X0264600Y0310400D01*
X0264600Y0314600D01*
X0260400Y0314600D01*
X0260400Y0314382D02*
X0241600Y0314382D01*
X0241600Y0313184D02*
X0260400Y0313184D01*
X0261509Y0311985D02*
X0241600Y0311985D01*
X0241600Y0310787D02*
X0262708Y0310787D01*
X0264600Y0310787D02*
X0265400Y0310787D01*
X0265400Y0310400D02*
X0266905Y0310400D01*
X0269600Y0313095D01*
X0269600Y0314600D01*
X0265400Y0314600D01*
X0265400Y0315400D01*
X0264600Y0315400D01*
X0264600Y0314600D01*
X0265400Y0314600D01*
X0265400Y0310400D01*
X0265400Y0311985D02*
X0264600Y0311985D01*
X0264600Y0313184D02*
X0265400Y0313184D01*
X0265400Y0314382D02*
X0264600Y0314382D01*
X0264600Y0315581D02*
X0265400Y0315581D01*
X0265400Y0315400D02*
X0265400Y0319600D01*
X0266905Y0319600D01*
X0269600Y0316905D01*
X0269600Y0315400D01*
X0265400Y0315400D01*
X0265400Y0316779D02*
X0264600Y0316779D01*
X0264600Y0317978D02*
X0265400Y0317978D01*
X0265400Y0319176D02*
X0264600Y0319176D01*
X0267329Y0319176D02*
X0272944Y0319176D01*
X0273175Y0319407D02*
X0270593Y0316825D01*
X0270593Y0313175D01*
X0273175Y0310593D01*
X0276825Y0310593D01*
X0279407Y0313175D01*
X0279407Y0316825D01*
X0276825Y0319407D01*
X0273175Y0319407D01*
X0271745Y0317978D02*
X0268528Y0317978D01*
X0269600Y0316779D02*
X0270593Y0316779D01*
X0270593Y0315581D02*
X0269600Y0315581D01*
X0269600Y0314382D02*
X0270593Y0314382D01*
X0270593Y0313184D02*
X0269600Y0313184D01*
X0268490Y0311985D02*
X0271782Y0311985D01*
X0272981Y0310787D02*
X0267292Y0310787D01*
X0277019Y0310787D02*
X0307150Y0310787D01*
X0307150Y0310600D02*
X0314400Y0310600D01*
X0314400Y0317850D01*
X0311748Y0317850D01*
X0307150Y0313252D01*
X0307150Y0310600D01*
X0307150Y0309400D02*
X0307150Y0306748D01*
X0311398Y0302500D01*
X0307150Y0298252D01*
X0307150Y0295600D01*
X0314400Y0295600D01*
X0314400Y0302850D01*
X0314400Y0309400D01*
X0307150Y0309400D01*
X0307150Y0308390D02*
X0241600Y0308390D01*
X0241600Y0309588D02*
X0314400Y0309588D01*
X0314400Y0309400D02*
X0314400Y0310600D01*
X0315600Y0310600D01*
X0315600Y0317850D01*
X0318252Y0317850D01*
X0322500Y0313602D01*
X0326748Y0317850D01*
X0329400Y0317850D01*
X0329400Y0310600D01*
X0330600Y0310600D01*
X0330600Y0317850D01*
X0333252Y0317850D01*
X0337500Y0313602D01*
X0341748Y0317850D01*
X0344400Y0317850D01*
X0344400Y0310600D01*
X0345600Y0310600D01*
X0345600Y0317850D01*
X0348252Y0317850D01*
X0352500Y0313602D01*
X0356748Y0317850D01*
X0359400Y0317850D01*
X0359400Y0310600D01*
X0360600Y0310600D01*
X0360600Y0317850D01*
X0363252Y0317850D01*
X0367500Y0313602D01*
X0371748Y0317850D01*
X0374400Y0317850D01*
X0374400Y0310600D01*
X0375600Y0310600D01*
X0375600Y0317850D01*
X0378252Y0317850D01*
X0382500Y0313602D01*
X0386748Y0317850D01*
X0389400Y0317850D01*
X0389400Y0310600D01*
X0390600Y0310600D01*
X0390600Y0317850D01*
X0393252Y0317850D01*
X0397500Y0313602D01*
X0401748Y0317850D01*
X0404400Y0317850D01*
X0404400Y0310600D01*
X0405600Y0310600D01*
X0405600Y0317850D01*
X0408252Y0317850D01*
X0412500Y0313602D01*
X0416748Y0317850D01*
X0419400Y0317850D01*
X0419400Y0310600D01*
X0420600Y0310600D01*
X0420600Y0317850D01*
X0423252Y0317850D01*
X0427850Y0313252D01*
X0427850Y0310600D01*
X0420600Y0310600D01*
X0420600Y0309400D01*
X0427850Y0309400D01*
X0427850Y0306748D01*
X0423602Y0302500D01*
X0427850Y0298252D01*
X0427850Y0295600D01*
X0420600Y0295600D01*
X0420600Y0294400D01*
X0427850Y0294400D01*
X0427850Y0291748D01*
X0423602Y0287500D01*
X0427850Y0283252D01*
X0427850Y0280600D01*
X0420600Y0280600D01*
X0420600Y0279400D01*
X0427850Y0279400D01*
X0427850Y0276748D01*
X0423252Y0272150D01*
X0420600Y0272150D01*
X0420600Y0279400D01*
X0419400Y0279400D01*
X0419400Y0272150D01*
X0416748Y0272150D01*
X0412500Y0276398D01*
X0408252Y0272150D01*
X0405600Y0272150D01*
X0405600Y0279400D01*
X0405600Y0280600D01*
X0404400Y0280600D01*
X0404400Y0287850D01*
X0404400Y0294400D01*
X0397150Y0294400D01*
X0390600Y0294400D01*
X0390600Y0295600D01*
X0404400Y0295600D01*
X0404400Y0302850D01*
X0404400Y0309400D01*
X0405600Y0309400D01*
X0405600Y0310600D01*
X0419400Y0310600D01*
X0419400Y0309400D01*
X0420600Y0309400D01*
X0420600Y0295600D01*
X0419400Y0295600D01*
X0419400Y0302850D01*
X0419400Y0309400D01*
X0412150Y0309400D01*
X0405600Y0309400D01*
X0405600Y0295600D01*
X0419400Y0295600D01*
X0419400Y0294400D01*
X0412150Y0294400D01*
X0405600Y0294400D01*
X0405600Y0295600D01*
X0404400Y0295600D01*
X0404400Y0294400D01*
X0405600Y0294400D01*
X0405600Y0280600D01*
X0419400Y0280600D01*
X0419400Y0287150D01*
X0419400Y0294400D01*
X0420600Y0294400D01*
X0420600Y0280600D01*
X0419400Y0280600D01*
X0419400Y0279400D01*
X0412850Y0279400D01*
X0405600Y0279400D01*
X0404400Y0279400D01*
X0404400Y0272150D01*
X0401748Y0272150D01*
X0397500Y0276398D01*
X0393252Y0272150D01*
X0390600Y0272150D01*
X0390600Y0279400D01*
X0390600Y0280600D01*
X0389400Y0280600D01*
X0389400Y0287850D01*
X0389400Y0294400D01*
X0382150Y0294400D01*
X0375600Y0294400D01*
X0375600Y0295600D01*
X0389400Y0295600D01*
X0389400Y0302850D01*
X0389400Y0309400D01*
X0390600Y0309400D01*
X0390600Y0310600D01*
X0404400Y0310600D01*
X0404400Y0309400D01*
X0397150Y0309400D01*
X0390600Y0309400D01*
X0390600Y0295600D01*
X0389400Y0295600D01*
X0389400Y0294400D01*
X0390600Y0294400D01*
X0390600Y0280600D01*
X0404400Y0280600D01*
X0404400Y0279400D01*
X0397150Y0279400D01*
X0390600Y0279400D01*
X0389400Y0279400D01*
X0389400Y0272150D01*
X0386748Y0272150D01*
X0382500Y0276398D01*
X0378252Y0272150D01*
X0375600Y0272150D01*
X0375600Y0279400D01*
X0375600Y0280600D01*
X0374400Y0280600D01*
X0374400Y0287850D01*
X0374400Y0294400D01*
X0367150Y0294400D01*
X0360600Y0294400D01*
X0360600Y0295600D01*
X0374400Y0295600D01*
X0374400Y0302850D01*
X0374400Y0309400D01*
X0375600Y0309400D01*
X0375600Y0310600D01*
X0389400Y0310600D01*
X0389400Y0309400D01*
X0382150Y0309400D01*
X0375600Y0309400D01*
X0375600Y0295600D01*
X0374400Y0295600D01*
X0374400Y0294400D01*
X0375600Y0294400D01*
X0375600Y0280600D01*
X0389400Y0280600D01*
X0389400Y0279400D01*
X0382150Y0279400D01*
X0375600Y0279400D01*
X0374400Y0279400D01*
X0374400Y0272150D01*
X0371748Y0272150D01*
X0367500Y0276398D01*
X0363252Y0272150D01*
X0360600Y0272150D01*
X0360600Y0279400D01*
X0360600Y0280600D01*
X0359400Y0280600D01*
X0359400Y0287850D01*
X0359400Y0294400D01*
X0352150Y0294400D01*
X0345600Y0294400D01*
X0345600Y0295600D01*
X0359400Y0295600D01*
X0359400Y0302850D01*
X0359400Y0309400D01*
X0360600Y0309400D01*
X0360600Y0310600D01*
X0374400Y0310600D01*
X0374400Y0309400D01*
X0367150Y0309400D01*
X0360600Y0309400D01*
X0360600Y0295600D01*
X0359400Y0295600D01*
X0359400Y0294400D01*
X0360600Y0294400D01*
X0360600Y0280600D01*
X0374400Y0280600D01*
X0374400Y0279400D01*
X0367150Y0279400D01*
X0360600Y0279400D01*
X0359400Y0279400D01*
X0359400Y0272150D01*
X0356748Y0272150D01*
X0352500Y0276398D01*
X0348252Y0272150D01*
X0345600Y0272150D01*
X0345600Y0279400D01*
X0345600Y0280600D01*
X0344400Y0280600D01*
X0344400Y0287850D01*
X0344400Y0294400D01*
X0337150Y0294400D01*
X0330600Y0294400D01*
X0330600Y0295600D01*
X0344400Y0295600D01*
X0344400Y0302850D01*
X0344400Y0309400D01*
X0345600Y0309400D01*
X0345600Y0310600D01*
X0359400Y0310600D01*
X0359400Y0309400D01*
X0352150Y0309400D01*
X0345600Y0309400D01*
X0345600Y0295600D01*
X0344400Y0295600D01*
X0344400Y0294400D01*
X0345600Y0294400D01*
X0345600Y0280600D01*
X0359400Y0280600D01*
X0359400Y0279400D01*
X0352150Y0279400D01*
X0345600Y0279400D01*
X0344400Y0279400D01*
X0344400Y0272150D01*
X0341748Y0272150D01*
X0337500Y0276398D01*
X0333252Y0272150D01*
X0330600Y0272150D01*
X0330600Y0279400D01*
X0330600Y0280600D01*
X0329400Y0280600D01*
X0329400Y0287850D01*
X0329400Y0294400D01*
X0322150Y0294400D01*
X0315600Y0294400D01*
X0315600Y0295600D01*
X0329400Y0295600D01*
X0329400Y0302150D01*
X0329400Y0309400D01*
X0330600Y0309400D01*
X0330600Y0310600D01*
X0344400Y0310600D01*
X0344400Y0309400D01*
X0337150Y0309400D01*
X0330600Y0309400D01*
X0330600Y0295600D01*
X0329400Y0295600D01*
X0329400Y0294400D01*
X0330600Y0294400D01*
X0330600Y0280600D01*
X0344400Y0280600D01*
X0344400Y0279400D01*
X0337150Y0279400D01*
X0330600Y0279400D01*
X0329400Y0279400D01*
X0329400Y0272150D01*
X0326748Y0272150D01*
X0322500Y0276398D01*
X0318252Y0272150D01*
X0315600Y0272150D01*
X0315600Y0279400D01*
X0315600Y0280600D01*
X0314400Y0280600D01*
X0314400Y0287150D01*
X0314400Y0294400D01*
X0307150Y0294400D01*
X0307150Y0291748D01*
X0311398Y0287500D01*
X0307150Y0283252D01*
X0307150Y0280600D01*
X0314400Y0280600D01*
X0314400Y0279400D01*
X0307150Y0279400D01*
X0307150Y0276748D01*
X0311748Y0272150D01*
X0314400Y0272150D01*
X0314400Y0279400D01*
X0315600Y0279400D01*
X0322150Y0279400D01*
X0329400Y0279400D01*
X0329400Y0280600D01*
X0315600Y0280600D01*
X0315600Y0294400D01*
X0314400Y0294400D01*
X0314400Y0295600D01*
X0315600Y0295600D01*
X0315600Y0309400D01*
X0315600Y0310600D01*
X0329400Y0310600D01*
X0329400Y0309400D01*
X0322150Y0309400D01*
X0315600Y0309400D01*
X0314400Y0309400D01*
X0314400Y0308390D02*
X0315600Y0308390D01*
X0315600Y0309588D02*
X0329400Y0309588D01*
X0329400Y0308390D02*
X0330600Y0308390D01*
X0330600Y0309588D02*
X0344400Y0309588D01*
X0344400Y0308390D02*
X0345600Y0308390D01*
X0345600Y0309588D02*
X0359400Y0309588D01*
X0359400Y0308390D02*
X0360600Y0308390D01*
X0360600Y0309588D02*
X0374400Y0309588D01*
X0374400Y0308390D02*
X0375600Y0308390D01*
X0375600Y0309588D02*
X0389400Y0309588D01*
X0389400Y0308390D02*
X0390600Y0308390D01*
X0390600Y0309588D02*
X0404400Y0309588D01*
X0404400Y0308390D02*
X0405600Y0308390D01*
X0405600Y0309588D02*
X0419400Y0309588D01*
X0419400Y0308390D02*
X0420600Y0308390D01*
X0420600Y0309588D02*
X0838400Y0309588D01*
X0838400Y0308390D02*
X0427850Y0308390D01*
X0427850Y0307191D02*
X0838400Y0307191D01*
X0838400Y0305993D02*
X0427094Y0305993D01*
X0425896Y0304794D02*
X0838400Y0304794D01*
X0838400Y0303596D02*
X0424697Y0303596D01*
X0423705Y0302397D02*
X0456568Y0302397D01*
X0456828Y0302657D02*
X0452343Y0298172D01*
X0452343Y0291828D01*
X0456671Y0287500D01*
X0452343Y0283172D01*
X0452343Y0276828D01*
X0456828Y0272343D01*
X0463172Y0272343D01*
X0467500Y0276671D01*
X0471828Y0272343D01*
X0478172Y0272343D01*
X0482500Y0276671D01*
X0486828Y0272343D01*
X0493172Y0272343D01*
X0497500Y0276671D01*
X0501828Y0272343D01*
X0508172Y0272343D01*
X0512500Y0276671D01*
X0516828Y0272343D01*
X0523172Y0272343D01*
X0527500Y0276671D01*
X0531828Y0272343D01*
X0538172Y0272343D01*
X0542657Y0276828D01*
X0542657Y0283172D01*
X0538329Y0287500D01*
X0542657Y0291828D01*
X0542657Y0298172D01*
X0538172Y0302657D01*
X0531828Y0302657D01*
X0527500Y0298329D01*
X0523172Y0302657D01*
X0516828Y0302657D01*
X0512500Y0298329D01*
X0508172Y0302657D01*
X0501828Y0302657D01*
X0497500Y0298329D01*
X0493172Y0302657D01*
X0486828Y0302657D01*
X0482500Y0298329D01*
X0478172Y0302657D01*
X0471828Y0302657D01*
X0467500Y0298329D01*
X0463172Y0302657D01*
X0456828Y0302657D01*
X0455370Y0301199D02*
X0424903Y0301199D01*
X0426102Y0300000D02*
X0454171Y0300000D01*
X0452973Y0298801D02*
X0427300Y0298801D01*
X0427850Y0297603D02*
X0452343Y0297603D01*
X0452343Y0296404D02*
X0427850Y0296404D01*
X0430000Y0296404D02*
X0305000Y0296404D01*
X0305000Y0295206D02*
X0430000Y0295206D01*
X0430000Y0294007D02*
X0305000Y0294007D01*
X0305000Y0292809D02*
X0430000Y0292809D01*
X0430000Y0291610D02*
X0305000Y0291610D01*
X0305000Y0290412D02*
X0430000Y0290412D01*
X0430000Y0289213D02*
X0305000Y0289213D01*
X0305000Y0288015D02*
X0430000Y0288015D01*
X0430000Y0286816D02*
X0305000Y0286816D01*
X0305000Y0285618D02*
X0430000Y0285618D01*
X0430000Y0284419D02*
X0305000Y0284419D01*
X0305000Y0283221D02*
X0430000Y0283221D01*
X0430000Y0282022D02*
X0305000Y0282022D01*
X0305000Y0280824D02*
X0430000Y0280824D01*
X0430000Y0279625D02*
X0305000Y0279625D01*
X0305000Y0278427D02*
X0430000Y0278427D01*
X0430000Y0277228D02*
X0305000Y0277228D01*
X0305000Y0276030D02*
X0430000Y0276030D01*
X0430000Y0274831D02*
X0305000Y0274831D01*
X0305000Y0273633D02*
X0430000Y0273633D01*
X0430000Y0272434D02*
X0305000Y0272434D01*
X0305000Y0271236D02*
X0430000Y0271236D01*
X0430000Y0270037D02*
X0305000Y0270037D01*
X0305000Y0270000D02*
X0430000Y0270000D01*
X0430000Y0320000D01*
X0305000Y0320000D01*
X0305000Y0270000D01*
X0309067Y0274831D02*
X0241600Y0274831D01*
X0241600Y0273633D02*
X0310266Y0273633D01*
X0311464Y0272434D02*
X0241600Y0272434D01*
X0241600Y0271236D02*
X0838400Y0271236D01*
X0838400Y0272434D02*
X0818263Y0272434D01*
X0818172Y0272343D02*
X0822657Y0276828D01*
X0822657Y0283172D01*
X0818329Y0287500D01*
X0822657Y0291828D01*
X0822657Y0298172D01*
X0818172Y0302657D01*
X0811828Y0302657D01*
X0807500Y0298329D01*
X0803172Y0302657D01*
X0796828Y0302657D01*
X0792500Y0298329D01*
X0788172Y0302657D01*
X0781828Y0302657D01*
X0777500Y0298329D01*
X0773172Y0302657D01*
X0766828Y0302657D01*
X0762500Y0298329D01*
X0758172Y0302657D01*
X0751828Y0302657D01*
X0747500Y0298329D01*
X0743172Y0302657D01*
X0736828Y0302657D01*
X0732343Y0298172D01*
X0732343Y0291828D01*
X0736671Y0287500D01*
X0732343Y0283172D01*
X0732343Y0276828D01*
X0736828Y0272343D01*
X0743172Y0272343D01*
X0747500Y0276671D01*
X0751828Y0272343D01*
X0758172Y0272343D01*
X0762500Y0276671D01*
X0766828Y0272343D01*
X0773172Y0272343D01*
X0777500Y0276671D01*
X0781828Y0272343D01*
X0788172Y0272343D01*
X0792500Y0276671D01*
X0796828Y0272343D01*
X0803172Y0272343D01*
X0807500Y0276671D01*
X0811828Y0272343D01*
X0818172Y0272343D01*
X0819461Y0273633D02*
X0838400Y0273633D01*
X0838400Y0274831D02*
X0820660Y0274831D01*
X0821859Y0276030D02*
X0838400Y0276030D01*
X0838400Y0277228D02*
X0822657Y0277228D01*
X0822657Y0278427D02*
X0838400Y0278427D01*
X0838400Y0279625D02*
X0822657Y0279625D01*
X0822657Y0280824D02*
X0838400Y0280824D01*
X0838400Y0282022D02*
X0822657Y0282022D01*
X0822608Y0283221D02*
X0838400Y0283221D01*
X0838400Y0284419D02*
X0821409Y0284419D01*
X0820211Y0285618D02*
X0838400Y0285618D01*
X0838400Y0286816D02*
X0819012Y0286816D01*
X0818844Y0288015D02*
X0838400Y0288015D01*
X0838400Y0289213D02*
X0820042Y0289213D01*
X0821241Y0290412D02*
X0838400Y0290412D01*
X0838400Y0291610D02*
X0822439Y0291610D01*
X0822657Y0292809D02*
X0838400Y0292809D01*
X0838400Y0294007D02*
X0822657Y0294007D01*
X0822657Y0295206D02*
X0838400Y0295206D01*
X0838400Y0296404D02*
X0822657Y0296404D01*
X0822657Y0297603D02*
X0838400Y0297603D01*
X0838400Y0298801D02*
X0822027Y0298801D01*
X0820829Y0300000D02*
X0838400Y0300000D01*
X0838400Y0301199D02*
X0819630Y0301199D01*
X0818432Y0302397D02*
X0838400Y0302397D01*
X0838400Y0310787D02*
X0817019Y0310787D01*
X0816825Y0310593D02*
X0819407Y0313175D01*
X0819407Y0316825D01*
X0816825Y0319407D01*
X0813175Y0319407D01*
X0810593Y0316825D01*
X0810593Y0313175D01*
X0813175Y0310593D01*
X0816825Y0310593D01*
X0818218Y0311985D02*
X0838400Y0311985D01*
X0838400Y0313184D02*
X0819407Y0313184D01*
X0819407Y0314382D02*
X0838400Y0314382D01*
X0838400Y0315581D02*
X0819407Y0315581D01*
X0819407Y0316779D02*
X0838400Y0316779D01*
X0838400Y0317978D02*
X0818255Y0317978D01*
X0817056Y0319176D02*
X0838400Y0319176D01*
X0838400Y0329963D02*
X0241600Y0329963D01*
X0241600Y0331161D02*
X0262606Y0331161D01*
X0263175Y0330593D02*
X0266825Y0330593D01*
X0269407Y0333175D01*
X0269407Y0336825D01*
X0266825Y0339407D01*
X0263175Y0339407D01*
X0260593Y0336825D01*
X0260593Y0333175D01*
X0263175Y0330593D01*
X0262532Y0328764D02*
X0241600Y0328764D01*
X0241600Y0327566D02*
X0261333Y0327566D01*
X0260593Y0326367D02*
X0241600Y0326367D01*
X0241600Y0325169D02*
X0260593Y0325169D01*
X0260593Y0323970D02*
X0241600Y0323970D01*
X0241600Y0322772D02*
X0260996Y0322772D01*
X0267806Y0321573D02*
X0272194Y0321573D01*
X0270996Y0322772D02*
X0269004Y0322772D01*
X0269407Y0323970D02*
X0270593Y0323970D01*
X0270593Y0325169D02*
X0269407Y0325169D01*
X0269407Y0326367D02*
X0270593Y0326367D01*
X0271333Y0327566D02*
X0268667Y0327566D01*
X0267468Y0328764D02*
X0272532Y0328764D01*
X0272606Y0331161D02*
X0267394Y0331161D01*
X0268592Y0332360D02*
X0271408Y0332360D01*
X0270593Y0333558D02*
X0269407Y0333558D01*
X0269407Y0334757D02*
X0270593Y0334757D01*
X0270593Y0335955D02*
X0269407Y0335955D01*
X0269079Y0337154D02*
X0270921Y0337154D01*
X0272120Y0338352D02*
X0267880Y0338352D01*
X0266825Y0340593D02*
X0269407Y0343175D01*
X0269407Y0346825D01*
X0266825Y0349407D01*
X0263175Y0349407D01*
X0260593Y0346825D01*
X0260593Y0343175D01*
X0263175Y0340593D01*
X0266825Y0340593D01*
X0266982Y0340749D02*
X0273018Y0340749D01*
X0273175Y0340593D02*
X0276825Y0340593D01*
X0279407Y0343175D01*
X0279407Y0346825D01*
X0276825Y0349407D01*
X0273175Y0349407D01*
X0270593Y0346825D01*
X0270593Y0343175D01*
X0273175Y0340593D01*
X0271820Y0341948D02*
X0268180Y0341948D01*
X0269379Y0343146D02*
X0270621Y0343146D01*
X0270593Y0344345D02*
X0269407Y0344345D01*
X0269407Y0345543D02*
X0270593Y0345543D01*
X0270593Y0346742D02*
X0269407Y0346742D01*
X0268292Y0347940D02*
X0271708Y0347940D01*
X0272906Y0349139D02*
X0267094Y0349139D01*
X0266825Y0350593D02*
X0269407Y0353175D01*
X0269407Y0356825D01*
X0266825Y0359407D01*
X0263175Y0359407D01*
X0260593Y0356825D01*
X0260593Y0353175D01*
X0263175Y0350593D01*
X0266825Y0350593D01*
X0267769Y0351536D02*
X0272231Y0351536D01*
X0273175Y0350593D02*
X0270593Y0353175D01*
X0270593Y0356825D01*
X0273175Y0359407D01*
X0276825Y0359407D01*
X0279407Y0356825D01*
X0279407Y0353175D01*
X0276825Y0350593D01*
X0273175Y0350593D01*
X0271033Y0352734D02*
X0268967Y0352734D01*
X0269407Y0353933D02*
X0270593Y0353933D01*
X0270593Y0355132D02*
X0269407Y0355132D01*
X0269407Y0356330D02*
X0270593Y0356330D01*
X0271296Y0357529D02*
X0268704Y0357529D01*
X0267505Y0358727D02*
X0272495Y0358727D01*
X0277505Y0358727D02*
X0333060Y0358727D01*
X0331862Y0357529D02*
X0278704Y0357529D01*
X0279407Y0356330D02*
X0303163Y0356330D01*
X0303340Y0356507D02*
X0300993Y0354160D01*
X0300993Y0350840D01*
X0303340Y0348493D01*
X0306660Y0348493D01*
X0309007Y0350840D01*
X0309007Y0354160D01*
X0306660Y0356507D01*
X0303340Y0356507D01*
X0301965Y0355132D02*
X0279407Y0355132D01*
X0279407Y0353933D02*
X0300993Y0353933D01*
X0300993Y0352734D02*
X0278967Y0352734D01*
X0277769Y0351536D02*
X0300993Y0351536D01*
X0301496Y0350337D02*
X0241600Y0350337D01*
X0241600Y0349139D02*
X0262906Y0349139D01*
X0261708Y0347940D02*
X0241600Y0347940D01*
X0241600Y0346742D02*
X0260593Y0346742D01*
X0260593Y0345543D02*
X0241600Y0345543D01*
X0241600Y0344345D02*
X0260593Y0344345D01*
X0260621Y0343146D02*
X0241600Y0343146D01*
X0241600Y0341948D02*
X0261820Y0341948D01*
X0263018Y0340749D02*
X0241600Y0340749D01*
X0241600Y0339551D02*
X0285993Y0339551D01*
X0285993Y0340749D02*
X0276982Y0340749D01*
X0278180Y0341948D02*
X0286281Y0341948D01*
X0285993Y0341660D02*
X0285993Y0338340D01*
X0288340Y0335993D01*
X0291660Y0335993D01*
X0294007Y0338340D01*
X0294007Y0341660D01*
X0291660Y0344007D01*
X0288340Y0344007D01*
X0285993Y0341660D01*
X0287480Y0343146D02*
X0279379Y0343146D01*
X0279407Y0344345D02*
X0330993Y0344345D01*
X0330993Y0345543D02*
X0279407Y0345543D01*
X0279407Y0346742D02*
X0331075Y0346742D01*
X0332274Y0347940D02*
X0278292Y0347940D01*
X0277094Y0349139D02*
X0302694Y0349139D01*
X0307306Y0349139D02*
X0312694Y0349139D01*
X0313340Y0348493D02*
X0316660Y0348493D01*
X0319007Y0350840D01*
X0319007Y0354160D01*
X0316660Y0356507D01*
X0313340Y0356507D01*
X0310993Y0354160D01*
X0310993Y0350840D01*
X0313340Y0348493D01*
X0311496Y0350337D02*
X0308504Y0350337D01*
X0309007Y0351536D02*
X0310993Y0351536D01*
X0310993Y0352734D02*
X0309007Y0352734D01*
X0309007Y0353933D02*
X0310993Y0353933D01*
X0311965Y0355132D02*
X0308035Y0355132D01*
X0306837Y0356330D02*
X0313163Y0356330D01*
X0316837Y0356330D02*
X0330993Y0356330D01*
X0330993Y0355132D02*
X0318035Y0355132D01*
X0319007Y0353933D02*
X0330993Y0353933D01*
X0331599Y0352734D02*
X0319007Y0352734D01*
X0319007Y0351536D02*
X0332797Y0351536D01*
X0331187Y0343146D02*
X0302520Y0343146D01*
X0301660Y0344007D02*
X0298340Y0344007D01*
X0295993Y0341660D01*
X0295993Y0338340D01*
X0298340Y0335993D01*
X0301660Y0335993D01*
X0304007Y0338340D01*
X0304007Y0341660D01*
X0301660Y0344007D01*
X0303719Y0341948D02*
X0332385Y0341948D01*
X0332685Y0338352D02*
X0304007Y0338352D01*
X0304007Y0339551D02*
X0838400Y0339551D01*
X0838400Y0340749D02*
X0304007Y0340749D01*
X0302821Y0337154D02*
X0331487Y0337154D01*
X0330993Y0335955D02*
X0279407Y0335955D01*
X0279407Y0334757D02*
X0330993Y0334757D01*
X0330993Y0333558D02*
X0279407Y0333558D01*
X0278592Y0332360D02*
X0331973Y0332360D01*
X0330600Y0316779D02*
X0329400Y0316779D01*
X0329400Y0315581D02*
X0330600Y0315581D01*
X0330600Y0314382D02*
X0329400Y0314382D01*
X0329400Y0313184D02*
X0330600Y0313184D01*
X0330600Y0311985D02*
X0329400Y0311985D01*
X0329400Y0310787D02*
X0330600Y0310787D01*
X0330600Y0307191D02*
X0329400Y0307191D01*
X0329400Y0305993D02*
X0330600Y0305993D01*
X0330600Y0304794D02*
X0329400Y0304794D01*
X0329400Y0303596D02*
X0330600Y0303596D01*
X0330600Y0302397D02*
X0329400Y0302397D01*
X0329400Y0301199D02*
X0330600Y0301199D01*
X0330600Y0300000D02*
X0329400Y0300000D01*
X0329400Y0298801D02*
X0330600Y0298801D01*
X0330600Y0297603D02*
X0329400Y0297603D01*
X0329400Y0296404D02*
X0330600Y0296404D01*
X0330600Y0295206D02*
X0344400Y0295206D01*
X0344400Y0296404D02*
X0345600Y0296404D01*
X0345600Y0295206D02*
X0359400Y0295206D01*
X0359400Y0296404D02*
X0360600Y0296404D01*
X0360600Y0295206D02*
X0374400Y0295206D01*
X0374400Y0296404D02*
X0375600Y0296404D01*
X0375600Y0295206D02*
X0389400Y0295206D01*
X0389400Y0296404D02*
X0390600Y0296404D01*
X0390600Y0295206D02*
X0404400Y0295206D01*
X0404400Y0296404D02*
X0405600Y0296404D01*
X0405600Y0295206D02*
X0419400Y0295206D01*
X0419400Y0296404D02*
X0420600Y0296404D01*
X0420600Y0295206D02*
X0452343Y0295206D01*
X0452343Y0294007D02*
X0427850Y0294007D01*
X0427850Y0292809D02*
X0452343Y0292809D01*
X0452561Y0291610D02*
X0427712Y0291610D01*
X0426513Y0290412D02*
X0453759Y0290412D01*
X0454958Y0289213D02*
X0425315Y0289213D01*
X0424116Y0288015D02*
X0456156Y0288015D01*
X0455988Y0286816D02*
X0424285Y0286816D01*
X0425484Y0285618D02*
X0454789Y0285618D01*
X0453591Y0284419D02*
X0426682Y0284419D01*
X0427850Y0283221D02*
X0452392Y0283221D01*
X0452343Y0282022D02*
X0427850Y0282022D01*
X0427850Y0280824D02*
X0452343Y0280824D01*
X0452343Y0279625D02*
X0420600Y0279625D01*
X0420600Y0278427D02*
X0419400Y0278427D01*
X0419400Y0279625D02*
X0405600Y0279625D01*
X0405600Y0278427D02*
X0404400Y0278427D01*
X0404400Y0279625D02*
X0390600Y0279625D01*
X0390600Y0278427D02*
X0389400Y0278427D01*
X0389400Y0279625D02*
X0375600Y0279625D01*
X0375600Y0278427D02*
X0374400Y0278427D01*
X0374400Y0279625D02*
X0360600Y0279625D01*
X0360600Y0278427D02*
X0359400Y0278427D01*
X0359400Y0279625D02*
X0345600Y0279625D01*
X0345600Y0278427D02*
X0344400Y0278427D01*
X0344400Y0279625D02*
X0330600Y0279625D01*
X0330600Y0278427D02*
X0329400Y0278427D01*
X0329400Y0279625D02*
X0315600Y0279625D01*
X0315600Y0278427D02*
X0314400Y0278427D01*
X0314400Y0279625D02*
X0266363Y0279625D01*
X0267036Y0280298D02*
X0264702Y0277964D01*
X0264702Y0277964D01*
X0261651Y0276700D01*
X0261651Y0276700D01*
X0260414Y0276700D01*
X0258349Y0276700D01*
X0255298Y0277964D01*
X0255298Y0277964D01*
X0252964Y0280298D01*
X0252964Y0280298D01*
X0251700Y0283349D01*
X0251700Y0286651D01*
X0252964Y0289702D01*
X0252964Y0289702D01*
X0255298Y0292036D01*
X0255298Y0292036D01*
X0258349Y0293300D01*
X0261651Y0293300D01*
X0264702Y0292036D01*
X0264702Y0292036D01*
X0267036Y0289702D01*
X0267036Y0289702D01*
X0268300Y0286651D01*
X0268300Y0283349D01*
X0267036Y0280298D01*
X0267036Y0280298D01*
X0267254Y0280824D02*
X0307150Y0280824D01*
X0307150Y0282022D02*
X0267750Y0282022D01*
X0268247Y0283221D02*
X0307150Y0283221D01*
X0308318Y0284419D02*
X0268300Y0284419D01*
X0268300Y0285618D02*
X0309516Y0285618D01*
X0310715Y0286816D02*
X0268231Y0286816D01*
X0267735Y0288015D02*
X0310884Y0288015D01*
X0309685Y0289213D02*
X0267239Y0289213D01*
X0266326Y0290412D02*
X0308487Y0290412D01*
X0307288Y0291610D02*
X0265128Y0291610D01*
X0262836Y0292809D02*
X0307150Y0292809D01*
X0307150Y0294007D02*
X0241600Y0294007D01*
X0241600Y0292809D02*
X0257164Y0292809D01*
X0254872Y0291610D02*
X0241600Y0291610D01*
X0241600Y0290412D02*
X0253674Y0290412D01*
X0252761Y0289213D02*
X0241600Y0289213D01*
X0241600Y0288015D02*
X0252265Y0288015D01*
X0251769Y0286816D02*
X0241600Y0286816D01*
X0241600Y0285618D02*
X0251700Y0285618D01*
X0251700Y0284419D02*
X0241600Y0284419D01*
X0241600Y0283221D02*
X0251753Y0283221D01*
X0252250Y0282022D02*
X0241600Y0282022D01*
X0241600Y0280824D02*
X0252746Y0280824D01*
X0253637Y0279625D02*
X0241600Y0279625D01*
X0241600Y0278427D02*
X0254835Y0278427D01*
X0257074Y0277228D02*
X0241600Y0277228D01*
X0241600Y0276030D02*
X0307869Y0276030D01*
X0307150Y0277228D02*
X0262926Y0277228D01*
X0265165Y0278427D02*
X0307150Y0278427D01*
X0314400Y0277228D02*
X0315600Y0277228D01*
X0315600Y0276030D02*
X0314400Y0276030D01*
X0314400Y0274831D02*
X0315600Y0274831D01*
X0315600Y0273633D02*
X0314400Y0273633D01*
X0314400Y0272434D02*
X0315600Y0272434D01*
X0318536Y0272434D02*
X0326464Y0272434D01*
X0325266Y0273633D02*
X0319734Y0273633D01*
X0320933Y0274831D02*
X0324067Y0274831D01*
X0322869Y0276030D02*
X0322131Y0276030D01*
X0329400Y0276030D02*
X0330600Y0276030D01*
X0330600Y0277228D02*
X0329400Y0277228D01*
X0329400Y0274831D02*
X0330600Y0274831D01*
X0330600Y0273633D02*
X0329400Y0273633D01*
X0329400Y0272434D02*
X0330600Y0272434D01*
X0333536Y0272434D02*
X0341464Y0272434D01*
X0340266Y0273633D02*
X0334734Y0273633D01*
X0335933Y0274831D02*
X0339067Y0274831D01*
X0337869Y0276030D02*
X0337131Y0276030D01*
X0344400Y0276030D02*
X0345600Y0276030D01*
X0345600Y0277228D02*
X0344400Y0277228D01*
X0344400Y0274831D02*
X0345600Y0274831D01*
X0345600Y0273633D02*
X0344400Y0273633D01*
X0344400Y0272434D02*
X0345600Y0272434D01*
X0348536Y0272434D02*
X0356464Y0272434D01*
X0355266Y0273633D02*
X0349734Y0273633D01*
X0350933Y0274831D02*
X0354067Y0274831D01*
X0352869Y0276030D02*
X0352131Y0276030D01*
X0359400Y0276030D02*
X0360600Y0276030D01*
X0360600Y0277228D02*
X0359400Y0277228D01*
X0359400Y0274831D02*
X0360600Y0274831D01*
X0360600Y0273633D02*
X0359400Y0273633D01*
X0359400Y0272434D02*
X0360600Y0272434D01*
X0363536Y0272434D02*
X0371464Y0272434D01*
X0370266Y0273633D02*
X0364734Y0273633D01*
X0365933Y0274831D02*
X0369067Y0274831D01*
X0367869Y0276030D02*
X0367131Y0276030D01*
X0374400Y0276030D02*
X0375600Y0276030D01*
X0375600Y0277228D02*
X0374400Y0277228D01*
X0374400Y0274831D02*
X0375600Y0274831D01*
X0375600Y0273633D02*
X0374400Y0273633D01*
X0374400Y0272434D02*
X0375600Y0272434D01*
X0378536Y0272434D02*
X0386464Y0272434D01*
X0385266Y0273633D02*
X0379734Y0273633D01*
X0380933Y0274831D02*
X0384067Y0274831D01*
X0382869Y0276030D02*
X0382131Y0276030D01*
X0389400Y0276030D02*
X0390600Y0276030D01*
X0390600Y0277228D02*
X0389400Y0277228D01*
X0389400Y0274831D02*
X0390600Y0274831D01*
X0390600Y0273633D02*
X0389400Y0273633D01*
X0389400Y0272434D02*
X0390600Y0272434D01*
X0393536Y0272434D02*
X0401464Y0272434D01*
X0400266Y0273633D02*
X0394734Y0273633D01*
X0395933Y0274831D02*
X0399067Y0274831D01*
X0397869Y0276030D02*
X0397131Y0276030D01*
X0404400Y0276030D02*
X0405600Y0276030D01*
X0405600Y0277228D02*
X0404400Y0277228D01*
X0404400Y0274831D02*
X0405600Y0274831D01*
X0405600Y0273633D02*
X0404400Y0273633D01*
X0404400Y0272434D02*
X0405600Y0272434D01*
X0408536Y0272434D02*
X0416464Y0272434D01*
X0415266Y0273633D02*
X0409734Y0273633D01*
X0410933Y0274831D02*
X0414067Y0274831D01*
X0412869Y0276030D02*
X0412131Y0276030D01*
X0419400Y0276030D02*
X0420600Y0276030D01*
X0420600Y0277228D02*
X0419400Y0277228D01*
X0419400Y0274831D02*
X0420600Y0274831D01*
X0420600Y0273633D02*
X0419400Y0273633D01*
X0419400Y0272434D02*
X0420600Y0272434D01*
X0423536Y0272434D02*
X0456737Y0272434D01*
X0455538Y0273633D02*
X0424734Y0273633D01*
X0425933Y0274831D02*
X0454340Y0274831D01*
X0453141Y0276030D02*
X0427131Y0276030D01*
X0427850Y0277228D02*
X0452343Y0277228D01*
X0452343Y0278427D02*
X0427850Y0278427D01*
X0420600Y0280824D02*
X0419400Y0280824D01*
X0419400Y0282022D02*
X0420600Y0282022D01*
X0420600Y0283221D02*
X0419400Y0283221D01*
X0419400Y0284419D02*
X0420600Y0284419D01*
X0420600Y0285618D02*
X0419400Y0285618D01*
X0419400Y0286816D02*
X0420600Y0286816D01*
X0420600Y0288015D02*
X0419400Y0288015D01*
X0419400Y0289213D02*
X0420600Y0289213D01*
X0420600Y0290412D02*
X0419400Y0290412D01*
X0419400Y0291610D02*
X0420600Y0291610D01*
X0420600Y0292809D02*
X0419400Y0292809D01*
X0419400Y0294007D02*
X0420600Y0294007D01*
X0420600Y0297603D02*
X0419400Y0297603D01*
X0419400Y0298801D02*
X0420600Y0298801D01*
X0420600Y0300000D02*
X0419400Y0300000D01*
X0419400Y0301199D02*
X0420600Y0301199D01*
X0420600Y0302397D02*
X0419400Y0302397D01*
X0419400Y0303596D02*
X0420600Y0303596D01*
X0420600Y0304794D02*
X0419400Y0304794D01*
X0419400Y0305993D02*
X0420600Y0305993D01*
X0420600Y0307191D02*
X0419400Y0307191D01*
X0419400Y0310787D02*
X0420600Y0310787D01*
X0420600Y0311985D02*
X0419400Y0311985D01*
X0419400Y0313184D02*
X0420600Y0313184D01*
X0420600Y0314382D02*
X0419400Y0314382D01*
X0419400Y0315581D02*
X0420600Y0315581D01*
X0420600Y0316779D02*
X0419400Y0316779D01*
X0415678Y0316779D02*
X0409322Y0316779D01*
X0410521Y0315581D02*
X0414479Y0315581D01*
X0413281Y0314382D02*
X0411719Y0314382D01*
X0405600Y0314382D02*
X0404400Y0314382D01*
X0404400Y0313184D02*
X0405600Y0313184D01*
X0405600Y0311985D02*
X0404400Y0311985D01*
X0404400Y0310787D02*
X0405600Y0310787D01*
X0405600Y0307191D02*
X0404400Y0307191D01*
X0404400Y0305993D02*
X0405600Y0305993D01*
X0405600Y0304794D02*
X0404400Y0304794D01*
X0404400Y0303596D02*
X0405600Y0303596D01*
X0405600Y0302397D02*
X0404400Y0302397D01*
X0404400Y0301199D02*
X0405600Y0301199D01*
X0405600Y0300000D02*
X0404400Y0300000D01*
X0404400Y0298801D02*
X0405600Y0298801D01*
X0405600Y0297603D02*
X0404400Y0297603D01*
X0404400Y0294007D02*
X0405600Y0294007D01*
X0405600Y0292809D02*
X0404400Y0292809D01*
X0404400Y0291610D02*
X0405600Y0291610D01*
X0405600Y0290412D02*
X0404400Y0290412D01*
X0404400Y0289213D02*
X0405600Y0289213D01*
X0405600Y0288015D02*
X0404400Y0288015D01*
X0404400Y0286816D02*
X0405600Y0286816D01*
X0405600Y0285618D02*
X0404400Y0285618D01*
X0404400Y0284419D02*
X0405600Y0284419D01*
X0405600Y0283221D02*
X0404400Y0283221D01*
X0404400Y0282022D02*
X0405600Y0282022D01*
X0405600Y0280824D02*
X0404400Y0280824D01*
X0390600Y0280824D02*
X0389400Y0280824D01*
X0389400Y0282022D02*
X0390600Y0282022D01*
X0390600Y0283221D02*
X0389400Y0283221D01*
X0389400Y0284419D02*
X0390600Y0284419D01*
X0390600Y0285618D02*
X0389400Y0285618D01*
X0389400Y0286816D02*
X0390600Y0286816D01*
X0390600Y0288015D02*
X0389400Y0288015D01*
X0389400Y0289213D02*
X0390600Y0289213D01*
X0390600Y0290412D02*
X0389400Y0290412D01*
X0389400Y0291610D02*
X0390600Y0291610D01*
X0390600Y0292809D02*
X0389400Y0292809D01*
X0389400Y0294007D02*
X0390600Y0294007D01*
X0390600Y0297603D02*
X0389400Y0297603D01*
X0389400Y0298801D02*
X0390600Y0298801D01*
X0390600Y0300000D02*
X0389400Y0300000D01*
X0389400Y0301199D02*
X0390600Y0301199D01*
X0390600Y0302397D02*
X0389400Y0302397D01*
X0389400Y0303596D02*
X0390600Y0303596D01*
X0390600Y0304794D02*
X0389400Y0304794D01*
X0389400Y0305993D02*
X0390600Y0305993D01*
X0390600Y0307191D02*
X0389400Y0307191D01*
X0389400Y0310787D02*
X0390600Y0310787D01*
X0390600Y0311985D02*
X0389400Y0311985D01*
X0389400Y0313184D02*
X0390600Y0313184D01*
X0390600Y0314382D02*
X0389400Y0314382D01*
X0389400Y0315581D02*
X0390600Y0315581D01*
X0390600Y0316779D02*
X0389400Y0316779D01*
X0385678Y0316779D02*
X0379322Y0316779D01*
X0380521Y0315581D02*
X0384479Y0315581D01*
X0383281Y0314382D02*
X0381719Y0314382D01*
X0375600Y0314382D02*
X0374400Y0314382D01*
X0374400Y0313184D02*
X0375600Y0313184D01*
X0375600Y0311985D02*
X0374400Y0311985D01*
X0374400Y0310787D02*
X0375600Y0310787D01*
X0375600Y0307191D02*
X0374400Y0307191D01*
X0374400Y0305993D02*
X0375600Y0305993D01*
X0375600Y0304794D02*
X0374400Y0304794D01*
X0374400Y0303596D02*
X0375600Y0303596D01*
X0375600Y0302397D02*
X0374400Y0302397D01*
X0374400Y0301199D02*
X0375600Y0301199D01*
X0375600Y0300000D02*
X0374400Y0300000D01*
X0374400Y0298801D02*
X0375600Y0298801D01*
X0375600Y0297603D02*
X0374400Y0297603D01*
X0374400Y0294007D02*
X0375600Y0294007D01*
X0375600Y0292809D02*
X0374400Y0292809D01*
X0374400Y0291610D02*
X0375600Y0291610D01*
X0375600Y0290412D02*
X0374400Y0290412D01*
X0374400Y0289213D02*
X0375600Y0289213D01*
X0375600Y0288015D02*
X0374400Y0288015D01*
X0374400Y0286816D02*
X0375600Y0286816D01*
X0375600Y0285618D02*
X0374400Y0285618D01*
X0374400Y0284419D02*
X0375600Y0284419D01*
X0375600Y0283221D02*
X0374400Y0283221D01*
X0374400Y0282022D02*
X0375600Y0282022D01*
X0375600Y0280824D02*
X0374400Y0280824D01*
X0360600Y0280824D02*
X0359400Y0280824D01*
X0359400Y0282022D02*
X0360600Y0282022D01*
X0360600Y0283221D02*
X0359400Y0283221D01*
X0359400Y0284419D02*
X0360600Y0284419D01*
X0360600Y0285618D02*
X0359400Y0285618D01*
X0359400Y0286816D02*
X0360600Y0286816D01*
X0360600Y0288015D02*
X0359400Y0288015D01*
X0359400Y0289213D02*
X0360600Y0289213D01*
X0360600Y0290412D02*
X0359400Y0290412D01*
X0359400Y0291610D02*
X0360600Y0291610D01*
X0360600Y0292809D02*
X0359400Y0292809D01*
X0359400Y0294007D02*
X0360600Y0294007D01*
X0360600Y0297603D02*
X0359400Y0297603D01*
X0359400Y0298801D02*
X0360600Y0298801D01*
X0360600Y0300000D02*
X0359400Y0300000D01*
X0359400Y0301199D02*
X0360600Y0301199D01*
X0360600Y0302397D02*
X0359400Y0302397D01*
X0359400Y0303596D02*
X0360600Y0303596D01*
X0360600Y0304794D02*
X0359400Y0304794D01*
X0359400Y0305993D02*
X0360600Y0305993D01*
X0360600Y0307191D02*
X0359400Y0307191D01*
X0359400Y0310787D02*
X0360600Y0310787D01*
X0360600Y0311985D02*
X0359400Y0311985D01*
X0359400Y0313184D02*
X0360600Y0313184D01*
X0360600Y0314382D02*
X0359400Y0314382D01*
X0359400Y0315581D02*
X0360600Y0315581D01*
X0360600Y0316779D02*
X0359400Y0316779D01*
X0355678Y0316779D02*
X0349322Y0316779D01*
X0350521Y0315581D02*
X0354479Y0315581D01*
X0353281Y0314382D02*
X0351719Y0314382D01*
X0345600Y0314382D02*
X0344400Y0314382D01*
X0344400Y0313184D02*
X0345600Y0313184D01*
X0345600Y0311985D02*
X0344400Y0311985D01*
X0344400Y0310787D02*
X0345600Y0310787D01*
X0345600Y0307191D02*
X0344400Y0307191D01*
X0344400Y0305993D02*
X0345600Y0305993D01*
X0345600Y0304794D02*
X0344400Y0304794D01*
X0344400Y0303596D02*
X0345600Y0303596D01*
X0345600Y0302397D02*
X0344400Y0302397D01*
X0344400Y0301199D02*
X0345600Y0301199D01*
X0345600Y0300000D02*
X0344400Y0300000D01*
X0344400Y0298801D02*
X0345600Y0298801D01*
X0345600Y0297603D02*
X0344400Y0297603D01*
X0344400Y0294007D02*
X0345600Y0294007D01*
X0345600Y0292809D02*
X0344400Y0292809D01*
X0344400Y0291610D02*
X0345600Y0291610D01*
X0345600Y0290412D02*
X0344400Y0290412D01*
X0344400Y0289213D02*
X0345600Y0289213D01*
X0345600Y0288015D02*
X0344400Y0288015D01*
X0344400Y0286816D02*
X0345600Y0286816D01*
X0345600Y0285618D02*
X0344400Y0285618D01*
X0344400Y0284419D02*
X0345600Y0284419D01*
X0345600Y0283221D02*
X0344400Y0283221D01*
X0344400Y0282022D02*
X0345600Y0282022D01*
X0345600Y0280824D02*
X0344400Y0280824D01*
X0330600Y0280824D02*
X0329400Y0280824D01*
X0329400Y0282022D02*
X0330600Y0282022D01*
X0330600Y0283221D02*
X0329400Y0283221D01*
X0329400Y0284419D02*
X0330600Y0284419D01*
X0330600Y0285618D02*
X0329400Y0285618D01*
X0329400Y0286816D02*
X0330600Y0286816D01*
X0330600Y0288015D02*
X0329400Y0288015D01*
X0329400Y0289213D02*
X0330600Y0289213D01*
X0330600Y0290412D02*
X0329400Y0290412D01*
X0329400Y0291610D02*
X0330600Y0291610D01*
X0330600Y0292809D02*
X0329400Y0292809D01*
X0329400Y0294007D02*
X0330600Y0294007D01*
X0329400Y0295206D02*
X0315600Y0295206D01*
X0315600Y0296404D02*
X0314400Y0296404D01*
X0314400Y0295206D02*
X0241600Y0295206D01*
X0241600Y0296404D02*
X0307150Y0296404D01*
X0307150Y0297603D02*
X0241600Y0297603D01*
X0241600Y0298801D02*
X0307700Y0298801D01*
X0308898Y0300000D02*
X0241600Y0300000D01*
X0241600Y0301199D02*
X0310097Y0301199D01*
X0311295Y0302397D02*
X0241600Y0302397D01*
X0241600Y0303596D02*
X0310303Y0303596D01*
X0309104Y0304794D02*
X0241600Y0304794D01*
X0241600Y0305993D02*
X0307906Y0305993D01*
X0307150Y0307191D02*
X0241600Y0307191D01*
X0241600Y0332360D02*
X0261408Y0332360D01*
X0260593Y0333558D02*
X0241600Y0333558D01*
X0241600Y0334757D02*
X0260593Y0334757D01*
X0260593Y0335955D02*
X0241600Y0335955D01*
X0241600Y0337154D02*
X0260921Y0337154D01*
X0262120Y0338352D02*
X0241600Y0338352D01*
X0241600Y0351536D02*
X0262231Y0351536D01*
X0261033Y0352734D02*
X0241600Y0352734D01*
X0241600Y0353933D02*
X0260593Y0353933D01*
X0260593Y0355132D02*
X0241600Y0355132D01*
X0241600Y0356330D02*
X0260593Y0356330D01*
X0261296Y0357529D02*
X0241600Y0357529D01*
X0241600Y0358727D02*
X0262495Y0358727D01*
X0241600Y0359926D02*
X0838400Y0359926D01*
X0838400Y0361124D02*
X0356791Y0361124D01*
X0357989Y0362323D02*
X0838400Y0362323D01*
X0838400Y0363521D02*
X0359007Y0363521D01*
X0359007Y0364720D02*
X0838400Y0364720D01*
X0838400Y0365918D02*
X0359007Y0365918D01*
X0358550Y0367117D02*
X0838400Y0367117D01*
X0838400Y0368315D02*
X0357352Y0368315D01*
X0357578Y0371911D02*
X0838400Y0371911D01*
X0838400Y0373109D02*
X0358776Y0373109D01*
X0359007Y0374308D02*
X0838400Y0374308D01*
X0838400Y0375506D02*
X0359007Y0375506D01*
X0358962Y0376705D02*
X0838400Y0376705D01*
X0838400Y0377903D02*
X0357764Y0377903D01*
X0357166Y0381499D02*
X0838400Y0381499D01*
X0838400Y0382697D02*
X0358364Y0382697D01*
X0359007Y0383896D02*
X0838400Y0383896D01*
X0838400Y0385094D02*
X0359007Y0385094D01*
X0359007Y0386293D02*
X0838400Y0386293D01*
X0838400Y0387491D02*
X0358176Y0387491D01*
X0356977Y0388690D02*
X0838400Y0388690D01*
X0838400Y0389888D02*
X0268279Y0389888D01*
X0269007Y0388690D02*
X0333023Y0388690D01*
X0331224Y0373109D02*
X0241600Y0373109D01*
X0241600Y0371911D02*
X0332422Y0371911D01*
X0332648Y0368315D02*
X0302352Y0368315D01*
X0301660Y0369007D02*
X0298340Y0369007D01*
X0295993Y0366660D01*
X0295993Y0363340D01*
X0298340Y0360993D01*
X0301660Y0360993D01*
X0304007Y0363340D01*
X0304007Y0366660D01*
X0301660Y0369007D01*
X0303550Y0367117D02*
X0331450Y0367117D01*
X0330993Y0365918D02*
X0304007Y0365918D01*
X0304007Y0364720D02*
X0330993Y0364720D01*
X0330993Y0363521D02*
X0304007Y0363521D01*
X0302989Y0362323D02*
X0332011Y0362323D01*
X0333209Y0361124D02*
X0301791Y0361124D01*
X0298209Y0361124D02*
X0291791Y0361124D01*
X0291660Y0360993D02*
X0294007Y0363340D01*
X0294007Y0366660D01*
X0291660Y0369007D01*
X0288340Y0369007D01*
X0285993Y0366660D01*
X0285993Y0363340D01*
X0288340Y0360993D01*
X0291660Y0360993D01*
X0292989Y0362323D02*
X0297011Y0362323D01*
X0295993Y0363521D02*
X0294007Y0363521D01*
X0294007Y0364720D02*
X0295993Y0364720D01*
X0295993Y0365918D02*
X0294007Y0365918D01*
X0293550Y0367117D02*
X0296450Y0367117D01*
X0297648Y0368315D02*
X0292352Y0368315D01*
X0287648Y0368315D02*
X0241600Y0368315D01*
X0241600Y0367117D02*
X0286450Y0367117D01*
X0285993Y0365918D02*
X0241600Y0365918D01*
X0241600Y0364720D02*
X0285993Y0364720D01*
X0285993Y0363521D02*
X0241600Y0363521D01*
X0241600Y0362323D02*
X0287011Y0362323D01*
X0288209Y0361124D02*
X0241600Y0361124D01*
X0241600Y0369514D02*
X0838400Y0369514D01*
X0838400Y0370712D02*
X0241600Y0370712D01*
X0241600Y0383896D02*
X0262937Y0383896D01*
X0261739Y0385094D02*
X0241600Y0385094D01*
X0241600Y0386293D02*
X0260993Y0386293D01*
X0260993Y0387491D02*
X0241600Y0387491D01*
X0241600Y0388690D02*
X0260993Y0388690D01*
X0261721Y0389888D02*
X0241600Y0389888D01*
X0241600Y0391087D02*
X0262920Y0391087D01*
X0267080Y0391087D02*
X0838400Y0391087D01*
X0838400Y0392285D02*
X0241600Y0392285D01*
X0292520Y0343146D02*
X0297480Y0343146D01*
X0296281Y0341948D02*
X0293719Y0341948D01*
X0294007Y0340749D02*
X0295993Y0340749D01*
X0295993Y0339551D02*
X0294007Y0339551D01*
X0294007Y0338352D02*
X0295993Y0338352D01*
X0297179Y0337154D02*
X0292821Y0337154D01*
X0287179Y0337154D02*
X0279079Y0337154D01*
X0277880Y0338352D02*
X0285993Y0338352D01*
X0277056Y0319176D02*
X0532944Y0319176D01*
X0533175Y0319407D02*
X0530593Y0316825D01*
X0530593Y0313175D01*
X0533175Y0310593D01*
X0536825Y0310593D01*
X0539407Y0313175D01*
X0539407Y0316825D01*
X0536825Y0319407D01*
X0533175Y0319407D01*
X0531745Y0317978D02*
X0278255Y0317978D01*
X0279407Y0316779D02*
X0310678Y0316779D01*
X0309479Y0315581D02*
X0279407Y0315581D01*
X0279407Y0314382D02*
X0308281Y0314382D01*
X0307150Y0313184D02*
X0279407Y0313184D01*
X0278218Y0311985D02*
X0307150Y0311985D01*
X0305000Y0311985D02*
X0430000Y0311985D01*
X0430000Y0310787D02*
X0305000Y0310787D01*
X0305000Y0309588D02*
X0430000Y0309588D01*
X0430000Y0308390D02*
X0305000Y0308390D01*
X0305000Y0307191D02*
X0430000Y0307191D01*
X0430000Y0305993D02*
X0305000Y0305993D01*
X0305000Y0304794D02*
X0430000Y0304794D01*
X0430000Y0303596D02*
X0305000Y0303596D01*
X0305000Y0302397D02*
X0430000Y0302397D01*
X0430000Y0301199D02*
X0305000Y0301199D01*
X0305000Y0300000D02*
X0430000Y0300000D01*
X0430000Y0298801D02*
X0305000Y0298801D01*
X0305000Y0297603D02*
X0430000Y0297603D01*
X0427850Y0310787D02*
X0532981Y0310787D01*
X0531782Y0311985D02*
X0427850Y0311985D01*
X0427850Y0313184D02*
X0530593Y0313184D01*
X0530593Y0314382D02*
X0426719Y0314382D01*
X0425521Y0315581D02*
X0530593Y0315581D01*
X0530593Y0316779D02*
X0424322Y0316779D01*
X0430000Y0316779D02*
X0305000Y0316779D01*
X0305000Y0315581D02*
X0430000Y0315581D01*
X0430000Y0314382D02*
X0305000Y0314382D01*
X0305000Y0313184D02*
X0430000Y0313184D01*
X0430000Y0317978D02*
X0305000Y0317978D01*
X0305000Y0319176D02*
X0430000Y0319176D01*
X0413750Y0340000D02*
X0395000Y0340000D01*
X0395000Y0360000D01*
X0413750Y0360000D01*
X0413750Y0340000D01*
X0413750Y0340749D02*
X0395000Y0340749D01*
X0395000Y0341948D02*
X0413750Y0341948D01*
X0413750Y0343146D02*
X0395000Y0343146D01*
X0395000Y0344345D02*
X0413750Y0344345D01*
X0413965Y0344345D02*
X0412931Y0344345D01*
X0412931Y0343459D02*
X0412931Y0349400D01*
X0405600Y0349400D01*
X0405600Y0350600D01*
X0404400Y0350600D01*
X0404400Y0357931D01*
X0398459Y0357931D01*
X0398052Y0357822D01*
X0397687Y0357611D01*
X0397389Y0357313D01*
X0397178Y0356948D01*
X0397069Y0356541D01*
X0397069Y0350600D01*
X0404400Y0350600D01*
X0404400Y0349400D01*
X0405600Y0349400D01*
X0405600Y0342069D01*
X0411541Y0342069D01*
X0411948Y0342178D01*
X0412313Y0342389D01*
X0412611Y0342687D01*
X0412822Y0343052D01*
X0412931Y0343459D01*
X0412847Y0343146D02*
X0457262Y0343146D01*
X0457262Y0343086D02*
X0458086Y0342262D01*
X0471914Y0342262D01*
X0472738Y0343086D01*
X0472738Y0356914D01*
X0471914Y0357738D01*
X0458086Y0357738D01*
X0457262Y0356914D01*
X0457262Y0343086D01*
X0457262Y0344345D02*
X0455784Y0344345D01*
X0456131Y0344693D02*
X0456131Y0355307D01*
X0455307Y0356131D01*
X0444693Y0356131D01*
X0443869Y0355307D01*
X0443869Y0344693D01*
X0444693Y0343869D01*
X0455307Y0343869D01*
X0456131Y0344693D01*
X0456131Y0345543D02*
X0457262Y0345543D01*
X0457262Y0346742D02*
X0456131Y0346742D01*
X0456131Y0347940D02*
X0457262Y0347940D01*
X0457262Y0349139D02*
X0456131Y0349139D01*
X0456131Y0350337D02*
X0457262Y0350337D01*
X0457262Y0351536D02*
X0456131Y0351536D01*
X0456131Y0352734D02*
X0457262Y0352734D01*
X0457262Y0353933D02*
X0456131Y0353933D01*
X0456131Y0355132D02*
X0457262Y0355132D01*
X0457262Y0356330D02*
X0412931Y0356330D01*
X0412931Y0356541D02*
X0412822Y0356948D01*
X0412611Y0357313D01*
X0412313Y0357611D01*
X0411948Y0357822D01*
X0411541Y0357931D01*
X0405600Y0357931D01*
X0405600Y0350600D01*
X0412931Y0350600D01*
X0412931Y0356541D01*
X0413750Y0356330D02*
X0395000Y0356330D01*
X0395000Y0355132D02*
X0413750Y0355132D01*
X0413728Y0355132D02*
X0412931Y0355132D01*
X0413676Y0354935D02*
X0413676Y0350600D01*
X0419400Y0350600D01*
X0419400Y0356324D01*
X0415065Y0356324D01*
X0414658Y0356215D01*
X0414293Y0356005D01*
X0413995Y0355707D01*
X0413785Y0355342D01*
X0413676Y0354935D01*
X0413676Y0353933D02*
X0412931Y0353933D01*
X0413750Y0353933D02*
X0395000Y0353933D01*
X0395000Y0352734D02*
X0413750Y0352734D01*
X0413676Y0352734D02*
X0412931Y0352734D01*
X0412931Y0351536D02*
X0413676Y0351536D01*
X0413750Y0351536D02*
X0395000Y0351536D01*
X0395000Y0350337D02*
X0413750Y0350337D01*
X0413676Y0349400D02*
X0413676Y0345065D01*
X0413785Y0344658D01*
X0413995Y0344293D01*
X0414293Y0343995D01*
X0414658Y0343785D01*
X0415065Y0343676D01*
X0419400Y0343676D01*
X0419400Y0349400D01*
X0420600Y0349400D01*
X0420600Y0350600D01*
X0419400Y0350600D01*
X0419400Y0349400D01*
X0413676Y0349400D01*
X0413676Y0349139D02*
X0412931Y0349139D01*
X0413750Y0349139D02*
X0395000Y0349139D01*
X0395000Y0347940D02*
X0413750Y0347940D01*
X0413676Y0347940D02*
X0412931Y0347940D01*
X0412931Y0346742D02*
X0413676Y0346742D01*
X0413750Y0346742D02*
X0395000Y0346742D01*
X0395000Y0345543D02*
X0413750Y0345543D01*
X0413676Y0345543D02*
X0412931Y0345543D01*
X0419400Y0345543D02*
X0420600Y0345543D01*
X0420600Y0344345D02*
X0419400Y0344345D01*
X0420600Y0343676D02*
X0424935Y0343676D01*
X0425342Y0343785D01*
X0425707Y0343995D01*
X0426005Y0344293D01*
X0426215Y0344658D01*
X0426324Y0345065D01*
X0426324Y0349400D01*
X0420600Y0349400D01*
X0420600Y0343676D01*
X0420600Y0346742D02*
X0419400Y0346742D01*
X0419400Y0347940D02*
X0420600Y0347940D01*
X0420600Y0349139D02*
X0419400Y0349139D01*
X0419400Y0350337D02*
X0405600Y0350337D01*
X0405600Y0349139D02*
X0404400Y0349139D01*
X0404400Y0349400D02*
X0404400Y0342069D01*
X0398459Y0342069D01*
X0398052Y0342178D01*
X0397687Y0342389D01*
X0397389Y0342687D01*
X0397178Y0343052D01*
X0397069Y0343459D01*
X0397069Y0349400D01*
X0404400Y0349400D01*
X0404400Y0350337D02*
X0318504Y0350337D01*
X0317306Y0349139D02*
X0397069Y0349139D01*
X0397069Y0347940D02*
X0357726Y0347940D01*
X0358925Y0346742D02*
X0397069Y0346742D01*
X0397069Y0345543D02*
X0359007Y0345543D01*
X0359007Y0344345D02*
X0397069Y0344345D01*
X0397153Y0343146D02*
X0358813Y0343146D01*
X0357615Y0341948D02*
X0838400Y0341948D01*
X0838400Y0343146D02*
X0782738Y0343146D01*
X0782738Y0343086D02*
X0782738Y0356914D01*
X0781914Y0357738D01*
X0768086Y0357738D01*
X0767262Y0356914D01*
X0767262Y0343086D01*
X0768086Y0342262D01*
X0781914Y0342262D01*
X0782738Y0343086D01*
X0782738Y0344345D02*
X0838400Y0344345D01*
X0838400Y0345543D02*
X0782738Y0345543D01*
X0782738Y0346742D02*
X0838400Y0346742D01*
X0838400Y0347940D02*
X0782738Y0347940D01*
X0782738Y0349139D02*
X0838400Y0349139D01*
X0838400Y0350337D02*
X0782738Y0350337D01*
X0782738Y0351536D02*
X0838400Y0351536D01*
X0838400Y0352734D02*
X0782738Y0352734D01*
X0782738Y0353933D02*
X0838400Y0353933D01*
X0838400Y0355132D02*
X0782738Y0355132D01*
X0782738Y0356330D02*
X0838400Y0356330D01*
X0838400Y0357529D02*
X0782123Y0357529D01*
X0767877Y0357529D02*
X0722396Y0357529D01*
X0722313Y0357611D02*
X0721948Y0357822D01*
X0721541Y0357931D01*
X0715600Y0357931D01*
X0715600Y0350600D01*
X0714400Y0350600D01*
X0714400Y0357931D01*
X0708459Y0357931D01*
X0708052Y0357822D01*
X0707687Y0357611D01*
X0707389Y0357313D01*
X0707178Y0356948D01*
X0707069Y0356541D01*
X0707069Y0350600D01*
X0714400Y0350600D01*
X0714400Y0349400D01*
X0715600Y0349400D01*
X0715600Y0350600D01*
X0722931Y0350600D01*
X0722931Y0356541D01*
X0722822Y0356948D01*
X0722611Y0357313D01*
X0722313Y0357611D01*
X0722931Y0356330D02*
X0767262Y0356330D01*
X0767262Y0355132D02*
X0766131Y0355132D01*
X0766131Y0355307D02*
X0765307Y0356131D01*
X0754693Y0356131D01*
X0753869Y0355307D01*
X0753869Y0344693D01*
X0754693Y0343869D01*
X0765307Y0343869D01*
X0766131Y0344693D01*
X0766131Y0355307D01*
X0766131Y0353933D02*
X0767262Y0353933D01*
X0767262Y0352734D02*
X0766131Y0352734D01*
X0766131Y0351536D02*
X0767262Y0351536D01*
X0767262Y0350337D02*
X0766131Y0350337D01*
X0766131Y0349139D02*
X0767262Y0349139D01*
X0767262Y0347940D02*
X0766131Y0347940D01*
X0766131Y0346742D02*
X0767262Y0346742D01*
X0767262Y0345543D02*
X0766131Y0345543D01*
X0765784Y0344345D02*
X0767262Y0344345D01*
X0767262Y0343146D02*
X0722847Y0343146D01*
X0722822Y0343052D02*
X0722931Y0343459D01*
X0722931Y0349400D01*
X0715600Y0349400D01*
X0715600Y0342069D01*
X0721541Y0342069D01*
X0721948Y0342178D01*
X0722313Y0342389D01*
X0722611Y0342687D01*
X0722822Y0343052D01*
X0723750Y0343146D02*
X0705000Y0343146D01*
X0705000Y0341948D02*
X0723750Y0341948D01*
X0723750Y0340749D02*
X0705000Y0340749D01*
X0705000Y0340000D02*
X0723750Y0340000D01*
X0723750Y0360000D01*
X0705000Y0360000D01*
X0705000Y0340000D01*
X0707687Y0342389D02*
X0708052Y0342178D01*
X0708459Y0342069D01*
X0714400Y0342069D01*
X0714400Y0349400D01*
X0707069Y0349400D01*
X0707069Y0343459D01*
X0707178Y0343052D01*
X0707389Y0342687D01*
X0707687Y0342389D01*
X0707153Y0343146D02*
X0642738Y0343146D01*
X0642738Y0343086D02*
X0642738Y0356914D01*
X0641914Y0357738D01*
X0628086Y0357738D01*
X0627262Y0356914D01*
X0627262Y0343086D01*
X0628086Y0342262D01*
X0641914Y0342262D01*
X0642738Y0343086D01*
X0642738Y0344345D02*
X0707069Y0344345D01*
X0707069Y0345543D02*
X0642738Y0345543D01*
X0642738Y0346742D02*
X0707069Y0346742D01*
X0707069Y0347940D02*
X0642738Y0347940D01*
X0642738Y0349139D02*
X0707069Y0349139D01*
X0705000Y0349139D02*
X0723750Y0349139D01*
X0723676Y0349139D02*
X0722931Y0349139D01*
X0723676Y0349400D02*
X0723676Y0345065D01*
X0723785Y0344658D01*
X0723995Y0344293D01*
X0724293Y0343995D01*
X0724658Y0343785D01*
X0725065Y0343676D01*
X0729400Y0343676D01*
X0729400Y0349400D01*
X0730600Y0349400D01*
X0730600Y0350600D01*
X0729400Y0350600D01*
X0729400Y0356324D01*
X0725065Y0356324D01*
X0724658Y0356215D01*
X0724293Y0356005D01*
X0723995Y0355707D01*
X0723785Y0355342D01*
X0723676Y0354935D01*
X0723676Y0350600D01*
X0729400Y0350600D01*
X0729400Y0349400D01*
X0723676Y0349400D01*
X0723750Y0350337D02*
X0705000Y0350337D01*
X0705000Y0351536D02*
X0723750Y0351536D01*
X0723676Y0351536D02*
X0722931Y0351536D01*
X0722931Y0352734D02*
X0723676Y0352734D01*
X0723750Y0352734D02*
X0705000Y0352734D01*
X0705000Y0353933D02*
X0723750Y0353933D01*
X0723676Y0353933D02*
X0722931Y0353933D01*
X0722931Y0355132D02*
X0723728Y0355132D01*
X0723750Y0355132D02*
X0705000Y0355132D01*
X0705000Y0356330D02*
X0723750Y0356330D01*
X0723750Y0357529D02*
X0705000Y0357529D01*
X0705000Y0358727D02*
X0723750Y0358727D01*
X0723750Y0359926D02*
X0705000Y0359926D01*
X0707604Y0357529D02*
X0642123Y0357529D01*
X0642738Y0356330D02*
X0707069Y0356330D01*
X0707069Y0355132D02*
X0642738Y0355132D01*
X0642738Y0353933D02*
X0707069Y0353933D01*
X0707069Y0352734D02*
X0642738Y0352734D01*
X0642738Y0351536D02*
X0707069Y0351536D01*
X0705000Y0347940D02*
X0723750Y0347940D01*
X0723676Y0347940D02*
X0722931Y0347940D01*
X0722931Y0346742D02*
X0723676Y0346742D01*
X0723750Y0346742D02*
X0705000Y0346742D01*
X0705000Y0345543D02*
X0723750Y0345543D01*
X0723676Y0345543D02*
X0722931Y0345543D01*
X0722931Y0344345D02*
X0723965Y0344345D01*
X0723750Y0344345D02*
X0705000Y0344345D01*
X0714400Y0344345D02*
X0715600Y0344345D01*
X0715600Y0345543D02*
X0714400Y0345543D01*
X0714400Y0346742D02*
X0715600Y0346742D01*
X0715600Y0347940D02*
X0714400Y0347940D01*
X0714400Y0349139D02*
X0715600Y0349139D01*
X0715600Y0350337D02*
X0729400Y0350337D01*
X0729400Y0349139D02*
X0730600Y0349139D01*
X0730600Y0349400D02*
X0730600Y0343676D01*
X0734935Y0343676D01*
X0735342Y0343785D01*
X0735707Y0343995D01*
X0736005Y0344293D01*
X0736215Y0344658D01*
X0736324Y0345065D01*
X0736324Y0349400D01*
X0730600Y0349400D01*
X0730600Y0350337D02*
X0738869Y0350337D01*
X0738869Y0349139D02*
X0736324Y0349139D01*
X0736324Y0347940D02*
X0738869Y0347940D01*
X0738869Y0346742D02*
X0736324Y0346742D01*
X0736324Y0345543D02*
X0738869Y0345543D01*
X0738869Y0344693D02*
X0739693Y0343869D01*
X0750307Y0343869D01*
X0751131Y0344693D01*
X0751131Y0355307D01*
X0750307Y0356131D01*
X0739693Y0356131D01*
X0738869Y0355307D01*
X0738869Y0344693D01*
X0739216Y0344345D02*
X0736035Y0344345D01*
X0730600Y0344345D02*
X0729400Y0344345D01*
X0729400Y0345543D02*
X0730600Y0345543D01*
X0730600Y0346742D02*
X0729400Y0346742D01*
X0729400Y0347940D02*
X0730600Y0347940D01*
X0730600Y0350600D02*
X0736324Y0350600D01*
X0736324Y0354935D01*
X0736215Y0355342D01*
X0736005Y0355707D01*
X0735707Y0356005D01*
X0735342Y0356215D01*
X0734935Y0356324D01*
X0730600Y0356324D01*
X0730600Y0350600D01*
X0730600Y0351536D02*
X0729400Y0351536D01*
X0729400Y0352734D02*
X0730600Y0352734D01*
X0730600Y0353933D02*
X0729400Y0353933D01*
X0729400Y0355132D02*
X0730600Y0355132D01*
X0736272Y0355132D02*
X0738869Y0355132D01*
X0738869Y0353933D02*
X0736324Y0353933D01*
X0736324Y0352734D02*
X0738869Y0352734D01*
X0738869Y0351536D02*
X0736324Y0351536D01*
X0751131Y0351536D02*
X0753869Y0351536D01*
X0753869Y0352734D02*
X0751131Y0352734D01*
X0751131Y0353933D02*
X0753869Y0353933D01*
X0753869Y0355132D02*
X0751131Y0355132D01*
X0751131Y0350337D02*
X0753869Y0350337D01*
X0753869Y0349139D02*
X0751131Y0349139D01*
X0751131Y0347940D02*
X0753869Y0347940D01*
X0753869Y0346742D02*
X0751131Y0346742D01*
X0751131Y0345543D02*
X0753869Y0345543D01*
X0754216Y0344345D02*
X0750784Y0344345D01*
X0715600Y0343146D02*
X0714400Y0343146D01*
X0714400Y0350337D02*
X0642738Y0350337D01*
X0627262Y0350337D02*
X0626131Y0350337D01*
X0626131Y0349139D02*
X0627262Y0349139D01*
X0627262Y0347940D02*
X0626131Y0347940D01*
X0626131Y0346742D02*
X0627262Y0346742D01*
X0627262Y0345543D02*
X0626131Y0345543D01*
X0626131Y0344693D02*
X0626131Y0355307D01*
X0625307Y0356131D01*
X0614693Y0356131D01*
X0613869Y0355307D01*
X0613869Y0344693D01*
X0614693Y0343869D01*
X0625307Y0343869D01*
X0626131Y0344693D01*
X0625784Y0344345D02*
X0627262Y0344345D01*
X0627262Y0343146D02*
X0582847Y0343146D01*
X0582822Y0343052D02*
X0582931Y0343459D01*
X0582931Y0349400D01*
X0575600Y0349400D01*
X0575600Y0350600D01*
X0574400Y0350600D01*
X0574400Y0357931D01*
X0568459Y0357931D01*
X0568052Y0357822D01*
X0567687Y0357611D01*
X0567389Y0357313D01*
X0567178Y0356948D01*
X0567069Y0356541D01*
X0567069Y0350600D01*
X0574400Y0350600D01*
X0574400Y0349400D01*
X0575600Y0349400D01*
X0575600Y0342069D01*
X0581541Y0342069D01*
X0581948Y0342178D01*
X0582313Y0342389D01*
X0582611Y0342687D01*
X0582822Y0343052D01*
X0583750Y0343146D02*
X0565000Y0343146D01*
X0565000Y0341948D02*
X0583750Y0341948D01*
X0583750Y0340749D02*
X0565000Y0340749D01*
X0565000Y0340000D02*
X0583750Y0340000D01*
X0583750Y0360000D01*
X0565000Y0360000D01*
X0565000Y0340000D01*
X0567687Y0342389D02*
X0568052Y0342178D01*
X0568459Y0342069D01*
X0574400Y0342069D01*
X0574400Y0349400D01*
X0567069Y0349400D01*
X0567069Y0343459D01*
X0567178Y0343052D01*
X0567389Y0342687D01*
X0567687Y0342389D01*
X0567153Y0343146D02*
X0472738Y0343146D01*
X0472738Y0344345D02*
X0567069Y0344345D01*
X0567069Y0345543D02*
X0472738Y0345543D01*
X0472738Y0346742D02*
X0567069Y0346742D01*
X0567069Y0347940D02*
X0472738Y0347940D01*
X0472738Y0349139D02*
X0567069Y0349139D01*
X0565000Y0349139D02*
X0583750Y0349139D01*
X0583676Y0349139D02*
X0582931Y0349139D01*
X0583676Y0349400D02*
X0583676Y0345065D01*
X0583785Y0344658D01*
X0583995Y0344293D01*
X0584293Y0343995D01*
X0584658Y0343785D01*
X0585065Y0343676D01*
X0589400Y0343676D01*
X0589400Y0349400D01*
X0590600Y0349400D01*
X0590600Y0350600D01*
X0589400Y0350600D01*
X0589400Y0356324D01*
X0585065Y0356324D01*
X0584658Y0356215D01*
X0584293Y0356005D01*
X0583995Y0355707D01*
X0583785Y0355342D01*
X0583676Y0354935D01*
X0583676Y0350600D01*
X0589400Y0350600D01*
X0589400Y0349400D01*
X0583676Y0349400D01*
X0583750Y0350337D02*
X0565000Y0350337D01*
X0565000Y0351536D02*
X0583750Y0351536D01*
X0583676Y0351536D02*
X0582931Y0351536D01*
X0582931Y0350600D02*
X0582931Y0356541D01*
X0582822Y0356948D01*
X0582611Y0357313D01*
X0582313Y0357611D01*
X0581948Y0357822D01*
X0581541Y0357931D01*
X0575600Y0357931D01*
X0575600Y0350600D01*
X0582931Y0350600D01*
X0582931Y0352734D02*
X0583676Y0352734D01*
X0583750Y0352734D02*
X0565000Y0352734D01*
X0565000Y0353933D02*
X0583750Y0353933D01*
X0583676Y0353933D02*
X0582931Y0353933D01*
X0582931Y0355132D02*
X0583728Y0355132D01*
X0583750Y0355132D02*
X0565000Y0355132D01*
X0565000Y0356330D02*
X0583750Y0356330D01*
X0582931Y0356330D02*
X0627262Y0356330D01*
X0627262Y0355132D02*
X0626131Y0355132D01*
X0626131Y0353933D02*
X0627262Y0353933D01*
X0627262Y0352734D02*
X0626131Y0352734D01*
X0626131Y0351536D02*
X0627262Y0351536D01*
X0627877Y0357529D02*
X0582396Y0357529D01*
X0583750Y0357529D02*
X0565000Y0357529D01*
X0565000Y0358727D02*
X0583750Y0358727D01*
X0583750Y0359926D02*
X0565000Y0359926D01*
X0567604Y0357529D02*
X0472123Y0357529D01*
X0472738Y0356330D02*
X0567069Y0356330D01*
X0567069Y0355132D02*
X0472738Y0355132D01*
X0472738Y0353933D02*
X0567069Y0353933D01*
X0567069Y0352734D02*
X0472738Y0352734D01*
X0472738Y0351536D02*
X0567069Y0351536D01*
X0565000Y0347940D02*
X0583750Y0347940D01*
X0583676Y0347940D02*
X0582931Y0347940D01*
X0582931Y0346742D02*
X0583676Y0346742D01*
X0583750Y0346742D02*
X0565000Y0346742D01*
X0565000Y0345543D02*
X0583750Y0345543D01*
X0583676Y0345543D02*
X0582931Y0345543D01*
X0582931Y0344345D02*
X0583965Y0344345D01*
X0583750Y0344345D02*
X0565000Y0344345D01*
X0574400Y0344345D02*
X0575600Y0344345D01*
X0575600Y0345543D02*
X0574400Y0345543D01*
X0574400Y0346742D02*
X0575600Y0346742D01*
X0575600Y0347940D02*
X0574400Y0347940D01*
X0574400Y0349139D02*
X0575600Y0349139D01*
X0575600Y0350337D02*
X0589400Y0350337D01*
X0589400Y0349139D02*
X0590600Y0349139D01*
X0590600Y0349400D02*
X0590600Y0343676D01*
X0594935Y0343676D01*
X0595342Y0343785D01*
X0595707Y0343995D01*
X0596005Y0344293D01*
X0596215Y0344658D01*
X0596324Y0345065D01*
X0596324Y0349400D01*
X0590600Y0349400D01*
X0590600Y0350337D02*
X0598869Y0350337D01*
X0598869Y0349139D02*
X0596324Y0349139D01*
X0596324Y0347940D02*
X0598869Y0347940D01*
X0598869Y0346742D02*
X0596324Y0346742D01*
X0596324Y0345543D02*
X0598869Y0345543D01*
X0598869Y0344693D02*
X0599693Y0343869D01*
X0610307Y0343869D01*
X0611131Y0344693D01*
X0611131Y0355307D01*
X0610307Y0356131D01*
X0599693Y0356131D01*
X0598869Y0355307D01*
X0598869Y0344693D01*
X0599216Y0344345D02*
X0596035Y0344345D01*
X0590600Y0344345D02*
X0589400Y0344345D01*
X0589400Y0345543D02*
X0590600Y0345543D01*
X0590600Y0346742D02*
X0589400Y0346742D01*
X0589400Y0347940D02*
X0590600Y0347940D01*
X0590600Y0350600D02*
X0596324Y0350600D01*
X0596324Y0354935D01*
X0596215Y0355342D01*
X0596005Y0355707D01*
X0595707Y0356005D01*
X0595342Y0356215D01*
X0594935Y0356324D01*
X0590600Y0356324D01*
X0590600Y0350600D01*
X0590600Y0351536D02*
X0589400Y0351536D01*
X0589400Y0352734D02*
X0590600Y0352734D01*
X0590600Y0353933D02*
X0589400Y0353933D01*
X0589400Y0355132D02*
X0590600Y0355132D01*
X0596272Y0355132D02*
X0598869Y0355132D01*
X0598869Y0353933D02*
X0596324Y0353933D01*
X0596324Y0352734D02*
X0598869Y0352734D01*
X0598869Y0351536D02*
X0596324Y0351536D01*
X0611131Y0351536D02*
X0613869Y0351536D01*
X0613869Y0352734D02*
X0611131Y0352734D01*
X0611131Y0353933D02*
X0613869Y0353933D01*
X0613869Y0355132D02*
X0611131Y0355132D01*
X0611131Y0350337D02*
X0613869Y0350337D01*
X0613869Y0349139D02*
X0611131Y0349139D01*
X0611131Y0347940D02*
X0613869Y0347940D01*
X0613869Y0346742D02*
X0611131Y0346742D01*
X0611131Y0345543D02*
X0613869Y0345543D01*
X0614216Y0344345D02*
X0610784Y0344345D01*
X0575600Y0343146D02*
X0574400Y0343146D01*
X0574400Y0350337D02*
X0472738Y0350337D01*
X0457877Y0357529D02*
X0412396Y0357529D01*
X0413750Y0357529D02*
X0395000Y0357529D01*
X0395000Y0358727D02*
X0413750Y0358727D01*
X0413750Y0359926D02*
X0395000Y0359926D01*
X0397604Y0357529D02*
X0358138Y0357529D01*
X0359007Y0356330D02*
X0397069Y0356330D01*
X0397069Y0355132D02*
X0359007Y0355132D01*
X0359007Y0353933D02*
X0397069Y0353933D01*
X0397069Y0352734D02*
X0358401Y0352734D01*
X0357203Y0351536D02*
X0397069Y0351536D01*
X0404400Y0351536D02*
X0405600Y0351536D01*
X0405600Y0352734D02*
X0404400Y0352734D01*
X0404400Y0353933D02*
X0405600Y0353933D01*
X0405600Y0355132D02*
X0404400Y0355132D01*
X0404400Y0356330D02*
X0405600Y0356330D01*
X0405600Y0357529D02*
X0404400Y0357529D01*
X0404400Y0347940D02*
X0405600Y0347940D01*
X0405600Y0346742D02*
X0404400Y0346742D01*
X0404400Y0345543D02*
X0405600Y0345543D01*
X0405600Y0344345D02*
X0404400Y0344345D01*
X0404400Y0343146D02*
X0405600Y0343146D01*
X0419400Y0351536D02*
X0420600Y0351536D01*
X0420600Y0350600D02*
X0420600Y0356324D01*
X0424935Y0356324D01*
X0425342Y0356215D01*
X0425707Y0356005D01*
X0426005Y0355707D01*
X0426215Y0355342D01*
X0426324Y0354935D01*
X0426324Y0350600D01*
X0420600Y0350600D01*
X0420600Y0350337D02*
X0428869Y0350337D01*
X0428869Y0349139D02*
X0426324Y0349139D01*
X0426324Y0347940D02*
X0428869Y0347940D01*
X0428869Y0346742D02*
X0426324Y0346742D01*
X0426324Y0345543D02*
X0428869Y0345543D01*
X0428869Y0344693D02*
X0429693Y0343869D01*
X0440307Y0343869D01*
X0441131Y0344693D01*
X0441131Y0355307D01*
X0440307Y0356131D01*
X0429693Y0356131D01*
X0428869Y0355307D01*
X0428869Y0344693D01*
X0429216Y0344345D02*
X0426035Y0344345D01*
X0426324Y0351536D02*
X0428869Y0351536D01*
X0428869Y0352734D02*
X0426324Y0352734D01*
X0426324Y0353933D02*
X0428869Y0353933D01*
X0428869Y0355132D02*
X0426272Y0355132D01*
X0420600Y0355132D02*
X0419400Y0355132D01*
X0419400Y0353933D02*
X0420600Y0353933D01*
X0420600Y0352734D02*
X0419400Y0352734D01*
X0441131Y0352734D02*
X0443869Y0352734D01*
X0443869Y0351536D02*
X0441131Y0351536D01*
X0441131Y0350337D02*
X0443869Y0350337D01*
X0443869Y0349139D02*
X0441131Y0349139D01*
X0441131Y0347940D02*
X0443869Y0347940D01*
X0443869Y0346742D02*
X0441131Y0346742D01*
X0441131Y0345543D02*
X0443869Y0345543D01*
X0444216Y0344345D02*
X0440784Y0344345D01*
X0441131Y0353933D02*
X0443869Y0353933D01*
X0443869Y0355132D02*
X0441131Y0355132D01*
X0405600Y0316779D02*
X0404400Y0316779D01*
X0404400Y0315581D02*
X0405600Y0315581D01*
X0400678Y0316779D02*
X0394322Y0316779D01*
X0395521Y0315581D02*
X0399479Y0315581D01*
X0398281Y0314382D02*
X0396719Y0314382D01*
X0375600Y0315581D02*
X0374400Y0315581D01*
X0374400Y0316779D02*
X0375600Y0316779D01*
X0370678Y0316779D02*
X0364322Y0316779D01*
X0365521Y0315581D02*
X0369479Y0315581D01*
X0368281Y0314382D02*
X0366719Y0314382D01*
X0356828Y0331161D02*
X0838400Y0331161D01*
X0838400Y0332360D02*
X0358027Y0332360D01*
X0359007Y0333558D02*
X0838400Y0333558D01*
X0838400Y0334757D02*
X0359007Y0334757D01*
X0359007Y0335955D02*
X0838400Y0335955D01*
X0838400Y0337154D02*
X0358513Y0337154D01*
X0357314Y0338352D02*
X0838400Y0338352D01*
X0838400Y0358727D02*
X0356940Y0358727D01*
X0345600Y0316779D02*
X0344400Y0316779D01*
X0344400Y0315581D02*
X0345600Y0315581D01*
X0340678Y0316779D02*
X0334322Y0316779D01*
X0335521Y0315581D02*
X0339479Y0315581D01*
X0338281Y0314382D02*
X0336719Y0314382D01*
X0325678Y0316779D02*
X0319322Y0316779D01*
X0320521Y0315581D02*
X0324479Y0315581D01*
X0323281Y0314382D02*
X0321719Y0314382D01*
X0315600Y0314382D02*
X0314400Y0314382D01*
X0314400Y0313184D02*
X0315600Y0313184D01*
X0315600Y0311985D02*
X0314400Y0311985D01*
X0314400Y0310787D02*
X0315600Y0310787D01*
X0315600Y0307191D02*
X0314400Y0307191D01*
X0314400Y0305993D02*
X0315600Y0305993D01*
X0315600Y0304794D02*
X0314400Y0304794D01*
X0314400Y0303596D02*
X0315600Y0303596D01*
X0315600Y0302397D02*
X0314400Y0302397D01*
X0314400Y0301199D02*
X0315600Y0301199D01*
X0315600Y0300000D02*
X0314400Y0300000D01*
X0314400Y0298801D02*
X0315600Y0298801D01*
X0315600Y0297603D02*
X0314400Y0297603D01*
X0314400Y0294007D02*
X0315600Y0294007D01*
X0315600Y0292809D02*
X0314400Y0292809D01*
X0314400Y0291610D02*
X0315600Y0291610D01*
X0315600Y0290412D02*
X0314400Y0290412D01*
X0314400Y0289213D02*
X0315600Y0289213D01*
X0315600Y0288015D02*
X0314400Y0288015D01*
X0314400Y0286816D02*
X0315600Y0286816D01*
X0315600Y0285618D02*
X0314400Y0285618D01*
X0314400Y0284419D02*
X0315600Y0284419D01*
X0315600Y0283221D02*
X0314400Y0283221D01*
X0314400Y0282022D02*
X0315600Y0282022D01*
X0315600Y0280824D02*
X0314400Y0280824D01*
X0314400Y0315581D02*
X0315600Y0315581D01*
X0315600Y0316779D02*
X0314400Y0316779D01*
X0241600Y0270037D02*
X0838400Y0270037D01*
X0838400Y0268839D02*
X0241600Y0268839D01*
X0241600Y0267640D02*
X0838400Y0267640D01*
X0811737Y0272434D02*
X0803263Y0272434D01*
X0804461Y0273633D02*
X0810538Y0273633D01*
X0809340Y0274831D02*
X0805660Y0274831D01*
X0806859Y0276030D02*
X0808141Y0276030D01*
X0796737Y0272434D02*
X0788263Y0272434D01*
X0789461Y0273633D02*
X0795538Y0273633D01*
X0794340Y0274831D02*
X0790660Y0274831D01*
X0791859Y0276030D02*
X0793141Y0276030D01*
X0781737Y0272434D02*
X0773263Y0272434D01*
X0774461Y0273633D02*
X0780538Y0273633D01*
X0779340Y0274831D02*
X0775660Y0274831D01*
X0776859Y0276030D02*
X0778141Y0276030D01*
X0766737Y0272434D02*
X0758263Y0272434D01*
X0759461Y0273633D02*
X0765538Y0273633D01*
X0764340Y0274831D02*
X0760660Y0274831D01*
X0761859Y0276030D02*
X0763141Y0276030D01*
X0751737Y0272434D02*
X0743263Y0272434D01*
X0744461Y0273633D02*
X0750538Y0273633D01*
X0749340Y0274831D02*
X0745660Y0274831D01*
X0746859Y0276030D02*
X0748141Y0276030D01*
X0736737Y0272434D02*
X0678263Y0272434D01*
X0678172Y0272343D02*
X0682657Y0276828D01*
X0682657Y0283172D01*
X0678329Y0287500D01*
X0682657Y0291828D01*
X0682657Y0298172D01*
X0678172Y0302657D01*
X0671828Y0302657D01*
X0667500Y0298329D01*
X0663172Y0302657D01*
X0656828Y0302657D01*
X0652500Y0298329D01*
X0648172Y0302657D01*
X0641828Y0302657D01*
X0637500Y0298329D01*
X0633172Y0302657D01*
X0626828Y0302657D01*
X0622500Y0298329D01*
X0618172Y0302657D01*
X0611828Y0302657D01*
X0607500Y0298329D01*
X0603172Y0302657D01*
X0596828Y0302657D01*
X0592343Y0298172D01*
X0592343Y0291828D01*
X0596671Y0287500D01*
X0592343Y0283172D01*
X0592343Y0276828D01*
X0596828Y0272343D01*
X0603172Y0272343D01*
X0607500Y0276671D01*
X0611828Y0272343D01*
X0618172Y0272343D01*
X0622500Y0276671D01*
X0626828Y0272343D01*
X0633172Y0272343D01*
X0637500Y0276671D01*
X0641828Y0272343D01*
X0648172Y0272343D01*
X0652500Y0276671D01*
X0656828Y0272343D01*
X0663172Y0272343D01*
X0667500Y0276671D01*
X0671828Y0272343D01*
X0678172Y0272343D01*
X0679461Y0273633D02*
X0735538Y0273633D01*
X0734340Y0274831D02*
X0680660Y0274831D01*
X0681859Y0276030D02*
X0733141Y0276030D01*
X0732343Y0277228D02*
X0707926Y0277228D01*
X0706651Y0276700D02*
X0705414Y0276700D01*
X0703349Y0276700D01*
X0700298Y0277964D01*
X0700298Y0277964D01*
X0697964Y0280298D01*
X0697964Y0280298D01*
X0696700Y0283349D01*
X0696700Y0286651D01*
X0697964Y0289702D01*
X0697964Y0289702D01*
X0700298Y0292036D01*
X0700298Y0292036D01*
X0703349Y0293300D01*
X0706651Y0293300D01*
X0709702Y0292036D01*
X0709702Y0292036D01*
X0712036Y0289702D01*
X0712036Y0289702D01*
X0713300Y0286651D01*
X0713300Y0283349D01*
X0712036Y0280298D01*
X0712036Y0280298D01*
X0709702Y0277964D01*
X0709702Y0277964D01*
X0706651Y0276700D01*
X0710165Y0278427D02*
X0732343Y0278427D01*
X0732343Y0279625D02*
X0711363Y0279625D01*
X0712036Y0280298D02*
X0712036Y0280298D01*
X0712254Y0280824D02*
X0732343Y0280824D01*
X0732343Y0282022D02*
X0712750Y0282022D01*
X0713247Y0283221D02*
X0732392Y0283221D01*
X0733591Y0284419D02*
X0713300Y0284419D01*
X0713300Y0285618D02*
X0734789Y0285618D01*
X0735988Y0286816D02*
X0713231Y0286816D01*
X0712735Y0288015D02*
X0736156Y0288015D01*
X0734958Y0289213D02*
X0712239Y0289213D01*
X0711326Y0290412D02*
X0733759Y0290412D01*
X0732561Y0291610D02*
X0710128Y0291610D01*
X0707836Y0292809D02*
X0732343Y0292809D01*
X0732343Y0294007D02*
X0682657Y0294007D01*
X0682657Y0292809D02*
X0702164Y0292809D01*
X0699872Y0291610D02*
X0682439Y0291610D01*
X0681241Y0290412D02*
X0698674Y0290412D01*
X0697761Y0289213D02*
X0680042Y0289213D01*
X0678844Y0288015D02*
X0697265Y0288015D01*
X0696769Y0286816D02*
X0679012Y0286816D01*
X0680211Y0285618D02*
X0696700Y0285618D01*
X0696700Y0284419D02*
X0681409Y0284419D01*
X0682608Y0283221D02*
X0696753Y0283221D01*
X0697250Y0282022D02*
X0682657Y0282022D01*
X0682657Y0280824D02*
X0697746Y0280824D01*
X0698637Y0279625D02*
X0682657Y0279625D01*
X0682657Y0278427D02*
X0699835Y0278427D01*
X0702074Y0277228D02*
X0682657Y0277228D01*
X0671737Y0272434D02*
X0663263Y0272434D01*
X0664461Y0273633D02*
X0670538Y0273633D01*
X0669340Y0274831D02*
X0665660Y0274831D01*
X0666859Y0276030D02*
X0668141Y0276030D01*
X0656737Y0272434D02*
X0648263Y0272434D01*
X0649461Y0273633D02*
X0655538Y0273633D01*
X0654340Y0274831D02*
X0650660Y0274831D01*
X0651859Y0276030D02*
X0653141Y0276030D01*
X0641737Y0272434D02*
X0633263Y0272434D01*
X0634461Y0273633D02*
X0640538Y0273633D01*
X0639340Y0274831D02*
X0635660Y0274831D01*
X0636859Y0276030D02*
X0638141Y0276030D01*
X0626737Y0272434D02*
X0618263Y0272434D01*
X0619461Y0273633D02*
X0625538Y0273633D01*
X0624340Y0274831D02*
X0620660Y0274831D01*
X0621859Y0276030D02*
X0623141Y0276030D01*
X0611737Y0272434D02*
X0603263Y0272434D01*
X0604461Y0273633D02*
X0610538Y0273633D01*
X0609340Y0274831D02*
X0605660Y0274831D01*
X0606859Y0276030D02*
X0608141Y0276030D01*
X0596737Y0272434D02*
X0538263Y0272434D01*
X0539461Y0273633D02*
X0595538Y0273633D01*
X0594340Y0274831D02*
X0540660Y0274831D01*
X0541859Y0276030D02*
X0593141Y0276030D01*
X0592343Y0277228D02*
X0567926Y0277228D01*
X0566651Y0276700D02*
X0569702Y0277964D01*
X0572036Y0280298D01*
X0572036Y0280298D01*
X0573300Y0283349D01*
X0573300Y0286651D01*
X0572036Y0289702D01*
X0569702Y0292036D01*
X0566651Y0293300D01*
X0563349Y0293300D01*
X0560298Y0292036D01*
X0557964Y0289702D01*
X0557964Y0289702D01*
X0557964Y0289702D01*
X0556700Y0286651D01*
X0556700Y0283349D01*
X0557964Y0280298D01*
X0560298Y0277964D01*
X0563349Y0276700D01*
X0564586Y0276700D01*
X0566651Y0276700D01*
X0569702Y0277964D02*
X0569702Y0277964D01*
X0570165Y0278427D02*
X0592343Y0278427D01*
X0592343Y0279625D02*
X0571363Y0279625D01*
X0572254Y0280824D02*
X0592343Y0280824D01*
X0592343Y0282022D02*
X0572750Y0282022D01*
X0573247Y0283221D02*
X0592392Y0283221D01*
X0593591Y0284419D02*
X0573300Y0284419D01*
X0573300Y0285618D02*
X0594789Y0285618D01*
X0595988Y0286816D02*
X0573231Y0286816D01*
X0572735Y0288015D02*
X0596156Y0288015D01*
X0594958Y0289213D02*
X0572239Y0289213D01*
X0572036Y0289702D02*
X0572036Y0289702D01*
X0571326Y0290412D02*
X0593759Y0290412D01*
X0592561Y0291610D02*
X0570128Y0291610D01*
X0569702Y0292036D02*
X0569702Y0292036D01*
X0567836Y0292809D02*
X0592343Y0292809D01*
X0592343Y0294007D02*
X0542657Y0294007D01*
X0542657Y0292809D02*
X0562164Y0292809D01*
X0560298Y0292036D02*
X0560298Y0292036D01*
X0559872Y0291610D02*
X0542439Y0291610D01*
X0541241Y0290412D02*
X0558674Y0290412D01*
X0557761Y0289213D02*
X0540042Y0289213D01*
X0538844Y0288015D02*
X0557265Y0288015D01*
X0556769Y0286816D02*
X0539012Y0286816D01*
X0540211Y0285618D02*
X0556700Y0285618D01*
X0556700Y0284419D02*
X0541409Y0284419D01*
X0542608Y0283221D02*
X0556753Y0283221D01*
X0557250Y0282022D02*
X0542657Y0282022D01*
X0542657Y0280824D02*
X0557746Y0280824D01*
X0557964Y0280298D02*
X0557964Y0280298D01*
X0558637Y0279625D02*
X0542657Y0279625D01*
X0542657Y0278427D02*
X0559835Y0278427D01*
X0560298Y0277964D02*
X0560298Y0277964D01*
X0562074Y0277228D02*
X0542657Y0277228D01*
X0531737Y0272434D02*
X0523263Y0272434D01*
X0524461Y0273633D02*
X0530538Y0273633D01*
X0529340Y0274831D02*
X0525660Y0274831D01*
X0526859Y0276030D02*
X0528141Y0276030D01*
X0516737Y0272434D02*
X0508263Y0272434D01*
X0509461Y0273633D02*
X0515538Y0273633D01*
X0514340Y0274831D02*
X0510660Y0274831D01*
X0511859Y0276030D02*
X0513141Y0276030D01*
X0501737Y0272434D02*
X0493263Y0272434D01*
X0494461Y0273633D02*
X0500538Y0273633D01*
X0499340Y0274831D02*
X0495660Y0274831D01*
X0496859Y0276030D02*
X0498141Y0276030D01*
X0486737Y0272434D02*
X0478263Y0272434D01*
X0479461Y0273633D02*
X0485538Y0273633D01*
X0484340Y0274831D02*
X0480660Y0274831D01*
X0481859Y0276030D02*
X0483141Y0276030D01*
X0471737Y0272434D02*
X0463263Y0272434D01*
X0464461Y0273633D02*
X0470538Y0273633D01*
X0469340Y0274831D02*
X0465660Y0274831D01*
X0466859Y0276030D02*
X0468141Y0276030D01*
X0467973Y0298801D02*
X0467027Y0298801D01*
X0465829Y0300000D02*
X0469171Y0300000D01*
X0470370Y0301199D02*
X0464630Y0301199D01*
X0463432Y0302397D02*
X0471568Y0302397D01*
X0478432Y0302397D02*
X0486568Y0302397D01*
X0485370Y0301199D02*
X0479630Y0301199D01*
X0480829Y0300000D02*
X0484171Y0300000D01*
X0482973Y0298801D02*
X0482027Y0298801D01*
X0493432Y0302397D02*
X0501568Y0302397D01*
X0500370Y0301199D02*
X0494630Y0301199D01*
X0495829Y0300000D02*
X0499171Y0300000D01*
X0497973Y0298801D02*
X0497027Y0298801D01*
X0508432Y0302397D02*
X0516568Y0302397D01*
X0515370Y0301199D02*
X0509630Y0301199D01*
X0510829Y0300000D02*
X0514171Y0300000D01*
X0512973Y0298801D02*
X0512027Y0298801D01*
X0523432Y0302397D02*
X0531568Y0302397D01*
X0530370Y0301199D02*
X0524630Y0301199D01*
X0525829Y0300000D02*
X0529171Y0300000D01*
X0527973Y0298801D02*
X0527027Y0298801D01*
X0538432Y0302397D02*
X0596568Y0302397D01*
X0595370Y0301199D02*
X0539630Y0301199D01*
X0540829Y0300000D02*
X0594171Y0300000D01*
X0592973Y0298801D02*
X0542027Y0298801D01*
X0542657Y0297603D02*
X0592343Y0297603D01*
X0592343Y0296404D02*
X0542657Y0296404D01*
X0542657Y0295206D02*
X0592343Y0295206D01*
X0603432Y0302397D02*
X0611568Y0302397D01*
X0610370Y0301199D02*
X0604630Y0301199D01*
X0605829Y0300000D02*
X0609171Y0300000D01*
X0607973Y0298801D02*
X0607027Y0298801D01*
X0618432Y0302397D02*
X0626568Y0302397D01*
X0625370Y0301199D02*
X0619630Y0301199D01*
X0620829Y0300000D02*
X0624171Y0300000D01*
X0622973Y0298801D02*
X0622027Y0298801D01*
X0633432Y0302397D02*
X0641568Y0302397D01*
X0640370Y0301199D02*
X0634630Y0301199D01*
X0635829Y0300000D02*
X0639171Y0300000D01*
X0637973Y0298801D02*
X0637027Y0298801D01*
X0648432Y0302397D02*
X0656568Y0302397D01*
X0655370Y0301199D02*
X0649630Y0301199D01*
X0650829Y0300000D02*
X0654171Y0300000D01*
X0652973Y0298801D02*
X0652027Y0298801D01*
X0663432Y0302397D02*
X0671568Y0302397D01*
X0670370Y0301199D02*
X0664630Y0301199D01*
X0665829Y0300000D02*
X0669171Y0300000D01*
X0667973Y0298801D02*
X0667027Y0298801D01*
X0678432Y0302397D02*
X0736568Y0302397D01*
X0735370Y0301199D02*
X0679630Y0301199D01*
X0680829Y0300000D02*
X0734171Y0300000D01*
X0732973Y0298801D02*
X0682027Y0298801D01*
X0682657Y0297603D02*
X0732343Y0297603D01*
X0732343Y0296404D02*
X0682657Y0296404D01*
X0682657Y0295206D02*
X0732343Y0295206D01*
X0743432Y0302397D02*
X0751568Y0302397D01*
X0750370Y0301199D02*
X0744630Y0301199D01*
X0745829Y0300000D02*
X0749171Y0300000D01*
X0747973Y0298801D02*
X0747027Y0298801D01*
X0758432Y0302397D02*
X0766568Y0302397D01*
X0765370Y0301199D02*
X0759630Y0301199D01*
X0760829Y0300000D02*
X0764171Y0300000D01*
X0762973Y0298801D02*
X0762027Y0298801D01*
X0773432Y0302397D02*
X0781568Y0302397D01*
X0780370Y0301199D02*
X0774630Y0301199D01*
X0775829Y0300000D02*
X0779171Y0300000D01*
X0777973Y0298801D02*
X0777027Y0298801D01*
X0788432Y0302397D02*
X0796568Y0302397D01*
X0795370Y0301199D02*
X0789630Y0301199D01*
X0790829Y0300000D02*
X0794171Y0300000D01*
X0792973Y0298801D02*
X0792027Y0298801D01*
X0803432Y0302397D02*
X0811568Y0302397D01*
X0810370Y0301199D02*
X0804630Y0301199D01*
X0805829Y0300000D02*
X0809171Y0300000D01*
X0807973Y0298801D02*
X0807027Y0298801D01*
X0812981Y0310787D02*
X0677019Y0310787D01*
X0676825Y0310593D02*
X0679407Y0313175D01*
X0679407Y0316825D01*
X0676825Y0319407D01*
X0673175Y0319407D01*
X0670593Y0316825D01*
X0670593Y0313175D01*
X0673175Y0310593D01*
X0676825Y0310593D01*
X0678218Y0311985D02*
X0811782Y0311985D01*
X0810593Y0313184D02*
X0679407Y0313184D01*
X0679407Y0314382D02*
X0810593Y0314382D01*
X0810593Y0315581D02*
X0679407Y0315581D01*
X0679407Y0316779D02*
X0810593Y0316779D01*
X0811745Y0317978D02*
X0678255Y0317978D01*
X0677056Y0319176D02*
X0812944Y0319176D01*
X0715600Y0351536D02*
X0714400Y0351536D01*
X0714400Y0352734D02*
X0715600Y0352734D01*
X0715600Y0353933D02*
X0714400Y0353933D01*
X0714400Y0355132D02*
X0715600Y0355132D01*
X0715600Y0356330D02*
X0714400Y0356330D01*
X0714400Y0357529D02*
X0715600Y0357529D01*
X0672944Y0319176D02*
X0537056Y0319176D01*
X0538255Y0317978D02*
X0671745Y0317978D01*
X0670593Y0316779D02*
X0539407Y0316779D01*
X0539407Y0315581D02*
X0670593Y0315581D01*
X0670593Y0314382D02*
X0539407Y0314382D01*
X0539407Y0313184D02*
X0670593Y0313184D01*
X0671782Y0311985D02*
X0538218Y0311985D01*
X0537019Y0310787D02*
X0672981Y0310787D01*
X0575600Y0351536D02*
X0574400Y0351536D01*
X0574400Y0352734D02*
X0575600Y0352734D01*
X0575600Y0353933D02*
X0574400Y0353933D01*
X0574400Y0355132D02*
X0575600Y0355132D01*
X0575600Y0356330D02*
X0574400Y0356330D01*
X0574400Y0357529D02*
X0575600Y0357529D01*
X0536908Y0400675D02*
X0673092Y0400675D01*
X0673175Y0400593D02*
X0676825Y0400593D01*
X0679407Y0403175D01*
X0679407Y0406825D01*
X0676825Y0409407D01*
X0673175Y0409407D01*
X0670593Y0406825D01*
X0670593Y0403175D01*
X0673175Y0400593D01*
X0671894Y0401873D02*
X0538106Y0401873D01*
X0539305Y0403072D02*
X0670695Y0403072D01*
X0670593Y0404270D02*
X0539407Y0404270D01*
X0539407Y0405469D02*
X0670593Y0405469D01*
X0670593Y0406668D02*
X0539407Y0406668D01*
X0538367Y0407866D02*
X0671633Y0407866D01*
X0672832Y0409065D02*
X0537168Y0409065D01*
X0541681Y0476181D02*
X0668319Y0476181D01*
X0668681Y0475819D02*
X0670494Y0475068D01*
X0679506Y0475068D01*
X0681319Y0475819D01*
X0682706Y0477206D01*
X0683457Y0479019D01*
X0683457Y0480981D01*
X0682706Y0482794D01*
X0681319Y0484181D01*
X0679506Y0484932D01*
X0670494Y0484932D01*
X0668681Y0484181D01*
X0667294Y0482794D01*
X0666543Y0480981D01*
X0666543Y0479019D01*
X0667294Y0477206D01*
X0668681Y0475819D01*
X0667222Y0477380D02*
X0542778Y0477380D01*
X0543275Y0478578D02*
X0666725Y0478578D01*
X0666543Y0479777D02*
X0543457Y0479777D01*
X0543457Y0480975D02*
X0666543Y0480975D01*
X0667037Y0482174D02*
X0542963Y0482174D01*
X0542128Y0483372D02*
X0667872Y0483372D01*
X0669622Y0484571D02*
X0540378Y0484571D01*
X0540205Y0495357D02*
X0669795Y0495357D01*
X0670494Y0495068D02*
X0668681Y0495819D01*
X0667294Y0497206D01*
X0666543Y0499019D01*
X0666543Y0500981D01*
X0667294Y0502794D01*
X0668681Y0504181D01*
X0670494Y0504932D01*
X0679506Y0504932D01*
X0681319Y0504181D01*
X0682706Y0502794D01*
X0683457Y0500981D01*
X0683457Y0499019D01*
X0682706Y0497206D01*
X0681319Y0495819D01*
X0679506Y0495068D01*
X0670494Y0495068D01*
X0667944Y0496556D02*
X0542056Y0496556D01*
X0542933Y0497754D02*
X0667067Y0497754D01*
X0666570Y0498953D02*
X0543430Y0498953D01*
X0543457Y0500151D02*
X0666543Y0500151D01*
X0666696Y0501350D02*
X0543304Y0501350D01*
X0542808Y0502548D02*
X0667192Y0502548D01*
X0668247Y0503747D02*
X0541753Y0503747D01*
X0565000Y0540000D02*
X0585000Y0540000D01*
X0585000Y0560000D01*
X0565000Y0560000D01*
X0565000Y0540000D01*
X0565000Y0540901D02*
X0585000Y0540901D01*
X0585000Y0542099D02*
X0565000Y0542099D01*
X0565000Y0543298D02*
X0585000Y0543298D01*
X0585000Y0544496D02*
X0565000Y0544496D01*
X0565000Y0545695D02*
X0585000Y0545695D01*
X0585000Y0546893D02*
X0565000Y0546893D01*
X0565000Y0548092D02*
X0585000Y0548092D01*
X0585000Y0549290D02*
X0565000Y0549290D01*
X0565000Y0550489D02*
X0585000Y0550489D01*
X0585000Y0551687D02*
X0565000Y0551687D01*
X0565000Y0552886D02*
X0585000Y0552886D01*
X0585000Y0554084D02*
X0565000Y0554084D01*
X0565000Y0555283D02*
X0585000Y0555283D01*
X0585000Y0556481D02*
X0565000Y0556481D01*
X0565000Y0557680D02*
X0585000Y0557680D01*
X0585000Y0558878D02*
X0565000Y0558878D01*
X0568995Y0555707D02*
X0568785Y0555342D01*
X0568676Y0554935D01*
X0568676Y0550600D01*
X0574400Y0550600D01*
X0574400Y0556324D01*
X0570065Y0556324D01*
X0569658Y0556215D01*
X0569293Y0556005D01*
X0568995Y0555707D01*
X0568769Y0555283D02*
X0540025Y0555283D01*
X0541981Y0556481D02*
X0668019Y0556481D01*
X0668681Y0555819D02*
X0670494Y0555068D01*
X0679506Y0555068D01*
X0681319Y0555819D01*
X0682706Y0557206D01*
X0683457Y0559019D01*
X0683457Y0560981D01*
X0682706Y0562794D01*
X0681319Y0564181D01*
X0679506Y0564932D01*
X0670494Y0564932D01*
X0668681Y0564181D01*
X0667294Y0562794D01*
X0666543Y0560981D01*
X0666543Y0559019D01*
X0667294Y0557206D01*
X0668681Y0555819D01*
X0669975Y0555283D02*
X0641131Y0555283D01*
X0641131Y0554084D02*
X0708676Y0554084D01*
X0708676Y0552886D02*
X0641131Y0552886D01*
X0641131Y0551687D02*
X0708676Y0551687D01*
X0708676Y0549290D02*
X0641131Y0549290D01*
X0641131Y0548092D02*
X0708676Y0548092D01*
X0708676Y0546893D02*
X0641131Y0546893D01*
X0641131Y0550489D02*
X0714400Y0550489D01*
X0714400Y0551687D02*
X0715600Y0551687D01*
X0715600Y0550600D02*
X0715600Y0556324D01*
X0719935Y0556324D01*
X0720342Y0556215D01*
X0720707Y0556005D01*
X0721005Y0555707D01*
X0721215Y0555342D01*
X0721324Y0554935D01*
X0721324Y0550600D01*
X0715600Y0550600D01*
X0715600Y0550489D02*
X0738869Y0550489D01*
X0738869Y0551687D02*
X0721324Y0551687D01*
X0721324Y0552886D02*
X0738869Y0552886D01*
X0738869Y0554084D02*
X0721324Y0554084D01*
X0721231Y0555283D02*
X0738869Y0555283D01*
X0738869Y0555307D02*
X0738869Y0544693D01*
X0739693Y0543869D01*
X0750307Y0543869D01*
X0751131Y0544693D01*
X0751131Y0555307D01*
X0750307Y0556131D01*
X0739693Y0556131D01*
X0738869Y0555307D01*
X0738869Y0549290D02*
X0721324Y0549290D01*
X0721324Y0549400D02*
X0721324Y0545065D01*
X0721215Y0544658D01*
X0721005Y0544293D01*
X0720707Y0543995D01*
X0720342Y0543785D01*
X0719935Y0543676D01*
X0715600Y0543676D01*
X0715600Y0549400D01*
X0721324Y0549400D01*
X0721324Y0548092D02*
X0738869Y0548092D01*
X0738869Y0546893D02*
X0721324Y0546893D01*
X0721324Y0545695D02*
X0738869Y0545695D01*
X0739065Y0544496D02*
X0721122Y0544496D01*
X0725000Y0544496D02*
X0705000Y0544496D01*
X0705000Y0543298D02*
X0725000Y0543298D01*
X0725000Y0542099D02*
X0705000Y0542099D01*
X0705000Y0540901D02*
X0725000Y0540901D01*
X0725000Y0540000D02*
X0705000Y0540000D01*
X0705000Y0560000D01*
X0725000Y0560000D01*
X0725000Y0540000D01*
X0725000Y0545695D02*
X0705000Y0545695D01*
X0705000Y0546893D02*
X0725000Y0546893D01*
X0725000Y0548092D02*
X0705000Y0548092D01*
X0705000Y0549290D02*
X0725000Y0549290D01*
X0725000Y0550489D02*
X0705000Y0550489D01*
X0705000Y0551687D02*
X0725000Y0551687D01*
X0725000Y0552886D02*
X0705000Y0552886D01*
X0705000Y0554084D02*
X0725000Y0554084D01*
X0725000Y0555283D02*
X0705000Y0555283D01*
X0705000Y0556481D02*
X0725000Y0556481D01*
X0725000Y0557680D02*
X0705000Y0557680D01*
X0705000Y0558878D02*
X0725000Y0558878D01*
X0715600Y0555283D02*
X0714400Y0555283D01*
X0714400Y0554084D02*
X0715600Y0554084D01*
X0715600Y0552886D02*
X0714400Y0552886D01*
X0714400Y0549290D02*
X0715600Y0549290D01*
X0715600Y0548092D02*
X0714400Y0548092D01*
X0714400Y0546893D02*
X0715600Y0546893D01*
X0715600Y0545695D02*
X0714400Y0545695D01*
X0714400Y0544496D02*
X0715600Y0544496D01*
X0708769Y0555283D02*
X0680025Y0555283D01*
X0681981Y0556481D02*
X0808019Y0556481D01*
X0808681Y0555819D02*
X0810494Y0555068D01*
X0819506Y0555068D01*
X0821319Y0555819D01*
X0822706Y0557206D01*
X0823457Y0559019D01*
X0823457Y0560981D01*
X0822706Y0562794D01*
X0821319Y0564181D01*
X0819506Y0564932D01*
X0810494Y0564932D01*
X0808681Y0564181D01*
X0807294Y0562794D01*
X0806543Y0560981D01*
X0806543Y0559019D01*
X0807294Y0557206D01*
X0808681Y0555819D01*
X0809975Y0555283D02*
X0781131Y0555283D01*
X0781131Y0554084D02*
X0838400Y0554084D01*
X0838400Y0552886D02*
X0781131Y0552886D01*
X0781131Y0551687D02*
X0838400Y0551687D01*
X0838400Y0550489D02*
X0781131Y0550489D01*
X0781131Y0549290D02*
X0838400Y0549290D01*
X0838400Y0548092D02*
X0781131Y0548092D01*
X0781131Y0546893D02*
X0838400Y0546893D01*
X0838400Y0555283D02*
X0820025Y0555283D01*
X0821981Y0556481D02*
X0838400Y0556481D01*
X0838400Y0557680D02*
X0822902Y0557680D01*
X0823399Y0558878D02*
X0838400Y0558878D01*
X0838400Y0560077D02*
X0823457Y0560077D01*
X0823335Y0561275D02*
X0838400Y0561275D01*
X0838400Y0562474D02*
X0822839Y0562474D01*
X0821828Y0563672D02*
X0838400Y0563672D01*
X0838400Y0564871D02*
X0819654Y0564871D01*
X0810346Y0564871D02*
X0679654Y0564871D01*
X0681828Y0563672D02*
X0808172Y0563672D01*
X0807161Y0562474D02*
X0682839Y0562474D01*
X0683335Y0561275D02*
X0806665Y0561275D01*
X0806543Y0560077D02*
X0683457Y0560077D01*
X0683399Y0558878D02*
X0806601Y0558878D01*
X0807098Y0557680D02*
X0682902Y0557680D01*
X0670346Y0564871D02*
X0539654Y0564871D01*
X0541828Y0563672D02*
X0668172Y0563672D01*
X0667161Y0562474D02*
X0542839Y0562474D01*
X0543335Y0561275D02*
X0666665Y0561275D01*
X0666543Y0560077D02*
X0543457Y0560077D01*
X0543399Y0558878D02*
X0666601Y0558878D01*
X0667098Y0557680D02*
X0542902Y0557680D01*
X0529975Y0555283D02*
X0471131Y0555283D01*
X0471131Y0555307D02*
X0470307Y0556131D01*
X0459693Y0556131D01*
X0458869Y0555307D01*
X0458869Y0544693D01*
X0459693Y0543869D01*
X0470307Y0543869D01*
X0471131Y0544693D01*
X0471131Y0555307D01*
X0471131Y0554084D02*
X0568676Y0554084D01*
X0568676Y0552886D02*
X0471131Y0552886D01*
X0471131Y0551687D02*
X0568676Y0551687D01*
X0568676Y0549400D02*
X0568676Y0545065D01*
X0568785Y0544658D01*
X0568995Y0544293D01*
X0569293Y0543995D01*
X0569658Y0543785D01*
X0570065Y0543676D01*
X0574400Y0543676D01*
X0574400Y0549400D01*
X0575600Y0549400D01*
X0575600Y0550600D01*
X0574400Y0550600D01*
X0574400Y0549400D01*
X0568676Y0549400D01*
X0568676Y0549290D02*
X0471131Y0549290D01*
X0471131Y0548092D02*
X0568676Y0548092D01*
X0568676Y0546893D02*
X0471131Y0546893D01*
X0471131Y0545695D02*
X0568676Y0545695D01*
X0568878Y0544496D02*
X0540558Y0544496D01*
X0529442Y0544496D02*
X0470935Y0544496D01*
X0471131Y0550489D02*
X0574400Y0550489D01*
X0574400Y0551687D02*
X0575600Y0551687D01*
X0575600Y0550600D02*
X0575600Y0556324D01*
X0579935Y0556324D01*
X0580342Y0556215D01*
X0580707Y0556005D01*
X0581005Y0555707D01*
X0581215Y0555342D01*
X0581324Y0554935D01*
X0581324Y0550600D01*
X0575600Y0550600D01*
X0575600Y0550489D02*
X0598869Y0550489D01*
X0598869Y0551687D02*
X0581324Y0551687D01*
X0581324Y0552886D02*
X0598869Y0552886D01*
X0598869Y0554084D02*
X0581324Y0554084D01*
X0581231Y0555283D02*
X0598869Y0555283D01*
X0598869Y0555307D02*
X0598869Y0544693D01*
X0599693Y0543869D01*
X0610307Y0543869D01*
X0611131Y0544693D01*
X0611131Y0555307D01*
X0610307Y0556131D01*
X0599693Y0556131D01*
X0598869Y0555307D01*
X0598869Y0549290D02*
X0581324Y0549290D01*
X0581324Y0549400D02*
X0581324Y0545065D01*
X0581215Y0544658D01*
X0581005Y0544293D01*
X0580707Y0543995D01*
X0580342Y0543785D01*
X0579935Y0543676D01*
X0575600Y0543676D01*
X0575600Y0549400D01*
X0581324Y0549400D01*
X0581324Y0548092D02*
X0598869Y0548092D01*
X0598869Y0546893D02*
X0581324Y0546893D01*
X0581324Y0545695D02*
X0598869Y0545695D01*
X0599065Y0544496D02*
X0581122Y0544496D01*
X0575600Y0544496D02*
X0574400Y0544496D01*
X0574400Y0545695D02*
X0575600Y0545695D01*
X0575600Y0546893D02*
X0574400Y0546893D01*
X0574400Y0548092D02*
X0575600Y0548092D01*
X0575600Y0549290D02*
X0574400Y0549290D01*
X0574400Y0552886D02*
X0575600Y0552886D01*
X0575600Y0554084D02*
X0574400Y0554084D01*
X0574400Y0555283D02*
X0575600Y0555283D01*
X0611131Y0555283D02*
X0628869Y0555283D01*
X0628869Y0554084D02*
X0611131Y0554084D01*
X0611131Y0552886D02*
X0628869Y0552886D01*
X0628869Y0551687D02*
X0611131Y0551687D01*
X0611131Y0550489D02*
X0628869Y0550489D01*
X0628869Y0549290D02*
X0611131Y0549290D01*
X0611131Y0548092D02*
X0628869Y0548092D01*
X0628869Y0546893D02*
X0611131Y0546893D01*
X0611131Y0545695D02*
X0628869Y0545695D01*
X0629065Y0544496D02*
X0610935Y0544496D01*
X0681753Y0503747D02*
X0808247Y0503747D01*
X0807192Y0502548D02*
X0682808Y0502548D01*
X0683304Y0501350D02*
X0806696Y0501350D01*
X0806543Y0500151D02*
X0683457Y0500151D01*
X0683430Y0498953D02*
X0806570Y0498953D01*
X0807067Y0497754D02*
X0682933Y0497754D01*
X0682056Y0496556D02*
X0807944Y0496556D01*
X0809795Y0495357D02*
X0680205Y0495357D01*
X0680378Y0484571D02*
X0809622Y0484571D01*
X0807872Y0483372D02*
X0682128Y0483372D01*
X0682963Y0482174D02*
X0807037Y0482174D01*
X0806543Y0480975D02*
X0683457Y0480975D01*
X0683457Y0479777D02*
X0806543Y0479777D01*
X0806725Y0478578D02*
X0683275Y0478578D01*
X0682778Y0477380D02*
X0807222Y0477380D01*
X0808319Y0476181D02*
X0681681Y0476181D01*
X0677168Y0409065D02*
X0812832Y0409065D01*
X0813175Y0409407D02*
X0810593Y0406825D01*
X0810593Y0403175D01*
X0813175Y0400593D01*
X0816825Y0400593D01*
X0819407Y0403175D01*
X0819407Y0406825D01*
X0816825Y0409407D01*
X0813175Y0409407D01*
X0811633Y0407866D02*
X0678367Y0407866D01*
X0679407Y0406668D02*
X0810593Y0406668D01*
X0810593Y0405469D02*
X0679407Y0405469D01*
X0679407Y0404270D02*
X0810593Y0404270D01*
X0810695Y0403072D02*
X0679305Y0403072D01*
X0678106Y0401873D02*
X0811894Y0401873D01*
X0813092Y0400675D02*
X0676908Y0400675D01*
X0816908Y0400675D02*
X0838400Y0400675D01*
X0838400Y0401873D02*
X0818106Y0401873D01*
X0819305Y0403072D02*
X0838400Y0403072D01*
X0838400Y0404270D02*
X0819407Y0404270D01*
X0819407Y0405469D02*
X0838400Y0405469D01*
X0838400Y0406668D02*
X0819407Y0406668D01*
X0818367Y0407866D02*
X0838400Y0407866D01*
X0838400Y0409065D02*
X0817168Y0409065D01*
X0769065Y0544496D02*
X0750935Y0544496D01*
X0751131Y0545695D02*
X0768869Y0545695D01*
X0768869Y0546893D02*
X0751131Y0546893D01*
X0751131Y0548092D02*
X0768869Y0548092D01*
X0768869Y0549290D02*
X0751131Y0549290D01*
X0751131Y0550489D02*
X0768869Y0550489D01*
X0768869Y0551687D02*
X0751131Y0551687D01*
X0751131Y0552886D02*
X0768869Y0552886D01*
X0768869Y0554084D02*
X0751131Y0554084D01*
X0751131Y0555283D02*
X0768869Y0555283D01*
X0459065Y0544496D02*
X0440935Y0544496D01*
X0441131Y0545695D02*
X0458869Y0545695D01*
X0458869Y0546893D02*
X0441131Y0546893D01*
X0441131Y0548092D02*
X0458869Y0548092D01*
X0458869Y0549290D02*
X0441131Y0549290D01*
X0441131Y0550489D02*
X0458869Y0550489D01*
X0458869Y0551687D02*
X0441131Y0551687D01*
X0441131Y0552886D02*
X0458869Y0552886D01*
X0458869Y0554084D02*
X0441131Y0554084D01*
X0441131Y0555283D02*
X0458869Y0555283D01*
D28*
X0345000Y0570000D02*
X0320000Y0570000D01*
X0320000Y0590000D01*
X0345000Y0590000D01*
X0345000Y0570000D01*
X0345000Y0570148D02*
X0320000Y0570148D01*
X0320000Y0571747D02*
X0345000Y0571747D01*
X0345000Y0573345D02*
X0320000Y0573345D01*
X0320000Y0574944D02*
X0345000Y0574944D01*
X0345000Y0576542D02*
X0320000Y0576542D01*
X0320000Y0578141D02*
X0345000Y0578141D01*
X0345000Y0579739D02*
X0320000Y0579739D01*
X0320000Y0581338D02*
X0345000Y0581338D01*
X0345000Y0582937D02*
X0320000Y0582937D01*
X0320000Y0584535D02*
X0345000Y0584535D01*
X0345000Y0586134D02*
X0320000Y0586134D01*
X0320000Y0587732D02*
X0345000Y0587732D01*
X0345000Y0589331D02*
X0320000Y0589331D01*
D29*
X0355000Y0530000D03*
X0355000Y0445000D03*
D30*
X0355000Y0530000D01*
M02*
