%
M48
M72
T01C0.02362
T02C0.03200
T03C0.04000
T04C0.04400
T05C0.04700
T06C0.05200
T07C0.06000
T08C0.06299
T09C0.07100
T10C0.08661
T11C0.13000
%
T01
X230000Y145000
X230000Y230000
T02
X140000Y97500
X140000Y87500
X160000Y135000
X190000Y135000
X170000Y185000
X130000Y185000
X135000Y155000
X165000Y155000
X210000Y85000
X230000Y85000
X230000Y75000
X210000Y75000
X210000Y65000
X230000Y65000
X230000Y55000
X210000Y55000
X210000Y45000
X230000Y45000
X230000Y35000
X210000Y35000
X175000Y40000
X165000Y40000
X190000Y52500
X180000Y52500
X175000Y65000
X165000Y65000
X155000Y260000
X125000Y260000
T03
X205000Y210000
X205000Y230000
X140000Y210000
X150000Y210000
X160000Y210000
X130000Y130000
X140000Y130000
X410000Y105000
X410000Y15000
X550000Y105000
X550000Y15000
X690000Y105000
X690000Y15000
X150000Y15000
X140000Y15000
X150000Y25000
X140000Y25000
X150000Y35000
X140000Y35000
X150000Y45000
X140000Y45000
X150000Y55000
X140000Y55000
T04
X215000Y160000
X215000Y130000
X690000Y160000
X690000Y130000
T05
X550000Y180000
X550000Y260000
X550000Y200000
X550000Y240000
X690000Y180000
X690000Y260000
X690000Y200000
X690000Y240000
X410000Y180000
X410000Y260000
X410000Y200000
X410000Y240000
T06
X190000Y10000
X205000Y10000
X220000Y10000
X235000Y10000
X250000Y10000
X265000Y10000
X280000Y10000
X295000Y10000
X190000Y-5000
X205000Y-5000
X220000Y-5000
X235000Y-5000
X250000Y-5000
X265000Y-5000
X280000Y-5000
X295000Y-5000
X190000Y-20000
X205000Y-20000
X220000Y-20000
X235000Y-20000
X250000Y-20000
X265000Y-20000
X280000Y-20000
X295000Y-20000
X335000Y-5000
X350000Y-5000
X365000Y-5000
X410000Y-5000
X395000Y-5000
X380000Y-5000
X335000Y-20000
X350000Y-20000
X365000Y-20000
X380000Y-20000
X395000Y-20000
X410000Y-20000
X475000Y-5000
X490000Y-5000
X505000Y-5000
X550000Y-5000
X535000Y-5000
X520000Y-5000
X475000Y-20000
X490000Y-20000
X505000Y-20000
X550000Y-20000
X535000Y-20000
X520000Y-20000
X615000Y-5000
X630000Y-5000
X645000Y-5000
X660000Y-5000
X675000Y-5000
X690000Y-5000
X615000Y-20000
X630000Y-20000
X645000Y-20000
X660000Y-20000
X675000Y-20000
X690000Y-20000
T07
X175000Y280000
X206047Y280000
T08
X340000Y250000
X310000Y250000
X280000Y250000
X325000Y50000
X310000Y50000
X295000Y50000
X510000Y250000
X480000Y250000
X450000Y250000
X480000Y50000
X495000Y50000
X465000Y50000
X650000Y250000
X620000Y250000
X590000Y250000
X620000Y50000
X635000Y50000
X605000Y50000
T09
X180000Y118500
X180000Y100000
X180000Y81500
T10
X280000Y50000
X340000Y50000
X450000Y50000
X510000Y50000
X590000Y50000
X650000Y50000
T11
X440000Y-15000
X440000Y285000
X580000Y-15000
X580000Y285000
X135000Y-15000
X135000Y285000
M30
