G04 EAGLE Gerber RS-274X export*
G75*
%MOMM*%
%FSLAX34Y34*%
%LPD*%
%INBottom Copper*%
%IPPOS*%
%AMOC8*
5,1,8,0,0,1.08239X$1,22.5*%
G01*
%ADD10P,2.061953X8X202.500000*%
%ADD11C,0.152400*%
%ADD12C,0.654800*%
%ADD13C,0.304800*%

G36*
X676718Y2544D02*
X676718Y2544D01*
X676737Y2542D01*
X676839Y2564D01*
X676941Y2580D01*
X676958Y2590D01*
X676978Y2594D01*
X677067Y2647D01*
X677158Y2696D01*
X677172Y2710D01*
X677189Y2720D01*
X677256Y2799D01*
X677328Y2874D01*
X677336Y2892D01*
X677349Y2907D01*
X677388Y3003D01*
X677431Y3097D01*
X677433Y3117D01*
X677441Y3135D01*
X677459Y3302D01*
X677459Y326698D01*
X677456Y326718D01*
X677458Y326737D01*
X677436Y326839D01*
X677420Y326941D01*
X677410Y326958D01*
X677406Y326978D01*
X677353Y327067D01*
X677304Y327158D01*
X677290Y327172D01*
X677280Y327189D01*
X677201Y327256D01*
X677126Y327328D01*
X677108Y327336D01*
X677093Y327349D01*
X676997Y327388D01*
X676903Y327431D01*
X676883Y327433D01*
X676865Y327441D01*
X676698Y327459D01*
X3302Y327459D01*
X3282Y327456D01*
X3263Y327458D01*
X3161Y327436D01*
X3059Y327420D01*
X3042Y327410D01*
X3022Y327406D01*
X2933Y327353D01*
X2842Y327304D01*
X2828Y327290D01*
X2811Y327280D01*
X2744Y327201D01*
X2672Y327126D01*
X2664Y327108D01*
X2651Y327093D01*
X2612Y326997D01*
X2569Y326903D01*
X2567Y326883D01*
X2559Y326865D01*
X2541Y326698D01*
X2541Y3302D01*
X2544Y3282D01*
X2542Y3263D01*
X2564Y3161D01*
X2580Y3059D01*
X2590Y3042D01*
X2594Y3022D01*
X2647Y2933D01*
X2696Y2842D01*
X2710Y2828D01*
X2720Y2811D01*
X2799Y2744D01*
X2874Y2672D01*
X2892Y2664D01*
X2907Y2651D01*
X3003Y2612D01*
X3097Y2569D01*
X3117Y2567D01*
X3135Y2559D01*
X3302Y2541D01*
X676698Y2541D01*
X676718Y2544D01*
G37*
%LPC*%
G36*
X76523Y9143D02*
X76523Y9143D01*
X68043Y17623D01*
X68043Y58685D01*
X68029Y58775D01*
X68021Y58866D01*
X68009Y58896D01*
X68004Y58928D01*
X67961Y59008D01*
X67925Y59092D01*
X67899Y59124D01*
X67888Y59145D01*
X67865Y59167D01*
X67820Y59223D01*
X65531Y61512D01*
X65531Y65488D01*
X68342Y68299D01*
X72318Y68299D01*
X75129Y65488D01*
X75129Y61512D01*
X72840Y59223D01*
X72787Y59149D01*
X72727Y59080D01*
X72715Y59050D01*
X72696Y59024D01*
X72669Y58937D01*
X72635Y58852D01*
X72631Y58811D01*
X72624Y58788D01*
X72625Y58756D01*
X72617Y58685D01*
X72617Y19833D01*
X72631Y19742D01*
X72639Y19652D01*
X72651Y19622D01*
X72656Y19590D01*
X72699Y19509D01*
X72735Y19425D01*
X72761Y19393D01*
X72772Y19372D01*
X72795Y19350D01*
X72840Y19294D01*
X78194Y13940D01*
X78268Y13887D01*
X78338Y13827D01*
X78368Y13815D01*
X78394Y13796D01*
X78481Y13769D01*
X78566Y13735D01*
X78607Y13731D01*
X78629Y13724D01*
X78661Y13725D01*
X78733Y13717D01*
X514357Y13717D01*
X514448Y13731D01*
X514538Y13739D01*
X514568Y13751D01*
X514600Y13756D01*
X514681Y13799D01*
X514765Y13835D01*
X514797Y13861D01*
X514818Y13872D01*
X514840Y13895D01*
X514896Y13940D01*
X519460Y18504D01*
X519513Y18578D01*
X519573Y18648D01*
X519585Y18678D01*
X519604Y18704D01*
X519631Y18791D01*
X519665Y18876D01*
X519669Y18917D01*
X519676Y18939D01*
X519675Y18971D01*
X519683Y19043D01*
X519683Y21110D01*
X519680Y21130D01*
X519682Y21149D01*
X519660Y21251D01*
X519644Y21353D01*
X519634Y21370D01*
X519630Y21390D01*
X519577Y21479D01*
X519528Y21570D01*
X519514Y21584D01*
X519504Y21601D01*
X519425Y21668D01*
X519350Y21740D01*
X519332Y21748D01*
X519317Y21761D01*
X519221Y21800D01*
X519127Y21843D01*
X519107Y21845D01*
X519089Y21853D01*
X518922Y21871D01*
X518712Y21871D01*
X515901Y24682D01*
X515901Y25654D01*
X515898Y25674D01*
X515900Y25693D01*
X515878Y25795D01*
X515862Y25897D01*
X515852Y25914D01*
X515848Y25934D01*
X515795Y26023D01*
X515746Y26114D01*
X515732Y26128D01*
X515722Y26145D01*
X515643Y26212D01*
X515568Y26284D01*
X515550Y26292D01*
X515535Y26305D01*
X515439Y26344D01*
X515345Y26387D01*
X515325Y26389D01*
X515307Y26397D01*
X515140Y26415D01*
X188406Y26415D01*
X188316Y26401D01*
X188225Y26393D01*
X188195Y26381D01*
X188163Y26376D01*
X188083Y26333D01*
X187999Y26297D01*
X187967Y26271D01*
X187946Y26260D01*
X187924Y26237D01*
X187868Y26192D01*
X183801Y22125D01*
X134661Y22125D01*
X107226Y49560D01*
X107152Y49613D01*
X107082Y49673D01*
X107052Y49685D01*
X107026Y49704D01*
X106939Y49731D01*
X106854Y49765D01*
X106813Y49769D01*
X106791Y49776D01*
X106759Y49775D01*
X106687Y49783D01*
X101335Y49783D01*
X101245Y49769D01*
X101154Y49761D01*
X101124Y49749D01*
X101092Y49744D01*
X101012Y49701D01*
X100928Y49665D01*
X100896Y49639D01*
X100875Y49628D01*
X100853Y49605D01*
X100797Y49560D01*
X98508Y47271D01*
X94532Y47271D01*
X91721Y50082D01*
X91721Y54058D01*
X94532Y56869D01*
X98508Y56869D01*
X100797Y54580D01*
X100871Y54527D01*
X100940Y54467D01*
X100970Y54455D01*
X100996Y54436D01*
X101083Y54409D01*
X101168Y54375D01*
X101209Y54371D01*
X101232Y54364D01*
X101264Y54365D01*
X101335Y54357D01*
X108897Y54357D01*
X136332Y26922D01*
X136406Y26869D01*
X136476Y26809D01*
X136506Y26797D01*
X136532Y26778D01*
X136619Y26751D01*
X136704Y26717D01*
X136745Y26713D01*
X136767Y26706D01*
X136799Y26707D01*
X136871Y26699D01*
X181591Y26699D01*
X181681Y26713D01*
X181772Y26721D01*
X181802Y26733D01*
X181834Y26738D01*
X181914Y26781D01*
X181998Y26817D01*
X182030Y26843D01*
X182051Y26854D01*
X182073Y26877D01*
X182129Y26922D01*
X186196Y30989D01*
X512888Y30989D01*
X512978Y31003D01*
X513069Y31011D01*
X513099Y31023D01*
X513131Y31028D01*
X513211Y31071D01*
X513295Y31107D01*
X513327Y31133D01*
X513348Y31144D01*
X513370Y31167D01*
X513426Y31212D01*
X515966Y33752D01*
X516008Y33810D01*
X516058Y33862D01*
X516079Y33909D01*
X516110Y33951D01*
X516131Y34020D01*
X516161Y34085D01*
X516167Y34137D01*
X516182Y34187D01*
X516180Y34258D01*
X516188Y34329D01*
X516177Y34380D01*
X516176Y34432D01*
X516151Y34500D01*
X516136Y34570D01*
X516109Y34615D01*
X516091Y34663D01*
X516047Y34719D01*
X516010Y34781D01*
X515970Y34815D01*
X515938Y34855D01*
X515877Y34894D01*
X515823Y34941D01*
X515775Y34960D01*
X515731Y34988D01*
X515661Y35006D01*
X515595Y35033D01*
X515523Y35041D01*
X515492Y35049D01*
X515469Y35047D01*
X515428Y35051D01*
X448553Y35051D01*
X448463Y35037D01*
X448372Y35029D01*
X448342Y35017D01*
X448310Y35012D01*
X448230Y34969D01*
X448146Y34933D01*
X448114Y34907D01*
X448093Y34896D01*
X448071Y34873D01*
X448015Y34828D01*
X446488Y33301D01*
X442512Y33301D01*
X439701Y36112D01*
X439701Y40088D01*
X442512Y42899D01*
X446488Y42899D01*
X448015Y41372D01*
X448089Y41319D01*
X448158Y41259D01*
X448188Y41247D01*
X448214Y41228D01*
X448301Y41201D01*
X448386Y41167D01*
X448427Y41163D01*
X448450Y41156D01*
X448482Y41157D01*
X448553Y41149D01*
X514042Y41149D01*
X514132Y41163D01*
X514223Y41171D01*
X514253Y41183D01*
X514285Y41188D01*
X514365Y41231D01*
X514449Y41267D01*
X514481Y41293D01*
X514502Y41304D01*
X514524Y41327D01*
X514580Y41372D01*
X533150Y59942D01*
X533192Y60000D01*
X533241Y60052D01*
X533263Y60099D01*
X533294Y60141D01*
X533315Y60210D01*
X533345Y60275D01*
X533351Y60327D01*
X533366Y60377D01*
X533364Y60448D01*
X533372Y60519D01*
X533361Y60570D01*
X533360Y60622D01*
X533335Y60690D01*
X533320Y60760D01*
X533293Y60805D01*
X533275Y60853D01*
X533230Y60909D01*
X533194Y60971D01*
X533154Y61005D01*
X533122Y61045D01*
X533061Y61084D01*
X533007Y61131D01*
X532958Y61150D01*
X532915Y61178D01*
X532845Y61196D01*
X532779Y61223D01*
X532707Y61231D01*
X532676Y61239D01*
X532653Y61237D01*
X532612Y61241D01*
X531412Y61241D01*
X529123Y63530D01*
X529049Y63583D01*
X528980Y63643D01*
X528950Y63655D01*
X528924Y63674D01*
X528837Y63701D01*
X528752Y63735D01*
X528711Y63739D01*
X528688Y63746D01*
X528656Y63745D01*
X528585Y63753D01*
X527946Y63753D01*
X527855Y63739D01*
X527765Y63731D01*
X527735Y63719D01*
X527703Y63714D01*
X527622Y63671D01*
X527538Y63635D01*
X527506Y63609D01*
X527485Y63598D01*
X527463Y63575D01*
X527407Y63530D01*
X527150Y63273D01*
X431793Y63273D01*
X387735Y107331D01*
X387719Y107343D01*
X387706Y107359D01*
X387619Y107415D01*
X387535Y107475D01*
X387516Y107481D01*
X387499Y107492D01*
X387399Y107517D01*
X387300Y107547D01*
X387280Y107547D01*
X387261Y107552D01*
X387158Y107544D01*
X387054Y107541D01*
X387035Y107534D01*
X387015Y107533D01*
X386921Y107492D01*
X386823Y107457D01*
X386807Y107444D01*
X386789Y107436D01*
X386658Y107331D01*
X385577Y106250D01*
X376423Y106250D01*
X369950Y112723D01*
X369950Y121877D01*
X375380Y127306D01*
X375391Y127323D01*
X375407Y127335D01*
X375463Y127422D01*
X375523Y127506D01*
X375529Y127525D01*
X375540Y127542D01*
X375565Y127642D01*
X375596Y127741D01*
X375595Y127761D01*
X375600Y127780D01*
X375592Y127883D01*
X375589Y127987D01*
X375582Y128006D01*
X375581Y128026D01*
X375541Y128121D01*
X375505Y128218D01*
X375492Y128234D01*
X375485Y128252D01*
X375380Y128383D01*
X367401Y136361D01*
X367385Y136373D01*
X367373Y136389D01*
X367286Y136445D01*
X367202Y136505D01*
X367183Y136511D01*
X367166Y136522D01*
X367065Y136547D01*
X366967Y136577D01*
X366947Y136577D01*
X366927Y136582D01*
X366824Y136574D01*
X366721Y136571D01*
X366702Y136564D01*
X366682Y136562D01*
X366587Y136522D01*
X366490Y136486D01*
X366474Y136474D01*
X366456Y136466D01*
X366325Y136361D01*
X360598Y130634D01*
X357123Y130634D01*
X357123Y141938D01*
X357120Y141958D01*
X357122Y141977D01*
X357100Y142079D01*
X357083Y142181D01*
X357074Y142198D01*
X357070Y142218D01*
X357017Y142307D01*
X356968Y142398D01*
X356954Y142412D01*
X356944Y142429D01*
X356865Y142496D01*
X356790Y142567D01*
X356772Y142576D01*
X356757Y142589D01*
X356661Y142627D01*
X356567Y142671D01*
X356547Y142673D01*
X356529Y142681D01*
X356362Y142699D01*
X355599Y142699D01*
X355599Y143462D01*
X355596Y143482D01*
X355598Y143501D01*
X355576Y143603D01*
X355559Y143705D01*
X355550Y143722D01*
X355546Y143742D01*
X355493Y143831D01*
X355444Y143922D01*
X355430Y143936D01*
X355420Y143953D01*
X355341Y144020D01*
X355266Y144091D01*
X355248Y144100D01*
X355233Y144113D01*
X355137Y144152D01*
X355043Y144195D01*
X355023Y144197D01*
X355005Y144205D01*
X354838Y144223D01*
X343534Y144223D01*
X343534Y147698D01*
X348460Y152624D01*
X348502Y152682D01*
X348551Y152734D01*
X348573Y152781D01*
X348604Y152823D01*
X348625Y152892D01*
X348655Y152957D01*
X348661Y153009D01*
X348676Y153059D01*
X348674Y153130D01*
X348682Y153201D01*
X348671Y153252D01*
X348670Y153304D01*
X348645Y153372D01*
X348630Y153442D01*
X348603Y153487D01*
X348585Y153535D01*
X348540Y153591D01*
X348504Y153653D01*
X348464Y153687D01*
X348432Y153727D01*
X348371Y153766D01*
X348317Y153813D01*
X348268Y153832D01*
X348225Y153860D01*
X348155Y153878D01*
X348089Y153905D01*
X348017Y153913D01*
X347986Y153921D01*
X347963Y153919D01*
X347922Y153923D01*
X336441Y153923D01*
X336370Y153912D01*
X336299Y153910D01*
X336250Y153892D01*
X336198Y153884D01*
X336135Y153850D01*
X336068Y153825D01*
X336027Y153793D01*
X335981Y153768D01*
X335932Y153716D01*
X335876Y153672D01*
X335848Y153628D01*
X335812Y153590D01*
X335782Y153525D01*
X335743Y153465D01*
X335730Y153414D01*
X335708Y153367D01*
X335700Y153296D01*
X335683Y153226D01*
X335687Y153174D01*
X335681Y153123D01*
X335696Y153052D01*
X335702Y152981D01*
X335722Y152933D01*
X335733Y152882D01*
X335770Y152821D01*
X335798Y152755D01*
X335843Y152699D01*
X335859Y152671D01*
X335877Y152656D01*
X335903Y152624D01*
X341250Y147277D01*
X341250Y138123D01*
X334777Y131650D01*
X325623Y131650D01*
X324542Y132731D01*
X324526Y132743D01*
X324513Y132759D01*
X324426Y132815D01*
X324342Y132875D01*
X324323Y132881D01*
X324306Y132892D01*
X324206Y132917D01*
X324107Y132947D01*
X324087Y132947D01*
X324068Y132952D01*
X323965Y132944D01*
X323861Y132941D01*
X323842Y132934D01*
X323823Y132933D01*
X323728Y132892D01*
X323630Y132857D01*
X323615Y132844D01*
X323596Y132836D01*
X323465Y132731D01*
X317558Y126824D01*
X312740Y126824D01*
X312669Y126813D01*
X312598Y126811D01*
X312549Y126793D01*
X312497Y126785D01*
X312434Y126751D01*
X312367Y126726D01*
X312326Y126694D01*
X312280Y126669D01*
X312231Y126617D01*
X312175Y126573D01*
X312147Y126529D01*
X312111Y126491D01*
X312081Y126426D01*
X312042Y126366D01*
X312029Y126315D01*
X312007Y126268D01*
X311999Y126197D01*
X311982Y126127D01*
X311986Y126075D01*
X311980Y126024D01*
X311995Y125953D01*
X312001Y125882D01*
X312021Y125834D01*
X312032Y125783D01*
X312069Y125722D01*
X312097Y125656D01*
X312142Y125600D01*
X312158Y125572D01*
X312176Y125557D01*
X312202Y125525D01*
X315850Y121877D01*
X315850Y112723D01*
X309377Y106250D01*
X300223Y106250D01*
X296575Y109898D01*
X296517Y109940D01*
X296465Y109989D01*
X296418Y110011D01*
X296376Y110042D01*
X296307Y110063D01*
X296242Y110093D01*
X296190Y110099D01*
X296140Y110114D01*
X296069Y110112D01*
X295998Y110120D01*
X295947Y110109D01*
X295895Y110108D01*
X295827Y110083D01*
X295757Y110068D01*
X295712Y110041D01*
X295664Y110023D01*
X295608Y109978D01*
X295546Y109942D01*
X295512Y109902D01*
X295472Y109869D01*
X295433Y109809D01*
X295386Y109755D01*
X295367Y109706D01*
X295339Y109663D01*
X295321Y109593D01*
X295294Y109527D01*
X295286Y109455D01*
X295278Y109424D01*
X295280Y109401D01*
X295276Y109360D01*
X295276Y104542D01*
X293713Y102979D01*
X292082Y101348D01*
X292040Y101290D01*
X291991Y101238D01*
X291969Y101191D01*
X291939Y101149D01*
X291918Y101080D01*
X291887Y101015D01*
X291882Y100963D01*
X291866Y100913D01*
X291868Y100842D01*
X291860Y100771D01*
X291871Y100720D01*
X291873Y100668D01*
X291897Y100600D01*
X291912Y100530D01*
X291939Y100485D01*
X291957Y100437D01*
X292002Y100381D01*
X292039Y100319D01*
X292078Y100285D01*
X292111Y100245D01*
X292171Y100206D01*
X292226Y100159D01*
X292274Y100140D01*
X292318Y100112D01*
X292387Y100094D01*
X292454Y100067D01*
X292525Y100059D01*
X292556Y100051D01*
X292580Y100053D01*
X292620Y100049D01*
X294088Y100049D01*
X296899Y97238D01*
X296899Y94001D01*
X296913Y93910D01*
X296921Y93820D01*
X296933Y93790D01*
X296938Y93758D01*
X296981Y93677D01*
X297017Y93593D01*
X297043Y93561D01*
X297054Y93540D01*
X297077Y93518D01*
X297122Y93462D01*
X315511Y75073D01*
X315511Y75069D01*
X315519Y74978D01*
X315531Y74949D01*
X315536Y74917D01*
X315579Y74836D01*
X315615Y74752D01*
X315641Y74720D01*
X315652Y74699D01*
X315675Y74677D01*
X315720Y74621D01*
X326871Y63470D01*
X326945Y63417D01*
X327015Y63357D01*
X327045Y63345D01*
X327071Y63326D01*
X327158Y63299D01*
X327243Y63265D01*
X327284Y63261D01*
X327306Y63254D01*
X327338Y63255D01*
X327409Y63247D01*
X363485Y63247D01*
X363575Y63261D01*
X363666Y63269D01*
X363696Y63281D01*
X363728Y63286D01*
X363808Y63329D01*
X363892Y63365D01*
X363924Y63391D01*
X363945Y63402D01*
X363967Y63425D01*
X364023Y63470D01*
X366312Y65759D01*
X370288Y65759D01*
X373099Y62948D01*
X373099Y58972D01*
X370288Y56161D01*
X366312Y56161D01*
X364023Y58450D01*
X363949Y58503D01*
X363880Y58563D01*
X363850Y58575D01*
X363824Y58594D01*
X363737Y58621D01*
X363652Y58655D01*
X363611Y58659D01*
X363588Y58666D01*
X363556Y58665D01*
X363485Y58673D01*
X325200Y58673D01*
X310909Y72964D01*
X310909Y72968D01*
X310901Y73058D01*
X310889Y73088D01*
X310884Y73120D01*
X310841Y73201D01*
X310805Y73285D01*
X310779Y73317D01*
X310768Y73338D01*
X310745Y73360D01*
X310700Y73416D01*
X293888Y90228D01*
X293814Y90281D01*
X293744Y90341D01*
X293714Y90353D01*
X293688Y90372D01*
X293601Y90399D01*
X293516Y90433D01*
X293475Y90437D01*
X293453Y90444D01*
X293421Y90443D01*
X293349Y90451D01*
X290112Y90451D01*
X287301Y93262D01*
X287301Y94730D01*
X287290Y94800D01*
X287288Y94872D01*
X287270Y94921D01*
X287262Y94972D01*
X287228Y95036D01*
X287203Y95103D01*
X287171Y95144D01*
X287146Y95190D01*
X287094Y95239D01*
X287050Y95295D01*
X287006Y95323D01*
X286968Y95359D01*
X286903Y95389D01*
X286843Y95428D01*
X286792Y95441D01*
X286745Y95463D01*
X286674Y95471D01*
X286604Y95488D01*
X286552Y95484D01*
X286501Y95490D01*
X286430Y95475D01*
X286359Y95469D01*
X286311Y95449D01*
X286260Y95438D01*
X286199Y95401D01*
X286133Y95373D01*
X286077Y95328D01*
X286049Y95311D01*
X286034Y95294D01*
X286002Y95268D01*
X273537Y82803D01*
X56405Y82803D01*
X56315Y82789D01*
X56224Y82781D01*
X56194Y82769D01*
X56162Y82764D01*
X56082Y82721D01*
X55998Y82685D01*
X55966Y82659D01*
X55945Y82648D01*
X55923Y82625D01*
X55867Y82580D01*
X53578Y80291D01*
X49602Y80291D01*
X46791Y83102D01*
X46791Y87078D01*
X49602Y89889D01*
X53578Y89889D01*
X55867Y87600D01*
X55941Y87547D01*
X56010Y87487D01*
X56040Y87475D01*
X56066Y87456D01*
X56153Y87429D01*
X56238Y87395D01*
X56279Y87391D01*
X56302Y87384D01*
X56334Y87385D01*
X56405Y87377D01*
X98052Y87377D01*
X98122Y87388D01*
X98194Y87390D01*
X98243Y87408D01*
X98294Y87416D01*
X98358Y87450D01*
X98425Y87475D01*
X98466Y87507D01*
X98512Y87532D01*
X98561Y87584D01*
X98617Y87628D01*
X98645Y87672D01*
X98681Y87710D01*
X98711Y87775D01*
X98750Y87835D01*
X98763Y87886D01*
X98785Y87933D01*
X98793Y88004D01*
X98810Y88074D01*
X98806Y88126D01*
X98812Y88177D01*
X98797Y88248D01*
X98791Y88319D01*
X98771Y88367D01*
X98760Y88418D01*
X98723Y88479D01*
X98695Y88545D01*
X98650Y88601D01*
X98633Y88629D01*
X98616Y88644D01*
X98590Y88676D01*
X61213Y126053D01*
X61213Y229547D01*
X82873Y251207D01*
X371105Y251207D01*
X371195Y251221D01*
X371286Y251229D01*
X371316Y251241D01*
X371348Y251246D01*
X371428Y251289D01*
X371512Y251325D01*
X371544Y251351D01*
X371565Y251362D01*
X371587Y251385D01*
X371643Y251430D01*
X373932Y253719D01*
X377908Y253719D01*
X380719Y250908D01*
X380719Y246932D01*
X377908Y244121D01*
X373932Y244121D01*
X371643Y246410D01*
X371569Y246463D01*
X371500Y246523D01*
X371470Y246535D01*
X371444Y246554D01*
X371357Y246581D01*
X371272Y246615D01*
X371231Y246619D01*
X371208Y246626D01*
X371176Y246625D01*
X371105Y246633D01*
X206491Y246633D01*
X206420Y246622D01*
X206349Y246620D01*
X206300Y246602D01*
X206248Y246594D01*
X206185Y246560D01*
X206118Y246535D01*
X206077Y246503D01*
X206031Y246478D01*
X205981Y246426D01*
X205925Y246382D01*
X205897Y246338D01*
X205861Y246300D01*
X205831Y246235D01*
X205792Y246175D01*
X205780Y246124D01*
X205758Y246077D01*
X205750Y246006D01*
X205732Y245936D01*
X205736Y245884D01*
X205731Y245833D01*
X205746Y245762D01*
X205752Y245691D01*
X205772Y245643D01*
X205783Y245592D01*
X205820Y245531D01*
X205848Y245465D01*
X205893Y245409D01*
X205909Y245381D01*
X205927Y245366D01*
X205953Y245334D01*
X207999Y243288D01*
X207999Y239312D01*
X206472Y237785D01*
X206419Y237711D01*
X206359Y237642D01*
X206347Y237612D01*
X206328Y237586D01*
X206301Y237499D01*
X206267Y237414D01*
X206263Y237373D01*
X206256Y237350D01*
X206257Y237318D01*
X206249Y237247D01*
X206249Y211063D01*
X206263Y210973D01*
X206271Y210882D01*
X206283Y210852D01*
X206288Y210820D01*
X206331Y210740D01*
X206367Y210656D01*
X206393Y210624D01*
X206404Y210603D01*
X206427Y210581D01*
X206472Y210525D01*
X206715Y210282D01*
X206789Y210229D01*
X206858Y210169D01*
X206888Y210157D01*
X206914Y210138D01*
X207002Y210111D01*
X207086Y210077D01*
X207127Y210073D01*
X207149Y210066D01*
X207182Y210067D01*
X207253Y210059D01*
X249882Y210059D01*
X249972Y210073D01*
X250063Y210081D01*
X250093Y210093D01*
X250125Y210098D01*
X250205Y210141D01*
X250289Y210177D01*
X250321Y210203D01*
X250342Y210214D01*
X250364Y210237D01*
X250420Y210282D01*
X274378Y234240D01*
X274431Y234314D01*
X274491Y234383D01*
X274503Y234413D01*
X274522Y234440D01*
X274549Y234527D01*
X274583Y234611D01*
X274587Y234652D01*
X274594Y234675D01*
X274593Y234707D01*
X274601Y234778D01*
X274601Y236938D01*
X277412Y239749D01*
X281388Y239749D01*
X282915Y238222D01*
X282989Y238169D01*
X283058Y238109D01*
X283088Y238097D01*
X283114Y238078D01*
X283201Y238051D01*
X283286Y238017D01*
X283327Y238013D01*
X283350Y238006D01*
X283382Y238007D01*
X283453Y237999D01*
X461492Y237999D01*
X461582Y238013D01*
X461673Y238021D01*
X461703Y238033D01*
X461735Y238038D01*
X461815Y238081D01*
X461899Y238117D01*
X461931Y238143D01*
X461952Y238154D01*
X461974Y238177D01*
X462030Y238222D01*
X482658Y258850D01*
X482711Y258924D01*
X482771Y258993D01*
X482783Y259023D01*
X482802Y259050D01*
X482829Y259137D01*
X482863Y259221D01*
X482867Y259262D01*
X482874Y259285D01*
X482873Y259317D01*
X482881Y259388D01*
X482881Y261548D01*
X485692Y264359D01*
X489668Y264359D01*
X492479Y261548D01*
X492479Y259388D01*
X492493Y259298D01*
X492501Y259207D01*
X492513Y259177D01*
X492518Y259145D01*
X492561Y259065D01*
X492597Y258981D01*
X492623Y258949D01*
X492634Y258928D01*
X492657Y258906D01*
X492702Y258850D01*
X514478Y237073D01*
X514552Y237020D01*
X514622Y236961D01*
X514652Y236949D01*
X514678Y236930D01*
X514765Y236903D01*
X514850Y236869D01*
X514891Y236864D01*
X514913Y236857D01*
X514945Y236858D01*
X515017Y236850D01*
X517795Y236850D01*
X517886Y236865D01*
X517976Y236872D01*
X518006Y236885D01*
X518038Y236890D01*
X518119Y236933D01*
X518203Y236968D01*
X518235Y236994D01*
X518256Y237005D01*
X518278Y237028D01*
X518334Y237073D01*
X519861Y238600D01*
X523836Y238600D01*
X526647Y235789D01*
X526647Y231814D01*
X523836Y229003D01*
X519861Y229003D01*
X518334Y230530D01*
X518260Y230583D01*
X518190Y230642D01*
X518160Y230655D01*
X518134Y230673D01*
X518047Y230700D01*
X517962Y230734D01*
X517921Y230739D01*
X517899Y230746D01*
X517867Y230745D01*
X517795Y230753D01*
X512176Y230753D01*
X488390Y254538D01*
X488316Y254591D01*
X488247Y254651D01*
X488217Y254663D01*
X488190Y254682D01*
X488103Y254709D01*
X488019Y254743D01*
X487978Y254747D01*
X487955Y254754D01*
X487923Y254753D01*
X487852Y254761D01*
X487508Y254761D01*
X487418Y254747D01*
X487327Y254739D01*
X487297Y254727D01*
X487265Y254722D01*
X487185Y254679D01*
X487101Y254643D01*
X487069Y254617D01*
X487048Y254606D01*
X487026Y254583D01*
X486970Y254538D01*
X464333Y231901D01*
X283453Y231901D01*
X283363Y231887D01*
X283272Y231879D01*
X283242Y231867D01*
X283210Y231862D01*
X283130Y231819D01*
X283046Y231783D01*
X283013Y231757D01*
X282993Y231746D01*
X282971Y231723D01*
X282915Y231678D01*
X281388Y230151D01*
X279228Y230151D01*
X279138Y230137D01*
X279047Y230129D01*
X279017Y230117D01*
X278985Y230112D01*
X278905Y230069D01*
X278821Y230033D01*
X278789Y230007D01*
X278768Y229996D01*
X278746Y229973D01*
X278690Y229928D01*
X252723Y203961D01*
X207253Y203961D01*
X207163Y203947D01*
X207072Y203939D01*
X207042Y203927D01*
X207010Y203922D01*
X206930Y203879D01*
X206846Y203843D01*
X206813Y203817D01*
X206793Y203806D01*
X206771Y203783D01*
X206715Y203738D01*
X205188Y202211D01*
X201212Y202211D01*
X198401Y205022D01*
X198401Y208998D01*
X199928Y210525D01*
X199981Y210599D01*
X200041Y210668D01*
X200053Y210698D01*
X200072Y210724D01*
X200099Y210811D01*
X200133Y210896D01*
X200137Y210937D01*
X200144Y210960D01*
X200143Y210992D01*
X200151Y211063D01*
X200151Y237247D01*
X200137Y237337D01*
X200129Y237428D01*
X200117Y237458D01*
X200112Y237490D01*
X200069Y237570D01*
X200033Y237654D01*
X200007Y237686D01*
X199996Y237707D01*
X199973Y237729D01*
X199928Y237785D01*
X198401Y239312D01*
X198401Y243288D01*
X200447Y245334D01*
X200489Y245392D01*
X200539Y245444D01*
X200560Y245491D01*
X200591Y245533D01*
X200612Y245602D01*
X200642Y245667D01*
X200648Y245719D01*
X200663Y245769D01*
X200661Y245840D01*
X200669Y245911D01*
X200658Y245962D01*
X200657Y246014D01*
X200632Y246082D01*
X200617Y246152D01*
X200590Y246197D01*
X200572Y246245D01*
X200528Y246301D01*
X200491Y246363D01*
X200451Y246397D01*
X200419Y246437D01*
X200358Y246476D01*
X200304Y246523D01*
X200256Y246542D01*
X200212Y246570D01*
X200142Y246588D01*
X200076Y246615D01*
X200004Y246623D01*
X199973Y246631D01*
X199950Y246629D01*
X199909Y246633D01*
X85083Y246633D01*
X84992Y246619D01*
X84902Y246611D01*
X84872Y246599D01*
X84840Y246594D01*
X84759Y246551D01*
X84675Y246515D01*
X84643Y246489D01*
X84622Y246478D01*
X84600Y246455D01*
X84544Y246410D01*
X66010Y227876D01*
X65957Y227802D01*
X65897Y227732D01*
X65885Y227702D01*
X65866Y227676D01*
X65839Y227589D01*
X65805Y227504D01*
X65801Y227463D01*
X65794Y227441D01*
X65795Y227409D01*
X65787Y227337D01*
X65787Y128263D01*
X65801Y128172D01*
X65809Y128082D01*
X65821Y128052D01*
X65826Y128020D01*
X65869Y127939D01*
X65905Y127855D01*
X65931Y127823D01*
X65942Y127802D01*
X65965Y127780D01*
X66010Y127724D01*
X102324Y91410D01*
X102398Y91357D01*
X102468Y91297D01*
X102498Y91285D01*
X102524Y91266D01*
X102611Y91239D01*
X102696Y91205D01*
X102737Y91201D01*
X102759Y91194D01*
X102791Y91195D01*
X102863Y91187D01*
X189237Y91187D01*
X189328Y91201D01*
X189418Y91209D01*
X189448Y91221D01*
X189480Y91226D01*
X189561Y91269D01*
X189645Y91305D01*
X189677Y91331D01*
X189698Y91342D01*
X189720Y91365D01*
X189776Y91410D01*
X200690Y102324D01*
X200743Y102398D01*
X200803Y102468D01*
X200815Y102498D01*
X200834Y102524D01*
X200861Y102611D01*
X200895Y102696D01*
X200899Y102737D01*
X200906Y102759D01*
X200905Y102791D01*
X200913Y102863D01*
X200913Y105489D01*
X200910Y105509D01*
X200912Y105528D01*
X200890Y105630D01*
X200874Y105732D01*
X200864Y105749D01*
X200860Y105769D01*
X200807Y105858D01*
X200758Y105949D01*
X200744Y105963D01*
X200734Y105980D01*
X200655Y106047D01*
X200580Y106119D01*
X200562Y106127D01*
X200547Y106140D01*
X200451Y106179D01*
X200357Y106222D01*
X200337Y106224D01*
X200319Y106232D01*
X200152Y106250D01*
X198623Y106250D01*
X192150Y112723D01*
X192150Y121877D01*
X197576Y127303D01*
X197618Y127361D01*
X197667Y127413D01*
X197689Y127460D01*
X197720Y127502D01*
X197741Y127571D01*
X197771Y127636D01*
X197777Y127688D01*
X197792Y127738D01*
X197790Y127809D01*
X197798Y127880D01*
X197787Y127931D01*
X197786Y127983D01*
X197761Y128051D01*
X197746Y128121D01*
X197719Y128165D01*
X197701Y128214D01*
X197656Y128270D01*
X197620Y128332D01*
X197580Y128366D01*
X197547Y128406D01*
X197487Y128445D01*
X197433Y128492D01*
X197384Y128511D01*
X197341Y128539D01*
X197271Y128557D01*
X197205Y128584D01*
X197133Y128592D01*
X197102Y128600D01*
X197079Y128598D01*
X197038Y128602D01*
X183962Y128602D01*
X183891Y128591D01*
X183820Y128589D01*
X183771Y128571D01*
X183719Y128563D01*
X183656Y128529D01*
X183589Y128504D01*
X183548Y128472D01*
X183502Y128447D01*
X183453Y128395D01*
X183397Y128351D01*
X183369Y128307D01*
X183333Y128269D01*
X183303Y128204D01*
X183264Y128144D01*
X183251Y128093D01*
X183229Y128046D01*
X183221Y127975D01*
X183204Y127905D01*
X183208Y127853D01*
X183202Y127802D01*
X183217Y127731D01*
X183223Y127660D01*
X183243Y127612D01*
X183254Y127561D01*
X183291Y127500D01*
X183319Y127434D01*
X183364Y127378D01*
X183380Y127350D01*
X183398Y127335D01*
X183424Y127303D01*
X188850Y121877D01*
X188850Y112723D01*
X182377Y106250D01*
X173223Y106250D01*
X166750Y112723D01*
X166750Y121877D01*
X172176Y127303D01*
X172218Y127361D01*
X172267Y127413D01*
X172289Y127460D01*
X172320Y127502D01*
X172341Y127571D01*
X172371Y127636D01*
X172377Y127688D01*
X172392Y127738D01*
X172390Y127809D01*
X172398Y127880D01*
X172387Y127931D01*
X172386Y127983D01*
X172361Y128051D01*
X172346Y128121D01*
X172319Y128165D01*
X172301Y128214D01*
X172256Y128270D01*
X172220Y128332D01*
X172180Y128366D01*
X172147Y128406D01*
X172087Y128445D01*
X172033Y128492D01*
X171984Y128511D01*
X171941Y128539D01*
X171871Y128557D01*
X171805Y128584D01*
X171733Y128592D01*
X171702Y128600D01*
X171679Y128598D01*
X171638Y128602D01*
X158562Y128602D01*
X158491Y128591D01*
X158420Y128589D01*
X158371Y128571D01*
X158319Y128563D01*
X158256Y128529D01*
X158189Y128504D01*
X158148Y128472D01*
X158102Y128447D01*
X158053Y128395D01*
X157997Y128351D01*
X157969Y128307D01*
X157933Y128269D01*
X157903Y128204D01*
X157864Y128144D01*
X157851Y128093D01*
X157829Y128046D01*
X157821Y127975D01*
X157804Y127905D01*
X157808Y127853D01*
X157802Y127802D01*
X157817Y127731D01*
X157823Y127660D01*
X157843Y127612D01*
X157854Y127561D01*
X157891Y127500D01*
X157919Y127434D01*
X157964Y127378D01*
X157980Y127350D01*
X157998Y127335D01*
X158024Y127303D01*
X163450Y121877D01*
X163450Y112723D01*
X156977Y106250D01*
X147823Y106250D01*
X141350Y112723D01*
X141350Y121877D01*
X146776Y127303D01*
X146818Y127361D01*
X146867Y127413D01*
X146889Y127460D01*
X146920Y127502D01*
X146941Y127571D01*
X146971Y127636D01*
X146977Y127688D01*
X146992Y127738D01*
X146990Y127809D01*
X146998Y127880D01*
X146987Y127931D01*
X146986Y127983D01*
X146961Y128051D01*
X146946Y128121D01*
X146919Y128165D01*
X146901Y128214D01*
X146856Y128270D01*
X146820Y128332D01*
X146780Y128366D01*
X146747Y128406D01*
X146687Y128445D01*
X146633Y128492D01*
X146584Y128511D01*
X146541Y128539D01*
X146471Y128557D01*
X146405Y128584D01*
X146333Y128592D01*
X146302Y128600D01*
X146279Y128598D01*
X146238Y128602D01*
X133162Y128602D01*
X133091Y128591D01*
X133020Y128589D01*
X132971Y128571D01*
X132919Y128563D01*
X132856Y128529D01*
X132789Y128504D01*
X132748Y128472D01*
X132702Y128447D01*
X132653Y128395D01*
X132597Y128351D01*
X132569Y128307D01*
X132533Y128269D01*
X132503Y128204D01*
X132464Y128144D01*
X132451Y128093D01*
X132429Y128046D01*
X132421Y127975D01*
X132404Y127905D01*
X132408Y127853D01*
X132402Y127802D01*
X132417Y127731D01*
X132423Y127660D01*
X132443Y127612D01*
X132454Y127561D01*
X132491Y127500D01*
X132519Y127434D01*
X132564Y127378D01*
X132580Y127350D01*
X132598Y127335D01*
X132624Y127303D01*
X138050Y121877D01*
X138050Y112723D01*
X131577Y106250D01*
X122423Y106250D01*
X115950Y112723D01*
X115950Y121877D01*
X116166Y122093D01*
X116178Y122109D01*
X116194Y122122D01*
X116250Y122209D01*
X116310Y122293D01*
X116316Y122312D01*
X116327Y122329D01*
X116352Y122429D01*
X116382Y122528D01*
X116382Y122548D01*
X116387Y122567D01*
X116379Y122670D01*
X116376Y122774D01*
X116369Y122793D01*
X116368Y122812D01*
X116327Y122907D01*
X116292Y123005D01*
X116279Y123020D01*
X116271Y123039D01*
X116166Y123170D01*
X110957Y128379D01*
X110883Y128432D01*
X110813Y128492D01*
X110783Y128504D01*
X110757Y128523D01*
X110670Y128550D01*
X110585Y128584D01*
X110544Y128588D01*
X110522Y128595D01*
X110490Y128594D01*
X110418Y128602D01*
X109199Y128602D01*
X109128Y128591D01*
X109057Y128589D01*
X109008Y128571D01*
X108956Y128563D01*
X108893Y128529D01*
X108826Y128504D01*
X108785Y128472D01*
X108739Y128447D01*
X108690Y128395D01*
X108634Y128351D01*
X108605Y128307D01*
X108570Y128269D01*
X108539Y128204D01*
X108501Y128144D01*
X108488Y128093D01*
X108466Y128046D01*
X108458Y127975D01*
X108441Y127905D01*
X108445Y127853D01*
X108439Y127802D01*
X108454Y127731D01*
X108460Y127660D01*
X108480Y127612D01*
X108491Y127561D01*
X108528Y127500D01*
X108556Y127434D01*
X108601Y127378D01*
X108617Y127350D01*
X108635Y127335D01*
X108661Y127303D01*
X113666Y122298D01*
X113666Y118823D01*
X102362Y118823D01*
X102342Y118820D01*
X102323Y118822D01*
X102221Y118800D01*
X102119Y118783D01*
X102102Y118774D01*
X102082Y118770D01*
X101993Y118717D01*
X101902Y118668D01*
X101888Y118654D01*
X101871Y118644D01*
X101804Y118565D01*
X101733Y118490D01*
X101724Y118472D01*
X101711Y118457D01*
X101673Y118361D01*
X101629Y118267D01*
X101627Y118247D01*
X101619Y118229D01*
X101601Y118062D01*
X101601Y117299D01*
X101599Y117299D01*
X101599Y118062D01*
X101596Y118082D01*
X101598Y118101D01*
X101576Y118203D01*
X101559Y118305D01*
X101550Y118322D01*
X101546Y118342D01*
X101493Y118431D01*
X101444Y118522D01*
X101430Y118536D01*
X101420Y118553D01*
X101341Y118620D01*
X101266Y118691D01*
X101248Y118700D01*
X101233Y118713D01*
X101137Y118752D01*
X101043Y118795D01*
X101023Y118797D01*
X101005Y118805D01*
X100838Y118823D01*
X89534Y118823D01*
X89534Y122298D01*
X95261Y128025D01*
X95273Y128041D01*
X95289Y128053D01*
X95345Y128141D01*
X95405Y128225D01*
X95411Y128244D01*
X95422Y128260D01*
X95447Y128361D01*
X95477Y128460D01*
X95477Y128480D01*
X95482Y128499D01*
X95474Y128602D01*
X95471Y128706D01*
X95464Y128724D01*
X95462Y128744D01*
X95422Y128839D01*
X95386Y128937D01*
X95374Y128952D01*
X95366Y128970D01*
X95261Y129101D01*
X94198Y130165D01*
X87502Y136860D01*
X87502Y151518D01*
X87488Y151609D01*
X87480Y151699D01*
X87468Y151729D01*
X87463Y151761D01*
X87420Y151842D01*
X87384Y151926D01*
X87358Y151958D01*
X87347Y151979D01*
X87324Y152001D01*
X87279Y152057D01*
X77988Y161348D01*
X77914Y161401D01*
X77844Y161461D01*
X77814Y161473D01*
X77788Y161492D01*
X77701Y161519D01*
X77616Y161553D01*
X77575Y161557D01*
X77553Y161564D01*
X77521Y161563D01*
X77449Y161571D01*
X74212Y161571D01*
X71401Y164382D01*
X71401Y168358D01*
X74212Y171169D01*
X78188Y171169D01*
X80999Y168358D01*
X80999Y165121D01*
X81013Y165030D01*
X81021Y164940D01*
X81033Y164910D01*
X81038Y164878D01*
X81081Y164797D01*
X81117Y164713D01*
X81143Y164681D01*
X81154Y164660D01*
X81177Y164638D01*
X81222Y164582D01*
X92076Y153728D01*
X92076Y150640D01*
X92087Y150569D01*
X92089Y150498D01*
X92107Y150449D01*
X92115Y150397D01*
X92149Y150334D01*
X92174Y150267D01*
X92206Y150226D01*
X92231Y150180D01*
X92283Y150131D01*
X92327Y150075D01*
X92371Y150047D01*
X92409Y150011D01*
X92474Y149981D01*
X92534Y149942D01*
X92585Y149929D01*
X92632Y149907D01*
X92703Y149899D01*
X92773Y149882D01*
X92825Y149886D01*
X92876Y149880D01*
X92947Y149895D01*
X93018Y149901D01*
X93066Y149921D01*
X93117Y149932D01*
X93178Y149969D01*
X93244Y149997D01*
X93300Y150042D01*
X93328Y150058D01*
X93343Y150076D01*
X93375Y150102D01*
X97023Y153750D01*
X106177Y153750D01*
X110714Y149213D01*
X110772Y149171D01*
X110824Y149122D01*
X110871Y149100D01*
X110913Y149069D01*
X110982Y149048D01*
X111047Y149018D01*
X111099Y149012D01*
X111149Y148997D01*
X111220Y148999D01*
X111291Y148991D01*
X111342Y149002D01*
X111394Y149003D01*
X111462Y149028D01*
X111532Y149043D01*
X111577Y149070D01*
X111625Y149088D01*
X111681Y149133D01*
X111743Y149169D01*
X111777Y149209D01*
X111817Y149242D01*
X111856Y149302D01*
X111903Y149356D01*
X111922Y149405D01*
X111950Y149448D01*
X111968Y149518D01*
X111995Y149584D01*
X112003Y149656D01*
X112011Y149687D01*
X112009Y149710D01*
X112013Y149751D01*
X112013Y166047D01*
X113576Y167610D01*
X138753Y192787D01*
X350851Y192787D01*
X393535Y150102D01*
X395317Y148320D01*
X395333Y148309D01*
X395346Y148293D01*
X395433Y148237D01*
X395517Y148177D01*
X395536Y148171D01*
X395553Y148160D01*
X395653Y148135D01*
X395752Y148104D01*
X395772Y148105D01*
X395791Y148100D01*
X395894Y148108D01*
X395998Y148111D01*
X396017Y148118D01*
X396036Y148119D01*
X396131Y148159D01*
X396229Y148195D01*
X396244Y148208D01*
X396263Y148215D01*
X396394Y148320D01*
X401823Y153750D01*
X410977Y153750D01*
X416406Y148320D01*
X416423Y148309D01*
X416435Y148293D01*
X416522Y148237D01*
X416606Y148177D01*
X416625Y148171D01*
X416642Y148160D01*
X416742Y148135D01*
X416841Y148104D01*
X416861Y148105D01*
X416880Y148100D01*
X416983Y148108D01*
X417087Y148111D01*
X417106Y148118D01*
X417126Y148119D01*
X417221Y148159D01*
X417318Y148195D01*
X417334Y148208D01*
X417352Y148215D01*
X417483Y148320D01*
X425960Y156798D01*
X433918Y156798D01*
X434009Y156812D01*
X434099Y156820D01*
X434129Y156832D01*
X434161Y156837D01*
X434242Y156880D01*
X434326Y156916D01*
X434358Y156942D01*
X434379Y156953D01*
X434401Y156976D01*
X434457Y157021D01*
X453448Y176012D01*
X453501Y176086D01*
X453561Y176156D01*
X453573Y176186D01*
X453592Y176212D01*
X453619Y176299D01*
X453653Y176384D01*
X453657Y176425D01*
X453664Y176447D01*
X453663Y176479D01*
X453671Y176551D01*
X453671Y179788D01*
X456482Y182599D01*
X460458Y182599D01*
X463269Y179788D01*
X463269Y175812D01*
X460458Y173001D01*
X457221Y173001D01*
X457130Y172987D01*
X457040Y172979D01*
X457010Y172967D01*
X456978Y172962D01*
X456897Y172919D01*
X456813Y172883D01*
X456781Y172857D01*
X456760Y172846D01*
X456738Y172823D01*
X456682Y172778D01*
X438272Y154368D01*
X438260Y154352D01*
X438245Y154339D01*
X438189Y154252D01*
X438128Y154168D01*
X438123Y154149D01*
X438112Y154133D01*
X438086Y154032D01*
X438056Y153933D01*
X438057Y153913D01*
X438052Y153894D01*
X438060Y153791D01*
X438062Y153687D01*
X438069Y153669D01*
X438071Y153649D01*
X438111Y153554D01*
X438147Y153456D01*
X438159Y153441D01*
X438167Y153422D01*
X438272Y153292D01*
X442525Y149039D01*
X442541Y149027D01*
X442553Y149011D01*
X442641Y148955D01*
X442725Y148895D01*
X442744Y148889D01*
X442760Y148878D01*
X442861Y148853D01*
X442960Y148823D01*
X442980Y148823D01*
X442999Y148818D01*
X443102Y148826D01*
X443206Y148829D01*
X443224Y148836D01*
X443244Y148838D01*
X443339Y148878D01*
X443437Y148914D01*
X443452Y148926D01*
X443470Y148934D01*
X443601Y149039D01*
X444665Y150102D01*
X451360Y156798D01*
X459319Y156798D01*
X459409Y156812D01*
X459500Y156820D01*
X459529Y156832D01*
X459561Y156837D01*
X459642Y156880D01*
X459726Y156916D01*
X459758Y156942D01*
X459779Y156953D01*
X459801Y156976D01*
X459857Y157021D01*
X512638Y209802D01*
X512680Y209860D01*
X512729Y209912D01*
X512751Y209959D01*
X512781Y210001D01*
X512802Y210070D01*
X512833Y210135D01*
X512838Y210187D01*
X512854Y210237D01*
X512852Y210308D01*
X512860Y210379D01*
X512849Y210430D01*
X512847Y210482D01*
X512823Y210550D01*
X512808Y210620D01*
X512781Y210664D01*
X512763Y210713D01*
X512718Y210769D01*
X512681Y210831D01*
X512642Y210865D01*
X512609Y210905D01*
X512549Y210944D01*
X512494Y210991D01*
X512446Y211010D01*
X512402Y211038D01*
X512333Y211056D01*
X512266Y211083D01*
X512195Y211091D01*
X512164Y211099D01*
X512140Y211097D01*
X512100Y211101D01*
X509822Y211101D01*
X507533Y213390D01*
X507459Y213443D01*
X507390Y213503D01*
X507360Y213515D01*
X507334Y213534D01*
X507247Y213561D01*
X507162Y213595D01*
X507121Y213599D01*
X507098Y213606D01*
X507066Y213605D01*
X506995Y213613D01*
X347715Y213613D01*
X347625Y213599D01*
X347534Y213591D01*
X347504Y213579D01*
X347472Y213574D01*
X347392Y213531D01*
X347308Y213495D01*
X347276Y213469D01*
X347255Y213458D01*
X347233Y213435D01*
X347177Y213390D01*
X344888Y211101D01*
X340912Y211101D01*
X338101Y213912D01*
X338101Y217888D01*
X340912Y220699D01*
X344888Y220699D01*
X347177Y218410D01*
X347251Y218357D01*
X347320Y218297D01*
X347350Y218285D01*
X347376Y218266D01*
X347463Y218239D01*
X347548Y218205D01*
X347589Y218201D01*
X347612Y218194D01*
X347644Y218195D01*
X347715Y218187D01*
X506995Y218187D01*
X507085Y218201D01*
X507176Y218209D01*
X507206Y218221D01*
X507238Y218226D01*
X507318Y218269D01*
X507402Y218305D01*
X507434Y218331D01*
X507455Y218342D01*
X507477Y218365D01*
X507533Y218410D01*
X509822Y220699D01*
X513798Y220699D01*
X516609Y217888D01*
X516609Y215610D01*
X516620Y215540D01*
X516622Y215468D01*
X516640Y215419D01*
X516648Y215368D01*
X516682Y215304D01*
X516707Y215237D01*
X516739Y215196D01*
X516764Y215150D01*
X516815Y215101D01*
X516860Y215045D01*
X516904Y215017D01*
X516942Y214981D01*
X517007Y214951D01*
X517067Y214912D01*
X517118Y214899D01*
X517165Y214877D01*
X517236Y214869D01*
X517306Y214852D01*
X517358Y214856D01*
X517409Y214850D01*
X517480Y214865D01*
X517551Y214871D01*
X517599Y214891D01*
X517650Y214902D01*
X517711Y214939D01*
X517777Y214967D01*
X517833Y215012D01*
X517861Y215029D01*
X517876Y215046D01*
X517908Y215072D01*
X553778Y250942D01*
X553822Y251003D01*
X553859Y251041D01*
X553865Y251055D01*
X553891Y251086D01*
X553903Y251116D01*
X553922Y251142D01*
X553948Y251229D01*
X553983Y251314D01*
X553987Y251355D01*
X553994Y251377D01*
X553993Y251409D01*
X554001Y251480D01*
X554001Y254718D01*
X556812Y257529D01*
X560788Y257529D01*
X563599Y254718D01*
X563599Y250742D01*
X560788Y247931D01*
X557550Y247931D01*
X557460Y247917D01*
X557369Y247909D01*
X557340Y247897D01*
X557308Y247892D01*
X557227Y247849D01*
X557143Y247813D01*
X557111Y247787D01*
X557090Y247776D01*
X557068Y247753D01*
X557012Y247708D01*
X463091Y153787D01*
X462954Y153650D01*
X462942Y153634D01*
X462926Y153621D01*
X462870Y153534D01*
X462810Y153450D01*
X462804Y153431D01*
X462793Y153414D01*
X462768Y153314D01*
X462738Y153215D01*
X462738Y153195D01*
X462733Y153176D01*
X462741Y153073D01*
X462744Y152969D01*
X462751Y152950D01*
X462752Y152930D01*
X462793Y152835D01*
X462828Y152738D01*
X462841Y152722D01*
X462849Y152704D01*
X462954Y152573D01*
X468250Y147277D01*
X468250Y138123D01*
X461777Y131650D01*
X452623Y131650D01*
X447327Y136946D01*
X447311Y136958D01*
X447298Y136974D01*
X447211Y137030D01*
X447127Y137090D01*
X447108Y137096D01*
X447091Y137107D01*
X446991Y137132D01*
X446892Y137162D01*
X446872Y137162D01*
X446853Y137167D01*
X446750Y137159D01*
X446646Y137156D01*
X446627Y137149D01*
X446608Y137148D01*
X446513Y137107D01*
X446415Y137072D01*
X446400Y137059D01*
X446381Y137051D01*
X446250Y136946D01*
X437691Y128387D01*
X437554Y128250D01*
X437542Y128234D01*
X437526Y128221D01*
X437470Y128134D01*
X437410Y128050D01*
X437404Y128031D01*
X437393Y128014D01*
X437368Y127914D01*
X437338Y127815D01*
X437338Y127795D01*
X437333Y127776D01*
X437341Y127673D01*
X437344Y127569D01*
X437351Y127550D01*
X437352Y127530D01*
X437393Y127435D01*
X437428Y127338D01*
X437441Y127322D01*
X437449Y127304D01*
X437554Y127173D01*
X442850Y121877D01*
X442850Y112723D01*
X436377Y106250D01*
X427223Y106250D01*
X420750Y112723D01*
X420750Y117882D01*
X420739Y117953D01*
X420737Y118024D01*
X420719Y118073D01*
X420711Y118125D01*
X420677Y118188D01*
X420652Y118255D01*
X420620Y118296D01*
X420595Y118342D01*
X420544Y118391D01*
X420499Y118447D01*
X420455Y118476D01*
X420417Y118511D01*
X420352Y118542D01*
X420292Y118580D01*
X420241Y118593D01*
X420194Y118615D01*
X420123Y118623D01*
X420053Y118640D01*
X420001Y118636D01*
X419950Y118642D01*
X419879Y118627D01*
X419808Y118621D01*
X419760Y118601D01*
X419709Y118590D01*
X419648Y118553D01*
X419582Y118525D01*
X419526Y118480D01*
X419498Y118464D01*
X419483Y118446D01*
X419451Y118420D01*
X417673Y116642D01*
X417620Y116568D01*
X417560Y116499D01*
X417548Y116469D01*
X417529Y116442D01*
X417502Y116355D01*
X417468Y116271D01*
X417464Y116230D01*
X417457Y116207D01*
X417458Y116175D01*
X417450Y116104D01*
X417450Y112723D01*
X410977Y106250D01*
X405818Y106250D01*
X405747Y106239D01*
X405676Y106237D01*
X405627Y106219D01*
X405575Y106211D01*
X405512Y106177D01*
X405445Y106152D01*
X405404Y106120D01*
X405358Y106095D01*
X405309Y106043D01*
X405253Y105999D01*
X405224Y105955D01*
X405189Y105917D01*
X405158Y105852D01*
X405120Y105792D01*
X405107Y105741D01*
X405085Y105694D01*
X405077Y105623D01*
X405060Y105553D01*
X405064Y105501D01*
X405058Y105450D01*
X405073Y105379D01*
X405079Y105308D01*
X405099Y105260D01*
X405110Y105209D01*
X405147Y105148D01*
X405175Y105082D01*
X405220Y105026D01*
X405236Y104998D01*
X405254Y104983D01*
X405280Y104951D01*
X434061Y76170D01*
X434135Y76117D01*
X434204Y76057D01*
X434234Y76045D01*
X434261Y76026D01*
X434348Y75999D01*
X434432Y75965D01*
X434473Y75961D01*
X434496Y75954D01*
X434528Y75955D01*
X434599Y75947D01*
X443506Y75947D01*
X443577Y75958D01*
X443648Y75960D01*
X443697Y75978D01*
X443749Y75986D01*
X443812Y76020D01*
X443879Y76045D01*
X443920Y76077D01*
X443966Y76102D01*
X444015Y76154D01*
X444071Y76198D01*
X444100Y76242D01*
X444135Y76280D01*
X444166Y76345D01*
X444204Y76405D01*
X444217Y76456D01*
X444239Y76503D01*
X444247Y76574D01*
X444265Y76644D01*
X444260Y76696D01*
X444266Y76747D01*
X444251Y76818D01*
X444245Y76889D01*
X444225Y76937D01*
X444214Y76988D01*
X444177Y77049D01*
X444149Y77115D01*
X444104Y77171D01*
X444088Y77199D01*
X444070Y77214D01*
X444044Y77246D01*
X442788Y78502D01*
X442788Y82478D01*
X445599Y85289D01*
X447759Y85289D01*
X447849Y85303D01*
X447940Y85311D01*
X447970Y85323D01*
X448002Y85328D01*
X448082Y85371D01*
X448166Y85407D01*
X448198Y85433D01*
X448219Y85444D01*
X448241Y85467D01*
X448297Y85512D01*
X456234Y93449D01*
X530322Y93449D01*
X530412Y93463D01*
X530503Y93471D01*
X530533Y93483D01*
X530565Y93488D01*
X530645Y93531D01*
X530729Y93567D01*
X530761Y93593D01*
X530782Y93604D01*
X530804Y93627D01*
X530860Y93672D01*
X544964Y107776D01*
X550860Y107776D01*
X550931Y107787D01*
X551002Y107789D01*
X551051Y107807D01*
X551103Y107815D01*
X551166Y107849D01*
X551233Y107874D01*
X551274Y107906D01*
X551320Y107931D01*
X551369Y107983D01*
X551425Y108027D01*
X551453Y108071D01*
X551489Y108109D01*
X551519Y108174D01*
X551558Y108234D01*
X551571Y108285D01*
X551593Y108332D01*
X551601Y108403D01*
X551618Y108473D01*
X551614Y108525D01*
X551620Y108576D01*
X551605Y108647D01*
X551599Y108718D01*
X551579Y108766D01*
X551568Y108817D01*
X551531Y108878D01*
X551503Y108944D01*
X551458Y109000D01*
X551442Y109028D01*
X551424Y109043D01*
X551398Y109075D01*
X547750Y112723D01*
X547750Y121877D01*
X554223Y128350D01*
X563377Y128350D01*
X567025Y124702D01*
X567083Y124660D01*
X567135Y124611D01*
X567182Y124589D01*
X567224Y124558D01*
X567293Y124537D01*
X567358Y124507D01*
X567410Y124501D01*
X567460Y124486D01*
X567531Y124488D01*
X567602Y124480D01*
X567653Y124491D01*
X567705Y124492D01*
X567773Y124517D01*
X567843Y124532D01*
X567888Y124559D01*
X567936Y124577D01*
X567992Y124622D01*
X568054Y124658D01*
X568088Y124698D01*
X568128Y124731D01*
X568167Y124791D01*
X568214Y124845D01*
X568233Y124894D01*
X568261Y124937D01*
X568279Y125007D01*
X568306Y125073D01*
X568314Y125145D01*
X568322Y125176D01*
X568320Y125199D01*
X568324Y125240D01*
X568324Y131136D01*
X570333Y133145D01*
X573693Y136504D01*
X573704Y136520D01*
X573720Y136533D01*
X573776Y136620D01*
X573836Y136704D01*
X573842Y136723D01*
X573853Y136740D01*
X573878Y136840D01*
X573909Y136939D01*
X573908Y136959D01*
X573913Y136978D01*
X573905Y137081D01*
X573902Y137185D01*
X573895Y137204D01*
X573894Y137223D01*
X573853Y137318D01*
X573818Y137416D01*
X573805Y137432D01*
X573797Y137450D01*
X573693Y137581D01*
X573150Y138123D01*
X573150Y138890D01*
X573147Y138910D01*
X573149Y138929D01*
X573127Y139031D01*
X573111Y139133D01*
X573101Y139150D01*
X573097Y139170D01*
X573044Y139259D01*
X572995Y139350D01*
X572981Y139364D01*
X572971Y139381D01*
X572892Y139448D01*
X572817Y139520D01*
X572799Y139528D01*
X572784Y139541D01*
X572688Y139580D01*
X572594Y139623D01*
X572574Y139625D01*
X572556Y139633D01*
X572389Y139651D01*
X570611Y139651D01*
X570591Y139648D01*
X570572Y139650D01*
X570470Y139628D01*
X570368Y139612D01*
X570351Y139602D01*
X570331Y139598D01*
X570242Y139545D01*
X570151Y139496D01*
X570137Y139482D01*
X570120Y139472D01*
X570053Y139393D01*
X569981Y139318D01*
X569973Y139300D01*
X569960Y139285D01*
X569921Y139189D01*
X569878Y139095D01*
X569876Y139075D01*
X569868Y139057D01*
X569850Y138890D01*
X569850Y138123D01*
X563377Y131650D01*
X554223Y131650D01*
X547750Y138123D01*
X547750Y147277D01*
X554223Y153750D01*
X563377Y153750D01*
X569850Y147277D01*
X569850Y146510D01*
X569853Y146490D01*
X569851Y146471D01*
X569873Y146369D01*
X569889Y146267D01*
X569899Y146250D01*
X569903Y146230D01*
X569956Y146141D01*
X570005Y146050D01*
X570019Y146036D01*
X570029Y146019D01*
X570108Y145952D01*
X570183Y145880D01*
X570201Y145872D01*
X570216Y145859D01*
X570312Y145820D01*
X570406Y145777D01*
X570426Y145775D01*
X570444Y145767D01*
X570611Y145749D01*
X572389Y145749D01*
X572409Y145752D01*
X572428Y145750D01*
X572530Y145772D01*
X572632Y145788D01*
X572649Y145798D01*
X572669Y145802D01*
X572758Y145855D01*
X572849Y145904D01*
X572863Y145918D01*
X572880Y145928D01*
X572947Y146007D01*
X573019Y146082D01*
X573027Y146100D01*
X573040Y146115D01*
X573079Y146211D01*
X573122Y146305D01*
X573124Y146325D01*
X573132Y146343D01*
X573150Y146510D01*
X573150Y147277D01*
X579623Y153750D01*
X588777Y153750D01*
X595250Y147277D01*
X595250Y138123D01*
X588777Y131650D01*
X579623Y131650D01*
X579081Y132193D01*
X579065Y132204D01*
X579052Y132220D01*
X578965Y132276D01*
X578881Y132336D01*
X578862Y132342D01*
X578845Y132353D01*
X578745Y132378D01*
X578646Y132409D01*
X578626Y132408D01*
X578607Y132413D01*
X578504Y132405D01*
X578400Y132402D01*
X578381Y132395D01*
X578361Y132394D01*
X578267Y132353D01*
X578169Y132318D01*
X578153Y132305D01*
X578135Y132297D01*
X578004Y132193D01*
X574645Y128833D01*
X574592Y128759D01*
X574532Y128690D01*
X574520Y128660D01*
X574501Y128633D01*
X574474Y128546D01*
X574440Y128462D01*
X574436Y128421D01*
X574429Y128398D01*
X574430Y128366D01*
X574422Y128295D01*
X574422Y124986D01*
X574433Y124915D01*
X574435Y124844D01*
X574453Y124795D01*
X574461Y124743D01*
X574495Y124680D01*
X574520Y124613D01*
X574552Y124572D01*
X574577Y124526D01*
X574629Y124477D01*
X574673Y124421D01*
X574717Y124393D01*
X574755Y124357D01*
X574820Y124327D01*
X574880Y124288D01*
X574931Y124275D01*
X574978Y124253D01*
X575049Y124245D01*
X575119Y124228D01*
X575171Y124232D01*
X575222Y124226D01*
X575293Y124241D01*
X575364Y124247D01*
X575412Y124267D01*
X575463Y124278D01*
X575524Y124315D01*
X575590Y124343D01*
X575646Y124388D01*
X575674Y124404D01*
X575689Y124422D01*
X575721Y124448D01*
X579623Y128350D01*
X588777Y128350D01*
X595250Y121877D01*
X595250Y112723D01*
X588777Y106250D01*
X579623Y106250D01*
X575271Y110602D01*
X575255Y110614D01*
X575243Y110629D01*
X575155Y110685D01*
X575071Y110746D01*
X575052Y110752D01*
X575036Y110762D01*
X574935Y110788D01*
X574836Y110818D01*
X574816Y110818D01*
X574797Y110822D01*
X574694Y110814D01*
X574591Y110812D01*
X574572Y110805D01*
X574552Y110803D01*
X574457Y110763D01*
X574359Y110727D01*
X574344Y110715D01*
X574326Y110707D01*
X574195Y110602D01*
X572413Y108820D01*
X565271Y101678D01*
X547805Y101678D01*
X547715Y101664D01*
X547624Y101656D01*
X547594Y101644D01*
X547562Y101639D01*
X547482Y101596D01*
X547398Y101560D01*
X547366Y101534D01*
X547345Y101523D01*
X547323Y101500D01*
X547267Y101455D01*
X533163Y87351D01*
X459075Y87351D01*
X458985Y87337D01*
X458894Y87329D01*
X458864Y87317D01*
X458832Y87312D01*
X458752Y87269D01*
X458668Y87233D01*
X458636Y87207D01*
X458615Y87196D01*
X458593Y87173D01*
X458537Y87128D01*
X452609Y81200D01*
X452556Y81126D01*
X452496Y81057D01*
X452484Y81027D01*
X452465Y81000D01*
X452438Y80913D01*
X452404Y80829D01*
X452400Y80788D01*
X452393Y80765D01*
X452394Y80733D01*
X452386Y80662D01*
X452386Y78502D01*
X451130Y77246D01*
X451088Y77188D01*
X451038Y77136D01*
X451016Y77089D01*
X450986Y77047D01*
X450965Y76978D01*
X450935Y76913D01*
X450929Y76861D01*
X450914Y76811D01*
X450916Y76740D01*
X450908Y76669D01*
X450919Y76618D01*
X450920Y76566D01*
X450945Y76498D01*
X450960Y76428D01*
X450987Y76383D01*
X451005Y76335D01*
X451049Y76279D01*
X451086Y76217D01*
X451126Y76183D01*
X451158Y76143D01*
X451219Y76104D01*
X451273Y76057D01*
X451321Y76038D01*
X451365Y76010D01*
X451435Y75992D01*
X451501Y75965D01*
X451573Y75957D01*
X451604Y75949D01*
X451627Y75951D01*
X451668Y75947D01*
X512735Y75947D01*
X512825Y75961D01*
X512916Y75969D01*
X512946Y75981D01*
X512978Y75986D01*
X513058Y76029D01*
X513142Y76065D01*
X513174Y76091D01*
X513195Y76102D01*
X513217Y76125D01*
X513273Y76170D01*
X515562Y78459D01*
X519538Y78459D01*
X522349Y75648D01*
X522349Y71672D01*
X519823Y69146D01*
X519781Y69088D01*
X519731Y69036D01*
X519710Y68989D01*
X519679Y68947D01*
X519658Y68878D01*
X519628Y68813D01*
X519622Y68761D01*
X519607Y68711D01*
X519609Y68640D01*
X519601Y68569D01*
X519612Y68518D01*
X519613Y68466D01*
X519638Y68398D01*
X519653Y68328D01*
X519680Y68283D01*
X519698Y68235D01*
X519742Y68179D01*
X519779Y68117D01*
X519819Y68083D01*
X519851Y68043D01*
X519912Y68004D01*
X519966Y67957D01*
X520014Y67938D01*
X520058Y67910D01*
X520128Y67892D01*
X520194Y67865D01*
X520266Y67857D01*
X520297Y67849D01*
X520320Y67851D01*
X520361Y67847D01*
X524941Y67847D01*
X525031Y67861D01*
X525122Y67869D01*
X525151Y67881D01*
X525183Y67886D01*
X525264Y67929D01*
X525348Y67965D01*
X525380Y67991D01*
X525401Y68002D01*
X525423Y68025D01*
X525479Y68070D01*
X525736Y68327D01*
X528585Y68327D01*
X528675Y68341D01*
X528766Y68349D01*
X528796Y68361D01*
X528828Y68366D01*
X528908Y68409D01*
X528992Y68445D01*
X529024Y68471D01*
X529045Y68482D01*
X529067Y68505D01*
X529123Y68550D01*
X531412Y70839D01*
X535388Y70839D01*
X537942Y68285D01*
X537958Y68273D01*
X537970Y68258D01*
X538058Y68201D01*
X538141Y68141D01*
X538160Y68135D01*
X538177Y68125D01*
X538278Y68099D01*
X538377Y68069D01*
X538396Y68069D01*
X538416Y68064D01*
X538519Y68072D01*
X538622Y68075D01*
X538641Y68082D01*
X538661Y68084D01*
X538756Y68124D01*
X538853Y68160D01*
X538869Y68172D01*
X538887Y68180D01*
X539018Y68285D01*
X541572Y70839D01*
X545548Y70839D01*
X548359Y68028D01*
X548359Y64052D01*
X545548Y61241D01*
X543388Y61241D01*
X543298Y61227D01*
X543207Y61219D01*
X543177Y61207D01*
X543145Y61202D01*
X543065Y61159D01*
X542981Y61123D01*
X542949Y61097D01*
X542928Y61086D01*
X542906Y61063D01*
X542850Y61018D01*
X518892Y37060D01*
X518156Y36324D01*
X518114Y36266D01*
X518065Y36214D01*
X518043Y36167D01*
X518012Y36125D01*
X517991Y36056D01*
X517961Y35991D01*
X517955Y35939D01*
X517940Y35889D01*
X517942Y35818D01*
X517934Y35747D01*
X517945Y35696D01*
X517946Y35644D01*
X517971Y35576D01*
X517986Y35506D01*
X518013Y35461D01*
X518031Y35413D01*
X518076Y35357D01*
X518112Y35295D01*
X518152Y35261D01*
X518184Y35221D01*
X518245Y35182D01*
X518299Y35135D01*
X518348Y35116D01*
X518391Y35088D01*
X518461Y35070D01*
X518527Y35043D01*
X518599Y35035D01*
X518630Y35027D01*
X518653Y35029D01*
X518694Y35025D01*
X524161Y35025D01*
X527974Y31212D01*
X528048Y31159D01*
X528117Y31099D01*
X528147Y31087D01*
X528173Y31068D01*
X528260Y31041D01*
X528345Y31007D01*
X528386Y31003D01*
X528409Y30996D01*
X528441Y30997D01*
X528512Y30989D01*
X568452Y30989D01*
X568472Y30992D01*
X568491Y30990D01*
X568593Y31012D01*
X568695Y31028D01*
X568712Y31038D01*
X568732Y31042D01*
X568821Y31095D01*
X568912Y31144D01*
X568926Y31158D01*
X568943Y31168D01*
X569010Y31247D01*
X569082Y31322D01*
X569090Y31340D01*
X569103Y31355D01*
X569142Y31451D01*
X569185Y31545D01*
X569187Y31565D01*
X569195Y31583D01*
X569213Y31750D01*
X569213Y84085D01*
X569199Y84175D01*
X569191Y84266D01*
X569179Y84296D01*
X569174Y84328D01*
X569131Y84408D01*
X569095Y84492D01*
X569069Y84524D01*
X569058Y84545D01*
X569035Y84567D01*
X568990Y84623D01*
X566701Y86912D01*
X566701Y90888D01*
X569512Y93699D01*
X573488Y93699D01*
X576299Y90888D01*
X576299Y86912D01*
X574010Y84623D01*
X573957Y84549D01*
X573897Y84480D01*
X573885Y84450D01*
X573866Y84424D01*
X573839Y84337D01*
X573805Y84252D01*
X573801Y84211D01*
X573794Y84188D01*
X573795Y84156D01*
X573787Y84085D01*
X573787Y27755D01*
X572447Y26415D01*
X526260Y26415D01*
X526240Y26412D01*
X526221Y26414D01*
X526119Y26392D01*
X526017Y26376D01*
X526000Y26366D01*
X525980Y26362D01*
X525891Y26309D01*
X525800Y26260D01*
X525786Y26246D01*
X525769Y26236D01*
X525702Y26157D01*
X525630Y26082D01*
X525622Y26064D01*
X525609Y26049D01*
X525570Y25953D01*
X525527Y25859D01*
X525525Y25839D01*
X525517Y25821D01*
X525499Y25654D01*
X525499Y24682D01*
X524480Y23663D01*
X524427Y23589D01*
X524367Y23520D01*
X524355Y23490D01*
X524336Y23464D01*
X524309Y23377D01*
X524275Y23292D01*
X524271Y23251D01*
X524264Y23228D01*
X524265Y23196D01*
X524257Y23125D01*
X524257Y16833D01*
X516567Y9143D01*
X76523Y9143D01*
G37*
%LPD*%
G36*
X144531Y133187D02*
X144531Y133187D01*
X144602Y133189D01*
X144651Y133207D01*
X144703Y133215D01*
X144766Y133249D01*
X144833Y133274D01*
X144874Y133306D01*
X144920Y133331D01*
X144969Y133383D01*
X145025Y133427D01*
X145053Y133471D01*
X145089Y133509D01*
X145119Y133574D01*
X145158Y133634D01*
X145171Y133685D01*
X145193Y133732D01*
X145201Y133803D01*
X145218Y133873D01*
X145214Y133925D01*
X145220Y133976D01*
X145205Y134047D01*
X145199Y134118D01*
X145179Y134166D01*
X145168Y134217D01*
X145131Y134278D01*
X145103Y134344D01*
X145058Y134400D01*
X145042Y134428D01*
X145024Y134443D01*
X144998Y134475D01*
X141350Y138123D01*
X141350Y147277D01*
X146697Y152624D01*
X146739Y152682D01*
X146788Y152734D01*
X146810Y152781D01*
X146841Y152823D01*
X146862Y152892D01*
X146892Y152957D01*
X146898Y153009D01*
X146913Y153059D01*
X146911Y153130D01*
X146919Y153201D01*
X146908Y153252D01*
X146907Y153304D01*
X146882Y153372D01*
X146867Y153442D01*
X146840Y153487D01*
X146822Y153535D01*
X146777Y153591D01*
X146741Y153653D01*
X146701Y153687D01*
X146668Y153727D01*
X146608Y153766D01*
X146554Y153813D01*
X146505Y153832D01*
X146462Y153860D01*
X146392Y153878D01*
X146326Y153905D01*
X146254Y153913D01*
X146223Y153921D01*
X146200Y153919D01*
X146159Y153923D01*
X144515Y153923D01*
X144425Y153909D01*
X144334Y153901D01*
X144304Y153889D01*
X144272Y153884D01*
X144192Y153841D01*
X144108Y153805D01*
X144075Y153779D01*
X144055Y153768D01*
X144033Y153745D01*
X143977Y153700D01*
X141688Y151411D01*
X137712Y151411D01*
X134901Y154222D01*
X134901Y158198D01*
X137712Y161009D01*
X141688Y161009D01*
X143977Y158720D01*
X144051Y158667D01*
X144120Y158607D01*
X144150Y158595D01*
X144176Y158576D01*
X144263Y158549D01*
X144348Y158515D01*
X144389Y158511D01*
X144412Y158504D01*
X144444Y158505D01*
X144515Y158497D01*
X359741Y158497D01*
X369917Y148320D01*
X369933Y148309D01*
X369946Y148293D01*
X370033Y148237D01*
X370117Y148177D01*
X370136Y148171D01*
X370153Y148160D01*
X370253Y148135D01*
X370352Y148104D01*
X370372Y148105D01*
X370391Y148100D01*
X370494Y148108D01*
X370598Y148111D01*
X370617Y148118D01*
X370637Y148119D01*
X370731Y148160D01*
X370829Y148195D01*
X370844Y148208D01*
X370863Y148216D01*
X370994Y148320D01*
X371032Y148358D01*
X371043Y148374D01*
X371059Y148387D01*
X371115Y148474D01*
X371175Y148558D01*
X371181Y148577D01*
X371192Y148594D01*
X371217Y148694D01*
X371247Y148793D01*
X371247Y148813D01*
X371252Y148832D01*
X371244Y148935D01*
X371241Y149039D01*
X371234Y149058D01*
X371233Y149077D01*
X371192Y149172D01*
X371156Y149270D01*
X371144Y149286D01*
X371136Y149304D01*
X371031Y149435D01*
X345176Y175290D01*
X345102Y175343D01*
X345032Y175403D01*
X345002Y175415D01*
X344976Y175434D01*
X344889Y175461D01*
X344804Y175495D01*
X344763Y175499D01*
X344741Y175506D01*
X344709Y175505D01*
X344637Y175513D01*
X322315Y175513D01*
X322225Y175499D01*
X322134Y175491D01*
X322104Y175479D01*
X322072Y175474D01*
X321992Y175431D01*
X321908Y175395D01*
X321876Y175369D01*
X321855Y175358D01*
X321833Y175335D01*
X321777Y175290D01*
X319488Y173001D01*
X315512Y173001D01*
X312701Y175812D01*
X312701Y179788D01*
X315512Y182599D01*
X319488Y182599D01*
X321777Y180310D01*
X321851Y180257D01*
X321920Y180197D01*
X321950Y180185D01*
X321976Y180166D01*
X322063Y180139D01*
X322148Y180105D01*
X322189Y180101D01*
X322212Y180094D01*
X322244Y180095D01*
X322315Y180087D01*
X346847Y180087D01*
X374265Y152669D01*
X374281Y152657D01*
X374294Y152641D01*
X374381Y152585D01*
X374465Y152525D01*
X374484Y152519D01*
X374501Y152508D01*
X374601Y152483D01*
X374700Y152453D01*
X374720Y152453D01*
X374739Y152448D01*
X374842Y152456D01*
X374946Y152459D01*
X374965Y152466D01*
X374985Y152467D01*
X375079Y152508D01*
X375177Y152543D01*
X375193Y152556D01*
X375211Y152564D01*
X375342Y152669D01*
X376423Y153750D01*
X381582Y153750D01*
X381653Y153761D01*
X381724Y153763D01*
X381773Y153781D01*
X381825Y153789D01*
X381888Y153823D01*
X381955Y153848D01*
X381996Y153880D01*
X382042Y153905D01*
X382091Y153956D01*
X382147Y154001D01*
X382176Y154045D01*
X382211Y154083D01*
X382242Y154148D01*
X382280Y154208D01*
X382293Y154259D01*
X382315Y154306D01*
X382323Y154377D01*
X382340Y154447D01*
X382336Y154499D01*
X382342Y154550D01*
X382327Y154621D01*
X382321Y154692D01*
X382301Y154740D01*
X382290Y154791D01*
X382253Y154852D01*
X382225Y154918D01*
X382180Y154974D01*
X382164Y155002D01*
X382146Y155017D01*
X382120Y155049D01*
X349179Y187990D01*
X349105Y188043D01*
X349036Y188103D01*
X349006Y188115D01*
X348979Y188134D01*
X348892Y188161D01*
X348808Y188195D01*
X348767Y188199D01*
X348744Y188206D01*
X348712Y188205D01*
X348641Y188213D01*
X140963Y188213D01*
X140872Y188199D01*
X140782Y188191D01*
X140752Y188179D01*
X140720Y188174D01*
X140639Y188131D01*
X140555Y188095D01*
X140523Y188069D01*
X140502Y188058D01*
X140480Y188035D01*
X140424Y187990D01*
X116810Y164376D01*
X116757Y164302D01*
X116697Y164232D01*
X116685Y164202D01*
X116666Y164176D01*
X116639Y164089D01*
X116605Y164004D01*
X116601Y163963D01*
X116594Y163941D01*
X116595Y163909D01*
X116587Y163838D01*
X116587Y149751D01*
X116598Y149680D01*
X116600Y149609D01*
X116618Y149560D01*
X116626Y149508D01*
X116660Y149445D01*
X116685Y149378D01*
X116717Y149337D01*
X116742Y149291D01*
X116794Y149242D01*
X116838Y149186D01*
X116882Y149158D01*
X116920Y149122D01*
X116985Y149092D01*
X117045Y149053D01*
X117096Y149040D01*
X117143Y149018D01*
X117214Y149010D01*
X117284Y148993D01*
X117336Y148997D01*
X117387Y148991D01*
X117458Y149006D01*
X117529Y149012D01*
X117577Y149032D01*
X117628Y149043D01*
X117689Y149080D01*
X117755Y149108D01*
X117811Y149153D01*
X117839Y149169D01*
X117854Y149187D01*
X117886Y149213D01*
X122423Y153750D01*
X131577Y153750D01*
X138050Y147277D01*
X138050Y138123D01*
X134402Y134475D01*
X134360Y134417D01*
X134311Y134365D01*
X134289Y134318D01*
X134258Y134276D01*
X134237Y134207D01*
X134207Y134142D01*
X134201Y134090D01*
X134186Y134040D01*
X134188Y133969D01*
X134180Y133898D01*
X134191Y133847D01*
X134192Y133795D01*
X134217Y133727D01*
X134232Y133657D01*
X134259Y133612D01*
X134277Y133564D01*
X134322Y133508D01*
X134358Y133446D01*
X134398Y133412D01*
X134431Y133372D01*
X134491Y133333D01*
X134545Y133286D01*
X134594Y133267D01*
X134637Y133239D01*
X134707Y133221D01*
X134773Y133194D01*
X134845Y133186D01*
X134876Y133178D01*
X134899Y133180D01*
X134940Y133176D01*
X144460Y133176D01*
X144531Y133187D01*
G37*
G36*
X271418Y87391D02*
X271418Y87391D01*
X271508Y87399D01*
X271538Y87411D01*
X271570Y87416D01*
X271651Y87459D01*
X271735Y87495D01*
X271767Y87521D01*
X271788Y87532D01*
X271810Y87555D01*
X271866Y87600D01*
X290479Y106213D01*
X290532Y106287D01*
X290592Y106357D01*
X290604Y106387D01*
X290623Y106413D01*
X290650Y106500D01*
X290684Y106585D01*
X290688Y106626D01*
X290695Y106648D01*
X290694Y106680D01*
X290702Y106752D01*
X290702Y109701D01*
X290691Y109772D01*
X290689Y109843D01*
X290671Y109892D01*
X290663Y109944D01*
X290629Y110007D01*
X290604Y110074D01*
X290572Y110115D01*
X290547Y110161D01*
X290495Y110210D01*
X290451Y110266D01*
X290407Y110295D01*
X290369Y110330D01*
X290304Y110361D01*
X290244Y110399D01*
X290193Y110412D01*
X290146Y110434D01*
X290075Y110442D01*
X290005Y110459D01*
X289953Y110455D01*
X289902Y110461D01*
X289831Y110446D01*
X289760Y110440D01*
X289712Y110420D01*
X289661Y110409D01*
X289600Y110372D01*
X289534Y110344D01*
X289478Y110299D01*
X289450Y110283D01*
X289435Y110265D01*
X289403Y110239D01*
X284398Y105234D01*
X280923Y105234D01*
X280923Y116538D01*
X280920Y116558D01*
X280922Y116577D01*
X280900Y116679D01*
X280883Y116781D01*
X280874Y116798D01*
X280870Y116818D01*
X280817Y116907D01*
X280768Y116998D01*
X280754Y117012D01*
X280744Y117029D01*
X280665Y117096D01*
X280590Y117167D01*
X280572Y117176D01*
X280557Y117189D01*
X280461Y117227D01*
X280367Y117271D01*
X280347Y117273D01*
X280329Y117281D01*
X280162Y117299D01*
X279399Y117299D01*
X279399Y117301D01*
X280162Y117301D01*
X280182Y117304D01*
X280201Y117302D01*
X280303Y117324D01*
X280405Y117341D01*
X280422Y117350D01*
X280442Y117354D01*
X280531Y117407D01*
X280622Y117456D01*
X280636Y117470D01*
X280653Y117480D01*
X280720Y117559D01*
X280791Y117634D01*
X280800Y117652D01*
X280813Y117667D01*
X280852Y117763D01*
X280895Y117857D01*
X280897Y117877D01*
X280905Y117895D01*
X280923Y118062D01*
X280923Y129366D01*
X284398Y129366D01*
X290125Y123639D01*
X290141Y123627D01*
X290153Y123611D01*
X290241Y123555D01*
X290325Y123495D01*
X290344Y123489D01*
X290360Y123478D01*
X290461Y123453D01*
X290560Y123423D01*
X290580Y123423D01*
X290599Y123418D01*
X290702Y123426D01*
X290806Y123429D01*
X290824Y123436D01*
X290844Y123438D01*
X290939Y123478D01*
X291037Y123514D01*
X291052Y123526D01*
X291070Y123534D01*
X291201Y123639D01*
X292265Y124702D01*
X299180Y131617D01*
X299191Y131633D01*
X299207Y131646D01*
X299263Y131733D01*
X299323Y131817D01*
X299329Y131836D01*
X299340Y131853D01*
X299365Y131953D01*
X299396Y132052D01*
X299395Y132072D01*
X299400Y132091D01*
X299392Y132194D01*
X299389Y132298D01*
X299382Y132317D01*
X299381Y132336D01*
X299341Y132431D01*
X299305Y132529D01*
X299292Y132544D01*
X299285Y132563D01*
X299180Y132694D01*
X293750Y138123D01*
X293750Y147277D01*
X299097Y152624D01*
X299139Y152682D01*
X299188Y152734D01*
X299210Y152781D01*
X299241Y152823D01*
X299262Y152892D01*
X299292Y152957D01*
X299298Y153009D01*
X299313Y153059D01*
X299311Y153130D01*
X299319Y153201D01*
X299308Y153252D01*
X299307Y153304D01*
X299282Y153372D01*
X299267Y153442D01*
X299240Y153487D01*
X299222Y153535D01*
X299177Y153591D01*
X299141Y153653D01*
X299101Y153687D01*
X299068Y153727D01*
X299008Y153766D01*
X298954Y153813D01*
X298905Y153832D01*
X298862Y153860D01*
X298792Y153878D01*
X298726Y153905D01*
X298654Y153913D01*
X298623Y153921D01*
X298600Y153919D01*
X298559Y153923D01*
X285641Y153923D01*
X285570Y153912D01*
X285499Y153910D01*
X285450Y153892D01*
X285398Y153884D01*
X285335Y153850D01*
X285268Y153825D01*
X285227Y153793D01*
X285181Y153768D01*
X285132Y153716D01*
X285076Y153672D01*
X285048Y153628D01*
X285012Y153590D01*
X284982Y153525D01*
X284943Y153465D01*
X284930Y153414D01*
X284908Y153367D01*
X284900Y153296D01*
X284883Y153226D01*
X284887Y153174D01*
X284881Y153123D01*
X284896Y153052D01*
X284902Y152981D01*
X284922Y152933D01*
X284933Y152882D01*
X284970Y152821D01*
X284998Y152755D01*
X285043Y152699D01*
X285059Y152671D01*
X285077Y152656D01*
X285103Y152624D01*
X290450Y147277D01*
X290450Y138123D01*
X283977Y131650D01*
X274823Y131650D01*
X268350Y138123D01*
X268350Y147277D01*
X273697Y152624D01*
X273739Y152682D01*
X273788Y152734D01*
X273810Y152781D01*
X273841Y152823D01*
X273862Y152892D01*
X273892Y152957D01*
X273898Y153009D01*
X273913Y153059D01*
X273911Y153130D01*
X273919Y153201D01*
X273908Y153252D01*
X273907Y153304D01*
X273882Y153372D01*
X273867Y153442D01*
X273840Y153487D01*
X273822Y153535D01*
X273777Y153591D01*
X273741Y153653D01*
X273701Y153687D01*
X273668Y153727D01*
X273608Y153766D01*
X273554Y153813D01*
X273505Y153832D01*
X273462Y153860D01*
X273392Y153878D01*
X273326Y153905D01*
X273254Y153913D01*
X273223Y153921D01*
X273200Y153919D01*
X273159Y153923D01*
X260241Y153923D01*
X260170Y153912D01*
X260099Y153910D01*
X260050Y153892D01*
X259998Y153884D01*
X259935Y153850D01*
X259868Y153825D01*
X259827Y153793D01*
X259781Y153768D01*
X259732Y153716D01*
X259676Y153672D01*
X259648Y153628D01*
X259612Y153590D01*
X259582Y153525D01*
X259543Y153465D01*
X259530Y153414D01*
X259508Y153367D01*
X259500Y153296D01*
X259483Y153226D01*
X259487Y153174D01*
X259481Y153123D01*
X259496Y153052D01*
X259502Y152981D01*
X259522Y152933D01*
X259533Y152882D01*
X259570Y152821D01*
X259598Y152755D01*
X259643Y152699D01*
X259659Y152671D01*
X259677Y152656D01*
X259703Y152624D01*
X265050Y147277D01*
X265050Y138123D01*
X258577Y131650D01*
X249423Y131650D01*
X242950Y138123D01*
X242950Y147277D01*
X248297Y152624D01*
X248339Y152682D01*
X248388Y152734D01*
X248410Y152781D01*
X248441Y152823D01*
X248462Y152892D01*
X248492Y152957D01*
X248498Y153009D01*
X248513Y153059D01*
X248511Y153130D01*
X248519Y153201D01*
X248508Y153252D01*
X248507Y153304D01*
X248482Y153372D01*
X248467Y153442D01*
X248440Y153487D01*
X248422Y153535D01*
X248377Y153591D01*
X248341Y153653D01*
X248301Y153687D01*
X248268Y153727D01*
X248208Y153766D01*
X248154Y153813D01*
X248105Y153832D01*
X248062Y153860D01*
X247992Y153878D01*
X247926Y153905D01*
X247854Y153913D01*
X247823Y153921D01*
X247800Y153919D01*
X247759Y153923D01*
X236278Y153923D01*
X236207Y153912D01*
X236136Y153910D01*
X236087Y153892D01*
X236035Y153884D01*
X235972Y153850D01*
X235905Y153825D01*
X235864Y153793D01*
X235818Y153768D01*
X235769Y153716D01*
X235713Y153672D01*
X235684Y153628D01*
X235649Y153590D01*
X235618Y153525D01*
X235580Y153465D01*
X235567Y153414D01*
X235545Y153367D01*
X235537Y153296D01*
X235520Y153226D01*
X235524Y153174D01*
X235518Y153123D01*
X235533Y153052D01*
X235539Y152981D01*
X235559Y152933D01*
X235570Y152882D01*
X235607Y152821D01*
X235635Y152755D01*
X235680Y152699D01*
X235696Y152671D01*
X235714Y152656D01*
X235740Y152624D01*
X240666Y147698D01*
X240666Y144223D01*
X229362Y144223D01*
X229342Y144220D01*
X229323Y144222D01*
X229221Y144200D01*
X229119Y144183D01*
X229102Y144174D01*
X229082Y144170D01*
X228993Y144117D01*
X228902Y144068D01*
X228888Y144054D01*
X228871Y144044D01*
X228804Y143965D01*
X228733Y143890D01*
X228724Y143872D01*
X228711Y143857D01*
X228673Y143761D01*
X228629Y143667D01*
X228627Y143647D01*
X228619Y143629D01*
X228601Y143462D01*
X228601Y142699D01*
X228599Y142699D01*
X228599Y143462D01*
X228596Y143482D01*
X228598Y143501D01*
X228576Y143603D01*
X228559Y143705D01*
X228550Y143722D01*
X228546Y143742D01*
X228493Y143831D01*
X228444Y143922D01*
X228430Y143936D01*
X228420Y143953D01*
X228341Y144020D01*
X228266Y144091D01*
X228248Y144100D01*
X228233Y144113D01*
X228137Y144152D01*
X228043Y144195D01*
X228023Y144197D01*
X228005Y144205D01*
X227838Y144223D01*
X216534Y144223D01*
X216534Y147698D01*
X221460Y152624D01*
X221502Y152682D01*
X221551Y152734D01*
X221573Y152781D01*
X221604Y152823D01*
X221625Y152892D01*
X221655Y152957D01*
X221661Y153009D01*
X221676Y153059D01*
X221674Y153130D01*
X221682Y153201D01*
X221671Y153252D01*
X221670Y153304D01*
X221645Y153372D01*
X221630Y153442D01*
X221603Y153487D01*
X221585Y153535D01*
X221540Y153591D01*
X221504Y153653D01*
X221464Y153687D01*
X221432Y153727D01*
X221371Y153766D01*
X221317Y153813D01*
X221268Y153832D01*
X221225Y153860D01*
X221155Y153878D01*
X221089Y153905D01*
X221017Y153913D01*
X220986Y153921D01*
X220963Y153919D01*
X220922Y153923D01*
X209441Y153923D01*
X209370Y153912D01*
X209299Y153910D01*
X209250Y153892D01*
X209198Y153884D01*
X209135Y153850D01*
X209068Y153825D01*
X209027Y153793D01*
X208981Y153768D01*
X208932Y153716D01*
X208876Y153672D01*
X208848Y153628D01*
X208812Y153590D01*
X208782Y153525D01*
X208743Y153465D01*
X208730Y153414D01*
X208708Y153367D01*
X208700Y153296D01*
X208683Y153226D01*
X208687Y153174D01*
X208681Y153123D01*
X208696Y153052D01*
X208702Y152981D01*
X208722Y152933D01*
X208733Y152882D01*
X208770Y152821D01*
X208798Y152755D01*
X208843Y152699D01*
X208859Y152671D01*
X208877Y152656D01*
X208903Y152624D01*
X214250Y147277D01*
X214250Y138123D01*
X210602Y134475D01*
X210560Y134417D01*
X210511Y134365D01*
X210489Y134318D01*
X210458Y134276D01*
X210437Y134207D01*
X210407Y134142D01*
X210401Y134090D01*
X210386Y134040D01*
X210388Y133969D01*
X210380Y133898D01*
X210391Y133847D01*
X210392Y133795D01*
X210417Y133727D01*
X210432Y133657D01*
X210459Y133612D01*
X210477Y133564D01*
X210522Y133508D01*
X210558Y133446D01*
X210598Y133412D01*
X210631Y133372D01*
X210691Y133333D01*
X210745Y133286D01*
X210794Y133267D01*
X210837Y133239D01*
X210907Y133221D01*
X210973Y133194D01*
X211045Y133186D01*
X211076Y133178D01*
X211099Y133180D01*
X211140Y133176D01*
X215958Y133176D01*
X221865Y127269D01*
X221881Y127257D01*
X221894Y127241D01*
X221981Y127185D01*
X222065Y127125D01*
X222084Y127119D01*
X222101Y127108D01*
X222201Y127083D01*
X222300Y127053D01*
X222320Y127053D01*
X222339Y127048D01*
X222442Y127056D01*
X222546Y127059D01*
X222565Y127066D01*
X222585Y127067D01*
X222679Y127108D01*
X222777Y127143D01*
X222793Y127156D01*
X222811Y127164D01*
X222942Y127269D01*
X224023Y128350D01*
X233177Y128350D01*
X239650Y121877D01*
X239650Y112723D01*
X233177Y106250D01*
X224023Y106250D01*
X217550Y112723D01*
X217550Y121877D01*
X218631Y122958D01*
X218643Y122974D01*
X218659Y122987D01*
X218715Y123074D01*
X218775Y123158D01*
X218781Y123177D01*
X218792Y123194D01*
X218817Y123294D01*
X218847Y123393D01*
X218847Y123413D01*
X218852Y123432D01*
X218844Y123535D01*
X218841Y123639D01*
X218834Y123658D01*
X218833Y123677D01*
X218792Y123772D01*
X218757Y123870D01*
X218744Y123885D01*
X218736Y123904D01*
X218631Y124035D01*
X214287Y128379D01*
X214213Y128432D01*
X214143Y128492D01*
X214113Y128504D01*
X214087Y128523D01*
X214000Y128550D01*
X213915Y128584D01*
X213874Y128588D01*
X213852Y128595D01*
X213820Y128594D01*
X213748Y128602D01*
X209362Y128602D01*
X209291Y128591D01*
X209220Y128589D01*
X209171Y128571D01*
X209119Y128563D01*
X209056Y128529D01*
X208989Y128504D01*
X208948Y128472D01*
X208902Y128447D01*
X208853Y128395D01*
X208797Y128351D01*
X208769Y128307D01*
X208733Y128269D01*
X208703Y128204D01*
X208664Y128144D01*
X208651Y128093D01*
X208629Y128046D01*
X208621Y127975D01*
X208604Y127905D01*
X208608Y127853D01*
X208602Y127802D01*
X208617Y127731D01*
X208623Y127660D01*
X208643Y127612D01*
X208654Y127561D01*
X208691Y127500D01*
X208719Y127434D01*
X208764Y127378D01*
X208780Y127350D01*
X208798Y127335D01*
X208824Y127303D01*
X214250Y121877D01*
X214250Y112723D01*
X207777Y106250D01*
X206248Y106250D01*
X206228Y106247D01*
X206209Y106249D01*
X206107Y106227D01*
X206005Y106211D01*
X205988Y106201D01*
X205968Y106197D01*
X205879Y106144D01*
X205788Y106095D01*
X205774Y106081D01*
X205757Y106071D01*
X205690Y105992D01*
X205618Y105917D01*
X205610Y105899D01*
X205597Y105884D01*
X205558Y105788D01*
X205515Y105694D01*
X205513Y105674D01*
X205505Y105656D01*
X205487Y105489D01*
X205487Y100653D01*
X203924Y99090D01*
X193510Y88676D01*
X193468Y88618D01*
X193419Y88566D01*
X193397Y88519D01*
X193367Y88477D01*
X193346Y88408D01*
X193315Y88343D01*
X193310Y88291D01*
X193294Y88241D01*
X193296Y88170D01*
X193288Y88099D01*
X193299Y88048D01*
X193301Y87996D01*
X193325Y87928D01*
X193340Y87858D01*
X193367Y87813D01*
X193385Y87765D01*
X193430Y87709D01*
X193467Y87647D01*
X193506Y87613D01*
X193539Y87573D01*
X193599Y87534D01*
X193654Y87487D01*
X193702Y87468D01*
X193746Y87440D01*
X193815Y87422D01*
X193882Y87395D01*
X193953Y87387D01*
X193984Y87379D01*
X194008Y87381D01*
X194048Y87377D01*
X271327Y87377D01*
X271418Y87391D01*
G37*
%LPC*%
G36*
X595092Y83345D02*
X595092Y83345D01*
X592281Y86156D01*
X592281Y90131D01*
X595147Y92997D01*
X595200Y93071D01*
X595259Y93140D01*
X595272Y93170D01*
X595290Y93196D01*
X595317Y93283D01*
X595351Y93368D01*
X595356Y93409D01*
X595363Y93432D01*
X595362Y93464D01*
X595370Y93535D01*
X595370Y101791D01*
X596932Y103353D01*
X607333Y113754D01*
X608896Y115317D01*
X638817Y115317D01*
X638908Y115331D01*
X638998Y115339D01*
X639028Y115351D01*
X639060Y115356D01*
X639141Y115399D01*
X639225Y115435D01*
X639257Y115461D01*
X639278Y115472D01*
X639300Y115495D01*
X639356Y115540D01*
X642650Y118834D01*
X642703Y118908D01*
X642763Y118978D01*
X642775Y119008D01*
X642794Y119034D01*
X642821Y119121D01*
X642855Y119206D01*
X642859Y119247D01*
X642866Y119269D01*
X642865Y119301D01*
X642873Y119373D01*
X642873Y153677D01*
X642859Y153768D01*
X642851Y153858D01*
X642839Y153888D01*
X642834Y153920D01*
X642791Y154001D01*
X642755Y154085D01*
X642729Y154117D01*
X642718Y154138D01*
X642695Y154160D01*
X642650Y154216D01*
X636788Y160078D01*
X636714Y160131D01*
X636644Y160191D01*
X636614Y160203D01*
X636588Y160222D01*
X636501Y160249D01*
X636416Y160283D01*
X636375Y160287D01*
X636353Y160294D01*
X636321Y160293D01*
X636249Y160301D01*
X633012Y160301D01*
X630201Y163112D01*
X630201Y167088D01*
X633012Y169899D01*
X636988Y169899D01*
X639799Y167088D01*
X639799Y163851D01*
X639813Y163760D01*
X639821Y163670D01*
X639833Y163640D01*
X639838Y163608D01*
X639881Y163527D01*
X639917Y163443D01*
X639943Y163411D01*
X639954Y163390D01*
X639977Y163368D01*
X640022Y163312D01*
X647447Y155887D01*
X647447Y117163D01*
X641027Y110743D01*
X611106Y110743D01*
X611015Y110729D01*
X610925Y110721D01*
X610895Y110709D01*
X610863Y110704D01*
X610782Y110661D01*
X610698Y110625D01*
X610666Y110599D01*
X610645Y110588D01*
X610623Y110565D01*
X610567Y110520D01*
X600166Y100119D01*
X600113Y100045D01*
X600054Y99976D01*
X600042Y99946D01*
X600023Y99920D01*
X599996Y99833D01*
X599962Y99748D01*
X599957Y99707D01*
X599950Y99684D01*
X599951Y99652D01*
X599943Y99581D01*
X599943Y92382D01*
X599958Y92292D01*
X599965Y92201D01*
X599978Y92171D01*
X599983Y92139D01*
X600026Y92059D01*
X600061Y91975D01*
X600087Y91943D01*
X600098Y91922D01*
X600121Y91900D01*
X600128Y91891D01*
X600136Y91877D01*
X600146Y91870D01*
X600166Y91844D01*
X601879Y90131D01*
X601879Y86156D01*
X599068Y83345D01*
X595092Y83345D01*
G37*
%LPD*%
%LPC*%
G36*
X528823Y106250D02*
X528823Y106250D01*
X522350Y112723D01*
X522350Y121877D01*
X528823Y128350D01*
X537977Y128350D01*
X544450Y121877D01*
X544450Y112723D01*
X537977Y106250D01*
X528823Y106250D01*
G37*
%LPD*%
%LPC*%
G36*
X351023Y106250D02*
X351023Y106250D01*
X344550Y112723D01*
X344550Y121877D01*
X351023Y128350D01*
X360177Y128350D01*
X366650Y121877D01*
X366650Y112723D01*
X360177Y106250D01*
X351023Y106250D01*
G37*
%LPD*%
%LPC*%
G36*
X325623Y106250D02*
X325623Y106250D01*
X319150Y112723D01*
X319150Y121877D01*
X325623Y128350D01*
X334777Y128350D01*
X341250Y121877D01*
X341250Y112723D01*
X334777Y106250D01*
X325623Y106250D01*
G37*
%LPD*%
%LPC*%
G36*
X249423Y106250D02*
X249423Y106250D01*
X242950Y112723D01*
X242950Y121877D01*
X249423Y128350D01*
X258577Y128350D01*
X265050Y121877D01*
X265050Y112723D01*
X258577Y106250D01*
X249423Y106250D01*
G37*
%LPD*%
%LPC*%
G36*
X503423Y106250D02*
X503423Y106250D01*
X496950Y112723D01*
X496950Y121877D01*
X503423Y128350D01*
X512577Y128350D01*
X519050Y121877D01*
X519050Y112723D01*
X512577Y106250D01*
X503423Y106250D01*
G37*
%LPD*%
%LPC*%
G36*
X452623Y106250D02*
X452623Y106250D01*
X446150Y112723D01*
X446150Y121877D01*
X452623Y128350D01*
X461777Y128350D01*
X468250Y121877D01*
X468250Y112723D01*
X461777Y106250D01*
X452623Y106250D01*
G37*
%LPD*%
%LPC*%
G36*
X478023Y131650D02*
X478023Y131650D01*
X471550Y138123D01*
X471550Y147277D01*
X478023Y153750D01*
X487177Y153750D01*
X493650Y147277D01*
X493650Y138123D01*
X487177Y131650D01*
X478023Y131650D01*
G37*
%LPD*%
%LPC*%
G36*
X503423Y131650D02*
X503423Y131650D01*
X496950Y138123D01*
X496950Y147277D01*
X503423Y153750D01*
X512577Y153750D01*
X519050Y147277D01*
X519050Y138123D01*
X512577Y131650D01*
X503423Y131650D01*
G37*
%LPD*%
%LPC*%
G36*
X556812Y269521D02*
X556812Y269521D01*
X554001Y272332D01*
X554001Y276308D01*
X556290Y278597D01*
X556343Y278671D01*
X556403Y278740D01*
X556415Y278770D01*
X556434Y278796D01*
X556461Y278883D01*
X556495Y278968D01*
X556499Y279009D01*
X556506Y279032D01*
X556505Y279064D01*
X556513Y279135D01*
X556513Y295918D01*
X556499Y296008D01*
X556491Y296099D01*
X556479Y296128D01*
X556474Y296160D01*
X556431Y296241D01*
X556395Y296325D01*
X556369Y296357D01*
X556358Y296378D01*
X556335Y296400D01*
X556290Y296456D01*
X547888Y304858D01*
X547814Y304911D01*
X547744Y304971D01*
X547714Y304983D01*
X547688Y305002D01*
X547601Y305029D01*
X547516Y305063D01*
X547475Y305067D01*
X547453Y305074D01*
X547421Y305073D01*
X547349Y305081D01*
X544112Y305081D01*
X541301Y307892D01*
X541301Y311868D01*
X544112Y314679D01*
X548088Y314679D01*
X550899Y311868D01*
X550899Y308631D01*
X550913Y308540D01*
X550921Y308450D01*
X550933Y308420D01*
X550938Y308388D01*
X550981Y308307D01*
X551017Y308223D01*
X551043Y308191D01*
X551054Y308170D01*
X551077Y308148D01*
X551122Y308092D01*
X559524Y299690D01*
X561087Y298127D01*
X561087Y279135D01*
X561101Y279045D01*
X561109Y278954D01*
X561121Y278924D01*
X561126Y278892D01*
X561169Y278812D01*
X561205Y278728D01*
X561231Y278696D01*
X561242Y278675D01*
X561265Y278653D01*
X561310Y278597D01*
X563599Y276308D01*
X563599Y272332D01*
X560788Y269521D01*
X556812Y269521D01*
G37*
%LPD*%
%LPC*%
G36*
X323132Y71401D02*
X323132Y71401D01*
X320321Y74212D01*
X320321Y78188D01*
X321848Y79715D01*
X321901Y79789D01*
X321961Y79858D01*
X321973Y79888D01*
X321992Y79914D01*
X321996Y79927D01*
X340418Y98350D01*
X340471Y98424D01*
X340531Y98493D01*
X340543Y98523D01*
X340562Y98550D01*
X340589Y98637D01*
X340623Y98721D01*
X340627Y98762D01*
X340634Y98785D01*
X340633Y98817D01*
X340641Y98888D01*
X340641Y101048D01*
X343452Y103859D01*
X347428Y103859D01*
X350239Y101048D01*
X350239Y97072D01*
X347428Y94261D01*
X345268Y94261D01*
X345178Y94247D01*
X345087Y94239D01*
X345057Y94227D01*
X345025Y94222D01*
X344945Y94179D01*
X344861Y94143D01*
X344829Y94117D01*
X344808Y94106D01*
X344786Y94083D01*
X344730Y94038D01*
X329937Y79246D01*
X329926Y79230D01*
X329910Y79217D01*
X329854Y79130D01*
X329794Y79046D01*
X329788Y79027D01*
X329777Y79010D01*
X329752Y78910D01*
X329721Y78811D01*
X329722Y78791D01*
X329717Y78772D01*
X329725Y78669D01*
X329728Y78565D01*
X329735Y78546D01*
X329736Y78526D01*
X329777Y78431D01*
X329812Y78334D01*
X329825Y78318D01*
X329832Y78300D01*
X329919Y78192D01*
X329919Y74212D01*
X327108Y71401D01*
X323132Y71401D01*
G37*
%LPD*%
%LPC*%
G36*
X124700Y275871D02*
X124700Y275871D01*
X122411Y278160D01*
X122337Y278213D01*
X122268Y278273D01*
X122238Y278285D01*
X122212Y278304D01*
X122125Y278331D01*
X122040Y278365D01*
X121999Y278369D01*
X121976Y278376D01*
X121944Y278375D01*
X121873Y278383D01*
X96843Y278383D01*
X93228Y281998D01*
X93154Y282051D01*
X93084Y282111D01*
X93054Y282123D01*
X93028Y282142D01*
X92941Y282169D01*
X92856Y282203D01*
X92815Y282207D01*
X92793Y282214D01*
X92761Y282213D01*
X92689Y282221D01*
X89452Y282221D01*
X86641Y285032D01*
X86641Y289008D01*
X89452Y291819D01*
X93428Y291819D01*
X96239Y289008D01*
X96239Y285771D01*
X96253Y285680D01*
X96261Y285590D01*
X96273Y285560D01*
X96278Y285528D01*
X96321Y285447D01*
X96357Y285363D01*
X96383Y285331D01*
X96394Y285310D01*
X96417Y285288D01*
X96462Y285232D01*
X98514Y283180D01*
X98588Y283127D01*
X98658Y283067D01*
X98688Y283055D01*
X98714Y283036D01*
X98801Y283009D01*
X98886Y282975D01*
X98927Y282971D01*
X98949Y282964D01*
X98981Y282965D01*
X99053Y282957D01*
X121873Y282957D01*
X121963Y282971D01*
X122054Y282979D01*
X122084Y282991D01*
X122116Y282996D01*
X122196Y283039D01*
X122280Y283075D01*
X122312Y283101D01*
X122333Y283112D01*
X122355Y283135D01*
X122411Y283180D01*
X124700Y285469D01*
X128676Y285469D01*
X131487Y282658D01*
X131487Y278682D01*
X128676Y275871D01*
X124700Y275871D01*
G37*
%LPD*%
%LPC*%
G36*
X74212Y270791D02*
X74212Y270791D01*
X71401Y273602D01*
X71401Y277578D01*
X72557Y278733D01*
X72568Y278749D01*
X72584Y278762D01*
X72640Y278849D01*
X72700Y278933D01*
X72706Y278952D01*
X72717Y278969D01*
X72742Y279069D01*
X72772Y279168D01*
X72772Y279188D01*
X72777Y279207D01*
X72769Y279310D01*
X72766Y279414D01*
X72759Y279432D01*
X72758Y279452D01*
X72717Y279547D01*
X72682Y279645D01*
X72669Y279660D01*
X72661Y279679D01*
X72557Y279810D01*
X62776Y289590D01*
X62702Y289643D01*
X62632Y289703D01*
X62602Y289715D01*
X62576Y289734D01*
X62489Y289761D01*
X62404Y289795D01*
X62363Y289799D01*
X62341Y289806D01*
X62309Y289805D01*
X62237Y289813D01*
X55615Y289813D01*
X55525Y289799D01*
X55434Y289791D01*
X55404Y289779D01*
X55372Y289774D01*
X55292Y289731D01*
X55208Y289695D01*
X55176Y289669D01*
X55155Y289658D01*
X55133Y289635D01*
X55077Y289590D01*
X52788Y287301D01*
X48812Y287301D01*
X46001Y290112D01*
X46001Y294088D01*
X48812Y296899D01*
X52788Y296899D01*
X55077Y294610D01*
X55151Y294557D01*
X55220Y294497D01*
X55250Y294485D01*
X55276Y294466D01*
X55363Y294439D01*
X55448Y294405D01*
X55489Y294401D01*
X55512Y294394D01*
X55544Y294395D01*
X55615Y294387D01*
X64447Y294387D01*
X78498Y280336D01*
X78501Y280315D01*
X78509Y280224D01*
X78521Y280194D01*
X78526Y280162D01*
X78546Y280125D01*
X78548Y280117D01*
X78568Y280083D01*
X78569Y280082D01*
X78605Y279998D01*
X78631Y279966D01*
X78642Y279945D01*
X78663Y279924D01*
X78674Y279906D01*
X78687Y279895D01*
X78710Y279867D01*
X80999Y277578D01*
X80999Y273602D01*
X78188Y270791D01*
X74212Y270791D01*
G37*
%LPD*%
G36*
X195331Y133187D02*
X195331Y133187D01*
X195402Y133189D01*
X195451Y133207D01*
X195503Y133215D01*
X195566Y133249D01*
X195633Y133274D01*
X195674Y133306D01*
X195720Y133331D01*
X195769Y133383D01*
X195825Y133427D01*
X195853Y133471D01*
X195889Y133509D01*
X195919Y133574D01*
X195958Y133634D01*
X195971Y133685D01*
X195993Y133732D01*
X196001Y133803D01*
X196018Y133873D01*
X196014Y133925D01*
X196020Y133976D01*
X196005Y134047D01*
X195999Y134118D01*
X195979Y134166D01*
X195968Y134217D01*
X195931Y134278D01*
X195903Y134344D01*
X195858Y134400D01*
X195842Y134428D01*
X195824Y134443D01*
X195798Y134475D01*
X192150Y138123D01*
X192150Y147277D01*
X197497Y152624D01*
X197539Y152682D01*
X197588Y152734D01*
X197610Y152781D01*
X197641Y152823D01*
X197662Y152892D01*
X197692Y152957D01*
X197698Y153009D01*
X197713Y153059D01*
X197711Y153130D01*
X197719Y153201D01*
X197708Y153252D01*
X197707Y153304D01*
X197682Y153372D01*
X197667Y153442D01*
X197640Y153487D01*
X197622Y153535D01*
X197577Y153591D01*
X197541Y153653D01*
X197501Y153687D01*
X197468Y153727D01*
X197408Y153766D01*
X197354Y153813D01*
X197305Y153832D01*
X197262Y153860D01*
X197192Y153878D01*
X197126Y153905D01*
X197054Y153913D01*
X197023Y153921D01*
X197000Y153919D01*
X196959Y153923D01*
X185478Y153923D01*
X185407Y153912D01*
X185336Y153910D01*
X185287Y153892D01*
X185235Y153884D01*
X185172Y153850D01*
X185105Y153825D01*
X185064Y153793D01*
X185018Y153768D01*
X184969Y153716D01*
X184913Y153672D01*
X184884Y153628D01*
X184849Y153590D01*
X184818Y153525D01*
X184780Y153465D01*
X184767Y153414D01*
X184745Y153367D01*
X184737Y153296D01*
X184720Y153226D01*
X184724Y153174D01*
X184718Y153123D01*
X184733Y153052D01*
X184739Y152981D01*
X184759Y152933D01*
X184770Y152882D01*
X184807Y152821D01*
X184835Y152755D01*
X184880Y152699D01*
X184896Y152671D01*
X184914Y152656D01*
X184940Y152624D01*
X189866Y147698D01*
X189866Y144223D01*
X178562Y144223D01*
X178542Y144220D01*
X178523Y144222D01*
X178421Y144200D01*
X178319Y144183D01*
X178302Y144174D01*
X178282Y144170D01*
X178193Y144117D01*
X178102Y144068D01*
X178088Y144054D01*
X178071Y144044D01*
X178004Y143965D01*
X177933Y143890D01*
X177924Y143872D01*
X177911Y143857D01*
X177873Y143761D01*
X177829Y143667D01*
X177827Y143647D01*
X177819Y143629D01*
X177801Y143462D01*
X177801Y141938D01*
X177804Y141918D01*
X177802Y141899D01*
X177824Y141797D01*
X177841Y141695D01*
X177850Y141678D01*
X177854Y141658D01*
X177907Y141569D01*
X177956Y141478D01*
X177970Y141464D01*
X177980Y141447D01*
X178059Y141380D01*
X178134Y141309D01*
X178152Y141300D01*
X178167Y141287D01*
X178263Y141248D01*
X178357Y141205D01*
X178377Y141203D01*
X178395Y141195D01*
X178562Y141177D01*
X189866Y141177D01*
X189866Y137702D01*
X186639Y134475D01*
X186597Y134417D01*
X186548Y134365D01*
X186526Y134318D01*
X186495Y134276D01*
X186474Y134207D01*
X186444Y134142D01*
X186438Y134090D01*
X186423Y134040D01*
X186425Y133969D01*
X186417Y133898D01*
X186428Y133847D01*
X186429Y133795D01*
X186454Y133727D01*
X186469Y133657D01*
X186496Y133612D01*
X186514Y133564D01*
X186559Y133508D01*
X186595Y133446D01*
X186635Y133412D01*
X186667Y133372D01*
X186728Y133333D01*
X186782Y133286D01*
X186831Y133267D01*
X186874Y133239D01*
X186944Y133221D01*
X187010Y133194D01*
X187082Y133186D01*
X187113Y133178D01*
X187136Y133180D01*
X187177Y133176D01*
X195260Y133176D01*
X195331Y133187D01*
G37*
G36*
X168494Y133187D02*
X168494Y133187D01*
X168565Y133189D01*
X168614Y133207D01*
X168666Y133215D01*
X168729Y133249D01*
X168796Y133274D01*
X168837Y133306D01*
X168883Y133331D01*
X168932Y133383D01*
X168988Y133427D01*
X169017Y133471D01*
X169052Y133509D01*
X169083Y133574D01*
X169121Y133634D01*
X169134Y133685D01*
X169156Y133732D01*
X169164Y133803D01*
X169181Y133873D01*
X169177Y133925D01*
X169183Y133976D01*
X169168Y134047D01*
X169162Y134118D01*
X169142Y134166D01*
X169131Y134217D01*
X169094Y134278D01*
X169066Y134344D01*
X169021Y134400D01*
X169005Y134428D01*
X168987Y134443D01*
X168961Y134475D01*
X165734Y137702D01*
X165734Y141177D01*
X177038Y141177D01*
X177058Y141180D01*
X177077Y141178D01*
X177179Y141200D01*
X177281Y141217D01*
X177298Y141226D01*
X177318Y141230D01*
X177407Y141283D01*
X177498Y141332D01*
X177512Y141346D01*
X177529Y141356D01*
X177596Y141435D01*
X177667Y141510D01*
X177676Y141528D01*
X177689Y141543D01*
X177727Y141639D01*
X177771Y141733D01*
X177773Y141753D01*
X177781Y141771D01*
X177799Y141938D01*
X177799Y143462D01*
X177796Y143482D01*
X177798Y143501D01*
X177776Y143603D01*
X177759Y143705D01*
X177750Y143722D01*
X177746Y143742D01*
X177693Y143831D01*
X177644Y143922D01*
X177630Y143936D01*
X177620Y143953D01*
X177541Y144020D01*
X177466Y144091D01*
X177448Y144100D01*
X177433Y144113D01*
X177337Y144152D01*
X177243Y144195D01*
X177223Y144197D01*
X177205Y144205D01*
X177038Y144223D01*
X165734Y144223D01*
X165734Y147698D01*
X170660Y152624D01*
X170702Y152682D01*
X170751Y152734D01*
X170773Y152781D01*
X170804Y152823D01*
X170825Y152892D01*
X170855Y152957D01*
X170861Y153009D01*
X170876Y153059D01*
X170874Y153130D01*
X170882Y153201D01*
X170871Y153252D01*
X170870Y153304D01*
X170845Y153372D01*
X170830Y153442D01*
X170803Y153487D01*
X170785Y153535D01*
X170740Y153591D01*
X170704Y153653D01*
X170664Y153687D01*
X170632Y153727D01*
X170571Y153766D01*
X170517Y153813D01*
X170468Y153832D01*
X170425Y153860D01*
X170355Y153878D01*
X170289Y153905D01*
X170217Y153913D01*
X170186Y153921D01*
X170163Y153919D01*
X170122Y153923D01*
X158641Y153923D01*
X158570Y153912D01*
X158499Y153910D01*
X158450Y153892D01*
X158398Y153884D01*
X158335Y153850D01*
X158268Y153825D01*
X158227Y153793D01*
X158181Y153768D01*
X158132Y153716D01*
X158076Y153672D01*
X158048Y153628D01*
X158012Y153590D01*
X157982Y153525D01*
X157943Y153465D01*
X157930Y153414D01*
X157908Y153367D01*
X157900Y153296D01*
X157883Y153226D01*
X157887Y153174D01*
X157881Y153123D01*
X157896Y153052D01*
X157902Y152981D01*
X157922Y152933D01*
X157933Y152882D01*
X157970Y152821D01*
X157998Y152755D01*
X158043Y152699D01*
X158059Y152671D01*
X158077Y152656D01*
X158103Y152624D01*
X163450Y147277D01*
X163450Y138123D01*
X159802Y134475D01*
X159760Y134417D01*
X159711Y134365D01*
X159689Y134318D01*
X159658Y134276D01*
X159637Y134207D01*
X159607Y134142D01*
X159601Y134090D01*
X159586Y134040D01*
X159588Y133969D01*
X159580Y133898D01*
X159591Y133847D01*
X159592Y133795D01*
X159617Y133727D01*
X159632Y133657D01*
X159659Y133612D01*
X159677Y133564D01*
X159722Y133508D01*
X159758Y133446D01*
X159798Y133412D01*
X159831Y133372D01*
X159891Y133333D01*
X159945Y133286D01*
X159994Y133267D01*
X160037Y133239D01*
X160107Y133221D01*
X160173Y133194D01*
X160245Y133186D01*
X160276Y133178D01*
X160299Y133180D01*
X160340Y133176D01*
X168423Y133176D01*
X168494Y133187D01*
G37*
%LPC*%
G36*
X534923Y144223D02*
X534923Y144223D01*
X534923Y154766D01*
X538398Y154766D01*
X545466Y147698D01*
X545466Y144223D01*
X534923Y144223D01*
G37*
%LPD*%
%LPC*%
G36*
X484123Y118823D02*
X484123Y118823D01*
X484123Y129366D01*
X487598Y129366D01*
X494666Y122298D01*
X494666Y118823D01*
X484123Y118823D01*
G37*
%LPD*%
%LPC*%
G36*
X521334Y144223D02*
X521334Y144223D01*
X521334Y147698D01*
X528402Y154766D01*
X531877Y154766D01*
X531877Y144223D01*
X521334Y144223D01*
G37*
%LPD*%
%LPC*%
G36*
X267334Y118823D02*
X267334Y118823D01*
X267334Y122298D01*
X274402Y129366D01*
X277877Y129366D01*
X277877Y118823D01*
X267334Y118823D01*
G37*
%LPD*%
%LPC*%
G36*
X470534Y118823D02*
X470534Y118823D01*
X470534Y122298D01*
X477602Y129366D01*
X481077Y129366D01*
X481077Y118823D01*
X470534Y118823D01*
G37*
%LPD*%
%LPC*%
G36*
X534923Y130634D02*
X534923Y130634D01*
X534923Y141177D01*
X545466Y141177D01*
X545466Y137702D01*
X538398Y130634D01*
X534923Y130634D01*
G37*
%LPD*%
%LPC*%
G36*
X103123Y105234D02*
X103123Y105234D01*
X103123Y115777D01*
X113666Y115777D01*
X113666Y112302D01*
X106598Y105234D01*
X103123Y105234D01*
G37*
%LPD*%
%LPC*%
G36*
X230123Y130634D02*
X230123Y130634D01*
X230123Y141177D01*
X240666Y141177D01*
X240666Y137702D01*
X233598Y130634D01*
X230123Y130634D01*
G37*
%LPD*%
%LPC*%
G36*
X484123Y105234D02*
X484123Y105234D01*
X484123Y115777D01*
X494666Y115777D01*
X494666Y112302D01*
X487598Y105234D01*
X484123Y105234D01*
G37*
%LPD*%
%LPC*%
G36*
X223602Y130634D02*
X223602Y130634D01*
X216534Y137702D01*
X216534Y141177D01*
X227077Y141177D01*
X227077Y130634D01*
X223602Y130634D01*
G37*
%LPD*%
%LPC*%
G36*
X350602Y130634D02*
X350602Y130634D01*
X343534Y137702D01*
X343534Y141177D01*
X354077Y141177D01*
X354077Y130634D01*
X350602Y130634D01*
G37*
%LPD*%
%LPC*%
G36*
X528402Y130634D02*
X528402Y130634D01*
X521334Y137702D01*
X521334Y141177D01*
X531877Y141177D01*
X531877Y130634D01*
X528402Y130634D01*
G37*
%LPD*%
%LPC*%
G36*
X96602Y105234D02*
X96602Y105234D01*
X89534Y112302D01*
X89534Y115777D01*
X100077Y115777D01*
X100077Y105234D01*
X96602Y105234D01*
G37*
%LPD*%
%LPC*%
G36*
X274402Y105234D02*
X274402Y105234D01*
X267334Y112302D01*
X267334Y115777D01*
X277877Y115777D01*
X277877Y105234D01*
X274402Y105234D01*
G37*
%LPD*%
%LPC*%
G36*
X477602Y105234D02*
X477602Y105234D01*
X470534Y112302D01*
X470534Y115777D01*
X481077Y115777D01*
X481077Y105234D01*
X477602Y105234D01*
G37*
%LPD*%
%LPC*%
G36*
X533399Y142699D02*
X533399Y142699D01*
X533399Y142701D01*
X533401Y142701D01*
X533401Y142699D01*
X533399Y142699D01*
G37*
%LPD*%
%LPC*%
G36*
X482599Y117299D02*
X482599Y117299D01*
X482599Y117301D01*
X482601Y117301D01*
X482601Y117299D01*
X482599Y117299D01*
G37*
%LPD*%
D10*
X584200Y117300D03*
X584200Y142700D03*
X558800Y117300D03*
X558800Y142700D03*
X533400Y117300D03*
X533400Y142700D03*
X508000Y117300D03*
X508000Y142700D03*
X482600Y117300D03*
X482600Y142700D03*
X457200Y117300D03*
X457200Y142700D03*
X431800Y117300D03*
X431800Y142700D03*
X406400Y117300D03*
X406400Y142700D03*
X381000Y117300D03*
X381000Y142700D03*
X355600Y117300D03*
X355600Y142700D03*
X330200Y117300D03*
X330200Y142700D03*
X304800Y117300D03*
X304800Y142700D03*
X279400Y117300D03*
X279400Y142700D03*
X254000Y117300D03*
X254000Y142700D03*
X228600Y117300D03*
X228600Y142700D03*
X203200Y117300D03*
X203200Y142700D03*
X177800Y117300D03*
X177800Y142700D03*
X152400Y117300D03*
X152400Y142700D03*
X127000Y117300D03*
X127000Y142700D03*
X101600Y117300D03*
X101600Y142700D03*
D11*
X97153Y188197D02*
X97153Y192803D01*
D12*
X546100Y165100D03*
X635000Y177800D03*
X368300Y203200D03*
X622300Y38100D03*
X558800Y76200D03*
X50800Y254000D03*
X181610Y205740D03*
X419100Y38100D03*
X254000Y76200D03*
X207010Y76200D03*
X38100Y76200D03*
X163830Y283210D03*
X488950Y234950D03*
X609600Y304800D03*
X482600Y304800D03*
X180340Y30480D03*
X394970Y64770D03*
X622300Y254000D03*
X214630Y279400D03*
X85090Y171450D03*
X144780Y168910D03*
X622300Y120650D03*
X660400Y120650D03*
X589280Y227330D03*
X264820Y268450D03*
X215900Y241300D03*
X345440Y99060D03*
X325120Y76200D03*
X203200Y241300D03*
X203200Y207010D03*
D13*
X203200Y241300D01*
D12*
X279400Y234950D03*
D13*
X251460Y207010D01*
X203200Y207010D01*
D12*
X487680Y259560D03*
D13*
X463070Y234950D01*
X317500Y234950D01*
D12*
X521848Y233802D03*
D13*
X317500Y234950D02*
X279400Y234950D01*
D12*
X342900Y215900D03*
X511810Y215900D03*
D11*
X342900Y215900D01*
D12*
X533400Y66040D03*
D11*
X526683Y66040D01*
X526203Y65560D01*
X432740Y65560D01*
X381000Y117300D01*
D13*
X345440Y99060D02*
X325120Y78740D01*
X325120Y76200D01*
X487680Y259560D02*
X513438Y233802D01*
X521848Y233802D01*
D12*
X458470Y177800D03*
D11*
X435181Y154511D01*
X426908Y154511D01*
X419989Y147592D01*
X419989Y139319D01*
X409781Y129111D01*
X401618Y129111D01*
X392811Y137918D02*
X392811Y147592D01*
X392811Y137918D02*
X401618Y129111D01*
X215011Y130889D02*
X122108Y130889D01*
X215011Y130889D02*
X228600Y117300D01*
X139700Y190500D02*
X349903Y190500D01*
X139700Y190500D02*
X114300Y165100D01*
X114300Y138697D02*
X122108Y130889D01*
X349903Y190500D02*
X392811Y147592D01*
X114300Y138697D02*
X114300Y165100D01*
D12*
X76200Y166370D03*
D11*
X125270Y117300D02*
X127000Y117300D01*
X96708Y130889D02*
X89789Y137808D01*
X89789Y152781D02*
X76200Y166370D01*
X111681Y130889D02*
X125270Y117300D01*
X89789Y137808D02*
X89789Y152781D01*
X96708Y130889D02*
X111681Y130889D01*
D12*
X571500Y88900D03*
D11*
X571500Y28702D01*
X523214Y32738D02*
X518187Y32738D01*
X527250Y28702D02*
X571500Y28702D01*
X527250Y28702D02*
X523214Y32738D01*
X518187Y32738D02*
X514151Y28702D01*
X187144Y28702D02*
X182854Y24412D01*
X135608Y24412D01*
X107950Y52070D01*
X96520Y52070D01*
D12*
X96520Y52070D03*
D11*
X187144Y28702D02*
X514151Y28702D01*
D12*
X70330Y63500D03*
D11*
X515620Y11430D02*
X521970Y17780D01*
X521970Y26670D01*
X520700Y26670D01*
D12*
X520700Y26670D03*
D11*
X70330Y18570D02*
X70330Y63500D01*
X70330Y18570D02*
X77470Y11430D01*
X515620Y11430D01*
D12*
X558800Y252730D03*
D11*
X460581Y154511D01*
X452308Y154511D01*
X445389Y147592D01*
X445389Y139319D01*
X435181Y129111D01*
X426908Y129111D01*
X415097Y117300D02*
X406400Y117300D01*
X415097Y117300D02*
X426908Y129111D01*
D12*
X51590Y85090D03*
D11*
X272590Y85090D01*
X292989Y122192D02*
X299908Y129111D01*
X292989Y105489D02*
X272590Y85090D01*
X316611Y129111D02*
X330200Y142700D01*
X292989Y122192D02*
X292989Y105489D01*
X299908Y129111D02*
X316611Y129111D01*
D12*
X543560Y66040D03*
D13*
X515620Y38100D01*
D12*
X444500Y38100D03*
D13*
X515620Y38100D01*
X558800Y142700D02*
X584200Y142700D01*
X571373Y112092D02*
X564008Y104727D01*
X571373Y129873D02*
X584200Y142700D01*
X546227Y104727D02*
X531900Y90400D01*
X571373Y112092D02*
X571373Y129873D01*
X564008Y104727D02*
X546227Y104727D01*
D12*
X447587Y80490D03*
D13*
X457497Y90400D01*
X531900Y90400D01*
D12*
X375920Y248920D03*
D11*
X83820Y248920D01*
X63500Y228600D01*
X63500Y127000D01*
X101600Y88900D02*
X190500Y88900D01*
X203200Y101600D01*
X203200Y117300D01*
X101600Y88900D02*
X63500Y127000D01*
D12*
X546100Y309880D03*
D11*
X558800Y297180D01*
D12*
X558800Y274320D03*
D11*
X558800Y297180D01*
D12*
X292100Y95250D03*
D11*
X313210Y74140D01*
X313210Y73897D01*
X326147Y60960D01*
D12*
X368300Y60960D03*
D11*
X326147Y60960D01*
D12*
X91440Y287020D03*
D11*
X97790Y280670D01*
D12*
X126688Y280670D03*
D11*
X97790Y280670D01*
X597657Y100843D02*
X609843Y113030D01*
X640080Y113030D01*
X645160Y118110D01*
X645160Y154940D02*
X635000Y165100D01*
D12*
X635000Y165100D03*
D11*
X645160Y154940D02*
X645160Y118110D01*
X597657Y88720D02*
X597080Y88143D01*
D12*
X597080Y88143D03*
D11*
X597657Y88720D02*
X597657Y100843D01*
D12*
X50800Y292100D03*
D11*
X63500Y292100D01*
X76200Y279400D01*
X76200Y275590D01*
D12*
X76200Y275590D03*
X517550Y73660D03*
D11*
X367411Y147592D02*
X358793Y156210D01*
X392811Y114186D02*
X433337Y73660D01*
X392811Y114186D02*
X392811Y122192D01*
X384114Y130889D01*
X376108Y130889D01*
X367411Y139586D01*
X367411Y147592D01*
X433337Y73660D02*
X517550Y73660D01*
D12*
X139700Y156210D03*
D11*
X358793Y156210D01*
D12*
X317500Y177800D03*
D11*
X345900Y177800D01*
X381000Y142700D01*
M02*
