G04 EAGLE Gerber RS-274X export*
G75*
%MOMM*%
%FSLAX34Y34*%
%LPD*%
%INBottom Copper*%
%IPPOS*%
%AMOC8*
5,1,8,0,0,1.08239X$1,22.5*%
G01*
%ADD10P,2.061953X8X202.500000*%
%ADD11C,0.304800*%
%ADD12C,0.654800*%
%ADD13C,0.152400*%


D10*
X584200Y117300D03*
X584200Y142700D03*
X558800Y117300D03*
X558800Y142700D03*
X533400Y117300D03*
X533400Y142700D03*
X508000Y117300D03*
X508000Y142700D03*
X482600Y117300D03*
X482600Y142700D03*
X457200Y117300D03*
X457200Y142700D03*
X431800Y117300D03*
X431800Y142700D03*
X406400Y117300D03*
X406400Y142700D03*
X381000Y117300D03*
X381000Y142700D03*
X355600Y117300D03*
X355600Y142700D03*
X330200Y117300D03*
X330200Y142700D03*
X304800Y117300D03*
X304800Y142700D03*
X279400Y117300D03*
X279400Y142700D03*
X254000Y117300D03*
X254000Y142700D03*
X228600Y117300D03*
X228600Y142700D03*
X203200Y117300D03*
X203200Y142700D03*
X177800Y117300D03*
X177800Y142700D03*
X152400Y117300D03*
X152400Y142700D03*
X127000Y117300D03*
X127000Y142700D03*
X101600Y117300D03*
X101600Y142700D03*
D11*
X482600Y117300D02*
X495427Y130127D01*
X525781Y142700D02*
X533400Y142700D01*
X513208Y130127D02*
X495427Y130127D01*
X513208Y130127D02*
X525781Y142700D01*
D12*
X69850Y212090D03*
D13*
X69850Y184150D01*
X81280Y172720D01*
X83820Y172720D01*
D12*
X83820Y172720D03*
D13*
X83820Y135080D01*
X101600Y117300D01*
D12*
X165890Y280670D03*
X205740Y280670D03*
D13*
X165890Y280670D01*
D12*
X431800Y306070D03*
D13*
X387350Y261620D01*
D12*
X387350Y254480D03*
D13*
X387350Y261620D01*
D12*
X285750Y45720D03*
D13*
X297180Y57150D01*
D12*
X311150Y57150D03*
D13*
X297180Y57150D01*
X311150Y57150D02*
X342900Y57150D01*
X382578Y17472D02*
X385118Y17472D01*
D12*
X385118Y17472D03*
D13*
X382578Y17472D02*
X342900Y57150D01*
D12*
X207010Y34290D03*
D13*
X190500Y50800D01*
D12*
X190500Y69850D03*
D13*
X190500Y50800D01*
X207010Y34290D02*
X245110Y34290D01*
X254000Y25400D01*
X254000Y22860D01*
D12*
X254000Y22860D03*
X590302Y215900D03*
D13*
X603250Y215900D01*
X624840Y237490D01*
X624840Y243360D01*
X624360Y243840D01*
D12*
X624360Y243840D03*
D13*
X557300Y166600D02*
X533400Y142700D01*
X557300Y166600D02*
X590302Y199602D01*
X590302Y215900D01*
D12*
X571500Y165100D03*
D13*
X558800Y165100D01*
X557300Y166600D01*
X571500Y165100D02*
X582089Y154511D01*
X589092Y154511D01*
X614680Y128923D01*
X614680Y119070D02*
X615160Y118590D01*
D12*
X615160Y118590D03*
D13*
X614680Y119070D02*
X614680Y128923D01*
D12*
X291017Y128083D03*
D13*
X147508Y130889D02*
X140589Y137808D01*
X102849Y184940D02*
X100410Y184940D01*
X97153Y188197D01*
X97153Y192803D01*
X100410Y196060D01*
X288211Y130889D02*
X291017Y128083D01*
X140589Y137808D02*
X140589Y147200D01*
X102849Y184940D01*
X100410Y196060D02*
X284960Y196060D01*
X288211Y130889D02*
X147508Y130889D01*
X284960Y196060D02*
X292100Y203200D01*
X299720Y203200D01*
D12*
X299720Y203200D03*
X392878Y129988D03*
D13*
X393779Y130889D01*
X423103Y142700D02*
X431800Y142700D01*
X411292Y130889D02*
X393779Y130889D01*
X411292Y130889D02*
X423103Y142700D01*
X240030Y280670D02*
X205740Y280670D01*
X240030Y280670D02*
X246380Y274320D01*
X246380Y270510D01*
D12*
X246380Y270510D03*
X321310Y190500D03*
D13*
X334010Y203200D01*
X420218Y203200D02*
X421460Y201958D01*
D12*
X421460Y201958D03*
D13*
X420218Y203200D02*
X334010Y203200D01*
D12*
X345440Y99060D03*
D11*
X331470Y99060D01*
X318770Y86360D01*
X318770Y76200D01*
D12*
X318770Y76200D03*
X203200Y241300D03*
X203200Y207010D03*
D11*
X203200Y241300D01*
D12*
X279400Y234950D03*
D11*
X251460Y207010D01*
X203200Y207010D01*
D12*
X487680Y259560D03*
D11*
X463070Y234950D01*
X279400Y234950D01*
X487680Y259560D02*
X518640Y228600D01*
X526807Y228600D02*
X526928Y228722D01*
D12*
X526928Y228722D03*
D11*
X526807Y228600D02*
X518640Y228600D01*
D12*
X342900Y215900D03*
X511810Y215900D03*
D13*
X342900Y215900D01*
D12*
X533400Y66040D03*
D13*
X526683Y66040D01*
X526203Y65560D01*
X432740Y65560D01*
X381000Y117300D01*
D12*
X444500Y177800D03*
D11*
X427990Y161290D01*
D12*
X181610Y161290D03*
D11*
X427990Y161290D01*
D12*
X50800Y25400D03*
D13*
X50800Y12700D02*
X60198Y3302D01*
X50800Y12700D02*
X50800Y25400D01*
X60198Y3302D02*
X546100Y3302D01*
X571500Y28702D01*
D12*
X571500Y88900D03*
D13*
X571500Y28702D01*
D12*
X67790Y63500D03*
D13*
X515620Y11430D02*
X521970Y17780D01*
X521970Y26670D01*
X520700Y26670D01*
D12*
X520700Y26670D03*
D13*
X67790Y21110D02*
X67790Y63500D01*
X67790Y21110D02*
X77470Y11430D01*
X515620Y11430D01*
D12*
X558800Y252730D03*
D13*
X460581Y154511D01*
X452308Y154511D01*
X445389Y147592D01*
X445389Y139319D01*
X435181Y129111D01*
X426908Y129111D01*
X415097Y117300D02*
X406400Y117300D01*
X415097Y117300D02*
X426908Y129111D01*
D12*
X56670Y85090D03*
D13*
X272590Y85090D01*
X292989Y122192D02*
X299908Y129111D01*
X292989Y105489D02*
X272590Y85090D01*
X316611Y129111D02*
X330200Y142700D01*
X292989Y122192D02*
X292989Y105489D01*
X299908Y129111D02*
X316611Y129111D01*
D12*
X543560Y66040D03*
D11*
X515620Y38100D01*
D12*
X444500Y38100D03*
D11*
X515620Y38100D01*
X558800Y142700D02*
X584200Y142700D01*
X571373Y112092D02*
X564008Y104727D01*
X571373Y129873D02*
X584200Y142700D01*
X546227Y104727D02*
X517700Y76200D01*
X571373Y112092D02*
X571373Y129873D01*
X564008Y104727D02*
X546227Y104727D01*
X454417Y76200D02*
X453937Y76680D01*
D12*
X453937Y76680D03*
D11*
X454417Y76200D02*
X517700Y76200D01*
D12*
X414020Y248920D03*
D13*
X83820Y248920D01*
X63500Y228600D01*
X63500Y127000D01*
X101600Y88900D01*
X190500Y88900D01*
X190500Y90650D01*
D12*
X190500Y90650D03*
X546100Y309880D03*
D13*
X558800Y297180D01*
D12*
X558800Y274320D03*
D13*
X558800Y297180D01*
D12*
X292100Y95250D03*
D13*
X313210Y74140D01*
X313210Y73897D01*
X326147Y60960D01*
D12*
X368300Y60960D03*
D13*
X326147Y60960D01*
D12*
X91440Y287020D03*
D13*
X97790Y280670D01*
X127000Y280670D01*
X127000Y279400D01*
D12*
X127000Y279400D03*
X597588Y100775D03*
D13*
X609843Y113030D01*
X640080Y113030D01*
X645160Y118110D01*
X645160Y154940D02*
X635000Y165100D01*
D12*
X635000Y165100D03*
D13*
X645160Y154940D02*
X645160Y118110D01*
D12*
X50800Y292100D03*
D13*
X63500Y292100D01*
X76200Y279400D01*
X76200Y275590D01*
D12*
X76200Y275590D03*
X523900Y71120D03*
D13*
X367411Y147592D02*
X360492Y154511D01*
X392811Y114186D02*
X435877Y71120D01*
X392811Y114186D02*
X392811Y122192D01*
X384114Y130889D01*
X376108Y130889D01*
X367411Y139586D01*
X367411Y147592D01*
X435877Y71120D02*
X523900Y71120D01*
X137589Y154511D02*
X101600Y190500D01*
X102713Y190500D01*
D12*
X102713Y190500D03*
D13*
X137589Y154511D02*
X360492Y154511D01*
M02*
