G04 EAGLE Gerber RS-274X export*
G75*
%MOMM*%
%FSLAX34Y34*%
%LPD*%
%INSilkscreen Bottom*%
%IPPOS*%
%AMOC8*
5,1,8,0,0,1.08239X$1,22.5*%
G01*
%ADD10C,0.152400*%
%ADD11C,0.127000*%


D10*
X596900Y110950D02*
X590550Y104600D01*
X577850Y104600D01*
X571500Y110950D01*
X565150Y104600D01*
X552450Y104600D01*
X546100Y110950D01*
X539750Y104600D01*
X527050Y104600D01*
X520700Y110950D01*
X514350Y104600D01*
X501650Y104600D01*
X495300Y110950D01*
X488950Y104600D01*
X476250Y104600D01*
X469900Y110950D01*
X463550Y104600D01*
X450850Y104600D01*
X444500Y110950D01*
X596900Y110950D02*
X596900Y149050D01*
X590550Y155400D01*
X577850Y155400D01*
X571500Y149050D01*
X565150Y155400D01*
X552450Y155400D01*
X546100Y149050D01*
X539750Y155400D01*
X527050Y155400D01*
X520700Y149050D01*
X514350Y155400D01*
X501650Y155400D01*
X495300Y149050D01*
X488950Y155400D01*
X476250Y155400D01*
X469900Y149050D01*
X463550Y155400D01*
X450850Y155400D01*
X444500Y149050D01*
X438150Y155400D01*
X425450Y155400D01*
X419100Y149050D01*
X412750Y155400D01*
X400050Y155400D01*
X393700Y149050D01*
X387350Y155400D01*
X374650Y155400D01*
X368300Y149050D01*
X361950Y155400D01*
X349250Y155400D01*
X342900Y149050D01*
X336550Y155400D01*
X323850Y155400D01*
X317500Y149050D01*
X311150Y155400D01*
X298450Y155400D01*
X292100Y149050D01*
X285750Y155400D01*
X273050Y155400D01*
X266700Y149050D01*
X260350Y155400D01*
X247650Y155400D01*
X241300Y149050D01*
X234950Y155400D01*
X222250Y155400D01*
X215900Y149050D01*
X209550Y155400D01*
X196850Y155400D01*
X190500Y149050D01*
X184150Y155400D01*
X171450Y155400D01*
X165100Y149050D01*
X158750Y155400D01*
X146050Y155400D01*
X139700Y149050D01*
X133350Y155400D01*
X120650Y155400D01*
X114300Y149050D01*
X114300Y110950D02*
X120650Y104600D01*
X133350Y104600D01*
X139700Y110950D01*
X146050Y104600D01*
X158750Y104600D01*
X165100Y110950D01*
X171450Y104600D01*
X184150Y104600D01*
X190500Y110950D01*
X196850Y104600D01*
X209550Y104600D01*
X215900Y110950D01*
X222250Y104600D01*
X234950Y104600D01*
X241300Y110950D01*
X247650Y104600D01*
X260350Y104600D01*
X266700Y110950D01*
X273050Y104600D01*
X285750Y104600D01*
X292100Y110950D01*
X298450Y104600D01*
X311150Y104600D01*
X317500Y110950D01*
X323850Y104600D01*
X336550Y104600D01*
X342900Y110950D01*
X349250Y104600D01*
X361950Y104600D01*
X368300Y110950D01*
X374650Y104600D01*
X387350Y104600D01*
X393700Y110950D01*
X400050Y104600D01*
X412750Y104600D01*
X419100Y110950D01*
X425450Y104600D01*
X438150Y104600D01*
X444500Y110950D01*
X571500Y110950D02*
X571500Y149050D01*
X546100Y149050D02*
X546100Y110950D01*
X520700Y110950D02*
X520700Y149050D01*
X495300Y149050D02*
X495300Y110950D01*
X469900Y110950D02*
X469900Y149050D01*
X444500Y149050D02*
X444500Y110950D01*
X419100Y110950D02*
X419100Y149050D01*
X393700Y149050D02*
X393700Y110950D01*
X368300Y110950D02*
X368300Y149050D01*
X342900Y149050D02*
X342900Y110950D01*
X317500Y110950D02*
X317500Y149050D01*
X292100Y149050D02*
X292100Y110950D01*
X266700Y110950D02*
X266700Y149050D01*
X241300Y149050D02*
X241300Y110950D01*
X215900Y110950D02*
X215900Y149050D01*
X190500Y149050D02*
X190500Y110950D01*
X165100Y110950D02*
X165100Y149050D01*
X139700Y149050D02*
X139700Y110950D01*
X114300Y110950D02*
X114300Y149050D01*
X107950Y155400D01*
X95250Y155400D01*
X88900Y149050D01*
X88900Y110950D02*
X95250Y104600D01*
X107950Y104600D01*
X114300Y110950D01*
X88900Y110950D02*
X88900Y149050D01*
D11*
X592455Y164925D02*
X592455Y173815D01*
X592455Y164925D02*
X592457Y164825D01*
X592463Y164726D01*
X592473Y164626D01*
X592486Y164528D01*
X592504Y164429D01*
X592525Y164332D01*
X592550Y164236D01*
X592579Y164140D01*
X592612Y164046D01*
X592648Y163953D01*
X592688Y163862D01*
X592732Y163772D01*
X592779Y163684D01*
X592829Y163598D01*
X592883Y163514D01*
X592940Y163432D01*
X593000Y163353D01*
X593064Y163275D01*
X593130Y163201D01*
X593199Y163129D01*
X593271Y163060D01*
X593345Y162994D01*
X593423Y162930D01*
X593502Y162870D01*
X593584Y162813D01*
X593668Y162759D01*
X593754Y162709D01*
X593842Y162662D01*
X593932Y162618D01*
X594023Y162578D01*
X594116Y162542D01*
X594210Y162509D01*
X594306Y162480D01*
X594402Y162455D01*
X594499Y162434D01*
X594598Y162416D01*
X594696Y162403D01*
X594796Y162393D01*
X594895Y162387D01*
X594995Y162385D01*
X596265Y162385D01*
X586475Y162385D02*
X586475Y173815D01*
X583300Y173815D01*
X583189Y173813D01*
X583079Y173807D01*
X582968Y173798D01*
X582858Y173784D01*
X582749Y173767D01*
X582640Y173746D01*
X582532Y173721D01*
X582425Y173692D01*
X582319Y173660D01*
X582214Y173624D01*
X582111Y173584D01*
X582009Y173541D01*
X581908Y173494D01*
X581809Y173443D01*
X581713Y173390D01*
X581618Y173333D01*
X581525Y173272D01*
X581434Y173209D01*
X581345Y173142D01*
X581259Y173072D01*
X581176Y172999D01*
X581094Y172924D01*
X581016Y172846D01*
X580941Y172764D01*
X580868Y172681D01*
X580798Y172595D01*
X580731Y172506D01*
X580668Y172415D01*
X580607Y172322D01*
X580550Y172228D01*
X580497Y172131D01*
X580446Y172032D01*
X580399Y171931D01*
X580356Y171829D01*
X580316Y171726D01*
X580280Y171621D01*
X580248Y171515D01*
X580219Y171408D01*
X580194Y171300D01*
X580173Y171191D01*
X580156Y171082D01*
X580142Y170972D01*
X580133Y170861D01*
X580127Y170751D01*
X580125Y170640D01*
X580127Y170529D01*
X580133Y170419D01*
X580142Y170308D01*
X580156Y170198D01*
X580173Y170089D01*
X580194Y169980D01*
X580219Y169872D01*
X580248Y169765D01*
X580280Y169659D01*
X580316Y169554D01*
X580356Y169451D01*
X580399Y169349D01*
X580446Y169248D01*
X580497Y169149D01*
X580550Y169053D01*
X580607Y168958D01*
X580668Y168865D01*
X580731Y168774D01*
X580798Y168685D01*
X580868Y168599D01*
X580941Y168516D01*
X581016Y168434D01*
X581094Y168356D01*
X581176Y168281D01*
X581259Y168208D01*
X581345Y168138D01*
X581434Y168071D01*
X581525Y168008D01*
X581618Y167947D01*
X581713Y167890D01*
X581809Y167837D01*
X581908Y167786D01*
X582009Y167739D01*
X582111Y167696D01*
X582214Y167656D01*
X582319Y167620D01*
X582425Y167588D01*
X582532Y167559D01*
X582640Y167534D01*
X582749Y167513D01*
X582858Y167496D01*
X582968Y167482D01*
X583079Y167473D01*
X583189Y167467D01*
X583300Y167465D01*
X586475Y167465D01*
X572124Y173816D02*
X572020Y173814D01*
X571915Y173808D01*
X571811Y173799D01*
X571708Y173786D01*
X571605Y173768D01*
X571503Y173748D01*
X571401Y173723D01*
X571301Y173695D01*
X571201Y173663D01*
X571103Y173627D01*
X571006Y173588D01*
X570911Y173546D01*
X570817Y173500D01*
X570725Y173450D01*
X570635Y173398D01*
X570547Y173342D01*
X570461Y173282D01*
X570377Y173220D01*
X570296Y173155D01*
X570217Y173087D01*
X570140Y173015D01*
X570067Y172942D01*
X569995Y172865D01*
X569927Y172786D01*
X569862Y172705D01*
X569800Y172621D01*
X569740Y172535D01*
X569684Y172447D01*
X569632Y172357D01*
X569582Y172265D01*
X569536Y172171D01*
X569494Y172076D01*
X569455Y171979D01*
X569419Y171881D01*
X569387Y171781D01*
X569359Y171681D01*
X569334Y171579D01*
X569314Y171477D01*
X569296Y171374D01*
X569283Y171271D01*
X569274Y171167D01*
X569268Y171062D01*
X569266Y170958D01*
X572124Y173815D02*
X572242Y173813D01*
X572361Y173807D01*
X572479Y173798D01*
X572596Y173785D01*
X572713Y173767D01*
X572830Y173747D01*
X572946Y173722D01*
X573061Y173694D01*
X573174Y173661D01*
X573287Y173626D01*
X573399Y173586D01*
X573509Y173544D01*
X573618Y173497D01*
X573726Y173447D01*
X573831Y173394D01*
X573935Y173337D01*
X574037Y173277D01*
X574137Y173214D01*
X574235Y173147D01*
X574331Y173078D01*
X574424Y173005D01*
X574515Y172929D01*
X574604Y172851D01*
X574690Y172769D01*
X574773Y172685D01*
X574854Y172599D01*
X574931Y172509D01*
X575006Y172418D01*
X575078Y172324D01*
X575147Y172227D01*
X575212Y172129D01*
X575275Y172028D01*
X575334Y171925D01*
X575390Y171821D01*
X575442Y171715D01*
X575491Y171607D01*
X575536Y171498D01*
X575578Y171387D01*
X575616Y171275D01*
X570218Y168736D02*
X570142Y168811D01*
X570067Y168890D01*
X569996Y168971D01*
X569927Y169055D01*
X569862Y169141D01*
X569800Y169229D01*
X569740Y169319D01*
X569684Y169411D01*
X569631Y169506D01*
X569582Y169602D01*
X569536Y169700D01*
X569493Y169799D01*
X569454Y169900D01*
X569419Y170002D01*
X569387Y170105D01*
X569359Y170209D01*
X569334Y170314D01*
X569313Y170421D01*
X569296Y170527D01*
X569283Y170634D01*
X569274Y170742D01*
X569268Y170850D01*
X569266Y170958D01*
X570219Y168735D02*
X575616Y162385D01*
X569266Y162385D01*
X564186Y171275D02*
X561011Y173815D01*
X561011Y162385D01*
X564186Y162385D02*
X557836Y162385D01*
M02*
