G75*
%MOIN*%
%OFA0B0*%
%FSLAX25Y25*%
%IPPOS*%
%LPD*%
%AMOC8*
5,1,8,0,0,1.08239X$1,22.5*
%
%ADD10C,0.07050*%
%ADD11OC8,0.05200*%
%ADD12C,0.06000*%
%ADD13R,0.09449X0.09449*%
%ADD14R,0.12661X0.12661*%
%ADD15OC8,0.06600*%
%ADD16OC8,0.06000*%
%ADD17OC8,0.12500*%
%ADD18R,0.15000X0.15000*%
%ADD19C,0.15000*%
%ADD20C,0.05200*%
%ADD21OC8,0.06300*%
%ADD22C,0.06300*%
%ADD23C,0.07087*%
%ADD24C,0.04000*%
%ADD25C,0.01600*%
%ADD26C,0.01200*%
%ADD27C,0.02400*%
%ADD28C,0.03562*%
%ADD29C,0.05000*%
%ADD30C,0.03200*%
D10*
X0560225Y0505000D02*
X0567275Y0505000D01*
X0567275Y0525000D02*
X0560225Y0525000D01*
X0560225Y0565000D02*
X0567275Y0565000D01*
X0567275Y0585000D02*
X0560225Y0585000D01*
X0701475Y0585000D02*
X0708525Y0585000D01*
X0708525Y0565000D02*
X0701475Y0565000D01*
X0701475Y0525000D02*
X0708525Y0525000D01*
X0708525Y0505000D02*
X0701475Y0505000D01*
X0840225Y0505000D02*
X0847275Y0505000D01*
X0847275Y0525000D02*
X0840225Y0525000D01*
X0840225Y0565000D02*
X0847275Y0565000D01*
X0847275Y0585000D02*
X0840225Y0585000D01*
X0362500Y0578525D02*
X0362500Y0571475D01*
X0342500Y0571475D02*
X0342500Y0578525D01*
X0302500Y0578525D02*
X0302500Y0571475D01*
X0282500Y0571475D02*
X0282500Y0578525D01*
D11*
X0323750Y0510000D03*
X0333750Y0510000D03*
X0343750Y0510000D03*
X0353750Y0510000D03*
X0353750Y0480000D03*
X0343750Y0480000D03*
X0333750Y0480000D03*
X0323750Y0480000D03*
X0333750Y0457500D03*
X0343750Y0457500D03*
X0350000Y0435000D03*
X0350000Y0425000D03*
X0350000Y0415000D03*
X0350000Y0405000D03*
X0350000Y0395000D03*
X0365000Y0395000D03*
X0365000Y0405000D03*
X0365000Y0415000D03*
X0365000Y0425000D03*
X0365000Y0435000D03*
X0385000Y0435000D03*
X0385000Y0425000D03*
X0385000Y0415000D03*
X0385000Y0405000D03*
X0385000Y0395000D03*
X0385000Y0385000D03*
X0365000Y0385000D03*
X0350000Y0385000D03*
X0547500Y0335000D03*
X0547500Y0320000D03*
X0547500Y0305000D03*
X0567500Y0305000D03*
X0567500Y0320000D03*
X0567500Y0335000D03*
X0687500Y0335000D03*
X0707500Y0335000D03*
X0707500Y0320000D03*
X0687500Y0320000D03*
X0687500Y0305000D03*
X0707500Y0305000D03*
X0827500Y0306250D03*
X0827500Y0321250D03*
X0827500Y0335000D03*
X0847500Y0335000D03*
X0847500Y0321250D03*
X0847500Y0306250D03*
X0850000Y0600000D03*
X0833750Y0600000D03*
X0833750Y0610000D03*
X0850000Y0610000D03*
X0817500Y0610000D03*
X0801250Y0610000D03*
X0801250Y0600000D03*
X0817500Y0600000D03*
X0710000Y0600000D03*
X0710000Y0610000D03*
X0693750Y0610000D03*
X0677500Y0610000D03*
X0677500Y0600000D03*
X0693750Y0600000D03*
X0661250Y0600000D03*
X0661250Y0610000D03*
X0540000Y0610000D03*
X0523750Y0610000D03*
X0523750Y0600000D03*
X0540000Y0600000D03*
X0507500Y0600000D03*
X0491250Y0600000D03*
X0491250Y0610000D03*
X0507500Y0610000D03*
X0420000Y0610000D03*
X0420000Y0620000D03*
X0390000Y0620000D03*
X0390000Y0610000D03*
X0390000Y0600000D03*
X0420000Y0600000D03*
D12*
X0288000Y0540000D02*
X0282000Y0540000D01*
X0282000Y0530000D02*
X0288000Y0530000D01*
X0288000Y0520000D02*
X0282000Y0520000D01*
X0297000Y0460000D02*
X0303000Y0460000D01*
X0303000Y0450000D02*
X0297000Y0450000D01*
D13*
X0450000Y0375000D03*
X0465000Y0375000D03*
X0480000Y0375000D03*
X0620000Y0375000D03*
X0635000Y0375000D03*
X0650000Y0375000D03*
X0760000Y0375000D03*
X0775000Y0375000D03*
X0790000Y0375000D03*
X0775000Y0575000D03*
X0745000Y0575000D03*
X0805000Y0575000D03*
X0665000Y0575000D03*
X0635000Y0575000D03*
X0605000Y0575000D03*
X0495000Y0575000D03*
X0465000Y0575000D03*
X0435000Y0575000D03*
D14*
X0435000Y0375000D03*
X0495000Y0375000D03*
X0605000Y0375000D03*
X0665000Y0375000D03*
X0745000Y0375000D03*
X0805000Y0375000D03*
D15*
X0843750Y0456250D03*
X0843750Y0486250D03*
X0370000Y0483750D03*
X0370000Y0453750D03*
D16*
X0310000Y0425000D03*
X0300000Y0425000D03*
X0300000Y0415000D03*
X0310000Y0415000D03*
X0310000Y0405000D03*
X0300000Y0405000D03*
X0300000Y0395000D03*
X0310000Y0395000D03*
X0310000Y0385000D03*
X0300000Y0385000D03*
X0300000Y0375000D03*
X0310000Y0375000D03*
X0310000Y0365000D03*
X0300000Y0365000D03*
X0563750Y0350000D03*
X0563750Y0440000D03*
X0705000Y0440000D03*
X0705000Y0350000D03*
X0843750Y0350000D03*
X0843750Y0440000D03*
D17*
X0805000Y0335000D03*
X0790000Y0335000D03*
X0790000Y0320000D03*
X0805000Y0320000D03*
X0805000Y0305000D03*
X0790000Y0305000D03*
X0775000Y0305000D03*
X0760000Y0305000D03*
X0760000Y0320000D03*
X0775000Y0320000D03*
X0775000Y0335000D03*
X0760000Y0335000D03*
X0665000Y0335000D03*
X0665000Y0320000D03*
X0665000Y0305000D03*
X0650000Y0305000D03*
X0635000Y0305000D03*
X0635000Y0320000D03*
X0650000Y0320000D03*
X0650000Y0335000D03*
X0635000Y0335000D03*
X0620000Y0335000D03*
X0620000Y0320000D03*
X0620000Y0305000D03*
X0525000Y0305000D03*
X0510000Y0305000D03*
X0510000Y0320000D03*
X0525000Y0320000D03*
X0525000Y0335000D03*
X0510000Y0335000D03*
X0495000Y0335000D03*
X0480000Y0335000D03*
X0480000Y0320000D03*
X0495000Y0320000D03*
X0495000Y0305000D03*
X0480000Y0305000D03*
X0455000Y0305000D03*
X0455000Y0320000D03*
X0455000Y0335000D03*
X0440000Y0335000D03*
X0425000Y0335000D03*
X0410000Y0335000D03*
X0410000Y0320000D03*
X0425000Y0320000D03*
X0440000Y0320000D03*
X0440000Y0305000D03*
X0425000Y0305000D03*
X0410000Y0305000D03*
X0395000Y0305000D03*
X0380000Y0305000D03*
X0380000Y0320000D03*
X0395000Y0320000D03*
X0395000Y0335000D03*
X0380000Y0335000D03*
X0365000Y0335000D03*
X0365000Y0320000D03*
X0365000Y0305000D03*
D18*
X0330000Y0605000D03*
D19*
X0361047Y0605000D03*
D20*
X0455000Y0607400D02*
X0455000Y0612600D01*
X0465000Y0612600D02*
X0465000Y0607400D01*
X0475000Y0607400D02*
X0475000Y0612600D01*
X0346350Y0520000D02*
X0341150Y0520000D01*
X0316350Y0520000D02*
X0311150Y0520000D01*
X0625000Y0607400D02*
X0625000Y0612600D01*
X0635000Y0612600D02*
X0635000Y0607400D01*
X0645000Y0607400D02*
X0645000Y0612600D01*
X0765000Y0612600D02*
X0765000Y0607400D01*
X0775000Y0607400D02*
X0775000Y0612600D01*
X0785000Y0612600D02*
X0785000Y0607400D01*
D21*
X0300000Y0481750D03*
D22*
X0300000Y0495750D03*
D23*
X0312500Y0313543D02*
X0312500Y0306457D01*
X0322500Y0306457D02*
X0322500Y0313543D01*
X0332500Y0313543D02*
X0332500Y0306457D01*
X0342500Y0306457D02*
X0342500Y0313543D01*
D24*
X0312500Y0310000D02*
X0285000Y0337500D01*
X0285000Y0445000D01*
X0290000Y0450000D01*
X0300000Y0450000D01*
X0300000Y0460000D02*
X0313750Y0460000D01*
X0333750Y0480000D01*
X0366250Y0545000D02*
X0373750Y0552500D01*
X0381250Y0545000D01*
X0373750Y0545000D01*
X0373750Y0552500D01*
X0373750Y0583750D01*
X0390000Y0600000D01*
X0390000Y0610000D01*
X0390000Y0620000D01*
D25*
X0485000Y0595000D02*
X0485000Y0555000D01*
X0575000Y0555000D01*
X0575000Y0595000D01*
X0485000Y0595000D01*
X0485000Y0593550D02*
X0575000Y0593550D01*
X0575000Y0591951D02*
X0485000Y0591951D01*
X0485000Y0590353D02*
X0575000Y0590353D01*
X0575000Y0588754D02*
X0485000Y0588754D01*
X0485000Y0587156D02*
X0575000Y0587156D01*
X0575000Y0585557D02*
X0485000Y0585557D01*
X0485000Y0583959D02*
X0575000Y0583959D01*
X0575000Y0582360D02*
X0485000Y0582360D01*
X0485000Y0580762D02*
X0575000Y0580762D01*
X0575000Y0579163D02*
X0485000Y0579163D01*
X0485000Y0577565D02*
X0575000Y0577565D01*
X0575000Y0575966D02*
X0485000Y0575966D01*
X0485000Y0574368D02*
X0575000Y0574368D01*
X0575000Y0572769D02*
X0485000Y0572769D01*
X0485000Y0571171D02*
X0575000Y0571171D01*
X0575000Y0569572D02*
X0485000Y0569572D01*
X0485000Y0567974D02*
X0575000Y0567974D01*
X0575000Y0566375D02*
X0485000Y0566375D01*
X0485000Y0564777D02*
X0575000Y0564777D01*
X0575000Y0563178D02*
X0485000Y0563178D01*
X0485000Y0561580D02*
X0575000Y0561580D01*
X0575000Y0559981D02*
X0485000Y0559981D01*
X0485000Y0558383D02*
X0575000Y0558383D01*
X0575000Y0556784D02*
X0485000Y0556784D01*
X0485000Y0555186D02*
X0575000Y0555186D01*
X0568522Y0530194D02*
X0567694Y0530325D01*
X0564125Y0530325D01*
X0564125Y0525375D01*
X0563375Y0525375D01*
X0563375Y0530325D01*
X0559806Y0530325D01*
X0558978Y0530194D01*
X0558181Y0529935D01*
X0557434Y0529554D01*
X0556756Y0529062D01*
X0556163Y0528469D01*
X0555671Y0527791D01*
X0555290Y0527044D01*
X0555031Y0526247D01*
X0554900Y0525419D01*
X0554900Y0525375D01*
X0563375Y0525375D01*
X0563375Y0524625D01*
X0564125Y0524625D01*
X0564125Y0525375D01*
X0572600Y0525375D01*
X0572600Y0525419D01*
X0572469Y0526247D01*
X0572210Y0527044D01*
X0571829Y0527791D01*
X0571337Y0528469D01*
X0570744Y0529062D01*
X0570066Y0529554D01*
X0569319Y0529935D01*
X0568522Y0530194D01*
X0569958Y0529609D02*
X0698792Y0529609D01*
X0698684Y0529554D02*
X0698006Y0529062D01*
X0697413Y0528469D01*
X0696921Y0527791D01*
X0696540Y0527044D01*
X0696281Y0526247D01*
X0696150Y0525419D01*
X0696150Y0525375D01*
X0704625Y0525375D01*
X0704625Y0530325D01*
X0701056Y0530325D01*
X0700228Y0530194D01*
X0699431Y0529935D01*
X0698684Y0529554D01*
X0697081Y0528011D02*
X0571669Y0528011D01*
X0572415Y0526412D02*
X0696335Y0526412D01*
X0696150Y0524625D02*
X0696150Y0524581D01*
X0696281Y0523753D01*
X0696540Y0522956D01*
X0696921Y0522209D01*
X0697413Y0521531D01*
X0698006Y0520938D01*
X0698684Y0520446D01*
X0699431Y0520065D01*
X0700228Y0519806D01*
X0701056Y0519675D01*
X0704625Y0519675D01*
X0704625Y0524625D01*
X0705375Y0524625D01*
X0705375Y0525375D01*
X0704625Y0525375D01*
X0704625Y0524625D01*
X0696150Y0524625D01*
X0696456Y0523215D02*
X0572294Y0523215D01*
X0572210Y0522956D02*
X0572469Y0523753D01*
X0572600Y0524581D01*
X0572600Y0524625D01*
X0564125Y0524625D01*
X0564125Y0519675D01*
X0567694Y0519675D01*
X0568522Y0519806D01*
X0569319Y0520065D01*
X0570066Y0520446D01*
X0570744Y0520938D01*
X0571337Y0521531D01*
X0571829Y0522209D01*
X0572210Y0522956D01*
X0571399Y0521617D02*
X0697351Y0521617D01*
X0699575Y0520018D02*
X0569175Y0520018D01*
X0564125Y0520018D02*
X0563375Y0520018D01*
X0563375Y0519675D02*
X0563375Y0524625D01*
X0554900Y0524625D01*
X0554900Y0524581D01*
X0555031Y0523753D01*
X0555290Y0522956D01*
X0555671Y0522209D01*
X0556163Y0521531D01*
X0556756Y0520938D01*
X0557434Y0520446D01*
X0558181Y0520065D01*
X0558978Y0519806D01*
X0559806Y0519675D01*
X0563375Y0519675D01*
X0563375Y0521617D02*
X0564125Y0521617D01*
X0564125Y0523215D02*
X0563375Y0523215D01*
X0563375Y0524814D02*
X0315000Y0524814D01*
X0315000Y0525000D02*
X0272500Y0525000D01*
X0272500Y0550000D01*
X0315000Y0550000D01*
X0315000Y0525000D01*
X0315000Y0524207D02*
X0315000Y0531250D01*
X0292469Y0531250D01*
X0291906Y0532610D01*
X0290610Y0533906D01*
X0288916Y0534607D01*
X0281084Y0534607D01*
X0279390Y0533906D01*
X0278094Y0532610D01*
X0277393Y0530916D01*
X0277393Y0529084D01*
X0278094Y0527390D01*
X0279390Y0526094D01*
X0281084Y0525393D01*
X0288916Y0525393D01*
X0290610Y0526094D01*
X0291906Y0527390D01*
X0292607Y0529084D01*
X0292607Y0530916D01*
X0291906Y0532610D01*
X0290610Y0533906D01*
X0288916Y0534607D01*
X0281084Y0534607D01*
X0279390Y0533906D01*
X0278094Y0532610D01*
X0277531Y0531250D01*
X0272500Y0531250D01*
X0272500Y0550000D01*
X0855000Y0550000D01*
X0855000Y0488750D01*
X0848190Y0488750D01*
X0845783Y0491157D01*
X0841717Y0491157D01*
X0839310Y0488750D01*
X0290000Y0488750D01*
X0290000Y0515000D01*
X0315000Y0515000D01*
X0315000Y0515793D01*
X0317187Y0515793D01*
X0318733Y0516433D01*
X0319917Y0517617D01*
X0320557Y0519163D01*
X0320557Y0520837D01*
X0319917Y0522383D01*
X0318733Y0523567D01*
X0317187Y0524207D01*
X0315000Y0524207D01*
X0315000Y0526412D02*
X0290928Y0526412D01*
X0292163Y0528011D02*
X0315000Y0528011D01*
X0555831Y0528011D01*
X0555085Y0526412D02*
X0315000Y0526412D01*
X0315000Y0529609D02*
X0292607Y0529609D01*
X0292486Y0531208D02*
X0315000Y0531208D01*
X0855000Y0531208D01*
X0855000Y0532806D02*
X0291709Y0532806D01*
X0315000Y0532806D01*
X0315000Y0534405D02*
X0289404Y0534405D01*
X0855000Y0534405D01*
X0855000Y0536003D02*
X0290666Y0536003D01*
X0290516Y0535895D02*
X0291127Y0536339D01*
X0291661Y0536873D01*
X0292105Y0537484D01*
X0292448Y0538157D01*
X0292682Y0538876D01*
X0292800Y0539622D01*
X0292800Y0539800D01*
X0285200Y0539800D01*
X0285200Y0540200D01*
X0284800Y0540200D01*
X0284800Y0544800D01*
X0281622Y0544800D01*
X0280876Y0544682D01*
X0280157Y0544448D01*
X0279484Y0544105D01*
X0278873Y0543661D01*
X0278339Y0543127D01*
X0277895Y0542516D01*
X0277552Y0541843D01*
X0277318Y0541124D01*
X0277200Y0540378D01*
X0277200Y0540200D01*
X0284800Y0540200D01*
X0284800Y0539800D01*
X0285200Y0539800D01*
X0285200Y0535200D01*
X0288378Y0535200D01*
X0289124Y0535318D01*
X0289843Y0535552D01*
X0290516Y0535895D01*
X0292165Y0537602D02*
X0855000Y0537602D01*
X0855000Y0539201D02*
X0292733Y0539201D01*
X0292800Y0540200D02*
X0285200Y0540200D01*
X0285200Y0544800D01*
X0288378Y0544800D01*
X0289124Y0544682D01*
X0289843Y0544448D01*
X0290516Y0544105D01*
X0291127Y0543661D01*
X0291661Y0543127D01*
X0292105Y0542516D01*
X0292448Y0541843D01*
X0292682Y0541124D01*
X0292800Y0540378D01*
X0292800Y0540200D01*
X0292733Y0540799D02*
X0855000Y0540799D01*
X0855000Y0542398D02*
X0292166Y0542398D01*
X0290666Y0543996D02*
X0855000Y0543996D01*
X0855000Y0545595D02*
X0272500Y0545595D01*
X0315000Y0545595D01*
X0315000Y0547193D02*
X0272500Y0547193D01*
X0855000Y0547193D01*
X0855000Y0548792D02*
X0272500Y0548792D01*
X0315000Y0548792D01*
X0315000Y0543996D02*
X0272500Y0543996D01*
X0279334Y0543996D01*
X0277834Y0542398D02*
X0272500Y0542398D01*
X0315000Y0542398D01*
X0315000Y0540799D02*
X0272500Y0540799D01*
X0277267Y0540799D01*
X0277200Y0539800D02*
X0277200Y0539622D01*
X0277318Y0538876D01*
X0277552Y0538157D01*
X0277895Y0537484D01*
X0278339Y0536873D01*
X0278873Y0536339D01*
X0279484Y0535895D01*
X0280157Y0535552D01*
X0280876Y0535318D01*
X0281622Y0535200D01*
X0284800Y0535200D01*
X0284800Y0539800D01*
X0277200Y0539800D01*
X0277267Y0539201D02*
X0272500Y0539201D01*
X0315000Y0539201D01*
X0315000Y0537602D02*
X0272500Y0537602D01*
X0277835Y0537602D01*
X0279334Y0536003D02*
X0272500Y0536003D01*
X0315000Y0536003D01*
X0315000Y0529609D02*
X0557542Y0529609D01*
X0563375Y0529609D02*
X0564125Y0529609D01*
X0564125Y0528011D02*
X0563375Y0528011D01*
X0563375Y0526412D02*
X0564125Y0526412D01*
X0564125Y0524814D02*
X0704625Y0524814D01*
X0705375Y0524814D02*
X0843375Y0524814D01*
X0843375Y0524625D02*
X0834900Y0524625D01*
X0834900Y0524581D01*
X0835031Y0523753D01*
X0835290Y0522956D01*
X0835671Y0522209D01*
X0836163Y0521531D01*
X0836756Y0520938D01*
X0837434Y0520446D01*
X0838181Y0520065D01*
X0838978Y0519806D01*
X0839806Y0519675D01*
X0843375Y0519675D01*
X0843375Y0524625D01*
X0844125Y0524625D01*
X0844125Y0525375D01*
X0843375Y0525375D01*
X0843375Y0530325D01*
X0839806Y0530325D01*
X0838978Y0530194D01*
X0838181Y0529935D01*
X0837434Y0529554D01*
X0836756Y0529062D01*
X0836163Y0528469D01*
X0835671Y0527791D01*
X0835290Y0527044D01*
X0835031Y0526247D01*
X0834900Y0525419D01*
X0834900Y0525375D01*
X0843375Y0525375D01*
X0843375Y0524625D01*
X0844125Y0524625D02*
X0844125Y0519675D01*
X0847694Y0519675D01*
X0848522Y0519806D01*
X0849319Y0520065D01*
X0850066Y0520446D01*
X0850744Y0520938D01*
X0851337Y0521531D01*
X0851829Y0522209D01*
X0852210Y0522956D01*
X0852469Y0523753D01*
X0852600Y0524581D01*
X0852600Y0524625D01*
X0844125Y0524625D01*
X0844125Y0524814D02*
X0855000Y0524814D01*
X0855000Y0526412D02*
X0852415Y0526412D01*
X0852469Y0526247D02*
X0852210Y0527044D01*
X0851829Y0527791D01*
X0851337Y0528469D01*
X0850744Y0529062D01*
X0850066Y0529554D01*
X0849319Y0529935D01*
X0848522Y0530194D01*
X0847694Y0530325D01*
X0844125Y0530325D01*
X0844125Y0525375D01*
X0852600Y0525375D01*
X0852600Y0525419D01*
X0852469Y0526247D01*
X0851669Y0528011D02*
X0855000Y0528011D01*
X0855000Y0529609D02*
X0849958Y0529609D01*
X0844125Y0529609D02*
X0843375Y0529609D01*
X0843375Y0528011D02*
X0844125Y0528011D01*
X0844125Y0526412D02*
X0843375Y0526412D01*
X0843375Y0523215D02*
X0844125Y0523215D01*
X0844125Y0521617D02*
X0843375Y0521617D01*
X0843375Y0520018D02*
X0844125Y0520018D01*
X0849175Y0520018D02*
X0855000Y0520018D01*
X0855000Y0518420D02*
X0350463Y0518420D01*
X0350428Y0518311D02*
X0350642Y0518970D01*
X0350750Y0519654D01*
X0350750Y0520000D01*
X0350750Y0520346D01*
X0350642Y0521030D01*
X0350428Y0521689D01*
X0350113Y0522306D01*
X0349706Y0522866D01*
X0349216Y0523356D01*
X0348656Y0523763D01*
X0348039Y0524078D01*
X0347380Y0524292D01*
X0346696Y0524400D01*
X0343750Y0524400D01*
X0343750Y0520000D01*
X0343750Y0520000D01*
X0350750Y0520000D01*
X0343750Y0520000D01*
X0343750Y0520000D01*
X0343750Y0524400D01*
X0340804Y0524400D01*
X0340120Y0524292D01*
X0339461Y0524078D01*
X0338844Y0523763D01*
X0338284Y0523356D01*
X0337794Y0522866D01*
X0337387Y0522306D01*
X0337072Y0521689D01*
X0336858Y0521030D01*
X0336750Y0520346D01*
X0336750Y0520000D01*
X0343750Y0520000D01*
X0343750Y0515600D01*
X0346696Y0515600D01*
X0347380Y0515708D01*
X0348039Y0515922D01*
X0348656Y0516237D01*
X0349216Y0516644D01*
X0349706Y0517134D01*
X0350113Y0517694D01*
X0350428Y0518311D01*
X0350750Y0520018D02*
X0558325Y0520018D01*
X0556101Y0521617D02*
X0350451Y0521617D01*
X0349357Y0523215D02*
X0555206Y0523215D01*
X0558978Y0510194D02*
X0558181Y0509935D01*
X0557434Y0509554D01*
X0556756Y0509062D01*
X0556163Y0508469D01*
X0555671Y0507791D01*
X0555290Y0507044D01*
X0555031Y0506247D01*
X0554900Y0505419D01*
X0554900Y0505375D01*
X0563375Y0505375D01*
X0563375Y0510325D01*
X0559806Y0510325D01*
X0558978Y0510194D01*
X0556523Y0508829D02*
X0358150Y0508829D01*
X0358150Y0508177D02*
X0358150Y0510000D01*
X0358150Y0511823D01*
X0355573Y0514400D01*
X0353750Y0514400D01*
X0353750Y0510000D01*
X0353750Y0510000D01*
X0358150Y0510000D01*
X0353750Y0510000D01*
X0353750Y0510000D01*
X0353750Y0510000D01*
X0349350Y0510000D01*
X0349350Y0511823D01*
X0351927Y0514400D01*
X0353750Y0514400D01*
X0353750Y0510000D01*
X0353750Y0505600D01*
X0355573Y0505600D01*
X0358150Y0508177D01*
X0357203Y0507230D02*
X0555385Y0507230D01*
X0554934Y0505632D02*
X0355604Y0505632D01*
X0353750Y0505632D02*
X0353750Y0505632D01*
X0353750Y0505600D02*
X0353750Y0510000D01*
X0353750Y0510000D01*
X0349350Y0510000D01*
X0349350Y0508177D01*
X0351927Y0505600D01*
X0353750Y0505600D01*
X0353750Y0507230D02*
X0353750Y0507230D01*
X0353750Y0508829D02*
X0353750Y0508829D01*
X0353750Y0510427D02*
X0353750Y0510427D01*
X0353750Y0512026D02*
X0353750Y0512026D01*
X0353750Y0513624D02*
X0353750Y0513624D01*
X0356348Y0513624D02*
X0855000Y0513624D01*
X0855000Y0512026D02*
X0357947Y0512026D01*
X0358150Y0510427D02*
X0855000Y0510427D01*
X0855000Y0508829D02*
X0850977Y0508829D01*
X0850744Y0509062D02*
X0850066Y0509554D01*
X0849319Y0509935D01*
X0848522Y0510194D01*
X0847694Y0510325D01*
X0844125Y0510325D01*
X0844125Y0505375D01*
X0843375Y0505375D01*
X0843375Y0510325D01*
X0839806Y0510325D01*
X0838978Y0510194D01*
X0838181Y0509935D01*
X0837434Y0509554D01*
X0836756Y0509062D01*
X0836163Y0508469D01*
X0835671Y0507791D01*
X0835290Y0507044D01*
X0835031Y0506247D01*
X0834900Y0505419D01*
X0834900Y0505375D01*
X0843375Y0505375D01*
X0843375Y0504625D01*
X0844125Y0504625D01*
X0844125Y0505375D01*
X0852600Y0505375D01*
X0852600Y0505419D01*
X0852469Y0506247D01*
X0852210Y0507044D01*
X0851829Y0507791D01*
X0851337Y0508469D01*
X0850744Y0509062D01*
X0852115Y0507230D02*
X0855000Y0507230D01*
X0855000Y0505632D02*
X0852566Y0505632D01*
X0852600Y0504625D02*
X0844125Y0504625D01*
X0844125Y0499675D01*
X0847694Y0499675D01*
X0848522Y0499806D01*
X0849319Y0500065D01*
X0850066Y0500446D01*
X0850744Y0500938D01*
X0851337Y0501531D01*
X0851829Y0502209D01*
X0852210Y0502956D01*
X0852469Y0503753D01*
X0852600Y0504581D01*
X0852600Y0504625D01*
X0852513Y0504033D02*
X0855000Y0504033D01*
X0855000Y0502435D02*
X0851944Y0502435D01*
X0850604Y0500836D02*
X0855000Y0500836D01*
X0855000Y0499238D02*
X0303513Y0499238D01*
X0303776Y0498975D02*
X0303225Y0499526D01*
X0302594Y0499984D01*
X0301900Y0500337D01*
X0301159Y0500578D01*
X0300390Y0500700D01*
X0300000Y0500700D01*
X0300000Y0495750D01*
X0300000Y0495750D01*
X0304950Y0495750D01*
X0304950Y0496140D01*
X0304828Y0496909D01*
X0304587Y0497650D01*
X0304234Y0498344D01*
X0303776Y0498975D01*
X0304591Y0497639D02*
X0855000Y0497639D01*
X0855000Y0496041D02*
X0304950Y0496041D01*
X0304950Y0495750D02*
X0300000Y0495750D01*
X0300000Y0495750D01*
X0300000Y0495750D01*
X0295050Y0495750D01*
X0295050Y0496140D01*
X0295172Y0496909D01*
X0295413Y0497650D01*
X0295766Y0498344D01*
X0296224Y0498975D01*
X0296775Y0499526D01*
X0297406Y0499984D01*
X0298100Y0500337D01*
X0298841Y0500578D01*
X0299610Y0500700D01*
X0300000Y0500700D01*
X0300000Y0495750D01*
X0300000Y0490800D01*
X0300390Y0490800D01*
X0301159Y0490922D01*
X0301900Y0491163D01*
X0302594Y0491516D01*
X0303225Y0491974D01*
X0303776Y0492525D01*
X0304234Y0493156D01*
X0304587Y0493850D01*
X0304828Y0494591D01*
X0304950Y0495360D01*
X0304950Y0495750D01*
X0304780Y0494442D02*
X0855000Y0494442D01*
X0855000Y0492844D02*
X0304007Y0492844D01*
X0302062Y0491245D02*
X0855000Y0491245D01*
X0855000Y0489647D02*
X0847293Y0489647D01*
X0840207Y0489647D02*
X0290000Y0489647D01*
X0290000Y0491245D02*
X0297938Y0491245D01*
X0298100Y0491163D02*
X0298841Y0490922D01*
X0299610Y0490800D01*
X0300000Y0490800D01*
X0300000Y0495750D01*
X0300000Y0495750D01*
X0295050Y0495750D01*
X0295050Y0495360D01*
X0295172Y0494591D01*
X0295413Y0493850D01*
X0295766Y0493156D01*
X0296224Y0492525D01*
X0296775Y0491974D01*
X0297406Y0491516D01*
X0298100Y0491163D01*
X0300000Y0491245D02*
X0300000Y0491245D01*
X0300000Y0492844D02*
X0300000Y0492844D01*
X0300000Y0494442D02*
X0300000Y0494442D01*
X0300000Y0496041D02*
X0300000Y0496041D01*
X0300000Y0497639D02*
X0300000Y0497639D01*
X0300000Y0499238D02*
X0300000Y0499238D01*
X0296487Y0499238D02*
X0290000Y0499238D01*
X0290000Y0500836D02*
X0556896Y0500836D01*
X0556756Y0500938D02*
X0557434Y0500446D01*
X0558181Y0500065D01*
X0558978Y0499806D01*
X0559806Y0499675D01*
X0563375Y0499675D01*
X0563375Y0504625D01*
X0564125Y0504625D01*
X0564125Y0505375D01*
X0563375Y0505375D01*
X0563375Y0504625D01*
X0554900Y0504625D01*
X0554900Y0504581D01*
X0555031Y0503753D01*
X0555290Y0502956D01*
X0555671Y0502209D01*
X0556163Y0501531D01*
X0556756Y0500938D01*
X0555556Y0502435D02*
X0290000Y0502435D01*
X0290000Y0504033D02*
X0554987Y0504033D01*
X0563375Y0504033D02*
X0564125Y0504033D01*
X0564125Y0504625D02*
X0564125Y0499675D01*
X0567694Y0499675D01*
X0568522Y0499806D01*
X0569319Y0500065D01*
X0570066Y0500446D01*
X0570744Y0500938D01*
X0571337Y0501531D01*
X0571829Y0502209D01*
X0572210Y0502956D01*
X0572469Y0503753D01*
X0572600Y0504581D01*
X0572600Y0504625D01*
X0564125Y0504625D01*
X0564125Y0505375D02*
X0572600Y0505375D01*
X0572600Y0505419D01*
X0572469Y0506247D01*
X0572210Y0507044D01*
X0571829Y0507791D01*
X0571337Y0508469D01*
X0570744Y0509062D01*
X0570066Y0509554D01*
X0569319Y0509935D01*
X0568522Y0510194D01*
X0567694Y0510325D01*
X0564125Y0510325D01*
X0564125Y0505375D01*
X0564125Y0505632D02*
X0563375Y0505632D01*
X0563375Y0507230D02*
X0564125Y0507230D01*
X0564125Y0508829D02*
X0563375Y0508829D01*
X0563375Y0502435D02*
X0564125Y0502435D01*
X0564125Y0500836D02*
X0563375Y0500836D01*
X0570604Y0500836D02*
X0698146Y0500836D01*
X0698006Y0500938D02*
X0698684Y0500446D01*
X0699431Y0500065D01*
X0700228Y0499806D01*
X0701056Y0499675D01*
X0704625Y0499675D01*
X0704625Y0504625D01*
X0705375Y0504625D01*
X0705375Y0505375D01*
X0704625Y0505375D01*
X0704625Y0510325D01*
X0701056Y0510325D01*
X0700228Y0510194D01*
X0699431Y0509935D01*
X0698684Y0509554D01*
X0698006Y0509062D01*
X0697413Y0508469D01*
X0696921Y0507791D01*
X0696540Y0507044D01*
X0696281Y0506247D01*
X0696150Y0505419D01*
X0696150Y0505375D01*
X0704625Y0505375D01*
X0704625Y0504625D01*
X0696150Y0504625D01*
X0696150Y0504581D01*
X0696281Y0503753D01*
X0696540Y0502956D01*
X0696921Y0502209D01*
X0697413Y0501531D01*
X0698006Y0500938D01*
X0696806Y0502435D02*
X0571944Y0502435D01*
X0572513Y0504033D02*
X0696237Y0504033D01*
X0696184Y0505632D02*
X0572566Y0505632D01*
X0572115Y0507230D02*
X0696635Y0507230D01*
X0697773Y0508829D02*
X0570977Y0508829D01*
X0655000Y0555000D02*
X0655000Y0595000D01*
X0715000Y0595000D01*
X0715000Y0555000D01*
X0655000Y0555000D01*
X0655000Y0555186D02*
X0715000Y0555186D01*
X0715000Y0556784D02*
X0655000Y0556784D01*
X0655000Y0558383D02*
X0715000Y0558383D01*
X0715000Y0559981D02*
X0655000Y0559981D01*
X0655000Y0561580D02*
X0715000Y0561580D01*
X0715000Y0563178D02*
X0655000Y0563178D01*
X0655000Y0564777D02*
X0715000Y0564777D01*
X0715000Y0566375D02*
X0655000Y0566375D01*
X0655000Y0567974D02*
X0715000Y0567974D01*
X0715000Y0569572D02*
X0655000Y0569572D01*
X0655000Y0571171D02*
X0715000Y0571171D01*
X0715000Y0572769D02*
X0655000Y0572769D01*
X0655000Y0574368D02*
X0715000Y0574368D01*
X0715000Y0575966D02*
X0655000Y0575966D01*
X0655000Y0577565D02*
X0715000Y0577565D01*
X0715000Y0579163D02*
X0655000Y0579163D01*
X0655000Y0580762D02*
X0715000Y0580762D01*
X0715000Y0582360D02*
X0655000Y0582360D01*
X0655000Y0583959D02*
X0715000Y0583959D01*
X0715000Y0585557D02*
X0655000Y0585557D01*
X0655000Y0587156D02*
X0715000Y0587156D01*
X0715000Y0588754D02*
X0655000Y0588754D01*
X0655000Y0590353D02*
X0715000Y0590353D01*
X0715000Y0591951D02*
X0655000Y0591951D01*
X0655000Y0593550D02*
X0715000Y0593550D01*
X0795000Y0593550D02*
X0855000Y0593550D01*
X0855000Y0595000D02*
X0855000Y0555000D01*
X0795000Y0555000D01*
X0795000Y0595000D01*
X0855000Y0595000D01*
X0855000Y0591951D02*
X0795000Y0591951D01*
X0795000Y0590353D02*
X0855000Y0590353D01*
X0855000Y0588754D02*
X0795000Y0588754D01*
X0795000Y0587156D02*
X0855000Y0587156D01*
X0855000Y0585557D02*
X0795000Y0585557D01*
X0795000Y0583959D02*
X0855000Y0583959D01*
X0855000Y0582360D02*
X0795000Y0582360D01*
X0795000Y0580762D02*
X0855000Y0580762D01*
X0855000Y0579163D02*
X0795000Y0579163D01*
X0795000Y0577565D02*
X0855000Y0577565D01*
X0855000Y0575966D02*
X0795000Y0575966D01*
X0795000Y0574368D02*
X0855000Y0574368D01*
X0855000Y0572769D02*
X0795000Y0572769D01*
X0795000Y0571171D02*
X0855000Y0571171D01*
X0855000Y0569572D02*
X0795000Y0569572D01*
X0795000Y0567974D02*
X0855000Y0567974D01*
X0855000Y0566375D02*
X0795000Y0566375D01*
X0795000Y0564777D02*
X0855000Y0564777D01*
X0855000Y0563178D02*
X0795000Y0563178D01*
X0795000Y0561580D02*
X0855000Y0561580D01*
X0855000Y0559981D02*
X0795000Y0559981D01*
X0795000Y0558383D02*
X0855000Y0558383D01*
X0855000Y0556784D02*
X0795000Y0556784D01*
X0795000Y0555186D02*
X0855000Y0555186D01*
X0837542Y0529609D02*
X0711208Y0529609D01*
X0711316Y0529554D02*
X0710569Y0529935D01*
X0709772Y0530194D01*
X0708944Y0530325D01*
X0705375Y0530325D01*
X0705375Y0525375D01*
X0713850Y0525375D01*
X0713850Y0525419D01*
X0713719Y0526247D01*
X0713460Y0527044D01*
X0713079Y0527791D01*
X0712587Y0528469D01*
X0711994Y0529062D01*
X0711316Y0529554D01*
X0712919Y0528011D02*
X0835831Y0528011D01*
X0835085Y0526412D02*
X0713665Y0526412D01*
X0713850Y0524625D02*
X0705375Y0524625D01*
X0705375Y0519675D01*
X0708944Y0519675D01*
X0709772Y0519806D01*
X0710569Y0520065D01*
X0711316Y0520446D01*
X0711994Y0520938D01*
X0712587Y0521531D01*
X0713079Y0522209D01*
X0713460Y0522956D01*
X0713719Y0523753D01*
X0713850Y0524581D01*
X0713850Y0524625D01*
X0713544Y0523215D02*
X0835206Y0523215D01*
X0836101Y0521617D02*
X0712649Y0521617D01*
X0710425Y0520018D02*
X0838325Y0520018D01*
X0836523Y0508829D02*
X0712227Y0508829D01*
X0711994Y0509062D02*
X0711316Y0509554D01*
X0710569Y0509935D01*
X0709772Y0510194D01*
X0708944Y0510325D01*
X0705375Y0510325D01*
X0705375Y0505375D01*
X0713850Y0505375D01*
X0713850Y0505419D01*
X0713719Y0506247D01*
X0713460Y0507044D01*
X0713079Y0507791D01*
X0712587Y0508469D01*
X0711994Y0509062D01*
X0713365Y0507230D02*
X0835385Y0507230D01*
X0834934Y0505632D02*
X0713816Y0505632D01*
X0713850Y0504625D02*
X0705375Y0504625D01*
X0705375Y0499675D01*
X0708944Y0499675D01*
X0709772Y0499806D01*
X0710569Y0500065D01*
X0711316Y0500446D01*
X0711994Y0500938D01*
X0712587Y0501531D01*
X0713079Y0502209D01*
X0713460Y0502956D01*
X0713719Y0503753D01*
X0713850Y0504581D01*
X0713850Y0504625D01*
X0713763Y0504033D02*
X0834987Y0504033D01*
X0835031Y0503753D02*
X0835290Y0502956D01*
X0835671Y0502209D01*
X0836163Y0501531D01*
X0836756Y0500938D01*
X0837434Y0500446D01*
X0838181Y0500065D01*
X0838978Y0499806D01*
X0839806Y0499675D01*
X0843375Y0499675D01*
X0843375Y0504625D01*
X0834900Y0504625D01*
X0834900Y0504581D01*
X0835031Y0503753D01*
X0835556Y0502435D02*
X0713194Y0502435D01*
X0711854Y0500836D02*
X0836896Y0500836D01*
X0843375Y0500836D02*
X0844125Y0500836D01*
X0844125Y0502435D02*
X0843375Y0502435D01*
X0843375Y0504033D02*
X0844125Y0504033D01*
X0844125Y0505632D02*
X0843375Y0505632D01*
X0843375Y0507230D02*
X0844125Y0507230D01*
X0844125Y0508829D02*
X0843375Y0508829D01*
X0855000Y0515223D02*
X0315000Y0515223D01*
X0319121Y0516821D02*
X0338106Y0516821D01*
X0338284Y0516644D02*
X0338844Y0516237D01*
X0339461Y0515922D01*
X0340120Y0515708D01*
X0340804Y0515600D01*
X0343750Y0515600D01*
X0343750Y0520000D01*
X0343750Y0520000D01*
X0343750Y0520000D01*
X0336750Y0520000D01*
X0336750Y0519654D01*
X0336858Y0518970D01*
X0337072Y0518311D01*
X0337387Y0517694D01*
X0337794Y0517134D01*
X0338284Y0516644D01*
X0337037Y0518420D02*
X0320249Y0518420D01*
X0320557Y0520018D02*
X0336750Y0520018D01*
X0337049Y0521617D02*
X0320234Y0521617D01*
X0319084Y0523215D02*
X0338143Y0523215D01*
X0343750Y0523215D02*
X0343750Y0523215D01*
X0343750Y0521617D02*
X0343750Y0521617D01*
X0343750Y0520018D02*
X0343750Y0520018D01*
X0343750Y0518420D02*
X0343750Y0518420D01*
X0343750Y0516821D02*
X0343750Y0516821D01*
X0343750Y0514400D02*
X0341927Y0514400D01*
X0339350Y0511823D01*
X0339350Y0510000D01*
X0343750Y0510000D01*
X0343750Y0510000D01*
X0343750Y0514400D01*
X0345573Y0514400D01*
X0348150Y0511823D01*
X0348150Y0510000D01*
X0343750Y0510000D01*
X0343750Y0510000D01*
X0343750Y0510000D01*
X0343750Y0514400D01*
X0343750Y0513624D02*
X0343750Y0513624D01*
X0343750Y0512026D02*
X0343750Y0512026D01*
X0343750Y0510427D02*
X0343750Y0510427D01*
X0343750Y0510000D02*
X0339350Y0510000D01*
X0339350Y0508177D01*
X0341927Y0505600D01*
X0343750Y0505600D01*
X0345573Y0505600D01*
X0348150Y0508177D01*
X0348150Y0510000D01*
X0343750Y0510000D01*
X0343750Y0505600D01*
X0343750Y0510000D01*
X0343750Y0510000D01*
X0343750Y0508829D02*
X0343750Y0508829D01*
X0343750Y0507230D02*
X0343750Y0507230D01*
X0343750Y0505632D02*
X0343750Y0505632D01*
X0345604Y0505632D02*
X0351896Y0505632D01*
X0350297Y0507230D02*
X0347203Y0507230D01*
X0348150Y0508829D02*
X0349350Y0508829D01*
X0349350Y0510427D02*
X0348150Y0510427D01*
X0347947Y0512026D02*
X0349553Y0512026D01*
X0351152Y0513624D02*
X0346348Y0513624D01*
X0349394Y0516821D02*
X0855000Y0516821D01*
X0855000Y0521617D02*
X0851399Y0521617D01*
X0852294Y0523215D02*
X0855000Y0523215D01*
X0705375Y0523215D02*
X0704625Y0523215D01*
X0704625Y0521617D02*
X0705375Y0521617D01*
X0705375Y0520018D02*
X0704625Y0520018D01*
X0704625Y0526412D02*
X0705375Y0526412D01*
X0705375Y0528011D02*
X0704625Y0528011D01*
X0704625Y0529609D02*
X0705375Y0529609D01*
X0705375Y0508829D02*
X0704625Y0508829D01*
X0704625Y0507230D02*
X0705375Y0507230D01*
X0705375Y0505632D02*
X0704625Y0505632D01*
X0704625Y0504033D02*
X0705375Y0504033D01*
X0705375Y0502435D02*
X0704625Y0502435D01*
X0704625Y0500836D02*
X0705375Y0500836D01*
X0490000Y0392500D02*
X0490000Y0390000D01*
X0490000Y0392500D02*
X0482500Y0392500D01*
X0341896Y0505632D02*
X0335604Y0505632D01*
X0335573Y0505600D02*
X0338150Y0508177D01*
X0338150Y0510000D01*
X0338150Y0511823D01*
X0335573Y0514400D01*
X0333750Y0514400D01*
X0333750Y0510000D01*
X0333750Y0510000D01*
X0338150Y0510000D01*
X0333750Y0510000D01*
X0333750Y0510000D01*
X0333750Y0510000D01*
X0329350Y0510000D01*
X0329350Y0511823D01*
X0331927Y0514400D01*
X0333750Y0514400D01*
X0333750Y0510000D01*
X0333750Y0505600D01*
X0335573Y0505600D01*
X0333750Y0505600D02*
X0333750Y0510000D01*
X0333750Y0510000D01*
X0329350Y0510000D01*
X0329350Y0508177D01*
X0331927Y0505600D01*
X0333750Y0505600D01*
X0333750Y0505632D02*
X0333750Y0505632D01*
X0333750Y0507230D02*
X0333750Y0507230D01*
X0333750Y0508829D02*
X0333750Y0508829D01*
X0333750Y0510427D02*
X0333750Y0510427D01*
X0333750Y0512026D02*
X0333750Y0512026D01*
X0333750Y0513624D02*
X0333750Y0513624D01*
X0336348Y0513624D02*
X0341152Y0513624D01*
X0339553Y0512026D02*
X0337947Y0512026D01*
X0338150Y0510427D02*
X0339350Y0510427D01*
X0339350Y0508829D02*
X0338150Y0508829D01*
X0337203Y0507230D02*
X0340297Y0507230D01*
X0331896Y0505632D02*
X0290000Y0505632D01*
X0290000Y0507230D02*
X0320570Y0507230D01*
X0319543Y0508257D02*
X0322007Y0505793D01*
X0325493Y0505793D01*
X0327957Y0508257D01*
X0327957Y0511743D01*
X0325493Y0514207D01*
X0322007Y0514207D01*
X0319543Y0511743D01*
X0319543Y0508257D01*
X0319543Y0508829D02*
X0290000Y0508829D01*
X0290000Y0510427D02*
X0319543Y0510427D01*
X0319826Y0512026D02*
X0290000Y0512026D01*
X0290000Y0513624D02*
X0321425Y0513624D01*
X0326075Y0513624D02*
X0331152Y0513624D01*
X0329553Y0512026D02*
X0327674Y0512026D01*
X0327957Y0510427D02*
X0329350Y0510427D01*
X0329350Y0508829D02*
X0327957Y0508829D01*
X0326930Y0507230D02*
X0330297Y0507230D01*
X0295409Y0497639D02*
X0290000Y0497639D01*
X0290000Y0496041D02*
X0295050Y0496041D01*
X0295220Y0494442D02*
X0290000Y0494442D01*
X0290000Y0492844D02*
X0295993Y0492844D01*
X0279072Y0526412D02*
X0272500Y0526412D01*
X0272500Y0528011D02*
X0277837Y0528011D01*
X0277393Y0529609D02*
X0272500Y0529609D01*
X0272500Y0531208D02*
X0277514Y0531208D01*
X0278291Y0532806D02*
X0272500Y0532806D01*
X0278291Y0532806D01*
X0280596Y0534405D02*
X0272500Y0534405D01*
X0280596Y0534405D01*
X0284800Y0536003D02*
X0285200Y0536003D01*
X0285200Y0537602D02*
X0284800Y0537602D01*
X0284800Y0539201D02*
X0285200Y0539201D01*
X0285200Y0540799D02*
X0284800Y0540799D01*
X0284800Y0542398D02*
X0285200Y0542398D01*
X0285200Y0543996D02*
X0284800Y0543996D01*
D26*
X0315000Y0560000D02*
X0315000Y0628750D01*
X0345000Y0628750D01*
X0345000Y0590000D01*
X0367500Y0590000D01*
X0367500Y0560000D01*
X0315000Y0560000D01*
X0315000Y0561107D02*
X0367500Y0561107D01*
X0367500Y0562305D02*
X0315000Y0562305D01*
X0315000Y0563504D02*
X0367500Y0563504D01*
X0367500Y0564702D02*
X0315000Y0564702D01*
X0315000Y0565901D02*
X0367500Y0565901D01*
X0367500Y0567099D02*
X0315000Y0567099D01*
X0315000Y0568298D02*
X0367500Y0568298D01*
X0367500Y0569496D02*
X0315000Y0569496D01*
X0315000Y0570695D02*
X0367500Y0570695D01*
X0367500Y0571893D02*
X0315000Y0571893D01*
X0315000Y0573092D02*
X0367500Y0573092D01*
X0367500Y0574290D02*
X0315000Y0574290D01*
X0315000Y0575489D02*
X0367500Y0575489D01*
X0367500Y0576687D02*
X0315000Y0576687D01*
X0315000Y0577886D02*
X0367500Y0577886D01*
X0367500Y0579084D02*
X0315000Y0579084D01*
X0315000Y0580283D02*
X0367500Y0580283D01*
X0367500Y0581481D02*
X0315000Y0581481D01*
X0315000Y0582680D02*
X0367500Y0582680D01*
X0367500Y0583878D02*
X0315000Y0583878D01*
X0315000Y0585077D02*
X0367500Y0585077D01*
X0367500Y0586275D02*
X0315000Y0586275D01*
X0315000Y0587474D02*
X0367500Y0587474D01*
X0367500Y0588672D02*
X0315000Y0588672D01*
X0315000Y0589871D02*
X0367500Y0589871D01*
X0345000Y0591070D02*
X0315000Y0591070D01*
X0315000Y0592268D02*
X0345000Y0592268D01*
X0345000Y0593467D02*
X0315000Y0593467D01*
X0315000Y0594665D02*
X0345000Y0594665D01*
X0345000Y0595864D02*
X0315000Y0595864D01*
X0315000Y0597062D02*
X0345000Y0597062D01*
X0345000Y0598261D02*
X0315000Y0598261D01*
X0315000Y0599459D02*
X0345000Y0599459D01*
X0345000Y0600658D02*
X0315000Y0600658D01*
X0315000Y0601856D02*
X0345000Y0601856D01*
X0345000Y0603055D02*
X0315000Y0603055D01*
X0315000Y0604253D02*
X0345000Y0604253D01*
X0345000Y0605452D02*
X0315000Y0605452D01*
X0315000Y0606650D02*
X0345000Y0606650D01*
X0345000Y0607849D02*
X0315000Y0607849D01*
X0315000Y0609047D02*
X0345000Y0609047D01*
X0345000Y0610246D02*
X0315000Y0610246D01*
X0315000Y0611444D02*
X0345000Y0611444D01*
X0345000Y0612643D02*
X0315000Y0612643D01*
X0315000Y0613841D02*
X0345000Y0613841D01*
X0345000Y0615040D02*
X0315000Y0615040D01*
X0315000Y0616238D02*
X0345000Y0616238D01*
X0345000Y0617437D02*
X0315000Y0617437D01*
X0315000Y0618635D02*
X0345000Y0618635D01*
X0345000Y0619834D02*
X0315000Y0619834D01*
X0315000Y0621032D02*
X0345000Y0621032D01*
X0345000Y0622231D02*
X0315000Y0622231D01*
X0315000Y0623429D02*
X0345000Y0623429D01*
X0345000Y0624628D02*
X0315000Y0624628D01*
X0315000Y0625826D02*
X0345000Y0625826D01*
X0345000Y0627025D02*
X0315000Y0627025D01*
X0315000Y0628223D02*
X0345000Y0628223D01*
X0545000Y0535000D02*
X0545000Y0495000D01*
X0855000Y0495000D01*
X0855000Y0535000D01*
X0545000Y0535000D01*
X0545000Y0534739D02*
X0855000Y0534739D01*
X0855000Y0533541D02*
X0545000Y0533541D01*
X0545000Y0532342D02*
X0855000Y0532342D01*
X0855000Y0531144D02*
X0545000Y0531144D01*
X0545000Y0529945D02*
X0855000Y0529945D01*
X0855000Y0528747D02*
X0545000Y0528747D01*
X0545000Y0527548D02*
X0855000Y0527548D01*
X0855000Y0526350D02*
X0545000Y0526350D01*
X0545000Y0525151D02*
X0855000Y0525151D01*
X0855000Y0523953D02*
X0545000Y0523953D01*
X0545000Y0522754D02*
X0855000Y0522754D01*
X0855000Y0521556D02*
X0545000Y0521556D01*
X0545000Y0520357D02*
X0855000Y0520357D01*
X0855000Y0519159D02*
X0545000Y0519159D01*
X0545000Y0517960D02*
X0855000Y0517960D01*
X0855000Y0516762D02*
X0545000Y0516762D01*
X0545000Y0515563D02*
X0855000Y0515563D01*
X0855000Y0514365D02*
X0545000Y0514365D01*
X0545000Y0513166D02*
X0855000Y0513166D01*
X0855000Y0511968D02*
X0545000Y0511968D01*
X0545000Y0510769D02*
X0855000Y0510769D01*
X0855000Y0509571D02*
X0545000Y0509571D01*
X0545000Y0508372D02*
X0855000Y0508372D01*
X0855000Y0507174D02*
X0545000Y0507174D01*
X0545000Y0505975D02*
X0855000Y0505975D01*
X0855000Y0504777D02*
X0545000Y0504777D01*
X0545000Y0503578D02*
X0855000Y0503578D01*
X0855000Y0502380D02*
X0545000Y0502380D01*
X0545000Y0501181D02*
X0855000Y0501181D01*
X0855000Y0499983D02*
X0545000Y0499983D01*
X0545000Y0498784D02*
X0855000Y0498784D01*
X0855000Y0497586D02*
X0545000Y0497586D01*
X0545000Y0496387D02*
X0855000Y0496387D01*
X0855000Y0495189D02*
X0545000Y0495189D01*
X0545000Y0450000D02*
X0575000Y0450000D01*
X0580000Y0445000D01*
X0580000Y0365000D01*
X0485000Y0365000D01*
X0485000Y0368869D01*
X0485307Y0368869D01*
X0486131Y0369693D01*
X0486131Y0380307D01*
X0485307Y0381131D01*
X0485000Y0381131D01*
X0485000Y0390000D01*
X0545000Y0450000D01*
X0544645Y0449645D02*
X0575355Y0449645D01*
X0576553Y0448447D02*
X0543447Y0448447D01*
X0542248Y0447248D02*
X0577752Y0447248D01*
X0578950Y0446050D02*
X0541050Y0446050D01*
X0539851Y0444851D02*
X0580000Y0444851D01*
X0580000Y0443653D02*
X0538653Y0443653D01*
X0537454Y0442454D02*
X0580000Y0442454D01*
X0580000Y0441256D02*
X0536256Y0441256D01*
X0535057Y0440057D02*
X0580000Y0440057D01*
X0580000Y0438859D02*
X0533859Y0438859D01*
X0532660Y0437660D02*
X0580000Y0437660D01*
X0580000Y0436462D02*
X0531462Y0436462D01*
X0530263Y0435263D02*
X0580000Y0435263D01*
X0580000Y0434065D02*
X0529065Y0434065D01*
X0527866Y0432866D02*
X0580000Y0432866D01*
X0580000Y0431668D02*
X0526668Y0431668D01*
X0525469Y0430469D02*
X0580000Y0430469D01*
X0580000Y0429270D02*
X0524270Y0429270D01*
X0523072Y0428072D02*
X0580000Y0428072D01*
X0580000Y0426873D02*
X0521873Y0426873D01*
X0520675Y0425675D02*
X0580000Y0425675D01*
X0580000Y0424476D02*
X0519476Y0424476D01*
X0518278Y0423278D02*
X0580000Y0423278D01*
X0580000Y0422079D02*
X0517079Y0422079D01*
X0515881Y0420881D02*
X0580000Y0420881D01*
X0580000Y0419682D02*
X0514682Y0419682D01*
X0513484Y0418484D02*
X0580000Y0418484D01*
X0580000Y0417285D02*
X0512285Y0417285D01*
X0511087Y0416087D02*
X0580000Y0416087D01*
X0580000Y0414888D02*
X0509888Y0414888D01*
X0508690Y0413690D02*
X0580000Y0413690D01*
X0580000Y0412491D02*
X0507491Y0412491D01*
X0506293Y0411293D02*
X0580000Y0411293D01*
X0580000Y0410094D02*
X0505094Y0410094D01*
X0503896Y0408896D02*
X0580000Y0408896D01*
X0580000Y0407697D02*
X0502697Y0407697D01*
X0501499Y0406499D02*
X0580000Y0406499D01*
X0580000Y0405300D02*
X0500300Y0405300D01*
X0499102Y0404102D02*
X0580000Y0404102D01*
X0580000Y0402903D02*
X0497903Y0402903D01*
X0496705Y0401705D02*
X0580000Y0401705D01*
X0580000Y0400506D02*
X0495506Y0400506D01*
X0494308Y0399308D02*
X0580000Y0399308D01*
X0580000Y0398109D02*
X0493109Y0398109D01*
X0491911Y0396911D02*
X0580000Y0396911D01*
X0580000Y0395712D02*
X0490712Y0395712D01*
X0489514Y0394514D02*
X0580000Y0394514D01*
X0580000Y0393315D02*
X0488315Y0393315D01*
X0487117Y0392117D02*
X0580000Y0392117D01*
X0580000Y0390918D02*
X0485918Y0390918D01*
X0485000Y0389720D02*
X0580000Y0389720D01*
X0580000Y0388521D02*
X0485000Y0388521D01*
X0485000Y0387323D02*
X0580000Y0387323D01*
X0580000Y0386124D02*
X0485000Y0386124D01*
X0485000Y0384926D02*
X0580000Y0384926D01*
X0580000Y0383727D02*
X0485000Y0383727D01*
X0485000Y0382529D02*
X0580000Y0382529D01*
X0580000Y0381330D02*
X0485000Y0381330D01*
X0486131Y0380132D02*
X0580000Y0380132D01*
X0580000Y0378933D02*
X0486131Y0378933D01*
X0486131Y0377734D02*
X0580000Y0377734D01*
X0580000Y0376536D02*
X0486131Y0376536D01*
X0486131Y0375337D02*
X0580000Y0375337D01*
X0580000Y0374139D02*
X0486131Y0374139D01*
X0486131Y0372940D02*
X0580000Y0372940D01*
X0580000Y0371742D02*
X0486131Y0371742D01*
X0486131Y0370543D02*
X0580000Y0370543D01*
X0580000Y0369345D02*
X0485784Y0369345D01*
X0485000Y0368146D02*
X0580000Y0368146D01*
X0580000Y0366948D02*
X0485000Y0366948D01*
X0485000Y0365749D02*
X0580000Y0365749D01*
X0580000Y0360000D02*
X0580000Y0291250D01*
X0467500Y0292500D01*
X0467500Y0360000D01*
X0580000Y0360000D01*
X0580000Y0359757D02*
X0467500Y0359757D01*
X0467500Y0358558D02*
X0580000Y0358558D01*
X0580000Y0357360D02*
X0467500Y0357360D01*
X0467500Y0356161D02*
X0580000Y0356161D01*
X0580000Y0354963D02*
X0467500Y0354963D01*
X0467500Y0353764D02*
X0580000Y0353764D01*
X0580000Y0352566D02*
X0467500Y0352566D01*
X0467500Y0351367D02*
X0580000Y0351367D01*
X0580000Y0350169D02*
X0467500Y0350169D01*
X0467500Y0348970D02*
X0580000Y0348970D01*
X0580000Y0347772D02*
X0467500Y0347772D01*
X0467500Y0346573D02*
X0580000Y0346573D01*
X0580000Y0345375D02*
X0467500Y0345375D01*
X0467500Y0344176D02*
X0580000Y0344176D01*
X0580000Y0342978D02*
X0467500Y0342978D01*
X0467500Y0341779D02*
X0580000Y0341779D01*
X0580000Y0340581D02*
X0467500Y0340581D01*
X0467500Y0339382D02*
X0580000Y0339382D01*
X0580000Y0338184D02*
X0569983Y0338184D01*
X0569160Y0339007D02*
X0565840Y0339007D01*
X0563493Y0336660D01*
X0563493Y0333340D01*
X0565840Y0330993D01*
X0569160Y0330993D01*
X0571507Y0333340D01*
X0571507Y0336660D01*
X0569160Y0339007D01*
X0571182Y0336985D02*
X0580000Y0336985D01*
X0580000Y0335787D02*
X0571507Y0335787D01*
X0571507Y0334588D02*
X0580000Y0334588D01*
X0580000Y0333390D02*
X0571507Y0333390D01*
X0570358Y0332191D02*
X0580000Y0332191D01*
X0580000Y0330993D02*
X0467500Y0330993D01*
X0467500Y0332191D02*
X0564642Y0332191D01*
X0563493Y0333390D02*
X0467500Y0333390D01*
X0467500Y0334588D02*
X0563493Y0334588D01*
X0563493Y0335787D02*
X0467500Y0335787D01*
X0467500Y0336985D02*
X0563818Y0336985D01*
X0565017Y0338184D02*
X0467500Y0338184D01*
X0467500Y0329794D02*
X0580000Y0329794D01*
X0580000Y0328596D02*
X0467500Y0328596D01*
X0467500Y0327397D02*
X0580000Y0327397D01*
X0580000Y0326199D02*
X0467500Y0326199D01*
X0467500Y0325000D02*
X0580000Y0325000D01*
X0580000Y0323801D02*
X0569365Y0323801D01*
X0569160Y0324007D02*
X0565840Y0324007D01*
X0563493Y0321660D01*
X0563493Y0318340D01*
X0565840Y0315993D01*
X0569160Y0315993D01*
X0571507Y0318340D01*
X0571507Y0321660D01*
X0569160Y0324007D01*
X0570564Y0322603D02*
X0580000Y0322603D01*
X0580000Y0321404D02*
X0571507Y0321404D01*
X0571507Y0320206D02*
X0580000Y0320206D01*
X0580000Y0319007D02*
X0571507Y0319007D01*
X0570976Y0317809D02*
X0580000Y0317809D01*
X0580000Y0316610D02*
X0569777Y0316610D01*
X0565223Y0316610D02*
X0467500Y0316610D01*
X0467500Y0315412D02*
X0580000Y0315412D01*
X0580000Y0314213D02*
X0467500Y0314213D01*
X0467500Y0313015D02*
X0580000Y0313015D01*
X0580000Y0311816D02*
X0467500Y0311816D01*
X0467500Y0310618D02*
X0580000Y0310618D01*
X0580000Y0309419D02*
X0467500Y0309419D01*
X0467500Y0308221D02*
X0565054Y0308221D01*
X0565840Y0309007D02*
X0563493Y0306660D01*
X0563493Y0303340D01*
X0565840Y0300993D01*
X0569160Y0300993D01*
X0571507Y0303340D01*
X0571507Y0306660D01*
X0569160Y0309007D01*
X0565840Y0309007D01*
X0563855Y0307022D02*
X0467500Y0307022D01*
X0467500Y0305824D02*
X0563493Y0305824D01*
X0563493Y0304625D02*
X0467500Y0304625D01*
X0467500Y0303427D02*
X0563493Y0303427D01*
X0564605Y0302228D02*
X0467500Y0302228D01*
X0467500Y0301030D02*
X0565803Y0301030D01*
X0569197Y0301030D02*
X0580000Y0301030D01*
X0580000Y0302228D02*
X0570395Y0302228D01*
X0571507Y0303427D02*
X0580000Y0303427D01*
X0580000Y0304625D02*
X0571507Y0304625D01*
X0571507Y0305824D02*
X0580000Y0305824D01*
X0580000Y0307022D02*
X0571145Y0307022D01*
X0569946Y0308221D02*
X0580000Y0308221D01*
X0580000Y0299831D02*
X0467500Y0299831D01*
X0467500Y0298633D02*
X0580000Y0298633D01*
X0580000Y0297434D02*
X0467500Y0297434D01*
X0467500Y0296236D02*
X0580000Y0296236D01*
X0580000Y0295037D02*
X0467500Y0295037D01*
X0467500Y0293839D02*
X0580000Y0293839D01*
X0580000Y0292640D02*
X0467500Y0292640D01*
X0467500Y0317809D02*
X0564024Y0317809D01*
X0563493Y0319007D02*
X0467500Y0319007D01*
X0467500Y0320206D02*
X0563493Y0320206D01*
X0563493Y0321404D02*
X0467500Y0321404D01*
X0467500Y0322603D02*
X0564436Y0322603D01*
X0565635Y0323801D02*
X0467500Y0323801D01*
X0562749Y0291442D02*
X0580000Y0291442D01*
X0607500Y0291442D02*
X0720000Y0291442D01*
X0720000Y0291250D02*
X0607500Y0291250D01*
X0607500Y0360000D01*
X0720000Y0360000D01*
X0720000Y0291250D01*
X0720000Y0292640D02*
X0607500Y0292640D01*
X0607500Y0293839D02*
X0720000Y0293839D01*
X0720000Y0295037D02*
X0607500Y0295037D01*
X0607500Y0296236D02*
X0720000Y0296236D01*
X0720000Y0297434D02*
X0607500Y0297434D01*
X0607500Y0298633D02*
X0720000Y0298633D01*
X0720000Y0299831D02*
X0607500Y0299831D01*
X0607500Y0301030D02*
X0705803Y0301030D01*
X0705840Y0300993D02*
X0709160Y0300993D01*
X0711507Y0303340D01*
X0711507Y0306660D01*
X0709160Y0309007D01*
X0705840Y0309007D01*
X0703493Y0306660D01*
X0703493Y0303340D01*
X0705840Y0300993D01*
X0704605Y0302228D02*
X0607500Y0302228D01*
X0607500Y0303427D02*
X0703493Y0303427D01*
X0703493Y0304625D02*
X0607500Y0304625D01*
X0607500Y0305824D02*
X0703493Y0305824D01*
X0703855Y0307022D02*
X0607500Y0307022D01*
X0607500Y0308221D02*
X0705054Y0308221D01*
X0709946Y0308221D02*
X0720000Y0308221D01*
X0720000Y0309419D02*
X0607500Y0309419D01*
X0607500Y0310618D02*
X0720000Y0310618D01*
X0720000Y0311816D02*
X0607500Y0311816D01*
X0607500Y0313015D02*
X0720000Y0313015D01*
X0720000Y0314213D02*
X0607500Y0314213D01*
X0607500Y0315412D02*
X0720000Y0315412D01*
X0720000Y0316610D02*
X0709777Y0316610D01*
X0709160Y0315993D02*
X0711507Y0318340D01*
X0711507Y0321660D01*
X0709160Y0324007D01*
X0705840Y0324007D01*
X0703493Y0321660D01*
X0703493Y0318340D01*
X0705840Y0315993D01*
X0709160Y0315993D01*
X0710976Y0317809D02*
X0720000Y0317809D01*
X0720000Y0319007D02*
X0711507Y0319007D01*
X0711507Y0320206D02*
X0720000Y0320206D01*
X0720000Y0321404D02*
X0711507Y0321404D01*
X0710564Y0322603D02*
X0720000Y0322603D01*
X0720000Y0323801D02*
X0709365Y0323801D01*
X0705635Y0323801D02*
X0607500Y0323801D01*
X0607500Y0322603D02*
X0704436Y0322603D01*
X0703493Y0321404D02*
X0607500Y0321404D01*
X0607500Y0320206D02*
X0703493Y0320206D01*
X0703493Y0319007D02*
X0607500Y0319007D01*
X0607500Y0317809D02*
X0704024Y0317809D01*
X0705223Y0316610D02*
X0607500Y0316610D01*
X0607500Y0325000D02*
X0720000Y0325000D01*
X0720000Y0326199D02*
X0607500Y0326199D01*
X0607500Y0327397D02*
X0720000Y0327397D01*
X0720000Y0328596D02*
X0607500Y0328596D01*
X0607500Y0329794D02*
X0720000Y0329794D01*
X0720000Y0330993D02*
X0607500Y0330993D01*
X0607500Y0332191D02*
X0704642Y0332191D01*
X0703493Y0333340D02*
X0705840Y0330993D01*
X0709160Y0330993D01*
X0711507Y0333340D01*
X0711507Y0336660D01*
X0709160Y0339007D01*
X0705840Y0339007D01*
X0703493Y0336660D01*
X0703493Y0333340D01*
X0703493Y0333390D02*
X0607500Y0333390D01*
X0607500Y0334588D02*
X0703493Y0334588D01*
X0703493Y0335787D02*
X0607500Y0335787D01*
X0607500Y0336985D02*
X0703818Y0336985D01*
X0705017Y0338184D02*
X0607500Y0338184D01*
X0607500Y0339382D02*
X0720000Y0339382D01*
X0720000Y0338184D02*
X0709983Y0338184D01*
X0711182Y0336985D02*
X0720000Y0336985D01*
X0720000Y0335787D02*
X0711507Y0335787D01*
X0711507Y0334588D02*
X0720000Y0334588D01*
X0720000Y0333390D02*
X0711507Y0333390D01*
X0710358Y0332191D02*
X0720000Y0332191D01*
X0720000Y0340581D02*
X0607500Y0340581D01*
X0607500Y0341779D02*
X0720000Y0341779D01*
X0720000Y0342978D02*
X0607500Y0342978D01*
X0607500Y0344176D02*
X0720000Y0344176D01*
X0720000Y0345375D02*
X0607500Y0345375D01*
X0607500Y0346573D02*
X0720000Y0346573D01*
X0720000Y0347772D02*
X0607500Y0347772D01*
X0607500Y0348970D02*
X0720000Y0348970D01*
X0720000Y0350169D02*
X0607500Y0350169D01*
X0607500Y0351367D02*
X0720000Y0351367D01*
X0720000Y0352566D02*
X0607500Y0352566D01*
X0607500Y0353764D02*
X0720000Y0353764D01*
X0720000Y0354963D02*
X0607500Y0354963D01*
X0607500Y0356161D02*
X0720000Y0356161D01*
X0720000Y0357360D02*
X0607500Y0357360D01*
X0607500Y0358558D02*
X0720000Y0358558D01*
X0720000Y0359757D02*
X0607500Y0359757D01*
X0655000Y0365000D02*
X0655000Y0368869D01*
X0655307Y0368869D01*
X0656131Y0369693D01*
X0656131Y0380307D01*
X0655307Y0381131D01*
X0655000Y0381131D01*
X0655000Y0405000D01*
X0700000Y0450000D01*
X0710000Y0450000D01*
X0720000Y0440000D01*
X0720000Y0365000D01*
X0655000Y0365000D01*
X0655000Y0365749D02*
X0720000Y0365749D01*
X0720000Y0366948D02*
X0655000Y0366948D01*
X0655000Y0368146D02*
X0720000Y0368146D01*
X0720000Y0369345D02*
X0655784Y0369345D01*
X0656131Y0370543D02*
X0720000Y0370543D01*
X0720000Y0371742D02*
X0656131Y0371742D01*
X0656131Y0372940D02*
X0720000Y0372940D01*
X0720000Y0374139D02*
X0656131Y0374139D01*
X0656131Y0375337D02*
X0720000Y0375337D01*
X0720000Y0376536D02*
X0656131Y0376536D01*
X0656131Y0377734D02*
X0720000Y0377734D01*
X0720000Y0378933D02*
X0656131Y0378933D01*
X0656131Y0380132D02*
X0720000Y0380132D01*
X0720000Y0381330D02*
X0655000Y0381330D01*
X0655000Y0382529D02*
X0720000Y0382529D01*
X0720000Y0383727D02*
X0655000Y0383727D01*
X0655000Y0384926D02*
X0720000Y0384926D01*
X0720000Y0386124D02*
X0655000Y0386124D01*
X0655000Y0387323D02*
X0720000Y0387323D01*
X0720000Y0388521D02*
X0655000Y0388521D01*
X0655000Y0389720D02*
X0720000Y0389720D01*
X0720000Y0390918D02*
X0655000Y0390918D01*
X0655000Y0392117D02*
X0720000Y0392117D01*
X0720000Y0393315D02*
X0655000Y0393315D01*
X0655000Y0394514D02*
X0720000Y0394514D01*
X0720000Y0395712D02*
X0655000Y0395712D01*
X0655000Y0396911D02*
X0720000Y0396911D01*
X0720000Y0398109D02*
X0655000Y0398109D01*
X0655000Y0399308D02*
X0720000Y0399308D01*
X0720000Y0400506D02*
X0655000Y0400506D01*
X0655000Y0401705D02*
X0720000Y0401705D01*
X0720000Y0402903D02*
X0655000Y0402903D01*
X0655000Y0404102D02*
X0720000Y0404102D01*
X0720000Y0405300D02*
X0655300Y0405300D01*
X0656499Y0406499D02*
X0720000Y0406499D01*
X0720000Y0407697D02*
X0657697Y0407697D01*
X0658896Y0408896D02*
X0720000Y0408896D01*
X0720000Y0410094D02*
X0660094Y0410094D01*
X0661293Y0411293D02*
X0720000Y0411293D01*
X0720000Y0412491D02*
X0662491Y0412491D01*
X0663690Y0413690D02*
X0720000Y0413690D01*
X0720000Y0414888D02*
X0664888Y0414888D01*
X0666087Y0416087D02*
X0720000Y0416087D01*
X0720000Y0417285D02*
X0667285Y0417285D01*
X0668484Y0418484D02*
X0720000Y0418484D01*
X0720000Y0419682D02*
X0669682Y0419682D01*
X0670881Y0420881D02*
X0720000Y0420881D01*
X0720000Y0422079D02*
X0672079Y0422079D01*
X0673278Y0423278D02*
X0720000Y0423278D01*
X0720000Y0424476D02*
X0674476Y0424476D01*
X0675675Y0425675D02*
X0720000Y0425675D01*
X0720000Y0426873D02*
X0676873Y0426873D01*
X0678072Y0428072D02*
X0720000Y0428072D01*
X0720000Y0429270D02*
X0679270Y0429270D01*
X0680469Y0430469D02*
X0720000Y0430469D01*
X0720000Y0431668D02*
X0681668Y0431668D01*
X0682866Y0432866D02*
X0720000Y0432866D01*
X0720000Y0434065D02*
X0684065Y0434065D01*
X0685263Y0435263D02*
X0720000Y0435263D01*
X0720000Y0436462D02*
X0686462Y0436462D01*
X0687660Y0437660D02*
X0720000Y0437660D01*
X0720000Y0438859D02*
X0688859Y0438859D01*
X0690057Y0440057D02*
X0719943Y0440057D01*
X0718744Y0441256D02*
X0691256Y0441256D01*
X0692454Y0442454D02*
X0717546Y0442454D01*
X0716347Y0443653D02*
X0693653Y0443653D01*
X0694851Y0444851D02*
X0715149Y0444851D01*
X0713950Y0446050D02*
X0696050Y0446050D01*
X0697248Y0447248D02*
X0712752Y0447248D01*
X0711553Y0448447D02*
X0698447Y0448447D01*
X0699645Y0449645D02*
X0710355Y0449645D01*
X0795000Y0405000D02*
X0840000Y0450000D01*
X0850000Y0450000D01*
X0858750Y0441250D01*
X0858750Y0365000D01*
X0795000Y0365000D01*
X0795000Y0368869D01*
X0795307Y0368869D01*
X0796131Y0369693D01*
X0796131Y0380307D01*
X0795307Y0381131D01*
X0795000Y0381131D01*
X0795000Y0405000D01*
X0795300Y0405300D02*
X0858750Y0405300D01*
X0858750Y0404102D02*
X0795000Y0404102D01*
X0795000Y0402903D02*
X0858750Y0402903D01*
X0858750Y0401705D02*
X0795000Y0401705D01*
X0795000Y0400506D02*
X0858750Y0400506D01*
X0858750Y0399308D02*
X0795000Y0399308D01*
X0795000Y0398109D02*
X0858750Y0398109D01*
X0858750Y0396911D02*
X0795000Y0396911D01*
X0795000Y0395712D02*
X0858750Y0395712D01*
X0858750Y0394514D02*
X0795000Y0394514D01*
X0795000Y0393315D02*
X0858750Y0393315D01*
X0858750Y0392117D02*
X0795000Y0392117D01*
X0795000Y0390918D02*
X0858750Y0390918D01*
X0858750Y0389720D02*
X0795000Y0389720D01*
X0795000Y0388521D02*
X0858750Y0388521D01*
X0858750Y0387323D02*
X0795000Y0387323D01*
X0795000Y0386124D02*
X0858750Y0386124D01*
X0858750Y0384926D02*
X0795000Y0384926D01*
X0795000Y0383727D02*
X0858750Y0383727D01*
X0858750Y0382529D02*
X0795000Y0382529D01*
X0795000Y0381330D02*
X0858750Y0381330D01*
X0858750Y0380132D02*
X0796131Y0380132D01*
X0796131Y0378933D02*
X0858750Y0378933D01*
X0858750Y0377734D02*
X0796131Y0377734D01*
X0796131Y0376536D02*
X0858750Y0376536D01*
X0858750Y0375337D02*
X0796131Y0375337D01*
X0796131Y0374139D02*
X0858750Y0374139D01*
X0858750Y0372940D02*
X0796131Y0372940D01*
X0796131Y0371742D02*
X0858750Y0371742D01*
X0858750Y0370543D02*
X0796131Y0370543D01*
X0795784Y0369345D02*
X0858750Y0369345D01*
X0858750Y0368146D02*
X0795000Y0368146D01*
X0795000Y0366948D02*
X0858750Y0366948D01*
X0858750Y0365749D02*
X0795000Y0365749D01*
X0747500Y0360000D02*
X0858750Y0360000D01*
X0858750Y0291375D01*
X0858625Y0291250D01*
X0747500Y0291250D01*
X0747500Y0360000D01*
X0747500Y0359757D02*
X0858750Y0359757D01*
X0858750Y0358558D02*
X0747500Y0358558D01*
X0747500Y0357360D02*
X0858750Y0357360D01*
X0858750Y0356161D02*
X0747500Y0356161D01*
X0747500Y0354963D02*
X0858750Y0354963D01*
X0858750Y0353764D02*
X0747500Y0353764D01*
X0747500Y0352566D02*
X0858750Y0352566D01*
X0858750Y0351367D02*
X0747500Y0351367D01*
X0747500Y0350169D02*
X0858750Y0350169D01*
X0858750Y0348970D02*
X0747500Y0348970D01*
X0747500Y0347772D02*
X0858750Y0347772D01*
X0858750Y0346573D02*
X0747500Y0346573D01*
X0747500Y0345375D02*
X0858750Y0345375D01*
X0858750Y0344176D02*
X0747500Y0344176D01*
X0747500Y0342978D02*
X0858750Y0342978D01*
X0858750Y0341779D02*
X0747500Y0341779D01*
X0747500Y0340581D02*
X0858750Y0340581D01*
X0858750Y0339382D02*
X0747500Y0339382D01*
X0747500Y0338184D02*
X0845017Y0338184D01*
X0845840Y0339007D02*
X0843493Y0336660D01*
X0843493Y0333340D01*
X0845840Y0330993D01*
X0849160Y0330993D01*
X0851507Y0333340D01*
X0851507Y0336660D01*
X0849160Y0339007D01*
X0845840Y0339007D01*
X0843818Y0336985D02*
X0747500Y0336985D01*
X0747500Y0335787D02*
X0843493Y0335787D01*
X0843493Y0334588D02*
X0747500Y0334588D01*
X0747500Y0333390D02*
X0843493Y0333390D01*
X0844642Y0332191D02*
X0747500Y0332191D01*
X0747500Y0330993D02*
X0858750Y0330993D01*
X0858750Y0332191D02*
X0850358Y0332191D01*
X0851507Y0333390D02*
X0858750Y0333390D01*
X0858750Y0334588D02*
X0851507Y0334588D01*
X0851507Y0335787D02*
X0858750Y0335787D01*
X0858750Y0336985D02*
X0851182Y0336985D01*
X0849983Y0338184D02*
X0858750Y0338184D01*
X0858750Y0329794D02*
X0747500Y0329794D01*
X0747500Y0328596D02*
X0858750Y0328596D01*
X0858750Y0327397D02*
X0747500Y0327397D01*
X0747500Y0326199D02*
X0858750Y0326199D01*
X0858750Y0325000D02*
X0849417Y0325000D01*
X0849160Y0325257D02*
X0845840Y0325257D01*
X0843493Y0322910D01*
X0843493Y0319590D01*
X0845840Y0317243D01*
X0849160Y0317243D01*
X0851507Y0319590D01*
X0851507Y0322910D01*
X0849160Y0325257D01*
X0850615Y0323801D02*
X0858750Y0323801D01*
X0858750Y0322603D02*
X0851507Y0322603D01*
X0851507Y0321404D02*
X0858750Y0321404D01*
X0858750Y0320206D02*
X0851507Y0320206D01*
X0850924Y0319007D02*
X0858750Y0319007D01*
X0858750Y0317809D02*
X0849726Y0317809D01*
X0845274Y0317809D02*
X0747500Y0317809D01*
X0747500Y0319007D02*
X0844076Y0319007D01*
X0843493Y0320206D02*
X0747500Y0320206D01*
X0747500Y0321404D02*
X0843493Y0321404D01*
X0843493Y0322603D02*
X0747500Y0322603D01*
X0747500Y0323801D02*
X0844385Y0323801D01*
X0845583Y0325000D02*
X0747500Y0325000D01*
X0747500Y0316610D02*
X0858750Y0316610D01*
X0858750Y0315412D02*
X0747500Y0315412D01*
X0747500Y0314213D02*
X0858750Y0314213D01*
X0858750Y0313015D02*
X0747500Y0313015D01*
X0747500Y0311816D02*
X0858750Y0311816D01*
X0858750Y0310618D02*
X0747500Y0310618D01*
X0747500Y0309419D02*
X0845002Y0309419D01*
X0845840Y0310257D02*
X0843493Y0307910D01*
X0843493Y0304590D01*
X0845840Y0302243D01*
X0849160Y0302243D01*
X0851507Y0304590D01*
X0851507Y0307910D01*
X0849160Y0310257D01*
X0845840Y0310257D01*
X0843804Y0308221D02*
X0747500Y0308221D01*
X0747500Y0307022D02*
X0843493Y0307022D01*
X0843493Y0305824D02*
X0747500Y0305824D01*
X0747500Y0304625D02*
X0843493Y0304625D01*
X0844656Y0303427D02*
X0747500Y0303427D01*
X0747500Y0302228D02*
X0858750Y0302228D01*
X0858750Y0301030D02*
X0747500Y0301030D01*
X0747500Y0299831D02*
X0858750Y0299831D01*
X0858750Y0298633D02*
X0747500Y0298633D01*
X0747500Y0297434D02*
X0858750Y0297434D01*
X0858750Y0296236D02*
X0747500Y0296236D01*
X0747500Y0295037D02*
X0858750Y0295037D01*
X0858750Y0293839D02*
X0747500Y0293839D01*
X0747500Y0292640D02*
X0858750Y0292640D01*
X0858750Y0291442D02*
X0747500Y0291442D01*
X0720000Y0301030D02*
X0709197Y0301030D01*
X0710395Y0302228D02*
X0720000Y0302228D01*
X0720000Y0303427D02*
X0711507Y0303427D01*
X0711507Y0304625D02*
X0720000Y0304625D01*
X0720000Y0305824D02*
X0711507Y0305824D01*
X0711145Y0307022D02*
X0720000Y0307022D01*
X0849998Y0309419D02*
X0858750Y0309419D01*
X0858750Y0308221D02*
X0851196Y0308221D01*
X0851507Y0307022D02*
X0858750Y0307022D01*
X0858750Y0305824D02*
X0851507Y0305824D01*
X0851507Y0304625D02*
X0858750Y0304625D01*
X0858750Y0303427D02*
X0850344Y0303427D01*
X0858750Y0406499D02*
X0796499Y0406499D01*
X0797697Y0407697D02*
X0858750Y0407697D01*
X0858750Y0408896D02*
X0798896Y0408896D01*
X0800094Y0410094D02*
X0858750Y0410094D01*
X0858750Y0411293D02*
X0801293Y0411293D01*
X0802491Y0412491D02*
X0858750Y0412491D01*
X0858750Y0413690D02*
X0803690Y0413690D01*
X0804888Y0414888D02*
X0858750Y0414888D01*
X0858750Y0416087D02*
X0806087Y0416087D01*
X0807285Y0417285D02*
X0858750Y0417285D01*
X0858750Y0418484D02*
X0808484Y0418484D01*
X0809682Y0419682D02*
X0858750Y0419682D01*
X0858750Y0420881D02*
X0810881Y0420881D01*
X0812079Y0422079D02*
X0858750Y0422079D01*
X0858750Y0423278D02*
X0813278Y0423278D01*
X0814476Y0424476D02*
X0858750Y0424476D01*
X0858750Y0425675D02*
X0815675Y0425675D01*
X0816873Y0426873D02*
X0858750Y0426873D01*
X0858750Y0428072D02*
X0818072Y0428072D01*
X0819270Y0429270D02*
X0858750Y0429270D01*
X0858750Y0430469D02*
X0820469Y0430469D01*
X0821668Y0431668D02*
X0858750Y0431668D01*
X0858750Y0432866D02*
X0822866Y0432866D01*
X0824065Y0434065D02*
X0858750Y0434065D01*
X0858750Y0435263D02*
X0825263Y0435263D01*
X0826462Y0436462D02*
X0858750Y0436462D01*
X0858750Y0437660D02*
X0827660Y0437660D01*
X0828859Y0438859D02*
X0858750Y0438859D01*
X0858750Y0440057D02*
X0830057Y0440057D01*
X0831256Y0441256D02*
X0858744Y0441256D01*
X0857546Y0442454D02*
X0832454Y0442454D01*
X0833653Y0443653D02*
X0856347Y0443653D01*
X0855149Y0444851D02*
X0834851Y0444851D01*
X0836050Y0446050D02*
X0853950Y0446050D01*
X0852752Y0447248D02*
X0837248Y0447248D01*
X0838447Y0448447D02*
X0851553Y0448447D01*
X0850355Y0449645D02*
X0839645Y0449645D01*
D27*
X0790000Y0365000D02*
X0785000Y0360000D01*
X0790000Y0360000D01*
X0795000Y0360000D01*
X0790000Y0365000D01*
X0655000Y0360000D02*
X0650000Y0360000D01*
X0645000Y0360000D01*
X0650000Y0365000D01*
X0655000Y0360000D01*
X0390000Y0450000D02*
X0390000Y0485000D01*
X0385000Y0485000D02*
X0385000Y0450000D01*
X0381250Y0446250D01*
X0346250Y0446250D01*
X0333750Y0433750D01*
X0333750Y0323750D01*
X0332500Y0322500D01*
X0332500Y0310000D01*
X0342500Y0310000D02*
X0342500Y0320000D01*
X0337500Y0325000D01*
X0337500Y0432500D01*
X0347500Y0442500D01*
X0382500Y0442500D01*
X0390000Y0450000D01*
X0375000Y0462500D02*
X0380000Y0467500D01*
X0380000Y0485000D01*
X0375000Y0462500D02*
X0357500Y0462500D01*
X0330000Y0435000D01*
X0330000Y0327500D01*
X0322500Y0320000D01*
X0322500Y0310000D01*
X0380000Y0555000D02*
X0380000Y0575000D01*
X0400000Y0595000D01*
X0400000Y0615000D01*
X0405000Y0620000D01*
X0420000Y0620000D01*
X0442500Y0620000D01*
X0448750Y0626250D01*
X0766250Y0626250D01*
X0775000Y0617500D01*
X0775000Y0610000D01*
X0635000Y0610000D02*
X0635000Y0617500D01*
X0630000Y0622500D01*
X0450000Y0622500D01*
X0437500Y0610000D01*
X0420000Y0610000D01*
X0410000Y0610000D01*
X0405000Y0605000D01*
X0405000Y0595000D01*
X0385000Y0575000D01*
X0385000Y0555000D01*
X0390000Y0555000D02*
X0390000Y0575000D01*
X0415000Y0600000D01*
X0420000Y0600000D01*
X0432500Y0600000D01*
X0451250Y0618750D01*
X0462500Y0618750D01*
X0465000Y0616250D01*
X0465000Y0610000D01*
D28*
X0390000Y0555000D03*
X0385000Y0555000D03*
X0380000Y0555000D03*
X0380000Y0485000D03*
X0385000Y0485000D03*
X0390000Y0485000D03*
D29*
X0428750Y0478750D02*
X0385000Y0435000D01*
X0385000Y0425000D02*
X0432500Y0472500D01*
X0717500Y0472500D01*
X0790000Y0400000D01*
X0790000Y0375000D01*
X0790000Y0365000D01*
X0790000Y0360000D01*
X0790000Y0355000D01*
X0800000Y0400000D02*
X0795000Y0405000D01*
X0793750Y0406250D01*
X0803750Y0406250D01*
X0800000Y0405000D02*
X0795000Y0405000D01*
X0793750Y0406250D02*
X0721250Y0478750D01*
X0428750Y0478750D01*
X0433750Y0463750D02*
X0596250Y0463750D01*
X0653750Y0406250D01*
X0663750Y0406250D01*
X0660000Y0405000D02*
X0655000Y0405000D01*
X0653750Y0406250D01*
X0655000Y0405000D02*
X0660000Y0400000D01*
X0650000Y0400000D02*
X0592500Y0457500D01*
X0437500Y0457500D01*
X0385000Y0405000D01*
X0385000Y0395000D02*
X0480000Y0395000D01*
X0493750Y0395000D01*
X0495000Y0396250D01*
X0490000Y0385000D02*
X0480000Y0395000D01*
X0477500Y0387500D02*
X0387500Y0387500D01*
X0385000Y0385000D01*
X0385000Y0415000D02*
X0433750Y0463750D01*
X0477500Y0387500D02*
X0480000Y0385000D01*
X0480000Y0375000D01*
X0480000Y0355000D01*
X0485000Y0357500D02*
X0480000Y0362500D01*
X0475000Y0357500D01*
X0650000Y0360000D02*
X0650000Y0355000D01*
X0650000Y0360000D02*
X0650000Y0365000D01*
X0650000Y0375000D01*
X0650000Y0400000D01*
X0661250Y0590000D02*
X0661250Y0600000D01*
X0677500Y0600000D02*
X0677500Y0590000D01*
X0693750Y0590000D02*
X0693750Y0600000D01*
X0710000Y0600000D02*
X0710000Y0591250D01*
X0801250Y0590000D02*
X0801250Y0600000D01*
X0817500Y0600000D02*
X0817500Y0590000D01*
X0833750Y0590000D02*
X0833750Y0600000D01*
X0850000Y0600000D02*
X0850000Y0590000D01*
X0540000Y0590000D02*
X0540000Y0600000D01*
X0523750Y0600000D02*
X0523750Y0590000D01*
X0507500Y0590000D02*
X0507500Y0600000D01*
X0491250Y0600000D02*
X0491250Y0590000D01*
D30*
X0465000Y0575000D02*
X0455000Y0585000D01*
X0455000Y0610000D01*
X0625000Y0610000D02*
X0625000Y0585000D01*
X0635000Y0575000D01*
X0765000Y0585000D02*
X0775000Y0575000D01*
X0765000Y0585000D02*
X0765000Y0610000D01*
X0365000Y0435000D02*
X0350000Y0435000D01*
X0350000Y0425000D02*
X0365000Y0425000D01*
X0365000Y0415000D02*
X0350000Y0415000D01*
X0350000Y0405000D02*
X0365000Y0405000D01*
X0365000Y0395000D02*
X0350000Y0395000D01*
X0350000Y0385000D02*
X0365000Y0385000D01*
X0343750Y0457500D02*
X0343750Y0480000D01*
M02*
