G75*
%MOIN*%
%OFA0B0*%
%FSLAX25Y25*%
%IPPOS*%
%LPD*%
%AMOC8*
5,1,8,0,0,1.08239X$1,22.5*
%
%ADD10C,0.07450*%
%ADD11C,0.13400*%
%ADD12OC8,0.05600*%
%ADD13C,0.06400*%
%ADD14R,0.09849X0.09849*%
%ADD15R,0.13061X0.13061*%
%ADD16OC8,0.07000*%
%ADD17OC8,0.10400*%
%ADD18OC8,0.12900*%
%ADD19R,0.15400X0.15400*%
%ADD20C,0.15400*%
%ADD21OC8,0.06400*%
%ADD22C,0.05600*%
%ADD23OC8,0.06700*%
%ADD24C,0.06700*%
%ADD25C,0.07487*%
D10*
X0555225Y0510000D02*
X0562275Y0510000D01*
X0562275Y0530000D02*
X0555225Y0530000D01*
X0555225Y0570000D02*
X0562275Y0570000D01*
X0562275Y0590000D02*
X0555225Y0590000D01*
X0696475Y0590000D02*
X0703525Y0590000D01*
X0703525Y0570000D02*
X0696475Y0570000D01*
X0696475Y0530000D02*
X0703525Y0530000D01*
X0703525Y0510000D02*
X0696475Y0510000D01*
X0836475Y0510000D02*
X0843525Y0510000D01*
X0843525Y0530000D02*
X0836475Y0530000D01*
X0836475Y0570000D02*
X0843525Y0570000D01*
X0843525Y0590000D02*
X0836475Y0590000D01*
X0362500Y0578525D02*
X0362500Y0571475D01*
X0342500Y0571475D02*
X0342500Y0578525D01*
X0302500Y0578525D02*
X0302500Y0571475D01*
X0282500Y0571475D02*
X0282500Y0578525D01*
D11*
X0290000Y0610000D03*
X0590000Y0610000D03*
X0730000Y0610000D03*
X0730000Y0310000D03*
X0590000Y0310000D03*
X0290000Y0310000D03*
D12*
X0340000Y0385000D03*
X0340000Y0395000D03*
X0340000Y0405000D03*
X0340000Y0415000D03*
X0340000Y0425000D03*
X0340000Y0435000D03*
X0355000Y0435000D03*
X0355000Y0425000D03*
X0355000Y0415000D03*
X0355000Y0405000D03*
X0355000Y0395000D03*
X0375000Y0395000D03*
X0375000Y0405000D03*
X0375000Y0415000D03*
X0375000Y0425000D03*
X0375000Y0435000D03*
X0343750Y0457500D03*
X0333750Y0457500D03*
X0333750Y0480000D03*
X0323750Y0480000D03*
X0343750Y0480000D03*
X0353750Y0480000D03*
X0353750Y0510000D03*
X0343750Y0510000D03*
X0333750Y0510000D03*
X0323750Y0510000D03*
X0385000Y0602500D03*
X0385000Y0612500D03*
X0385000Y0622500D03*
X0415000Y0622500D03*
X0415000Y0612500D03*
X0415000Y0602500D03*
X0486250Y0602500D03*
X0502500Y0602500D03*
X0518750Y0602500D03*
X0535000Y0602500D03*
X0535000Y0622500D03*
X0518750Y0622500D03*
X0502500Y0622500D03*
X0486250Y0622500D03*
X0656250Y0622500D03*
X0672500Y0622500D03*
X0688750Y0622500D03*
X0705000Y0622500D03*
X0705000Y0602500D03*
X0688750Y0602500D03*
X0672500Y0602500D03*
X0656250Y0602500D03*
X0796250Y0602500D03*
X0812500Y0602500D03*
X0828750Y0602500D03*
X0845000Y0602500D03*
X0845000Y0622500D03*
X0828750Y0622500D03*
X0812500Y0622500D03*
X0796250Y0622500D03*
X0822500Y0440000D03*
X0832500Y0440000D03*
X0842500Y0440000D03*
X0852500Y0440000D03*
X0852500Y0425000D03*
X0842500Y0425000D03*
X0832500Y0425000D03*
X0822500Y0425000D03*
X0822500Y0410000D03*
X0832500Y0410000D03*
X0842500Y0410000D03*
X0852500Y0410000D03*
X0712500Y0410000D03*
X0702500Y0410000D03*
X0692500Y0410000D03*
X0682500Y0410000D03*
X0682500Y0425000D03*
X0692500Y0425000D03*
X0702500Y0425000D03*
X0712500Y0425000D03*
X0712500Y0440000D03*
X0702500Y0440000D03*
X0692500Y0440000D03*
X0682500Y0440000D03*
X0572500Y0440000D03*
X0562500Y0440000D03*
X0552500Y0440000D03*
X0542500Y0440000D03*
X0542500Y0425000D03*
X0552500Y0425000D03*
X0562500Y0425000D03*
X0572500Y0425000D03*
X0572500Y0410000D03*
X0562500Y0410000D03*
X0552500Y0410000D03*
X0542500Y0410000D03*
X0375000Y0385000D03*
X0355000Y0385000D03*
D13*
X0303000Y0450000D02*
X0297000Y0450000D01*
X0297000Y0460000D02*
X0303000Y0460000D01*
X0288000Y0520000D02*
X0282000Y0520000D01*
X0282000Y0530000D02*
X0288000Y0530000D01*
X0288000Y0540000D02*
X0282000Y0540000D01*
D14*
X0430000Y0575000D03*
X0460000Y0575000D03*
X0490000Y0575000D03*
X0600000Y0575000D03*
X0630000Y0575000D03*
X0660000Y0575000D03*
X0740000Y0575000D03*
X0770000Y0575000D03*
X0800000Y0575000D03*
X0785000Y0375000D03*
X0770000Y0375000D03*
X0755000Y0375000D03*
X0645000Y0375000D03*
X0630000Y0375000D03*
X0615000Y0375000D03*
X0475000Y0375000D03*
X0460000Y0375000D03*
X0445000Y0375000D03*
D15*
X0430000Y0375000D03*
X0490000Y0375000D03*
X0600000Y0375000D03*
X0660000Y0375000D03*
X0740000Y0375000D03*
X0800000Y0375000D03*
D16*
X0837500Y0460000D03*
X0837500Y0490000D03*
X0370000Y0483750D03*
X0370000Y0453750D03*
D17*
X0557500Y0392500D03*
X0557500Y0302500D03*
X0697500Y0302500D03*
X0697500Y0392500D03*
X0837500Y0392500D03*
X0837500Y0302500D03*
D18*
X0800000Y0305000D03*
X0800000Y0320000D03*
X0800000Y0335000D03*
X0785000Y0335000D03*
X0770000Y0335000D03*
X0755000Y0335000D03*
X0755000Y0320000D03*
X0770000Y0320000D03*
X0785000Y0320000D03*
X0785000Y0305000D03*
X0770000Y0305000D03*
X0755000Y0305000D03*
X0660000Y0305000D03*
X0645000Y0305000D03*
X0645000Y0320000D03*
X0660000Y0320000D03*
X0660000Y0335000D03*
X0645000Y0335000D03*
X0630000Y0335000D03*
X0615000Y0335000D03*
X0615000Y0320000D03*
X0630000Y0320000D03*
X0630000Y0305000D03*
X0615000Y0305000D03*
X0520000Y0305000D03*
X0505000Y0305000D03*
X0490000Y0305000D03*
X0490000Y0320000D03*
X0505000Y0320000D03*
X0520000Y0320000D03*
X0520000Y0335000D03*
X0505000Y0335000D03*
X0490000Y0335000D03*
X0475000Y0335000D03*
X0475000Y0320000D03*
X0475000Y0305000D03*
X0450000Y0305000D03*
X0435000Y0305000D03*
X0435000Y0320000D03*
X0450000Y0320000D03*
X0450000Y0335000D03*
X0435000Y0335000D03*
X0420000Y0335000D03*
X0405000Y0335000D03*
X0390000Y0335000D03*
X0390000Y0320000D03*
X0405000Y0320000D03*
X0420000Y0320000D03*
X0420000Y0305000D03*
X0405000Y0305000D03*
X0390000Y0305000D03*
X0375000Y0305000D03*
X0360000Y0305000D03*
X0360000Y0320000D03*
X0375000Y0320000D03*
X0375000Y0335000D03*
X0360000Y0335000D03*
D19*
X0330000Y0605000D03*
D20*
X0361047Y0605000D03*
D21*
X0310000Y0425000D03*
X0300000Y0425000D03*
X0300000Y0415000D03*
X0310000Y0415000D03*
X0310000Y0405000D03*
X0300000Y0405000D03*
X0300000Y0395000D03*
X0310000Y0395000D03*
X0310000Y0385000D03*
X0300000Y0385000D03*
X0300000Y0375000D03*
X0310000Y0375000D03*
X0310000Y0365000D03*
X0300000Y0365000D03*
D22*
X0311150Y0520000D02*
X0316350Y0520000D01*
X0341150Y0520000D02*
X0346350Y0520000D01*
X0450000Y0607400D02*
X0450000Y0612600D01*
X0460000Y0612600D02*
X0460000Y0607400D01*
X0470000Y0607400D02*
X0470000Y0612600D01*
X0620000Y0612600D02*
X0620000Y0607400D01*
X0630000Y0607400D02*
X0630000Y0612600D01*
X0640000Y0612600D02*
X0640000Y0607400D01*
X0760000Y0607400D02*
X0760000Y0612600D01*
X0770000Y0612600D02*
X0770000Y0607400D01*
X0780000Y0607400D02*
X0780000Y0612600D01*
D23*
X0300000Y0481750D03*
D24*
X0300000Y0495750D03*
D25*
X0307500Y0313543D02*
X0307500Y0306457D01*
X0317500Y0306457D02*
X0317500Y0313543D01*
X0327500Y0313543D02*
X0327500Y0306457D01*
X0337500Y0306457D02*
X0337500Y0313543D01*
M02*
