G75*
%MOIN*%
%OFA0B0*%
%FSLAX25Y25*%
%IPPOS*%
%LPD*%
%AMOC8*
5,1,8,0,0,1.08239X$1,22.5*
%
%ADD10C,0.07050*%
%ADD11OC8,0.05200*%
%ADD12C,0.06000*%
%ADD13R,0.09449X0.09449*%
%ADD14R,0.12661X0.12661*%
%ADD15OC8,0.06600*%
%ADD16OC8,0.06000*%
%ADD17OC8,0.12500*%
%ADD18R,0.15000X0.15000*%
%ADD19C,0.15000*%
%ADD20C,0.07087*%
%ADD21C,0.05200*%
%ADD22OC8,0.06300*%
%ADD23C,0.06300*%
%ADD24C,0.01200*%
%ADD25C,0.04000*%
%ADD26C,0.04134*%
%ADD27C,0.03200*%
D10*
X0561475Y0505000D02*
X0568525Y0505000D01*
X0568525Y0525000D02*
X0561475Y0525000D01*
X0561475Y0565000D02*
X0568525Y0565000D01*
X0568525Y0585000D02*
X0561475Y0585000D01*
X0701475Y0585000D02*
X0708525Y0585000D01*
X0708525Y0565000D02*
X0701475Y0565000D01*
X0701475Y0525000D02*
X0708525Y0525000D01*
X0708525Y0505000D02*
X0701475Y0505000D01*
X0841475Y0505000D02*
X0848525Y0505000D01*
X0848525Y0525000D02*
X0841475Y0525000D01*
X0841475Y0565000D02*
X0848525Y0565000D01*
X0848525Y0585000D02*
X0841475Y0585000D01*
X0360000Y0578525D02*
X0360000Y0571475D01*
X0340000Y0571475D02*
X0340000Y0578525D01*
X0300000Y0578525D02*
X0300000Y0571475D01*
X0280000Y0571475D02*
X0280000Y0578525D01*
D11*
X0323750Y0510000D03*
X0333750Y0510000D03*
X0343750Y0510000D03*
X0353750Y0510000D03*
X0353750Y0480000D03*
X0343750Y0480000D03*
X0333750Y0480000D03*
X0323750Y0480000D03*
X0335000Y0452500D03*
X0335000Y0442500D03*
X0330000Y0425000D03*
X0340000Y0425000D03*
X0340000Y0412500D03*
X0330000Y0412500D03*
X0330000Y0400000D03*
X0340000Y0400000D03*
X0365000Y0395000D03*
X0365000Y0405000D03*
X0365000Y0415000D03*
X0365000Y0425000D03*
X0365000Y0435000D03*
X0385000Y0435000D03*
X0385000Y0425000D03*
X0385000Y0415000D03*
X0385000Y0405000D03*
X0385000Y0395000D03*
X0385000Y0385000D03*
X0365000Y0385000D03*
D12*
X0303000Y0450000D02*
X0297000Y0450000D01*
X0297000Y0460000D02*
X0303000Y0460000D01*
X0293000Y0520000D02*
X0287000Y0520000D01*
X0287000Y0530000D02*
X0293000Y0530000D01*
X0293000Y0540000D02*
X0287000Y0540000D01*
D13*
X0435000Y0575000D03*
X0465000Y0575000D03*
X0495000Y0575000D03*
X0605000Y0575000D03*
X0635000Y0575000D03*
X0665000Y0575000D03*
X0745000Y0575000D03*
X0775000Y0575000D03*
X0805000Y0575000D03*
X0790000Y0375000D03*
X0775000Y0375000D03*
X0760000Y0375000D03*
X0650000Y0375000D03*
X0635000Y0375000D03*
X0620000Y0375000D03*
X0480000Y0375000D03*
X0465000Y0375000D03*
X0450000Y0375000D03*
D14*
X0435000Y0375000D03*
X0495000Y0375000D03*
X0605000Y0375000D03*
X0665000Y0375000D03*
X0745000Y0375000D03*
X0805000Y0375000D03*
D15*
X0845000Y0453750D03*
X0845000Y0483750D03*
X0370000Y0483750D03*
X0370000Y0453750D03*
D16*
X0305000Y0425000D03*
X0305000Y0415000D03*
X0305000Y0405000D03*
X0305000Y0395000D03*
X0295000Y0395000D03*
X0295000Y0405000D03*
X0295000Y0415000D03*
X0295000Y0425000D03*
X0295000Y0385000D03*
X0295000Y0375000D03*
X0295000Y0365000D03*
X0305000Y0365000D03*
X0305000Y0375000D03*
X0305000Y0385000D03*
X0565000Y0340000D03*
X0565000Y0430000D03*
X0705000Y0430000D03*
X0705000Y0340000D03*
X0845000Y0340000D03*
X0845000Y0430000D03*
D17*
X0810000Y0335000D03*
X0810000Y0320000D03*
X0810000Y0305000D03*
X0795000Y0305000D03*
X0780000Y0305000D03*
X0765000Y0305000D03*
X0765000Y0320000D03*
X0780000Y0320000D03*
X0795000Y0320000D03*
X0795000Y0335000D03*
X0780000Y0335000D03*
X0765000Y0335000D03*
X0670000Y0335000D03*
X0655000Y0335000D03*
X0655000Y0320000D03*
X0670000Y0320000D03*
X0670000Y0305000D03*
X0655000Y0305000D03*
X0640000Y0305000D03*
X0625000Y0305000D03*
X0625000Y0320000D03*
X0640000Y0320000D03*
X0640000Y0335000D03*
X0625000Y0335000D03*
X0530000Y0335000D03*
X0515000Y0335000D03*
X0500000Y0335000D03*
X0500000Y0320000D03*
X0515000Y0320000D03*
X0530000Y0320000D03*
X0530000Y0305000D03*
X0515000Y0305000D03*
X0500000Y0305000D03*
X0485000Y0305000D03*
X0485000Y0320000D03*
X0485000Y0335000D03*
X0425000Y0335000D03*
X0410000Y0335000D03*
X0410000Y0320000D03*
X0425000Y0320000D03*
X0425000Y0305000D03*
X0410000Y0305000D03*
X0395000Y0305000D03*
X0380000Y0305000D03*
X0380000Y0320000D03*
X0395000Y0320000D03*
X0395000Y0335000D03*
X0380000Y0335000D03*
X0365000Y0335000D03*
X0350000Y0335000D03*
X0335000Y0335000D03*
X0335000Y0320000D03*
X0350000Y0320000D03*
X0365000Y0320000D03*
X0365000Y0305000D03*
X0350000Y0305000D03*
X0335000Y0305000D03*
D18*
X0330000Y0605000D03*
D19*
X0361047Y0605000D03*
D20*
X0288543Y0340000D02*
X0281457Y0340000D01*
X0281457Y0330000D02*
X0288543Y0330000D01*
X0442500Y0308543D02*
X0442500Y0301457D01*
X0452500Y0301457D02*
X0452500Y0308543D01*
X0462500Y0308543D02*
X0462500Y0301457D01*
X0547500Y0301457D02*
X0547500Y0308543D01*
X0557500Y0308543D02*
X0557500Y0301457D01*
X0567500Y0301457D02*
X0567500Y0308543D01*
X0687500Y0308543D02*
X0687500Y0301457D01*
X0697500Y0301457D02*
X0697500Y0308543D01*
X0707500Y0308543D02*
X0707500Y0301457D01*
X0827500Y0301457D02*
X0827500Y0308543D01*
X0837500Y0308543D02*
X0837500Y0301457D01*
X0847500Y0301457D02*
X0847500Y0308543D01*
D21*
X0346350Y0520000D02*
X0341150Y0520000D01*
X0316350Y0520000D02*
X0311150Y0520000D01*
D22*
X0300000Y0481750D03*
D23*
X0300000Y0495750D03*
D24*
X0271250Y0291250D02*
X0858625Y0291250D01*
X0858750Y0291375D01*
X0858750Y0471250D01*
X0365000Y0471250D01*
X0360000Y0467500D01*
X0288407Y0467500D01*
X0288407Y0456411D01*
X0291411Y0453407D01*
X0294175Y0453407D01*
X0294504Y0453736D01*
X0296123Y0454407D01*
X0303877Y0454407D01*
X0305496Y0453736D01*
X0306736Y0452496D01*
X0307407Y0450877D01*
X0307407Y0449123D01*
X0306736Y0447504D01*
X0305496Y0446264D01*
X0303877Y0445593D01*
X0296123Y0445593D01*
X0294504Y0446264D01*
X0294175Y0446593D01*
X0289322Y0446593D01*
X0288070Y0447112D01*
X0283070Y0452112D01*
X0282112Y0453070D01*
X0281593Y0454322D01*
X0281593Y0467500D01*
X0271250Y0467500D01*
X0271250Y0291250D01*
X0271250Y0291442D02*
X0858750Y0291442D01*
X0858750Y0292640D02*
X0271250Y0292640D01*
X0271250Y0293839D02*
X0858750Y0293839D01*
X0858750Y0295037D02*
X0271250Y0295037D01*
X0271250Y0296236D02*
X0858750Y0296236D01*
X0858750Y0297434D02*
X0850478Y0297434D01*
X0850304Y0297260D02*
X0851697Y0298653D01*
X0852450Y0300472D01*
X0852450Y0309528D01*
X0851697Y0311347D01*
X0850304Y0312740D01*
X0848485Y0313494D01*
X0846515Y0313494D01*
X0844696Y0312740D01*
X0843303Y0311347D01*
X0842550Y0309528D01*
X0842550Y0300472D01*
X0843303Y0298653D01*
X0844696Y0297260D01*
X0846515Y0296506D01*
X0848485Y0296506D01*
X0850304Y0297260D01*
X0851677Y0298633D02*
X0858750Y0298633D01*
X0858750Y0299831D02*
X0852185Y0299831D01*
X0852450Y0301030D02*
X0858750Y0301030D01*
X0858750Y0302228D02*
X0852450Y0302228D01*
X0852450Y0303427D02*
X0858750Y0303427D01*
X0858750Y0304625D02*
X0852450Y0304625D01*
X0852450Y0305824D02*
X0858750Y0305824D01*
X0858750Y0307022D02*
X0852450Y0307022D01*
X0852450Y0308221D02*
X0858750Y0308221D01*
X0858750Y0309419D02*
X0852450Y0309419D01*
X0851999Y0310618D02*
X0858750Y0310618D01*
X0858750Y0311816D02*
X0851228Y0311816D01*
X0849641Y0313015D02*
X0858750Y0313015D01*
X0858750Y0314213D02*
X0815042Y0314213D01*
X0813844Y0313015D02*
X0825359Y0313015D01*
X0824696Y0312740D02*
X0823303Y0311347D01*
X0822550Y0309528D01*
X0822550Y0300472D01*
X0823303Y0298653D01*
X0824696Y0297260D01*
X0826515Y0296506D01*
X0828485Y0296506D01*
X0830304Y0297260D01*
X0831697Y0298653D01*
X0832450Y0300472D01*
X0832450Y0309528D01*
X0831697Y0311347D01*
X0830304Y0312740D01*
X0828485Y0313494D01*
X0826515Y0313494D01*
X0824696Y0312740D01*
X0823772Y0311816D02*
X0814012Y0311816D01*
X0813329Y0312500D02*
X0817657Y0316828D01*
X0817657Y0323172D01*
X0813329Y0327500D01*
X0817657Y0331828D01*
X0817657Y0338172D01*
X0813172Y0342657D01*
X0806828Y0342657D01*
X0802500Y0338329D01*
X0798172Y0342657D01*
X0791828Y0342657D01*
X0787500Y0338329D01*
X0783172Y0342657D01*
X0776828Y0342657D01*
X0772500Y0338329D01*
X0768172Y0342657D01*
X0761828Y0342657D01*
X0757343Y0338172D01*
X0757343Y0331828D01*
X0761671Y0327500D01*
X0757343Y0323172D01*
X0757343Y0316828D01*
X0761671Y0312500D01*
X0757343Y0308172D01*
X0757343Y0301828D01*
X0761828Y0297343D01*
X0768172Y0297343D01*
X0772500Y0301671D01*
X0776828Y0297343D01*
X0783172Y0297343D01*
X0787500Y0301671D01*
X0791828Y0297343D01*
X0798172Y0297343D01*
X0802500Y0301671D01*
X0806828Y0297343D01*
X0813172Y0297343D01*
X0817657Y0301828D01*
X0817657Y0308172D01*
X0813329Y0312500D01*
X0815211Y0310618D02*
X0823001Y0310618D01*
X0822550Y0309419D02*
X0816409Y0309419D01*
X0817608Y0308221D02*
X0822550Y0308221D01*
X0822550Y0307022D02*
X0817657Y0307022D01*
X0817657Y0305824D02*
X0822550Y0305824D01*
X0822550Y0304625D02*
X0817657Y0304625D01*
X0817657Y0303427D02*
X0822550Y0303427D01*
X0822550Y0302228D02*
X0817657Y0302228D01*
X0816859Y0301030D02*
X0822550Y0301030D01*
X0822815Y0299831D02*
X0815660Y0299831D01*
X0814461Y0298633D02*
X0823323Y0298633D01*
X0824522Y0297434D02*
X0813263Y0297434D01*
X0806737Y0297434D02*
X0798263Y0297434D01*
X0799461Y0298633D02*
X0805538Y0298633D01*
X0804340Y0299831D02*
X0800660Y0299831D01*
X0801859Y0301030D02*
X0803141Y0301030D01*
X0791737Y0297434D02*
X0783263Y0297434D01*
X0784461Y0298633D02*
X0790538Y0298633D01*
X0789340Y0299831D02*
X0785660Y0299831D01*
X0786859Y0301030D02*
X0788141Y0301030D01*
X0776737Y0297434D02*
X0768263Y0297434D01*
X0769461Y0298633D02*
X0775538Y0298633D01*
X0774340Y0299831D02*
X0770660Y0299831D01*
X0771859Y0301030D02*
X0773141Y0301030D01*
X0761737Y0297434D02*
X0710478Y0297434D01*
X0710304Y0297260D02*
X0711697Y0298653D01*
X0712450Y0300472D01*
X0712450Y0309528D01*
X0711697Y0311347D01*
X0710304Y0312740D01*
X0708485Y0313494D01*
X0706515Y0313494D01*
X0704696Y0312740D01*
X0703303Y0311347D01*
X0702550Y0309528D01*
X0702550Y0300472D01*
X0703303Y0298653D01*
X0704696Y0297260D01*
X0706515Y0296506D01*
X0708485Y0296506D01*
X0710304Y0297260D01*
X0711677Y0298633D02*
X0760538Y0298633D01*
X0759340Y0299831D02*
X0712185Y0299831D01*
X0712450Y0301030D02*
X0758141Y0301030D01*
X0757343Y0302228D02*
X0737926Y0302228D01*
X0736651Y0301700D02*
X0739702Y0302964D01*
X0742036Y0305298D01*
X0742036Y0305298D01*
X0743300Y0308349D01*
X0743300Y0311651D01*
X0742036Y0314702D01*
X0739702Y0317036D01*
X0739702Y0317036D01*
X0736651Y0318300D01*
X0733349Y0318300D01*
X0730298Y0317036D01*
X0727964Y0314702D01*
X0727964Y0314702D01*
X0726700Y0311651D01*
X0726700Y0308349D01*
X0727964Y0305298D01*
X0730298Y0302964D01*
X0733349Y0301700D01*
X0734586Y0301700D01*
X0736651Y0301700D01*
X0739702Y0302964D02*
X0739702Y0302964D01*
X0740165Y0303427D02*
X0757343Y0303427D01*
X0757343Y0304625D02*
X0741363Y0304625D01*
X0742254Y0305824D02*
X0757343Y0305824D01*
X0757343Y0307022D02*
X0742750Y0307022D01*
X0743247Y0308221D02*
X0757392Y0308221D01*
X0758591Y0309419D02*
X0743300Y0309419D01*
X0743300Y0310618D02*
X0759789Y0310618D01*
X0760988Y0311816D02*
X0743231Y0311816D01*
X0743300Y0311651D02*
X0743300Y0311651D01*
X0742735Y0313015D02*
X0761156Y0313015D01*
X0759958Y0314213D02*
X0742239Y0314213D01*
X0741326Y0315412D02*
X0758759Y0315412D01*
X0757561Y0316610D02*
X0740128Y0316610D01*
X0737836Y0317809D02*
X0757343Y0317809D01*
X0757343Y0319007D02*
X0677657Y0319007D01*
X0677657Y0317809D02*
X0732164Y0317809D01*
X0730298Y0317036D02*
X0730298Y0317036D01*
X0729872Y0316610D02*
X0677439Y0316610D01*
X0677657Y0316828D02*
X0677657Y0323172D01*
X0673329Y0327500D01*
X0677657Y0331828D01*
X0677657Y0338172D01*
X0673172Y0342657D01*
X0666828Y0342657D01*
X0662500Y0338329D01*
X0658172Y0342657D01*
X0651828Y0342657D01*
X0647500Y0338329D01*
X0643172Y0342657D01*
X0636828Y0342657D01*
X0632500Y0338329D01*
X0628172Y0342657D01*
X0621828Y0342657D01*
X0617343Y0338172D01*
X0617343Y0331828D01*
X0621671Y0327500D01*
X0617343Y0323172D01*
X0617343Y0316828D01*
X0621671Y0312500D01*
X0617343Y0308172D01*
X0617343Y0301828D01*
X0621828Y0297343D01*
X0628172Y0297343D01*
X0632500Y0301671D01*
X0636828Y0297343D01*
X0643172Y0297343D01*
X0647500Y0301671D01*
X0651828Y0297343D01*
X0658172Y0297343D01*
X0662500Y0301671D01*
X0666828Y0297343D01*
X0673172Y0297343D01*
X0677657Y0301828D01*
X0677657Y0308172D01*
X0673329Y0312500D01*
X0677657Y0316828D01*
X0676241Y0315412D02*
X0728674Y0315412D01*
X0727761Y0314213D02*
X0675042Y0314213D01*
X0673844Y0313015D02*
X0685359Y0313015D01*
X0684696Y0312740D02*
X0683303Y0311347D01*
X0682550Y0309528D01*
X0682550Y0300472D01*
X0683303Y0298653D01*
X0684696Y0297260D01*
X0686515Y0296506D01*
X0688485Y0296506D01*
X0690304Y0297260D01*
X0691697Y0298653D01*
X0692450Y0300472D01*
X0692450Y0309528D01*
X0691697Y0311347D01*
X0690304Y0312740D01*
X0688485Y0313494D01*
X0686515Y0313494D01*
X0684696Y0312740D01*
X0683772Y0311816D02*
X0674012Y0311816D01*
X0675211Y0310618D02*
X0683001Y0310618D01*
X0682550Y0309419D02*
X0676409Y0309419D01*
X0677608Y0308221D02*
X0682550Y0308221D01*
X0682550Y0307022D02*
X0677657Y0307022D01*
X0677657Y0305824D02*
X0682550Y0305824D01*
X0682550Y0304625D02*
X0677657Y0304625D01*
X0677657Y0303427D02*
X0682550Y0303427D01*
X0682550Y0302228D02*
X0677657Y0302228D01*
X0676859Y0301030D02*
X0682550Y0301030D01*
X0682815Y0299831D02*
X0675660Y0299831D01*
X0674461Y0298633D02*
X0683323Y0298633D01*
X0684522Y0297434D02*
X0673263Y0297434D01*
X0666737Y0297434D02*
X0658263Y0297434D01*
X0659461Y0298633D02*
X0665538Y0298633D01*
X0664340Y0299831D02*
X0660660Y0299831D01*
X0661859Y0301030D02*
X0663141Y0301030D01*
X0651737Y0297434D02*
X0643263Y0297434D01*
X0644461Y0298633D02*
X0650538Y0298633D01*
X0649340Y0299831D02*
X0645660Y0299831D01*
X0646859Y0301030D02*
X0648141Y0301030D01*
X0636737Y0297434D02*
X0628263Y0297434D01*
X0629461Y0298633D02*
X0635538Y0298633D01*
X0634340Y0299831D02*
X0630660Y0299831D01*
X0631859Y0301030D02*
X0633141Y0301030D01*
X0621737Y0297434D02*
X0570478Y0297434D01*
X0570304Y0297260D02*
X0571697Y0298653D01*
X0572450Y0300472D01*
X0572450Y0309528D01*
X0571697Y0311347D01*
X0570304Y0312740D01*
X0568485Y0313494D01*
X0566515Y0313494D01*
X0564696Y0312740D01*
X0563303Y0311347D01*
X0562550Y0309528D01*
X0562550Y0300472D01*
X0563303Y0298653D01*
X0564696Y0297260D01*
X0566515Y0296506D01*
X0568485Y0296506D01*
X0570304Y0297260D01*
X0571677Y0298633D02*
X0620538Y0298633D01*
X0619340Y0299831D02*
X0572185Y0299831D01*
X0572450Y0301030D02*
X0618141Y0301030D01*
X0617343Y0302228D02*
X0597926Y0302228D01*
X0596651Y0301700D02*
X0599702Y0302964D01*
X0602036Y0305298D01*
X0602036Y0305298D01*
X0603300Y0308349D01*
X0603300Y0311651D01*
X0602036Y0314702D01*
X0599702Y0317036D01*
X0596651Y0318300D01*
X0593349Y0318300D01*
X0590298Y0317036D01*
X0587964Y0314702D01*
X0587964Y0314702D01*
X0586700Y0311651D01*
X0586700Y0308349D01*
X0587964Y0305298D01*
X0590298Y0302964D01*
X0590298Y0302964D01*
X0593349Y0301700D01*
X0594586Y0301700D01*
X0596651Y0301700D01*
X0599702Y0302964D02*
X0599702Y0302964D01*
X0600165Y0303427D02*
X0617343Y0303427D01*
X0617343Y0304625D02*
X0601363Y0304625D01*
X0602254Y0305824D02*
X0617343Y0305824D01*
X0617343Y0307022D02*
X0602750Y0307022D01*
X0603247Y0308221D02*
X0617392Y0308221D01*
X0618591Y0309419D02*
X0603300Y0309419D01*
X0603300Y0310618D02*
X0619789Y0310618D01*
X0620988Y0311816D02*
X0603231Y0311816D01*
X0602735Y0313015D02*
X0621156Y0313015D01*
X0619958Y0314213D02*
X0602239Y0314213D01*
X0602036Y0314702D02*
X0602036Y0314702D01*
X0601326Y0315412D02*
X0618759Y0315412D01*
X0617561Y0316610D02*
X0600128Y0316610D01*
X0599702Y0317036D02*
X0599702Y0317036D01*
X0597836Y0317809D02*
X0617343Y0317809D01*
X0617343Y0319007D02*
X0537657Y0319007D01*
X0537657Y0317809D02*
X0592164Y0317809D01*
X0590298Y0317036D02*
X0590298Y0317036D01*
X0589872Y0316610D02*
X0537439Y0316610D01*
X0537657Y0316828D02*
X0537657Y0323172D01*
X0533329Y0327500D01*
X0537657Y0331828D01*
X0537657Y0338172D01*
X0533172Y0342657D01*
X0526828Y0342657D01*
X0522500Y0338329D01*
X0518172Y0342657D01*
X0511828Y0342657D01*
X0507500Y0338329D01*
X0503172Y0342657D01*
X0496828Y0342657D01*
X0492500Y0338329D01*
X0488172Y0342657D01*
X0481828Y0342657D01*
X0477343Y0338172D01*
X0477343Y0331828D01*
X0481671Y0327500D01*
X0477343Y0323172D01*
X0477343Y0316828D01*
X0481671Y0312500D01*
X0477343Y0308172D01*
X0477343Y0301828D01*
X0481828Y0297343D01*
X0488172Y0297343D01*
X0492500Y0301671D01*
X0496828Y0297343D01*
X0503172Y0297343D01*
X0507500Y0301671D01*
X0511828Y0297343D01*
X0518172Y0297343D01*
X0522500Y0301671D01*
X0526828Y0297343D01*
X0533172Y0297343D01*
X0537657Y0301828D01*
X0537657Y0308172D01*
X0533329Y0312500D01*
X0537657Y0316828D01*
X0536241Y0315412D02*
X0588674Y0315412D01*
X0587761Y0314213D02*
X0535042Y0314213D01*
X0533844Y0313015D02*
X0545359Y0313015D01*
X0544696Y0312740D02*
X0543303Y0311347D01*
X0542550Y0309528D01*
X0542550Y0300472D01*
X0543303Y0298653D01*
X0544696Y0297260D01*
X0546515Y0296506D01*
X0548485Y0296506D01*
X0550304Y0297260D01*
X0551697Y0298653D01*
X0552450Y0300472D01*
X0552450Y0309528D01*
X0551697Y0311347D01*
X0550304Y0312740D01*
X0548485Y0313494D01*
X0546515Y0313494D01*
X0544696Y0312740D01*
X0543772Y0311816D02*
X0534012Y0311816D01*
X0535211Y0310618D02*
X0543001Y0310618D01*
X0542550Y0309419D02*
X0536409Y0309419D01*
X0537608Y0308221D02*
X0542550Y0308221D01*
X0542550Y0307022D02*
X0537657Y0307022D01*
X0537657Y0305824D02*
X0542550Y0305824D01*
X0542550Y0304625D02*
X0537657Y0304625D01*
X0537657Y0303427D02*
X0542550Y0303427D01*
X0542550Y0302228D02*
X0537657Y0302228D01*
X0536859Y0301030D02*
X0542550Y0301030D01*
X0542815Y0299831D02*
X0535660Y0299831D01*
X0534461Y0298633D02*
X0543323Y0298633D01*
X0544522Y0297434D02*
X0533263Y0297434D01*
X0526737Y0297434D02*
X0518263Y0297434D01*
X0519461Y0298633D02*
X0525538Y0298633D01*
X0524340Y0299831D02*
X0520660Y0299831D01*
X0521859Y0301030D02*
X0523141Y0301030D01*
X0511737Y0297434D02*
X0503263Y0297434D01*
X0504461Y0298633D02*
X0510538Y0298633D01*
X0509340Y0299831D02*
X0505660Y0299831D01*
X0506859Y0301030D02*
X0508141Y0301030D01*
X0496737Y0297434D02*
X0488263Y0297434D01*
X0489461Y0298633D02*
X0495538Y0298633D01*
X0494340Y0299831D02*
X0490660Y0299831D01*
X0491859Y0301030D02*
X0493141Y0301030D01*
X0481737Y0297434D02*
X0465714Y0297434D01*
X0465851Y0297534D02*
X0466423Y0298106D01*
X0466899Y0298761D01*
X0467266Y0299482D01*
X0467517Y0300252D01*
X0467643Y0301052D01*
X0467643Y0304419D01*
X0463081Y0304419D01*
X0463081Y0305581D01*
X0467643Y0305581D01*
X0467643Y0308948D01*
X0467517Y0309748D01*
X0467266Y0310518D01*
X0466899Y0311239D01*
X0466423Y0311894D01*
X0465851Y0312466D01*
X0465196Y0312942D01*
X0464474Y0313310D01*
X0463704Y0313560D01*
X0463081Y0313659D01*
X0463081Y0305581D01*
X0461919Y0305581D01*
X0461919Y0313659D01*
X0461296Y0313560D01*
X0460526Y0313310D01*
X0459804Y0312942D01*
X0459149Y0312466D01*
X0458577Y0311894D01*
X0458101Y0311239D01*
X0457734Y0310518D01*
X0457500Y0309799D01*
X0457266Y0310518D01*
X0456899Y0311239D01*
X0456423Y0311894D01*
X0455851Y0312466D01*
X0455196Y0312942D01*
X0454474Y0313310D01*
X0453704Y0313560D01*
X0453081Y0313659D01*
X0453081Y0305581D01*
X0451919Y0305581D01*
X0451919Y0313659D01*
X0451296Y0313560D01*
X0450526Y0313310D01*
X0449804Y0312942D01*
X0449149Y0312466D01*
X0448577Y0311894D01*
X0448101Y0311239D01*
X0447734Y0310518D01*
X0447500Y0309799D01*
X0447266Y0310518D01*
X0446899Y0311239D01*
X0446423Y0311894D01*
X0445851Y0312466D01*
X0445196Y0312942D01*
X0444474Y0313310D01*
X0443704Y0313560D01*
X0443081Y0313659D01*
X0443081Y0305581D01*
X0441919Y0305581D01*
X0441919Y0304419D01*
X0443081Y0304419D01*
X0443081Y0296341D01*
X0443704Y0296440D01*
X0444474Y0296690D01*
X0445196Y0297058D01*
X0445851Y0297534D01*
X0446423Y0298106D01*
X0446899Y0298761D01*
X0447266Y0299482D01*
X0447500Y0300201D01*
X0447734Y0299482D01*
X0448101Y0298761D01*
X0448577Y0298106D01*
X0449149Y0297534D01*
X0449804Y0297058D01*
X0450526Y0296690D01*
X0451296Y0296440D01*
X0451919Y0296341D01*
X0451919Y0304419D01*
X0453081Y0304419D01*
X0453081Y0296341D01*
X0453704Y0296440D01*
X0454474Y0296690D01*
X0455196Y0297058D01*
X0455851Y0297534D01*
X0456423Y0298106D01*
X0456899Y0298761D01*
X0457266Y0299482D01*
X0457500Y0300201D01*
X0457734Y0299482D01*
X0458101Y0298761D01*
X0458577Y0298106D01*
X0459149Y0297534D01*
X0459804Y0297058D01*
X0460526Y0296690D01*
X0461296Y0296440D01*
X0461919Y0296341D01*
X0461919Y0304419D01*
X0463081Y0304419D01*
X0463081Y0296341D01*
X0463704Y0296440D01*
X0464474Y0296690D01*
X0465196Y0297058D01*
X0465851Y0297534D01*
X0466806Y0298633D02*
X0480538Y0298633D01*
X0479340Y0299831D02*
X0467380Y0299831D01*
X0467640Y0301030D02*
X0478141Y0301030D01*
X0477343Y0302228D02*
X0467643Y0302228D01*
X0467643Y0303427D02*
X0477343Y0303427D01*
X0477343Y0304625D02*
X0463081Y0304625D01*
X0461919Y0304625D02*
X0453081Y0304625D01*
X0453081Y0304419D02*
X0453081Y0305581D01*
X0461919Y0305581D01*
X0461919Y0304419D01*
X0457357Y0304419D01*
X0453081Y0304419D01*
X0453081Y0303427D02*
X0451919Y0303427D01*
X0451919Y0304419D02*
X0447643Y0304419D01*
X0443081Y0304419D01*
X0443081Y0305581D01*
X0451919Y0305581D01*
X0451919Y0304419D01*
X0451919Y0304625D02*
X0443081Y0304625D01*
X0441919Y0304625D02*
X0425600Y0304625D01*
X0425600Y0304400D02*
X0425600Y0305600D01*
X0432850Y0305600D01*
X0432850Y0308252D01*
X0428602Y0312500D01*
X0432850Y0316748D01*
X0432850Y0319400D01*
X0425600Y0319400D01*
X0425600Y0320600D01*
X0432850Y0320600D01*
X0432850Y0323252D01*
X0428602Y0327500D01*
X0432850Y0331748D01*
X0432850Y0334400D01*
X0425600Y0334400D01*
X0425600Y0335600D01*
X0424400Y0335600D01*
X0424400Y0342850D01*
X0421748Y0342850D01*
X0417500Y0338602D01*
X0413252Y0342850D01*
X0410600Y0342850D01*
X0410600Y0335600D01*
X0409400Y0335600D01*
X0409400Y0342850D01*
X0406748Y0342850D01*
X0402500Y0338602D01*
X0398252Y0342850D01*
X0395600Y0342850D01*
X0395600Y0335600D01*
X0394400Y0335600D01*
X0394400Y0342850D01*
X0391748Y0342850D01*
X0387500Y0338602D01*
X0383252Y0342850D01*
X0380600Y0342850D01*
X0380600Y0335600D01*
X0379400Y0335600D01*
X0379400Y0342850D01*
X0376748Y0342850D01*
X0372500Y0338602D01*
X0368252Y0342850D01*
X0365600Y0342850D01*
X0365600Y0335600D01*
X0364400Y0335600D01*
X0364400Y0342850D01*
X0361748Y0342850D01*
X0357500Y0338602D01*
X0353252Y0342850D01*
X0350600Y0342850D01*
X0350600Y0335600D01*
X0349400Y0335600D01*
X0349400Y0342850D01*
X0346748Y0342850D01*
X0342500Y0338602D01*
X0338252Y0342850D01*
X0335600Y0342850D01*
X0335600Y0335600D01*
X0334400Y0335600D01*
X0334400Y0342850D01*
X0331748Y0342850D01*
X0327150Y0338252D01*
X0327150Y0335600D01*
X0334400Y0335600D01*
X0334400Y0334400D01*
X0327150Y0334400D01*
X0327150Y0331748D01*
X0331398Y0327500D01*
X0327150Y0323252D01*
X0327150Y0320600D01*
X0334400Y0320600D01*
X0334400Y0327150D01*
X0334400Y0334400D01*
X0335600Y0334400D01*
X0335600Y0335600D01*
X0342150Y0335600D01*
X0349400Y0335600D01*
X0349400Y0334400D01*
X0335600Y0334400D01*
X0335600Y0320600D01*
X0342150Y0320600D01*
X0349400Y0320600D01*
X0349400Y0327150D01*
X0349400Y0334400D01*
X0350600Y0334400D01*
X0350600Y0335600D01*
X0364400Y0335600D01*
X0364400Y0334400D01*
X0357150Y0334400D01*
X0350600Y0334400D01*
X0350600Y0320600D01*
X0349400Y0320600D01*
X0349400Y0319400D01*
X0335600Y0319400D01*
X0335600Y0320600D01*
X0334400Y0320600D01*
X0334400Y0319400D01*
X0327150Y0319400D01*
X0327150Y0316748D01*
X0331398Y0312500D01*
X0327150Y0308252D01*
X0327150Y0305600D01*
X0334400Y0305600D01*
X0334400Y0319400D01*
X0335600Y0319400D01*
X0335600Y0312150D01*
X0335600Y0305600D01*
X0334400Y0305600D01*
X0334400Y0304400D01*
X0335600Y0304400D01*
X0335600Y0305600D01*
X0349400Y0305600D01*
X0349400Y0312150D01*
X0349400Y0319400D01*
X0350600Y0319400D01*
X0350600Y0320600D01*
X0364400Y0320600D01*
X0364400Y0327150D01*
X0364400Y0334400D01*
X0365600Y0334400D01*
X0365600Y0335600D01*
X0379400Y0335600D01*
X0379400Y0334400D01*
X0372150Y0334400D01*
X0365600Y0334400D01*
X0365600Y0320600D01*
X0364400Y0320600D01*
X0364400Y0319400D01*
X0365600Y0319400D01*
X0365600Y0320600D01*
X0379400Y0320600D01*
X0379400Y0327150D01*
X0379400Y0334400D01*
X0380600Y0334400D01*
X0380600Y0335600D01*
X0394400Y0335600D01*
X0394400Y0334400D01*
X0387150Y0334400D01*
X0380600Y0334400D01*
X0380600Y0320600D01*
X0379400Y0320600D01*
X0379400Y0319400D01*
X0380600Y0319400D01*
X0380600Y0320600D01*
X0394400Y0320600D01*
X0394400Y0327150D01*
X0394400Y0334400D01*
X0395600Y0334400D01*
X0395600Y0335600D01*
X0409400Y0335600D01*
X0409400Y0334400D01*
X0402150Y0334400D01*
X0395600Y0334400D01*
X0395600Y0320600D01*
X0394400Y0320600D01*
X0394400Y0319400D01*
X0395600Y0319400D01*
X0395600Y0320600D01*
X0409400Y0320600D01*
X0409400Y0327150D01*
X0409400Y0334400D01*
X0410600Y0334400D01*
X0410600Y0335600D01*
X0424400Y0335600D01*
X0424400Y0334400D01*
X0417150Y0334400D01*
X0410600Y0334400D01*
X0410600Y0320600D01*
X0409400Y0320600D01*
X0409400Y0319400D01*
X0410600Y0319400D01*
X0410600Y0320600D01*
X0424400Y0320600D01*
X0424400Y0327150D01*
X0424400Y0334400D01*
X0425600Y0334400D01*
X0425600Y0320600D01*
X0424400Y0320600D01*
X0424400Y0319400D01*
X0425600Y0319400D01*
X0425600Y0305600D01*
X0424400Y0305600D01*
X0424400Y0312150D01*
X0424400Y0319400D01*
X0417150Y0319400D01*
X0410600Y0319400D01*
X0410600Y0305600D01*
X0424400Y0305600D01*
X0424400Y0304400D01*
X0425600Y0304400D01*
X0432850Y0304400D01*
X0432850Y0301748D01*
X0428252Y0297150D01*
X0425600Y0297150D01*
X0425600Y0304400D01*
X0425600Y0303427D02*
X0424400Y0303427D01*
X0424400Y0304400D02*
X0424400Y0297150D01*
X0421748Y0297150D01*
X0417500Y0301398D01*
X0413252Y0297150D01*
X0410600Y0297150D01*
X0410600Y0304400D01*
X0410600Y0305600D01*
X0409400Y0305600D01*
X0409400Y0312150D01*
X0409400Y0319400D01*
X0402150Y0319400D01*
X0395600Y0319400D01*
X0395600Y0305600D01*
X0409400Y0305600D01*
X0409400Y0304400D01*
X0410600Y0304400D01*
X0417150Y0304400D01*
X0424400Y0304400D01*
X0424400Y0304625D02*
X0410600Y0304625D01*
X0410600Y0303427D02*
X0409400Y0303427D01*
X0409400Y0304400D02*
X0409400Y0297150D01*
X0406748Y0297150D01*
X0402500Y0301398D01*
X0398252Y0297150D01*
X0395600Y0297150D01*
X0395600Y0304400D01*
X0395600Y0305600D01*
X0394400Y0305600D01*
X0394400Y0312150D01*
X0394400Y0319400D01*
X0387150Y0319400D01*
X0380600Y0319400D01*
X0380600Y0305600D01*
X0394400Y0305600D01*
X0394400Y0304400D01*
X0395600Y0304400D01*
X0402150Y0304400D01*
X0409400Y0304400D01*
X0409400Y0304625D02*
X0395600Y0304625D01*
X0395600Y0303427D02*
X0394400Y0303427D01*
X0394400Y0304400D02*
X0394400Y0297150D01*
X0391748Y0297150D01*
X0387500Y0301398D01*
X0383252Y0297150D01*
X0380600Y0297150D01*
X0380600Y0304400D01*
X0380600Y0305600D01*
X0379400Y0305600D01*
X0379400Y0312150D01*
X0379400Y0319400D01*
X0372150Y0319400D01*
X0365600Y0319400D01*
X0365600Y0305600D01*
X0379400Y0305600D01*
X0379400Y0304400D01*
X0380600Y0304400D01*
X0387150Y0304400D01*
X0394400Y0304400D01*
X0394400Y0304625D02*
X0380600Y0304625D01*
X0380600Y0303427D02*
X0379400Y0303427D01*
X0379400Y0304400D02*
X0379400Y0297150D01*
X0376748Y0297150D01*
X0372500Y0301398D01*
X0368252Y0297150D01*
X0365600Y0297150D01*
X0365600Y0304400D01*
X0365600Y0305600D01*
X0364400Y0305600D01*
X0364400Y0312150D01*
X0364400Y0319400D01*
X0357150Y0319400D01*
X0350600Y0319400D01*
X0350600Y0305600D01*
X0364400Y0305600D01*
X0364400Y0304400D01*
X0365600Y0304400D01*
X0372150Y0304400D01*
X0379400Y0304400D01*
X0379400Y0304625D02*
X0365600Y0304625D01*
X0365600Y0303427D02*
X0364400Y0303427D01*
X0364400Y0304400D02*
X0364400Y0297150D01*
X0361748Y0297150D01*
X0357500Y0301398D01*
X0353252Y0297150D01*
X0350600Y0297150D01*
X0350600Y0304400D01*
X0350600Y0305600D01*
X0349400Y0305600D01*
X0349400Y0304400D01*
X0350600Y0304400D01*
X0357150Y0304400D01*
X0364400Y0304400D01*
X0364400Y0304625D02*
X0350600Y0304625D01*
X0350600Y0303427D02*
X0349400Y0303427D01*
X0349400Y0304400D02*
X0349400Y0297150D01*
X0346748Y0297150D01*
X0342500Y0301398D01*
X0338252Y0297150D01*
X0335600Y0297150D01*
X0335600Y0304400D01*
X0342150Y0304400D01*
X0349400Y0304400D01*
X0349400Y0304625D02*
X0335600Y0304625D01*
X0335600Y0303427D02*
X0334400Y0303427D01*
X0334400Y0304400D02*
X0334400Y0297150D01*
X0331748Y0297150D01*
X0327150Y0301748D01*
X0327150Y0304400D01*
X0334400Y0304400D01*
X0334400Y0304625D02*
X0296363Y0304625D01*
X0297036Y0305298D02*
X0298300Y0308349D01*
X0298300Y0311651D01*
X0297036Y0314702D01*
X0294702Y0317036D01*
X0291651Y0318300D01*
X0288349Y0318300D01*
X0285298Y0317036D01*
X0282964Y0314702D01*
X0282964Y0314702D01*
X0281700Y0311651D01*
X0281700Y0308349D01*
X0282964Y0305298D01*
X0285298Y0302964D01*
X0288349Y0301700D01*
X0290414Y0301700D01*
X0291651Y0301700D01*
X0294702Y0302964D01*
X0297036Y0305298D01*
X0297036Y0305298D01*
X0297254Y0305824D02*
X0327150Y0305824D01*
X0327150Y0307022D02*
X0297750Y0307022D01*
X0298247Y0308221D02*
X0327150Y0308221D01*
X0328318Y0309419D02*
X0298300Y0309419D01*
X0298300Y0310618D02*
X0329516Y0310618D01*
X0330715Y0311816D02*
X0298231Y0311816D01*
X0297735Y0313015D02*
X0330884Y0313015D01*
X0329685Y0314213D02*
X0297239Y0314213D01*
X0297036Y0314702D02*
X0297036Y0314702D01*
X0296326Y0315412D02*
X0328487Y0315412D01*
X0327288Y0316610D02*
X0295128Y0316610D01*
X0294702Y0317036D02*
X0294702Y0317036D01*
X0292836Y0317809D02*
X0327150Y0317809D01*
X0327150Y0319007D02*
X0271250Y0319007D01*
X0271250Y0317809D02*
X0287164Y0317809D01*
X0285298Y0317036D02*
X0285298Y0317036D01*
X0284872Y0316610D02*
X0271250Y0316610D01*
X0271250Y0315412D02*
X0283674Y0315412D01*
X0282761Y0314213D02*
X0271250Y0314213D01*
X0271250Y0313015D02*
X0282265Y0313015D01*
X0281769Y0311816D02*
X0271250Y0311816D01*
X0271250Y0310618D02*
X0281700Y0310618D01*
X0281700Y0309419D02*
X0271250Y0309419D01*
X0271250Y0308221D02*
X0281753Y0308221D01*
X0282250Y0307022D02*
X0271250Y0307022D01*
X0271250Y0305824D02*
X0282746Y0305824D01*
X0282964Y0305298D02*
X0282964Y0305298D01*
X0283637Y0304625D02*
X0271250Y0304625D01*
X0271250Y0303427D02*
X0284835Y0303427D01*
X0285298Y0302964D02*
X0285298Y0302964D01*
X0287074Y0302228D02*
X0271250Y0302228D01*
X0271250Y0301030D02*
X0327869Y0301030D01*
X0327150Y0302228D02*
X0292926Y0302228D01*
X0291651Y0301700D02*
X0291651Y0301700D01*
X0294702Y0302964D02*
X0294702Y0302964D01*
X0295165Y0303427D02*
X0327150Y0303427D01*
X0325000Y0303427D02*
X0470000Y0303427D01*
X0470000Y0304625D02*
X0325000Y0304625D01*
X0325000Y0305824D02*
X0470000Y0305824D01*
X0470000Y0307022D02*
X0325000Y0307022D01*
X0325000Y0308221D02*
X0470000Y0308221D01*
X0470000Y0309419D02*
X0325000Y0309419D01*
X0325000Y0310618D02*
X0470000Y0310618D01*
X0470000Y0311816D02*
X0325000Y0311816D01*
X0325000Y0313015D02*
X0470000Y0313015D01*
X0470000Y0314213D02*
X0325000Y0314213D01*
X0325000Y0315412D02*
X0470000Y0315412D01*
X0470000Y0316610D02*
X0325000Y0316610D01*
X0325000Y0317809D02*
X0470000Y0317809D01*
X0470000Y0319007D02*
X0325000Y0319007D01*
X0325000Y0320206D02*
X0470000Y0320206D01*
X0470000Y0321404D02*
X0325000Y0321404D01*
X0325000Y0322603D02*
X0470000Y0322603D01*
X0470000Y0323801D02*
X0325000Y0323801D01*
X0325000Y0325000D02*
X0470000Y0325000D01*
X0470000Y0326199D02*
X0325000Y0326199D01*
X0325000Y0327397D02*
X0470000Y0327397D01*
X0470000Y0328596D02*
X0325000Y0328596D01*
X0325000Y0329794D02*
X0470000Y0329794D01*
X0470000Y0330993D02*
X0325000Y0330993D01*
X0325000Y0332191D02*
X0470000Y0332191D01*
X0470000Y0333390D02*
X0325000Y0333390D01*
X0325000Y0334588D02*
X0470000Y0334588D01*
X0470000Y0335787D02*
X0325000Y0335787D01*
X0325000Y0336985D02*
X0470000Y0336985D01*
X0470000Y0338184D02*
X0325000Y0338184D01*
X0325000Y0339382D02*
X0470000Y0339382D01*
X0470000Y0340581D02*
X0325000Y0340581D01*
X0325000Y0341779D02*
X0470000Y0341779D01*
X0470000Y0342978D02*
X0325000Y0342978D01*
X0325000Y0344176D02*
X0470000Y0344176D01*
X0470000Y0345000D02*
X0470000Y0295000D01*
X0325000Y0295000D01*
X0325000Y0345000D01*
X0470000Y0345000D01*
X0477355Y0338184D02*
X0432850Y0338184D01*
X0432850Y0338252D02*
X0428252Y0342850D01*
X0425600Y0342850D01*
X0425600Y0335600D01*
X0432850Y0335600D01*
X0432850Y0338252D01*
X0432850Y0336985D02*
X0477343Y0336985D01*
X0477343Y0335787D02*
X0432850Y0335787D01*
X0432850Y0333390D02*
X0477343Y0333390D01*
X0477343Y0334588D02*
X0425600Y0334588D01*
X0425600Y0333390D02*
X0424400Y0333390D01*
X0424400Y0334588D02*
X0410600Y0334588D01*
X0410600Y0333390D02*
X0409400Y0333390D01*
X0409400Y0334588D02*
X0395600Y0334588D01*
X0395600Y0333390D02*
X0394400Y0333390D01*
X0394400Y0334588D02*
X0380600Y0334588D01*
X0380600Y0333390D02*
X0379400Y0333390D01*
X0379400Y0334588D02*
X0365600Y0334588D01*
X0365600Y0333390D02*
X0364400Y0333390D01*
X0364400Y0334588D02*
X0350600Y0334588D01*
X0350600Y0333390D02*
X0349400Y0333390D01*
X0349400Y0334588D02*
X0335600Y0334588D01*
X0335600Y0333390D02*
X0334400Y0333390D01*
X0334400Y0334588D02*
X0290403Y0334588D01*
X0289528Y0334950D02*
X0291347Y0334197D01*
X0292740Y0332804D01*
X0293494Y0330985D01*
X0293494Y0329015D01*
X0292740Y0327196D01*
X0291347Y0325803D01*
X0289528Y0325050D01*
X0280472Y0325050D01*
X0278653Y0325803D01*
X0277260Y0327196D01*
X0276506Y0329015D01*
X0276506Y0330985D01*
X0277260Y0332804D01*
X0278653Y0334197D01*
X0280472Y0334950D01*
X0289528Y0334950D01*
X0289528Y0335050D02*
X0291347Y0335803D01*
X0292740Y0337196D01*
X0293494Y0339015D01*
X0293494Y0340985D01*
X0292740Y0342804D01*
X0291347Y0344197D01*
X0289528Y0344950D01*
X0280472Y0344950D01*
X0278653Y0344197D01*
X0277260Y0342804D01*
X0276506Y0340985D01*
X0276506Y0339015D01*
X0277260Y0337196D01*
X0278653Y0335803D01*
X0280472Y0335050D01*
X0289528Y0335050D01*
X0291307Y0335787D02*
X0327150Y0335787D01*
X0327150Y0336985D02*
X0292529Y0336985D01*
X0293149Y0338184D02*
X0327150Y0338184D01*
X0328281Y0339382D02*
X0293494Y0339382D01*
X0293494Y0340581D02*
X0329479Y0340581D01*
X0330678Y0341779D02*
X0293165Y0341779D01*
X0292567Y0342978D02*
X0561745Y0342978D01*
X0560593Y0341825D02*
X0563175Y0344407D01*
X0566825Y0344407D01*
X0569407Y0341825D01*
X0569407Y0338175D01*
X0566825Y0335593D01*
X0563175Y0335593D01*
X0560593Y0338175D01*
X0560593Y0341825D01*
X0560593Y0341779D02*
X0534050Y0341779D01*
X0535248Y0340581D02*
X0560593Y0340581D01*
X0560593Y0339382D02*
X0536447Y0339382D01*
X0537645Y0338184D02*
X0560593Y0338184D01*
X0561782Y0336985D02*
X0537657Y0336985D01*
X0537657Y0335787D02*
X0562981Y0335787D01*
X0567019Y0335787D02*
X0617343Y0335787D01*
X0617343Y0336985D02*
X0568218Y0336985D01*
X0569407Y0338184D02*
X0617355Y0338184D01*
X0618553Y0339382D02*
X0569407Y0339382D01*
X0569407Y0340581D02*
X0619752Y0340581D01*
X0620950Y0341779D02*
X0569407Y0341779D01*
X0568255Y0342978D02*
X0701745Y0342978D01*
X0700593Y0341825D02*
X0703175Y0344407D01*
X0706825Y0344407D01*
X0709407Y0341825D01*
X0709407Y0338175D01*
X0706825Y0335593D01*
X0703175Y0335593D01*
X0700593Y0338175D01*
X0700593Y0341825D01*
X0700593Y0341779D02*
X0674050Y0341779D01*
X0675248Y0340581D02*
X0700593Y0340581D01*
X0700593Y0339382D02*
X0676447Y0339382D01*
X0677645Y0338184D02*
X0700593Y0338184D01*
X0701782Y0336985D02*
X0677657Y0336985D01*
X0677657Y0335787D02*
X0702981Y0335787D01*
X0707019Y0335787D02*
X0757343Y0335787D01*
X0757343Y0336985D02*
X0708218Y0336985D01*
X0709407Y0338184D02*
X0757355Y0338184D01*
X0758553Y0339382D02*
X0709407Y0339382D01*
X0709407Y0340581D02*
X0759752Y0340581D01*
X0760950Y0341779D02*
X0709407Y0341779D01*
X0708255Y0342978D02*
X0841745Y0342978D01*
X0840593Y0341825D02*
X0843175Y0344407D01*
X0846825Y0344407D01*
X0849407Y0341825D01*
X0849407Y0338175D01*
X0846825Y0335593D01*
X0843175Y0335593D01*
X0840593Y0338175D01*
X0840593Y0341825D01*
X0840593Y0341779D02*
X0814050Y0341779D01*
X0815248Y0340581D02*
X0840593Y0340581D01*
X0840593Y0339382D02*
X0816447Y0339382D01*
X0817645Y0338184D02*
X0840593Y0338184D01*
X0841782Y0336985D02*
X0817657Y0336985D01*
X0817657Y0335787D02*
X0842981Y0335787D01*
X0847019Y0335787D02*
X0858750Y0335787D01*
X0858750Y0336985D02*
X0848218Y0336985D01*
X0849407Y0338184D02*
X0858750Y0338184D01*
X0858750Y0339382D02*
X0849407Y0339382D01*
X0849407Y0340581D02*
X0858750Y0340581D01*
X0858750Y0341779D02*
X0849407Y0341779D01*
X0848255Y0342978D02*
X0858750Y0342978D01*
X0858750Y0344176D02*
X0847056Y0344176D01*
X0842944Y0344176D02*
X0707056Y0344176D01*
X0702944Y0344176D02*
X0567056Y0344176D01*
X0562944Y0344176D02*
X0291368Y0344176D01*
X0278632Y0344176D02*
X0271250Y0344176D01*
X0271250Y0342978D02*
X0277433Y0342978D01*
X0276835Y0341779D02*
X0271250Y0341779D01*
X0271250Y0340581D02*
X0276506Y0340581D01*
X0276506Y0339382D02*
X0271250Y0339382D01*
X0271250Y0338184D02*
X0276851Y0338184D01*
X0277471Y0336985D02*
X0271250Y0336985D01*
X0271250Y0335787D02*
X0278693Y0335787D01*
X0279597Y0334588D02*
X0271250Y0334588D01*
X0271250Y0333390D02*
X0277845Y0333390D01*
X0277006Y0332191D02*
X0271250Y0332191D01*
X0271250Y0330993D02*
X0276510Y0330993D01*
X0276506Y0329794D02*
X0271250Y0329794D01*
X0271250Y0328596D02*
X0276680Y0328596D01*
X0277177Y0327397D02*
X0271250Y0327397D01*
X0271250Y0326199D02*
X0278257Y0326199D01*
X0271250Y0325000D02*
X0328898Y0325000D01*
X0327700Y0323801D02*
X0271250Y0323801D01*
X0271250Y0322603D02*
X0327150Y0322603D01*
X0327150Y0321404D02*
X0271250Y0321404D01*
X0271250Y0320206D02*
X0334400Y0320206D01*
X0334400Y0321404D02*
X0335600Y0321404D01*
X0335600Y0320206D02*
X0349400Y0320206D01*
X0349400Y0321404D02*
X0350600Y0321404D01*
X0350600Y0320206D02*
X0364400Y0320206D01*
X0364400Y0321404D02*
X0365600Y0321404D01*
X0365600Y0320206D02*
X0379400Y0320206D01*
X0379400Y0321404D02*
X0380600Y0321404D01*
X0380600Y0320206D02*
X0394400Y0320206D01*
X0394400Y0321404D02*
X0395600Y0321404D01*
X0395600Y0320206D02*
X0409400Y0320206D01*
X0409400Y0321404D02*
X0410600Y0321404D01*
X0410600Y0320206D02*
X0424400Y0320206D01*
X0424400Y0321404D02*
X0425600Y0321404D01*
X0425600Y0320206D02*
X0477343Y0320206D01*
X0477343Y0321404D02*
X0432850Y0321404D01*
X0432850Y0322603D02*
X0477343Y0322603D01*
X0477973Y0323801D02*
X0432300Y0323801D01*
X0431102Y0325000D02*
X0479171Y0325000D01*
X0480370Y0326199D02*
X0429903Y0326199D01*
X0428705Y0327397D02*
X0481568Y0327397D01*
X0480576Y0328596D02*
X0429697Y0328596D01*
X0430896Y0329794D02*
X0479377Y0329794D01*
X0478179Y0330993D02*
X0432094Y0330993D01*
X0432850Y0332191D02*
X0477343Y0332191D01*
X0478553Y0339382D02*
X0431719Y0339382D01*
X0430521Y0340581D02*
X0479752Y0340581D01*
X0480950Y0341779D02*
X0429322Y0341779D01*
X0425600Y0341779D02*
X0424400Y0341779D01*
X0424400Y0340581D02*
X0425600Y0340581D01*
X0425600Y0339382D02*
X0424400Y0339382D01*
X0424400Y0338184D02*
X0425600Y0338184D01*
X0425600Y0336985D02*
X0424400Y0336985D01*
X0424400Y0335787D02*
X0425600Y0335787D01*
X0425600Y0332191D02*
X0424400Y0332191D01*
X0424400Y0330993D02*
X0425600Y0330993D01*
X0425600Y0329794D02*
X0424400Y0329794D01*
X0424400Y0328596D02*
X0425600Y0328596D01*
X0425600Y0327397D02*
X0424400Y0327397D01*
X0424400Y0326199D02*
X0425600Y0326199D01*
X0425600Y0325000D02*
X0424400Y0325000D01*
X0424400Y0323801D02*
X0425600Y0323801D01*
X0425600Y0322603D02*
X0424400Y0322603D01*
X0424400Y0319007D02*
X0425600Y0319007D01*
X0425600Y0317809D02*
X0424400Y0317809D01*
X0424400Y0316610D02*
X0425600Y0316610D01*
X0425600Y0315412D02*
X0424400Y0315412D01*
X0424400Y0314213D02*
X0425600Y0314213D01*
X0425600Y0313015D02*
X0424400Y0313015D01*
X0424400Y0311816D02*
X0425600Y0311816D01*
X0425600Y0310618D02*
X0424400Y0310618D01*
X0424400Y0309419D02*
X0425600Y0309419D01*
X0425600Y0308221D02*
X0424400Y0308221D01*
X0424400Y0307022D02*
X0425600Y0307022D01*
X0425600Y0305824D02*
X0424400Y0305824D01*
X0424400Y0302228D02*
X0425600Y0302228D01*
X0425600Y0301030D02*
X0424400Y0301030D01*
X0424400Y0299831D02*
X0425600Y0299831D01*
X0425600Y0298633D02*
X0424400Y0298633D01*
X0424400Y0297434D02*
X0425600Y0297434D01*
X0428536Y0297434D02*
X0439286Y0297434D01*
X0439149Y0297534D02*
X0439804Y0297058D01*
X0440526Y0296690D01*
X0441296Y0296440D01*
X0441919Y0296341D01*
X0441919Y0304419D01*
X0437357Y0304419D01*
X0437357Y0301052D01*
X0437483Y0300252D01*
X0437734Y0299482D01*
X0438101Y0298761D01*
X0438577Y0298106D01*
X0439149Y0297534D01*
X0438194Y0298633D02*
X0429734Y0298633D01*
X0430933Y0299831D02*
X0437620Y0299831D01*
X0437360Y0301030D02*
X0432131Y0301030D01*
X0432850Y0302228D02*
X0437357Y0302228D01*
X0437357Y0303427D02*
X0432850Y0303427D01*
X0432850Y0305824D02*
X0437357Y0305824D01*
X0437357Y0305581D02*
X0441919Y0305581D01*
X0441919Y0313659D01*
X0441296Y0313560D01*
X0440526Y0313310D01*
X0439804Y0312942D01*
X0439149Y0312466D01*
X0438577Y0311894D01*
X0438101Y0311239D01*
X0437734Y0310518D01*
X0437483Y0309748D01*
X0437357Y0308948D01*
X0437357Y0305581D01*
X0437357Y0307022D02*
X0432850Y0307022D01*
X0432850Y0308221D02*
X0437357Y0308221D01*
X0437431Y0309419D02*
X0431682Y0309419D01*
X0430484Y0310618D02*
X0437785Y0310618D01*
X0438521Y0311816D02*
X0429285Y0311816D01*
X0429116Y0313015D02*
X0439947Y0313015D01*
X0441919Y0313015D02*
X0443081Y0313015D01*
X0443081Y0311816D02*
X0441919Y0311816D01*
X0441919Y0310618D02*
X0443081Y0310618D01*
X0443081Y0309419D02*
X0441919Y0309419D01*
X0441919Y0308221D02*
X0443081Y0308221D01*
X0443081Y0307022D02*
X0441919Y0307022D01*
X0441919Y0305824D02*
X0443081Y0305824D01*
X0443081Y0303427D02*
X0441919Y0303427D01*
X0441919Y0302228D02*
X0443081Y0302228D01*
X0443081Y0301030D02*
X0441919Y0301030D01*
X0441919Y0299831D02*
X0443081Y0299831D01*
X0443081Y0298633D02*
X0441919Y0298633D01*
X0441919Y0297434D02*
X0443081Y0297434D01*
X0445714Y0297434D02*
X0449286Y0297434D01*
X0448194Y0298633D02*
X0446806Y0298633D01*
X0447380Y0299831D02*
X0447620Y0299831D01*
X0451919Y0299831D02*
X0453081Y0299831D01*
X0453081Y0298633D02*
X0451919Y0298633D01*
X0451919Y0297434D02*
X0453081Y0297434D01*
X0455714Y0297434D02*
X0459286Y0297434D01*
X0458194Y0298633D02*
X0456806Y0298633D01*
X0457380Y0299831D02*
X0457620Y0299831D01*
X0461919Y0299831D02*
X0463081Y0299831D01*
X0463081Y0298633D02*
X0461919Y0298633D01*
X0461919Y0297434D02*
X0463081Y0297434D01*
X0463081Y0301030D02*
X0461919Y0301030D01*
X0461919Y0302228D02*
X0463081Y0302228D01*
X0463081Y0303427D02*
X0461919Y0303427D01*
X0461919Y0305824D02*
X0463081Y0305824D01*
X0463081Y0307022D02*
X0461919Y0307022D01*
X0461919Y0308221D02*
X0463081Y0308221D01*
X0463081Y0309419D02*
X0461919Y0309419D01*
X0461919Y0310618D02*
X0463081Y0310618D01*
X0463081Y0311816D02*
X0461919Y0311816D01*
X0461919Y0313015D02*
X0463081Y0313015D01*
X0465053Y0313015D02*
X0481156Y0313015D01*
X0480988Y0311816D02*
X0466479Y0311816D01*
X0467215Y0310618D02*
X0479789Y0310618D01*
X0478591Y0309419D02*
X0467569Y0309419D01*
X0467643Y0308221D02*
X0477392Y0308221D01*
X0477343Y0307022D02*
X0467643Y0307022D01*
X0467643Y0305824D02*
X0477343Y0305824D01*
X0470000Y0302228D02*
X0325000Y0302228D01*
X0325000Y0301030D02*
X0470000Y0301030D01*
X0470000Y0299831D02*
X0325000Y0299831D01*
X0325000Y0298633D02*
X0470000Y0298633D01*
X0470000Y0297434D02*
X0325000Y0297434D01*
X0325000Y0296236D02*
X0470000Y0296236D01*
X0470000Y0295037D02*
X0325000Y0295037D01*
X0329067Y0299831D02*
X0271250Y0299831D01*
X0271250Y0298633D02*
X0330266Y0298633D01*
X0331464Y0297434D02*
X0271250Y0297434D01*
X0291743Y0326199D02*
X0330097Y0326199D01*
X0331295Y0327397D02*
X0292823Y0327397D01*
X0293320Y0328596D02*
X0330303Y0328596D01*
X0329104Y0329794D02*
X0293494Y0329794D01*
X0293490Y0330993D02*
X0327906Y0330993D01*
X0327150Y0332191D02*
X0292994Y0332191D01*
X0292155Y0333390D02*
X0327150Y0333390D01*
X0334400Y0332191D02*
X0335600Y0332191D01*
X0335600Y0330993D02*
X0334400Y0330993D01*
X0334400Y0329794D02*
X0335600Y0329794D01*
X0335600Y0328596D02*
X0334400Y0328596D01*
X0334400Y0327397D02*
X0335600Y0327397D01*
X0335600Y0326199D02*
X0334400Y0326199D01*
X0334400Y0325000D02*
X0335600Y0325000D01*
X0335600Y0323801D02*
X0334400Y0323801D01*
X0334400Y0322603D02*
X0335600Y0322603D01*
X0335600Y0319007D02*
X0334400Y0319007D01*
X0334400Y0317809D02*
X0335600Y0317809D01*
X0335600Y0316610D02*
X0334400Y0316610D01*
X0334400Y0315412D02*
X0335600Y0315412D01*
X0335600Y0314213D02*
X0334400Y0314213D01*
X0334400Y0313015D02*
X0335600Y0313015D01*
X0335600Y0311816D02*
X0334400Y0311816D01*
X0334400Y0310618D02*
X0335600Y0310618D01*
X0335600Y0309419D02*
X0334400Y0309419D01*
X0334400Y0308221D02*
X0335600Y0308221D01*
X0335600Y0307022D02*
X0334400Y0307022D01*
X0334400Y0305824D02*
X0335600Y0305824D01*
X0335600Y0302228D02*
X0334400Y0302228D01*
X0334400Y0301030D02*
X0335600Y0301030D01*
X0335600Y0299831D02*
X0334400Y0299831D01*
X0334400Y0298633D02*
X0335600Y0298633D01*
X0335600Y0297434D02*
X0334400Y0297434D01*
X0338536Y0297434D02*
X0346464Y0297434D01*
X0345266Y0298633D02*
X0339734Y0298633D01*
X0340933Y0299831D02*
X0344067Y0299831D01*
X0342869Y0301030D02*
X0342131Y0301030D01*
X0349400Y0301030D02*
X0350600Y0301030D01*
X0350600Y0302228D02*
X0349400Y0302228D01*
X0349400Y0299831D02*
X0350600Y0299831D01*
X0350600Y0298633D02*
X0349400Y0298633D01*
X0349400Y0297434D02*
X0350600Y0297434D01*
X0353536Y0297434D02*
X0361464Y0297434D01*
X0360266Y0298633D02*
X0354734Y0298633D01*
X0355933Y0299831D02*
X0359067Y0299831D01*
X0357869Y0301030D02*
X0357131Y0301030D01*
X0364400Y0301030D02*
X0365600Y0301030D01*
X0365600Y0302228D02*
X0364400Y0302228D01*
X0364400Y0299831D02*
X0365600Y0299831D01*
X0365600Y0298633D02*
X0364400Y0298633D01*
X0364400Y0297434D02*
X0365600Y0297434D01*
X0368536Y0297434D02*
X0376464Y0297434D01*
X0375266Y0298633D02*
X0369734Y0298633D01*
X0370933Y0299831D02*
X0374067Y0299831D01*
X0372869Y0301030D02*
X0372131Y0301030D01*
X0379400Y0301030D02*
X0380600Y0301030D01*
X0380600Y0302228D02*
X0379400Y0302228D01*
X0379400Y0299831D02*
X0380600Y0299831D01*
X0380600Y0298633D02*
X0379400Y0298633D01*
X0379400Y0297434D02*
X0380600Y0297434D01*
X0383536Y0297434D02*
X0391464Y0297434D01*
X0390266Y0298633D02*
X0384734Y0298633D01*
X0385933Y0299831D02*
X0389067Y0299831D01*
X0387869Y0301030D02*
X0387131Y0301030D01*
X0394400Y0301030D02*
X0395600Y0301030D01*
X0395600Y0302228D02*
X0394400Y0302228D01*
X0394400Y0299831D02*
X0395600Y0299831D01*
X0395600Y0298633D02*
X0394400Y0298633D01*
X0394400Y0297434D02*
X0395600Y0297434D01*
X0398536Y0297434D02*
X0406464Y0297434D01*
X0405266Y0298633D02*
X0399734Y0298633D01*
X0400933Y0299831D02*
X0404067Y0299831D01*
X0402869Y0301030D02*
X0402131Y0301030D01*
X0409400Y0301030D02*
X0410600Y0301030D01*
X0410600Y0302228D02*
X0409400Y0302228D01*
X0409400Y0299831D02*
X0410600Y0299831D01*
X0410600Y0298633D02*
X0409400Y0298633D01*
X0409400Y0297434D02*
X0410600Y0297434D01*
X0413536Y0297434D02*
X0421464Y0297434D01*
X0420266Y0298633D02*
X0414734Y0298633D01*
X0415933Y0299831D02*
X0419067Y0299831D01*
X0417869Y0301030D02*
X0417131Y0301030D01*
X0410600Y0305824D02*
X0409400Y0305824D01*
X0409400Y0307022D02*
X0410600Y0307022D01*
X0410600Y0308221D02*
X0409400Y0308221D01*
X0409400Y0309419D02*
X0410600Y0309419D01*
X0410600Y0310618D02*
X0409400Y0310618D01*
X0409400Y0311816D02*
X0410600Y0311816D01*
X0410600Y0313015D02*
X0409400Y0313015D01*
X0409400Y0314213D02*
X0410600Y0314213D01*
X0410600Y0315412D02*
X0409400Y0315412D01*
X0409400Y0316610D02*
X0410600Y0316610D01*
X0410600Y0317809D02*
X0409400Y0317809D01*
X0409400Y0319007D02*
X0410600Y0319007D01*
X0410600Y0322603D02*
X0409400Y0322603D01*
X0409400Y0323801D02*
X0410600Y0323801D01*
X0410600Y0325000D02*
X0409400Y0325000D01*
X0409400Y0326199D02*
X0410600Y0326199D01*
X0410600Y0327397D02*
X0409400Y0327397D01*
X0409400Y0328596D02*
X0410600Y0328596D01*
X0410600Y0329794D02*
X0409400Y0329794D01*
X0409400Y0330993D02*
X0410600Y0330993D01*
X0410600Y0332191D02*
X0409400Y0332191D01*
X0409400Y0335787D02*
X0410600Y0335787D01*
X0410600Y0336985D02*
X0409400Y0336985D01*
X0409400Y0338184D02*
X0410600Y0338184D01*
X0410600Y0339382D02*
X0409400Y0339382D01*
X0409400Y0340581D02*
X0410600Y0340581D01*
X0410600Y0341779D02*
X0409400Y0341779D01*
X0405678Y0341779D02*
X0399322Y0341779D01*
X0400521Y0340581D02*
X0404479Y0340581D01*
X0403281Y0339382D02*
X0401719Y0339382D01*
X0395600Y0339382D02*
X0394400Y0339382D01*
X0394400Y0338184D02*
X0395600Y0338184D01*
X0395600Y0336985D02*
X0394400Y0336985D01*
X0394400Y0335787D02*
X0395600Y0335787D01*
X0395600Y0332191D02*
X0394400Y0332191D01*
X0394400Y0330993D02*
X0395600Y0330993D01*
X0395600Y0329794D02*
X0394400Y0329794D01*
X0394400Y0328596D02*
X0395600Y0328596D01*
X0395600Y0327397D02*
X0394400Y0327397D01*
X0394400Y0326199D02*
X0395600Y0326199D01*
X0395600Y0325000D02*
X0394400Y0325000D01*
X0394400Y0323801D02*
X0395600Y0323801D01*
X0395600Y0322603D02*
X0394400Y0322603D01*
X0394400Y0319007D02*
X0395600Y0319007D01*
X0395600Y0317809D02*
X0394400Y0317809D01*
X0394400Y0316610D02*
X0395600Y0316610D01*
X0395600Y0315412D02*
X0394400Y0315412D01*
X0394400Y0314213D02*
X0395600Y0314213D01*
X0395600Y0313015D02*
X0394400Y0313015D01*
X0394400Y0311816D02*
X0395600Y0311816D01*
X0395600Y0310618D02*
X0394400Y0310618D01*
X0394400Y0309419D02*
X0395600Y0309419D01*
X0395600Y0308221D02*
X0394400Y0308221D01*
X0394400Y0307022D02*
X0395600Y0307022D01*
X0395600Y0305824D02*
X0394400Y0305824D01*
X0380600Y0305824D02*
X0379400Y0305824D01*
X0379400Y0307022D02*
X0380600Y0307022D01*
X0380600Y0308221D02*
X0379400Y0308221D01*
X0379400Y0309419D02*
X0380600Y0309419D01*
X0380600Y0310618D02*
X0379400Y0310618D01*
X0379400Y0311816D02*
X0380600Y0311816D01*
X0380600Y0313015D02*
X0379400Y0313015D01*
X0379400Y0314213D02*
X0380600Y0314213D01*
X0380600Y0315412D02*
X0379400Y0315412D01*
X0379400Y0316610D02*
X0380600Y0316610D01*
X0380600Y0317809D02*
X0379400Y0317809D01*
X0379400Y0319007D02*
X0380600Y0319007D01*
X0380600Y0322603D02*
X0379400Y0322603D01*
X0379400Y0323801D02*
X0380600Y0323801D01*
X0380600Y0325000D02*
X0379400Y0325000D01*
X0379400Y0326199D02*
X0380600Y0326199D01*
X0380600Y0327397D02*
X0379400Y0327397D01*
X0379400Y0328596D02*
X0380600Y0328596D01*
X0380600Y0329794D02*
X0379400Y0329794D01*
X0379400Y0330993D02*
X0380600Y0330993D01*
X0380600Y0332191D02*
X0379400Y0332191D01*
X0379400Y0335787D02*
X0380600Y0335787D01*
X0380600Y0336985D02*
X0379400Y0336985D01*
X0379400Y0338184D02*
X0380600Y0338184D01*
X0380600Y0339382D02*
X0379400Y0339382D01*
X0379400Y0340581D02*
X0380600Y0340581D01*
X0380600Y0341779D02*
X0379400Y0341779D01*
X0375678Y0341779D02*
X0369322Y0341779D01*
X0370521Y0340581D02*
X0374479Y0340581D01*
X0373281Y0339382D02*
X0371719Y0339382D01*
X0365600Y0339382D02*
X0364400Y0339382D01*
X0364400Y0338184D02*
X0365600Y0338184D01*
X0365600Y0336985D02*
X0364400Y0336985D01*
X0364400Y0335787D02*
X0365600Y0335787D01*
X0365600Y0332191D02*
X0364400Y0332191D01*
X0364400Y0330993D02*
X0365600Y0330993D01*
X0365600Y0329794D02*
X0364400Y0329794D01*
X0364400Y0328596D02*
X0365600Y0328596D01*
X0365600Y0327397D02*
X0364400Y0327397D01*
X0364400Y0326199D02*
X0365600Y0326199D01*
X0365600Y0325000D02*
X0364400Y0325000D01*
X0364400Y0323801D02*
X0365600Y0323801D01*
X0365600Y0322603D02*
X0364400Y0322603D01*
X0364400Y0319007D02*
X0365600Y0319007D01*
X0365600Y0317809D02*
X0364400Y0317809D01*
X0364400Y0316610D02*
X0365600Y0316610D01*
X0365600Y0315412D02*
X0364400Y0315412D01*
X0364400Y0314213D02*
X0365600Y0314213D01*
X0365600Y0313015D02*
X0364400Y0313015D01*
X0364400Y0311816D02*
X0365600Y0311816D01*
X0365600Y0310618D02*
X0364400Y0310618D01*
X0364400Y0309419D02*
X0365600Y0309419D01*
X0365600Y0308221D02*
X0364400Y0308221D01*
X0364400Y0307022D02*
X0365600Y0307022D01*
X0365600Y0305824D02*
X0364400Y0305824D01*
X0350600Y0305824D02*
X0349400Y0305824D01*
X0349400Y0307022D02*
X0350600Y0307022D01*
X0350600Y0308221D02*
X0349400Y0308221D01*
X0349400Y0309419D02*
X0350600Y0309419D01*
X0350600Y0310618D02*
X0349400Y0310618D01*
X0349400Y0311816D02*
X0350600Y0311816D01*
X0350600Y0313015D02*
X0349400Y0313015D01*
X0349400Y0314213D02*
X0350600Y0314213D01*
X0350600Y0315412D02*
X0349400Y0315412D01*
X0349400Y0316610D02*
X0350600Y0316610D01*
X0350600Y0317809D02*
X0349400Y0317809D01*
X0349400Y0319007D02*
X0350600Y0319007D01*
X0350600Y0322603D02*
X0349400Y0322603D01*
X0349400Y0323801D02*
X0350600Y0323801D01*
X0350600Y0325000D02*
X0349400Y0325000D01*
X0349400Y0326199D02*
X0350600Y0326199D01*
X0350600Y0327397D02*
X0349400Y0327397D01*
X0349400Y0328596D02*
X0350600Y0328596D01*
X0350600Y0329794D02*
X0349400Y0329794D01*
X0349400Y0330993D02*
X0350600Y0330993D01*
X0350600Y0332191D02*
X0349400Y0332191D01*
X0349400Y0335787D02*
X0350600Y0335787D01*
X0350600Y0336985D02*
X0349400Y0336985D01*
X0349400Y0338184D02*
X0350600Y0338184D01*
X0350600Y0339382D02*
X0349400Y0339382D01*
X0349400Y0340581D02*
X0350600Y0340581D01*
X0350600Y0341779D02*
X0349400Y0341779D01*
X0345678Y0341779D02*
X0339322Y0341779D01*
X0340521Y0340581D02*
X0344479Y0340581D01*
X0343281Y0339382D02*
X0341719Y0339382D01*
X0335600Y0339382D02*
X0334400Y0339382D01*
X0334400Y0338184D02*
X0335600Y0338184D01*
X0335600Y0336985D02*
X0334400Y0336985D01*
X0334400Y0335787D02*
X0335600Y0335787D01*
X0335600Y0340581D02*
X0334400Y0340581D01*
X0334400Y0341779D02*
X0335600Y0341779D01*
X0354322Y0341779D02*
X0360678Y0341779D01*
X0359479Y0340581D02*
X0355521Y0340581D01*
X0356719Y0339382D02*
X0358281Y0339382D01*
X0364400Y0340581D02*
X0365600Y0340581D01*
X0365600Y0341779D02*
X0364400Y0341779D01*
X0384322Y0341779D02*
X0390678Y0341779D01*
X0389479Y0340581D02*
X0385521Y0340581D01*
X0386719Y0339382D02*
X0388281Y0339382D01*
X0394400Y0340581D02*
X0395600Y0340581D01*
X0395600Y0341779D02*
X0394400Y0341779D01*
X0414322Y0341779D02*
X0420678Y0341779D01*
X0419479Y0340581D02*
X0415521Y0340581D01*
X0416719Y0339382D02*
X0418281Y0339382D01*
X0432850Y0319007D02*
X0477343Y0319007D01*
X0477343Y0317809D02*
X0432850Y0317809D01*
X0432712Y0316610D02*
X0477561Y0316610D01*
X0478759Y0315412D02*
X0431513Y0315412D01*
X0430315Y0314213D02*
X0479958Y0314213D01*
X0459947Y0313015D02*
X0455053Y0313015D01*
X0456479Y0311816D02*
X0458521Y0311816D01*
X0457785Y0310618D02*
X0457215Y0310618D01*
X0453081Y0310618D02*
X0451919Y0310618D01*
X0451919Y0311816D02*
X0453081Y0311816D01*
X0453081Y0313015D02*
X0451919Y0313015D01*
X0449947Y0313015D02*
X0445053Y0313015D01*
X0446479Y0311816D02*
X0448521Y0311816D01*
X0447785Y0310618D02*
X0447215Y0310618D01*
X0451919Y0309419D02*
X0453081Y0309419D01*
X0453081Y0308221D02*
X0451919Y0308221D01*
X0451919Y0307022D02*
X0453081Y0307022D01*
X0453081Y0305824D02*
X0451919Y0305824D01*
X0451919Y0302228D02*
X0453081Y0302228D01*
X0453081Y0301030D02*
X0451919Y0301030D01*
X0491447Y0339382D02*
X0493553Y0339382D01*
X0494752Y0340581D02*
X0490248Y0340581D01*
X0489050Y0341779D02*
X0495950Y0341779D01*
X0504050Y0341779D02*
X0510950Y0341779D01*
X0509752Y0340581D02*
X0505248Y0340581D01*
X0506447Y0339382D02*
X0508553Y0339382D01*
X0519050Y0341779D02*
X0525950Y0341779D01*
X0524752Y0340581D02*
X0520248Y0340581D01*
X0521447Y0339382D02*
X0523553Y0339382D01*
X0537657Y0334588D02*
X0617343Y0334588D01*
X0617343Y0333390D02*
X0537657Y0333390D01*
X0537657Y0332191D02*
X0617343Y0332191D01*
X0618179Y0330993D02*
X0536821Y0330993D01*
X0535623Y0329794D02*
X0619377Y0329794D01*
X0620576Y0328596D02*
X0534424Y0328596D01*
X0533432Y0327397D02*
X0621568Y0327397D01*
X0620370Y0326199D02*
X0534630Y0326199D01*
X0535829Y0325000D02*
X0619171Y0325000D01*
X0617973Y0323801D02*
X0537027Y0323801D01*
X0537657Y0322603D02*
X0617343Y0322603D01*
X0617343Y0321404D02*
X0537657Y0321404D01*
X0537657Y0320206D02*
X0617343Y0320206D01*
X0631447Y0339382D02*
X0633553Y0339382D01*
X0634752Y0340581D02*
X0630248Y0340581D01*
X0629050Y0341779D02*
X0635950Y0341779D01*
X0644050Y0341779D02*
X0650950Y0341779D01*
X0649752Y0340581D02*
X0645248Y0340581D01*
X0646447Y0339382D02*
X0648553Y0339382D01*
X0659050Y0341779D02*
X0665950Y0341779D01*
X0664752Y0340581D02*
X0660248Y0340581D01*
X0661447Y0339382D02*
X0663553Y0339382D01*
X0674424Y0328596D02*
X0760576Y0328596D01*
X0761568Y0327397D02*
X0673432Y0327397D01*
X0674630Y0326199D02*
X0760370Y0326199D01*
X0759171Y0325000D02*
X0675829Y0325000D01*
X0677027Y0323801D02*
X0757973Y0323801D01*
X0757343Y0322603D02*
X0677657Y0322603D01*
X0677657Y0321404D02*
X0757343Y0321404D01*
X0757343Y0320206D02*
X0677657Y0320206D01*
X0675623Y0329794D02*
X0759377Y0329794D01*
X0758179Y0330993D02*
X0676821Y0330993D01*
X0677657Y0332191D02*
X0757343Y0332191D01*
X0757343Y0333390D02*
X0677657Y0333390D01*
X0677657Y0334588D02*
X0757343Y0334588D01*
X0769050Y0341779D02*
X0775950Y0341779D01*
X0774752Y0340581D02*
X0770248Y0340581D01*
X0771447Y0339382D02*
X0773553Y0339382D01*
X0784050Y0341779D02*
X0790950Y0341779D01*
X0789752Y0340581D02*
X0785248Y0340581D01*
X0786447Y0339382D02*
X0788553Y0339382D01*
X0799050Y0341779D02*
X0805950Y0341779D01*
X0804752Y0340581D02*
X0800248Y0340581D01*
X0801447Y0339382D02*
X0803553Y0339382D01*
X0817657Y0334588D02*
X0858750Y0334588D01*
X0858750Y0333390D02*
X0817657Y0333390D01*
X0817657Y0332191D02*
X0858750Y0332191D01*
X0858750Y0330993D02*
X0816821Y0330993D01*
X0815623Y0329794D02*
X0858750Y0329794D01*
X0858750Y0328596D02*
X0814424Y0328596D01*
X0813432Y0327397D02*
X0858750Y0327397D01*
X0858750Y0326199D02*
X0814630Y0326199D01*
X0815829Y0325000D02*
X0858750Y0325000D01*
X0858750Y0323801D02*
X0817027Y0323801D01*
X0817657Y0322603D02*
X0858750Y0322603D01*
X0858750Y0321404D02*
X0817657Y0321404D01*
X0817657Y0320206D02*
X0858750Y0320206D01*
X0858750Y0319007D02*
X0817657Y0319007D01*
X0817657Y0317809D02*
X0858750Y0317809D01*
X0858750Y0316610D02*
X0817439Y0316610D01*
X0816241Y0315412D02*
X0858750Y0315412D01*
X0845359Y0313015D02*
X0839641Y0313015D01*
X0840304Y0312740D02*
X0838485Y0313494D01*
X0836515Y0313494D01*
X0834696Y0312740D01*
X0833303Y0311347D01*
X0832550Y0309528D01*
X0832550Y0300472D01*
X0833303Y0298653D01*
X0834696Y0297260D01*
X0836515Y0296506D01*
X0838485Y0296506D01*
X0840304Y0297260D01*
X0841697Y0298653D01*
X0842450Y0300472D01*
X0842450Y0309528D01*
X0841697Y0311347D01*
X0840304Y0312740D01*
X0841228Y0311816D02*
X0843772Y0311816D01*
X0843001Y0310618D02*
X0841999Y0310618D01*
X0842450Y0309419D02*
X0842550Y0309419D01*
X0842550Y0308221D02*
X0842450Y0308221D01*
X0842450Y0307022D02*
X0842550Y0307022D01*
X0842550Y0305824D02*
X0842450Y0305824D01*
X0842450Y0304625D02*
X0842550Y0304625D01*
X0842550Y0303427D02*
X0842450Y0303427D01*
X0842450Y0302228D02*
X0842550Y0302228D01*
X0842550Y0301030D02*
X0842450Y0301030D01*
X0842185Y0299831D02*
X0842815Y0299831D01*
X0843323Y0298633D02*
X0841677Y0298633D01*
X0840478Y0297434D02*
X0844522Y0297434D01*
X0834522Y0297434D02*
X0830478Y0297434D01*
X0831677Y0298633D02*
X0833323Y0298633D01*
X0832815Y0299831D02*
X0832185Y0299831D01*
X0832450Y0301030D02*
X0832550Y0301030D01*
X0832550Y0302228D02*
X0832450Y0302228D01*
X0832450Y0303427D02*
X0832550Y0303427D01*
X0832550Y0304625D02*
X0832450Y0304625D01*
X0832450Y0305824D02*
X0832550Y0305824D01*
X0832550Y0307022D02*
X0832450Y0307022D01*
X0832450Y0308221D02*
X0832550Y0308221D01*
X0832550Y0309419D02*
X0832450Y0309419D01*
X0831999Y0310618D02*
X0833001Y0310618D01*
X0833772Y0311816D02*
X0831228Y0311816D01*
X0829641Y0313015D02*
X0835359Y0313015D01*
X0858750Y0345375D02*
X0271250Y0345375D01*
X0271250Y0346573D02*
X0858750Y0346573D01*
X0858750Y0347772D02*
X0271250Y0347772D01*
X0271250Y0348970D02*
X0858750Y0348970D01*
X0858750Y0350169D02*
X0271250Y0350169D01*
X0271250Y0351367D02*
X0858750Y0351367D01*
X0858750Y0352566D02*
X0271250Y0352566D01*
X0271250Y0353764D02*
X0858750Y0353764D01*
X0858750Y0354963D02*
X0271250Y0354963D01*
X0271250Y0356161D02*
X0858750Y0356161D01*
X0858750Y0357360D02*
X0271250Y0357360D01*
X0271250Y0358558D02*
X0858750Y0358558D01*
X0858750Y0359757D02*
X0271250Y0359757D01*
X0271250Y0360955D02*
X0292812Y0360955D01*
X0293175Y0360593D02*
X0296825Y0360593D01*
X0299407Y0363175D01*
X0299407Y0366825D01*
X0296825Y0369407D01*
X0293175Y0369407D01*
X0290593Y0366825D01*
X0290593Y0363175D01*
X0293175Y0360593D01*
X0291614Y0362154D02*
X0271250Y0362154D01*
X0271250Y0363352D02*
X0290593Y0363352D01*
X0290593Y0364551D02*
X0271250Y0364551D01*
X0271250Y0365749D02*
X0290593Y0365749D01*
X0290715Y0366948D02*
X0271250Y0366948D01*
X0271250Y0368146D02*
X0291914Y0368146D01*
X0293112Y0369345D02*
X0271250Y0369345D01*
X0271250Y0370543D02*
X0427069Y0370543D01*
X0427069Y0369345D02*
X0306888Y0369345D01*
X0306825Y0369407D02*
X0303175Y0369407D01*
X0300593Y0366825D01*
X0300593Y0363175D01*
X0303175Y0360593D01*
X0306825Y0360593D01*
X0309407Y0363175D01*
X0309407Y0366825D01*
X0306825Y0369407D01*
X0306825Y0370593D02*
X0309407Y0373175D01*
X0309407Y0376825D01*
X0306825Y0379407D01*
X0303175Y0379407D01*
X0300593Y0376825D01*
X0300593Y0373175D01*
X0303175Y0370593D01*
X0306825Y0370593D01*
X0307974Y0371742D02*
X0427069Y0371742D01*
X0427069Y0372940D02*
X0309173Y0372940D01*
X0309407Y0374139D02*
X0427069Y0374139D01*
X0427069Y0374400D02*
X0427069Y0368459D01*
X0427178Y0368052D01*
X0427389Y0367687D01*
X0427687Y0367389D01*
X0428052Y0367178D01*
X0428459Y0367069D01*
X0434400Y0367069D01*
X0434400Y0374400D01*
X0435600Y0374400D01*
X0435600Y0375600D01*
X0434400Y0375600D01*
X0434400Y0382931D01*
X0428459Y0382931D01*
X0428052Y0382822D01*
X0427687Y0382611D01*
X0427389Y0382313D01*
X0427178Y0381948D01*
X0427069Y0381541D01*
X0427069Y0375600D01*
X0434400Y0375600D01*
X0434400Y0374400D01*
X0427069Y0374400D01*
X0425000Y0374139D02*
X0443750Y0374139D01*
X0443676Y0374139D02*
X0442931Y0374139D01*
X0442931Y0374400D02*
X0442931Y0368459D01*
X0442822Y0368052D01*
X0442611Y0367687D01*
X0442313Y0367389D01*
X0441948Y0367178D01*
X0441541Y0367069D01*
X0435600Y0367069D01*
X0435600Y0374400D01*
X0442931Y0374400D01*
X0443676Y0374400D02*
X0443676Y0370065D01*
X0443785Y0369658D01*
X0443995Y0369293D01*
X0444293Y0368995D01*
X0444658Y0368785D01*
X0445065Y0368676D01*
X0449400Y0368676D01*
X0449400Y0374400D01*
X0450600Y0374400D01*
X0450600Y0375600D01*
X0449400Y0375600D01*
X0449400Y0381324D01*
X0445065Y0381324D01*
X0444658Y0381215D01*
X0444293Y0381005D01*
X0443995Y0380707D01*
X0443785Y0380342D01*
X0443676Y0379935D01*
X0443676Y0375600D01*
X0449400Y0375600D01*
X0449400Y0374400D01*
X0443676Y0374400D01*
X0443750Y0375337D02*
X0425000Y0375337D01*
X0425000Y0376536D02*
X0443750Y0376536D01*
X0443676Y0376536D02*
X0442931Y0376536D01*
X0442931Y0375600D02*
X0442931Y0381541D01*
X0442822Y0381948D01*
X0442611Y0382313D01*
X0442313Y0382611D01*
X0441948Y0382822D01*
X0441541Y0382931D01*
X0435600Y0382931D01*
X0435600Y0375600D01*
X0442931Y0375600D01*
X0442931Y0377734D02*
X0443676Y0377734D01*
X0443750Y0377734D02*
X0425000Y0377734D01*
X0425000Y0378933D02*
X0443750Y0378933D01*
X0443676Y0378933D02*
X0442931Y0378933D01*
X0442931Y0380132D02*
X0443728Y0380132D01*
X0443750Y0380132D02*
X0425000Y0380132D01*
X0425000Y0381330D02*
X0443750Y0381330D01*
X0442931Y0381330D02*
X0487262Y0381330D01*
X0487262Y0381914D02*
X0487262Y0368086D01*
X0488086Y0367262D01*
X0501914Y0367262D01*
X0502738Y0368086D01*
X0502738Y0381914D01*
X0501914Y0382738D01*
X0488086Y0382738D01*
X0487262Y0381914D01*
X0487877Y0382529D02*
X0442396Y0382529D01*
X0443750Y0382529D02*
X0425000Y0382529D01*
X0425000Y0383727D02*
X0443750Y0383727D01*
X0443750Y0384926D02*
X0425000Y0384926D01*
X0425000Y0385000D02*
X0443750Y0385000D01*
X0443750Y0365000D01*
X0425000Y0365000D01*
X0425000Y0385000D01*
X0427604Y0382529D02*
X0388195Y0382529D01*
X0389007Y0383340D02*
X0386660Y0380993D01*
X0383340Y0380993D01*
X0380993Y0383340D01*
X0380993Y0386660D01*
X0383340Y0389007D01*
X0386660Y0389007D01*
X0389007Y0386660D01*
X0389007Y0383340D01*
X0389007Y0383727D02*
X0858750Y0383727D01*
X0858750Y0382529D02*
X0812123Y0382529D01*
X0811914Y0382738D02*
X0798086Y0382738D01*
X0797262Y0381914D01*
X0797262Y0368086D01*
X0798086Y0367262D01*
X0811914Y0367262D01*
X0812738Y0368086D01*
X0812738Y0381914D01*
X0811914Y0382738D01*
X0812738Y0381330D02*
X0858750Y0381330D01*
X0858750Y0380132D02*
X0812738Y0380132D01*
X0812738Y0378933D02*
X0858750Y0378933D01*
X0858750Y0377734D02*
X0812738Y0377734D01*
X0812738Y0376536D02*
X0858750Y0376536D01*
X0858750Y0375337D02*
X0812738Y0375337D01*
X0812738Y0374139D02*
X0858750Y0374139D01*
X0858750Y0372940D02*
X0812738Y0372940D01*
X0812738Y0371742D02*
X0858750Y0371742D01*
X0858750Y0370543D02*
X0812738Y0370543D01*
X0812738Y0369345D02*
X0858750Y0369345D01*
X0858750Y0368146D02*
X0812738Y0368146D01*
X0797262Y0368146D02*
X0752847Y0368146D01*
X0752822Y0368052D02*
X0752931Y0368459D01*
X0752931Y0374400D01*
X0745600Y0374400D01*
X0745600Y0375600D01*
X0744400Y0375600D01*
X0744400Y0382931D01*
X0738459Y0382931D01*
X0738052Y0382822D01*
X0737687Y0382611D01*
X0737389Y0382313D01*
X0737178Y0381948D01*
X0737069Y0381541D01*
X0737069Y0375600D01*
X0744400Y0375600D01*
X0744400Y0374400D01*
X0745600Y0374400D01*
X0745600Y0367069D01*
X0751541Y0367069D01*
X0751948Y0367178D01*
X0752313Y0367389D01*
X0752611Y0367687D01*
X0752822Y0368052D01*
X0753750Y0368146D02*
X0735000Y0368146D01*
X0735000Y0366948D02*
X0753750Y0366948D01*
X0753750Y0365749D02*
X0735000Y0365749D01*
X0735000Y0365000D02*
X0753750Y0365000D01*
X0753750Y0385000D01*
X0735000Y0385000D01*
X0735000Y0365000D01*
X0737687Y0367389D02*
X0738052Y0367178D01*
X0738459Y0367069D01*
X0744400Y0367069D01*
X0744400Y0374400D01*
X0737069Y0374400D01*
X0737069Y0368459D01*
X0737178Y0368052D01*
X0737389Y0367687D01*
X0737687Y0367389D01*
X0737153Y0368146D02*
X0672738Y0368146D01*
X0672738Y0368086D02*
X0672738Y0381914D01*
X0671914Y0382738D01*
X0658086Y0382738D01*
X0657262Y0381914D01*
X0657262Y0368086D01*
X0658086Y0367262D01*
X0671914Y0367262D01*
X0672738Y0368086D01*
X0672738Y0369345D02*
X0737069Y0369345D01*
X0737069Y0370543D02*
X0672738Y0370543D01*
X0672738Y0371742D02*
X0737069Y0371742D01*
X0737069Y0372940D02*
X0672738Y0372940D01*
X0672738Y0374139D02*
X0737069Y0374139D01*
X0735000Y0374139D02*
X0753750Y0374139D01*
X0753676Y0374139D02*
X0752931Y0374139D01*
X0753676Y0374400D02*
X0753676Y0370065D01*
X0753785Y0369658D01*
X0753995Y0369293D01*
X0754293Y0368995D01*
X0754658Y0368785D01*
X0755065Y0368676D01*
X0759400Y0368676D01*
X0759400Y0374400D01*
X0760600Y0374400D01*
X0760600Y0375600D01*
X0759400Y0375600D01*
X0759400Y0381324D01*
X0755065Y0381324D01*
X0754658Y0381215D01*
X0754293Y0381005D01*
X0753995Y0380707D01*
X0753785Y0380342D01*
X0753676Y0379935D01*
X0753676Y0375600D01*
X0759400Y0375600D01*
X0759400Y0374400D01*
X0753676Y0374400D01*
X0753750Y0375337D02*
X0735000Y0375337D01*
X0735000Y0376536D02*
X0753750Y0376536D01*
X0753676Y0376536D02*
X0752931Y0376536D01*
X0752931Y0375600D02*
X0752931Y0381541D01*
X0752822Y0381948D01*
X0752611Y0382313D01*
X0752313Y0382611D01*
X0751948Y0382822D01*
X0751541Y0382931D01*
X0745600Y0382931D01*
X0745600Y0375600D01*
X0752931Y0375600D01*
X0752931Y0377734D02*
X0753676Y0377734D01*
X0753750Y0377734D02*
X0735000Y0377734D01*
X0735000Y0378933D02*
X0753750Y0378933D01*
X0753676Y0378933D02*
X0752931Y0378933D01*
X0752931Y0380132D02*
X0753728Y0380132D01*
X0753750Y0380132D02*
X0735000Y0380132D01*
X0735000Y0381330D02*
X0753750Y0381330D01*
X0752931Y0381330D02*
X0797262Y0381330D01*
X0797262Y0380132D02*
X0796131Y0380132D01*
X0796131Y0380307D02*
X0795307Y0381131D01*
X0784693Y0381131D01*
X0783869Y0380307D01*
X0783869Y0369693D01*
X0784693Y0368869D01*
X0795307Y0368869D01*
X0796131Y0369693D01*
X0796131Y0380307D01*
X0796131Y0378933D02*
X0797262Y0378933D01*
X0797262Y0377734D02*
X0796131Y0377734D01*
X0796131Y0376536D02*
X0797262Y0376536D01*
X0797262Y0375337D02*
X0796131Y0375337D01*
X0796131Y0374139D02*
X0797262Y0374139D01*
X0797262Y0372940D02*
X0796131Y0372940D01*
X0796131Y0371742D02*
X0797262Y0371742D01*
X0797262Y0370543D02*
X0796131Y0370543D01*
X0795784Y0369345D02*
X0797262Y0369345D01*
X0797877Y0382529D02*
X0752396Y0382529D01*
X0753750Y0382529D02*
X0735000Y0382529D01*
X0735000Y0383727D02*
X0753750Y0383727D01*
X0753750Y0384926D02*
X0735000Y0384926D01*
X0737604Y0382529D02*
X0672123Y0382529D01*
X0672738Y0381330D02*
X0737069Y0381330D01*
X0737069Y0380132D02*
X0672738Y0380132D01*
X0672738Y0378933D02*
X0737069Y0378933D01*
X0737069Y0377734D02*
X0672738Y0377734D01*
X0672738Y0376536D02*
X0737069Y0376536D01*
X0735000Y0372940D02*
X0753750Y0372940D01*
X0753676Y0372940D02*
X0752931Y0372940D01*
X0752931Y0371742D02*
X0753676Y0371742D01*
X0753750Y0371742D02*
X0735000Y0371742D01*
X0735000Y0370543D02*
X0753750Y0370543D01*
X0753676Y0370543D02*
X0752931Y0370543D01*
X0752931Y0369345D02*
X0753965Y0369345D01*
X0753750Y0369345D02*
X0735000Y0369345D01*
X0744400Y0369345D02*
X0745600Y0369345D01*
X0745600Y0370543D02*
X0744400Y0370543D01*
X0744400Y0371742D02*
X0745600Y0371742D01*
X0745600Y0372940D02*
X0744400Y0372940D01*
X0744400Y0374139D02*
X0745600Y0374139D01*
X0745600Y0375337D02*
X0759400Y0375337D01*
X0759400Y0374139D02*
X0760600Y0374139D01*
X0760600Y0374400D02*
X0760600Y0368676D01*
X0764935Y0368676D01*
X0765342Y0368785D01*
X0765707Y0368995D01*
X0766005Y0369293D01*
X0766215Y0369658D01*
X0766324Y0370065D01*
X0766324Y0374400D01*
X0760600Y0374400D01*
X0760600Y0375337D02*
X0768869Y0375337D01*
X0768869Y0374139D02*
X0766324Y0374139D01*
X0766324Y0372940D02*
X0768869Y0372940D01*
X0768869Y0371742D02*
X0766324Y0371742D01*
X0766324Y0370543D02*
X0768869Y0370543D01*
X0768869Y0369693D02*
X0769693Y0368869D01*
X0780307Y0368869D01*
X0781131Y0369693D01*
X0781131Y0380307D01*
X0780307Y0381131D01*
X0769693Y0381131D01*
X0768869Y0380307D01*
X0768869Y0369693D01*
X0769216Y0369345D02*
X0766035Y0369345D01*
X0760600Y0369345D02*
X0759400Y0369345D01*
X0759400Y0370543D02*
X0760600Y0370543D01*
X0760600Y0371742D02*
X0759400Y0371742D01*
X0759400Y0372940D02*
X0760600Y0372940D01*
X0760600Y0375600D02*
X0766324Y0375600D01*
X0766324Y0379935D01*
X0766215Y0380342D01*
X0766005Y0380707D01*
X0765707Y0381005D01*
X0765342Y0381215D01*
X0764935Y0381324D01*
X0760600Y0381324D01*
X0760600Y0375600D01*
X0760600Y0376536D02*
X0759400Y0376536D01*
X0759400Y0377734D02*
X0760600Y0377734D01*
X0760600Y0378933D02*
X0759400Y0378933D01*
X0759400Y0380132D02*
X0760600Y0380132D01*
X0766272Y0380132D02*
X0768869Y0380132D01*
X0768869Y0378933D02*
X0766324Y0378933D01*
X0766324Y0377734D02*
X0768869Y0377734D01*
X0768869Y0376536D02*
X0766324Y0376536D01*
X0781131Y0376536D02*
X0783869Y0376536D01*
X0783869Y0377734D02*
X0781131Y0377734D01*
X0781131Y0378933D02*
X0783869Y0378933D01*
X0783869Y0380132D02*
X0781131Y0380132D01*
X0781131Y0375337D02*
X0783869Y0375337D01*
X0783869Y0374139D02*
X0781131Y0374139D01*
X0781131Y0372940D02*
X0783869Y0372940D01*
X0783869Y0371742D02*
X0781131Y0371742D01*
X0781131Y0370543D02*
X0783869Y0370543D01*
X0784216Y0369345D02*
X0780784Y0369345D01*
X0745600Y0368146D02*
X0744400Y0368146D01*
X0744400Y0375337D02*
X0672738Y0375337D01*
X0657262Y0375337D02*
X0656131Y0375337D01*
X0656131Y0374139D02*
X0657262Y0374139D01*
X0657262Y0372940D02*
X0656131Y0372940D01*
X0656131Y0371742D02*
X0657262Y0371742D01*
X0657262Y0370543D02*
X0656131Y0370543D01*
X0656131Y0369693D02*
X0656131Y0380307D01*
X0655307Y0381131D01*
X0644693Y0381131D01*
X0643869Y0380307D01*
X0643869Y0369693D01*
X0644693Y0368869D01*
X0655307Y0368869D01*
X0656131Y0369693D01*
X0655784Y0369345D02*
X0657262Y0369345D01*
X0657262Y0368146D02*
X0612847Y0368146D01*
X0612822Y0368052D02*
X0612931Y0368459D01*
X0612931Y0374400D01*
X0605600Y0374400D01*
X0605600Y0375600D01*
X0604400Y0375600D01*
X0604400Y0382931D01*
X0598459Y0382931D01*
X0598052Y0382822D01*
X0597687Y0382611D01*
X0597389Y0382313D01*
X0597178Y0381948D01*
X0597069Y0381541D01*
X0597069Y0375600D01*
X0604400Y0375600D01*
X0604400Y0374400D01*
X0605600Y0374400D01*
X0605600Y0367069D01*
X0611541Y0367069D01*
X0611948Y0367178D01*
X0612313Y0367389D01*
X0612611Y0367687D01*
X0612822Y0368052D01*
X0613750Y0368146D02*
X0595000Y0368146D01*
X0595000Y0366948D02*
X0613750Y0366948D01*
X0613750Y0365749D02*
X0595000Y0365749D01*
X0595000Y0365000D02*
X0613750Y0365000D01*
X0613750Y0385000D01*
X0595000Y0385000D01*
X0595000Y0365000D01*
X0597687Y0367389D02*
X0598052Y0367178D01*
X0598459Y0367069D01*
X0604400Y0367069D01*
X0604400Y0374400D01*
X0597069Y0374400D01*
X0597069Y0368459D01*
X0597178Y0368052D01*
X0597389Y0367687D01*
X0597687Y0367389D01*
X0597153Y0368146D02*
X0502738Y0368146D01*
X0502738Y0369345D02*
X0597069Y0369345D01*
X0597069Y0370543D02*
X0502738Y0370543D01*
X0502738Y0371742D02*
X0597069Y0371742D01*
X0597069Y0372940D02*
X0502738Y0372940D01*
X0502738Y0374139D02*
X0597069Y0374139D01*
X0595000Y0374139D02*
X0613750Y0374139D01*
X0613676Y0374139D02*
X0612931Y0374139D01*
X0613676Y0374400D02*
X0613676Y0370065D01*
X0613785Y0369658D01*
X0613995Y0369293D01*
X0614293Y0368995D01*
X0614658Y0368785D01*
X0615065Y0368676D01*
X0619400Y0368676D01*
X0619400Y0374400D01*
X0620600Y0374400D01*
X0620600Y0375600D01*
X0619400Y0375600D01*
X0619400Y0381324D01*
X0615065Y0381324D01*
X0614658Y0381215D01*
X0614293Y0381005D01*
X0613995Y0380707D01*
X0613785Y0380342D01*
X0613676Y0379935D01*
X0613676Y0375600D01*
X0619400Y0375600D01*
X0619400Y0374400D01*
X0613676Y0374400D01*
X0613750Y0375337D02*
X0595000Y0375337D01*
X0595000Y0376536D02*
X0613750Y0376536D01*
X0613676Y0376536D02*
X0612931Y0376536D01*
X0612931Y0375600D02*
X0612931Y0381541D01*
X0612822Y0381948D01*
X0612611Y0382313D01*
X0612313Y0382611D01*
X0611948Y0382822D01*
X0611541Y0382931D01*
X0605600Y0382931D01*
X0605600Y0375600D01*
X0612931Y0375600D01*
X0612931Y0377734D02*
X0613676Y0377734D01*
X0613750Y0377734D02*
X0595000Y0377734D01*
X0595000Y0378933D02*
X0613750Y0378933D01*
X0613676Y0378933D02*
X0612931Y0378933D01*
X0612931Y0380132D02*
X0613728Y0380132D01*
X0613750Y0380132D02*
X0595000Y0380132D01*
X0595000Y0381330D02*
X0613750Y0381330D01*
X0612931Y0381330D02*
X0657262Y0381330D01*
X0657262Y0380132D02*
X0656131Y0380132D01*
X0656131Y0378933D02*
X0657262Y0378933D01*
X0657262Y0377734D02*
X0656131Y0377734D01*
X0656131Y0376536D02*
X0657262Y0376536D01*
X0657877Y0382529D02*
X0612396Y0382529D01*
X0613750Y0382529D02*
X0595000Y0382529D01*
X0595000Y0383727D02*
X0613750Y0383727D01*
X0613750Y0384926D02*
X0595000Y0384926D01*
X0597604Y0382529D02*
X0502123Y0382529D01*
X0502738Y0381330D02*
X0597069Y0381330D01*
X0597069Y0380132D02*
X0502738Y0380132D01*
X0502738Y0378933D02*
X0597069Y0378933D01*
X0597069Y0377734D02*
X0502738Y0377734D01*
X0502738Y0376536D02*
X0597069Y0376536D01*
X0595000Y0372940D02*
X0613750Y0372940D01*
X0613676Y0372940D02*
X0612931Y0372940D01*
X0612931Y0371742D02*
X0613676Y0371742D01*
X0613750Y0371742D02*
X0595000Y0371742D01*
X0595000Y0370543D02*
X0613750Y0370543D01*
X0613676Y0370543D02*
X0612931Y0370543D01*
X0612931Y0369345D02*
X0613965Y0369345D01*
X0613750Y0369345D02*
X0595000Y0369345D01*
X0604400Y0369345D02*
X0605600Y0369345D01*
X0605600Y0370543D02*
X0604400Y0370543D01*
X0604400Y0371742D02*
X0605600Y0371742D01*
X0605600Y0372940D02*
X0604400Y0372940D01*
X0604400Y0374139D02*
X0605600Y0374139D01*
X0605600Y0375337D02*
X0619400Y0375337D01*
X0619400Y0374139D02*
X0620600Y0374139D01*
X0620600Y0374400D02*
X0620600Y0368676D01*
X0624935Y0368676D01*
X0625342Y0368785D01*
X0625707Y0368995D01*
X0626005Y0369293D01*
X0626215Y0369658D01*
X0626324Y0370065D01*
X0626324Y0374400D01*
X0620600Y0374400D01*
X0620600Y0375337D02*
X0628869Y0375337D01*
X0628869Y0374139D02*
X0626324Y0374139D01*
X0626324Y0372940D02*
X0628869Y0372940D01*
X0628869Y0371742D02*
X0626324Y0371742D01*
X0626324Y0370543D02*
X0628869Y0370543D01*
X0628869Y0369693D02*
X0629693Y0368869D01*
X0640307Y0368869D01*
X0641131Y0369693D01*
X0641131Y0380307D01*
X0640307Y0381131D01*
X0629693Y0381131D01*
X0628869Y0380307D01*
X0628869Y0369693D01*
X0629216Y0369345D02*
X0626035Y0369345D01*
X0620600Y0369345D02*
X0619400Y0369345D01*
X0619400Y0370543D02*
X0620600Y0370543D01*
X0620600Y0371742D02*
X0619400Y0371742D01*
X0619400Y0372940D02*
X0620600Y0372940D01*
X0620600Y0375600D02*
X0626324Y0375600D01*
X0626324Y0379935D01*
X0626215Y0380342D01*
X0626005Y0380707D01*
X0625707Y0381005D01*
X0625342Y0381215D01*
X0624935Y0381324D01*
X0620600Y0381324D01*
X0620600Y0375600D01*
X0620600Y0376536D02*
X0619400Y0376536D01*
X0619400Y0377734D02*
X0620600Y0377734D01*
X0620600Y0378933D02*
X0619400Y0378933D01*
X0619400Y0380132D02*
X0620600Y0380132D01*
X0626272Y0380132D02*
X0628869Y0380132D01*
X0628869Y0378933D02*
X0626324Y0378933D01*
X0626324Y0377734D02*
X0628869Y0377734D01*
X0628869Y0376536D02*
X0626324Y0376536D01*
X0641131Y0376536D02*
X0643869Y0376536D01*
X0643869Y0377734D02*
X0641131Y0377734D01*
X0641131Y0378933D02*
X0643869Y0378933D01*
X0643869Y0380132D02*
X0641131Y0380132D01*
X0641131Y0375337D02*
X0643869Y0375337D01*
X0643869Y0374139D02*
X0641131Y0374139D01*
X0641131Y0372940D02*
X0643869Y0372940D01*
X0643869Y0371742D02*
X0641131Y0371742D01*
X0641131Y0370543D02*
X0643869Y0370543D01*
X0644216Y0369345D02*
X0640784Y0369345D01*
X0605600Y0368146D02*
X0604400Y0368146D01*
X0604400Y0375337D02*
X0502738Y0375337D01*
X0487262Y0375337D02*
X0486131Y0375337D01*
X0486131Y0374139D02*
X0487262Y0374139D01*
X0487262Y0372940D02*
X0486131Y0372940D01*
X0486131Y0371742D02*
X0487262Y0371742D01*
X0487262Y0370543D02*
X0486131Y0370543D01*
X0486131Y0369693D02*
X0486131Y0380307D01*
X0485307Y0381131D01*
X0474693Y0381131D01*
X0473869Y0380307D01*
X0473869Y0369693D01*
X0474693Y0368869D01*
X0485307Y0368869D01*
X0486131Y0369693D01*
X0485784Y0369345D02*
X0487262Y0369345D01*
X0487262Y0368146D02*
X0442847Y0368146D01*
X0443750Y0368146D02*
X0425000Y0368146D01*
X0425000Y0366948D02*
X0443750Y0366948D01*
X0443750Y0365749D02*
X0425000Y0365749D01*
X0427153Y0368146D02*
X0308086Y0368146D01*
X0309285Y0366948D02*
X0858750Y0366948D01*
X0858750Y0365749D02*
X0309407Y0365749D01*
X0309407Y0364551D02*
X0858750Y0364551D01*
X0858750Y0363352D02*
X0309407Y0363352D01*
X0308386Y0362154D02*
X0858750Y0362154D01*
X0858750Y0360955D02*
X0307188Y0360955D01*
X0302812Y0360955D02*
X0297188Y0360955D01*
X0298386Y0362154D02*
X0301614Y0362154D01*
X0300593Y0363352D02*
X0299407Y0363352D01*
X0299407Y0364551D02*
X0300593Y0364551D01*
X0300593Y0365749D02*
X0299407Y0365749D01*
X0299285Y0366948D02*
X0300715Y0366948D01*
X0301914Y0368146D02*
X0298086Y0368146D01*
X0296888Y0369345D02*
X0303112Y0369345D01*
X0302025Y0371742D02*
X0297974Y0371742D01*
X0296825Y0370593D02*
X0299407Y0373175D01*
X0299407Y0376825D01*
X0296825Y0379407D01*
X0293175Y0379407D01*
X0290593Y0376825D01*
X0290593Y0373175D01*
X0293175Y0370593D01*
X0296825Y0370593D01*
X0299173Y0372940D02*
X0300827Y0372940D01*
X0300593Y0374139D02*
X0299407Y0374139D01*
X0299407Y0375337D02*
X0300593Y0375337D01*
X0300593Y0376536D02*
X0299407Y0376536D01*
X0298498Y0377734D02*
X0301502Y0377734D01*
X0302700Y0378933D02*
X0297300Y0378933D01*
X0296825Y0380593D02*
X0299407Y0383175D01*
X0299407Y0386825D01*
X0296825Y0389407D01*
X0293175Y0389407D01*
X0290593Y0386825D01*
X0290593Y0383175D01*
X0293175Y0380593D01*
X0296825Y0380593D01*
X0297563Y0381330D02*
X0302437Y0381330D01*
X0303175Y0380593D02*
X0306825Y0380593D01*
X0309407Y0383175D01*
X0309407Y0386825D01*
X0306825Y0389407D01*
X0303175Y0389407D01*
X0300593Y0386825D01*
X0300593Y0383175D01*
X0303175Y0380593D01*
X0301239Y0382529D02*
X0298761Y0382529D01*
X0299407Y0383727D02*
X0300593Y0383727D01*
X0300593Y0384926D02*
X0299407Y0384926D01*
X0299407Y0386124D02*
X0300593Y0386124D01*
X0301090Y0387323D02*
X0298910Y0387323D01*
X0297711Y0388521D02*
X0302289Y0388521D01*
X0303095Y0390400D02*
X0300400Y0393095D01*
X0300400Y0394600D01*
X0304600Y0394600D01*
X0304600Y0395400D01*
X0304600Y0399600D01*
X0303095Y0399600D01*
X0300400Y0396905D01*
X0300400Y0395400D01*
X0304600Y0395400D01*
X0305400Y0395400D01*
X0305400Y0399600D01*
X0306905Y0399600D01*
X0309600Y0396905D01*
X0309600Y0395400D01*
X0305400Y0395400D01*
X0305400Y0394600D01*
X0309600Y0394600D01*
X0309600Y0393095D01*
X0306905Y0390400D01*
X0305400Y0390400D01*
X0305400Y0394600D01*
X0304600Y0394600D01*
X0304600Y0390400D01*
X0303095Y0390400D01*
X0302576Y0390918D02*
X0297423Y0390918D01*
X0296905Y0390400D02*
X0299600Y0393095D01*
X0299600Y0394600D01*
X0295400Y0394600D01*
X0295400Y0395400D01*
X0294600Y0395400D01*
X0294600Y0399600D01*
X0293095Y0399600D01*
X0290400Y0396905D01*
X0290400Y0395400D01*
X0294600Y0395400D01*
X0294600Y0394600D01*
X0290400Y0394600D01*
X0290400Y0393095D01*
X0293095Y0390400D01*
X0294600Y0390400D01*
X0294600Y0394600D01*
X0295400Y0394600D01*
X0295400Y0390400D01*
X0296905Y0390400D01*
X0295400Y0390918D02*
X0294600Y0390918D01*
X0294600Y0392117D02*
X0295400Y0392117D01*
X0295400Y0393315D02*
X0294600Y0393315D01*
X0294600Y0394514D02*
X0295400Y0394514D01*
X0295400Y0395400D02*
X0299600Y0395400D01*
X0299600Y0396905D01*
X0296905Y0399600D01*
X0295400Y0399600D01*
X0295400Y0395400D01*
X0295400Y0395712D02*
X0294600Y0395712D01*
X0294600Y0396911D02*
X0295400Y0396911D01*
X0295400Y0398109D02*
X0294600Y0398109D01*
X0294600Y0399308D02*
X0295400Y0399308D01*
X0297198Y0399308D02*
X0302802Y0399308D01*
X0303175Y0400593D02*
X0306825Y0400593D01*
X0309407Y0403175D01*
X0309407Y0406825D01*
X0306825Y0409407D01*
X0303175Y0409407D01*
X0300593Y0406825D01*
X0300593Y0403175D01*
X0303175Y0400593D01*
X0302063Y0401705D02*
X0297937Y0401705D01*
X0296825Y0400593D02*
X0299407Y0403175D01*
X0299407Y0406825D01*
X0296825Y0409407D01*
X0293175Y0409407D01*
X0290593Y0406825D01*
X0290593Y0403175D01*
X0293175Y0400593D01*
X0296825Y0400593D01*
X0298396Y0398109D02*
X0301604Y0398109D01*
X0300405Y0396911D02*
X0299595Y0396911D01*
X0299600Y0395712D02*
X0300400Y0395712D01*
X0300400Y0394514D02*
X0299600Y0394514D01*
X0299600Y0393315D02*
X0300400Y0393315D01*
X0301378Y0392117D02*
X0298622Y0392117D01*
X0304600Y0392117D02*
X0305400Y0392117D01*
X0305400Y0393315D02*
X0304600Y0393315D01*
X0304600Y0394514D02*
X0305400Y0394514D01*
X0305400Y0395712D02*
X0304600Y0395712D01*
X0304600Y0396911D02*
X0305400Y0396911D01*
X0305400Y0398109D02*
X0304600Y0398109D01*
X0304600Y0399308D02*
X0305400Y0399308D01*
X0307198Y0399308D02*
X0325993Y0399308D01*
X0325993Y0398340D02*
X0328340Y0395993D01*
X0331660Y0395993D01*
X0334007Y0398340D01*
X0334007Y0401660D01*
X0331660Y0404007D01*
X0328340Y0404007D01*
X0325993Y0401660D01*
X0325993Y0398340D01*
X0326224Y0398109D02*
X0308396Y0398109D01*
X0309595Y0396911D02*
X0327422Y0396911D01*
X0325993Y0400506D02*
X0271250Y0400506D01*
X0271250Y0399308D02*
X0292802Y0399308D01*
X0291604Y0398109D02*
X0271250Y0398109D01*
X0271250Y0396911D02*
X0290405Y0396911D01*
X0290400Y0395712D02*
X0271250Y0395712D01*
X0271250Y0394514D02*
X0290400Y0394514D01*
X0290400Y0393315D02*
X0271250Y0393315D01*
X0271250Y0392117D02*
X0291378Y0392117D01*
X0292576Y0390918D02*
X0271250Y0390918D01*
X0271250Y0389720D02*
X0858750Y0389720D01*
X0858750Y0390918D02*
X0307423Y0390918D01*
X0308622Y0392117D02*
X0362216Y0392117D01*
X0363340Y0390993D02*
X0366660Y0390993D01*
X0369007Y0393340D01*
X0369007Y0396660D01*
X0366660Y0399007D01*
X0363340Y0399007D01*
X0360993Y0396660D01*
X0360993Y0393340D01*
X0363340Y0390993D01*
X0363340Y0389007D02*
X0360993Y0386660D01*
X0360993Y0383340D01*
X0363340Y0380993D01*
X0366660Y0380993D01*
X0369007Y0383340D01*
X0369007Y0386660D01*
X0366660Y0389007D01*
X0363340Y0389007D01*
X0362854Y0388521D02*
X0307711Y0388521D01*
X0308910Y0387323D02*
X0361656Y0387323D01*
X0360993Y0386124D02*
X0309407Y0386124D01*
X0309407Y0384926D02*
X0360993Y0384926D01*
X0360993Y0383727D02*
X0309407Y0383727D01*
X0308761Y0382529D02*
X0361805Y0382529D01*
X0363003Y0381330D02*
X0307563Y0381330D01*
X0307300Y0378933D02*
X0427069Y0378933D01*
X0427069Y0377734D02*
X0308498Y0377734D01*
X0309407Y0376536D02*
X0427069Y0376536D01*
X0427069Y0380132D02*
X0271250Y0380132D01*
X0271250Y0381330D02*
X0292437Y0381330D01*
X0291239Y0382529D02*
X0271250Y0382529D01*
X0271250Y0383727D02*
X0290593Y0383727D01*
X0290593Y0384926D02*
X0271250Y0384926D01*
X0271250Y0386124D02*
X0290593Y0386124D01*
X0291090Y0387323D02*
X0271250Y0387323D01*
X0271250Y0388521D02*
X0292289Y0388521D01*
X0292700Y0378933D02*
X0271250Y0378933D01*
X0271250Y0377734D02*
X0291502Y0377734D01*
X0290593Y0376536D02*
X0271250Y0376536D01*
X0271250Y0375337D02*
X0290593Y0375337D01*
X0290593Y0374139D02*
X0271250Y0374139D01*
X0271250Y0372940D02*
X0290827Y0372940D01*
X0292025Y0371742D02*
X0271250Y0371742D01*
X0271250Y0401705D02*
X0292063Y0401705D01*
X0290864Y0402903D02*
X0271250Y0402903D01*
X0271250Y0404102D02*
X0290593Y0404102D01*
X0290593Y0405300D02*
X0271250Y0405300D01*
X0271250Y0406499D02*
X0290593Y0406499D01*
X0291465Y0407697D02*
X0271250Y0407697D01*
X0271250Y0408896D02*
X0292663Y0408896D01*
X0293175Y0410593D02*
X0296825Y0410593D01*
X0299407Y0413175D01*
X0299407Y0416825D01*
X0296825Y0419407D01*
X0293175Y0419407D01*
X0290593Y0416825D01*
X0290593Y0413175D01*
X0293175Y0410593D01*
X0292475Y0411293D02*
X0271250Y0411293D01*
X0271250Y0412491D02*
X0291276Y0412491D01*
X0290593Y0413690D02*
X0271250Y0413690D01*
X0271250Y0414888D02*
X0290593Y0414888D01*
X0290593Y0416087D02*
X0271250Y0416087D01*
X0271250Y0417285D02*
X0291053Y0417285D01*
X0292251Y0418484D02*
X0271250Y0418484D01*
X0271250Y0419682D02*
X0858750Y0419682D01*
X0858750Y0418484D02*
X0387183Y0418484D01*
X0386660Y0419007D02*
X0383340Y0419007D01*
X0380993Y0416660D01*
X0380993Y0413340D01*
X0383340Y0410993D01*
X0386660Y0410993D01*
X0389007Y0413340D01*
X0389007Y0416660D01*
X0386660Y0419007D01*
X0386660Y0420993D02*
X0389007Y0423340D01*
X0389007Y0426660D01*
X0386660Y0429007D01*
X0383340Y0429007D01*
X0380993Y0426660D01*
X0380993Y0423340D01*
X0383340Y0420993D01*
X0386660Y0420993D01*
X0387746Y0422079D02*
X0858750Y0422079D01*
X0858750Y0420881D02*
X0307113Y0420881D01*
X0306825Y0420593D02*
X0309407Y0423175D01*
X0309407Y0426825D01*
X0306825Y0429407D01*
X0303175Y0429407D01*
X0300593Y0426825D01*
X0300593Y0423175D01*
X0303175Y0420593D01*
X0306825Y0420593D01*
X0306825Y0419407D02*
X0303175Y0419407D01*
X0300593Y0416825D01*
X0300593Y0413175D01*
X0303175Y0410593D01*
X0306825Y0410593D01*
X0309407Y0413175D01*
X0309407Y0416825D01*
X0306825Y0419407D01*
X0307749Y0418484D02*
X0362817Y0418484D01*
X0363340Y0419007D02*
X0360993Y0416660D01*
X0360993Y0413340D01*
X0363340Y0410993D01*
X0366660Y0410993D01*
X0369007Y0413340D01*
X0369007Y0416660D01*
X0366660Y0419007D01*
X0363340Y0419007D01*
X0363340Y0420993D02*
X0366660Y0420993D01*
X0369007Y0423340D01*
X0369007Y0426660D01*
X0366660Y0429007D01*
X0363340Y0429007D01*
X0360993Y0426660D01*
X0360993Y0423340D01*
X0363340Y0420993D01*
X0362254Y0422079D02*
X0342746Y0422079D01*
X0341660Y0420993D02*
X0344007Y0423340D01*
X0344007Y0426660D01*
X0341660Y0429007D01*
X0338340Y0429007D01*
X0335993Y0426660D01*
X0335993Y0423340D01*
X0338340Y0420993D01*
X0341660Y0420993D01*
X0343945Y0423278D02*
X0361055Y0423278D01*
X0360993Y0424476D02*
X0344007Y0424476D01*
X0344007Y0425675D02*
X0360993Y0425675D01*
X0361207Y0426873D02*
X0343793Y0426873D01*
X0342595Y0428072D02*
X0362405Y0428072D01*
X0363340Y0430993D02*
X0366660Y0430993D01*
X0369007Y0433340D01*
X0369007Y0436660D01*
X0366660Y0439007D01*
X0363340Y0439007D01*
X0360993Y0436660D01*
X0360993Y0433340D01*
X0363340Y0430993D01*
X0362666Y0431668D02*
X0271250Y0431668D01*
X0271250Y0432866D02*
X0361467Y0432866D01*
X0360993Y0434065D02*
X0271250Y0434065D01*
X0271250Y0435263D02*
X0360993Y0435263D01*
X0360993Y0436462D02*
X0271250Y0436462D01*
X0271250Y0437660D02*
X0361993Y0437660D01*
X0363192Y0438859D02*
X0337025Y0438859D01*
X0336660Y0438493D02*
X0339007Y0440840D01*
X0339007Y0444160D01*
X0336660Y0446507D01*
X0333340Y0446507D01*
X0330993Y0444160D01*
X0330993Y0440840D01*
X0333340Y0438493D01*
X0336660Y0438493D01*
X0338224Y0440057D02*
X0858750Y0440057D01*
X0858750Y0438859D02*
X0386808Y0438859D01*
X0386660Y0439007D02*
X0383340Y0439007D01*
X0380993Y0436660D01*
X0380993Y0433340D01*
X0383340Y0430993D01*
X0386660Y0430993D01*
X0389007Y0433340D01*
X0389007Y0436660D01*
X0386660Y0439007D01*
X0388007Y0437660D02*
X0858750Y0437660D01*
X0858750Y0436462D02*
X0389007Y0436462D01*
X0389007Y0435263D02*
X0858750Y0435263D01*
X0858750Y0434065D02*
X0847168Y0434065D01*
X0846825Y0434407D02*
X0843175Y0434407D01*
X0840593Y0431825D01*
X0840593Y0428175D01*
X0843175Y0425593D01*
X0846825Y0425593D01*
X0849407Y0428175D01*
X0849407Y0431825D01*
X0846825Y0434407D01*
X0848367Y0432866D02*
X0858750Y0432866D01*
X0858750Y0431668D02*
X0849407Y0431668D01*
X0849407Y0430469D02*
X0858750Y0430469D01*
X0858750Y0429270D02*
X0849407Y0429270D01*
X0849305Y0428072D02*
X0858750Y0428072D01*
X0858750Y0426873D02*
X0848106Y0426873D01*
X0846908Y0425675D02*
X0858750Y0425675D01*
X0858750Y0424476D02*
X0389007Y0424476D01*
X0389007Y0425675D02*
X0563092Y0425675D01*
X0563175Y0425593D02*
X0566825Y0425593D01*
X0569407Y0428175D01*
X0569407Y0431825D01*
X0566825Y0434407D01*
X0563175Y0434407D01*
X0560593Y0431825D01*
X0560593Y0428175D01*
X0563175Y0425593D01*
X0561894Y0426873D02*
X0388793Y0426873D01*
X0387595Y0428072D02*
X0560695Y0428072D01*
X0560593Y0429270D02*
X0306962Y0429270D01*
X0308161Y0428072D02*
X0327405Y0428072D01*
X0328340Y0429007D02*
X0325993Y0426660D01*
X0325993Y0423340D01*
X0328340Y0420993D01*
X0331660Y0420993D01*
X0334007Y0423340D01*
X0334007Y0426660D01*
X0331660Y0429007D01*
X0328340Y0429007D01*
X0326207Y0426873D02*
X0309359Y0426873D01*
X0309407Y0425675D02*
X0325993Y0425675D01*
X0325993Y0424476D02*
X0309407Y0424476D01*
X0309407Y0423278D02*
X0326055Y0423278D01*
X0327254Y0422079D02*
X0308312Y0422079D01*
X0308947Y0417285D02*
X0361619Y0417285D01*
X0360993Y0416087D02*
X0342080Y0416087D01*
X0341660Y0416507D02*
X0338340Y0416507D01*
X0335993Y0414160D01*
X0335993Y0410840D01*
X0338340Y0408493D01*
X0341660Y0408493D01*
X0344007Y0410840D01*
X0344007Y0414160D01*
X0341660Y0416507D01*
X0343279Y0414888D02*
X0360993Y0414888D01*
X0360993Y0413690D02*
X0344007Y0413690D01*
X0344007Y0412491D02*
X0361842Y0412491D01*
X0363040Y0411293D02*
X0344007Y0411293D01*
X0343261Y0410094D02*
X0858750Y0410094D01*
X0858750Y0408896D02*
X0386771Y0408896D01*
X0386660Y0409007D02*
X0383340Y0409007D01*
X0380993Y0406660D01*
X0380993Y0403340D01*
X0383340Y0400993D01*
X0386660Y0400993D01*
X0389007Y0403340D01*
X0389007Y0406660D01*
X0386660Y0409007D01*
X0387970Y0407697D02*
X0858750Y0407697D01*
X0858750Y0406499D02*
X0389007Y0406499D01*
X0389007Y0405300D02*
X0858750Y0405300D01*
X0858750Y0404102D02*
X0389007Y0404102D01*
X0388570Y0402903D02*
X0858750Y0402903D01*
X0858750Y0401705D02*
X0387372Y0401705D01*
X0386660Y0399007D02*
X0383340Y0399007D01*
X0380993Y0396660D01*
X0380993Y0393340D01*
X0383340Y0390993D01*
X0386660Y0390993D01*
X0389007Y0393340D01*
X0389007Y0396660D01*
X0386660Y0399007D01*
X0387558Y0398109D02*
X0858750Y0398109D01*
X0858750Y0396911D02*
X0388756Y0396911D01*
X0389007Y0395712D02*
X0858750Y0395712D01*
X0858750Y0394514D02*
X0389007Y0394514D01*
X0388982Y0393315D02*
X0858750Y0393315D01*
X0858750Y0392117D02*
X0387784Y0392117D01*
X0387146Y0388521D02*
X0858750Y0388521D01*
X0858750Y0387323D02*
X0388344Y0387323D01*
X0389007Y0386124D02*
X0858750Y0386124D01*
X0858750Y0384926D02*
X0389007Y0384926D01*
X0386997Y0381330D02*
X0427069Y0381330D01*
X0434400Y0381330D02*
X0435600Y0381330D01*
X0435600Y0380132D02*
X0434400Y0380132D01*
X0434400Y0378933D02*
X0435600Y0378933D01*
X0435600Y0377734D02*
X0434400Y0377734D01*
X0434400Y0376536D02*
X0435600Y0376536D01*
X0435600Y0375337D02*
X0449400Y0375337D01*
X0449400Y0374139D02*
X0450600Y0374139D01*
X0450600Y0374400D02*
X0450600Y0368676D01*
X0454935Y0368676D01*
X0455342Y0368785D01*
X0455707Y0368995D01*
X0456005Y0369293D01*
X0456215Y0369658D01*
X0456324Y0370065D01*
X0456324Y0374400D01*
X0450600Y0374400D01*
X0450600Y0375337D02*
X0458869Y0375337D01*
X0458869Y0374139D02*
X0456324Y0374139D01*
X0456324Y0372940D02*
X0458869Y0372940D01*
X0458869Y0371742D02*
X0456324Y0371742D01*
X0456324Y0370543D02*
X0458869Y0370543D01*
X0458869Y0369693D02*
X0459693Y0368869D01*
X0470307Y0368869D01*
X0471131Y0369693D01*
X0471131Y0380307D01*
X0470307Y0381131D01*
X0459693Y0381131D01*
X0458869Y0380307D01*
X0458869Y0369693D01*
X0459216Y0369345D02*
X0456035Y0369345D01*
X0450600Y0369345D02*
X0449400Y0369345D01*
X0449400Y0370543D02*
X0450600Y0370543D01*
X0450600Y0371742D02*
X0449400Y0371742D01*
X0449400Y0372940D02*
X0450600Y0372940D01*
X0450600Y0375600D02*
X0456324Y0375600D01*
X0456324Y0379935D01*
X0456215Y0380342D01*
X0456005Y0380707D01*
X0455707Y0381005D01*
X0455342Y0381215D01*
X0454935Y0381324D01*
X0450600Y0381324D01*
X0450600Y0375600D01*
X0450600Y0376536D02*
X0449400Y0376536D01*
X0449400Y0377734D02*
X0450600Y0377734D01*
X0450600Y0378933D02*
X0449400Y0378933D01*
X0449400Y0380132D02*
X0450600Y0380132D01*
X0456272Y0380132D02*
X0458869Y0380132D01*
X0458869Y0378933D02*
X0456324Y0378933D01*
X0456324Y0377734D02*
X0458869Y0377734D01*
X0458869Y0376536D02*
X0456324Y0376536D01*
X0443750Y0372940D02*
X0425000Y0372940D01*
X0425000Y0371742D02*
X0443750Y0371742D01*
X0443676Y0371742D02*
X0442931Y0371742D01*
X0442931Y0372940D02*
X0443676Y0372940D01*
X0443676Y0370543D02*
X0442931Y0370543D01*
X0443750Y0370543D02*
X0425000Y0370543D01*
X0425000Y0369345D02*
X0443750Y0369345D01*
X0443965Y0369345D02*
X0442931Y0369345D01*
X0435600Y0369345D02*
X0434400Y0369345D01*
X0434400Y0370543D02*
X0435600Y0370543D01*
X0435600Y0371742D02*
X0434400Y0371742D01*
X0434400Y0372940D02*
X0435600Y0372940D01*
X0435600Y0374139D02*
X0434400Y0374139D01*
X0434400Y0375337D02*
X0309407Y0375337D01*
X0305400Y0390918D02*
X0304600Y0390918D01*
X0309600Y0393315D02*
X0361018Y0393315D01*
X0360993Y0394514D02*
X0309600Y0394514D01*
X0309600Y0395712D02*
X0360993Y0395712D01*
X0361244Y0396911D02*
X0342578Y0396911D01*
X0341660Y0395993D02*
X0344007Y0398340D01*
X0344007Y0401660D01*
X0341660Y0404007D01*
X0338340Y0404007D01*
X0335993Y0401660D01*
X0335993Y0398340D01*
X0338340Y0395993D01*
X0341660Y0395993D01*
X0343776Y0398109D02*
X0362442Y0398109D01*
X0363340Y0400993D02*
X0366660Y0400993D01*
X0369007Y0403340D01*
X0369007Y0406660D01*
X0366660Y0409007D01*
X0363340Y0409007D01*
X0360993Y0406660D01*
X0360993Y0403340D01*
X0363340Y0400993D01*
X0362628Y0401705D02*
X0343962Y0401705D01*
X0344007Y0400506D02*
X0858750Y0400506D01*
X0858750Y0399308D02*
X0344007Y0399308D01*
X0342764Y0402903D02*
X0361430Y0402903D01*
X0360993Y0404102D02*
X0309407Y0404102D01*
X0309407Y0405300D02*
X0360993Y0405300D01*
X0360993Y0406499D02*
X0309407Y0406499D01*
X0308535Y0407697D02*
X0362030Y0407697D01*
X0363229Y0408896D02*
X0342063Y0408896D01*
X0337937Y0408896D02*
X0332063Y0408896D01*
X0331660Y0408493D02*
X0334007Y0410840D01*
X0334007Y0414160D01*
X0331660Y0416507D01*
X0328340Y0416507D01*
X0325993Y0414160D01*
X0325993Y0410840D01*
X0328340Y0408493D01*
X0331660Y0408493D01*
X0333261Y0410094D02*
X0336739Y0410094D01*
X0335993Y0411293D02*
X0334007Y0411293D01*
X0334007Y0412491D02*
X0335993Y0412491D01*
X0335993Y0413690D02*
X0334007Y0413690D01*
X0333279Y0414888D02*
X0336721Y0414888D01*
X0337920Y0416087D02*
X0332080Y0416087D01*
X0327920Y0416087D02*
X0309407Y0416087D01*
X0309407Y0414888D02*
X0326721Y0414888D01*
X0325993Y0413690D02*
X0309407Y0413690D01*
X0308724Y0412491D02*
X0325993Y0412491D01*
X0325993Y0411293D02*
X0307525Y0411293D01*
X0307337Y0408896D02*
X0327937Y0408896D01*
X0326739Y0410094D02*
X0271250Y0410094D01*
X0271250Y0420881D02*
X0292887Y0420881D01*
X0293175Y0420593D02*
X0296825Y0420593D01*
X0299407Y0423175D01*
X0299407Y0426825D01*
X0296825Y0429407D01*
X0293175Y0429407D01*
X0290593Y0426825D01*
X0290593Y0423175D01*
X0293175Y0420593D01*
X0291688Y0422079D02*
X0271250Y0422079D01*
X0271250Y0423278D02*
X0290593Y0423278D01*
X0290593Y0424476D02*
X0271250Y0424476D01*
X0271250Y0425675D02*
X0290593Y0425675D01*
X0290641Y0426873D02*
X0271250Y0426873D01*
X0271250Y0428072D02*
X0291839Y0428072D01*
X0293038Y0429270D02*
X0271250Y0429270D01*
X0271250Y0430469D02*
X0560593Y0430469D01*
X0560593Y0431668D02*
X0387334Y0431668D01*
X0388533Y0432866D02*
X0561633Y0432866D01*
X0562832Y0434065D02*
X0389007Y0434065D01*
X0382666Y0431668D02*
X0367334Y0431668D01*
X0368533Y0432866D02*
X0381467Y0432866D01*
X0380993Y0434065D02*
X0369007Y0434065D01*
X0369007Y0435263D02*
X0380993Y0435263D01*
X0380993Y0436462D02*
X0369007Y0436462D01*
X0368007Y0437660D02*
X0381993Y0437660D01*
X0383192Y0438859D02*
X0366808Y0438859D01*
X0367970Y0448850D02*
X0365100Y0451720D01*
X0365100Y0453250D01*
X0369500Y0453250D01*
X0369500Y0454250D01*
X0369500Y0458650D01*
X0367970Y0458650D01*
X0365100Y0455780D01*
X0365100Y0454250D01*
X0369500Y0454250D01*
X0370500Y0454250D01*
X0370500Y0458650D01*
X0372030Y0458650D01*
X0374900Y0455780D01*
X0374900Y0454250D01*
X0370500Y0454250D01*
X0370500Y0453250D01*
X0374900Y0453250D01*
X0374900Y0451720D01*
X0372030Y0448850D01*
X0370500Y0448850D01*
X0370500Y0453250D01*
X0369500Y0453250D01*
X0369500Y0448850D01*
X0367970Y0448850D01*
X0367175Y0449645D02*
X0337812Y0449645D01*
X0336660Y0448493D02*
X0339007Y0450840D01*
X0339007Y0454160D01*
X0336660Y0456507D01*
X0333340Y0456507D01*
X0330993Y0454160D01*
X0330993Y0450840D01*
X0333340Y0448493D01*
X0336660Y0448493D01*
X0337117Y0446050D02*
X0858750Y0446050D01*
X0858750Y0447248D02*
X0306481Y0447248D01*
X0307127Y0448447D02*
X0858750Y0448447D01*
X0858750Y0449645D02*
X0847825Y0449645D01*
X0847030Y0448850D02*
X0849900Y0451720D01*
X0849900Y0453250D01*
X0845500Y0453250D01*
X0845500Y0454250D01*
X0844500Y0454250D01*
X0844500Y0458650D01*
X0842970Y0458650D01*
X0840100Y0455780D01*
X0840100Y0454250D01*
X0844500Y0454250D01*
X0844500Y0453250D01*
X0840100Y0453250D01*
X0840100Y0451720D01*
X0842970Y0448850D01*
X0844500Y0448850D01*
X0844500Y0453250D01*
X0845500Y0453250D01*
X0845500Y0448850D01*
X0847030Y0448850D01*
X0845500Y0449645D02*
X0844500Y0449645D01*
X0844500Y0450844D02*
X0845500Y0450844D01*
X0845500Y0452042D02*
X0844500Y0452042D01*
X0844500Y0453241D02*
X0845500Y0453241D01*
X0845500Y0454250D02*
X0849900Y0454250D01*
X0849900Y0455780D01*
X0847030Y0458650D01*
X0845500Y0458650D01*
X0845500Y0454250D01*
X0845500Y0454439D02*
X0844500Y0454439D01*
X0844500Y0455638D02*
X0845500Y0455638D01*
X0845500Y0456836D02*
X0844500Y0456836D01*
X0844500Y0458035D02*
X0845500Y0458035D01*
X0847645Y0458035D02*
X0858750Y0458035D01*
X0858750Y0459233D02*
X0307407Y0459233D01*
X0307407Y0459123D02*
X0307407Y0460877D01*
X0306736Y0462496D01*
X0305496Y0463736D01*
X0303877Y0464407D01*
X0296123Y0464407D01*
X0294504Y0463736D01*
X0293264Y0462496D01*
X0292593Y0460877D01*
X0292593Y0459123D01*
X0293264Y0457504D01*
X0294504Y0456264D01*
X0296123Y0455593D01*
X0303877Y0455593D01*
X0305496Y0456264D01*
X0306736Y0457504D01*
X0307407Y0459123D01*
X0306956Y0458035D02*
X0367355Y0458035D01*
X0366157Y0456836D02*
X0306069Y0456836D01*
X0303985Y0455638D02*
X0332471Y0455638D01*
X0331272Y0454439D02*
X0290379Y0454439D01*
X0289181Y0455638D02*
X0296015Y0455638D01*
X0293931Y0456836D02*
X0288407Y0456836D01*
X0288407Y0458035D02*
X0293044Y0458035D01*
X0292593Y0459233D02*
X0288407Y0459233D01*
X0288407Y0460432D02*
X0292593Y0460432D01*
X0292905Y0461630D02*
X0288407Y0461630D01*
X0288407Y0462829D02*
X0293596Y0462829D01*
X0295207Y0464027D02*
X0288407Y0464027D01*
X0288407Y0465226D02*
X0858750Y0465226D01*
X0858750Y0466424D02*
X0288407Y0466424D01*
X0281593Y0466424D02*
X0271250Y0466424D01*
X0271250Y0465226D02*
X0281593Y0465226D01*
X0281593Y0464027D02*
X0271250Y0464027D01*
X0271250Y0462829D02*
X0281593Y0462829D01*
X0281593Y0461630D02*
X0271250Y0461630D01*
X0271250Y0460432D02*
X0281593Y0460432D01*
X0281593Y0459233D02*
X0271250Y0459233D01*
X0271250Y0458035D02*
X0281593Y0458035D01*
X0281593Y0456836D02*
X0271250Y0456836D01*
X0271250Y0455638D02*
X0281593Y0455638D01*
X0281593Y0454439D02*
X0271250Y0454439D01*
X0271250Y0453241D02*
X0282041Y0453241D01*
X0283139Y0452042D02*
X0271250Y0452042D01*
X0271250Y0450844D02*
X0284338Y0450844D01*
X0285536Y0449645D02*
X0271250Y0449645D01*
X0271250Y0448447D02*
X0286735Y0448447D01*
X0287933Y0447248D02*
X0271250Y0447248D01*
X0271250Y0446050D02*
X0295021Y0446050D01*
X0304979Y0446050D02*
X0332883Y0446050D01*
X0331684Y0444851D02*
X0271250Y0444851D01*
X0271250Y0443653D02*
X0330993Y0443653D01*
X0330993Y0442454D02*
X0271250Y0442454D01*
X0271250Y0441256D02*
X0330993Y0441256D01*
X0331776Y0440057D02*
X0271250Y0440057D01*
X0271250Y0438859D02*
X0332975Y0438859D01*
X0339007Y0441256D02*
X0858750Y0441256D01*
X0858750Y0442454D02*
X0339007Y0442454D01*
X0339007Y0443653D02*
X0858750Y0443653D01*
X0858750Y0444851D02*
X0338316Y0444851D01*
X0339007Y0450844D02*
X0365977Y0450844D01*
X0365100Y0452042D02*
X0339007Y0452042D01*
X0339007Y0453241D02*
X0365100Y0453241D01*
X0365100Y0454439D02*
X0338728Y0454439D01*
X0337529Y0455638D02*
X0365100Y0455638D01*
X0369500Y0455638D02*
X0370500Y0455638D01*
X0370500Y0456836D02*
X0369500Y0456836D01*
X0369500Y0458035D02*
X0370500Y0458035D01*
X0372645Y0458035D02*
X0842355Y0458035D01*
X0841157Y0456836D02*
X0373843Y0456836D01*
X0374900Y0455638D02*
X0840100Y0455638D01*
X0840100Y0454439D02*
X0374900Y0454439D01*
X0374900Y0453241D02*
X0840100Y0453241D01*
X0840100Y0452042D02*
X0374900Y0452042D01*
X0374023Y0450844D02*
X0840977Y0450844D01*
X0842175Y0449645D02*
X0372825Y0449645D01*
X0370500Y0449645D02*
X0369500Y0449645D01*
X0369500Y0450844D02*
X0370500Y0450844D01*
X0370500Y0452042D02*
X0369500Y0452042D01*
X0369500Y0453241D02*
X0370500Y0453241D01*
X0370500Y0454439D02*
X0369500Y0454439D01*
X0360164Y0467623D02*
X0858750Y0467623D01*
X0858750Y0468821D02*
X0361762Y0468821D01*
X0363360Y0470020D02*
X0858750Y0470020D01*
X0858750Y0471218D02*
X0364958Y0471218D01*
X0360448Y0477211D02*
X0356901Y0477211D01*
X0357950Y0478260D02*
X0357950Y0479800D01*
X0353950Y0479800D01*
X0353950Y0480200D01*
X0353550Y0480200D01*
X0353550Y0484200D01*
X0352010Y0484200D01*
X0349550Y0481740D01*
X0349550Y0480200D01*
X0353550Y0480200D01*
X0353550Y0479800D01*
X0349550Y0479800D01*
X0349550Y0478260D01*
X0352010Y0475800D01*
X0353550Y0475800D01*
X0353550Y0479800D01*
X0353950Y0479800D01*
X0353950Y0475800D01*
X0355490Y0475800D01*
X0357950Y0478260D01*
X0357950Y0478409D02*
X0362046Y0478409D01*
X0362500Y0478750D02*
X0357500Y0475000D01*
X0290000Y0475000D01*
X0290000Y0515000D01*
X0314497Y0515000D01*
X0319743Y0509754D01*
X0319743Y0508340D01*
X0322090Y0505993D01*
X0325410Y0505993D01*
X0327757Y0508340D01*
X0327757Y0511660D01*
X0325410Y0514007D01*
X0323996Y0514007D01*
X0319901Y0518102D01*
X0320357Y0519203D01*
X0320357Y0520797D01*
X0319747Y0522270D01*
X0318620Y0523397D01*
X0317147Y0524007D01*
X0315000Y0524007D01*
X0315000Y0628750D01*
X0858625Y0628750D01*
X0858750Y0628625D01*
X0858750Y0478750D01*
X0362500Y0478750D01*
X0365100Y0481720D02*
X0367970Y0478850D01*
X0369500Y0478850D01*
X0369500Y0483250D01*
X0365100Y0483250D01*
X0365100Y0481720D01*
X0365100Y0482005D02*
X0357685Y0482005D01*
X0357950Y0481740D02*
X0355490Y0484200D01*
X0353950Y0484200D01*
X0353950Y0480200D01*
X0357950Y0480200D01*
X0357950Y0481740D01*
X0357950Y0480806D02*
X0366014Y0480806D01*
X0367212Y0479608D02*
X0357950Y0479608D01*
X0358850Y0476012D02*
X0355702Y0476012D01*
X0353950Y0476012D02*
X0353550Y0476012D01*
X0353550Y0477211D02*
X0353950Y0477211D01*
X0353950Y0478409D02*
X0353550Y0478409D01*
X0353550Y0479608D02*
X0353950Y0479608D01*
X0353950Y0480806D02*
X0353550Y0480806D01*
X0353550Y0482005D02*
X0353950Y0482005D01*
X0353950Y0483203D02*
X0353550Y0483203D01*
X0351014Y0483203D02*
X0346213Y0483203D01*
X0345410Y0484007D02*
X0342090Y0484007D01*
X0339743Y0481660D01*
X0339743Y0478340D01*
X0342090Y0475993D01*
X0345410Y0475993D01*
X0347757Y0478340D01*
X0347757Y0481660D01*
X0345410Y0484007D01*
X0347412Y0482005D02*
X0349815Y0482005D01*
X0349550Y0480806D02*
X0347757Y0480806D01*
X0347757Y0479608D02*
X0349550Y0479608D01*
X0349550Y0478409D02*
X0347757Y0478409D01*
X0346628Y0477211D02*
X0350599Y0477211D01*
X0351798Y0476012D02*
X0345429Y0476012D01*
X0342071Y0476012D02*
X0335429Y0476012D01*
X0335410Y0475993D02*
X0337757Y0478340D01*
X0337757Y0481660D01*
X0335410Y0484007D01*
X0332090Y0484007D01*
X0329743Y0481660D01*
X0329743Y0478340D01*
X0332090Y0475993D01*
X0335410Y0475993D01*
X0336628Y0477211D02*
X0340872Y0477211D01*
X0339743Y0478409D02*
X0337757Y0478409D01*
X0337757Y0479608D02*
X0339743Y0479608D01*
X0339743Y0480806D02*
X0337757Y0480806D01*
X0337412Y0482005D02*
X0340088Y0482005D01*
X0341287Y0483203D02*
X0336213Y0483203D01*
X0331287Y0483203D02*
X0326486Y0483203D01*
X0325490Y0484200D02*
X0323950Y0484200D01*
X0323950Y0480200D01*
X0323550Y0480200D01*
X0323550Y0484200D01*
X0322010Y0484200D01*
X0319550Y0481740D01*
X0319550Y0480200D01*
X0323550Y0480200D01*
X0323550Y0479800D01*
X0319550Y0479800D01*
X0319550Y0478260D01*
X0322010Y0475800D01*
X0323550Y0475800D01*
X0323550Y0479800D01*
X0323950Y0479800D01*
X0323950Y0480200D01*
X0327950Y0480200D01*
X0327950Y0481740D01*
X0325490Y0484200D01*
X0323950Y0483203D02*
X0323550Y0483203D01*
X0323550Y0482005D02*
X0323950Y0482005D01*
X0323950Y0480806D02*
X0323550Y0480806D01*
X0323950Y0479800D02*
X0327950Y0479800D01*
X0327950Y0478260D01*
X0325490Y0475800D01*
X0323950Y0475800D01*
X0323950Y0479800D01*
X0323950Y0479608D02*
X0323550Y0479608D01*
X0323550Y0478409D02*
X0323950Y0478409D01*
X0323950Y0477211D02*
X0323550Y0477211D01*
X0323550Y0476012D02*
X0323950Y0476012D01*
X0325702Y0476012D02*
X0332071Y0476012D01*
X0330872Y0477211D02*
X0326901Y0477211D01*
X0327950Y0478409D02*
X0329743Y0478409D01*
X0329743Y0479608D02*
X0327950Y0479608D01*
X0327950Y0480806D02*
X0329743Y0480806D01*
X0330088Y0482005D02*
X0327685Y0482005D01*
X0321014Y0483203D02*
X0304750Y0483203D01*
X0304750Y0483718D02*
X0301968Y0486500D01*
X0300200Y0486500D01*
X0300200Y0481950D01*
X0299800Y0481950D01*
X0299800Y0486500D01*
X0298032Y0486500D01*
X0295250Y0483718D01*
X0295250Y0481950D01*
X0299800Y0481950D01*
X0299800Y0481550D01*
X0295250Y0481550D01*
X0295250Y0479782D01*
X0298032Y0477000D01*
X0299800Y0477000D01*
X0299800Y0481550D01*
X0300200Y0481550D01*
X0300200Y0481950D01*
X0304750Y0481950D01*
X0304750Y0483718D01*
X0304065Y0484402D02*
X0365100Y0484402D01*
X0365100Y0484250D02*
X0369500Y0484250D01*
X0369500Y0488650D01*
X0367970Y0488650D01*
X0365100Y0485780D01*
X0365100Y0484250D01*
X0365100Y0483203D02*
X0356486Y0483203D01*
X0365100Y0485601D02*
X0302867Y0485601D01*
X0300200Y0485601D02*
X0299800Y0485601D01*
X0299800Y0484402D02*
X0300200Y0484402D01*
X0300200Y0483203D02*
X0299800Y0483203D01*
X0299800Y0482005D02*
X0300200Y0482005D01*
X0300200Y0481550D02*
X0304750Y0481550D01*
X0304750Y0479782D01*
X0301968Y0477000D01*
X0300200Y0477000D01*
X0300200Y0481550D01*
X0300200Y0480806D02*
X0299800Y0480806D01*
X0299800Y0479608D02*
X0300200Y0479608D01*
X0300200Y0478409D02*
X0299800Y0478409D01*
X0299800Y0477211D02*
X0300200Y0477211D01*
X0302178Y0477211D02*
X0320599Y0477211D01*
X0319550Y0478409D02*
X0303377Y0478409D01*
X0304575Y0479608D02*
X0319550Y0479608D01*
X0319550Y0480806D02*
X0304750Y0480806D01*
X0304750Y0482005D02*
X0319815Y0482005D01*
X0321798Y0476012D02*
X0290000Y0476012D01*
X0290000Y0477211D02*
X0297822Y0477211D01*
X0296623Y0478409D02*
X0290000Y0478409D01*
X0290000Y0479608D02*
X0295425Y0479608D01*
X0295250Y0480806D02*
X0290000Y0480806D01*
X0290000Y0482005D02*
X0295250Y0482005D01*
X0295250Y0483203D02*
X0290000Y0483203D01*
X0290000Y0484402D02*
X0295934Y0484402D01*
X0297133Y0485601D02*
X0290000Y0485601D01*
X0290000Y0486799D02*
X0366119Y0486799D01*
X0367318Y0487998D02*
X0290000Y0487998D01*
X0290000Y0489196D02*
X0381593Y0489196D01*
X0381593Y0487998D02*
X0372682Y0487998D01*
X0372030Y0488650D02*
X0374900Y0485780D01*
X0374900Y0484250D01*
X0370500Y0484250D01*
X0369500Y0484250D01*
X0369500Y0483250D01*
X0370500Y0483250D01*
X0370500Y0484250D01*
X0370500Y0488650D01*
X0372030Y0488650D01*
X0370500Y0487998D02*
X0369500Y0487998D01*
X0369500Y0486799D02*
X0370500Y0486799D01*
X0370500Y0485601D02*
X0369500Y0485601D01*
X0369500Y0484402D02*
X0370500Y0484402D01*
X0370500Y0483250D02*
X0374900Y0483250D01*
X0374900Y0481720D01*
X0372030Y0478850D01*
X0370500Y0478850D01*
X0370500Y0483250D01*
X0370500Y0483203D02*
X0369500Y0483203D01*
X0369500Y0482005D02*
X0370500Y0482005D01*
X0370500Y0480806D02*
X0369500Y0480806D01*
X0369500Y0479608D02*
X0370500Y0479608D01*
X0372788Y0479608D02*
X0842212Y0479608D01*
X0842970Y0478850D02*
X0840100Y0481720D01*
X0840100Y0483250D01*
X0844500Y0483250D01*
X0844500Y0484250D01*
X0844500Y0488650D01*
X0842970Y0488650D01*
X0840100Y0485780D01*
X0840100Y0484250D01*
X0844500Y0484250D01*
X0845500Y0484250D01*
X0845500Y0488650D01*
X0847030Y0488650D01*
X0849900Y0485780D01*
X0849900Y0484250D01*
X0845500Y0484250D01*
X0845500Y0483250D01*
X0849900Y0483250D01*
X0849900Y0481720D01*
X0847030Y0478850D01*
X0845500Y0478850D01*
X0845500Y0483250D01*
X0844500Y0483250D01*
X0844500Y0478850D01*
X0842970Y0478850D01*
X0844500Y0479608D02*
X0845500Y0479608D01*
X0845500Y0480806D02*
X0844500Y0480806D01*
X0844500Y0482005D02*
X0845500Y0482005D01*
X0845500Y0483203D02*
X0844500Y0483203D01*
X0844500Y0484402D02*
X0845500Y0484402D01*
X0845500Y0485601D02*
X0844500Y0485601D01*
X0844500Y0486799D02*
X0845500Y0486799D01*
X0845500Y0487998D02*
X0844500Y0487998D01*
X0842318Y0487998D02*
X0388407Y0487998D01*
X0388407Y0489196D02*
X0858750Y0489196D01*
X0858750Y0487998D02*
X0847682Y0487998D01*
X0848881Y0486799D02*
X0858750Y0486799D01*
X0858750Y0485601D02*
X0849900Y0485601D01*
X0849900Y0484402D02*
X0858750Y0484402D01*
X0858750Y0483203D02*
X0849900Y0483203D01*
X0849900Y0482005D02*
X0858750Y0482005D01*
X0858750Y0480806D02*
X0848986Y0480806D01*
X0847788Y0479608D02*
X0858750Y0479608D01*
X0858750Y0464027D02*
X0304793Y0464027D01*
X0306404Y0462829D02*
X0858750Y0462829D01*
X0858750Y0461630D02*
X0307095Y0461630D01*
X0307407Y0460432D02*
X0858750Y0460432D01*
X0858750Y0456836D02*
X0848843Y0456836D01*
X0849900Y0455638D02*
X0858750Y0455638D01*
X0858750Y0454439D02*
X0849900Y0454439D01*
X0849900Y0453241D02*
X0858750Y0453241D01*
X0858750Y0452042D02*
X0849900Y0452042D01*
X0849023Y0450844D02*
X0858750Y0450844D01*
X0842832Y0434065D02*
X0707168Y0434065D01*
X0706825Y0434407D02*
X0703175Y0434407D01*
X0700593Y0431825D01*
X0700593Y0428175D01*
X0703175Y0425593D01*
X0706825Y0425593D01*
X0709407Y0428175D01*
X0709407Y0431825D01*
X0706825Y0434407D01*
X0708367Y0432866D02*
X0841633Y0432866D01*
X0840593Y0431668D02*
X0709407Y0431668D01*
X0709407Y0430469D02*
X0840593Y0430469D01*
X0840593Y0429270D02*
X0709407Y0429270D01*
X0709305Y0428072D02*
X0840695Y0428072D01*
X0841894Y0426873D02*
X0708106Y0426873D01*
X0706908Y0425675D02*
X0843092Y0425675D01*
X0858750Y0423278D02*
X0388945Y0423278D01*
X0388381Y0417285D02*
X0858750Y0417285D01*
X0858750Y0416087D02*
X0389007Y0416087D01*
X0389007Y0414888D02*
X0858750Y0414888D01*
X0858750Y0413690D02*
X0389007Y0413690D01*
X0388158Y0412491D02*
X0858750Y0412491D01*
X0858750Y0411293D02*
X0386960Y0411293D01*
X0383040Y0411293D02*
X0366960Y0411293D01*
X0368158Y0412491D02*
X0381842Y0412491D01*
X0380993Y0413690D02*
X0369007Y0413690D01*
X0369007Y0414888D02*
X0380993Y0414888D01*
X0380993Y0416087D02*
X0369007Y0416087D01*
X0368381Y0417285D02*
X0381619Y0417285D01*
X0382817Y0418484D02*
X0367183Y0418484D01*
X0367746Y0422079D02*
X0382254Y0422079D01*
X0381055Y0423278D02*
X0368945Y0423278D01*
X0369007Y0424476D02*
X0380993Y0424476D01*
X0380993Y0425675D02*
X0369007Y0425675D01*
X0368793Y0426873D02*
X0381207Y0426873D01*
X0382405Y0428072D02*
X0367595Y0428072D01*
X0366771Y0408896D02*
X0383229Y0408896D01*
X0382030Y0407697D02*
X0367970Y0407697D01*
X0369007Y0406499D02*
X0380993Y0406499D01*
X0380993Y0405300D02*
X0369007Y0405300D01*
X0369007Y0404102D02*
X0380993Y0404102D01*
X0381430Y0402903D02*
X0368570Y0402903D01*
X0367372Y0401705D02*
X0382628Y0401705D01*
X0382442Y0398109D02*
X0367558Y0398109D01*
X0368756Y0396911D02*
X0381244Y0396911D01*
X0380993Y0395712D02*
X0369007Y0395712D01*
X0369007Y0394514D02*
X0380993Y0394514D01*
X0381018Y0393315D02*
X0368982Y0393315D01*
X0367784Y0392117D02*
X0382216Y0392117D01*
X0382854Y0388521D02*
X0367146Y0388521D01*
X0368344Y0387323D02*
X0381656Y0387323D01*
X0380993Y0386124D02*
X0369007Y0386124D01*
X0369007Y0384926D02*
X0380993Y0384926D01*
X0380993Y0383727D02*
X0369007Y0383727D01*
X0368195Y0382529D02*
X0381805Y0382529D01*
X0383003Y0381330D02*
X0366997Y0381330D01*
X0337422Y0396911D02*
X0332578Y0396911D01*
X0333776Y0398109D02*
X0336224Y0398109D01*
X0335993Y0399308D02*
X0334007Y0399308D01*
X0334007Y0400506D02*
X0335993Y0400506D01*
X0336038Y0401705D02*
X0333962Y0401705D01*
X0332764Y0402903D02*
X0337236Y0402903D01*
X0327236Y0402903D02*
X0309136Y0402903D01*
X0307937Y0401705D02*
X0326038Y0401705D01*
X0302663Y0408896D02*
X0297337Y0408896D01*
X0298535Y0407697D02*
X0301465Y0407697D01*
X0300593Y0406499D02*
X0299407Y0406499D01*
X0299407Y0405300D02*
X0300593Y0405300D01*
X0300593Y0404102D02*
X0299407Y0404102D01*
X0299136Y0402903D02*
X0300864Y0402903D01*
X0302475Y0411293D02*
X0297525Y0411293D01*
X0298724Y0412491D02*
X0301276Y0412491D01*
X0300593Y0413690D02*
X0299407Y0413690D01*
X0299407Y0414888D02*
X0300593Y0414888D01*
X0300593Y0416087D02*
X0299407Y0416087D01*
X0298947Y0417285D02*
X0301053Y0417285D01*
X0302251Y0418484D02*
X0297749Y0418484D01*
X0297113Y0420881D02*
X0302887Y0420881D01*
X0301688Y0422079D02*
X0298312Y0422079D01*
X0299407Y0423278D02*
X0300593Y0423278D01*
X0300593Y0424476D02*
X0299407Y0424476D01*
X0299407Y0425675D02*
X0300593Y0425675D01*
X0300641Y0426873D02*
X0299359Y0426873D01*
X0298161Y0428072D02*
X0301839Y0428072D01*
X0303038Y0429270D02*
X0296962Y0429270D01*
X0307407Y0449645D02*
X0332188Y0449645D01*
X0330993Y0450844D02*
X0307407Y0450844D01*
X0306924Y0452042D02*
X0330993Y0452042D01*
X0330993Y0453241D02*
X0305992Y0453241D01*
X0332595Y0428072D02*
X0337405Y0428072D01*
X0336207Y0426873D02*
X0333793Y0426873D01*
X0334007Y0425675D02*
X0335993Y0425675D01*
X0335993Y0424476D02*
X0334007Y0424476D01*
X0333945Y0423278D02*
X0336055Y0423278D01*
X0337254Y0422079D02*
X0332746Y0422079D01*
X0373986Y0480806D02*
X0383031Y0480806D01*
X0383032Y0480805D02*
X0384309Y0480276D01*
X0385691Y0480276D01*
X0386968Y0480805D01*
X0387945Y0481782D01*
X0388474Y0483059D01*
X0388474Y0484441D01*
X0388407Y0484603D01*
X0388407Y0554147D01*
X0388474Y0554309D01*
X0388474Y0555691D01*
X0387945Y0556968D01*
X0386968Y0557945D01*
X0385691Y0558474D01*
X0384309Y0558474D01*
X0383032Y0557945D01*
X0382055Y0556968D01*
X0381526Y0555691D01*
X0381526Y0554309D01*
X0381593Y0554147D01*
X0381593Y0484603D01*
X0381526Y0484441D01*
X0381526Y0483059D01*
X0382055Y0481782D01*
X0383032Y0480805D01*
X0381963Y0482005D02*
X0374900Y0482005D01*
X0374900Y0483203D02*
X0381526Y0483203D01*
X0381526Y0484402D02*
X0374900Y0484402D01*
X0374900Y0485601D02*
X0381593Y0485601D01*
X0381593Y0486799D02*
X0373881Y0486799D01*
X0381593Y0490395D02*
X0290000Y0490395D01*
X0290000Y0491593D02*
X0298127Y0491593D01*
X0297419Y0491887D02*
X0299094Y0491193D01*
X0300906Y0491193D01*
X0302581Y0491887D01*
X0303863Y0493169D01*
X0304557Y0494844D01*
X0304557Y0496656D01*
X0303863Y0498331D01*
X0302581Y0499613D01*
X0300906Y0500307D01*
X0299094Y0500307D01*
X0297419Y0499613D01*
X0296137Y0498331D01*
X0295443Y0496656D01*
X0295443Y0494844D01*
X0296137Y0493169D01*
X0297419Y0491887D01*
X0296514Y0492792D02*
X0290000Y0492792D01*
X0290000Y0493990D02*
X0295796Y0493990D01*
X0295443Y0495189D02*
X0290000Y0495189D01*
X0290000Y0496387D02*
X0295443Y0496387D01*
X0295828Y0497586D02*
X0290000Y0497586D01*
X0290000Y0498784D02*
X0296589Y0498784D01*
X0298310Y0499983D02*
X0290000Y0499983D01*
X0290000Y0501181D02*
X0381593Y0501181D01*
X0381593Y0499983D02*
X0301690Y0499983D01*
X0303411Y0498784D02*
X0381593Y0498784D01*
X0381593Y0497586D02*
X0304172Y0497586D01*
X0304557Y0496387D02*
X0381593Y0496387D01*
X0381593Y0495189D02*
X0304557Y0495189D01*
X0304204Y0493990D02*
X0381593Y0493990D01*
X0381593Y0492792D02*
X0303486Y0492792D01*
X0301873Y0491593D02*
X0381593Y0491593D01*
X0388407Y0491593D02*
X0858750Y0491593D01*
X0858750Y0490395D02*
X0388407Y0490395D01*
X0388407Y0492792D02*
X0858750Y0492792D01*
X0858750Y0493990D02*
X0388407Y0493990D01*
X0388407Y0495189D02*
X0858750Y0495189D01*
X0858750Y0496387D02*
X0388407Y0496387D01*
X0388407Y0497586D02*
X0858750Y0497586D01*
X0858750Y0498784D02*
X0388407Y0498784D01*
X0388407Y0499983D02*
X0858750Y0499983D01*
X0858750Y0501181D02*
X0851681Y0501181D01*
X0851319Y0500819D02*
X0852706Y0502206D01*
X0853457Y0504019D01*
X0853457Y0505981D01*
X0852706Y0507794D01*
X0851319Y0509181D01*
X0849506Y0509932D01*
X0840494Y0509932D01*
X0838681Y0509181D01*
X0837294Y0507794D01*
X0836543Y0505981D01*
X0836543Y0504019D01*
X0837294Y0502206D01*
X0838681Y0500819D01*
X0840494Y0500068D01*
X0849506Y0500068D01*
X0851319Y0500819D01*
X0852778Y0502380D02*
X0858750Y0502380D01*
X0858750Y0503578D02*
X0853275Y0503578D01*
X0853457Y0504777D02*
X0858750Y0504777D01*
X0858750Y0505975D02*
X0853457Y0505975D01*
X0852963Y0507174D02*
X0858750Y0507174D01*
X0858750Y0508372D02*
X0852128Y0508372D01*
X0850378Y0509571D02*
X0858750Y0509571D01*
X0858750Y0510769D02*
X0388407Y0510769D01*
X0388407Y0509571D02*
X0559622Y0509571D01*
X0560494Y0509932D02*
X0558681Y0509181D01*
X0557294Y0507794D01*
X0556543Y0505981D01*
X0556543Y0504019D01*
X0557294Y0502206D01*
X0558681Y0500819D01*
X0560494Y0500068D01*
X0569506Y0500068D01*
X0571319Y0500819D01*
X0572706Y0502206D01*
X0573457Y0504019D01*
X0573457Y0505981D01*
X0572706Y0507794D01*
X0571319Y0509181D01*
X0569506Y0509932D01*
X0560494Y0509932D01*
X0557872Y0508372D02*
X0388407Y0508372D01*
X0388407Y0507174D02*
X0557037Y0507174D01*
X0556543Y0505975D02*
X0388407Y0505975D01*
X0388407Y0504777D02*
X0556543Y0504777D01*
X0556725Y0503578D02*
X0388407Y0503578D01*
X0388407Y0502380D02*
X0557222Y0502380D01*
X0558319Y0501181D02*
X0388407Y0501181D01*
X0381593Y0502380D02*
X0290000Y0502380D01*
X0290000Y0503578D02*
X0381593Y0503578D01*
X0381593Y0504777D02*
X0290000Y0504777D01*
X0290000Y0505975D02*
X0381593Y0505975D01*
X0381593Y0507174D02*
X0356591Y0507174D01*
X0357757Y0508340D02*
X0355410Y0505993D01*
X0352090Y0505993D01*
X0349743Y0508340D01*
X0349743Y0511660D01*
X0352090Y0514007D01*
X0355410Y0514007D01*
X0357757Y0511660D01*
X0357757Y0508340D01*
X0357757Y0508372D02*
X0381593Y0508372D01*
X0381593Y0509571D02*
X0357757Y0509571D01*
X0357757Y0510769D02*
X0381593Y0510769D01*
X0381593Y0511968D02*
X0357449Y0511968D01*
X0356251Y0513166D02*
X0381593Y0513166D01*
X0381593Y0514365D02*
X0323638Y0514365D01*
X0322439Y0515563D02*
X0381593Y0515563D01*
X0381593Y0516762D02*
X0348779Y0516762D01*
X0348620Y0516603D02*
X0349747Y0517730D01*
X0350357Y0519203D01*
X0350357Y0520797D01*
X0349747Y0522270D01*
X0348620Y0523397D01*
X0347147Y0524007D01*
X0340353Y0524007D01*
X0338880Y0523397D01*
X0337753Y0522270D01*
X0337143Y0520797D01*
X0337143Y0519203D01*
X0337753Y0517730D01*
X0338880Y0516603D01*
X0340353Y0515993D01*
X0347147Y0515993D01*
X0348620Y0516603D01*
X0349842Y0517960D02*
X0381593Y0517960D01*
X0381593Y0519159D02*
X0350339Y0519159D01*
X0350357Y0520357D02*
X0381593Y0520357D01*
X0381593Y0521556D02*
X0350043Y0521556D01*
X0349262Y0522754D02*
X0381593Y0522754D01*
X0381593Y0523953D02*
X0347278Y0523953D01*
X0340222Y0523953D02*
X0317278Y0523953D01*
X0319262Y0522754D02*
X0338238Y0522754D01*
X0337457Y0521556D02*
X0320043Y0521556D01*
X0320357Y0520357D02*
X0337143Y0520357D01*
X0337161Y0519159D02*
X0320339Y0519159D01*
X0320042Y0517960D02*
X0337658Y0517960D01*
X0338721Y0516762D02*
X0321241Y0516762D01*
X0317530Y0511968D02*
X0290000Y0511968D01*
X0290000Y0513166D02*
X0316331Y0513166D01*
X0315133Y0514365D02*
X0290000Y0514365D01*
X0290000Y0510769D02*
X0318728Y0510769D01*
X0319743Y0509571D02*
X0290000Y0509571D01*
X0290000Y0508372D02*
X0319743Y0508372D01*
X0320909Y0507174D02*
X0290000Y0507174D01*
X0305000Y0525000D02*
X0275000Y0525000D01*
X0275000Y0590000D01*
X0305000Y0590000D01*
X0305000Y0525000D01*
X0305000Y0525151D02*
X0275000Y0525151D01*
X0275000Y0526350D02*
X0305000Y0526350D01*
X0305000Y0527548D02*
X0275000Y0527548D01*
X0275000Y0528747D02*
X0305000Y0528747D01*
X0305000Y0529945D02*
X0275000Y0529945D01*
X0275000Y0531144D02*
X0305000Y0531144D01*
X0305000Y0532342D02*
X0275000Y0532342D01*
X0275000Y0533541D02*
X0305000Y0533541D01*
X0305000Y0534739D02*
X0275000Y0534739D01*
X0275000Y0535938D02*
X0285290Y0535938D01*
X0284504Y0536264D02*
X0286123Y0535593D01*
X0293877Y0535593D01*
X0295496Y0536264D01*
X0296736Y0537504D01*
X0297407Y0539123D01*
X0297407Y0540877D01*
X0296736Y0542496D01*
X0295496Y0543736D01*
X0293877Y0544407D01*
X0286123Y0544407D01*
X0284504Y0543736D01*
X0283264Y0542496D01*
X0282593Y0540877D01*
X0282593Y0539123D01*
X0283264Y0537504D01*
X0284504Y0536264D01*
X0283631Y0537137D02*
X0275000Y0537137D01*
X0275000Y0538335D02*
X0282919Y0538335D01*
X0282593Y0539534D02*
X0275000Y0539534D01*
X0275000Y0540732D02*
X0282593Y0540732D01*
X0283029Y0541931D02*
X0275000Y0541931D01*
X0275000Y0543129D02*
X0283897Y0543129D01*
X0285931Y0544328D02*
X0275000Y0544328D01*
X0275000Y0545526D02*
X0305000Y0545526D01*
X0305000Y0544328D02*
X0294069Y0544328D01*
X0296103Y0543129D02*
X0305000Y0543129D01*
X0305000Y0541931D02*
X0296971Y0541931D01*
X0297407Y0540732D02*
X0305000Y0540732D01*
X0305000Y0539534D02*
X0297407Y0539534D01*
X0297081Y0538335D02*
X0305000Y0538335D01*
X0305000Y0537137D02*
X0296369Y0537137D01*
X0294710Y0535938D02*
X0305000Y0535938D01*
X0315000Y0535938D02*
X0381593Y0535938D01*
X0381593Y0537137D02*
X0315000Y0537137D01*
X0315000Y0538335D02*
X0381593Y0538335D01*
X0381593Y0539534D02*
X0315000Y0539534D01*
X0315000Y0540732D02*
X0381593Y0540732D01*
X0381593Y0541931D02*
X0315000Y0541931D01*
X0315000Y0543129D02*
X0381593Y0543129D01*
X0381593Y0544328D02*
X0315000Y0544328D01*
X0315000Y0545526D02*
X0381593Y0545526D01*
X0381593Y0546725D02*
X0315000Y0546725D01*
X0315000Y0547923D02*
X0381593Y0547923D01*
X0381593Y0549122D02*
X0315000Y0549122D01*
X0315000Y0550320D02*
X0381593Y0550320D01*
X0381593Y0551519D02*
X0315000Y0551519D01*
X0315000Y0552717D02*
X0381593Y0552717D01*
X0381593Y0553916D02*
X0315000Y0553916D01*
X0315000Y0555114D02*
X0381526Y0555114D01*
X0381783Y0556313D02*
X0315000Y0556313D01*
X0315000Y0557511D02*
X0382598Y0557511D01*
X0387402Y0557511D02*
X0858750Y0557511D01*
X0858750Y0556313D02*
X0388217Y0556313D01*
X0388474Y0555114D02*
X0858750Y0555114D01*
X0858750Y0553916D02*
X0388407Y0553916D01*
X0388407Y0552717D02*
X0858750Y0552717D01*
X0858750Y0551519D02*
X0388407Y0551519D01*
X0388407Y0550320D02*
X0858750Y0550320D01*
X0858750Y0549122D02*
X0388407Y0549122D01*
X0388407Y0547923D02*
X0858750Y0547923D01*
X0858750Y0546725D02*
X0388407Y0546725D01*
X0388407Y0545526D02*
X0858750Y0545526D01*
X0858750Y0544328D02*
X0388407Y0544328D01*
X0388407Y0543129D02*
X0858750Y0543129D01*
X0858750Y0541931D02*
X0388407Y0541931D01*
X0388407Y0540732D02*
X0858750Y0540732D01*
X0858750Y0539534D02*
X0388407Y0539534D01*
X0388407Y0538335D02*
X0858750Y0538335D01*
X0858750Y0537137D02*
X0388407Y0537137D01*
X0388407Y0535938D02*
X0858750Y0535938D01*
X0858750Y0534739D02*
X0388407Y0534739D01*
X0388407Y0533541D02*
X0858750Y0533541D01*
X0858750Y0532342D02*
X0388407Y0532342D01*
X0388407Y0531144D02*
X0858750Y0531144D01*
X0858750Y0529945D02*
X0388407Y0529945D01*
X0388407Y0528747D02*
X0558247Y0528747D01*
X0558681Y0529181D02*
X0557294Y0527794D01*
X0556543Y0525981D01*
X0556543Y0524019D01*
X0557294Y0522206D01*
X0558681Y0520819D01*
X0560494Y0520068D01*
X0569506Y0520068D01*
X0571319Y0520819D01*
X0572706Y0522206D01*
X0573457Y0524019D01*
X0573457Y0525981D01*
X0572706Y0527794D01*
X0571319Y0529181D01*
X0569506Y0529932D01*
X0560494Y0529932D01*
X0558681Y0529181D01*
X0557192Y0527548D02*
X0388407Y0527548D01*
X0388407Y0526350D02*
X0556696Y0526350D01*
X0556543Y0525151D02*
X0388407Y0525151D01*
X0388407Y0523953D02*
X0556570Y0523953D01*
X0557067Y0522754D02*
X0388407Y0522754D01*
X0388407Y0521556D02*
X0557944Y0521556D01*
X0559795Y0520357D02*
X0388407Y0520357D01*
X0388407Y0519159D02*
X0858750Y0519159D01*
X0858750Y0520357D02*
X0850205Y0520357D01*
X0849506Y0520068D02*
X0851319Y0520819D01*
X0852706Y0522206D01*
X0853457Y0524019D01*
X0853457Y0525981D01*
X0852706Y0527794D01*
X0851319Y0529181D01*
X0849506Y0529932D01*
X0840494Y0529932D01*
X0838681Y0529181D01*
X0837294Y0527794D01*
X0836543Y0525981D01*
X0836543Y0524019D01*
X0837294Y0522206D01*
X0838681Y0520819D01*
X0840494Y0520068D01*
X0849506Y0520068D01*
X0852056Y0521556D02*
X0858750Y0521556D01*
X0858750Y0522754D02*
X0852933Y0522754D01*
X0853430Y0523953D02*
X0858750Y0523953D01*
X0858750Y0525151D02*
X0853457Y0525151D01*
X0853304Y0526350D02*
X0858750Y0526350D01*
X0858750Y0527548D02*
X0852808Y0527548D01*
X0851753Y0528747D02*
X0858750Y0528747D01*
X0858750Y0517960D02*
X0388407Y0517960D01*
X0388407Y0516762D02*
X0858750Y0516762D01*
X0858750Y0515563D02*
X0388407Y0515563D01*
X0388407Y0514365D02*
X0858750Y0514365D01*
X0858750Y0513166D02*
X0388407Y0513166D01*
X0388407Y0511968D02*
X0858750Y0511968D01*
X0839622Y0509571D02*
X0710378Y0509571D01*
X0709506Y0509932D02*
X0700494Y0509932D01*
X0698681Y0509181D01*
X0697294Y0507794D01*
X0696543Y0505981D01*
X0696543Y0504019D01*
X0697294Y0502206D01*
X0698681Y0500819D01*
X0700494Y0500068D01*
X0709506Y0500068D01*
X0711319Y0500819D01*
X0712706Y0502206D01*
X0713457Y0504019D01*
X0713457Y0505981D01*
X0712706Y0507794D01*
X0711319Y0509181D01*
X0709506Y0509932D01*
X0712128Y0508372D02*
X0837872Y0508372D01*
X0837037Y0507174D02*
X0712963Y0507174D01*
X0713457Y0505975D02*
X0836543Y0505975D01*
X0836543Y0504777D02*
X0713457Y0504777D01*
X0713275Y0503578D02*
X0836725Y0503578D01*
X0837222Y0502380D02*
X0712778Y0502380D01*
X0711681Y0501181D02*
X0838319Y0501181D01*
X0841119Y0486799D02*
X0388407Y0486799D01*
X0388407Y0485601D02*
X0840100Y0485601D01*
X0840100Y0484402D02*
X0388474Y0484402D01*
X0388474Y0483203D02*
X0840100Y0483203D01*
X0840100Y0482005D02*
X0388037Y0482005D01*
X0386969Y0480806D02*
X0841014Y0480806D01*
X0839795Y0520357D02*
X0710205Y0520357D01*
X0709506Y0520068D02*
X0711319Y0520819D01*
X0712706Y0522206D01*
X0713457Y0524019D01*
X0713457Y0525981D01*
X0712706Y0527794D01*
X0711319Y0529181D01*
X0709506Y0529932D01*
X0700494Y0529932D01*
X0698681Y0529181D01*
X0697294Y0527794D01*
X0696543Y0525981D01*
X0696543Y0524019D01*
X0697294Y0522206D01*
X0698681Y0520819D01*
X0700494Y0520068D01*
X0709506Y0520068D01*
X0712056Y0521556D02*
X0837944Y0521556D01*
X0837067Y0522754D02*
X0712933Y0522754D01*
X0713430Y0523953D02*
X0836570Y0523953D01*
X0836543Y0525151D02*
X0713457Y0525151D01*
X0713304Y0526350D02*
X0836696Y0526350D01*
X0837192Y0527548D02*
X0712808Y0527548D01*
X0711753Y0528747D02*
X0838247Y0528747D01*
X0840494Y0560068D02*
X0838681Y0560819D01*
X0837294Y0562206D01*
X0836543Y0564019D01*
X0836543Y0565981D01*
X0837294Y0567794D01*
X0838681Y0569181D01*
X0840494Y0569932D01*
X0849506Y0569932D01*
X0851319Y0569181D01*
X0852706Y0567794D01*
X0853457Y0565981D01*
X0853457Y0564019D01*
X0852706Y0562206D01*
X0851319Y0560819D01*
X0849506Y0560068D01*
X0840494Y0560068D01*
X0838393Y0561107D02*
X0711607Y0561107D01*
X0711319Y0560819D02*
X0712706Y0562206D01*
X0713457Y0564019D01*
X0713457Y0565981D01*
X0712706Y0567794D01*
X0711319Y0569181D01*
X0709506Y0569932D01*
X0700494Y0569932D01*
X0698681Y0569181D01*
X0697294Y0567794D01*
X0696543Y0565981D01*
X0696543Y0564019D01*
X0697294Y0562206D01*
X0698681Y0560819D01*
X0700494Y0560068D01*
X0709506Y0560068D01*
X0711319Y0560819D01*
X0712747Y0562305D02*
X0837253Y0562305D01*
X0836756Y0563504D02*
X0713244Y0563504D01*
X0713457Y0564702D02*
X0836543Y0564702D01*
X0836543Y0565901D02*
X0713457Y0565901D01*
X0712994Y0567099D02*
X0837006Y0567099D01*
X0837798Y0568298D02*
X0712202Y0568298D01*
X0710558Y0569496D02*
X0738878Y0569496D01*
X0738785Y0569658D02*
X0738995Y0569293D01*
X0739293Y0568995D01*
X0739658Y0568785D01*
X0740065Y0568676D01*
X0744400Y0568676D01*
X0744400Y0574400D01*
X0745600Y0574400D01*
X0745600Y0575600D01*
X0744400Y0575600D01*
X0744400Y0581324D01*
X0740065Y0581324D01*
X0739658Y0581215D01*
X0739293Y0581005D01*
X0738995Y0580707D01*
X0738785Y0580342D01*
X0738676Y0579935D01*
X0738676Y0575600D01*
X0744400Y0575600D01*
X0744400Y0574400D01*
X0738676Y0574400D01*
X0738676Y0570065D01*
X0738785Y0569658D01*
X0738676Y0570695D02*
X0671131Y0570695D01*
X0671131Y0569693D02*
X0671131Y0580307D01*
X0670307Y0581131D01*
X0659693Y0581131D01*
X0658869Y0580307D01*
X0658869Y0569693D01*
X0659693Y0568869D01*
X0670307Y0568869D01*
X0671131Y0569693D01*
X0670935Y0569496D02*
X0699442Y0569496D01*
X0697798Y0568298D02*
X0572202Y0568298D01*
X0572706Y0567794D02*
X0571319Y0569181D01*
X0569506Y0569932D01*
X0560494Y0569932D01*
X0558681Y0569181D01*
X0557294Y0567794D01*
X0556543Y0565981D01*
X0556543Y0564019D01*
X0557294Y0562206D01*
X0558681Y0560819D01*
X0560494Y0560068D01*
X0569506Y0560068D01*
X0571319Y0560819D01*
X0572706Y0562206D01*
X0573457Y0564019D01*
X0573457Y0565981D01*
X0572706Y0567794D01*
X0572994Y0567099D02*
X0697006Y0567099D01*
X0696543Y0565901D02*
X0573457Y0565901D01*
X0573457Y0564702D02*
X0696543Y0564702D01*
X0696756Y0563504D02*
X0573244Y0563504D01*
X0572747Y0562305D02*
X0697253Y0562305D01*
X0698393Y0561107D02*
X0571607Y0561107D01*
X0570558Y0569496D02*
X0598878Y0569496D01*
X0598785Y0569658D02*
X0598995Y0569293D01*
X0599293Y0568995D01*
X0599658Y0568785D01*
X0600065Y0568676D01*
X0604400Y0568676D01*
X0604400Y0574400D01*
X0605600Y0574400D01*
X0605600Y0575600D01*
X0604400Y0575600D01*
X0604400Y0581324D01*
X0600065Y0581324D01*
X0599658Y0581215D01*
X0599293Y0581005D01*
X0598995Y0580707D01*
X0598785Y0580342D01*
X0598676Y0579935D01*
X0598676Y0575600D01*
X0604400Y0575600D01*
X0604400Y0574400D01*
X0598676Y0574400D01*
X0598676Y0570065D01*
X0598785Y0569658D01*
X0598676Y0570695D02*
X0501131Y0570695D01*
X0501131Y0569693D02*
X0501131Y0580307D01*
X0500307Y0581131D01*
X0489693Y0581131D01*
X0488869Y0580307D01*
X0488869Y0569693D01*
X0489693Y0568869D01*
X0500307Y0568869D01*
X0501131Y0569693D01*
X0500935Y0569496D02*
X0559442Y0569496D01*
X0557798Y0568298D02*
X0363798Y0568298D01*
X0364181Y0568681D02*
X0364932Y0570494D01*
X0364932Y0579506D01*
X0364181Y0581319D01*
X0362794Y0582706D01*
X0360981Y0583457D01*
X0359019Y0583457D01*
X0357206Y0582706D01*
X0355819Y0581319D01*
X0355068Y0579506D01*
X0355068Y0570494D01*
X0355819Y0568681D01*
X0357206Y0567294D01*
X0359019Y0566543D01*
X0360981Y0566543D01*
X0362794Y0567294D01*
X0364181Y0568681D01*
X0364519Y0569496D02*
X0428878Y0569496D01*
X0428785Y0569658D02*
X0428995Y0569293D01*
X0429293Y0568995D01*
X0429658Y0568785D01*
X0430065Y0568676D01*
X0434400Y0568676D01*
X0434400Y0574400D01*
X0435600Y0574400D01*
X0435600Y0575600D01*
X0434400Y0575600D01*
X0434400Y0581324D01*
X0430065Y0581324D01*
X0429658Y0581215D01*
X0429293Y0581005D01*
X0428995Y0580707D01*
X0428785Y0580342D01*
X0428676Y0579935D01*
X0428676Y0575600D01*
X0434400Y0575600D01*
X0434400Y0574400D01*
X0428676Y0574400D01*
X0428676Y0570065D01*
X0428785Y0569658D01*
X0428676Y0570695D02*
X0364932Y0570695D01*
X0364932Y0571893D02*
X0428676Y0571893D01*
X0428676Y0573092D02*
X0364932Y0573092D01*
X0364932Y0574290D02*
X0428676Y0574290D01*
X0428676Y0576687D02*
X0364932Y0576687D01*
X0364932Y0575489D02*
X0434400Y0575489D01*
X0434400Y0576687D02*
X0435600Y0576687D01*
X0435600Y0575600D02*
X0435600Y0581324D01*
X0439935Y0581324D01*
X0440342Y0581215D01*
X0440707Y0581005D01*
X0441005Y0580707D01*
X0441215Y0580342D01*
X0441324Y0579935D01*
X0441324Y0575600D01*
X0435600Y0575600D01*
X0435600Y0575489D02*
X0458869Y0575489D01*
X0458869Y0576687D02*
X0441324Y0576687D01*
X0441324Y0577886D02*
X0458869Y0577886D01*
X0458869Y0579084D02*
X0441324Y0579084D01*
X0441231Y0580283D02*
X0458869Y0580283D01*
X0458869Y0580307D02*
X0458869Y0569693D01*
X0459693Y0568869D01*
X0470307Y0568869D01*
X0471131Y0569693D01*
X0471131Y0580307D01*
X0470307Y0581131D01*
X0459693Y0581131D01*
X0458869Y0580307D01*
X0458869Y0574290D02*
X0441324Y0574290D01*
X0441324Y0574400D02*
X0441324Y0570065D01*
X0441215Y0569658D01*
X0441005Y0569293D01*
X0440707Y0568995D01*
X0440342Y0568785D01*
X0439935Y0568676D01*
X0435600Y0568676D01*
X0435600Y0574400D01*
X0441324Y0574400D01*
X0441324Y0573092D02*
X0458869Y0573092D01*
X0458869Y0571893D02*
X0441324Y0571893D01*
X0441324Y0570695D02*
X0458869Y0570695D01*
X0459065Y0569496D02*
X0441122Y0569496D01*
X0445000Y0569496D02*
X0425000Y0569496D01*
X0425000Y0568298D02*
X0445000Y0568298D01*
X0445000Y0567099D02*
X0425000Y0567099D01*
X0425000Y0565901D02*
X0445000Y0565901D01*
X0445000Y0565000D02*
X0425000Y0565000D01*
X0425000Y0585000D01*
X0445000Y0585000D01*
X0445000Y0565000D01*
X0445000Y0570695D02*
X0425000Y0570695D01*
X0425000Y0571893D02*
X0445000Y0571893D01*
X0445000Y0573092D02*
X0425000Y0573092D01*
X0425000Y0574290D02*
X0445000Y0574290D01*
X0445000Y0575489D02*
X0425000Y0575489D01*
X0425000Y0576687D02*
X0445000Y0576687D01*
X0445000Y0577886D02*
X0425000Y0577886D01*
X0425000Y0579084D02*
X0445000Y0579084D01*
X0445000Y0580283D02*
X0425000Y0580283D01*
X0425000Y0581481D02*
X0445000Y0581481D01*
X0445000Y0582680D02*
X0425000Y0582680D01*
X0425000Y0583878D02*
X0445000Y0583878D01*
X0435600Y0580283D02*
X0434400Y0580283D01*
X0434400Y0579084D02*
X0435600Y0579084D01*
X0435600Y0577886D02*
X0434400Y0577886D01*
X0434400Y0574290D02*
X0435600Y0574290D01*
X0435600Y0573092D02*
X0434400Y0573092D01*
X0434400Y0571893D02*
X0435600Y0571893D01*
X0435600Y0570695D02*
X0434400Y0570695D01*
X0434400Y0569496D02*
X0435600Y0569496D01*
X0428676Y0577886D02*
X0364932Y0577886D01*
X0364932Y0579084D02*
X0428676Y0579084D01*
X0428769Y0580283D02*
X0364610Y0580283D01*
X0364019Y0581481D02*
X0558019Y0581481D01*
X0558681Y0580819D02*
X0560494Y0580068D01*
X0569506Y0580068D01*
X0571319Y0580819D01*
X0572706Y0582206D01*
X0573457Y0584019D01*
X0573457Y0585981D01*
X0572706Y0587794D01*
X0571319Y0589181D01*
X0569506Y0589932D01*
X0560494Y0589932D01*
X0558681Y0589181D01*
X0557294Y0587794D01*
X0556543Y0585981D01*
X0556543Y0584019D01*
X0557294Y0582206D01*
X0558681Y0580819D01*
X0559975Y0580283D02*
X0501131Y0580283D01*
X0501131Y0579084D02*
X0598676Y0579084D01*
X0598676Y0577886D02*
X0501131Y0577886D01*
X0501131Y0576687D02*
X0598676Y0576687D01*
X0598676Y0574290D02*
X0501131Y0574290D01*
X0501131Y0573092D02*
X0598676Y0573092D01*
X0598676Y0571893D02*
X0501131Y0571893D01*
X0501131Y0575489D02*
X0604400Y0575489D01*
X0604400Y0576687D02*
X0605600Y0576687D01*
X0605600Y0575600D02*
X0605600Y0581324D01*
X0609935Y0581324D01*
X0610342Y0581215D01*
X0610707Y0581005D01*
X0611005Y0580707D01*
X0611215Y0580342D01*
X0611324Y0579935D01*
X0611324Y0575600D01*
X0605600Y0575600D01*
X0605600Y0575489D02*
X0628869Y0575489D01*
X0628869Y0576687D02*
X0611324Y0576687D01*
X0611324Y0577886D02*
X0628869Y0577886D01*
X0628869Y0579084D02*
X0611324Y0579084D01*
X0611231Y0580283D02*
X0628869Y0580283D01*
X0628869Y0580307D02*
X0628869Y0569693D01*
X0629693Y0568869D01*
X0640307Y0568869D01*
X0641131Y0569693D01*
X0641131Y0580307D01*
X0640307Y0581131D01*
X0629693Y0581131D01*
X0628869Y0580307D01*
X0628869Y0574290D02*
X0611324Y0574290D01*
X0611324Y0574400D02*
X0611324Y0570065D01*
X0611215Y0569658D01*
X0611005Y0569293D01*
X0610707Y0568995D01*
X0610342Y0568785D01*
X0609935Y0568676D01*
X0605600Y0568676D01*
X0605600Y0574400D01*
X0611324Y0574400D01*
X0611324Y0573092D02*
X0628869Y0573092D01*
X0628869Y0571893D02*
X0611324Y0571893D01*
X0611324Y0570695D02*
X0628869Y0570695D01*
X0629065Y0569496D02*
X0611122Y0569496D01*
X0615000Y0569496D02*
X0595000Y0569496D01*
X0595000Y0568298D02*
X0615000Y0568298D01*
X0615000Y0567099D02*
X0595000Y0567099D01*
X0595000Y0565901D02*
X0615000Y0565901D01*
X0615000Y0565000D02*
X0595000Y0565000D01*
X0595000Y0585000D01*
X0615000Y0585000D01*
X0615000Y0565000D01*
X0615000Y0570695D02*
X0595000Y0570695D01*
X0595000Y0571893D02*
X0615000Y0571893D01*
X0615000Y0573092D02*
X0595000Y0573092D01*
X0595000Y0574290D02*
X0615000Y0574290D01*
X0615000Y0575489D02*
X0595000Y0575489D01*
X0595000Y0576687D02*
X0615000Y0576687D01*
X0615000Y0577886D02*
X0595000Y0577886D01*
X0595000Y0579084D02*
X0615000Y0579084D01*
X0615000Y0580283D02*
X0595000Y0580283D01*
X0595000Y0581481D02*
X0615000Y0581481D01*
X0615000Y0582680D02*
X0595000Y0582680D01*
X0595000Y0583878D02*
X0615000Y0583878D01*
X0605600Y0580283D02*
X0604400Y0580283D01*
X0604400Y0579084D02*
X0605600Y0579084D01*
X0605600Y0577886D02*
X0604400Y0577886D01*
X0604400Y0574290D02*
X0605600Y0574290D01*
X0605600Y0573092D02*
X0604400Y0573092D01*
X0604400Y0571893D02*
X0605600Y0571893D01*
X0605600Y0570695D02*
X0604400Y0570695D01*
X0604400Y0569496D02*
X0605600Y0569496D01*
X0598769Y0580283D02*
X0570025Y0580283D01*
X0571981Y0581481D02*
X0698019Y0581481D01*
X0698681Y0580819D02*
X0700494Y0580068D01*
X0709506Y0580068D01*
X0711319Y0580819D01*
X0712706Y0582206D01*
X0713457Y0584019D01*
X0713457Y0585981D01*
X0712706Y0587794D01*
X0711319Y0589181D01*
X0709506Y0589932D01*
X0700494Y0589932D01*
X0698681Y0589181D01*
X0697294Y0587794D01*
X0696543Y0585981D01*
X0696543Y0584019D01*
X0697294Y0582206D01*
X0698681Y0580819D01*
X0699975Y0580283D02*
X0671131Y0580283D01*
X0671131Y0579084D02*
X0738676Y0579084D01*
X0738676Y0577886D02*
X0671131Y0577886D01*
X0671131Y0576687D02*
X0738676Y0576687D01*
X0738676Y0574290D02*
X0671131Y0574290D01*
X0671131Y0573092D02*
X0738676Y0573092D01*
X0738676Y0571893D02*
X0671131Y0571893D01*
X0671131Y0575489D02*
X0744400Y0575489D01*
X0744400Y0576687D02*
X0745600Y0576687D01*
X0745600Y0575600D02*
X0745600Y0581324D01*
X0749935Y0581324D01*
X0750342Y0581215D01*
X0750707Y0581005D01*
X0751005Y0580707D01*
X0751215Y0580342D01*
X0751324Y0579935D01*
X0751324Y0575600D01*
X0745600Y0575600D01*
X0745600Y0575489D02*
X0768869Y0575489D01*
X0768869Y0576687D02*
X0751324Y0576687D01*
X0751324Y0577886D02*
X0768869Y0577886D01*
X0768869Y0579084D02*
X0751324Y0579084D01*
X0751231Y0580283D02*
X0768869Y0580283D01*
X0768869Y0580307D02*
X0768869Y0569693D01*
X0769693Y0568869D01*
X0780307Y0568869D01*
X0781131Y0569693D01*
X0781131Y0580307D01*
X0780307Y0581131D01*
X0769693Y0581131D01*
X0768869Y0580307D01*
X0768869Y0574290D02*
X0751324Y0574290D01*
X0751324Y0574400D02*
X0751324Y0570065D01*
X0751215Y0569658D01*
X0751005Y0569293D01*
X0750707Y0568995D01*
X0750342Y0568785D01*
X0749935Y0568676D01*
X0745600Y0568676D01*
X0745600Y0574400D01*
X0751324Y0574400D01*
X0751324Y0573092D02*
X0768869Y0573092D01*
X0768869Y0571893D02*
X0751324Y0571893D01*
X0751324Y0570695D02*
X0768869Y0570695D01*
X0769065Y0569496D02*
X0751122Y0569496D01*
X0755000Y0569496D02*
X0735000Y0569496D01*
X0735000Y0568298D02*
X0755000Y0568298D01*
X0755000Y0567099D02*
X0735000Y0567099D01*
X0735000Y0565901D02*
X0755000Y0565901D01*
X0755000Y0565000D02*
X0735000Y0565000D01*
X0735000Y0585000D01*
X0755000Y0585000D01*
X0755000Y0565000D01*
X0755000Y0570695D02*
X0735000Y0570695D01*
X0735000Y0571893D02*
X0755000Y0571893D01*
X0755000Y0573092D02*
X0735000Y0573092D01*
X0735000Y0574290D02*
X0755000Y0574290D01*
X0755000Y0575489D02*
X0735000Y0575489D01*
X0735000Y0576687D02*
X0755000Y0576687D01*
X0755000Y0577886D02*
X0735000Y0577886D01*
X0735000Y0579084D02*
X0755000Y0579084D01*
X0755000Y0580283D02*
X0735000Y0580283D01*
X0735000Y0581481D02*
X0755000Y0581481D01*
X0755000Y0582680D02*
X0735000Y0582680D01*
X0735000Y0583878D02*
X0755000Y0583878D01*
X0745600Y0580283D02*
X0744400Y0580283D01*
X0744400Y0579084D02*
X0745600Y0579084D01*
X0745600Y0577886D02*
X0744400Y0577886D01*
X0744400Y0574290D02*
X0745600Y0574290D01*
X0745600Y0573092D02*
X0744400Y0573092D01*
X0744400Y0571893D02*
X0745600Y0571893D01*
X0745600Y0570695D02*
X0744400Y0570695D01*
X0744400Y0569496D02*
X0745600Y0569496D01*
X0738769Y0580283D02*
X0710025Y0580283D01*
X0711981Y0581481D02*
X0838019Y0581481D01*
X0838681Y0580819D02*
X0840494Y0580068D01*
X0849506Y0580068D01*
X0851319Y0580819D01*
X0852706Y0582206D01*
X0853457Y0584019D01*
X0853457Y0585981D01*
X0852706Y0587794D01*
X0851319Y0589181D01*
X0849506Y0589932D01*
X0840494Y0589932D01*
X0838681Y0589181D01*
X0837294Y0587794D01*
X0836543Y0585981D01*
X0836543Y0584019D01*
X0837294Y0582206D01*
X0838681Y0580819D01*
X0839975Y0580283D02*
X0811131Y0580283D01*
X0811131Y0580307D02*
X0810307Y0581131D01*
X0799693Y0581131D01*
X0798869Y0580307D01*
X0798869Y0569693D01*
X0799693Y0568869D01*
X0810307Y0568869D01*
X0811131Y0569693D01*
X0811131Y0580307D01*
X0811131Y0579084D02*
X0858750Y0579084D01*
X0858750Y0577886D02*
X0811131Y0577886D01*
X0811131Y0576687D02*
X0858750Y0576687D01*
X0858750Y0575489D02*
X0811131Y0575489D01*
X0811131Y0574290D02*
X0858750Y0574290D01*
X0858750Y0573092D02*
X0811131Y0573092D01*
X0811131Y0571893D02*
X0858750Y0571893D01*
X0858750Y0570695D02*
X0811131Y0570695D01*
X0810935Y0569496D02*
X0839442Y0569496D01*
X0850558Y0569496D02*
X0858750Y0569496D01*
X0858750Y0568298D02*
X0852202Y0568298D01*
X0852994Y0567099D02*
X0858750Y0567099D01*
X0858750Y0565901D02*
X0853457Y0565901D01*
X0853457Y0564702D02*
X0858750Y0564702D01*
X0858750Y0563504D02*
X0853244Y0563504D01*
X0852747Y0562305D02*
X0858750Y0562305D01*
X0858750Y0561107D02*
X0851607Y0561107D01*
X0858750Y0559908D02*
X0315000Y0559908D01*
X0315000Y0558710D02*
X0858750Y0558710D01*
X0858750Y0580283D02*
X0850025Y0580283D01*
X0851981Y0581481D02*
X0858750Y0581481D01*
X0858750Y0582680D02*
X0852902Y0582680D01*
X0853399Y0583878D02*
X0858750Y0583878D01*
X0858750Y0585077D02*
X0853457Y0585077D01*
X0853335Y0586275D02*
X0858750Y0586275D01*
X0858750Y0587474D02*
X0852839Y0587474D01*
X0851828Y0588672D02*
X0858750Y0588672D01*
X0858750Y0589871D02*
X0849654Y0589871D01*
X0858750Y0591070D02*
X0315000Y0591070D01*
X0315000Y0592268D02*
X0858750Y0592268D01*
X0858750Y0593467D02*
X0315000Y0593467D01*
X0315000Y0594665D02*
X0858750Y0594665D01*
X0858750Y0595864D02*
X0315000Y0595864D01*
X0315000Y0597062D02*
X0321093Y0597062D01*
X0321093Y0596917D02*
X0321917Y0596093D01*
X0338083Y0596093D01*
X0338907Y0596917D01*
X0338907Y0613083D01*
X0338083Y0613907D01*
X0321917Y0613907D01*
X0321093Y0613083D01*
X0321093Y0596917D01*
X0321093Y0598261D02*
X0315000Y0598261D01*
X0315000Y0599459D02*
X0321093Y0599459D01*
X0321093Y0600658D02*
X0315000Y0600658D01*
X0315000Y0601856D02*
X0321093Y0601856D01*
X0321093Y0603055D02*
X0315000Y0603055D01*
X0315000Y0604253D02*
X0321093Y0604253D01*
X0321093Y0605452D02*
X0315000Y0605452D01*
X0315000Y0606650D02*
X0321093Y0606650D01*
X0321093Y0607849D02*
X0315000Y0607849D01*
X0315000Y0609047D02*
X0321093Y0609047D01*
X0321093Y0610246D02*
X0315000Y0610246D01*
X0315000Y0611444D02*
X0321093Y0611444D01*
X0321093Y0612643D02*
X0315000Y0612643D01*
X0315000Y0613841D02*
X0321851Y0613841D01*
X0315000Y0615040D02*
X0588302Y0615040D01*
X0587964Y0614702D02*
X0587964Y0614702D01*
X0590298Y0617036D01*
X0590298Y0617036D01*
X0593349Y0618300D01*
X0596651Y0618300D01*
X0599702Y0617036D01*
X0599702Y0617036D01*
X0602036Y0614702D01*
X0602036Y0614702D01*
X0603300Y0611651D01*
X0603300Y0608349D01*
X0602036Y0605298D01*
X0602036Y0605298D01*
X0599702Y0602964D01*
X0599702Y0602964D01*
X0596651Y0601700D01*
X0596651Y0601700D01*
X0595414Y0601700D01*
X0593349Y0601700D01*
X0590298Y0602964D01*
X0590298Y0602964D01*
X0587964Y0605298D01*
X0587964Y0605298D01*
X0586700Y0608349D01*
X0586700Y0611651D01*
X0587964Y0614702D01*
X0587607Y0613841D02*
X0363211Y0613841D01*
X0362826Y0613944D02*
X0361647Y0614100D01*
X0361647Y0605600D01*
X0370146Y0605600D01*
X0369991Y0606779D01*
X0369682Y0607931D01*
X0369226Y0609033D01*
X0368629Y0610067D01*
X0367903Y0611013D01*
X0367060Y0611856D01*
X0366113Y0612583D01*
X0365080Y0613179D01*
X0363978Y0613636D01*
X0362826Y0613944D01*
X0361647Y0613841D02*
X0360447Y0613841D01*
X0360447Y0614100D02*
X0359268Y0613944D01*
X0358115Y0613636D01*
X0357013Y0613179D01*
X0355980Y0612583D01*
X0355034Y0611856D01*
X0354190Y0611013D01*
X0353464Y0610067D01*
X0352868Y0609033D01*
X0352411Y0607931D01*
X0352103Y0606779D01*
X0351947Y0605600D01*
X0360447Y0605600D01*
X0360447Y0614100D01*
X0360447Y0612643D02*
X0361647Y0612643D01*
X0361647Y0611444D02*
X0360447Y0611444D01*
X0360447Y0610246D02*
X0361647Y0610246D01*
X0361647Y0609047D02*
X0360447Y0609047D01*
X0360447Y0607849D02*
X0361647Y0607849D01*
X0361647Y0606650D02*
X0360447Y0606650D01*
X0360447Y0605600D02*
X0361647Y0605600D01*
X0361647Y0604400D01*
X0370146Y0604400D01*
X0369991Y0603221D01*
X0369682Y0602069D01*
X0369226Y0600967D01*
X0368629Y0599933D01*
X0367903Y0598987D01*
X0367060Y0598144D01*
X0366113Y0597417D01*
X0365080Y0596821D01*
X0363978Y0596364D01*
X0362826Y0596056D01*
X0361647Y0595900D01*
X0361647Y0604400D01*
X0360447Y0604400D01*
X0360447Y0595900D01*
X0359268Y0596056D01*
X0358115Y0596364D01*
X0357013Y0596821D01*
X0355980Y0597417D01*
X0355034Y0598144D01*
X0354190Y0598987D01*
X0353464Y0599933D01*
X0352868Y0600967D01*
X0352411Y0602069D01*
X0352103Y0603221D01*
X0351947Y0604400D01*
X0360447Y0604400D01*
X0360447Y0605600D01*
X0360447Y0605452D02*
X0338907Y0605452D01*
X0338907Y0606650D02*
X0352086Y0606650D01*
X0352389Y0607849D02*
X0338907Y0607849D01*
X0338907Y0609047D02*
X0352876Y0609047D01*
X0353602Y0610246D02*
X0338907Y0610246D01*
X0338907Y0611444D02*
X0354622Y0611444D01*
X0356084Y0612643D02*
X0338907Y0612643D01*
X0338149Y0613841D02*
X0358883Y0613841D01*
X0366009Y0612643D02*
X0587111Y0612643D01*
X0586700Y0611444D02*
X0367472Y0611444D01*
X0368492Y0610246D02*
X0586700Y0610246D01*
X0586700Y0609047D02*
X0369218Y0609047D01*
X0369705Y0607849D02*
X0586907Y0607849D01*
X0587404Y0606650D02*
X0370008Y0606650D01*
X0370127Y0604253D02*
X0589009Y0604253D01*
X0587900Y0605452D02*
X0361647Y0605452D01*
X0361647Y0604253D02*
X0360447Y0604253D01*
X0360447Y0603055D02*
X0361647Y0603055D01*
X0361647Y0601856D02*
X0360447Y0601856D01*
X0360447Y0600658D02*
X0361647Y0600658D01*
X0361647Y0599459D02*
X0360447Y0599459D01*
X0360447Y0598261D02*
X0361647Y0598261D01*
X0361647Y0597062D02*
X0360447Y0597062D01*
X0356596Y0597062D02*
X0338907Y0597062D01*
X0338907Y0598261D02*
X0354917Y0598261D01*
X0353828Y0599459D02*
X0338907Y0599459D01*
X0338907Y0600658D02*
X0353046Y0600658D01*
X0352499Y0601856D02*
X0338907Y0601856D01*
X0338907Y0603055D02*
X0352147Y0603055D01*
X0351967Y0604253D02*
X0338907Y0604253D01*
X0350000Y0604253D02*
X0375000Y0604253D01*
X0375000Y0603055D02*
X0350000Y0603055D01*
X0350000Y0601856D02*
X0375000Y0601856D01*
X0375000Y0600658D02*
X0350000Y0600658D01*
X0350000Y0599459D02*
X0375000Y0599459D01*
X0375000Y0598261D02*
X0350000Y0598261D01*
X0350000Y0597062D02*
X0375000Y0597062D01*
X0375000Y0595864D02*
X0350000Y0595864D01*
X0350000Y0594665D02*
X0375000Y0594665D01*
X0375000Y0593467D02*
X0350000Y0593467D01*
X0350000Y0592268D02*
X0375000Y0592268D01*
X0375000Y0591070D02*
X0350000Y0591070D01*
X0350000Y0590000D02*
X0350000Y0615000D01*
X0375000Y0615000D01*
X0375000Y0590000D01*
X0350000Y0590000D01*
X0342794Y0582706D02*
X0340981Y0583457D01*
X0339019Y0583457D01*
X0337206Y0582706D01*
X0335819Y0581319D01*
X0335068Y0579506D01*
X0335068Y0570494D01*
X0335819Y0568681D01*
X0337206Y0567294D01*
X0339019Y0566543D01*
X0340981Y0566543D01*
X0342794Y0567294D01*
X0344181Y0568681D01*
X0344932Y0570494D01*
X0344932Y0579506D01*
X0344181Y0581319D01*
X0342794Y0582706D01*
X0342820Y0582680D02*
X0357180Y0582680D01*
X0355981Y0581481D02*
X0344019Y0581481D01*
X0344610Y0580283D02*
X0355390Y0580283D01*
X0355068Y0579084D02*
X0344932Y0579084D01*
X0344932Y0577886D02*
X0355068Y0577886D01*
X0355068Y0576687D02*
X0344932Y0576687D01*
X0344932Y0575489D02*
X0355068Y0575489D01*
X0355068Y0574290D02*
X0344932Y0574290D01*
X0344932Y0573092D02*
X0355068Y0573092D01*
X0355068Y0571893D02*
X0344932Y0571893D01*
X0344932Y0570695D02*
X0355068Y0570695D01*
X0355481Y0569496D02*
X0344519Y0569496D01*
X0343798Y0568298D02*
X0356202Y0568298D01*
X0357676Y0567099D02*
X0342324Y0567099D01*
X0337676Y0567099D02*
X0315000Y0567099D01*
X0315000Y0565901D02*
X0556543Y0565901D01*
X0556543Y0564702D02*
X0315000Y0564702D01*
X0315000Y0563504D02*
X0556756Y0563504D01*
X0557253Y0562305D02*
X0315000Y0562305D01*
X0315000Y0561107D02*
X0558393Y0561107D01*
X0557006Y0567099D02*
X0362324Y0567099D01*
X0362820Y0582680D02*
X0557098Y0582680D01*
X0556601Y0583878D02*
X0315000Y0583878D01*
X0315000Y0582680D02*
X0337180Y0582680D01*
X0335981Y0581481D02*
X0315000Y0581481D01*
X0315000Y0580283D02*
X0335390Y0580283D01*
X0335068Y0579084D02*
X0315000Y0579084D01*
X0315000Y0577886D02*
X0335068Y0577886D01*
X0335068Y0576687D02*
X0315000Y0576687D01*
X0315000Y0575489D02*
X0335068Y0575489D01*
X0335068Y0574290D02*
X0315000Y0574290D01*
X0315000Y0573092D02*
X0335068Y0573092D01*
X0335068Y0571893D02*
X0315000Y0571893D01*
X0315000Y0570695D02*
X0335068Y0570695D01*
X0335481Y0569496D02*
X0315000Y0569496D01*
X0315000Y0568298D02*
X0336202Y0568298D01*
X0315000Y0585077D02*
X0556543Y0585077D01*
X0556665Y0586275D02*
X0315000Y0586275D01*
X0315000Y0587474D02*
X0557161Y0587474D01*
X0558172Y0588672D02*
X0315000Y0588672D01*
X0315000Y0589871D02*
X0560346Y0589871D01*
X0569654Y0589871D02*
X0700346Y0589871D01*
X0698172Y0588672D02*
X0571828Y0588672D01*
X0572839Y0587474D02*
X0697161Y0587474D01*
X0696665Y0586275D02*
X0573335Y0586275D01*
X0573457Y0585077D02*
X0696543Y0585077D01*
X0696601Y0583878D02*
X0573399Y0583878D01*
X0572902Y0582680D02*
X0697098Y0582680D01*
X0709654Y0589871D02*
X0840346Y0589871D01*
X0838172Y0588672D02*
X0711828Y0588672D01*
X0712839Y0587474D02*
X0837161Y0587474D01*
X0836665Y0586275D02*
X0713335Y0586275D01*
X0713457Y0585077D02*
X0836543Y0585077D01*
X0836601Y0583878D02*
X0713399Y0583878D01*
X0712902Y0582680D02*
X0837098Y0582680D01*
X0858750Y0597062D02*
X0365498Y0597062D01*
X0367177Y0598261D02*
X0858750Y0598261D01*
X0858750Y0599459D02*
X0368265Y0599459D01*
X0369048Y0600658D02*
X0858750Y0600658D01*
X0858750Y0601856D02*
X0737028Y0601856D01*
X0736651Y0601700D02*
X0739702Y0602964D01*
X0742036Y0605298D01*
X0742036Y0605298D01*
X0743300Y0608349D01*
X0743300Y0611651D01*
X0742036Y0614702D01*
X0739702Y0617036D01*
X0736651Y0618300D01*
X0733349Y0618300D01*
X0730298Y0617036D01*
X0727964Y0614702D01*
X0727964Y0614702D01*
X0726700Y0611651D01*
X0726700Y0608349D01*
X0727964Y0605298D01*
X0730298Y0602964D01*
X0733349Y0601700D01*
X0734586Y0601700D01*
X0736651Y0601700D01*
X0739702Y0602964D02*
X0739702Y0602964D01*
X0739793Y0603055D02*
X0858750Y0603055D01*
X0858750Y0604253D02*
X0740991Y0604253D01*
X0742100Y0605452D02*
X0858750Y0605452D01*
X0858750Y0606650D02*
X0742596Y0606650D01*
X0743093Y0607849D02*
X0858750Y0607849D01*
X0858750Y0609047D02*
X0743300Y0609047D01*
X0743300Y0610246D02*
X0858750Y0610246D01*
X0858750Y0611444D02*
X0743300Y0611444D01*
X0742889Y0612643D02*
X0858750Y0612643D01*
X0858750Y0613841D02*
X0742393Y0613841D01*
X0742036Y0614702D02*
X0742036Y0614702D01*
X0741698Y0615040D02*
X0858750Y0615040D01*
X0858750Y0616238D02*
X0740500Y0616238D01*
X0739702Y0617036D02*
X0739702Y0617036D01*
X0738735Y0617437D02*
X0858750Y0617437D01*
X0858750Y0618635D02*
X0315000Y0618635D01*
X0315000Y0617437D02*
X0591265Y0617437D01*
X0589500Y0616238D02*
X0315000Y0616238D01*
X0315000Y0619834D02*
X0858750Y0619834D01*
X0858750Y0621032D02*
X0315000Y0621032D01*
X0315000Y0622231D02*
X0858750Y0622231D01*
X0858750Y0623429D02*
X0315000Y0623429D01*
X0315000Y0624628D02*
X0858750Y0624628D01*
X0858750Y0625826D02*
X0315000Y0625826D01*
X0315000Y0627025D02*
X0858750Y0627025D01*
X0858750Y0628223D02*
X0315000Y0628223D01*
X0350000Y0613841D02*
X0375000Y0613841D01*
X0375000Y0612643D02*
X0350000Y0612643D01*
X0350000Y0611444D02*
X0375000Y0611444D01*
X0375000Y0610246D02*
X0350000Y0610246D01*
X0350000Y0609047D02*
X0375000Y0609047D01*
X0375000Y0607849D02*
X0350000Y0607849D01*
X0350000Y0606650D02*
X0375000Y0606650D01*
X0375000Y0605452D02*
X0350000Y0605452D01*
X0369594Y0601856D02*
X0592972Y0601856D01*
X0590207Y0603055D02*
X0369947Y0603055D01*
X0305000Y0589871D02*
X0275000Y0589871D01*
X0275000Y0588672D02*
X0305000Y0588672D01*
X0305000Y0587474D02*
X0275000Y0587474D01*
X0275000Y0586275D02*
X0305000Y0586275D01*
X0305000Y0585077D02*
X0275000Y0585077D01*
X0275000Y0583878D02*
X0305000Y0583878D01*
X0305000Y0582680D02*
X0275000Y0582680D01*
X0275000Y0581481D02*
X0305000Y0581481D01*
X0305000Y0580283D02*
X0275000Y0580283D01*
X0275000Y0579084D02*
X0305000Y0579084D01*
X0305000Y0577886D02*
X0275000Y0577886D01*
X0275000Y0576687D02*
X0305000Y0576687D01*
X0305000Y0575489D02*
X0275000Y0575489D01*
X0275000Y0574290D02*
X0305000Y0574290D01*
X0305000Y0573092D02*
X0275000Y0573092D01*
X0275000Y0571893D02*
X0305000Y0571893D01*
X0305000Y0570695D02*
X0275000Y0570695D01*
X0275000Y0569496D02*
X0305000Y0569496D01*
X0305000Y0568298D02*
X0275000Y0568298D01*
X0275000Y0567099D02*
X0305000Y0567099D01*
X0305000Y0565901D02*
X0275000Y0565901D01*
X0275000Y0564702D02*
X0305000Y0564702D01*
X0305000Y0563504D02*
X0275000Y0563504D01*
X0275000Y0562305D02*
X0305000Y0562305D01*
X0305000Y0561107D02*
X0275000Y0561107D01*
X0275000Y0559908D02*
X0305000Y0559908D01*
X0305000Y0558710D02*
X0275000Y0558710D01*
X0275000Y0557511D02*
X0305000Y0557511D01*
X0305000Y0556313D02*
X0275000Y0556313D01*
X0275000Y0555114D02*
X0305000Y0555114D01*
X0305000Y0553916D02*
X0275000Y0553916D01*
X0275000Y0552717D02*
X0305000Y0552717D01*
X0305000Y0551519D02*
X0275000Y0551519D01*
X0275000Y0550320D02*
X0305000Y0550320D01*
X0305000Y0549122D02*
X0275000Y0549122D01*
X0275000Y0547923D02*
X0305000Y0547923D01*
X0305000Y0546725D02*
X0275000Y0546725D01*
X0315000Y0534739D02*
X0381593Y0534739D01*
X0381593Y0533541D02*
X0315000Y0533541D01*
X0315000Y0532342D02*
X0381593Y0532342D01*
X0381593Y0531144D02*
X0315000Y0531144D01*
X0315000Y0529945D02*
X0381593Y0529945D01*
X0381593Y0528747D02*
X0315000Y0528747D01*
X0315000Y0527548D02*
X0381593Y0527548D01*
X0381593Y0526350D02*
X0315000Y0526350D01*
X0315000Y0525151D02*
X0381593Y0525151D01*
X0351249Y0513166D02*
X0346251Y0513166D01*
X0345410Y0514007D02*
X0342090Y0514007D01*
X0339743Y0511660D01*
X0339743Y0508340D01*
X0342090Y0505993D01*
X0345410Y0505993D01*
X0347757Y0508340D01*
X0347757Y0511660D01*
X0345410Y0514007D01*
X0347449Y0511968D02*
X0350051Y0511968D01*
X0349743Y0510769D02*
X0347757Y0510769D01*
X0347757Y0509571D02*
X0349743Y0509571D01*
X0349743Y0508372D02*
X0347757Y0508372D01*
X0346591Y0507174D02*
X0350909Y0507174D01*
X0340909Y0507174D02*
X0336591Y0507174D01*
X0337757Y0508340D02*
X0335410Y0505993D01*
X0332090Y0505993D01*
X0329743Y0508340D01*
X0329743Y0511660D01*
X0332090Y0514007D01*
X0335410Y0514007D01*
X0337757Y0511660D01*
X0337757Y0508340D01*
X0337757Y0508372D02*
X0339743Y0508372D01*
X0339743Y0509571D02*
X0337757Y0509571D01*
X0337757Y0510769D02*
X0339743Y0510769D01*
X0340051Y0511968D02*
X0337449Y0511968D01*
X0336251Y0513166D02*
X0341249Y0513166D01*
X0331249Y0513166D02*
X0326251Y0513166D01*
X0327449Y0511968D02*
X0330051Y0511968D01*
X0329743Y0510769D02*
X0327757Y0510769D01*
X0327757Y0509571D02*
X0329743Y0509571D01*
X0329743Y0508372D02*
X0327757Y0508372D01*
X0326591Y0507174D02*
X0330909Y0507174D01*
X0470935Y0569496D02*
X0489065Y0569496D01*
X0488869Y0570695D02*
X0471131Y0570695D01*
X0471131Y0571893D02*
X0488869Y0571893D01*
X0488869Y0573092D02*
X0471131Y0573092D01*
X0471131Y0574290D02*
X0488869Y0574290D01*
X0488869Y0575489D02*
X0471131Y0575489D01*
X0471131Y0576687D02*
X0488869Y0576687D01*
X0488869Y0577886D02*
X0471131Y0577886D01*
X0471131Y0579084D02*
X0488869Y0579084D01*
X0488869Y0580283D02*
X0471131Y0580283D01*
X0571753Y0528747D02*
X0698247Y0528747D01*
X0697192Y0527548D02*
X0572808Y0527548D01*
X0573304Y0526350D02*
X0696696Y0526350D01*
X0696543Y0525151D02*
X0573457Y0525151D01*
X0573430Y0523953D02*
X0696570Y0523953D01*
X0697067Y0522754D02*
X0572933Y0522754D01*
X0572056Y0521556D02*
X0697944Y0521556D01*
X0699795Y0520357D02*
X0570205Y0520357D01*
X0570378Y0509571D02*
X0699622Y0509571D01*
X0697872Y0508372D02*
X0572128Y0508372D01*
X0572963Y0507174D02*
X0697037Y0507174D01*
X0696543Y0505975D02*
X0573457Y0505975D01*
X0573457Y0504777D02*
X0696543Y0504777D01*
X0696725Y0503578D02*
X0573275Y0503578D01*
X0572778Y0502380D02*
X0697222Y0502380D01*
X0698319Y0501181D02*
X0571681Y0501181D01*
X0567168Y0434065D02*
X0702832Y0434065D01*
X0701633Y0432866D02*
X0568367Y0432866D01*
X0569407Y0431668D02*
X0700593Y0431668D01*
X0700593Y0430469D02*
X0569407Y0430469D01*
X0569407Y0429270D02*
X0700593Y0429270D01*
X0700695Y0428072D02*
X0569305Y0428072D01*
X0568106Y0426873D02*
X0701894Y0426873D01*
X0703092Y0425675D02*
X0566908Y0425675D01*
X0604400Y0382529D02*
X0605600Y0382529D01*
X0605600Y0381330D02*
X0604400Y0381330D01*
X0604400Y0380132D02*
X0605600Y0380132D01*
X0605600Y0378933D02*
X0604400Y0378933D01*
X0604400Y0377734D02*
X0605600Y0377734D01*
X0605600Y0376536D02*
X0604400Y0376536D01*
X0587265Y0313015D02*
X0569641Y0313015D01*
X0571228Y0311816D02*
X0586769Y0311816D01*
X0586700Y0310618D02*
X0571999Y0310618D01*
X0572450Y0309419D02*
X0586700Y0309419D01*
X0586753Y0308221D02*
X0572450Y0308221D01*
X0572450Y0307022D02*
X0587250Y0307022D01*
X0587746Y0305824D02*
X0572450Y0305824D01*
X0572450Y0304625D02*
X0588637Y0304625D01*
X0589835Y0303427D02*
X0572450Y0303427D01*
X0572450Y0302228D02*
X0592074Y0302228D01*
X0590298Y0302964D02*
X0590298Y0302964D01*
X0565359Y0313015D02*
X0559641Y0313015D01*
X0560304Y0312740D02*
X0558485Y0313494D01*
X0556515Y0313494D01*
X0554696Y0312740D01*
X0553303Y0311347D01*
X0552550Y0309528D01*
X0552550Y0300472D01*
X0553303Y0298653D01*
X0554696Y0297260D01*
X0556515Y0296506D01*
X0558485Y0296506D01*
X0560304Y0297260D01*
X0561697Y0298653D01*
X0562450Y0300472D01*
X0562450Y0309528D01*
X0561697Y0311347D01*
X0560304Y0312740D01*
X0561228Y0311816D02*
X0563772Y0311816D01*
X0563001Y0310618D02*
X0561999Y0310618D01*
X0562450Y0309419D02*
X0562550Y0309419D01*
X0562550Y0308221D02*
X0562450Y0308221D01*
X0562450Y0307022D02*
X0562550Y0307022D01*
X0562550Y0305824D02*
X0562450Y0305824D01*
X0562450Y0304625D02*
X0562550Y0304625D01*
X0562550Y0303427D02*
X0562450Y0303427D01*
X0562450Y0302228D02*
X0562550Y0302228D01*
X0562550Y0301030D02*
X0562450Y0301030D01*
X0562185Y0299831D02*
X0562815Y0299831D01*
X0563323Y0298633D02*
X0561677Y0298633D01*
X0560478Y0297434D02*
X0564522Y0297434D01*
X0554522Y0297434D02*
X0550478Y0297434D01*
X0551677Y0298633D02*
X0553323Y0298633D01*
X0552815Y0299831D02*
X0552185Y0299831D01*
X0552450Y0301030D02*
X0552550Y0301030D01*
X0552550Y0302228D02*
X0552450Y0302228D01*
X0552450Y0303427D02*
X0552550Y0303427D01*
X0552550Y0304625D02*
X0552450Y0304625D01*
X0552450Y0305824D02*
X0552550Y0305824D01*
X0552550Y0307022D02*
X0552450Y0307022D01*
X0552450Y0308221D02*
X0552550Y0308221D01*
X0552550Y0309419D02*
X0552450Y0309419D01*
X0551999Y0310618D02*
X0553001Y0310618D01*
X0553772Y0311816D02*
X0551228Y0311816D01*
X0549641Y0313015D02*
X0555359Y0313015D01*
X0487262Y0376536D02*
X0486131Y0376536D01*
X0486131Y0377734D02*
X0487262Y0377734D01*
X0487262Y0378933D02*
X0486131Y0378933D01*
X0486131Y0380132D02*
X0487262Y0380132D01*
X0473869Y0380132D02*
X0471131Y0380132D01*
X0471131Y0378933D02*
X0473869Y0378933D01*
X0473869Y0377734D02*
X0471131Y0377734D01*
X0471131Y0376536D02*
X0473869Y0376536D01*
X0473869Y0375337D02*
X0471131Y0375337D01*
X0471131Y0374139D02*
X0473869Y0374139D01*
X0473869Y0372940D02*
X0471131Y0372940D01*
X0471131Y0371742D02*
X0473869Y0371742D01*
X0473869Y0370543D02*
X0471131Y0370543D01*
X0470784Y0369345D02*
X0474216Y0369345D01*
X0435600Y0368146D02*
X0434400Y0368146D01*
X0434400Y0382529D02*
X0435600Y0382529D01*
X0640935Y0569496D02*
X0659065Y0569496D01*
X0658869Y0570695D02*
X0641131Y0570695D01*
X0641131Y0571893D02*
X0658869Y0571893D01*
X0658869Y0573092D02*
X0641131Y0573092D01*
X0641131Y0574290D02*
X0658869Y0574290D01*
X0658869Y0575489D02*
X0641131Y0575489D01*
X0641131Y0576687D02*
X0658869Y0576687D01*
X0658869Y0577886D02*
X0641131Y0577886D01*
X0641131Y0579084D02*
X0658869Y0579084D01*
X0658869Y0580283D02*
X0641131Y0580283D01*
X0602100Y0605452D02*
X0727900Y0605452D01*
X0727964Y0605298D02*
X0727964Y0605298D01*
X0727404Y0606650D02*
X0602596Y0606650D01*
X0603093Y0607849D02*
X0726907Y0607849D01*
X0726700Y0609047D02*
X0603300Y0609047D01*
X0603300Y0610246D02*
X0726700Y0610246D01*
X0726700Y0611444D02*
X0603300Y0611444D01*
X0602889Y0612643D02*
X0727111Y0612643D01*
X0727607Y0613841D02*
X0602393Y0613841D01*
X0601698Y0615040D02*
X0728302Y0615040D01*
X0729500Y0616238D02*
X0600500Y0616238D01*
X0598735Y0617437D02*
X0731265Y0617437D01*
X0730298Y0617036D02*
X0730298Y0617036D01*
X0729009Y0604253D02*
X0600991Y0604253D01*
X0599793Y0603055D02*
X0730207Y0603055D01*
X0732972Y0601856D02*
X0597028Y0601856D01*
X0781131Y0580283D02*
X0798869Y0580283D01*
X0798869Y0579084D02*
X0781131Y0579084D01*
X0781131Y0577886D02*
X0798869Y0577886D01*
X0798869Y0576687D02*
X0781131Y0576687D01*
X0781131Y0575489D02*
X0798869Y0575489D01*
X0798869Y0574290D02*
X0781131Y0574290D01*
X0781131Y0573092D02*
X0798869Y0573092D01*
X0798869Y0571893D02*
X0781131Y0571893D01*
X0781131Y0570695D02*
X0798869Y0570695D01*
X0799065Y0569496D02*
X0780935Y0569496D01*
X0745600Y0382529D02*
X0744400Y0382529D01*
X0744400Y0381330D02*
X0745600Y0381330D01*
X0745600Y0380132D02*
X0744400Y0380132D01*
X0744400Y0378933D02*
X0745600Y0378933D01*
X0745600Y0377734D02*
X0744400Y0377734D01*
X0744400Y0376536D02*
X0745600Y0376536D01*
X0727265Y0313015D02*
X0709641Y0313015D01*
X0711228Y0311816D02*
X0726769Y0311816D01*
X0726700Y0310618D02*
X0711999Y0310618D01*
X0712450Y0309419D02*
X0726700Y0309419D01*
X0726753Y0308221D02*
X0712450Y0308221D01*
X0712450Y0307022D02*
X0727250Y0307022D01*
X0727746Y0305824D02*
X0712450Y0305824D01*
X0712450Y0304625D02*
X0728637Y0304625D01*
X0727964Y0305298D02*
X0727964Y0305298D01*
X0729835Y0303427D02*
X0712450Y0303427D01*
X0712450Y0302228D02*
X0732074Y0302228D01*
X0730298Y0302964D02*
X0730298Y0302964D01*
X0704522Y0297434D02*
X0700478Y0297434D01*
X0700304Y0297260D02*
X0701697Y0298653D01*
X0702450Y0300472D01*
X0702450Y0309528D01*
X0701697Y0311347D01*
X0700304Y0312740D01*
X0698485Y0313494D01*
X0696515Y0313494D01*
X0694696Y0312740D01*
X0693303Y0311347D01*
X0692550Y0309528D01*
X0692550Y0300472D01*
X0693303Y0298653D01*
X0694696Y0297260D01*
X0696515Y0296506D01*
X0698485Y0296506D01*
X0700304Y0297260D01*
X0701677Y0298633D02*
X0703323Y0298633D01*
X0702815Y0299831D02*
X0702185Y0299831D01*
X0702450Y0301030D02*
X0702550Y0301030D01*
X0702550Y0302228D02*
X0702450Y0302228D01*
X0702450Y0303427D02*
X0702550Y0303427D01*
X0702550Y0304625D02*
X0702450Y0304625D01*
X0702450Y0305824D02*
X0702550Y0305824D01*
X0702550Y0307022D02*
X0702450Y0307022D01*
X0702450Y0308221D02*
X0702550Y0308221D01*
X0702550Y0309419D02*
X0702450Y0309419D01*
X0701999Y0310618D02*
X0703001Y0310618D01*
X0703772Y0311816D02*
X0701228Y0311816D01*
X0699641Y0313015D02*
X0705359Y0313015D01*
X0695359Y0313015D02*
X0689641Y0313015D01*
X0691228Y0311816D02*
X0693772Y0311816D01*
X0693001Y0310618D02*
X0691999Y0310618D01*
X0692450Y0309419D02*
X0692550Y0309419D01*
X0692550Y0308221D02*
X0692450Y0308221D01*
X0692450Y0307022D02*
X0692550Y0307022D01*
X0692550Y0305824D02*
X0692450Y0305824D01*
X0692450Y0304625D02*
X0692550Y0304625D01*
X0692550Y0303427D02*
X0692450Y0303427D01*
X0692450Y0302228D02*
X0692550Y0302228D01*
X0692550Y0301030D02*
X0692450Y0301030D01*
X0692185Y0299831D02*
X0692815Y0299831D01*
X0693323Y0298633D02*
X0691677Y0298633D01*
X0690478Y0297434D02*
X0694522Y0297434D01*
D25*
X0385000Y0483750D02*
X0385000Y0555000D01*
X0292500Y0487500D02*
X0292500Y0478750D01*
X0285000Y0471250D01*
X0285000Y0455000D01*
X0290000Y0450000D01*
X0300000Y0450000D01*
D26*
X0385000Y0483750D03*
X0385000Y0555000D03*
D27*
X0323750Y0510000D02*
X0313750Y0520000D01*
X0290000Y0520000D01*
M02*
