G75*
%MOIN*%
%OFA0B0*%
%FSLAX25Y25*%
%IPPOS*%
%LPD*%
%AMOC8*
5,1,8,0,0,1.08239X$1,22.5*
%
%ADD10C,0.07450*%
%ADD11C,0.13400*%
%ADD12OC8,0.05600*%
%ADD13C,0.06400*%
%ADD14R,0.09849X0.09849*%
%ADD15R,0.13061X0.13061*%
%ADD16OC8,0.07000*%
%ADD17OC8,0.06400*%
%ADD18OC8,0.12900*%
%ADD19R,0.15400X0.15400*%
%ADD20C,0.15400*%
%ADD21C,0.07487*%
%ADD22C,0.05600*%
%ADD23OC8,0.06700*%
%ADD24C,0.06700*%
D10*
X0561475Y0505000D02*
X0568525Y0505000D01*
X0568525Y0525000D02*
X0561475Y0525000D01*
X0561475Y0565000D02*
X0568525Y0565000D01*
X0568525Y0585000D02*
X0561475Y0585000D01*
X0701475Y0585000D02*
X0708525Y0585000D01*
X0708525Y0565000D02*
X0701475Y0565000D01*
X0701475Y0525000D02*
X0708525Y0525000D01*
X0708525Y0505000D02*
X0701475Y0505000D01*
X0841475Y0505000D02*
X0848525Y0505000D01*
X0848525Y0525000D02*
X0841475Y0525000D01*
X0841475Y0565000D02*
X0848525Y0565000D01*
X0848525Y0585000D02*
X0841475Y0585000D01*
X0360000Y0578525D02*
X0360000Y0571475D01*
X0340000Y0571475D02*
X0340000Y0578525D01*
X0300000Y0578525D02*
X0300000Y0571475D01*
X0280000Y0571475D02*
X0280000Y0578525D01*
D11*
X0290000Y0610000D03*
X0595000Y0610000D03*
X0735000Y0610000D03*
X0735000Y0310000D03*
X0595000Y0310000D03*
X0290000Y0310000D03*
D12*
X0365000Y0385000D03*
X0365000Y0395000D03*
X0365000Y0405000D03*
X0365000Y0415000D03*
X0365000Y0425000D03*
X0365000Y0435000D03*
X0385000Y0435000D03*
X0385000Y0425000D03*
X0385000Y0415000D03*
X0385000Y0405000D03*
X0385000Y0395000D03*
X0385000Y0385000D03*
X0340000Y0400000D03*
X0330000Y0400000D03*
X0330000Y0412500D03*
X0340000Y0412500D03*
X0340000Y0425000D03*
X0330000Y0425000D03*
X0335000Y0442500D03*
X0335000Y0452500D03*
X0333750Y0480000D03*
X0323750Y0480000D03*
X0343750Y0480000D03*
X0353750Y0480000D03*
X0353750Y0510000D03*
X0343750Y0510000D03*
X0333750Y0510000D03*
X0323750Y0510000D03*
D13*
X0295500Y0520000D02*
X0289500Y0520000D01*
X0289500Y0530000D02*
X0295500Y0530000D01*
X0295500Y0540000D02*
X0289500Y0540000D01*
X0297000Y0460000D02*
X0303000Y0460000D01*
X0303000Y0450000D02*
X0297000Y0450000D01*
D14*
X0450000Y0375000D03*
X0465000Y0375000D03*
X0480000Y0375000D03*
X0620000Y0375000D03*
X0635000Y0375000D03*
X0650000Y0375000D03*
X0760000Y0375000D03*
X0775000Y0375000D03*
X0790000Y0375000D03*
X0775000Y0575000D03*
X0745000Y0575000D03*
X0805000Y0575000D03*
X0665000Y0575000D03*
X0635000Y0575000D03*
X0605000Y0575000D03*
X0495000Y0575000D03*
X0465000Y0575000D03*
X0435000Y0575000D03*
D15*
X0435000Y0375000D03*
X0495000Y0375000D03*
X0605000Y0375000D03*
X0665000Y0375000D03*
X0745000Y0375000D03*
X0805000Y0375000D03*
D16*
X0845000Y0453750D03*
X0845000Y0483750D03*
X0370000Y0483750D03*
X0370000Y0453750D03*
D17*
X0305000Y0425000D03*
X0305000Y0415000D03*
X0305000Y0405000D03*
X0305000Y0395000D03*
X0295000Y0395000D03*
X0295000Y0405000D03*
X0295000Y0415000D03*
X0295000Y0425000D03*
X0295000Y0385000D03*
X0295000Y0375000D03*
X0295000Y0365000D03*
X0305000Y0365000D03*
X0305000Y0375000D03*
X0305000Y0385000D03*
X0565000Y0340000D03*
X0565000Y0430000D03*
X0705000Y0430000D03*
X0705000Y0340000D03*
X0845000Y0340000D03*
X0845000Y0430000D03*
D18*
X0335000Y0305000D03*
X0350000Y0305000D03*
X0365000Y0305000D03*
X0365000Y0320000D03*
X0350000Y0320000D03*
X0335000Y0320000D03*
X0335000Y0335000D03*
X0350000Y0335000D03*
X0365000Y0335000D03*
X0380000Y0335000D03*
X0395000Y0335000D03*
X0395000Y0320000D03*
X0380000Y0320000D03*
X0380000Y0305000D03*
X0395000Y0305000D03*
X0410000Y0305000D03*
X0425000Y0305000D03*
X0425000Y0320000D03*
X0410000Y0320000D03*
X0410000Y0335000D03*
X0425000Y0335000D03*
X0485000Y0335000D03*
X0485000Y0320000D03*
X0485000Y0305000D03*
X0500000Y0305000D03*
X0515000Y0305000D03*
X0530000Y0305000D03*
X0530000Y0320000D03*
X0515000Y0320000D03*
X0500000Y0320000D03*
X0500000Y0335000D03*
X0515000Y0335000D03*
X0530000Y0335000D03*
X0625000Y0335000D03*
X0640000Y0335000D03*
X0640000Y0320000D03*
X0625000Y0320000D03*
X0625000Y0305000D03*
X0640000Y0305000D03*
X0655000Y0305000D03*
X0670000Y0305000D03*
X0670000Y0320000D03*
X0655000Y0320000D03*
X0655000Y0335000D03*
X0670000Y0335000D03*
X0765000Y0335000D03*
X0780000Y0335000D03*
X0795000Y0335000D03*
X0795000Y0320000D03*
X0780000Y0320000D03*
X0765000Y0320000D03*
X0765000Y0305000D03*
X0780000Y0305000D03*
X0795000Y0305000D03*
X0810000Y0305000D03*
X0810000Y0320000D03*
X0810000Y0335000D03*
D19*
X0330000Y0605000D03*
D20*
X0361047Y0605000D03*
D21*
X0288543Y0340000D02*
X0281457Y0340000D01*
X0281457Y0330000D02*
X0288543Y0330000D01*
X0442500Y0308543D02*
X0442500Y0301457D01*
X0452500Y0301457D02*
X0452500Y0308543D01*
X0462500Y0308543D02*
X0462500Y0301457D01*
X0547500Y0301457D02*
X0547500Y0308543D01*
X0557500Y0308543D02*
X0557500Y0301457D01*
X0567500Y0301457D02*
X0567500Y0308543D01*
X0687500Y0308543D02*
X0687500Y0301457D01*
X0697500Y0301457D02*
X0697500Y0308543D01*
X0707500Y0308543D02*
X0707500Y0301457D01*
X0827500Y0301457D02*
X0827500Y0308543D01*
X0837500Y0308543D02*
X0837500Y0301457D01*
X0847500Y0301457D02*
X0847500Y0308543D01*
D22*
X0346350Y0520000D02*
X0341150Y0520000D01*
X0316350Y0520000D02*
X0311150Y0520000D01*
D23*
X0300000Y0483750D03*
D24*
X0300000Y0493750D03*
M02*
