%
M48
M72
T01C0.02362
T02C0.03200
T03C0.04000
T04C0.04331
T05C0.04400
T06C0.04700
T07C0.04724
T08C0.05512
T09C0.06000
T10C0.06299
T11C0.08661
T12C0.13000
%
T01
X235000Y160000
X235000Y230000
X230000Y160000
X230000Y230000
X225000Y160000
X225000Y230000
T02
X188750Y132500
X178750Y132500
X188750Y155000
X188750Y185000
X168750Y185000
X168750Y155000
X200000Y110000
X220000Y110000
X220000Y100000
X200000Y100000
X200000Y90000
X220000Y90000
X220000Y80000
X200000Y80000
X200000Y70000
X220000Y70000
X220000Y60000
X200000Y60000
X185000Y60000
X185000Y70000
X185000Y80000
X185000Y90000
X185000Y100000
X185000Y110000
X178750Y185000
X178750Y155000
X198750Y185000
X198750Y155000
X188750Y195000
X158750Y195000
X145000Y156750
X145000Y170750
X387500Y115000
X397500Y115000
X527500Y100000
X537500Y100000
X667500Y115000
X677500Y115000
X315000Y285000
X295000Y285000
X305000Y285000
X230000Y277500
X260000Y277500
X485000Y285000
X465000Y285000
X475000Y285000
X625000Y285000
X605000Y285000
X615000Y285000
X331250Y277500
X331250Y297500
X347500Y277500
X347500Y297500
X363750Y277500
X363750Y297500
X380000Y277500
X380000Y297500
X501250Y277500
X501250Y297500
X517500Y277500
X517500Y297500
X533750Y277500
X533750Y297500
X550000Y277500
X550000Y297500
X641250Y277500
X641250Y297500
X657500Y277500
X657500Y297500
X673750Y277500
X673750Y297500
X690000Y277500
X690000Y297500
X230000Y287500
X260000Y287500
X230000Y297500
X260000Y297500
X387500Y100000
X397500Y100000
X387500Y85000
X397500Y85000
X527500Y115000
X537500Y115000
X527500Y85000
X537500Y85000
X667500Y100000
X677500Y100000
X667500Y85000
X677500Y85000
X687500Y115000
X697500Y115000
X687500Y100000
X697500Y100000
X687500Y85000
X697500Y85000
X547500Y115000
X557500Y115000
X547500Y100000
X557500Y100000
X547500Y85000
X557500Y85000
X407500Y115000
X417500Y115000
X407500Y100000
X417500Y100000
X407500Y85000
X417500Y85000
T03
X130000Y195000
X130000Y205000
X130000Y215000
X145000Y135000
X145000Y125000
X155000Y40000
X145000Y40000
X155000Y50000
X145000Y50000
X155000Y60000
X145000Y60000
X155000Y70000
X145000Y70000
X155000Y80000
X145000Y80000
X155000Y90000
X145000Y90000
X155000Y100000
X145000Y100000
T04
X402500Y67500
X402500Y-22500
X542500Y67500
X542500Y-22500
X682500Y67500
X682500Y-22500
T05
X215000Y158750
X215000Y128750
X682500Y165000
X682500Y135000
T06
X545000Y185000
X545000Y265000
X545000Y205000
X545000Y245000
X685000Y185000
X685000Y265000
X685000Y205000
X685000Y245000
X403750Y185000
X403750Y265000
X403750Y205000
X403750Y245000
X207500Y250000
X127500Y250000
X187500Y250000
X147500Y250000
T07
X152500Y-15000
X162500Y-15000
X172500Y-15000
X182500Y-15000
T08
X220000Y10000
X235000Y10000
X250000Y10000
X265000Y10000
X280000Y10000
X295000Y10000
X205000Y-20000
X220000Y-5000
X235000Y-5000
X250000Y-5000
X265000Y-5000
X280000Y-5000
X295000Y-5000
X205000Y10000
X220000Y-20000
X235000Y-20000
X250000Y-20000
X265000Y-20000
X280000Y-20000
X295000Y-20000
X205000Y-5000
X320000Y-5000
X335000Y-5000
X350000Y-5000
X335000Y10000
X320000Y10000
X365000Y-5000
X320000Y-20000
X335000Y-20000
X350000Y-20000
X365000Y-20000
X365000Y10000
X350000Y10000
X460000Y-5000
X475000Y-5000
X490000Y-5000
X475000Y10000
X460000Y10000
X505000Y-5000
X460000Y-20000
X475000Y-20000
X490000Y-20000
X490000Y10000
X505000Y10000
X505000Y-20000
X600000Y-5000
X615000Y-5000
X630000Y-5000
X645000Y-5000
X600000Y10000
X615000Y10000
X600000Y-20000
X615000Y-20000
X630000Y-20000
X645000Y-20000
X630000Y10000
X645000Y10000
T09
X175000Y280000
X206047Y280000
T10
X505000Y250000
X475000Y250000
X445000Y250000
X475000Y50000
X490000Y50000
X460000Y50000
X645000Y250000
X615000Y250000
X585000Y250000
X615000Y50000
X630000Y50000
X600000Y50000
X335000Y250000
X305000Y250000
X275000Y250000
X320000Y50000
X305000Y50000
X290000Y50000
T11
X445000Y50000
X505000Y50000
X585000Y50000
X645000Y50000
X275000Y50000
X335000Y50000
T12
X435000Y-15000
X435000Y285000
X575000Y-15000
X575000Y285000
X135000Y-15000
X135000Y285000
M30
