G75*
%MOIN*%
%OFA0B0*%
%FSLAX25Y25*%
%IPPOS*%
%LPD*%
%AMOC8*
5,1,8,0,0,1.08239X$1,22.5*
%
%ADD10C,0.07050*%
%ADD11OC8,0.05200*%
%ADD12C,0.06000*%
%ADD13R,0.09449X0.09449*%
%ADD14R,0.12661X0.12661*%
%ADD15OC8,0.06600*%
%ADD16OC8,0.06000*%
%ADD17OC8,0.12500*%
%ADD18R,0.15000X0.15000*%
%ADD19C,0.15000*%
%ADD20C,0.07087*%
%ADD21C,0.05200*%
%ADD22OC8,0.06300*%
%ADD23C,0.06300*%
%ADD24C,0.10000*%
%ADD25OC8,0.10000*%
%ADD26C,0.04000*%
%ADD27C,0.01200*%
%ADD28C,0.04134*%
%ADD29C,0.03200*%
%ADD30C,0.05000*%
%ADD31C,0.02400*%
%ADD32C,0.01600*%
D10*
X0561475Y0505000D02*
X0568525Y0505000D01*
X0568525Y0525000D02*
X0561475Y0525000D01*
X0561475Y0565000D02*
X0568525Y0565000D01*
X0568525Y0585000D02*
X0561475Y0585000D01*
X0701475Y0585000D02*
X0708525Y0585000D01*
X0708525Y0565000D02*
X0701475Y0565000D01*
X0701475Y0525000D02*
X0708525Y0525000D01*
X0708525Y0505000D02*
X0701475Y0505000D01*
X0841475Y0505000D02*
X0848525Y0505000D01*
X0848525Y0525000D02*
X0841475Y0525000D01*
X0841475Y0565000D02*
X0848525Y0565000D01*
X0848525Y0585000D02*
X0841475Y0585000D01*
X0360000Y0578525D02*
X0360000Y0571475D01*
X0340000Y0571475D02*
X0340000Y0578525D01*
X0300000Y0578525D02*
X0300000Y0571475D01*
X0280000Y0571475D02*
X0280000Y0578525D01*
D11*
X0323750Y0510000D03*
X0333750Y0510000D03*
X0343750Y0510000D03*
X0353750Y0510000D03*
X0375000Y0540000D03*
X0375000Y0570000D03*
X0353750Y0480000D03*
X0343750Y0480000D03*
X0333750Y0480000D03*
X0323750Y0480000D03*
X0333750Y0457500D03*
X0343750Y0457500D03*
X0355000Y0435000D03*
X0365000Y0435000D03*
X0365000Y0425000D03*
X0355000Y0425000D03*
X0355000Y0415000D03*
X0365000Y0415000D03*
X0365000Y0405000D03*
X0355000Y0405000D03*
X0355000Y0395000D03*
X0365000Y0395000D03*
X0365000Y0385000D03*
X0355000Y0385000D03*
X0385000Y0385000D03*
X0385000Y0395000D03*
X0385000Y0405000D03*
X0385000Y0415000D03*
X0385000Y0425000D03*
X0385000Y0435000D03*
D12*
X0303000Y0450000D02*
X0297000Y0450000D01*
X0297000Y0460000D02*
X0303000Y0460000D01*
X0293000Y0520000D02*
X0287000Y0520000D01*
X0287000Y0530000D02*
X0293000Y0530000D01*
X0293000Y0540000D02*
X0287000Y0540000D01*
D13*
X0435000Y0575000D03*
X0465000Y0575000D03*
X0495000Y0575000D03*
X0605000Y0575000D03*
X0635000Y0575000D03*
X0665000Y0575000D03*
X0745000Y0575000D03*
X0775000Y0575000D03*
X0805000Y0575000D03*
X0790000Y0375000D03*
X0775000Y0375000D03*
X0760000Y0375000D03*
X0650000Y0375000D03*
X0635000Y0375000D03*
X0620000Y0375000D03*
X0480000Y0375000D03*
X0465000Y0375000D03*
X0450000Y0375000D03*
D14*
X0435000Y0375000D03*
X0495000Y0375000D03*
X0605000Y0375000D03*
X0665000Y0375000D03*
X0745000Y0375000D03*
X0805000Y0375000D03*
D15*
X0845000Y0456250D03*
X0845000Y0486250D03*
X0370000Y0483750D03*
X0370000Y0453750D03*
D16*
X0305000Y0425000D03*
X0305000Y0415000D03*
X0305000Y0405000D03*
X0305000Y0395000D03*
X0295000Y0395000D03*
X0295000Y0405000D03*
X0295000Y0415000D03*
X0295000Y0425000D03*
X0295000Y0385000D03*
X0295000Y0375000D03*
X0295000Y0365000D03*
X0305000Y0365000D03*
X0305000Y0375000D03*
X0305000Y0385000D03*
X0565000Y0350000D03*
X0565000Y0440000D03*
X0705000Y0440000D03*
X0705000Y0350000D03*
X0845000Y0350000D03*
X0845000Y0440000D03*
D17*
X0365000Y0305000D03*
X0365000Y0320000D03*
X0365000Y0335000D03*
X0380000Y0335000D03*
X0395000Y0335000D03*
X0395000Y0320000D03*
X0380000Y0320000D03*
X0380000Y0305000D03*
X0395000Y0305000D03*
X0410000Y0305000D03*
X0425000Y0305000D03*
X0440000Y0305000D03*
X0440000Y0320000D03*
X0425000Y0320000D03*
X0410000Y0320000D03*
X0410000Y0335000D03*
X0425000Y0335000D03*
X0440000Y0335000D03*
X0455000Y0335000D03*
X0455000Y0320000D03*
X0455000Y0305000D03*
X0480000Y0305000D03*
X0495000Y0305000D03*
X0495000Y0320000D03*
X0480000Y0320000D03*
X0480000Y0335000D03*
X0495000Y0335000D03*
X0510000Y0335000D03*
X0525000Y0335000D03*
X0525000Y0320000D03*
X0510000Y0320000D03*
X0510000Y0305000D03*
X0525000Y0305000D03*
X0620000Y0305000D03*
X0620000Y0320000D03*
X0620000Y0335000D03*
X0635000Y0335000D03*
X0650000Y0335000D03*
X0650000Y0320000D03*
X0635000Y0320000D03*
X0635000Y0305000D03*
X0650000Y0305000D03*
X0665000Y0305000D03*
X0665000Y0320000D03*
X0665000Y0335000D03*
X0760000Y0335000D03*
X0775000Y0335000D03*
X0775000Y0320000D03*
X0760000Y0320000D03*
X0760000Y0305000D03*
X0775000Y0305000D03*
X0790000Y0305000D03*
X0805000Y0305000D03*
X0805000Y0320000D03*
X0790000Y0320000D03*
X0790000Y0335000D03*
X0805000Y0335000D03*
D18*
X0330000Y0605000D03*
D19*
X0361047Y0605000D03*
D20*
X0288543Y0340000D02*
X0281457Y0340000D01*
X0281457Y0330000D02*
X0288543Y0330000D01*
D21*
X0311150Y0520000D02*
X0316350Y0520000D01*
X0341150Y0520000D02*
X0346350Y0520000D01*
X0465000Y0602400D02*
X0465000Y0607600D01*
X0475000Y0607600D02*
X0475000Y0602400D01*
X0485000Y0602400D02*
X0485000Y0607600D01*
X0635000Y0607600D02*
X0635000Y0602400D01*
X0645000Y0602400D02*
X0645000Y0607600D01*
X0655000Y0607600D02*
X0655000Y0602400D01*
X0775000Y0602400D02*
X0775000Y0607600D01*
X0785000Y0607600D02*
X0785000Y0602400D01*
X0795000Y0602400D02*
X0795000Y0607600D01*
D22*
X0825000Y0615000D03*
X0685000Y0615000D03*
X0542500Y0615000D03*
X0300000Y0481750D03*
D23*
X0300000Y0495750D03*
X0542500Y0605000D03*
X0685000Y0605000D03*
X0825000Y0605000D03*
D24*
X0837500Y0311250D03*
X0697500Y0310000D03*
X0557500Y0310000D03*
D25*
X0557500Y0330000D03*
X0697500Y0330000D03*
X0837500Y0331250D03*
D26*
X0385000Y0450000D02*
X0377500Y0442500D01*
X0292500Y0442500D01*
X0282500Y0432500D01*
X0282500Y0357500D01*
X0296250Y0343750D01*
X0296250Y0332500D01*
X0293750Y0330000D01*
X0285000Y0330000D01*
X0285000Y0340000D02*
X0275000Y0350000D01*
X0275000Y0435000D01*
X0290000Y0450000D01*
X0300000Y0450000D01*
X0300000Y0460000D02*
X0313750Y0460000D01*
X0333750Y0480000D01*
X0385000Y0483750D02*
X0385000Y0450000D01*
X0385000Y0555000D02*
X0385000Y0567500D01*
D27*
X0365000Y0567099D02*
X0315000Y0567099D01*
X0315000Y0565901D02*
X0365000Y0565901D01*
X0365000Y0564702D02*
X0315000Y0564702D01*
X0315000Y0563504D02*
X0365000Y0563504D01*
X0365000Y0562305D02*
X0315000Y0562305D01*
X0315000Y0561107D02*
X0365000Y0561107D01*
X0365000Y0560000D02*
X0315000Y0560000D01*
X0315000Y0628750D01*
X0345000Y0628750D01*
X0345000Y0590000D01*
X0365000Y0590000D01*
X0365000Y0560000D01*
X0365000Y0568298D02*
X0315000Y0568298D01*
X0315000Y0569496D02*
X0365000Y0569496D01*
X0365000Y0570695D02*
X0315000Y0570695D01*
X0315000Y0571893D02*
X0365000Y0571893D01*
X0365000Y0573092D02*
X0315000Y0573092D01*
X0315000Y0574290D02*
X0365000Y0574290D01*
X0365000Y0575489D02*
X0315000Y0575489D01*
X0315000Y0576687D02*
X0365000Y0576687D01*
X0365000Y0577886D02*
X0315000Y0577886D01*
X0315000Y0579084D02*
X0365000Y0579084D01*
X0365000Y0580283D02*
X0315000Y0580283D01*
X0315000Y0581481D02*
X0365000Y0581481D01*
X0365000Y0582680D02*
X0315000Y0582680D01*
X0315000Y0583878D02*
X0365000Y0583878D01*
X0365000Y0585077D02*
X0315000Y0585077D01*
X0315000Y0586275D02*
X0365000Y0586275D01*
X0365000Y0587474D02*
X0315000Y0587474D01*
X0315000Y0588672D02*
X0365000Y0588672D01*
X0365000Y0589871D02*
X0315000Y0589871D01*
X0315000Y0591070D02*
X0345000Y0591070D01*
X0345000Y0592268D02*
X0315000Y0592268D01*
X0315000Y0593467D02*
X0345000Y0593467D01*
X0345000Y0594665D02*
X0315000Y0594665D01*
X0315000Y0595864D02*
X0345000Y0595864D01*
X0345000Y0597062D02*
X0315000Y0597062D01*
X0315000Y0598261D02*
X0345000Y0598261D01*
X0345000Y0599459D02*
X0315000Y0599459D01*
X0315000Y0600658D02*
X0345000Y0600658D01*
X0345000Y0601856D02*
X0315000Y0601856D01*
X0315000Y0603055D02*
X0345000Y0603055D01*
X0345000Y0604253D02*
X0315000Y0604253D01*
X0315000Y0605452D02*
X0345000Y0605452D01*
X0345000Y0606650D02*
X0315000Y0606650D01*
X0315000Y0607849D02*
X0345000Y0607849D01*
X0345000Y0609047D02*
X0315000Y0609047D01*
X0315000Y0610246D02*
X0345000Y0610246D01*
X0345000Y0611444D02*
X0315000Y0611444D01*
X0315000Y0612643D02*
X0345000Y0612643D01*
X0345000Y0613841D02*
X0315000Y0613841D01*
X0315000Y0615040D02*
X0345000Y0615040D01*
X0345000Y0616238D02*
X0315000Y0616238D01*
X0315000Y0617437D02*
X0345000Y0617437D01*
X0345000Y0618635D02*
X0315000Y0618635D01*
X0315000Y0619834D02*
X0345000Y0619834D01*
X0345000Y0621032D02*
X0315000Y0621032D01*
X0315000Y0622231D02*
X0345000Y0622231D01*
X0345000Y0623429D02*
X0315000Y0623429D01*
X0315000Y0624628D02*
X0345000Y0624628D01*
X0345000Y0625826D02*
X0315000Y0625826D01*
X0315000Y0627025D02*
X0345000Y0627025D01*
X0345000Y0628223D02*
X0315000Y0628223D01*
X0315000Y0550000D02*
X0280000Y0550000D01*
X0280000Y0525000D01*
X0315000Y0525000D01*
X0315000Y0550000D01*
X0315000Y0549122D02*
X0280000Y0549122D01*
X0855000Y0549122D01*
X0855000Y0550000D02*
X0855000Y0488750D01*
X0849157Y0488750D01*
X0846950Y0490957D01*
X0843050Y0490957D01*
X0840843Y0488750D01*
X0290000Y0488750D01*
X0290000Y0515000D01*
X0315000Y0515000D01*
X0315000Y0515993D01*
X0317147Y0515993D01*
X0318620Y0516603D01*
X0319747Y0517730D01*
X0320357Y0519203D01*
X0320357Y0520797D01*
X0319747Y0522270D01*
X0318620Y0523397D01*
X0317147Y0524007D01*
X0315000Y0524007D01*
X0315000Y0531250D01*
X0297252Y0531250D01*
X0296736Y0532496D01*
X0295496Y0533736D01*
X0293877Y0534407D01*
X0286123Y0534407D01*
X0284504Y0533736D01*
X0283264Y0532496D01*
X0282593Y0530877D01*
X0282593Y0529123D01*
X0283264Y0527504D01*
X0284504Y0526264D01*
X0286123Y0525593D01*
X0293877Y0525593D01*
X0295496Y0526264D01*
X0296736Y0527504D01*
X0297407Y0529123D01*
X0297407Y0530877D01*
X0296736Y0532496D01*
X0295496Y0533736D01*
X0293877Y0534407D01*
X0286123Y0534407D01*
X0284504Y0533736D01*
X0283264Y0532496D01*
X0282748Y0531250D01*
X0280000Y0531250D01*
X0280000Y0550000D01*
X0855000Y0550000D01*
X0855000Y0547923D02*
X0280000Y0547923D01*
X0315000Y0547923D01*
X0315000Y0546725D02*
X0280000Y0546725D01*
X0855000Y0546725D01*
X0855000Y0545526D02*
X0280000Y0545526D01*
X0315000Y0545526D01*
X0315000Y0544328D02*
X0280000Y0544328D01*
X0285433Y0544328D01*
X0285234Y0544263D02*
X0284589Y0543934D01*
X0284003Y0543509D01*
X0283491Y0542997D01*
X0283066Y0542411D01*
X0282737Y0541766D01*
X0282513Y0541077D01*
X0282406Y0540400D01*
X0289600Y0540400D01*
X0289600Y0544600D01*
X0286638Y0544600D01*
X0285923Y0544487D01*
X0285234Y0544263D01*
X0283624Y0543129D02*
X0280000Y0543129D01*
X0315000Y0543129D01*
X0315000Y0541931D02*
X0280000Y0541931D01*
X0282821Y0541931D01*
X0282459Y0540732D02*
X0280000Y0540732D01*
X0315000Y0540732D01*
X0315000Y0539534D02*
X0280000Y0539534D01*
X0282417Y0539534D01*
X0282406Y0539600D02*
X0282513Y0538923D01*
X0282737Y0538234D01*
X0283066Y0537589D01*
X0283491Y0537003D01*
X0284003Y0536491D01*
X0284589Y0536066D01*
X0285234Y0535737D01*
X0285923Y0535513D01*
X0286638Y0535400D01*
X0289600Y0535400D01*
X0289600Y0539600D01*
X0290400Y0539600D01*
X0290400Y0540400D01*
X0289600Y0540400D01*
X0289600Y0539600D01*
X0282406Y0539600D01*
X0282704Y0538335D02*
X0280000Y0538335D01*
X0315000Y0538335D01*
X0315000Y0537137D02*
X0280000Y0537137D01*
X0283395Y0537137D01*
X0284840Y0535938D02*
X0280000Y0535938D01*
X0315000Y0535938D01*
X0315000Y0534739D02*
X0280000Y0534739D01*
X0855000Y0534739D01*
X0545000Y0534739D01*
X0545000Y0535000D02*
X0855000Y0535000D01*
X0855000Y0495000D01*
X0545000Y0495000D01*
X0545000Y0535000D01*
X0545000Y0533541D02*
X0855000Y0533541D01*
X0295692Y0533541D01*
X0315000Y0533541D01*
X0315000Y0532342D02*
X0296800Y0532342D01*
X0855000Y0532342D01*
X0545000Y0532342D01*
X0545000Y0531144D02*
X0855000Y0531144D01*
X0315000Y0531144D01*
X0297296Y0531144D01*
X0297407Y0529945D02*
X0315000Y0529945D01*
X0560111Y0529945D01*
X0560275Y0529999D02*
X0559508Y0529750D01*
X0558789Y0529383D01*
X0558136Y0528909D01*
X0557566Y0528339D01*
X0557092Y0527686D01*
X0556725Y0526967D01*
X0556476Y0526200D01*
X0556377Y0525575D01*
X0564425Y0525575D01*
X0564425Y0530125D01*
X0561072Y0530125D01*
X0560275Y0529999D01*
X0557974Y0528747D02*
X0315000Y0528747D01*
X0297251Y0528747D01*
X0296755Y0527548D02*
X0315000Y0527548D01*
X0557022Y0527548D01*
X0556525Y0526350D02*
X0315000Y0526350D01*
X0295582Y0526350D01*
X0294077Y0535513D02*
X0294766Y0535737D01*
X0295411Y0536066D01*
X0295997Y0536491D01*
X0296509Y0537003D01*
X0296934Y0537589D01*
X0297263Y0538234D01*
X0297487Y0538923D01*
X0297594Y0539600D01*
X0290400Y0539600D01*
X0290400Y0535400D01*
X0293362Y0535400D01*
X0294077Y0535513D01*
X0295160Y0535938D02*
X0373122Y0535938D01*
X0373260Y0535800D02*
X0370800Y0538260D01*
X0370800Y0539800D01*
X0374800Y0539800D01*
X0374800Y0540200D01*
X0374800Y0544200D01*
X0373260Y0544200D01*
X0370800Y0541740D01*
X0370800Y0540200D01*
X0374800Y0540200D01*
X0375200Y0540200D01*
X0375200Y0544200D01*
X0376740Y0544200D01*
X0379200Y0541740D01*
X0379200Y0540200D01*
X0375200Y0540200D01*
X0375200Y0539800D01*
X0379200Y0539800D01*
X0379200Y0538260D01*
X0376740Y0535800D01*
X0375200Y0535800D01*
X0375200Y0539800D01*
X0374800Y0539800D01*
X0374800Y0535800D01*
X0373260Y0535800D01*
X0374800Y0535938D02*
X0375200Y0535938D01*
X0375200Y0537137D02*
X0374800Y0537137D01*
X0374800Y0538335D02*
X0375200Y0538335D01*
X0375200Y0539534D02*
X0374800Y0539534D01*
X0374800Y0540732D02*
X0375200Y0540732D01*
X0375200Y0541931D02*
X0374800Y0541931D01*
X0374800Y0543129D02*
X0375200Y0543129D01*
X0377811Y0543129D02*
X0855000Y0543129D01*
X0855000Y0541931D02*
X0379009Y0541931D01*
X0379200Y0540732D02*
X0855000Y0540732D01*
X0855000Y0539534D02*
X0379200Y0539534D01*
X0379200Y0538335D02*
X0855000Y0538335D01*
X0855000Y0537137D02*
X0378076Y0537137D01*
X0376878Y0535938D02*
X0855000Y0535938D01*
X0855000Y0529945D02*
X0849889Y0529945D01*
X0849725Y0529999D02*
X0848928Y0530125D01*
X0845575Y0530125D01*
X0845575Y0525575D01*
X0844425Y0525575D01*
X0844425Y0530125D01*
X0841072Y0530125D01*
X0840275Y0529999D01*
X0839508Y0529750D01*
X0838789Y0529383D01*
X0838136Y0528909D01*
X0837566Y0528339D01*
X0837092Y0527686D01*
X0836725Y0526967D01*
X0836476Y0526200D01*
X0836377Y0525575D01*
X0844425Y0525575D01*
X0844425Y0524425D01*
X0845575Y0524425D01*
X0845575Y0525575D01*
X0853623Y0525575D01*
X0853524Y0526200D01*
X0853275Y0526967D01*
X0852908Y0527686D01*
X0852434Y0528339D01*
X0851864Y0528909D01*
X0851211Y0529383D01*
X0850492Y0529750D01*
X0849725Y0529999D01*
X0852026Y0528747D02*
X0855000Y0528747D01*
X0545000Y0528747D01*
X0545000Y0529945D02*
X0855000Y0529945D01*
X0855000Y0527548D02*
X0545000Y0527548D01*
X0545000Y0526350D02*
X0855000Y0526350D01*
X0853475Y0526350D01*
X0852978Y0527548D02*
X0855000Y0527548D01*
X0855000Y0525151D02*
X0545000Y0525151D01*
X0545000Y0523953D02*
X0855000Y0523953D01*
X0853548Y0523953D01*
X0853524Y0523800D02*
X0853623Y0524425D01*
X0845575Y0524425D01*
X0845575Y0519875D01*
X0848928Y0519875D01*
X0849725Y0520001D01*
X0850492Y0520250D01*
X0851211Y0520617D01*
X0851864Y0521091D01*
X0852434Y0521661D01*
X0852908Y0522314D01*
X0853275Y0523033D01*
X0853524Y0523800D01*
X0853133Y0522754D02*
X0855000Y0522754D01*
X0545000Y0522754D01*
X0545000Y0521556D02*
X0855000Y0521556D01*
X0852329Y0521556D01*
X0850702Y0520357D02*
X0855000Y0520357D01*
X0545000Y0520357D01*
X0545000Y0519159D02*
X0855000Y0519159D01*
X0350469Y0519159D01*
X0350447Y0519016D02*
X0350550Y0519669D01*
X0350550Y0519800D01*
X0343950Y0519800D01*
X0343950Y0520200D01*
X0343550Y0520200D01*
X0343550Y0524200D01*
X0340819Y0524200D01*
X0340166Y0524097D01*
X0339538Y0523892D01*
X0338949Y0523592D01*
X0338414Y0523204D01*
X0337946Y0522736D01*
X0337558Y0522201D01*
X0337258Y0521612D01*
X0337053Y0520984D01*
X0336950Y0520331D01*
X0336950Y0520200D01*
X0343550Y0520200D01*
X0343550Y0519800D01*
X0343950Y0519800D01*
X0343950Y0515800D01*
X0346681Y0515800D01*
X0347334Y0515903D01*
X0347962Y0516108D01*
X0348551Y0516408D01*
X0349086Y0516796D01*
X0349554Y0517264D01*
X0349942Y0517799D01*
X0350242Y0518388D01*
X0350447Y0519016D01*
X0350024Y0517960D02*
X0855000Y0517960D01*
X0545000Y0517960D01*
X0545000Y0516762D02*
X0855000Y0516762D01*
X0349038Y0516762D01*
X0350550Y0520200D02*
X0350550Y0520331D01*
X0350447Y0520984D01*
X0350242Y0521612D01*
X0349942Y0522201D01*
X0349554Y0522736D01*
X0349086Y0523204D01*
X0348551Y0523592D01*
X0347962Y0523892D01*
X0347334Y0524097D01*
X0346681Y0524200D01*
X0343950Y0524200D01*
X0343950Y0520200D01*
X0350550Y0520200D01*
X0350546Y0520357D02*
X0559298Y0520357D01*
X0559508Y0520250D02*
X0560275Y0520001D01*
X0561072Y0519875D01*
X0564425Y0519875D01*
X0564425Y0524425D01*
X0565575Y0524425D01*
X0565575Y0525575D01*
X0564425Y0525575D01*
X0564425Y0524425D01*
X0556377Y0524425D01*
X0556476Y0523800D01*
X0556725Y0523033D01*
X0557092Y0522314D01*
X0557566Y0521661D01*
X0558136Y0521091D01*
X0558789Y0520617D01*
X0559508Y0520250D01*
X0557671Y0521556D02*
X0350261Y0521556D01*
X0349535Y0522754D02*
X0556867Y0522754D01*
X0556452Y0523953D02*
X0347776Y0523953D01*
X0343950Y0523953D02*
X0343550Y0523953D01*
X0343550Y0522754D02*
X0343950Y0522754D01*
X0343950Y0521556D02*
X0343550Y0521556D01*
X0343550Y0520357D02*
X0343950Y0520357D01*
X0343550Y0519800D02*
X0336950Y0519800D01*
X0336950Y0519669D01*
X0337053Y0519016D01*
X0337258Y0518388D01*
X0337558Y0517799D01*
X0337946Y0517264D01*
X0338414Y0516796D01*
X0338949Y0516408D01*
X0339538Y0516108D01*
X0340166Y0515903D01*
X0340819Y0515800D01*
X0343550Y0515800D01*
X0343550Y0519800D01*
X0343550Y0519159D02*
X0343950Y0519159D01*
X0343950Y0517960D02*
X0343550Y0517960D01*
X0343550Y0516762D02*
X0343950Y0516762D01*
X0343950Y0514200D02*
X0343950Y0510200D01*
X0343550Y0510200D01*
X0343550Y0514200D01*
X0342010Y0514200D01*
X0339550Y0511740D01*
X0339550Y0510200D01*
X0343550Y0510200D01*
X0343550Y0509800D01*
X0339550Y0509800D01*
X0339550Y0508260D01*
X0342010Y0505800D01*
X0343550Y0505800D01*
X0343550Y0509800D01*
X0343950Y0509800D01*
X0343950Y0510200D01*
X0347950Y0510200D01*
X0347950Y0511740D01*
X0345490Y0514200D01*
X0343950Y0514200D01*
X0343950Y0513166D02*
X0343550Y0513166D01*
X0343550Y0511968D02*
X0343950Y0511968D01*
X0343950Y0510769D02*
X0343550Y0510769D01*
X0343950Y0509800D02*
X0347950Y0509800D01*
X0347950Y0508260D01*
X0345490Y0505800D01*
X0343950Y0505800D01*
X0343950Y0509800D01*
X0343950Y0509571D02*
X0343550Y0509571D01*
X0343550Y0508372D02*
X0343950Y0508372D01*
X0343950Y0507174D02*
X0343550Y0507174D01*
X0343550Y0505975D02*
X0343950Y0505975D01*
X0345665Y0505975D02*
X0351835Y0505975D01*
X0352010Y0505800D02*
X0349550Y0508260D01*
X0349550Y0509800D01*
X0353550Y0509800D01*
X0353550Y0510200D01*
X0353550Y0514200D01*
X0352010Y0514200D01*
X0349550Y0511740D01*
X0349550Y0510200D01*
X0353550Y0510200D01*
X0353950Y0510200D01*
X0353950Y0514200D01*
X0355490Y0514200D01*
X0357950Y0511740D01*
X0357950Y0510200D01*
X0353950Y0510200D01*
X0353950Y0509800D01*
X0357950Y0509800D01*
X0357950Y0508260D01*
X0355490Y0505800D01*
X0353950Y0505800D01*
X0353950Y0509800D01*
X0353550Y0509800D01*
X0353550Y0505800D01*
X0352010Y0505800D01*
X0353550Y0505975D02*
X0353950Y0505975D01*
X0353950Y0507174D02*
X0353550Y0507174D01*
X0353550Y0508372D02*
X0353950Y0508372D01*
X0353950Y0509571D02*
X0353550Y0509571D01*
X0353550Y0510769D02*
X0353950Y0510769D01*
X0353950Y0511968D02*
X0353550Y0511968D01*
X0353550Y0513166D02*
X0353950Y0513166D01*
X0356523Y0513166D02*
X0855000Y0513166D01*
X0545000Y0513166D01*
X0545000Y0511968D02*
X0855000Y0511968D01*
X0357722Y0511968D01*
X0357950Y0510769D02*
X0855000Y0510769D01*
X0545000Y0510769D01*
X0545000Y0509571D02*
X0855000Y0509571D01*
X0850843Y0509571D01*
X0850492Y0509750D02*
X0849725Y0509999D01*
X0848928Y0510125D01*
X0845575Y0510125D01*
X0845575Y0505575D01*
X0844425Y0505575D01*
X0844425Y0510125D01*
X0841072Y0510125D01*
X0840275Y0509999D01*
X0839508Y0509750D01*
X0838789Y0509383D01*
X0838136Y0508909D01*
X0837566Y0508339D01*
X0837092Y0507686D01*
X0836725Y0506967D01*
X0836476Y0506200D01*
X0836377Y0505575D01*
X0844425Y0505575D01*
X0844425Y0504425D01*
X0845575Y0504425D01*
X0845575Y0505575D01*
X0853623Y0505575D01*
X0853524Y0506200D01*
X0853275Y0506967D01*
X0852908Y0507686D01*
X0852434Y0508339D01*
X0851864Y0508909D01*
X0851211Y0509383D01*
X0850492Y0509750D01*
X0852401Y0508372D02*
X0855000Y0508372D01*
X0545000Y0508372D01*
X0545000Y0507174D02*
X0855000Y0507174D01*
X0853169Y0507174D01*
X0853559Y0505975D02*
X0855000Y0505975D01*
X0545000Y0505975D01*
X0545000Y0504777D02*
X0855000Y0504777D01*
X0845575Y0504777D01*
X0845575Y0504425D02*
X0853623Y0504425D01*
X0853524Y0503800D01*
X0853275Y0503033D01*
X0852908Y0502314D01*
X0852434Y0501661D01*
X0851864Y0501091D01*
X0851211Y0500617D01*
X0850492Y0500250D01*
X0849725Y0500001D01*
X0848928Y0499875D01*
X0845575Y0499875D01*
X0845575Y0504425D01*
X0845575Y0503578D02*
X0844425Y0503578D01*
X0844425Y0504425D02*
X0844425Y0499875D01*
X0841072Y0499875D01*
X0840275Y0500001D01*
X0839508Y0500250D01*
X0838789Y0500617D01*
X0838136Y0501091D01*
X0837566Y0501661D01*
X0837092Y0502314D01*
X0836725Y0503033D01*
X0836476Y0503800D01*
X0836377Y0504425D01*
X0844425Y0504425D01*
X0844425Y0504777D02*
X0705575Y0504777D01*
X0705575Y0504425D02*
X0705575Y0505575D01*
X0704425Y0505575D01*
X0704425Y0510125D01*
X0701072Y0510125D01*
X0700275Y0509999D01*
X0699508Y0509750D01*
X0698789Y0509383D01*
X0698136Y0508909D01*
X0697566Y0508339D01*
X0697092Y0507686D01*
X0696725Y0506967D01*
X0696476Y0506200D01*
X0696377Y0505575D01*
X0704425Y0505575D01*
X0704425Y0504425D01*
X0705575Y0504425D01*
X0713623Y0504425D01*
X0713524Y0503800D01*
X0713275Y0503033D01*
X0712908Y0502314D01*
X0712434Y0501661D01*
X0711864Y0501091D01*
X0711211Y0500617D01*
X0710492Y0500250D01*
X0709725Y0500001D01*
X0708928Y0499875D01*
X0705575Y0499875D01*
X0705575Y0504425D01*
X0705575Y0503578D02*
X0704425Y0503578D01*
X0704425Y0504425D02*
X0704425Y0499875D01*
X0701072Y0499875D01*
X0700275Y0500001D01*
X0699508Y0500250D01*
X0698789Y0500617D01*
X0698136Y0501091D01*
X0697566Y0501661D01*
X0697092Y0502314D01*
X0696725Y0503033D01*
X0696476Y0503800D01*
X0696377Y0504425D01*
X0704425Y0504425D01*
X0704425Y0504777D02*
X0565575Y0504777D01*
X0565575Y0504425D02*
X0565575Y0505575D01*
X0564425Y0505575D01*
X0564425Y0510125D01*
X0561072Y0510125D01*
X0560275Y0509999D01*
X0559508Y0509750D01*
X0558789Y0509383D01*
X0558136Y0508909D01*
X0557566Y0508339D01*
X0557092Y0507686D01*
X0556725Y0506967D01*
X0556476Y0506200D01*
X0556377Y0505575D01*
X0564425Y0505575D01*
X0564425Y0504425D01*
X0565575Y0504425D01*
X0573623Y0504425D01*
X0573524Y0503800D01*
X0573275Y0503033D01*
X0572908Y0502314D01*
X0572434Y0501661D01*
X0571864Y0501091D01*
X0571211Y0500617D01*
X0570492Y0500250D01*
X0569725Y0500001D01*
X0568928Y0499875D01*
X0565575Y0499875D01*
X0565575Y0504425D01*
X0565575Y0503578D02*
X0564425Y0503578D01*
X0564425Y0504425D02*
X0564425Y0499875D01*
X0561072Y0499875D01*
X0560275Y0500001D01*
X0559508Y0500250D01*
X0558789Y0500617D01*
X0558136Y0501091D01*
X0557566Y0501661D01*
X0557092Y0502314D01*
X0556725Y0503033D01*
X0556476Y0503800D01*
X0556377Y0504425D01*
X0564425Y0504425D01*
X0564425Y0504777D02*
X0290000Y0504777D01*
X0290000Y0505975D02*
X0331835Y0505975D01*
X0332010Y0505800D02*
X0329550Y0508260D01*
X0329550Y0509800D01*
X0333550Y0509800D01*
X0333550Y0510200D01*
X0333550Y0514200D01*
X0332010Y0514200D01*
X0329550Y0511740D01*
X0329550Y0510200D01*
X0333550Y0510200D01*
X0333950Y0510200D01*
X0333950Y0514200D01*
X0335490Y0514200D01*
X0337950Y0511740D01*
X0337950Y0510200D01*
X0333950Y0510200D01*
X0333950Y0509800D01*
X0337950Y0509800D01*
X0337950Y0508260D01*
X0335490Y0505800D01*
X0333950Y0505800D01*
X0333950Y0509800D01*
X0333550Y0509800D01*
X0333550Y0505800D01*
X0332010Y0505800D01*
X0333550Y0505975D02*
X0333950Y0505975D01*
X0333950Y0507174D02*
X0333550Y0507174D01*
X0333550Y0508372D02*
X0333950Y0508372D01*
X0333950Y0509571D02*
X0333550Y0509571D01*
X0333550Y0510769D02*
X0333950Y0510769D01*
X0333950Y0511968D02*
X0333550Y0511968D01*
X0333550Y0513166D02*
X0333950Y0513166D01*
X0336523Y0513166D02*
X0340977Y0513166D01*
X0339778Y0511968D02*
X0337722Y0511968D01*
X0337950Y0510769D02*
X0339550Y0510769D01*
X0339550Y0509571D02*
X0337950Y0509571D01*
X0337950Y0508372D02*
X0339550Y0508372D01*
X0340637Y0507174D02*
X0336863Y0507174D01*
X0335665Y0505975D02*
X0341835Y0505975D01*
X0346863Y0507174D02*
X0350637Y0507174D01*
X0349550Y0508372D02*
X0347950Y0508372D01*
X0347950Y0509571D02*
X0349550Y0509571D01*
X0349550Y0510769D02*
X0347950Y0510769D01*
X0347722Y0511968D02*
X0349778Y0511968D01*
X0350977Y0513166D02*
X0346523Y0513166D01*
X0338462Y0516762D02*
X0318779Y0516762D01*
X0319842Y0517960D02*
X0337475Y0517960D01*
X0337031Y0519159D02*
X0320339Y0519159D01*
X0320357Y0520357D02*
X0336954Y0520357D01*
X0337239Y0521556D02*
X0320043Y0521556D01*
X0319262Y0522754D02*
X0337965Y0522754D01*
X0339724Y0523953D02*
X0317278Y0523953D01*
X0315000Y0525151D02*
X0280000Y0525151D01*
X0280000Y0526350D02*
X0284418Y0526350D01*
X0283245Y0527548D02*
X0280000Y0527548D01*
X0280000Y0528747D02*
X0282749Y0528747D01*
X0282593Y0529945D02*
X0280000Y0529945D01*
X0280000Y0531144D02*
X0282704Y0531144D01*
X0283200Y0532342D02*
X0280000Y0532342D01*
X0283200Y0532342D01*
X0284308Y0533541D02*
X0280000Y0533541D01*
X0284308Y0533541D01*
X0289600Y0535938D02*
X0290400Y0535938D01*
X0290400Y0537137D02*
X0289600Y0537137D01*
X0289600Y0538335D02*
X0290400Y0538335D01*
X0290400Y0539534D02*
X0289600Y0539534D01*
X0290400Y0540400D02*
X0297594Y0540400D01*
X0297487Y0541077D01*
X0297263Y0541766D01*
X0296934Y0542411D01*
X0296509Y0542997D01*
X0295997Y0543509D01*
X0295411Y0543934D01*
X0294766Y0544263D01*
X0294077Y0544487D01*
X0293362Y0544600D01*
X0290400Y0544600D01*
X0290400Y0540400D01*
X0290400Y0540732D02*
X0289600Y0540732D01*
X0289600Y0541931D02*
X0290400Y0541931D01*
X0290400Y0543129D02*
X0289600Y0543129D01*
X0289600Y0544328D02*
X0290400Y0544328D01*
X0294567Y0544328D02*
X0855000Y0544328D01*
X0855000Y0555000D02*
X0795000Y0555000D01*
X0795000Y0595000D01*
X0855000Y0595000D01*
X0855000Y0555000D01*
X0855000Y0555114D02*
X0795000Y0555114D01*
X0795000Y0556313D02*
X0855000Y0556313D01*
X0855000Y0557511D02*
X0795000Y0557511D01*
X0795000Y0558710D02*
X0855000Y0558710D01*
X0855000Y0559908D02*
X0795000Y0559908D01*
X0795000Y0561107D02*
X0855000Y0561107D01*
X0855000Y0562305D02*
X0795000Y0562305D01*
X0795000Y0563504D02*
X0855000Y0563504D01*
X0855000Y0564702D02*
X0795000Y0564702D01*
X0795000Y0565901D02*
X0855000Y0565901D01*
X0855000Y0567099D02*
X0795000Y0567099D01*
X0795000Y0568298D02*
X0855000Y0568298D01*
X0855000Y0569496D02*
X0795000Y0569496D01*
X0795000Y0570695D02*
X0855000Y0570695D01*
X0855000Y0571893D02*
X0795000Y0571893D01*
X0795000Y0573092D02*
X0855000Y0573092D01*
X0855000Y0574290D02*
X0795000Y0574290D01*
X0795000Y0575489D02*
X0855000Y0575489D01*
X0855000Y0576687D02*
X0795000Y0576687D01*
X0795000Y0577886D02*
X0855000Y0577886D01*
X0855000Y0579084D02*
X0795000Y0579084D01*
X0795000Y0580283D02*
X0855000Y0580283D01*
X0855000Y0581481D02*
X0795000Y0581481D01*
X0795000Y0582680D02*
X0855000Y0582680D01*
X0855000Y0583878D02*
X0795000Y0583878D01*
X0795000Y0585077D02*
X0855000Y0585077D01*
X0855000Y0586275D02*
X0795000Y0586275D01*
X0795000Y0587474D02*
X0855000Y0587474D01*
X0855000Y0588672D02*
X0795000Y0588672D01*
X0795000Y0589871D02*
X0855000Y0589871D01*
X0855000Y0591070D02*
X0795000Y0591070D01*
X0795000Y0592268D02*
X0855000Y0592268D01*
X0855000Y0593467D02*
X0795000Y0593467D01*
X0795000Y0594665D02*
X0855000Y0594665D01*
X0845575Y0529945D02*
X0844425Y0529945D01*
X0844425Y0528747D02*
X0845575Y0528747D01*
X0845575Y0527548D02*
X0844425Y0527548D01*
X0844425Y0526350D02*
X0845575Y0526350D01*
X0845575Y0525151D02*
X0855000Y0525151D01*
X0845575Y0523953D02*
X0844425Y0523953D01*
X0844425Y0524425D02*
X0844425Y0519875D01*
X0841072Y0519875D01*
X0840275Y0520001D01*
X0839508Y0520250D01*
X0838789Y0520617D01*
X0838136Y0521091D01*
X0837566Y0521661D01*
X0837092Y0522314D01*
X0836725Y0523033D01*
X0836476Y0523800D01*
X0836377Y0524425D01*
X0844425Y0524425D01*
X0844425Y0525151D02*
X0705575Y0525151D01*
X0705575Y0525575D02*
X0713623Y0525575D01*
X0713524Y0526200D01*
X0713275Y0526967D01*
X0712908Y0527686D01*
X0712434Y0528339D01*
X0711864Y0528909D01*
X0711211Y0529383D01*
X0710492Y0529750D01*
X0709725Y0529999D01*
X0708928Y0530125D01*
X0705575Y0530125D01*
X0705575Y0525575D01*
X0704425Y0525575D01*
X0704425Y0530125D01*
X0701072Y0530125D01*
X0700275Y0529999D01*
X0699508Y0529750D01*
X0698789Y0529383D01*
X0698136Y0528909D01*
X0697566Y0528339D01*
X0697092Y0527686D01*
X0696725Y0526967D01*
X0696476Y0526200D01*
X0696377Y0525575D01*
X0704425Y0525575D01*
X0704425Y0524425D01*
X0705575Y0524425D01*
X0705575Y0525575D01*
X0705575Y0526350D02*
X0704425Y0526350D01*
X0704425Y0527548D02*
X0705575Y0527548D01*
X0705575Y0528747D02*
X0704425Y0528747D01*
X0704425Y0529945D02*
X0705575Y0529945D01*
X0709889Y0529945D02*
X0840111Y0529945D01*
X0837974Y0528747D02*
X0712026Y0528747D01*
X0712978Y0527548D02*
X0837022Y0527548D01*
X0836525Y0526350D02*
X0713475Y0526350D01*
X0713623Y0524425D02*
X0705575Y0524425D01*
X0705575Y0519875D01*
X0708928Y0519875D01*
X0709725Y0520001D01*
X0710492Y0520250D01*
X0711211Y0520617D01*
X0711864Y0521091D01*
X0712434Y0521661D01*
X0712908Y0522314D01*
X0713275Y0523033D01*
X0713524Y0523800D01*
X0713623Y0524425D01*
X0713548Y0523953D02*
X0836452Y0523953D01*
X0836867Y0522754D02*
X0713133Y0522754D01*
X0712329Y0521556D02*
X0837671Y0521556D01*
X0839298Y0520357D02*
X0710702Y0520357D01*
X0705575Y0520357D02*
X0704425Y0520357D01*
X0704425Y0519875D02*
X0704425Y0524425D01*
X0696377Y0524425D01*
X0696476Y0523800D01*
X0696725Y0523033D01*
X0697092Y0522314D01*
X0697566Y0521661D01*
X0698136Y0521091D01*
X0698789Y0520617D01*
X0699508Y0520250D01*
X0700275Y0520001D01*
X0701072Y0519875D01*
X0704425Y0519875D01*
X0704425Y0521556D02*
X0705575Y0521556D01*
X0705575Y0522754D02*
X0704425Y0522754D01*
X0704425Y0523953D02*
X0705575Y0523953D01*
X0704425Y0525151D02*
X0565575Y0525151D01*
X0565575Y0525575D02*
X0573623Y0525575D01*
X0573524Y0526200D01*
X0573275Y0526967D01*
X0572908Y0527686D01*
X0572434Y0528339D01*
X0571864Y0528909D01*
X0571211Y0529383D01*
X0570492Y0529750D01*
X0569725Y0529999D01*
X0568928Y0530125D01*
X0565575Y0530125D01*
X0565575Y0525575D01*
X0565575Y0526350D02*
X0564425Y0526350D01*
X0564425Y0527548D02*
X0565575Y0527548D01*
X0565575Y0528747D02*
X0564425Y0528747D01*
X0564425Y0529945D02*
X0565575Y0529945D01*
X0569889Y0529945D02*
X0700111Y0529945D01*
X0697974Y0528747D02*
X0572026Y0528747D01*
X0572978Y0527548D02*
X0697022Y0527548D01*
X0696525Y0526350D02*
X0573475Y0526350D01*
X0573623Y0524425D02*
X0565575Y0524425D01*
X0565575Y0519875D01*
X0568928Y0519875D01*
X0569725Y0520001D01*
X0570492Y0520250D01*
X0571211Y0520617D01*
X0571864Y0521091D01*
X0572434Y0521661D01*
X0572908Y0522314D01*
X0573275Y0523033D01*
X0573524Y0523800D01*
X0573623Y0524425D01*
X0573548Y0523953D02*
X0696452Y0523953D01*
X0696867Y0522754D02*
X0573133Y0522754D01*
X0572329Y0521556D02*
X0697671Y0521556D01*
X0699298Y0520357D02*
X0570702Y0520357D01*
X0565575Y0520357D02*
X0564425Y0520357D01*
X0564425Y0521556D02*
X0565575Y0521556D01*
X0565575Y0522754D02*
X0564425Y0522754D01*
X0564425Y0523953D02*
X0565575Y0523953D01*
X0564425Y0525151D02*
X0315000Y0525151D01*
X0315000Y0515563D02*
X0855000Y0515563D01*
X0545000Y0515563D01*
X0545000Y0514365D02*
X0855000Y0514365D01*
X0290000Y0514365D01*
X0290000Y0513166D02*
X0321249Y0513166D01*
X0322090Y0514007D02*
X0319743Y0511660D01*
X0319743Y0508340D01*
X0322090Y0505993D01*
X0325410Y0505993D01*
X0327757Y0508340D01*
X0327757Y0511660D01*
X0325410Y0514007D01*
X0322090Y0514007D01*
X0320051Y0511968D02*
X0290000Y0511968D01*
X0290000Y0510769D02*
X0319743Y0510769D01*
X0319743Y0509571D02*
X0290000Y0509571D01*
X0290000Y0508372D02*
X0319743Y0508372D01*
X0320909Y0507174D02*
X0290000Y0507174D01*
X0290000Y0503578D02*
X0556548Y0503578D01*
X0557058Y0502380D02*
X0290000Y0502380D01*
X0290000Y0501181D02*
X0558046Y0501181D01*
X0560392Y0499983D02*
X0302156Y0499983D01*
X0301823Y0500152D02*
X0301112Y0500383D01*
X0300374Y0500500D01*
X0300200Y0500500D01*
X0300200Y0495950D01*
X0299800Y0495950D01*
X0299800Y0500500D01*
X0299626Y0500500D01*
X0298888Y0500383D01*
X0298177Y0500152D01*
X0297510Y0499813D01*
X0296906Y0499373D01*
X0296377Y0498844D01*
X0295937Y0498240D01*
X0295598Y0497573D01*
X0295367Y0496862D01*
X0295250Y0496124D01*
X0295250Y0495950D01*
X0299800Y0495950D01*
X0299800Y0495550D01*
X0295250Y0495550D01*
X0295250Y0495376D01*
X0295367Y0494638D01*
X0295598Y0493927D01*
X0295937Y0493260D01*
X0296377Y0492656D01*
X0296906Y0492127D01*
X0297510Y0491687D01*
X0298177Y0491348D01*
X0298888Y0491117D01*
X0299626Y0491000D01*
X0299800Y0491000D01*
X0299800Y0495550D01*
X0300200Y0495550D01*
X0300200Y0495950D01*
X0304750Y0495950D01*
X0304750Y0496124D01*
X0304633Y0496862D01*
X0304402Y0497573D01*
X0304063Y0498240D01*
X0303623Y0498844D01*
X0303094Y0499373D01*
X0302490Y0499813D01*
X0301823Y0500152D01*
X0300200Y0499983D02*
X0299800Y0499983D01*
X0299800Y0498784D02*
X0300200Y0498784D01*
X0300200Y0497586D02*
X0299800Y0497586D01*
X0299800Y0496387D02*
X0300200Y0496387D01*
X0300200Y0495550D02*
X0304750Y0495550D01*
X0304750Y0495376D01*
X0304633Y0494638D01*
X0304402Y0493927D01*
X0304063Y0493260D01*
X0303623Y0492656D01*
X0303094Y0492127D01*
X0302490Y0491687D01*
X0301823Y0491348D01*
X0301112Y0491117D01*
X0300374Y0491000D01*
X0300200Y0491000D01*
X0300200Y0495550D01*
X0300200Y0495189D02*
X0299800Y0495189D01*
X0299800Y0493990D02*
X0300200Y0493990D01*
X0300200Y0492792D02*
X0299800Y0492792D01*
X0299800Y0491593D02*
X0300200Y0491593D01*
X0302304Y0491593D02*
X0855000Y0491593D01*
X0855000Y0490395D02*
X0847512Y0490395D01*
X0848711Y0489196D02*
X0855000Y0489196D01*
X0855000Y0492792D02*
X0303722Y0492792D01*
X0304423Y0493990D02*
X0855000Y0493990D01*
X0855000Y0495189D02*
X0545000Y0495189D01*
X0545000Y0496387D02*
X0855000Y0496387D01*
X0304708Y0496387D01*
X0304720Y0495189D02*
X0855000Y0495189D01*
X0855000Y0497586D02*
X0545000Y0497586D01*
X0545000Y0498784D02*
X0855000Y0498784D01*
X0303667Y0498784D01*
X0304396Y0497586D02*
X0855000Y0497586D01*
X0855000Y0499983D02*
X0545000Y0499983D01*
X0545000Y0501181D02*
X0855000Y0501181D01*
X0851954Y0501181D01*
X0852942Y0502380D02*
X0855000Y0502380D01*
X0545000Y0502380D01*
X0545000Y0503578D02*
X0855000Y0503578D01*
X0853452Y0503578D01*
X0855000Y0499983D02*
X0849608Y0499983D01*
X0845575Y0499983D02*
X0844425Y0499983D01*
X0844425Y0501181D02*
X0845575Y0501181D01*
X0845575Y0502380D02*
X0844425Y0502380D01*
X0844425Y0505975D02*
X0845575Y0505975D01*
X0845575Y0507174D02*
X0844425Y0507174D01*
X0844425Y0508372D02*
X0845575Y0508372D01*
X0845575Y0509571D02*
X0844425Y0509571D01*
X0839157Y0509571D02*
X0710843Y0509571D01*
X0710492Y0509750D02*
X0709725Y0509999D01*
X0708928Y0510125D01*
X0705575Y0510125D01*
X0705575Y0505575D01*
X0713623Y0505575D01*
X0713524Y0506200D01*
X0713275Y0506967D01*
X0712908Y0507686D01*
X0712434Y0508339D01*
X0711864Y0508909D01*
X0711211Y0509383D01*
X0710492Y0509750D01*
X0712401Y0508372D02*
X0837599Y0508372D01*
X0836831Y0507174D02*
X0713169Y0507174D01*
X0713559Y0505975D02*
X0836441Y0505975D01*
X0836548Y0503578D02*
X0713452Y0503578D01*
X0712942Y0502380D02*
X0837058Y0502380D01*
X0838046Y0501181D02*
X0711954Y0501181D01*
X0709608Y0499983D02*
X0840392Y0499983D01*
X0842488Y0490395D02*
X0290000Y0490395D01*
X0290000Y0491593D02*
X0297696Y0491593D01*
X0296278Y0492792D02*
X0290000Y0492792D01*
X0290000Y0493990D02*
X0295577Y0493990D01*
X0295280Y0495189D02*
X0290000Y0495189D01*
X0290000Y0496387D02*
X0295292Y0496387D01*
X0295604Y0497586D02*
X0290000Y0497586D01*
X0290000Y0498784D02*
X0296333Y0498784D01*
X0297844Y0499983D02*
X0290000Y0499983D01*
X0290000Y0489196D02*
X0841289Y0489196D01*
X0844425Y0520357D02*
X0845575Y0520357D01*
X0845575Y0521556D02*
X0844425Y0521556D01*
X0844425Y0522754D02*
X0845575Y0522754D01*
X0850000Y0450000D02*
X0840000Y0450000D01*
X0795000Y0405000D01*
X0795000Y0381131D01*
X0795307Y0381131D01*
X0796131Y0380307D01*
X0796131Y0369693D01*
X0795307Y0368869D01*
X0795000Y0368869D01*
X0795000Y0365000D01*
X0858750Y0365000D01*
X0858750Y0441250D01*
X0850000Y0450000D01*
X0850355Y0449645D02*
X0839645Y0449645D01*
X0838447Y0448447D02*
X0851553Y0448447D01*
X0852752Y0447248D02*
X0837248Y0447248D01*
X0836050Y0446050D02*
X0853950Y0446050D01*
X0855149Y0444851D02*
X0834851Y0444851D01*
X0833653Y0443653D02*
X0856347Y0443653D01*
X0857546Y0442454D02*
X0832454Y0442454D01*
X0831256Y0441256D02*
X0858744Y0441256D01*
X0858750Y0440057D02*
X0830057Y0440057D01*
X0828859Y0438859D02*
X0858750Y0438859D01*
X0858750Y0437660D02*
X0827660Y0437660D01*
X0826462Y0436462D02*
X0858750Y0436462D01*
X0858750Y0435263D02*
X0825263Y0435263D01*
X0824065Y0434065D02*
X0858750Y0434065D01*
X0858750Y0432866D02*
X0822866Y0432866D01*
X0821668Y0431668D02*
X0858750Y0431668D01*
X0858750Y0430469D02*
X0820469Y0430469D01*
X0819270Y0429270D02*
X0858750Y0429270D01*
X0858750Y0428072D02*
X0818072Y0428072D01*
X0816873Y0426873D02*
X0858750Y0426873D01*
X0858750Y0425675D02*
X0815675Y0425675D01*
X0814476Y0424476D02*
X0858750Y0424476D01*
X0858750Y0423278D02*
X0813278Y0423278D01*
X0812079Y0422079D02*
X0858750Y0422079D01*
X0858750Y0420881D02*
X0810881Y0420881D01*
X0809682Y0419682D02*
X0858750Y0419682D01*
X0858750Y0418484D02*
X0808484Y0418484D01*
X0807285Y0417285D02*
X0858750Y0417285D01*
X0858750Y0416087D02*
X0806087Y0416087D01*
X0804888Y0414888D02*
X0858750Y0414888D01*
X0858750Y0413690D02*
X0803690Y0413690D01*
X0802491Y0412491D02*
X0858750Y0412491D01*
X0858750Y0411293D02*
X0801293Y0411293D01*
X0800094Y0410094D02*
X0858750Y0410094D01*
X0858750Y0408896D02*
X0798896Y0408896D01*
X0797697Y0407697D02*
X0858750Y0407697D01*
X0858750Y0406499D02*
X0796499Y0406499D01*
X0795300Y0405300D02*
X0858750Y0405300D01*
X0858750Y0404102D02*
X0795000Y0404102D01*
X0795000Y0402903D02*
X0858750Y0402903D01*
X0858750Y0401705D02*
X0795000Y0401705D01*
X0795000Y0400506D02*
X0858750Y0400506D01*
X0858750Y0399308D02*
X0795000Y0399308D01*
X0795000Y0398109D02*
X0858750Y0398109D01*
X0858750Y0396911D02*
X0795000Y0396911D01*
X0795000Y0395712D02*
X0858750Y0395712D01*
X0858750Y0394514D02*
X0795000Y0394514D01*
X0795000Y0393315D02*
X0858750Y0393315D01*
X0858750Y0392117D02*
X0795000Y0392117D01*
X0795000Y0390918D02*
X0858750Y0390918D01*
X0858750Y0389720D02*
X0795000Y0389720D01*
X0795000Y0388521D02*
X0858750Y0388521D01*
X0858750Y0387323D02*
X0795000Y0387323D01*
X0795000Y0386124D02*
X0858750Y0386124D01*
X0858750Y0384926D02*
X0795000Y0384926D01*
X0795000Y0383727D02*
X0858750Y0383727D01*
X0858750Y0382529D02*
X0795000Y0382529D01*
X0795000Y0381330D02*
X0858750Y0381330D01*
X0858750Y0380132D02*
X0796131Y0380132D01*
X0796131Y0378933D02*
X0858750Y0378933D01*
X0858750Y0377734D02*
X0796131Y0377734D01*
X0796131Y0376536D02*
X0858750Y0376536D01*
X0858750Y0375337D02*
X0796131Y0375337D01*
X0796131Y0374139D02*
X0858750Y0374139D01*
X0858750Y0372940D02*
X0796131Y0372940D01*
X0796131Y0371742D02*
X0858750Y0371742D01*
X0858750Y0370543D02*
X0796131Y0370543D01*
X0795784Y0369345D02*
X0858750Y0369345D01*
X0858750Y0368146D02*
X0795000Y0368146D01*
X0795000Y0366948D02*
X0858750Y0366948D01*
X0858750Y0365749D02*
X0795000Y0365749D01*
X0747500Y0360000D02*
X0858750Y0360000D01*
X0858750Y0291375D01*
X0858625Y0291250D01*
X0747500Y0291250D01*
X0747500Y0360000D01*
X0747500Y0359757D02*
X0858750Y0359757D01*
X0858750Y0358558D02*
X0747500Y0358558D01*
X0747500Y0357360D02*
X0858750Y0357360D01*
X0858750Y0356161D02*
X0747500Y0356161D01*
X0747500Y0354963D02*
X0858750Y0354963D01*
X0858750Y0353764D02*
X0747500Y0353764D01*
X0747500Y0352566D02*
X0858750Y0352566D01*
X0858750Y0351367D02*
X0747500Y0351367D01*
X0747500Y0350169D02*
X0858750Y0350169D01*
X0858750Y0348970D02*
X0747500Y0348970D01*
X0747500Y0347772D02*
X0858750Y0347772D01*
X0858750Y0346573D02*
X0747500Y0346573D01*
X0747500Y0345375D02*
X0858750Y0345375D01*
X0858750Y0344176D02*
X0747500Y0344176D01*
X0747500Y0342978D02*
X0858750Y0342978D01*
X0858750Y0341779D02*
X0747500Y0341779D01*
X0747500Y0340581D02*
X0858750Y0340581D01*
X0858750Y0339382D02*
X0747500Y0339382D01*
X0747500Y0338184D02*
X0858750Y0338184D01*
X0858750Y0336985D02*
X0840826Y0336985D01*
X0840154Y0337657D02*
X0834846Y0337657D01*
X0831093Y0333904D01*
X0831093Y0328596D01*
X0834846Y0324843D01*
X0840154Y0324843D01*
X0843907Y0328596D01*
X0843907Y0333904D01*
X0840154Y0337657D01*
X0842024Y0335787D02*
X0858750Y0335787D01*
X0858750Y0334588D02*
X0843223Y0334588D01*
X0843907Y0333390D02*
X0858750Y0333390D01*
X0858750Y0332191D02*
X0843907Y0332191D01*
X0843907Y0330993D02*
X0858750Y0330993D01*
X0858750Y0329794D02*
X0843907Y0329794D01*
X0843907Y0328596D02*
X0858750Y0328596D01*
X0858750Y0327397D02*
X0842708Y0327397D01*
X0841509Y0326199D02*
X0858750Y0326199D01*
X0858750Y0325000D02*
X0840311Y0325000D01*
X0834689Y0325000D02*
X0747500Y0325000D01*
X0747500Y0323801D02*
X0858750Y0323801D01*
X0858750Y0322603D02*
X0747500Y0322603D01*
X0747500Y0321404D02*
X0858750Y0321404D01*
X0858750Y0320206D02*
X0747500Y0320206D01*
X0747500Y0319007D02*
X0858750Y0319007D01*
X0858750Y0317809D02*
X0747500Y0317809D01*
X0747500Y0316610D02*
X0858750Y0316610D01*
X0858750Y0315412D02*
X0747500Y0315412D01*
X0747500Y0314213D02*
X0858750Y0314213D01*
X0858750Y0313015D02*
X0747500Y0313015D01*
X0747500Y0311816D02*
X0858750Y0311816D01*
X0858750Y0310618D02*
X0747500Y0310618D01*
X0747500Y0309419D02*
X0858750Y0309419D01*
X0858750Y0308221D02*
X0747500Y0308221D01*
X0747500Y0307022D02*
X0858750Y0307022D01*
X0858750Y0305824D02*
X0747500Y0305824D01*
X0747500Y0304625D02*
X0858750Y0304625D01*
X0858750Y0303427D02*
X0747500Y0303427D01*
X0747500Y0302228D02*
X0858750Y0302228D01*
X0858750Y0301030D02*
X0747500Y0301030D01*
X0747500Y0299831D02*
X0858750Y0299831D01*
X0858750Y0298633D02*
X0747500Y0298633D01*
X0747500Y0297434D02*
X0858750Y0297434D01*
X0858750Y0296236D02*
X0747500Y0296236D01*
X0747500Y0295037D02*
X0858750Y0295037D01*
X0858750Y0293839D02*
X0747500Y0293839D01*
X0747500Y0292640D02*
X0858750Y0292640D01*
X0858750Y0291442D02*
X0747500Y0291442D01*
X0720000Y0291442D02*
X0607500Y0291442D01*
X0607500Y0291250D02*
X0607500Y0360000D01*
X0720000Y0360000D01*
X0720000Y0291250D01*
X0607500Y0291250D01*
X0607500Y0292640D02*
X0720000Y0292640D01*
X0720000Y0293839D02*
X0607500Y0293839D01*
X0607500Y0295037D02*
X0720000Y0295037D01*
X0720000Y0296236D02*
X0607500Y0296236D01*
X0607500Y0297434D02*
X0720000Y0297434D01*
X0720000Y0298633D02*
X0607500Y0298633D01*
X0607500Y0299831D02*
X0720000Y0299831D01*
X0720000Y0301030D02*
X0607500Y0301030D01*
X0607500Y0302228D02*
X0720000Y0302228D01*
X0720000Y0303427D02*
X0607500Y0303427D01*
X0607500Y0304625D02*
X0720000Y0304625D01*
X0720000Y0305824D02*
X0607500Y0305824D01*
X0607500Y0307022D02*
X0720000Y0307022D01*
X0720000Y0308221D02*
X0607500Y0308221D01*
X0607500Y0309419D02*
X0720000Y0309419D01*
X0720000Y0310618D02*
X0607500Y0310618D01*
X0607500Y0311816D02*
X0720000Y0311816D01*
X0720000Y0313015D02*
X0607500Y0313015D01*
X0607500Y0314213D02*
X0720000Y0314213D01*
X0720000Y0315412D02*
X0607500Y0315412D01*
X0607500Y0316610D02*
X0720000Y0316610D01*
X0720000Y0317809D02*
X0607500Y0317809D01*
X0607500Y0319007D02*
X0720000Y0319007D01*
X0720000Y0320206D02*
X0607500Y0320206D01*
X0607500Y0321404D02*
X0720000Y0321404D01*
X0720000Y0322603D02*
X0607500Y0322603D01*
X0607500Y0323801D02*
X0694638Y0323801D01*
X0694846Y0323593D02*
X0700154Y0323593D01*
X0703907Y0327346D01*
X0703907Y0332654D01*
X0700154Y0336407D01*
X0694846Y0336407D01*
X0691093Y0332654D01*
X0691093Y0327346D01*
X0694846Y0323593D01*
X0693439Y0325000D02*
X0607500Y0325000D01*
X0607500Y0326199D02*
X0692241Y0326199D01*
X0691093Y0327397D02*
X0607500Y0327397D01*
X0607500Y0328596D02*
X0691093Y0328596D01*
X0691093Y0329794D02*
X0607500Y0329794D01*
X0607500Y0330993D02*
X0691093Y0330993D01*
X0691093Y0332191D02*
X0607500Y0332191D01*
X0607500Y0333390D02*
X0691829Y0333390D01*
X0693027Y0334588D02*
X0607500Y0334588D01*
X0607500Y0335787D02*
X0694226Y0335787D01*
X0700774Y0335787D02*
X0720000Y0335787D01*
X0720000Y0336985D02*
X0607500Y0336985D01*
X0607500Y0338184D02*
X0720000Y0338184D01*
X0720000Y0339382D02*
X0607500Y0339382D01*
X0607500Y0340581D02*
X0720000Y0340581D01*
X0720000Y0341779D02*
X0607500Y0341779D01*
X0607500Y0342978D02*
X0720000Y0342978D01*
X0720000Y0344176D02*
X0607500Y0344176D01*
X0607500Y0345375D02*
X0720000Y0345375D01*
X0720000Y0346573D02*
X0607500Y0346573D01*
X0607500Y0347772D02*
X0720000Y0347772D01*
X0720000Y0348970D02*
X0607500Y0348970D01*
X0607500Y0350169D02*
X0720000Y0350169D01*
X0720000Y0351367D02*
X0607500Y0351367D01*
X0607500Y0352566D02*
X0720000Y0352566D01*
X0720000Y0353764D02*
X0607500Y0353764D01*
X0607500Y0354963D02*
X0720000Y0354963D01*
X0720000Y0356161D02*
X0607500Y0356161D01*
X0607500Y0357360D02*
X0720000Y0357360D01*
X0720000Y0358558D02*
X0607500Y0358558D01*
X0607500Y0359757D02*
X0720000Y0359757D01*
X0720000Y0365000D02*
X0655000Y0365000D01*
X0655000Y0368869D01*
X0655307Y0368869D01*
X0656131Y0369693D01*
X0656131Y0380307D01*
X0655307Y0381131D01*
X0655000Y0381131D01*
X0655000Y0405000D01*
X0700000Y0450000D01*
X0710000Y0450000D01*
X0720000Y0440000D01*
X0720000Y0365000D01*
X0720000Y0365749D02*
X0655000Y0365749D01*
X0655000Y0366948D02*
X0720000Y0366948D01*
X0720000Y0368146D02*
X0655000Y0368146D01*
X0655784Y0369345D02*
X0720000Y0369345D01*
X0720000Y0370543D02*
X0656131Y0370543D01*
X0656131Y0371742D02*
X0720000Y0371742D01*
X0720000Y0372940D02*
X0656131Y0372940D01*
X0656131Y0374139D02*
X0720000Y0374139D01*
X0720000Y0375337D02*
X0656131Y0375337D01*
X0656131Y0376536D02*
X0720000Y0376536D01*
X0720000Y0377734D02*
X0656131Y0377734D01*
X0656131Y0378933D02*
X0720000Y0378933D01*
X0720000Y0380132D02*
X0656131Y0380132D01*
X0655000Y0381330D02*
X0720000Y0381330D01*
X0720000Y0382529D02*
X0655000Y0382529D01*
X0655000Y0383727D02*
X0720000Y0383727D01*
X0720000Y0384926D02*
X0655000Y0384926D01*
X0655000Y0386124D02*
X0720000Y0386124D01*
X0720000Y0387323D02*
X0655000Y0387323D01*
X0655000Y0388521D02*
X0720000Y0388521D01*
X0720000Y0389720D02*
X0655000Y0389720D01*
X0655000Y0390918D02*
X0720000Y0390918D01*
X0720000Y0392117D02*
X0655000Y0392117D01*
X0655000Y0393315D02*
X0720000Y0393315D01*
X0720000Y0394514D02*
X0655000Y0394514D01*
X0655000Y0395712D02*
X0720000Y0395712D01*
X0720000Y0396911D02*
X0655000Y0396911D01*
X0655000Y0398109D02*
X0720000Y0398109D01*
X0720000Y0399308D02*
X0655000Y0399308D01*
X0655000Y0400506D02*
X0720000Y0400506D01*
X0720000Y0401705D02*
X0655000Y0401705D01*
X0655000Y0402903D02*
X0720000Y0402903D01*
X0720000Y0404102D02*
X0655000Y0404102D01*
X0655300Y0405300D02*
X0720000Y0405300D01*
X0720000Y0406499D02*
X0656499Y0406499D01*
X0657697Y0407697D02*
X0720000Y0407697D01*
X0720000Y0408896D02*
X0658896Y0408896D01*
X0660094Y0410094D02*
X0720000Y0410094D01*
X0720000Y0411293D02*
X0661293Y0411293D01*
X0662491Y0412491D02*
X0720000Y0412491D01*
X0720000Y0413690D02*
X0663690Y0413690D01*
X0664888Y0414888D02*
X0720000Y0414888D01*
X0720000Y0416087D02*
X0666087Y0416087D01*
X0667285Y0417285D02*
X0720000Y0417285D01*
X0720000Y0418484D02*
X0668484Y0418484D01*
X0669682Y0419682D02*
X0720000Y0419682D01*
X0720000Y0420881D02*
X0670881Y0420881D01*
X0672079Y0422079D02*
X0720000Y0422079D01*
X0720000Y0423278D02*
X0673278Y0423278D01*
X0674476Y0424476D02*
X0720000Y0424476D01*
X0720000Y0425675D02*
X0675675Y0425675D01*
X0676873Y0426873D02*
X0720000Y0426873D01*
X0720000Y0428072D02*
X0678072Y0428072D01*
X0679270Y0429270D02*
X0720000Y0429270D01*
X0720000Y0430469D02*
X0680469Y0430469D01*
X0681668Y0431668D02*
X0720000Y0431668D01*
X0720000Y0432866D02*
X0682866Y0432866D01*
X0684065Y0434065D02*
X0720000Y0434065D01*
X0720000Y0435263D02*
X0685263Y0435263D01*
X0686462Y0436462D02*
X0720000Y0436462D01*
X0720000Y0437660D02*
X0687660Y0437660D01*
X0688859Y0438859D02*
X0720000Y0438859D01*
X0719943Y0440057D02*
X0690057Y0440057D01*
X0691256Y0441256D02*
X0718744Y0441256D01*
X0717546Y0442454D02*
X0692454Y0442454D01*
X0693653Y0443653D02*
X0716347Y0443653D01*
X0715149Y0444851D02*
X0694851Y0444851D01*
X0696050Y0446050D02*
X0713950Y0446050D01*
X0712752Y0447248D02*
X0697248Y0447248D01*
X0698447Y0448447D02*
X0711553Y0448447D01*
X0710355Y0449645D02*
X0699645Y0449645D01*
X0700392Y0499983D02*
X0569608Y0499983D01*
X0571954Y0501181D02*
X0698046Y0501181D01*
X0697058Y0502380D02*
X0572942Y0502380D01*
X0573452Y0503578D02*
X0696548Y0503578D01*
X0696441Y0505975D02*
X0573559Y0505975D01*
X0573524Y0506200D02*
X0573275Y0506967D01*
X0572908Y0507686D01*
X0572434Y0508339D01*
X0571864Y0508909D01*
X0571211Y0509383D01*
X0570492Y0509750D01*
X0569725Y0509999D01*
X0568928Y0510125D01*
X0565575Y0510125D01*
X0565575Y0505575D01*
X0573623Y0505575D01*
X0573524Y0506200D01*
X0573169Y0507174D02*
X0696831Y0507174D01*
X0697599Y0508372D02*
X0572401Y0508372D01*
X0570843Y0509571D02*
X0699157Y0509571D01*
X0704425Y0509571D02*
X0705575Y0509571D01*
X0705575Y0508372D02*
X0704425Y0508372D01*
X0704425Y0507174D02*
X0705575Y0507174D01*
X0705575Y0505975D02*
X0704425Y0505975D01*
X0704425Y0502380D02*
X0705575Y0502380D01*
X0705575Y0501181D02*
X0704425Y0501181D01*
X0704425Y0499983D02*
X0705575Y0499983D01*
X0715000Y0555000D02*
X0655000Y0555000D01*
X0655000Y0595000D01*
X0715000Y0595000D01*
X0715000Y0555000D01*
X0715000Y0555114D02*
X0655000Y0555114D01*
X0655000Y0556313D02*
X0715000Y0556313D01*
X0715000Y0557511D02*
X0655000Y0557511D01*
X0655000Y0558710D02*
X0715000Y0558710D01*
X0715000Y0559908D02*
X0655000Y0559908D01*
X0655000Y0561107D02*
X0715000Y0561107D01*
X0715000Y0562305D02*
X0655000Y0562305D01*
X0655000Y0563504D02*
X0715000Y0563504D01*
X0715000Y0564702D02*
X0655000Y0564702D01*
X0655000Y0565901D02*
X0715000Y0565901D01*
X0715000Y0567099D02*
X0655000Y0567099D01*
X0655000Y0568298D02*
X0715000Y0568298D01*
X0715000Y0569496D02*
X0655000Y0569496D01*
X0655000Y0570695D02*
X0715000Y0570695D01*
X0715000Y0571893D02*
X0655000Y0571893D01*
X0655000Y0573092D02*
X0715000Y0573092D01*
X0715000Y0574290D02*
X0655000Y0574290D01*
X0655000Y0575489D02*
X0715000Y0575489D01*
X0715000Y0576687D02*
X0655000Y0576687D01*
X0655000Y0577886D02*
X0715000Y0577886D01*
X0715000Y0579084D02*
X0655000Y0579084D01*
X0655000Y0580283D02*
X0715000Y0580283D01*
X0715000Y0581481D02*
X0655000Y0581481D01*
X0655000Y0582680D02*
X0715000Y0582680D01*
X0715000Y0583878D02*
X0655000Y0583878D01*
X0655000Y0585077D02*
X0715000Y0585077D01*
X0715000Y0586275D02*
X0655000Y0586275D01*
X0655000Y0587474D02*
X0715000Y0587474D01*
X0715000Y0588672D02*
X0655000Y0588672D01*
X0655000Y0589871D02*
X0715000Y0589871D01*
X0715000Y0591070D02*
X0655000Y0591070D01*
X0655000Y0592268D02*
X0715000Y0592268D01*
X0715000Y0593467D02*
X0655000Y0593467D01*
X0655000Y0594665D02*
X0715000Y0594665D01*
X0575000Y0594665D02*
X0485000Y0594665D01*
X0485000Y0595000D02*
X0575000Y0595000D01*
X0575000Y0555000D01*
X0485000Y0555000D01*
X0485000Y0595000D01*
X0485000Y0593467D02*
X0575000Y0593467D01*
X0575000Y0592268D02*
X0485000Y0592268D01*
X0485000Y0591070D02*
X0575000Y0591070D01*
X0575000Y0589871D02*
X0485000Y0589871D01*
X0485000Y0588672D02*
X0575000Y0588672D01*
X0575000Y0587474D02*
X0485000Y0587474D01*
X0485000Y0586275D02*
X0575000Y0586275D01*
X0575000Y0585077D02*
X0485000Y0585077D01*
X0485000Y0583878D02*
X0575000Y0583878D01*
X0575000Y0582680D02*
X0485000Y0582680D01*
X0485000Y0581481D02*
X0575000Y0581481D01*
X0575000Y0580283D02*
X0485000Y0580283D01*
X0485000Y0579084D02*
X0575000Y0579084D01*
X0575000Y0577886D02*
X0485000Y0577886D01*
X0485000Y0576687D02*
X0575000Y0576687D01*
X0575000Y0575489D02*
X0485000Y0575489D01*
X0485000Y0574290D02*
X0575000Y0574290D01*
X0575000Y0573092D02*
X0485000Y0573092D01*
X0485000Y0571893D02*
X0575000Y0571893D01*
X0575000Y0570695D02*
X0485000Y0570695D01*
X0485000Y0569496D02*
X0575000Y0569496D01*
X0575000Y0568298D02*
X0485000Y0568298D01*
X0485000Y0567099D02*
X0575000Y0567099D01*
X0575000Y0565901D02*
X0485000Y0565901D01*
X0485000Y0564702D02*
X0575000Y0564702D01*
X0575000Y0563504D02*
X0485000Y0563504D01*
X0485000Y0562305D02*
X0575000Y0562305D01*
X0575000Y0561107D02*
X0485000Y0561107D01*
X0485000Y0559908D02*
X0575000Y0559908D01*
X0575000Y0558710D02*
X0485000Y0558710D01*
X0485000Y0557511D02*
X0575000Y0557511D01*
X0575000Y0556313D02*
X0485000Y0556313D01*
X0485000Y0555114D02*
X0575000Y0555114D01*
X0565575Y0509571D02*
X0564425Y0509571D01*
X0564425Y0508372D02*
X0565575Y0508372D01*
X0565575Y0507174D02*
X0564425Y0507174D01*
X0564425Y0505975D02*
X0565575Y0505975D01*
X0565575Y0502380D02*
X0564425Y0502380D01*
X0564425Y0501181D02*
X0565575Y0501181D01*
X0565575Y0499983D02*
X0564425Y0499983D01*
X0556441Y0505975D02*
X0355665Y0505975D01*
X0356863Y0507174D02*
X0556831Y0507174D01*
X0557599Y0508372D02*
X0357950Y0508372D01*
X0357950Y0509571D02*
X0559157Y0509571D01*
X0545000Y0450000D02*
X0575000Y0450000D01*
X0580000Y0445000D01*
X0580000Y0365000D01*
X0485000Y0365000D01*
X0485000Y0368869D01*
X0485307Y0368869D01*
X0486131Y0369693D01*
X0486131Y0380307D01*
X0485307Y0381131D01*
X0485000Y0381131D01*
X0485000Y0390000D01*
X0545000Y0450000D01*
X0544645Y0449645D02*
X0575355Y0449645D01*
X0576553Y0448447D02*
X0543447Y0448447D01*
X0542248Y0447248D02*
X0577752Y0447248D01*
X0578950Y0446050D02*
X0541050Y0446050D01*
X0539851Y0444851D02*
X0580000Y0444851D01*
X0580000Y0443653D02*
X0538653Y0443653D01*
X0537454Y0442454D02*
X0580000Y0442454D01*
X0580000Y0441256D02*
X0536256Y0441256D01*
X0535057Y0440057D02*
X0580000Y0440057D01*
X0580000Y0438859D02*
X0533859Y0438859D01*
X0532660Y0437660D02*
X0580000Y0437660D01*
X0580000Y0436462D02*
X0531462Y0436462D01*
X0530263Y0435263D02*
X0580000Y0435263D01*
X0580000Y0434065D02*
X0529065Y0434065D01*
X0527866Y0432866D02*
X0580000Y0432866D01*
X0580000Y0431668D02*
X0526668Y0431668D01*
X0525469Y0430469D02*
X0580000Y0430469D01*
X0580000Y0429270D02*
X0524270Y0429270D01*
X0523072Y0428072D02*
X0580000Y0428072D01*
X0580000Y0426873D02*
X0521873Y0426873D01*
X0520675Y0425675D02*
X0580000Y0425675D01*
X0580000Y0424476D02*
X0519476Y0424476D01*
X0518278Y0423278D02*
X0580000Y0423278D01*
X0580000Y0422079D02*
X0517079Y0422079D01*
X0515881Y0420881D02*
X0580000Y0420881D01*
X0580000Y0419682D02*
X0514682Y0419682D01*
X0513484Y0418484D02*
X0580000Y0418484D01*
X0580000Y0417285D02*
X0512285Y0417285D01*
X0511087Y0416087D02*
X0580000Y0416087D01*
X0580000Y0414888D02*
X0509888Y0414888D01*
X0508690Y0413690D02*
X0580000Y0413690D01*
X0580000Y0412491D02*
X0507491Y0412491D01*
X0506293Y0411293D02*
X0580000Y0411293D01*
X0580000Y0410094D02*
X0505094Y0410094D01*
X0503896Y0408896D02*
X0580000Y0408896D01*
X0580000Y0407697D02*
X0502697Y0407697D01*
X0501499Y0406499D02*
X0580000Y0406499D01*
X0580000Y0405300D02*
X0500300Y0405300D01*
X0499102Y0404102D02*
X0580000Y0404102D01*
X0580000Y0402903D02*
X0497903Y0402903D01*
X0496705Y0401705D02*
X0580000Y0401705D01*
X0580000Y0400506D02*
X0495506Y0400506D01*
X0494308Y0399308D02*
X0580000Y0399308D01*
X0580000Y0398109D02*
X0493109Y0398109D01*
X0491911Y0396911D02*
X0580000Y0396911D01*
X0580000Y0395712D02*
X0490712Y0395712D01*
X0489514Y0394514D02*
X0580000Y0394514D01*
X0580000Y0393315D02*
X0488315Y0393315D01*
X0487117Y0392117D02*
X0580000Y0392117D01*
X0580000Y0390918D02*
X0485918Y0390918D01*
X0485000Y0389720D02*
X0580000Y0389720D01*
X0580000Y0388521D02*
X0485000Y0388521D01*
X0485000Y0387323D02*
X0580000Y0387323D01*
X0580000Y0386124D02*
X0485000Y0386124D01*
X0485000Y0384926D02*
X0580000Y0384926D01*
X0580000Y0383727D02*
X0485000Y0383727D01*
X0485000Y0382529D02*
X0580000Y0382529D01*
X0580000Y0381330D02*
X0485000Y0381330D01*
X0486131Y0380132D02*
X0580000Y0380132D01*
X0580000Y0378933D02*
X0486131Y0378933D01*
X0486131Y0377734D02*
X0580000Y0377734D01*
X0580000Y0376536D02*
X0486131Y0376536D01*
X0486131Y0375337D02*
X0580000Y0375337D01*
X0580000Y0374139D02*
X0486131Y0374139D01*
X0486131Y0372940D02*
X0580000Y0372940D01*
X0580000Y0371742D02*
X0486131Y0371742D01*
X0486131Y0370543D02*
X0580000Y0370543D01*
X0580000Y0369345D02*
X0485784Y0369345D01*
X0485000Y0368146D02*
X0580000Y0368146D01*
X0580000Y0366948D02*
X0485000Y0366948D01*
X0485000Y0365749D02*
X0580000Y0365749D01*
X0580000Y0360000D02*
X0580000Y0291250D01*
X0467500Y0292500D01*
X0467500Y0360000D01*
X0580000Y0360000D01*
X0580000Y0359757D02*
X0467500Y0359757D01*
X0467500Y0358558D02*
X0580000Y0358558D01*
X0580000Y0357360D02*
X0467500Y0357360D01*
X0467500Y0356161D02*
X0580000Y0356161D01*
X0580000Y0354963D02*
X0467500Y0354963D01*
X0467500Y0353764D02*
X0580000Y0353764D01*
X0580000Y0352566D02*
X0467500Y0352566D01*
X0467500Y0351367D02*
X0580000Y0351367D01*
X0580000Y0350169D02*
X0467500Y0350169D01*
X0467500Y0348970D02*
X0580000Y0348970D01*
X0580000Y0347772D02*
X0467500Y0347772D01*
X0467500Y0346573D02*
X0580000Y0346573D01*
X0580000Y0345375D02*
X0467500Y0345375D01*
X0467500Y0344176D02*
X0580000Y0344176D01*
X0580000Y0342978D02*
X0467500Y0342978D01*
X0467500Y0341779D02*
X0580000Y0341779D01*
X0580000Y0340581D02*
X0467500Y0340581D01*
X0467500Y0339382D02*
X0580000Y0339382D01*
X0580000Y0338184D02*
X0467500Y0338184D01*
X0467500Y0336985D02*
X0580000Y0336985D01*
X0580000Y0335787D02*
X0560774Y0335787D01*
X0560154Y0336407D02*
X0554846Y0336407D01*
X0551093Y0332654D01*
X0551093Y0327346D01*
X0554846Y0323593D01*
X0560154Y0323593D01*
X0563907Y0327346D01*
X0563907Y0332654D01*
X0560154Y0336407D01*
X0561973Y0334588D02*
X0580000Y0334588D01*
X0580000Y0333390D02*
X0563171Y0333390D01*
X0563907Y0332191D02*
X0580000Y0332191D01*
X0580000Y0330993D02*
X0563907Y0330993D01*
X0563907Y0329794D02*
X0580000Y0329794D01*
X0580000Y0328596D02*
X0563907Y0328596D01*
X0563907Y0327397D02*
X0580000Y0327397D01*
X0580000Y0326199D02*
X0562759Y0326199D01*
X0561561Y0325000D02*
X0580000Y0325000D01*
X0580000Y0323801D02*
X0560362Y0323801D01*
X0554638Y0323801D02*
X0467500Y0323801D01*
X0467500Y0322603D02*
X0580000Y0322603D01*
X0580000Y0321404D02*
X0467500Y0321404D01*
X0467500Y0320206D02*
X0580000Y0320206D01*
X0580000Y0319007D02*
X0467500Y0319007D01*
X0467500Y0317809D02*
X0580000Y0317809D01*
X0580000Y0316610D02*
X0467500Y0316610D01*
X0467500Y0315412D02*
X0580000Y0315412D01*
X0580000Y0314213D02*
X0467500Y0314213D01*
X0467500Y0313015D02*
X0580000Y0313015D01*
X0580000Y0311816D02*
X0467500Y0311816D01*
X0467500Y0310618D02*
X0580000Y0310618D01*
X0580000Y0309419D02*
X0467500Y0309419D01*
X0467500Y0308221D02*
X0580000Y0308221D01*
X0580000Y0307022D02*
X0467500Y0307022D01*
X0467500Y0305824D02*
X0580000Y0305824D01*
X0580000Y0304625D02*
X0467500Y0304625D01*
X0467500Y0303427D02*
X0580000Y0303427D01*
X0580000Y0302228D02*
X0467500Y0302228D01*
X0467500Y0301030D02*
X0580000Y0301030D01*
X0580000Y0299831D02*
X0467500Y0299831D01*
X0467500Y0298633D02*
X0580000Y0298633D01*
X0580000Y0297434D02*
X0467500Y0297434D01*
X0467500Y0296236D02*
X0580000Y0296236D01*
X0580000Y0295037D02*
X0467500Y0295037D01*
X0467500Y0293839D02*
X0580000Y0293839D01*
X0580000Y0292640D02*
X0467500Y0292640D01*
X0467500Y0325000D02*
X0553439Y0325000D01*
X0552241Y0326199D02*
X0467500Y0326199D01*
X0467500Y0327397D02*
X0551093Y0327397D01*
X0551093Y0328596D02*
X0467500Y0328596D01*
X0467500Y0329794D02*
X0551093Y0329794D01*
X0551093Y0330993D02*
X0467500Y0330993D01*
X0467500Y0332191D02*
X0551093Y0332191D01*
X0551829Y0333390D02*
X0467500Y0333390D01*
X0467500Y0334588D02*
X0553027Y0334588D01*
X0554226Y0335787D02*
X0467500Y0335787D01*
X0562749Y0291442D02*
X0580000Y0291442D01*
X0700362Y0323801D02*
X0720000Y0323801D01*
X0720000Y0325000D02*
X0701561Y0325000D01*
X0702759Y0326199D02*
X0720000Y0326199D01*
X0720000Y0327397D02*
X0703907Y0327397D01*
X0703907Y0328596D02*
X0720000Y0328596D01*
X0720000Y0329794D02*
X0703907Y0329794D01*
X0703907Y0330993D02*
X0720000Y0330993D01*
X0720000Y0332191D02*
X0703907Y0332191D01*
X0703171Y0333390D02*
X0720000Y0333390D01*
X0720000Y0334588D02*
X0701973Y0334588D01*
X0747500Y0334588D02*
X0831777Y0334588D01*
X0831093Y0333390D02*
X0747500Y0333390D01*
X0747500Y0332191D02*
X0831093Y0332191D01*
X0831093Y0330993D02*
X0747500Y0330993D01*
X0747500Y0329794D02*
X0831093Y0329794D01*
X0831093Y0328596D02*
X0747500Y0328596D01*
X0747500Y0327397D02*
X0832292Y0327397D01*
X0833491Y0326199D02*
X0747500Y0326199D01*
X0747500Y0335787D02*
X0832976Y0335787D01*
X0834174Y0336985D02*
X0747500Y0336985D01*
X0371924Y0537137D02*
X0296605Y0537137D01*
X0297296Y0538335D02*
X0370800Y0538335D01*
X0370800Y0539534D02*
X0297583Y0539534D01*
X0297541Y0540732D02*
X0370800Y0540732D01*
X0370991Y0541931D02*
X0297179Y0541931D01*
X0296376Y0543129D02*
X0372189Y0543129D01*
X0330977Y0513166D02*
X0326251Y0513166D01*
X0327449Y0511968D02*
X0329778Y0511968D01*
X0329550Y0510769D02*
X0327757Y0510769D01*
X0327757Y0509571D02*
X0329550Y0509571D01*
X0329550Y0508372D02*
X0327757Y0508372D01*
X0326591Y0507174D02*
X0330637Y0507174D01*
D28*
X0385000Y0483750D03*
X0385000Y0555000D03*
D29*
X0385000Y0565000D01*
X0387500Y0567500D01*
X0385000Y0567500D01*
X0382500Y0567500D01*
X0380000Y0570000D01*
X0375000Y0570000D01*
X0390000Y0570000D01*
X0445000Y0625000D01*
X0472500Y0625000D01*
X0477500Y0625000D01*
X0475000Y0622500D01*
X0475000Y0605000D01*
X0465000Y0605000D02*
X0465000Y0575000D01*
X0475000Y0622500D02*
X0472500Y0625000D01*
X0477500Y0625000D02*
X0642500Y0625000D01*
X0647500Y0625000D01*
X0645000Y0622500D01*
X0642500Y0625000D01*
X0645000Y0622500D02*
X0645000Y0605000D01*
X0645000Y0603750D01*
X0635000Y0605000D02*
X0635000Y0575000D01*
X0647500Y0625000D02*
X0745000Y0625000D01*
X0755000Y0615000D01*
X0782500Y0615000D01*
X0785000Y0612500D01*
X0785000Y0605000D01*
X0775000Y0605000D02*
X0775000Y0575000D01*
X0390000Y0570000D02*
X0387500Y0567500D01*
X0385000Y0565000D02*
X0382500Y0567500D01*
X0343750Y0480000D02*
X0343750Y0457500D01*
X0355000Y0435000D02*
X0365000Y0435000D01*
X0365000Y0425000D02*
X0355000Y0425000D01*
X0355000Y0415000D02*
X0365000Y0415000D01*
X0365000Y0405000D02*
X0355000Y0405000D01*
X0355000Y0395000D02*
X0365000Y0395000D01*
X0365000Y0385000D02*
X0355000Y0385000D01*
D30*
X0385000Y0385000D02*
X0387500Y0387500D01*
X0477500Y0387500D01*
X0480000Y0385000D01*
X0480000Y0375000D01*
X0480000Y0355000D01*
X0485000Y0357500D02*
X0480000Y0362500D01*
X0475000Y0357500D01*
X0490000Y0385000D02*
X0480000Y0395000D01*
X0493750Y0395000D01*
X0495000Y0396250D01*
X0480000Y0395000D02*
X0385000Y0395000D01*
X0385000Y0405000D02*
X0437500Y0457500D01*
X0592500Y0457500D01*
X0650000Y0400000D01*
X0650000Y0375000D01*
X0650000Y0365000D01*
X0650000Y0360000D01*
X0650000Y0355000D01*
X0660000Y0400000D02*
X0655000Y0405000D01*
X0653750Y0406250D01*
X0663750Y0406250D01*
X0660000Y0405000D02*
X0655000Y0405000D01*
X0653750Y0406250D02*
X0595000Y0465000D01*
X0435000Y0465000D01*
X0385000Y0415000D01*
X0385000Y0425000D02*
X0432500Y0472500D01*
X0716250Y0472500D01*
X0790000Y0398750D01*
X0790000Y0375000D01*
X0790000Y0365000D01*
X0790000Y0360000D01*
X0790000Y0355000D01*
X0800000Y0400000D02*
X0795000Y0405000D01*
X0793750Y0406250D01*
X0803750Y0406250D01*
X0800000Y0405000D02*
X0795000Y0405000D01*
X0793750Y0406250D02*
X0720000Y0480000D01*
X0430000Y0480000D01*
X0385000Y0435000D01*
X0535000Y0590000D02*
X0542500Y0597500D01*
X0542500Y0605000D01*
X0542500Y0597500D01*
X0550000Y0590000D01*
X0542500Y0590000D02*
X0542500Y0605000D01*
X0677500Y0590000D02*
X0685000Y0597500D01*
X0685000Y0605000D01*
X0685000Y0597500D01*
X0692500Y0590000D01*
X0685000Y0590000D02*
X0685000Y0605000D01*
X0817500Y0590000D02*
X0825000Y0597500D01*
X0825000Y0605000D01*
X0825000Y0597500D01*
X0832500Y0590000D01*
X0825000Y0590000D02*
X0825000Y0605000D01*
D31*
X0790000Y0365000D02*
X0785000Y0360000D01*
X0790000Y0360000D01*
X0795000Y0360000D01*
X0790000Y0365000D01*
X0655000Y0360000D02*
X0650000Y0360000D01*
X0645000Y0360000D01*
X0650000Y0365000D01*
X0655000Y0360000D01*
D32*
X0490000Y0390000D02*
X0490000Y0392500D01*
X0482500Y0392500D01*
M02*
