G04 EAGLE Gerber RS-274X export*
G75*
%MOMM*%
%FSLAX34Y34*%
%LPD*%
%INSolderpaste Top*%
%IPPOS*%
%AMOC8*
5,1,8,0,0,1.08239X$1,22.5*%
G01*
%ADD10R,1.500000X1.300000*%
%ADD11R,1.300000X1.500000*%
%ADD12R,0.600000X1.700000*%
%ADD13R,1.000000X2.700000*%
%ADD14R,1.700000X0.600000*%
%ADD15R,2.700000X1.000000*%
%ADD16R,1.600000X1.803000*%
%ADD17R,1.400000X1.000000*%
%ADD18R,2.000000X1.600000*%
%ADD19R,1.600000X2.000000*%
%ADD20R,1.803000X1.600000*%
%ADD21R,1.600200X1.168400*%
%ADD22R,0.609600X1.524000*%
%ADD23R,1.000000X1.100000*%


D10*
X330200Y219100D03*
X330200Y238100D03*
X229870Y219100D03*
X229870Y238100D03*
D11*
X352400Y304800D03*
X333400Y304800D03*
X263500Y304800D03*
X244500Y304800D03*
D10*
X153670Y207670D03*
X153670Y226670D03*
X154940Y292760D03*
X154940Y311760D03*
D12*
X438250Y270900D03*
X450750Y270900D03*
D13*
X481750Y302900D03*
X407250Y302900D03*
D12*
X463250Y270900D03*
X425750Y270900D03*
X603350Y270900D03*
X615850Y270900D03*
D13*
X646850Y302900D03*
X572350Y302900D03*
D12*
X628350Y270900D03*
X590850Y270900D03*
D14*
X626500Y44350D03*
X626500Y31850D03*
D15*
X658500Y13350D03*
X658500Y62850D03*
D16*
X484120Y25400D03*
X455680Y25400D03*
X485390Y63500D03*
X456950Y63500D03*
X628400Y90170D03*
X656840Y90170D03*
X628400Y179070D03*
X656840Y179070D03*
D17*
X432640Y24130D03*
X410640Y14630D03*
X410640Y33630D03*
X432640Y58420D03*
X410640Y48920D03*
X410640Y67920D03*
D10*
X203200Y85700D03*
X203200Y66700D03*
D18*
X546100Y240000D03*
X546100Y268000D03*
D19*
X430500Y203200D03*
X458500Y203200D03*
D18*
X508000Y240000D03*
X508000Y268000D03*
D19*
X510510Y60960D03*
X538510Y60960D03*
D20*
X132080Y182630D03*
X132080Y211070D03*
X176530Y198370D03*
X176530Y169930D03*
X132080Y271530D03*
X132080Y299970D03*
X177800Y286000D03*
X177800Y257560D03*
D19*
X510510Y25400D03*
X538510Y25400D03*
D11*
X423570Y88900D03*
X442570Y88900D03*
D10*
X228600Y85700D03*
X228600Y66700D03*
D11*
X352400Y88900D03*
X333400Y88900D03*
X603860Y88900D03*
X584860Y88900D03*
X603860Y179070D03*
X584860Y179070D03*
D10*
X176530Y85700D03*
X176530Y66700D03*
X129540Y85700D03*
X129540Y66700D03*
D19*
X458500Y241300D03*
X430500Y241300D03*
D21*
X72390Y226060D03*
X72390Y241300D03*
X72390Y138430D03*
X72390Y153670D03*
D17*
X85520Y191770D03*
X107520Y201270D03*
X107520Y182270D03*
X85520Y278130D03*
X107520Y287630D03*
X107520Y268630D03*
D22*
X387350Y280924D03*
X387350Y227076D03*
X374650Y280924D03*
X361950Y280924D03*
X374650Y227076D03*
X361950Y227076D03*
X349250Y280924D03*
X349250Y227076D03*
X285750Y280924D03*
X285750Y227076D03*
X273050Y280924D03*
X260350Y280924D03*
X273050Y227076D03*
X260350Y227076D03*
X247650Y280924D03*
X247650Y227076D03*
D14*
X59300Y184250D03*
X59300Y196750D03*
D15*
X27300Y227750D03*
X27300Y153250D03*
D14*
X59300Y209250D03*
X59300Y171750D03*
X59300Y273150D03*
X59300Y285650D03*
D15*
X27300Y316650D03*
X27300Y242150D03*
D14*
X59300Y298150D03*
X59300Y260650D03*
D23*
X380120Y91440D03*
X397120Y91440D03*
M02*
