G75*
%MOIN*%
%OFA0B0*%
%FSLAX25Y25*%
%IPPOS*%
%LPD*%
%AMOC8*
5,1,8,0,0,1.08239X$1,22.5*
%
%ADD10C,0.13398*%
%ADD11R,0.02375X0.03556*%
%ADD12C,0.06800*%
%ADD13OC8,0.06800*%
%ADD14R,0.05524X0.05524*%
%ADD15R,0.06706X0.05918*%
%ADD16R,0.05918X0.06706*%
%ADD17C,0.06600*%
%ADD18C,0.09068*%
%ADD19C,0.05400*%
%ADD20C,0.05800*%
D10*
X0058428Y0054933D03*
X0233428Y0054933D03*
X0233428Y0329933D03*
X0058428Y0329933D03*
D11*
X0148369Y0085780D03*
X0148369Y0079087D03*
X0150928Y0079087D03*
X0153488Y0079087D03*
X0153488Y0085780D03*
D12*
X0165928Y0060433D02*
X0165928Y0054433D01*
X0175928Y0054433D02*
X0175928Y0060433D01*
X0135928Y0060433D02*
X0135928Y0054433D01*
X0125928Y0054433D02*
X0125928Y0060433D01*
X0115928Y0060433D02*
X0115928Y0054433D01*
X0225428Y0083433D02*
X0231428Y0083433D01*
X0231428Y0093433D02*
X0225428Y0093433D01*
X0225928Y0122933D02*
X0231928Y0122933D01*
X0231928Y0132933D02*
X0225928Y0132933D01*
X0225928Y0164933D02*
X0231928Y0164933D01*
X0231928Y0174933D02*
X0225928Y0174933D01*
X0225428Y0200433D02*
X0231428Y0200433D01*
X0231428Y0210433D02*
X0225428Y0210433D01*
X0225428Y0236933D02*
X0231428Y0236933D01*
X0231428Y0246933D02*
X0225428Y0246933D01*
X0225428Y0273933D02*
X0231428Y0273933D01*
X0231428Y0283933D02*
X0225428Y0283933D01*
X0178928Y0287433D02*
X0172928Y0287433D01*
X0172928Y0297433D02*
X0178928Y0297433D01*
X0178928Y0262433D02*
X0172928Y0262433D01*
X0172928Y0252433D02*
X0178928Y0252433D01*
X0178928Y0227433D02*
X0172928Y0227433D01*
X0172928Y0217433D02*
X0178928Y0217433D01*
X0178928Y0188433D02*
X0172928Y0188433D01*
X0172928Y0178433D02*
X0178928Y0178433D01*
D13*
X0180928Y0132433D03*
X0180928Y0122433D03*
X0170928Y0122433D03*
X0170928Y0132433D03*
X0160928Y0132433D03*
X0160928Y0122433D03*
X0150928Y0122433D03*
X0150928Y0132433D03*
X0140928Y0132433D03*
X0130928Y0132433D03*
X0130928Y0122433D03*
X0140928Y0122433D03*
X0120928Y0122433D03*
X0120928Y0132433D03*
X0110928Y0132433D03*
X0110928Y0122433D03*
X0100928Y0122433D03*
X0100928Y0132433D03*
X0090928Y0132433D03*
X0090928Y0122433D03*
X0080928Y0122433D03*
X0070928Y0122433D03*
X0070928Y0132433D03*
X0080928Y0132433D03*
D14*
X0086795Y0102433D03*
X0095062Y0102433D03*
X0110928Y0086567D03*
X0110928Y0078299D03*
X0099562Y0059933D03*
X0091295Y0059933D03*
X0185928Y0078299D03*
X0185928Y0086567D03*
D15*
X0175928Y0086173D03*
X0175928Y0078693D03*
X0165928Y0078693D03*
X0165928Y0086173D03*
X0130928Y0086173D03*
X0130928Y0078693D03*
X0120928Y0078693D03*
X0120928Y0086173D03*
X0084928Y0088673D03*
X0084928Y0081193D03*
D16*
X0107188Y0102433D03*
X0114669Y0102433D03*
D17*
X0110928Y0157433D03*
X0100928Y0157433D03*
X0090928Y0157433D03*
X0080928Y0157433D03*
X0080928Y0167433D03*
X0080928Y0177433D03*
X0080928Y0187433D03*
X0080928Y0197433D03*
X0080928Y0207433D03*
X0080928Y0217433D03*
X0080928Y0227433D03*
X0080928Y0237433D03*
X0080928Y0247433D03*
X0080928Y0257433D03*
X0080928Y0267433D03*
X0080928Y0277433D03*
X0080928Y0287433D03*
X0140928Y0287433D03*
X0140928Y0277433D03*
X0140928Y0267433D03*
X0140928Y0257433D03*
X0140928Y0247433D03*
X0140928Y0237433D03*
X0140928Y0227433D03*
X0140928Y0217433D03*
X0140928Y0207433D03*
X0140928Y0197433D03*
X0140928Y0187433D03*
X0140928Y0177433D03*
X0140928Y0167433D03*
X0140928Y0157433D03*
X0130928Y0157433D03*
X0120928Y0157433D03*
D18*
X0066062Y0096201D02*
X0057795Y0096201D01*
X0057795Y0079272D02*
X0066062Y0079272D01*
D19*
X0070928Y0112433D03*
X0117178Y0071808D03*
X0122178Y0103058D03*
D20*
X0140928Y0082433D03*
M02*
