G75*
%MOIN*%
%OFA0B0*%
%FSLAX25Y25*%
%IPPOS*%
%LPD*%
%AMOC8*
5,1,8,0,0,1.08239X$1,22.5*
%
%ADD10C,0.00300*%
%ADD11C,0.00500*%
%ADD12C,0.00600*%
%ADD13R,0.00591X0.01181*%
%ADD14R,0.01181X0.01181*%
%ADD15R,0.01181X0.00591*%
%ADD16C,0.00800*%
%ADD17C,0.00200*%
D10*
X0090578Y0051083D02*
X0090578Y0054786D01*
X0092430Y0054786D01*
X0093047Y0054169D01*
X0093047Y0052935D01*
X0092430Y0052317D01*
X0090578Y0052317D01*
X0094262Y0051083D02*
X0095496Y0052317D01*
X0096730Y0051083D01*
X0096730Y0054786D01*
X0097945Y0054786D02*
X0099796Y0054786D01*
X0100414Y0054169D01*
X0100414Y0052935D01*
X0099796Y0052317D01*
X0097945Y0052317D01*
X0097945Y0051083D02*
X0097945Y0054786D01*
X0099179Y0052317D02*
X0100414Y0051083D01*
X0094262Y0051083D02*
X0094262Y0054786D01*
X0095280Y0108083D02*
X0094045Y0109317D01*
X0094663Y0109317D02*
X0092811Y0109317D01*
X0092811Y0108083D02*
X0092811Y0111786D01*
X0094663Y0111786D01*
X0095280Y0111169D01*
X0095280Y0109935D01*
X0094663Y0109317D01*
X0096494Y0108700D02*
X0097111Y0108083D01*
X0098346Y0108083D01*
X0098963Y0108700D01*
X0098963Y0109317D01*
X0098346Y0109935D01*
X0097111Y0109935D01*
X0096494Y0110552D01*
X0096494Y0111169D01*
X0097111Y0111786D01*
X0098346Y0111786D01*
X0098963Y0111169D01*
X0099475Y0113083D02*
X0098508Y0114051D01*
X0098508Y0115018D01*
X0099475Y0115986D01*
X0100472Y0115502D02*
X0100956Y0115986D01*
X0101924Y0115986D01*
X0102407Y0115502D01*
X0100472Y0113567D01*
X0100956Y0113083D01*
X0101924Y0113083D01*
X0102407Y0113567D01*
X0102407Y0115502D01*
X0103419Y0115986D02*
X0104386Y0115018D01*
X0104386Y0114051D01*
X0103419Y0113083D01*
X0103860Y0111786D02*
X0103860Y0108083D01*
X0103860Y0109317D02*
X0106329Y0111786D01*
X0107544Y0111786D02*
X0108778Y0111786D01*
X0108161Y0111786D02*
X0108161Y0108083D01*
X0107544Y0108083D02*
X0108778Y0108083D01*
X0109999Y0108083D02*
X0109999Y0111786D01*
X0111760Y0113083D02*
X0112727Y0113083D01*
X0113211Y0113567D01*
X0113211Y0114534D01*
X0112244Y0114534D01*
X0111276Y0115502D02*
X0111276Y0113567D01*
X0111760Y0113083D01*
X0113682Y0111786D02*
X0113682Y0108083D01*
X0116151Y0108083D01*
X0117365Y0108083D02*
X0117365Y0111786D01*
X0119834Y0111786D01*
X0121048Y0111786D02*
X0121048Y0108083D01*
X0122900Y0108083D01*
X0123517Y0108700D01*
X0123517Y0111169D01*
X0122900Y0111786D01*
X0121048Y0111786D01*
X0120600Y0113083D02*
X0121567Y0113083D01*
X0122051Y0113567D01*
X0122051Y0114534D01*
X0121083Y0114534D01*
X0120116Y0113567D02*
X0120600Y0113083D01*
X0120116Y0113567D02*
X0120116Y0115502D01*
X0120600Y0115986D01*
X0121567Y0115986D01*
X0122051Y0115502D01*
X0126009Y0115018D02*
X0126009Y0114051D01*
X0126976Y0113083D01*
X0127973Y0113083D02*
X0129908Y0113083D01*
X0128941Y0113083D02*
X0128941Y0115986D01*
X0127973Y0115018D01*
X0126976Y0115986D02*
X0126009Y0115018D01*
X0130920Y0115018D02*
X0131403Y0114534D01*
X0132855Y0114534D01*
X0132855Y0113567D02*
X0132855Y0115502D01*
X0132371Y0115986D01*
X0131403Y0115986D01*
X0130920Y0115502D01*
X0130920Y0115018D01*
X0130920Y0113567D02*
X0131403Y0113083D01*
X0132371Y0113083D01*
X0132855Y0113567D01*
X0133866Y0113083D02*
X0134834Y0114051D01*
X0134834Y0115018D01*
X0133866Y0115986D01*
X0138777Y0115018D02*
X0138777Y0114051D01*
X0139745Y0113083D01*
X0140741Y0113083D02*
X0142676Y0113083D01*
X0141709Y0113083D02*
X0141709Y0115986D01*
X0140741Y0115018D01*
X0139745Y0115986D02*
X0138777Y0115018D01*
X0143688Y0115018D02*
X0143688Y0115502D01*
X0144172Y0115986D01*
X0145139Y0115986D01*
X0145623Y0115502D01*
X0145623Y0115018D01*
X0145139Y0114534D01*
X0144172Y0114534D01*
X0143688Y0115018D01*
X0144172Y0114534D02*
X0143688Y0114051D01*
X0143688Y0113567D01*
X0144172Y0113083D01*
X0145139Y0113083D01*
X0145623Y0113567D01*
X0145623Y0114051D01*
X0145139Y0114534D01*
X0146634Y0113083D02*
X0147602Y0114051D01*
X0147602Y0115018D01*
X0146634Y0115986D01*
X0151545Y0115502D02*
X0151545Y0113567D01*
X0152029Y0113083D01*
X0152997Y0113083D01*
X0153480Y0113567D01*
X0153480Y0114534D01*
X0152513Y0114534D01*
X0153480Y0115502D02*
X0152997Y0115986D01*
X0152029Y0115986D01*
X0151545Y0115502D01*
X0157438Y0115018D02*
X0157438Y0114051D01*
X0158406Y0113083D01*
X0159403Y0113083D02*
X0161338Y0113083D01*
X0160370Y0113083D02*
X0160370Y0115986D01*
X0159403Y0115018D01*
X0158406Y0115986D02*
X0157438Y0115018D01*
X0162349Y0115986D02*
X0164284Y0115986D01*
X0164284Y0115502D01*
X0162349Y0113567D01*
X0162349Y0113083D01*
X0165296Y0113083D02*
X0166263Y0114051D01*
X0166263Y0115018D01*
X0165296Y0115986D01*
X0170207Y0115502D02*
X0170207Y0113567D01*
X0170690Y0113083D01*
X0171658Y0113083D01*
X0172142Y0113567D01*
X0172142Y0114534D01*
X0171174Y0114534D01*
X0170207Y0115502D02*
X0170690Y0115986D01*
X0171658Y0115986D01*
X0172142Y0115502D01*
X0176100Y0115018D02*
X0176100Y0114051D01*
X0177067Y0113083D01*
X0178064Y0113083D02*
X0179999Y0113083D01*
X0179031Y0113083D02*
X0179031Y0115986D01*
X0178064Y0115018D01*
X0177067Y0115986D02*
X0176100Y0115018D01*
X0181011Y0114534D02*
X0181011Y0113567D01*
X0181494Y0113083D01*
X0182462Y0113083D01*
X0182945Y0113567D01*
X0182945Y0114051D01*
X0182462Y0114534D01*
X0181011Y0114534D01*
X0181978Y0115502D01*
X0182945Y0115986D01*
X0183957Y0115986D02*
X0184925Y0115018D01*
X0184925Y0114051D01*
X0183957Y0113083D01*
X0181480Y0140083D02*
X0181963Y0140567D01*
X0181963Y0141534D01*
X0180996Y0141534D01*
X0180028Y0140567D02*
X0180512Y0140083D01*
X0181480Y0140083D01*
X0180028Y0140567D02*
X0180028Y0142502D01*
X0180512Y0142986D01*
X0181480Y0142986D01*
X0181963Y0142502D01*
X0176085Y0142018D02*
X0175117Y0142986D01*
X0174106Y0142986D02*
X0172171Y0142986D01*
X0172171Y0141534D01*
X0173138Y0142018D01*
X0173622Y0142018D01*
X0174106Y0141534D01*
X0174106Y0140567D01*
X0173622Y0140083D01*
X0172655Y0140083D01*
X0172171Y0140567D01*
X0171159Y0140083D02*
X0169224Y0140083D01*
X0170192Y0140083D02*
X0170192Y0142986D01*
X0169224Y0142018D01*
X0168228Y0142986D02*
X0167260Y0142018D01*
X0167260Y0141051D01*
X0168228Y0140083D01*
X0175117Y0140083D02*
X0176085Y0141051D01*
X0176085Y0142018D01*
X0160356Y0141534D02*
X0159388Y0141534D01*
X0160356Y0141534D02*
X0160356Y0140567D01*
X0159872Y0140083D01*
X0158904Y0140083D01*
X0158421Y0140567D01*
X0158421Y0142502D01*
X0158904Y0142986D01*
X0159872Y0142986D01*
X0160356Y0142502D01*
X0154477Y0142018D02*
X0153510Y0142986D01*
X0154477Y0142018D02*
X0154477Y0141051D01*
X0153510Y0140083D01*
X0152014Y0140083D02*
X0152014Y0142986D01*
X0150563Y0141534D01*
X0152498Y0141534D01*
X0149552Y0140083D02*
X0147617Y0140083D01*
X0148584Y0140083D02*
X0148584Y0142986D01*
X0147617Y0142018D01*
X0146620Y0142986D02*
X0145652Y0142018D01*
X0145652Y0141051D01*
X0146620Y0140083D01*
X0141694Y0140567D02*
X0141694Y0141534D01*
X0140727Y0141534D01*
X0141694Y0140567D02*
X0141210Y0140083D01*
X0140243Y0140083D01*
X0139759Y0140567D01*
X0139759Y0142502D01*
X0140243Y0142986D01*
X0141210Y0142986D01*
X0141694Y0142502D01*
X0135816Y0142018D02*
X0134848Y0142986D01*
X0133837Y0142502D02*
X0133837Y0142018D01*
X0133353Y0141534D01*
X0133837Y0141051D01*
X0133837Y0140567D01*
X0133353Y0140083D01*
X0132386Y0140083D01*
X0131902Y0140567D01*
X0130890Y0140083D02*
X0128955Y0140083D01*
X0129923Y0140083D02*
X0129923Y0142986D01*
X0128955Y0142018D01*
X0127958Y0142986D02*
X0126991Y0142018D01*
X0126991Y0141051D01*
X0127958Y0140083D01*
X0131902Y0142502D02*
X0132386Y0142986D01*
X0133353Y0142986D01*
X0133837Y0142502D01*
X0133353Y0141534D02*
X0132869Y0141534D01*
X0134848Y0140083D02*
X0135816Y0141051D01*
X0135816Y0142018D01*
X0120086Y0141534D02*
X0119119Y0141534D01*
X0120086Y0141534D02*
X0120086Y0140567D01*
X0119603Y0140083D01*
X0118635Y0140083D01*
X0118151Y0140567D01*
X0118151Y0142502D01*
X0118635Y0142986D01*
X0119603Y0142986D01*
X0120086Y0142502D01*
X0114208Y0142018D02*
X0113241Y0142986D01*
X0112229Y0142502D02*
X0112229Y0142018D01*
X0110294Y0140083D01*
X0112229Y0140083D01*
X0113241Y0140083D02*
X0114208Y0141051D01*
X0114208Y0142018D01*
X0112229Y0142502D02*
X0111745Y0142986D01*
X0110778Y0142986D01*
X0110294Y0142502D01*
X0108315Y0142986D02*
X0108315Y0140083D01*
X0107348Y0140083D02*
X0109283Y0140083D01*
X0107348Y0142018D02*
X0108315Y0142986D01*
X0106351Y0142986D02*
X0105383Y0142018D01*
X0105383Y0141051D01*
X0106351Y0140083D01*
X0101425Y0140567D02*
X0101425Y0141534D01*
X0100458Y0141534D01*
X0101425Y0140567D02*
X0100941Y0140083D01*
X0099974Y0140083D01*
X0099490Y0140567D01*
X0099490Y0142502D01*
X0099974Y0142986D01*
X0100941Y0142986D01*
X0101425Y0142502D01*
X0095547Y0142018D02*
X0094579Y0142986D01*
X0095547Y0142018D02*
X0095547Y0141051D01*
X0094579Y0140083D01*
X0093568Y0140083D02*
X0091633Y0140083D01*
X0092600Y0140083D02*
X0092600Y0142986D01*
X0091633Y0142018D01*
X0090621Y0140083D02*
X0088686Y0140083D01*
X0089654Y0140083D02*
X0089654Y0142986D01*
X0088686Y0142018D01*
X0087689Y0142986D02*
X0086722Y0142018D01*
X0086722Y0141051D01*
X0087689Y0140083D01*
X0082779Y0141051D02*
X0082779Y0142018D01*
X0081811Y0142986D01*
X0080800Y0142502D02*
X0080800Y0142018D01*
X0080316Y0141534D01*
X0079348Y0141534D01*
X0078865Y0142018D01*
X0078865Y0142502D01*
X0079348Y0142986D01*
X0080316Y0142986D01*
X0080800Y0142502D01*
X0080316Y0141534D02*
X0080800Y0141051D01*
X0080800Y0140567D01*
X0080316Y0140083D01*
X0079348Y0140083D01*
X0078865Y0140567D01*
X0078865Y0141051D01*
X0079348Y0141534D01*
X0077868Y0140083D02*
X0076900Y0141051D01*
X0076900Y0142018D01*
X0077868Y0142986D01*
X0081811Y0140083D02*
X0082779Y0141051D01*
X0072957Y0141051D02*
X0072957Y0142018D01*
X0071989Y0142986D01*
X0070978Y0142986D02*
X0070978Y0142502D01*
X0069043Y0140567D01*
X0069043Y0140083D01*
X0068046Y0140083D02*
X0067078Y0141051D01*
X0067078Y0142018D01*
X0068046Y0142986D01*
X0069043Y0142986D02*
X0070978Y0142986D01*
X0072957Y0141051D02*
X0071989Y0140083D01*
X0068778Y0153083D02*
X0065876Y0153083D01*
X0066843Y0154051D01*
X0065876Y0155018D01*
X0068778Y0155018D01*
X0068295Y0156030D02*
X0067811Y0156513D01*
X0067811Y0157965D01*
X0067327Y0157965D02*
X0068778Y0157965D01*
X0068778Y0156513D01*
X0068295Y0156030D01*
X0066843Y0156513D02*
X0066843Y0157481D01*
X0067327Y0157965D01*
X0066843Y0158976D02*
X0068295Y0158976D01*
X0068778Y0159460D01*
X0068778Y0160911D01*
X0069262Y0160911D02*
X0069746Y0160427D01*
X0069746Y0159944D01*
X0069262Y0160911D02*
X0066843Y0160911D01*
X0063978Y0159944D02*
X0063011Y0160911D01*
X0061076Y0160911D01*
X0061076Y0158976D02*
X0063011Y0158976D01*
X0063978Y0159944D01*
X0063978Y0157965D02*
X0063978Y0156030D01*
X0061076Y0156030D01*
X0061076Y0157965D01*
X0062527Y0156997D02*
X0062527Y0156030D01*
X0062527Y0155018D02*
X0063011Y0154534D01*
X0063011Y0153083D01*
X0063978Y0153083D02*
X0061076Y0153083D01*
X0061076Y0154534D01*
X0061560Y0155018D01*
X0062527Y0155018D01*
X0063011Y0154051D02*
X0063978Y0155018D01*
X0059178Y0155018D02*
X0056276Y0155018D01*
X0057243Y0154051D01*
X0056276Y0153083D01*
X0059178Y0153083D01*
X0058695Y0156030D02*
X0059178Y0156513D01*
X0059178Y0157481D01*
X0058695Y0157965D01*
X0056760Y0157965D01*
X0056276Y0157481D01*
X0056276Y0156513D01*
X0056760Y0156030D01*
X0058695Y0156030D01*
X0056276Y0158976D02*
X0056276Y0160911D01*
X0056276Y0159944D02*
X0059178Y0159944D01*
X0058695Y0161923D02*
X0059178Y0162406D01*
X0059178Y0163374D01*
X0058695Y0163858D01*
X0056760Y0163858D01*
X0056276Y0163374D01*
X0056276Y0162406D01*
X0056760Y0161923D01*
X0058695Y0161923D01*
X0059178Y0164869D02*
X0056276Y0164869D01*
X0056276Y0166320D01*
X0056760Y0166804D01*
X0057727Y0166804D01*
X0058211Y0166320D01*
X0058211Y0164869D01*
X0058211Y0165837D02*
X0059178Y0166804D01*
X0061076Y0165837D02*
X0062043Y0164869D01*
X0061076Y0165837D02*
X0063978Y0165837D01*
X0063978Y0166804D02*
X0063978Y0164869D01*
X0065876Y0165353D02*
X0066360Y0164869D01*
X0065876Y0165353D02*
X0065876Y0166320D01*
X0066360Y0166804D01*
X0066843Y0166804D01*
X0068778Y0164869D01*
X0068778Y0166804D01*
X0068295Y0167816D02*
X0066360Y0169751D01*
X0068295Y0169751D01*
X0068778Y0169267D01*
X0068778Y0168299D01*
X0068295Y0167816D01*
X0066360Y0167816D01*
X0065876Y0168299D01*
X0065876Y0169267D01*
X0066360Y0169751D01*
X0066843Y0170762D02*
X0065876Y0171730D01*
X0068778Y0171730D01*
X0068778Y0172697D02*
X0068778Y0170762D01*
X0068778Y0173709D02*
X0068295Y0173709D01*
X0066360Y0175644D01*
X0065876Y0175644D01*
X0065876Y0173709D01*
X0063495Y0171224D02*
X0063978Y0170740D01*
X0063978Y0169773D01*
X0063495Y0169289D01*
X0061560Y0171224D01*
X0063495Y0171224D01*
X0063495Y0169289D02*
X0061560Y0169289D01*
X0061076Y0169773D01*
X0061076Y0170740D01*
X0061560Y0171224D01*
X0059178Y0171246D02*
X0056276Y0171246D01*
X0056276Y0170762D02*
X0056276Y0171730D01*
X0056276Y0172727D02*
X0059178Y0174662D01*
X0056276Y0174662D01*
X0056276Y0175673D02*
X0056276Y0177608D01*
X0056276Y0176641D02*
X0059178Y0176641D01*
X0059178Y0178620D02*
X0056276Y0178620D01*
X0056276Y0180555D01*
X0056276Y0181566D02*
X0056276Y0183017D01*
X0056760Y0183501D01*
X0057727Y0183501D01*
X0058211Y0183017D01*
X0058211Y0181566D01*
X0059178Y0181566D02*
X0056276Y0181566D01*
X0058211Y0182534D02*
X0059178Y0183501D01*
X0059178Y0184513D02*
X0056276Y0184513D01*
X0056276Y0186448D01*
X0057243Y0187459D02*
X0056276Y0188427D01*
X0057243Y0189394D01*
X0059178Y0189394D01*
X0058695Y0190406D02*
X0059178Y0190889D01*
X0059178Y0191857D01*
X0058695Y0192341D01*
X0059178Y0193352D02*
X0059178Y0195287D01*
X0057727Y0194320D02*
X0057727Y0193352D01*
X0056760Y0192341D02*
X0056276Y0191857D01*
X0056276Y0190889D01*
X0056760Y0190406D01*
X0058695Y0190406D01*
X0057727Y0189394D02*
X0057727Y0187459D01*
X0057243Y0187459D02*
X0059178Y0187459D01*
X0057727Y0185480D02*
X0057727Y0184513D01*
X0059178Y0180555D02*
X0059178Y0178620D01*
X0057727Y0178620D02*
X0057727Y0179587D01*
X0059178Y0172727D02*
X0056276Y0172727D01*
X0059178Y0171730D02*
X0059178Y0170762D01*
X0063495Y0168299D02*
X0063978Y0168299D01*
X0063978Y0167816D01*
X0063495Y0167816D01*
X0063495Y0168299D01*
X0059178Y0193352D02*
X0056276Y0193352D01*
X0056276Y0195287D01*
X0067376Y0213583D02*
X0067376Y0215034D01*
X0067860Y0215518D01*
X0068343Y0215518D01*
X0068827Y0215034D01*
X0068827Y0213583D01*
X0070278Y0213583D02*
X0067376Y0213583D01*
X0068827Y0215034D02*
X0069311Y0215518D01*
X0069795Y0215518D01*
X0070278Y0215034D01*
X0070278Y0213583D01*
X0070278Y0216530D02*
X0068343Y0216530D01*
X0068343Y0217497D02*
X0069311Y0216530D01*
X0068343Y0217497D02*
X0068343Y0217981D01*
X0068343Y0219469D02*
X0068343Y0220436D01*
X0068827Y0220920D01*
X0070278Y0220920D01*
X0070278Y0219469D01*
X0069795Y0218985D01*
X0069311Y0219469D01*
X0069311Y0220920D01*
X0069795Y0221932D02*
X0070278Y0222415D01*
X0070278Y0223867D01*
X0070762Y0223867D02*
X0068343Y0223867D01*
X0068827Y0224878D02*
X0068343Y0225362D01*
X0068343Y0226813D01*
X0067376Y0226813D02*
X0070278Y0226813D01*
X0070278Y0225362D01*
X0069795Y0224878D01*
X0068827Y0224878D01*
X0070762Y0223867D02*
X0071246Y0223383D01*
X0071246Y0222899D01*
X0069795Y0221932D02*
X0068343Y0221932D01*
X0068827Y0227825D02*
X0068343Y0228308D01*
X0068343Y0229276D01*
X0068827Y0229760D01*
X0069311Y0229760D01*
X0069311Y0227825D01*
X0069795Y0227825D02*
X0068827Y0227825D01*
X0069795Y0227825D02*
X0070278Y0228308D01*
X0070278Y0229276D01*
X0070278Y0230771D02*
X0068343Y0230771D01*
X0068343Y0232222D01*
X0068827Y0232706D01*
X0070278Y0232706D01*
X0070278Y0236664D02*
X0070278Y0238115D01*
X0069795Y0238599D01*
X0067860Y0238599D01*
X0067376Y0238115D01*
X0067376Y0236664D01*
X0070278Y0236664D01*
X0069795Y0239611D02*
X0068827Y0239611D01*
X0068343Y0240094D01*
X0068343Y0241062D01*
X0068827Y0241546D01*
X0069311Y0241546D01*
X0069311Y0239611D01*
X0069795Y0239611D02*
X0070278Y0240094D01*
X0070278Y0241062D01*
X0070278Y0242557D02*
X0070278Y0244008D01*
X0069795Y0244492D01*
X0069311Y0244492D01*
X0068827Y0244008D01*
X0068827Y0242557D01*
X0067376Y0242557D02*
X0067376Y0244008D01*
X0067860Y0244492D01*
X0068343Y0244492D01*
X0068827Y0244008D01*
X0068827Y0245504D02*
X0069795Y0245504D01*
X0070278Y0245987D01*
X0070278Y0246955D01*
X0069795Y0247439D01*
X0068827Y0247439D01*
X0068343Y0246955D01*
X0068343Y0245987D01*
X0068827Y0245504D01*
X0068827Y0248450D02*
X0069795Y0248450D01*
X0070278Y0248934D01*
X0070278Y0249901D01*
X0069795Y0250385D01*
X0068827Y0250385D01*
X0068343Y0249901D01*
X0068343Y0248934D01*
X0068827Y0248450D01*
X0068343Y0251397D02*
X0068343Y0252848D01*
X0068827Y0253332D01*
X0070278Y0253332D01*
X0070278Y0251397D02*
X0068343Y0251397D01*
X0067376Y0242557D02*
X0070278Y0242557D01*
X0070494Y0115986D02*
X0069527Y0115986D01*
X0069043Y0115502D01*
X0068046Y0115986D02*
X0067078Y0115018D01*
X0067078Y0114051D01*
X0068046Y0113083D01*
X0069043Y0113083D02*
X0070978Y0115018D01*
X0070978Y0115502D01*
X0070494Y0115986D01*
X0071989Y0115986D02*
X0072957Y0115018D01*
X0072957Y0114051D01*
X0071989Y0113083D01*
X0070978Y0113083D02*
X0069043Y0113083D01*
X0078078Y0111786D02*
X0078078Y0108083D01*
X0080547Y0108083D02*
X0080547Y0111786D01*
X0079313Y0110552D01*
X0078078Y0111786D01*
X0079847Y0113567D02*
X0080330Y0113083D01*
X0081298Y0113083D01*
X0081782Y0113567D01*
X0081782Y0114534D01*
X0080814Y0114534D01*
X0079847Y0113567D02*
X0079847Y0115502D01*
X0080330Y0115986D01*
X0081298Y0115986D01*
X0081782Y0115502D01*
X0082379Y0111786D02*
X0081762Y0111169D01*
X0081762Y0108700D01*
X0082379Y0108083D01*
X0083613Y0108083D01*
X0084230Y0108700D01*
X0084230Y0111169D01*
X0083613Y0111786D01*
X0082379Y0111786D01*
X0085445Y0111786D02*
X0087914Y0111786D01*
X0086679Y0111786D02*
X0086679Y0108083D01*
X0089128Y0108700D02*
X0089128Y0111169D01*
X0089745Y0111786D01*
X0090979Y0111786D01*
X0091597Y0111169D01*
X0091597Y0108700D01*
X0090979Y0108083D01*
X0089745Y0108083D01*
X0089128Y0108700D01*
X0089654Y0113083D02*
X0088686Y0114051D01*
X0088686Y0115018D01*
X0089654Y0115986D01*
X0090651Y0115018D02*
X0091618Y0115986D01*
X0091618Y0113083D01*
X0090651Y0113083D02*
X0092586Y0113083D01*
X0093597Y0113083D02*
X0094565Y0114051D01*
X0094565Y0115018D01*
X0093597Y0115986D01*
X0100472Y0115502D02*
X0100472Y0113567D01*
X0104478Y0109935D02*
X0106329Y0108083D01*
X0109999Y0108083D02*
X0112468Y0108083D01*
X0117365Y0108083D02*
X0119834Y0108083D01*
X0118600Y0109935D02*
X0117365Y0109935D01*
X0113211Y0115502D02*
X0112727Y0115986D01*
X0111760Y0115986D01*
X0111276Y0115502D01*
D11*
X0051299Y0106831D02*
X0051299Y0069035D01*
X0072558Y0069035D01*
X0072558Y0106831D01*
X0051299Y0106831D01*
X0146991Y0084598D02*
X0146991Y0080268D01*
X0154865Y0080268D02*
X0154865Y0084598D01*
X0206175Y0085503D02*
X0206925Y0084752D01*
X0206175Y0085503D02*
X0206175Y0087004D01*
X0206925Y0087755D01*
X0207676Y0087755D01*
X0210678Y0084752D01*
X0210678Y0087755D01*
X0209928Y0089356D02*
X0206925Y0092359D01*
X0209928Y0092359D01*
X0210678Y0091608D01*
X0210678Y0090107D01*
X0209928Y0089356D01*
X0206925Y0089356D01*
X0206175Y0090107D01*
X0206175Y0091608D01*
X0206925Y0092359D01*
X0206175Y0093960D02*
X0207676Y0095461D01*
X0209177Y0095461D01*
X0210678Y0093960D01*
X0210678Y0083184D02*
X0209177Y0081683D01*
X0207676Y0081683D01*
X0206175Y0083184D01*
X0207676Y0122183D02*
X0206175Y0123684D01*
X0206925Y0125252D02*
X0206175Y0126003D01*
X0206175Y0127504D01*
X0206925Y0128255D01*
X0207676Y0128255D01*
X0210678Y0125252D01*
X0210678Y0128255D01*
X0210678Y0129856D02*
X0210678Y0132859D01*
X0210678Y0131358D02*
X0206175Y0131358D01*
X0207676Y0129856D01*
X0210678Y0123684D02*
X0209177Y0122183D01*
X0207676Y0122183D01*
X0206175Y0134460D02*
X0207676Y0135961D01*
X0209177Y0135961D01*
X0210678Y0134460D01*
X0208177Y0164183D02*
X0206676Y0164183D01*
X0205175Y0165684D01*
X0205925Y0167252D02*
X0205175Y0168003D01*
X0205175Y0169504D01*
X0205925Y0170255D01*
X0206676Y0170255D01*
X0209678Y0167252D01*
X0209678Y0170255D01*
X0208928Y0171856D02*
X0209678Y0172607D01*
X0209678Y0174108D01*
X0208928Y0174859D01*
X0208177Y0174859D01*
X0207427Y0174108D01*
X0207427Y0173358D01*
X0207427Y0174108D02*
X0206676Y0174859D01*
X0205925Y0174859D01*
X0205175Y0174108D01*
X0205175Y0172607D01*
X0205925Y0171856D01*
X0205175Y0176460D02*
X0206676Y0177961D01*
X0208177Y0177961D01*
X0209678Y0176460D01*
X0209678Y0165684D02*
X0208177Y0164183D01*
X0207676Y0201183D02*
X0206175Y0202684D01*
X0206925Y0204252D02*
X0207676Y0204252D01*
X0208427Y0205003D01*
X0208427Y0207255D01*
X0209928Y0207255D02*
X0206925Y0207255D01*
X0206175Y0206504D01*
X0206175Y0205003D01*
X0206925Y0204252D01*
X0209928Y0204252D02*
X0210678Y0205003D01*
X0210678Y0206504D01*
X0209928Y0207255D01*
X0210678Y0208856D02*
X0209177Y0210358D01*
X0207676Y0210358D01*
X0206175Y0208856D01*
X0210678Y0202684D02*
X0209177Y0201183D01*
X0207676Y0201183D01*
X0207176Y0237183D02*
X0205675Y0238684D01*
X0207176Y0237183D02*
X0208677Y0237183D01*
X0210178Y0238684D01*
X0209428Y0240252D02*
X0210178Y0241003D01*
X0210178Y0242504D01*
X0209428Y0243255D01*
X0208677Y0243255D01*
X0207927Y0242504D01*
X0207927Y0240252D01*
X0209428Y0240252D01*
X0207927Y0240252D02*
X0206425Y0241754D01*
X0205675Y0243255D01*
X0205675Y0244856D02*
X0207176Y0246358D01*
X0208677Y0246358D01*
X0210178Y0244856D01*
X0209177Y0275683D02*
X0207676Y0275683D01*
X0206175Y0277184D01*
X0206925Y0278752D02*
X0206175Y0279503D01*
X0206175Y0281004D01*
X0206925Y0281755D01*
X0207676Y0281755D01*
X0208427Y0281004D01*
X0209177Y0281755D01*
X0209928Y0281755D01*
X0210678Y0281004D01*
X0210678Y0279503D01*
X0209928Y0278752D01*
X0210678Y0277184D02*
X0209177Y0275683D01*
X0208427Y0280254D02*
X0208427Y0281004D01*
X0210678Y0283356D02*
X0209177Y0284858D01*
X0207676Y0284858D01*
X0206175Y0283356D01*
X0205953Y0311183D02*
X0205202Y0311934D01*
X0205953Y0312684D01*
X0208205Y0312684D01*
X0208205Y0313435D02*
X0208205Y0311183D01*
X0205953Y0311183D01*
X0203634Y0311183D02*
X0202883Y0311934D01*
X0202883Y0314936D01*
X0202133Y0314186D02*
X0203634Y0314186D01*
X0205953Y0314186D02*
X0207454Y0314186D01*
X0208205Y0313435D01*
X0209806Y0315687D02*
X0210557Y0315687D01*
X0210557Y0311183D01*
X0211307Y0311183D02*
X0209806Y0311183D01*
X0217479Y0311183D02*
X0219731Y0311183D01*
X0220482Y0311934D01*
X0220482Y0313435D01*
X0219731Y0314186D01*
X0217479Y0314186D01*
X0217479Y0309682D01*
X0222083Y0311183D02*
X0223584Y0311183D01*
X0222834Y0311183D02*
X0222834Y0314186D01*
X0222083Y0314186D01*
X0222834Y0315687D02*
X0222834Y0316438D01*
X0225152Y0314186D02*
X0227404Y0314186D01*
X0228155Y0313435D01*
X0228155Y0311183D01*
X0225152Y0311183D02*
X0225152Y0314186D01*
X0234360Y0314186D02*
X0236612Y0314186D01*
X0237363Y0314186D01*
X0237363Y0312684D02*
X0234360Y0312684D01*
X0235111Y0311183D02*
X0235111Y0315687D01*
X0236612Y0315687D02*
X0236612Y0311183D01*
X0200565Y0311183D02*
X0199064Y0311183D01*
X0199814Y0311183D02*
X0199814Y0314186D01*
X0199064Y0314186D01*
X0197462Y0314186D02*
X0197462Y0310432D01*
X0196712Y0309682D01*
X0195961Y0309682D01*
X0195210Y0311183D02*
X0197462Y0311183D01*
X0195210Y0311183D02*
X0194460Y0311934D01*
X0194460Y0313435D01*
X0195210Y0314186D01*
X0197462Y0314186D01*
X0199814Y0315687D02*
X0199814Y0316438D01*
X0192141Y0316438D02*
X0192141Y0315687D01*
X0192141Y0314186D02*
X0192141Y0311183D01*
X0191390Y0311183D02*
X0192892Y0311183D01*
X0192141Y0314186D02*
X0191390Y0314186D01*
X0189789Y0314186D02*
X0187537Y0314186D01*
X0186786Y0313435D01*
X0186786Y0311934D01*
X0187537Y0311183D01*
X0189789Y0311183D01*
X0189789Y0315687D01*
X0180581Y0314186D02*
X0180581Y0310432D01*
X0179830Y0309682D01*
X0179080Y0309682D01*
X0178329Y0311183D02*
X0180581Y0311183D01*
X0178329Y0311183D02*
X0177579Y0311934D01*
X0177579Y0314186D01*
X0175977Y0314186D02*
X0173725Y0314186D01*
X0172975Y0313435D01*
X0173725Y0312684D01*
X0175227Y0312684D01*
X0175977Y0311934D01*
X0175227Y0311183D01*
X0172975Y0311183D01*
X0171373Y0311183D02*
X0171373Y0313435D01*
X0170623Y0314186D01*
X0168371Y0314186D01*
X0168371Y0311183D01*
X0166769Y0312684D02*
X0163767Y0312684D01*
X0163767Y0311934D02*
X0163767Y0313435D01*
X0164517Y0314186D01*
X0166019Y0314186D01*
X0166769Y0313435D01*
X0166769Y0312684D01*
X0166019Y0311183D02*
X0164517Y0311183D01*
X0163767Y0311934D01*
X0162165Y0312684D02*
X0159163Y0312684D01*
X0159163Y0311934D02*
X0159163Y0313435D01*
X0159913Y0314186D01*
X0161415Y0314186D01*
X0162165Y0313435D01*
X0162165Y0312684D01*
X0161415Y0311183D02*
X0159913Y0311183D01*
X0159163Y0311934D01*
X0156060Y0311183D02*
X0156060Y0315687D01*
X0154559Y0315687D02*
X0157561Y0315687D01*
X0148387Y0314186D02*
X0146886Y0314186D01*
X0147636Y0314936D02*
X0147636Y0311934D01*
X0148387Y0311183D01*
X0145284Y0311183D02*
X0145284Y0313435D01*
X0144534Y0314186D01*
X0142282Y0314186D01*
X0142282Y0311183D01*
X0140680Y0312684D02*
X0137678Y0312684D01*
X0137678Y0311934D02*
X0137678Y0313435D01*
X0138428Y0314186D01*
X0139930Y0314186D01*
X0140680Y0313435D01*
X0140680Y0312684D01*
X0139930Y0311183D02*
X0138428Y0311183D01*
X0137678Y0311934D01*
X0136076Y0311934D02*
X0135326Y0312684D01*
X0133825Y0312684D01*
X0133074Y0313435D01*
X0133825Y0314186D01*
X0136076Y0314186D01*
X0136076Y0311934D02*
X0135326Y0311183D01*
X0133074Y0311183D01*
X0131473Y0312684D02*
X0128470Y0312684D01*
X0128470Y0311934D02*
X0128470Y0313435D01*
X0129221Y0314186D01*
X0130722Y0314186D01*
X0131473Y0313435D01*
X0131473Y0312684D01*
X0130722Y0311183D02*
X0129221Y0311183D01*
X0128470Y0311934D01*
X0126885Y0314186D02*
X0126135Y0314186D01*
X0124633Y0312684D01*
X0124633Y0311183D02*
X0124633Y0314186D01*
X0123032Y0313435D02*
X0123032Y0311934D01*
X0122281Y0311183D01*
X0120029Y0311183D01*
X0120029Y0309682D02*
X0120029Y0314186D01*
X0122281Y0314186D01*
X0123032Y0313435D01*
X0118428Y0313435D02*
X0118428Y0312684D01*
X0115426Y0312684D01*
X0115426Y0311934D02*
X0115426Y0313435D01*
X0116176Y0314186D01*
X0117677Y0314186D01*
X0118428Y0313435D01*
X0117677Y0311183D02*
X0116176Y0311183D01*
X0115426Y0311934D01*
X0113841Y0314186D02*
X0113090Y0314186D01*
X0111589Y0312684D01*
X0111589Y0311183D02*
X0111589Y0314186D01*
X0105384Y0314186D02*
X0103132Y0314186D01*
X0102381Y0313435D01*
X0103132Y0312684D01*
X0104633Y0312684D01*
X0105384Y0311934D01*
X0104633Y0311183D01*
X0102381Y0311183D01*
X0100813Y0311183D02*
X0099312Y0311183D01*
X0100062Y0311183D02*
X0100062Y0314186D01*
X0099312Y0314186D01*
X0097710Y0314186D02*
X0095459Y0314186D01*
X0094708Y0313435D01*
X0095459Y0312684D01*
X0096960Y0312684D01*
X0097710Y0311934D01*
X0096960Y0311183D01*
X0094708Y0311183D01*
X0093107Y0312684D02*
X0090104Y0312684D01*
X0090104Y0311934D02*
X0090104Y0313435D01*
X0090855Y0314186D01*
X0092356Y0314186D01*
X0093107Y0313435D01*
X0093107Y0312684D01*
X0092356Y0311183D02*
X0090855Y0311183D01*
X0090104Y0311934D01*
X0088503Y0311183D02*
X0088503Y0313435D01*
X0087752Y0314186D01*
X0086251Y0314186D01*
X0085500Y0313435D01*
X0083932Y0314186D02*
X0082431Y0314186D01*
X0083181Y0314936D02*
X0083181Y0311934D01*
X0083932Y0311183D01*
X0085500Y0311183D02*
X0085500Y0315687D01*
X0080829Y0313435D02*
X0080829Y0311183D01*
X0080829Y0313435D02*
X0080079Y0314186D01*
X0077827Y0314186D01*
X0077827Y0311183D01*
X0076225Y0312684D02*
X0073223Y0312684D01*
X0073223Y0311934D02*
X0073223Y0313435D01*
X0073974Y0314186D01*
X0075475Y0314186D01*
X0076225Y0313435D01*
X0076225Y0312684D01*
X0075475Y0311183D02*
X0073974Y0311183D01*
X0073223Y0311934D01*
X0071638Y0314186D02*
X0070888Y0314186D01*
X0069386Y0312684D01*
X0069386Y0311183D02*
X0069386Y0314186D01*
X0067785Y0313435D02*
X0067785Y0311183D01*
X0065533Y0311183D01*
X0064782Y0311934D01*
X0065533Y0312684D01*
X0067785Y0312684D01*
X0067785Y0313435D02*
X0067034Y0314186D01*
X0065533Y0314186D01*
X0063181Y0314936D02*
X0062430Y0315687D01*
X0060178Y0315687D01*
X0060178Y0311183D01*
X0060178Y0312684D02*
X0062430Y0312684D01*
X0063181Y0313435D01*
X0063181Y0314936D01*
X0100062Y0315687D02*
X0100062Y0316438D01*
X0058028Y0270233D02*
X0057928Y0270233D01*
X0054528Y0270233D01*
X0054529Y0270233D02*
X0054479Y0270224D01*
X0054430Y0270212D01*
X0054382Y0270196D01*
X0054336Y0270177D01*
X0054291Y0270155D01*
X0054247Y0270129D01*
X0054206Y0270100D01*
X0054167Y0270068D01*
X0054130Y0270034D01*
X0054096Y0269997D01*
X0054064Y0269958D01*
X0054036Y0269916D01*
X0054011Y0269872D01*
X0053989Y0269827D01*
X0053970Y0269780D01*
X0053955Y0269732D01*
X0053943Y0269683D01*
X0053935Y0269634D01*
X0053930Y0269584D01*
X0053929Y0269533D01*
X0053928Y0269533D02*
X0053928Y0257133D01*
X0058628Y0257133D01*
X0058628Y0269533D01*
X0058628Y0269633D02*
X0058619Y0269683D01*
X0058607Y0269732D01*
X0058591Y0269780D01*
X0058572Y0269826D01*
X0058550Y0269871D01*
X0058524Y0269915D01*
X0058495Y0269956D01*
X0058463Y0269995D01*
X0058429Y0270032D01*
X0058392Y0270066D01*
X0058353Y0270098D01*
X0058311Y0270126D01*
X0058267Y0270151D01*
X0058222Y0270173D01*
X0058175Y0270192D01*
X0058127Y0270207D01*
X0058078Y0270219D01*
X0058029Y0270227D01*
X0057979Y0270232D01*
X0057928Y0270233D01*
X0058628Y0257133D02*
X0060528Y0257133D01*
X0053928Y0255633D02*
X0060328Y0242833D01*
X0053828Y0242833D01*
X0054528Y0241233D02*
X0057928Y0241233D01*
X0058028Y0241233D01*
X0057928Y0241233D02*
X0057979Y0241232D01*
X0058029Y0241227D01*
X0058078Y0241219D01*
X0058127Y0241207D01*
X0058175Y0241192D01*
X0058222Y0241173D01*
X0058267Y0241151D01*
X0058311Y0241126D01*
X0058353Y0241098D01*
X0058392Y0241066D01*
X0058429Y0241032D01*
X0058463Y0240995D01*
X0058495Y0240956D01*
X0058524Y0240915D01*
X0058550Y0240871D01*
X0058572Y0240826D01*
X0058591Y0240780D01*
X0058607Y0240732D01*
X0058619Y0240683D01*
X0058628Y0240633D01*
X0058628Y0240533D02*
X0058628Y0240433D01*
X0058628Y0228133D01*
X0060528Y0228133D01*
X0060528Y0226833D02*
X0053828Y0226833D01*
X0053928Y0226633D02*
X0060528Y0214333D01*
X0058628Y0217933D02*
X0058628Y0226633D01*
X0058628Y0228133D02*
X0053928Y0228133D01*
X0053928Y0240533D01*
X0053929Y0240533D02*
X0053930Y0240584D01*
X0053935Y0240634D01*
X0053943Y0240683D01*
X0053955Y0240732D01*
X0053970Y0240780D01*
X0053989Y0240827D01*
X0054011Y0240872D01*
X0054036Y0240916D01*
X0054064Y0240958D01*
X0054096Y0240997D01*
X0054130Y0241034D01*
X0054167Y0241068D01*
X0054206Y0241100D01*
X0054247Y0241129D01*
X0054291Y0241155D01*
X0054336Y0241177D01*
X0054382Y0241196D01*
X0054430Y0241212D01*
X0054479Y0241224D01*
X0054529Y0241233D01*
X0059128Y0241133D02*
X0060528Y0241133D01*
X0059228Y0241133D02*
X0059178Y0241124D01*
X0059129Y0241112D01*
X0059082Y0241096D01*
X0059035Y0241077D01*
X0058990Y0241055D01*
X0058946Y0241029D01*
X0058905Y0241000D01*
X0058866Y0240969D01*
X0058829Y0240934D01*
X0058795Y0240897D01*
X0058763Y0240858D01*
X0058735Y0240816D01*
X0058710Y0240772D01*
X0058688Y0240727D01*
X0058669Y0240680D01*
X0058653Y0240632D01*
X0058642Y0240583D01*
X0058634Y0240533D01*
X0058629Y0240483D01*
X0058628Y0240433D01*
D12*
X0068428Y0137433D02*
X0065928Y0134933D01*
X0065928Y0119933D01*
X0068428Y0117433D01*
X0073428Y0117433D01*
X0075928Y0119933D01*
X0075928Y0134933D01*
X0078428Y0137433D01*
X0083428Y0137433D01*
X0085928Y0134933D01*
X0085928Y0119933D01*
X0088428Y0117433D01*
X0093428Y0117433D01*
X0095928Y0119933D01*
X0095928Y0134933D01*
X0098428Y0137433D01*
X0103428Y0137433D01*
X0105928Y0134933D01*
X0105928Y0119933D01*
X0108428Y0117433D01*
X0113428Y0117433D01*
X0115928Y0119933D01*
X0115928Y0134933D01*
X0118428Y0137433D01*
X0123428Y0137433D01*
X0125928Y0134933D01*
X0125928Y0119933D01*
X0128428Y0117433D01*
X0133428Y0117433D01*
X0135928Y0119933D01*
X0135928Y0134933D01*
X0138428Y0137433D01*
X0143428Y0137433D01*
X0145928Y0134933D01*
X0145928Y0119933D01*
X0143428Y0117433D01*
X0138428Y0117433D01*
X0135928Y0119933D01*
X0125928Y0119933D02*
X0123428Y0117433D01*
X0118428Y0117433D01*
X0115928Y0119933D01*
X0105928Y0119933D02*
X0103428Y0117433D01*
X0098428Y0117433D01*
X0095928Y0119933D01*
X0085928Y0119933D02*
X0083428Y0117433D01*
X0078428Y0117433D01*
X0075928Y0119933D01*
X0075928Y0134933D02*
X0073428Y0137433D01*
X0068428Y0137433D01*
X0085928Y0134933D02*
X0088428Y0137433D01*
X0093428Y0137433D01*
X0095928Y0134933D01*
X0105928Y0134933D02*
X0108428Y0137433D01*
X0113428Y0137433D01*
X0115928Y0134933D01*
X0125928Y0134933D02*
X0128428Y0137433D01*
X0133428Y0137433D01*
X0135928Y0134933D01*
X0145928Y0134933D02*
X0148428Y0137433D01*
X0153428Y0137433D01*
X0155928Y0134933D01*
X0155928Y0119933D01*
X0153428Y0117433D01*
X0148428Y0117433D01*
X0145928Y0119933D01*
X0155928Y0119933D02*
X0158428Y0117433D01*
X0163428Y0117433D01*
X0165928Y0119933D01*
X0165928Y0134933D01*
X0168428Y0137433D01*
X0173428Y0137433D01*
X0175928Y0134933D01*
X0178428Y0137433D01*
X0183428Y0137433D01*
X0185928Y0134933D01*
X0185928Y0119933D01*
X0183428Y0117433D01*
X0178428Y0117433D01*
X0175928Y0119933D01*
X0175928Y0134933D01*
X0165928Y0134933D02*
X0163428Y0137433D01*
X0158428Y0137433D01*
X0155928Y0134933D01*
X0165928Y0119933D02*
X0168428Y0117433D01*
X0173428Y0117433D01*
X0175928Y0119933D01*
X0173428Y0173433D02*
X0170928Y0175933D01*
X0170928Y0180933D01*
X0173428Y0183433D01*
X0170928Y0185933D01*
X0170928Y0190933D01*
X0173428Y0193433D01*
X0178428Y0193433D01*
X0180928Y0190933D01*
X0180928Y0185933D01*
X0178428Y0183433D01*
X0180928Y0180933D01*
X0180928Y0175933D01*
X0178428Y0173433D01*
X0173428Y0173433D01*
X0173428Y0183433D02*
X0178428Y0183433D01*
X0178428Y0212433D02*
X0173428Y0212433D01*
X0170928Y0214933D01*
X0170928Y0219933D01*
X0173428Y0222433D01*
X0170928Y0224933D01*
X0170928Y0229933D01*
X0173428Y0232433D01*
X0178428Y0232433D01*
X0180928Y0229933D01*
X0180928Y0224933D01*
X0178428Y0222433D01*
X0180928Y0219933D01*
X0180928Y0214933D01*
X0178428Y0212433D01*
X0178428Y0222433D02*
X0173428Y0222433D01*
X0173428Y0247433D02*
X0170928Y0249933D01*
X0170928Y0254933D01*
X0173428Y0257433D01*
X0170928Y0259933D01*
X0170928Y0264933D01*
X0173428Y0267433D01*
X0178428Y0267433D01*
X0180928Y0264933D01*
X0180928Y0259933D01*
X0178428Y0257433D01*
X0180928Y0254933D01*
X0180928Y0249933D01*
X0178428Y0247433D01*
X0173428Y0247433D01*
X0173428Y0257433D02*
X0178428Y0257433D01*
X0178428Y0282433D02*
X0173428Y0282433D01*
X0170928Y0284933D01*
X0170928Y0289933D01*
X0173428Y0292433D01*
X0170928Y0294933D01*
X0170928Y0299933D01*
X0173428Y0302433D01*
X0178428Y0302433D01*
X0180928Y0299933D01*
X0180928Y0294933D01*
X0178428Y0292433D01*
X0180928Y0289933D01*
X0180928Y0284933D01*
X0178428Y0282433D01*
X0178428Y0292433D02*
X0173428Y0292433D01*
X0223428Y0286433D02*
X0223428Y0281433D01*
X0225928Y0278933D01*
X0223428Y0276433D01*
X0223428Y0271433D01*
X0225928Y0268933D01*
X0230928Y0268933D01*
X0233428Y0271433D01*
X0233428Y0276433D01*
X0230928Y0278933D01*
X0225928Y0278933D01*
X0230928Y0278933D02*
X0233428Y0281433D01*
X0233428Y0286433D01*
X0230928Y0288933D01*
X0225928Y0288933D01*
X0223428Y0286433D01*
X0225928Y0251933D02*
X0223428Y0249433D01*
X0223428Y0244433D01*
X0225928Y0241933D01*
X0223428Y0239433D01*
X0223428Y0234433D01*
X0225928Y0231933D01*
X0230928Y0231933D01*
X0233428Y0234433D01*
X0233428Y0239433D01*
X0230928Y0241933D01*
X0225928Y0241933D01*
X0230928Y0241933D02*
X0233428Y0244433D01*
X0233428Y0249433D01*
X0230928Y0251933D01*
X0225928Y0251933D01*
X0225928Y0215433D02*
X0223428Y0212933D01*
X0223428Y0207933D01*
X0225928Y0205433D01*
X0223428Y0202933D01*
X0223428Y0197933D01*
X0225928Y0195433D01*
X0230928Y0195433D01*
X0233428Y0197933D01*
X0233428Y0202933D01*
X0230928Y0205433D01*
X0225928Y0205433D01*
X0230928Y0205433D02*
X0233428Y0207933D01*
X0233428Y0212933D01*
X0230928Y0215433D01*
X0225928Y0215433D01*
X0226428Y0179933D02*
X0223928Y0177433D01*
X0223928Y0172433D01*
X0226428Y0169933D01*
X0223928Y0167433D01*
X0223928Y0162433D01*
X0226428Y0159933D01*
X0231428Y0159933D01*
X0233928Y0162433D01*
X0233928Y0167433D01*
X0231428Y0169933D01*
X0226428Y0169933D01*
X0231428Y0169933D02*
X0233928Y0172433D01*
X0233928Y0177433D01*
X0231428Y0179933D01*
X0226428Y0179933D01*
X0226428Y0137933D02*
X0223928Y0135433D01*
X0223928Y0130433D01*
X0226428Y0127933D01*
X0223928Y0125433D01*
X0223928Y0120433D01*
X0226428Y0117933D01*
X0231428Y0117933D01*
X0233928Y0120433D01*
X0233928Y0125433D01*
X0231428Y0127933D01*
X0226428Y0127933D01*
X0231428Y0127933D02*
X0233928Y0130433D01*
X0233928Y0135433D01*
X0231428Y0137933D01*
X0226428Y0137933D01*
X0225928Y0098433D02*
X0223428Y0095933D01*
X0223428Y0090933D01*
X0225928Y0088433D01*
X0223428Y0085933D01*
X0223428Y0080933D01*
X0225928Y0078433D01*
X0230928Y0078433D01*
X0233428Y0080933D01*
X0233428Y0085933D01*
X0230928Y0088433D01*
X0225928Y0088433D01*
X0230928Y0088433D02*
X0233428Y0090933D01*
X0233428Y0095933D01*
X0230928Y0098433D01*
X0225928Y0098433D01*
X0180928Y0059933D02*
X0180928Y0054933D01*
X0178428Y0052433D01*
X0173428Y0052433D01*
X0170928Y0054933D01*
X0168428Y0052433D01*
X0163428Y0052433D01*
X0160928Y0054933D01*
X0160928Y0059933D01*
X0163428Y0062433D01*
X0168428Y0062433D01*
X0170928Y0059933D01*
X0173428Y0062433D01*
X0178428Y0062433D01*
X0180928Y0059933D01*
X0170928Y0059933D02*
X0170928Y0054933D01*
X0140928Y0054933D02*
X0138428Y0052433D01*
X0133428Y0052433D01*
X0130928Y0054933D01*
X0128428Y0052433D01*
X0123428Y0052433D01*
X0120928Y0054933D01*
X0118428Y0052433D01*
X0113428Y0052433D01*
X0110928Y0054933D01*
X0110928Y0059933D01*
X0113428Y0062433D01*
X0118428Y0062433D01*
X0120928Y0059933D01*
X0123428Y0062433D01*
X0128428Y0062433D01*
X0130928Y0059933D01*
X0133428Y0062433D01*
X0138428Y0062433D01*
X0140928Y0059933D01*
X0140928Y0054933D01*
X0130928Y0054933D02*
X0130928Y0059933D01*
X0120928Y0059933D02*
X0120928Y0054933D01*
D13*
X0113291Y0081843D03*
X0108566Y0081843D03*
X0183566Y0081843D03*
X0188291Y0081843D03*
D14*
X0185928Y0081843D03*
X0110928Y0081843D03*
X0096019Y0059933D03*
X0090338Y0102433D03*
D15*
X0090338Y0100071D03*
X0090338Y0104795D03*
X0096019Y0062295D03*
X0096019Y0057571D03*
D16*
X0075928Y0152433D02*
X0075928Y0292433D01*
X0105928Y0292433D01*
X0105928Y0287433D01*
X0115928Y0287433D01*
X0115928Y0292433D01*
X0145928Y0292433D01*
X0145928Y0152433D01*
X0075928Y0152433D01*
D17*
X0058828Y0212933D02*
X0058628Y0213433D01*
X0057928Y0213133D01*
X0058128Y0213933D01*
X0057628Y0214033D01*
X0058328Y0214833D01*
X0056728Y0214433D01*
X0057028Y0215133D01*
X0055928Y0215633D01*
X0057028Y0216133D01*
X0056728Y0216733D01*
X0058328Y0216333D01*
X0059728Y0214133D02*
X0058828Y0212933D01*
X0062127Y0213833D02*
X0062127Y0214434D01*
X0062428Y0214734D01*
X0063328Y0214734D01*
X0063328Y0213833D01*
X0063028Y0213533D01*
X0062728Y0213833D01*
X0062728Y0214734D01*
X0063028Y0215375D02*
X0063328Y0215675D01*
X0063328Y0216576D01*
X0062127Y0216576D01*
X0062127Y0217216D02*
X0062127Y0217817D01*
X0061827Y0217516D02*
X0063028Y0217516D01*
X0063328Y0217817D01*
X0063028Y0218444D02*
X0063328Y0218744D01*
X0063328Y0219345D01*
X0063028Y0219645D01*
X0062428Y0219645D01*
X0062127Y0219345D01*
X0062127Y0218744D01*
X0062428Y0218444D01*
X0063028Y0218444D01*
X0063328Y0220285D02*
X0062127Y0220285D01*
X0062127Y0221186D01*
X0062428Y0221487D01*
X0063328Y0221487D01*
X0063028Y0222127D02*
X0063328Y0222427D01*
X0063328Y0223028D01*
X0063028Y0223328D01*
X0062428Y0223328D01*
X0062127Y0223028D01*
X0062127Y0222427D01*
X0062428Y0222127D01*
X0063028Y0222127D01*
X0063328Y0223969D02*
X0062127Y0223969D01*
X0062127Y0224269D01*
X0062428Y0224569D01*
X0062127Y0224869D01*
X0062428Y0225170D01*
X0063328Y0225170D01*
X0063328Y0224569D02*
X0062428Y0224569D01*
X0062428Y0225810D02*
X0063028Y0225810D01*
X0063328Y0226110D01*
X0063328Y0226711D01*
X0063028Y0227011D01*
X0062428Y0227011D01*
X0062127Y0226711D01*
X0062127Y0226110D01*
X0062428Y0225810D01*
X0062127Y0227652D02*
X0063028Y0227652D01*
X0063328Y0227952D01*
X0063328Y0228853D01*
X0062127Y0228853D01*
X0062428Y0229493D02*
X0062127Y0229794D01*
X0062127Y0230694D01*
X0062728Y0230394D02*
X0062728Y0229794D01*
X0062428Y0229493D01*
X0063328Y0229493D02*
X0063328Y0230394D01*
X0063028Y0230694D01*
X0062728Y0230394D01*
X0062728Y0233177D02*
X0062127Y0233777D01*
X0062127Y0234077D01*
X0062428Y0234711D02*
X0063028Y0234711D01*
X0063328Y0235011D01*
X0063328Y0235612D01*
X0063028Y0235912D01*
X0062428Y0235912D01*
X0062127Y0235612D01*
X0062127Y0235011D01*
X0062428Y0234711D01*
X0062127Y0233177D02*
X0063328Y0233177D01*
X0063328Y0236553D02*
X0063328Y0237453D01*
X0063028Y0237754D01*
X0062428Y0237754D01*
X0062127Y0237453D01*
X0062127Y0236553D01*
X0061527Y0236553D02*
X0063328Y0236553D01*
X0063028Y0238394D02*
X0063328Y0238695D01*
X0063328Y0239295D01*
X0063028Y0239595D01*
X0062428Y0239595D01*
X0062127Y0239295D01*
X0062127Y0238695D01*
X0062428Y0238394D01*
X0063028Y0238394D01*
X0062127Y0240236D02*
X0062127Y0240836D01*
X0061827Y0240536D02*
X0063028Y0240536D01*
X0063328Y0240836D01*
X0063328Y0241464D02*
X0063328Y0242064D01*
X0063328Y0241764D02*
X0062127Y0241764D01*
X0062127Y0241464D01*
X0061527Y0241764D02*
X0061227Y0241764D01*
X0062428Y0242691D02*
X0063028Y0242691D01*
X0063328Y0242992D01*
X0063328Y0243892D01*
X0062127Y0243892D02*
X0062127Y0242992D01*
X0062428Y0242691D01*
X0062127Y0246374D02*
X0063328Y0246975D01*
X0062127Y0247575D01*
X0062428Y0248216D02*
X0062127Y0248516D01*
X0062127Y0249117D01*
X0062428Y0249417D01*
X0062728Y0249417D01*
X0062728Y0248216D01*
X0063028Y0248216D02*
X0062428Y0248216D01*
X0063028Y0248216D02*
X0063328Y0248516D01*
X0063328Y0249117D01*
X0063328Y0250058D02*
X0061527Y0250058D01*
X0062127Y0250358D02*
X0062127Y0250958D01*
X0062428Y0251259D01*
X0063328Y0251259D01*
X0063328Y0251899D02*
X0063328Y0252500D01*
X0063328Y0252199D02*
X0062127Y0252199D01*
X0062127Y0251899D01*
X0061527Y0252199D02*
X0061227Y0252199D01*
X0062428Y0253127D02*
X0063028Y0253127D01*
X0063328Y0253427D01*
X0063328Y0254328D01*
X0063328Y0254968D02*
X0063328Y0255569D01*
X0063328Y0255269D02*
X0061527Y0255269D01*
X0061527Y0254968D01*
X0062127Y0254328D02*
X0062127Y0253427D01*
X0062428Y0253127D01*
X0062127Y0250358D02*
X0062428Y0250058D01*
X0062428Y0256196D02*
X0062127Y0256496D01*
X0062127Y0257097D01*
X0062428Y0257397D01*
X0062728Y0257397D01*
X0062728Y0256196D01*
X0063028Y0256196D02*
X0062428Y0256196D01*
X0063028Y0256196D02*
X0063328Y0256496D01*
X0063328Y0257097D01*
X0063328Y0259879D02*
X0063328Y0260780D01*
X0063028Y0261080D01*
X0062428Y0261080D01*
X0062127Y0260780D01*
X0062127Y0259879D01*
X0063929Y0259879D01*
X0063328Y0261721D02*
X0062127Y0261721D01*
X0062127Y0262321D02*
X0062127Y0262622D01*
X0062127Y0262321D02*
X0062728Y0261721D01*
X0063028Y0263255D02*
X0063328Y0263556D01*
X0063328Y0264156D01*
X0063028Y0264456D01*
X0062428Y0264456D01*
X0062127Y0264156D01*
X0062127Y0263556D01*
X0062428Y0263255D01*
X0063028Y0263255D01*
X0063929Y0265097D02*
X0063929Y0265397D01*
X0063629Y0265698D01*
X0062127Y0265698D01*
X0061527Y0265698D02*
X0061227Y0265698D01*
X0062127Y0266625D02*
X0062127Y0267226D01*
X0062428Y0267526D01*
X0062728Y0267526D01*
X0062728Y0266325D01*
X0063028Y0266325D02*
X0062428Y0266325D01*
X0062127Y0266625D01*
X0063028Y0266325D02*
X0063328Y0266625D01*
X0063328Y0267226D01*
X0063028Y0268166D02*
X0063328Y0268467D01*
X0063328Y0269367D01*
X0063028Y0270308D02*
X0063328Y0270608D01*
X0063028Y0270308D02*
X0061827Y0270308D01*
X0062127Y0270008D02*
X0062127Y0270608D01*
X0062127Y0269367D02*
X0062127Y0268467D01*
X0062428Y0268166D01*
X0063028Y0268166D01*
X0063028Y0215375D02*
X0062127Y0215375D01*
M02*
