%
M48
M72
T01C0.03000
T02C0.03800
T03C0.04000
T04C0.05512
T05C0.12598
%
T01
X70928Y112433
X117178Y71808
X140928Y82433
X122178Y103058
T02
X120928Y157433
X110928Y157433
X100928Y157433
X90928Y157433
X80928Y157433
X80928Y167433
X80928Y177433
X80928Y187433
X80928Y197433
X80928Y207433
X80928Y217433
X80928Y227433
X80928Y237433
X80928Y247433
X80928Y257433
X80928Y267433
X80928Y277433
X80928Y287433
X140928Y287433
X140928Y277433
X140928Y267433
X140928Y257433
X140928Y247433
X140928Y237433
X140928Y227433
X140928Y217433
X140928Y207433
X140928Y197433
X140928Y187433
X140928Y177433
X140928Y167433
X140928Y157433
X130928Y157433
T03
X130928Y132433
X130928Y122433
X140928Y122433
X140928Y132433
X150928Y132433
X150928Y122433
X160928Y122433
X160928Y132433
X170928Y132433
X170928Y122433
X180928Y122433
X180928Y132433
X175928Y178433
X175928Y188433
X175928Y217433
X175928Y227433
X175928Y252433
X175928Y262433
X175928Y287433
X175928Y297433
X228428Y283933
X228428Y273933
X228428Y246933
X228428Y236933
X228428Y210433
X228428Y200433
X228928Y174933
X228928Y164933
X228928Y132933
X228928Y122933
X228428Y93433
X228428Y83433
X175928Y57433
X165928Y57433
X135928Y57433
X125928Y57433
X115928Y57433
X110928Y122433
X110928Y132433
X100928Y132433
X100928Y122433
X90928Y122433
X90928Y132433
X80928Y132433
X70928Y132433
X70928Y122433
X80928Y122433
X120928Y122433
X120928Y132433
T04
X61928Y96201
X61928Y79272
T05
X58428Y54933
X233428Y54933
X233428Y329933
X58428Y329933
M30
