G75*
%MOIN*%
%OFA0B0*%
%FSLAX25Y25*%
%IPPOS*%
%LPD*%
%AMOC8*
5,1,8,0,0,1.08239X$1,22.5*
%
%ADD10C,0.14600*%
%ADD11C,0.13398*%
%ADD12C,0.06800*%
%ADD13C,0.06600*%
%ADD14C,0.06737*%
%ADD15C,0.10643*%
%ADD16C,0.09068*%
%ADD17C,0.04762*%
%ADD18C,0.03778*%
D10*
X0019300Y0014300D03*
X0319300Y0013902D03*
D11*
X0316800Y0336800D03*
X0021800Y0336800D03*
D12*
X0308800Y0071800D02*
X0314800Y0071800D01*
X0314800Y0061800D02*
X0308800Y0061800D01*
X0308800Y0051800D02*
X0314800Y0051800D01*
X0190800Y0020800D02*
X0190800Y0014800D01*
X0180800Y0014800D02*
X0180800Y0020800D01*
X0170800Y0020800D02*
X0170800Y0014800D01*
X0160800Y0014800D02*
X0160800Y0020800D01*
X0150800Y0020800D02*
X0150800Y0014800D01*
X0140800Y0014800D02*
X0140800Y0020800D01*
X0130800Y0020800D02*
X0130800Y0014800D01*
X0120800Y0014800D02*
X0120800Y0020800D01*
X0110800Y0020800D02*
X0110800Y0014800D01*
X0100800Y0014800D02*
X0100800Y0020800D01*
X0090800Y0020800D02*
X0090800Y0014800D01*
X0080800Y0014800D02*
X0080800Y0020800D01*
X0070800Y0020800D02*
X0070800Y0014800D01*
X0060800Y0014800D02*
X0060800Y0020800D01*
X0050800Y0020800D02*
X0050800Y0014800D01*
X0040800Y0014800D02*
X0040800Y0020800D01*
D13*
X0101800Y0046800D03*
X0111800Y0046800D03*
X0121800Y0046800D03*
X0131800Y0046800D03*
X0141800Y0046800D03*
X0151800Y0046800D03*
X0161800Y0046800D03*
X0171800Y0046800D03*
X0181800Y0046800D03*
X0191800Y0046800D03*
X0201800Y0046800D03*
X0211800Y0046800D03*
X0221800Y0046800D03*
X0231800Y0046800D03*
X0231800Y0106800D03*
X0221800Y0106800D03*
X0211800Y0106800D03*
X0201800Y0106800D03*
X0191800Y0106800D03*
X0181800Y0106800D03*
X0171800Y0106800D03*
X0161800Y0106800D03*
X0151800Y0106800D03*
X0141800Y0106800D03*
X0131800Y0106800D03*
X0121800Y0106800D03*
X0111800Y0106800D03*
X0101800Y0106800D03*
D14*
X0116800Y0081800D03*
X0116800Y0071800D03*
X0126800Y0071800D03*
X0126800Y0081800D03*
X0136800Y0081800D03*
X0136800Y0071800D03*
X0146800Y0071800D03*
X0146800Y0081800D03*
X0156800Y0081800D03*
X0156800Y0071800D03*
X0166800Y0071800D03*
X0166800Y0081800D03*
X0176800Y0081800D03*
X0176800Y0071800D03*
X0186800Y0071800D03*
X0186800Y0081800D03*
D15*
X0216800Y0144300D03*
X0216800Y0169300D03*
X0216800Y0199300D03*
X0216800Y0224300D03*
X0216800Y0254300D03*
X0216800Y0279300D03*
X0216800Y0309300D03*
X0216800Y0334300D03*
X0116800Y0334300D03*
X0116800Y0309300D03*
X0116800Y0279300D03*
X0116800Y0254300D03*
X0116800Y0224300D03*
X0116800Y0199300D03*
X0116800Y0169300D03*
X0116800Y0144300D03*
D16*
X0025934Y0115068D02*
X0017666Y0115068D01*
X0017666Y0098139D02*
X0025934Y0098139D01*
D17*
X0014300Y0079300D03*
X0036800Y0056800D03*
X0049300Y0056800D03*
X0054300Y0064300D03*
X0064300Y0061800D03*
X0066800Y0054300D03*
X0074300Y0054300D03*
X0076800Y0061800D03*
X0101800Y0096800D03*
X0096800Y0126800D03*
X0069300Y0111800D03*
X0046800Y0109300D03*
X0016800Y0036800D03*
X0201800Y0076800D03*
X0211800Y0086800D03*
X0221800Y0081800D03*
X0234300Y0061800D03*
X0259300Y0056800D03*
X0259300Y0074300D03*
X0261800Y0081800D03*
X0271800Y0081800D03*
X0286800Y0074300D03*
X0286800Y0089300D03*
X0296800Y0096800D03*
X0301800Y0104300D03*
X0311800Y0116800D03*
X0306800Y0121800D03*
X0296800Y0121800D03*
X0289300Y0114300D03*
X0314300Y0086800D03*
X0266800Y0031800D03*
X0276800Y0026800D03*
X0286800Y0027961D03*
X0291800Y0016800D03*
X0241800Y0016800D03*
D18*
X0274300Y0090550D03*
X0266800Y0111800D03*
X0276800Y0151800D03*
X0313050Y0110550D03*
X0304300Y0096800D03*
X0321800Y0076800D03*
X0306800Y0251800D03*
X0306800Y0306800D03*
X0059300Y0106800D03*
X0046800Y0032800D03*
X0036800Y0031800D03*
M02*
