G75*
%MOIN*%
%OFA0B0*%
%FSLAX25Y25*%
%IPPOS*%
%LPD*%
%AMOC8*
5,1,8,0,0,1.08239X$1,22.5*
%
%ADD10C,0.00000*%
%ADD11R,0.05906X0.05118*%
%ADD12R,0.02600X0.08000*%
%ADD13R,0.10630X0.24409*%
%ADD14R,0.05118X0.06299*%
%ADD15R,0.06299X0.05118*%
%ADD16R,0.07874X0.06299*%
%ADD17R,0.01969X0.01181*%
%ADD18R,0.08858X0.08858*%
%ADD19R,0.01181X0.01969*%
%ADD20C,0.06000*%
%ADD21C,0.05800*%
%ADD22C,0.05937*%
%ADD23C,0.09843*%
%ADD24C,0.08268*%
%ADD25C,0.01600*%
%ADD26C,0.03962*%
%ADD27C,0.02978*%
D10*
X0006800Y0001800D02*
X0006800Y0351761D01*
X0330501Y0351761D01*
X0330501Y0001800D01*
X0006800Y0001800D01*
X0012400Y0014300D02*
X0012402Y0014469D01*
X0012408Y0014639D01*
X0012419Y0014808D01*
X0012433Y0014976D01*
X0012452Y0015145D01*
X0012475Y0015312D01*
X0012502Y0015480D01*
X0012533Y0015646D01*
X0012568Y0015812D01*
X0012607Y0015977D01*
X0012650Y0016140D01*
X0012697Y0016303D01*
X0012748Y0016464D01*
X0012803Y0016625D01*
X0012862Y0016783D01*
X0012925Y0016941D01*
X0012992Y0017096D01*
X0013062Y0017250D01*
X0013137Y0017402D01*
X0013215Y0017553D01*
X0013296Y0017701D01*
X0013382Y0017847D01*
X0013471Y0017991D01*
X0013563Y0018133D01*
X0013659Y0018273D01*
X0013758Y0018410D01*
X0013860Y0018545D01*
X0013966Y0018677D01*
X0014075Y0018807D01*
X0014187Y0018934D01*
X0014303Y0019058D01*
X0014421Y0019179D01*
X0014542Y0019297D01*
X0014666Y0019413D01*
X0014793Y0019525D01*
X0014923Y0019634D01*
X0015055Y0019740D01*
X0015190Y0019842D01*
X0015327Y0019941D01*
X0015467Y0020037D01*
X0015609Y0020129D01*
X0015753Y0020218D01*
X0015899Y0020304D01*
X0016047Y0020385D01*
X0016198Y0020463D01*
X0016350Y0020538D01*
X0016504Y0020608D01*
X0016659Y0020675D01*
X0016817Y0020738D01*
X0016975Y0020797D01*
X0017136Y0020852D01*
X0017297Y0020903D01*
X0017460Y0020950D01*
X0017623Y0020993D01*
X0017788Y0021032D01*
X0017954Y0021067D01*
X0018120Y0021098D01*
X0018288Y0021125D01*
X0018455Y0021148D01*
X0018624Y0021167D01*
X0018792Y0021181D01*
X0018961Y0021192D01*
X0019131Y0021198D01*
X0019300Y0021200D01*
X0019469Y0021198D01*
X0019639Y0021192D01*
X0019808Y0021181D01*
X0019976Y0021167D01*
X0020145Y0021148D01*
X0020312Y0021125D01*
X0020480Y0021098D01*
X0020646Y0021067D01*
X0020812Y0021032D01*
X0020977Y0020993D01*
X0021140Y0020950D01*
X0021303Y0020903D01*
X0021464Y0020852D01*
X0021625Y0020797D01*
X0021783Y0020738D01*
X0021941Y0020675D01*
X0022096Y0020608D01*
X0022250Y0020538D01*
X0022402Y0020463D01*
X0022553Y0020385D01*
X0022701Y0020304D01*
X0022847Y0020218D01*
X0022991Y0020129D01*
X0023133Y0020037D01*
X0023273Y0019941D01*
X0023410Y0019842D01*
X0023545Y0019740D01*
X0023677Y0019634D01*
X0023807Y0019525D01*
X0023934Y0019413D01*
X0024058Y0019297D01*
X0024179Y0019179D01*
X0024297Y0019058D01*
X0024413Y0018934D01*
X0024525Y0018807D01*
X0024634Y0018677D01*
X0024740Y0018545D01*
X0024842Y0018410D01*
X0024941Y0018273D01*
X0025037Y0018133D01*
X0025129Y0017991D01*
X0025218Y0017847D01*
X0025304Y0017701D01*
X0025385Y0017553D01*
X0025463Y0017402D01*
X0025538Y0017250D01*
X0025608Y0017096D01*
X0025675Y0016941D01*
X0025738Y0016783D01*
X0025797Y0016625D01*
X0025852Y0016464D01*
X0025903Y0016303D01*
X0025950Y0016140D01*
X0025993Y0015977D01*
X0026032Y0015812D01*
X0026067Y0015646D01*
X0026098Y0015480D01*
X0026125Y0015312D01*
X0026148Y0015145D01*
X0026167Y0014976D01*
X0026181Y0014808D01*
X0026192Y0014639D01*
X0026198Y0014469D01*
X0026200Y0014300D01*
X0026198Y0014131D01*
X0026192Y0013961D01*
X0026181Y0013792D01*
X0026167Y0013624D01*
X0026148Y0013455D01*
X0026125Y0013288D01*
X0026098Y0013120D01*
X0026067Y0012954D01*
X0026032Y0012788D01*
X0025993Y0012623D01*
X0025950Y0012460D01*
X0025903Y0012297D01*
X0025852Y0012136D01*
X0025797Y0011975D01*
X0025738Y0011817D01*
X0025675Y0011659D01*
X0025608Y0011504D01*
X0025538Y0011350D01*
X0025463Y0011198D01*
X0025385Y0011047D01*
X0025304Y0010899D01*
X0025218Y0010753D01*
X0025129Y0010609D01*
X0025037Y0010467D01*
X0024941Y0010327D01*
X0024842Y0010190D01*
X0024740Y0010055D01*
X0024634Y0009923D01*
X0024525Y0009793D01*
X0024413Y0009666D01*
X0024297Y0009542D01*
X0024179Y0009421D01*
X0024058Y0009303D01*
X0023934Y0009187D01*
X0023807Y0009075D01*
X0023677Y0008966D01*
X0023545Y0008860D01*
X0023410Y0008758D01*
X0023273Y0008659D01*
X0023133Y0008563D01*
X0022991Y0008471D01*
X0022847Y0008382D01*
X0022701Y0008296D01*
X0022553Y0008215D01*
X0022402Y0008137D01*
X0022250Y0008062D01*
X0022096Y0007992D01*
X0021941Y0007925D01*
X0021783Y0007862D01*
X0021625Y0007803D01*
X0021464Y0007748D01*
X0021303Y0007697D01*
X0021140Y0007650D01*
X0020977Y0007607D01*
X0020812Y0007568D01*
X0020646Y0007533D01*
X0020480Y0007502D01*
X0020312Y0007475D01*
X0020145Y0007452D01*
X0019976Y0007433D01*
X0019808Y0007419D01*
X0019639Y0007408D01*
X0019469Y0007402D01*
X0019300Y0007400D01*
X0019131Y0007402D01*
X0018961Y0007408D01*
X0018792Y0007419D01*
X0018624Y0007433D01*
X0018455Y0007452D01*
X0018288Y0007475D01*
X0018120Y0007502D01*
X0017954Y0007533D01*
X0017788Y0007568D01*
X0017623Y0007607D01*
X0017460Y0007650D01*
X0017297Y0007697D01*
X0017136Y0007748D01*
X0016975Y0007803D01*
X0016817Y0007862D01*
X0016659Y0007925D01*
X0016504Y0007992D01*
X0016350Y0008062D01*
X0016198Y0008137D01*
X0016047Y0008215D01*
X0015899Y0008296D01*
X0015753Y0008382D01*
X0015609Y0008471D01*
X0015467Y0008563D01*
X0015327Y0008659D01*
X0015190Y0008758D01*
X0015055Y0008860D01*
X0014923Y0008966D01*
X0014793Y0009075D01*
X0014666Y0009187D01*
X0014542Y0009303D01*
X0014421Y0009421D01*
X0014303Y0009542D01*
X0014187Y0009666D01*
X0014075Y0009793D01*
X0013966Y0009923D01*
X0013860Y0010055D01*
X0013758Y0010190D01*
X0013659Y0010327D01*
X0013563Y0010467D01*
X0013471Y0010609D01*
X0013382Y0010753D01*
X0013296Y0010899D01*
X0013215Y0011047D01*
X0013137Y0011198D01*
X0013062Y0011350D01*
X0012992Y0011504D01*
X0012925Y0011659D01*
X0012862Y0011817D01*
X0012803Y0011975D01*
X0012748Y0012136D01*
X0012697Y0012297D01*
X0012650Y0012460D01*
X0012607Y0012623D01*
X0012568Y0012788D01*
X0012533Y0012954D01*
X0012502Y0013120D01*
X0012475Y0013288D01*
X0012452Y0013455D01*
X0012433Y0013624D01*
X0012419Y0013792D01*
X0012408Y0013961D01*
X0012402Y0014131D01*
X0012400Y0014300D01*
X0015501Y0336800D02*
X0015503Y0336958D01*
X0015509Y0337116D01*
X0015519Y0337274D01*
X0015533Y0337432D01*
X0015551Y0337589D01*
X0015572Y0337746D01*
X0015598Y0337902D01*
X0015628Y0338058D01*
X0015661Y0338213D01*
X0015699Y0338366D01*
X0015740Y0338519D01*
X0015785Y0338671D01*
X0015834Y0338822D01*
X0015887Y0338971D01*
X0015943Y0339119D01*
X0016003Y0339265D01*
X0016067Y0339410D01*
X0016135Y0339553D01*
X0016206Y0339695D01*
X0016280Y0339835D01*
X0016358Y0339972D01*
X0016440Y0340108D01*
X0016524Y0340242D01*
X0016613Y0340373D01*
X0016704Y0340502D01*
X0016799Y0340629D01*
X0016896Y0340754D01*
X0016997Y0340876D01*
X0017101Y0340995D01*
X0017208Y0341112D01*
X0017318Y0341226D01*
X0017431Y0341337D01*
X0017546Y0341446D01*
X0017664Y0341551D01*
X0017785Y0341653D01*
X0017908Y0341753D01*
X0018034Y0341849D01*
X0018162Y0341942D01*
X0018292Y0342032D01*
X0018425Y0342118D01*
X0018560Y0342202D01*
X0018696Y0342281D01*
X0018835Y0342358D01*
X0018976Y0342430D01*
X0019118Y0342500D01*
X0019262Y0342565D01*
X0019408Y0342627D01*
X0019555Y0342685D01*
X0019704Y0342740D01*
X0019854Y0342791D01*
X0020005Y0342838D01*
X0020157Y0342881D01*
X0020310Y0342920D01*
X0020465Y0342956D01*
X0020620Y0342987D01*
X0020776Y0343015D01*
X0020932Y0343039D01*
X0021089Y0343059D01*
X0021247Y0343075D01*
X0021404Y0343087D01*
X0021563Y0343095D01*
X0021721Y0343099D01*
X0021879Y0343099D01*
X0022037Y0343095D01*
X0022196Y0343087D01*
X0022353Y0343075D01*
X0022511Y0343059D01*
X0022668Y0343039D01*
X0022824Y0343015D01*
X0022980Y0342987D01*
X0023135Y0342956D01*
X0023290Y0342920D01*
X0023443Y0342881D01*
X0023595Y0342838D01*
X0023746Y0342791D01*
X0023896Y0342740D01*
X0024045Y0342685D01*
X0024192Y0342627D01*
X0024338Y0342565D01*
X0024482Y0342500D01*
X0024624Y0342430D01*
X0024765Y0342358D01*
X0024904Y0342281D01*
X0025040Y0342202D01*
X0025175Y0342118D01*
X0025308Y0342032D01*
X0025438Y0341942D01*
X0025566Y0341849D01*
X0025692Y0341753D01*
X0025815Y0341653D01*
X0025936Y0341551D01*
X0026054Y0341446D01*
X0026169Y0341337D01*
X0026282Y0341226D01*
X0026392Y0341112D01*
X0026499Y0340995D01*
X0026603Y0340876D01*
X0026704Y0340754D01*
X0026801Y0340629D01*
X0026896Y0340502D01*
X0026987Y0340373D01*
X0027076Y0340242D01*
X0027160Y0340108D01*
X0027242Y0339972D01*
X0027320Y0339835D01*
X0027394Y0339695D01*
X0027465Y0339553D01*
X0027533Y0339410D01*
X0027597Y0339265D01*
X0027657Y0339119D01*
X0027713Y0338971D01*
X0027766Y0338822D01*
X0027815Y0338671D01*
X0027860Y0338519D01*
X0027901Y0338366D01*
X0027939Y0338213D01*
X0027972Y0338058D01*
X0028002Y0337902D01*
X0028028Y0337746D01*
X0028049Y0337589D01*
X0028067Y0337432D01*
X0028081Y0337274D01*
X0028091Y0337116D01*
X0028097Y0336958D01*
X0028099Y0336800D01*
X0028097Y0336642D01*
X0028091Y0336484D01*
X0028081Y0336326D01*
X0028067Y0336168D01*
X0028049Y0336011D01*
X0028028Y0335854D01*
X0028002Y0335698D01*
X0027972Y0335542D01*
X0027939Y0335387D01*
X0027901Y0335234D01*
X0027860Y0335081D01*
X0027815Y0334929D01*
X0027766Y0334778D01*
X0027713Y0334629D01*
X0027657Y0334481D01*
X0027597Y0334335D01*
X0027533Y0334190D01*
X0027465Y0334047D01*
X0027394Y0333905D01*
X0027320Y0333765D01*
X0027242Y0333628D01*
X0027160Y0333492D01*
X0027076Y0333358D01*
X0026987Y0333227D01*
X0026896Y0333098D01*
X0026801Y0332971D01*
X0026704Y0332846D01*
X0026603Y0332724D01*
X0026499Y0332605D01*
X0026392Y0332488D01*
X0026282Y0332374D01*
X0026169Y0332263D01*
X0026054Y0332154D01*
X0025936Y0332049D01*
X0025815Y0331947D01*
X0025692Y0331847D01*
X0025566Y0331751D01*
X0025438Y0331658D01*
X0025308Y0331568D01*
X0025175Y0331482D01*
X0025040Y0331398D01*
X0024904Y0331319D01*
X0024765Y0331242D01*
X0024624Y0331170D01*
X0024482Y0331100D01*
X0024338Y0331035D01*
X0024192Y0330973D01*
X0024045Y0330915D01*
X0023896Y0330860D01*
X0023746Y0330809D01*
X0023595Y0330762D01*
X0023443Y0330719D01*
X0023290Y0330680D01*
X0023135Y0330644D01*
X0022980Y0330613D01*
X0022824Y0330585D01*
X0022668Y0330561D01*
X0022511Y0330541D01*
X0022353Y0330525D01*
X0022196Y0330513D01*
X0022037Y0330505D01*
X0021879Y0330501D01*
X0021721Y0330501D01*
X0021563Y0330505D01*
X0021404Y0330513D01*
X0021247Y0330525D01*
X0021089Y0330541D01*
X0020932Y0330561D01*
X0020776Y0330585D01*
X0020620Y0330613D01*
X0020465Y0330644D01*
X0020310Y0330680D01*
X0020157Y0330719D01*
X0020005Y0330762D01*
X0019854Y0330809D01*
X0019704Y0330860D01*
X0019555Y0330915D01*
X0019408Y0330973D01*
X0019262Y0331035D01*
X0019118Y0331100D01*
X0018976Y0331170D01*
X0018835Y0331242D01*
X0018696Y0331319D01*
X0018560Y0331398D01*
X0018425Y0331482D01*
X0018292Y0331568D01*
X0018162Y0331658D01*
X0018034Y0331751D01*
X0017908Y0331847D01*
X0017785Y0331947D01*
X0017664Y0332049D01*
X0017546Y0332154D01*
X0017431Y0332263D01*
X0017318Y0332374D01*
X0017208Y0332488D01*
X0017101Y0332605D01*
X0016997Y0332724D01*
X0016896Y0332846D01*
X0016799Y0332971D01*
X0016704Y0333098D01*
X0016613Y0333227D01*
X0016524Y0333358D01*
X0016440Y0333492D01*
X0016358Y0333628D01*
X0016280Y0333765D01*
X0016206Y0333905D01*
X0016135Y0334047D01*
X0016067Y0334190D01*
X0016003Y0334335D01*
X0015943Y0334481D01*
X0015887Y0334629D01*
X0015834Y0334778D01*
X0015785Y0334929D01*
X0015740Y0335081D01*
X0015699Y0335234D01*
X0015661Y0335387D01*
X0015628Y0335542D01*
X0015598Y0335698D01*
X0015572Y0335854D01*
X0015551Y0336011D01*
X0015533Y0336168D01*
X0015519Y0336326D01*
X0015509Y0336484D01*
X0015503Y0336642D01*
X0015501Y0336800D01*
X0310501Y0336800D02*
X0310503Y0336958D01*
X0310509Y0337116D01*
X0310519Y0337274D01*
X0310533Y0337432D01*
X0310551Y0337589D01*
X0310572Y0337746D01*
X0310598Y0337902D01*
X0310628Y0338058D01*
X0310661Y0338213D01*
X0310699Y0338366D01*
X0310740Y0338519D01*
X0310785Y0338671D01*
X0310834Y0338822D01*
X0310887Y0338971D01*
X0310943Y0339119D01*
X0311003Y0339265D01*
X0311067Y0339410D01*
X0311135Y0339553D01*
X0311206Y0339695D01*
X0311280Y0339835D01*
X0311358Y0339972D01*
X0311440Y0340108D01*
X0311524Y0340242D01*
X0311613Y0340373D01*
X0311704Y0340502D01*
X0311799Y0340629D01*
X0311896Y0340754D01*
X0311997Y0340876D01*
X0312101Y0340995D01*
X0312208Y0341112D01*
X0312318Y0341226D01*
X0312431Y0341337D01*
X0312546Y0341446D01*
X0312664Y0341551D01*
X0312785Y0341653D01*
X0312908Y0341753D01*
X0313034Y0341849D01*
X0313162Y0341942D01*
X0313292Y0342032D01*
X0313425Y0342118D01*
X0313560Y0342202D01*
X0313696Y0342281D01*
X0313835Y0342358D01*
X0313976Y0342430D01*
X0314118Y0342500D01*
X0314262Y0342565D01*
X0314408Y0342627D01*
X0314555Y0342685D01*
X0314704Y0342740D01*
X0314854Y0342791D01*
X0315005Y0342838D01*
X0315157Y0342881D01*
X0315310Y0342920D01*
X0315465Y0342956D01*
X0315620Y0342987D01*
X0315776Y0343015D01*
X0315932Y0343039D01*
X0316089Y0343059D01*
X0316247Y0343075D01*
X0316404Y0343087D01*
X0316563Y0343095D01*
X0316721Y0343099D01*
X0316879Y0343099D01*
X0317037Y0343095D01*
X0317196Y0343087D01*
X0317353Y0343075D01*
X0317511Y0343059D01*
X0317668Y0343039D01*
X0317824Y0343015D01*
X0317980Y0342987D01*
X0318135Y0342956D01*
X0318290Y0342920D01*
X0318443Y0342881D01*
X0318595Y0342838D01*
X0318746Y0342791D01*
X0318896Y0342740D01*
X0319045Y0342685D01*
X0319192Y0342627D01*
X0319338Y0342565D01*
X0319482Y0342500D01*
X0319624Y0342430D01*
X0319765Y0342358D01*
X0319904Y0342281D01*
X0320040Y0342202D01*
X0320175Y0342118D01*
X0320308Y0342032D01*
X0320438Y0341942D01*
X0320566Y0341849D01*
X0320692Y0341753D01*
X0320815Y0341653D01*
X0320936Y0341551D01*
X0321054Y0341446D01*
X0321169Y0341337D01*
X0321282Y0341226D01*
X0321392Y0341112D01*
X0321499Y0340995D01*
X0321603Y0340876D01*
X0321704Y0340754D01*
X0321801Y0340629D01*
X0321896Y0340502D01*
X0321987Y0340373D01*
X0322076Y0340242D01*
X0322160Y0340108D01*
X0322242Y0339972D01*
X0322320Y0339835D01*
X0322394Y0339695D01*
X0322465Y0339553D01*
X0322533Y0339410D01*
X0322597Y0339265D01*
X0322657Y0339119D01*
X0322713Y0338971D01*
X0322766Y0338822D01*
X0322815Y0338671D01*
X0322860Y0338519D01*
X0322901Y0338366D01*
X0322939Y0338213D01*
X0322972Y0338058D01*
X0323002Y0337902D01*
X0323028Y0337746D01*
X0323049Y0337589D01*
X0323067Y0337432D01*
X0323081Y0337274D01*
X0323091Y0337116D01*
X0323097Y0336958D01*
X0323099Y0336800D01*
X0323097Y0336642D01*
X0323091Y0336484D01*
X0323081Y0336326D01*
X0323067Y0336168D01*
X0323049Y0336011D01*
X0323028Y0335854D01*
X0323002Y0335698D01*
X0322972Y0335542D01*
X0322939Y0335387D01*
X0322901Y0335234D01*
X0322860Y0335081D01*
X0322815Y0334929D01*
X0322766Y0334778D01*
X0322713Y0334629D01*
X0322657Y0334481D01*
X0322597Y0334335D01*
X0322533Y0334190D01*
X0322465Y0334047D01*
X0322394Y0333905D01*
X0322320Y0333765D01*
X0322242Y0333628D01*
X0322160Y0333492D01*
X0322076Y0333358D01*
X0321987Y0333227D01*
X0321896Y0333098D01*
X0321801Y0332971D01*
X0321704Y0332846D01*
X0321603Y0332724D01*
X0321499Y0332605D01*
X0321392Y0332488D01*
X0321282Y0332374D01*
X0321169Y0332263D01*
X0321054Y0332154D01*
X0320936Y0332049D01*
X0320815Y0331947D01*
X0320692Y0331847D01*
X0320566Y0331751D01*
X0320438Y0331658D01*
X0320308Y0331568D01*
X0320175Y0331482D01*
X0320040Y0331398D01*
X0319904Y0331319D01*
X0319765Y0331242D01*
X0319624Y0331170D01*
X0319482Y0331100D01*
X0319338Y0331035D01*
X0319192Y0330973D01*
X0319045Y0330915D01*
X0318896Y0330860D01*
X0318746Y0330809D01*
X0318595Y0330762D01*
X0318443Y0330719D01*
X0318290Y0330680D01*
X0318135Y0330644D01*
X0317980Y0330613D01*
X0317824Y0330585D01*
X0317668Y0330561D01*
X0317511Y0330541D01*
X0317353Y0330525D01*
X0317196Y0330513D01*
X0317037Y0330505D01*
X0316879Y0330501D01*
X0316721Y0330501D01*
X0316563Y0330505D01*
X0316404Y0330513D01*
X0316247Y0330525D01*
X0316089Y0330541D01*
X0315932Y0330561D01*
X0315776Y0330585D01*
X0315620Y0330613D01*
X0315465Y0330644D01*
X0315310Y0330680D01*
X0315157Y0330719D01*
X0315005Y0330762D01*
X0314854Y0330809D01*
X0314704Y0330860D01*
X0314555Y0330915D01*
X0314408Y0330973D01*
X0314262Y0331035D01*
X0314118Y0331100D01*
X0313976Y0331170D01*
X0313835Y0331242D01*
X0313696Y0331319D01*
X0313560Y0331398D01*
X0313425Y0331482D01*
X0313292Y0331568D01*
X0313162Y0331658D01*
X0313034Y0331751D01*
X0312908Y0331847D01*
X0312785Y0331947D01*
X0312664Y0332049D01*
X0312546Y0332154D01*
X0312431Y0332263D01*
X0312318Y0332374D01*
X0312208Y0332488D01*
X0312101Y0332605D01*
X0311997Y0332724D01*
X0311896Y0332846D01*
X0311799Y0332971D01*
X0311704Y0333098D01*
X0311613Y0333227D01*
X0311524Y0333358D01*
X0311440Y0333492D01*
X0311358Y0333628D01*
X0311280Y0333765D01*
X0311206Y0333905D01*
X0311135Y0334047D01*
X0311067Y0334190D01*
X0311003Y0334335D01*
X0310943Y0334481D01*
X0310887Y0334629D01*
X0310834Y0334778D01*
X0310785Y0334929D01*
X0310740Y0335081D01*
X0310699Y0335234D01*
X0310661Y0335387D01*
X0310628Y0335542D01*
X0310598Y0335698D01*
X0310572Y0335854D01*
X0310551Y0336011D01*
X0310533Y0336168D01*
X0310519Y0336326D01*
X0310509Y0336484D01*
X0310503Y0336642D01*
X0310501Y0336800D01*
X0312400Y0013902D02*
X0312402Y0014071D01*
X0312408Y0014241D01*
X0312419Y0014410D01*
X0312433Y0014578D01*
X0312452Y0014747D01*
X0312475Y0014914D01*
X0312502Y0015082D01*
X0312533Y0015248D01*
X0312568Y0015414D01*
X0312607Y0015579D01*
X0312650Y0015742D01*
X0312697Y0015905D01*
X0312748Y0016066D01*
X0312803Y0016227D01*
X0312862Y0016385D01*
X0312925Y0016543D01*
X0312992Y0016698D01*
X0313062Y0016852D01*
X0313137Y0017004D01*
X0313215Y0017155D01*
X0313296Y0017303D01*
X0313382Y0017449D01*
X0313471Y0017593D01*
X0313563Y0017735D01*
X0313659Y0017875D01*
X0313758Y0018012D01*
X0313860Y0018147D01*
X0313966Y0018279D01*
X0314075Y0018409D01*
X0314187Y0018536D01*
X0314303Y0018660D01*
X0314421Y0018781D01*
X0314542Y0018899D01*
X0314666Y0019015D01*
X0314793Y0019127D01*
X0314923Y0019236D01*
X0315055Y0019342D01*
X0315190Y0019444D01*
X0315327Y0019543D01*
X0315467Y0019639D01*
X0315609Y0019731D01*
X0315753Y0019820D01*
X0315899Y0019906D01*
X0316047Y0019987D01*
X0316198Y0020065D01*
X0316350Y0020140D01*
X0316504Y0020210D01*
X0316659Y0020277D01*
X0316817Y0020340D01*
X0316975Y0020399D01*
X0317136Y0020454D01*
X0317297Y0020505D01*
X0317460Y0020552D01*
X0317623Y0020595D01*
X0317788Y0020634D01*
X0317954Y0020669D01*
X0318120Y0020700D01*
X0318288Y0020727D01*
X0318455Y0020750D01*
X0318624Y0020769D01*
X0318792Y0020783D01*
X0318961Y0020794D01*
X0319131Y0020800D01*
X0319300Y0020802D01*
X0319469Y0020800D01*
X0319639Y0020794D01*
X0319808Y0020783D01*
X0319976Y0020769D01*
X0320145Y0020750D01*
X0320312Y0020727D01*
X0320480Y0020700D01*
X0320646Y0020669D01*
X0320812Y0020634D01*
X0320977Y0020595D01*
X0321140Y0020552D01*
X0321303Y0020505D01*
X0321464Y0020454D01*
X0321625Y0020399D01*
X0321783Y0020340D01*
X0321941Y0020277D01*
X0322096Y0020210D01*
X0322250Y0020140D01*
X0322402Y0020065D01*
X0322553Y0019987D01*
X0322701Y0019906D01*
X0322847Y0019820D01*
X0322991Y0019731D01*
X0323133Y0019639D01*
X0323273Y0019543D01*
X0323410Y0019444D01*
X0323545Y0019342D01*
X0323677Y0019236D01*
X0323807Y0019127D01*
X0323934Y0019015D01*
X0324058Y0018899D01*
X0324179Y0018781D01*
X0324297Y0018660D01*
X0324413Y0018536D01*
X0324525Y0018409D01*
X0324634Y0018279D01*
X0324740Y0018147D01*
X0324842Y0018012D01*
X0324941Y0017875D01*
X0325037Y0017735D01*
X0325129Y0017593D01*
X0325218Y0017449D01*
X0325304Y0017303D01*
X0325385Y0017155D01*
X0325463Y0017004D01*
X0325538Y0016852D01*
X0325608Y0016698D01*
X0325675Y0016543D01*
X0325738Y0016385D01*
X0325797Y0016227D01*
X0325852Y0016066D01*
X0325903Y0015905D01*
X0325950Y0015742D01*
X0325993Y0015579D01*
X0326032Y0015414D01*
X0326067Y0015248D01*
X0326098Y0015082D01*
X0326125Y0014914D01*
X0326148Y0014747D01*
X0326167Y0014578D01*
X0326181Y0014410D01*
X0326192Y0014241D01*
X0326198Y0014071D01*
X0326200Y0013902D01*
X0326198Y0013733D01*
X0326192Y0013563D01*
X0326181Y0013394D01*
X0326167Y0013226D01*
X0326148Y0013057D01*
X0326125Y0012890D01*
X0326098Y0012722D01*
X0326067Y0012556D01*
X0326032Y0012390D01*
X0325993Y0012225D01*
X0325950Y0012062D01*
X0325903Y0011899D01*
X0325852Y0011738D01*
X0325797Y0011577D01*
X0325738Y0011419D01*
X0325675Y0011261D01*
X0325608Y0011106D01*
X0325538Y0010952D01*
X0325463Y0010800D01*
X0325385Y0010649D01*
X0325304Y0010501D01*
X0325218Y0010355D01*
X0325129Y0010211D01*
X0325037Y0010069D01*
X0324941Y0009929D01*
X0324842Y0009792D01*
X0324740Y0009657D01*
X0324634Y0009525D01*
X0324525Y0009395D01*
X0324413Y0009268D01*
X0324297Y0009144D01*
X0324179Y0009023D01*
X0324058Y0008905D01*
X0323934Y0008789D01*
X0323807Y0008677D01*
X0323677Y0008568D01*
X0323545Y0008462D01*
X0323410Y0008360D01*
X0323273Y0008261D01*
X0323133Y0008165D01*
X0322991Y0008073D01*
X0322847Y0007984D01*
X0322701Y0007898D01*
X0322553Y0007817D01*
X0322402Y0007739D01*
X0322250Y0007664D01*
X0322096Y0007594D01*
X0321941Y0007527D01*
X0321783Y0007464D01*
X0321625Y0007405D01*
X0321464Y0007350D01*
X0321303Y0007299D01*
X0321140Y0007252D01*
X0320977Y0007209D01*
X0320812Y0007170D01*
X0320646Y0007135D01*
X0320480Y0007104D01*
X0320312Y0007077D01*
X0320145Y0007054D01*
X0319976Y0007035D01*
X0319808Y0007021D01*
X0319639Y0007010D01*
X0319469Y0007004D01*
X0319300Y0007002D01*
X0319131Y0007004D01*
X0318961Y0007010D01*
X0318792Y0007021D01*
X0318624Y0007035D01*
X0318455Y0007054D01*
X0318288Y0007077D01*
X0318120Y0007104D01*
X0317954Y0007135D01*
X0317788Y0007170D01*
X0317623Y0007209D01*
X0317460Y0007252D01*
X0317297Y0007299D01*
X0317136Y0007350D01*
X0316975Y0007405D01*
X0316817Y0007464D01*
X0316659Y0007527D01*
X0316504Y0007594D01*
X0316350Y0007664D01*
X0316198Y0007739D01*
X0316047Y0007817D01*
X0315899Y0007898D01*
X0315753Y0007984D01*
X0315609Y0008073D01*
X0315467Y0008165D01*
X0315327Y0008261D01*
X0315190Y0008360D01*
X0315055Y0008462D01*
X0314923Y0008568D01*
X0314793Y0008677D01*
X0314666Y0008789D01*
X0314542Y0008905D01*
X0314421Y0009023D01*
X0314303Y0009144D01*
X0314187Y0009268D01*
X0314075Y0009395D01*
X0313966Y0009525D01*
X0313860Y0009657D01*
X0313758Y0009792D01*
X0313659Y0009929D01*
X0313563Y0010069D01*
X0313471Y0010211D01*
X0313382Y0010355D01*
X0313296Y0010501D01*
X0313215Y0010649D01*
X0313137Y0010800D01*
X0313062Y0010952D01*
X0312992Y0011106D01*
X0312925Y0011261D01*
X0312862Y0011419D01*
X0312803Y0011577D01*
X0312748Y0011738D01*
X0312697Y0011899D01*
X0312650Y0012062D01*
X0312607Y0012225D01*
X0312568Y0012390D01*
X0312533Y0012556D01*
X0312502Y0012722D01*
X0312475Y0012890D01*
X0312452Y0013057D01*
X0312433Y0013226D01*
X0312419Y0013394D01*
X0312408Y0013563D01*
X0312402Y0013733D01*
X0312400Y0013902D01*
D11*
X0266800Y0043454D03*
X0266800Y0050146D03*
X0266800Y0093454D03*
X0266800Y0100146D03*
X0041800Y0100146D03*
X0041800Y0093454D03*
D12*
X0049300Y0096400D03*
X0054300Y0096400D03*
X0059300Y0096400D03*
X0064300Y0096400D03*
X0069300Y0096400D03*
X0074300Y0096400D03*
X0079300Y0096400D03*
X0084300Y0096400D03*
X0084300Y0072200D03*
X0079300Y0072200D03*
X0074300Y0072200D03*
X0069300Y0072200D03*
X0064300Y0072200D03*
X0059300Y0072200D03*
X0054300Y0072200D03*
X0049300Y0072200D03*
D13*
X0150461Y0169300D03*
X0183139Y0169300D03*
X0183139Y0224300D03*
X0150461Y0224300D03*
X0150461Y0279300D03*
X0183139Y0279300D03*
X0183139Y0334300D03*
X0150461Y0334300D03*
D14*
X0243060Y0101800D03*
X0250540Y0101800D03*
X0250540Y0091800D03*
X0243060Y0091800D03*
X0243060Y0071800D03*
X0250540Y0071800D03*
X0250540Y0061800D03*
X0243060Y0061800D03*
X0243060Y0051800D03*
X0250540Y0051800D03*
X0250540Y0041800D03*
X0243060Y0041800D03*
X0039300Y0082509D03*
X0029300Y0082509D03*
D15*
X0036800Y0045540D03*
X0036800Y0038060D03*
X0046800Y0038060D03*
X0046800Y0045540D03*
X0056800Y0045540D03*
X0056800Y0038060D03*
X0066800Y0038060D03*
X0066800Y0045540D03*
X0076800Y0045540D03*
X0076800Y0038060D03*
X0086800Y0038060D03*
X0086800Y0045540D03*
D16*
X0034300Y0071091D03*
D17*
X0274713Y0055639D03*
X0274713Y0053080D03*
X0274713Y0050520D03*
X0274713Y0047961D03*
X0288887Y0047961D03*
X0288887Y0050520D03*
X0288887Y0053080D03*
X0288887Y0055639D03*
X0288887Y0097961D03*
X0288887Y0100520D03*
X0288887Y0103080D03*
X0288887Y0105639D03*
X0274713Y0105639D03*
X0274713Y0103080D03*
X0274713Y0100520D03*
X0274713Y0097961D03*
D18*
X0281800Y0101800D03*
X0281800Y0051800D03*
D19*
X0283080Y0044713D03*
X0285639Y0044713D03*
X0280520Y0044713D03*
X0277961Y0044713D03*
X0277961Y0058887D03*
X0280520Y0058887D03*
X0283080Y0058887D03*
X0285639Y0058887D03*
X0285639Y0094713D03*
X0283080Y0094713D03*
X0280520Y0094713D03*
X0277961Y0094713D03*
X0277961Y0108887D03*
X0280520Y0108887D03*
X0283080Y0108887D03*
X0285639Y0108887D03*
D20*
X0308800Y0071800D02*
X0314800Y0071800D01*
X0314800Y0061800D02*
X0308800Y0061800D01*
X0308800Y0051800D02*
X0314800Y0051800D01*
X0190800Y0020800D02*
X0190800Y0014800D01*
X0180800Y0014800D02*
X0180800Y0020800D01*
X0170800Y0020800D02*
X0170800Y0014800D01*
X0160800Y0014800D02*
X0160800Y0020800D01*
X0150800Y0020800D02*
X0150800Y0014800D01*
X0140800Y0014800D02*
X0140800Y0020800D01*
X0130800Y0020800D02*
X0130800Y0014800D01*
X0120800Y0014800D02*
X0120800Y0020800D01*
X0110800Y0020800D02*
X0110800Y0014800D01*
X0100800Y0014800D02*
X0100800Y0020800D01*
X0090800Y0020800D02*
X0090800Y0014800D01*
X0080800Y0014800D02*
X0080800Y0020800D01*
X0070800Y0020800D02*
X0070800Y0014800D01*
X0060800Y0014800D02*
X0060800Y0020800D01*
X0050800Y0020800D02*
X0050800Y0014800D01*
X0040800Y0014800D02*
X0040800Y0020800D01*
D21*
X0101800Y0046800D03*
X0111800Y0046800D03*
X0121800Y0046800D03*
X0131800Y0046800D03*
X0141800Y0046800D03*
X0151800Y0046800D03*
X0161800Y0046800D03*
X0171800Y0046800D03*
X0181800Y0046800D03*
X0191800Y0046800D03*
X0201800Y0046800D03*
X0211800Y0046800D03*
X0221800Y0046800D03*
X0231800Y0046800D03*
X0231800Y0106800D03*
X0221800Y0106800D03*
X0211800Y0106800D03*
X0201800Y0106800D03*
X0191800Y0106800D03*
X0181800Y0106800D03*
X0171800Y0106800D03*
X0161800Y0106800D03*
X0151800Y0106800D03*
X0141800Y0106800D03*
X0131800Y0106800D03*
X0121800Y0106800D03*
X0111800Y0106800D03*
X0101800Y0106800D03*
D22*
X0116800Y0081800D03*
X0116800Y0071800D03*
X0126800Y0071800D03*
X0126800Y0081800D03*
X0136800Y0081800D03*
X0136800Y0071800D03*
X0146800Y0071800D03*
X0146800Y0081800D03*
X0156800Y0081800D03*
X0156800Y0071800D03*
X0166800Y0071800D03*
X0166800Y0081800D03*
X0176800Y0081800D03*
X0176800Y0071800D03*
X0186800Y0071800D03*
X0186800Y0081800D03*
D23*
X0216800Y0144300D03*
X0216800Y0169300D03*
X0216800Y0199300D03*
X0216800Y0224300D03*
X0216800Y0254300D03*
X0216800Y0279300D03*
X0216800Y0309300D03*
X0216800Y0334300D03*
X0116800Y0334300D03*
X0116800Y0309300D03*
X0116800Y0279300D03*
X0116800Y0254300D03*
X0116800Y0224300D03*
X0116800Y0199300D03*
X0116800Y0169300D03*
X0116800Y0144300D03*
D24*
X0025934Y0115068D02*
X0017666Y0115068D01*
X0017666Y0098139D02*
X0025934Y0098139D01*
D25*
X0022378Y0098324D02*
X0031900Y0098324D01*
X0031850Y0098717D02*
X0031722Y0099528D01*
X0031433Y0100416D01*
X0031009Y0101249D01*
X0030460Y0102004D01*
X0029799Y0102665D01*
X0029044Y0103214D01*
X0028212Y0103638D01*
X0027323Y0103926D01*
X0026401Y0104072D01*
X0022378Y0104072D01*
X0022378Y0098717D01*
X0021222Y0098717D01*
X0021222Y0104072D01*
X0017199Y0104072D01*
X0016277Y0103926D01*
X0015388Y0103638D01*
X0014556Y0103214D01*
X0013800Y0102665D01*
X0013140Y0102004D01*
X0012591Y0101249D01*
X0012167Y0100416D01*
X0011878Y0099528D01*
X0011750Y0098717D01*
X0021222Y0098717D01*
X0021222Y0097561D01*
X0011750Y0097561D01*
X0011878Y0096749D01*
X0012167Y0095861D01*
X0012591Y0095029D01*
X0013140Y0094273D01*
X0013800Y0093612D01*
X0014556Y0093063D01*
X0015388Y0092639D01*
X0016277Y0092351D01*
X0017199Y0092205D01*
X0021222Y0092205D01*
X0021222Y0097561D01*
X0022378Y0097561D01*
X0022378Y0098717D01*
X0031850Y0098717D01*
X0031850Y0097561D02*
X0022378Y0097561D01*
X0022378Y0092205D01*
X0026401Y0092205D01*
X0027323Y0092351D01*
X0028212Y0092639D01*
X0029044Y0093063D01*
X0029799Y0093612D01*
X0030460Y0094273D01*
X0031009Y0095029D01*
X0031433Y0095861D01*
X0031722Y0096749D01*
X0031850Y0097561D01*
X0031900Y0096726D02*
X0031714Y0096726D01*
X0031900Y0096323D02*
X0032265Y0095441D01*
X0035612Y0092094D01*
X0036287Y0091419D01*
X0037169Y0091054D01*
X0037247Y0091054D01*
X0037247Y0090232D01*
X0038184Y0089294D01*
X0039400Y0089294D01*
X0039400Y0087258D01*
X0036078Y0087258D01*
X0035141Y0086321D01*
X0035141Y0078696D01*
X0036078Y0077759D01*
X0037447Y0077759D01*
X0039400Y0075806D01*
X0039400Y0075341D01*
X0038900Y0075841D01*
X0029700Y0075841D01*
X0028763Y0074904D01*
X0028763Y0067279D01*
X0028824Y0067218D01*
X0020441Y0058835D01*
X0019765Y0058159D01*
X0019400Y0057277D01*
X0019400Y0036323D01*
X0019765Y0035441D01*
X0029400Y0025806D01*
X0029400Y0020206D01*
X0028662Y0021484D01*
X0026484Y0023662D01*
X0023816Y0025203D01*
X0020840Y0026000D01*
X0017760Y0026000D01*
X0014784Y0025203D01*
X0012116Y0023662D01*
X0011600Y0023146D01*
X0011600Y0116800D01*
X0012177Y0116800D01*
X0011932Y0116208D01*
X0011932Y0113927D01*
X0012805Y0111820D01*
X0014418Y0110207D01*
X0016526Y0109334D01*
X0027074Y0109334D01*
X0029182Y0110207D01*
X0029590Y0110615D01*
X0031900Y0108306D01*
X0031900Y0096323D01*
X0032579Y0095127D02*
X0031059Y0095127D01*
X0029684Y0093529D02*
X0034177Y0093529D01*
X0035776Y0091930D02*
X0011600Y0091930D01*
X0011600Y0090332D02*
X0037247Y0090332D01*
X0039400Y0088733D02*
X0011600Y0088733D01*
X0011600Y0087134D02*
X0025698Y0087134D01*
X0025636Y0087099D02*
X0025301Y0086763D01*
X0025064Y0086353D01*
X0024941Y0085895D01*
X0024941Y0082988D01*
X0028820Y0082988D01*
X0028820Y0082029D01*
X0024941Y0082029D01*
X0024941Y0079122D01*
X0025064Y0078664D01*
X0025301Y0078254D01*
X0025636Y0077919D01*
X0026046Y0077682D01*
X0026504Y0077559D01*
X0028820Y0077559D01*
X0028820Y0082029D01*
X0029780Y0082029D01*
X0029780Y0082988D01*
X0033659Y0082988D01*
X0033659Y0085895D01*
X0033536Y0086353D01*
X0033299Y0086763D01*
X0032964Y0087099D01*
X0032554Y0087336D01*
X0032096Y0087458D01*
X0029780Y0087458D01*
X0029780Y0082988D01*
X0028820Y0082988D01*
X0028820Y0087458D01*
X0026504Y0087458D01*
X0026046Y0087336D01*
X0025636Y0087099D01*
X0024941Y0085536D02*
X0011600Y0085536D01*
X0011600Y0083937D02*
X0024941Y0083937D01*
X0024941Y0080740D02*
X0011600Y0080740D01*
X0011600Y0079142D02*
X0024941Y0079142D01*
X0028820Y0079142D02*
X0029780Y0079142D01*
X0029780Y0077559D02*
X0029780Y0082029D01*
X0033659Y0082029D01*
X0033659Y0079122D01*
X0033536Y0078664D01*
X0033299Y0078254D01*
X0032964Y0077919D01*
X0032554Y0077682D01*
X0032096Y0077559D01*
X0029780Y0077559D01*
X0029780Y0080740D02*
X0028820Y0080740D01*
X0028820Y0082339D02*
X0011600Y0082339D01*
X0011600Y0077543D02*
X0037662Y0077543D01*
X0039261Y0075945D02*
X0011600Y0075945D01*
X0011600Y0074346D02*
X0028763Y0074346D01*
X0028763Y0072748D02*
X0011600Y0072748D01*
X0011600Y0071149D02*
X0028763Y0071149D01*
X0028763Y0069551D02*
X0011600Y0069551D01*
X0011600Y0067952D02*
X0028763Y0067952D01*
X0027960Y0066354D02*
X0011600Y0066354D01*
X0011600Y0064755D02*
X0026361Y0064755D01*
X0024763Y0063157D02*
X0011600Y0063157D01*
X0011600Y0061558D02*
X0023164Y0061558D01*
X0021566Y0059960D02*
X0011600Y0059960D01*
X0011600Y0058361D02*
X0019967Y0058361D01*
X0019400Y0056763D02*
X0011600Y0056763D01*
X0011600Y0055164D02*
X0019400Y0055164D01*
X0019400Y0053566D02*
X0011600Y0053566D01*
X0011600Y0051967D02*
X0019400Y0051967D01*
X0019400Y0050369D02*
X0011600Y0050369D01*
X0011600Y0048770D02*
X0019400Y0048770D01*
X0019400Y0047172D02*
X0011600Y0047172D01*
X0011600Y0045573D02*
X0019400Y0045573D01*
X0019400Y0043975D02*
X0011600Y0043975D01*
X0011600Y0042376D02*
X0019400Y0042376D01*
X0019400Y0040778D02*
X0011600Y0040778D01*
X0011600Y0039179D02*
X0019400Y0039179D01*
X0019400Y0037581D02*
X0011600Y0037581D01*
X0011600Y0035982D02*
X0019541Y0035982D01*
X0020822Y0034384D02*
X0011600Y0034384D01*
X0011600Y0032785D02*
X0022421Y0032785D01*
X0024019Y0031187D02*
X0011600Y0031187D01*
X0011600Y0029588D02*
X0025618Y0029588D01*
X0027216Y0027990D02*
X0011600Y0027990D01*
X0011600Y0026391D02*
X0028815Y0026391D01*
X0029400Y0024793D02*
X0024526Y0024793D01*
X0026952Y0023194D02*
X0029400Y0023194D01*
X0029400Y0021596D02*
X0028551Y0021596D01*
X0031800Y0016800D02*
X0031800Y0026800D01*
X0021800Y0036800D01*
X0021800Y0056800D01*
X0034300Y0069300D01*
X0034300Y0071091D01*
X0041800Y0066800D02*
X0036800Y0061800D01*
X0031800Y0061800D01*
X0026800Y0056800D01*
X0026800Y0036800D01*
X0036800Y0026800D01*
X0046800Y0026800D01*
X0050816Y0022784D01*
X0050816Y0017816D01*
X0050800Y0017800D01*
X0055400Y0018399D02*
X0056200Y0018399D01*
X0056200Y0019997D02*
X0055400Y0019997D01*
X0055400Y0021596D02*
X0056200Y0021596D01*
X0056200Y0021715D02*
X0056200Y0014594D01*
X0055336Y0013730D01*
X0055400Y0013885D01*
X0055400Y0021715D01*
X0054700Y0023406D01*
X0053406Y0024700D01*
X0051715Y0025400D01*
X0051594Y0025400D01*
X0048159Y0028835D01*
X0047277Y0029200D01*
X0038568Y0029200D01*
X0039419Y0030050D01*
X0039889Y0031186D01*
X0039889Y0032414D01*
X0039419Y0033550D01*
X0039200Y0033768D01*
X0039200Y0033901D01*
X0040612Y0033901D01*
X0041550Y0034838D01*
X0041550Y0041282D01*
X0041031Y0041800D01*
X0041550Y0042318D01*
X0041550Y0048762D01*
X0040612Y0049699D01*
X0039200Y0049699D01*
X0039200Y0054136D01*
X0039836Y0054771D01*
X0040381Y0056088D01*
X0040381Y0057512D01*
X0039836Y0058829D01*
X0038829Y0059836D01*
X0038405Y0060011D01*
X0038835Y0060441D01*
X0043835Y0065441D01*
X0044200Y0066323D01*
X0044200Y0077277D01*
X0043835Y0078159D01*
X0043378Y0078616D01*
X0043459Y0078696D01*
X0043459Y0083274D01*
X0043835Y0083649D01*
X0044200Y0084531D01*
X0044200Y0089294D01*
X0045415Y0089294D01*
X0046353Y0090232D01*
X0046353Y0091054D01*
X0046831Y0091054D01*
X0047010Y0091128D01*
X0047337Y0090800D01*
X0051263Y0090800D01*
X0051800Y0091337D01*
X0051900Y0091237D01*
X0051900Y0088823D01*
X0052265Y0087941D01*
X0054765Y0085441D01*
X0055441Y0084765D01*
X0056323Y0084400D01*
X0085806Y0084400D01*
X0086006Y0084200D01*
X0051323Y0084200D01*
X0050441Y0083835D01*
X0047941Y0081335D01*
X0047265Y0080659D01*
X0046900Y0079777D01*
X0046900Y0077363D01*
X0046400Y0076863D01*
X0046400Y0067537D01*
X0047337Y0066600D01*
X0051263Y0066600D01*
X0051800Y0067137D01*
X0051900Y0067037D01*
X0051900Y0066964D01*
X0051264Y0066329D01*
X0050719Y0065012D01*
X0050719Y0063588D01*
X0051264Y0062271D01*
X0052271Y0061264D01*
X0053588Y0060719D01*
X0055012Y0060719D01*
X0056329Y0061264D01*
X0056900Y0061836D01*
X0056900Y0060294D01*
X0055441Y0058835D01*
X0055441Y0058835D01*
X0054765Y0058159D01*
X0054400Y0057277D01*
X0054400Y0049699D01*
X0052988Y0049699D01*
X0052050Y0048762D01*
X0052050Y0042318D01*
X0052569Y0041800D01*
X0052050Y0041282D01*
X0052050Y0034838D01*
X0052988Y0033901D01*
X0054400Y0033901D01*
X0054400Y0031323D01*
X0054765Y0030441D01*
X0057265Y0027941D01*
X0057265Y0027941D01*
X0057941Y0027265D01*
X0058823Y0026900D01*
X0073306Y0026900D01*
X0074765Y0025441D01*
X0075441Y0024765D01*
X0076323Y0024400D01*
X0077612Y0024400D01*
X0077139Y0023927D01*
X0076695Y0023316D01*
X0076352Y0022643D01*
X0076118Y0021924D01*
X0076000Y0021178D01*
X0076000Y0018000D01*
X0080600Y0018000D01*
X0080600Y0017600D01*
X0081000Y0017600D01*
X0081000Y0018000D01*
X0085600Y0018000D01*
X0085600Y0021178D01*
X0085482Y0021924D01*
X0085248Y0022643D01*
X0084905Y0023316D01*
X0084461Y0023927D01*
X0083988Y0024400D01*
X0087895Y0024400D01*
X0086900Y0023406D01*
X0086200Y0021715D01*
X0086200Y0013885D01*
X0086900Y0012194D01*
X0088194Y0010900D01*
X0089885Y0010200D01*
X0091715Y0010200D01*
X0093406Y0010900D01*
X0094700Y0012194D01*
X0095400Y0013885D01*
X0095400Y0021715D01*
X0094700Y0023406D01*
X0093705Y0024400D01*
X0097895Y0024400D01*
X0096900Y0023406D01*
X0096200Y0021715D01*
X0096200Y0013885D01*
X0096900Y0012194D01*
X0098194Y0010900D01*
X0099885Y0010200D01*
X0101715Y0010200D01*
X0103406Y0010900D01*
X0104700Y0012194D01*
X0105400Y0013885D01*
X0105400Y0021715D01*
X0104700Y0023406D01*
X0103705Y0024400D01*
X0107895Y0024400D01*
X0106900Y0023406D01*
X0106200Y0021715D01*
X0106200Y0013885D01*
X0106900Y0012194D01*
X0108194Y0010900D01*
X0109885Y0010200D01*
X0111715Y0010200D01*
X0113406Y0010900D01*
X0114700Y0012194D01*
X0115400Y0013885D01*
X0115400Y0021715D01*
X0114700Y0023406D01*
X0113705Y0024400D01*
X0117895Y0024400D01*
X0116900Y0023406D01*
X0116200Y0021715D01*
X0116200Y0013885D01*
X0116900Y0012194D01*
X0118194Y0010900D01*
X0119885Y0010200D01*
X0121715Y0010200D01*
X0123406Y0010900D01*
X0124700Y0012194D01*
X0125400Y0013885D01*
X0125400Y0021715D01*
X0124700Y0023406D01*
X0123705Y0024400D01*
X0127895Y0024400D01*
X0126900Y0023406D01*
X0126200Y0021715D01*
X0126200Y0013885D01*
X0126900Y0012194D01*
X0128194Y0010900D01*
X0129885Y0010200D01*
X0131715Y0010200D01*
X0133406Y0010900D01*
X0134700Y0012194D01*
X0135400Y0013885D01*
X0135400Y0019806D01*
X0135441Y0019765D01*
X0136200Y0019451D01*
X0136200Y0013885D01*
X0136900Y0012194D01*
X0138194Y0010900D01*
X0139885Y0010200D01*
X0141715Y0010200D01*
X0143406Y0010900D01*
X0144700Y0012194D01*
X0145400Y0013885D01*
X0145400Y0021715D01*
X0144700Y0023406D01*
X0143406Y0024700D01*
X0141715Y0025400D01*
X0139885Y0025400D01*
X0138194Y0024700D01*
X0137744Y0024250D01*
X0135094Y0026900D01*
X0143306Y0026900D01*
X0146871Y0023335D01*
X0146200Y0021715D01*
X0146200Y0013885D01*
X0146900Y0012194D01*
X0148194Y0010900D01*
X0149885Y0010200D01*
X0151715Y0010200D01*
X0153406Y0010900D01*
X0154700Y0012194D01*
X0155400Y0013885D01*
X0155400Y0021715D01*
X0154700Y0023406D01*
X0153406Y0024700D01*
X0151715Y0025400D01*
X0151594Y0025400D01*
X0147594Y0029400D01*
X0150806Y0029400D01*
X0156871Y0023335D01*
X0156200Y0021715D01*
X0156200Y0013885D01*
X0156900Y0012194D01*
X0158194Y0010900D01*
X0159885Y0010200D01*
X0161715Y0010200D01*
X0163406Y0010900D01*
X0164700Y0012194D01*
X0165400Y0013885D01*
X0165400Y0019806D01*
X0166200Y0019006D01*
X0166200Y0013885D01*
X0166900Y0012194D01*
X0168194Y0010900D01*
X0169885Y0010200D01*
X0171715Y0010200D01*
X0173406Y0010900D01*
X0174700Y0012194D01*
X0175400Y0013885D01*
X0175400Y0021715D01*
X0174700Y0023406D01*
X0173406Y0024700D01*
X0171715Y0025400D01*
X0169885Y0025400D01*
X0168194Y0024700D01*
X0167744Y0024250D01*
X0157594Y0034400D01*
X0170806Y0034400D01*
X0178416Y0026790D01*
X0178416Y0024791D01*
X0178194Y0024700D01*
X0176900Y0023406D01*
X0176200Y0021715D01*
X0176200Y0013885D01*
X0176900Y0012194D01*
X0178194Y0010900D01*
X0179885Y0010200D01*
X0181715Y0010200D01*
X0183406Y0010900D01*
X0184700Y0012194D01*
X0185400Y0013885D01*
X0185400Y0021715D01*
X0184700Y0023406D01*
X0183406Y0024700D01*
X0183216Y0024778D01*
X0183216Y0028262D01*
X0182850Y0029144D01*
X0182175Y0029819D01*
X0173159Y0038835D01*
X0172277Y0039200D01*
X0147794Y0039200D01*
X0144200Y0042794D01*
X0144200Y0042923D01*
X0144349Y0042985D01*
X0145615Y0044251D01*
X0146300Y0045905D01*
X0146300Y0047695D01*
X0145615Y0049349D01*
X0144349Y0050615D01*
X0142695Y0051300D01*
X0140905Y0051300D01*
X0139251Y0050615D01*
X0137985Y0049349D01*
X0137300Y0047695D01*
X0137300Y0045905D01*
X0137985Y0044251D01*
X0139251Y0042985D01*
X0139400Y0042923D01*
X0139400Y0041323D01*
X0139757Y0040460D01*
X0091550Y0040460D01*
X0091550Y0041282D01*
X0091031Y0041800D01*
X0091550Y0042318D01*
X0091550Y0046896D01*
X0093835Y0049181D01*
X0094200Y0050063D01*
X0094200Y0082277D01*
X0093835Y0083159D01*
X0093159Y0083835D01*
X0090094Y0086900D01*
X0158306Y0086900D01*
X0162309Y0082897D01*
X0162231Y0082709D01*
X0162231Y0080891D01*
X0162927Y0079212D01*
X0164212Y0077927D01*
X0165891Y0077231D01*
X0167709Y0077231D01*
X0169388Y0077927D01*
X0170673Y0079212D01*
X0171368Y0080891D01*
X0171368Y0082709D01*
X0170673Y0084388D01*
X0169388Y0085673D01*
X0167709Y0086368D01*
X0165891Y0086368D01*
X0165703Y0086291D01*
X0162594Y0089400D01*
X0185806Y0089400D01*
X0198219Y0076987D01*
X0198219Y0076088D01*
X0198764Y0074771D01*
X0199771Y0073764D01*
X0201088Y0073219D01*
X0202512Y0073219D01*
X0203829Y0073764D01*
X0204464Y0074400D01*
X0229777Y0074400D01*
X0230659Y0074765D01*
X0232794Y0076900D01*
X0245806Y0076900D01*
X0246156Y0076550D01*
X0239838Y0076550D01*
X0238901Y0075612D01*
X0238901Y0074200D01*
X0226323Y0074200D01*
X0225441Y0073835D01*
X0215806Y0064200D01*
X0196323Y0064200D01*
X0195441Y0063835D01*
X0182844Y0051238D01*
X0182695Y0051300D01*
X0180905Y0051300D01*
X0179251Y0050615D01*
X0177985Y0049349D01*
X0177300Y0047695D01*
X0177300Y0045905D01*
X0177985Y0044251D01*
X0178036Y0044200D01*
X0175564Y0044200D01*
X0175615Y0044251D01*
X0176300Y0045905D01*
X0176300Y0047695D01*
X0175615Y0049349D01*
X0174349Y0050615D01*
X0172695Y0051300D01*
X0170905Y0051300D01*
X0169251Y0050615D01*
X0167985Y0049349D01*
X0167300Y0047695D01*
X0167300Y0045905D01*
X0167985Y0044251D01*
X0168036Y0044200D01*
X0167794Y0044200D01*
X0166238Y0045756D01*
X0166300Y0045905D01*
X0166300Y0047695D01*
X0165615Y0049349D01*
X0164349Y0050615D01*
X0162695Y0051300D01*
X0160905Y0051300D01*
X0159251Y0050615D01*
X0157985Y0049349D01*
X0157300Y0047695D01*
X0157300Y0045905D01*
X0157985Y0044251D01*
X0159251Y0042985D01*
X0160905Y0042300D01*
X0162695Y0042300D01*
X0162844Y0042362D01*
X0165441Y0039765D01*
X0166323Y0039400D01*
X0180806Y0039400D01*
X0199765Y0020441D01*
X0199765Y0020441D01*
X0200441Y0019765D01*
X0201323Y0019400D01*
X0215806Y0019400D01*
X0228606Y0006600D01*
X0028146Y0006600D01*
X0028662Y0007116D01*
X0030203Y0009784D01*
X0031000Y0012760D01*
X0031000Y0014206D01*
X0036765Y0008441D01*
X0037441Y0007765D01*
X0038323Y0007400D01*
X0055277Y0007400D01*
X0056159Y0007765D01*
X0056835Y0008441D01*
X0058972Y0010578D01*
X0059885Y0010200D01*
X0061715Y0010200D01*
X0063406Y0010900D01*
X0064700Y0012194D01*
X0065400Y0013885D01*
X0065400Y0021715D01*
X0064700Y0023406D01*
X0063406Y0024700D01*
X0061715Y0025400D01*
X0059885Y0025400D01*
X0058194Y0024700D01*
X0056900Y0023406D01*
X0056200Y0021715D01*
X0056813Y0023194D02*
X0054787Y0023194D01*
X0053181Y0024793D02*
X0058419Y0024793D01*
X0057216Y0027990D02*
X0049005Y0027990D01*
X0048550Y0030181D02*
X0049419Y0031050D01*
X0049889Y0032186D01*
X0049889Y0033414D01*
X0049687Y0033901D01*
X0050612Y0033901D01*
X0051550Y0034838D01*
X0051550Y0041282D01*
X0051031Y0041800D01*
X0051550Y0042318D01*
X0051550Y0048762D01*
X0050612Y0049699D01*
X0049200Y0049699D01*
X0049200Y0053219D01*
X0050012Y0053219D01*
X0051329Y0053764D01*
X0052336Y0054771D01*
X0052881Y0056088D01*
X0052881Y0057512D01*
X0052336Y0058829D01*
X0051329Y0059836D01*
X0050012Y0060381D01*
X0048588Y0060381D01*
X0047271Y0059836D01*
X0046264Y0058829D01*
X0045719Y0057512D01*
X0045719Y0056613D01*
X0044765Y0055659D01*
X0044400Y0054777D01*
X0044400Y0049699D01*
X0042988Y0049699D01*
X0042050Y0048762D01*
X0042050Y0042318D01*
X0042569Y0041800D01*
X0042050Y0041282D01*
X0042050Y0034838D01*
X0042988Y0033901D01*
X0043912Y0033901D01*
X0043711Y0033414D01*
X0043711Y0032186D01*
X0044181Y0031050D01*
X0045050Y0030181D01*
X0046186Y0029711D01*
X0047414Y0029711D01*
X0048550Y0030181D01*
X0049475Y0031187D02*
X0054456Y0031187D01*
X0054400Y0032785D02*
X0049889Y0032785D01*
X0051095Y0034384D02*
X0052505Y0034384D01*
X0052050Y0035982D02*
X0051550Y0035982D01*
X0051550Y0037581D02*
X0052050Y0037581D01*
X0052050Y0039179D02*
X0051550Y0039179D01*
X0051550Y0040778D02*
X0052050Y0040778D01*
X0052050Y0042376D02*
X0051550Y0042376D01*
X0051550Y0043975D02*
X0052050Y0043975D01*
X0052050Y0045573D02*
X0051550Y0045573D01*
X0051550Y0047172D02*
X0052050Y0047172D01*
X0052059Y0048770D02*
X0051541Y0048770D01*
X0049200Y0050369D02*
X0054400Y0050369D01*
X0054400Y0051967D02*
X0049200Y0051967D01*
X0050850Y0053566D02*
X0054400Y0053566D01*
X0054400Y0055164D02*
X0052499Y0055164D01*
X0052881Y0056763D02*
X0054400Y0056763D01*
X0054967Y0058361D02*
X0052529Y0058361D01*
X0051029Y0059960D02*
X0056566Y0059960D01*
X0056623Y0061558D02*
X0056900Y0061558D01*
X0059300Y0059300D02*
X0056800Y0056800D01*
X0056800Y0045540D01*
X0061550Y0045573D02*
X0062050Y0045573D01*
X0062050Y0043975D02*
X0061550Y0043975D01*
X0061550Y0042376D02*
X0062050Y0042376D01*
X0062050Y0042318D02*
X0062569Y0041800D01*
X0062050Y0041282D01*
X0062050Y0034838D01*
X0062988Y0033901D01*
X0066305Y0033901D01*
X0068506Y0031700D01*
X0060294Y0031700D01*
X0059200Y0032794D01*
X0059200Y0033901D01*
X0060612Y0033901D01*
X0061550Y0034838D01*
X0061550Y0041282D01*
X0061031Y0041800D01*
X0061550Y0042318D01*
X0061550Y0048762D01*
X0060612Y0049699D01*
X0059200Y0049699D01*
X0059200Y0055806D01*
X0061335Y0057941D01*
X0061700Y0058823D01*
X0061700Y0067037D01*
X0061800Y0067137D01*
X0062337Y0066600D01*
X0066263Y0066600D01*
X0066659Y0066996D01*
X0066895Y0066760D01*
X0067305Y0066523D01*
X0067763Y0066400D01*
X0069300Y0066400D01*
X0069400Y0066400D01*
X0069400Y0056764D01*
X0068829Y0057336D01*
X0067512Y0057881D01*
X0066088Y0057881D01*
X0064771Y0057336D01*
X0063764Y0056329D01*
X0063219Y0055012D01*
X0063219Y0053588D01*
X0063764Y0052271D01*
X0064400Y0051636D01*
X0064400Y0049699D01*
X0062988Y0049699D01*
X0062050Y0048762D01*
X0062050Y0042318D01*
X0062050Y0040778D02*
X0061550Y0040778D01*
X0061550Y0039179D02*
X0062050Y0039179D01*
X0062050Y0037581D02*
X0061550Y0037581D01*
X0061550Y0035982D02*
X0062050Y0035982D01*
X0062505Y0034384D02*
X0061095Y0034384D01*
X0059209Y0032785D02*
X0067421Y0032785D01*
X0066800Y0036800D02*
X0071800Y0031800D01*
X0076800Y0031800D01*
X0079300Y0029300D01*
X0144300Y0029300D01*
X0150816Y0022784D01*
X0150816Y0017816D01*
X0150800Y0017800D01*
X0155400Y0018399D02*
X0156200Y0018399D01*
X0156200Y0019997D02*
X0155400Y0019997D01*
X0155400Y0021596D02*
X0156200Y0021596D01*
X0156813Y0023194D02*
X0154787Y0023194D01*
X0155413Y0024793D02*
X0153181Y0024793D01*
X0153815Y0026391D02*
X0150603Y0026391D01*
X0149005Y0027990D02*
X0152216Y0027990D01*
X0151800Y0031800D02*
X0081800Y0031800D01*
X0076800Y0036800D01*
X0076800Y0038060D01*
X0072050Y0037581D02*
X0071550Y0037581D01*
X0071550Y0039179D02*
X0072050Y0039179D01*
X0072050Y0040778D02*
X0071550Y0040778D01*
X0071550Y0041282D02*
X0071031Y0041800D01*
X0071550Y0042318D01*
X0071550Y0048762D01*
X0070612Y0049699D01*
X0069200Y0049699D01*
X0069200Y0051636D01*
X0069836Y0052271D01*
X0070381Y0053588D01*
X0070381Y0054825D01*
X0070719Y0054487D01*
X0070719Y0053588D01*
X0071264Y0052271D01*
X0072271Y0051264D01*
X0073588Y0050719D01*
X0075012Y0050719D01*
X0076329Y0051264D01*
X0077336Y0052271D01*
X0077881Y0053588D01*
X0077881Y0055012D01*
X0077336Y0056329D01*
X0076329Y0057336D01*
X0075012Y0057881D01*
X0074200Y0057881D01*
X0074200Y0059336D01*
X0074771Y0058764D01*
X0076088Y0058219D01*
X0077512Y0058219D01*
X0078829Y0058764D01*
X0079836Y0059771D01*
X0080381Y0061088D01*
X0080381Y0061987D01*
X0081335Y0062941D01*
X0081700Y0063823D01*
X0081700Y0066954D01*
X0081895Y0066760D01*
X0082305Y0066523D01*
X0082763Y0066400D01*
X0084300Y0066400D01*
X0085837Y0066400D01*
X0086295Y0066523D01*
X0086705Y0066760D01*
X0086900Y0066954D01*
X0086900Y0060294D01*
X0076305Y0049699D01*
X0072988Y0049699D01*
X0072050Y0048762D01*
X0072050Y0042318D01*
X0072569Y0041800D01*
X0072050Y0041282D01*
X0072050Y0034944D01*
X0071550Y0035444D01*
X0071550Y0041282D01*
X0071550Y0042376D02*
X0072050Y0042376D01*
X0072050Y0043975D02*
X0071550Y0043975D01*
X0071550Y0045573D02*
X0072050Y0045573D01*
X0072050Y0047172D02*
X0071550Y0047172D01*
X0071541Y0048770D02*
X0072059Y0048770D01*
X0071568Y0051967D02*
X0069532Y0051967D01*
X0069200Y0050369D02*
X0076975Y0050369D01*
X0077032Y0051967D02*
X0078573Y0051967D01*
X0077872Y0053566D02*
X0080172Y0053566D01*
X0081770Y0055164D02*
X0077818Y0055164D01*
X0076902Y0056763D02*
X0083369Y0056763D01*
X0084967Y0058361D02*
X0077856Y0058361D01*
X0075744Y0058361D02*
X0074200Y0058361D01*
X0071800Y0056800D02*
X0074300Y0054300D01*
X0071800Y0056800D02*
X0071800Y0066800D01*
X0074300Y0069300D01*
X0074300Y0072200D01*
X0079300Y0072200D02*
X0079300Y0064300D01*
X0076800Y0061800D01*
X0080381Y0061558D02*
X0086900Y0061558D01*
X0086900Y0063157D02*
X0081424Y0063157D01*
X0081700Y0064755D02*
X0086900Y0064755D01*
X0086900Y0066354D02*
X0081700Y0066354D01*
X0084300Y0066400D02*
X0084300Y0072200D01*
X0084300Y0072200D01*
X0084300Y0078000D01*
X0085837Y0078000D01*
X0086295Y0077877D01*
X0086705Y0077640D01*
X0086900Y0077446D01*
X0086900Y0078306D01*
X0085806Y0079400D01*
X0052794Y0079400D01*
X0051700Y0078306D01*
X0051700Y0077363D01*
X0051800Y0077263D01*
X0052337Y0077800D01*
X0056263Y0077800D01*
X0056800Y0077263D01*
X0057337Y0077800D01*
X0061263Y0077800D01*
X0061800Y0077263D01*
X0062337Y0077800D01*
X0066263Y0077800D01*
X0066659Y0077404D01*
X0066895Y0077640D01*
X0067305Y0077877D01*
X0067763Y0078000D01*
X0069300Y0078000D01*
X0069300Y0072200D01*
X0069300Y0072200D01*
X0069300Y0066400D01*
X0069300Y0072200D01*
X0069300Y0072200D01*
X0069300Y0078000D01*
X0070837Y0078000D01*
X0071295Y0077877D01*
X0071705Y0077640D01*
X0071941Y0077404D01*
X0072337Y0077800D01*
X0076263Y0077800D01*
X0076800Y0077263D01*
X0077337Y0077800D01*
X0081263Y0077800D01*
X0081659Y0077404D01*
X0081895Y0077640D01*
X0082305Y0077877D01*
X0082763Y0078000D01*
X0084300Y0078000D01*
X0084300Y0072200D01*
X0084300Y0066400D01*
X0084300Y0067952D02*
X0084300Y0067952D01*
X0084300Y0069551D02*
X0084300Y0069551D01*
X0084300Y0071149D02*
X0084300Y0071149D01*
X0084300Y0072200D02*
X0084300Y0072200D01*
X0084300Y0072748D02*
X0084300Y0072748D01*
X0084300Y0074346D02*
X0084300Y0074346D01*
X0084300Y0075945D02*
X0084300Y0075945D01*
X0084300Y0077543D02*
X0084300Y0077543D01*
X0086064Y0079142D02*
X0052536Y0079142D01*
X0052081Y0077543D02*
X0051700Y0077543D01*
X0049300Y0079300D02*
X0049300Y0072200D01*
X0046400Y0072748D02*
X0044200Y0072748D01*
X0044200Y0074346D02*
X0046400Y0074346D01*
X0046400Y0075945D02*
X0044200Y0075945D01*
X0044090Y0077543D02*
X0046900Y0077543D01*
X0046900Y0079142D02*
X0043459Y0079142D01*
X0043459Y0080740D02*
X0047346Y0080740D01*
X0048945Y0082339D02*
X0043459Y0082339D01*
X0043954Y0083937D02*
X0050689Y0083937D01*
X0051800Y0081800D02*
X0049300Y0079300D01*
X0051800Y0081800D02*
X0086800Y0081800D01*
X0089300Y0079300D01*
X0089300Y0059300D01*
X0076800Y0046800D01*
X0076800Y0045540D01*
X0070728Y0053566D02*
X0070372Y0053566D01*
X0066800Y0054300D02*
X0066800Y0045540D01*
X0062050Y0047172D02*
X0061550Y0047172D01*
X0061541Y0048770D02*
X0062059Y0048770D01*
X0064400Y0050369D02*
X0059200Y0050369D01*
X0059200Y0051967D02*
X0064068Y0051967D01*
X0063228Y0053566D02*
X0059200Y0053566D01*
X0059200Y0055164D02*
X0063282Y0055164D01*
X0064198Y0056763D02*
X0060157Y0056763D01*
X0061509Y0058361D02*
X0069400Y0058361D01*
X0069400Y0059960D02*
X0061700Y0059960D01*
X0061700Y0061558D02*
X0069400Y0061558D01*
X0069400Y0063157D02*
X0061700Y0063157D01*
X0061700Y0064755D02*
X0069400Y0064755D01*
X0069400Y0066354D02*
X0061700Y0066354D01*
X0059300Y0072200D02*
X0059300Y0059300D01*
X0054300Y0064300D02*
X0054300Y0072200D01*
X0056519Y0077543D02*
X0057081Y0077543D01*
X0061519Y0077543D02*
X0062081Y0077543D01*
X0066519Y0077543D02*
X0066798Y0077543D01*
X0069300Y0077543D02*
X0069300Y0077543D01*
X0069300Y0075945D02*
X0069300Y0075945D01*
X0069300Y0074346D02*
X0069300Y0074346D01*
X0069300Y0072748D02*
X0069300Y0072748D01*
X0069300Y0071149D02*
X0069300Y0071149D01*
X0069300Y0069551D02*
X0069300Y0069551D01*
X0069300Y0067952D02*
X0069300Y0067952D01*
X0071802Y0077543D02*
X0072081Y0077543D01*
X0076519Y0077543D02*
X0077081Y0077543D01*
X0081519Y0077543D02*
X0081798Y0077543D01*
X0086802Y0077543D02*
X0086900Y0077543D01*
X0091800Y0081800D02*
X0091800Y0050540D01*
X0086800Y0045540D01*
X0091550Y0045573D02*
X0097257Y0045573D01*
X0097216Y0045699D02*
X0097444Y0044996D01*
X0097780Y0044337D01*
X0098215Y0043738D01*
X0098738Y0043215D01*
X0099337Y0042780D01*
X0099996Y0042444D01*
X0100699Y0042216D01*
X0101430Y0042100D01*
X0101650Y0042100D01*
X0101650Y0046650D01*
X0097100Y0046650D01*
X0097100Y0046430D01*
X0097216Y0045699D01*
X0097100Y0046950D02*
X0101650Y0046950D01*
X0101650Y0051500D01*
X0101430Y0051500D01*
X0100699Y0051384D01*
X0099996Y0051156D01*
X0099337Y0050820D01*
X0098738Y0050385D01*
X0098215Y0049862D01*
X0097780Y0049263D01*
X0097444Y0048604D01*
X0097216Y0047901D01*
X0097100Y0047170D01*
X0097100Y0046950D01*
X0097100Y0047172D02*
X0091826Y0047172D01*
X0093424Y0048770D02*
X0097529Y0048770D01*
X0098722Y0050369D02*
X0094200Y0050369D01*
X0094200Y0051967D02*
X0183573Y0051967D01*
X0185172Y0053566D02*
X0094200Y0053566D01*
X0094200Y0055164D02*
X0186770Y0055164D01*
X0188369Y0056763D02*
X0094200Y0056763D01*
X0094200Y0058361D02*
X0189967Y0058361D01*
X0191566Y0059960D02*
X0094200Y0059960D01*
X0094200Y0061558D02*
X0193164Y0061558D01*
X0194763Y0063157D02*
X0094200Y0063157D01*
X0094200Y0064755D02*
X0216361Y0064755D01*
X0217960Y0066354D02*
X0094200Y0066354D01*
X0094200Y0067952D02*
X0113983Y0067952D01*
X0113694Y0068163D02*
X0114301Y0067722D01*
X0114970Y0067381D01*
X0115683Y0067149D01*
X0116425Y0067031D01*
X0116616Y0067031D01*
X0116616Y0071616D01*
X0116984Y0071616D01*
X0116984Y0067031D01*
X0117175Y0067031D01*
X0117917Y0067149D01*
X0118630Y0067381D01*
X0119299Y0067722D01*
X0119906Y0068163D01*
X0120437Y0068694D01*
X0120878Y0069301D01*
X0121219Y0069970D01*
X0121451Y0070683D01*
X0121568Y0071425D01*
X0121568Y0071616D01*
X0116984Y0071616D01*
X0116984Y0071984D01*
X0121568Y0071984D01*
X0121568Y0072175D01*
X0121451Y0072917D01*
X0121219Y0073630D01*
X0120878Y0074299D01*
X0120437Y0074906D01*
X0119906Y0075437D01*
X0119299Y0075878D01*
X0118630Y0076219D01*
X0117917Y0076451D01*
X0117175Y0076568D01*
X0116984Y0076568D01*
X0116984Y0071984D01*
X0116616Y0071984D01*
X0116616Y0071616D01*
X0112031Y0071616D01*
X0112031Y0071425D01*
X0112149Y0070683D01*
X0112381Y0069970D01*
X0112722Y0069301D01*
X0113163Y0068694D01*
X0113694Y0068163D01*
X0112594Y0069551D02*
X0094200Y0069551D01*
X0094200Y0071149D02*
X0112075Y0071149D01*
X0112031Y0071984D02*
X0116616Y0071984D01*
X0116616Y0076568D01*
X0116425Y0076568D01*
X0115683Y0076451D01*
X0114970Y0076219D01*
X0114301Y0075878D01*
X0113694Y0075437D01*
X0113163Y0074906D01*
X0112722Y0074299D01*
X0112381Y0073630D01*
X0112149Y0072917D01*
X0112031Y0072175D01*
X0112031Y0071984D01*
X0112122Y0072748D02*
X0094200Y0072748D01*
X0094200Y0074346D02*
X0112756Y0074346D01*
X0114431Y0075945D02*
X0094200Y0075945D01*
X0094200Y0077543D02*
X0115138Y0077543D01*
X0115891Y0077231D02*
X0117709Y0077231D01*
X0119388Y0077927D01*
X0120673Y0079212D01*
X0121368Y0080891D01*
X0121368Y0082709D01*
X0120673Y0084388D01*
X0119388Y0085673D01*
X0117709Y0086368D01*
X0115891Y0086368D01*
X0114212Y0085673D01*
X0112927Y0084388D01*
X0112231Y0082709D01*
X0112231Y0080891D01*
X0112927Y0079212D01*
X0114212Y0077927D01*
X0115891Y0077231D01*
X0116616Y0075945D02*
X0116984Y0075945D01*
X0116984Y0074346D02*
X0116616Y0074346D01*
X0116616Y0072748D02*
X0116984Y0072748D01*
X0116984Y0071149D02*
X0116616Y0071149D01*
X0116616Y0069551D02*
X0116984Y0069551D01*
X0116984Y0067952D02*
X0116616Y0067952D01*
X0119617Y0067952D02*
X0124187Y0067952D01*
X0124212Y0067927D02*
X0125891Y0067231D01*
X0127709Y0067231D01*
X0129388Y0067927D01*
X0130673Y0069212D01*
X0131368Y0070891D01*
X0131368Y0072709D01*
X0130673Y0074388D01*
X0129388Y0075673D01*
X0127709Y0076368D01*
X0125891Y0076368D01*
X0124212Y0075673D01*
X0122927Y0074388D01*
X0122231Y0072709D01*
X0122231Y0070891D01*
X0122927Y0069212D01*
X0124212Y0067927D01*
X0122787Y0069551D02*
X0121006Y0069551D01*
X0121525Y0071149D02*
X0122231Y0071149D01*
X0122248Y0072748D02*
X0121478Y0072748D01*
X0120844Y0074346D02*
X0122910Y0074346D01*
X0124869Y0075945D02*
X0119169Y0075945D01*
X0118462Y0077543D02*
X0125138Y0077543D01*
X0125891Y0077231D02*
X0127709Y0077231D01*
X0129388Y0077927D01*
X0130673Y0079212D01*
X0131368Y0080891D01*
X0131368Y0082709D01*
X0130673Y0084388D01*
X0129388Y0085673D01*
X0127709Y0086368D01*
X0125891Y0086368D01*
X0124212Y0085673D01*
X0122927Y0084388D01*
X0122231Y0082709D01*
X0122231Y0080891D01*
X0122927Y0079212D01*
X0124212Y0077927D01*
X0125891Y0077231D01*
X0128462Y0077543D02*
X0135138Y0077543D01*
X0135891Y0077231D02*
X0137709Y0077231D01*
X0139388Y0077927D01*
X0140673Y0079212D01*
X0141368Y0080891D01*
X0141368Y0082709D01*
X0140673Y0084388D01*
X0139388Y0085673D01*
X0137709Y0086368D01*
X0135891Y0086368D01*
X0134212Y0085673D01*
X0132927Y0084388D01*
X0132231Y0082709D01*
X0132231Y0080891D01*
X0132927Y0079212D01*
X0134212Y0077927D01*
X0135891Y0077231D01*
X0135891Y0076368D02*
X0134212Y0075673D01*
X0132927Y0074388D01*
X0132231Y0072709D01*
X0132231Y0070891D01*
X0132927Y0069212D01*
X0134212Y0067927D01*
X0135891Y0067231D01*
X0137709Y0067231D01*
X0139388Y0067927D01*
X0140673Y0069212D01*
X0141368Y0070891D01*
X0141368Y0072709D01*
X0140673Y0074388D01*
X0139388Y0075673D01*
X0137709Y0076368D01*
X0135891Y0076368D01*
X0134869Y0075945D02*
X0128731Y0075945D01*
X0130690Y0074346D02*
X0132910Y0074346D01*
X0132248Y0072748D02*
X0131352Y0072748D01*
X0131368Y0071149D02*
X0132231Y0071149D01*
X0132787Y0069551D02*
X0130813Y0069551D01*
X0129413Y0067952D02*
X0134187Y0067952D01*
X0139413Y0067952D02*
X0144187Y0067952D01*
X0144212Y0067927D02*
X0145891Y0067231D01*
X0147709Y0067231D01*
X0149388Y0067927D01*
X0150673Y0069212D01*
X0151368Y0070891D01*
X0151368Y0072709D01*
X0150673Y0074388D01*
X0149388Y0075673D01*
X0147709Y0076368D01*
X0145891Y0076368D01*
X0144212Y0075673D01*
X0142927Y0074388D01*
X0142231Y0072709D01*
X0142231Y0070891D01*
X0142927Y0069212D01*
X0144212Y0067927D01*
X0142787Y0069551D02*
X0140813Y0069551D01*
X0141368Y0071149D02*
X0142231Y0071149D01*
X0142248Y0072748D02*
X0141352Y0072748D01*
X0140690Y0074346D02*
X0142910Y0074346D01*
X0144869Y0075945D02*
X0138731Y0075945D01*
X0138462Y0077543D02*
X0145138Y0077543D01*
X0145891Y0077231D02*
X0147709Y0077231D01*
X0149388Y0077927D01*
X0150673Y0079212D01*
X0151368Y0080891D01*
X0151368Y0082709D01*
X0150673Y0084388D01*
X0149388Y0085673D01*
X0147709Y0086368D01*
X0145891Y0086368D01*
X0144212Y0085673D01*
X0142927Y0084388D01*
X0142231Y0082709D01*
X0142231Y0080891D01*
X0142927Y0079212D01*
X0144212Y0077927D01*
X0145891Y0077231D01*
X0148462Y0077543D02*
X0155138Y0077543D01*
X0155891Y0077231D02*
X0157709Y0077231D01*
X0159388Y0077927D01*
X0160673Y0079212D01*
X0161368Y0080891D01*
X0161368Y0082709D01*
X0160673Y0084388D01*
X0159388Y0085673D01*
X0157709Y0086368D01*
X0155891Y0086368D01*
X0154212Y0085673D01*
X0152927Y0084388D01*
X0152231Y0082709D01*
X0152231Y0080891D01*
X0152927Y0079212D01*
X0154212Y0077927D01*
X0155891Y0077231D01*
X0155891Y0076368D02*
X0154212Y0075673D01*
X0152927Y0074388D01*
X0152231Y0072709D01*
X0152231Y0070891D01*
X0152927Y0069212D01*
X0154212Y0067927D01*
X0155891Y0067231D01*
X0157709Y0067231D01*
X0159388Y0067927D01*
X0160673Y0069212D01*
X0161368Y0070891D01*
X0161368Y0072709D01*
X0160673Y0074388D01*
X0159388Y0075673D01*
X0157709Y0076368D01*
X0155891Y0076368D01*
X0154869Y0075945D02*
X0148731Y0075945D01*
X0150690Y0074346D02*
X0152910Y0074346D01*
X0152248Y0072748D02*
X0151352Y0072748D01*
X0151368Y0071149D02*
X0152231Y0071149D01*
X0152787Y0069551D02*
X0150813Y0069551D01*
X0149413Y0067952D02*
X0154187Y0067952D01*
X0159413Y0067952D02*
X0164187Y0067952D01*
X0164212Y0067927D02*
X0165891Y0067231D01*
X0167709Y0067231D01*
X0169388Y0067927D01*
X0170673Y0069212D01*
X0171368Y0070891D01*
X0171368Y0072709D01*
X0170673Y0074388D01*
X0169388Y0075673D01*
X0167709Y0076368D01*
X0165891Y0076368D01*
X0164212Y0075673D01*
X0162927Y0074388D01*
X0162231Y0072709D01*
X0162231Y0070891D01*
X0162927Y0069212D01*
X0164212Y0067927D01*
X0162787Y0069551D02*
X0160813Y0069551D01*
X0161368Y0071149D02*
X0162231Y0071149D01*
X0162248Y0072748D02*
X0161352Y0072748D01*
X0160690Y0074346D02*
X0162910Y0074346D01*
X0164869Y0075945D02*
X0158731Y0075945D01*
X0158462Y0077543D02*
X0165138Y0077543D01*
X0162997Y0079142D02*
X0160603Y0079142D01*
X0161306Y0080740D02*
X0162294Y0080740D01*
X0162231Y0082339D02*
X0161368Y0082339D01*
X0161268Y0083937D02*
X0160860Y0083937D01*
X0159670Y0085536D02*
X0159525Y0085536D01*
X0159300Y0089300D02*
X0166800Y0081800D01*
X0168462Y0077543D02*
X0175138Y0077543D01*
X0175891Y0077231D02*
X0177709Y0077231D01*
X0179388Y0077927D01*
X0180673Y0079212D01*
X0181368Y0080891D01*
X0181368Y0082709D01*
X0180673Y0084388D01*
X0179388Y0085673D01*
X0177709Y0086368D01*
X0175891Y0086368D01*
X0174212Y0085673D01*
X0172927Y0084388D01*
X0172231Y0082709D01*
X0172231Y0080891D01*
X0172927Y0079212D01*
X0174212Y0077927D01*
X0175891Y0077231D01*
X0175891Y0076368D02*
X0174212Y0075673D01*
X0172927Y0074388D01*
X0172231Y0072709D01*
X0172231Y0070891D01*
X0172927Y0069212D01*
X0174212Y0067927D01*
X0175891Y0067231D01*
X0177709Y0067231D01*
X0179388Y0067927D01*
X0180673Y0069212D01*
X0181368Y0070891D01*
X0181368Y0072709D01*
X0180673Y0074388D01*
X0179388Y0075673D01*
X0177709Y0076368D01*
X0175891Y0076368D01*
X0174869Y0075945D02*
X0168731Y0075945D01*
X0170690Y0074346D02*
X0172910Y0074346D01*
X0172248Y0072748D02*
X0171352Y0072748D01*
X0171368Y0071149D02*
X0172231Y0071149D01*
X0172787Y0069551D02*
X0170813Y0069551D01*
X0169413Y0067952D02*
X0174187Y0067952D01*
X0179413Y0067952D02*
X0184187Y0067952D01*
X0184212Y0067927D02*
X0185891Y0067231D01*
X0187709Y0067231D01*
X0189388Y0067927D01*
X0190673Y0069212D01*
X0191368Y0070891D01*
X0191368Y0072709D01*
X0190673Y0074388D01*
X0189388Y0075673D01*
X0187709Y0076368D01*
X0185891Y0076368D01*
X0184212Y0075673D01*
X0182927Y0074388D01*
X0182231Y0072709D01*
X0182231Y0070891D01*
X0182927Y0069212D01*
X0184212Y0067927D01*
X0182787Y0069551D02*
X0180813Y0069551D01*
X0181368Y0071149D02*
X0182231Y0071149D01*
X0182248Y0072748D02*
X0181352Y0072748D01*
X0180690Y0074346D02*
X0182910Y0074346D01*
X0184869Y0075945D02*
X0178731Y0075945D01*
X0178462Y0077543D02*
X0185138Y0077543D01*
X0185891Y0077231D02*
X0187709Y0077231D01*
X0189388Y0077927D01*
X0190673Y0079212D01*
X0191368Y0080891D01*
X0191368Y0082709D01*
X0190673Y0084388D01*
X0189388Y0085673D01*
X0187709Y0086368D01*
X0185891Y0086368D01*
X0184212Y0085673D01*
X0182927Y0084388D01*
X0182231Y0082709D01*
X0182231Y0080891D01*
X0182927Y0079212D01*
X0184212Y0077927D01*
X0185891Y0077231D01*
X0188462Y0077543D02*
X0197662Y0077543D01*
X0198278Y0075945D02*
X0188731Y0075945D01*
X0190690Y0074346D02*
X0199189Y0074346D01*
X0201800Y0076800D02*
X0229300Y0076800D01*
X0231800Y0079300D01*
X0246800Y0079300D01*
X0250540Y0083040D01*
X0250540Y0091800D01*
X0252194Y0093454D01*
X0266800Y0093454D01*
X0268454Y0093454D01*
X0272961Y0097961D01*
X0274713Y0097961D01*
X0275571Y0095719D02*
X0275571Y0094713D01*
X0275571Y0093492D01*
X0275694Y0093034D01*
X0275930Y0092624D01*
X0276266Y0092289D01*
X0276676Y0092052D01*
X0277134Y0091929D01*
X0277961Y0091929D01*
X0277961Y0094713D01*
X0275571Y0094713D01*
X0277961Y0094713D01*
X0277961Y0094713D01*
X0277961Y0094713D01*
X0277961Y0091929D01*
X0278120Y0091929D01*
X0278120Y0091515D01*
X0275806Y0089200D01*
X0266323Y0089200D01*
X0265441Y0088835D01*
X0261987Y0085381D01*
X0261088Y0085381D01*
X0259771Y0084836D01*
X0258764Y0083829D01*
X0258219Y0082512D01*
X0258219Y0081088D01*
X0258764Y0079771D01*
X0259771Y0078764D01*
X0261088Y0078219D01*
X0262512Y0078219D01*
X0263829Y0078764D01*
X0264836Y0079771D01*
X0265381Y0081088D01*
X0265381Y0081987D01*
X0267794Y0084400D01*
X0269336Y0084400D01*
X0268764Y0083829D01*
X0268219Y0082512D01*
X0268219Y0081088D01*
X0268764Y0079771D01*
X0269771Y0078764D01*
X0271088Y0078219D01*
X0272512Y0078219D01*
X0273829Y0078764D01*
X0274464Y0079400D01*
X0276006Y0079400D01*
X0275441Y0078835D01*
X0274765Y0078159D01*
X0274400Y0077277D01*
X0274400Y0065842D01*
X0272083Y0068159D01*
X0271408Y0068835D01*
X0270525Y0069200D01*
X0261323Y0069200D01*
X0260441Y0068835D01*
X0255806Y0064200D01*
X0254699Y0064200D01*
X0254699Y0065612D01*
X0253762Y0066550D01*
X0252940Y0066550D01*
X0252940Y0067050D01*
X0253762Y0067050D01*
X0254699Y0067988D01*
X0254699Y0075612D01*
X0253762Y0076550D01*
X0252728Y0076550D01*
X0252575Y0076919D01*
X0250194Y0079300D01*
X0252575Y0081681D01*
X0252940Y0082563D01*
X0252940Y0087050D01*
X0253762Y0087050D01*
X0254699Y0087988D01*
X0254699Y0091054D01*
X0262247Y0091054D01*
X0262247Y0090232D01*
X0263184Y0089294D01*
X0270415Y0089294D01*
X0271353Y0090232D01*
X0271353Y0092959D01*
X0273956Y0095561D01*
X0275191Y0095561D01*
X0275571Y0095719D01*
X0275571Y0095127D02*
X0273521Y0095127D01*
X0271923Y0093529D02*
X0275571Y0093529D01*
X0277131Y0091930D02*
X0271353Y0091930D01*
X0271353Y0090332D02*
X0276937Y0090332D01*
X0277961Y0091930D02*
X0277961Y0091930D01*
X0277961Y0093529D02*
X0277961Y0093529D01*
X0280520Y0094713D02*
X0280520Y0090520D01*
X0276800Y0086800D01*
X0266800Y0086800D01*
X0261800Y0081800D01*
X0264206Y0079142D02*
X0269394Y0079142D01*
X0268363Y0080740D02*
X0265237Y0080740D01*
X0265733Y0082339D02*
X0268219Y0082339D01*
X0268873Y0083937D02*
X0267332Y0083937D01*
X0263740Y0087134D02*
X0253846Y0087134D01*
X0254699Y0088733D02*
X0265339Y0088733D01*
X0262247Y0090332D02*
X0254699Y0090332D01*
X0250540Y0091800D02*
X0250540Y0101800D01*
X0250540Y0103040D01*
X0264300Y0116800D01*
X0269300Y0116800D01*
X0274300Y0111800D01*
X0276800Y0111800D01*
X0277961Y0110639D01*
X0277961Y0108887D01*
X0275766Y0107915D02*
X0258809Y0107915D01*
X0257211Y0106317D02*
X0272129Y0106317D01*
X0272129Y0106892D02*
X0272129Y0104385D01*
X0272155Y0104359D01*
X0272129Y0104333D01*
X0272129Y0101940D01*
X0272052Y0101806D01*
X0271929Y0101348D01*
X0271929Y0100521D01*
X0274713Y0100521D01*
X0274713Y0100520D01*
X0271929Y0100520D01*
X0271929Y0100132D01*
X0271602Y0099996D01*
X0271273Y0099667D01*
X0267280Y0099667D01*
X0267280Y0100626D01*
X0271553Y0100626D01*
X0271553Y0102942D01*
X0271430Y0103400D01*
X0271193Y0103811D01*
X0270858Y0104146D01*
X0270448Y0104383D01*
X0269990Y0104505D01*
X0267280Y0104505D01*
X0267280Y0100626D01*
X0266320Y0100626D01*
X0266320Y0099667D01*
X0262047Y0099667D01*
X0262047Y0097350D01*
X0262170Y0096893D01*
X0262278Y0096706D01*
X0262247Y0096675D01*
X0262247Y0095854D01*
X0254458Y0095854D01*
X0253762Y0096550D01*
X0252940Y0096550D01*
X0252940Y0097050D01*
X0253762Y0097050D01*
X0254699Y0097988D01*
X0254699Y0103805D01*
X0265294Y0114400D01*
X0268306Y0114400D01*
X0272941Y0109765D01*
X0273823Y0109400D01*
X0275561Y0109400D01*
X0275561Y0108409D01*
X0275771Y0107904D01*
X0275771Y0107829D01*
X0273066Y0107829D01*
X0272129Y0106892D01*
X0272129Y0104718D02*
X0255612Y0104718D01*
X0254699Y0103120D02*
X0262095Y0103120D01*
X0262047Y0102942D02*
X0262047Y0100626D01*
X0266320Y0100626D01*
X0266320Y0104505D01*
X0263610Y0104505D01*
X0263152Y0104383D01*
X0262742Y0104146D01*
X0262407Y0103811D01*
X0262170Y0103400D01*
X0262047Y0102942D01*
X0262047Y0101521D02*
X0254699Y0101521D01*
X0254699Y0099923D02*
X0266320Y0099923D01*
X0266800Y0100146D02*
X0267174Y0100520D01*
X0267280Y0099923D02*
X0271528Y0099923D01*
X0271553Y0101521D02*
X0271976Y0101521D01*
X0272129Y0103120D02*
X0271505Y0103120D01*
X0267280Y0103120D02*
X0266320Y0103120D01*
X0266320Y0101521D02*
X0267280Y0101521D01*
X0262047Y0098324D02*
X0254699Y0098324D01*
X0252940Y0096726D02*
X0262266Y0096726D01*
X0262142Y0085536D02*
X0252940Y0085536D01*
X0252940Y0083937D02*
X0258873Y0083937D01*
X0258219Y0082339D02*
X0252847Y0082339D01*
X0251635Y0080740D02*
X0258363Y0080740D01*
X0259394Y0079142D02*
X0250352Y0079142D01*
X0251951Y0077543D02*
X0274510Y0077543D01*
X0274400Y0075945D02*
X0254367Y0075945D01*
X0254699Y0074346D02*
X0274400Y0074346D01*
X0274400Y0072748D02*
X0254699Y0072748D01*
X0254699Y0071149D02*
X0274400Y0071149D01*
X0274400Y0069551D02*
X0254699Y0069551D01*
X0254664Y0067952D02*
X0259558Y0067952D01*
X0257960Y0066354D02*
X0253958Y0066354D01*
X0254699Y0064755D02*
X0256361Y0064755D01*
X0256800Y0061800D02*
X0250540Y0061800D01*
X0250540Y0071800D01*
X0250540Y0075560D01*
X0246800Y0079300D01*
X0239233Y0075945D02*
X0231839Y0075945D01*
X0226800Y0071800D02*
X0216800Y0061800D01*
X0196800Y0061800D01*
X0181800Y0046800D01*
X0186800Y0041800D01*
X0196800Y0041800D01*
X0211800Y0026800D01*
X0221800Y0026800D01*
X0236800Y0011800D01*
X0286800Y0011800D01*
X0291800Y0016800D01*
X0296800Y0021800D01*
X0296800Y0046800D01*
X0293080Y0050520D01*
X0288887Y0050520D01*
X0288887Y0047961D02*
X0290639Y0047961D01*
X0291800Y0046800D01*
X0291800Y0026800D01*
X0281800Y0016800D01*
X0241800Y0016800D01*
X0226800Y0031800D01*
X0216800Y0031800D01*
X0201800Y0046800D01*
X0206800Y0051800D01*
X0243060Y0051800D01*
X0250540Y0051800D02*
X0250540Y0041800D01*
X0251800Y0041800D01*
X0256800Y0036800D01*
X0260146Y0036800D01*
X0271800Y0036800D01*
X0277961Y0042961D01*
X0277961Y0044713D01*
X0280520Y0044713D02*
X0280520Y0040520D01*
X0271800Y0031800D01*
X0266800Y0031800D01*
X0260146Y0036800D02*
X0266800Y0043454D01*
X0268454Y0043454D01*
X0271800Y0046800D01*
X0273552Y0046800D01*
X0274713Y0047961D01*
X0274713Y0050520D02*
X0271929Y0050520D01*
X0271929Y0049693D01*
X0272052Y0049235D01*
X0272072Y0049200D01*
X0271553Y0049200D01*
X0271553Y0049667D01*
X0267280Y0049667D01*
X0267280Y0050626D01*
X0271553Y0050626D01*
X0271553Y0052942D01*
X0271430Y0053400D01*
X0271193Y0053811D01*
X0270858Y0054146D01*
X0270448Y0054383D01*
X0269990Y0054505D01*
X0267280Y0054505D01*
X0267280Y0050626D01*
X0266320Y0050626D01*
X0266320Y0049667D01*
X0262047Y0049667D01*
X0262047Y0047350D01*
X0262170Y0046893D01*
X0262278Y0046706D01*
X0262247Y0046675D01*
X0262247Y0042295D01*
X0259152Y0039200D01*
X0257794Y0039200D01*
X0254699Y0042295D01*
X0254699Y0045612D01*
X0253762Y0046550D01*
X0252940Y0046550D01*
X0252940Y0047050D01*
X0253762Y0047050D01*
X0254699Y0047988D01*
X0254699Y0055612D01*
X0254200Y0056112D01*
X0254200Y0057488D01*
X0254699Y0057988D01*
X0254699Y0059400D01*
X0257277Y0059400D01*
X0258159Y0059765D01*
X0258835Y0060441D01*
X0262794Y0064400D01*
X0269054Y0064400D01*
X0275625Y0057829D01*
X0273066Y0057829D01*
X0272129Y0056892D01*
X0272129Y0054385D01*
X0272155Y0054359D01*
X0272129Y0054333D01*
X0272129Y0051940D01*
X0272052Y0051806D01*
X0271929Y0051348D01*
X0271929Y0050521D01*
X0274713Y0050521D01*
X0274713Y0050520D01*
X0271929Y0050369D02*
X0267280Y0050369D01*
X0267174Y0050520D02*
X0266800Y0050146D01*
X0266320Y0050369D02*
X0254699Y0050369D01*
X0254699Y0051967D02*
X0262047Y0051967D01*
X0262047Y0052942D02*
X0262047Y0050626D01*
X0266320Y0050626D01*
X0266320Y0054505D01*
X0263610Y0054505D01*
X0263152Y0054383D01*
X0262742Y0054146D01*
X0262407Y0053811D01*
X0262170Y0053400D01*
X0262047Y0052942D01*
X0262265Y0053566D02*
X0254699Y0053566D01*
X0254699Y0055164D02*
X0272129Y0055164D01*
X0272129Y0053566D02*
X0271335Y0053566D01*
X0271553Y0051967D02*
X0272129Y0051967D01*
X0272129Y0056763D02*
X0254200Y0056763D01*
X0254699Y0058361D02*
X0275093Y0058361D01*
X0273494Y0059960D02*
X0258354Y0059960D01*
X0259952Y0061558D02*
X0271896Y0061558D01*
X0270297Y0063157D02*
X0261551Y0063157D01*
X0261800Y0066800D02*
X0256800Y0061800D01*
X0251800Y0060540D02*
X0250540Y0061800D01*
X0251800Y0060540D02*
X0251800Y0051800D01*
X0250540Y0051800D01*
X0254699Y0048770D02*
X0262047Y0048770D01*
X0262095Y0047172D02*
X0253883Y0047172D01*
X0254699Y0045573D02*
X0262247Y0045573D01*
X0262247Y0043975D02*
X0254699Y0043975D01*
X0254699Y0042376D02*
X0262247Y0042376D01*
X0260730Y0040778D02*
X0256216Y0040778D01*
X0266320Y0051967D02*
X0267280Y0051967D01*
X0267280Y0053566D02*
X0266320Y0053566D01*
X0276800Y0064300D02*
X0280520Y0060580D01*
X0280520Y0058887D01*
X0282920Y0059046D02*
X0282920Y0061574D01*
X0281800Y0062694D01*
X0281800Y0076800D01*
X0284300Y0079300D01*
X0289300Y0079300D01*
X0296800Y0086800D01*
X0306800Y0086800D01*
X0320550Y0100550D01*
X0320550Y0128050D01*
X0304300Y0144300D01*
X0229300Y0144300D01*
X0226800Y0146800D01*
X0226800Y0181800D01*
X0176800Y0181800D01*
X0176800Y0146800D01*
X0210777Y0146800D01*
X0211272Y0147994D01*
X0213106Y0149828D01*
X0215503Y0150821D01*
X0218097Y0150821D01*
X0220494Y0149828D01*
X0222328Y0147994D01*
X0222823Y0146800D01*
X0226800Y0146800D01*
X0226800Y0147878D02*
X0222377Y0147878D01*
X0220846Y0149476D02*
X0226800Y0149476D01*
X0226800Y0151075D02*
X0176800Y0151075D01*
X0176800Y0152673D02*
X0226800Y0152673D01*
X0226800Y0154272D02*
X0176800Y0154272D01*
X0176800Y0155870D02*
X0226800Y0155870D01*
X0226800Y0157469D02*
X0176800Y0157469D01*
X0176800Y0159068D02*
X0226800Y0159068D01*
X0226800Y0160666D02*
X0176800Y0160666D01*
X0176800Y0162265D02*
X0226800Y0162265D01*
X0226800Y0163863D02*
X0176800Y0163863D01*
X0176800Y0165462D02*
X0226800Y0165462D01*
X0226800Y0167060D02*
X0176800Y0167060D01*
X0176800Y0168659D02*
X0226800Y0168659D01*
X0226800Y0170257D02*
X0176800Y0170257D01*
X0176800Y0171856D02*
X0226800Y0171856D01*
X0226800Y0173454D02*
X0176800Y0173454D01*
X0176800Y0175053D02*
X0226800Y0175053D01*
X0226800Y0176651D02*
X0176800Y0176651D01*
X0176800Y0178250D02*
X0226800Y0178250D01*
X0226800Y0179848D02*
X0176800Y0179848D01*
X0176800Y0181447D02*
X0226800Y0181447D01*
X0236800Y0186800D02*
X0116800Y0186800D01*
X0106800Y0196800D01*
X0106800Y0201800D01*
X0111800Y0206800D01*
X0113106Y0204828D02*
X0111272Y0202994D01*
X0110777Y0201800D01*
X0106800Y0201800D01*
X0106800Y0236800D01*
X0156800Y0236800D01*
X0156800Y0201800D01*
X0122823Y0201800D01*
X0122328Y0202994D01*
X0120494Y0204828D01*
X0118097Y0205821D01*
X0115503Y0205821D01*
X0113106Y0204828D01*
X0112103Y0203826D02*
X0106800Y0203826D01*
X0106800Y0205424D02*
X0114545Y0205424D01*
X0119055Y0205424D02*
X0156800Y0205424D01*
X0156800Y0203826D02*
X0121497Y0203826D01*
X0122646Y0202227D02*
X0156800Y0202227D01*
X0156800Y0207023D02*
X0106800Y0207023D01*
X0106800Y0208621D02*
X0156800Y0208621D01*
X0156800Y0210220D02*
X0106800Y0210220D01*
X0106800Y0211818D02*
X0156800Y0211818D01*
X0156800Y0213417D02*
X0106800Y0213417D01*
X0106800Y0215015D02*
X0156800Y0215015D01*
X0156800Y0216614D02*
X0106800Y0216614D01*
X0106800Y0218212D02*
X0156800Y0218212D01*
X0156800Y0219811D02*
X0106800Y0219811D01*
X0106800Y0221409D02*
X0156800Y0221409D01*
X0156800Y0223008D02*
X0106800Y0223008D01*
X0106800Y0224606D02*
X0156800Y0224606D01*
X0156800Y0226205D02*
X0106800Y0226205D01*
X0106800Y0227803D02*
X0156800Y0227803D01*
X0156800Y0229402D02*
X0106800Y0229402D01*
X0106800Y0231001D02*
X0156800Y0231001D01*
X0156800Y0232599D02*
X0106800Y0232599D01*
X0106800Y0234198D02*
X0156800Y0234198D01*
X0156800Y0235796D02*
X0106800Y0235796D01*
X0101800Y0251800D02*
X0106800Y0256800D01*
X0106800Y0291800D01*
X0156800Y0291800D01*
X0156800Y0256800D01*
X0122823Y0256800D01*
X0122328Y0257994D01*
X0120494Y0259828D01*
X0118097Y0260821D01*
X0115503Y0260821D01*
X0113106Y0259828D01*
X0111272Y0257994D01*
X0110777Y0256800D01*
X0106800Y0256800D01*
X0106800Y0258175D02*
X0111453Y0258175D01*
X0113051Y0259774D02*
X0106800Y0259774D01*
X0106800Y0261372D02*
X0156800Y0261372D01*
X0156800Y0259774D02*
X0120549Y0259774D01*
X0122147Y0258175D02*
X0156800Y0258175D01*
X0156800Y0262971D02*
X0106800Y0262971D01*
X0106800Y0264569D02*
X0156800Y0264569D01*
X0156800Y0266168D02*
X0106800Y0266168D01*
X0106800Y0267766D02*
X0156800Y0267766D01*
X0156800Y0269365D02*
X0106800Y0269365D01*
X0106800Y0270963D02*
X0156800Y0270963D01*
X0156800Y0272562D02*
X0106800Y0272562D01*
X0106800Y0274160D02*
X0156800Y0274160D01*
X0156800Y0275759D02*
X0106800Y0275759D01*
X0106800Y0277357D02*
X0156800Y0277357D01*
X0156800Y0278956D02*
X0106800Y0278956D01*
X0106800Y0280554D02*
X0156800Y0280554D01*
X0156800Y0282153D02*
X0106800Y0282153D01*
X0106800Y0283751D02*
X0156800Y0283751D01*
X0156800Y0285350D02*
X0106800Y0285350D01*
X0106800Y0286948D02*
X0156800Y0286948D01*
X0156800Y0288547D02*
X0106800Y0288547D01*
X0106800Y0290145D02*
X0156800Y0290145D01*
X0156800Y0291744D02*
X0106800Y0291744D01*
X0096800Y0301800D02*
X0111800Y0316800D01*
X0113106Y0314828D02*
X0111272Y0312994D01*
X0110777Y0311800D01*
X0106800Y0311800D01*
X0106800Y0346800D01*
X0156800Y0346800D01*
X0156800Y0311800D01*
X0122823Y0311800D01*
X0122328Y0312994D01*
X0120494Y0314828D01*
X0118097Y0315821D01*
X0115503Y0315821D01*
X0113106Y0314828D01*
X0112401Y0314123D02*
X0106800Y0314123D01*
X0106800Y0312525D02*
X0111077Y0312525D01*
X0115262Y0315722D02*
X0106800Y0315722D01*
X0106800Y0317320D02*
X0156800Y0317320D01*
X0156800Y0315722D02*
X0118338Y0315722D01*
X0121199Y0314123D02*
X0156800Y0314123D01*
X0156800Y0312525D02*
X0122523Y0312525D01*
X0106800Y0318919D02*
X0156800Y0318919D01*
X0156800Y0320517D02*
X0106800Y0320517D01*
X0106800Y0322116D02*
X0156800Y0322116D01*
X0156800Y0323714D02*
X0106800Y0323714D01*
X0106800Y0325313D02*
X0156800Y0325313D01*
X0156800Y0326911D02*
X0106800Y0326911D01*
X0106800Y0328510D02*
X0156800Y0328510D01*
X0156800Y0330108D02*
X0106800Y0330108D01*
X0106800Y0331707D02*
X0156800Y0331707D01*
X0156800Y0333305D02*
X0106800Y0333305D01*
X0106800Y0334904D02*
X0156800Y0334904D01*
X0156800Y0336502D02*
X0106800Y0336502D01*
X0106800Y0338101D02*
X0156800Y0338101D01*
X0156800Y0339699D02*
X0106800Y0339699D01*
X0106800Y0341298D02*
X0156800Y0341298D01*
X0156800Y0342896D02*
X0106800Y0342896D01*
X0106800Y0344495D02*
X0156800Y0344495D01*
X0156800Y0346093D02*
X0106800Y0346093D01*
X0096800Y0301800D02*
X0096800Y0126800D01*
X0101800Y0131800D02*
X0108050Y0125550D01*
X0228050Y0125550D01*
X0231800Y0121800D01*
X0271800Y0121800D01*
X0280520Y0113080D01*
X0280520Y0108887D01*
X0283080Y0108887D02*
X0283239Y0109046D01*
X0283239Y0116803D01*
X0286800Y0120364D01*
X0286800Y0121800D01*
X0291800Y0126800D01*
X0301800Y0126800D01*
X0306800Y0121800D01*
X0306800Y0116800D02*
X0293080Y0103080D01*
X0288887Y0103080D01*
X0288887Y0105639D02*
X0290639Y0105639D01*
X0296800Y0111800D01*
X0296800Y0121800D01*
X0289300Y0114300D02*
X0285639Y0110639D01*
X0285639Y0108887D01*
X0288887Y0100520D02*
X0298080Y0100520D01*
X0301800Y0104300D01*
X0301643Y0100719D02*
X0302512Y0100719D01*
X0303829Y0101264D01*
X0304836Y0102271D01*
X0305381Y0103588D01*
X0305381Y0105012D01*
X0304836Y0106329D01*
X0303829Y0107336D01*
X0302512Y0107881D01*
X0301275Y0107881D01*
X0307794Y0114400D01*
X0309136Y0114400D01*
X0309771Y0113764D01*
X0311088Y0113219D01*
X0312512Y0113219D01*
X0313829Y0113764D01*
X0314836Y0114771D01*
X0315381Y0116088D01*
X0315381Y0116800D01*
X0315650Y0116800D01*
X0315650Y0104044D01*
X0305806Y0094200D01*
X0299264Y0094200D01*
X0299836Y0094771D01*
X0300381Y0096088D01*
X0300381Y0097512D01*
X0299836Y0098829D01*
X0299809Y0098856D01*
X0300114Y0099161D01*
X0300118Y0099170D01*
X0301643Y0100719D01*
X0300859Y0099923D02*
X0311528Y0099923D01*
X0309930Y0098324D02*
X0300045Y0098324D01*
X0300381Y0096726D02*
X0308331Y0096726D01*
X0306733Y0095127D02*
X0299983Y0095127D01*
X0296800Y0096800D02*
X0295639Y0097961D01*
X0288887Y0097961D01*
X0285639Y0094713D02*
X0285639Y0092961D01*
X0286800Y0089300D01*
X0283080Y0088080D02*
X0276800Y0081800D01*
X0271800Y0081800D01*
X0274206Y0079142D02*
X0275748Y0079142D01*
X0276800Y0076800D02*
X0276800Y0064300D01*
X0274400Y0066354D02*
X0273888Y0066354D01*
X0274400Y0067952D02*
X0272290Y0067952D01*
X0270048Y0066800D02*
X0261800Y0066800D01*
X0270048Y0066800D02*
X0277961Y0058887D01*
X0282920Y0059046D02*
X0283080Y0058887D01*
X0285639Y0058887D02*
X0285639Y0060639D01*
X0286800Y0061800D01*
X0286800Y0074300D01*
X0286800Y0081800D02*
X0281800Y0081800D01*
X0276800Y0076800D01*
X0286800Y0081800D02*
X0296800Y0091800D01*
X0306800Y0091800D01*
X0318050Y0103050D01*
X0318050Y0120550D01*
X0309300Y0129300D01*
X0119300Y0129300D01*
X0106800Y0141800D01*
X0106800Y0146800D01*
X0106800Y0181800D01*
X0156800Y0181800D01*
X0156800Y0146800D01*
X0122823Y0146800D01*
X0122328Y0147994D01*
X0120494Y0149828D01*
X0118097Y0150821D01*
X0115503Y0150821D01*
X0113106Y0149828D01*
X0111272Y0147994D01*
X0110777Y0146800D01*
X0106800Y0146800D01*
X0106800Y0147878D02*
X0111223Y0147878D01*
X0112754Y0149476D02*
X0106800Y0149476D01*
X0106800Y0151075D02*
X0156800Y0151075D01*
X0156800Y0152673D02*
X0106800Y0152673D01*
X0106800Y0154272D02*
X0156800Y0154272D01*
X0156800Y0155870D02*
X0106800Y0155870D01*
X0106800Y0157469D02*
X0156800Y0157469D01*
X0156800Y0159068D02*
X0106800Y0159068D01*
X0106800Y0160666D02*
X0156800Y0160666D01*
X0156800Y0162265D02*
X0106800Y0162265D01*
X0106800Y0163863D02*
X0156800Y0163863D01*
X0156800Y0165462D02*
X0106800Y0165462D01*
X0106800Y0167060D02*
X0156800Y0167060D01*
X0156800Y0168659D02*
X0106800Y0168659D01*
X0106800Y0170257D02*
X0156800Y0170257D01*
X0156800Y0171856D02*
X0106800Y0171856D01*
X0106800Y0173454D02*
X0156800Y0173454D01*
X0156800Y0175053D02*
X0106800Y0175053D01*
X0106800Y0176651D02*
X0156800Y0176651D01*
X0156800Y0178250D02*
X0106800Y0178250D01*
X0106800Y0179848D02*
X0156800Y0179848D01*
X0156800Y0181447D02*
X0106800Y0181447D01*
X0106800Y0202227D02*
X0110954Y0202227D01*
X0101800Y0251800D02*
X0101800Y0131800D01*
X0095194Y0116800D02*
X0260906Y0116800D01*
X0250655Y0106550D01*
X0247318Y0106550D01*
X0246800Y0106031D01*
X0246282Y0106550D01*
X0239838Y0106550D01*
X0238901Y0105612D01*
X0238901Y0104200D01*
X0235564Y0104200D01*
X0235615Y0104251D01*
X0236300Y0105905D01*
X0236300Y0107695D01*
X0235615Y0109349D01*
X0234349Y0110615D01*
X0232695Y0111300D01*
X0230905Y0111300D01*
X0229251Y0110615D01*
X0227985Y0109349D01*
X0227300Y0107695D01*
X0227300Y0105905D01*
X0227985Y0104251D01*
X0229251Y0102985D01*
X0229491Y0102885D01*
X0215806Y0089200D01*
X0214464Y0089200D01*
X0213829Y0089836D01*
X0212512Y0090381D01*
X0211613Y0090381D01*
X0208159Y0093835D01*
X0207277Y0094200D01*
X0200294Y0094200D01*
X0192194Y0102300D01*
X0192695Y0102300D01*
X0194349Y0102985D01*
X0195615Y0104251D01*
X0196300Y0105905D01*
X0196300Y0107695D01*
X0195615Y0109349D01*
X0194349Y0110615D01*
X0192695Y0111300D01*
X0190905Y0111300D01*
X0189251Y0110615D01*
X0187985Y0109349D01*
X0187300Y0107695D01*
X0187300Y0107194D01*
X0185947Y0108547D01*
X0185615Y0109349D01*
X0184349Y0110615D01*
X0182695Y0111300D01*
X0180905Y0111300D01*
X0179251Y0110615D01*
X0177985Y0109349D01*
X0177300Y0107695D01*
X0177300Y0105905D01*
X0177985Y0104251D01*
X0179251Y0102985D01*
X0180905Y0102300D01*
X0182695Y0102300D01*
X0184349Y0102985D01*
X0184535Y0103171D01*
X0197265Y0090441D01*
X0197941Y0089765D01*
X0198823Y0089400D01*
X0205806Y0089400D01*
X0208219Y0086987D01*
X0208219Y0086088D01*
X0208764Y0084771D01*
X0209336Y0084200D01*
X0202794Y0084200D01*
X0188835Y0098159D01*
X0188835Y0098159D01*
X0188159Y0098835D01*
X0187277Y0099200D01*
X0177794Y0099200D01*
X0174200Y0102794D01*
X0174200Y0102923D01*
X0174349Y0102985D01*
X0175615Y0104251D01*
X0176300Y0105905D01*
X0176300Y0107695D01*
X0175615Y0109349D01*
X0174349Y0110615D01*
X0172695Y0111300D01*
X0170905Y0111300D01*
X0169251Y0110615D01*
X0167985Y0109349D01*
X0167300Y0107695D01*
X0167300Y0105905D01*
X0167985Y0104251D01*
X0169251Y0102985D01*
X0169400Y0102923D01*
X0169400Y0101323D01*
X0169765Y0100441D01*
X0174765Y0095441D01*
X0174765Y0095441D01*
X0175441Y0094765D01*
X0176323Y0094400D01*
X0185806Y0094400D01*
X0186006Y0094200D01*
X0132794Y0094200D01*
X0124200Y0102794D01*
X0124200Y0102923D01*
X0124349Y0102985D01*
X0125615Y0104251D01*
X0126300Y0105905D01*
X0126300Y0107695D01*
X0125615Y0109349D01*
X0124349Y0110615D01*
X0122695Y0111300D01*
X0120905Y0111300D01*
X0119251Y0110615D01*
X0117985Y0109349D01*
X0117300Y0107695D01*
X0117300Y0105905D01*
X0117985Y0104251D01*
X0119251Y0102985D01*
X0119400Y0102923D01*
X0119400Y0101323D01*
X0119765Y0100441D01*
X0120441Y0099765D01*
X0128506Y0091700D01*
X0087163Y0091700D01*
X0087200Y0091737D01*
X0087200Y0101063D01*
X0086263Y0102000D01*
X0082337Y0102000D01*
X0081800Y0101463D01*
X0081700Y0101563D01*
X0081700Y0114400D01*
X0090806Y0114400D01*
X0097362Y0107844D01*
X0097300Y0107695D01*
X0097300Y0105905D01*
X0097985Y0104251D01*
X0099251Y0102985D01*
X0100905Y0102300D01*
X0102695Y0102300D01*
X0104349Y0102985D01*
X0105615Y0104251D01*
X0106300Y0105905D01*
X0106300Y0107695D01*
X0105615Y0109349D01*
X0104349Y0110615D01*
X0102695Y0111300D01*
X0100905Y0111300D01*
X0100756Y0111238D01*
X0095194Y0116800D01*
X0096086Y0115908D02*
X0260014Y0115908D01*
X0258415Y0114309D02*
X0097685Y0114309D01*
X0099283Y0112711D02*
X0256817Y0112711D01*
X0255218Y0111112D02*
X0233149Y0111112D01*
X0230451Y0111112D02*
X0223149Y0111112D01*
X0222695Y0111300D02*
X0220905Y0111300D01*
X0219251Y0110615D01*
X0217985Y0109349D01*
X0217300Y0107695D01*
X0217300Y0105905D01*
X0217985Y0104251D01*
X0219251Y0102985D01*
X0220905Y0102300D01*
X0222695Y0102300D01*
X0224349Y0102985D01*
X0225615Y0104251D01*
X0226300Y0105905D01*
X0226300Y0107695D01*
X0225615Y0109349D01*
X0224349Y0110615D01*
X0222695Y0111300D01*
X0220451Y0111112D02*
X0213149Y0111112D01*
X0212695Y0111300D02*
X0210905Y0111300D01*
X0209251Y0110615D01*
X0207985Y0109349D01*
X0207300Y0107695D01*
X0207300Y0105905D01*
X0207985Y0104251D01*
X0209251Y0102985D01*
X0210905Y0102300D01*
X0212695Y0102300D01*
X0214349Y0102985D01*
X0215615Y0104251D01*
X0216300Y0105905D01*
X0216300Y0107695D01*
X0215615Y0109349D01*
X0214349Y0110615D01*
X0212695Y0111300D01*
X0210451Y0111112D02*
X0203149Y0111112D01*
X0202695Y0111300D02*
X0200905Y0111300D01*
X0199251Y0110615D01*
X0197985Y0109349D01*
X0197300Y0107695D01*
X0197300Y0105905D01*
X0197985Y0104251D01*
X0199251Y0102985D01*
X0200905Y0102300D01*
X0202695Y0102300D01*
X0204349Y0102985D01*
X0205615Y0104251D01*
X0206300Y0105905D01*
X0206300Y0107695D01*
X0205615Y0109349D01*
X0204349Y0110615D01*
X0202695Y0111300D01*
X0200451Y0111112D02*
X0193149Y0111112D01*
X0190451Y0111112D02*
X0183149Y0111112D01*
X0180451Y0111112D02*
X0173149Y0111112D01*
X0170451Y0111112D02*
X0163149Y0111112D01*
X0162695Y0111300D02*
X0160905Y0111300D01*
X0159251Y0110615D01*
X0157985Y0109349D01*
X0157300Y0107695D01*
X0157300Y0105905D01*
X0157985Y0104251D01*
X0159251Y0102985D01*
X0160905Y0102300D01*
X0162695Y0102300D01*
X0164349Y0102985D01*
X0165615Y0104251D01*
X0166300Y0105905D01*
X0166300Y0107695D01*
X0165615Y0109349D01*
X0164349Y0110615D01*
X0162695Y0111300D01*
X0160451Y0111112D02*
X0153149Y0111112D01*
X0152695Y0111300D02*
X0150905Y0111300D01*
X0149251Y0110615D01*
X0147985Y0109349D01*
X0147300Y0107695D01*
X0147300Y0105905D01*
X0147985Y0104251D01*
X0149251Y0102985D01*
X0150905Y0102300D01*
X0152695Y0102300D01*
X0154349Y0102985D01*
X0155615Y0104251D01*
X0156300Y0105905D01*
X0156300Y0107695D01*
X0155615Y0109349D01*
X0154349Y0110615D01*
X0152695Y0111300D01*
X0150451Y0111112D02*
X0143149Y0111112D01*
X0142695Y0111300D02*
X0140905Y0111300D01*
X0139251Y0110615D01*
X0137985Y0109349D01*
X0137300Y0107695D01*
X0137300Y0105905D01*
X0137985Y0104251D01*
X0139251Y0102985D01*
X0140905Y0102300D01*
X0142695Y0102300D01*
X0144349Y0102985D01*
X0145615Y0104251D01*
X0146300Y0105905D01*
X0146300Y0107695D01*
X0145615Y0109349D01*
X0144349Y0110615D01*
X0142695Y0111300D01*
X0140451Y0111112D02*
X0133149Y0111112D01*
X0132695Y0111300D02*
X0130905Y0111300D01*
X0129251Y0110615D01*
X0127985Y0109349D01*
X0127300Y0107695D01*
X0127300Y0105905D01*
X0127985Y0104251D01*
X0129251Y0102985D01*
X0130905Y0102300D01*
X0132695Y0102300D01*
X0134349Y0102985D01*
X0135615Y0104251D01*
X0136300Y0105905D01*
X0136300Y0107695D01*
X0135615Y0109349D01*
X0134349Y0110615D01*
X0132695Y0111300D01*
X0130451Y0111112D02*
X0123149Y0111112D01*
X0120451Y0111112D02*
X0113149Y0111112D01*
X0112695Y0111300D02*
X0110905Y0111300D01*
X0109251Y0110615D01*
X0107985Y0109349D01*
X0107300Y0107695D01*
X0107300Y0105905D01*
X0107985Y0104251D01*
X0109251Y0102985D01*
X0110905Y0102300D01*
X0112695Y0102300D01*
X0114349Y0102985D01*
X0115615Y0104251D01*
X0116300Y0105905D01*
X0116300Y0107695D01*
X0115615Y0109349D01*
X0114349Y0110615D01*
X0112695Y0111300D01*
X0110451Y0111112D02*
X0103149Y0111112D01*
X0105450Y0109514D02*
X0108150Y0109514D01*
X0107391Y0107915D02*
X0106209Y0107915D01*
X0106300Y0106317D02*
X0107300Y0106317D01*
X0107792Y0104718D02*
X0105808Y0104718D01*
X0104484Y0103120D02*
X0109116Y0103120D01*
X0106800Y0101800D02*
X0101800Y0096800D01*
X0099116Y0103120D02*
X0081700Y0103120D01*
X0081700Y0104718D02*
X0097792Y0104718D01*
X0097300Y0106317D02*
X0081700Y0106317D01*
X0081700Y0107915D02*
X0097291Y0107915D01*
X0095692Y0109514D02*
X0081700Y0109514D01*
X0081700Y0111112D02*
X0094094Y0111112D01*
X0092495Y0112711D02*
X0081700Y0112711D01*
X0081700Y0114309D02*
X0090897Y0114309D01*
X0091800Y0116800D02*
X0101800Y0106800D01*
X0091800Y0116800D02*
X0076800Y0116800D01*
X0031800Y0116800D01*
X0030068Y0115068D01*
X0028532Y0115068D01*
X0021800Y0115068D01*
X0028532Y0115068D02*
X0034300Y0109300D01*
X0034300Y0096800D01*
X0037646Y0093454D01*
X0041800Y0093454D01*
X0046354Y0093454D01*
X0049300Y0096400D01*
X0051900Y0090332D02*
X0046353Y0090332D01*
X0044200Y0088733D02*
X0051937Y0088733D01*
X0053071Y0087134D02*
X0044200Y0087134D01*
X0044200Y0085536D02*
X0054670Y0085536D01*
X0056800Y0086800D02*
X0054300Y0089300D01*
X0054300Y0096400D01*
X0059300Y0096400D02*
X0059300Y0106800D01*
X0056418Y0107915D02*
X0036700Y0107915D01*
X0036700Y0106317D02*
X0056211Y0106317D01*
X0056211Y0106186D02*
X0056681Y0105050D01*
X0056900Y0104832D01*
X0056900Y0101563D01*
X0056800Y0101463D01*
X0056263Y0102000D01*
X0052337Y0102000D01*
X0051800Y0101463D01*
X0051263Y0102000D01*
X0047337Y0102000D01*
X0046553Y0101215D01*
X0046553Y0102942D01*
X0046430Y0103400D01*
X0046193Y0103811D01*
X0045858Y0104146D01*
X0045448Y0104383D01*
X0044990Y0104505D01*
X0042280Y0104505D01*
X0042280Y0100626D01*
X0041320Y0100626D01*
X0041320Y0099667D01*
X0037047Y0099667D01*
X0037047Y0097447D01*
X0036700Y0097794D01*
X0036700Y0109777D01*
X0036335Y0110659D01*
X0035659Y0111335D01*
X0032694Y0114300D01*
X0032794Y0114400D01*
X0066836Y0114400D01*
X0066264Y0113829D01*
X0065719Y0112512D01*
X0065719Y0111088D01*
X0066264Y0109771D01*
X0067271Y0108764D01*
X0068588Y0108219D01*
X0069487Y0108219D01*
X0071900Y0105806D01*
X0071900Y0101563D01*
X0071800Y0101463D01*
X0071263Y0102000D01*
X0067337Y0102000D01*
X0066941Y0101604D01*
X0066705Y0101840D01*
X0066295Y0102077D01*
X0065837Y0102200D01*
X0064300Y0102200D01*
X0064300Y0096400D01*
X0064300Y0096400D01*
X0064300Y0102200D01*
X0062763Y0102200D01*
X0062305Y0102077D01*
X0061895Y0101840D01*
X0061700Y0101646D01*
X0061700Y0104832D01*
X0061919Y0105050D01*
X0062389Y0106186D01*
X0062389Y0107414D01*
X0061919Y0108550D01*
X0061050Y0109419D01*
X0059914Y0109889D01*
X0058686Y0109889D01*
X0057550Y0109419D01*
X0056681Y0108550D01*
X0056211Y0107414D01*
X0056211Y0106186D01*
X0056900Y0104718D02*
X0036700Y0104718D01*
X0037407Y0103811D02*
X0037742Y0104146D01*
X0038152Y0104383D01*
X0038610Y0104505D01*
X0041320Y0104505D01*
X0041320Y0100626D01*
X0037047Y0100626D01*
X0037047Y0102942D01*
X0037170Y0103400D01*
X0037407Y0103811D01*
X0037095Y0103120D02*
X0036700Y0103120D01*
X0036700Y0101521D02*
X0037047Y0101521D01*
X0036700Y0099923D02*
X0041320Y0099923D01*
X0041320Y0101521D02*
X0042280Y0101521D01*
X0042280Y0103120D02*
X0041320Y0103120D01*
X0046505Y0103120D02*
X0056900Y0103120D01*
X0056858Y0101521D02*
X0056742Y0101521D01*
X0061700Y0103120D02*
X0071900Y0103120D01*
X0071900Y0104718D02*
X0061700Y0104718D01*
X0062389Y0106317D02*
X0071389Y0106317D01*
X0069791Y0107915D02*
X0062182Y0107915D01*
X0060821Y0109514D02*
X0066522Y0109514D01*
X0065719Y0111112D02*
X0035882Y0111112D01*
X0036700Y0109514D02*
X0057779Y0109514D01*
X0065801Y0112711D02*
X0034283Y0112711D01*
X0032703Y0114309D02*
X0066745Y0114309D01*
X0069300Y0111800D02*
X0074300Y0106800D01*
X0074300Y0096400D01*
X0079300Y0096400D02*
X0079300Y0114300D01*
X0076800Y0116800D01*
X0081742Y0101521D02*
X0081858Y0101521D01*
X0086742Y0101521D02*
X0119400Y0101521D01*
X0119116Y0103120D02*
X0114484Y0103120D01*
X0115808Y0104718D02*
X0117792Y0104718D01*
X0117300Y0106317D02*
X0116300Y0106317D01*
X0116209Y0107915D02*
X0117391Y0107915D01*
X0118150Y0109514D02*
X0115450Y0109514D01*
X0121800Y0106800D02*
X0121800Y0101800D01*
X0131800Y0091800D01*
X0186800Y0091800D01*
X0201800Y0076800D01*
X0204411Y0074346D02*
X0238901Y0074346D01*
X0243060Y0071800D02*
X0226800Y0071800D01*
X0224354Y0072748D02*
X0191352Y0072748D01*
X0191368Y0071149D02*
X0222755Y0071149D01*
X0221157Y0069551D02*
X0190813Y0069551D01*
X0189413Y0067952D02*
X0219558Y0067952D01*
X0229300Y0056800D02*
X0234300Y0061800D01*
X0243060Y0061800D01*
X0229300Y0056800D02*
X0201800Y0056800D01*
X0191800Y0046800D01*
X0195806Y0039400D02*
X0187594Y0039400D01*
X0202794Y0024200D01*
X0217277Y0024200D01*
X0218159Y0023835D01*
X0232794Y0009200D01*
X0290806Y0009200D01*
X0299400Y0017794D01*
X0299400Y0037277D01*
X0299765Y0038159D01*
X0308806Y0047200D01*
X0307885Y0047200D01*
X0306194Y0047900D01*
X0304900Y0049194D01*
X0304200Y0050885D01*
X0304200Y0052715D01*
X0304900Y0054406D01*
X0306194Y0055700D01*
X0307885Y0056400D01*
X0315715Y0056400D01*
X0317406Y0055700D01*
X0318700Y0054406D01*
X0319400Y0052715D01*
X0319400Y0050885D01*
X0318700Y0049194D01*
X0317406Y0047900D01*
X0315715Y0047200D01*
X0314200Y0047200D01*
X0314200Y0046323D01*
X0313835Y0045441D01*
X0313159Y0044765D01*
X0304200Y0035806D01*
X0304200Y0016323D01*
X0303835Y0015441D01*
X0303159Y0014765D01*
X0294994Y0006600D01*
X0310056Y0006600D01*
X0309938Y0006718D01*
X0308397Y0009386D01*
X0307600Y0012362D01*
X0307600Y0015443D01*
X0308397Y0018418D01*
X0309938Y0021086D01*
X0312116Y0023265D01*
X0314784Y0024805D01*
X0317760Y0025602D01*
X0320840Y0025602D01*
X0323816Y0024805D01*
X0325701Y0023717D01*
X0325701Y0087307D01*
X0325659Y0087265D01*
X0315659Y0077265D01*
X0314777Y0076900D01*
X0300294Y0076900D01*
X0299200Y0075806D01*
X0299200Y0056323D01*
X0298835Y0055441D01*
X0298159Y0054765D01*
X0295194Y0051800D01*
X0298159Y0048835D01*
X0298159Y0048835D01*
X0298835Y0048159D01*
X0299200Y0047277D01*
X0299200Y0021323D01*
X0298835Y0020441D01*
X0298159Y0019765D01*
X0295381Y0016987D01*
X0295381Y0016088D01*
X0294836Y0014771D01*
X0293829Y0013764D01*
X0292512Y0013219D01*
X0291613Y0013219D01*
X0288159Y0009765D01*
X0287277Y0009400D01*
X0236323Y0009400D01*
X0235441Y0009765D01*
X0220806Y0024400D01*
X0211323Y0024400D01*
X0210441Y0024765D01*
X0209765Y0025441D01*
X0195806Y0039400D01*
X0196027Y0039179D02*
X0187815Y0039179D01*
X0189413Y0037581D02*
X0197625Y0037581D01*
X0199224Y0035982D02*
X0191012Y0035982D01*
X0192610Y0034384D02*
X0200822Y0034384D01*
X0202421Y0032785D02*
X0194209Y0032785D01*
X0195807Y0031187D02*
X0204019Y0031187D01*
X0205618Y0029588D02*
X0197406Y0029588D01*
X0199005Y0027990D02*
X0207216Y0027990D01*
X0208815Y0026391D02*
X0200603Y0026391D01*
X0202202Y0024793D02*
X0210413Y0024793D01*
X0216800Y0021800D02*
X0231800Y0006800D01*
X0291800Y0006800D01*
X0301800Y0016800D01*
X0301800Y0036800D01*
X0311800Y0046800D01*
X0311800Y0051800D01*
X0311600Y0057000D02*
X0308422Y0057000D01*
X0307676Y0057118D01*
X0306957Y0057352D01*
X0306284Y0057695D01*
X0305673Y0058139D01*
X0305139Y0058673D01*
X0304695Y0059284D01*
X0304352Y0059957D01*
X0304118Y0060676D01*
X0304000Y0061422D01*
X0304000Y0061600D01*
X0311600Y0061600D01*
X0312000Y0061600D01*
X0312000Y0062000D01*
X0311600Y0062000D01*
X0311600Y0066600D01*
X0308422Y0066600D01*
X0307676Y0066482D01*
X0306957Y0066248D01*
X0306284Y0065905D01*
X0305673Y0065461D01*
X0305139Y0064927D01*
X0304695Y0064316D01*
X0304352Y0063643D01*
X0304118Y0062924D01*
X0304000Y0062178D01*
X0304000Y0062000D01*
X0311600Y0062000D01*
X0311600Y0061600D01*
X0311600Y0057000D01*
X0312000Y0057000D02*
X0315178Y0057000D01*
X0315924Y0057118D01*
X0316643Y0057352D01*
X0317316Y0057695D01*
X0317927Y0058139D01*
X0318461Y0058673D01*
X0318905Y0059284D01*
X0319248Y0059957D01*
X0319482Y0060676D01*
X0319600Y0061422D01*
X0319600Y0061600D01*
X0312000Y0061600D01*
X0312000Y0057000D01*
X0312000Y0058361D02*
X0311600Y0058361D01*
X0311600Y0059960D02*
X0312000Y0059960D01*
X0312000Y0061558D02*
X0311600Y0061558D01*
X0312000Y0062000D02*
X0312000Y0066600D01*
X0315178Y0066600D01*
X0315924Y0066482D01*
X0316643Y0066248D01*
X0317316Y0065905D01*
X0317927Y0065461D01*
X0318461Y0064927D01*
X0318905Y0064316D01*
X0319248Y0063643D01*
X0319482Y0062924D01*
X0319600Y0062178D01*
X0319600Y0062000D01*
X0312000Y0062000D01*
X0312000Y0063157D02*
X0311600Y0063157D01*
X0311600Y0064755D02*
X0312000Y0064755D01*
X0312000Y0066354D02*
X0311600Y0066354D01*
X0307885Y0067200D02*
X0306194Y0067900D01*
X0304900Y0069194D01*
X0304200Y0070885D01*
X0304200Y0072715D01*
X0304900Y0074406D01*
X0306194Y0075700D01*
X0307885Y0076400D01*
X0315715Y0076400D01*
X0317406Y0075700D01*
X0318700Y0074406D01*
X0319400Y0072715D01*
X0319400Y0070885D01*
X0318700Y0069194D01*
X0317406Y0067900D01*
X0315715Y0067200D01*
X0307885Y0067200D01*
X0307282Y0066354D02*
X0299200Y0066354D01*
X0299200Y0067952D02*
X0306142Y0067952D01*
X0304753Y0069551D02*
X0299200Y0069551D01*
X0299200Y0071149D02*
X0304200Y0071149D01*
X0304214Y0072748D02*
X0299200Y0072748D01*
X0299200Y0074346D02*
X0304876Y0074346D01*
X0306786Y0075945D02*
X0299339Y0075945D01*
X0296800Y0076800D02*
X0299300Y0079300D01*
X0314300Y0079300D01*
X0324300Y0089300D01*
X0324300Y0184300D01*
X0311800Y0196800D01*
X0231800Y0196800D01*
X0226800Y0201800D01*
X0226800Y0236800D01*
X0176800Y0236800D01*
X0176800Y0201800D01*
X0210777Y0201800D01*
X0211272Y0202994D01*
X0213106Y0204828D01*
X0215503Y0205821D01*
X0218097Y0205821D01*
X0220494Y0204828D01*
X0222328Y0202994D01*
X0222823Y0201800D01*
X0226800Y0201800D01*
X0226800Y0202227D02*
X0222646Y0202227D01*
X0221497Y0203826D02*
X0226800Y0203826D01*
X0226800Y0205424D02*
X0219055Y0205424D01*
X0214545Y0205424D02*
X0176800Y0205424D01*
X0176800Y0203826D02*
X0212103Y0203826D01*
X0210954Y0202227D02*
X0176800Y0202227D01*
X0176800Y0207023D02*
X0226800Y0207023D01*
X0226800Y0208621D02*
X0176800Y0208621D01*
X0176800Y0210220D02*
X0226800Y0210220D01*
X0226800Y0211818D02*
X0176800Y0211818D01*
X0176800Y0213417D02*
X0226800Y0213417D01*
X0226800Y0215015D02*
X0176800Y0215015D01*
X0176800Y0216614D02*
X0226800Y0216614D01*
X0226800Y0218212D02*
X0176800Y0218212D01*
X0176800Y0219811D02*
X0226800Y0219811D01*
X0226800Y0221409D02*
X0176800Y0221409D01*
X0176800Y0223008D02*
X0226800Y0223008D01*
X0226800Y0224606D02*
X0176800Y0224606D01*
X0176800Y0226205D02*
X0226800Y0226205D01*
X0226800Y0227803D02*
X0176800Y0227803D01*
X0176800Y0229402D02*
X0226800Y0229402D01*
X0226800Y0231001D02*
X0176800Y0231001D01*
X0176800Y0232599D02*
X0226800Y0232599D01*
X0226800Y0234198D02*
X0176800Y0234198D01*
X0176800Y0235796D02*
X0226800Y0235796D01*
X0231800Y0251800D02*
X0221800Y0261800D01*
X0220494Y0259828D02*
X0218097Y0260821D01*
X0215503Y0260821D01*
X0213106Y0259828D01*
X0211272Y0257994D01*
X0210777Y0256800D01*
X0176800Y0256800D01*
X0176800Y0291800D01*
X0226800Y0291800D01*
X0226800Y0256800D01*
X0222823Y0256800D01*
X0222328Y0257994D01*
X0220494Y0259828D01*
X0220549Y0259774D02*
X0226800Y0259774D01*
X0226800Y0261372D02*
X0176800Y0261372D01*
X0176800Y0259774D02*
X0213051Y0259774D01*
X0211453Y0258175D02*
X0176800Y0258175D01*
X0176800Y0262971D02*
X0226800Y0262971D01*
X0226800Y0264569D02*
X0176800Y0264569D01*
X0176800Y0266168D02*
X0226800Y0266168D01*
X0226800Y0267766D02*
X0176800Y0267766D01*
X0176800Y0269365D02*
X0226800Y0269365D01*
X0226800Y0270963D02*
X0176800Y0270963D01*
X0176800Y0272562D02*
X0226800Y0272562D01*
X0226800Y0274160D02*
X0176800Y0274160D01*
X0176800Y0275759D02*
X0226800Y0275759D01*
X0226800Y0277357D02*
X0176800Y0277357D01*
X0176800Y0278956D02*
X0226800Y0278956D01*
X0226800Y0280554D02*
X0176800Y0280554D01*
X0176800Y0282153D02*
X0226800Y0282153D01*
X0226800Y0283751D02*
X0176800Y0283751D01*
X0176800Y0285350D02*
X0226800Y0285350D01*
X0226800Y0286948D02*
X0176800Y0286948D01*
X0176800Y0288547D02*
X0226800Y0288547D01*
X0226800Y0290145D02*
X0176800Y0290145D01*
X0176800Y0291744D02*
X0226800Y0291744D01*
X0231800Y0306800D02*
X0221800Y0316800D01*
X0220494Y0314828D02*
X0218097Y0315821D01*
X0215503Y0315821D01*
X0213106Y0314828D01*
X0211272Y0312994D01*
X0210777Y0311800D01*
X0176800Y0311800D01*
X0176800Y0346800D01*
X0226800Y0346800D01*
X0226800Y0311800D01*
X0222823Y0311800D01*
X0222328Y0312994D01*
X0220494Y0314828D01*
X0221199Y0314123D02*
X0226800Y0314123D01*
X0226800Y0312525D02*
X0222523Y0312525D01*
X0218338Y0315722D02*
X0226800Y0315722D01*
X0226800Y0317320D02*
X0176800Y0317320D01*
X0176800Y0315722D02*
X0215262Y0315722D01*
X0212401Y0314123D02*
X0176800Y0314123D01*
X0176800Y0312525D02*
X0211077Y0312525D01*
X0226800Y0318919D02*
X0176800Y0318919D01*
X0176800Y0320517D02*
X0226800Y0320517D01*
X0226800Y0322116D02*
X0176800Y0322116D01*
X0176800Y0323714D02*
X0226800Y0323714D01*
X0226800Y0325313D02*
X0176800Y0325313D01*
X0176800Y0326911D02*
X0226800Y0326911D01*
X0226800Y0328510D02*
X0176800Y0328510D01*
X0176800Y0330108D02*
X0226800Y0330108D01*
X0226800Y0331707D02*
X0176800Y0331707D01*
X0176800Y0333305D02*
X0226800Y0333305D01*
X0226800Y0334904D02*
X0176800Y0334904D01*
X0176800Y0336502D02*
X0226800Y0336502D01*
X0226800Y0338101D02*
X0176800Y0338101D01*
X0176800Y0339699D02*
X0226800Y0339699D01*
X0226800Y0341298D02*
X0176800Y0341298D01*
X0176800Y0342896D02*
X0226800Y0342896D01*
X0226800Y0344495D02*
X0176800Y0344495D01*
X0176800Y0346093D02*
X0226800Y0346093D01*
X0231800Y0306800D02*
X0306800Y0306800D01*
X0306800Y0251800D02*
X0231800Y0251800D01*
X0226800Y0258175D02*
X0222147Y0258175D01*
X0236800Y0186800D02*
X0276800Y0151800D01*
X0306800Y0116800D02*
X0311800Y0116800D01*
X0309226Y0114309D02*
X0307703Y0114309D01*
X0306105Y0112711D02*
X0315650Y0112711D01*
X0315650Y0114309D02*
X0314374Y0114309D01*
X0315307Y0115908D02*
X0315650Y0115908D01*
X0315650Y0111112D02*
X0304506Y0111112D01*
X0302908Y0109514D02*
X0315650Y0109514D01*
X0315650Y0107915D02*
X0301309Y0107915D01*
X0304841Y0106317D02*
X0315650Y0106317D01*
X0315650Y0104718D02*
X0305381Y0104718D01*
X0305187Y0103120D02*
X0314726Y0103120D01*
X0313127Y0101521D02*
X0304086Y0101521D01*
X0314300Y0086800D02*
X0309300Y0081800D01*
X0296800Y0081800D01*
X0294300Y0079300D01*
X0294300Y0059300D01*
X0290639Y0055639D01*
X0288887Y0055639D01*
X0288887Y0053080D02*
X0293080Y0053080D01*
X0296800Y0056800D01*
X0296800Y0076800D01*
X0299200Y0064755D02*
X0305014Y0064755D01*
X0304194Y0063157D02*
X0299200Y0063157D01*
X0299200Y0061558D02*
X0304000Y0061558D01*
X0304351Y0059960D02*
X0299200Y0059960D01*
X0299200Y0058361D02*
X0305450Y0058361D01*
X0305659Y0055164D02*
X0298558Y0055164D01*
X0299200Y0056763D02*
X0325701Y0056763D01*
X0325701Y0058361D02*
X0318150Y0058361D01*
X0319249Y0059960D02*
X0325701Y0059960D01*
X0325701Y0061558D02*
X0319600Y0061558D01*
X0319406Y0063157D02*
X0325701Y0063157D01*
X0325701Y0064755D02*
X0318586Y0064755D01*
X0316318Y0066354D02*
X0325701Y0066354D01*
X0325701Y0067952D02*
X0317458Y0067952D01*
X0318847Y0069551D02*
X0325701Y0069551D01*
X0325701Y0071149D02*
X0319400Y0071149D01*
X0319386Y0072748D02*
X0325701Y0072748D01*
X0325701Y0074346D02*
X0318724Y0074346D01*
X0316814Y0075945D02*
X0325701Y0075945D01*
X0325701Y0077543D02*
X0315938Y0077543D01*
X0317536Y0079142D02*
X0325701Y0079142D01*
X0325701Y0080740D02*
X0319135Y0080740D01*
X0320733Y0082339D02*
X0325701Y0082339D01*
X0325701Y0083937D02*
X0322332Y0083937D01*
X0323930Y0085536D02*
X0325701Y0085536D01*
X0325701Y0087134D02*
X0325529Y0087134D01*
X0325701Y0055164D02*
X0317941Y0055164D01*
X0319048Y0053566D02*
X0325701Y0053566D01*
X0325701Y0051967D02*
X0319400Y0051967D01*
X0319186Y0050369D02*
X0325701Y0050369D01*
X0325701Y0048770D02*
X0318276Y0048770D01*
X0314200Y0047172D02*
X0325701Y0047172D01*
X0325701Y0045573D02*
X0313890Y0045573D01*
X0312369Y0043975D02*
X0325701Y0043975D01*
X0325701Y0042376D02*
X0310770Y0042376D01*
X0309172Y0040778D02*
X0325701Y0040778D01*
X0325701Y0039179D02*
X0307573Y0039179D01*
X0305975Y0037581D02*
X0325701Y0037581D01*
X0325701Y0035982D02*
X0304376Y0035982D01*
X0304200Y0034384D02*
X0325701Y0034384D01*
X0325701Y0032785D02*
X0304200Y0032785D01*
X0304200Y0031187D02*
X0325701Y0031187D01*
X0325701Y0029588D02*
X0304200Y0029588D01*
X0304200Y0027990D02*
X0325701Y0027990D01*
X0325701Y0026391D02*
X0304200Y0026391D01*
X0304200Y0024793D02*
X0314762Y0024793D01*
X0312045Y0023194D02*
X0304200Y0023194D01*
X0304200Y0021596D02*
X0310447Y0021596D01*
X0309309Y0019997D02*
X0304200Y0019997D01*
X0304200Y0018399D02*
X0308392Y0018399D01*
X0307964Y0016800D02*
X0304200Y0016800D01*
X0303596Y0015201D02*
X0307600Y0015201D01*
X0307600Y0013603D02*
X0301997Y0013603D01*
X0300399Y0012004D02*
X0307696Y0012004D01*
X0308124Y0010406D02*
X0298800Y0010406D01*
X0297202Y0008807D02*
X0308732Y0008807D01*
X0309654Y0007209D02*
X0295603Y0007209D01*
X0292012Y0010406D02*
X0288800Y0010406D01*
X0290399Y0012004D02*
X0293610Y0012004D01*
X0293440Y0013603D02*
X0295209Y0013603D01*
X0295014Y0015201D02*
X0296807Y0015201D01*
X0295381Y0016800D02*
X0298406Y0016800D01*
X0299400Y0018399D02*
X0296793Y0018399D01*
X0298391Y0019997D02*
X0299400Y0019997D01*
X0299400Y0021596D02*
X0299200Y0021596D01*
X0299200Y0023194D02*
X0299400Y0023194D01*
X0299400Y0024793D02*
X0299200Y0024793D01*
X0299200Y0026391D02*
X0299400Y0026391D01*
X0299400Y0027990D02*
X0299200Y0027990D01*
X0299200Y0029588D02*
X0299400Y0029588D01*
X0299400Y0031187D02*
X0299200Y0031187D01*
X0299200Y0032785D02*
X0299400Y0032785D01*
X0299400Y0034384D02*
X0299200Y0034384D01*
X0299200Y0035982D02*
X0299400Y0035982D01*
X0299526Y0037581D02*
X0299200Y0037581D01*
X0299200Y0039179D02*
X0300785Y0039179D01*
X0299200Y0040778D02*
X0302384Y0040778D01*
X0303982Y0042376D02*
X0299200Y0042376D01*
X0299200Y0043975D02*
X0305581Y0043975D01*
X0307179Y0045573D02*
X0299200Y0045573D01*
X0299200Y0047172D02*
X0308778Y0047172D01*
X0305324Y0048770D02*
X0298224Y0048770D01*
X0296625Y0050369D02*
X0304414Y0050369D01*
X0304200Y0051967D02*
X0295361Y0051967D01*
X0296960Y0053566D02*
X0304552Y0053566D01*
X0286800Y0043552D02*
X0286800Y0027961D01*
X0286800Y0026800D01*
X0281800Y0021800D01*
X0246800Y0021800D01*
X0231800Y0036800D01*
X0236800Y0041800D01*
X0243060Y0041800D01*
X0231800Y0036800D02*
X0216800Y0036800D01*
X0211800Y0041800D01*
X0211800Y0046800D01*
X0192216Y0027990D02*
X0183216Y0027990D01*
X0183216Y0026391D02*
X0193815Y0026391D01*
X0193316Y0024905D02*
X0192643Y0025248D01*
X0191924Y0025482D01*
X0191178Y0025600D01*
X0191000Y0025600D01*
X0191000Y0018000D01*
X0195600Y0018000D01*
X0195600Y0021178D01*
X0195482Y0021924D01*
X0195248Y0022643D01*
X0194905Y0023316D01*
X0194461Y0023927D01*
X0193927Y0024461D01*
X0193316Y0024905D01*
X0193471Y0024793D02*
X0195413Y0024793D01*
X0194967Y0023194D02*
X0197012Y0023194D01*
X0195534Y0021596D02*
X0198610Y0021596D01*
X0200209Y0019997D02*
X0195600Y0019997D01*
X0195600Y0018399D02*
X0216807Y0018399D01*
X0218406Y0016800D02*
X0195600Y0016800D01*
X0195600Y0017600D02*
X0191000Y0017600D01*
X0191000Y0018000D01*
X0190600Y0018000D01*
X0190600Y0025600D01*
X0190422Y0025600D01*
X0189676Y0025482D01*
X0188957Y0025248D01*
X0188284Y0024905D01*
X0187673Y0024461D01*
X0187139Y0023927D01*
X0186695Y0023316D01*
X0186352Y0022643D01*
X0186118Y0021924D01*
X0186000Y0021178D01*
X0186000Y0018000D01*
X0190600Y0018000D01*
X0190600Y0017600D01*
X0191000Y0017600D01*
X0191000Y0010000D01*
X0191178Y0010000D01*
X0191924Y0010118D01*
X0192643Y0010352D01*
X0193316Y0010695D01*
X0193927Y0011139D01*
X0194461Y0011673D01*
X0194905Y0012284D01*
X0195248Y0012957D01*
X0195482Y0013676D01*
X0195600Y0014422D01*
X0195600Y0017600D01*
X0195600Y0015201D02*
X0220004Y0015201D01*
X0221603Y0013603D02*
X0195458Y0013603D01*
X0194702Y0012004D02*
X0223201Y0012004D01*
X0224800Y0010406D02*
X0192749Y0010406D01*
X0191000Y0010406D02*
X0190600Y0010406D01*
X0190600Y0010000D02*
X0190600Y0017600D01*
X0186000Y0017600D01*
X0186000Y0014422D01*
X0186118Y0013676D01*
X0186352Y0012957D01*
X0186695Y0012284D01*
X0187139Y0011673D01*
X0187673Y0011139D01*
X0188284Y0010695D01*
X0188957Y0010352D01*
X0189676Y0010118D01*
X0190422Y0010000D01*
X0190600Y0010000D01*
X0188851Y0010406D02*
X0182212Y0010406D01*
X0184510Y0012004D02*
X0186898Y0012004D01*
X0186142Y0013603D02*
X0185283Y0013603D01*
X0185400Y0015201D02*
X0186000Y0015201D01*
X0186000Y0016800D02*
X0185400Y0016800D01*
X0185400Y0018399D02*
X0186000Y0018399D01*
X0186000Y0019997D02*
X0185400Y0019997D01*
X0185400Y0021596D02*
X0186066Y0021596D01*
X0186633Y0023194D02*
X0184787Y0023194D01*
X0183216Y0024793D02*
X0188129Y0024793D01*
X0190600Y0024793D02*
X0191000Y0024793D01*
X0191000Y0023194D02*
X0190600Y0023194D01*
X0190600Y0021596D02*
X0191000Y0021596D01*
X0191000Y0019997D02*
X0190600Y0019997D01*
X0190600Y0018399D02*
X0191000Y0018399D01*
X0191000Y0016800D02*
X0190600Y0016800D01*
X0190600Y0015201D02*
X0191000Y0015201D01*
X0191000Y0013603D02*
X0190600Y0013603D01*
X0190600Y0012004D02*
X0191000Y0012004D01*
X0180816Y0017816D02*
X0180816Y0027784D01*
X0171800Y0036800D01*
X0146800Y0036800D01*
X0141800Y0041800D01*
X0141800Y0046800D01*
X0137745Y0048770D02*
X0135855Y0048770D01*
X0135615Y0049349D02*
X0134349Y0050615D01*
X0132695Y0051300D01*
X0130905Y0051300D01*
X0129251Y0050615D01*
X0127985Y0049349D01*
X0127300Y0047695D01*
X0127300Y0045905D01*
X0127985Y0044251D01*
X0129251Y0042985D01*
X0130905Y0042300D01*
X0132695Y0042300D01*
X0134349Y0042985D01*
X0135615Y0044251D01*
X0136300Y0045905D01*
X0136300Y0047695D01*
X0135615Y0049349D01*
X0134595Y0050369D02*
X0139005Y0050369D01*
X0137300Y0047172D02*
X0136300Y0047172D01*
X0136163Y0045573D02*
X0137437Y0045573D01*
X0138261Y0043975D02*
X0135339Y0043975D01*
X0132879Y0042376D02*
X0139400Y0042376D01*
X0139626Y0040778D02*
X0091550Y0040778D01*
X0091550Y0042376D02*
X0100206Y0042376D01*
X0101650Y0042376D02*
X0101950Y0042376D01*
X0101950Y0042100D02*
X0102170Y0042100D01*
X0102901Y0042216D01*
X0103604Y0042444D01*
X0104263Y0042780D01*
X0104862Y0043215D01*
X0105385Y0043738D01*
X0105820Y0044337D01*
X0106156Y0044996D01*
X0106384Y0045699D01*
X0106500Y0046430D01*
X0106500Y0046650D01*
X0101950Y0046650D01*
X0101950Y0046950D01*
X0101650Y0046950D01*
X0101650Y0046650D01*
X0101950Y0046650D01*
X0101950Y0042100D01*
X0103394Y0042376D02*
X0110721Y0042376D01*
X0110905Y0042300D02*
X0112695Y0042300D01*
X0114349Y0042985D01*
X0115615Y0044251D01*
X0116300Y0045905D01*
X0116300Y0047695D01*
X0115615Y0049349D01*
X0114349Y0050615D01*
X0112695Y0051300D01*
X0110905Y0051300D01*
X0109251Y0050615D01*
X0107985Y0049349D01*
X0107300Y0047695D01*
X0107300Y0045905D01*
X0107985Y0044251D01*
X0109251Y0042985D01*
X0110905Y0042300D01*
X0112879Y0042376D02*
X0120721Y0042376D01*
X0120905Y0042300D02*
X0122695Y0042300D01*
X0124349Y0042985D01*
X0125615Y0044251D01*
X0126300Y0045905D01*
X0126300Y0047695D01*
X0125615Y0049349D01*
X0124349Y0050615D01*
X0122695Y0051300D01*
X0120905Y0051300D01*
X0119251Y0050615D01*
X0117985Y0049349D01*
X0117300Y0047695D01*
X0117300Y0045905D01*
X0117985Y0044251D01*
X0119251Y0042985D01*
X0120905Y0042300D01*
X0122879Y0042376D02*
X0130721Y0042376D01*
X0128261Y0043975D02*
X0125339Y0043975D01*
X0126163Y0045573D02*
X0127437Y0045573D01*
X0127300Y0047172D02*
X0126300Y0047172D01*
X0125855Y0048770D02*
X0127745Y0048770D01*
X0129005Y0050369D02*
X0124595Y0050369D01*
X0119005Y0050369D02*
X0114595Y0050369D01*
X0115855Y0048770D02*
X0117745Y0048770D01*
X0117300Y0047172D02*
X0116300Y0047172D01*
X0116163Y0045573D02*
X0117437Y0045573D01*
X0118261Y0043975D02*
X0115339Y0043975D01*
X0108261Y0043975D02*
X0105557Y0043975D01*
X0106343Y0045573D02*
X0107437Y0045573D01*
X0107300Y0047172D02*
X0106500Y0047172D01*
X0106500Y0047170D02*
X0106384Y0047901D01*
X0106156Y0048604D01*
X0105820Y0049263D01*
X0105385Y0049862D01*
X0104862Y0050385D01*
X0104263Y0050820D01*
X0103604Y0051156D01*
X0102901Y0051384D01*
X0102170Y0051500D01*
X0101950Y0051500D01*
X0101950Y0046950D01*
X0106500Y0046950D01*
X0106500Y0047170D01*
X0106071Y0048770D02*
X0107745Y0048770D01*
X0109005Y0050369D02*
X0104878Y0050369D01*
X0101950Y0050369D02*
X0101650Y0050369D01*
X0101650Y0048770D02*
X0101950Y0048770D01*
X0101950Y0047172D02*
X0101650Y0047172D01*
X0101650Y0045573D02*
X0101950Y0045573D01*
X0101950Y0043975D02*
X0101650Y0043975D01*
X0098043Y0043975D02*
X0091550Y0043975D01*
X0086800Y0038060D02*
X0142146Y0038060D01*
X0145806Y0034400D01*
X0154200Y0034400D01*
X0170800Y0017800D01*
X0175400Y0018399D02*
X0176200Y0018399D01*
X0176200Y0019997D02*
X0175400Y0019997D01*
X0175400Y0021596D02*
X0176200Y0021596D01*
X0176813Y0023194D02*
X0174787Y0023194D01*
X0173181Y0024793D02*
X0178416Y0024793D01*
X0178416Y0026391D02*
X0165603Y0026391D01*
X0167202Y0024793D02*
X0168419Y0024793D01*
X0164005Y0027990D02*
X0177216Y0027990D01*
X0175618Y0029588D02*
X0162406Y0029588D01*
X0160807Y0031187D02*
X0174019Y0031187D01*
X0172421Y0032785D02*
X0159209Y0032785D01*
X0157610Y0034384D02*
X0170822Y0034384D01*
X0174413Y0037581D02*
X0182625Y0037581D01*
X0181027Y0039179D02*
X0172328Y0039179D01*
X0176012Y0035982D02*
X0184224Y0035982D01*
X0185822Y0034384D02*
X0177610Y0034384D01*
X0179209Y0032785D02*
X0187421Y0032785D01*
X0189019Y0031187D02*
X0180807Y0031187D01*
X0182406Y0029588D02*
X0190618Y0029588D01*
X0201800Y0021800D02*
X0181800Y0041800D01*
X0166800Y0041800D01*
X0161800Y0046800D01*
X0157745Y0048770D02*
X0155855Y0048770D01*
X0155615Y0049349D02*
X0154349Y0050615D01*
X0152695Y0051300D01*
X0150905Y0051300D01*
X0149251Y0050615D01*
X0147985Y0049349D01*
X0147300Y0047695D01*
X0147300Y0045905D01*
X0147985Y0044251D01*
X0149251Y0042985D01*
X0150905Y0042300D01*
X0152695Y0042300D01*
X0154349Y0042985D01*
X0155615Y0044251D01*
X0156300Y0045905D01*
X0156300Y0047695D01*
X0155615Y0049349D01*
X0154595Y0050369D02*
X0159005Y0050369D01*
X0157300Y0047172D02*
X0156300Y0047172D01*
X0156163Y0045573D02*
X0157437Y0045573D01*
X0158261Y0043975D02*
X0155339Y0043975D01*
X0152879Y0042376D02*
X0160721Y0042376D01*
X0164428Y0040778D02*
X0146216Y0040778D01*
X0144618Y0042376D02*
X0150721Y0042376D01*
X0148261Y0043975D02*
X0145339Y0043975D01*
X0146163Y0045573D02*
X0147437Y0045573D01*
X0147300Y0047172D02*
X0146300Y0047172D01*
X0145855Y0048770D02*
X0147745Y0048770D01*
X0149005Y0050369D02*
X0144595Y0050369D01*
X0151800Y0031800D02*
X0160571Y0023029D01*
X0160571Y0018029D01*
X0160800Y0017800D01*
X0165400Y0018399D02*
X0166200Y0018399D01*
X0166200Y0016800D02*
X0165400Y0016800D01*
X0165400Y0015201D02*
X0166200Y0015201D01*
X0166317Y0013603D02*
X0165283Y0013603D01*
X0164510Y0012004D02*
X0167090Y0012004D01*
X0169388Y0010406D02*
X0162212Y0010406D01*
X0159388Y0010406D02*
X0152212Y0010406D01*
X0154510Y0012004D02*
X0157090Y0012004D01*
X0156317Y0013603D02*
X0155283Y0013603D01*
X0155400Y0015201D02*
X0156200Y0015201D01*
X0156200Y0016800D02*
X0155400Y0016800D01*
X0160816Y0022784D02*
X0160571Y0023029D01*
X0146813Y0023194D02*
X0144787Y0023194D01*
X0145400Y0021596D02*
X0146200Y0021596D01*
X0146200Y0019997D02*
X0145400Y0019997D01*
X0145400Y0018399D02*
X0146200Y0018399D01*
X0146200Y0016800D02*
X0145400Y0016800D01*
X0145400Y0015201D02*
X0146200Y0015201D01*
X0146317Y0013603D02*
X0145283Y0013603D01*
X0144510Y0012004D02*
X0147090Y0012004D01*
X0149388Y0010406D02*
X0142212Y0010406D01*
X0139388Y0010406D02*
X0132212Y0010406D01*
X0134510Y0012004D02*
X0137090Y0012004D01*
X0136317Y0013603D02*
X0135283Y0013603D01*
X0135400Y0015201D02*
X0136200Y0015201D01*
X0136200Y0016800D02*
X0135400Y0016800D01*
X0135400Y0018399D02*
X0136200Y0018399D01*
X0136800Y0021800D02*
X0139300Y0021800D01*
X0140816Y0020284D01*
X0140816Y0017816D01*
X0140800Y0017800D01*
X0136800Y0021800D02*
X0131800Y0026800D01*
X0076800Y0026800D01*
X0074300Y0029300D01*
X0059300Y0029300D01*
X0056800Y0031800D01*
X0056800Y0038060D01*
X0055618Y0029588D02*
X0038957Y0029588D01*
X0039889Y0031187D02*
X0044125Y0031187D01*
X0043711Y0032785D02*
X0039735Y0032785D01*
X0041095Y0034384D02*
X0042505Y0034384D01*
X0042050Y0035982D02*
X0041550Y0035982D01*
X0041550Y0037581D02*
X0042050Y0037581D01*
X0042050Y0039179D02*
X0041550Y0039179D01*
X0041550Y0040778D02*
X0042050Y0040778D01*
X0042050Y0042376D02*
X0041550Y0042376D01*
X0041550Y0043975D02*
X0042050Y0043975D01*
X0042050Y0045573D02*
X0041550Y0045573D01*
X0041550Y0047172D02*
X0042050Y0047172D01*
X0042059Y0048770D02*
X0041541Y0048770D01*
X0039200Y0050369D02*
X0044400Y0050369D01*
X0044400Y0051967D02*
X0039200Y0051967D01*
X0039200Y0053566D02*
X0044400Y0053566D01*
X0044560Y0055164D02*
X0039999Y0055164D01*
X0040381Y0056763D02*
X0045719Y0056763D01*
X0046071Y0058361D02*
X0040029Y0058361D01*
X0038529Y0059960D02*
X0047571Y0059960D01*
X0049300Y0056800D02*
X0046800Y0054300D01*
X0046800Y0045540D01*
X0046800Y0038060D02*
X0046800Y0032800D01*
X0050603Y0026391D02*
X0073815Y0026391D01*
X0073181Y0024793D02*
X0075413Y0024793D01*
X0074700Y0023406D02*
X0073406Y0024700D01*
X0071715Y0025400D01*
X0069885Y0025400D01*
X0068194Y0024700D01*
X0066900Y0023406D01*
X0066200Y0021715D01*
X0066200Y0013885D01*
X0066900Y0012194D01*
X0068194Y0010900D01*
X0069885Y0010200D01*
X0071715Y0010200D01*
X0073406Y0010900D01*
X0074700Y0012194D01*
X0075400Y0013885D01*
X0075400Y0021715D01*
X0074700Y0023406D01*
X0074787Y0023194D02*
X0076633Y0023194D01*
X0076066Y0021596D02*
X0075400Y0021596D01*
X0075400Y0019997D02*
X0076000Y0019997D01*
X0076000Y0018399D02*
X0075400Y0018399D01*
X0076000Y0017600D02*
X0076000Y0014422D01*
X0076118Y0013676D01*
X0076352Y0012957D01*
X0076695Y0012284D01*
X0077139Y0011673D01*
X0077673Y0011139D01*
X0078284Y0010695D01*
X0078957Y0010352D01*
X0079676Y0010118D01*
X0080422Y0010000D01*
X0080600Y0010000D01*
X0080600Y0017600D01*
X0076000Y0017600D01*
X0076000Y0016800D02*
X0075400Y0016800D01*
X0075400Y0015201D02*
X0076000Y0015201D01*
X0076142Y0013603D02*
X0075283Y0013603D01*
X0074510Y0012004D02*
X0076898Y0012004D01*
X0078851Y0010406D02*
X0072212Y0010406D01*
X0069388Y0010406D02*
X0062212Y0010406D01*
X0064510Y0012004D02*
X0067090Y0012004D01*
X0066317Y0013603D02*
X0065283Y0013603D01*
X0065400Y0015201D02*
X0066200Y0015201D01*
X0066200Y0016800D02*
X0065400Y0016800D01*
X0065400Y0018399D02*
X0066200Y0018399D01*
X0066200Y0019997D02*
X0065400Y0019997D01*
X0065400Y0021596D02*
X0066200Y0021596D01*
X0066813Y0023194D02*
X0064787Y0023194D01*
X0063181Y0024793D02*
X0068419Y0024793D01*
X0060816Y0017784D02*
X0060816Y0015816D01*
X0054800Y0009800D01*
X0038800Y0009800D01*
X0031800Y0016800D01*
X0034200Y0017794D02*
X0034200Y0026006D01*
X0034765Y0025441D01*
X0035441Y0024765D01*
X0036323Y0024400D01*
X0037612Y0024400D01*
X0037139Y0023927D01*
X0036695Y0023316D01*
X0036352Y0022643D01*
X0036118Y0021924D01*
X0036000Y0021178D01*
X0036000Y0018000D01*
X0040600Y0018000D01*
X0040600Y0017600D01*
X0036000Y0017600D01*
X0036000Y0015994D01*
X0034200Y0017794D01*
X0034200Y0018399D02*
X0036000Y0018399D01*
X0036000Y0019997D02*
X0034200Y0019997D01*
X0034200Y0021596D02*
X0036066Y0021596D01*
X0036633Y0023194D02*
X0034200Y0023194D01*
X0034200Y0024793D02*
X0035413Y0024793D01*
X0036800Y0031800D02*
X0036800Y0038060D01*
X0036800Y0045540D02*
X0036800Y0056800D01*
X0039952Y0061558D02*
X0051977Y0061558D01*
X0050897Y0063157D02*
X0041551Y0063157D01*
X0043149Y0064755D02*
X0050719Y0064755D01*
X0051289Y0066354D02*
X0044200Y0066354D01*
X0044200Y0067952D02*
X0046400Y0067952D01*
X0046400Y0069551D02*
X0044200Y0069551D01*
X0044200Y0071149D02*
X0046400Y0071149D01*
X0041800Y0066800D02*
X0041800Y0076800D01*
X0039300Y0079300D01*
X0039300Y0082509D01*
X0041800Y0085009D01*
X0041800Y0093454D01*
X0037047Y0098324D02*
X0036700Y0098324D01*
X0031900Y0099923D02*
X0031593Y0099923D01*
X0031900Y0101521D02*
X0030811Y0101521D01*
X0031900Y0103120D02*
X0029173Y0103120D01*
X0031900Y0104718D02*
X0011600Y0104718D01*
X0011600Y0103120D02*
X0014427Y0103120D01*
X0012789Y0101521D02*
X0011600Y0101521D01*
X0011600Y0099923D02*
X0012007Y0099923D01*
X0011600Y0098324D02*
X0021222Y0098324D01*
X0021222Y0096726D02*
X0022378Y0096726D01*
X0022378Y0095127D02*
X0021222Y0095127D01*
X0021222Y0093529D02*
X0022378Y0093529D01*
X0022378Y0099923D02*
X0021222Y0099923D01*
X0021222Y0101521D02*
X0022378Y0101521D01*
X0022378Y0103120D02*
X0021222Y0103120D01*
X0016092Y0109514D02*
X0011600Y0109514D01*
X0011600Y0111112D02*
X0013513Y0111112D01*
X0012436Y0112711D02*
X0011600Y0112711D01*
X0011600Y0114309D02*
X0011932Y0114309D01*
X0011932Y0115908D02*
X0011600Y0115908D01*
X0011600Y0107915D02*
X0031900Y0107915D01*
X0031900Y0106317D02*
X0011600Y0106317D01*
X0011600Y0096726D02*
X0011886Y0096726D01*
X0011600Y0095127D02*
X0012541Y0095127D01*
X0011600Y0093529D02*
X0013916Y0093529D01*
X0028820Y0087134D02*
X0029780Y0087134D01*
X0029780Y0085536D02*
X0028820Y0085536D01*
X0028820Y0083937D02*
X0029780Y0083937D01*
X0029780Y0082339D02*
X0035141Y0082339D01*
X0035141Y0083937D02*
X0033659Y0083937D01*
X0033659Y0085536D02*
X0035141Y0085536D01*
X0035954Y0087134D02*
X0032902Y0087134D01*
X0033659Y0080740D02*
X0035141Y0080740D01*
X0035141Y0079142D02*
X0033659Y0079142D01*
X0056700Y0090294D02*
X0057794Y0089200D01*
X0068506Y0089200D01*
X0067265Y0090441D01*
X0066960Y0091177D01*
X0066941Y0091196D01*
X0066705Y0090960D01*
X0066295Y0090723D01*
X0065837Y0090600D01*
X0064300Y0090600D01*
X0064300Y0096400D01*
X0064300Y0096400D01*
X0064300Y0090600D01*
X0062763Y0090600D01*
X0062305Y0090723D01*
X0061895Y0090960D01*
X0061659Y0091196D01*
X0061263Y0090800D01*
X0057337Y0090800D01*
X0056800Y0091337D01*
X0056700Y0091237D01*
X0056700Y0090294D01*
X0056700Y0090332D02*
X0067374Y0090332D01*
X0069300Y0091800D02*
X0071800Y0089300D01*
X0159300Y0089300D01*
X0163261Y0088733D02*
X0186473Y0088733D01*
X0188071Y0087134D02*
X0164860Y0087134D01*
X0169525Y0085536D02*
X0174075Y0085536D01*
X0172740Y0083937D02*
X0170860Y0083937D01*
X0171368Y0082339D02*
X0172231Y0082339D01*
X0172294Y0080740D02*
X0171306Y0080740D01*
X0170603Y0079142D02*
X0172997Y0079142D01*
X0179525Y0085536D02*
X0184075Y0085536D01*
X0182740Y0083937D02*
X0180860Y0083937D01*
X0181368Y0082339D02*
X0182231Y0082339D01*
X0182294Y0080740D02*
X0181306Y0080740D01*
X0180603Y0079142D02*
X0182997Y0079142D01*
X0189525Y0085536D02*
X0189670Y0085536D01*
X0190860Y0083937D02*
X0191268Y0083937D01*
X0191368Y0082339D02*
X0192867Y0082339D01*
X0191306Y0080740D02*
X0194465Y0080740D01*
X0196064Y0079142D02*
X0190603Y0079142D01*
X0199860Y0087134D02*
X0208071Y0087134D01*
X0208447Y0085536D02*
X0201458Y0085536D01*
X0201800Y0081800D02*
X0221800Y0081800D01*
X0231800Y0091800D01*
X0243060Y0091800D01*
X0243060Y0101800D02*
X0231800Y0101800D01*
X0216800Y0086800D01*
X0211800Y0086800D01*
X0206800Y0091800D01*
X0199300Y0091800D01*
X0184300Y0106800D01*
X0181800Y0106800D01*
X0177792Y0104718D02*
X0175808Y0104718D01*
X0176300Y0106317D02*
X0177300Y0106317D01*
X0177391Y0107915D02*
X0176209Y0107915D01*
X0175450Y0109514D02*
X0178150Y0109514D01*
X0179116Y0103120D02*
X0174484Y0103120D01*
X0175473Y0101521D02*
X0186185Y0101521D01*
X0187783Y0099923D02*
X0177072Y0099923D01*
X0176800Y0096800D02*
X0186800Y0096800D01*
X0201800Y0081800D01*
X0198261Y0088733D02*
X0206473Y0088733D01*
X0210064Y0091930D02*
X0218536Y0091930D01*
X0220134Y0093529D02*
X0208466Y0093529D01*
X0212632Y0090332D02*
X0216937Y0090332D01*
X0221733Y0095127D02*
X0199367Y0095127D01*
X0197769Y0096726D02*
X0223331Y0096726D01*
X0224930Y0098324D02*
X0196170Y0098324D01*
X0194572Y0099923D02*
X0226528Y0099923D01*
X0228127Y0101521D02*
X0192973Y0101521D01*
X0194484Y0103120D02*
X0199116Y0103120D01*
X0197792Y0104718D02*
X0195808Y0104718D01*
X0196300Y0106317D02*
X0197300Y0106317D01*
X0197391Y0107915D02*
X0196209Y0107915D01*
X0195450Y0109514D02*
X0198150Y0109514D01*
X0205450Y0109514D02*
X0208150Y0109514D01*
X0207391Y0107915D02*
X0206209Y0107915D01*
X0206300Y0106317D02*
X0207300Y0106317D01*
X0207792Y0104718D02*
X0205808Y0104718D01*
X0204484Y0103120D02*
X0209116Y0103120D01*
X0214484Y0103120D02*
X0219116Y0103120D01*
X0217792Y0104718D02*
X0215808Y0104718D01*
X0216300Y0106317D02*
X0217300Y0106317D01*
X0217391Y0107915D02*
X0216209Y0107915D01*
X0215450Y0109514D02*
X0218150Y0109514D01*
X0225450Y0109514D02*
X0228150Y0109514D01*
X0227391Y0107915D02*
X0226209Y0107915D01*
X0226300Y0106317D02*
X0227300Y0106317D01*
X0227792Y0104718D02*
X0225808Y0104718D01*
X0224484Y0103120D02*
X0229116Y0103120D01*
X0235808Y0104718D02*
X0238901Y0104718D01*
X0239605Y0106317D02*
X0236300Y0106317D01*
X0236209Y0107915D02*
X0252021Y0107915D01*
X0253620Y0109514D02*
X0235450Y0109514D01*
X0246515Y0106317D02*
X0247085Y0106317D01*
X0260408Y0109514D02*
X0273548Y0109514D01*
X0271594Y0111112D02*
X0262006Y0111112D01*
X0263605Y0112711D02*
X0269995Y0112711D01*
X0268397Y0114309D02*
X0265203Y0114309D01*
X0283080Y0094713D02*
X0283080Y0088080D01*
X0283080Y0044713D02*
X0283080Y0033080D01*
X0276800Y0026800D01*
X0286800Y0043552D02*
X0285639Y0044713D01*
X0323838Y0024793D02*
X0325701Y0024793D01*
X0234800Y0010406D02*
X0231588Y0010406D01*
X0229990Y0012004D02*
X0233201Y0012004D01*
X0231603Y0013603D02*
X0228391Y0013603D01*
X0226793Y0015201D02*
X0230004Y0015201D01*
X0228406Y0016800D02*
X0225194Y0016800D01*
X0223596Y0018399D02*
X0226807Y0018399D01*
X0225209Y0019997D02*
X0221997Y0019997D01*
X0220399Y0021596D02*
X0223610Y0021596D01*
X0222012Y0023194D02*
X0218800Y0023194D01*
X0216800Y0021800D02*
X0201800Y0021800D01*
X0180816Y0017816D02*
X0180800Y0017800D01*
X0177090Y0012004D02*
X0174510Y0012004D01*
X0175283Y0013603D02*
X0176317Y0013603D01*
X0176200Y0015201D02*
X0175400Y0015201D01*
X0175400Y0016800D02*
X0176200Y0016800D01*
X0179388Y0010406D02*
X0172212Y0010406D01*
X0145413Y0024793D02*
X0143181Y0024793D01*
X0143815Y0026391D02*
X0135603Y0026391D01*
X0137202Y0024793D02*
X0138419Y0024793D01*
X0126813Y0023194D02*
X0124787Y0023194D01*
X0125400Y0021596D02*
X0126200Y0021596D01*
X0126200Y0019997D02*
X0125400Y0019997D01*
X0125400Y0018399D02*
X0126200Y0018399D01*
X0126200Y0016800D02*
X0125400Y0016800D01*
X0125400Y0015201D02*
X0126200Y0015201D01*
X0126317Y0013603D02*
X0125283Y0013603D01*
X0124510Y0012004D02*
X0127090Y0012004D01*
X0129388Y0010406D02*
X0122212Y0010406D01*
X0119388Y0010406D02*
X0112212Y0010406D01*
X0114510Y0012004D02*
X0117090Y0012004D01*
X0116317Y0013603D02*
X0115283Y0013603D01*
X0115400Y0015201D02*
X0116200Y0015201D01*
X0116200Y0016800D02*
X0115400Y0016800D01*
X0115400Y0018399D02*
X0116200Y0018399D01*
X0116200Y0019997D02*
X0115400Y0019997D01*
X0115400Y0021596D02*
X0116200Y0021596D01*
X0116813Y0023194D02*
X0114787Y0023194D01*
X0106813Y0023194D02*
X0104787Y0023194D01*
X0105400Y0021596D02*
X0106200Y0021596D01*
X0106200Y0019997D02*
X0105400Y0019997D01*
X0105400Y0018399D02*
X0106200Y0018399D01*
X0106200Y0016800D02*
X0105400Y0016800D01*
X0105400Y0015201D02*
X0106200Y0015201D01*
X0106317Y0013603D02*
X0105283Y0013603D01*
X0104510Y0012004D02*
X0107090Y0012004D01*
X0109388Y0010406D02*
X0102212Y0010406D01*
X0099388Y0010406D02*
X0092212Y0010406D01*
X0094510Y0012004D02*
X0097090Y0012004D01*
X0096317Y0013603D02*
X0095283Y0013603D01*
X0095400Y0015201D02*
X0096200Y0015201D01*
X0096200Y0016800D02*
X0095400Y0016800D01*
X0095400Y0018399D02*
X0096200Y0018399D01*
X0096200Y0019997D02*
X0095400Y0019997D01*
X0095400Y0021596D02*
X0096200Y0021596D01*
X0096813Y0023194D02*
X0094787Y0023194D01*
X0086813Y0023194D02*
X0084967Y0023194D01*
X0085534Y0021596D02*
X0086200Y0021596D01*
X0086200Y0019997D02*
X0085600Y0019997D01*
X0085600Y0018399D02*
X0086200Y0018399D01*
X0085600Y0017600D02*
X0081000Y0017600D01*
X0081000Y0010000D01*
X0081178Y0010000D01*
X0081924Y0010118D01*
X0082643Y0010352D01*
X0083316Y0010695D01*
X0083927Y0011139D01*
X0084461Y0011673D01*
X0084905Y0012284D01*
X0085248Y0012957D01*
X0085482Y0013676D01*
X0085600Y0014422D01*
X0085600Y0017600D01*
X0085600Y0016800D02*
X0086200Y0016800D01*
X0086200Y0015201D02*
X0085600Y0015201D01*
X0085458Y0013603D02*
X0086317Y0013603D01*
X0087090Y0012004D02*
X0084702Y0012004D01*
X0082749Y0010406D02*
X0089388Y0010406D01*
X0081000Y0010406D02*
X0080600Y0010406D01*
X0080600Y0012004D02*
X0081000Y0012004D01*
X0081000Y0013603D02*
X0080600Y0013603D01*
X0080600Y0015201D02*
X0081000Y0015201D01*
X0081000Y0016800D02*
X0080600Y0016800D01*
X0060816Y0017784D02*
X0060800Y0017800D01*
X0056200Y0016800D02*
X0055400Y0016800D01*
X0055400Y0015201D02*
X0056200Y0015201D01*
X0058800Y0010406D02*
X0059388Y0010406D01*
X0057202Y0008807D02*
X0226398Y0008807D01*
X0227997Y0007209D02*
X0028716Y0007209D01*
X0029639Y0008807D02*
X0036398Y0008807D01*
X0034800Y0010406D02*
X0030369Y0010406D01*
X0030798Y0012004D02*
X0033201Y0012004D01*
X0031603Y0013603D02*
X0031000Y0013603D01*
X0035194Y0016800D02*
X0036000Y0016800D01*
X0041000Y0017600D02*
X0041000Y0018000D01*
X0045600Y0018000D01*
X0045600Y0021178D01*
X0045482Y0021924D01*
X0045248Y0022643D01*
X0044905Y0023316D01*
X0044461Y0023927D01*
X0043988Y0024400D01*
X0045806Y0024400D01*
X0046871Y0023335D01*
X0046200Y0021715D01*
X0046200Y0013885D01*
X0046898Y0012200D01*
X0044844Y0012200D01*
X0044905Y0012284D01*
X0045248Y0012957D01*
X0045482Y0013676D01*
X0045600Y0014422D01*
X0045600Y0017600D01*
X0041000Y0017600D01*
X0045600Y0018399D02*
X0046200Y0018399D01*
X0046200Y0019997D02*
X0045600Y0019997D01*
X0045534Y0021596D02*
X0046200Y0021596D01*
X0046813Y0023194D02*
X0044967Y0023194D01*
X0045600Y0016800D02*
X0046200Y0016800D01*
X0046200Y0015201D02*
X0045600Y0015201D01*
X0045458Y0013603D02*
X0046317Y0013603D01*
X0066800Y0036800D02*
X0066800Y0038060D01*
X0071550Y0035982D02*
X0072050Y0035982D01*
X0079914Y0059960D02*
X0086566Y0059960D01*
X0094200Y0079142D02*
X0112997Y0079142D01*
X0112294Y0080740D02*
X0094200Y0080740D01*
X0094174Y0082339D02*
X0112231Y0082339D01*
X0112740Y0083937D02*
X0093057Y0083937D01*
X0091458Y0085536D02*
X0114075Y0085536D01*
X0119525Y0085536D02*
X0124075Y0085536D01*
X0122740Y0083937D02*
X0120860Y0083937D01*
X0121368Y0082339D02*
X0122231Y0082339D01*
X0122294Y0080740D02*
X0121306Y0080740D01*
X0120603Y0079142D02*
X0122997Y0079142D01*
X0129525Y0085536D02*
X0134075Y0085536D01*
X0132740Y0083937D02*
X0130860Y0083937D01*
X0131368Y0082339D02*
X0132231Y0082339D01*
X0132294Y0080740D02*
X0131306Y0080740D01*
X0130603Y0079142D02*
X0132997Y0079142D01*
X0139525Y0085536D02*
X0144075Y0085536D01*
X0142740Y0083937D02*
X0140860Y0083937D01*
X0141368Y0082339D02*
X0142231Y0082339D01*
X0142294Y0080740D02*
X0141306Y0080740D01*
X0140603Y0079142D02*
X0142997Y0079142D01*
X0149525Y0085536D02*
X0154075Y0085536D01*
X0152740Y0083937D02*
X0150860Y0083937D01*
X0151368Y0082339D02*
X0152231Y0082339D01*
X0152294Y0080740D02*
X0151306Y0080740D01*
X0150603Y0079142D02*
X0152997Y0079142D01*
X0154484Y0103120D02*
X0159116Y0103120D01*
X0157792Y0104718D02*
X0155808Y0104718D01*
X0156300Y0106317D02*
X0157300Y0106317D01*
X0157391Y0107915D02*
X0156209Y0107915D01*
X0155450Y0109514D02*
X0158150Y0109514D01*
X0165450Y0109514D02*
X0168150Y0109514D01*
X0167391Y0107915D02*
X0166209Y0107915D01*
X0166300Y0106317D02*
X0167300Y0106317D01*
X0167792Y0104718D02*
X0165808Y0104718D01*
X0164484Y0103120D02*
X0169116Y0103120D01*
X0169400Y0101521D02*
X0125473Y0101521D01*
X0124484Y0103120D02*
X0129116Y0103120D01*
X0127792Y0104718D02*
X0125808Y0104718D01*
X0126300Y0106317D02*
X0127300Y0106317D01*
X0127391Y0107915D02*
X0126209Y0107915D01*
X0125450Y0109514D02*
X0128150Y0109514D01*
X0135450Y0109514D02*
X0138150Y0109514D01*
X0137391Y0107915D02*
X0136209Y0107915D01*
X0136300Y0106317D02*
X0137300Y0106317D01*
X0137792Y0104718D02*
X0135808Y0104718D01*
X0134484Y0103120D02*
X0139116Y0103120D01*
X0144484Y0103120D02*
X0149116Y0103120D01*
X0147792Y0104718D02*
X0145808Y0104718D01*
X0146300Y0106317D02*
X0147300Y0106317D01*
X0147391Y0107915D02*
X0146209Y0107915D01*
X0145450Y0109514D02*
X0148150Y0109514D01*
X0131867Y0095127D02*
X0175079Y0095127D01*
X0173480Y0096726D02*
X0130269Y0096726D01*
X0128670Y0098324D02*
X0171882Y0098324D01*
X0170283Y0099923D02*
X0127072Y0099923D01*
X0123480Y0096726D02*
X0087200Y0096726D01*
X0087200Y0098324D02*
X0121882Y0098324D01*
X0120283Y0099923D02*
X0087200Y0099923D01*
X0087200Y0095127D02*
X0125079Y0095127D01*
X0126677Y0093529D02*
X0087200Y0093529D01*
X0087200Y0091930D02*
X0128276Y0091930D01*
X0091800Y0081800D02*
X0086800Y0086800D01*
X0056800Y0086800D01*
X0064300Y0091930D02*
X0064300Y0091930D01*
X0064300Y0093529D02*
X0064300Y0093529D01*
X0064300Y0095127D02*
X0064300Y0095127D01*
X0064300Y0096726D02*
X0064300Y0096726D01*
X0064300Y0098324D02*
X0064300Y0098324D01*
X0064300Y0099923D02*
X0064300Y0099923D01*
X0064300Y0101521D02*
X0064300Y0101521D01*
X0069300Y0096400D02*
X0069300Y0091800D01*
X0071742Y0101521D02*
X0071858Y0101521D01*
X0051858Y0101521D02*
X0051742Y0101521D01*
X0046858Y0101521D02*
X0046553Y0101521D01*
X0030692Y0109514D02*
X0027508Y0109514D01*
X0014074Y0024793D02*
X0011600Y0024793D01*
X0011600Y0023194D02*
X0011648Y0023194D01*
X0122377Y0147878D02*
X0156800Y0147878D01*
X0156800Y0149476D02*
X0120846Y0149476D01*
X0171800Y0106800D02*
X0171800Y0101800D01*
X0176800Y0096800D01*
X0184484Y0103120D02*
X0184586Y0103120D01*
X0188670Y0098324D02*
X0189382Y0098324D01*
X0190269Y0096726D02*
X0190980Y0096726D01*
X0191867Y0095127D02*
X0192579Y0095127D01*
X0193466Y0093529D02*
X0194177Y0093529D01*
X0195064Y0091930D02*
X0195776Y0091930D01*
X0196663Y0090332D02*
X0197374Y0090332D01*
X0187391Y0107915D02*
X0186579Y0107915D01*
X0185450Y0109514D02*
X0188150Y0109514D01*
X0176800Y0147878D02*
X0211223Y0147878D01*
X0212754Y0149476D02*
X0176800Y0149476D01*
X0174595Y0050369D02*
X0179005Y0050369D01*
X0177745Y0048770D02*
X0175855Y0048770D01*
X0176300Y0047172D02*
X0177300Y0047172D01*
X0177437Y0045573D02*
X0176163Y0045573D01*
X0169005Y0050369D02*
X0164595Y0050369D01*
X0165855Y0048770D02*
X0167745Y0048770D01*
X0167300Y0047172D02*
X0166300Y0047172D01*
X0166421Y0045573D02*
X0167437Y0045573D01*
X0116800Y0279300D02*
X0114300Y0279300D01*
D26*
X0096800Y0126800D03*
X0101800Y0096800D03*
X0076800Y0061800D03*
X0074300Y0054300D03*
X0066800Y0054300D03*
X0064300Y0061800D03*
X0054300Y0064300D03*
X0049300Y0056800D03*
X0036800Y0056800D03*
X0016800Y0036800D03*
X0014300Y0079300D03*
X0046800Y0109300D03*
X0069300Y0111800D03*
X0201800Y0076800D03*
X0211800Y0086800D03*
X0221800Y0081800D03*
X0234300Y0061800D03*
X0259300Y0056800D03*
X0259300Y0074300D03*
X0261800Y0081800D03*
X0271800Y0081800D03*
X0286800Y0074300D03*
X0286800Y0089300D03*
X0296800Y0096800D03*
X0301800Y0104300D03*
X0311800Y0116800D03*
X0306800Y0121800D03*
X0296800Y0121800D03*
X0289300Y0114300D03*
X0314300Y0086800D03*
X0266800Y0031800D03*
X0276800Y0026800D03*
X0286800Y0027961D03*
X0291800Y0016800D03*
X0241800Y0016800D03*
D27*
X0274300Y0090550D03*
X0266800Y0111800D03*
X0276800Y0151800D03*
X0313050Y0110550D03*
X0304300Y0096800D03*
X0321800Y0076800D03*
X0306800Y0251800D03*
X0306800Y0306800D03*
X0059300Y0106800D03*
X0046800Y0032800D03*
X0036800Y0031800D03*
M02*
