G75*
%MOIN*%
%OFA0B0*%
%FSLAX25Y25*%
%IPPOS*%
%LPD*%
%AMOC8*
5,1,8,0,0,1.08239X$1,22.5*
%
%ADD10C,0.06000*%
%ADD11C,0.01600*%
D10*
X0032863Y0039681D02*
X0038863Y0039681D01*
X0038863Y0049681D02*
X0032863Y0049681D01*
X0032863Y0059681D02*
X0038863Y0059681D01*
D11*
X0025663Y0034481D02*
X0069249Y0034481D01*
X0069232Y0034521D01*
X0069232Y0037676D01*
X0070439Y0040590D01*
X0072670Y0042821D01*
X0075585Y0044028D01*
X0078701Y0044028D01*
X0078701Y0075117D01*
X0035075Y0075117D01*
X0035092Y0075077D01*
X0035092Y0071923D01*
X0033885Y0069008D01*
X0031654Y0066777D01*
X0028739Y0065570D01*
X0025663Y0065570D01*
X0025663Y0034481D01*
X0025663Y0035871D02*
X0030168Y0035871D01*
X0030257Y0035781D02*
X0031948Y0035081D01*
X0039778Y0035081D01*
X0041469Y0035781D01*
X0042763Y0037075D01*
X0043463Y0038766D01*
X0043463Y0040596D01*
X0042763Y0042287D01*
X0041469Y0043581D01*
X0039778Y0044281D01*
X0031948Y0044281D01*
X0030257Y0043581D01*
X0028963Y0042287D01*
X0028263Y0040596D01*
X0028263Y0038766D01*
X0028963Y0037075D01*
X0030257Y0035781D01*
X0028800Y0037469D02*
X0025663Y0037469D01*
X0025663Y0039068D02*
X0028263Y0039068D01*
X0028292Y0040666D02*
X0025663Y0040666D01*
X0025663Y0042265D02*
X0028954Y0042265D01*
X0030939Y0043863D02*
X0025663Y0043863D01*
X0025663Y0045462D02*
X0030571Y0045462D01*
X0030347Y0045576D02*
X0031020Y0045233D01*
X0031739Y0044999D01*
X0032485Y0044881D01*
X0035663Y0044881D01*
X0035663Y0049481D01*
X0036063Y0049481D01*
X0036063Y0049881D01*
X0043663Y0049881D01*
X0043663Y0050059D01*
X0043545Y0050805D01*
X0043311Y0051524D01*
X0042968Y0052197D01*
X0042524Y0052808D01*
X0041990Y0053342D01*
X0041379Y0053786D01*
X0040705Y0054129D01*
X0039987Y0054363D01*
X0039241Y0054481D01*
X0036063Y0054481D01*
X0036063Y0049881D01*
X0035663Y0049881D01*
X0035663Y0054481D01*
X0032485Y0054481D01*
X0031739Y0054363D01*
X0031020Y0054129D01*
X0030347Y0053786D01*
X0029736Y0053342D01*
X0029202Y0052808D01*
X0028758Y0052197D01*
X0028415Y0051524D01*
X0028181Y0050805D01*
X0028063Y0050059D01*
X0028063Y0049881D01*
X0035663Y0049881D01*
X0035663Y0049481D01*
X0028063Y0049481D01*
X0028063Y0049303D01*
X0028181Y0048557D01*
X0028415Y0047839D01*
X0028758Y0047165D01*
X0029202Y0046554D01*
X0029736Y0046020D01*
X0030347Y0045576D01*
X0028834Y0047060D02*
X0025663Y0047060D01*
X0025663Y0048659D02*
X0028165Y0048659D01*
X0028094Y0050257D02*
X0025663Y0050257D01*
X0025663Y0051856D02*
X0028584Y0051856D01*
X0029890Y0053454D02*
X0025663Y0053454D01*
X0025663Y0055053D02*
X0078701Y0055053D01*
X0078701Y0056651D02*
X0042338Y0056651D01*
X0042763Y0057075D02*
X0043463Y0058766D01*
X0043463Y0060596D01*
X0042763Y0062287D01*
X0041469Y0063581D01*
X0039778Y0064281D01*
X0031948Y0064281D01*
X0030257Y0063581D01*
X0028963Y0062287D01*
X0028263Y0060596D01*
X0028263Y0058766D01*
X0028963Y0057075D01*
X0030257Y0055781D01*
X0031948Y0055081D01*
X0039778Y0055081D01*
X0041469Y0055781D01*
X0042763Y0057075D01*
X0043249Y0058250D02*
X0078701Y0058250D01*
X0078701Y0059848D02*
X0043463Y0059848D01*
X0043110Y0061447D02*
X0078701Y0061447D01*
X0078701Y0063045D02*
X0042004Y0063045D01*
X0034063Y0069439D02*
X0078701Y0069439D01*
X0078701Y0067841D02*
X0032718Y0067841D01*
X0030363Y0066242D02*
X0078701Y0066242D01*
X0078701Y0064644D02*
X0025663Y0064644D01*
X0025663Y0063045D02*
X0029722Y0063045D01*
X0028615Y0061447D02*
X0025663Y0061447D01*
X0025663Y0059848D02*
X0028263Y0059848D01*
X0028477Y0058250D02*
X0025663Y0058250D01*
X0025663Y0056651D02*
X0029387Y0056651D01*
X0035663Y0053454D02*
X0036063Y0053454D01*
X0036063Y0051856D02*
X0035663Y0051856D01*
X0035663Y0050257D02*
X0036063Y0050257D01*
X0036063Y0049481D02*
X0043663Y0049481D01*
X0043663Y0049303D01*
X0043545Y0048557D01*
X0043311Y0047839D01*
X0042968Y0047165D01*
X0042524Y0046554D01*
X0041990Y0046020D01*
X0041379Y0045576D01*
X0040705Y0045233D01*
X0039987Y0044999D01*
X0039241Y0044881D01*
X0036063Y0044881D01*
X0036063Y0049481D01*
X0036063Y0048659D02*
X0035663Y0048659D01*
X0035663Y0047060D02*
X0036063Y0047060D01*
X0036063Y0045462D02*
X0035663Y0045462D01*
X0040787Y0043863D02*
X0075186Y0043863D01*
X0072114Y0042265D02*
X0042772Y0042265D01*
X0043434Y0040666D02*
X0070515Y0040666D01*
X0069809Y0039068D02*
X0043463Y0039068D01*
X0042926Y0037469D02*
X0069232Y0037469D01*
X0069232Y0035871D02*
X0041558Y0035871D01*
X0041155Y0045462D02*
X0078701Y0045462D01*
X0078701Y0047060D02*
X0042892Y0047060D01*
X0043561Y0048659D02*
X0078701Y0048659D01*
X0078701Y0050257D02*
X0043631Y0050257D01*
X0043142Y0051856D02*
X0078701Y0051856D01*
X0078701Y0053454D02*
X0041836Y0053454D01*
X0034726Y0071038D02*
X0078701Y0071038D01*
X0078701Y0072636D02*
X0035092Y0072636D01*
X0035092Y0074235D02*
X0078701Y0074235D01*
M02*
