G04 EAGLE Gerber RS-274X export*
G75*
%MOMM*%
%FSLAX34Y34*%
%LPD*%
%INBottom Copper*%
%IPPOS*%
%AMOC8*
5,1,8,0,0,1.08239X$1,22.5*%
G01*
%ADD10R,2.286000X2.286000*%
%ADD11C,1.447800*%
%ADD12R,1.200000X0.550000*%
%ADD13R,1.500000X1.300000*%
%ADD14C,1.524000*%
%ADD15R,1.300000X1.500000*%
%ADD16R,1.016000X1.778000*%
%ADD17P,1.649562X8X22.500000*%
%ADD18C,1.650000*%
%ADD19C,2.400000*%
%ADD20P,0.708749X8X22.500000*%
%ADD21C,0.654800*%
%ADD22C,0.604800*%
%ADD23C,0.564800*%
%ADD24C,0.152400*%
%ADD25C,0.203200*%
%ADD26C,0.508000*%
%ADD27C,0.406400*%
%ADD28P,0.611334X8X22.500000*%
%ADD29C,0.254000*%

G36*
X-495057Y-369022D02*
X-495057Y-369022D01*
X-495040Y-369012D01*
X-495020Y-369008D01*
X-494931Y-368955D01*
X-494840Y-368906D01*
X-494826Y-368892D01*
X-494809Y-368882D01*
X-494742Y-368803D01*
X-494671Y-368728D01*
X-494662Y-368710D01*
X-494649Y-368695D01*
X-494610Y-368599D01*
X-494567Y-368505D01*
X-494565Y-368485D01*
X-494557Y-368467D01*
X-494539Y-368300D01*
X-494539Y-254761D01*
X-457200Y-254761D01*
X-457180Y-254758D01*
X-457161Y-254760D01*
X-457059Y-254738D01*
X-456957Y-254722D01*
X-456940Y-254712D01*
X-456920Y-254708D01*
X-456831Y-254655D01*
X-456740Y-254606D01*
X-456726Y-254592D01*
X-456709Y-254582D01*
X-456642Y-254503D01*
X-456571Y-254428D01*
X-456562Y-254410D01*
X-456549Y-254395D01*
X-456510Y-254299D01*
X-456467Y-254205D01*
X-456465Y-254185D01*
X-456457Y-254167D01*
X-456439Y-254000D01*
X-456439Y-218948D01*
X-456442Y-218928D01*
X-456440Y-218909D01*
X-456462Y-218807D01*
X-456479Y-218705D01*
X-456488Y-218688D01*
X-456492Y-218668D01*
X-456545Y-218579D01*
X-456594Y-218488D01*
X-456608Y-218474D01*
X-456618Y-218457D01*
X-456697Y-218390D01*
X-456772Y-218318D01*
X-456790Y-218310D01*
X-456805Y-218297D01*
X-456901Y-218258D01*
X-456995Y-218215D01*
X-457015Y-218213D01*
X-457033Y-218205D01*
X-457200Y-218187D01*
X-610547Y-218187D01*
X-611887Y-216847D01*
X-611887Y947D01*
X-610547Y2287D01*
X-457200Y2287D01*
X-457180Y2290D01*
X-457161Y2288D01*
X-457059Y2310D01*
X-456957Y2326D01*
X-456940Y2336D01*
X-456920Y2340D01*
X-456831Y2393D01*
X-456740Y2442D01*
X-456726Y2456D01*
X-456709Y2466D01*
X-456642Y2545D01*
X-456571Y2620D01*
X-456562Y2638D01*
X-456549Y2653D01*
X-456510Y2749D01*
X-456467Y2843D01*
X-456465Y2863D01*
X-456457Y2881D01*
X-456439Y3048D01*
X-456439Y8636D01*
X-456442Y8656D01*
X-456440Y8675D01*
X-456462Y8777D01*
X-456479Y8879D01*
X-456488Y8896D01*
X-456492Y8916D01*
X-456545Y9005D01*
X-456594Y9096D01*
X-456608Y9110D01*
X-456618Y9127D01*
X-456697Y9194D01*
X-456772Y9266D01*
X-456790Y9274D01*
X-456805Y9287D01*
X-456901Y9326D01*
X-456995Y9369D01*
X-457015Y9371D01*
X-457033Y9379D01*
X-457200Y9397D01*
X-749300Y9397D01*
X-749326Y9393D01*
X-749375Y9394D01*
X-751059Y9228D01*
X-751087Y9220D01*
X-751115Y9220D01*
X-751276Y9173D01*
X-754389Y7884D01*
X-754445Y7849D01*
X-754505Y7824D01*
X-754570Y7772D01*
X-754598Y7754D01*
X-754611Y7739D01*
X-754636Y7719D01*
X-757019Y5336D01*
X-757057Y5283D01*
X-757103Y5236D01*
X-757143Y5163D01*
X-757162Y5136D01*
X-757168Y5118D01*
X-757184Y5089D01*
X-758473Y1976D01*
X-758480Y1949D01*
X-758493Y1924D01*
X-758528Y1759D01*
X-758694Y75D01*
X-758692Y48D01*
X-758697Y0D01*
X-758697Y-482600D01*
X-758693Y-482626D01*
X-758694Y-482675D01*
X-758528Y-484359D01*
X-758520Y-484387D01*
X-758520Y-484415D01*
X-758473Y-484576D01*
X-757184Y-487689D01*
X-757149Y-487745D01*
X-757124Y-487805D01*
X-757072Y-487870D01*
X-757054Y-487898D01*
X-757039Y-487911D01*
X-757019Y-487936D01*
X-754636Y-490319D01*
X-754583Y-490357D01*
X-754536Y-490403D01*
X-754463Y-490443D01*
X-754436Y-490462D01*
X-754418Y-490468D01*
X-754389Y-490484D01*
X-751276Y-491773D01*
X-751249Y-491780D01*
X-751224Y-491793D01*
X-751059Y-491828D01*
X-749375Y-491994D01*
X-749348Y-491992D01*
X-749300Y-491997D01*
X533400Y-491997D01*
X533426Y-491993D01*
X533475Y-491994D01*
X535159Y-491828D01*
X535187Y-491820D01*
X535215Y-491820D01*
X535376Y-491773D01*
X538489Y-490484D01*
X538545Y-490449D01*
X538605Y-490424D01*
X538670Y-490372D01*
X538698Y-490354D01*
X538711Y-490339D01*
X538736Y-490319D01*
X541119Y-487936D01*
X541157Y-487883D01*
X541203Y-487836D01*
X541243Y-487763D01*
X541262Y-487736D01*
X541268Y-487718D01*
X541284Y-487689D01*
X542573Y-484576D01*
X542580Y-484549D01*
X542593Y-484524D01*
X542628Y-484359D01*
X542794Y-482675D01*
X542792Y-482648D01*
X542797Y-482600D01*
X542797Y0D01*
X542793Y26D01*
X542794Y75D01*
X542628Y1759D01*
X542620Y1787D01*
X542620Y1815D01*
X542573Y1976D01*
X541284Y5089D01*
X541249Y5145D01*
X541224Y5205D01*
X541172Y5270D01*
X541154Y5298D01*
X541139Y5311D01*
X541119Y5336D01*
X538736Y7719D01*
X538683Y7757D01*
X538636Y7803D01*
X538563Y7843D01*
X538536Y7862D01*
X538518Y7868D01*
X538489Y7884D01*
X535376Y9173D01*
X535349Y9180D01*
X535324Y9193D01*
X535159Y9228D01*
X533475Y9394D01*
X533448Y9392D01*
X533400Y9397D01*
X-450850Y9397D01*
X-450870Y9394D01*
X-450889Y9396D01*
X-450991Y9374D01*
X-451093Y9358D01*
X-451110Y9348D01*
X-451130Y9344D01*
X-451219Y9291D01*
X-451310Y9242D01*
X-451324Y9228D01*
X-451341Y9218D01*
X-451408Y9139D01*
X-451480Y9064D01*
X-451488Y9046D01*
X-451501Y9031D01*
X-451540Y8935D01*
X-451583Y8841D01*
X-451585Y8821D01*
X-451593Y8803D01*
X-451611Y8636D01*
X-451611Y-18292D01*
X-451601Y-18357D01*
X-451600Y-18422D01*
X-451577Y-18502D01*
X-451572Y-18535D01*
X-451562Y-18552D01*
X-451553Y-18583D01*
X-450341Y-21510D01*
X-450341Y-29290D01*
X-451553Y-32217D01*
X-451568Y-32280D01*
X-451593Y-32341D01*
X-451602Y-32424D01*
X-451609Y-32456D01*
X-451608Y-32475D01*
X-451611Y-32508D01*
X-451611Y-259589D01*
X-488950Y-259589D01*
X-488970Y-259592D01*
X-488989Y-259590D01*
X-489091Y-259612D01*
X-489193Y-259629D01*
X-489210Y-259638D01*
X-489230Y-259642D01*
X-489319Y-259695D01*
X-489410Y-259744D01*
X-489424Y-259758D01*
X-489441Y-259768D01*
X-489508Y-259847D01*
X-489580Y-259922D01*
X-489588Y-259940D01*
X-489601Y-259955D01*
X-489640Y-260051D01*
X-489683Y-260145D01*
X-489685Y-260165D01*
X-489693Y-260183D01*
X-489711Y-260350D01*
X-489711Y-373889D01*
X-514350Y-373889D01*
X-514370Y-373892D01*
X-514389Y-373890D01*
X-514491Y-373912D01*
X-514593Y-373929D01*
X-514610Y-373938D01*
X-514630Y-373942D01*
X-514719Y-373995D01*
X-514810Y-374044D01*
X-514824Y-374058D01*
X-514841Y-374068D01*
X-514908Y-374147D01*
X-514980Y-374222D01*
X-514988Y-374240D01*
X-515001Y-374255D01*
X-515040Y-374351D01*
X-515083Y-374445D01*
X-515085Y-374465D01*
X-515093Y-374483D01*
X-515111Y-374650D01*
X-515111Y-437389D01*
X-667259Y-437389D01*
X-667259Y-432561D01*
X-520700Y-432561D01*
X-520680Y-432558D01*
X-520661Y-432560D01*
X-520559Y-432538D01*
X-520457Y-432522D01*
X-520440Y-432512D01*
X-520420Y-432508D01*
X-520331Y-432455D01*
X-520240Y-432406D01*
X-520226Y-432392D01*
X-520209Y-432382D01*
X-520142Y-432303D01*
X-520071Y-432228D01*
X-520062Y-432210D01*
X-520049Y-432195D01*
X-520010Y-432099D01*
X-519967Y-432005D01*
X-519965Y-431985D01*
X-519957Y-431967D01*
X-519939Y-431800D01*
X-519939Y-369061D01*
X-495300Y-369061D01*
X-495280Y-369058D01*
X-495261Y-369060D01*
X-495159Y-369038D01*
X-495057Y-369022D01*
G37*
%LPC*%
G36*
X-751587Y-294317D02*
X-751587Y-294317D01*
X-751587Y947D01*
X-750247Y2287D01*
X-621353Y2287D01*
X-620013Y947D01*
X-620013Y-172397D01*
X-621353Y-173737D01*
X-670052Y-173737D01*
X-670072Y-173740D01*
X-670091Y-173738D01*
X-670193Y-173760D01*
X-670295Y-173776D01*
X-670312Y-173786D01*
X-670332Y-173790D01*
X-670421Y-173843D01*
X-670512Y-173892D01*
X-670526Y-173906D01*
X-670543Y-173916D01*
X-670610Y-173995D01*
X-670682Y-174070D01*
X-670690Y-174088D01*
X-670703Y-174103D01*
X-670742Y-174199D01*
X-670785Y-174293D01*
X-670787Y-174313D01*
X-670795Y-174331D01*
X-670813Y-174498D01*
X-670813Y-294317D01*
X-672153Y-295657D01*
X-750247Y-295657D01*
X-751587Y-294317D01*
G37*
%LPD*%
G36*
X-457180Y-216658D02*
X-457180Y-216658D01*
X-457161Y-216660D01*
X-457059Y-216638D01*
X-456957Y-216622D01*
X-456940Y-216612D01*
X-456920Y-216608D01*
X-456831Y-216555D01*
X-456740Y-216506D01*
X-456726Y-216492D01*
X-456709Y-216482D01*
X-456642Y-216403D01*
X-456571Y-216328D01*
X-456562Y-216310D01*
X-456549Y-216295D01*
X-456510Y-216199D01*
X-456467Y-216105D01*
X-456465Y-216085D01*
X-456457Y-216067D01*
X-456439Y-215900D01*
X-456439Y-41437D01*
X-456450Y-41366D01*
X-456452Y-41294D01*
X-456470Y-41245D01*
X-456479Y-41194D01*
X-456512Y-41131D01*
X-456537Y-41063D01*
X-456569Y-41023D01*
X-456594Y-40977D01*
X-456646Y-40927D01*
X-456690Y-40871D01*
X-456734Y-40843D01*
X-456772Y-40807D01*
X-456837Y-40777D01*
X-456897Y-40738D01*
X-456948Y-40726D01*
X-456995Y-40704D01*
X-457066Y-40696D01*
X-457136Y-40678D01*
X-457188Y-40682D01*
X-457239Y-40677D01*
X-457310Y-40692D01*
X-457381Y-40697D01*
X-457429Y-40718D01*
X-457480Y-40729D01*
X-457541Y-40766D01*
X-457607Y-40794D01*
X-457663Y-40839D01*
X-457691Y-40855D01*
X-457706Y-40873D01*
X-457738Y-40899D01*
X-458821Y-41981D01*
X-466010Y-44959D01*
X-473790Y-44959D01*
X-480979Y-41981D01*
X-486481Y-36479D01*
X-489459Y-29290D01*
X-489459Y-21510D01*
X-486481Y-14321D01*
X-480979Y-8819D01*
X-473790Y-5841D01*
X-466010Y-5841D01*
X-458821Y-8819D01*
X-457738Y-9901D01*
X-457680Y-9943D01*
X-457628Y-9993D01*
X-457581Y-10015D01*
X-457539Y-10045D01*
X-457470Y-10066D01*
X-457405Y-10096D01*
X-457353Y-10102D01*
X-457303Y-10117D01*
X-457232Y-10116D01*
X-457161Y-10123D01*
X-457110Y-10112D01*
X-457058Y-10111D01*
X-456990Y-10086D01*
X-456920Y-10071D01*
X-456876Y-10044D01*
X-456827Y-10027D01*
X-456771Y-9982D01*
X-456709Y-9945D01*
X-456675Y-9905D01*
X-456635Y-9873D01*
X-456596Y-9813D01*
X-456549Y-9758D01*
X-456530Y-9710D01*
X-456502Y-9666D01*
X-456484Y-9596D01*
X-456457Y-9530D01*
X-456449Y-9459D01*
X-456441Y-9427D01*
X-456443Y-9404D01*
X-456439Y-9363D01*
X-456439Y0D01*
X-456442Y20D01*
X-456440Y39D01*
X-456462Y141D01*
X-456479Y243D01*
X-456488Y260D01*
X-456492Y280D01*
X-456545Y369D01*
X-456594Y460D01*
X-456608Y474D01*
X-456618Y491D01*
X-456697Y558D01*
X-456772Y630D01*
X-456790Y638D01*
X-456805Y651D01*
X-456901Y690D01*
X-456995Y733D01*
X-457015Y735D01*
X-457033Y743D01*
X-457200Y761D01*
X-609600Y761D01*
X-609620Y758D01*
X-609639Y760D01*
X-609741Y738D01*
X-609843Y722D01*
X-609860Y712D01*
X-609880Y708D01*
X-609969Y655D01*
X-610060Y606D01*
X-610074Y592D01*
X-610091Y582D01*
X-610158Y503D01*
X-610230Y428D01*
X-610238Y410D01*
X-610251Y395D01*
X-610290Y299D01*
X-610333Y205D01*
X-610335Y185D01*
X-610343Y167D01*
X-610361Y0D01*
X-610361Y-215900D01*
X-610358Y-215920D01*
X-610360Y-215939D01*
X-610338Y-216041D01*
X-610322Y-216143D01*
X-610312Y-216160D01*
X-610308Y-216180D01*
X-610255Y-216269D01*
X-610206Y-216360D01*
X-610192Y-216374D01*
X-610182Y-216391D01*
X-610103Y-216458D01*
X-610028Y-216530D01*
X-610010Y-216538D01*
X-609995Y-216551D01*
X-609899Y-216590D01*
X-609805Y-216633D01*
X-609785Y-216635D01*
X-609767Y-216643D01*
X-609600Y-216661D01*
X-457200Y-216661D01*
X-457180Y-216658D01*
G37*
G36*
X-729440Y-294128D02*
X-729440Y-294128D01*
X-729421Y-294130D01*
X-729319Y-294108D01*
X-729217Y-294092D01*
X-729200Y-294082D01*
X-729180Y-294078D01*
X-729091Y-294025D01*
X-729000Y-293976D01*
X-728986Y-293962D01*
X-728969Y-293952D01*
X-728902Y-293873D01*
X-728830Y-293798D01*
X-728822Y-293780D01*
X-728809Y-293765D01*
X-728770Y-293669D01*
X-728727Y-293575D01*
X-728725Y-293555D01*
X-728717Y-293537D01*
X-728699Y-293370D01*
X-728699Y-290112D01*
X-725888Y-287301D01*
X-721912Y-287301D01*
X-720628Y-288585D01*
X-720612Y-288597D01*
X-720600Y-288612D01*
X-720535Y-288654D01*
X-720491Y-288692D01*
X-720466Y-288702D01*
X-720429Y-288729D01*
X-720410Y-288735D01*
X-720393Y-288745D01*
X-720301Y-288769D01*
X-720262Y-288784D01*
X-720242Y-288786D01*
X-720193Y-288801D01*
X-720174Y-288801D01*
X-720154Y-288806D01*
X-720104Y-288802D01*
X-720096Y-288803D01*
X-720084Y-288803D01*
X-720056Y-288798D01*
X-720051Y-288798D01*
X-719948Y-288795D01*
X-719929Y-288788D01*
X-719909Y-288786D01*
X-719861Y-288766D01*
X-719841Y-288763D01*
X-719801Y-288741D01*
X-719717Y-288710D01*
X-719701Y-288698D01*
X-719683Y-288690D01*
X-719641Y-288656D01*
X-719624Y-288648D01*
X-719607Y-288629D01*
X-719552Y-288585D01*
X-718268Y-287301D01*
X-714292Y-287301D01*
X-711481Y-290112D01*
X-711481Y-293370D01*
X-711478Y-293390D01*
X-711480Y-293409D01*
X-711458Y-293511D01*
X-711442Y-293613D01*
X-711432Y-293630D01*
X-711428Y-293650D01*
X-711375Y-293739D01*
X-711326Y-293830D01*
X-711312Y-293844D01*
X-711302Y-293861D01*
X-711223Y-293928D01*
X-711148Y-294000D01*
X-711130Y-294008D01*
X-711115Y-294021D01*
X-711019Y-294060D01*
X-710925Y-294103D01*
X-710905Y-294105D01*
X-710887Y-294113D01*
X-710720Y-294131D01*
X-673100Y-294131D01*
X-673080Y-294128D01*
X-673061Y-294130D01*
X-672959Y-294108D01*
X-672857Y-294092D01*
X-672840Y-294082D01*
X-672820Y-294078D01*
X-672731Y-294025D01*
X-672640Y-293976D01*
X-672626Y-293962D01*
X-672609Y-293952D01*
X-672542Y-293873D01*
X-672471Y-293798D01*
X-672462Y-293780D01*
X-672449Y-293765D01*
X-672410Y-293669D01*
X-672367Y-293575D01*
X-672365Y-293555D01*
X-672357Y-293537D01*
X-672339Y-293370D01*
X-672339Y-172211D01*
X-622300Y-172211D01*
X-622280Y-172208D01*
X-622261Y-172210D01*
X-622159Y-172188D01*
X-622057Y-172172D01*
X-622040Y-172162D01*
X-622020Y-172158D01*
X-621931Y-172105D01*
X-621840Y-172056D01*
X-621826Y-172042D01*
X-621809Y-172032D01*
X-621742Y-171953D01*
X-621671Y-171878D01*
X-621662Y-171860D01*
X-621649Y-171845D01*
X-621610Y-171749D01*
X-621567Y-171655D01*
X-621565Y-171635D01*
X-621557Y-171617D01*
X-621539Y-171450D01*
X-621539Y0D01*
X-621542Y20D01*
X-621540Y39D01*
X-621562Y141D01*
X-621579Y243D01*
X-621588Y260D01*
X-621592Y280D01*
X-621645Y369D01*
X-621694Y460D01*
X-621708Y474D01*
X-621718Y491D01*
X-621797Y558D01*
X-621872Y630D01*
X-621890Y638D01*
X-621905Y651D01*
X-622001Y690D01*
X-622095Y733D01*
X-622115Y735D01*
X-622133Y743D01*
X-622300Y761D01*
X-749300Y761D01*
X-749320Y758D01*
X-749339Y760D01*
X-749441Y738D01*
X-749543Y722D01*
X-749560Y712D01*
X-749580Y708D01*
X-749669Y655D01*
X-749760Y606D01*
X-749774Y592D01*
X-749791Y582D01*
X-749858Y503D01*
X-749930Y428D01*
X-749938Y410D01*
X-749951Y395D01*
X-749990Y299D01*
X-750033Y205D01*
X-750035Y185D01*
X-750043Y167D01*
X-750061Y0D01*
X-750061Y-289317D01*
X-750050Y-289388D01*
X-750048Y-289459D01*
X-750030Y-289508D01*
X-750022Y-289560D01*
X-749988Y-289623D01*
X-749963Y-289690D01*
X-749931Y-289731D01*
X-749906Y-289777D01*
X-749855Y-289826D01*
X-749810Y-289882D01*
X-749766Y-289911D01*
X-749728Y-289947D01*
X-749663Y-289977D01*
X-749603Y-290015D01*
X-749552Y-290028D01*
X-749505Y-290050D01*
X-749434Y-290058D01*
X-749364Y-290076D01*
X-749312Y-290071D01*
X-749261Y-290077D01*
X-749190Y-290062D01*
X-749119Y-290056D01*
X-749071Y-290036D01*
X-749020Y-290025D01*
X-748959Y-289988D01*
X-748893Y-289960D01*
X-748837Y-289915D01*
X-748809Y-289899D01*
X-748794Y-289881D01*
X-748762Y-289855D01*
X-746208Y-287301D01*
X-742232Y-287301D01*
X-740948Y-288585D01*
X-740932Y-288597D01*
X-740920Y-288612D01*
X-740855Y-288654D01*
X-740811Y-288692D01*
X-740786Y-288702D01*
X-740749Y-288729D01*
X-740730Y-288735D01*
X-740713Y-288745D01*
X-740621Y-288769D01*
X-740582Y-288784D01*
X-740562Y-288786D01*
X-740513Y-288801D01*
X-740494Y-288801D01*
X-740474Y-288806D01*
X-740424Y-288802D01*
X-740416Y-288803D01*
X-740404Y-288803D01*
X-740376Y-288798D01*
X-740371Y-288798D01*
X-740268Y-288795D01*
X-740249Y-288788D01*
X-740229Y-288786D01*
X-740181Y-288766D01*
X-740161Y-288763D01*
X-740121Y-288741D01*
X-740037Y-288710D01*
X-740021Y-288698D01*
X-740003Y-288690D01*
X-739961Y-288656D01*
X-739944Y-288648D01*
X-739927Y-288629D01*
X-739872Y-288585D01*
X-738588Y-287301D01*
X-734612Y-287301D01*
X-731801Y-290112D01*
X-731801Y-293370D01*
X-731798Y-293390D01*
X-731800Y-293409D01*
X-731778Y-293511D01*
X-731762Y-293613D01*
X-731752Y-293630D01*
X-731748Y-293650D01*
X-731695Y-293739D01*
X-731646Y-293830D01*
X-731632Y-293844D01*
X-731622Y-293861D01*
X-731543Y-293928D01*
X-731468Y-294000D01*
X-731450Y-294008D01*
X-731435Y-294021D01*
X-731339Y-294060D01*
X-731245Y-294103D01*
X-731225Y-294105D01*
X-731207Y-294113D01*
X-731040Y-294131D01*
X-729460Y-294131D01*
X-729440Y-294128D01*
G37*
%LPC*%
G36*
X-144803Y-482220D02*
X-144803Y-482220D01*
X-154359Y-472664D01*
X-154433Y-472611D01*
X-154502Y-472551D01*
X-154533Y-472539D01*
X-154559Y-472520D01*
X-154646Y-472493D01*
X-154731Y-472459D01*
X-154772Y-472455D01*
X-154794Y-472448D01*
X-154826Y-472449D01*
X-154897Y-472441D01*
X-156158Y-472441D01*
X-156273Y-472460D01*
X-156389Y-472477D01*
X-156395Y-472479D01*
X-156401Y-472480D01*
X-156503Y-472535D01*
X-156608Y-472588D01*
X-156613Y-472593D01*
X-156618Y-472596D01*
X-156698Y-472680D01*
X-156780Y-472764D01*
X-156784Y-472770D01*
X-156787Y-472774D01*
X-156795Y-472791D01*
X-156861Y-472911D01*
X-157670Y-474864D01*
X-160136Y-477330D01*
X-163357Y-478664D01*
X-166843Y-478664D01*
X-170064Y-477330D01*
X-172530Y-474864D01*
X-173864Y-471643D01*
X-173864Y-468157D01*
X-172530Y-464936D01*
X-170064Y-462470D01*
X-167010Y-461205D01*
X-166927Y-461154D01*
X-166841Y-461108D01*
X-166823Y-461090D01*
X-166801Y-461076D01*
X-166738Y-461000D01*
X-166672Y-460930D01*
X-166661Y-460906D01*
X-166644Y-460886D01*
X-166609Y-460795D01*
X-166568Y-460707D01*
X-166565Y-460681D01*
X-166556Y-460657D01*
X-166552Y-460559D01*
X-166541Y-460463D01*
X-166546Y-460437D01*
X-166545Y-460411D01*
X-166572Y-460317D01*
X-166593Y-460222D01*
X-166607Y-460200D01*
X-166614Y-460175D01*
X-166669Y-460095D01*
X-166719Y-460011D01*
X-166739Y-459994D01*
X-166754Y-459973D01*
X-166832Y-459914D01*
X-166906Y-459851D01*
X-166931Y-459841D01*
X-166951Y-459826D01*
X-167044Y-459796D01*
X-167134Y-459759D01*
X-167167Y-459756D01*
X-167185Y-459750D01*
X-167218Y-459750D01*
X-167301Y-459741D01*
X-176432Y-459741D01*
X-176522Y-459755D01*
X-176613Y-459763D01*
X-176643Y-459775D01*
X-176675Y-459780D01*
X-176756Y-459823D01*
X-176840Y-459859D01*
X-176872Y-459885D01*
X-176892Y-459896D01*
X-176915Y-459919D01*
X-176971Y-459964D01*
X-182380Y-465374D01*
X-182448Y-465468D01*
X-182518Y-465562D01*
X-182520Y-465568D01*
X-182524Y-465573D01*
X-182558Y-465684D01*
X-182595Y-465796D01*
X-182595Y-465802D01*
X-182596Y-465808D01*
X-182593Y-465925D01*
X-182592Y-466042D01*
X-182590Y-466049D01*
X-182590Y-466054D01*
X-182584Y-466072D01*
X-182545Y-466203D01*
X-181736Y-468157D01*
X-181736Y-471643D01*
X-183070Y-474864D01*
X-185536Y-477330D01*
X-188757Y-478664D01*
X-192243Y-478664D01*
X-195464Y-477330D01*
X-197930Y-474864D01*
X-199264Y-471643D01*
X-199264Y-468157D01*
X-197930Y-464936D01*
X-195464Y-462470D01*
X-192243Y-461136D01*
X-188757Y-461136D01*
X-186803Y-461945D01*
X-186690Y-461972D01*
X-186576Y-462001D01*
X-186570Y-462000D01*
X-186564Y-462002D01*
X-186447Y-461991D01*
X-186331Y-461982D01*
X-186325Y-461979D01*
X-186319Y-461979D01*
X-186211Y-461931D01*
X-186105Y-461885D01*
X-186099Y-461881D01*
X-186094Y-461879D01*
X-186080Y-461866D01*
X-185974Y-461780D01*
X-180564Y-456371D01*
X-178852Y-454659D01*
X-116501Y-454659D01*
X-116405Y-454644D01*
X-116308Y-454634D01*
X-116284Y-454624D01*
X-116258Y-454620D01*
X-116172Y-454574D01*
X-116083Y-454534D01*
X-116064Y-454517D01*
X-116041Y-454504D01*
X-115974Y-454434D01*
X-115902Y-454368D01*
X-115890Y-454345D01*
X-115872Y-454326D01*
X-115831Y-454238D01*
X-115784Y-454152D01*
X-115779Y-454127D01*
X-115768Y-454103D01*
X-115757Y-454006D01*
X-115740Y-453910D01*
X-115744Y-453884D01*
X-115741Y-453859D01*
X-115762Y-453763D01*
X-115776Y-453667D01*
X-115788Y-453644D01*
X-115793Y-453618D01*
X-115843Y-453535D01*
X-115887Y-453448D01*
X-115906Y-453429D01*
X-115919Y-453407D01*
X-115993Y-453344D01*
X-116063Y-453276D01*
X-116091Y-453260D01*
X-116106Y-453247D01*
X-116137Y-453235D01*
X-116210Y-453195D01*
X-119264Y-451930D01*
X-121730Y-449464D01*
X-123064Y-446243D01*
X-123064Y-442757D01*
X-121730Y-439536D01*
X-119264Y-437070D01*
X-116210Y-435805D01*
X-116127Y-435754D01*
X-116041Y-435708D01*
X-116023Y-435690D01*
X-116001Y-435676D01*
X-115938Y-435600D01*
X-115872Y-435530D01*
X-115861Y-435506D01*
X-115844Y-435486D01*
X-115809Y-435395D01*
X-115768Y-435307D01*
X-115765Y-435281D01*
X-115756Y-435257D01*
X-115752Y-435159D01*
X-115741Y-435063D01*
X-115746Y-435037D01*
X-115745Y-435011D01*
X-115772Y-434917D01*
X-115793Y-434822D01*
X-115807Y-434800D01*
X-115814Y-434775D01*
X-115869Y-434695D01*
X-115919Y-434611D01*
X-115939Y-434594D01*
X-115954Y-434573D01*
X-116032Y-434514D01*
X-116106Y-434451D01*
X-116130Y-434441D01*
X-116151Y-434426D01*
X-116244Y-434396D01*
X-116334Y-434359D01*
X-116367Y-434356D01*
X-116385Y-434350D01*
X-116418Y-434350D01*
X-116501Y-434341D01*
X-176432Y-434341D01*
X-176522Y-434355D01*
X-176613Y-434363D01*
X-176643Y-434375D01*
X-176675Y-434380D01*
X-176756Y-434423D01*
X-176840Y-434459D01*
X-176872Y-434485D01*
X-176892Y-434496D01*
X-176915Y-434519D01*
X-176971Y-434564D01*
X-207780Y-465374D01*
X-207848Y-465468D01*
X-207918Y-465562D01*
X-207920Y-465568D01*
X-207924Y-465573D01*
X-207958Y-465684D01*
X-207995Y-465796D01*
X-207995Y-465802D01*
X-207996Y-465808D01*
X-207993Y-465925D01*
X-207992Y-466042D01*
X-207990Y-466049D01*
X-207990Y-466054D01*
X-207984Y-466072D01*
X-207945Y-466203D01*
X-207136Y-468157D01*
X-207136Y-471643D01*
X-208470Y-474864D01*
X-210936Y-477330D01*
X-214157Y-478664D01*
X-217643Y-478664D01*
X-220864Y-477330D01*
X-223330Y-474864D01*
X-224664Y-471643D01*
X-224664Y-468157D01*
X-223330Y-464936D01*
X-220864Y-462470D01*
X-217643Y-461136D01*
X-214157Y-461136D01*
X-212203Y-461945D01*
X-212090Y-461972D01*
X-211976Y-462001D01*
X-211970Y-462000D01*
X-211964Y-462002D01*
X-211847Y-461991D01*
X-211731Y-461982D01*
X-211725Y-461979D01*
X-211719Y-461979D01*
X-211611Y-461931D01*
X-211505Y-461885D01*
X-211499Y-461881D01*
X-211494Y-461879D01*
X-211480Y-461866D01*
X-211374Y-461780D01*
X-180564Y-430971D01*
X-178852Y-429259D01*
X-116501Y-429259D01*
X-116405Y-429244D01*
X-116308Y-429234D01*
X-116284Y-429224D01*
X-116258Y-429220D01*
X-116172Y-429174D01*
X-116083Y-429134D01*
X-116064Y-429117D01*
X-116041Y-429104D01*
X-115974Y-429034D01*
X-115902Y-428968D01*
X-115890Y-428945D01*
X-115872Y-428926D01*
X-115831Y-428838D01*
X-115784Y-428752D01*
X-115779Y-428727D01*
X-115768Y-428703D01*
X-115757Y-428606D01*
X-115740Y-428510D01*
X-115744Y-428484D01*
X-115741Y-428459D01*
X-115762Y-428363D01*
X-115776Y-428267D01*
X-115788Y-428244D01*
X-115793Y-428218D01*
X-115843Y-428135D01*
X-115887Y-428048D01*
X-115906Y-428029D01*
X-115919Y-428007D01*
X-115993Y-427944D01*
X-116063Y-427876D01*
X-116091Y-427860D01*
X-116106Y-427847D01*
X-116137Y-427835D01*
X-116210Y-427795D01*
X-119264Y-426530D01*
X-121730Y-424064D01*
X-123064Y-420843D01*
X-123064Y-417357D01*
X-121730Y-414136D01*
X-119264Y-411670D01*
X-116043Y-410336D01*
X-112557Y-410336D01*
X-109336Y-411670D01*
X-106870Y-414136D01*
X-105536Y-417357D01*
X-105536Y-420843D01*
X-106870Y-424064D01*
X-109336Y-426530D01*
X-112390Y-427795D01*
X-112473Y-427846D01*
X-112559Y-427892D01*
X-112577Y-427910D01*
X-112599Y-427924D01*
X-112662Y-428000D01*
X-112728Y-428070D01*
X-112739Y-428094D01*
X-112756Y-428114D01*
X-112791Y-428205D01*
X-112832Y-428293D01*
X-112835Y-428319D01*
X-112844Y-428343D01*
X-112848Y-428441D01*
X-112859Y-428537D01*
X-112854Y-428563D01*
X-112855Y-428589D01*
X-112828Y-428683D01*
X-112807Y-428778D01*
X-112793Y-428800D01*
X-112786Y-428825D01*
X-112731Y-428905D01*
X-112681Y-428989D01*
X-112661Y-429006D01*
X-112646Y-429027D01*
X-112568Y-429086D01*
X-112494Y-429149D01*
X-112470Y-429159D01*
X-112449Y-429174D01*
X-112356Y-429204D01*
X-112266Y-429241D01*
X-112233Y-429244D01*
X-112215Y-429250D01*
X-112182Y-429250D01*
X-112099Y-429259D01*
X-100548Y-429259D01*
X-88071Y-441736D01*
X-87997Y-441789D01*
X-87927Y-441849D01*
X-87897Y-441861D01*
X-87871Y-441880D01*
X-87784Y-441907D01*
X-87699Y-441941D01*
X-87658Y-441945D01*
X-87636Y-441952D01*
X-87604Y-441951D01*
X-87532Y-441959D01*
X-83566Y-441959D01*
X-83546Y-441956D01*
X-83527Y-441958D01*
X-83425Y-441936D01*
X-83323Y-441920D01*
X-83306Y-441910D01*
X-83286Y-441906D01*
X-83197Y-441853D01*
X-83106Y-441804D01*
X-83092Y-441790D01*
X-83075Y-441780D01*
X-83008Y-441701D01*
X-82936Y-441626D01*
X-82928Y-441608D01*
X-82915Y-441593D01*
X-82876Y-441497D01*
X-82833Y-441403D01*
X-82831Y-441383D01*
X-82823Y-441365D01*
X-82805Y-441198D01*
X-82805Y-434978D01*
X-81912Y-434085D01*
X-70488Y-434085D01*
X-69595Y-434978D01*
X-69595Y-453898D01*
X-69592Y-453918D01*
X-69594Y-453937D01*
X-69572Y-454039D01*
X-69556Y-454141D01*
X-69546Y-454158D01*
X-69542Y-454178D01*
X-69489Y-454267D01*
X-69440Y-454358D01*
X-69426Y-454372D01*
X-69416Y-454389D01*
X-69337Y-454456D01*
X-69262Y-454528D01*
X-69244Y-454536D01*
X-69229Y-454549D01*
X-69133Y-454588D01*
X-69039Y-454631D01*
X-69019Y-454633D01*
X-69001Y-454641D01*
X-68834Y-454659D01*
X-64868Y-454659D01*
X-64778Y-454645D01*
X-64687Y-454637D01*
X-64657Y-454625D01*
X-64625Y-454620D01*
X-64544Y-454577D01*
X-64460Y-454541D01*
X-64428Y-454515D01*
X-64408Y-454504D01*
X-64385Y-454481D01*
X-64329Y-454436D01*
X-57628Y-447735D01*
X-57575Y-447661D01*
X-57515Y-447591D01*
X-57503Y-447561D01*
X-57484Y-447535D01*
X-57457Y-447448D01*
X-57423Y-447363D01*
X-57419Y-447322D01*
X-57412Y-447300D01*
X-57413Y-447268D01*
X-57405Y-447196D01*
X-57405Y-434978D01*
X-56512Y-434085D01*
X-45088Y-434085D01*
X-44195Y-434978D01*
X-44195Y-454022D01*
X-45088Y-454915D01*
X-56512Y-454915D01*
X-56528Y-454898D01*
X-56544Y-454886D01*
X-56557Y-454871D01*
X-56632Y-454823D01*
X-56651Y-454806D01*
X-56662Y-454802D01*
X-56728Y-454754D01*
X-56747Y-454749D01*
X-56764Y-454738D01*
X-56864Y-454713D01*
X-56963Y-454682D01*
X-56983Y-454683D01*
X-57002Y-454678D01*
X-57105Y-454686D01*
X-57209Y-454688D01*
X-57228Y-454695D01*
X-57248Y-454697D01*
X-57343Y-454737D01*
X-57440Y-454773D01*
X-57456Y-454785D01*
X-57474Y-454793D01*
X-57543Y-454848D01*
X-57548Y-454851D01*
X-57553Y-454857D01*
X-57605Y-454898D01*
X-60736Y-458029D01*
X-62448Y-459741D01*
X-112099Y-459741D01*
X-112195Y-459756D01*
X-112292Y-459766D01*
X-112316Y-459776D01*
X-112342Y-459780D01*
X-112428Y-459826D01*
X-112517Y-459866D01*
X-112536Y-459883D01*
X-112559Y-459896D01*
X-112626Y-459966D01*
X-112698Y-460032D01*
X-112710Y-460055D01*
X-112728Y-460074D01*
X-112769Y-460162D01*
X-112816Y-460248D01*
X-112821Y-460273D01*
X-112832Y-460297D01*
X-112843Y-460394D01*
X-112860Y-460490D01*
X-112856Y-460516D01*
X-112859Y-460541D01*
X-112838Y-460637D01*
X-112824Y-460733D01*
X-112812Y-460756D01*
X-112807Y-460782D01*
X-112757Y-460865D01*
X-112713Y-460952D01*
X-112694Y-460971D01*
X-112681Y-460993D01*
X-112607Y-461056D01*
X-112537Y-461124D01*
X-112509Y-461140D01*
X-112494Y-461153D01*
X-112463Y-461165D01*
X-112390Y-461205D01*
X-109336Y-462470D01*
X-106870Y-464936D01*
X-105536Y-468157D01*
X-105536Y-471643D01*
X-106870Y-474864D01*
X-107845Y-475839D01*
X-107887Y-475897D01*
X-107936Y-475949D01*
X-107958Y-475996D01*
X-107988Y-476038D01*
X-108010Y-476107D01*
X-108040Y-476172D01*
X-108046Y-476224D01*
X-108061Y-476274D01*
X-108059Y-476345D01*
X-108067Y-476416D01*
X-108056Y-476467D01*
X-108054Y-476519D01*
X-108030Y-476587D01*
X-108015Y-476657D01*
X-107988Y-476702D01*
X-107970Y-476750D01*
X-107925Y-476806D01*
X-107888Y-476868D01*
X-107849Y-476902D01*
X-107816Y-476942D01*
X-107756Y-476981D01*
X-107702Y-477028D01*
X-107653Y-477047D01*
X-107609Y-477075D01*
X-107540Y-477093D01*
X-107473Y-477120D01*
X-107402Y-477128D01*
X-107371Y-477136D01*
X-107348Y-477134D01*
X-107307Y-477138D01*
X-61947Y-477138D01*
X-61857Y-477124D01*
X-61766Y-477116D01*
X-61736Y-477104D01*
X-61704Y-477099D01*
X-61623Y-477056D01*
X-61539Y-477020D01*
X-61507Y-476994D01*
X-61487Y-476983D01*
X-61464Y-476960D01*
X-61408Y-476915D01*
X-32228Y-447735D01*
X-32175Y-447661D01*
X-32115Y-447591D01*
X-32103Y-447561D01*
X-32084Y-447535D01*
X-32057Y-447448D01*
X-32023Y-447363D01*
X-32019Y-447322D01*
X-32012Y-447300D01*
X-32013Y-447268D01*
X-32005Y-447196D01*
X-32005Y-434978D01*
X-31112Y-434085D01*
X-19688Y-434085D01*
X-18795Y-434978D01*
X-18795Y-454022D01*
X-19688Y-454915D01*
X-31112Y-454915D01*
X-31128Y-454898D01*
X-31144Y-454886D01*
X-31157Y-454871D01*
X-31232Y-454823D01*
X-31251Y-454806D01*
X-31262Y-454802D01*
X-31328Y-454754D01*
X-31347Y-454749D01*
X-31364Y-454738D01*
X-31464Y-454713D01*
X-31563Y-454682D01*
X-31583Y-454683D01*
X-31602Y-454678D01*
X-31705Y-454686D01*
X-31809Y-454688D01*
X-31828Y-454695D01*
X-31848Y-454697D01*
X-31943Y-454737D01*
X-32040Y-454773D01*
X-32056Y-454785D01*
X-32074Y-454793D01*
X-32142Y-454848D01*
X-32148Y-454851D01*
X-32153Y-454857D01*
X-32205Y-454898D01*
X-59527Y-482220D01*
X-144803Y-482220D01*
G37*
%LPD*%
%LPC*%
G36*
X-90682Y-274065D02*
X-90682Y-274065D01*
X-91575Y-273172D01*
X-91575Y-270002D01*
X-91578Y-269982D01*
X-91576Y-269963D01*
X-91598Y-269861D01*
X-91614Y-269759D01*
X-91624Y-269742D01*
X-91628Y-269722D01*
X-91681Y-269633D01*
X-91730Y-269542D01*
X-91744Y-269528D01*
X-91754Y-269511D01*
X-91833Y-269444D01*
X-91908Y-269372D01*
X-91926Y-269364D01*
X-91941Y-269351D01*
X-92037Y-269312D01*
X-92131Y-269269D01*
X-92151Y-269267D01*
X-92169Y-269259D01*
X-92336Y-269241D01*
X-102652Y-269241D01*
X-129541Y-242352D01*
X-129541Y-87848D01*
X-115352Y-73659D01*
X-85301Y-73659D01*
X-85251Y-73695D01*
X-85181Y-73755D01*
X-85151Y-73767D01*
X-85125Y-73786D01*
X-85038Y-73813D01*
X-84953Y-73847D01*
X-84912Y-73851D01*
X-84890Y-73858D01*
X-84858Y-73857D01*
X-84786Y-73865D01*
X-73196Y-73865D01*
X-73125Y-73854D01*
X-73053Y-73852D01*
X-73004Y-73834D01*
X-72953Y-73826D01*
X-72890Y-73792D01*
X-72822Y-73767D01*
X-72781Y-73735D01*
X-72736Y-73710D01*
X-72686Y-73659D01*
X-72630Y-73614D01*
X-72602Y-73570D01*
X-72566Y-73532D01*
X-72536Y-73467D01*
X-72497Y-73407D01*
X-72484Y-73356D01*
X-72463Y-73309D01*
X-72455Y-73238D01*
X-72437Y-73168D01*
X-72441Y-73116D01*
X-72435Y-73065D01*
X-72451Y-72994D01*
X-72456Y-72923D01*
X-72477Y-72875D01*
X-72488Y-72824D01*
X-72525Y-72763D01*
X-72553Y-72697D01*
X-72597Y-72641D01*
X-72614Y-72613D01*
X-72632Y-72598D01*
X-72657Y-72566D01*
X-74085Y-71138D01*
X-74159Y-71085D01*
X-74229Y-71025D01*
X-74259Y-71013D01*
X-74285Y-70994D01*
X-74372Y-70967D01*
X-74457Y-70933D01*
X-74498Y-70929D01*
X-74520Y-70922D01*
X-74552Y-70923D01*
X-74624Y-70915D01*
X-86872Y-70915D01*
X-87765Y-70022D01*
X-87765Y-55758D01*
X-86872Y-54865D01*
X-70608Y-54865D01*
X-69715Y-55758D01*
X-69715Y-66548D01*
X-69712Y-66568D01*
X-69714Y-66587D01*
X-69692Y-66689D01*
X-69676Y-66791D01*
X-69666Y-66808D01*
X-69662Y-66828D01*
X-69609Y-66917D01*
X-69560Y-67008D01*
X-69546Y-67022D01*
X-69536Y-67039D01*
X-69457Y-67106D01*
X-69382Y-67178D01*
X-69364Y-67186D01*
X-69349Y-67199D01*
X-69253Y-67238D01*
X-69159Y-67281D01*
X-69139Y-67283D01*
X-69121Y-67291D01*
X-68954Y-67309D01*
X-63261Y-67309D01*
X-63171Y-67295D01*
X-63080Y-67287D01*
X-63050Y-67275D01*
X-63018Y-67270D01*
X-62938Y-67227D01*
X-62854Y-67191D01*
X-62822Y-67165D01*
X-62801Y-67154D01*
X-62779Y-67131D01*
X-62723Y-67086D01*
X-60688Y-65051D01*
X-56712Y-65051D01*
X-53901Y-67862D01*
X-53901Y-71838D01*
X-56712Y-74649D01*
X-60688Y-74649D01*
X-62723Y-72614D01*
X-62797Y-72561D01*
X-62866Y-72501D01*
X-62896Y-72489D01*
X-62922Y-72470D01*
X-63009Y-72443D01*
X-63094Y-72409D01*
X-63135Y-72405D01*
X-63158Y-72398D01*
X-63190Y-72399D01*
X-63261Y-72391D01*
X-70245Y-72391D01*
X-70316Y-72402D01*
X-70388Y-72404D01*
X-70437Y-72422D01*
X-70488Y-72430D01*
X-70551Y-72464D01*
X-70619Y-72489D01*
X-70659Y-72521D01*
X-70705Y-72546D01*
X-70755Y-72598D01*
X-70811Y-72642D01*
X-70839Y-72686D01*
X-70875Y-72724D01*
X-70905Y-72789D01*
X-70944Y-72849D01*
X-70956Y-72900D01*
X-70978Y-72947D01*
X-70986Y-73018D01*
X-71004Y-73088D01*
X-71000Y-73140D01*
X-71005Y-73191D01*
X-70990Y-73262D01*
X-70985Y-73333D01*
X-70964Y-73381D01*
X-70953Y-73432D01*
X-70916Y-73493D01*
X-70888Y-73559D01*
X-70843Y-73615D01*
X-70827Y-73643D01*
X-70809Y-73658D01*
X-70783Y-73690D01*
X-69715Y-74758D01*
X-69715Y-89022D01*
X-70608Y-89915D01*
X-86872Y-89915D01*
X-87765Y-89022D01*
X-87765Y-79502D01*
X-87768Y-79482D01*
X-87766Y-79463D01*
X-87788Y-79361D01*
X-87804Y-79259D01*
X-87814Y-79242D01*
X-87818Y-79222D01*
X-87871Y-79133D01*
X-87920Y-79042D01*
X-87934Y-79028D01*
X-87944Y-79011D01*
X-88023Y-78944D01*
X-88098Y-78872D01*
X-88116Y-78864D01*
X-88131Y-78851D01*
X-88227Y-78812D01*
X-88321Y-78769D01*
X-88341Y-78767D01*
X-88359Y-78759D01*
X-88526Y-78741D01*
X-112932Y-78741D01*
X-113022Y-78755D01*
X-113113Y-78763D01*
X-113143Y-78775D01*
X-113175Y-78780D01*
X-113256Y-78823D01*
X-113340Y-78859D01*
X-113372Y-78885D01*
X-113392Y-78896D01*
X-113415Y-78919D01*
X-113471Y-78964D01*
X-124236Y-89729D01*
X-124289Y-89803D01*
X-124349Y-89873D01*
X-124361Y-89903D01*
X-124380Y-89929D01*
X-124407Y-90016D01*
X-124441Y-90101D01*
X-124445Y-90142D01*
X-124452Y-90164D01*
X-124451Y-90196D01*
X-124459Y-90268D01*
X-124459Y-239932D01*
X-124445Y-240022D01*
X-124437Y-240113D01*
X-124425Y-240143D01*
X-124420Y-240175D01*
X-124377Y-240256D01*
X-124341Y-240340D01*
X-124315Y-240372D01*
X-124304Y-240392D01*
X-124281Y-240415D01*
X-124236Y-240471D01*
X-100771Y-263936D01*
X-100697Y-263989D01*
X-100627Y-264049D01*
X-100597Y-264061D01*
X-100571Y-264080D01*
X-100484Y-264107D01*
X-100399Y-264141D01*
X-100358Y-264145D01*
X-100336Y-264152D01*
X-100304Y-264151D01*
X-100232Y-264159D01*
X-92336Y-264159D01*
X-92316Y-264156D01*
X-92297Y-264158D01*
X-92195Y-264136D01*
X-92093Y-264120D01*
X-92076Y-264110D01*
X-92056Y-264106D01*
X-91967Y-264053D01*
X-91876Y-264004D01*
X-91862Y-263990D01*
X-91845Y-263980D01*
X-91778Y-263901D01*
X-91706Y-263826D01*
X-91698Y-263808D01*
X-91685Y-263793D01*
X-91646Y-263697D01*
X-91603Y-263603D01*
X-91601Y-263583D01*
X-91593Y-263565D01*
X-91575Y-263398D01*
X-91575Y-258908D01*
X-90682Y-258015D01*
X-74418Y-258015D01*
X-73525Y-258908D01*
X-73525Y-273172D01*
X-74418Y-274065D01*
X-90682Y-274065D01*
G37*
%LPD*%
%LPC*%
G36*
X-250908Y-200989D02*
X-250908Y-200989D01*
X-253719Y-198178D01*
X-253719Y-194202D01*
X-250908Y-191391D01*
X-247010Y-191391D01*
X-246920Y-191377D01*
X-246829Y-191369D01*
X-246800Y-191357D01*
X-246768Y-191352D01*
X-246687Y-191309D01*
X-246603Y-191273D01*
X-246571Y-191247D01*
X-246550Y-191236D01*
X-246528Y-191213D01*
X-246472Y-191168D01*
X-240000Y-184696D01*
X-239947Y-184622D01*
X-239887Y-184552D01*
X-239875Y-184522D01*
X-239856Y-184496D01*
X-239829Y-184409D01*
X-239795Y-184324D01*
X-239791Y-184283D01*
X-239784Y-184261D01*
X-239785Y-184229D01*
X-239777Y-184158D01*
X-239777Y-145383D01*
X-239791Y-145292D01*
X-239799Y-145202D01*
X-239811Y-145172D01*
X-239816Y-145140D01*
X-239859Y-145059D01*
X-239895Y-144975D01*
X-239921Y-144943D01*
X-239932Y-144922D01*
X-239955Y-144900D01*
X-240000Y-144844D01*
X-247132Y-137712D01*
X-247206Y-137659D01*
X-247276Y-137599D01*
X-247306Y-137587D01*
X-247332Y-137568D01*
X-247419Y-137541D01*
X-247504Y-137507D01*
X-247545Y-137503D01*
X-247567Y-137496D01*
X-247599Y-137497D01*
X-247671Y-137489D01*
X-250779Y-137489D01*
X-250870Y-137503D01*
X-250960Y-137511D01*
X-250990Y-137523D01*
X-251022Y-137528D01*
X-251103Y-137571D01*
X-251187Y-137607D01*
X-251219Y-137633D01*
X-251240Y-137644D01*
X-251262Y-137667D01*
X-251318Y-137712D01*
X-259403Y-145797D01*
X-297554Y-145797D01*
X-297574Y-145800D01*
X-297593Y-145798D01*
X-297695Y-145820D01*
X-297797Y-145836D01*
X-297814Y-145846D01*
X-297834Y-145850D01*
X-297923Y-145903D01*
X-298014Y-145952D01*
X-298028Y-145966D01*
X-298045Y-145976D01*
X-298112Y-146055D01*
X-298184Y-146130D01*
X-298192Y-146148D01*
X-298205Y-146163D01*
X-298244Y-146259D01*
X-298287Y-146353D01*
X-298289Y-146373D01*
X-298297Y-146391D01*
X-298315Y-146558D01*
X-298315Y-150032D01*
X-299208Y-150925D01*
X-315472Y-150925D01*
X-316365Y-150032D01*
X-316365Y-146202D01*
X-316368Y-146182D01*
X-316366Y-146163D01*
X-316388Y-146061D01*
X-316404Y-145959D01*
X-316414Y-145942D01*
X-316418Y-145922D01*
X-316471Y-145834D01*
X-316520Y-145742D01*
X-316534Y-145728D01*
X-316544Y-145711D01*
X-316623Y-145644D01*
X-316698Y-145572D01*
X-316716Y-145564D01*
X-316731Y-145551D01*
X-316827Y-145512D01*
X-316921Y-145469D01*
X-316941Y-145467D01*
X-316959Y-145459D01*
X-317126Y-145441D01*
X-319144Y-145441D01*
X-319164Y-145444D01*
X-319183Y-145442D01*
X-319285Y-145464D01*
X-319387Y-145480D01*
X-319404Y-145490D01*
X-319424Y-145494D01*
X-319513Y-145547D01*
X-319604Y-145596D01*
X-319618Y-145610D01*
X-319635Y-145620D01*
X-319702Y-145699D01*
X-319774Y-145774D01*
X-319782Y-145792D01*
X-319795Y-145807D01*
X-319834Y-145903D01*
X-319877Y-145997D01*
X-319879Y-146017D01*
X-319887Y-146035D01*
X-319905Y-146202D01*
X-319905Y-150032D01*
X-320798Y-150925D01*
X-337062Y-150925D01*
X-337955Y-150032D01*
X-337955Y-146202D01*
X-337958Y-146182D01*
X-337956Y-146163D01*
X-337978Y-146061D01*
X-337994Y-145959D01*
X-338004Y-145942D01*
X-338008Y-145922D01*
X-338061Y-145834D01*
X-338110Y-145742D01*
X-338124Y-145728D01*
X-338134Y-145711D01*
X-338213Y-145644D01*
X-338288Y-145572D01*
X-338306Y-145564D01*
X-338321Y-145551D01*
X-338417Y-145512D01*
X-338511Y-145469D01*
X-338531Y-145467D01*
X-338549Y-145459D01*
X-338716Y-145441D01*
X-343204Y-145441D01*
X-343224Y-145444D01*
X-343243Y-145442D01*
X-343345Y-145464D01*
X-343447Y-145480D01*
X-343464Y-145490D01*
X-343484Y-145494D01*
X-343573Y-145547D01*
X-343664Y-145596D01*
X-343678Y-145610D01*
X-343695Y-145620D01*
X-343762Y-145699D01*
X-343834Y-145774D01*
X-343842Y-145792D01*
X-343855Y-145807D01*
X-343894Y-145903D01*
X-343937Y-145997D01*
X-343939Y-146017D01*
X-343947Y-146035D01*
X-343965Y-146202D01*
X-343965Y-146282D01*
X-344097Y-146414D01*
X-344166Y-146509D01*
X-344237Y-146606D01*
X-344239Y-146610D01*
X-344241Y-146613D01*
X-344276Y-146727D01*
X-344312Y-146840D01*
X-344312Y-146845D01*
X-344313Y-146848D01*
X-344310Y-146967D01*
X-344308Y-147086D01*
X-344307Y-147090D01*
X-344307Y-147094D01*
X-344266Y-147205D01*
X-344227Y-147318D01*
X-344224Y-147321D01*
X-344223Y-147325D01*
X-344148Y-147418D01*
X-344075Y-147512D01*
X-344071Y-147515D01*
X-344069Y-147517D01*
X-344057Y-147525D01*
X-343940Y-147611D01*
X-343930Y-147617D01*
X-343457Y-148090D01*
X-343122Y-148669D01*
X-342949Y-149316D01*
X-342949Y-151026D01*
X-350877Y-151026D01*
X-350896Y-151029D01*
X-350916Y-151027D01*
X-351018Y-151049D01*
X-351120Y-151065D01*
X-351137Y-151075D01*
X-351157Y-151079D01*
X-351246Y-151132D01*
X-351337Y-151181D01*
X-351351Y-151195D01*
X-351368Y-151205D01*
X-351435Y-151284D01*
X-351489Y-151341D01*
X-351497Y-151327D01*
X-351511Y-151313D01*
X-351521Y-151296D01*
X-351600Y-151229D01*
X-351675Y-151157D01*
X-351693Y-151149D01*
X-351708Y-151136D01*
X-351805Y-151097D01*
X-351898Y-151054D01*
X-351918Y-151052D01*
X-351936Y-151044D01*
X-352103Y-151026D01*
X-360031Y-151026D01*
X-360031Y-149316D01*
X-359858Y-148669D01*
X-359523Y-148090D01*
X-359050Y-147617D01*
X-359040Y-147611D01*
X-358949Y-147536D01*
X-358855Y-147462D01*
X-358853Y-147458D01*
X-358850Y-147455D01*
X-358787Y-147356D01*
X-358722Y-147255D01*
X-358721Y-147251D01*
X-358719Y-147247D01*
X-358691Y-147132D01*
X-358662Y-147016D01*
X-358663Y-147012D01*
X-358662Y-147008D01*
X-358672Y-146889D01*
X-358681Y-146771D01*
X-358683Y-146767D01*
X-358683Y-146763D01*
X-358731Y-146655D01*
X-358778Y-146545D01*
X-358781Y-146541D01*
X-358782Y-146538D01*
X-358791Y-146528D01*
X-358883Y-146414D01*
X-359015Y-146282D01*
X-359015Y-139518D01*
X-358122Y-138625D01*
X-344858Y-138625D01*
X-343965Y-139518D01*
X-343965Y-139598D01*
X-343962Y-139618D01*
X-343964Y-139637D01*
X-343942Y-139739D01*
X-343926Y-139841D01*
X-343916Y-139858D01*
X-343912Y-139878D01*
X-343859Y-139967D01*
X-343810Y-140058D01*
X-343796Y-140072D01*
X-343786Y-140089D01*
X-343707Y-140156D01*
X-343632Y-140228D01*
X-343614Y-140236D01*
X-343599Y-140249D01*
X-343503Y-140288D01*
X-343409Y-140331D01*
X-343389Y-140333D01*
X-343371Y-140341D01*
X-343204Y-140359D01*
X-338716Y-140359D01*
X-338696Y-140356D01*
X-338677Y-140358D01*
X-338575Y-140336D01*
X-338473Y-140320D01*
X-338456Y-140310D01*
X-338436Y-140306D01*
X-338347Y-140253D01*
X-338256Y-140204D01*
X-338242Y-140190D01*
X-338225Y-140180D01*
X-338158Y-140101D01*
X-338086Y-140026D01*
X-338078Y-140008D01*
X-338065Y-139993D01*
X-338026Y-139897D01*
X-337983Y-139803D01*
X-337981Y-139783D01*
X-337973Y-139765D01*
X-337955Y-139598D01*
X-337955Y-135768D01*
X-337062Y-134875D01*
X-320798Y-134875D01*
X-319905Y-135768D01*
X-319905Y-139598D01*
X-319902Y-139618D01*
X-319904Y-139637D01*
X-319882Y-139739D01*
X-319866Y-139841D01*
X-319856Y-139858D01*
X-319852Y-139878D01*
X-319799Y-139967D01*
X-319750Y-140058D01*
X-319736Y-140072D01*
X-319726Y-140089D01*
X-319647Y-140156D01*
X-319572Y-140228D01*
X-319554Y-140236D01*
X-319539Y-140249D01*
X-319443Y-140288D01*
X-319349Y-140331D01*
X-319329Y-140333D01*
X-319311Y-140341D01*
X-319144Y-140359D01*
X-317126Y-140359D01*
X-317106Y-140356D01*
X-317087Y-140358D01*
X-316985Y-140336D01*
X-316883Y-140320D01*
X-316866Y-140310D01*
X-316846Y-140306D01*
X-316757Y-140253D01*
X-316666Y-140204D01*
X-316652Y-140190D01*
X-316635Y-140180D01*
X-316568Y-140101D01*
X-316496Y-140026D01*
X-316488Y-140008D01*
X-316475Y-139993D01*
X-316436Y-139897D01*
X-316393Y-139803D01*
X-316391Y-139783D01*
X-316383Y-139765D01*
X-316365Y-139598D01*
X-316365Y-135768D01*
X-315472Y-134875D01*
X-299208Y-134875D01*
X-298315Y-135768D01*
X-298315Y-140462D01*
X-298312Y-140482D01*
X-298314Y-140501D01*
X-298292Y-140603D01*
X-298276Y-140705D01*
X-298266Y-140722D01*
X-298262Y-140742D01*
X-298209Y-140831D01*
X-298160Y-140922D01*
X-298146Y-140936D01*
X-298136Y-140953D01*
X-298057Y-141020D01*
X-297982Y-141092D01*
X-297964Y-141100D01*
X-297949Y-141113D01*
X-297853Y-141152D01*
X-297759Y-141195D01*
X-297739Y-141197D01*
X-297721Y-141205D01*
X-297554Y-141223D01*
X-261613Y-141223D01*
X-261522Y-141209D01*
X-261432Y-141201D01*
X-261402Y-141189D01*
X-261370Y-141184D01*
X-261289Y-141141D01*
X-261205Y-141105D01*
X-261173Y-141079D01*
X-261152Y-141068D01*
X-261130Y-141045D01*
X-261074Y-141000D01*
X-253942Y-133868D01*
X-253889Y-133794D01*
X-253829Y-133724D01*
X-253817Y-133694D01*
X-253798Y-133668D01*
X-253771Y-133581D01*
X-253737Y-133496D01*
X-253733Y-133455D01*
X-253726Y-133433D01*
X-253727Y-133401D01*
X-253719Y-133329D01*
X-253719Y-130702D01*
X-250908Y-127891D01*
X-247671Y-127891D01*
X-247580Y-127877D01*
X-247490Y-127869D01*
X-247460Y-127857D01*
X-247428Y-127852D01*
X-247347Y-127809D01*
X-247263Y-127773D01*
X-247231Y-127747D01*
X-247210Y-127736D01*
X-247188Y-127713D01*
X-247132Y-127668D01*
X-240000Y-120536D01*
X-239947Y-120462D01*
X-239887Y-120392D01*
X-239875Y-120362D01*
X-239856Y-120336D01*
X-239829Y-120249D01*
X-239795Y-120164D01*
X-239791Y-120123D01*
X-239784Y-120101D01*
X-239785Y-120069D01*
X-239777Y-119997D01*
X-239777Y-81273D01*
X-239791Y-81182D01*
X-239799Y-81092D01*
X-239811Y-81062D01*
X-239816Y-81030D01*
X-239859Y-80949D01*
X-239895Y-80865D01*
X-239921Y-80833D01*
X-239932Y-80812D01*
X-239955Y-80790D01*
X-240000Y-80734D01*
X-246522Y-74212D01*
X-246596Y-74159D01*
X-246666Y-74099D01*
X-246696Y-74087D01*
X-246722Y-74068D01*
X-246809Y-74041D01*
X-246894Y-74007D01*
X-246935Y-74003D01*
X-246957Y-73996D01*
X-246989Y-73997D01*
X-247061Y-73989D01*
X-250908Y-73989D01*
X-253719Y-71178D01*
X-253719Y-67202D01*
X-250908Y-64391D01*
X-246932Y-64391D01*
X-244121Y-67202D01*
X-244121Y-69829D01*
X-244107Y-69920D01*
X-244099Y-70010D01*
X-244087Y-70040D01*
X-244082Y-70072D01*
X-244039Y-70153D01*
X-244003Y-70237D01*
X-243977Y-70269D01*
X-243966Y-70290D01*
X-243943Y-70312D01*
X-243898Y-70368D01*
X-235203Y-79063D01*
X-235203Y-122207D01*
X-243898Y-130902D01*
X-243951Y-130976D01*
X-244011Y-131046D01*
X-244023Y-131076D01*
X-244042Y-131102D01*
X-244069Y-131189D01*
X-244103Y-131274D01*
X-244107Y-131315D01*
X-244114Y-131337D01*
X-244113Y-131369D01*
X-244121Y-131441D01*
X-244121Y-133939D01*
X-244107Y-134030D01*
X-244099Y-134120D01*
X-244087Y-134150D01*
X-244082Y-134182D01*
X-244039Y-134263D01*
X-244003Y-134347D01*
X-243977Y-134379D01*
X-243966Y-134400D01*
X-243943Y-134422D01*
X-243898Y-134478D01*
X-235203Y-143173D01*
X-235203Y-186367D01*
X-236766Y-187930D01*
X-243898Y-195062D01*
X-243951Y-195136D01*
X-244011Y-195206D01*
X-244023Y-195236D01*
X-244042Y-195262D01*
X-244069Y-195349D01*
X-244103Y-195434D01*
X-244107Y-195475D01*
X-244114Y-195497D01*
X-244113Y-195529D01*
X-244121Y-195600D01*
X-244121Y-198178D01*
X-246932Y-200989D01*
X-250908Y-200989D01*
G37*
%LPD*%
%LPC*%
G36*
X36112Y-487399D02*
X36112Y-487399D01*
X33301Y-484588D01*
X33301Y-480612D01*
X36112Y-477801D01*
X40088Y-477801D01*
X41869Y-479582D01*
X41943Y-479635D01*
X42012Y-479695D01*
X42042Y-479707D01*
X42068Y-479726D01*
X42155Y-479753D01*
X42240Y-479787D01*
X42281Y-479791D01*
X42304Y-479798D01*
X42336Y-479797D01*
X42407Y-479805D01*
X252527Y-479805D01*
X252617Y-479791D01*
X252708Y-479783D01*
X252738Y-479771D01*
X252770Y-479766D01*
X252850Y-479723D01*
X252934Y-479687D01*
X252966Y-479661D01*
X252987Y-479650D01*
X253009Y-479627D01*
X253065Y-479582D01*
X259872Y-472775D01*
X259925Y-472701D01*
X259985Y-472632D01*
X259997Y-472602D01*
X260016Y-472576D01*
X260043Y-472489D01*
X260077Y-472404D01*
X260081Y-472363D01*
X260088Y-472341D01*
X260087Y-472308D01*
X260095Y-472237D01*
X260095Y-401817D01*
X260081Y-401727D01*
X260073Y-401636D01*
X260061Y-401606D01*
X260056Y-401574D01*
X260013Y-401494D01*
X259977Y-401410D01*
X259951Y-401378D01*
X259940Y-401357D01*
X259917Y-401335D01*
X259872Y-401279D01*
X258091Y-399498D01*
X258091Y-395522D01*
X260902Y-392711D01*
X264878Y-392711D01*
X267689Y-395522D01*
X267689Y-399498D01*
X265908Y-401279D01*
X265855Y-401353D01*
X265795Y-401422D01*
X265783Y-401452D01*
X265764Y-401478D01*
X265737Y-401565D01*
X265703Y-401650D01*
X265699Y-401691D01*
X265692Y-401714D01*
X265693Y-401746D01*
X265685Y-401817D01*
X265685Y-474868D01*
X255158Y-485395D01*
X42407Y-485395D01*
X42317Y-485409D01*
X42226Y-485417D01*
X42196Y-485429D01*
X42164Y-485434D01*
X42084Y-485477D01*
X42000Y-485513D01*
X41967Y-485539D01*
X41947Y-485550D01*
X41925Y-485573D01*
X41869Y-485618D01*
X40088Y-487399D01*
X36112Y-487399D01*
G37*
%LPD*%
%LPC*%
G36*
X288210Y-44959D02*
X288210Y-44959D01*
X281021Y-41981D01*
X275519Y-36479D01*
X272541Y-29290D01*
X272541Y-21510D01*
X275519Y-14321D01*
X281021Y-8819D01*
X288210Y-5841D01*
X295990Y-5841D01*
X303179Y-8819D01*
X308681Y-14321D01*
X311659Y-21510D01*
X311659Y-29290D01*
X308681Y-36479D01*
X303179Y-41981D01*
X295990Y-44959D01*
X288210Y-44959D01*
G37*
%LPD*%
%LPC*%
G36*
X288210Y-476759D02*
X288210Y-476759D01*
X281021Y-473781D01*
X275519Y-468279D01*
X272541Y-461090D01*
X272541Y-453310D01*
X275519Y-446121D01*
X281021Y-440619D01*
X288210Y-437641D01*
X295990Y-437641D01*
X303179Y-440619D01*
X308681Y-446121D01*
X311659Y-453310D01*
X311659Y-461090D01*
X308681Y-468279D01*
X303179Y-473781D01*
X295990Y-476759D01*
X288210Y-476759D01*
G37*
%LPD*%
%LPC*%
G36*
X-154388Y-411199D02*
X-154388Y-411199D01*
X-157199Y-408388D01*
X-157199Y-404412D01*
X-154388Y-401601D01*
X-150412Y-401601D01*
X-148123Y-403890D01*
X-148049Y-403943D01*
X-147980Y-404003D01*
X-147950Y-404015D01*
X-147924Y-404034D01*
X-147837Y-404061D01*
X-147752Y-404095D01*
X-147711Y-404099D01*
X-147688Y-404106D01*
X-147656Y-404105D01*
X-147585Y-404113D01*
X-118575Y-404113D01*
X-118508Y-404102D01*
X-118441Y-404101D01*
X-118388Y-404083D01*
X-118333Y-404074D01*
X-118273Y-404042D01*
X-118209Y-404019D01*
X-118165Y-403985D01*
X-118115Y-403958D01*
X-118069Y-403909D01*
X-118015Y-403868D01*
X-117984Y-403821D01*
X-117946Y-403780D01*
X-117917Y-403719D01*
X-117880Y-403662D01*
X-117866Y-403608D01*
X-117842Y-403557D01*
X-117835Y-403490D01*
X-117817Y-403424D01*
X-117821Y-403368D01*
X-117815Y-403313D01*
X-117829Y-403246D01*
X-117834Y-403179D01*
X-117855Y-403127D01*
X-117867Y-403072D01*
X-117902Y-403014D01*
X-117928Y-402951D01*
X-117965Y-402909D01*
X-117994Y-402861D01*
X-118045Y-402817D01*
X-118090Y-402766D01*
X-118155Y-402723D01*
X-118180Y-402701D01*
X-118200Y-402693D01*
X-118230Y-402674D01*
X-119426Y-402064D01*
X-120671Y-401160D01*
X-121760Y-400071D01*
X-122664Y-398826D01*
X-123363Y-397454D01*
X-123839Y-395990D01*
X-123960Y-395223D01*
X-115062Y-395223D01*
X-115042Y-395220D01*
X-115023Y-395222D01*
X-114921Y-395200D01*
X-114819Y-395183D01*
X-114802Y-395174D01*
X-114782Y-395170D01*
X-114693Y-395117D01*
X-114602Y-395068D01*
X-114588Y-395054D01*
X-114571Y-395044D01*
X-114504Y-394965D01*
X-114433Y-394890D01*
X-114424Y-394872D01*
X-114411Y-394857D01*
X-114373Y-394761D01*
X-114329Y-394667D01*
X-114327Y-394647D01*
X-114319Y-394629D01*
X-114301Y-394462D01*
X-114301Y-392938D01*
X-114304Y-392918D01*
X-114302Y-392899D01*
X-114324Y-392797D01*
X-114341Y-392695D01*
X-114350Y-392678D01*
X-114354Y-392658D01*
X-114407Y-392569D01*
X-114456Y-392478D01*
X-114470Y-392464D01*
X-114480Y-392447D01*
X-114559Y-392380D01*
X-114634Y-392309D01*
X-114652Y-392300D01*
X-114667Y-392287D01*
X-114763Y-392248D01*
X-114857Y-392205D01*
X-114877Y-392203D01*
X-114895Y-392195D01*
X-115062Y-392177D01*
X-123960Y-392177D01*
X-123839Y-391410D01*
X-123363Y-389946D01*
X-122664Y-388574D01*
X-121760Y-387329D01*
X-120671Y-386240D01*
X-119426Y-385336D01*
X-118230Y-384726D01*
X-118175Y-384686D01*
X-118115Y-384654D01*
X-118077Y-384614D01*
X-118031Y-384581D01*
X-117992Y-384525D01*
X-117946Y-384476D01*
X-117922Y-384425D01*
X-117890Y-384379D01*
X-117871Y-384315D01*
X-117842Y-384253D01*
X-117836Y-384197D01*
X-117820Y-384144D01*
X-117823Y-384076D01*
X-117815Y-384009D01*
X-117827Y-383954D01*
X-117829Y-383898D01*
X-117853Y-383834D01*
X-117867Y-383768D01*
X-117896Y-383720D01*
X-117916Y-383668D01*
X-117959Y-383615D01*
X-117994Y-383557D01*
X-118036Y-383521D01*
X-118072Y-383477D01*
X-118129Y-383441D01*
X-118180Y-383397D01*
X-118232Y-383376D01*
X-118280Y-383346D01*
X-118346Y-383331D01*
X-118409Y-383305D01*
X-118487Y-383297D01*
X-118519Y-383289D01*
X-118540Y-383291D01*
X-118575Y-383287D01*
X-122185Y-383287D01*
X-122275Y-383301D01*
X-122366Y-383309D01*
X-122396Y-383321D01*
X-122428Y-383326D01*
X-122508Y-383369D01*
X-122592Y-383405D01*
X-122624Y-383431D01*
X-122645Y-383442D01*
X-122667Y-383465D01*
X-122723Y-383510D01*
X-125012Y-385799D01*
X-128988Y-385799D01*
X-131799Y-382988D01*
X-131799Y-379012D01*
X-128988Y-376201D01*
X-125012Y-376201D01*
X-122723Y-378490D01*
X-122649Y-378543D01*
X-122580Y-378603D01*
X-122550Y-378615D01*
X-122524Y-378634D01*
X-122437Y-378661D01*
X-122352Y-378695D01*
X-122311Y-378699D01*
X-122288Y-378706D01*
X-122256Y-378705D01*
X-122185Y-378713D01*
X-75253Y-378713D01*
X-65288Y-388678D01*
X-65214Y-388731D01*
X-65144Y-388791D01*
X-65114Y-388803D01*
X-65088Y-388822D01*
X-65001Y-388849D01*
X-64916Y-388883D01*
X-64875Y-388887D01*
X-64853Y-388894D01*
X-64821Y-388893D01*
X-64749Y-388901D01*
X-61512Y-388901D01*
X-58701Y-391712D01*
X-58701Y-395688D01*
X-61512Y-398499D01*
X-65488Y-398499D01*
X-68299Y-395688D01*
X-68299Y-392451D01*
X-68313Y-392360D01*
X-68321Y-392270D01*
X-68333Y-392240D01*
X-68338Y-392208D01*
X-68381Y-392127D01*
X-68417Y-392043D01*
X-68443Y-392011D01*
X-68454Y-391990D01*
X-68477Y-391968D01*
X-68522Y-391912D01*
X-76924Y-383510D01*
X-76998Y-383457D01*
X-77068Y-383397D01*
X-77098Y-383385D01*
X-77124Y-383366D01*
X-77211Y-383339D01*
X-77296Y-383305D01*
X-77337Y-383301D01*
X-77359Y-383294D01*
X-77391Y-383295D01*
X-77463Y-383287D01*
X-110025Y-383287D01*
X-110092Y-383298D01*
X-110159Y-383299D01*
X-110212Y-383317D01*
X-110267Y-383326D01*
X-110327Y-383358D01*
X-110391Y-383381D01*
X-110435Y-383415D01*
X-110485Y-383442D01*
X-110531Y-383491D01*
X-110585Y-383532D01*
X-110616Y-383579D01*
X-110654Y-383620D01*
X-110683Y-383681D01*
X-110720Y-383738D01*
X-110734Y-383792D01*
X-110758Y-383843D01*
X-110765Y-383910D01*
X-110783Y-383976D01*
X-110779Y-384032D01*
X-110785Y-384087D01*
X-110771Y-384154D01*
X-110766Y-384221D01*
X-110745Y-384273D01*
X-110733Y-384328D01*
X-110698Y-384386D01*
X-110672Y-384449D01*
X-110635Y-384491D01*
X-110606Y-384539D01*
X-110555Y-384583D01*
X-110510Y-384634D01*
X-110445Y-384677D01*
X-110420Y-384699D01*
X-110400Y-384707D01*
X-110370Y-384726D01*
X-109174Y-385336D01*
X-107929Y-386240D01*
X-106840Y-387329D01*
X-105936Y-388574D01*
X-105237Y-389946D01*
X-104761Y-391410D01*
X-104640Y-392177D01*
X-113538Y-392177D01*
X-113558Y-392180D01*
X-113577Y-392178D01*
X-113679Y-392200D01*
X-113781Y-392217D01*
X-113798Y-392226D01*
X-113818Y-392230D01*
X-113907Y-392283D01*
X-113998Y-392332D01*
X-114012Y-392346D01*
X-114029Y-392356D01*
X-114096Y-392435D01*
X-114167Y-392510D01*
X-114176Y-392528D01*
X-114189Y-392543D01*
X-114227Y-392639D01*
X-114271Y-392733D01*
X-114273Y-392753D01*
X-114281Y-392771D01*
X-114299Y-392938D01*
X-114299Y-394462D01*
X-114296Y-394482D01*
X-114298Y-394501D01*
X-114276Y-394603D01*
X-114259Y-394705D01*
X-114250Y-394722D01*
X-114246Y-394742D01*
X-114193Y-394831D01*
X-114144Y-394922D01*
X-114130Y-394936D01*
X-114120Y-394953D01*
X-114041Y-395020D01*
X-113966Y-395091D01*
X-113948Y-395100D01*
X-113933Y-395113D01*
X-113837Y-395152D01*
X-113743Y-395195D01*
X-113723Y-395197D01*
X-113705Y-395205D01*
X-113538Y-395223D01*
X-104640Y-395223D01*
X-104761Y-395990D01*
X-105237Y-397454D01*
X-105936Y-398826D01*
X-106840Y-400071D01*
X-107929Y-401160D01*
X-109174Y-402064D01*
X-110370Y-402674D01*
X-110425Y-402714D01*
X-110485Y-402746D01*
X-110523Y-402786D01*
X-110569Y-402819D01*
X-110608Y-402875D01*
X-110654Y-402924D01*
X-110678Y-402975D01*
X-110710Y-403021D01*
X-110729Y-403085D01*
X-110758Y-403147D01*
X-110764Y-403203D01*
X-110780Y-403256D01*
X-110777Y-403324D01*
X-110785Y-403391D01*
X-110773Y-403446D01*
X-110771Y-403502D01*
X-110747Y-403566D01*
X-110733Y-403632D01*
X-110704Y-403680D01*
X-110684Y-403732D01*
X-110641Y-403785D01*
X-110606Y-403843D01*
X-110564Y-403879D01*
X-110528Y-403923D01*
X-110471Y-403959D01*
X-110420Y-404003D01*
X-110368Y-404024D01*
X-110320Y-404054D01*
X-110254Y-404069D01*
X-110191Y-404095D01*
X-110113Y-404103D01*
X-110081Y-404111D01*
X-110060Y-404109D01*
X-110025Y-404113D01*
X-90163Y-404113D01*
X-90072Y-404099D01*
X-89982Y-404091D01*
X-89952Y-404079D01*
X-89920Y-404074D01*
X-89839Y-404031D01*
X-89755Y-403995D01*
X-89723Y-403969D01*
X-89702Y-403958D01*
X-89680Y-403935D01*
X-89624Y-403890D01*
X-81222Y-395488D01*
X-81169Y-395414D01*
X-81109Y-395344D01*
X-81097Y-395314D01*
X-81078Y-395288D01*
X-81051Y-395201D01*
X-81017Y-395116D01*
X-81013Y-395075D01*
X-81006Y-395053D01*
X-81007Y-395021D01*
X-80999Y-394949D01*
X-80999Y-391712D01*
X-78188Y-388901D01*
X-74212Y-388901D01*
X-71401Y-391712D01*
X-71401Y-395688D01*
X-74212Y-398499D01*
X-77449Y-398499D01*
X-77540Y-398513D01*
X-77630Y-398521D01*
X-77660Y-398533D01*
X-77692Y-398538D01*
X-77773Y-398581D01*
X-77857Y-398617D01*
X-77889Y-398643D01*
X-77910Y-398654D01*
X-77932Y-398677D01*
X-77988Y-398722D01*
X-87953Y-408687D01*
X-147585Y-408687D01*
X-147675Y-408701D01*
X-147766Y-408709D01*
X-147796Y-408721D01*
X-147828Y-408726D01*
X-147908Y-408769D01*
X-147992Y-408805D01*
X-148024Y-408831D01*
X-148045Y-408842D01*
X-148067Y-408865D01*
X-148123Y-408910D01*
X-150412Y-411199D01*
X-154388Y-411199D01*
G37*
%LPD*%
%LPC*%
G36*
X-384122Y-166175D02*
X-384122Y-166175D01*
X-385015Y-165282D01*
X-385015Y-158518D01*
X-384883Y-158386D01*
X-384814Y-158291D01*
X-384743Y-158194D01*
X-384741Y-158190D01*
X-384739Y-158187D01*
X-384704Y-158073D01*
X-384668Y-157960D01*
X-384668Y-157955D01*
X-384667Y-157952D01*
X-384670Y-157833D01*
X-384672Y-157714D01*
X-384673Y-157710D01*
X-384673Y-157706D01*
X-384714Y-157595D01*
X-384753Y-157482D01*
X-384756Y-157479D01*
X-384757Y-157475D01*
X-384832Y-157382D01*
X-384905Y-157288D01*
X-384909Y-157285D01*
X-384911Y-157283D01*
X-384923Y-157275D01*
X-385040Y-157189D01*
X-385050Y-157183D01*
X-385523Y-156710D01*
X-385858Y-156131D01*
X-386031Y-155484D01*
X-386031Y-153774D01*
X-378103Y-153774D01*
X-378084Y-153771D01*
X-378064Y-153773D01*
X-377962Y-153751D01*
X-377860Y-153735D01*
X-377843Y-153725D01*
X-377823Y-153721D01*
X-377734Y-153668D01*
X-377643Y-153619D01*
X-377629Y-153605D01*
X-377612Y-153595D01*
X-377545Y-153516D01*
X-377474Y-153441D01*
X-377465Y-153423D01*
X-377452Y-153408D01*
X-377414Y-153312D01*
X-377370Y-153218D01*
X-377368Y-153198D01*
X-377360Y-153180D01*
X-377342Y-153013D01*
X-377342Y-151787D01*
X-377345Y-151767D01*
X-377343Y-151747D01*
X-377365Y-151646D01*
X-377382Y-151544D01*
X-377391Y-151527D01*
X-377395Y-151507D01*
X-377448Y-151418D01*
X-377497Y-151327D01*
X-377511Y-151313D01*
X-377521Y-151296D01*
X-377600Y-151229D01*
X-377675Y-151157D01*
X-377693Y-151149D01*
X-377708Y-151136D01*
X-377805Y-151097D01*
X-377898Y-151054D01*
X-377918Y-151052D01*
X-377936Y-151044D01*
X-378103Y-151026D01*
X-386031Y-151026D01*
X-386031Y-149316D01*
X-385858Y-148669D01*
X-385533Y-148107D01*
X-385499Y-148017D01*
X-385459Y-147931D01*
X-385456Y-147903D01*
X-385446Y-147877D01*
X-385442Y-147781D01*
X-385432Y-147687D01*
X-385438Y-147659D01*
X-385437Y-147631D01*
X-385464Y-147539D01*
X-385484Y-147446D01*
X-385498Y-147422D01*
X-385506Y-147395D01*
X-385561Y-147317D01*
X-385610Y-147235D01*
X-385632Y-147217D01*
X-385648Y-147194D01*
X-385725Y-147137D01*
X-385797Y-147075D01*
X-385823Y-147065D01*
X-385846Y-147048D01*
X-385937Y-147019D01*
X-386025Y-146983D01*
X-386060Y-146979D01*
X-386080Y-146973D01*
X-386113Y-146973D01*
X-386192Y-146965D01*
X-388994Y-146965D01*
X-389014Y-146968D01*
X-389033Y-146966D01*
X-389135Y-146988D01*
X-389237Y-147004D01*
X-389254Y-147014D01*
X-389274Y-147018D01*
X-389363Y-147071D01*
X-389454Y-147120D01*
X-389468Y-147134D01*
X-389485Y-147144D01*
X-389552Y-147223D01*
X-389624Y-147298D01*
X-389632Y-147316D01*
X-389645Y-147331D01*
X-389684Y-147427D01*
X-389727Y-147521D01*
X-389729Y-147541D01*
X-389737Y-147559D01*
X-389755Y-147726D01*
X-389755Y-150032D01*
X-390648Y-150925D01*
X-406912Y-150925D01*
X-407805Y-150032D01*
X-407805Y-135768D01*
X-406912Y-134875D01*
X-390648Y-134875D01*
X-389755Y-135768D01*
X-389755Y-138074D01*
X-389752Y-138094D01*
X-389754Y-138113D01*
X-389732Y-138215D01*
X-389716Y-138317D01*
X-389706Y-138334D01*
X-389702Y-138354D01*
X-389649Y-138443D01*
X-389600Y-138534D01*
X-389586Y-138548D01*
X-389576Y-138565D01*
X-389497Y-138632D01*
X-389422Y-138704D01*
X-389404Y-138712D01*
X-389389Y-138725D01*
X-389293Y-138764D01*
X-389199Y-138807D01*
X-389179Y-138809D01*
X-389161Y-138817D01*
X-388994Y-138835D01*
X-384647Y-138835D01*
X-384557Y-138821D01*
X-384466Y-138813D01*
X-384436Y-138801D01*
X-384404Y-138796D01*
X-384323Y-138753D01*
X-384239Y-138717D01*
X-384207Y-138691D01*
X-384187Y-138680D01*
X-384165Y-138657D01*
X-384125Y-138625D01*
X-370858Y-138625D01*
X-369965Y-139518D01*
X-369965Y-139598D01*
X-369962Y-139618D01*
X-369964Y-139637D01*
X-369942Y-139739D01*
X-369926Y-139841D01*
X-369916Y-139858D01*
X-369912Y-139878D01*
X-369859Y-139967D01*
X-369810Y-140058D01*
X-369796Y-140072D01*
X-369786Y-140089D01*
X-369707Y-140156D01*
X-369632Y-140228D01*
X-369614Y-140236D01*
X-369599Y-140249D01*
X-369503Y-140288D01*
X-369409Y-140331D01*
X-369389Y-140333D01*
X-369371Y-140341D01*
X-369204Y-140359D01*
X-369128Y-140359D01*
X-365759Y-143728D01*
X-365759Y-161072D01*
X-369128Y-164441D01*
X-369204Y-164441D01*
X-369224Y-164444D01*
X-369243Y-164442D01*
X-369345Y-164464D01*
X-369447Y-164480D01*
X-369464Y-164490D01*
X-369484Y-164494D01*
X-369573Y-164547D01*
X-369664Y-164596D01*
X-369678Y-164610D01*
X-369695Y-164620D01*
X-369762Y-164699D01*
X-369834Y-164774D01*
X-369842Y-164792D01*
X-369855Y-164807D01*
X-369894Y-164903D01*
X-369937Y-164997D01*
X-369939Y-165017D01*
X-369947Y-165035D01*
X-369965Y-165202D01*
X-369965Y-165282D01*
X-370858Y-166175D01*
X-384122Y-166175D01*
G37*
%LPD*%
%LPC*%
G36*
X-349762Y-112775D02*
X-349762Y-112775D01*
X-350655Y-111882D01*
X-350655Y-109576D01*
X-350658Y-109556D01*
X-350656Y-109537D01*
X-350678Y-109435D01*
X-350694Y-109333D01*
X-350704Y-109316D01*
X-350708Y-109296D01*
X-350761Y-109207D01*
X-350810Y-109116D01*
X-350824Y-109102D01*
X-350834Y-109085D01*
X-350913Y-109018D01*
X-350988Y-108946D01*
X-351006Y-108938D01*
X-351021Y-108925D01*
X-351117Y-108886D01*
X-351211Y-108843D01*
X-351231Y-108841D01*
X-351249Y-108833D01*
X-351416Y-108815D01*
X-354493Y-108815D01*
X-354583Y-108829D01*
X-354674Y-108837D01*
X-354704Y-108849D01*
X-354736Y-108854D01*
X-354817Y-108897D01*
X-354900Y-108933D01*
X-354933Y-108959D01*
X-354953Y-108970D01*
X-354975Y-108993D01*
X-355015Y-109025D01*
X-368282Y-109025D01*
X-369175Y-108132D01*
X-369175Y-101368D01*
X-368282Y-100475D01*
X-355013Y-100475D01*
X-354957Y-100515D01*
X-354888Y-100575D01*
X-354858Y-100587D01*
X-354832Y-100606D01*
X-354745Y-100633D01*
X-354660Y-100667D01*
X-354619Y-100671D01*
X-354597Y-100678D01*
X-354564Y-100677D01*
X-354493Y-100685D01*
X-351416Y-100685D01*
X-351396Y-100682D01*
X-351377Y-100684D01*
X-351275Y-100662D01*
X-351173Y-100646D01*
X-351156Y-100636D01*
X-351136Y-100632D01*
X-351047Y-100579D01*
X-350956Y-100530D01*
X-350942Y-100516D01*
X-350925Y-100506D01*
X-350858Y-100427D01*
X-350786Y-100352D01*
X-350778Y-100334D01*
X-350765Y-100319D01*
X-350726Y-100223D01*
X-350683Y-100129D01*
X-350681Y-100109D01*
X-350673Y-100091D01*
X-350655Y-99924D01*
X-350655Y-97618D01*
X-349762Y-96725D01*
X-333498Y-96725D01*
X-332605Y-97618D01*
X-332605Y-99924D01*
X-332602Y-99944D01*
X-332604Y-99963D01*
X-332582Y-100065D01*
X-332566Y-100167D01*
X-332556Y-100184D01*
X-332552Y-100204D01*
X-332499Y-100293D01*
X-332450Y-100384D01*
X-332436Y-100398D01*
X-332426Y-100415D01*
X-332347Y-100482D01*
X-332272Y-100554D01*
X-332254Y-100562D01*
X-332239Y-100575D01*
X-332143Y-100614D01*
X-332049Y-100657D01*
X-332029Y-100659D01*
X-332011Y-100667D01*
X-331844Y-100685D01*
X-328556Y-100685D01*
X-328536Y-100682D01*
X-328517Y-100684D01*
X-328415Y-100662D01*
X-328313Y-100646D01*
X-328296Y-100636D01*
X-328276Y-100632D01*
X-328187Y-100579D01*
X-328096Y-100530D01*
X-328082Y-100516D01*
X-328065Y-100506D01*
X-327998Y-100427D01*
X-327926Y-100352D01*
X-327918Y-100334D01*
X-327905Y-100319D01*
X-327866Y-100223D01*
X-327823Y-100129D01*
X-327821Y-100109D01*
X-327813Y-100091D01*
X-327795Y-99924D01*
X-327795Y-97618D01*
X-326902Y-96725D01*
X-310638Y-96725D01*
X-309745Y-97618D01*
X-309745Y-111882D01*
X-310638Y-112775D01*
X-326902Y-112775D01*
X-327795Y-111882D01*
X-327795Y-109576D01*
X-327798Y-109556D01*
X-327796Y-109537D01*
X-327818Y-109435D01*
X-327834Y-109333D01*
X-327844Y-109316D01*
X-327848Y-109296D01*
X-327901Y-109207D01*
X-327950Y-109116D01*
X-327964Y-109102D01*
X-327974Y-109085D01*
X-328053Y-109018D01*
X-328128Y-108946D01*
X-328146Y-108938D01*
X-328161Y-108925D01*
X-328257Y-108886D01*
X-328351Y-108843D01*
X-328371Y-108841D01*
X-328389Y-108833D01*
X-328556Y-108815D01*
X-331844Y-108815D01*
X-331864Y-108818D01*
X-331883Y-108816D01*
X-331985Y-108838D01*
X-332087Y-108854D01*
X-332104Y-108864D01*
X-332124Y-108868D01*
X-332213Y-108921D01*
X-332304Y-108970D01*
X-332318Y-108984D01*
X-332335Y-108994D01*
X-332402Y-109073D01*
X-332474Y-109148D01*
X-332482Y-109166D01*
X-332495Y-109181D01*
X-332534Y-109277D01*
X-332577Y-109371D01*
X-332579Y-109391D01*
X-332587Y-109409D01*
X-332605Y-109576D01*
X-332605Y-111882D01*
X-333498Y-112775D01*
X-349762Y-112775D01*
G37*
%LPD*%
%LPC*%
G36*
X-415802Y-112775D02*
X-415802Y-112775D01*
X-416695Y-111882D01*
X-416695Y-97618D01*
X-415802Y-96725D01*
X-399538Y-96725D01*
X-398645Y-97618D01*
X-398645Y-99924D01*
X-398642Y-99944D01*
X-398644Y-99963D01*
X-398622Y-100065D01*
X-398606Y-100167D01*
X-398596Y-100184D01*
X-398592Y-100204D01*
X-398539Y-100293D01*
X-398490Y-100384D01*
X-398476Y-100398D01*
X-398466Y-100415D01*
X-398387Y-100482D01*
X-398312Y-100554D01*
X-398294Y-100562D01*
X-398279Y-100575D01*
X-398183Y-100614D01*
X-398089Y-100657D01*
X-398069Y-100659D01*
X-398051Y-100667D01*
X-397884Y-100685D01*
X-396352Y-100685D01*
X-396258Y-100670D01*
X-396163Y-100661D01*
X-396137Y-100650D01*
X-396109Y-100646D01*
X-396025Y-100601D01*
X-395938Y-100563D01*
X-395917Y-100544D01*
X-395892Y-100530D01*
X-395826Y-100461D01*
X-395756Y-100397D01*
X-395742Y-100373D01*
X-395722Y-100352D01*
X-395682Y-100266D01*
X-395636Y-100182D01*
X-395631Y-100155D01*
X-395619Y-100129D01*
X-395608Y-100034D01*
X-395591Y-99941D01*
X-395595Y-99913D01*
X-395592Y-99885D01*
X-395612Y-99791D01*
X-395625Y-99697D01*
X-395640Y-99665D01*
X-395644Y-99644D01*
X-395661Y-99616D01*
X-395693Y-99543D01*
X-396018Y-98981D01*
X-396191Y-98334D01*
X-396191Y-96624D01*
X-388263Y-96624D01*
X-388244Y-96621D01*
X-388224Y-96623D01*
X-388122Y-96601D01*
X-388020Y-96585D01*
X-388003Y-96575D01*
X-387983Y-96571D01*
X-387894Y-96518D01*
X-387803Y-96469D01*
X-387789Y-96455D01*
X-387772Y-96445D01*
X-387705Y-96366D01*
X-387634Y-96291D01*
X-387625Y-96273D01*
X-387612Y-96258D01*
X-387574Y-96162D01*
X-387530Y-96068D01*
X-387528Y-96048D01*
X-387520Y-96030D01*
X-387502Y-95863D01*
X-387502Y-94637D01*
X-387505Y-94617D01*
X-387503Y-94597D01*
X-387525Y-94496D01*
X-387542Y-94394D01*
X-387551Y-94377D01*
X-387555Y-94357D01*
X-387608Y-94268D01*
X-387657Y-94177D01*
X-387671Y-94163D01*
X-387681Y-94146D01*
X-387760Y-94079D01*
X-387835Y-94007D01*
X-387853Y-93999D01*
X-387868Y-93986D01*
X-387965Y-93947D01*
X-388058Y-93904D01*
X-388078Y-93902D01*
X-388096Y-93894D01*
X-388263Y-93876D01*
X-396191Y-93876D01*
X-396191Y-92998D01*
X-396195Y-92974D01*
X-396192Y-92950D01*
X-396214Y-92853D01*
X-396230Y-92755D01*
X-396242Y-92734D01*
X-396247Y-92711D01*
X-396299Y-92626D01*
X-396346Y-92538D01*
X-396363Y-92521D01*
X-396376Y-92501D01*
X-396452Y-92437D01*
X-396488Y-92402D01*
X-396462Y-92385D01*
X-396377Y-92334D01*
X-396361Y-92315D01*
X-396342Y-92302D01*
X-396282Y-92222D01*
X-396217Y-92147D01*
X-396208Y-92124D01*
X-396194Y-92105D01*
X-396133Y-91949D01*
X-396018Y-91519D01*
X-395683Y-90940D01*
X-395210Y-90467D01*
X-395200Y-90461D01*
X-395110Y-90387D01*
X-395015Y-90312D01*
X-395013Y-90308D01*
X-395010Y-90305D01*
X-394947Y-90206D01*
X-394882Y-90105D01*
X-394881Y-90101D01*
X-394879Y-90097D01*
X-394851Y-89982D01*
X-394822Y-89866D01*
X-394823Y-89862D01*
X-394822Y-89858D01*
X-394832Y-89739D01*
X-394841Y-89621D01*
X-394843Y-89617D01*
X-394843Y-89613D01*
X-394891Y-89505D01*
X-394938Y-89395D01*
X-394941Y-89391D01*
X-394942Y-89388D01*
X-394951Y-89378D01*
X-395043Y-89264D01*
X-395175Y-89132D01*
X-395175Y-82368D01*
X-394282Y-81475D01*
X-381018Y-81475D01*
X-380125Y-82368D01*
X-380125Y-85866D01*
X-380111Y-85956D01*
X-380103Y-86047D01*
X-380091Y-86077D01*
X-380086Y-86109D01*
X-380043Y-86190D01*
X-380007Y-86274D01*
X-379981Y-86306D01*
X-379970Y-86326D01*
X-379947Y-86349D01*
X-379902Y-86405D01*
X-378281Y-88026D01*
X-378280Y-88026D01*
X-376569Y-89738D01*
X-376569Y-100762D01*
X-379902Y-104095D01*
X-379955Y-104169D01*
X-380015Y-104239D01*
X-380027Y-104269D01*
X-380046Y-104295D01*
X-380073Y-104382D01*
X-380107Y-104467D01*
X-380111Y-104508D01*
X-380118Y-104530D01*
X-380117Y-104562D01*
X-380125Y-104634D01*
X-380125Y-108132D01*
X-381018Y-109025D01*
X-394287Y-109025D01*
X-394343Y-108985D01*
X-394412Y-108925D01*
X-394442Y-108913D01*
X-394468Y-108894D01*
X-394555Y-108867D01*
X-394640Y-108833D01*
X-394681Y-108829D01*
X-394703Y-108822D01*
X-394736Y-108823D01*
X-394807Y-108815D01*
X-397884Y-108815D01*
X-397904Y-108818D01*
X-397923Y-108816D01*
X-398025Y-108838D01*
X-398127Y-108854D01*
X-398144Y-108864D01*
X-398164Y-108868D01*
X-398253Y-108921D01*
X-398344Y-108970D01*
X-398358Y-108984D01*
X-398375Y-108994D01*
X-398442Y-109073D01*
X-398514Y-109148D01*
X-398522Y-109166D01*
X-398535Y-109181D01*
X-398574Y-109277D01*
X-398617Y-109371D01*
X-398619Y-109391D01*
X-398627Y-109409D01*
X-398645Y-109576D01*
X-398645Y-111882D01*
X-399538Y-112775D01*
X-415802Y-112775D01*
G37*
%LPD*%
%LPC*%
G36*
X-735962Y-424498D02*
X-735962Y-424498D01*
X-736855Y-423605D01*
X-736855Y-399482D01*
X-735962Y-398589D01*
X-711838Y-398589D01*
X-710945Y-399482D01*
X-710945Y-423605D01*
X-711838Y-424498D01*
X-735962Y-424498D01*
G37*
%LPD*%
%LPC*%
G36*
X87081Y-448565D02*
X87081Y-448565D01*
X83720Y-447173D01*
X81147Y-444600D01*
X79755Y-441239D01*
X79755Y-422361D01*
X81147Y-419000D01*
X83720Y-416427D01*
X87081Y-415035D01*
X90719Y-415035D01*
X94080Y-416427D01*
X96653Y-419000D01*
X98045Y-422361D01*
X98045Y-441239D01*
X96653Y-444600D01*
X94080Y-447173D01*
X90719Y-448565D01*
X87081Y-448565D01*
G37*
%LPD*%
%LPC*%
G36*
X112481Y-448565D02*
X112481Y-448565D01*
X109120Y-447173D01*
X106547Y-444600D01*
X105155Y-441239D01*
X105155Y-422361D01*
X106547Y-419000D01*
X109120Y-416427D01*
X112481Y-415035D01*
X116119Y-415035D01*
X119480Y-416427D01*
X122053Y-419000D01*
X123445Y-422361D01*
X123445Y-441239D01*
X122053Y-444600D01*
X119480Y-447173D01*
X116119Y-448565D01*
X112481Y-448565D01*
G37*
%LPD*%
%LPC*%
G36*
X-420919Y-54865D02*
X-420919Y-54865D01*
X-424280Y-53473D01*
X-426853Y-50900D01*
X-428245Y-47539D01*
X-428245Y-28661D01*
X-426853Y-25300D01*
X-424280Y-22727D01*
X-420919Y-21335D01*
X-417281Y-21335D01*
X-413920Y-22727D01*
X-411347Y-25300D01*
X-409955Y-28661D01*
X-409955Y-47539D01*
X-411347Y-50900D01*
X-413920Y-53473D01*
X-417281Y-54865D01*
X-420919Y-54865D01*
G37*
%LPD*%
%LPC*%
G36*
X-370119Y-54865D02*
X-370119Y-54865D01*
X-373480Y-53473D01*
X-376053Y-50900D01*
X-377445Y-47539D01*
X-377445Y-28661D01*
X-376053Y-25300D01*
X-373480Y-22727D01*
X-370119Y-21335D01*
X-366481Y-21335D01*
X-363120Y-22727D01*
X-360547Y-25300D01*
X-359155Y-28661D01*
X-359155Y-47539D01*
X-360547Y-50900D01*
X-363120Y-53473D01*
X-366481Y-54865D01*
X-370119Y-54865D01*
G37*
%LPD*%
%LPC*%
G36*
X-319319Y-54865D02*
X-319319Y-54865D01*
X-322680Y-53473D01*
X-325253Y-50900D01*
X-326645Y-47539D01*
X-326645Y-28661D01*
X-325253Y-25300D01*
X-322680Y-22727D01*
X-319319Y-21335D01*
X-315681Y-21335D01*
X-312320Y-22727D01*
X-309747Y-25300D01*
X-308355Y-28661D01*
X-308355Y-47539D01*
X-309747Y-50900D01*
X-312320Y-53473D01*
X-315681Y-54865D01*
X-319319Y-54865D01*
G37*
%LPD*%
%LPC*%
G36*
X-90682Y-255065D02*
X-90682Y-255065D01*
X-91575Y-254172D01*
X-91575Y-239908D01*
X-90682Y-239015D01*
X-74418Y-239015D01*
X-73525Y-239908D01*
X-73525Y-243738D01*
X-73522Y-243758D01*
X-73524Y-243777D01*
X-73502Y-243879D01*
X-73486Y-243981D01*
X-73476Y-243998D01*
X-73472Y-244018D01*
X-73419Y-244107D01*
X-73370Y-244198D01*
X-73356Y-244212D01*
X-73346Y-244229D01*
X-73267Y-244296D01*
X-73192Y-244368D01*
X-73174Y-244376D01*
X-73159Y-244389D01*
X-73063Y-244428D01*
X-72969Y-244471D01*
X-72949Y-244473D01*
X-72931Y-244481D01*
X-72764Y-244499D01*
X-62651Y-244499D01*
X-62561Y-244485D01*
X-62470Y-244477D01*
X-62440Y-244465D01*
X-62408Y-244460D01*
X-62328Y-244417D01*
X-62244Y-244381D01*
X-62212Y-244355D01*
X-62191Y-244344D01*
X-62169Y-244321D01*
X-62113Y-244276D01*
X-60688Y-242851D01*
X-56712Y-242851D01*
X-53901Y-245662D01*
X-53901Y-249638D01*
X-56712Y-252449D01*
X-60688Y-252449D01*
X-63333Y-249804D01*
X-63407Y-249751D01*
X-63476Y-249691D01*
X-63506Y-249679D01*
X-63532Y-249660D01*
X-63619Y-249633D01*
X-63704Y-249599D01*
X-63745Y-249595D01*
X-63768Y-249588D01*
X-63800Y-249589D01*
X-63871Y-249581D01*
X-72764Y-249581D01*
X-72784Y-249584D01*
X-72803Y-249582D01*
X-72905Y-249604D01*
X-73007Y-249620D01*
X-73024Y-249630D01*
X-73044Y-249634D01*
X-73133Y-249687D01*
X-73224Y-249736D01*
X-73238Y-249750D01*
X-73255Y-249760D01*
X-73322Y-249839D01*
X-73394Y-249914D01*
X-73402Y-249932D01*
X-73415Y-249947D01*
X-73454Y-250043D01*
X-73497Y-250137D01*
X-73499Y-250157D01*
X-73507Y-250175D01*
X-73525Y-250342D01*
X-73525Y-254172D01*
X-74418Y-255065D01*
X-90682Y-255065D01*
G37*
%LPD*%
%LPC*%
G36*
X480656Y-428875D02*
X480656Y-428875D01*
X477063Y-427387D01*
X474313Y-424637D01*
X472825Y-421044D01*
X472825Y-417156D01*
X474313Y-413563D01*
X477063Y-410813D01*
X480656Y-409325D01*
X484544Y-409325D01*
X488137Y-410813D01*
X490887Y-413563D01*
X492375Y-417156D01*
X492375Y-421044D01*
X490887Y-424637D01*
X488137Y-427387D01*
X484544Y-428875D01*
X480656Y-428875D01*
G37*
%LPD*%
%LPC*%
G36*
X480656Y-73275D02*
X480656Y-73275D01*
X477063Y-71787D01*
X474313Y-69037D01*
X472825Y-65444D01*
X472825Y-61556D01*
X474313Y-57963D01*
X477063Y-55213D01*
X480656Y-53725D01*
X484544Y-53725D01*
X488137Y-55213D01*
X490887Y-57963D01*
X492375Y-61556D01*
X492375Y-65444D01*
X490887Y-69037D01*
X488137Y-71787D01*
X484544Y-73275D01*
X480656Y-73275D01*
G37*
%LPD*%
%LPC*%
G36*
X480656Y-251075D02*
X480656Y-251075D01*
X477063Y-249587D01*
X474313Y-246837D01*
X472825Y-243244D01*
X472825Y-239356D01*
X474313Y-235763D01*
X477063Y-233013D01*
X480656Y-231525D01*
X484544Y-231525D01*
X488137Y-233013D01*
X490887Y-235763D01*
X492375Y-239356D01*
X492375Y-243244D01*
X490887Y-246837D01*
X488137Y-249587D01*
X484544Y-251075D01*
X480656Y-251075D01*
G37*
%LPD*%
%LPC*%
G36*
X3638Y-73795D02*
X3638Y-73795D01*
X2745Y-72902D01*
X2745Y-56638D01*
X3638Y-55745D01*
X17902Y-55745D01*
X18795Y-56638D01*
X18795Y-72902D01*
X17902Y-73795D01*
X3638Y-73795D01*
G37*
%LPD*%
%LPC*%
G36*
X-46232Y-93775D02*
X-46232Y-93775D01*
X-47125Y-92882D01*
X-47125Y-78618D01*
X-46232Y-77725D01*
X-29968Y-77725D01*
X-29075Y-78618D01*
X-29075Y-92882D01*
X-29968Y-93775D01*
X-46232Y-93775D01*
G37*
%LPD*%
%LPC*%
G36*
X-343022Y-268105D02*
X-343022Y-268105D01*
X-343915Y-267212D01*
X-343915Y-250948D01*
X-343022Y-250055D01*
X-328758Y-250055D01*
X-327865Y-250948D01*
X-327865Y-267212D01*
X-328758Y-268105D01*
X-343022Y-268105D01*
G37*
%LPD*%
%LPC*%
G36*
X-44962Y-271575D02*
X-44962Y-271575D01*
X-45855Y-270682D01*
X-45855Y-256418D01*
X-44962Y-255525D01*
X-28698Y-255525D01*
X-27805Y-256418D01*
X-27805Y-270682D01*
X-28698Y-271575D01*
X-44962Y-271575D01*
G37*
%LPD*%
%LPC*%
G36*
X-512Y-260145D02*
X-512Y-260145D01*
X-1405Y-259252D01*
X-1405Y-244988D01*
X-512Y-244095D01*
X15752Y-244095D01*
X16645Y-244988D01*
X16645Y-259252D01*
X15752Y-260145D01*
X-512Y-260145D01*
G37*
%LPD*%
%LPC*%
G36*
X-168888Y-288545D02*
X-168888Y-288545D01*
X-174245Y-283188D01*
X-174245Y-275612D01*
X-168888Y-270255D01*
X-161312Y-270255D01*
X-155955Y-275612D01*
X-155955Y-283188D01*
X-161312Y-288545D01*
X-168888Y-288545D01*
G37*
%LPD*%
%LPC*%
G36*
X-143488Y-288545D02*
X-143488Y-288545D01*
X-148845Y-283188D01*
X-148845Y-275612D01*
X-143488Y-270255D01*
X-135912Y-270255D01*
X-130555Y-275612D01*
X-130555Y-283188D01*
X-135912Y-288545D01*
X-143488Y-288545D01*
G37*
%LPD*%
%LPC*%
G36*
X-655384Y-225336D02*
X-655384Y-225336D01*
X-655281Y-225328D01*
X-655178Y-225325D01*
X-655159Y-225318D01*
X-655139Y-225316D01*
X-655044Y-225276D01*
X-654947Y-225240D01*
X-654931Y-225228D01*
X-654913Y-225220D01*
X-654782Y-225115D01*
X-653498Y-223831D01*
X-649522Y-223831D01*
X-646711Y-226642D01*
X-646711Y-230618D01*
X-647995Y-231902D01*
X-648007Y-231918D01*
X-648022Y-231930D01*
X-648054Y-231979D01*
X-648058Y-231983D01*
X-648061Y-231990D01*
X-648079Y-232018D01*
X-648139Y-232101D01*
X-648145Y-232120D01*
X-648155Y-232137D01*
X-648181Y-232238D01*
X-648211Y-232337D01*
X-648211Y-232356D01*
X-648216Y-232376D01*
X-648208Y-232479D01*
X-648205Y-232582D01*
X-648198Y-232601D01*
X-648196Y-232621D01*
X-648156Y-232716D01*
X-648120Y-232813D01*
X-648108Y-232829D01*
X-648100Y-232847D01*
X-647995Y-232978D01*
X-646711Y-234262D01*
X-646711Y-238238D01*
X-649522Y-241049D01*
X-653498Y-241049D01*
X-654782Y-239765D01*
X-654798Y-239753D01*
X-654810Y-239738D01*
X-654898Y-239681D01*
X-654981Y-239621D01*
X-655000Y-239615D01*
X-655017Y-239605D01*
X-655118Y-239579D01*
X-655217Y-239549D01*
X-655236Y-239549D01*
X-655256Y-239544D01*
X-655359Y-239552D01*
X-655462Y-239555D01*
X-655481Y-239562D01*
X-655501Y-239564D01*
X-655596Y-239604D01*
X-655693Y-239640D01*
X-655709Y-239652D01*
X-655727Y-239660D01*
X-655858Y-239765D01*
X-657142Y-241049D01*
X-661118Y-241049D01*
X-663929Y-238238D01*
X-663929Y-234262D01*
X-662645Y-232978D01*
X-662633Y-232962D01*
X-662618Y-232950D01*
X-662561Y-232862D01*
X-662501Y-232779D01*
X-662495Y-232760D01*
X-662485Y-232743D01*
X-662459Y-232643D01*
X-662429Y-232543D01*
X-662429Y-232524D01*
X-662424Y-232504D01*
X-662432Y-232401D01*
X-662435Y-232298D01*
X-662442Y-232279D01*
X-662444Y-232259D01*
X-662484Y-232164D01*
X-662520Y-232067D01*
X-662532Y-232051D01*
X-662540Y-232033D01*
X-662645Y-231902D01*
X-663929Y-230618D01*
X-663929Y-226642D01*
X-661118Y-223831D01*
X-657142Y-223831D01*
X-655858Y-225115D01*
X-655842Y-225127D01*
X-655830Y-225142D01*
X-655742Y-225199D01*
X-655659Y-225259D01*
X-655640Y-225265D01*
X-655623Y-225275D01*
X-655522Y-225301D01*
X-655423Y-225331D01*
X-655404Y-225331D01*
X-655384Y-225336D01*
G37*
%LPD*%
%LPC*%
G36*
X-217643Y-326264D02*
X-217643Y-326264D01*
X-220864Y-324930D01*
X-223330Y-322464D01*
X-224664Y-319243D01*
X-224664Y-315757D01*
X-223330Y-312536D01*
X-220864Y-310070D01*
X-217643Y-308736D01*
X-214157Y-308736D01*
X-210936Y-310070D01*
X-208470Y-312536D01*
X-207136Y-315757D01*
X-207136Y-319243D01*
X-208470Y-322464D01*
X-210936Y-324930D01*
X-214157Y-326264D01*
X-217643Y-326264D01*
G37*
%LPD*%
%LPC*%
G36*
X-344643Y-326264D02*
X-344643Y-326264D01*
X-347864Y-324930D01*
X-350330Y-322464D01*
X-351664Y-319243D01*
X-351664Y-315757D01*
X-350330Y-312536D01*
X-347864Y-310070D01*
X-344643Y-308736D01*
X-341157Y-308736D01*
X-337936Y-310070D01*
X-335470Y-312536D01*
X-334136Y-315757D01*
X-334136Y-319243D01*
X-335470Y-322464D01*
X-337936Y-324930D01*
X-341157Y-326264D01*
X-344643Y-326264D01*
G37*
%LPD*%
%LPC*%
G36*
X-319243Y-326264D02*
X-319243Y-326264D01*
X-322464Y-324930D01*
X-324930Y-322464D01*
X-326264Y-319243D01*
X-326264Y-315757D01*
X-324930Y-312536D01*
X-322464Y-310070D01*
X-319243Y-308736D01*
X-315757Y-308736D01*
X-312536Y-310070D01*
X-310070Y-312536D01*
X-308736Y-315757D01*
X-308736Y-319243D01*
X-310070Y-322464D01*
X-312536Y-324930D01*
X-315757Y-326264D01*
X-319243Y-326264D01*
G37*
%LPD*%
%LPC*%
G36*
X-268443Y-326264D02*
X-268443Y-326264D01*
X-271664Y-324930D01*
X-274130Y-322464D01*
X-275464Y-319243D01*
X-275464Y-315757D01*
X-274130Y-312536D01*
X-271664Y-310070D01*
X-268443Y-308736D01*
X-264957Y-308736D01*
X-261736Y-310070D01*
X-259270Y-312536D01*
X-257936Y-315757D01*
X-257936Y-319243D01*
X-259270Y-322464D01*
X-261736Y-324930D01*
X-264957Y-326264D01*
X-268443Y-326264D01*
G37*
%LPD*%
%LPC*%
G36*
X-420843Y-478664D02*
X-420843Y-478664D01*
X-424064Y-477330D01*
X-426530Y-474864D01*
X-427864Y-471643D01*
X-427864Y-468157D01*
X-426530Y-464936D01*
X-424064Y-462470D01*
X-420843Y-461136D01*
X-417357Y-461136D01*
X-414136Y-462470D01*
X-411670Y-464936D01*
X-410336Y-468157D01*
X-410336Y-471643D01*
X-411670Y-474864D01*
X-414136Y-477330D01*
X-417357Y-478664D01*
X-420843Y-478664D01*
G37*
%LPD*%
%LPC*%
G36*
X-370043Y-478664D02*
X-370043Y-478664D01*
X-373264Y-477330D01*
X-375730Y-474864D01*
X-377064Y-471643D01*
X-377064Y-468157D01*
X-375730Y-464936D01*
X-373264Y-462470D01*
X-370043Y-461136D01*
X-366557Y-461136D01*
X-363336Y-462470D01*
X-360870Y-464936D01*
X-359536Y-468157D01*
X-359536Y-471643D01*
X-360870Y-474864D01*
X-363336Y-477330D01*
X-366557Y-478664D01*
X-370043Y-478664D01*
G37*
%LPD*%
%LPC*%
G36*
X-395443Y-478664D02*
X-395443Y-478664D01*
X-398664Y-477330D01*
X-401130Y-474864D01*
X-402464Y-471643D01*
X-402464Y-468157D01*
X-401130Y-464936D01*
X-398664Y-462470D01*
X-395443Y-461136D01*
X-391957Y-461136D01*
X-388736Y-462470D01*
X-386270Y-464936D01*
X-384936Y-468157D01*
X-384936Y-471643D01*
X-386270Y-474864D01*
X-388736Y-477330D01*
X-391957Y-478664D01*
X-395443Y-478664D01*
G37*
%LPD*%
%LPC*%
G36*
X-344643Y-478664D02*
X-344643Y-478664D01*
X-347864Y-477330D01*
X-350330Y-474864D01*
X-351664Y-471643D01*
X-351664Y-468157D01*
X-350330Y-464936D01*
X-347864Y-462470D01*
X-344643Y-461136D01*
X-341157Y-461136D01*
X-337936Y-462470D01*
X-335470Y-464936D01*
X-334136Y-468157D01*
X-334136Y-471643D01*
X-335470Y-474864D01*
X-337936Y-477330D01*
X-341157Y-478664D01*
X-344643Y-478664D01*
G37*
%LPD*%
%LPC*%
G36*
X-243043Y-478664D02*
X-243043Y-478664D01*
X-246264Y-477330D01*
X-248730Y-474864D01*
X-250064Y-471643D01*
X-250064Y-468157D01*
X-248730Y-464936D01*
X-246264Y-462470D01*
X-243043Y-461136D01*
X-239557Y-461136D01*
X-236336Y-462470D01*
X-233870Y-464936D01*
X-232536Y-468157D01*
X-232536Y-471643D01*
X-233870Y-474864D01*
X-236336Y-477330D01*
X-239557Y-478664D01*
X-243043Y-478664D01*
G37*
%LPD*%
%LPC*%
G36*
X-319243Y-478664D02*
X-319243Y-478664D01*
X-322464Y-477330D01*
X-324930Y-474864D01*
X-326264Y-471643D01*
X-326264Y-468157D01*
X-324930Y-464936D01*
X-322464Y-462470D01*
X-319243Y-461136D01*
X-315757Y-461136D01*
X-312536Y-462470D01*
X-310070Y-464936D01*
X-308736Y-468157D01*
X-308736Y-471643D01*
X-310070Y-474864D01*
X-312536Y-477330D01*
X-315757Y-478664D01*
X-319243Y-478664D01*
G37*
%LPD*%
%LPC*%
G36*
X-293843Y-478664D02*
X-293843Y-478664D01*
X-297064Y-477330D01*
X-299530Y-474864D01*
X-300864Y-471643D01*
X-300864Y-468157D01*
X-299530Y-464936D01*
X-297064Y-462470D01*
X-293843Y-461136D01*
X-290357Y-461136D01*
X-287136Y-462470D01*
X-284670Y-464936D01*
X-283336Y-468157D01*
X-283336Y-471643D01*
X-284670Y-474864D01*
X-287136Y-477330D01*
X-290357Y-478664D01*
X-293843Y-478664D01*
G37*
%LPD*%
%LPC*%
G36*
X-268443Y-478664D02*
X-268443Y-478664D01*
X-271664Y-477330D01*
X-274130Y-474864D01*
X-275464Y-471643D01*
X-275464Y-468157D01*
X-274130Y-464936D01*
X-271664Y-462470D01*
X-268443Y-461136D01*
X-264957Y-461136D01*
X-261736Y-462470D01*
X-259270Y-464936D01*
X-257936Y-468157D01*
X-257936Y-471643D01*
X-259270Y-474864D01*
X-261736Y-477330D01*
X-264957Y-478664D01*
X-268443Y-478664D01*
G37*
%LPD*%
%LPC*%
G36*
X-116043Y-377064D02*
X-116043Y-377064D01*
X-119264Y-375730D01*
X-121730Y-373264D01*
X-123064Y-370043D01*
X-123064Y-366557D01*
X-121730Y-363336D01*
X-119264Y-360870D01*
X-116043Y-359536D01*
X-112557Y-359536D01*
X-109336Y-360870D01*
X-106870Y-363336D01*
X-105536Y-366557D01*
X-105536Y-370043D01*
X-106870Y-373264D01*
X-109336Y-375730D01*
X-112557Y-377064D01*
X-116043Y-377064D01*
G37*
%LPD*%
%LPC*%
G36*
X-370043Y-351664D02*
X-370043Y-351664D01*
X-373264Y-350330D01*
X-375730Y-347864D01*
X-377064Y-344643D01*
X-377064Y-341157D01*
X-375730Y-337936D01*
X-373264Y-335470D01*
X-370043Y-334136D01*
X-366557Y-334136D01*
X-363336Y-335470D01*
X-360870Y-337936D01*
X-359536Y-341157D01*
X-359536Y-344643D01*
X-360870Y-347864D01*
X-363336Y-350330D01*
X-366557Y-351664D01*
X-370043Y-351664D01*
G37*
%LPD*%
%LPC*%
G36*
X-319243Y-351664D02*
X-319243Y-351664D01*
X-322464Y-350330D01*
X-324930Y-347864D01*
X-326264Y-344643D01*
X-326264Y-341157D01*
X-324930Y-337936D01*
X-322464Y-335470D01*
X-319243Y-334136D01*
X-315757Y-334136D01*
X-312536Y-335470D01*
X-310070Y-337936D01*
X-308736Y-341157D01*
X-308736Y-344643D01*
X-310070Y-347864D01*
X-312536Y-350330D01*
X-315757Y-351664D01*
X-319243Y-351664D01*
G37*
%LPD*%
%LPC*%
G36*
X-344643Y-351664D02*
X-344643Y-351664D01*
X-347864Y-350330D01*
X-350330Y-347864D01*
X-351664Y-344643D01*
X-351664Y-341157D01*
X-350330Y-337936D01*
X-347864Y-335470D01*
X-344643Y-334136D01*
X-341157Y-334136D01*
X-337936Y-335470D01*
X-335470Y-337936D01*
X-334136Y-341157D01*
X-334136Y-344643D01*
X-335470Y-347864D01*
X-337936Y-350330D01*
X-341157Y-351664D01*
X-344643Y-351664D01*
G37*
%LPD*%
%LPC*%
G36*
X-116043Y-351664D02*
X-116043Y-351664D01*
X-119264Y-350330D01*
X-121730Y-347864D01*
X-123064Y-344643D01*
X-123064Y-341157D01*
X-121730Y-337936D01*
X-119264Y-335470D01*
X-116043Y-334136D01*
X-112557Y-334136D01*
X-109336Y-335470D01*
X-106870Y-337936D01*
X-105536Y-341157D01*
X-105536Y-344643D01*
X-106870Y-347864D01*
X-109336Y-350330D01*
X-112557Y-351664D01*
X-116043Y-351664D01*
G37*
%LPD*%
%LPC*%
G36*
X-395443Y-326264D02*
X-395443Y-326264D01*
X-398664Y-324930D01*
X-401130Y-322464D01*
X-402464Y-319243D01*
X-402464Y-315757D01*
X-401130Y-312536D01*
X-398664Y-310070D01*
X-395443Y-308736D01*
X-391957Y-308736D01*
X-388736Y-310070D01*
X-386270Y-312536D01*
X-384936Y-315757D01*
X-384936Y-319243D01*
X-386270Y-322464D01*
X-388736Y-324930D01*
X-391957Y-326264D01*
X-395443Y-326264D01*
G37*
%LPD*%
%LPC*%
G36*
X-192243Y-326264D02*
X-192243Y-326264D01*
X-195464Y-324930D01*
X-197930Y-322464D01*
X-199264Y-319243D01*
X-199264Y-315757D01*
X-197930Y-312536D01*
X-195464Y-310070D01*
X-192243Y-308736D01*
X-188757Y-308736D01*
X-185536Y-310070D01*
X-183070Y-312536D01*
X-181736Y-315757D01*
X-181736Y-319243D01*
X-183070Y-322464D01*
X-185536Y-324930D01*
X-188757Y-326264D01*
X-192243Y-326264D01*
G37*
%LPD*%
%LPC*%
G36*
X-370043Y-326264D02*
X-370043Y-326264D01*
X-373264Y-324930D01*
X-375730Y-322464D01*
X-377064Y-319243D01*
X-377064Y-315757D01*
X-375730Y-312536D01*
X-373264Y-310070D01*
X-370043Y-308736D01*
X-366557Y-308736D01*
X-363336Y-310070D01*
X-360870Y-312536D01*
X-359536Y-315757D01*
X-359536Y-319243D01*
X-360870Y-322464D01*
X-363336Y-324930D01*
X-366557Y-326264D01*
X-370043Y-326264D01*
G37*
%LPD*%
%LPC*%
G36*
X-243043Y-326264D02*
X-243043Y-326264D01*
X-246264Y-324930D01*
X-248730Y-322464D01*
X-250064Y-319243D01*
X-250064Y-315757D01*
X-248730Y-312536D01*
X-246264Y-310070D01*
X-243043Y-308736D01*
X-239557Y-308736D01*
X-236336Y-310070D01*
X-233870Y-312536D01*
X-232536Y-315757D01*
X-232536Y-319243D01*
X-233870Y-322464D01*
X-236336Y-324930D01*
X-239557Y-326264D01*
X-243043Y-326264D01*
G37*
%LPD*%
%LPC*%
G36*
X-166843Y-326264D02*
X-166843Y-326264D01*
X-170064Y-324930D01*
X-172530Y-322464D01*
X-173864Y-319243D01*
X-173864Y-315757D01*
X-172530Y-312536D01*
X-170064Y-310070D01*
X-166843Y-308736D01*
X-163357Y-308736D01*
X-160136Y-310070D01*
X-157670Y-312536D01*
X-156336Y-315757D01*
X-156336Y-319243D01*
X-157670Y-322464D01*
X-160136Y-324930D01*
X-163357Y-326264D01*
X-166843Y-326264D01*
G37*
%LPD*%
%LPC*%
G36*
X-141443Y-326264D02*
X-141443Y-326264D01*
X-144664Y-324930D01*
X-147130Y-322464D01*
X-148464Y-319243D01*
X-148464Y-315757D01*
X-147130Y-312536D01*
X-144664Y-310070D01*
X-141443Y-308736D01*
X-137957Y-308736D01*
X-134736Y-310070D01*
X-132270Y-312536D01*
X-130936Y-315757D01*
X-130936Y-319243D01*
X-132270Y-322464D01*
X-134736Y-324930D01*
X-137957Y-326264D01*
X-141443Y-326264D01*
G37*
%LPD*%
%LPC*%
G36*
X-116043Y-326264D02*
X-116043Y-326264D01*
X-119264Y-324930D01*
X-121730Y-322464D01*
X-123064Y-319243D01*
X-123064Y-315757D01*
X-121730Y-312536D01*
X-119264Y-310070D01*
X-116043Y-308736D01*
X-112557Y-308736D01*
X-109336Y-310070D01*
X-106870Y-312536D01*
X-105536Y-315757D01*
X-105536Y-319243D01*
X-106870Y-322464D01*
X-109336Y-324930D01*
X-112557Y-326264D01*
X-116043Y-326264D01*
G37*
%LPD*%
%LPC*%
G36*
X-446243Y-326264D02*
X-446243Y-326264D01*
X-449464Y-324930D01*
X-451930Y-322464D01*
X-453264Y-319243D01*
X-453264Y-315757D01*
X-451930Y-312536D01*
X-449464Y-310070D01*
X-446243Y-308736D01*
X-442757Y-308736D01*
X-439536Y-310070D01*
X-437070Y-312536D01*
X-435736Y-315757D01*
X-435736Y-319243D01*
X-437070Y-322464D01*
X-439536Y-324930D01*
X-442757Y-326264D01*
X-446243Y-326264D01*
G37*
%LPD*%
%LPC*%
G36*
X-293843Y-326264D02*
X-293843Y-326264D01*
X-297064Y-324930D01*
X-299530Y-322464D01*
X-300864Y-319243D01*
X-300864Y-315757D01*
X-299530Y-312536D01*
X-297064Y-310070D01*
X-293843Y-308736D01*
X-290357Y-308736D01*
X-287136Y-310070D01*
X-284670Y-312536D01*
X-283336Y-315757D01*
X-283336Y-319243D01*
X-284670Y-322464D01*
X-287136Y-324930D01*
X-290357Y-326264D01*
X-293843Y-326264D01*
G37*
%LPD*%
%LPC*%
G36*
X220512Y-119499D02*
X220512Y-119499D01*
X217701Y-116688D01*
X217701Y-112712D01*
X220512Y-109901D01*
X224506Y-109901D01*
X224512Y-109907D01*
X224559Y-109928D01*
X224601Y-109959D01*
X224670Y-109980D01*
X224735Y-110010D01*
X224787Y-110016D01*
X224836Y-110031D01*
X224908Y-110029D01*
X224979Y-110037D01*
X225030Y-110026D01*
X225082Y-110025D01*
X225150Y-110000D01*
X225220Y-109985D01*
X225265Y-109958D01*
X225313Y-109940D01*
X225369Y-109896D01*
X225431Y-109859D01*
X225465Y-109819D01*
X225505Y-109787D01*
X225544Y-109726D01*
X225591Y-109672D01*
X225610Y-109624D01*
X225638Y-109580D01*
X225656Y-109510D01*
X225683Y-109444D01*
X225691Y-109373D01*
X225699Y-109341D01*
X225697Y-109318D01*
X225701Y-109277D01*
X225701Y-106712D01*
X228512Y-103901D01*
X232488Y-103901D01*
X235299Y-106712D01*
X235299Y-110688D01*
X232488Y-113499D01*
X228494Y-113499D01*
X228488Y-113493D01*
X228441Y-113472D01*
X228399Y-113441D01*
X228330Y-113420D01*
X228265Y-113390D01*
X228213Y-113384D01*
X228164Y-113369D01*
X228092Y-113371D01*
X228021Y-113363D01*
X227970Y-113374D01*
X227918Y-113375D01*
X227850Y-113400D01*
X227780Y-113415D01*
X227735Y-113442D01*
X227687Y-113460D01*
X227631Y-113504D01*
X227569Y-113541D01*
X227535Y-113581D01*
X227495Y-113613D01*
X227456Y-113674D01*
X227409Y-113728D01*
X227390Y-113776D01*
X227362Y-113820D01*
X227344Y-113890D01*
X227317Y-113956D01*
X227309Y-114027D01*
X227301Y-114059D01*
X227303Y-114082D01*
X227299Y-114123D01*
X227299Y-116688D01*
X224488Y-119499D01*
X220512Y-119499D01*
G37*
%LPD*%
%LPC*%
G36*
X220512Y-345499D02*
X220512Y-345499D01*
X217701Y-342688D01*
X217701Y-338712D01*
X220512Y-335901D01*
X224506Y-335901D01*
X224512Y-335907D01*
X224559Y-335928D01*
X224601Y-335959D01*
X224670Y-335980D01*
X224735Y-336010D01*
X224787Y-336016D01*
X224836Y-336031D01*
X224908Y-336029D01*
X224979Y-336037D01*
X225030Y-336026D01*
X225082Y-336025D01*
X225150Y-336000D01*
X225220Y-335985D01*
X225265Y-335958D01*
X225313Y-335940D01*
X225369Y-335896D01*
X225431Y-335859D01*
X225465Y-335819D01*
X225505Y-335787D01*
X225544Y-335726D01*
X225591Y-335672D01*
X225610Y-335624D01*
X225638Y-335580D01*
X225656Y-335510D01*
X225683Y-335444D01*
X225691Y-335373D01*
X225699Y-335341D01*
X225697Y-335318D01*
X225701Y-335277D01*
X225701Y-332712D01*
X228512Y-329901D01*
X232488Y-329901D01*
X235299Y-332712D01*
X235299Y-336688D01*
X232488Y-339499D01*
X228494Y-339499D01*
X228488Y-339493D01*
X228441Y-339472D01*
X228399Y-339441D01*
X228330Y-339420D01*
X228265Y-339390D01*
X228213Y-339384D01*
X228164Y-339369D01*
X228092Y-339371D01*
X228021Y-339363D01*
X227970Y-339374D01*
X227918Y-339375D01*
X227850Y-339400D01*
X227780Y-339415D01*
X227735Y-339442D01*
X227687Y-339460D01*
X227631Y-339504D01*
X227569Y-339541D01*
X227535Y-339581D01*
X227495Y-339613D01*
X227456Y-339674D01*
X227409Y-339728D01*
X227390Y-339776D01*
X227362Y-339820D01*
X227344Y-339890D01*
X227317Y-339956D01*
X227309Y-340027D01*
X227301Y-340059D01*
X227303Y-340082D01*
X227299Y-340123D01*
X227299Y-342688D01*
X224488Y-345499D01*
X220512Y-345499D01*
G37*
%LPD*%
%LPC*%
G36*
X220512Y-232499D02*
X220512Y-232499D01*
X217701Y-229688D01*
X217701Y-225712D01*
X220512Y-222901D01*
X224506Y-222901D01*
X224512Y-222907D01*
X224559Y-222928D01*
X224601Y-222959D01*
X224670Y-222980D01*
X224735Y-223010D01*
X224787Y-223016D01*
X224836Y-223031D01*
X224908Y-223029D01*
X224979Y-223037D01*
X225030Y-223026D01*
X225082Y-223025D01*
X225150Y-223000D01*
X225220Y-222985D01*
X225265Y-222958D01*
X225313Y-222940D01*
X225369Y-222896D01*
X225431Y-222859D01*
X225465Y-222819D01*
X225505Y-222787D01*
X225544Y-222726D01*
X225591Y-222672D01*
X225610Y-222624D01*
X225638Y-222580D01*
X225656Y-222510D01*
X225683Y-222444D01*
X225691Y-222373D01*
X225699Y-222341D01*
X225697Y-222318D01*
X225701Y-222277D01*
X225701Y-219712D01*
X228512Y-216901D01*
X232488Y-216901D01*
X235299Y-219712D01*
X235299Y-223688D01*
X232488Y-226499D01*
X228494Y-226499D01*
X228488Y-226493D01*
X228441Y-226472D01*
X228399Y-226441D01*
X228330Y-226420D01*
X228265Y-226390D01*
X228213Y-226384D01*
X228164Y-226369D01*
X228092Y-226371D01*
X228021Y-226363D01*
X227970Y-226374D01*
X227918Y-226375D01*
X227850Y-226400D01*
X227780Y-226415D01*
X227735Y-226442D01*
X227687Y-226460D01*
X227631Y-226504D01*
X227569Y-226541D01*
X227535Y-226581D01*
X227495Y-226613D01*
X227456Y-226674D01*
X227409Y-226728D01*
X227390Y-226776D01*
X227362Y-226820D01*
X227344Y-226890D01*
X227317Y-226956D01*
X227309Y-227027D01*
X227301Y-227059D01*
X227303Y-227082D01*
X227299Y-227123D01*
X227299Y-229688D01*
X224488Y-232499D01*
X220512Y-232499D01*
G37*
%LPD*%
%LPC*%
G36*
X264712Y-319759D02*
X264712Y-319759D01*
X261901Y-316948D01*
X261901Y-312972D01*
X264712Y-310161D01*
X268688Y-310161D01*
X269972Y-311445D01*
X269988Y-311457D01*
X270000Y-311472D01*
X270088Y-311529D01*
X270171Y-311589D01*
X270190Y-311595D01*
X270207Y-311605D01*
X270308Y-311631D01*
X270407Y-311661D01*
X270426Y-311661D01*
X270446Y-311666D01*
X270549Y-311658D01*
X270652Y-311655D01*
X270671Y-311648D01*
X270691Y-311646D01*
X270786Y-311606D01*
X270883Y-311570D01*
X270899Y-311558D01*
X270917Y-311550D01*
X271048Y-311445D01*
X272332Y-310161D01*
X276308Y-310161D01*
X279119Y-312972D01*
X279119Y-316948D01*
X276308Y-319759D01*
X272332Y-319759D01*
X271048Y-318475D01*
X271032Y-318463D01*
X271020Y-318448D01*
X270932Y-318391D01*
X270849Y-318331D01*
X270830Y-318325D01*
X270813Y-318315D01*
X270712Y-318289D01*
X270613Y-318259D01*
X270594Y-318259D01*
X270574Y-318254D01*
X270471Y-318262D01*
X270368Y-318265D01*
X270349Y-318272D01*
X270329Y-318274D01*
X270234Y-318314D01*
X270137Y-318350D01*
X270121Y-318362D01*
X270103Y-318370D01*
X269972Y-318475D01*
X268688Y-319759D01*
X264712Y-319759D01*
G37*
%LPD*%
%LPC*%
G36*
X264712Y-206729D02*
X264712Y-206729D01*
X261901Y-203918D01*
X261901Y-199942D01*
X264712Y-197131D01*
X268688Y-197131D01*
X269972Y-198415D01*
X269988Y-198427D01*
X270000Y-198442D01*
X270088Y-198499D01*
X270171Y-198559D01*
X270190Y-198565D01*
X270207Y-198575D01*
X270308Y-198601D01*
X270407Y-198631D01*
X270426Y-198631D01*
X270446Y-198636D01*
X270549Y-198628D01*
X270652Y-198625D01*
X270671Y-198618D01*
X270691Y-198616D01*
X270786Y-198576D01*
X270883Y-198540D01*
X270899Y-198528D01*
X270917Y-198520D01*
X271048Y-198415D01*
X272332Y-197131D01*
X276308Y-197131D01*
X279119Y-199942D01*
X279119Y-203918D01*
X276308Y-206729D01*
X272332Y-206729D01*
X271048Y-205445D01*
X271032Y-205433D01*
X271020Y-205418D01*
X270932Y-205361D01*
X270849Y-205301D01*
X270830Y-205295D01*
X270813Y-205285D01*
X270712Y-205259D01*
X270613Y-205229D01*
X270594Y-205229D01*
X270574Y-205224D01*
X270471Y-205232D01*
X270368Y-205235D01*
X270349Y-205242D01*
X270329Y-205244D01*
X270234Y-205284D01*
X270137Y-205320D01*
X270121Y-205332D01*
X270103Y-205340D01*
X269972Y-205445D01*
X268688Y-206729D01*
X264712Y-206729D01*
G37*
%LPD*%
%LPC*%
G36*
X168192Y-323189D02*
X168192Y-323189D01*
X165381Y-320378D01*
X165381Y-316402D01*
X168192Y-313591D01*
X172168Y-313591D01*
X173452Y-314875D01*
X173468Y-314887D01*
X173480Y-314902D01*
X173568Y-314959D01*
X173651Y-315019D01*
X173670Y-315025D01*
X173687Y-315035D01*
X173788Y-315061D01*
X173887Y-315091D01*
X173906Y-315091D01*
X173926Y-315096D01*
X174029Y-315088D01*
X174132Y-315085D01*
X174151Y-315078D01*
X174171Y-315076D01*
X174266Y-315036D01*
X174363Y-315000D01*
X174379Y-314988D01*
X174397Y-314980D01*
X174528Y-314875D01*
X175812Y-313591D01*
X179788Y-313591D01*
X182599Y-316402D01*
X182599Y-320378D01*
X179788Y-323189D01*
X175812Y-323189D01*
X174528Y-321905D01*
X174512Y-321893D01*
X174500Y-321878D01*
X174412Y-321821D01*
X174329Y-321761D01*
X174310Y-321755D01*
X174293Y-321745D01*
X174192Y-321719D01*
X174093Y-321689D01*
X174074Y-321689D01*
X174054Y-321684D01*
X173951Y-321692D01*
X173848Y-321695D01*
X173829Y-321702D01*
X173809Y-321704D01*
X173714Y-321744D01*
X173617Y-321780D01*
X173601Y-321792D01*
X173583Y-321800D01*
X173452Y-321905D01*
X172168Y-323189D01*
X168192Y-323189D01*
G37*
%LPD*%
%LPC*%
G36*
X168192Y-209269D02*
X168192Y-209269D01*
X165381Y-206458D01*
X165381Y-202482D01*
X168192Y-199671D01*
X172168Y-199671D01*
X173452Y-200955D01*
X173468Y-200967D01*
X173480Y-200982D01*
X173568Y-201039D01*
X173651Y-201099D01*
X173670Y-201105D01*
X173687Y-201115D01*
X173788Y-201141D01*
X173887Y-201171D01*
X173906Y-201171D01*
X173926Y-201176D01*
X174029Y-201168D01*
X174132Y-201165D01*
X174151Y-201158D01*
X174171Y-201156D01*
X174266Y-201116D01*
X174363Y-201080D01*
X174379Y-201068D01*
X174397Y-201060D01*
X174528Y-200955D01*
X175812Y-199671D01*
X179788Y-199671D01*
X182599Y-202482D01*
X182599Y-206458D01*
X179788Y-209269D01*
X175812Y-209269D01*
X174528Y-207985D01*
X174512Y-207973D01*
X174500Y-207958D01*
X174412Y-207901D01*
X174329Y-207841D01*
X174310Y-207835D01*
X174293Y-207825D01*
X174192Y-207799D01*
X174093Y-207769D01*
X174074Y-207769D01*
X174054Y-207764D01*
X173951Y-207772D01*
X173848Y-207775D01*
X173829Y-207782D01*
X173809Y-207784D01*
X173714Y-207824D01*
X173617Y-207860D01*
X173601Y-207872D01*
X173583Y-207880D01*
X173452Y-207985D01*
X172168Y-209269D01*
X168192Y-209269D01*
G37*
%LPD*%
%LPC*%
G36*
X168192Y-96239D02*
X168192Y-96239D01*
X165381Y-93428D01*
X165381Y-89452D01*
X168192Y-86641D01*
X172168Y-86641D01*
X173452Y-87925D01*
X173468Y-87937D01*
X173480Y-87952D01*
X173568Y-88009D01*
X173651Y-88069D01*
X173670Y-88075D01*
X173687Y-88085D01*
X173788Y-88111D01*
X173887Y-88141D01*
X173906Y-88141D01*
X173926Y-88146D01*
X174029Y-88138D01*
X174132Y-88135D01*
X174151Y-88128D01*
X174171Y-88126D01*
X174266Y-88086D01*
X174363Y-88050D01*
X174379Y-88038D01*
X174397Y-88030D01*
X174528Y-87925D01*
X175812Y-86641D01*
X179788Y-86641D01*
X182599Y-89452D01*
X182599Y-93428D01*
X179788Y-96239D01*
X175812Y-96239D01*
X174528Y-94955D01*
X174512Y-94943D01*
X174500Y-94928D01*
X174412Y-94871D01*
X174329Y-94811D01*
X174310Y-94805D01*
X174293Y-94795D01*
X174192Y-94769D01*
X174093Y-94739D01*
X174074Y-94739D01*
X174054Y-94734D01*
X173951Y-94742D01*
X173848Y-94745D01*
X173829Y-94752D01*
X173809Y-94754D01*
X173714Y-94794D01*
X173617Y-94830D01*
X173601Y-94842D01*
X173583Y-94850D01*
X173452Y-94955D01*
X172168Y-96239D01*
X168192Y-96239D01*
G37*
%LPD*%
%LPC*%
G36*
X264712Y-93699D02*
X264712Y-93699D01*
X261901Y-90888D01*
X261901Y-86912D01*
X264712Y-84101D01*
X268688Y-84101D01*
X269972Y-85385D01*
X269988Y-85397D01*
X270000Y-85412D01*
X270088Y-85469D01*
X270171Y-85529D01*
X270190Y-85535D01*
X270207Y-85545D01*
X270308Y-85571D01*
X270407Y-85601D01*
X270426Y-85601D01*
X270446Y-85606D01*
X270549Y-85598D01*
X270652Y-85595D01*
X270671Y-85588D01*
X270691Y-85586D01*
X270786Y-85546D01*
X270883Y-85510D01*
X270899Y-85498D01*
X270917Y-85490D01*
X271048Y-85385D01*
X272332Y-84101D01*
X276308Y-84101D01*
X279119Y-86912D01*
X279119Y-90888D01*
X276308Y-93699D01*
X272332Y-93699D01*
X271048Y-92415D01*
X271032Y-92403D01*
X271020Y-92388D01*
X270932Y-92331D01*
X270849Y-92271D01*
X270830Y-92265D01*
X270813Y-92255D01*
X270712Y-92229D01*
X270613Y-92199D01*
X270594Y-92199D01*
X270574Y-92194D01*
X270471Y-92202D01*
X270368Y-92205D01*
X270349Y-92212D01*
X270329Y-92214D01*
X270234Y-92254D01*
X270137Y-92290D01*
X270121Y-92302D01*
X270103Y-92310D01*
X269972Y-92415D01*
X268688Y-93699D01*
X264712Y-93699D01*
G37*
%LPD*%
%LPC*%
G36*
X-327407Y-170941D02*
X-327407Y-170941D01*
X-327407Y-163423D01*
X-308863Y-163423D01*
X-308863Y-170941D01*
X-315174Y-170941D01*
X-315821Y-170768D01*
X-316400Y-170433D01*
X-316873Y-169960D01*
X-317208Y-169381D01*
X-317400Y-168664D01*
X-317419Y-168620D01*
X-317430Y-168573D01*
X-317470Y-168509D01*
X-317501Y-168440D01*
X-317534Y-168404D01*
X-317559Y-168363D01*
X-317617Y-168315D01*
X-317668Y-168259D01*
X-317710Y-168236D01*
X-317747Y-168206D01*
X-317818Y-168178D01*
X-317884Y-168142D01*
X-317932Y-168134D01*
X-317976Y-168116D01*
X-318052Y-168113D01*
X-318127Y-168100D01*
X-318174Y-168107D01*
X-318222Y-168104D01*
X-318295Y-168125D01*
X-318370Y-168137D01*
X-318412Y-168159D01*
X-318459Y-168172D01*
X-318521Y-168215D01*
X-318589Y-168249D01*
X-318622Y-168284D01*
X-318661Y-168311D01*
X-318707Y-168371D01*
X-318760Y-168426D01*
X-318780Y-168469D01*
X-318809Y-168507D01*
X-318856Y-168628D01*
X-318866Y-168648D01*
X-318867Y-168654D01*
X-318870Y-168664D01*
X-319062Y-169381D01*
X-319397Y-169960D01*
X-319870Y-170433D01*
X-320449Y-170768D01*
X-321096Y-170941D01*
X-327407Y-170941D01*
G37*
%LPD*%
%LPC*%
G36*
X-327407Y-160377D02*
X-327407Y-160377D01*
X-327407Y-152859D01*
X-321096Y-152859D01*
X-320449Y-153032D01*
X-319870Y-153367D01*
X-319397Y-153840D01*
X-319062Y-154419D01*
X-318870Y-155136D01*
X-318851Y-155180D01*
X-318840Y-155227D01*
X-318800Y-155291D01*
X-318769Y-155360D01*
X-318736Y-155396D01*
X-318711Y-155437D01*
X-318653Y-155485D01*
X-318602Y-155541D01*
X-318560Y-155564D01*
X-318523Y-155594D01*
X-318452Y-155622D01*
X-318386Y-155658D01*
X-318338Y-155666D01*
X-318294Y-155684D01*
X-318218Y-155687D01*
X-318143Y-155700D01*
X-318096Y-155693D01*
X-318048Y-155696D01*
X-317975Y-155675D01*
X-317900Y-155663D01*
X-317857Y-155641D01*
X-317811Y-155628D01*
X-317749Y-155585D01*
X-317682Y-155551D01*
X-317648Y-155516D01*
X-317609Y-155489D01*
X-317563Y-155429D01*
X-317510Y-155374D01*
X-317490Y-155331D01*
X-317461Y-155293D01*
X-317414Y-155172D01*
X-317404Y-155152D01*
X-317403Y-155146D01*
X-317400Y-155136D01*
X-317208Y-154419D01*
X-316873Y-153840D01*
X-316400Y-153367D01*
X-315821Y-153032D01*
X-315174Y-152859D01*
X-308863Y-152859D01*
X-308863Y-160377D01*
X-327407Y-160377D01*
G37*
%LPD*%
%LPC*%
G36*
X515423Y-33723D02*
X515423Y-33723D01*
X528381Y-33723D01*
X528083Y-35605D01*
X527375Y-37782D01*
X526336Y-39821D01*
X524991Y-41673D01*
X523373Y-43291D01*
X521521Y-44636D01*
X519482Y-45675D01*
X517305Y-46383D01*
X515423Y-46681D01*
X515423Y-33723D01*
G37*
%LPD*%
%LPC*%
G36*
X452823Y-451923D02*
X452823Y-451923D01*
X465781Y-451923D01*
X465483Y-453805D01*
X464775Y-455982D01*
X463736Y-458021D01*
X462391Y-459873D01*
X460773Y-461491D01*
X458921Y-462836D01*
X456882Y-463875D01*
X454705Y-464583D01*
X452823Y-464881D01*
X452823Y-451923D01*
G37*
%LPD*%
%LPC*%
G36*
X515423Y-274123D02*
X515423Y-274123D01*
X528381Y-274123D01*
X528083Y-276005D01*
X527375Y-278182D01*
X526336Y-280221D01*
X524991Y-282073D01*
X523373Y-283691D01*
X521521Y-285036D01*
X519482Y-286075D01*
X517305Y-286783D01*
X515423Y-287081D01*
X515423Y-274123D01*
G37*
%LPD*%
%LPC*%
G36*
X452823Y-33723D02*
X452823Y-33723D01*
X465781Y-33723D01*
X465483Y-35605D01*
X464775Y-37782D01*
X463736Y-39821D01*
X462391Y-41673D01*
X460773Y-43291D01*
X458921Y-44636D01*
X456882Y-45675D01*
X454705Y-46383D01*
X452823Y-46681D01*
X452823Y-33723D01*
G37*
%LPD*%
%LPC*%
G36*
X452823Y-96323D02*
X452823Y-96323D01*
X465781Y-96323D01*
X465483Y-98205D01*
X464775Y-100382D01*
X463736Y-102421D01*
X462391Y-104273D01*
X460773Y-105891D01*
X458921Y-107236D01*
X456882Y-108275D01*
X454705Y-108983D01*
X452823Y-109281D01*
X452823Y-96323D01*
G37*
%LPD*%
%LPC*%
G36*
X515423Y-389323D02*
X515423Y-389323D01*
X528381Y-389323D01*
X528083Y-391205D01*
X527375Y-393382D01*
X526336Y-395421D01*
X524991Y-397273D01*
X523373Y-398891D01*
X521521Y-400236D01*
X519482Y-401275D01*
X517305Y-401983D01*
X515423Y-402281D01*
X515423Y-389323D01*
G37*
%LPD*%
%LPC*%
G36*
X515423Y-211523D02*
X515423Y-211523D01*
X528381Y-211523D01*
X528083Y-213405D01*
X527375Y-215582D01*
X526336Y-217621D01*
X524991Y-219473D01*
X523373Y-221091D01*
X521521Y-222436D01*
X519482Y-223475D01*
X517305Y-224183D01*
X515423Y-224481D01*
X515423Y-211523D01*
G37*
%LPD*%
%LPC*%
G36*
X452823Y-211523D02*
X452823Y-211523D01*
X465781Y-211523D01*
X465483Y-213405D01*
X464775Y-215582D01*
X463736Y-217621D01*
X462391Y-219473D01*
X460773Y-221091D01*
X458921Y-222436D01*
X456882Y-223475D01*
X454705Y-224183D01*
X452823Y-224481D01*
X452823Y-211523D01*
G37*
%LPD*%
%LPC*%
G36*
X452823Y-389323D02*
X452823Y-389323D01*
X465781Y-389323D01*
X465483Y-391205D01*
X464775Y-393382D01*
X463736Y-395421D01*
X462391Y-397273D01*
X460773Y-398891D01*
X458921Y-400236D01*
X456882Y-401275D01*
X454705Y-401983D01*
X452823Y-402281D01*
X452823Y-389323D01*
G37*
%LPD*%
%LPC*%
G36*
X515423Y-451923D02*
X515423Y-451923D01*
X528381Y-451923D01*
X528083Y-453805D01*
X527375Y-455982D01*
X526336Y-458021D01*
X524991Y-459873D01*
X523373Y-461491D01*
X521521Y-462836D01*
X519482Y-463875D01*
X517305Y-464583D01*
X515423Y-464881D01*
X515423Y-451923D01*
G37*
%LPD*%
%LPC*%
G36*
X452823Y-274123D02*
X452823Y-274123D01*
X465781Y-274123D01*
X465483Y-276005D01*
X464775Y-278182D01*
X463736Y-280221D01*
X462391Y-282073D01*
X460773Y-283691D01*
X458921Y-285036D01*
X456882Y-286075D01*
X454705Y-286783D01*
X452823Y-287081D01*
X452823Y-274123D01*
G37*
%LPD*%
%LPC*%
G36*
X515423Y-96323D02*
X515423Y-96323D01*
X528381Y-96323D01*
X528083Y-98205D01*
X527375Y-100382D01*
X526336Y-102421D01*
X524991Y-104273D01*
X523373Y-105891D01*
X521521Y-107236D01*
X519482Y-108275D01*
X517305Y-108983D01*
X515423Y-109281D01*
X515423Y-96323D01*
G37*
%LPD*%
%LPC*%
G36*
X452823Y-448877D02*
X452823Y-448877D01*
X452823Y-435919D01*
X454705Y-436217D01*
X456882Y-436925D01*
X458921Y-437964D01*
X460773Y-439309D01*
X462391Y-440927D01*
X463736Y-442779D01*
X464775Y-444818D01*
X465483Y-446995D01*
X465781Y-448877D01*
X452823Y-448877D01*
G37*
%LPD*%
%LPC*%
G36*
X452823Y-30677D02*
X452823Y-30677D01*
X452823Y-17719D01*
X454705Y-18017D01*
X456882Y-18725D01*
X458921Y-19764D01*
X460773Y-21109D01*
X462391Y-22727D01*
X463736Y-24579D01*
X464775Y-26618D01*
X465483Y-28795D01*
X465781Y-30677D01*
X452823Y-30677D01*
G37*
%LPD*%
%LPC*%
G36*
X515423Y-30677D02*
X515423Y-30677D01*
X515423Y-17719D01*
X517305Y-18017D01*
X519482Y-18725D01*
X521521Y-19764D01*
X523373Y-21109D01*
X524991Y-22727D01*
X526336Y-24579D01*
X527375Y-26618D01*
X528083Y-28795D01*
X528381Y-30677D01*
X515423Y-30677D01*
G37*
%LPD*%
%LPC*%
G36*
X510495Y-224183D02*
X510495Y-224183D01*
X508318Y-223475D01*
X506279Y-222436D01*
X504427Y-221091D01*
X502809Y-219473D01*
X501464Y-217621D01*
X500425Y-215582D01*
X499717Y-213405D01*
X499419Y-211523D01*
X512377Y-211523D01*
X512377Y-224481D01*
X510495Y-224183D01*
G37*
%LPD*%
%LPC*%
G36*
X447895Y-46383D02*
X447895Y-46383D01*
X445718Y-45675D01*
X443679Y-44636D01*
X441827Y-43291D01*
X440209Y-41673D01*
X438864Y-39821D01*
X437825Y-37782D01*
X437117Y-35605D01*
X436819Y-33723D01*
X449777Y-33723D01*
X449777Y-46681D01*
X447895Y-46383D01*
G37*
%LPD*%
%LPC*%
G36*
X447895Y-224183D02*
X447895Y-224183D01*
X445718Y-223475D01*
X443679Y-222436D01*
X441827Y-221091D01*
X440209Y-219473D01*
X438864Y-217621D01*
X437825Y-215582D01*
X437117Y-213405D01*
X436819Y-211523D01*
X449777Y-211523D01*
X449777Y-224481D01*
X447895Y-224183D01*
G37*
%LPD*%
%LPC*%
G36*
X510495Y-401983D02*
X510495Y-401983D01*
X508318Y-401275D01*
X506279Y-400236D01*
X504427Y-398891D01*
X502809Y-397273D01*
X501464Y-395421D01*
X500425Y-393382D01*
X499717Y-391205D01*
X499419Y-389323D01*
X512377Y-389323D01*
X512377Y-402281D01*
X510495Y-401983D01*
G37*
%LPD*%
%LPC*%
G36*
X452823Y-208477D02*
X452823Y-208477D01*
X452823Y-195519D01*
X454705Y-195817D01*
X456882Y-196525D01*
X458921Y-197564D01*
X460773Y-198909D01*
X462391Y-200527D01*
X463736Y-202379D01*
X464775Y-204418D01*
X465483Y-206595D01*
X465781Y-208477D01*
X452823Y-208477D01*
G37*
%LPD*%
%LPC*%
G36*
X452823Y-271077D02*
X452823Y-271077D01*
X452823Y-258119D01*
X454705Y-258417D01*
X456882Y-259125D01*
X458921Y-260164D01*
X460773Y-261509D01*
X462391Y-263127D01*
X463736Y-264979D01*
X464775Y-267018D01*
X465483Y-269195D01*
X465781Y-271077D01*
X452823Y-271077D01*
G37*
%LPD*%
%LPC*%
G36*
X515423Y-271077D02*
X515423Y-271077D01*
X515423Y-258119D01*
X517305Y-258417D01*
X519482Y-259125D01*
X521521Y-260164D01*
X523373Y-261509D01*
X524991Y-263127D01*
X526336Y-264979D01*
X527375Y-267018D01*
X528083Y-269195D01*
X528381Y-271077D01*
X515423Y-271077D01*
G37*
%LPD*%
%LPC*%
G36*
X510495Y-46383D02*
X510495Y-46383D01*
X508318Y-45675D01*
X506279Y-44636D01*
X504427Y-43291D01*
X502809Y-41673D01*
X501464Y-39821D01*
X500425Y-37782D01*
X499717Y-35605D01*
X499419Y-33723D01*
X512377Y-33723D01*
X512377Y-46681D01*
X510495Y-46383D01*
G37*
%LPD*%
%LPC*%
G36*
X447895Y-401983D02*
X447895Y-401983D01*
X445718Y-401275D01*
X443679Y-400236D01*
X441827Y-398891D01*
X440209Y-397273D01*
X438864Y-395421D01*
X437825Y-393382D01*
X437117Y-391205D01*
X436819Y-389323D01*
X449777Y-389323D01*
X449777Y-402281D01*
X447895Y-401983D01*
G37*
%LPD*%
%LPC*%
G36*
X447895Y-464583D02*
X447895Y-464583D01*
X445718Y-463875D01*
X443679Y-462836D01*
X441827Y-461491D01*
X440209Y-459873D01*
X438864Y-458021D01*
X437825Y-455982D01*
X437117Y-453805D01*
X436819Y-451923D01*
X449777Y-451923D01*
X449777Y-464881D01*
X447895Y-464583D01*
G37*
%LPD*%
%LPC*%
G36*
X510495Y-286783D02*
X510495Y-286783D01*
X508318Y-286075D01*
X506279Y-285036D01*
X504427Y-283691D01*
X502809Y-282073D01*
X501464Y-280221D01*
X500425Y-278182D01*
X499717Y-276005D01*
X499419Y-274123D01*
X512377Y-274123D01*
X512377Y-287081D01*
X510495Y-286783D01*
G37*
%LPD*%
%LPC*%
G36*
X510495Y-464583D02*
X510495Y-464583D01*
X508318Y-463875D01*
X506279Y-462836D01*
X504427Y-461491D01*
X502809Y-459873D01*
X501464Y-458021D01*
X500425Y-455982D01*
X499717Y-453805D01*
X499419Y-451923D01*
X512377Y-451923D01*
X512377Y-464881D01*
X510495Y-464583D01*
G37*
%LPD*%
%LPC*%
G36*
X447895Y-108983D02*
X447895Y-108983D01*
X445718Y-108275D01*
X443679Y-107236D01*
X441827Y-105891D01*
X440209Y-104273D01*
X438864Y-102421D01*
X437825Y-100382D01*
X437117Y-98205D01*
X436819Y-96323D01*
X449777Y-96323D01*
X449777Y-109281D01*
X447895Y-108983D01*
G37*
%LPD*%
%LPC*%
G36*
X515423Y-208477D02*
X515423Y-208477D01*
X515423Y-195519D01*
X517305Y-195817D01*
X519482Y-196525D01*
X521521Y-197564D01*
X523373Y-198909D01*
X524991Y-200527D01*
X526336Y-202379D01*
X527375Y-204418D01*
X528083Y-206595D01*
X528381Y-208477D01*
X515423Y-208477D01*
G37*
%LPD*%
%LPC*%
G36*
X452823Y-93277D02*
X452823Y-93277D01*
X452823Y-80319D01*
X454705Y-80617D01*
X456882Y-81325D01*
X458921Y-82364D01*
X460773Y-83709D01*
X462391Y-85327D01*
X463736Y-87179D01*
X464775Y-89218D01*
X465483Y-91395D01*
X465781Y-93277D01*
X452823Y-93277D01*
G37*
%LPD*%
%LPC*%
G36*
X515423Y-386277D02*
X515423Y-386277D01*
X515423Y-373319D01*
X517305Y-373617D01*
X519482Y-374325D01*
X521521Y-375364D01*
X523373Y-376709D01*
X524991Y-378327D01*
X526336Y-380179D01*
X527375Y-382218D01*
X528083Y-384395D01*
X528381Y-386277D01*
X515423Y-386277D01*
G37*
%LPD*%
%LPC*%
G36*
X447895Y-286783D02*
X447895Y-286783D01*
X445718Y-286075D01*
X443679Y-285036D01*
X441827Y-283691D01*
X440209Y-282073D01*
X438864Y-280221D01*
X437825Y-278182D01*
X437117Y-276005D01*
X436819Y-274123D01*
X449777Y-274123D01*
X449777Y-287081D01*
X447895Y-286783D01*
G37*
%LPD*%
%LPC*%
G36*
X515423Y-93277D02*
X515423Y-93277D01*
X515423Y-80319D01*
X517305Y-80617D01*
X519482Y-81325D01*
X521521Y-82364D01*
X523373Y-83709D01*
X524991Y-85327D01*
X526336Y-87179D01*
X527375Y-89218D01*
X528083Y-91395D01*
X528381Y-93277D01*
X515423Y-93277D01*
G37*
%LPD*%
%LPC*%
G36*
X452823Y-386277D02*
X452823Y-386277D01*
X452823Y-373319D01*
X454705Y-373617D01*
X456882Y-374325D01*
X458921Y-375364D01*
X460773Y-376709D01*
X462391Y-378327D01*
X463736Y-380179D01*
X464775Y-382218D01*
X465483Y-384395D01*
X465781Y-386277D01*
X452823Y-386277D01*
G37*
%LPD*%
%LPC*%
G36*
X510495Y-108983D02*
X510495Y-108983D01*
X508318Y-108275D01*
X506279Y-107236D01*
X504427Y-105891D01*
X502809Y-104273D01*
X501464Y-102421D01*
X500425Y-100382D01*
X499717Y-98205D01*
X499419Y-96323D01*
X512377Y-96323D01*
X512377Y-109281D01*
X510495Y-108983D01*
G37*
%LPD*%
%LPC*%
G36*
X515423Y-448877D02*
X515423Y-448877D01*
X515423Y-435919D01*
X517305Y-436217D01*
X519482Y-436925D01*
X521521Y-437964D01*
X523373Y-439309D01*
X524991Y-440927D01*
X526336Y-442779D01*
X527375Y-444818D01*
X528083Y-446995D01*
X528381Y-448877D01*
X515423Y-448877D01*
G37*
%LPD*%
%LPC*%
G36*
X499419Y-93277D02*
X499419Y-93277D01*
X499717Y-91395D01*
X500425Y-89218D01*
X501464Y-87179D01*
X502809Y-85327D01*
X504427Y-83709D01*
X506279Y-82364D01*
X508318Y-81325D01*
X510495Y-80617D01*
X512377Y-80319D01*
X512377Y-93277D01*
X499419Y-93277D01*
G37*
%LPD*%
%LPC*%
G36*
X499419Y-271077D02*
X499419Y-271077D01*
X499717Y-269195D01*
X500425Y-267018D01*
X501464Y-264979D01*
X502809Y-263127D01*
X504427Y-261509D01*
X506279Y-260164D01*
X508318Y-259125D01*
X510495Y-258417D01*
X512377Y-258119D01*
X512377Y-271077D01*
X499419Y-271077D01*
G37*
%LPD*%
%LPC*%
G36*
X436819Y-93277D02*
X436819Y-93277D01*
X437117Y-91395D01*
X437825Y-89218D01*
X438864Y-87179D01*
X440209Y-85327D01*
X441827Y-83709D01*
X443679Y-82364D01*
X445718Y-81325D01*
X447895Y-80617D01*
X449777Y-80319D01*
X449777Y-93277D01*
X436819Y-93277D01*
G37*
%LPD*%
%LPC*%
G36*
X499419Y-208477D02*
X499419Y-208477D01*
X499717Y-206595D01*
X500425Y-204418D01*
X501464Y-202379D01*
X502809Y-200527D01*
X504427Y-198909D01*
X506279Y-197564D01*
X508318Y-196525D01*
X510495Y-195817D01*
X512377Y-195519D01*
X512377Y-208477D01*
X499419Y-208477D01*
G37*
%LPD*%
%LPC*%
G36*
X436819Y-208477D02*
X436819Y-208477D01*
X437117Y-206595D01*
X437825Y-204418D01*
X438864Y-202379D01*
X440209Y-200527D01*
X441827Y-198909D01*
X443679Y-197564D01*
X445718Y-196525D01*
X447895Y-195817D01*
X449777Y-195519D01*
X449777Y-208477D01*
X436819Y-208477D01*
G37*
%LPD*%
%LPC*%
G36*
X436819Y-271077D02*
X436819Y-271077D01*
X437117Y-269195D01*
X437825Y-267018D01*
X438864Y-264979D01*
X440209Y-263127D01*
X441827Y-261509D01*
X443679Y-260164D01*
X445718Y-259125D01*
X447895Y-258417D01*
X449777Y-258119D01*
X449777Y-271077D01*
X436819Y-271077D01*
G37*
%LPD*%
%LPC*%
G36*
X436819Y-386277D02*
X436819Y-386277D01*
X437117Y-384395D01*
X437825Y-382218D01*
X438864Y-380179D01*
X440209Y-378327D01*
X441827Y-376709D01*
X443679Y-375364D01*
X445718Y-374325D01*
X447895Y-373617D01*
X449777Y-373319D01*
X449777Y-386277D01*
X436819Y-386277D01*
G37*
%LPD*%
%LPC*%
G36*
X499419Y-386277D02*
X499419Y-386277D01*
X499717Y-384395D01*
X500425Y-382218D01*
X501464Y-380179D01*
X502809Y-378327D01*
X504427Y-376709D01*
X506279Y-375364D01*
X508318Y-374325D01*
X510495Y-373617D01*
X512377Y-373319D01*
X512377Y-386277D01*
X499419Y-386277D01*
G37*
%LPD*%
%LPC*%
G36*
X499419Y-448877D02*
X499419Y-448877D01*
X499717Y-446995D01*
X500425Y-444818D01*
X501464Y-442779D01*
X502809Y-440927D01*
X504427Y-439309D01*
X506279Y-437964D01*
X508318Y-436925D01*
X510495Y-436217D01*
X512377Y-435919D01*
X512377Y-448877D01*
X499419Y-448877D01*
G37*
%LPD*%
%LPC*%
G36*
X436819Y-30677D02*
X436819Y-30677D01*
X437117Y-28795D01*
X437825Y-26618D01*
X438864Y-24579D01*
X440209Y-22727D01*
X441827Y-21109D01*
X443679Y-19764D01*
X445718Y-18725D01*
X447895Y-18017D01*
X449777Y-17719D01*
X449777Y-30677D01*
X436819Y-30677D01*
G37*
%LPD*%
%LPC*%
G36*
X436819Y-448877D02*
X436819Y-448877D01*
X437117Y-446995D01*
X437825Y-444818D01*
X438864Y-442779D01*
X440209Y-440927D01*
X441827Y-439309D01*
X443679Y-437964D01*
X445718Y-436925D01*
X447895Y-436217D01*
X449777Y-435919D01*
X449777Y-448877D01*
X436819Y-448877D01*
G37*
%LPD*%
%LPC*%
G36*
X499419Y-30677D02*
X499419Y-30677D01*
X499717Y-28795D01*
X500425Y-26618D01*
X501464Y-24579D01*
X502809Y-22727D01*
X504427Y-21109D01*
X506279Y-19764D01*
X508318Y-18725D01*
X510495Y-18017D01*
X512377Y-17719D01*
X512377Y-30677D01*
X499419Y-30677D01*
G37*
%LPD*%
%LPC*%
G36*
X-223359Y-295661D02*
X-223359Y-295661D01*
X-224880Y-295166D01*
X-226305Y-294440D01*
X-227599Y-293500D01*
X-228730Y-292369D01*
X-229670Y-291075D01*
X-230396Y-289650D01*
X-230891Y-288129D01*
X-231141Y-286550D01*
X-231141Y-279653D01*
X-222503Y-279653D01*
X-222503Y-295796D01*
X-223359Y-295661D01*
G37*
%LPD*%
%LPC*%
G36*
X-248759Y-295661D02*
X-248759Y-295661D01*
X-250280Y-295166D01*
X-251705Y-294440D01*
X-252999Y-293500D01*
X-254130Y-292369D01*
X-255070Y-291075D01*
X-255796Y-289650D01*
X-256291Y-288129D01*
X-256541Y-286550D01*
X-256541Y-279653D01*
X-247903Y-279653D01*
X-247903Y-295796D01*
X-248759Y-295661D01*
G37*
%LPD*%
%LPC*%
G36*
X-396079Y-55631D02*
X-396079Y-55631D01*
X-397600Y-55136D01*
X-399025Y-54410D01*
X-400319Y-53470D01*
X-401450Y-52339D01*
X-402390Y-51045D01*
X-403116Y-49620D01*
X-403611Y-48099D01*
X-403861Y-46520D01*
X-403861Y-39623D01*
X-395223Y-39623D01*
X-395223Y-55766D01*
X-396079Y-55631D01*
G37*
%LPD*%
%LPC*%
G36*
X-345279Y-55631D02*
X-345279Y-55631D01*
X-346800Y-55136D01*
X-348225Y-54410D01*
X-349519Y-53470D01*
X-350650Y-52339D01*
X-351590Y-51045D01*
X-352316Y-49620D01*
X-352811Y-48099D01*
X-353061Y-46520D01*
X-353061Y-39623D01*
X-344423Y-39623D01*
X-344423Y-55766D01*
X-345279Y-55631D01*
G37*
%LPD*%
%LPC*%
G36*
X-256541Y-276607D02*
X-256541Y-276607D01*
X-256541Y-269710D01*
X-256291Y-268131D01*
X-255796Y-266610D01*
X-255070Y-265185D01*
X-254130Y-263891D01*
X-252999Y-262760D01*
X-251705Y-261820D01*
X-250280Y-261094D01*
X-248759Y-260599D01*
X-247903Y-260464D01*
X-247903Y-276607D01*
X-256541Y-276607D01*
G37*
%LPD*%
%LPC*%
G36*
X-231141Y-276607D02*
X-231141Y-276607D01*
X-231141Y-269710D01*
X-230891Y-268131D01*
X-230396Y-266610D01*
X-229670Y-265185D01*
X-228730Y-263891D01*
X-227599Y-262760D01*
X-226305Y-261820D01*
X-224880Y-261094D01*
X-223359Y-260599D01*
X-222503Y-260464D01*
X-222503Y-276607D01*
X-231141Y-276607D01*
G37*
%LPD*%
%LPC*%
G36*
X-353061Y-36577D02*
X-353061Y-36577D01*
X-353061Y-29680D01*
X-352811Y-28101D01*
X-352316Y-26580D01*
X-351590Y-25155D01*
X-350650Y-23861D01*
X-349519Y-22730D01*
X-348225Y-21790D01*
X-346800Y-21064D01*
X-345279Y-20569D01*
X-344423Y-20434D01*
X-344423Y-36577D01*
X-353061Y-36577D01*
G37*
%LPD*%
%LPC*%
G36*
X-403861Y-36577D02*
X-403861Y-36577D01*
X-403861Y-29680D01*
X-403611Y-28101D01*
X-403116Y-26580D01*
X-402390Y-25155D01*
X-401450Y-23861D01*
X-400319Y-22730D01*
X-399025Y-21790D01*
X-397600Y-21064D01*
X-396079Y-20569D01*
X-395223Y-20434D01*
X-395223Y-36577D01*
X-403861Y-36577D01*
G37*
%LPD*%
%LPC*%
G36*
X-341377Y-39623D02*
X-341377Y-39623D01*
X-332739Y-39623D01*
X-332739Y-46520D01*
X-332989Y-48099D01*
X-333484Y-49620D01*
X-334210Y-51045D01*
X-335150Y-52339D01*
X-336281Y-53470D01*
X-337575Y-54410D01*
X-339000Y-55136D01*
X-340521Y-55631D01*
X-341377Y-55766D01*
X-341377Y-39623D01*
G37*
%LPD*%
%LPC*%
G36*
X-219457Y-279653D02*
X-219457Y-279653D01*
X-210819Y-279653D01*
X-210819Y-286550D01*
X-211069Y-288129D01*
X-211564Y-289650D01*
X-212290Y-291075D01*
X-213230Y-292369D01*
X-214361Y-293500D01*
X-215655Y-294440D01*
X-217080Y-295166D01*
X-218601Y-295661D01*
X-219457Y-295796D01*
X-219457Y-279653D01*
G37*
%LPD*%
%LPC*%
G36*
X-244857Y-279653D02*
X-244857Y-279653D01*
X-236219Y-279653D01*
X-236219Y-286550D01*
X-236469Y-288129D01*
X-236964Y-289650D01*
X-237690Y-291075D01*
X-238630Y-292369D01*
X-239761Y-293500D01*
X-241055Y-294440D01*
X-242480Y-295166D01*
X-244001Y-295661D01*
X-244857Y-295796D01*
X-244857Y-279653D01*
G37*
%LPD*%
%LPC*%
G36*
X-392177Y-39623D02*
X-392177Y-39623D01*
X-383539Y-39623D01*
X-383539Y-46520D01*
X-383789Y-48099D01*
X-384284Y-49620D01*
X-385010Y-51045D01*
X-385950Y-52339D01*
X-387081Y-53470D01*
X-388375Y-54410D01*
X-389800Y-55136D01*
X-391321Y-55631D01*
X-392177Y-55766D01*
X-392177Y-39623D01*
G37*
%LPD*%
%LPC*%
G36*
X-244857Y-276607D02*
X-244857Y-276607D01*
X-244857Y-260464D01*
X-244001Y-260599D01*
X-242480Y-261094D01*
X-241055Y-261820D01*
X-239761Y-262760D01*
X-238630Y-263891D01*
X-237690Y-265185D01*
X-236964Y-266610D01*
X-236469Y-268131D01*
X-236219Y-269710D01*
X-236219Y-276607D01*
X-244857Y-276607D01*
G37*
%LPD*%
%LPC*%
G36*
X-219457Y-276607D02*
X-219457Y-276607D01*
X-219457Y-260464D01*
X-218601Y-260599D01*
X-217080Y-261094D01*
X-215655Y-261820D01*
X-214361Y-262760D01*
X-213230Y-263891D01*
X-212290Y-265185D01*
X-211564Y-266610D01*
X-211069Y-268131D01*
X-210819Y-269710D01*
X-210819Y-276607D01*
X-219457Y-276607D01*
G37*
%LPD*%
%LPC*%
G36*
X-341377Y-36577D02*
X-341377Y-36577D01*
X-341377Y-20434D01*
X-340521Y-20569D01*
X-339000Y-21064D01*
X-337575Y-21790D01*
X-336281Y-22730D01*
X-335150Y-23861D01*
X-334210Y-25155D01*
X-333484Y-26580D01*
X-332989Y-28101D01*
X-332739Y-29680D01*
X-332739Y-36577D01*
X-341377Y-36577D01*
G37*
%LPD*%
%LPC*%
G36*
X-392177Y-36577D02*
X-392177Y-36577D01*
X-392177Y-20434D01*
X-391321Y-20569D01*
X-389800Y-21064D01*
X-388375Y-21790D01*
X-387081Y-22730D01*
X-385950Y-23861D01*
X-385010Y-25155D01*
X-384284Y-26580D01*
X-383789Y-28101D01*
X-383539Y-29680D01*
X-383539Y-36577D01*
X-392177Y-36577D01*
G37*
%LPD*%
%LPC*%
G36*
X-360276Y-84376D02*
X-360276Y-84376D01*
X-360276Y-80459D01*
X-355316Y-80459D01*
X-354669Y-80632D01*
X-354090Y-80967D01*
X-353617Y-81440D01*
X-353282Y-82019D01*
X-353167Y-82449D01*
X-353157Y-82471D01*
X-353153Y-82495D01*
X-353107Y-82582D01*
X-353066Y-82673D01*
X-353050Y-82691D01*
X-353038Y-82712D01*
X-352967Y-82780D01*
X-352899Y-82853D01*
X-352878Y-82865D01*
X-352860Y-82882D01*
X-352770Y-82923D01*
X-352683Y-82971D01*
X-352659Y-82975D01*
X-352637Y-82985D01*
X-352538Y-82996D01*
X-352440Y-83013D01*
X-352416Y-83010D01*
X-352393Y-83012D01*
X-352296Y-82991D01*
X-352197Y-82976D01*
X-352176Y-82965D01*
X-352152Y-82960D01*
X-352067Y-82909D01*
X-351978Y-82863D01*
X-351962Y-82846D01*
X-351941Y-82834D01*
X-351876Y-82758D01*
X-351807Y-82687D01*
X-351797Y-82665D01*
X-351781Y-82647D01*
X-351744Y-82555D01*
X-351701Y-82465D01*
X-351698Y-82441D01*
X-351689Y-82419D01*
X-351671Y-82252D01*
X-351671Y-78916D01*
X-351498Y-78269D01*
X-351163Y-77690D01*
X-350690Y-77217D01*
X-350111Y-76882D01*
X-349464Y-76709D01*
X-343153Y-76709D01*
X-343153Y-84227D01*
X-352348Y-84227D01*
X-352368Y-84230D01*
X-352387Y-84228D01*
X-352489Y-84250D01*
X-352591Y-84267D01*
X-352608Y-84276D01*
X-352628Y-84280D01*
X-352717Y-84333D01*
X-352797Y-84376D01*
X-360276Y-84376D01*
G37*
%LPD*%
%LPC*%
G36*
X-349464Y-94791D02*
X-349464Y-94791D01*
X-350111Y-94618D01*
X-350690Y-94283D01*
X-351163Y-93810D01*
X-351498Y-93231D01*
X-351671Y-92584D01*
X-351671Y-89248D01*
X-351675Y-89224D01*
X-351672Y-89200D01*
X-351694Y-89103D01*
X-351710Y-89005D01*
X-351722Y-88984D01*
X-351727Y-88961D01*
X-351779Y-88876D01*
X-351826Y-88788D01*
X-351843Y-88771D01*
X-351856Y-88751D01*
X-351932Y-88687D01*
X-352004Y-88619D01*
X-352026Y-88608D01*
X-352044Y-88593D01*
X-352137Y-88557D01*
X-352227Y-88515D01*
X-352251Y-88512D01*
X-352273Y-88503D01*
X-352373Y-88499D01*
X-352471Y-88488D01*
X-352495Y-88493D01*
X-352519Y-88492D01*
X-352615Y-88519D01*
X-352712Y-88540D01*
X-352732Y-88552D01*
X-352756Y-88559D01*
X-352838Y-88615D01*
X-352923Y-88666D01*
X-352939Y-88685D01*
X-352958Y-88698D01*
X-353018Y-88778D01*
X-353083Y-88853D01*
X-353092Y-88876D01*
X-353106Y-88895D01*
X-353167Y-89051D01*
X-353282Y-89481D01*
X-353617Y-90060D01*
X-354090Y-90533D01*
X-354669Y-90868D01*
X-355316Y-91041D01*
X-360276Y-91041D01*
X-360276Y-87124D01*
X-352794Y-87124D01*
X-352776Y-87141D01*
X-352758Y-87150D01*
X-352743Y-87163D01*
X-352647Y-87202D01*
X-352553Y-87245D01*
X-352533Y-87247D01*
X-352515Y-87255D01*
X-352348Y-87273D01*
X-343153Y-87273D01*
X-343153Y-94791D01*
X-349464Y-94791D01*
G37*
%LPD*%
%LPC*%
G36*
X366312Y-143619D02*
X366312Y-143619D01*
X363501Y-140808D01*
X363501Y-136832D01*
X366312Y-134021D01*
X370288Y-134021D01*
X373099Y-136832D01*
X373099Y-140808D01*
X370288Y-143619D01*
X366312Y-143619D01*
G37*
%LPD*%
%LPC*%
G36*
X366312Y-289279D02*
X366312Y-289279D01*
X363501Y-286468D01*
X363501Y-282492D01*
X366312Y-279681D01*
X370288Y-279681D01*
X373099Y-282492D01*
X373099Y-286468D01*
X370288Y-289279D01*
X366312Y-289279D01*
G37*
%LPD*%
%LPC*%
G36*
X-174708Y-350899D02*
X-174708Y-350899D01*
X-177519Y-348088D01*
X-177519Y-344112D01*
X-174708Y-341301D01*
X-170732Y-341301D01*
X-167921Y-344112D01*
X-167921Y-348088D01*
X-170732Y-350899D01*
X-174708Y-350899D01*
G37*
%LPD*%
%LPC*%
G36*
X-211538Y-350899D02*
X-211538Y-350899D01*
X-214349Y-348088D01*
X-214349Y-344112D01*
X-211538Y-341301D01*
X-207562Y-341301D01*
X-204751Y-344112D01*
X-204751Y-348088D01*
X-207562Y-350899D01*
X-211538Y-350899D01*
G37*
%LPD*%
%LPC*%
G36*
X-149308Y-350899D02*
X-149308Y-350899D01*
X-152119Y-348088D01*
X-152119Y-344112D01*
X-149308Y-341301D01*
X-145332Y-341301D01*
X-142521Y-344112D01*
X-142521Y-348088D01*
X-145332Y-350899D01*
X-149308Y-350899D01*
G37*
%LPD*%
%LPC*%
G36*
X-57868Y-361059D02*
X-57868Y-361059D01*
X-60679Y-358248D01*
X-60679Y-354272D01*
X-57868Y-351461D01*
X-53892Y-351461D01*
X-51081Y-354272D01*
X-51081Y-358248D01*
X-53892Y-361059D01*
X-57868Y-361059D01*
G37*
%LPD*%
%LPC*%
G36*
X7512Y-395959D02*
X7512Y-395959D01*
X4701Y-393148D01*
X4701Y-389172D01*
X7512Y-386361D01*
X11488Y-386361D01*
X14299Y-389172D01*
X14299Y-393148D01*
X11488Y-395959D01*
X7512Y-395959D01*
G37*
%LPD*%
%LPC*%
G36*
X223412Y-449299D02*
X223412Y-449299D01*
X220601Y-446488D01*
X220601Y-442512D01*
X223412Y-439701D01*
X227388Y-439701D01*
X230199Y-442512D01*
X230199Y-446488D01*
X227388Y-449299D01*
X223412Y-449299D01*
G37*
%LPD*%
%LPC*%
G36*
X-729698Y-205459D02*
X-729698Y-205459D01*
X-732509Y-202648D01*
X-732509Y-198672D01*
X-729698Y-195861D01*
X-725722Y-195861D01*
X-722911Y-198672D01*
X-722911Y-202648D01*
X-725722Y-205459D01*
X-729698Y-205459D01*
G37*
%LPD*%
%LPC*%
G36*
X206282Y-54819D02*
X206282Y-54819D01*
X203471Y-52008D01*
X203471Y-48032D01*
X206282Y-45221D01*
X210258Y-45221D01*
X213069Y-48032D01*
X213069Y-52008D01*
X210258Y-54819D01*
X206282Y-54819D01*
G37*
%LPD*%
%LPC*%
G36*
X-623018Y-406119D02*
X-623018Y-406119D01*
X-625829Y-403308D01*
X-625829Y-399332D01*
X-623018Y-396521D01*
X-619042Y-396521D01*
X-616231Y-399332D01*
X-616231Y-403308D01*
X-619042Y-406119D01*
X-623018Y-406119D01*
G37*
%LPD*%
%LPC*%
G36*
X-577298Y-407389D02*
X-577298Y-407389D01*
X-580109Y-404578D01*
X-580109Y-400602D01*
X-577298Y-397791D01*
X-573322Y-397791D01*
X-570511Y-400602D01*
X-570511Y-404578D01*
X-573322Y-407389D01*
X-577298Y-407389D01*
G37*
%LPD*%
%LPC*%
G36*
X366312Y-435719D02*
X366312Y-435719D01*
X363501Y-432908D01*
X363501Y-428932D01*
X366312Y-426121D01*
X370288Y-426121D01*
X373099Y-428932D01*
X373099Y-432908D01*
X370288Y-435719D01*
X366312Y-435719D01*
G37*
%LPD*%
%LPC*%
G36*
X162772Y-17499D02*
X162772Y-17499D01*
X159961Y-14688D01*
X159961Y-10712D01*
X162772Y-7901D01*
X166748Y-7901D01*
X169559Y-10712D01*
X169559Y-14688D01*
X166748Y-17499D01*
X162772Y-17499D01*
G37*
%LPD*%
%LPC*%
G36*
X-406147Y-94791D02*
X-406147Y-94791D01*
X-406147Y-87273D01*
X-397629Y-87273D01*
X-397629Y-91752D01*
X-397625Y-91776D01*
X-397628Y-91800D01*
X-397606Y-91897D01*
X-397590Y-91995D01*
X-397578Y-92016D01*
X-397573Y-92039D01*
X-397521Y-92124D01*
X-397474Y-92212D01*
X-397457Y-92229D01*
X-397444Y-92249D01*
X-397368Y-92313D01*
X-397332Y-92348D01*
X-397358Y-92365D01*
X-397443Y-92416D01*
X-397459Y-92435D01*
X-397478Y-92448D01*
X-397538Y-92528D01*
X-397603Y-92603D01*
X-397612Y-92626D01*
X-397626Y-92645D01*
X-397687Y-92801D01*
X-397802Y-93231D01*
X-398137Y-93810D01*
X-398610Y-94283D01*
X-399189Y-94618D01*
X-399836Y-94791D01*
X-406147Y-94791D01*
G37*
%LPD*%
%LPC*%
G36*
X9143Y-280161D02*
X9143Y-280161D01*
X9143Y-272643D01*
X17661Y-272643D01*
X17661Y-277954D01*
X17488Y-278601D01*
X17153Y-279180D01*
X16680Y-279653D01*
X16101Y-279988D01*
X15454Y-280161D01*
X9143Y-280161D01*
G37*
%LPD*%
%LPC*%
G36*
X-326604Y-94791D02*
X-326604Y-94791D01*
X-327251Y-94618D01*
X-327830Y-94283D01*
X-328303Y-93810D01*
X-328638Y-93231D01*
X-328811Y-92584D01*
X-328811Y-87273D01*
X-320293Y-87273D01*
X-320293Y-94791D01*
X-326604Y-94791D01*
G37*
%LPD*%
%LPC*%
G36*
X-15064Y-74811D02*
X-15064Y-74811D01*
X-15711Y-74638D01*
X-16290Y-74303D01*
X-16763Y-73830D01*
X-17098Y-73251D01*
X-17271Y-72604D01*
X-17271Y-66293D01*
X-9753Y-66293D01*
X-9753Y-74811D01*
X-15064Y-74811D01*
G37*
%LPD*%
%LPC*%
G36*
X-336764Y-170941D02*
X-336764Y-170941D01*
X-337411Y-170768D01*
X-337990Y-170433D01*
X-338463Y-169960D01*
X-338798Y-169381D01*
X-338971Y-168734D01*
X-338971Y-163423D01*
X-330453Y-163423D01*
X-330453Y-170941D01*
X-336764Y-170941D01*
G37*
%LPD*%
%LPC*%
G36*
X-415504Y-94791D02*
X-415504Y-94791D01*
X-416151Y-94618D01*
X-416730Y-94283D01*
X-417203Y-93810D01*
X-417538Y-93231D01*
X-417711Y-92584D01*
X-417711Y-87273D01*
X-409193Y-87273D01*
X-409193Y-94791D01*
X-415504Y-94791D01*
G37*
%LPD*%
%LPC*%
G36*
X-323724Y-269121D02*
X-323724Y-269121D01*
X-324371Y-268948D01*
X-324950Y-268613D01*
X-325423Y-268140D01*
X-325758Y-267561D01*
X-325931Y-266914D01*
X-325931Y-260603D01*
X-318413Y-260603D01*
X-318413Y-269121D01*
X-323724Y-269121D01*
G37*
%LPD*%
%LPC*%
G36*
X-44664Y-291591D02*
X-44664Y-291591D01*
X-45311Y-291418D01*
X-45890Y-291083D01*
X-46363Y-290610D01*
X-46698Y-290031D01*
X-46871Y-289384D01*
X-46871Y-284073D01*
X-38353Y-284073D01*
X-38353Y-291591D01*
X-44664Y-291591D01*
G37*
%LPD*%
%LPC*%
G36*
X-45934Y-113791D02*
X-45934Y-113791D01*
X-46581Y-113618D01*
X-47160Y-113283D01*
X-47633Y-112810D01*
X-47968Y-112231D01*
X-48141Y-111584D01*
X-48141Y-106273D01*
X-39623Y-106273D01*
X-39623Y-113791D01*
X-45934Y-113791D01*
G37*
%LPD*%
%LPC*%
G36*
X-406614Y-170941D02*
X-406614Y-170941D01*
X-407261Y-170768D01*
X-407840Y-170433D01*
X-408313Y-169960D01*
X-408648Y-169381D01*
X-408821Y-168734D01*
X-408821Y-163423D01*
X-400303Y-163423D01*
X-400303Y-170941D01*
X-406614Y-170941D01*
G37*
%LPD*%
%LPC*%
G36*
X-340107Y-94791D02*
X-340107Y-94791D01*
X-340107Y-87273D01*
X-331589Y-87273D01*
X-331589Y-92584D01*
X-331762Y-93231D01*
X-332097Y-93810D01*
X-332570Y-94283D01*
X-333149Y-94618D01*
X-333796Y-94791D01*
X-340107Y-94791D01*
G37*
%LPD*%
%LPC*%
G36*
X-317247Y-94791D02*
X-317247Y-94791D01*
X-317247Y-87273D01*
X-308729Y-87273D01*
X-308729Y-92584D01*
X-308902Y-93231D01*
X-309237Y-93810D01*
X-309710Y-94283D01*
X-310289Y-94618D01*
X-310936Y-94791D01*
X-317247Y-94791D01*
G37*
%LPD*%
%LPC*%
G36*
X-305817Y-170941D02*
X-305817Y-170941D01*
X-305817Y-163423D01*
X-297299Y-163423D01*
X-297299Y-168734D01*
X-297472Y-169381D01*
X-297807Y-169960D01*
X-298280Y-170433D01*
X-298859Y-170768D01*
X-299506Y-170941D01*
X-305817Y-170941D01*
G37*
%LPD*%
%LPC*%
G36*
X-397257Y-170941D02*
X-397257Y-170941D01*
X-397257Y-163423D01*
X-388739Y-163423D01*
X-388739Y-168734D01*
X-388912Y-169381D01*
X-389247Y-169960D01*
X-389720Y-170433D01*
X-390299Y-170768D01*
X-390946Y-170941D01*
X-397257Y-170941D01*
G37*
%LPD*%
%LPC*%
G36*
X-35307Y-291591D02*
X-35307Y-291591D01*
X-35307Y-284073D01*
X-26789Y-284073D01*
X-26789Y-289384D01*
X-26962Y-290031D01*
X-27297Y-290610D01*
X-27770Y-291083D01*
X-28349Y-291418D01*
X-28996Y-291591D01*
X-35307Y-291591D01*
G37*
%LPD*%
%LPC*%
G36*
X-17271Y-63247D02*
X-17271Y-63247D01*
X-17271Y-56936D01*
X-17098Y-56289D01*
X-16763Y-55710D01*
X-16290Y-55237D01*
X-15711Y-54902D01*
X-15064Y-54729D01*
X-9753Y-54729D01*
X-9753Y-63247D01*
X-17271Y-63247D01*
G37*
%LPD*%
%LPC*%
G36*
X-36577Y-113791D02*
X-36577Y-113791D01*
X-36577Y-106273D01*
X-28059Y-106273D01*
X-28059Y-111584D01*
X-28232Y-112231D01*
X-28567Y-112810D01*
X-29040Y-113283D01*
X-29619Y-113618D01*
X-30266Y-113791D01*
X-36577Y-113791D01*
G37*
%LPD*%
%LPC*%
G36*
X-325931Y-257557D02*
X-325931Y-257557D01*
X-325931Y-251246D01*
X-325758Y-250599D01*
X-325423Y-250020D01*
X-324950Y-249547D01*
X-324371Y-249212D01*
X-323724Y-249039D01*
X-318413Y-249039D01*
X-318413Y-257557D01*
X-325931Y-257557D01*
G37*
%LPD*%
%LPC*%
G36*
X-328811Y-84227D02*
X-328811Y-84227D01*
X-328811Y-78916D01*
X-328638Y-78269D01*
X-328303Y-77690D01*
X-327830Y-77217D01*
X-327251Y-76882D01*
X-326604Y-76709D01*
X-320293Y-76709D01*
X-320293Y-84227D01*
X-328811Y-84227D01*
G37*
%LPD*%
%LPC*%
G36*
X-338971Y-160377D02*
X-338971Y-160377D01*
X-338971Y-155066D01*
X-338798Y-154419D01*
X-338463Y-153840D01*
X-337990Y-153367D01*
X-337411Y-153032D01*
X-336764Y-152859D01*
X-330453Y-152859D01*
X-330453Y-160377D01*
X-338971Y-160377D01*
G37*
%LPD*%
%LPC*%
G36*
X-408821Y-160377D02*
X-408821Y-160377D01*
X-408821Y-155066D01*
X-408648Y-154419D01*
X-408313Y-153840D01*
X-407840Y-153367D01*
X-407261Y-153032D01*
X-406614Y-152859D01*
X-400303Y-152859D01*
X-400303Y-160377D01*
X-408821Y-160377D01*
G37*
%LPD*%
%LPC*%
G36*
X-48141Y-103227D02*
X-48141Y-103227D01*
X-48141Y-97916D01*
X-47968Y-97269D01*
X-47633Y-96690D01*
X-47160Y-96217D01*
X-46581Y-95882D01*
X-45934Y-95709D01*
X-39623Y-95709D01*
X-39623Y-103227D01*
X-48141Y-103227D01*
G37*
%LPD*%
%LPC*%
G36*
X-315367Y-269121D02*
X-315367Y-269121D01*
X-315367Y-260603D01*
X-307849Y-260603D01*
X-307849Y-266914D01*
X-308022Y-267561D01*
X-308357Y-268140D01*
X-308830Y-268613D01*
X-309409Y-268948D01*
X-310056Y-269121D01*
X-315367Y-269121D01*
G37*
%LPD*%
%LPC*%
G36*
X9143Y-269597D02*
X9143Y-269597D01*
X9143Y-262079D01*
X15454Y-262079D01*
X16101Y-262252D01*
X16680Y-262587D01*
X17153Y-263060D01*
X17488Y-263639D01*
X17661Y-264286D01*
X17661Y-269597D01*
X9143Y-269597D01*
G37*
%LPD*%
%LPC*%
G36*
X-46871Y-281027D02*
X-46871Y-281027D01*
X-46871Y-275716D01*
X-46698Y-275069D01*
X-46363Y-274490D01*
X-45890Y-274017D01*
X-45311Y-273682D01*
X-44664Y-273509D01*
X-38353Y-273509D01*
X-38353Y-281027D01*
X-46871Y-281027D01*
G37*
%LPD*%
%LPC*%
G36*
X-417711Y-84227D02*
X-417711Y-84227D01*
X-417711Y-78916D01*
X-417538Y-78269D01*
X-417203Y-77690D01*
X-416730Y-77217D01*
X-416151Y-76882D01*
X-415504Y-76709D01*
X-409193Y-76709D01*
X-409193Y-84227D01*
X-417711Y-84227D01*
G37*
%LPD*%
%LPC*%
G36*
X-214Y-280161D02*
X-214Y-280161D01*
X-861Y-279988D01*
X-1440Y-279653D01*
X-1913Y-279180D01*
X-2248Y-278601D01*
X-2421Y-277954D01*
X-2421Y-272643D01*
X6097Y-272643D01*
X6097Y-280161D01*
X-214Y-280161D01*
G37*
%LPD*%
%LPC*%
G36*
X-406147Y-84227D02*
X-406147Y-84227D01*
X-406147Y-76709D01*
X-399836Y-76709D01*
X-399189Y-76882D01*
X-398610Y-77217D01*
X-398137Y-77690D01*
X-397802Y-78269D01*
X-397629Y-78916D01*
X-397629Y-84227D01*
X-406147Y-84227D01*
G37*
%LPD*%
%LPC*%
G36*
X-397257Y-160377D02*
X-397257Y-160377D01*
X-397257Y-152859D01*
X-390946Y-152859D01*
X-390299Y-153032D01*
X-389720Y-153367D01*
X-389247Y-153840D01*
X-388912Y-154419D01*
X-388739Y-155066D01*
X-388739Y-160377D01*
X-397257Y-160377D01*
G37*
%LPD*%
%LPC*%
G36*
X-305817Y-160377D02*
X-305817Y-160377D01*
X-305817Y-152859D01*
X-299506Y-152859D01*
X-298859Y-153032D01*
X-298280Y-153367D01*
X-297807Y-153840D01*
X-297472Y-154419D01*
X-297299Y-155066D01*
X-297299Y-160377D01*
X-305817Y-160377D01*
G37*
%LPD*%
%LPC*%
G36*
X-317247Y-84227D02*
X-317247Y-84227D01*
X-317247Y-76709D01*
X-310936Y-76709D01*
X-310289Y-76882D01*
X-309710Y-77217D01*
X-309237Y-77690D01*
X-308902Y-78269D01*
X-308729Y-78916D01*
X-308729Y-84227D01*
X-317247Y-84227D01*
G37*
%LPD*%
%LPC*%
G36*
X-340107Y-84227D02*
X-340107Y-84227D01*
X-340107Y-76709D01*
X-333796Y-76709D01*
X-333149Y-76882D01*
X-332570Y-77217D01*
X-332097Y-77690D01*
X-331762Y-78269D01*
X-331589Y-78916D01*
X-331589Y-84227D01*
X-340107Y-84227D01*
G37*
%LPD*%
%LPC*%
G36*
X-35307Y-281027D02*
X-35307Y-281027D01*
X-35307Y-273509D01*
X-28996Y-273509D01*
X-28349Y-273682D01*
X-27770Y-274017D01*
X-27297Y-274490D01*
X-26962Y-275069D01*
X-26789Y-275716D01*
X-26789Y-281027D01*
X-35307Y-281027D01*
G37*
%LPD*%
%LPC*%
G36*
X-315367Y-257557D02*
X-315367Y-257557D01*
X-315367Y-249039D01*
X-310056Y-249039D01*
X-309409Y-249212D01*
X-308830Y-249547D01*
X-308357Y-250020D01*
X-308022Y-250599D01*
X-307849Y-251246D01*
X-307849Y-257557D01*
X-315367Y-257557D01*
G37*
%LPD*%
%LPC*%
G36*
X-36577Y-103227D02*
X-36577Y-103227D01*
X-36577Y-95709D01*
X-30266Y-95709D01*
X-29619Y-95882D01*
X-29040Y-96217D01*
X-28567Y-96690D01*
X-28232Y-97269D01*
X-28059Y-97916D01*
X-28059Y-103227D01*
X-36577Y-103227D01*
G37*
%LPD*%
%LPC*%
G36*
X-6707Y-74811D02*
X-6707Y-74811D01*
X-6707Y-66293D01*
X811Y-66293D01*
X811Y-72604D01*
X638Y-73251D01*
X303Y-73830D01*
X-170Y-74303D01*
X-749Y-74638D01*
X-1396Y-74811D01*
X-6707Y-74811D01*
G37*
%LPD*%
%LPC*%
G36*
X-2421Y-269597D02*
X-2421Y-269597D01*
X-2421Y-264286D01*
X-2248Y-263639D01*
X-1913Y-263060D01*
X-1440Y-262587D01*
X-861Y-262252D01*
X-214Y-262079D01*
X6097Y-262079D01*
X6097Y-269597D01*
X-2421Y-269597D01*
G37*
%LPD*%
%LPC*%
G36*
X-6707Y-63247D02*
X-6707Y-63247D01*
X-6707Y-54729D01*
X-1396Y-54729D01*
X-749Y-54902D01*
X-170Y-55237D01*
X303Y-55710D01*
X638Y-56289D01*
X811Y-56936D01*
X811Y-63247D01*
X-6707Y-63247D01*
G37*
%LPD*%
%LPC*%
G36*
X-592351Y-319309D02*
X-592351Y-319309D01*
X-594899Y-316761D01*
X-594899Y-313159D01*
X-592351Y-310611D01*
X-588749Y-310611D01*
X-586201Y-313159D01*
X-586201Y-316761D01*
X-588749Y-319309D01*
X-592351Y-319309D01*
G37*
%LPD*%
%LPC*%
G36*
X-605051Y-319309D02*
X-605051Y-319309D01*
X-607599Y-316761D01*
X-607599Y-313159D01*
X-605051Y-310611D01*
X-601449Y-310611D01*
X-598901Y-313159D01*
X-598901Y-316761D01*
X-601449Y-319309D01*
X-605051Y-319309D01*
G37*
%LPD*%
%LPC*%
G36*
X-421390Y-327039D02*
X-421390Y-327039D01*
X-422854Y-326563D01*
X-424226Y-325864D01*
X-425471Y-324960D01*
X-426560Y-323871D01*
X-427464Y-322626D01*
X-428163Y-321254D01*
X-428639Y-319790D01*
X-428760Y-319023D01*
X-420623Y-319023D01*
X-420623Y-327160D01*
X-421390Y-327039D01*
G37*
%LPD*%
%LPC*%
G36*
X-446790Y-479439D02*
X-446790Y-479439D01*
X-448254Y-478963D01*
X-449626Y-478264D01*
X-450871Y-477360D01*
X-451960Y-476271D01*
X-452864Y-475026D01*
X-453563Y-473654D01*
X-454039Y-472190D01*
X-454160Y-471423D01*
X-446023Y-471423D01*
X-446023Y-479560D01*
X-446790Y-479439D01*
G37*
%LPD*%
%LPC*%
G36*
X-428760Y-315977D02*
X-428760Y-315977D01*
X-428639Y-315210D01*
X-428163Y-313746D01*
X-427464Y-312374D01*
X-426560Y-311129D01*
X-425471Y-310040D01*
X-424226Y-309136D01*
X-422854Y-308437D01*
X-421390Y-307961D01*
X-420623Y-307840D01*
X-420623Y-315977D01*
X-428760Y-315977D01*
G37*
%LPD*%
%LPC*%
G36*
X-417577Y-319023D02*
X-417577Y-319023D01*
X-409440Y-319023D01*
X-409561Y-319790D01*
X-410037Y-321254D01*
X-410736Y-322626D01*
X-411640Y-323871D01*
X-412729Y-324960D01*
X-413974Y-325864D01*
X-415346Y-326563D01*
X-416810Y-327039D01*
X-417577Y-327160D01*
X-417577Y-319023D01*
G37*
%LPD*%
%LPC*%
G36*
X-454160Y-468377D02*
X-454160Y-468377D01*
X-454039Y-467610D01*
X-453563Y-466146D01*
X-452864Y-464774D01*
X-451960Y-463529D01*
X-450871Y-462440D01*
X-449626Y-461536D01*
X-448254Y-460837D01*
X-446790Y-460361D01*
X-446023Y-460240D01*
X-446023Y-468377D01*
X-454160Y-468377D01*
G37*
%LPD*%
%LPC*%
G36*
X-442977Y-471423D02*
X-442977Y-471423D01*
X-434840Y-471423D01*
X-434961Y-472190D01*
X-435437Y-473654D01*
X-436136Y-475026D01*
X-437040Y-476271D01*
X-438129Y-477360D01*
X-439374Y-478264D01*
X-440746Y-478963D01*
X-442210Y-479439D01*
X-442977Y-479560D01*
X-442977Y-471423D01*
G37*
%LPD*%
%LPC*%
G36*
X-417577Y-315977D02*
X-417577Y-315977D01*
X-417577Y-307840D01*
X-416810Y-307961D01*
X-415346Y-308437D01*
X-413974Y-309136D01*
X-412729Y-310040D01*
X-411640Y-311129D01*
X-410736Y-312374D01*
X-410037Y-313746D01*
X-409561Y-315210D01*
X-409440Y-315977D01*
X-417577Y-315977D01*
G37*
%LPD*%
%LPC*%
G36*
X-442977Y-468377D02*
X-442977Y-468377D01*
X-442977Y-460240D01*
X-442210Y-460361D01*
X-440746Y-460837D01*
X-439374Y-461536D01*
X-438129Y-462440D01*
X-437040Y-463529D01*
X-436136Y-464774D01*
X-435437Y-466146D01*
X-434961Y-467610D01*
X-434840Y-468377D01*
X-442977Y-468377D01*
G37*
%LPD*%
%LPC*%
G36*
X-360031Y-160526D02*
X-360031Y-160526D01*
X-360031Y-158816D01*
X-359858Y-158169D01*
X-359489Y-157531D01*
X-359465Y-157467D01*
X-359432Y-157408D01*
X-359422Y-157353D01*
X-359402Y-157301D01*
X-359399Y-157233D01*
X-359387Y-157167D01*
X-359395Y-157111D01*
X-359393Y-157055D01*
X-359412Y-156990D01*
X-359421Y-156923D01*
X-359453Y-156850D01*
X-359463Y-156819D01*
X-359475Y-156802D01*
X-359489Y-156769D01*
X-359858Y-156131D01*
X-360031Y-155484D01*
X-360031Y-153774D01*
X-352864Y-153774D01*
X-352864Y-160526D01*
X-360031Y-160526D01*
G37*
%LPD*%
%LPC*%
G36*
X-350116Y-160526D02*
X-350116Y-160526D01*
X-350116Y-153774D01*
X-342949Y-153774D01*
X-342949Y-155484D01*
X-343122Y-156131D01*
X-343491Y-156769D01*
X-343515Y-156833D01*
X-343548Y-156892D01*
X-343558Y-156947D01*
X-343578Y-156999D01*
X-343581Y-157067D01*
X-343593Y-157133D01*
X-343585Y-157189D01*
X-343587Y-157245D01*
X-343568Y-157310D01*
X-343559Y-157377D01*
X-343527Y-157450D01*
X-343517Y-157481D01*
X-343505Y-157498D01*
X-343491Y-157531D01*
X-343122Y-158169D01*
X-342949Y-158816D01*
X-342949Y-160526D01*
X-350116Y-160526D01*
G37*
%LPD*%
%LPC*%
G36*
X-367984Y-91041D02*
X-367984Y-91041D01*
X-368631Y-90868D01*
X-369210Y-90533D01*
X-369683Y-90060D01*
X-370018Y-89481D01*
X-370191Y-88834D01*
X-370191Y-87124D01*
X-363024Y-87124D01*
X-363024Y-91041D01*
X-367984Y-91041D01*
G37*
%LPD*%
%LPC*%
G36*
X-357824Y-167191D02*
X-357824Y-167191D01*
X-358471Y-167018D01*
X-359050Y-166683D01*
X-359523Y-166210D01*
X-359858Y-165631D01*
X-360031Y-164984D01*
X-360031Y-163274D01*
X-352864Y-163274D01*
X-352864Y-167191D01*
X-357824Y-167191D01*
G37*
%LPD*%
%LPC*%
G36*
X-350116Y-167191D02*
X-350116Y-167191D01*
X-350116Y-163274D01*
X-342949Y-163274D01*
X-342949Y-164984D01*
X-343122Y-165631D01*
X-343457Y-166210D01*
X-343930Y-166683D01*
X-344509Y-167018D01*
X-345156Y-167191D01*
X-350116Y-167191D01*
G37*
%LPD*%
%LPC*%
G36*
X-370191Y-84376D02*
X-370191Y-84376D01*
X-370191Y-82666D01*
X-370018Y-82019D01*
X-369683Y-81440D01*
X-369210Y-80967D01*
X-368631Y-80632D01*
X-367984Y-80459D01*
X-363024Y-80459D01*
X-363024Y-84376D01*
X-370191Y-84376D01*
G37*
%LPD*%
%LPC*%
G36*
X513899Y-272601D02*
X513899Y-272601D01*
X513899Y-272599D01*
X513901Y-272599D01*
X513901Y-272601D01*
X513899Y-272601D01*
G37*
%LPD*%
%LPC*%
G36*
X-419101Y-317501D02*
X-419101Y-317501D01*
X-419101Y-317499D01*
X-419099Y-317499D01*
X-419099Y-317501D01*
X-419101Y-317501D01*
G37*
%LPD*%
%LPC*%
G36*
X-342901Y-38101D02*
X-342901Y-38101D01*
X-342901Y-38099D01*
X-342899Y-38099D01*
X-342899Y-38101D01*
X-342901Y-38101D01*
G37*
%LPD*%
%LPC*%
G36*
X-393701Y-38101D02*
X-393701Y-38101D01*
X-393701Y-38099D01*
X-393699Y-38099D01*
X-393699Y-38101D01*
X-393701Y-38101D01*
G37*
%LPD*%
%LPC*%
G36*
X513899Y-32201D02*
X513899Y-32201D01*
X513899Y-32199D01*
X513901Y-32199D01*
X513901Y-32201D01*
X513899Y-32201D01*
G37*
%LPD*%
%LPC*%
G36*
X451299Y-32201D02*
X451299Y-32201D01*
X451299Y-32199D01*
X451301Y-32199D01*
X451301Y-32201D01*
X451299Y-32201D01*
G37*
%LPD*%
%LPC*%
G36*
X-220981Y-278131D02*
X-220981Y-278131D01*
X-220981Y-278129D01*
X-220979Y-278129D01*
X-220979Y-278131D01*
X-220981Y-278131D01*
G37*
%LPD*%
%LPC*%
G36*
X451299Y-210001D02*
X451299Y-210001D01*
X451299Y-209999D01*
X451301Y-209999D01*
X451301Y-210001D01*
X451299Y-210001D01*
G37*
%LPD*%
%LPC*%
G36*
X513899Y-210001D02*
X513899Y-210001D01*
X513899Y-209999D01*
X513901Y-209999D01*
X513901Y-210001D01*
X513899Y-210001D01*
G37*
%LPD*%
%LPC*%
G36*
X-246381Y-278131D02*
X-246381Y-278131D01*
X-246381Y-278129D01*
X-246379Y-278129D01*
X-246379Y-278131D01*
X-246381Y-278131D01*
G37*
%LPD*%
%LPC*%
G36*
X451299Y-450401D02*
X451299Y-450401D01*
X451299Y-450399D01*
X451301Y-450399D01*
X451301Y-450401D01*
X451299Y-450401D01*
G37*
%LPD*%
%LPC*%
G36*
X513899Y-450401D02*
X513899Y-450401D01*
X513899Y-450399D01*
X513901Y-450399D01*
X513901Y-450401D01*
X513899Y-450401D01*
G37*
%LPD*%
%LPC*%
G36*
X513899Y-94801D02*
X513899Y-94801D01*
X513899Y-94799D01*
X513901Y-94799D01*
X513901Y-94801D01*
X513899Y-94801D01*
G37*
%LPD*%
%LPC*%
G36*
X451299Y-94801D02*
X451299Y-94801D01*
X451299Y-94799D01*
X451301Y-94799D01*
X451301Y-94801D01*
X451299Y-94801D01*
G37*
%LPD*%
%LPC*%
G36*
X513899Y-387801D02*
X513899Y-387801D01*
X513899Y-387799D01*
X513901Y-387799D01*
X513901Y-387801D01*
X513899Y-387801D01*
G37*
%LPD*%
%LPC*%
G36*
X451299Y-387801D02*
X451299Y-387801D01*
X451299Y-387799D01*
X451301Y-387799D01*
X451301Y-387801D01*
X451299Y-387801D01*
G37*
%LPD*%
%LPC*%
G36*
X-444501Y-469901D02*
X-444501Y-469901D01*
X-444501Y-469899D01*
X-444499Y-469899D01*
X-444499Y-469901D01*
X-444501Y-469901D01*
G37*
%LPD*%
%LPC*%
G36*
X451299Y-272601D02*
X451299Y-272601D01*
X451299Y-272599D01*
X451301Y-272599D01*
X451301Y-272601D01*
X451299Y-272601D01*
G37*
%LPD*%
%LPC*%
G36*
X-8231Y-64771D02*
X-8231Y-64771D01*
X-8231Y-64769D01*
X-8229Y-64769D01*
X-8229Y-64771D01*
X-8231Y-64771D01*
G37*
%LPD*%
%LPC*%
G36*
X-328931Y-161901D02*
X-328931Y-161901D01*
X-328931Y-161899D01*
X-328929Y-161899D01*
X-328929Y-161901D01*
X-328931Y-161901D01*
G37*
%LPD*%
%LPC*%
G36*
X-407671Y-85751D02*
X-407671Y-85751D01*
X-407671Y-85749D01*
X-407669Y-85749D01*
X-407669Y-85751D01*
X-407671Y-85751D01*
G37*
%LPD*%
%LPC*%
G36*
X-341631Y-85751D02*
X-341631Y-85751D01*
X-341631Y-85749D01*
X-341629Y-85749D01*
X-341629Y-85751D01*
X-341631Y-85751D01*
G37*
%LPD*%
%LPC*%
G36*
X-318771Y-85751D02*
X-318771Y-85751D01*
X-318771Y-85749D01*
X-318769Y-85749D01*
X-318769Y-85751D01*
X-318771Y-85751D01*
G37*
%LPD*%
%LPC*%
G36*
X7619Y-271121D02*
X7619Y-271121D01*
X7619Y-271119D01*
X7621Y-271119D01*
X7621Y-271121D01*
X7619Y-271121D01*
G37*
%LPD*%
%LPC*%
G36*
X-38101Y-104751D02*
X-38101Y-104751D01*
X-38101Y-104749D01*
X-38099Y-104749D01*
X-38099Y-104751D01*
X-38101Y-104751D01*
G37*
%LPD*%
%LPC*%
G36*
X-316891Y-259081D02*
X-316891Y-259081D01*
X-316891Y-259079D01*
X-316889Y-259079D01*
X-316889Y-259081D01*
X-316891Y-259081D01*
G37*
%LPD*%
%LPC*%
G36*
X-398781Y-161901D02*
X-398781Y-161901D01*
X-398781Y-161899D01*
X-398779Y-161899D01*
X-398779Y-161901D01*
X-398781Y-161901D01*
G37*
%LPD*%
%LPC*%
G36*
X-36831Y-282551D02*
X-36831Y-282551D01*
X-36831Y-282549D01*
X-36829Y-282549D01*
X-36829Y-282551D01*
X-36831Y-282551D01*
G37*
%LPD*%
%LPC*%
G36*
X-307341Y-161901D02*
X-307341Y-161901D01*
X-307341Y-161899D01*
X-307339Y-161899D01*
X-307339Y-161901D01*
X-307341Y-161901D01*
G37*
%LPD*%
D10*
X-723900Y-411544D03*
X-723900Y-466662D03*
D11*
X-419100Y-469900D03*
X-393700Y-469900D03*
X-368300Y-469900D03*
X-342900Y-469900D03*
X-393700Y-317500D03*
X-114300Y-419100D03*
X-317500Y-469900D03*
X-292100Y-469900D03*
X-266700Y-469900D03*
X-241300Y-469900D03*
X-215900Y-469900D03*
X-190500Y-469900D03*
X-165100Y-469900D03*
X-139700Y-469900D03*
X-114300Y-469900D03*
X-114300Y-317500D03*
X-139700Y-317500D03*
X-165100Y-317500D03*
X-190500Y-317500D03*
X-215900Y-317500D03*
X-241300Y-317500D03*
X-266700Y-317500D03*
X-292100Y-317500D03*
X-317500Y-317500D03*
X-342900Y-317500D03*
X-368300Y-317500D03*
X-114300Y-342900D03*
X-419100Y-317500D03*
X-444500Y-469900D03*
X-114300Y-393700D03*
X-114300Y-368300D03*
X-114300Y-444500D03*
X-444500Y-317500D03*
X-368300Y-342900D03*
X-342900Y-342900D03*
X-317500Y-342900D03*
D12*
X-387650Y-104750D03*
X-387650Y-95250D03*
X-387650Y-85750D03*
X-361650Y-85750D03*
X-361650Y-104750D03*
D13*
X-407670Y-104750D03*
X-407670Y-85750D03*
X-341630Y-104750D03*
X-341630Y-85750D03*
X-318770Y-104750D03*
X-318770Y-85750D03*
X-328930Y-142900D03*
X-328930Y-161900D03*
X-307340Y-142900D03*
X-307340Y-161900D03*
X-398780Y-142900D03*
X-398780Y-161900D03*
D14*
X-419100Y-45720D02*
X-419100Y-30480D01*
X-393700Y-30480D02*
X-393700Y-45720D01*
X-368300Y-45720D02*
X-368300Y-30480D01*
X-342900Y-30480D02*
X-342900Y-45720D01*
X-317500Y-45720D02*
X-317500Y-30480D01*
D12*
X-351490Y-142900D03*
X-351490Y-152400D03*
X-351490Y-161900D03*
X-377490Y-161900D03*
X-377490Y-152400D03*
X-377490Y-142900D03*
D15*
X10770Y-64770D03*
X-8230Y-64770D03*
D13*
X-38100Y-104750D03*
X-38100Y-85750D03*
X-78740Y-62890D03*
X-78740Y-81890D03*
X7620Y-252120D03*
X7620Y-271120D03*
X-36830Y-282550D03*
X-36830Y-263550D03*
X-82550Y-247040D03*
X-82550Y-266040D03*
D15*
X-335890Y-259080D03*
X-316890Y-259080D03*
D16*
X-76200Y-444500D03*
X-50800Y-444500D03*
X-25400Y-444500D03*
D14*
X-220980Y-285750D02*
X-220980Y-270510D01*
X-246380Y-270510D02*
X-246380Y-285750D01*
D17*
X-139700Y-279400D03*
X-165100Y-279400D03*
D14*
X114300Y-424180D02*
X114300Y-439420D01*
X88900Y-439420D02*
X88900Y-424180D01*
D18*
X482600Y-63500D03*
D19*
X451300Y-32200D03*
X451300Y-94800D03*
X513900Y-94800D03*
X513900Y-32200D03*
D18*
X482600Y-241300D03*
D19*
X451300Y-210000D03*
X451300Y-272600D03*
X513900Y-272600D03*
X513900Y-210000D03*
D18*
X482600Y-419100D03*
D19*
X513900Y-450400D03*
X513900Y-387800D03*
X451300Y-387800D03*
X451300Y-450400D03*
D20*
X-723900Y-292100D03*
X-593090Y-397510D03*
X-570230Y-255270D03*
X-736600Y-292100D03*
X-744220Y-292100D03*
X-506730Y-335280D03*
X-638810Y-265430D03*
X-590550Y-295910D03*
X-603250Y-295910D03*
X-623570Y-265430D03*
X-646430Y-265430D03*
X-552450Y-222250D03*
X-631190Y-201930D03*
X-631190Y-209550D03*
X-481330Y-240030D03*
X-590550Y-288290D03*
X-603250Y-288290D03*
X-600710Y-397510D03*
X-514350Y-335280D03*
X-481330Y-232410D03*
X-560070Y-222250D03*
X-716280Y-292100D03*
X-631190Y-265430D03*
X-631190Y-194310D03*
X-610870Y-281940D03*
X-655320Y-196850D03*
X-662940Y-196850D03*
X-647700Y-196850D03*
X-610870Y-274320D03*
D21*
X-727710Y-200660D03*
D20*
X-537210Y-426720D03*
X-656590Y-426720D03*
D21*
X-8890Y-68580D03*
X3810Y-270510D03*
D20*
X-631190Y-186690D03*
X-631190Y-217170D03*
D21*
X-40640Y-281940D03*
X44450Y-260350D03*
X44450Y-82550D03*
X-41910Y-104140D03*
D20*
X-313690Y-255270D03*
X-313690Y-262890D03*
D21*
X-373380Y-104140D03*
D20*
X-297180Y-369570D03*
X-289560Y-369570D03*
X-276860Y-369570D03*
X-269240Y-369570D03*
X-213360Y-369570D03*
X-205740Y-369570D03*
D21*
X-34290Y-104140D03*
X-8890Y-60960D03*
X-33020Y-281940D03*
X11430Y-270510D03*
D22*
X241300Y-25400D03*
X254000Y-50800D03*
X215900Y-469900D03*
X228600Y-419100D03*
X114300Y-279400D03*
X114300Y-190500D03*
X38100Y-165100D03*
X-63500Y-165100D03*
X12700Y-165100D03*
X-38100Y-165100D03*
X101600Y-76200D03*
X152400Y-63500D03*
X152400Y-25400D03*
X114300Y-469900D03*
X0Y-457200D03*
X76200Y-266700D03*
X76200Y-317500D03*
X101600Y-393700D03*
X118110Y-149860D03*
X292100Y-63500D03*
X127000Y-330200D03*
X38100Y-444500D03*
X-165100Y-12700D03*
X-166370Y-82550D03*
X-166370Y-146050D03*
X-165100Y-215900D03*
X-228600Y-12700D03*
X-229870Y-82550D03*
X-229870Y-146050D03*
X-228600Y-215900D03*
X-165100Y-266700D03*
X-114300Y-292100D03*
X-298450Y-25400D03*
X-438150Y-25400D03*
X-438150Y-88900D03*
X-438150Y-152400D03*
X-341630Y-152400D03*
X-368300Y-177800D03*
X-342900Y-177800D03*
X-292100Y-152400D03*
X-285750Y-95250D03*
X-287020Y-60960D03*
X-355600Y-67310D03*
X-398780Y-67310D03*
X-406400Y-6350D03*
X-381000Y-6350D03*
X-355600Y-6350D03*
X-330200Y-6350D03*
X-304800Y-6350D03*
X-431800Y-6350D03*
X-21590Y-364490D03*
D23*
X226500Y-149700D03*
X226500Y-137700D03*
X240500Y-137700D03*
X240500Y-149700D03*
X226500Y-262700D03*
X226500Y-250700D03*
X240500Y-250700D03*
X240500Y-262700D03*
X226500Y-375700D03*
X226500Y-363700D03*
X240500Y-363700D03*
X240500Y-375700D03*
D21*
X144780Y-123190D03*
X152400Y-123190D03*
X144780Y-236220D03*
X152400Y-236220D03*
X144780Y-349250D03*
X152400Y-349250D03*
X292100Y-120650D03*
X299720Y-120650D03*
X292100Y-233680D03*
X299720Y-233680D03*
X292100Y-346710D03*
X299720Y-346710D03*
X245110Y-91440D03*
X199390Y-147320D03*
X245110Y-204470D03*
X199390Y-260350D03*
X245110Y-317500D03*
X199390Y-373380D03*
D22*
X-438150Y-228600D03*
X-469900Y-279400D03*
X-495300Y-393700D03*
X-419100Y-292100D03*
X-292100Y-292100D03*
X-190500Y-292100D03*
X-190500Y-241300D03*
X0Y-317500D03*
X-38100Y-203200D03*
X0Y-215900D03*
X-12700Y-279400D03*
X0Y-114300D03*
X-38100Y-12700D03*
X-12700Y-38100D03*
X-38100Y-139700D03*
X139700Y-419100D03*
X-38100Y-317500D03*
X-482600Y-469900D03*
X-660400Y-482600D03*
X-609600Y-482600D03*
X-558800Y-482600D03*
X-508000Y-482600D03*
X-660400Y-444500D03*
X-609600Y-444500D03*
X-558800Y-444500D03*
X-508000Y-444500D03*
X-438150Y-50800D03*
X-298450Y-38100D03*
X69850Y-349250D03*
X69850Y-374650D03*
X50800Y-393700D03*
X36830Y-393700D03*
X36830Y-336550D03*
X50800Y-336550D03*
X12700Y-341630D03*
X-25400Y-342900D03*
X-266700Y-419100D03*
X-292100Y-381000D03*
X-203200Y-444500D03*
X-419100Y-355600D03*
D21*
X225400Y-12700D03*
X164760Y-444500D03*
D22*
X-368300Y-368300D03*
X-444500Y-419100D03*
X-330200Y-381000D03*
X-38100Y-469900D03*
X12700Y-419100D03*
X-76200Y-368300D03*
X-215900Y-393700D03*
X165100Y-469900D03*
X63500Y-469900D03*
X-241300Y-241300D03*
X-304800Y-444500D03*
X-387350Y-273050D03*
D21*
X368300Y-154940D03*
X368300Y-299720D03*
X325120Y-111760D03*
X368300Y-447040D03*
D22*
X407670Y-157480D03*
X334010Y-12700D03*
X308610Y-142240D03*
X382270Y-185420D03*
X293370Y-299720D03*
X245110Y-297180D03*
X382270Y-330200D03*
X318770Y-332740D03*
X341630Y-477520D03*
X384810Y-477520D03*
X382270Y-10160D03*
X405130Y-353060D03*
D21*
X-127000Y-381000D03*
D24*
X-76200Y-381000D01*
X-63500Y-393700D01*
D21*
X-63500Y-393700D03*
X-152400Y-406400D03*
D24*
X-88900Y-406400D01*
X-76200Y-393700D01*
D21*
X-76200Y-393700D03*
D25*
X-384150Y-104750D02*
X-387650Y-104750D01*
X-387650Y-85750D02*
X-384150Y-85750D01*
X-379110Y-99710D02*
X-384150Y-104750D01*
X-379110Y-99710D02*
X-379110Y-90790D01*
X-384150Y-85750D01*
D26*
X-387650Y-104750D02*
X-407670Y-104750D01*
D21*
X-495300Y-82550D03*
X-520700Y-107950D03*
X-546100Y-107950D03*
X-571500Y-107950D03*
X-596900Y-107950D03*
X-596900Y-133350D03*
X-571500Y-133350D03*
X-546100Y-133350D03*
X-520700Y-133350D03*
X-495300Y-133350D03*
X-596900Y-158750D03*
X-571500Y-158750D03*
X-546100Y-158750D03*
X-520700Y-158750D03*
X-495300Y-158750D03*
X-596900Y-184150D03*
X-571500Y-184150D03*
X-546100Y-184150D03*
X-520700Y-184150D03*
X-495300Y-184150D03*
X-495300Y-107950D03*
X-520700Y-82550D03*
X-546100Y-82550D03*
X-571500Y-82550D03*
X-596900Y-82550D03*
X-495300Y-57150D03*
X-520700Y-57150D03*
X-546100Y-57150D03*
X-571500Y-57150D03*
X-596900Y-57150D03*
X-520700Y-6350D03*
X-546100Y-6350D03*
X-571500Y-6350D03*
X-596900Y-6350D03*
X-520700Y-31750D03*
X-546100Y-31750D03*
X-571500Y-31750D03*
X-596900Y-31750D03*
X-596900Y-209550D03*
X-571500Y-209550D03*
X-495300Y-209550D03*
X-495300Y-31750D03*
X-495300Y-6350D03*
X-469900Y-57150D03*
X-469900Y-82550D03*
X-469900Y-107950D03*
X-546100Y-209550D03*
X-469900Y-133350D03*
X-469900Y-158750D03*
X-469900Y-184150D03*
X-469900Y-209550D03*
X-533400Y-146050D03*
X-558800Y-146050D03*
X-508000Y-146050D03*
X12700Y-68580D03*
X11430Y-248920D03*
D27*
X8230Y-252120D02*
X7620Y-252120D01*
X8230Y-252120D02*
X11430Y-248920D01*
X10770Y-66650D02*
X10770Y-64770D01*
X10770Y-66650D02*
X12700Y-68580D01*
D26*
X-377490Y-142900D02*
X-398780Y-142900D01*
D25*
X-377490Y-142900D02*
X-370180Y-142900D01*
X-368300Y-144780D01*
X-368300Y-160020D02*
X-370180Y-161900D01*
X-377490Y-161900D01*
X-368300Y-160020D02*
X-368300Y-144780D01*
D21*
X-407670Y-104750D03*
X-398780Y-142900D03*
X-335890Y-259080D03*
X170180Y-318390D03*
X177800Y-318390D03*
X170180Y-204470D03*
X177800Y-204470D03*
X170180Y-91440D03*
X177800Y-91440D03*
X164760Y-12700D03*
X368300Y-138820D03*
X368300Y-284480D03*
X368300Y-430920D03*
X-147320Y-346100D03*
X-172720Y-346100D03*
X-55880Y-356260D03*
X9500Y-391160D03*
X-209550Y-346100D03*
D26*
X-318770Y-104750D02*
X-341630Y-104750D01*
X-361650Y-104750D01*
D21*
X-318770Y-104750D03*
D25*
X-328930Y-142900D02*
X-351490Y-142900D01*
X-328930Y-142900D02*
X-307340Y-142900D01*
D21*
X-248920Y-132690D03*
X-248920Y-196190D03*
X-248920Y-69190D03*
D24*
X-260350Y-143510D02*
X-306730Y-143510D01*
X-260350Y-143510D02*
X-249530Y-132690D01*
X-248920Y-132690D01*
X-306730Y-143510D02*
X-307340Y-142900D01*
X-248920Y-132690D02*
X-237490Y-121260D01*
X-237490Y-80010D02*
X-248310Y-69190D01*
X-248920Y-69190D01*
X-237490Y-80010D02*
X-237490Y-121260D01*
X-248920Y-132690D02*
X-237490Y-144120D01*
X-237490Y-185420D01*
X-248260Y-196190D01*
X-248920Y-196190D01*
D21*
X-41910Y-83820D03*
D27*
X-38100Y-85750D02*
X-38710Y-87020D01*
X-41910Y-83820D01*
D21*
X-659130Y-236250D03*
X-651510Y-236250D03*
X-651510Y-228630D03*
X-659130Y-228630D03*
X-36830Y-263550D03*
X274320Y-88900D03*
X266700Y-88900D03*
X266700Y-314960D03*
X274320Y-314960D03*
X266700Y-201930D03*
X274320Y-201930D03*
X225400Y-444500D03*
D28*
X-603250Y-314960D03*
D20*
X-621030Y-401320D03*
D28*
X-590550Y-314960D03*
D20*
X-575310Y-402590D03*
D21*
X-635000Y-133350D03*
X-660400Y-133350D03*
X-685800Y-133350D03*
X-711200Y-133350D03*
X-736600Y-133350D03*
X-736600Y-158750D03*
X-711200Y-158750D03*
X-685800Y-158750D03*
X-660400Y-158750D03*
X-635000Y-158750D03*
X-635000Y-107950D03*
X-660400Y-107950D03*
X-685800Y-107950D03*
X-711200Y-107950D03*
X-736600Y-107950D03*
X-635000Y-82550D03*
X-660400Y-82550D03*
X-685800Y-82550D03*
X-711200Y-82550D03*
X-736600Y-82550D03*
X-683260Y-238760D03*
X-683260Y-226060D03*
X-721360Y-226060D03*
X-721360Y-238760D03*
X-675640Y-238760D03*
X-675640Y-226060D03*
X-728980Y-226060D03*
X-728980Y-238760D03*
X-692150Y-238760D03*
X-692150Y-226060D03*
X-702310Y-226060D03*
X-702310Y-238760D03*
X-712470Y-238760D03*
X-712470Y-226060D03*
X-635000Y-57150D03*
X-660400Y-57150D03*
X-685800Y-57150D03*
X-711200Y-57150D03*
X-736600Y-57150D03*
X-635000Y-31750D03*
X-660400Y-31750D03*
X-685800Y-31750D03*
X-711200Y-31750D03*
X-736600Y-31750D03*
X-702310Y-251460D03*
X-715010Y-264160D03*
X-727710Y-251460D03*
X-740410Y-264160D03*
X-689610Y-264160D03*
X-676910Y-251460D03*
X-635000Y-6350D03*
X-660400Y-6350D03*
X-685800Y-6350D03*
X-711200Y-6350D03*
X-736600Y-6350D03*
D25*
X-78740Y-62890D02*
X-71780Y-69850D01*
X-58700Y-69850D01*
D21*
X-58700Y-69850D03*
D25*
X-59310Y-247040D02*
X-82550Y-247040D01*
X-59310Y-247040D02*
X-58700Y-247650D01*
D21*
X-58700Y-247650D03*
X-82550Y-266040D03*
D25*
X-83210Y-266700D01*
X-101600Y-266700D01*
X-127000Y-241300D01*
X-127000Y-88900D01*
X-114300Y-76200D01*
X-80670Y-81890D02*
X-78740Y-81890D01*
X-86360Y-76200D02*
X-114300Y-76200D01*
X-86360Y-76200D02*
X-80670Y-81890D01*
D21*
X262890Y-397510D03*
D29*
X262890Y-473710D01*
X254000Y-482600D01*
X38100Y-482600D01*
D21*
X230500Y-334700D03*
X230500Y-221700D03*
X230500Y-108700D03*
X38100Y-482600D03*
D25*
X-76200Y-444500D02*
X-88900Y-444500D01*
X-101600Y-431800D01*
X-177800Y-431800D02*
X-215900Y-469900D01*
X-177800Y-431800D02*
X-101600Y-431800D01*
D21*
X222500Y-340700D03*
X222500Y-227700D03*
X222500Y-114700D03*
X208270Y-50020D03*
D25*
X-50800Y-444500D02*
X-63500Y-457200D01*
X-177800Y-457200D02*
X-190500Y-469900D01*
X-177800Y-457200D02*
X-63500Y-457200D01*
X-153530Y-469900D02*
X-165100Y-469900D01*
X-153530Y-469900D02*
X-143751Y-479679D01*
X-60579Y-479679D01*
X-25400Y-444500D01*
M02*
