M48
;GenerationSoftware,Autodesk,EAGLE,9.2.2*%
;CreationDate,2018-12-26T23:13:32Z*%
FMAT,2
ICI,OFF
METRIC,TZ,000.000
T9C0.260
T8C0.300
T7C0.350
T6C0.965
T5C1.016
T4C1.100
T3C1.524
T2C1.600
T1C3.302
%
G90
M71
T1
X97790Y111760
X173990Y111760
X173990Y68580
T2
X196170Y104820
X196170Y93300
X196170Y87040
X189910Y87040
X189910Y93300
X196170Y111080
X189910Y104820
X189910Y111080
X189910Y75520
X196170Y75520
X196170Y69260
X189910Y69260
T3
X72390Y67634
X72390Y73146
T4
X193040Y72390
X193040Y90170
X193040Y107950
T5
X120142Y86487
X153670Y71120
X156210Y71120
X128270Y86360
X130810Y86360
X122682Y86487
X113030Y110490
X110490Y110490
X107950Y110490
X105410Y110490
X102870Y110490
T6
X102870Y67310
X102870Y82550
X107950Y80010
X107950Y82550
X110490Y82550
X113030Y82550
X115570Y82550
X118110Y82550
X120650Y82550
X123190Y82550
X133350Y80010
X105410Y67310
X125730Y82550
X128270Y82550
X130810Y82550
X113030Y80010
X110490Y80010
X100330Y82550
X133350Y82550
X133350Y67310
X130810Y67310
X128270Y67310
X125730Y67310
X115570Y67310
X123190Y67310
X120650Y67310
X118110Y67310
X113030Y67310
X133350Y69850
X133350Y77470
X133350Y74930
X100330Y67310
X133350Y72390
X105410Y82550
X110490Y67310
X107950Y67310
T7
X72390Y85090
X85471Y74549
X87757Y88773
X71120Y85090
X70358Y85090
X94107Y80772
X80899Y87757
X85725Y84709
X84455Y84709
X82423Y87757
X80137Y87757
X89535Y92075
X81661Y94107
X81661Y93345
X96647Y90297
X85725Y85471
X84455Y85471
X84709Y74549
X93345Y80772
X96647Y91059
X88773Y92075
X73152Y85090
X81661Y87757
X81661Y94869
X83693Y86106
X79248Y94615
X78486Y94615
X80010Y94615
X83693Y86868
X72009Y94234
X91059Y71628
X79121Y71628
X143891Y107442
X145161Y87249
X81661Y95631
X81661Y92583
X140716Y86106
X149225Y88265
X149225Y106045
X140589Y103886
X113411Y88773
X113411Y88011
X107442Y103886
X115062Y77343
X115824Y77343
X117094Y77343
X117856Y77343
X123444Y77343
X124206Y77343
X141351Y103886
X143891Y108204
X141478Y86106
X145923Y87249
X78740Y98425
X81280Y98425
X81280Y103505
X78740Y103505
X76200Y103505
X73660Y103505
X71120Y103505
X81280Y106045
X78740Y106045
X76200Y106045
X73660Y106045
X71120Y106045
X76454Y90424
X76454Y91694
X72644Y91694
X72644Y90424
X77216Y90424
X71882Y91694
X71882Y90424
X75565Y90424
X75565Y91694
X74549Y91694
X74549Y90424
X73533Y90424
X73533Y91694
X81280Y108585
X78740Y108585
X76200Y108585
X73660Y108585
X71120Y108585
X81280Y111125
X78740Y111125
X76200Y111125
X73660Y111125
X71120Y111125
X74549Y89154
X73279Y87884
X72009Y89154
X70739Y87884
X75819Y87884
X77089Y89154
X81280Y113665
X78740Y113665
X76200Y113665
X73660Y113665
X71120Y113665
X138910Y107315
X138910Y89535
X136525Y87696
X171069Y74549
X167830Y80830
X167830Y92130
X167830Y103430
X148590Y66040
X167030Y80230
X167030Y91530
X167030Y102830
X165607Y109298
X77216Y91694
X159258Y101981
X160020Y101981
X159258Y90678
X160020Y90678
X159258Y79375
X160020Y79375
X173990Y102235
X174752Y102235
X173990Y90932
X174752Y90932
X173990Y79629
X174752Y79629
X169291Y105156
X164719Y99568
X169291Y93853
X164719Y88265
X169291Y82550
X164719Y76962
X85090Y98425
X167320Y113030
X161256Y69850
X181610Y98806
X181610Y84328
X177292Y103124
X181610Y69596
X132080Y76200
X138430Y74930
X129540Y73660
X137160Y74930
X95250Y106045
X92710Y103505
X90170Y103505
X87630Y103505
X85090Y103505
X85090Y100965
X87630Y100965
X90170Y100965
X92710Y100965
X95250Y100965
X162560Y105156
X87630Y98425
X90170Y98425
X92710Y98425
X95250Y98425
X85090Y95885
X87630Y95885
X90170Y95885
X92710Y95885
X95250Y95885
X95250Y103505
X92710Y106045
X90170Y106045
X87630Y106045
X85090Y106045
X95250Y108585
X92710Y108585
X90170Y108585
X87630Y108585
X85090Y108585
X92710Y113665
X90170Y113665
X87630Y113665
X85090Y113665
X92710Y111125
X90170Y111125
X87630Y111125
X85090Y111125
X85090Y93345
X87630Y93345
X95250Y93345
X95250Y111125
X95250Y113665
X97790Y108585
X97790Y106045
X97790Y103505
X90170Y93345
X97790Y100965
X97790Y98425
X97790Y95885
X97790Y93345
X91440Y99695
X88900Y99695
X93980Y99695
X146050Y107442
X145923Y89408
X104013Y103825
X104902Y100010
X111191Y88392
X161798Y82461
X162560Y82461
X161798Y93853
X162560Y93853
X161798Y105156
X161256Y113030
X181610Y100418
X181610Y85852
X181610Y71208
X130048Y79690
X127508Y79690
X139192Y78674
X145730Y75184
X123825Y79690
X112903Y103825
X119888Y101031
X119888Y94681
X119888Y107381
X140589Y105918
X78867Y90675
X79629Y90675
X79629Y91437
X78867Y91437
X141097Y87945
X172212Y105410
X171450Y105410
X171450Y82804
X172212Y82804
X171450Y94107
X172212Y94107
X167320Y69850
X82677Y74168
X87249Y74041
X81280Y100965
X78740Y100965
X76200Y100965
X73660Y100965
X71120Y100965
X71120Y98425
X73660Y98425
X76200Y98425
T8
X168910Y111760
X166370Y67310
X167640Y72390
X156210Y86360
X156210Y95250
X148590Y97790
X138430Y97790
X146050Y97790
X140970Y97790
X154940Y106680
X160020Y107950
X160020Y111760
X156210Y67310
X144780Y68580
X152400Y87630
X152400Y82550
X154940Y74930
X156591Y99314
X173990Y107950
X157480Y81280
X148590Y69850
X128270Y113030
X128143Y106045
X128143Y99695
X128270Y92710
X121920Y113030
X121793Y106045
X121793Y99695
X121920Y92710
X128270Y87630
X133350Y85090
X114935Y111760
X100965Y111760
X100965Y105410
X100965Y99060
X110617Y99060
X107950Y96520
X110490Y96520
X115570Y99060
X116205Y104775
X116078Y108204
X109220Y107569
X104902Y107569
X104140Y113665
X106680Y113665
X109220Y113665
X111760Y113665
X114300Y113665
X101600Y113665
X142621Y77851
X144780Y92710
X140970Y93980
X144780Y82550
X125730Y90170
X125730Y85090
X115570Y85090
X102870Y85090
X95250Y74930
X97790Y86360
X149860Y74930
X185293Y78994
X100965Y91440
X183007Y113284
X183261Y66548
X178943Y66548
X176657Y81026
X183007Y81280
X169291Y84582
X174117Y84328
X183007Y95758
X175641Y100076
X178181Y113030
X185547Y98552
X106045Y86995
X170180Y109220
X114300Y69850
X120650Y90170
X151130Y67310
X161290Y67310
X123190Y74930
X137160Y77470
X146050Y72390
X140970Y67310
X111760Y76200
X100330Y72390
X107950Y77470
X102870Y78740
X124460Y69850
X115570Y76200
X118110Y72390
X142240Y80010
X146050Y80137
X149860Y80645
X148463Y80645
X148463Y74930
X151765Y76835
X151765Y79375
X114935Y110490
X100965Y109220
X93980Y69850
X88900Y69850
X83820Y69850
X78740Y69850
X93980Y66040
X88900Y66040
X83820Y66040
X78740Y66040
X96520Y67310
X140970Y82550
X158750Y72390
X140970Y100330
X143510Y110490
X140970Y113030
X144780Y102870
X143510Y86360
T9
X167430Y99330
X167430Y100530
X168830Y100530
X168830Y99330
X167430Y88030
X167430Y89230
X168830Y89230
X168830Y88030
X167430Y76730
X85725Y82804
X168830Y76730
X168830Y77930
X167430Y77930
X84455Y82804
M30