M48
;GenerationSoftware,Autodesk,EAGLE,9.2.2*%
;CreationDate,2018-12-21T05:12:47Z*%
FMAT,2
ICI,OFF
METRIC,TZ,000.000
T9C0.260
T8C0.300
T7C0.350
T6C0.965
T5C1.016
T4C1.100
T3C1.524
T2C1.600
T1C3.302
%
G90
M71
T1
X-46990Y-2540
X29210Y-2540
X29210Y-45720
T2
X51390Y-9480
X51390Y-21000
X51390Y-27260
X45130Y-27260
X45130Y-21000
X51390Y-3220
X45130Y-9480
X45130Y-3220
X45130Y-38780
X51390Y-38780
X51390Y-45040
X45130Y-45040
T3
X-72390Y-46666
X-72390Y-41154
T4
X48260Y-41910
X48260Y-24130
X48260Y-6350
T5
X-24638Y-27813
X8890Y-43180
X11430Y-43180
X-16510Y-27940
X-13970Y-27940
X-22098Y-27813
X-31750Y-3810
X-34290Y-3810
X-36830Y-3810
X-39370Y-3810
X-41910Y-3810
T6
X-41910Y-46990
X-41910Y-31750
X-36830Y-34290
X-36830Y-31750
X-34290Y-31750
X-31750Y-31750
X-29210Y-31750
X-26670Y-31750
X-24130Y-31750
X-21590Y-31750
X-11430Y-34290
X-39370Y-46990
X-19050Y-31750
X-16510Y-31750
X-13970Y-31750
X-31750Y-34290
X-34290Y-34290
X-44450Y-31750
X-11430Y-31750
X-11430Y-46990
X-13970Y-46990
X-16510Y-46990
X-19050Y-46990
X-29210Y-46990
X-21590Y-46990
X-24130Y-46990
X-26670Y-46990
X-31750Y-46990
X-11430Y-44450
X-11430Y-36830
X-11430Y-39370
X-44450Y-46990
X-11430Y-41910
X-39370Y-31750
X-34290Y-46990
X-36830Y-46990
T7
X-72390Y-29210
X-59309Y-39751
X-57023Y-25527
X-73660Y-29210
X-74422Y-29210
X-50673Y-33528
X-63881Y-26543
X-59055Y-29591
X-60325Y-29591
X-62357Y-26543
X-64643Y-26543
X-55245Y-22225
X-63119Y-20193
X-63119Y-20955
X-48133Y-24003
X-59055Y-28829
X-60325Y-28829
X-60071Y-39751
X-51435Y-33528
X-48133Y-23241
X-56007Y-22225
X-71628Y-29210
X-63119Y-26543
X-63119Y-19431
X-61087Y-28194
X-65532Y-19685
X-66294Y-19685
X-64770Y-19685
X-61087Y-27432
X-72771Y-20066
X-53721Y-42672
X-65659Y-42672
X-889Y-6858
X381Y-27051
X-63119Y-18669
X-63119Y-21717
X-4064Y-28194
X4445Y-26035
X4445Y-8255
X-4191Y-10414
X-31369Y-25527
X-31369Y-26289
X-37338Y-10414
X-29718Y-36957
X-28956Y-36957
X-27686Y-36957
X-26924Y-36957
X-21336Y-36957
X-20574Y-36957
X-3429Y-10414
X-889Y-6096
X-3302Y-28194
X1143Y-27051
X-66040Y-15875
X-63500Y-15875
X-63500Y-10795
X-66040Y-10795
X-68580Y-10795
X-71120Y-10795
X-73660Y-10795
X-63500Y-8255
X-66040Y-8255
X-68580Y-8255
X-71120Y-8255
X-73660Y-8255
X-68326Y-23876
X-68326Y-22606
X-72136Y-22606
X-72136Y-23876
X-67564Y-23876
X-72898Y-22606
X-72898Y-23876
X-69215Y-23876
X-69215Y-22606
X-70231Y-22606
X-70231Y-23876
X-71247Y-23876
X-71247Y-22606
X-63500Y-5715
X-66040Y-5715
X-68580Y-5715
X-71120Y-5715
X-73660Y-5715
X-63500Y-3175
X-66040Y-3175
X-68580Y-3175
X-71120Y-3175
X-73660Y-3175
X-70231Y-25146
X-71501Y-26416
X-72771Y-25146
X-74041Y-26416
X-68961Y-26416
X-67691Y-25146
X-63500Y-635
X-66040Y-635
X-68580Y-635
X-71120Y-635
X-73660Y-635
X-5870Y-6985
X-5870Y-24765
X-8255Y-26604
X26289Y-39751
X23050Y-33470
X23050Y-22170
X23050Y-10870
X3810Y-48260
X22250Y-34070
X22250Y-22770
X22250Y-11470
X20827Y-5002
X-67564Y-22606
X14478Y-12319
X15240Y-12319
X14478Y-23622
X15240Y-23622
X14478Y-34925
X15240Y-34925
X29210Y-12065
X29972Y-12065
X29210Y-23368
X29972Y-23368
X29210Y-34671
X29972Y-34671
X24511Y-9144
X19939Y-14732
X24511Y-20447
X19939Y-26035
X24511Y-31750
X19939Y-37338
X-59690Y-15875
X22540Y-1270
X16476Y-44450
X36830Y-15494
X36830Y-29972
X32512Y-11176
X36830Y-44704
X-12700Y-38100
X-6350Y-39370
X-15240Y-40640
X-7620Y-39370
X-49530Y-8255
X-52070Y-10795
X-54610Y-10795
X-57150Y-10795
X-59690Y-10795
X-59690Y-13335
X-57150Y-13335
X-54610Y-13335
X-52070Y-13335
X-49530Y-13335
X17780Y-9144
X-57150Y-15875
X-54610Y-15875
X-52070Y-15875
X-49530Y-15875
X-59690Y-18415
X-57150Y-18415
X-54610Y-18415
X-52070Y-18415
X-49530Y-18415
X-49530Y-10795
X-52070Y-8255
X-54610Y-8255
X-57150Y-8255
X-59690Y-8255
X-49530Y-5715
X-52070Y-5715
X-54610Y-5715
X-57150Y-5715
X-59690Y-5715
X-52070Y-635
X-54610Y-635
X-57150Y-635
X-59690Y-635
X-52070Y-3175
X-54610Y-3175
X-57150Y-3175
X-59690Y-3175
X-59690Y-20955
X-57150Y-20955
X-49530Y-20955
X-49530Y-3175
X-49530Y-635
X-46990Y-5715
X-46990Y-8255
X-46990Y-10795
X-54610Y-20955
X-46990Y-13335
X-46990Y-15875
X-46990Y-18415
X-46990Y-20955
X-53340Y-14605
X-55880Y-14605
X-50800Y-14605
X1270Y-6858
X1143Y-24892
X-40767Y-10475
X-39878Y-14290
X-33589Y-25908
X17018Y-31839
X17780Y-31839
X17018Y-20447
X17780Y-20447
X17018Y-9144
X16476Y-1270
X36830Y-13882
X36830Y-28448
X36830Y-43092
X-14732Y-34610
X-17272Y-34610
X-5588Y-35626
X950Y-39116
X-20955Y-34610
X-31877Y-10475
X-24892Y-13269
X-24892Y-19619
X-24892Y-6919
X-4191Y-8382
X-65913Y-23625
X-65151Y-23625
X-65151Y-22863
X-65913Y-22863
X-3683Y-26355
X27432Y-8890
X26670Y-8890
X26670Y-31496
X27432Y-31496
X26670Y-20193
X27432Y-20193
X22540Y-44450
X-62103Y-40132
X-57531Y-40259
X-63500Y-13335
X-66040Y-13335
X-68580Y-13335
X-71120Y-13335
X-73660Y-13335
X-73660Y-15875
X-71120Y-15875
X-68580Y-15875
T8
X24130Y-2540
X21590Y-46990
X22860Y-41910
X11430Y-27940
X11430Y-19050
X3810Y-16510
X-6350Y-16510
X1270Y-16510
X-3810Y-16510
X10160Y-7620
X15240Y-6350
X15240Y-2540
X11430Y-46990
X0Y-45720
X7620Y-26670
X7620Y-31750
X10160Y-39370
X11811Y-14986
X29210Y-6350
X12700Y-33020
X3810Y-44450
X-16510Y-1270
X-16637Y-8255
X-16637Y-14605
X-16510Y-21590
X-22860Y-1270
X-22987Y-8255
X-22987Y-14605
X-22860Y-21590
X-16510Y-26670
X-11430Y-29210
X-29845Y-2540
X-43815Y-2540
X-43815Y-8890
X-43815Y-15240
X-34163Y-15240
X-36830Y-17780
X-34290Y-17780
X-29210Y-15240
X-28575Y-9525
X-28702Y-6096
X-35560Y-6731
X-39878Y-6731
X-40640Y-635
X-38100Y-635
X-35560Y-635
X-33020Y-635
X-30480Y-635
X-43180Y-635
X-2159Y-36449
X0Y-21590
X-3810Y-20320
X0Y-31750
X-19050Y-24130
X-19050Y-29210
X-29210Y-29210
X-41910Y-29210
X-49530Y-39370
X-46990Y-27940
X5080Y-39370
X40513Y-35306
X-43815Y-22860
X38227Y-1016
X38481Y-47752
X34163Y-47752
X31877Y-33274
X38227Y-33020
X24511Y-29718
X29337Y-29972
X38227Y-18542
X30861Y-14224
X33401Y-1270
X40767Y-15748
X-38735Y-27305
X25400Y-5080
X-30480Y-44450
X-24130Y-24130
X6350Y-46990
X16510Y-46990
X-21590Y-39370
X-7620Y-36830
X1270Y-41910
X-3810Y-46990
X-33020Y-38100
X-44450Y-41910
X-36830Y-36830
X-41910Y-35560
X-20320Y-44450
X-29210Y-38100
X-26670Y-41910
X-2540Y-34290
X1270Y-34163
X5080Y-33655
X3683Y-33655
X3683Y-39370
X6985Y-37465
X6985Y-34925
X-29845Y-3810
X-43815Y-5080
X-50800Y-44450
X-55880Y-44450
X-60960Y-44450
X-66040Y-44450
X-50800Y-48260
X-55880Y-48260
X-60960Y-48260
X-66040Y-48260
X-48260Y-46990
X-3810Y-31750
X13970Y-41910
X-3810Y-13970
X-1270Y-3810
X-3810Y-1270
X0Y-11430
X-1270Y-27940
T9
X22650Y-14970
X22650Y-13770
X24050Y-13770
X24050Y-14970
X22650Y-26270
X22650Y-25070
X24050Y-25070
X24050Y-26270
X22650Y-37570
X-59055Y-31496
X24050Y-37570
X24050Y-36370
X22650Y-36370
X-60325Y-31496
M30