G04 EAGLE Gerber RS-274X export*
G75*
%MOMM*%
%FSLAX34Y34*%
%LPD*%
%IN*%
%IPPOS*%
%AMOC8*
5,1,8,0,0,1.08239X$1,22.5*%
G01*
%ADD10C,0.254000*%


D10*
X-762000Y-482600D02*
X-761952Y-483707D01*
X-761807Y-484805D01*
X-761567Y-485887D01*
X-761234Y-486944D01*
X-760810Y-487967D01*
X-760299Y-488950D01*
X-759703Y-489884D01*
X-759029Y-490763D01*
X-758280Y-491580D01*
X-757463Y-492329D01*
X-756584Y-493003D01*
X-755650Y-493599D01*
X-754667Y-494110D01*
X-753644Y-494534D01*
X-752587Y-494867D01*
X-751505Y-495107D01*
X-750407Y-495252D01*
X-749300Y-495300D01*
X533400Y-495300D01*
X534507Y-495252D01*
X535605Y-495107D01*
X536687Y-494867D01*
X537744Y-494534D01*
X538767Y-494110D01*
X539750Y-493599D01*
X540684Y-493003D01*
X541563Y-492329D01*
X542380Y-491580D01*
X543129Y-490763D01*
X543803Y-489884D01*
X544399Y-488950D01*
X544910Y-487967D01*
X545334Y-486944D01*
X545667Y-485887D01*
X545907Y-484805D01*
X546052Y-483707D01*
X546100Y-482600D01*
X546100Y0D01*
X546052Y1107D01*
X545907Y2205D01*
X545667Y3287D01*
X545334Y4344D01*
X544910Y5367D01*
X544399Y6350D01*
X543803Y7284D01*
X543129Y8163D01*
X542380Y8980D01*
X541563Y9729D01*
X540684Y10403D01*
X539750Y10999D01*
X538767Y11510D01*
X537744Y11934D01*
X536687Y12267D01*
X535605Y12507D01*
X534507Y12652D01*
X533400Y12700D01*
X-749300Y12700D01*
X-750407Y12652D01*
X-751505Y12507D01*
X-752587Y12267D01*
X-753644Y11934D01*
X-754667Y11510D01*
X-755650Y10999D01*
X-756584Y10403D01*
X-757463Y9729D01*
X-758280Y8980D01*
X-759029Y8163D01*
X-759703Y7284D01*
X-760299Y6350D01*
X-760810Y5367D01*
X-761234Y4344D01*
X-761567Y3287D01*
X-761807Y2205D01*
X-761952Y1107D01*
X-762000Y0D01*
X-762000Y-482600D01*
X-762000Y-482600D02*
X-761952Y-483707D01*
X-761807Y-484805D01*
X-761567Y-485887D01*
X-761234Y-486944D01*
X-760810Y-487967D01*
X-760299Y-488950D01*
X-759703Y-489884D01*
X-759029Y-490763D01*
X-758280Y-491580D01*
X-757463Y-492329D01*
X-756584Y-493003D01*
X-755650Y-493599D01*
X-754667Y-494110D01*
X-753644Y-494534D01*
X-752587Y-494867D01*
X-751505Y-495107D01*
X-750407Y-495252D01*
X-749300Y-495300D01*
X533400Y-495300D01*
X534507Y-495252D01*
X535605Y-495107D01*
X536687Y-494867D01*
X537744Y-494534D01*
X538767Y-494110D01*
X539750Y-493599D01*
X540684Y-493003D01*
X541563Y-492329D01*
X542380Y-491580D01*
X543129Y-490763D01*
X543803Y-489884D01*
X544399Y-488950D01*
X544910Y-487967D01*
X545334Y-486944D01*
X545667Y-485887D01*
X545907Y-484805D01*
X546052Y-483707D01*
X546100Y-482600D01*
X546100Y0D01*
X546052Y1107D01*
X545907Y2205D01*
X545667Y3287D01*
X545334Y4344D01*
X544910Y5367D01*
X544399Y6350D01*
X543803Y7284D01*
X543129Y8163D01*
X542380Y8980D01*
X541563Y9729D01*
X540684Y10403D01*
X539750Y10999D01*
X538767Y11510D01*
X537744Y11934D01*
X536687Y12267D01*
X535605Y12507D01*
X534507Y12652D01*
X533400Y12700D01*
X-749300Y12700D01*
X-750407Y12652D01*
X-751505Y12507D01*
X-752587Y12267D01*
X-753644Y11934D01*
X-754667Y11510D01*
X-755650Y10999D01*
X-756584Y10403D01*
X-757463Y9729D01*
X-758280Y8980D01*
X-759029Y8163D01*
X-759703Y7284D01*
X-760299Y6350D01*
X-760810Y5367D01*
X-761234Y4344D01*
X-761567Y3287D01*
X-761807Y2205D01*
X-761952Y1107D01*
X-762000Y0D01*
X-762000Y-482600D01*
X308610Y-457740D02*
X308539Y-458819D01*
X308398Y-459891D01*
X308187Y-460951D01*
X307908Y-461995D01*
X307560Y-463019D01*
X307146Y-464017D01*
X306668Y-464987D01*
X306128Y-465923D01*
X305527Y-466822D01*
X304869Y-467679D01*
X304157Y-468492D01*
X303392Y-469257D01*
X302579Y-469969D01*
X301722Y-470627D01*
X300823Y-471228D01*
X299887Y-471768D01*
X298917Y-472246D01*
X297919Y-472660D01*
X296895Y-473008D01*
X295851Y-473287D01*
X294791Y-473498D01*
X293719Y-473639D01*
X292640Y-473710D01*
X291560Y-473710D01*
X290481Y-473639D01*
X289409Y-473498D01*
X288349Y-473287D01*
X287305Y-473008D01*
X286281Y-472660D01*
X285283Y-472246D01*
X284313Y-471768D01*
X283377Y-471228D01*
X282478Y-470627D01*
X281621Y-469969D01*
X280808Y-469257D01*
X280044Y-468492D01*
X279331Y-467679D01*
X278673Y-466822D01*
X278072Y-465923D01*
X277532Y-464987D01*
X277054Y-464017D01*
X276640Y-463019D01*
X276292Y-461995D01*
X276013Y-460951D01*
X275802Y-459891D01*
X275661Y-458819D01*
X275590Y-457740D01*
X275590Y-456660D01*
X275661Y-455581D01*
X275802Y-454509D01*
X276013Y-453449D01*
X276292Y-452405D01*
X276640Y-451381D01*
X277054Y-450383D01*
X277532Y-449413D01*
X278072Y-448477D01*
X278673Y-447578D01*
X279331Y-446721D01*
X280044Y-445908D01*
X280808Y-445144D01*
X281621Y-444431D01*
X282478Y-443773D01*
X283377Y-443172D01*
X284313Y-442632D01*
X285283Y-442154D01*
X286281Y-441740D01*
X287305Y-441392D01*
X288349Y-441113D01*
X289409Y-440902D01*
X290481Y-440761D01*
X291560Y-440690D01*
X292640Y-440690D01*
X293719Y-440761D01*
X294791Y-440902D01*
X295851Y-441113D01*
X296895Y-441392D01*
X297919Y-441740D01*
X298917Y-442154D01*
X299887Y-442632D01*
X300823Y-443172D01*
X301722Y-443773D01*
X302579Y-444431D01*
X303392Y-445144D01*
X304157Y-445908D01*
X304869Y-446721D01*
X305527Y-447578D01*
X306128Y-448477D01*
X306668Y-449413D01*
X307146Y-450383D01*
X307560Y-451381D01*
X307908Y-452405D01*
X308187Y-453449D01*
X308398Y-454509D01*
X308539Y-455581D01*
X308610Y-456660D01*
X308610Y-457740D01*
X308610Y-25940D02*
X308539Y-27019D01*
X308398Y-28091D01*
X308187Y-29151D01*
X307908Y-30195D01*
X307560Y-31219D01*
X307146Y-32217D01*
X306668Y-33187D01*
X306128Y-34123D01*
X305527Y-35022D01*
X304869Y-35879D01*
X304157Y-36692D01*
X303392Y-37457D01*
X302579Y-38169D01*
X301722Y-38827D01*
X300823Y-39428D01*
X299887Y-39968D01*
X298917Y-40446D01*
X297919Y-40860D01*
X296895Y-41208D01*
X295851Y-41487D01*
X294791Y-41698D01*
X293719Y-41839D01*
X292640Y-41910D01*
X291560Y-41910D01*
X290481Y-41839D01*
X289409Y-41698D01*
X288349Y-41487D01*
X287305Y-41208D01*
X286281Y-40860D01*
X285283Y-40446D01*
X284313Y-39968D01*
X283377Y-39428D01*
X282478Y-38827D01*
X281621Y-38169D01*
X280808Y-37457D01*
X280044Y-36692D01*
X279331Y-35879D01*
X278673Y-35022D01*
X278072Y-34123D01*
X277532Y-33187D01*
X277054Y-32217D01*
X276640Y-31219D01*
X276292Y-30195D01*
X276013Y-29151D01*
X275802Y-28091D01*
X275661Y-27019D01*
X275590Y-25940D01*
X275590Y-24860D01*
X275661Y-23781D01*
X275802Y-22709D01*
X276013Y-21649D01*
X276292Y-20605D01*
X276640Y-19581D01*
X277054Y-18583D01*
X277532Y-17613D01*
X278072Y-16677D01*
X278673Y-15778D01*
X279331Y-14921D01*
X280044Y-14108D01*
X280808Y-13344D01*
X281621Y-12631D01*
X282478Y-11973D01*
X283377Y-11372D01*
X284313Y-10832D01*
X285283Y-10354D01*
X286281Y-9940D01*
X287305Y-9592D01*
X288349Y-9313D01*
X289409Y-9102D01*
X290481Y-8961D01*
X291560Y-8890D01*
X292640Y-8890D01*
X293719Y-8961D01*
X294791Y-9102D01*
X295851Y-9313D01*
X296895Y-9592D01*
X297919Y-9940D01*
X298917Y-10354D01*
X299887Y-10832D01*
X300823Y-11372D01*
X301722Y-11973D01*
X302579Y-12631D01*
X303392Y-13344D01*
X304157Y-14108D01*
X304869Y-14921D01*
X305527Y-15778D01*
X306128Y-16677D01*
X306668Y-17613D01*
X307146Y-18583D01*
X307560Y-19581D01*
X307908Y-20605D01*
X308187Y-21649D01*
X308398Y-22709D01*
X308539Y-23781D01*
X308610Y-24860D01*
X308610Y-25940D01*
X-453390Y-25940D02*
X-453461Y-27019D01*
X-453602Y-28091D01*
X-453813Y-29151D01*
X-454092Y-30195D01*
X-454440Y-31219D01*
X-454854Y-32217D01*
X-455332Y-33187D01*
X-455872Y-34123D01*
X-456473Y-35022D01*
X-457131Y-35879D01*
X-457844Y-36692D01*
X-458608Y-37457D01*
X-459421Y-38169D01*
X-460278Y-38827D01*
X-461177Y-39428D01*
X-462113Y-39968D01*
X-463083Y-40446D01*
X-464081Y-40860D01*
X-465105Y-41208D01*
X-466149Y-41487D01*
X-467209Y-41698D01*
X-468281Y-41839D01*
X-469360Y-41910D01*
X-470440Y-41910D01*
X-471519Y-41839D01*
X-472591Y-41698D01*
X-473651Y-41487D01*
X-474695Y-41208D01*
X-475719Y-40860D01*
X-476717Y-40446D01*
X-477687Y-39968D01*
X-478623Y-39428D01*
X-479522Y-38827D01*
X-480379Y-38169D01*
X-481192Y-37457D01*
X-481957Y-36692D01*
X-482669Y-35879D01*
X-483327Y-35022D01*
X-483928Y-34123D01*
X-484468Y-33187D01*
X-484946Y-32217D01*
X-485360Y-31219D01*
X-485708Y-30195D01*
X-485987Y-29151D01*
X-486198Y-28091D01*
X-486339Y-27019D01*
X-486410Y-25940D01*
X-486410Y-24860D01*
X-486339Y-23781D01*
X-486198Y-22709D01*
X-485987Y-21649D01*
X-485708Y-20605D01*
X-485360Y-19581D01*
X-484946Y-18583D01*
X-484468Y-17613D01*
X-483928Y-16677D01*
X-483327Y-15778D01*
X-482669Y-14921D01*
X-481957Y-14108D01*
X-481192Y-13344D01*
X-480379Y-12631D01*
X-479522Y-11973D01*
X-478623Y-11372D01*
X-477687Y-10832D01*
X-476717Y-10354D01*
X-475719Y-9940D01*
X-474695Y-9592D01*
X-473651Y-9313D01*
X-472591Y-9102D01*
X-471519Y-8961D01*
X-470440Y-8890D01*
X-469360Y-8890D01*
X-468281Y-8961D01*
X-467209Y-9102D01*
X-466149Y-9313D01*
X-465105Y-9592D01*
X-464081Y-9940D01*
X-463083Y-10354D01*
X-462113Y-10832D01*
X-461177Y-11372D01*
X-460278Y-11973D01*
X-459421Y-12631D01*
X-458608Y-13344D01*
X-457844Y-14108D01*
X-457131Y-14921D01*
X-456473Y-15778D01*
X-455872Y-16677D01*
X-455332Y-17613D01*
X-454854Y-18583D01*
X-454440Y-19581D01*
X-454092Y-20605D01*
X-453813Y-21649D01*
X-453602Y-22709D01*
X-453461Y-23781D01*
X-453390Y-24860D01*
X-453390Y-25940D01*
M02*
