G04 EAGLE Gerber RS-274X export*
G75*
%MOMM*%
%FSLAX34Y34*%
%LPD*%
%INSilkscreen Bottom*%
%IPPOS*%
%AMOC8*
5,1,8,0,0,1.08239X$1,22.5*%
G01*
%ADD10C,0.101600*%
%ADD11C,0.152400*%
%ADD12C,0.762000*%
%ADD13C,0.406400*%
%ADD14R,0.762000X0.508000*%
%ADD15R,0.762000X1.016000*%
%ADD16C,0.127000*%


D10*
X-22154Y-431292D02*
X-19558Y-428046D01*
X-31242Y-428046D01*
X-31242Y-424801D02*
X-31242Y-431292D01*
X-25400Y-419862D02*
X-25170Y-419859D01*
X-24940Y-419851D01*
X-24711Y-419837D01*
X-24482Y-419818D01*
X-24253Y-419793D01*
X-24025Y-419763D01*
X-23798Y-419728D01*
X-23572Y-419687D01*
X-23347Y-419641D01*
X-23123Y-419589D01*
X-22900Y-419532D01*
X-22679Y-419470D01*
X-22459Y-419402D01*
X-22241Y-419329D01*
X-22025Y-419251D01*
X-21811Y-419168D01*
X-21599Y-419080D01*
X-21388Y-418987D01*
X-21181Y-418888D01*
X-21181Y-418889D02*
X-21091Y-418856D01*
X-21002Y-418820D01*
X-20914Y-418780D01*
X-20829Y-418736D01*
X-20745Y-418689D01*
X-20663Y-418639D01*
X-20583Y-418585D01*
X-20506Y-418529D01*
X-20430Y-418469D01*
X-20357Y-418406D01*
X-20287Y-418341D01*
X-20219Y-418272D01*
X-20155Y-418201D01*
X-20093Y-418128D01*
X-20034Y-418052D01*
X-19978Y-417974D01*
X-19925Y-417893D01*
X-19876Y-417811D01*
X-19830Y-417727D01*
X-19787Y-417640D01*
X-19748Y-417553D01*
X-19712Y-417463D01*
X-19680Y-417373D01*
X-19652Y-417281D01*
X-19627Y-417188D01*
X-19606Y-417094D01*
X-19589Y-417000D01*
X-19575Y-416905D01*
X-19566Y-416809D01*
X-19560Y-416713D01*
X-19558Y-416617D01*
X-19560Y-416521D01*
X-19566Y-416425D01*
X-19575Y-416329D01*
X-19589Y-416234D01*
X-19606Y-416140D01*
X-19627Y-416046D01*
X-19652Y-415953D01*
X-19680Y-415861D01*
X-19712Y-415771D01*
X-19748Y-415681D01*
X-19787Y-415594D01*
X-19830Y-415507D01*
X-19876Y-415423D01*
X-19925Y-415341D01*
X-19978Y-415260D01*
X-20034Y-415182D01*
X-20093Y-415106D01*
X-20155Y-415033D01*
X-20219Y-414962D01*
X-20287Y-414893D01*
X-20357Y-414828D01*
X-20430Y-414765D01*
X-20506Y-414705D01*
X-20583Y-414649D01*
X-20663Y-414595D01*
X-20745Y-414545D01*
X-20829Y-414498D01*
X-20914Y-414454D01*
X-21002Y-414414D01*
X-21091Y-414378D01*
X-21181Y-414345D01*
X-21388Y-414246D01*
X-21599Y-414153D01*
X-21811Y-414065D01*
X-22025Y-413982D01*
X-22241Y-413904D01*
X-22459Y-413831D01*
X-22679Y-413763D01*
X-22900Y-413701D01*
X-23123Y-413644D01*
X-23347Y-413592D01*
X-23572Y-413546D01*
X-23798Y-413505D01*
X-24025Y-413470D01*
X-24253Y-413440D01*
X-24482Y-413415D01*
X-24711Y-413396D01*
X-24940Y-413382D01*
X-25170Y-413374D01*
X-25400Y-413371D01*
X-25400Y-419862D02*
X-25630Y-419859D01*
X-25860Y-419851D01*
X-26089Y-419837D01*
X-26318Y-419818D01*
X-26547Y-419793D01*
X-26775Y-419763D01*
X-27002Y-419728D01*
X-27228Y-419687D01*
X-27453Y-419641D01*
X-27677Y-419589D01*
X-27900Y-419532D01*
X-28121Y-419470D01*
X-28341Y-419402D01*
X-28559Y-419329D01*
X-28775Y-419251D01*
X-28989Y-419168D01*
X-29201Y-419080D01*
X-29412Y-418987D01*
X-29619Y-418888D01*
X-29619Y-418889D02*
X-29709Y-418856D01*
X-29798Y-418820D01*
X-29886Y-418779D01*
X-29971Y-418736D01*
X-30055Y-418689D01*
X-30137Y-418639D01*
X-30217Y-418585D01*
X-30294Y-418529D01*
X-30370Y-418469D01*
X-30443Y-418406D01*
X-30513Y-418341D01*
X-30581Y-418272D01*
X-30645Y-418201D01*
X-30707Y-418128D01*
X-30766Y-418052D01*
X-30822Y-417974D01*
X-30875Y-417893D01*
X-30924Y-417811D01*
X-30970Y-417727D01*
X-31013Y-417640D01*
X-31052Y-417553D01*
X-31088Y-417463D01*
X-31120Y-417373D01*
X-31148Y-417281D01*
X-31173Y-417188D01*
X-31194Y-417094D01*
X-31211Y-417000D01*
X-31225Y-416905D01*
X-31234Y-416809D01*
X-31240Y-416713D01*
X-31242Y-416617D01*
X-29619Y-414345D02*
X-29412Y-414246D01*
X-29201Y-414153D01*
X-28989Y-414065D01*
X-28775Y-413982D01*
X-28559Y-413904D01*
X-28341Y-413831D01*
X-28121Y-413763D01*
X-27900Y-413701D01*
X-27677Y-413644D01*
X-27453Y-413592D01*
X-27228Y-413546D01*
X-27002Y-413505D01*
X-26775Y-413470D01*
X-26547Y-413440D01*
X-26318Y-413415D01*
X-26089Y-413396D01*
X-25860Y-413382D01*
X-25630Y-413374D01*
X-25400Y-413371D01*
X-29619Y-414345D02*
X-29709Y-414378D01*
X-29798Y-414414D01*
X-29886Y-414455D01*
X-29971Y-414498D01*
X-30055Y-414545D01*
X-30137Y-414595D01*
X-30217Y-414649D01*
X-30295Y-414705D01*
X-30370Y-414765D01*
X-30443Y-414828D01*
X-30513Y-414893D01*
X-30581Y-414962D01*
X-30645Y-415033D01*
X-30707Y-415106D01*
X-30766Y-415182D01*
X-30822Y-415260D01*
X-30875Y-415341D01*
X-30924Y-415423D01*
X-30970Y-415507D01*
X-31013Y-415594D01*
X-31052Y-415681D01*
X-31088Y-415771D01*
X-31120Y-415861D01*
X-31148Y-415953D01*
X-31173Y-416046D01*
X-31194Y-416140D01*
X-31211Y-416234D01*
X-31225Y-416329D01*
X-31234Y-416425D01*
X-31240Y-416521D01*
X-31242Y-416617D01*
X-28646Y-419213D02*
X-22154Y-414020D01*
X-46581Y-430318D02*
X-46788Y-430417D01*
X-46999Y-430510D01*
X-47211Y-430598D01*
X-47425Y-430681D01*
X-47641Y-430759D01*
X-47859Y-430832D01*
X-48079Y-430900D01*
X-48300Y-430962D01*
X-48523Y-431019D01*
X-48747Y-431071D01*
X-48972Y-431117D01*
X-49198Y-431158D01*
X-49425Y-431193D01*
X-49653Y-431223D01*
X-49882Y-431248D01*
X-50111Y-431267D01*
X-50340Y-431281D01*
X-50570Y-431289D01*
X-50800Y-431292D01*
X-46581Y-430318D02*
X-46491Y-430285D01*
X-46402Y-430249D01*
X-46314Y-430209D01*
X-46229Y-430165D01*
X-46145Y-430118D01*
X-46063Y-430068D01*
X-45983Y-430014D01*
X-45906Y-429958D01*
X-45830Y-429898D01*
X-45757Y-429835D01*
X-45687Y-429770D01*
X-45619Y-429701D01*
X-45555Y-429630D01*
X-45493Y-429557D01*
X-45434Y-429481D01*
X-45378Y-429403D01*
X-45325Y-429322D01*
X-45276Y-429240D01*
X-45230Y-429156D01*
X-45187Y-429069D01*
X-45148Y-428982D01*
X-45112Y-428892D01*
X-45080Y-428802D01*
X-45052Y-428710D01*
X-45027Y-428617D01*
X-45006Y-428523D01*
X-44989Y-428429D01*
X-44975Y-428334D01*
X-44966Y-428238D01*
X-44960Y-428142D01*
X-44958Y-428046D01*
X-44960Y-427950D01*
X-44966Y-427854D01*
X-44975Y-427758D01*
X-44989Y-427663D01*
X-45006Y-427569D01*
X-45027Y-427475D01*
X-45052Y-427382D01*
X-45080Y-427290D01*
X-45112Y-427200D01*
X-45148Y-427110D01*
X-45187Y-427023D01*
X-45230Y-426936D01*
X-45276Y-426852D01*
X-45325Y-426770D01*
X-45378Y-426689D01*
X-45434Y-426611D01*
X-45493Y-426535D01*
X-45555Y-426462D01*
X-45619Y-426391D01*
X-45687Y-426322D01*
X-45757Y-426257D01*
X-45830Y-426194D01*
X-45906Y-426134D01*
X-45983Y-426078D01*
X-46063Y-426024D01*
X-46145Y-425974D01*
X-46229Y-425927D01*
X-46314Y-425883D01*
X-46402Y-425843D01*
X-46491Y-425807D01*
X-46581Y-425774D01*
X-46581Y-425775D02*
X-46788Y-425676D01*
X-46999Y-425583D01*
X-47211Y-425495D01*
X-47425Y-425412D01*
X-47641Y-425334D01*
X-47859Y-425261D01*
X-48079Y-425193D01*
X-48300Y-425131D01*
X-48523Y-425074D01*
X-48747Y-425022D01*
X-48972Y-424976D01*
X-49198Y-424935D01*
X-49425Y-424900D01*
X-49653Y-424870D01*
X-49882Y-424845D01*
X-50111Y-424826D01*
X-50340Y-424812D01*
X-50570Y-424804D01*
X-50800Y-424801D01*
X-50800Y-431292D02*
X-51030Y-431289D01*
X-51260Y-431281D01*
X-51489Y-431267D01*
X-51718Y-431248D01*
X-51947Y-431223D01*
X-52175Y-431193D01*
X-52402Y-431158D01*
X-52628Y-431117D01*
X-52853Y-431071D01*
X-53077Y-431019D01*
X-53300Y-430962D01*
X-53521Y-430900D01*
X-53741Y-430832D01*
X-53959Y-430759D01*
X-54175Y-430681D01*
X-54389Y-430598D01*
X-54601Y-430510D01*
X-54812Y-430417D01*
X-55019Y-430318D01*
X-55109Y-430285D01*
X-55198Y-430249D01*
X-55286Y-430208D01*
X-55371Y-430165D01*
X-55455Y-430118D01*
X-55537Y-430068D01*
X-55617Y-430014D01*
X-55694Y-429958D01*
X-55770Y-429898D01*
X-55843Y-429835D01*
X-55913Y-429770D01*
X-55981Y-429701D01*
X-56045Y-429630D01*
X-56107Y-429557D01*
X-56166Y-429481D01*
X-56222Y-429403D01*
X-56275Y-429322D01*
X-56324Y-429240D01*
X-56370Y-429156D01*
X-56413Y-429069D01*
X-56452Y-428982D01*
X-56488Y-428892D01*
X-56520Y-428802D01*
X-56548Y-428710D01*
X-56573Y-428617D01*
X-56594Y-428523D01*
X-56611Y-428429D01*
X-56625Y-428334D01*
X-56634Y-428238D01*
X-56640Y-428142D01*
X-56642Y-428046D01*
X-55019Y-425775D02*
X-54812Y-425676D01*
X-54601Y-425583D01*
X-54389Y-425495D01*
X-54175Y-425412D01*
X-53959Y-425334D01*
X-53741Y-425261D01*
X-53521Y-425193D01*
X-53300Y-425131D01*
X-53077Y-425074D01*
X-52853Y-425022D01*
X-52628Y-424976D01*
X-52402Y-424935D01*
X-52175Y-424900D01*
X-51947Y-424870D01*
X-51718Y-424845D01*
X-51489Y-424826D01*
X-51260Y-424812D01*
X-51030Y-424804D01*
X-50800Y-424801D01*
X-55019Y-425774D02*
X-55109Y-425807D01*
X-55198Y-425843D01*
X-55286Y-425884D01*
X-55371Y-425927D01*
X-55455Y-425974D01*
X-55537Y-426024D01*
X-55617Y-426078D01*
X-55695Y-426134D01*
X-55770Y-426194D01*
X-55843Y-426257D01*
X-55913Y-426322D01*
X-55981Y-426391D01*
X-56045Y-426462D01*
X-56107Y-426535D01*
X-56166Y-426611D01*
X-56222Y-426689D01*
X-56275Y-426770D01*
X-56324Y-426852D01*
X-56370Y-426936D01*
X-56413Y-427023D01*
X-56452Y-427110D01*
X-56488Y-427200D01*
X-56520Y-427290D01*
X-56548Y-427382D01*
X-56573Y-427475D01*
X-56594Y-427569D01*
X-56611Y-427663D01*
X-56625Y-427758D01*
X-56634Y-427854D01*
X-56640Y-427950D01*
X-56642Y-428046D01*
X-54046Y-430643D02*
X-47554Y-425450D01*
X-51449Y-417266D02*
X-51449Y-413371D01*
X-51449Y-417266D02*
X-51447Y-417365D01*
X-51441Y-417465D01*
X-51432Y-417564D01*
X-51419Y-417662D01*
X-51402Y-417760D01*
X-51381Y-417858D01*
X-51356Y-417954D01*
X-51328Y-418049D01*
X-51296Y-418143D01*
X-51261Y-418236D01*
X-51222Y-418328D01*
X-51179Y-418418D01*
X-51134Y-418506D01*
X-51084Y-418593D01*
X-51032Y-418677D01*
X-50976Y-418760D01*
X-50918Y-418840D01*
X-50856Y-418918D01*
X-50791Y-418993D01*
X-50723Y-419066D01*
X-50653Y-419136D01*
X-50580Y-419204D01*
X-50505Y-419269D01*
X-50427Y-419331D01*
X-50347Y-419389D01*
X-50264Y-419445D01*
X-50180Y-419497D01*
X-50093Y-419547D01*
X-50005Y-419592D01*
X-49915Y-419635D01*
X-49823Y-419674D01*
X-49730Y-419709D01*
X-49636Y-419741D01*
X-49541Y-419769D01*
X-49445Y-419794D01*
X-49347Y-419815D01*
X-49249Y-419832D01*
X-49151Y-419845D01*
X-49052Y-419854D01*
X-48952Y-419860D01*
X-48853Y-419862D01*
X-48204Y-419862D01*
X-48091Y-419860D01*
X-47978Y-419854D01*
X-47865Y-419844D01*
X-47752Y-419830D01*
X-47640Y-419813D01*
X-47529Y-419791D01*
X-47419Y-419766D01*
X-47309Y-419736D01*
X-47201Y-419703D01*
X-47094Y-419666D01*
X-46988Y-419626D01*
X-46884Y-419581D01*
X-46781Y-419533D01*
X-46680Y-419482D01*
X-46581Y-419427D01*
X-46484Y-419369D01*
X-46389Y-419307D01*
X-46296Y-419242D01*
X-46206Y-419174D01*
X-46118Y-419103D01*
X-46032Y-419028D01*
X-45949Y-418951D01*
X-45869Y-418871D01*
X-45792Y-418788D01*
X-45717Y-418702D01*
X-45646Y-418614D01*
X-45578Y-418524D01*
X-45513Y-418431D01*
X-45451Y-418336D01*
X-45393Y-418239D01*
X-45338Y-418140D01*
X-45287Y-418039D01*
X-45239Y-417936D01*
X-45194Y-417832D01*
X-45154Y-417726D01*
X-45117Y-417619D01*
X-45084Y-417511D01*
X-45054Y-417401D01*
X-45029Y-417291D01*
X-45007Y-417180D01*
X-44990Y-417068D01*
X-44976Y-416955D01*
X-44966Y-416842D01*
X-44960Y-416729D01*
X-44958Y-416616D01*
X-44960Y-416503D01*
X-44966Y-416390D01*
X-44976Y-416277D01*
X-44990Y-416164D01*
X-45007Y-416052D01*
X-45029Y-415941D01*
X-45054Y-415831D01*
X-45084Y-415721D01*
X-45117Y-415613D01*
X-45154Y-415506D01*
X-45194Y-415400D01*
X-45239Y-415296D01*
X-45287Y-415193D01*
X-45338Y-415092D01*
X-45393Y-414993D01*
X-45451Y-414896D01*
X-45513Y-414801D01*
X-45578Y-414708D01*
X-45646Y-414618D01*
X-45717Y-414530D01*
X-45792Y-414444D01*
X-45869Y-414361D01*
X-45949Y-414281D01*
X-46032Y-414204D01*
X-46118Y-414129D01*
X-46206Y-414058D01*
X-46296Y-413990D01*
X-46389Y-413925D01*
X-46484Y-413863D01*
X-46581Y-413805D01*
X-46680Y-413750D01*
X-46781Y-413699D01*
X-46884Y-413651D01*
X-46988Y-413606D01*
X-47094Y-413566D01*
X-47201Y-413529D01*
X-47309Y-413496D01*
X-47419Y-413466D01*
X-47529Y-413441D01*
X-47640Y-413419D01*
X-47752Y-413402D01*
X-47865Y-413388D01*
X-47978Y-413378D01*
X-48091Y-413372D01*
X-48204Y-413370D01*
X-48204Y-413371D02*
X-51449Y-413371D01*
X-51592Y-413373D01*
X-51735Y-413379D01*
X-51878Y-413389D01*
X-52020Y-413403D01*
X-52162Y-413420D01*
X-52304Y-413442D01*
X-52445Y-413467D01*
X-52585Y-413497D01*
X-52724Y-413530D01*
X-52862Y-413567D01*
X-52999Y-413608D01*
X-53135Y-413652D01*
X-53270Y-413701D01*
X-53403Y-413753D01*
X-53535Y-413808D01*
X-53665Y-413868D01*
X-53794Y-413931D01*
X-53921Y-413997D01*
X-54046Y-414067D01*
X-54168Y-414140D01*
X-54289Y-414217D01*
X-54408Y-414297D01*
X-54524Y-414380D01*
X-54639Y-414466D01*
X-54750Y-414555D01*
X-54860Y-414648D01*
X-54966Y-414743D01*
X-55070Y-414842D01*
X-55171Y-414943D01*
X-55270Y-415047D01*
X-55365Y-415153D01*
X-55458Y-415263D01*
X-55547Y-415374D01*
X-55633Y-415489D01*
X-55716Y-415605D01*
X-55796Y-415724D01*
X-55873Y-415845D01*
X-55946Y-415968D01*
X-56016Y-416092D01*
X-56082Y-416219D01*
X-56145Y-416348D01*
X-56205Y-416478D01*
X-56260Y-416610D01*
X-56312Y-416743D01*
X-56361Y-416878D01*
X-56405Y-417014D01*
X-56446Y-417151D01*
X-56483Y-417289D01*
X-56516Y-417428D01*
X-56546Y-417568D01*
X-56571Y-417709D01*
X-56593Y-417851D01*
X-56610Y-417993D01*
X-56624Y-418135D01*
X-56634Y-418278D01*
X-56640Y-418421D01*
X-56642Y-418564D01*
X-71981Y-430318D02*
X-72188Y-430417D01*
X-72399Y-430510D01*
X-72611Y-430598D01*
X-72825Y-430681D01*
X-73041Y-430759D01*
X-73259Y-430832D01*
X-73479Y-430900D01*
X-73700Y-430962D01*
X-73923Y-431019D01*
X-74147Y-431071D01*
X-74372Y-431117D01*
X-74598Y-431158D01*
X-74825Y-431193D01*
X-75053Y-431223D01*
X-75282Y-431248D01*
X-75511Y-431267D01*
X-75740Y-431281D01*
X-75970Y-431289D01*
X-76200Y-431292D01*
X-71981Y-430318D02*
X-71891Y-430285D01*
X-71802Y-430249D01*
X-71714Y-430209D01*
X-71629Y-430165D01*
X-71545Y-430118D01*
X-71463Y-430068D01*
X-71383Y-430014D01*
X-71306Y-429958D01*
X-71230Y-429898D01*
X-71157Y-429835D01*
X-71087Y-429770D01*
X-71019Y-429701D01*
X-70955Y-429630D01*
X-70893Y-429557D01*
X-70834Y-429481D01*
X-70778Y-429403D01*
X-70725Y-429322D01*
X-70676Y-429240D01*
X-70630Y-429156D01*
X-70587Y-429069D01*
X-70548Y-428982D01*
X-70512Y-428892D01*
X-70480Y-428802D01*
X-70452Y-428710D01*
X-70427Y-428617D01*
X-70406Y-428523D01*
X-70389Y-428429D01*
X-70375Y-428334D01*
X-70366Y-428238D01*
X-70360Y-428142D01*
X-70358Y-428046D01*
X-70360Y-427950D01*
X-70366Y-427854D01*
X-70375Y-427758D01*
X-70389Y-427663D01*
X-70406Y-427569D01*
X-70427Y-427475D01*
X-70452Y-427382D01*
X-70480Y-427290D01*
X-70512Y-427200D01*
X-70548Y-427110D01*
X-70587Y-427023D01*
X-70630Y-426936D01*
X-70676Y-426852D01*
X-70725Y-426770D01*
X-70778Y-426689D01*
X-70834Y-426611D01*
X-70893Y-426535D01*
X-70955Y-426462D01*
X-71019Y-426391D01*
X-71087Y-426322D01*
X-71157Y-426257D01*
X-71230Y-426194D01*
X-71306Y-426134D01*
X-71383Y-426078D01*
X-71463Y-426024D01*
X-71545Y-425974D01*
X-71629Y-425927D01*
X-71714Y-425883D01*
X-71802Y-425843D01*
X-71891Y-425807D01*
X-71981Y-425774D01*
X-71981Y-425775D02*
X-72188Y-425676D01*
X-72399Y-425583D01*
X-72611Y-425495D01*
X-72825Y-425412D01*
X-73041Y-425334D01*
X-73259Y-425261D01*
X-73479Y-425193D01*
X-73700Y-425131D01*
X-73923Y-425074D01*
X-74147Y-425022D01*
X-74372Y-424976D01*
X-74598Y-424935D01*
X-74825Y-424900D01*
X-75053Y-424870D01*
X-75282Y-424845D01*
X-75511Y-424826D01*
X-75740Y-424812D01*
X-75970Y-424804D01*
X-76200Y-424801D01*
X-76200Y-431292D02*
X-76430Y-431289D01*
X-76660Y-431281D01*
X-76889Y-431267D01*
X-77118Y-431248D01*
X-77347Y-431223D01*
X-77575Y-431193D01*
X-77802Y-431158D01*
X-78028Y-431117D01*
X-78253Y-431071D01*
X-78477Y-431019D01*
X-78700Y-430962D01*
X-78921Y-430900D01*
X-79141Y-430832D01*
X-79359Y-430759D01*
X-79575Y-430681D01*
X-79789Y-430598D01*
X-80001Y-430510D01*
X-80212Y-430417D01*
X-80419Y-430318D01*
X-80509Y-430285D01*
X-80598Y-430249D01*
X-80686Y-430208D01*
X-80771Y-430165D01*
X-80855Y-430118D01*
X-80937Y-430068D01*
X-81017Y-430014D01*
X-81094Y-429958D01*
X-81170Y-429898D01*
X-81243Y-429835D01*
X-81313Y-429770D01*
X-81381Y-429701D01*
X-81445Y-429630D01*
X-81507Y-429557D01*
X-81566Y-429481D01*
X-81622Y-429403D01*
X-81675Y-429322D01*
X-81724Y-429240D01*
X-81770Y-429156D01*
X-81813Y-429069D01*
X-81852Y-428982D01*
X-81888Y-428892D01*
X-81920Y-428802D01*
X-81948Y-428710D01*
X-81973Y-428617D01*
X-81994Y-428523D01*
X-82011Y-428429D01*
X-82025Y-428334D01*
X-82034Y-428238D01*
X-82040Y-428142D01*
X-82042Y-428046D01*
X-80419Y-425775D02*
X-80212Y-425676D01*
X-80001Y-425583D01*
X-79789Y-425495D01*
X-79575Y-425412D01*
X-79359Y-425334D01*
X-79141Y-425261D01*
X-78921Y-425193D01*
X-78700Y-425131D01*
X-78477Y-425074D01*
X-78253Y-425022D01*
X-78028Y-424976D01*
X-77802Y-424935D01*
X-77575Y-424900D01*
X-77347Y-424870D01*
X-77118Y-424845D01*
X-76889Y-424826D01*
X-76660Y-424812D01*
X-76430Y-424804D01*
X-76200Y-424801D01*
X-80419Y-425774D02*
X-80509Y-425807D01*
X-80598Y-425843D01*
X-80686Y-425884D01*
X-80771Y-425927D01*
X-80855Y-425974D01*
X-80937Y-426024D01*
X-81017Y-426078D01*
X-81095Y-426134D01*
X-81170Y-426194D01*
X-81243Y-426257D01*
X-81313Y-426322D01*
X-81381Y-426391D01*
X-81445Y-426462D01*
X-81507Y-426535D01*
X-81566Y-426611D01*
X-81622Y-426689D01*
X-81675Y-426770D01*
X-81724Y-426852D01*
X-81770Y-426936D01*
X-81813Y-427023D01*
X-81852Y-427110D01*
X-81888Y-427200D01*
X-81920Y-427290D01*
X-81948Y-427382D01*
X-81973Y-427475D01*
X-81994Y-427569D01*
X-82011Y-427663D01*
X-82025Y-427758D01*
X-82034Y-427854D01*
X-82040Y-427950D01*
X-82042Y-428046D01*
X-79446Y-430643D02*
X-72954Y-425450D01*
X-78796Y-419862D02*
X-78683Y-419860D01*
X-78570Y-419854D01*
X-78457Y-419844D01*
X-78344Y-419830D01*
X-78232Y-419813D01*
X-78121Y-419791D01*
X-78011Y-419766D01*
X-77901Y-419736D01*
X-77793Y-419703D01*
X-77686Y-419666D01*
X-77580Y-419626D01*
X-77476Y-419581D01*
X-77373Y-419533D01*
X-77272Y-419482D01*
X-77173Y-419427D01*
X-77076Y-419369D01*
X-76981Y-419307D01*
X-76888Y-419242D01*
X-76798Y-419174D01*
X-76710Y-419103D01*
X-76624Y-419028D01*
X-76541Y-418951D01*
X-76461Y-418871D01*
X-76384Y-418788D01*
X-76309Y-418702D01*
X-76238Y-418614D01*
X-76170Y-418524D01*
X-76105Y-418431D01*
X-76043Y-418336D01*
X-75985Y-418239D01*
X-75930Y-418140D01*
X-75879Y-418039D01*
X-75831Y-417936D01*
X-75786Y-417832D01*
X-75746Y-417726D01*
X-75709Y-417619D01*
X-75676Y-417511D01*
X-75646Y-417401D01*
X-75621Y-417291D01*
X-75599Y-417180D01*
X-75582Y-417068D01*
X-75568Y-416955D01*
X-75558Y-416842D01*
X-75552Y-416729D01*
X-75550Y-416616D01*
X-75552Y-416503D01*
X-75558Y-416390D01*
X-75568Y-416277D01*
X-75582Y-416164D01*
X-75599Y-416052D01*
X-75621Y-415941D01*
X-75646Y-415831D01*
X-75676Y-415721D01*
X-75709Y-415613D01*
X-75746Y-415506D01*
X-75786Y-415400D01*
X-75831Y-415296D01*
X-75879Y-415193D01*
X-75930Y-415092D01*
X-75985Y-414993D01*
X-76043Y-414896D01*
X-76105Y-414801D01*
X-76170Y-414708D01*
X-76238Y-414618D01*
X-76309Y-414530D01*
X-76384Y-414444D01*
X-76461Y-414361D01*
X-76541Y-414281D01*
X-76624Y-414204D01*
X-76710Y-414129D01*
X-76798Y-414058D01*
X-76888Y-413990D01*
X-76981Y-413925D01*
X-77076Y-413863D01*
X-77173Y-413805D01*
X-77272Y-413750D01*
X-77373Y-413699D01*
X-77476Y-413651D01*
X-77580Y-413606D01*
X-77686Y-413566D01*
X-77793Y-413529D01*
X-77901Y-413496D01*
X-78011Y-413466D01*
X-78121Y-413441D01*
X-78232Y-413419D01*
X-78344Y-413402D01*
X-78457Y-413388D01*
X-78570Y-413378D01*
X-78683Y-413372D01*
X-78796Y-413370D01*
X-78909Y-413372D01*
X-79022Y-413378D01*
X-79135Y-413388D01*
X-79248Y-413402D01*
X-79360Y-413419D01*
X-79471Y-413441D01*
X-79581Y-413466D01*
X-79691Y-413496D01*
X-79799Y-413529D01*
X-79906Y-413566D01*
X-80012Y-413606D01*
X-80116Y-413651D01*
X-80219Y-413699D01*
X-80320Y-413750D01*
X-80419Y-413805D01*
X-80516Y-413863D01*
X-80611Y-413925D01*
X-80704Y-413990D01*
X-80794Y-414058D01*
X-80882Y-414129D01*
X-80968Y-414204D01*
X-81051Y-414281D01*
X-81131Y-414361D01*
X-81208Y-414444D01*
X-81283Y-414530D01*
X-81354Y-414618D01*
X-81422Y-414708D01*
X-81487Y-414801D01*
X-81549Y-414896D01*
X-81607Y-414993D01*
X-81662Y-415092D01*
X-81713Y-415193D01*
X-81761Y-415296D01*
X-81806Y-415400D01*
X-81846Y-415506D01*
X-81883Y-415613D01*
X-81916Y-415721D01*
X-81946Y-415831D01*
X-81971Y-415941D01*
X-81993Y-416052D01*
X-82010Y-416164D01*
X-82024Y-416277D01*
X-82034Y-416390D01*
X-82040Y-416503D01*
X-82042Y-416616D01*
X-82040Y-416729D01*
X-82034Y-416842D01*
X-82024Y-416955D01*
X-82010Y-417068D01*
X-81993Y-417180D01*
X-81971Y-417291D01*
X-81946Y-417401D01*
X-81916Y-417511D01*
X-81883Y-417619D01*
X-81846Y-417726D01*
X-81806Y-417832D01*
X-81761Y-417936D01*
X-81713Y-418039D01*
X-81662Y-418140D01*
X-81607Y-418239D01*
X-81549Y-418336D01*
X-81487Y-418431D01*
X-81422Y-418524D01*
X-81354Y-418614D01*
X-81283Y-418702D01*
X-81208Y-418788D01*
X-81131Y-418871D01*
X-81051Y-418951D01*
X-80968Y-419028D01*
X-80882Y-419103D01*
X-80794Y-419174D01*
X-80704Y-419242D01*
X-80611Y-419307D01*
X-80516Y-419369D01*
X-80419Y-419427D01*
X-80320Y-419482D01*
X-80219Y-419533D01*
X-80116Y-419581D01*
X-80012Y-419626D01*
X-79906Y-419666D01*
X-79799Y-419703D01*
X-79691Y-419736D01*
X-79581Y-419766D01*
X-79471Y-419791D01*
X-79360Y-419813D01*
X-79248Y-419830D01*
X-79135Y-419844D01*
X-79022Y-419854D01*
X-78909Y-419860D01*
X-78796Y-419862D01*
X-72954Y-419212D02*
X-72853Y-419210D01*
X-72753Y-419204D01*
X-72653Y-419194D01*
X-72553Y-419181D01*
X-72454Y-419163D01*
X-72355Y-419142D01*
X-72258Y-419117D01*
X-72161Y-419088D01*
X-72066Y-419055D01*
X-71972Y-419019D01*
X-71880Y-418979D01*
X-71789Y-418936D01*
X-71700Y-418889D01*
X-71613Y-418839D01*
X-71527Y-418785D01*
X-71444Y-418728D01*
X-71364Y-418668D01*
X-71285Y-418605D01*
X-71209Y-418538D01*
X-71136Y-418469D01*
X-71066Y-418397D01*
X-70998Y-418323D01*
X-70933Y-418246D01*
X-70872Y-418166D01*
X-70813Y-418084D01*
X-70758Y-418000D01*
X-70706Y-417914D01*
X-70657Y-417826D01*
X-70612Y-417736D01*
X-70570Y-417644D01*
X-70532Y-417551D01*
X-70498Y-417456D01*
X-70467Y-417361D01*
X-70440Y-417264D01*
X-70417Y-417166D01*
X-70397Y-417067D01*
X-70382Y-416967D01*
X-70370Y-416867D01*
X-70362Y-416767D01*
X-70358Y-416666D01*
X-70358Y-416566D01*
X-70362Y-416465D01*
X-70370Y-416365D01*
X-70382Y-416265D01*
X-70397Y-416165D01*
X-70417Y-416066D01*
X-70440Y-415968D01*
X-70467Y-415871D01*
X-70498Y-415776D01*
X-70532Y-415681D01*
X-70570Y-415588D01*
X-70612Y-415496D01*
X-70657Y-415406D01*
X-70706Y-415318D01*
X-70758Y-415232D01*
X-70813Y-415148D01*
X-70872Y-415066D01*
X-70933Y-414986D01*
X-70998Y-414909D01*
X-71066Y-414835D01*
X-71136Y-414763D01*
X-71209Y-414694D01*
X-71285Y-414627D01*
X-71364Y-414564D01*
X-71444Y-414504D01*
X-71527Y-414447D01*
X-71613Y-414393D01*
X-71700Y-414343D01*
X-71789Y-414296D01*
X-71880Y-414253D01*
X-71972Y-414213D01*
X-72066Y-414177D01*
X-72161Y-414144D01*
X-72258Y-414115D01*
X-72355Y-414090D01*
X-72454Y-414069D01*
X-72553Y-414051D01*
X-72653Y-414038D01*
X-72753Y-414028D01*
X-72853Y-414022D01*
X-72954Y-414020D01*
X-73055Y-414022D01*
X-73155Y-414028D01*
X-73255Y-414038D01*
X-73355Y-414051D01*
X-73454Y-414069D01*
X-73553Y-414090D01*
X-73650Y-414115D01*
X-73747Y-414144D01*
X-73842Y-414177D01*
X-73936Y-414213D01*
X-74028Y-414253D01*
X-74119Y-414296D01*
X-74208Y-414343D01*
X-74295Y-414393D01*
X-74381Y-414447D01*
X-74464Y-414504D01*
X-74544Y-414564D01*
X-74623Y-414627D01*
X-74699Y-414694D01*
X-74772Y-414763D01*
X-74842Y-414835D01*
X-74910Y-414909D01*
X-74975Y-414986D01*
X-75036Y-415066D01*
X-75095Y-415148D01*
X-75150Y-415232D01*
X-75202Y-415318D01*
X-75251Y-415406D01*
X-75296Y-415496D01*
X-75338Y-415588D01*
X-75376Y-415681D01*
X-75410Y-415776D01*
X-75441Y-415871D01*
X-75468Y-415968D01*
X-75491Y-416066D01*
X-75511Y-416165D01*
X-75526Y-416265D01*
X-75538Y-416365D01*
X-75546Y-416465D01*
X-75550Y-416566D01*
X-75550Y-416666D01*
X-75546Y-416767D01*
X-75538Y-416867D01*
X-75526Y-416967D01*
X-75511Y-417067D01*
X-75491Y-417166D01*
X-75468Y-417264D01*
X-75441Y-417361D01*
X-75410Y-417456D01*
X-75376Y-417551D01*
X-75338Y-417644D01*
X-75296Y-417736D01*
X-75251Y-417826D01*
X-75202Y-417914D01*
X-75150Y-418000D01*
X-75095Y-418084D01*
X-75036Y-418166D01*
X-74975Y-418246D01*
X-74910Y-418323D01*
X-74842Y-418397D01*
X-74772Y-418469D01*
X-74699Y-418538D01*
X-74623Y-418605D01*
X-74544Y-418668D01*
X-74464Y-418728D01*
X-74381Y-418785D01*
X-74295Y-418839D01*
X-74208Y-418889D01*
X-74119Y-418936D01*
X-74028Y-418979D01*
X-73936Y-419019D01*
X-73842Y-419055D01*
X-73747Y-419088D01*
X-73650Y-419117D01*
X-73553Y-419142D01*
X-73454Y-419163D01*
X-73355Y-419181D01*
X-73255Y-419194D01*
X-73155Y-419204D01*
X-73055Y-419210D01*
X-72954Y-419212D01*
D11*
X-367300Y-81530D02*
X-382000Y-81530D01*
X-382000Y-108970D02*
X-367300Y-108970D01*
X-367300Y-100470D02*
X-367300Y-90030D01*
X-382000Y-99530D02*
X-382000Y-100470D01*
X-382000Y-90970D02*
X-382000Y-90030D01*
X-382000Y-108530D02*
X-382000Y-108970D01*
X-382000Y-81970D02*
X-382000Y-81530D01*
X-367300Y-81530D02*
X-367300Y-81970D01*
X-367300Y-108530D02*
X-367300Y-108970D01*
D10*
X-368540Y-114808D02*
X-368540Y-123246D01*
X-368539Y-123246D02*
X-368541Y-123359D01*
X-368547Y-123472D01*
X-368557Y-123585D01*
X-368571Y-123698D01*
X-368588Y-123810D01*
X-368610Y-123921D01*
X-368635Y-124031D01*
X-368665Y-124141D01*
X-368698Y-124249D01*
X-368735Y-124356D01*
X-368775Y-124462D01*
X-368820Y-124566D01*
X-368868Y-124669D01*
X-368919Y-124770D01*
X-368974Y-124869D01*
X-369032Y-124966D01*
X-369094Y-125061D01*
X-369159Y-125154D01*
X-369227Y-125244D01*
X-369298Y-125332D01*
X-369373Y-125418D01*
X-369450Y-125501D01*
X-369530Y-125581D01*
X-369613Y-125658D01*
X-369699Y-125733D01*
X-369787Y-125804D01*
X-369877Y-125872D01*
X-369970Y-125937D01*
X-370065Y-125999D01*
X-370162Y-126057D01*
X-370261Y-126112D01*
X-370362Y-126163D01*
X-370465Y-126211D01*
X-370569Y-126256D01*
X-370675Y-126296D01*
X-370782Y-126333D01*
X-370890Y-126366D01*
X-371000Y-126396D01*
X-371110Y-126421D01*
X-371221Y-126443D01*
X-371333Y-126460D01*
X-371446Y-126474D01*
X-371559Y-126484D01*
X-371672Y-126490D01*
X-371785Y-126492D01*
X-371898Y-126490D01*
X-372011Y-126484D01*
X-372124Y-126474D01*
X-372237Y-126460D01*
X-372349Y-126443D01*
X-372460Y-126421D01*
X-372570Y-126396D01*
X-372680Y-126366D01*
X-372788Y-126333D01*
X-372895Y-126296D01*
X-373001Y-126256D01*
X-373105Y-126211D01*
X-373208Y-126163D01*
X-373309Y-126112D01*
X-373408Y-126057D01*
X-373505Y-125999D01*
X-373600Y-125937D01*
X-373693Y-125872D01*
X-373783Y-125804D01*
X-373871Y-125733D01*
X-373957Y-125658D01*
X-374040Y-125581D01*
X-374120Y-125501D01*
X-374197Y-125418D01*
X-374272Y-125332D01*
X-374343Y-125244D01*
X-374411Y-125154D01*
X-374476Y-125061D01*
X-374538Y-124966D01*
X-374596Y-124869D01*
X-374651Y-124770D01*
X-374702Y-124669D01*
X-374750Y-124566D01*
X-374795Y-124462D01*
X-374835Y-124356D01*
X-374872Y-124249D01*
X-374905Y-124141D01*
X-374935Y-124031D01*
X-374960Y-123921D01*
X-374982Y-123810D01*
X-374999Y-123698D01*
X-375013Y-123585D01*
X-375023Y-123472D01*
X-375029Y-123359D01*
X-375031Y-123246D01*
X-375031Y-114808D01*
X-382947Y-114808D02*
X-380351Y-123896D01*
X-386842Y-123896D01*
X-384895Y-121299D02*
X-384895Y-126492D01*
X-423474Y-92202D02*
X-426071Y-92202D01*
X-423474Y-92202D02*
X-423375Y-92200D01*
X-423275Y-92194D01*
X-423176Y-92185D01*
X-423078Y-92172D01*
X-422980Y-92155D01*
X-422882Y-92134D01*
X-422786Y-92109D01*
X-422691Y-92081D01*
X-422597Y-92049D01*
X-422504Y-92014D01*
X-422412Y-91975D01*
X-422322Y-91932D01*
X-422234Y-91887D01*
X-422147Y-91837D01*
X-422063Y-91785D01*
X-421980Y-91729D01*
X-421900Y-91671D01*
X-421822Y-91609D01*
X-421747Y-91544D01*
X-421674Y-91476D01*
X-421604Y-91406D01*
X-421536Y-91333D01*
X-421471Y-91258D01*
X-421409Y-91180D01*
X-421351Y-91100D01*
X-421295Y-91017D01*
X-421243Y-90933D01*
X-421193Y-90846D01*
X-421148Y-90758D01*
X-421105Y-90668D01*
X-421066Y-90576D01*
X-421031Y-90483D01*
X-420999Y-90389D01*
X-420971Y-90294D01*
X-420946Y-90198D01*
X-420925Y-90100D01*
X-420908Y-90002D01*
X-420895Y-89904D01*
X-420886Y-89805D01*
X-420880Y-89705D01*
X-420878Y-89606D01*
X-420878Y-83114D01*
X-420880Y-83015D01*
X-420886Y-82915D01*
X-420895Y-82816D01*
X-420908Y-82718D01*
X-420926Y-82620D01*
X-420946Y-82522D01*
X-420971Y-82426D01*
X-420999Y-82330D01*
X-421031Y-82236D01*
X-421066Y-82143D01*
X-421105Y-82052D01*
X-421148Y-81962D01*
X-421193Y-81873D01*
X-421243Y-81787D01*
X-421295Y-81702D01*
X-421351Y-81620D01*
X-421410Y-81540D01*
X-421471Y-81462D01*
X-421536Y-81386D01*
X-421604Y-81313D01*
X-421674Y-81243D01*
X-421747Y-81175D01*
X-421823Y-81110D01*
X-421901Y-81049D01*
X-421981Y-80990D01*
X-422063Y-80934D01*
X-422148Y-80882D01*
X-422234Y-80833D01*
X-422323Y-80787D01*
X-422413Y-80744D01*
X-422504Y-80705D01*
X-422597Y-80670D01*
X-422691Y-80638D01*
X-422787Y-80610D01*
X-422883Y-80585D01*
X-422981Y-80565D01*
X-423079Y-80547D01*
X-423177Y-80534D01*
X-423276Y-80525D01*
X-423375Y-80519D01*
X-423475Y-80517D01*
X-423474Y-80518D02*
X-426071Y-80518D01*
X-430436Y-83114D02*
X-433682Y-80518D01*
X-433682Y-92202D01*
X-436927Y-92202D02*
X-430436Y-92202D01*
X-347331Y-74422D02*
X-344734Y-74422D01*
X-344635Y-74420D01*
X-344535Y-74414D01*
X-344436Y-74405D01*
X-344338Y-74392D01*
X-344240Y-74375D01*
X-344142Y-74354D01*
X-344046Y-74329D01*
X-343951Y-74301D01*
X-343857Y-74269D01*
X-343764Y-74234D01*
X-343672Y-74195D01*
X-343582Y-74152D01*
X-343494Y-74107D01*
X-343407Y-74057D01*
X-343323Y-74005D01*
X-343240Y-73949D01*
X-343160Y-73891D01*
X-343082Y-73829D01*
X-343007Y-73764D01*
X-342934Y-73696D01*
X-342864Y-73626D01*
X-342796Y-73553D01*
X-342731Y-73478D01*
X-342669Y-73400D01*
X-342611Y-73320D01*
X-342555Y-73237D01*
X-342503Y-73153D01*
X-342453Y-73066D01*
X-342408Y-72978D01*
X-342365Y-72888D01*
X-342326Y-72796D01*
X-342291Y-72703D01*
X-342259Y-72609D01*
X-342231Y-72514D01*
X-342206Y-72418D01*
X-342185Y-72320D01*
X-342168Y-72222D01*
X-342155Y-72124D01*
X-342146Y-72025D01*
X-342140Y-71925D01*
X-342138Y-71826D01*
X-342138Y-65334D01*
X-342140Y-65235D01*
X-342146Y-65135D01*
X-342155Y-65036D01*
X-342168Y-64938D01*
X-342186Y-64840D01*
X-342206Y-64742D01*
X-342231Y-64646D01*
X-342259Y-64550D01*
X-342291Y-64456D01*
X-342326Y-64363D01*
X-342365Y-64272D01*
X-342408Y-64182D01*
X-342453Y-64093D01*
X-342503Y-64007D01*
X-342555Y-63922D01*
X-342611Y-63840D01*
X-342670Y-63760D01*
X-342731Y-63682D01*
X-342796Y-63606D01*
X-342864Y-63533D01*
X-342934Y-63463D01*
X-343007Y-63395D01*
X-343083Y-63330D01*
X-343161Y-63269D01*
X-343241Y-63210D01*
X-343323Y-63154D01*
X-343408Y-63102D01*
X-343494Y-63053D01*
X-343583Y-63007D01*
X-343673Y-62964D01*
X-343764Y-62925D01*
X-343857Y-62890D01*
X-343951Y-62858D01*
X-344047Y-62830D01*
X-344143Y-62805D01*
X-344241Y-62785D01*
X-344339Y-62767D01*
X-344437Y-62754D01*
X-344536Y-62745D01*
X-344635Y-62739D01*
X-344735Y-62737D01*
X-344734Y-62738D02*
X-347331Y-62738D01*
X-351696Y-74422D02*
X-354942Y-74422D01*
X-355055Y-74420D01*
X-355168Y-74414D01*
X-355281Y-74404D01*
X-355394Y-74390D01*
X-355506Y-74373D01*
X-355617Y-74351D01*
X-355727Y-74326D01*
X-355837Y-74296D01*
X-355945Y-74263D01*
X-356052Y-74226D01*
X-356158Y-74186D01*
X-356262Y-74141D01*
X-356365Y-74093D01*
X-356466Y-74042D01*
X-356565Y-73987D01*
X-356662Y-73929D01*
X-356757Y-73867D01*
X-356850Y-73802D01*
X-356940Y-73734D01*
X-357028Y-73663D01*
X-357114Y-73588D01*
X-357197Y-73511D01*
X-357277Y-73431D01*
X-357354Y-73348D01*
X-357429Y-73262D01*
X-357500Y-73174D01*
X-357568Y-73084D01*
X-357633Y-72991D01*
X-357695Y-72896D01*
X-357753Y-72799D01*
X-357808Y-72700D01*
X-357859Y-72599D01*
X-357907Y-72496D01*
X-357952Y-72392D01*
X-357992Y-72286D01*
X-358029Y-72179D01*
X-358062Y-72071D01*
X-358092Y-71961D01*
X-358117Y-71851D01*
X-358139Y-71740D01*
X-358156Y-71628D01*
X-358170Y-71515D01*
X-358180Y-71402D01*
X-358186Y-71289D01*
X-358188Y-71176D01*
X-358186Y-71063D01*
X-358180Y-70950D01*
X-358170Y-70837D01*
X-358156Y-70724D01*
X-358139Y-70612D01*
X-358117Y-70501D01*
X-358092Y-70391D01*
X-358062Y-70281D01*
X-358029Y-70173D01*
X-357992Y-70066D01*
X-357952Y-69960D01*
X-357907Y-69856D01*
X-357859Y-69753D01*
X-357808Y-69652D01*
X-357753Y-69553D01*
X-357695Y-69456D01*
X-357633Y-69361D01*
X-357568Y-69268D01*
X-357500Y-69178D01*
X-357429Y-69090D01*
X-357354Y-69004D01*
X-357277Y-68921D01*
X-357197Y-68841D01*
X-357114Y-68764D01*
X-357028Y-68689D01*
X-356940Y-68618D01*
X-356850Y-68550D01*
X-356757Y-68485D01*
X-356662Y-68423D01*
X-356565Y-68365D01*
X-356466Y-68310D01*
X-356365Y-68259D01*
X-356262Y-68211D01*
X-356158Y-68166D01*
X-356052Y-68126D01*
X-355945Y-68089D01*
X-355837Y-68056D01*
X-355727Y-68026D01*
X-355617Y-68001D01*
X-355506Y-67979D01*
X-355394Y-67962D01*
X-355281Y-67948D01*
X-355168Y-67938D01*
X-355055Y-67932D01*
X-354942Y-67930D01*
X-355591Y-62738D02*
X-351696Y-62738D01*
X-355591Y-62738D02*
X-355692Y-62740D01*
X-355792Y-62746D01*
X-355892Y-62756D01*
X-355992Y-62769D01*
X-356091Y-62787D01*
X-356190Y-62808D01*
X-356287Y-62833D01*
X-356384Y-62862D01*
X-356479Y-62895D01*
X-356573Y-62931D01*
X-356665Y-62971D01*
X-356756Y-63014D01*
X-356845Y-63061D01*
X-356932Y-63111D01*
X-357018Y-63165D01*
X-357101Y-63222D01*
X-357181Y-63282D01*
X-357260Y-63345D01*
X-357336Y-63412D01*
X-357409Y-63481D01*
X-357479Y-63553D01*
X-357547Y-63627D01*
X-357612Y-63704D01*
X-357673Y-63784D01*
X-357732Y-63866D01*
X-357787Y-63950D01*
X-357839Y-64036D01*
X-357888Y-64124D01*
X-357933Y-64214D01*
X-357975Y-64306D01*
X-358013Y-64399D01*
X-358047Y-64494D01*
X-358078Y-64589D01*
X-358105Y-64686D01*
X-358128Y-64784D01*
X-358148Y-64883D01*
X-358163Y-64983D01*
X-358175Y-65083D01*
X-358183Y-65183D01*
X-358187Y-65284D01*
X-358187Y-65384D01*
X-358183Y-65485D01*
X-358175Y-65585D01*
X-358163Y-65685D01*
X-358148Y-65785D01*
X-358128Y-65884D01*
X-358105Y-65982D01*
X-358078Y-66079D01*
X-358047Y-66174D01*
X-358013Y-66269D01*
X-357975Y-66362D01*
X-357933Y-66454D01*
X-357888Y-66544D01*
X-357839Y-66632D01*
X-357787Y-66718D01*
X-357732Y-66802D01*
X-357673Y-66884D01*
X-357612Y-66964D01*
X-357547Y-67041D01*
X-357479Y-67115D01*
X-357409Y-67187D01*
X-357336Y-67256D01*
X-357260Y-67323D01*
X-357181Y-67386D01*
X-357101Y-67446D01*
X-357018Y-67503D01*
X-356932Y-67557D01*
X-356845Y-67607D01*
X-356756Y-67654D01*
X-356665Y-67697D01*
X-356573Y-67737D01*
X-356479Y-67773D01*
X-356384Y-67806D01*
X-356287Y-67835D01*
X-356190Y-67860D01*
X-356091Y-67881D01*
X-355992Y-67899D01*
X-355892Y-67912D01*
X-355792Y-67922D01*
X-355692Y-67928D01*
X-355591Y-67930D01*
X-355591Y-67931D02*
X-352994Y-67931D01*
X-307406Y-74422D02*
X-304809Y-74422D01*
X-304710Y-74420D01*
X-304610Y-74414D01*
X-304511Y-74405D01*
X-304413Y-74392D01*
X-304315Y-74375D01*
X-304217Y-74354D01*
X-304121Y-74329D01*
X-304026Y-74301D01*
X-303932Y-74269D01*
X-303839Y-74234D01*
X-303747Y-74195D01*
X-303657Y-74152D01*
X-303569Y-74107D01*
X-303482Y-74057D01*
X-303398Y-74005D01*
X-303315Y-73949D01*
X-303235Y-73891D01*
X-303157Y-73829D01*
X-303082Y-73764D01*
X-303009Y-73696D01*
X-302939Y-73626D01*
X-302871Y-73553D01*
X-302806Y-73478D01*
X-302744Y-73400D01*
X-302686Y-73320D01*
X-302630Y-73237D01*
X-302578Y-73153D01*
X-302528Y-73066D01*
X-302483Y-72978D01*
X-302440Y-72888D01*
X-302401Y-72796D01*
X-302366Y-72703D01*
X-302334Y-72609D01*
X-302306Y-72514D01*
X-302281Y-72418D01*
X-302260Y-72320D01*
X-302243Y-72222D01*
X-302230Y-72124D01*
X-302221Y-72025D01*
X-302215Y-71925D01*
X-302213Y-71826D01*
X-302213Y-65334D01*
X-302212Y-65334D02*
X-302214Y-65235D01*
X-302220Y-65135D01*
X-302229Y-65036D01*
X-302242Y-64938D01*
X-302260Y-64840D01*
X-302280Y-64742D01*
X-302305Y-64646D01*
X-302333Y-64550D01*
X-302365Y-64456D01*
X-302400Y-64363D01*
X-302439Y-64272D01*
X-302482Y-64182D01*
X-302527Y-64093D01*
X-302577Y-64007D01*
X-302629Y-63922D01*
X-302685Y-63840D01*
X-302744Y-63760D01*
X-302805Y-63682D01*
X-302870Y-63606D01*
X-302938Y-63533D01*
X-303008Y-63463D01*
X-303081Y-63395D01*
X-303157Y-63330D01*
X-303235Y-63269D01*
X-303315Y-63210D01*
X-303397Y-63154D01*
X-303482Y-63102D01*
X-303568Y-63053D01*
X-303657Y-63007D01*
X-303747Y-62964D01*
X-303838Y-62925D01*
X-303931Y-62890D01*
X-304025Y-62858D01*
X-304121Y-62830D01*
X-304217Y-62805D01*
X-304315Y-62785D01*
X-304413Y-62767D01*
X-304511Y-62754D01*
X-304610Y-62745D01*
X-304709Y-62739D01*
X-304809Y-62737D01*
X-304809Y-62738D02*
X-307406Y-62738D01*
X-314367Y-62738D02*
X-311771Y-71826D01*
X-318262Y-71826D01*
X-316315Y-69229D02*
X-316315Y-74422D01*
X-334772Y-184084D02*
X-334772Y-186681D01*
X-334770Y-186780D01*
X-334764Y-186880D01*
X-334755Y-186979D01*
X-334742Y-187077D01*
X-334725Y-187175D01*
X-334704Y-187273D01*
X-334679Y-187369D01*
X-334651Y-187464D01*
X-334619Y-187558D01*
X-334584Y-187651D01*
X-334545Y-187743D01*
X-334502Y-187833D01*
X-334457Y-187921D01*
X-334407Y-188008D01*
X-334355Y-188092D01*
X-334299Y-188175D01*
X-334241Y-188255D01*
X-334179Y-188333D01*
X-334114Y-188408D01*
X-334046Y-188481D01*
X-333976Y-188551D01*
X-333903Y-188619D01*
X-333828Y-188684D01*
X-333750Y-188746D01*
X-333670Y-188804D01*
X-333587Y-188860D01*
X-333503Y-188912D01*
X-333416Y-188962D01*
X-333328Y-189007D01*
X-333238Y-189050D01*
X-333146Y-189089D01*
X-333053Y-189124D01*
X-332959Y-189156D01*
X-332864Y-189184D01*
X-332768Y-189209D01*
X-332670Y-189230D01*
X-332572Y-189247D01*
X-332474Y-189260D01*
X-332375Y-189269D01*
X-332275Y-189275D01*
X-332176Y-189277D01*
X-325684Y-189277D01*
X-325684Y-189278D02*
X-325585Y-189276D01*
X-325485Y-189270D01*
X-325386Y-189261D01*
X-325288Y-189248D01*
X-325190Y-189230D01*
X-325092Y-189210D01*
X-324996Y-189185D01*
X-324900Y-189157D01*
X-324806Y-189125D01*
X-324713Y-189090D01*
X-324622Y-189051D01*
X-324532Y-189008D01*
X-324443Y-188963D01*
X-324357Y-188913D01*
X-324272Y-188861D01*
X-324190Y-188805D01*
X-324110Y-188746D01*
X-324032Y-188685D01*
X-323956Y-188620D01*
X-323883Y-188552D01*
X-323813Y-188482D01*
X-323745Y-188409D01*
X-323680Y-188333D01*
X-323619Y-188255D01*
X-323560Y-188175D01*
X-323504Y-188093D01*
X-323452Y-188008D01*
X-323403Y-187922D01*
X-323357Y-187833D01*
X-323314Y-187743D01*
X-323275Y-187652D01*
X-323240Y-187559D01*
X-323208Y-187465D01*
X-323180Y-187369D01*
X-323155Y-187273D01*
X-323135Y-187175D01*
X-323117Y-187077D01*
X-323104Y-186979D01*
X-323095Y-186880D01*
X-323089Y-186781D01*
X-323087Y-186681D01*
X-323088Y-186681D02*
X-323088Y-184084D01*
X-334772Y-179719D02*
X-334772Y-175824D01*
X-334770Y-175725D01*
X-334764Y-175625D01*
X-334755Y-175526D01*
X-334742Y-175428D01*
X-334725Y-175330D01*
X-334704Y-175232D01*
X-334679Y-175136D01*
X-334651Y-175041D01*
X-334619Y-174947D01*
X-334584Y-174854D01*
X-334545Y-174762D01*
X-334502Y-174672D01*
X-334457Y-174584D01*
X-334407Y-174497D01*
X-334355Y-174413D01*
X-334299Y-174330D01*
X-334241Y-174250D01*
X-334179Y-174172D01*
X-334114Y-174097D01*
X-334046Y-174024D01*
X-333976Y-173954D01*
X-333903Y-173886D01*
X-333828Y-173821D01*
X-333750Y-173759D01*
X-333670Y-173701D01*
X-333587Y-173645D01*
X-333503Y-173593D01*
X-333416Y-173543D01*
X-333328Y-173498D01*
X-333238Y-173455D01*
X-333146Y-173416D01*
X-333053Y-173381D01*
X-332959Y-173349D01*
X-332864Y-173321D01*
X-332768Y-173296D01*
X-332670Y-173275D01*
X-332572Y-173258D01*
X-332474Y-173245D01*
X-332375Y-173236D01*
X-332275Y-173230D01*
X-332176Y-173228D01*
X-330877Y-173228D01*
X-330778Y-173230D01*
X-330678Y-173236D01*
X-330579Y-173245D01*
X-330481Y-173258D01*
X-330383Y-173275D01*
X-330285Y-173296D01*
X-330189Y-173321D01*
X-330094Y-173349D01*
X-330000Y-173381D01*
X-329907Y-173416D01*
X-329815Y-173455D01*
X-329725Y-173498D01*
X-329637Y-173543D01*
X-329550Y-173593D01*
X-329466Y-173645D01*
X-329383Y-173701D01*
X-329303Y-173759D01*
X-329225Y-173821D01*
X-329150Y-173886D01*
X-329077Y-173954D01*
X-329007Y-174024D01*
X-328939Y-174097D01*
X-328874Y-174172D01*
X-328812Y-174250D01*
X-328754Y-174330D01*
X-328698Y-174413D01*
X-328646Y-174497D01*
X-328596Y-174584D01*
X-328551Y-174672D01*
X-328508Y-174762D01*
X-328469Y-174854D01*
X-328434Y-174947D01*
X-328402Y-175041D01*
X-328374Y-175136D01*
X-328349Y-175232D01*
X-328328Y-175330D01*
X-328311Y-175428D01*
X-328298Y-175526D01*
X-328289Y-175625D01*
X-328283Y-175725D01*
X-328281Y-175824D01*
X-328281Y-179719D01*
X-323088Y-179719D01*
X-323088Y-173228D01*
X-313182Y-184084D02*
X-313182Y-186681D01*
X-313180Y-186780D01*
X-313174Y-186880D01*
X-313165Y-186979D01*
X-313152Y-187077D01*
X-313135Y-187175D01*
X-313114Y-187273D01*
X-313089Y-187369D01*
X-313061Y-187464D01*
X-313029Y-187558D01*
X-312994Y-187651D01*
X-312955Y-187743D01*
X-312912Y-187833D01*
X-312867Y-187921D01*
X-312817Y-188008D01*
X-312765Y-188092D01*
X-312709Y-188175D01*
X-312651Y-188255D01*
X-312589Y-188333D01*
X-312524Y-188408D01*
X-312456Y-188481D01*
X-312386Y-188551D01*
X-312313Y-188619D01*
X-312238Y-188684D01*
X-312160Y-188746D01*
X-312080Y-188804D01*
X-311997Y-188860D01*
X-311913Y-188912D01*
X-311826Y-188962D01*
X-311738Y-189007D01*
X-311648Y-189050D01*
X-311556Y-189089D01*
X-311463Y-189124D01*
X-311369Y-189156D01*
X-311274Y-189184D01*
X-311178Y-189209D01*
X-311080Y-189230D01*
X-310982Y-189247D01*
X-310884Y-189260D01*
X-310785Y-189269D01*
X-310685Y-189275D01*
X-310586Y-189277D01*
X-304094Y-189277D01*
X-304094Y-189278D02*
X-303995Y-189276D01*
X-303895Y-189270D01*
X-303796Y-189261D01*
X-303698Y-189248D01*
X-303600Y-189230D01*
X-303502Y-189210D01*
X-303406Y-189185D01*
X-303310Y-189157D01*
X-303216Y-189125D01*
X-303123Y-189090D01*
X-303032Y-189051D01*
X-302942Y-189008D01*
X-302853Y-188963D01*
X-302767Y-188913D01*
X-302682Y-188861D01*
X-302600Y-188805D01*
X-302520Y-188746D01*
X-302442Y-188685D01*
X-302366Y-188620D01*
X-302293Y-188552D01*
X-302223Y-188482D01*
X-302155Y-188409D01*
X-302090Y-188333D01*
X-302029Y-188255D01*
X-301970Y-188175D01*
X-301914Y-188093D01*
X-301862Y-188008D01*
X-301813Y-187922D01*
X-301767Y-187833D01*
X-301724Y-187743D01*
X-301685Y-187652D01*
X-301650Y-187559D01*
X-301618Y-187465D01*
X-301590Y-187369D01*
X-301565Y-187273D01*
X-301545Y-187175D01*
X-301527Y-187077D01*
X-301514Y-186979D01*
X-301505Y-186880D01*
X-301499Y-186781D01*
X-301497Y-186681D01*
X-301498Y-186681D02*
X-301498Y-184084D01*
X-306691Y-179719D02*
X-306691Y-175824D01*
X-306693Y-175725D01*
X-306699Y-175625D01*
X-306708Y-175526D01*
X-306721Y-175428D01*
X-306738Y-175330D01*
X-306759Y-175232D01*
X-306784Y-175136D01*
X-306812Y-175041D01*
X-306844Y-174947D01*
X-306879Y-174854D01*
X-306918Y-174762D01*
X-306961Y-174672D01*
X-307006Y-174584D01*
X-307056Y-174497D01*
X-307108Y-174413D01*
X-307164Y-174330D01*
X-307222Y-174250D01*
X-307284Y-174172D01*
X-307349Y-174097D01*
X-307417Y-174024D01*
X-307487Y-173954D01*
X-307560Y-173886D01*
X-307635Y-173821D01*
X-307713Y-173759D01*
X-307793Y-173701D01*
X-307876Y-173645D01*
X-307960Y-173593D01*
X-308047Y-173543D01*
X-308135Y-173498D01*
X-308225Y-173455D01*
X-308317Y-173416D01*
X-308410Y-173381D01*
X-308504Y-173349D01*
X-308599Y-173321D01*
X-308695Y-173296D01*
X-308793Y-173275D01*
X-308891Y-173258D01*
X-308989Y-173245D01*
X-309088Y-173236D01*
X-309188Y-173230D01*
X-309287Y-173228D01*
X-309936Y-173228D01*
X-310049Y-173230D01*
X-310162Y-173236D01*
X-310275Y-173246D01*
X-310388Y-173260D01*
X-310500Y-173277D01*
X-310611Y-173299D01*
X-310721Y-173324D01*
X-310831Y-173354D01*
X-310939Y-173387D01*
X-311046Y-173424D01*
X-311152Y-173464D01*
X-311256Y-173509D01*
X-311359Y-173557D01*
X-311460Y-173608D01*
X-311559Y-173663D01*
X-311656Y-173721D01*
X-311751Y-173783D01*
X-311844Y-173848D01*
X-311934Y-173916D01*
X-312022Y-173987D01*
X-312108Y-174062D01*
X-312191Y-174139D01*
X-312271Y-174219D01*
X-312348Y-174302D01*
X-312423Y-174388D01*
X-312494Y-174476D01*
X-312562Y-174566D01*
X-312627Y-174659D01*
X-312689Y-174754D01*
X-312747Y-174851D01*
X-312802Y-174950D01*
X-312853Y-175051D01*
X-312901Y-175154D01*
X-312946Y-175258D01*
X-312986Y-175364D01*
X-313023Y-175471D01*
X-313056Y-175579D01*
X-313086Y-175689D01*
X-313111Y-175799D01*
X-313133Y-175910D01*
X-313150Y-176022D01*
X-313164Y-176135D01*
X-313174Y-176248D01*
X-313180Y-176361D01*
X-313182Y-176474D01*
X-313180Y-176587D01*
X-313174Y-176700D01*
X-313164Y-176813D01*
X-313150Y-176926D01*
X-313133Y-177038D01*
X-313111Y-177149D01*
X-313086Y-177259D01*
X-313056Y-177369D01*
X-313023Y-177477D01*
X-312986Y-177584D01*
X-312946Y-177690D01*
X-312901Y-177794D01*
X-312853Y-177897D01*
X-312802Y-177998D01*
X-312747Y-178097D01*
X-312689Y-178194D01*
X-312627Y-178289D01*
X-312562Y-178382D01*
X-312494Y-178472D01*
X-312423Y-178560D01*
X-312348Y-178646D01*
X-312271Y-178729D01*
X-312191Y-178809D01*
X-312108Y-178886D01*
X-312022Y-178961D01*
X-311934Y-179032D01*
X-311844Y-179100D01*
X-311751Y-179165D01*
X-311656Y-179227D01*
X-311559Y-179285D01*
X-311460Y-179340D01*
X-311359Y-179391D01*
X-311256Y-179439D01*
X-311152Y-179484D01*
X-311046Y-179524D01*
X-310939Y-179561D01*
X-310831Y-179594D01*
X-310721Y-179624D01*
X-310611Y-179649D01*
X-310500Y-179671D01*
X-310388Y-179688D01*
X-310275Y-179702D01*
X-310162Y-179712D01*
X-310049Y-179718D01*
X-309936Y-179720D01*
X-309936Y-179719D02*
X-306691Y-179719D01*
X-306548Y-179717D01*
X-306405Y-179711D01*
X-306262Y-179701D01*
X-306120Y-179687D01*
X-305978Y-179670D01*
X-305836Y-179648D01*
X-305695Y-179623D01*
X-305555Y-179593D01*
X-305416Y-179560D01*
X-305278Y-179523D01*
X-305141Y-179482D01*
X-305005Y-179438D01*
X-304870Y-179389D01*
X-304737Y-179337D01*
X-304605Y-179282D01*
X-304475Y-179222D01*
X-304346Y-179159D01*
X-304219Y-179093D01*
X-304095Y-179023D01*
X-303972Y-178950D01*
X-303851Y-178873D01*
X-303732Y-178794D01*
X-303616Y-178710D01*
X-303501Y-178624D01*
X-303390Y-178535D01*
X-303281Y-178442D01*
X-303174Y-178347D01*
X-303070Y-178248D01*
X-302969Y-178147D01*
X-302870Y-178043D01*
X-302775Y-177937D01*
X-302682Y-177827D01*
X-302593Y-177716D01*
X-302507Y-177602D01*
X-302424Y-177485D01*
X-302344Y-177366D01*
X-302267Y-177245D01*
X-302194Y-177123D01*
X-302124Y-176998D01*
X-302058Y-176871D01*
X-301995Y-176742D01*
X-301935Y-176612D01*
X-301880Y-176480D01*
X-301828Y-176347D01*
X-301779Y-176212D01*
X-301735Y-176076D01*
X-301694Y-175939D01*
X-301657Y-175801D01*
X-301624Y-175662D01*
X-301594Y-175522D01*
X-301569Y-175381D01*
X-301547Y-175239D01*
X-301530Y-175097D01*
X-301516Y-174955D01*
X-301506Y-174812D01*
X-301500Y-174669D01*
X-301498Y-174526D01*
X-417124Y-158242D02*
X-419721Y-158242D01*
X-417124Y-158242D02*
X-417025Y-158240D01*
X-416925Y-158234D01*
X-416826Y-158225D01*
X-416728Y-158212D01*
X-416630Y-158195D01*
X-416532Y-158174D01*
X-416436Y-158149D01*
X-416341Y-158121D01*
X-416247Y-158089D01*
X-416154Y-158054D01*
X-416062Y-158015D01*
X-415972Y-157972D01*
X-415884Y-157927D01*
X-415797Y-157877D01*
X-415713Y-157825D01*
X-415630Y-157769D01*
X-415550Y-157711D01*
X-415472Y-157649D01*
X-415397Y-157584D01*
X-415324Y-157516D01*
X-415254Y-157446D01*
X-415186Y-157373D01*
X-415121Y-157298D01*
X-415059Y-157220D01*
X-415001Y-157140D01*
X-414945Y-157057D01*
X-414893Y-156973D01*
X-414843Y-156886D01*
X-414798Y-156798D01*
X-414755Y-156708D01*
X-414716Y-156616D01*
X-414681Y-156523D01*
X-414649Y-156429D01*
X-414621Y-156334D01*
X-414596Y-156238D01*
X-414575Y-156140D01*
X-414558Y-156042D01*
X-414545Y-155944D01*
X-414536Y-155845D01*
X-414530Y-155745D01*
X-414528Y-155646D01*
X-414528Y-149154D01*
X-414530Y-149055D01*
X-414536Y-148955D01*
X-414545Y-148856D01*
X-414558Y-148758D01*
X-414576Y-148660D01*
X-414596Y-148562D01*
X-414621Y-148466D01*
X-414649Y-148370D01*
X-414681Y-148276D01*
X-414716Y-148183D01*
X-414755Y-148092D01*
X-414798Y-148002D01*
X-414843Y-147913D01*
X-414893Y-147827D01*
X-414945Y-147742D01*
X-415001Y-147660D01*
X-415060Y-147580D01*
X-415121Y-147502D01*
X-415186Y-147426D01*
X-415254Y-147353D01*
X-415324Y-147283D01*
X-415397Y-147215D01*
X-415473Y-147150D01*
X-415551Y-147089D01*
X-415631Y-147030D01*
X-415713Y-146974D01*
X-415798Y-146922D01*
X-415884Y-146873D01*
X-415973Y-146827D01*
X-416063Y-146784D01*
X-416154Y-146745D01*
X-416247Y-146710D01*
X-416341Y-146678D01*
X-416437Y-146650D01*
X-416533Y-146625D01*
X-416631Y-146605D01*
X-416729Y-146587D01*
X-416827Y-146574D01*
X-416926Y-146565D01*
X-417025Y-146559D01*
X-417125Y-146557D01*
X-417124Y-146558D02*
X-419721Y-146558D01*
X-424086Y-146558D02*
X-424086Y-147856D01*
X-424086Y-146558D02*
X-430577Y-146558D01*
X-427332Y-158242D01*
D11*
X-371840Y-166120D02*
X-357140Y-166120D01*
X-357140Y-138680D02*
X-371840Y-138680D01*
X-357140Y-147180D02*
X-357140Y-148120D01*
X-357140Y-156680D02*
X-357140Y-157620D01*
X-357140Y-139120D02*
X-357140Y-138680D01*
X-357140Y-165680D02*
X-357140Y-166120D01*
X-371840Y-157620D02*
X-371840Y-156680D01*
X-371840Y-148120D02*
X-371840Y-147180D01*
X-371840Y-165680D02*
X-371840Y-166120D01*
X-371840Y-139120D02*
X-371840Y-138680D01*
D10*
X-358380Y-170688D02*
X-358380Y-179126D01*
X-358379Y-179126D02*
X-358381Y-179239D01*
X-358387Y-179352D01*
X-358397Y-179465D01*
X-358411Y-179578D01*
X-358428Y-179690D01*
X-358450Y-179801D01*
X-358475Y-179911D01*
X-358505Y-180021D01*
X-358538Y-180129D01*
X-358575Y-180236D01*
X-358615Y-180342D01*
X-358660Y-180446D01*
X-358708Y-180549D01*
X-358759Y-180650D01*
X-358814Y-180749D01*
X-358872Y-180846D01*
X-358934Y-180941D01*
X-358999Y-181034D01*
X-359067Y-181124D01*
X-359138Y-181212D01*
X-359213Y-181298D01*
X-359290Y-181381D01*
X-359370Y-181461D01*
X-359453Y-181538D01*
X-359539Y-181613D01*
X-359627Y-181684D01*
X-359717Y-181752D01*
X-359810Y-181817D01*
X-359905Y-181879D01*
X-360002Y-181937D01*
X-360101Y-181992D01*
X-360202Y-182043D01*
X-360305Y-182091D01*
X-360409Y-182136D01*
X-360515Y-182176D01*
X-360622Y-182213D01*
X-360730Y-182246D01*
X-360840Y-182276D01*
X-360950Y-182301D01*
X-361061Y-182323D01*
X-361173Y-182340D01*
X-361286Y-182354D01*
X-361399Y-182364D01*
X-361512Y-182370D01*
X-361625Y-182372D01*
X-361738Y-182370D01*
X-361851Y-182364D01*
X-361964Y-182354D01*
X-362077Y-182340D01*
X-362189Y-182323D01*
X-362300Y-182301D01*
X-362410Y-182276D01*
X-362520Y-182246D01*
X-362628Y-182213D01*
X-362735Y-182176D01*
X-362841Y-182136D01*
X-362945Y-182091D01*
X-363048Y-182043D01*
X-363149Y-181992D01*
X-363248Y-181937D01*
X-363345Y-181879D01*
X-363440Y-181817D01*
X-363533Y-181752D01*
X-363623Y-181684D01*
X-363711Y-181613D01*
X-363797Y-181538D01*
X-363880Y-181461D01*
X-363960Y-181381D01*
X-364037Y-181298D01*
X-364112Y-181212D01*
X-364183Y-181124D01*
X-364251Y-181034D01*
X-364316Y-180941D01*
X-364378Y-180846D01*
X-364436Y-180749D01*
X-364491Y-180650D01*
X-364542Y-180549D01*
X-364590Y-180446D01*
X-364635Y-180342D01*
X-364675Y-180236D01*
X-364712Y-180129D01*
X-364745Y-180021D01*
X-364775Y-179911D01*
X-364800Y-179801D01*
X-364822Y-179690D01*
X-364839Y-179578D01*
X-364853Y-179465D01*
X-364863Y-179352D01*
X-364869Y-179239D01*
X-364871Y-179126D01*
X-364871Y-170688D01*
X-370191Y-182372D02*
X-373436Y-182372D01*
X-373549Y-182370D01*
X-373662Y-182364D01*
X-373775Y-182354D01*
X-373888Y-182340D01*
X-374000Y-182323D01*
X-374111Y-182301D01*
X-374221Y-182276D01*
X-374331Y-182246D01*
X-374439Y-182213D01*
X-374546Y-182176D01*
X-374652Y-182136D01*
X-374756Y-182091D01*
X-374859Y-182043D01*
X-374960Y-181992D01*
X-375059Y-181937D01*
X-375156Y-181879D01*
X-375251Y-181817D01*
X-375344Y-181752D01*
X-375434Y-181684D01*
X-375522Y-181613D01*
X-375608Y-181538D01*
X-375691Y-181461D01*
X-375771Y-181381D01*
X-375848Y-181298D01*
X-375923Y-181212D01*
X-375994Y-181124D01*
X-376062Y-181034D01*
X-376127Y-180941D01*
X-376189Y-180846D01*
X-376247Y-180749D01*
X-376302Y-180650D01*
X-376353Y-180549D01*
X-376401Y-180446D01*
X-376446Y-180342D01*
X-376486Y-180236D01*
X-376523Y-180129D01*
X-376556Y-180021D01*
X-376586Y-179911D01*
X-376611Y-179801D01*
X-376633Y-179690D01*
X-376650Y-179578D01*
X-376664Y-179465D01*
X-376674Y-179352D01*
X-376680Y-179239D01*
X-376682Y-179126D01*
X-376680Y-179013D01*
X-376674Y-178900D01*
X-376664Y-178787D01*
X-376650Y-178674D01*
X-376633Y-178562D01*
X-376611Y-178451D01*
X-376586Y-178341D01*
X-376556Y-178231D01*
X-376523Y-178123D01*
X-376486Y-178016D01*
X-376446Y-177910D01*
X-376401Y-177806D01*
X-376353Y-177703D01*
X-376302Y-177602D01*
X-376247Y-177503D01*
X-376189Y-177406D01*
X-376127Y-177311D01*
X-376062Y-177218D01*
X-375994Y-177128D01*
X-375923Y-177040D01*
X-375848Y-176954D01*
X-375771Y-176871D01*
X-375691Y-176791D01*
X-375608Y-176714D01*
X-375522Y-176639D01*
X-375434Y-176568D01*
X-375344Y-176500D01*
X-375251Y-176435D01*
X-375156Y-176373D01*
X-375059Y-176315D01*
X-374960Y-176260D01*
X-374859Y-176209D01*
X-374756Y-176161D01*
X-374652Y-176116D01*
X-374546Y-176076D01*
X-374439Y-176039D01*
X-374331Y-176006D01*
X-374221Y-175976D01*
X-374111Y-175951D01*
X-374000Y-175929D01*
X-373888Y-175912D01*
X-373775Y-175898D01*
X-373662Y-175888D01*
X-373549Y-175882D01*
X-373436Y-175880D01*
X-374086Y-170688D02*
X-370191Y-170688D01*
X-374086Y-170688D02*
X-374187Y-170690D01*
X-374287Y-170696D01*
X-374387Y-170706D01*
X-374487Y-170719D01*
X-374586Y-170737D01*
X-374685Y-170758D01*
X-374782Y-170783D01*
X-374879Y-170812D01*
X-374974Y-170845D01*
X-375068Y-170881D01*
X-375160Y-170921D01*
X-375251Y-170964D01*
X-375340Y-171011D01*
X-375427Y-171061D01*
X-375513Y-171115D01*
X-375596Y-171172D01*
X-375676Y-171232D01*
X-375755Y-171295D01*
X-375831Y-171362D01*
X-375904Y-171431D01*
X-375974Y-171503D01*
X-376042Y-171577D01*
X-376107Y-171654D01*
X-376168Y-171734D01*
X-376227Y-171816D01*
X-376282Y-171900D01*
X-376334Y-171986D01*
X-376383Y-172074D01*
X-376428Y-172164D01*
X-376470Y-172256D01*
X-376508Y-172349D01*
X-376542Y-172444D01*
X-376573Y-172539D01*
X-376600Y-172636D01*
X-376623Y-172734D01*
X-376643Y-172833D01*
X-376658Y-172933D01*
X-376670Y-173033D01*
X-376678Y-173133D01*
X-376682Y-173234D01*
X-376682Y-173334D01*
X-376678Y-173435D01*
X-376670Y-173535D01*
X-376658Y-173635D01*
X-376643Y-173735D01*
X-376623Y-173834D01*
X-376600Y-173932D01*
X-376573Y-174029D01*
X-376542Y-174124D01*
X-376508Y-174219D01*
X-376470Y-174312D01*
X-376428Y-174404D01*
X-376383Y-174494D01*
X-376334Y-174582D01*
X-376282Y-174668D01*
X-376227Y-174752D01*
X-376168Y-174834D01*
X-376107Y-174914D01*
X-376042Y-174991D01*
X-375974Y-175065D01*
X-375904Y-175137D01*
X-375831Y-175206D01*
X-375755Y-175273D01*
X-375676Y-175336D01*
X-375596Y-175396D01*
X-375513Y-175453D01*
X-375427Y-175507D01*
X-375340Y-175557D01*
X-375251Y-175604D01*
X-375160Y-175647D01*
X-375068Y-175687D01*
X-374974Y-175723D01*
X-374879Y-175756D01*
X-374782Y-175785D01*
X-374685Y-175810D01*
X-374586Y-175831D01*
X-374487Y-175849D01*
X-374387Y-175862D01*
X-374287Y-175872D01*
X-374187Y-175878D01*
X-374086Y-175880D01*
X-374086Y-175881D02*
X-371489Y-175881D01*
X40019Y-70612D02*
X42616Y-70612D01*
X42715Y-70610D01*
X42815Y-70604D01*
X42914Y-70595D01*
X43012Y-70582D01*
X43110Y-70565D01*
X43208Y-70544D01*
X43304Y-70519D01*
X43399Y-70491D01*
X43493Y-70459D01*
X43586Y-70424D01*
X43678Y-70385D01*
X43768Y-70342D01*
X43856Y-70297D01*
X43943Y-70247D01*
X44027Y-70195D01*
X44110Y-70139D01*
X44190Y-70081D01*
X44268Y-70019D01*
X44343Y-69954D01*
X44416Y-69886D01*
X44486Y-69816D01*
X44554Y-69743D01*
X44619Y-69668D01*
X44681Y-69590D01*
X44739Y-69510D01*
X44795Y-69427D01*
X44847Y-69343D01*
X44897Y-69256D01*
X44942Y-69168D01*
X44985Y-69078D01*
X45024Y-68986D01*
X45059Y-68893D01*
X45091Y-68799D01*
X45119Y-68704D01*
X45144Y-68608D01*
X45165Y-68510D01*
X45182Y-68412D01*
X45195Y-68314D01*
X45204Y-68215D01*
X45210Y-68115D01*
X45212Y-68016D01*
X45212Y-61524D01*
X45213Y-61524D02*
X45211Y-61425D01*
X45205Y-61325D01*
X45196Y-61226D01*
X45183Y-61128D01*
X45165Y-61030D01*
X45145Y-60932D01*
X45120Y-60836D01*
X45092Y-60740D01*
X45060Y-60646D01*
X45025Y-60553D01*
X44986Y-60462D01*
X44943Y-60372D01*
X44898Y-60283D01*
X44848Y-60197D01*
X44796Y-60112D01*
X44740Y-60030D01*
X44681Y-59950D01*
X44620Y-59872D01*
X44555Y-59796D01*
X44487Y-59723D01*
X44417Y-59653D01*
X44344Y-59585D01*
X44268Y-59520D01*
X44190Y-59459D01*
X44110Y-59400D01*
X44028Y-59344D01*
X43943Y-59292D01*
X43857Y-59243D01*
X43768Y-59197D01*
X43678Y-59154D01*
X43587Y-59115D01*
X43494Y-59080D01*
X43400Y-59048D01*
X43304Y-59020D01*
X43208Y-58995D01*
X43110Y-58975D01*
X43012Y-58957D01*
X42914Y-58944D01*
X42815Y-58935D01*
X42716Y-58929D01*
X42616Y-58927D01*
X42616Y-58928D02*
X40019Y-58928D01*
X35654Y-61524D02*
X32408Y-58928D01*
X32408Y-70612D01*
X29163Y-70612D02*
X35654Y-70612D01*
X24224Y-68016D02*
X21627Y-58928D01*
X24224Y-68016D02*
X17733Y-68016D01*
X19680Y-65419D02*
X19680Y-70612D01*
X-43942Y-139634D02*
X-43942Y-142231D01*
X-43940Y-142330D01*
X-43934Y-142430D01*
X-43925Y-142529D01*
X-43912Y-142627D01*
X-43895Y-142725D01*
X-43874Y-142823D01*
X-43849Y-142919D01*
X-43821Y-143014D01*
X-43789Y-143108D01*
X-43754Y-143201D01*
X-43715Y-143293D01*
X-43672Y-143383D01*
X-43627Y-143471D01*
X-43577Y-143558D01*
X-43525Y-143642D01*
X-43469Y-143725D01*
X-43411Y-143805D01*
X-43349Y-143883D01*
X-43284Y-143958D01*
X-43216Y-144031D01*
X-43146Y-144101D01*
X-43073Y-144169D01*
X-42998Y-144234D01*
X-42920Y-144296D01*
X-42840Y-144354D01*
X-42757Y-144410D01*
X-42673Y-144462D01*
X-42586Y-144512D01*
X-42498Y-144557D01*
X-42408Y-144600D01*
X-42316Y-144639D01*
X-42223Y-144674D01*
X-42129Y-144706D01*
X-42034Y-144734D01*
X-41938Y-144759D01*
X-41840Y-144780D01*
X-41742Y-144797D01*
X-41644Y-144810D01*
X-41545Y-144819D01*
X-41445Y-144825D01*
X-41346Y-144827D01*
X-34854Y-144827D01*
X-34854Y-144828D02*
X-34755Y-144826D01*
X-34655Y-144820D01*
X-34556Y-144811D01*
X-34458Y-144798D01*
X-34360Y-144780D01*
X-34262Y-144760D01*
X-34166Y-144735D01*
X-34070Y-144707D01*
X-33976Y-144675D01*
X-33883Y-144640D01*
X-33792Y-144601D01*
X-33702Y-144558D01*
X-33613Y-144513D01*
X-33527Y-144463D01*
X-33442Y-144411D01*
X-33360Y-144355D01*
X-33280Y-144296D01*
X-33202Y-144235D01*
X-33126Y-144170D01*
X-33053Y-144102D01*
X-32983Y-144032D01*
X-32915Y-143959D01*
X-32850Y-143883D01*
X-32789Y-143805D01*
X-32730Y-143725D01*
X-32674Y-143643D01*
X-32622Y-143558D01*
X-32573Y-143472D01*
X-32527Y-143383D01*
X-32484Y-143293D01*
X-32445Y-143202D01*
X-32410Y-143109D01*
X-32378Y-143015D01*
X-32350Y-142919D01*
X-32325Y-142823D01*
X-32305Y-142725D01*
X-32287Y-142627D01*
X-32274Y-142529D01*
X-32265Y-142430D01*
X-32259Y-142331D01*
X-32257Y-142231D01*
X-32258Y-142231D02*
X-32258Y-139634D01*
X-34854Y-135269D02*
X-32258Y-132024D01*
X-43942Y-132024D01*
X-43942Y-135269D02*
X-43942Y-128778D01*
X-43942Y-123839D02*
X-43942Y-120594D01*
X-43940Y-120481D01*
X-43934Y-120368D01*
X-43924Y-120255D01*
X-43910Y-120142D01*
X-43893Y-120030D01*
X-43871Y-119919D01*
X-43846Y-119809D01*
X-43816Y-119699D01*
X-43783Y-119591D01*
X-43746Y-119484D01*
X-43706Y-119378D01*
X-43661Y-119274D01*
X-43613Y-119171D01*
X-43562Y-119070D01*
X-43507Y-118971D01*
X-43449Y-118874D01*
X-43387Y-118779D01*
X-43322Y-118686D01*
X-43254Y-118596D01*
X-43183Y-118508D01*
X-43108Y-118422D01*
X-43031Y-118339D01*
X-42951Y-118259D01*
X-42868Y-118182D01*
X-42782Y-118107D01*
X-42694Y-118036D01*
X-42604Y-117968D01*
X-42511Y-117903D01*
X-42416Y-117841D01*
X-42319Y-117783D01*
X-42220Y-117728D01*
X-42119Y-117677D01*
X-42016Y-117629D01*
X-41912Y-117584D01*
X-41806Y-117544D01*
X-41699Y-117507D01*
X-41591Y-117474D01*
X-41481Y-117444D01*
X-41371Y-117419D01*
X-41260Y-117397D01*
X-41148Y-117380D01*
X-41035Y-117366D01*
X-40922Y-117356D01*
X-40809Y-117350D01*
X-40696Y-117348D01*
X-40583Y-117350D01*
X-40470Y-117356D01*
X-40357Y-117366D01*
X-40244Y-117380D01*
X-40132Y-117397D01*
X-40021Y-117419D01*
X-39911Y-117444D01*
X-39801Y-117474D01*
X-39693Y-117507D01*
X-39586Y-117544D01*
X-39480Y-117584D01*
X-39376Y-117629D01*
X-39273Y-117677D01*
X-39172Y-117728D01*
X-39073Y-117783D01*
X-38976Y-117841D01*
X-38881Y-117903D01*
X-38788Y-117968D01*
X-38698Y-118036D01*
X-38610Y-118107D01*
X-38524Y-118182D01*
X-38441Y-118259D01*
X-38361Y-118339D01*
X-38284Y-118422D01*
X-38209Y-118508D01*
X-38138Y-118596D01*
X-38070Y-118686D01*
X-38005Y-118779D01*
X-37943Y-118874D01*
X-37885Y-118971D01*
X-37830Y-119070D01*
X-37779Y-119171D01*
X-37731Y-119274D01*
X-37686Y-119378D01*
X-37646Y-119484D01*
X-37609Y-119591D01*
X-37576Y-119699D01*
X-37546Y-119809D01*
X-37521Y-119919D01*
X-37499Y-120030D01*
X-37482Y-120142D01*
X-37468Y-120255D01*
X-37458Y-120368D01*
X-37452Y-120481D01*
X-37450Y-120594D01*
X-32258Y-119944D02*
X-32258Y-123839D01*
X-32258Y-119944D02*
X-32260Y-119843D01*
X-32266Y-119743D01*
X-32276Y-119643D01*
X-32289Y-119543D01*
X-32307Y-119444D01*
X-32328Y-119345D01*
X-32353Y-119248D01*
X-32382Y-119151D01*
X-32415Y-119056D01*
X-32451Y-118962D01*
X-32491Y-118870D01*
X-32534Y-118779D01*
X-32581Y-118690D01*
X-32631Y-118603D01*
X-32685Y-118517D01*
X-32742Y-118434D01*
X-32802Y-118354D01*
X-32865Y-118275D01*
X-32932Y-118199D01*
X-33001Y-118126D01*
X-33073Y-118056D01*
X-33147Y-117988D01*
X-33224Y-117923D01*
X-33304Y-117862D01*
X-33386Y-117803D01*
X-33470Y-117748D01*
X-33556Y-117696D01*
X-33644Y-117647D01*
X-33734Y-117602D01*
X-33826Y-117560D01*
X-33919Y-117522D01*
X-34014Y-117488D01*
X-34109Y-117457D01*
X-34206Y-117430D01*
X-34304Y-117407D01*
X-34403Y-117387D01*
X-34503Y-117372D01*
X-34603Y-117360D01*
X-34703Y-117352D01*
X-34804Y-117348D01*
X-34904Y-117348D01*
X-35005Y-117352D01*
X-35105Y-117360D01*
X-35205Y-117372D01*
X-35305Y-117387D01*
X-35404Y-117407D01*
X-35502Y-117430D01*
X-35599Y-117457D01*
X-35694Y-117488D01*
X-35789Y-117522D01*
X-35882Y-117560D01*
X-35974Y-117602D01*
X-36064Y-117647D01*
X-36152Y-117696D01*
X-36238Y-117748D01*
X-36322Y-117803D01*
X-36404Y-117862D01*
X-36484Y-117923D01*
X-36561Y-117988D01*
X-36635Y-118056D01*
X-36707Y-118126D01*
X-36776Y-118199D01*
X-36843Y-118275D01*
X-36906Y-118354D01*
X-36966Y-118434D01*
X-37023Y-118517D01*
X-37077Y-118603D01*
X-37127Y-118690D01*
X-37174Y-118779D01*
X-37217Y-118870D01*
X-37257Y-118962D01*
X-37293Y-119056D01*
X-37326Y-119151D01*
X-37355Y-119248D01*
X-37380Y-119345D01*
X-37401Y-119444D01*
X-37419Y-119543D01*
X-37432Y-119643D01*
X-37442Y-119743D01*
X-37448Y-119843D01*
X-37450Y-119944D01*
X-37451Y-119944D02*
X-37451Y-122541D01*
X-81594Y-106172D02*
X-81594Y-94488D01*
X-84839Y-94488D01*
X-84952Y-94490D01*
X-85065Y-94496D01*
X-85178Y-94506D01*
X-85291Y-94520D01*
X-85403Y-94537D01*
X-85514Y-94559D01*
X-85624Y-94584D01*
X-85734Y-94614D01*
X-85842Y-94647D01*
X-85949Y-94684D01*
X-86055Y-94724D01*
X-86159Y-94769D01*
X-86262Y-94817D01*
X-86363Y-94868D01*
X-86462Y-94923D01*
X-86559Y-94981D01*
X-86654Y-95043D01*
X-86747Y-95108D01*
X-86837Y-95176D01*
X-86925Y-95247D01*
X-87011Y-95322D01*
X-87094Y-95399D01*
X-87174Y-95479D01*
X-87251Y-95562D01*
X-87326Y-95648D01*
X-87397Y-95736D01*
X-87465Y-95826D01*
X-87530Y-95919D01*
X-87592Y-96014D01*
X-87650Y-96111D01*
X-87705Y-96210D01*
X-87756Y-96311D01*
X-87804Y-96414D01*
X-87849Y-96518D01*
X-87889Y-96624D01*
X-87926Y-96731D01*
X-87959Y-96839D01*
X-87989Y-96949D01*
X-88014Y-97059D01*
X-88036Y-97170D01*
X-88053Y-97282D01*
X-88067Y-97395D01*
X-88077Y-97508D01*
X-88083Y-97621D01*
X-88085Y-97734D01*
X-88083Y-97847D01*
X-88077Y-97960D01*
X-88067Y-98073D01*
X-88053Y-98186D01*
X-88036Y-98298D01*
X-88014Y-98409D01*
X-87989Y-98519D01*
X-87959Y-98629D01*
X-87926Y-98737D01*
X-87889Y-98844D01*
X-87849Y-98950D01*
X-87804Y-99054D01*
X-87756Y-99157D01*
X-87705Y-99258D01*
X-87650Y-99357D01*
X-87592Y-99454D01*
X-87530Y-99549D01*
X-87465Y-99642D01*
X-87397Y-99732D01*
X-87326Y-99820D01*
X-87251Y-99906D01*
X-87174Y-99989D01*
X-87094Y-100069D01*
X-87011Y-100146D01*
X-86925Y-100221D01*
X-86837Y-100292D01*
X-86747Y-100360D01*
X-86654Y-100425D01*
X-86559Y-100487D01*
X-86462Y-100545D01*
X-86363Y-100600D01*
X-86262Y-100651D01*
X-86159Y-100699D01*
X-86055Y-100744D01*
X-85949Y-100784D01*
X-85842Y-100821D01*
X-85734Y-100854D01*
X-85624Y-100884D01*
X-85514Y-100909D01*
X-85403Y-100931D01*
X-85291Y-100948D01*
X-85178Y-100962D01*
X-85065Y-100972D01*
X-84952Y-100978D01*
X-84839Y-100980D01*
X-84839Y-100979D02*
X-81594Y-100979D01*
X-85488Y-100979D02*
X-88085Y-106172D01*
X-95513Y-106172D02*
X-98110Y-106172D01*
X-95513Y-106172D02*
X-95414Y-106170D01*
X-95314Y-106164D01*
X-95215Y-106155D01*
X-95117Y-106142D01*
X-95019Y-106125D01*
X-94921Y-106104D01*
X-94825Y-106079D01*
X-94730Y-106051D01*
X-94636Y-106019D01*
X-94543Y-105984D01*
X-94451Y-105945D01*
X-94361Y-105902D01*
X-94273Y-105857D01*
X-94186Y-105807D01*
X-94102Y-105755D01*
X-94019Y-105699D01*
X-93939Y-105641D01*
X-93861Y-105579D01*
X-93786Y-105514D01*
X-93713Y-105446D01*
X-93643Y-105376D01*
X-93575Y-105303D01*
X-93510Y-105228D01*
X-93448Y-105150D01*
X-93390Y-105070D01*
X-93334Y-104987D01*
X-93282Y-104903D01*
X-93232Y-104816D01*
X-93187Y-104728D01*
X-93144Y-104638D01*
X-93105Y-104546D01*
X-93070Y-104453D01*
X-93038Y-104359D01*
X-93010Y-104264D01*
X-92985Y-104168D01*
X-92964Y-104070D01*
X-92947Y-103972D01*
X-92934Y-103874D01*
X-92925Y-103775D01*
X-92919Y-103675D01*
X-92917Y-103576D01*
X-92917Y-97084D01*
X-92916Y-97084D02*
X-92918Y-96985D01*
X-92924Y-96885D01*
X-92933Y-96786D01*
X-92946Y-96688D01*
X-92964Y-96590D01*
X-92984Y-96492D01*
X-93009Y-96396D01*
X-93037Y-96300D01*
X-93069Y-96206D01*
X-93104Y-96113D01*
X-93143Y-96022D01*
X-93186Y-95932D01*
X-93231Y-95843D01*
X-93281Y-95757D01*
X-93333Y-95672D01*
X-93389Y-95590D01*
X-93448Y-95510D01*
X-93509Y-95432D01*
X-93574Y-95356D01*
X-93642Y-95283D01*
X-93712Y-95213D01*
X-93785Y-95145D01*
X-93861Y-95080D01*
X-93939Y-95019D01*
X-94019Y-94960D01*
X-94101Y-94904D01*
X-94186Y-94852D01*
X-94272Y-94803D01*
X-94361Y-94757D01*
X-94451Y-94714D01*
X-94542Y-94675D01*
X-94635Y-94640D01*
X-94729Y-94608D01*
X-94825Y-94580D01*
X-94921Y-94555D01*
X-95019Y-94535D01*
X-95117Y-94517D01*
X-95215Y-94504D01*
X-95314Y-94495D01*
X-95413Y-94489D01*
X-95513Y-94487D01*
X-95513Y-94488D02*
X-98110Y-94488D01*
X-102879Y-94488D02*
X-102879Y-106172D01*
X-108071Y-106172D01*
X-112931Y-106172D02*
X-112931Y-94488D01*
X-119422Y-94488D02*
X-112931Y-101628D01*
X-115528Y-99032D02*
X-119422Y-106172D01*
X-123811Y-97084D02*
X-127056Y-94488D01*
X-127056Y-106172D01*
X-123811Y-106172D02*
X-130302Y-106172D01*
X508Y-234329D02*
X508Y-236926D01*
X510Y-237025D01*
X516Y-237125D01*
X525Y-237224D01*
X538Y-237322D01*
X555Y-237420D01*
X576Y-237518D01*
X601Y-237614D01*
X629Y-237709D01*
X661Y-237803D01*
X696Y-237896D01*
X735Y-237988D01*
X778Y-238078D01*
X823Y-238166D01*
X873Y-238253D01*
X925Y-238337D01*
X981Y-238420D01*
X1039Y-238500D01*
X1101Y-238578D01*
X1166Y-238653D01*
X1234Y-238726D01*
X1304Y-238796D01*
X1377Y-238864D01*
X1452Y-238929D01*
X1530Y-238991D01*
X1610Y-239049D01*
X1693Y-239105D01*
X1777Y-239157D01*
X1864Y-239207D01*
X1952Y-239252D01*
X2042Y-239295D01*
X2134Y-239334D01*
X2227Y-239369D01*
X2321Y-239401D01*
X2416Y-239429D01*
X2512Y-239454D01*
X2610Y-239475D01*
X2708Y-239492D01*
X2806Y-239505D01*
X2905Y-239514D01*
X3005Y-239520D01*
X3104Y-239522D01*
X9596Y-239522D01*
X9695Y-239520D01*
X9795Y-239514D01*
X9894Y-239505D01*
X9992Y-239492D01*
X10090Y-239475D01*
X10188Y-239454D01*
X10284Y-239429D01*
X10379Y-239401D01*
X10473Y-239369D01*
X10566Y-239334D01*
X10658Y-239295D01*
X10748Y-239252D01*
X10836Y-239207D01*
X10923Y-239157D01*
X11007Y-239105D01*
X11090Y-239049D01*
X11170Y-238991D01*
X11248Y-238929D01*
X11323Y-238864D01*
X11396Y-238796D01*
X11466Y-238726D01*
X11534Y-238653D01*
X11599Y-238578D01*
X11661Y-238500D01*
X11719Y-238420D01*
X11775Y-238337D01*
X11827Y-238253D01*
X11877Y-238166D01*
X11922Y-238078D01*
X11965Y-237988D01*
X12004Y-237896D01*
X12039Y-237804D01*
X12071Y-237709D01*
X12099Y-237614D01*
X12124Y-237518D01*
X12145Y-237420D01*
X12162Y-237322D01*
X12175Y-237224D01*
X12184Y-237125D01*
X12190Y-237025D01*
X12192Y-236926D01*
X12192Y-234329D01*
X9596Y-229964D02*
X12192Y-226718D01*
X508Y-226718D01*
X508Y-223473D02*
X508Y-229964D01*
X6999Y-218534D02*
X6999Y-214639D01*
X6997Y-214540D01*
X6991Y-214440D01*
X6982Y-214341D01*
X6969Y-214243D01*
X6952Y-214145D01*
X6931Y-214047D01*
X6906Y-213951D01*
X6878Y-213856D01*
X6846Y-213762D01*
X6811Y-213669D01*
X6772Y-213577D01*
X6729Y-213487D01*
X6684Y-213399D01*
X6634Y-213312D01*
X6582Y-213228D01*
X6526Y-213145D01*
X6468Y-213065D01*
X6406Y-212987D01*
X6341Y-212912D01*
X6273Y-212839D01*
X6203Y-212769D01*
X6130Y-212701D01*
X6055Y-212636D01*
X5977Y-212574D01*
X5897Y-212516D01*
X5814Y-212460D01*
X5730Y-212408D01*
X5643Y-212358D01*
X5555Y-212313D01*
X5465Y-212270D01*
X5373Y-212231D01*
X5280Y-212196D01*
X5186Y-212164D01*
X5091Y-212136D01*
X4995Y-212111D01*
X4897Y-212090D01*
X4799Y-212073D01*
X4701Y-212060D01*
X4602Y-212051D01*
X4502Y-212045D01*
X4403Y-212043D01*
X3754Y-212043D01*
X3754Y-212042D02*
X3641Y-212044D01*
X3528Y-212050D01*
X3415Y-212060D01*
X3302Y-212074D01*
X3190Y-212091D01*
X3079Y-212113D01*
X2969Y-212138D01*
X2859Y-212168D01*
X2751Y-212201D01*
X2644Y-212238D01*
X2538Y-212278D01*
X2434Y-212323D01*
X2331Y-212371D01*
X2230Y-212422D01*
X2131Y-212477D01*
X2034Y-212535D01*
X1939Y-212597D01*
X1846Y-212662D01*
X1756Y-212730D01*
X1668Y-212801D01*
X1582Y-212876D01*
X1499Y-212953D01*
X1419Y-213033D01*
X1342Y-213116D01*
X1267Y-213202D01*
X1196Y-213290D01*
X1128Y-213380D01*
X1063Y-213473D01*
X1001Y-213568D01*
X943Y-213665D01*
X888Y-213764D01*
X837Y-213865D01*
X789Y-213968D01*
X744Y-214072D01*
X704Y-214178D01*
X667Y-214285D01*
X634Y-214393D01*
X604Y-214503D01*
X579Y-214613D01*
X557Y-214724D01*
X540Y-214836D01*
X526Y-214949D01*
X516Y-215062D01*
X510Y-215175D01*
X508Y-215288D01*
X510Y-215401D01*
X516Y-215514D01*
X526Y-215627D01*
X540Y-215740D01*
X557Y-215852D01*
X579Y-215963D01*
X604Y-216073D01*
X634Y-216183D01*
X667Y-216291D01*
X704Y-216398D01*
X744Y-216504D01*
X789Y-216608D01*
X837Y-216711D01*
X888Y-216812D01*
X943Y-216911D01*
X1001Y-217008D01*
X1063Y-217103D01*
X1128Y-217196D01*
X1196Y-217286D01*
X1267Y-217374D01*
X1342Y-217460D01*
X1419Y-217543D01*
X1499Y-217623D01*
X1582Y-217700D01*
X1668Y-217775D01*
X1756Y-217846D01*
X1846Y-217914D01*
X1939Y-217979D01*
X2034Y-218041D01*
X2131Y-218099D01*
X2230Y-218154D01*
X2331Y-218205D01*
X2434Y-218253D01*
X2538Y-218298D01*
X2644Y-218338D01*
X2751Y-218375D01*
X2859Y-218408D01*
X2969Y-218438D01*
X3079Y-218463D01*
X3190Y-218485D01*
X3302Y-218502D01*
X3415Y-218516D01*
X3528Y-218526D01*
X3641Y-218532D01*
X3754Y-218534D01*
X6999Y-218534D01*
X7142Y-218532D01*
X7285Y-218526D01*
X7428Y-218516D01*
X7570Y-218502D01*
X7712Y-218485D01*
X7854Y-218463D01*
X7995Y-218438D01*
X8135Y-218408D01*
X8274Y-218375D01*
X8412Y-218338D01*
X8549Y-218297D01*
X8685Y-218253D01*
X8820Y-218204D01*
X8953Y-218152D01*
X9085Y-218097D01*
X9215Y-218037D01*
X9344Y-217974D01*
X9471Y-217908D01*
X9595Y-217838D01*
X9718Y-217765D01*
X9839Y-217688D01*
X9958Y-217608D01*
X10074Y-217525D01*
X10189Y-217439D01*
X10300Y-217350D01*
X10410Y-217257D01*
X10516Y-217162D01*
X10620Y-217063D01*
X10721Y-216962D01*
X10820Y-216858D01*
X10915Y-216752D01*
X11008Y-216642D01*
X11097Y-216531D01*
X11183Y-216416D01*
X11266Y-216300D01*
X11346Y-216181D01*
X11423Y-216060D01*
X11496Y-215938D01*
X11566Y-215813D01*
X11632Y-215686D01*
X11695Y-215557D01*
X11755Y-215427D01*
X11810Y-215295D01*
X11862Y-215162D01*
X11911Y-215027D01*
X11955Y-214891D01*
X11996Y-214754D01*
X12033Y-214616D01*
X12066Y-214477D01*
X12096Y-214337D01*
X12121Y-214196D01*
X12143Y-214054D01*
X12160Y-213912D01*
X12174Y-213770D01*
X12184Y-213627D01*
X12190Y-213484D01*
X12192Y-213341D01*
X-40132Y-316164D02*
X-40132Y-318761D01*
X-40130Y-318860D01*
X-40124Y-318960D01*
X-40115Y-319059D01*
X-40102Y-319157D01*
X-40085Y-319255D01*
X-40064Y-319353D01*
X-40039Y-319449D01*
X-40011Y-319544D01*
X-39979Y-319638D01*
X-39944Y-319731D01*
X-39905Y-319823D01*
X-39862Y-319913D01*
X-39817Y-320001D01*
X-39767Y-320088D01*
X-39715Y-320172D01*
X-39659Y-320255D01*
X-39601Y-320335D01*
X-39539Y-320413D01*
X-39474Y-320488D01*
X-39406Y-320561D01*
X-39336Y-320631D01*
X-39263Y-320699D01*
X-39188Y-320764D01*
X-39110Y-320826D01*
X-39030Y-320884D01*
X-38947Y-320940D01*
X-38863Y-320992D01*
X-38776Y-321042D01*
X-38688Y-321087D01*
X-38598Y-321130D01*
X-38506Y-321169D01*
X-38413Y-321204D01*
X-38319Y-321236D01*
X-38224Y-321264D01*
X-38128Y-321289D01*
X-38030Y-321310D01*
X-37932Y-321327D01*
X-37834Y-321340D01*
X-37735Y-321349D01*
X-37635Y-321355D01*
X-37536Y-321357D01*
X-31044Y-321357D01*
X-31044Y-321358D02*
X-30945Y-321356D01*
X-30845Y-321350D01*
X-30746Y-321341D01*
X-30648Y-321328D01*
X-30550Y-321310D01*
X-30452Y-321290D01*
X-30356Y-321265D01*
X-30260Y-321237D01*
X-30166Y-321205D01*
X-30073Y-321170D01*
X-29982Y-321131D01*
X-29892Y-321088D01*
X-29803Y-321043D01*
X-29717Y-320993D01*
X-29632Y-320941D01*
X-29550Y-320885D01*
X-29470Y-320826D01*
X-29392Y-320765D01*
X-29316Y-320700D01*
X-29243Y-320632D01*
X-29173Y-320562D01*
X-29105Y-320489D01*
X-29040Y-320413D01*
X-28979Y-320335D01*
X-28920Y-320255D01*
X-28864Y-320173D01*
X-28812Y-320088D01*
X-28763Y-320002D01*
X-28717Y-319913D01*
X-28674Y-319823D01*
X-28635Y-319732D01*
X-28600Y-319639D01*
X-28568Y-319545D01*
X-28540Y-319449D01*
X-28515Y-319353D01*
X-28495Y-319255D01*
X-28477Y-319157D01*
X-28464Y-319059D01*
X-28455Y-318960D01*
X-28449Y-318861D01*
X-28447Y-318761D01*
X-28448Y-318761D02*
X-28448Y-316164D01*
X-31044Y-311799D02*
X-28448Y-308554D01*
X-40132Y-308554D01*
X-40132Y-311799D02*
X-40132Y-305308D01*
X-40132Y-300369D02*
X-40132Y-296474D01*
X-40130Y-296375D01*
X-40124Y-296275D01*
X-40115Y-296176D01*
X-40102Y-296078D01*
X-40085Y-295980D01*
X-40064Y-295882D01*
X-40039Y-295786D01*
X-40011Y-295691D01*
X-39979Y-295597D01*
X-39944Y-295504D01*
X-39905Y-295412D01*
X-39862Y-295322D01*
X-39817Y-295234D01*
X-39767Y-295147D01*
X-39715Y-295063D01*
X-39659Y-294980D01*
X-39601Y-294900D01*
X-39539Y-294822D01*
X-39474Y-294747D01*
X-39406Y-294674D01*
X-39336Y-294604D01*
X-39263Y-294536D01*
X-39188Y-294471D01*
X-39110Y-294409D01*
X-39030Y-294351D01*
X-38947Y-294295D01*
X-38863Y-294243D01*
X-38776Y-294193D01*
X-38688Y-294148D01*
X-38598Y-294105D01*
X-38506Y-294066D01*
X-38413Y-294031D01*
X-38319Y-293999D01*
X-38224Y-293971D01*
X-38128Y-293946D01*
X-38030Y-293925D01*
X-37932Y-293908D01*
X-37834Y-293895D01*
X-37735Y-293886D01*
X-37635Y-293880D01*
X-37536Y-293878D01*
X-36237Y-293878D01*
X-36138Y-293880D01*
X-36038Y-293886D01*
X-35939Y-293895D01*
X-35841Y-293908D01*
X-35743Y-293925D01*
X-35645Y-293946D01*
X-35549Y-293971D01*
X-35454Y-293999D01*
X-35360Y-294031D01*
X-35267Y-294066D01*
X-35175Y-294105D01*
X-35085Y-294148D01*
X-34997Y-294193D01*
X-34910Y-294243D01*
X-34826Y-294295D01*
X-34743Y-294351D01*
X-34663Y-294409D01*
X-34585Y-294471D01*
X-34510Y-294536D01*
X-34437Y-294604D01*
X-34367Y-294674D01*
X-34299Y-294747D01*
X-34234Y-294822D01*
X-34172Y-294900D01*
X-34114Y-294980D01*
X-34058Y-295063D01*
X-34006Y-295147D01*
X-33956Y-295234D01*
X-33911Y-295322D01*
X-33868Y-295412D01*
X-33829Y-295504D01*
X-33794Y-295597D01*
X-33762Y-295691D01*
X-33734Y-295786D01*
X-33709Y-295882D01*
X-33688Y-295980D01*
X-33671Y-296078D01*
X-33658Y-296176D01*
X-33649Y-296275D01*
X-33643Y-296375D01*
X-33641Y-296474D01*
X-33641Y-300369D01*
X-28448Y-300369D01*
X-28448Y-293878D01*
X-76708Y-289052D02*
X-76708Y-277368D01*
X-79954Y-277368D01*
X-80067Y-277370D01*
X-80180Y-277376D01*
X-80293Y-277386D01*
X-80406Y-277400D01*
X-80518Y-277417D01*
X-80629Y-277439D01*
X-80739Y-277464D01*
X-80849Y-277494D01*
X-80957Y-277527D01*
X-81064Y-277564D01*
X-81170Y-277604D01*
X-81274Y-277649D01*
X-81377Y-277697D01*
X-81478Y-277748D01*
X-81577Y-277803D01*
X-81674Y-277861D01*
X-81769Y-277923D01*
X-81862Y-277988D01*
X-81952Y-278056D01*
X-82040Y-278127D01*
X-82126Y-278202D01*
X-82209Y-278279D01*
X-82289Y-278359D01*
X-82366Y-278442D01*
X-82441Y-278528D01*
X-82512Y-278616D01*
X-82580Y-278706D01*
X-82645Y-278799D01*
X-82707Y-278894D01*
X-82765Y-278991D01*
X-82820Y-279090D01*
X-82871Y-279191D01*
X-82919Y-279294D01*
X-82964Y-279398D01*
X-83004Y-279504D01*
X-83041Y-279611D01*
X-83074Y-279719D01*
X-83104Y-279829D01*
X-83129Y-279939D01*
X-83151Y-280050D01*
X-83168Y-280162D01*
X-83182Y-280275D01*
X-83192Y-280388D01*
X-83198Y-280501D01*
X-83200Y-280614D01*
X-83198Y-280727D01*
X-83192Y-280840D01*
X-83182Y-280953D01*
X-83168Y-281066D01*
X-83151Y-281178D01*
X-83129Y-281289D01*
X-83104Y-281399D01*
X-83074Y-281509D01*
X-83041Y-281617D01*
X-83004Y-281724D01*
X-82964Y-281830D01*
X-82919Y-281934D01*
X-82871Y-282037D01*
X-82820Y-282138D01*
X-82765Y-282237D01*
X-82707Y-282334D01*
X-82645Y-282429D01*
X-82580Y-282522D01*
X-82512Y-282612D01*
X-82441Y-282700D01*
X-82366Y-282786D01*
X-82289Y-282869D01*
X-82209Y-282949D01*
X-82126Y-283026D01*
X-82040Y-283101D01*
X-81952Y-283172D01*
X-81862Y-283240D01*
X-81769Y-283305D01*
X-81674Y-283367D01*
X-81577Y-283425D01*
X-81478Y-283480D01*
X-81377Y-283531D01*
X-81274Y-283579D01*
X-81170Y-283624D01*
X-81064Y-283664D01*
X-80957Y-283701D01*
X-80849Y-283734D01*
X-80739Y-283764D01*
X-80629Y-283789D01*
X-80518Y-283811D01*
X-80406Y-283828D01*
X-80293Y-283842D01*
X-80180Y-283852D01*
X-80067Y-283858D01*
X-79954Y-283860D01*
X-79954Y-283859D02*
X-76708Y-283859D01*
X-80603Y-283859D02*
X-83199Y-289052D01*
X-90628Y-289052D02*
X-93224Y-289052D01*
X-90628Y-289052D02*
X-90529Y-289050D01*
X-90429Y-289044D01*
X-90330Y-289035D01*
X-90232Y-289022D01*
X-90134Y-289005D01*
X-90036Y-288984D01*
X-89940Y-288959D01*
X-89845Y-288931D01*
X-89751Y-288899D01*
X-89658Y-288864D01*
X-89566Y-288825D01*
X-89476Y-288782D01*
X-89388Y-288737D01*
X-89301Y-288687D01*
X-89217Y-288635D01*
X-89134Y-288579D01*
X-89054Y-288521D01*
X-88976Y-288459D01*
X-88901Y-288394D01*
X-88828Y-288326D01*
X-88758Y-288256D01*
X-88690Y-288183D01*
X-88625Y-288108D01*
X-88563Y-288030D01*
X-88505Y-287950D01*
X-88449Y-287867D01*
X-88397Y-287783D01*
X-88347Y-287696D01*
X-88302Y-287608D01*
X-88259Y-287518D01*
X-88220Y-287426D01*
X-88185Y-287333D01*
X-88153Y-287239D01*
X-88125Y-287144D01*
X-88100Y-287048D01*
X-88079Y-286950D01*
X-88062Y-286852D01*
X-88049Y-286754D01*
X-88040Y-286655D01*
X-88034Y-286555D01*
X-88032Y-286456D01*
X-88031Y-286456D02*
X-88031Y-279964D01*
X-88033Y-279865D01*
X-88039Y-279765D01*
X-88048Y-279666D01*
X-88061Y-279568D01*
X-88079Y-279470D01*
X-88099Y-279372D01*
X-88124Y-279276D01*
X-88152Y-279180D01*
X-88184Y-279086D01*
X-88219Y-278993D01*
X-88258Y-278902D01*
X-88301Y-278812D01*
X-88346Y-278723D01*
X-88396Y-278637D01*
X-88448Y-278552D01*
X-88504Y-278470D01*
X-88563Y-278390D01*
X-88624Y-278312D01*
X-88689Y-278236D01*
X-88757Y-278163D01*
X-88827Y-278093D01*
X-88900Y-278025D01*
X-88976Y-277960D01*
X-89054Y-277899D01*
X-89134Y-277840D01*
X-89216Y-277784D01*
X-89301Y-277732D01*
X-89387Y-277683D01*
X-89476Y-277637D01*
X-89566Y-277594D01*
X-89657Y-277555D01*
X-89750Y-277520D01*
X-89844Y-277488D01*
X-89940Y-277460D01*
X-90036Y-277435D01*
X-90134Y-277415D01*
X-90232Y-277397D01*
X-90330Y-277384D01*
X-90429Y-277375D01*
X-90528Y-277369D01*
X-90628Y-277367D01*
X-90628Y-277368D02*
X-93224Y-277368D01*
X-97993Y-277368D02*
X-97993Y-289052D01*
X-103186Y-289052D01*
X-108046Y-289052D02*
X-108046Y-277368D01*
X-114537Y-277368D02*
X-108046Y-284508D01*
X-110642Y-281912D02*
X-114537Y-289052D01*
X-125416Y-280289D02*
X-125414Y-280182D01*
X-125408Y-280076D01*
X-125398Y-279970D01*
X-125385Y-279864D01*
X-125367Y-279758D01*
X-125346Y-279654D01*
X-125321Y-279550D01*
X-125292Y-279447D01*
X-125260Y-279346D01*
X-125223Y-279246D01*
X-125183Y-279147D01*
X-125140Y-279049D01*
X-125093Y-278953D01*
X-125042Y-278859D01*
X-124988Y-278767D01*
X-124931Y-278677D01*
X-124871Y-278589D01*
X-124807Y-278504D01*
X-124740Y-278421D01*
X-124670Y-278340D01*
X-124598Y-278262D01*
X-124522Y-278186D01*
X-124444Y-278114D01*
X-124363Y-278044D01*
X-124280Y-277977D01*
X-124195Y-277913D01*
X-124107Y-277853D01*
X-124017Y-277796D01*
X-123925Y-277742D01*
X-123831Y-277691D01*
X-123735Y-277644D01*
X-123637Y-277601D01*
X-123538Y-277561D01*
X-123438Y-277524D01*
X-123337Y-277492D01*
X-123234Y-277463D01*
X-123130Y-277438D01*
X-123026Y-277417D01*
X-122920Y-277399D01*
X-122814Y-277386D01*
X-122708Y-277376D01*
X-122602Y-277370D01*
X-122495Y-277368D01*
X-122374Y-277370D01*
X-122253Y-277376D01*
X-122133Y-277386D01*
X-122012Y-277399D01*
X-121893Y-277417D01*
X-121773Y-277438D01*
X-121655Y-277463D01*
X-121538Y-277492D01*
X-121421Y-277525D01*
X-121306Y-277561D01*
X-121192Y-277602D01*
X-121079Y-277645D01*
X-120967Y-277693D01*
X-120858Y-277744D01*
X-120750Y-277799D01*
X-120643Y-277857D01*
X-120539Y-277918D01*
X-120437Y-277983D01*
X-120337Y-278051D01*
X-120239Y-278122D01*
X-120143Y-278196D01*
X-120050Y-278273D01*
X-119960Y-278354D01*
X-119872Y-278437D01*
X-119787Y-278523D01*
X-119704Y-278612D01*
X-119625Y-278703D01*
X-119548Y-278797D01*
X-119475Y-278893D01*
X-119405Y-278991D01*
X-119338Y-279092D01*
X-119274Y-279195D01*
X-119214Y-279300D01*
X-119156Y-279407D01*
X-119103Y-279515D01*
X-119053Y-279625D01*
X-119007Y-279737D01*
X-118964Y-279850D01*
X-118925Y-279965D01*
X-124442Y-282561D02*
X-124521Y-282483D01*
X-124597Y-282403D01*
X-124670Y-282320D01*
X-124740Y-282234D01*
X-124807Y-282147D01*
X-124871Y-282056D01*
X-124931Y-281964D01*
X-124989Y-281870D01*
X-125043Y-281773D01*
X-125093Y-281675D01*
X-125140Y-281575D01*
X-125184Y-281474D01*
X-125224Y-281371D01*
X-125260Y-281266D01*
X-125292Y-281161D01*
X-125321Y-281054D01*
X-125346Y-280947D01*
X-125368Y-280838D01*
X-125385Y-280729D01*
X-125399Y-280620D01*
X-125408Y-280510D01*
X-125414Y-280399D01*
X-125416Y-280289D01*
X-124443Y-282561D02*
X-118925Y-289052D01*
X-125416Y-289052D01*
X-325129Y-283972D02*
X-327726Y-283972D01*
X-325129Y-283972D02*
X-325030Y-283970D01*
X-324930Y-283964D01*
X-324831Y-283955D01*
X-324733Y-283942D01*
X-324635Y-283925D01*
X-324537Y-283904D01*
X-324441Y-283879D01*
X-324346Y-283851D01*
X-324252Y-283819D01*
X-324159Y-283784D01*
X-324067Y-283745D01*
X-323977Y-283702D01*
X-323889Y-283657D01*
X-323802Y-283607D01*
X-323718Y-283555D01*
X-323635Y-283499D01*
X-323555Y-283441D01*
X-323477Y-283379D01*
X-323402Y-283314D01*
X-323329Y-283246D01*
X-323259Y-283176D01*
X-323191Y-283103D01*
X-323126Y-283028D01*
X-323064Y-282950D01*
X-323006Y-282870D01*
X-322950Y-282787D01*
X-322898Y-282703D01*
X-322848Y-282616D01*
X-322803Y-282528D01*
X-322760Y-282438D01*
X-322721Y-282346D01*
X-322686Y-282253D01*
X-322654Y-282159D01*
X-322626Y-282064D01*
X-322601Y-281968D01*
X-322580Y-281870D01*
X-322563Y-281772D01*
X-322550Y-281674D01*
X-322541Y-281575D01*
X-322535Y-281475D01*
X-322533Y-281376D01*
X-322533Y-274884D01*
X-322532Y-274884D02*
X-322534Y-274785D01*
X-322540Y-274685D01*
X-322549Y-274586D01*
X-322562Y-274488D01*
X-322580Y-274390D01*
X-322600Y-274292D01*
X-322625Y-274196D01*
X-322653Y-274100D01*
X-322685Y-274006D01*
X-322720Y-273913D01*
X-322759Y-273822D01*
X-322802Y-273732D01*
X-322847Y-273643D01*
X-322897Y-273557D01*
X-322949Y-273472D01*
X-323005Y-273390D01*
X-323064Y-273310D01*
X-323125Y-273232D01*
X-323190Y-273156D01*
X-323258Y-273083D01*
X-323328Y-273013D01*
X-323401Y-272945D01*
X-323477Y-272880D01*
X-323555Y-272819D01*
X-323635Y-272760D01*
X-323717Y-272704D01*
X-323802Y-272652D01*
X-323888Y-272603D01*
X-323977Y-272557D01*
X-324067Y-272514D01*
X-324158Y-272475D01*
X-324251Y-272440D01*
X-324345Y-272408D01*
X-324441Y-272380D01*
X-324537Y-272355D01*
X-324635Y-272335D01*
X-324733Y-272317D01*
X-324831Y-272304D01*
X-324930Y-272295D01*
X-325029Y-272289D01*
X-325129Y-272287D01*
X-325129Y-272288D02*
X-327726Y-272288D01*
X-335661Y-272288D02*
X-335768Y-272290D01*
X-335874Y-272296D01*
X-335980Y-272306D01*
X-336086Y-272319D01*
X-336192Y-272337D01*
X-336296Y-272358D01*
X-336400Y-272383D01*
X-336503Y-272412D01*
X-336604Y-272444D01*
X-336704Y-272481D01*
X-336803Y-272521D01*
X-336901Y-272564D01*
X-336997Y-272611D01*
X-337091Y-272662D01*
X-337183Y-272716D01*
X-337273Y-272773D01*
X-337361Y-272833D01*
X-337446Y-272897D01*
X-337529Y-272964D01*
X-337610Y-273034D01*
X-337688Y-273106D01*
X-337764Y-273182D01*
X-337836Y-273260D01*
X-337906Y-273341D01*
X-337973Y-273424D01*
X-338037Y-273509D01*
X-338097Y-273597D01*
X-338154Y-273687D01*
X-338208Y-273779D01*
X-338259Y-273873D01*
X-338306Y-273969D01*
X-338349Y-274067D01*
X-338389Y-274166D01*
X-338426Y-274266D01*
X-338458Y-274367D01*
X-338487Y-274470D01*
X-338512Y-274574D01*
X-338533Y-274678D01*
X-338551Y-274784D01*
X-338564Y-274890D01*
X-338574Y-274996D01*
X-338580Y-275102D01*
X-338582Y-275209D01*
X-335661Y-272288D02*
X-335540Y-272290D01*
X-335419Y-272296D01*
X-335299Y-272306D01*
X-335178Y-272319D01*
X-335059Y-272337D01*
X-334939Y-272358D01*
X-334821Y-272383D01*
X-334704Y-272412D01*
X-334587Y-272445D01*
X-334472Y-272481D01*
X-334358Y-272522D01*
X-334245Y-272565D01*
X-334133Y-272613D01*
X-334024Y-272664D01*
X-333916Y-272719D01*
X-333809Y-272777D01*
X-333705Y-272838D01*
X-333603Y-272903D01*
X-333503Y-272971D01*
X-333405Y-273042D01*
X-333309Y-273116D01*
X-333216Y-273193D01*
X-333126Y-273274D01*
X-333038Y-273357D01*
X-332953Y-273443D01*
X-332870Y-273532D01*
X-332791Y-273623D01*
X-332714Y-273717D01*
X-332641Y-273813D01*
X-332571Y-273911D01*
X-332504Y-274012D01*
X-332440Y-274115D01*
X-332380Y-274220D01*
X-332322Y-274327D01*
X-332269Y-274435D01*
X-332219Y-274545D01*
X-332173Y-274657D01*
X-332130Y-274770D01*
X-332091Y-274885D01*
X-337608Y-277481D02*
X-337687Y-277403D01*
X-337763Y-277323D01*
X-337836Y-277240D01*
X-337906Y-277154D01*
X-337973Y-277067D01*
X-338037Y-276976D01*
X-338097Y-276884D01*
X-338155Y-276790D01*
X-338209Y-276693D01*
X-338259Y-276595D01*
X-338306Y-276495D01*
X-338350Y-276394D01*
X-338390Y-276291D01*
X-338426Y-276186D01*
X-338458Y-276081D01*
X-338487Y-275974D01*
X-338512Y-275867D01*
X-338534Y-275758D01*
X-338551Y-275649D01*
X-338565Y-275540D01*
X-338574Y-275430D01*
X-338580Y-275319D01*
X-338582Y-275209D01*
X-337608Y-277481D02*
X-332091Y-283972D01*
X-338582Y-283972D01*
D11*
X-88900Y-476250D02*
X-63500Y-476250D01*
X-63500Y-501650D01*
X-88900Y-501650D01*
X-88900Y-476250D01*
D12*
X-76200Y-508000D02*
X-76200Y-555625D01*
D13*
X-76200Y-469900D02*
X-76200Y-444500D01*
D12*
X-50800Y-508000D02*
X-50800Y-555625D01*
D11*
X-38100Y-501650D02*
X-38100Y-476250D01*
X-38100Y-501650D02*
X-63500Y-501650D01*
X-63500Y-476250D02*
X-38100Y-476250D01*
D13*
X-50800Y-469900D02*
X-50800Y-444500D01*
X-25400Y-444500D02*
X-25400Y-469900D01*
D11*
X-38100Y-476250D02*
X-12700Y-476250D01*
X-12700Y-501650D01*
X-38100Y-501650D01*
D12*
X-25400Y-508000D02*
X-25400Y-555625D01*
D14*
X-76200Y-504190D03*
D15*
X-76200Y-471170D03*
D14*
X-50800Y-504190D03*
D15*
X-50800Y-471170D03*
X-25400Y-471170D03*
D14*
X-25400Y-504190D03*
D16*
X-95885Y-481024D02*
X-104775Y-481024D01*
X-104875Y-481026D01*
X-104974Y-481032D01*
X-105074Y-481042D01*
X-105172Y-481055D01*
X-105271Y-481073D01*
X-105368Y-481094D01*
X-105464Y-481119D01*
X-105560Y-481148D01*
X-105654Y-481181D01*
X-105747Y-481217D01*
X-105838Y-481257D01*
X-105928Y-481301D01*
X-106016Y-481348D01*
X-106102Y-481398D01*
X-106186Y-481452D01*
X-106268Y-481509D01*
X-106347Y-481569D01*
X-106425Y-481633D01*
X-106499Y-481699D01*
X-106571Y-481768D01*
X-106640Y-481840D01*
X-106706Y-481914D01*
X-106770Y-481992D01*
X-106830Y-482071D01*
X-106887Y-482153D01*
X-106941Y-482237D01*
X-106991Y-482323D01*
X-107038Y-482411D01*
X-107082Y-482501D01*
X-107122Y-482592D01*
X-107158Y-482685D01*
X-107191Y-482779D01*
X-107220Y-482875D01*
X-107245Y-482971D01*
X-107266Y-483068D01*
X-107284Y-483167D01*
X-107297Y-483265D01*
X-107307Y-483365D01*
X-107313Y-483464D01*
X-107315Y-483564D01*
X-107315Y-484834D01*
X-107315Y-475044D02*
X-95885Y-475044D01*
X-95885Y-471869D01*
X-95887Y-471758D01*
X-95893Y-471648D01*
X-95902Y-471537D01*
X-95916Y-471427D01*
X-95933Y-471318D01*
X-95954Y-471209D01*
X-95979Y-471101D01*
X-96008Y-470994D01*
X-96040Y-470888D01*
X-96076Y-470783D01*
X-96116Y-470680D01*
X-96159Y-470578D01*
X-96206Y-470477D01*
X-96257Y-470378D01*
X-96310Y-470282D01*
X-96367Y-470187D01*
X-96428Y-470094D01*
X-96491Y-470003D01*
X-96558Y-469914D01*
X-96628Y-469828D01*
X-96701Y-469745D01*
X-96776Y-469663D01*
X-96854Y-469585D01*
X-96936Y-469510D01*
X-97019Y-469437D01*
X-97105Y-469367D01*
X-97194Y-469300D01*
X-97285Y-469237D01*
X-97378Y-469176D01*
X-97473Y-469119D01*
X-97569Y-469066D01*
X-97668Y-469015D01*
X-97769Y-468968D01*
X-97871Y-468925D01*
X-97974Y-468885D01*
X-98079Y-468849D01*
X-98185Y-468817D01*
X-98292Y-468788D01*
X-98400Y-468763D01*
X-98509Y-468742D01*
X-98618Y-468725D01*
X-98728Y-468711D01*
X-98839Y-468702D01*
X-98949Y-468696D01*
X-99060Y-468694D01*
X-99171Y-468696D01*
X-99281Y-468702D01*
X-99392Y-468711D01*
X-99502Y-468725D01*
X-99611Y-468742D01*
X-99720Y-468763D01*
X-99828Y-468788D01*
X-99935Y-468817D01*
X-100041Y-468849D01*
X-100146Y-468885D01*
X-100249Y-468925D01*
X-100351Y-468968D01*
X-100452Y-469015D01*
X-100551Y-469066D01*
X-100648Y-469119D01*
X-100742Y-469176D01*
X-100835Y-469237D01*
X-100926Y-469300D01*
X-101015Y-469367D01*
X-101101Y-469437D01*
X-101184Y-469510D01*
X-101266Y-469585D01*
X-101344Y-469663D01*
X-101419Y-469745D01*
X-101492Y-469828D01*
X-101562Y-469914D01*
X-101629Y-470003D01*
X-101692Y-470094D01*
X-101753Y-470187D01*
X-101810Y-470282D01*
X-101863Y-470378D01*
X-101914Y-470477D01*
X-101961Y-470578D01*
X-102004Y-470680D01*
X-102044Y-470783D01*
X-102080Y-470888D01*
X-102112Y-470994D01*
X-102141Y-471101D01*
X-102166Y-471209D01*
X-102187Y-471318D01*
X-102204Y-471427D01*
X-102218Y-471537D01*
X-102227Y-471648D01*
X-102233Y-471758D01*
X-102235Y-471869D01*
X-102235Y-475044D01*
X-107315Y-464185D02*
X-107315Y-461010D01*
X-107313Y-460899D01*
X-107307Y-460789D01*
X-107298Y-460678D01*
X-107284Y-460568D01*
X-107267Y-460459D01*
X-107246Y-460350D01*
X-107221Y-460242D01*
X-107192Y-460135D01*
X-107160Y-460029D01*
X-107124Y-459924D01*
X-107084Y-459821D01*
X-107041Y-459719D01*
X-106994Y-459618D01*
X-106943Y-459519D01*
X-106890Y-459423D01*
X-106833Y-459328D01*
X-106772Y-459235D01*
X-106709Y-459144D01*
X-106642Y-459055D01*
X-106572Y-458969D01*
X-106499Y-458886D01*
X-106424Y-458804D01*
X-106346Y-458726D01*
X-106264Y-458651D01*
X-106181Y-458578D01*
X-106095Y-458508D01*
X-106006Y-458441D01*
X-105915Y-458378D01*
X-105822Y-458317D01*
X-105728Y-458260D01*
X-105631Y-458207D01*
X-105532Y-458156D01*
X-105431Y-458109D01*
X-105329Y-458066D01*
X-105226Y-458026D01*
X-105121Y-457990D01*
X-105015Y-457958D01*
X-104908Y-457929D01*
X-104800Y-457904D01*
X-104691Y-457883D01*
X-104582Y-457866D01*
X-104472Y-457852D01*
X-104361Y-457843D01*
X-104251Y-457837D01*
X-104140Y-457835D01*
X-104029Y-457837D01*
X-103919Y-457843D01*
X-103808Y-457852D01*
X-103698Y-457866D01*
X-103589Y-457883D01*
X-103480Y-457904D01*
X-103372Y-457929D01*
X-103265Y-457958D01*
X-103159Y-457990D01*
X-103054Y-458026D01*
X-102951Y-458066D01*
X-102849Y-458109D01*
X-102748Y-458156D01*
X-102649Y-458207D01*
X-102553Y-458260D01*
X-102458Y-458317D01*
X-102365Y-458378D01*
X-102274Y-458441D01*
X-102185Y-458508D01*
X-102099Y-458578D01*
X-102016Y-458651D01*
X-101934Y-458726D01*
X-101856Y-458804D01*
X-101781Y-458886D01*
X-101708Y-458969D01*
X-101638Y-459055D01*
X-101571Y-459144D01*
X-101508Y-459235D01*
X-101447Y-459328D01*
X-101390Y-459423D01*
X-101337Y-459519D01*
X-101286Y-459618D01*
X-101239Y-459719D01*
X-101196Y-459821D01*
X-101156Y-459924D01*
X-101120Y-460029D01*
X-101088Y-460135D01*
X-101059Y-460242D01*
X-101034Y-460350D01*
X-101013Y-460459D01*
X-100996Y-460568D01*
X-100982Y-460678D01*
X-100973Y-460789D01*
X-100967Y-460899D01*
X-100965Y-461010D01*
X-95885Y-460375D02*
X-95885Y-464185D01*
X-95885Y-460375D02*
X-95887Y-460275D01*
X-95893Y-460176D01*
X-95903Y-460076D01*
X-95916Y-459978D01*
X-95934Y-459879D01*
X-95955Y-459782D01*
X-95980Y-459686D01*
X-96009Y-459590D01*
X-96042Y-459496D01*
X-96078Y-459403D01*
X-96118Y-459312D01*
X-96162Y-459222D01*
X-96209Y-459134D01*
X-96259Y-459048D01*
X-96313Y-458964D01*
X-96370Y-458882D01*
X-96430Y-458803D01*
X-96494Y-458725D01*
X-96560Y-458651D01*
X-96629Y-458579D01*
X-96701Y-458510D01*
X-96775Y-458444D01*
X-96853Y-458380D01*
X-96932Y-458320D01*
X-97014Y-458263D01*
X-97098Y-458209D01*
X-97184Y-458159D01*
X-97272Y-458112D01*
X-97362Y-458068D01*
X-97453Y-458028D01*
X-97546Y-457992D01*
X-97640Y-457959D01*
X-97736Y-457930D01*
X-97832Y-457905D01*
X-97929Y-457884D01*
X-98028Y-457866D01*
X-98126Y-457853D01*
X-98226Y-457843D01*
X-98325Y-457837D01*
X-98425Y-457835D01*
X-98525Y-457837D01*
X-98624Y-457843D01*
X-98724Y-457853D01*
X-98822Y-457866D01*
X-98921Y-457884D01*
X-99018Y-457905D01*
X-99114Y-457930D01*
X-99210Y-457959D01*
X-99304Y-457992D01*
X-99397Y-458028D01*
X-99488Y-458068D01*
X-99578Y-458112D01*
X-99666Y-458159D01*
X-99752Y-458209D01*
X-99836Y-458263D01*
X-99918Y-458320D01*
X-99997Y-458380D01*
X-100075Y-458444D01*
X-100149Y-458510D01*
X-100221Y-458579D01*
X-100290Y-458651D01*
X-100356Y-458725D01*
X-100420Y-458803D01*
X-100480Y-458882D01*
X-100537Y-458964D01*
X-100591Y-459048D01*
X-100641Y-459134D01*
X-100688Y-459222D01*
X-100732Y-459312D01*
X-100772Y-459403D01*
X-100808Y-459496D01*
X-100841Y-459590D01*
X-100870Y-459686D01*
X-100895Y-459782D01*
X-100916Y-459879D01*
X-100934Y-459978D01*
X-100947Y-460076D01*
X-100957Y-460176D01*
X-100963Y-460275D01*
X-100965Y-460375D01*
X-100965Y-462915D01*
M02*
