%
M48
M72
T01C0.02362
T02C0.04000
%
T01
X40000Y75000
X51250Y94062
X65000Y115000
X51250Y115000
X41875Y127187
X41900Y110200
X42813Y57187
X65000Y95000
X60400Y128700
X41600Y103900
X41563Y133750
X50000Y136250
X30937Y141875
X42188Y119687
X63437Y122187
T02
X15000Y85000
X15000Y75000
X15000Y65000
X15000Y55000
X15000Y45000
X15000Y35000
X15000Y25000
X15000Y15000
X85000Y15000
X85000Y25000
X85000Y35000
X85000Y45000
X85000Y55000
X85000Y65000
X85000Y75000
X85000Y85000
X85600Y146400
X85600Y136400
X85600Y126400
X85600Y116400
X85600Y106400
X14800Y105600
X14800Y115600
X14800Y125600
X14800Y135600
X14800Y145600
M30
