G75*
%MOIN*%
%OFA0B0*%
%FSLAX25Y25*%
%IPPOS*%
%LPD*%
%AMOC8*
5,1,8,0,0,1.08239X$1,22.5*
%
%ADD10OC8,0.06800*%
%ADD11C,0.06800*%
%ADD12C,0.06400*%
%ADD13C,0.11450*%
%ADD14C,0.04400*%
D10*
X0051000Y0013500D03*
X0061000Y0013500D03*
X0071000Y0013500D03*
X0081000Y0013500D03*
X0091000Y0013500D03*
X0101000Y0013500D03*
X0111000Y0013500D03*
X0121000Y0013500D03*
X0131000Y0013500D03*
X0141000Y0013500D03*
X0151000Y0013500D03*
X0161000Y0013500D03*
X0171000Y0013500D03*
X0181000Y0013500D03*
X0191000Y0013500D03*
X0201000Y0013500D03*
X0211000Y0013500D03*
X0221000Y0013500D03*
X0231000Y0013500D03*
X0241000Y0013500D03*
X0241000Y0023500D03*
X0231000Y0023500D03*
X0221000Y0023500D03*
X0211000Y0023500D03*
X0201000Y0023500D03*
X0191000Y0023500D03*
X0181000Y0023500D03*
X0171000Y0023500D03*
X0161000Y0023500D03*
X0151000Y0023500D03*
X0141000Y0023500D03*
X0131000Y0023500D03*
X0121000Y0023500D03*
X0111000Y0023500D03*
X0101000Y0023500D03*
X0091000Y0023500D03*
X0081000Y0023500D03*
X0071000Y0023500D03*
X0061000Y0023500D03*
X0051000Y0023500D03*
X0195575Y0059071D03*
X0205575Y0059071D03*
X0215575Y0059071D03*
X0225575Y0059071D03*
X0235575Y0059071D03*
X0235575Y0069071D03*
X0225575Y0069071D03*
X0215575Y0069071D03*
X0205575Y0069071D03*
X0195575Y0069071D03*
D11*
X0208500Y0090500D02*
X0208500Y0096500D01*
X0218500Y0096500D02*
X0218500Y0090500D01*
X0131000Y0039000D02*
X0131000Y0033000D01*
X0121000Y0033000D02*
X0121000Y0039000D01*
X0111000Y0039000D02*
X0111000Y0033000D01*
X0087000Y0033000D02*
X0087000Y0039000D01*
X0077000Y0039000D02*
X0077000Y0033000D01*
X0067000Y0033000D02*
X0067000Y0039000D01*
D12*
X0091000Y0073000D03*
X0091000Y0123000D03*
D13*
X0060291Y0108039D03*
X0060291Y0087961D03*
X0060291Y0058039D03*
X0060291Y0137961D03*
D14*
X0096000Y0136000D03*
X0103500Y0123500D03*
X0098500Y0121000D03*
X0131000Y0111000D03*
X0168500Y0096000D03*
X0153500Y0086000D03*
X0172500Y0063500D03*
X0186000Y0041000D03*
X0141000Y0041000D03*
X0133500Y0053500D03*
X0101000Y0041000D03*
X0099000Y0050500D03*
X0191000Y0093500D03*
X0224500Y0102000D03*
X0186000Y0123500D03*
X0176000Y0123500D03*
X0175000Y0138500D03*
X0140750Y0141000D03*
X0237000Y0041000D03*
M02*
