G75*
%MOIN*%
%OFA0B0*%
%FSLAX25Y25*%
%IPPOS*%
%LPD*%
%AMOC8*
5,1,8,0,0,1.08239X$1,22.5*
%
%ADD10C,0.00000*%
%ADD11C,0.01000*%
%ADD12R,0.03150X0.04724*%
%ADD13OC8,0.06000*%
%ADD14R,0.04724X0.01378*%
%ADD15R,0.03937X0.05512*%
%ADD16C,0.03150*%
%ADD17C,0.01181*%
%ADD18R,0.02559X0.02165*%
%ADD19C,0.06000*%
%ADD20C,0.05600*%
%ADD21C,0.10650*%
%ADD22R,0.04600X0.06300*%
%ADD23C,0.01600*%
%ADD24C,0.03600*%
D10*
X0001000Y0001000D02*
X0001000Y0150961D01*
X0254701Y0150961D01*
X0254701Y0001000D01*
X0001000Y0001000D01*
D11*
X0041000Y0008500D02*
X0041000Y0148500D01*
X0246000Y0148500D01*
X0246000Y0008500D01*
X0041000Y0008500D01*
D12*
X0099457Y0081000D03*
X0106543Y0081000D03*
X0112457Y0081000D03*
X0119543Y0081000D03*
X0119543Y0091000D03*
X0112457Y0091000D03*
X0106543Y0091000D03*
X0099457Y0091000D03*
X0099457Y0101000D03*
X0106543Y0101000D03*
X0112457Y0101000D03*
X0119543Y0101000D03*
X0127457Y0101000D03*
X0134543Y0101000D03*
X0142457Y0101000D03*
X0149543Y0101000D03*
X0157457Y0101000D03*
X0164543Y0101000D03*
X0172457Y0101000D03*
X0179543Y0101000D03*
X0179543Y0091000D03*
X0172457Y0091000D03*
X0164543Y0091000D03*
X0157457Y0091000D03*
X0149543Y0091000D03*
X0142457Y0091000D03*
X0134543Y0091000D03*
X0127457Y0091000D03*
X0142457Y0081000D03*
X0149543Y0081000D03*
X0157457Y0081000D03*
X0164543Y0081000D03*
X0172457Y0081000D03*
X0179543Y0081000D03*
X0179543Y0071000D03*
X0172457Y0071000D03*
X0172457Y0111000D03*
X0179543Y0111000D03*
X0172043Y0118500D03*
X0164957Y0118500D03*
X0164543Y0111000D03*
X0157457Y0111000D03*
X0149543Y0111000D03*
X0142457Y0111000D03*
X0119543Y0111000D03*
X0112457Y0111000D03*
X0106543Y0111000D03*
X0099457Y0111000D03*
X0231207Y0111500D03*
X0238293Y0111500D03*
D13*
X0235575Y0069071D03*
X0225575Y0069071D03*
X0215575Y0069071D03*
X0205575Y0069071D03*
X0195575Y0069071D03*
X0195575Y0059071D03*
X0205575Y0059071D03*
X0215575Y0059071D03*
X0225575Y0059071D03*
X0235575Y0059071D03*
X0231000Y0023500D03*
X0221000Y0023500D03*
X0211000Y0023500D03*
X0201000Y0023500D03*
X0191000Y0023500D03*
X0181000Y0023500D03*
X0171000Y0023500D03*
X0161000Y0023500D03*
X0151000Y0023500D03*
X0141000Y0023500D03*
X0131000Y0023500D03*
X0121000Y0023500D03*
X0111000Y0023500D03*
X0101000Y0023500D03*
X0091000Y0023500D03*
X0081000Y0023500D03*
X0071000Y0023500D03*
X0061000Y0023500D03*
X0051000Y0023500D03*
X0051000Y0013500D03*
X0061000Y0013500D03*
X0071000Y0013500D03*
X0081000Y0013500D03*
X0091000Y0013500D03*
X0101000Y0013500D03*
X0111000Y0013500D03*
X0121000Y0013500D03*
X0131000Y0013500D03*
X0141000Y0013500D03*
X0151000Y0013500D03*
X0161000Y0013500D03*
X0171000Y0013500D03*
X0181000Y0013500D03*
X0191000Y0013500D03*
X0201000Y0013500D03*
X0211000Y0013500D03*
X0221000Y0013500D03*
X0231000Y0013500D03*
X0241000Y0013500D03*
X0241000Y0023500D03*
D14*
X0170016Y0052161D03*
X0170016Y0054720D03*
X0170016Y0057280D03*
X0170016Y0059839D03*
X0146984Y0059839D03*
X0146984Y0057280D03*
X0146984Y0054720D03*
X0146984Y0052161D03*
X0127516Y0052161D03*
X0127516Y0054720D03*
X0127516Y0057280D03*
X0127516Y0059839D03*
X0104484Y0059839D03*
X0104484Y0057280D03*
X0104484Y0054720D03*
X0104484Y0052161D03*
X0104484Y0127161D03*
X0104484Y0129720D03*
X0104484Y0132280D03*
X0104484Y0134839D03*
X0127516Y0134839D03*
X0127516Y0132280D03*
X0127516Y0129720D03*
X0127516Y0127161D03*
X0146984Y0127161D03*
X0146984Y0129720D03*
X0146984Y0132280D03*
X0146984Y0134839D03*
X0170016Y0134839D03*
X0170016Y0132280D03*
X0170016Y0129720D03*
X0170016Y0127161D03*
D15*
X0231260Y0100331D03*
X0238740Y0100331D03*
X0235000Y0091669D03*
D16*
X0233503Y0033000D02*
X0233111Y0033000D01*
X0240497Y0033000D02*
X0240889Y0033000D01*
D17*
X0237591Y0034378D02*
X0237591Y0031622D01*
X0236409Y0031622D01*
X0236409Y0034378D01*
X0237591Y0034378D01*
X0237591Y0032802D02*
X0236409Y0032802D01*
X0236409Y0033982D02*
X0237591Y0033982D01*
D18*
X0191394Y0098500D03*
X0187654Y0098500D03*
X0187654Y0108500D03*
X0191394Y0108500D03*
D19*
X0208500Y0096500D02*
X0208500Y0090500D01*
X0218500Y0090500D02*
X0218500Y0096500D01*
X0131000Y0039000D02*
X0131000Y0033000D01*
X0121000Y0033000D02*
X0121000Y0039000D01*
X0111000Y0039000D02*
X0111000Y0033000D01*
X0087000Y0033000D02*
X0087000Y0039000D01*
X0077000Y0039000D02*
X0077000Y0033000D01*
X0067000Y0033000D02*
X0067000Y0039000D01*
D20*
X0091000Y0073000D03*
X0091000Y0123000D03*
D21*
X0060291Y0108039D03*
X0060291Y0087961D03*
X0060291Y0058039D03*
X0060291Y0137961D03*
D22*
X0193000Y0034000D03*
X0199000Y0034000D03*
D23*
X0199000Y0037559D01*
X0193500Y0043059D01*
X0193500Y0051000D01*
X0195575Y0053075D01*
X0195575Y0059071D01*
X0191075Y0058751D02*
X0181843Y0058751D01*
X0181843Y0060349D02*
X0191075Y0060349D01*
X0191075Y0060935D02*
X0191075Y0057207D01*
X0193275Y0055007D01*
X0193275Y0054028D01*
X0192547Y0053300D01*
X0191200Y0051953D01*
X0191200Y0042106D01*
X0194656Y0038650D01*
X0190079Y0038650D01*
X0189200Y0037771D01*
X0189200Y0036300D01*
X0148953Y0036300D01*
X0146553Y0038700D01*
X0183633Y0038700D01*
X0184131Y0038202D01*
X0185344Y0037700D01*
X0186656Y0037700D01*
X0187869Y0038202D01*
X0188798Y0039131D01*
X0189300Y0040344D01*
X0189300Y0041656D01*
X0188798Y0042869D01*
X0187869Y0043798D01*
X0186656Y0044300D01*
X0185344Y0044300D01*
X0184131Y0043798D01*
X0183633Y0043300D01*
X0146953Y0043300D01*
X0140800Y0049453D01*
X0140800Y0062547D01*
X0149453Y0071200D01*
X0159453Y0071200D01*
X0160800Y0072547D01*
X0163300Y0075047D01*
X0163300Y0077138D01*
X0166739Y0077138D01*
X0167618Y0078016D01*
X0167618Y0078700D01*
X0169382Y0078700D01*
X0169382Y0078016D01*
X0170157Y0077242D01*
X0170157Y0074758D01*
X0169382Y0073984D01*
X0169382Y0068016D01*
X0170261Y0067138D01*
X0173700Y0067138D01*
X0173700Y0066575D01*
X0173156Y0066800D01*
X0171844Y0066800D01*
X0170631Y0066298D01*
X0169702Y0065369D01*
X0169200Y0064156D01*
X0169200Y0062844D01*
X0169203Y0062837D01*
X0168625Y0062028D01*
X0167032Y0062028D01*
X0166154Y0061149D01*
X0166154Y0050851D01*
X0167032Y0049972D01*
X0168952Y0049972D01*
X0169063Y0049861D01*
X0170968Y0049861D01*
X0171079Y0049972D01*
X0172999Y0049972D01*
X0173227Y0050200D01*
X0177203Y0050200D01*
X0178550Y0051547D01*
X0181843Y0054841D01*
X0181843Y0067242D01*
X0182618Y0068016D01*
X0182618Y0069365D01*
X0183300Y0070047D01*
X0185800Y0072547D01*
X0185800Y0085047D01*
X0186953Y0086200D01*
X0194453Y0086200D01*
X0195800Y0087547D01*
X0199453Y0091200D01*
X0204000Y0091200D01*
X0204000Y0089605D01*
X0204685Y0087951D01*
X0205951Y0086685D01*
X0207605Y0086000D01*
X0209395Y0086000D01*
X0211049Y0086685D01*
X0212315Y0087951D01*
X0213000Y0089605D01*
X0213000Y0097395D01*
X0212315Y0099049D01*
X0211049Y0100315D01*
X0209395Y0101000D01*
X0207605Y0101000D01*
X0205951Y0100315D01*
X0204685Y0099049D01*
X0204000Y0097395D01*
X0204000Y0095800D01*
X0197547Y0095800D01*
X0194094Y0092347D01*
X0194300Y0092844D01*
X0194300Y0094156D01*
X0193798Y0095369D01*
X0193694Y0095473D01*
X0193694Y0096316D01*
X0194173Y0096796D01*
X0194173Y0100204D01*
X0193694Y0100684D01*
X0193694Y0106316D01*
X0194173Y0106796D01*
X0194173Y0110204D01*
X0193295Y0111083D01*
X0190335Y0111083D01*
X0190453Y0111200D01*
X0212547Y0111200D01*
X0216200Y0107547D01*
X0216200Y0100418D01*
X0215951Y0100315D01*
X0214685Y0099049D01*
X0214000Y0097395D01*
X0214000Y0089605D01*
X0214685Y0087951D01*
X0215951Y0086685D01*
X0217605Y0086000D01*
X0219395Y0086000D01*
X0221049Y0086685D01*
X0222315Y0087951D01*
X0223000Y0089605D01*
X0223000Y0097395D01*
X0222315Y0099049D01*
X0221049Y0100315D01*
X0220800Y0100418D01*
X0220800Y0109453D01*
X0215800Y0114453D01*
X0214453Y0115800D01*
X0191953Y0115800D01*
X0189954Y0117799D01*
X0189954Y0122799D01*
X0189300Y0123453D01*
X0189300Y0124156D01*
X0188798Y0125369D01*
X0187869Y0126298D01*
X0186656Y0126800D01*
X0185344Y0126800D01*
X0184131Y0126298D01*
X0183202Y0125369D01*
X0182700Y0124156D01*
X0182700Y0122844D01*
X0183202Y0121631D01*
X0184131Y0120702D01*
X0185344Y0120200D01*
X0185354Y0120200D01*
X0185354Y0110684D01*
X0184874Y0110204D01*
X0184874Y0106796D01*
X0185753Y0105917D01*
X0189094Y0105917D01*
X0189094Y0101083D01*
X0185753Y0101083D01*
X0184874Y0100204D01*
X0184874Y0096796D01*
X0185354Y0096316D01*
X0185354Y0091106D01*
X0185047Y0090800D01*
X0183700Y0089453D01*
X0182618Y0088371D01*
X0182618Y0093984D01*
X0181739Y0094862D01*
X0177347Y0094862D01*
X0176469Y0093984D01*
X0176469Y0088016D01*
X0177243Y0087242D01*
X0177243Y0084758D01*
X0176469Y0083984D01*
X0176469Y0079721D01*
X0175531Y0078784D01*
X0175531Y0083984D01*
X0174653Y0084862D01*
X0170615Y0084862D01*
X0170775Y0085022D01*
X0172890Y0087138D01*
X0174653Y0087138D01*
X0175531Y0088016D01*
X0175531Y0093984D01*
X0174757Y0094758D01*
X0174757Y0097242D01*
X0175531Y0098016D01*
X0175531Y0103984D01*
X0174653Y0104862D01*
X0170261Y0104862D01*
X0169382Y0103984D01*
X0169382Y0099207D01*
X0169156Y0099300D01*
X0168453Y0099300D01*
X0167618Y0100135D01*
X0167618Y0103984D01*
X0166739Y0104862D01*
X0162347Y0104862D01*
X0161469Y0103984D01*
X0161469Y0098016D01*
X0162243Y0097242D01*
X0162243Y0094758D01*
X0161469Y0093984D01*
X0161469Y0088121D01*
X0160275Y0086928D01*
X0158700Y0085353D01*
X0158700Y0084862D01*
X0156601Y0084862D01*
X0156800Y0085344D01*
X0156800Y0086656D01*
X0156601Y0087138D01*
X0159653Y0087138D01*
X0160531Y0088016D01*
X0160531Y0093984D01*
X0159653Y0094862D01*
X0155261Y0094862D01*
X0154382Y0093984D01*
X0154382Y0093300D01*
X0152618Y0093300D01*
X0152618Y0093984D01*
X0151739Y0094862D01*
X0147347Y0094862D01*
X0146469Y0093984D01*
X0146469Y0088016D01*
X0147347Y0087138D01*
X0150153Y0087138D01*
X0150327Y0086963D01*
X0150200Y0086656D01*
X0150200Y0085344D01*
X0150399Y0084862D01*
X0147347Y0084862D01*
X0146469Y0083984D01*
X0146469Y0079721D01*
X0145531Y0078784D01*
X0145531Y0083984D01*
X0144757Y0084758D01*
X0144757Y0087242D01*
X0145531Y0088016D01*
X0145531Y0093984D01*
X0144653Y0094862D01*
X0140261Y0094862D01*
X0139382Y0093984D01*
X0139382Y0093300D01*
X0137618Y0093300D01*
X0137618Y0093984D01*
X0136739Y0094862D01*
X0132347Y0094862D01*
X0131469Y0093984D01*
X0131469Y0088016D01*
X0132347Y0087138D01*
X0136739Y0087138D01*
X0137618Y0088016D01*
X0137618Y0088700D01*
X0139382Y0088700D01*
X0139382Y0088016D01*
X0140157Y0087242D01*
X0140157Y0084758D01*
X0139382Y0083984D01*
X0139382Y0078016D01*
X0140261Y0077138D01*
X0143885Y0077138D01*
X0132547Y0065800D01*
X0131200Y0064453D01*
X0131200Y0061751D01*
X0130983Y0061968D01*
X0130573Y0062205D01*
X0130115Y0062328D01*
X0127516Y0062328D01*
X0127516Y0059839D01*
X0127516Y0059839D01*
X0127516Y0062328D01*
X0124917Y0062328D01*
X0124459Y0062205D01*
X0124048Y0061968D01*
X0123713Y0061633D01*
X0123476Y0061222D01*
X0123354Y0060765D01*
X0123354Y0059839D01*
X0127516Y0059839D01*
X0127516Y0059839D01*
X0123354Y0059839D01*
X0123354Y0058913D01*
X0123476Y0058455D01*
X0123654Y0058148D01*
X0123654Y0050851D01*
X0124532Y0049972D01*
X0126452Y0049972D01*
X0126563Y0049861D01*
X0133114Y0049861D01*
X0133453Y0050200D01*
X0134156Y0050200D01*
X0135369Y0050702D01*
X0136200Y0051533D01*
X0136200Y0050953D01*
X0134047Y0048800D01*
X0101868Y0048800D01*
X0102051Y0049241D01*
X0103604Y0049861D01*
X0105437Y0049861D01*
X0105548Y0049972D01*
X0107468Y0049972D01*
X0108346Y0050851D01*
X0108346Y0061149D01*
X0107624Y0061871D01*
X0121843Y0076091D01*
X0121843Y0077242D01*
X0122618Y0078016D01*
X0122618Y0083984D01*
X0121843Y0084758D01*
X0121843Y0087242D01*
X0122618Y0088016D01*
X0122618Y0088700D01*
X0124382Y0088700D01*
X0124382Y0088016D01*
X0125261Y0087138D01*
X0129653Y0087138D01*
X0130531Y0088016D01*
X0130531Y0093984D01*
X0129653Y0094862D01*
X0125261Y0094862D01*
X0124382Y0093984D01*
X0124382Y0093300D01*
X0122618Y0093300D01*
X0122618Y0093984D01*
X0121739Y0094862D01*
X0117347Y0094862D01*
X0116469Y0093984D01*
X0116469Y0088016D01*
X0117243Y0087242D01*
X0117243Y0084758D01*
X0116469Y0083984D01*
X0116469Y0078016D01*
X0116866Y0077619D01*
X0103532Y0064284D01*
X0102184Y0062937D01*
X0102184Y0062028D01*
X0101501Y0062028D01*
X0100800Y0061327D01*
X0100800Y0062547D01*
X0114757Y0076504D01*
X0114757Y0077242D01*
X0115531Y0078016D01*
X0115531Y0083984D01*
X0114757Y0084758D01*
X0114757Y0087242D01*
X0115531Y0088016D01*
X0115531Y0093984D01*
X0114653Y0094862D01*
X0110261Y0094862D01*
X0109500Y0094102D01*
X0108739Y0094862D01*
X0104347Y0094862D01*
X0103469Y0093984D01*
X0103469Y0088784D01*
X0102531Y0089721D01*
X0102531Y0093984D01*
X0101653Y0094862D01*
X0097261Y0094862D01*
X0096382Y0093984D01*
X0096382Y0088016D01*
X0097261Y0087138D01*
X0098610Y0087138D01*
X0100885Y0084862D01*
X0097261Y0084862D01*
X0096382Y0083984D01*
X0096382Y0081635D01*
X0091991Y0077244D01*
X0091855Y0077300D01*
X0090145Y0077300D01*
X0088564Y0076645D01*
X0087355Y0075436D01*
X0086700Y0073855D01*
X0086700Y0072145D01*
X0087355Y0070564D01*
X0088564Y0069355D01*
X0090145Y0068700D01*
X0091855Y0068700D01*
X0093436Y0069355D01*
X0094645Y0070564D01*
X0095300Y0072145D01*
X0095300Y0073855D01*
X0095244Y0073991D01*
X0098390Y0077138D01*
X0101653Y0077138D01*
X0102531Y0078016D01*
X0102531Y0081759D01*
X0103047Y0081243D01*
X0103047Y0081243D01*
X0103469Y0080822D01*
X0103469Y0078016D01*
X0104347Y0077138D01*
X0108739Y0077138D01*
X0109500Y0077898D01*
X0109573Y0077826D01*
X0097547Y0065800D01*
X0096200Y0064453D01*
X0096200Y0059553D01*
X0081300Y0074453D01*
X0081300Y0125047D01*
X0083453Y0127200D01*
X0089903Y0127200D01*
X0088564Y0126645D01*
X0087355Y0125436D01*
X0086700Y0123855D01*
X0086700Y0122145D01*
X0087355Y0120564D01*
X0088564Y0119355D01*
X0088700Y0119298D01*
X0088700Y0108504D01*
X0096382Y0100822D01*
X0096382Y0098016D01*
X0097261Y0097138D01*
X0101653Y0097138D01*
X0102531Y0098016D01*
X0102531Y0101759D01*
X0103469Y0100822D01*
X0103469Y0098016D01*
X0104347Y0097138D01*
X0108739Y0097138D01*
X0109500Y0097898D01*
X0110261Y0097138D01*
X0114653Y0097138D01*
X0115531Y0098016D01*
X0115531Y0103984D01*
X0114757Y0104758D01*
X0114757Y0107242D01*
X0115531Y0108016D01*
X0115531Y0113984D01*
X0114653Y0114862D01*
X0110261Y0114862D01*
X0109500Y0114102D01*
X0108739Y0114862D01*
X0105800Y0114862D01*
X0105800Y0119453D01*
X0104790Y0120463D01*
X0105369Y0120702D01*
X0106298Y0121631D01*
X0106800Y0122844D01*
X0106800Y0124156D01*
X0106685Y0124433D01*
X0106784Y0124532D01*
X0106784Y0124945D01*
X0106798Y0124972D01*
X0107468Y0124972D01*
X0108346Y0125851D01*
X0108346Y0136149D01*
X0107468Y0137028D01*
X0106784Y0137028D01*
X0106784Y0138532D01*
X0106953Y0138700D01*
X0138383Y0138700D01*
X0138881Y0138202D01*
X0140094Y0137700D01*
X0141406Y0137700D01*
X0142619Y0138202D01*
X0143548Y0139131D01*
X0144050Y0140344D01*
X0144050Y0141656D01*
X0143548Y0142869D01*
X0142619Y0143798D01*
X0141406Y0144300D01*
X0140094Y0144300D01*
X0138881Y0143798D01*
X0138383Y0143300D01*
X0105047Y0143300D01*
X0103700Y0141953D01*
X0102184Y0140437D01*
X0102184Y0137028D01*
X0101501Y0137028D01*
X0100622Y0136149D01*
X0100622Y0134631D01*
X0099300Y0135953D01*
X0099300Y0136656D01*
X0098798Y0137869D01*
X0097869Y0138798D01*
X0096656Y0139300D01*
X0095344Y0139300D01*
X0094131Y0138798D01*
X0093202Y0137869D01*
X0092700Y0136656D01*
X0092700Y0135344D01*
X0093202Y0134131D01*
X0094131Y0133202D01*
X0095344Y0132700D01*
X0096047Y0132700D01*
X0096947Y0131800D01*
X0081547Y0131800D01*
X0080200Y0130453D01*
X0078047Y0128300D01*
X0076700Y0126953D01*
X0076700Y0064047D01*
X0078047Y0062700D01*
X0078047Y0062700D01*
X0095200Y0045547D01*
X0096547Y0044200D01*
X0099318Y0044200D01*
X0099295Y0044190D01*
X0098705Y0043796D01*
X0098204Y0043295D01*
X0097810Y0042705D01*
X0097538Y0042050D01*
X0097400Y0041355D01*
X0097400Y0041000D01*
X0101000Y0041000D01*
X0104600Y0041000D01*
X0104600Y0041355D01*
X0104462Y0042050D01*
X0104190Y0042705D01*
X0103796Y0043295D01*
X0103295Y0043796D01*
X0102705Y0044190D01*
X0102682Y0044200D01*
X0135953Y0044200D01*
X0137300Y0045547D01*
X0137750Y0045997D01*
X0139710Y0044037D01*
X0139131Y0043798D01*
X0138202Y0042869D01*
X0137700Y0041656D01*
X0137700Y0040344D01*
X0138202Y0039131D01*
X0139131Y0038202D01*
X0140344Y0037700D01*
X0141047Y0037700D01*
X0147047Y0031700D01*
X0189200Y0031700D01*
X0189200Y0030229D01*
X0190079Y0029350D01*
X0195921Y0029350D01*
X0196000Y0029429D01*
X0196079Y0029350D01*
X0201921Y0029350D01*
X0202800Y0030229D01*
X0202800Y0037771D01*
X0201921Y0038650D01*
X0201162Y0038650D01*
X0195800Y0044012D01*
X0195800Y0050047D01*
X0197875Y0052122D01*
X0197875Y0055007D01*
X0200075Y0057207D01*
X0200075Y0060935D01*
X0197439Y0063571D01*
X0193711Y0063571D01*
X0191075Y0060935D01*
X0192088Y0061948D02*
X0181843Y0061948D01*
X0181843Y0063546D02*
X0193687Y0063546D01*
X0193711Y0064571D02*
X0197439Y0064571D01*
X0200075Y0067207D01*
X0200075Y0070935D01*
X0197439Y0073571D01*
X0193711Y0073571D01*
X0191075Y0070935D01*
X0191075Y0067207D01*
X0193711Y0064571D01*
X0193137Y0065145D02*
X0181843Y0065145D01*
X0181843Y0066743D02*
X0191538Y0066743D01*
X0191075Y0068342D02*
X0182618Y0068342D01*
X0183193Y0069940D02*
X0191075Y0069940D01*
X0191679Y0071539D02*
X0184792Y0071539D01*
X0185800Y0073137D02*
X0193278Y0073137D01*
X0197872Y0073137D02*
X0203278Y0073137D01*
X0203711Y0073571D02*
X0201075Y0070935D01*
X0201075Y0067207D01*
X0203711Y0064571D01*
X0207439Y0064571D01*
X0210075Y0067207D01*
X0210075Y0070935D01*
X0207439Y0073571D01*
X0203711Y0073571D01*
X0201679Y0071539D02*
X0199471Y0071539D01*
X0200075Y0069940D02*
X0201075Y0069940D01*
X0201075Y0068342D02*
X0200075Y0068342D01*
X0199612Y0066743D02*
X0201538Y0066743D01*
X0203137Y0065145D02*
X0198013Y0065145D01*
X0197463Y0063546D02*
X0203687Y0063546D01*
X0203711Y0063571D02*
X0201075Y0060935D01*
X0201075Y0057207D01*
X0203711Y0054571D01*
X0207439Y0054571D01*
X0210075Y0057207D01*
X0210075Y0060935D01*
X0207439Y0063571D01*
X0203711Y0063571D01*
X0202088Y0061948D02*
X0199062Y0061948D01*
X0200075Y0060349D02*
X0201075Y0060349D01*
X0201075Y0058751D02*
X0200075Y0058751D01*
X0200020Y0057152D02*
X0201130Y0057152D01*
X0202728Y0055554D02*
X0198422Y0055554D01*
X0197875Y0053955D02*
X0231007Y0053955D01*
X0231007Y0052357D02*
X0197875Y0052357D01*
X0196511Y0050758D02*
X0231007Y0050758D01*
X0231007Y0049160D02*
X0195800Y0049160D01*
X0195800Y0047561D02*
X0231007Y0047561D01*
X0231007Y0045963D02*
X0195800Y0045963D01*
X0195800Y0044364D02*
X0231007Y0044364D01*
X0231007Y0042766D02*
X0197046Y0042766D01*
X0198644Y0041167D02*
X0231007Y0041167D01*
X0231007Y0039569D02*
X0200243Y0039569D01*
X0202601Y0037970D02*
X0231007Y0037970D01*
X0231007Y0036372D02*
X0202800Y0036372D01*
X0202800Y0034773D02*
X0230535Y0034773D01*
X0230504Y0034742D02*
X0231007Y0035245D01*
X0231007Y0057756D01*
X0231075Y0057824D01*
X0231075Y0060935D01*
X0233711Y0063571D01*
X0237439Y0063571D01*
X0238393Y0062617D01*
X0238393Y0065525D01*
X0237439Y0064571D01*
X0233711Y0064571D01*
X0231075Y0067207D01*
X0231075Y0070935D01*
X0233711Y0073571D01*
X0237439Y0073571D01*
X0238393Y0072617D01*
X0238393Y0088216D01*
X0237590Y0087413D01*
X0232410Y0087413D01*
X0231531Y0088292D01*
X0231531Y0095047D01*
X0232410Y0095925D01*
X0237590Y0095925D01*
X0238393Y0095122D01*
X0238393Y0096075D01*
X0236150Y0096075D01*
X0235272Y0096953D01*
X0235272Y0103708D01*
X0235993Y0104430D01*
X0235993Y0107742D01*
X0235219Y0108516D01*
X0235219Y0114484D01*
X0236097Y0115362D01*
X0240489Y0115362D01*
X0241368Y0114484D01*
X0241368Y0108516D01*
X0240593Y0107742D01*
X0240593Y0104587D01*
X0241330Y0104587D01*
X0242209Y0103708D01*
X0242209Y0100115D01*
X0242993Y0099331D01*
X0242993Y0035245D01*
X0243496Y0034742D01*
X0243965Y0033612D01*
X0243965Y0032388D01*
X0243496Y0031258D01*
X0242631Y0030393D01*
X0241501Y0029925D01*
X0239884Y0029925D01*
X0239153Y0030228D01*
X0238456Y0029531D01*
X0235544Y0029531D01*
X0234847Y0030228D01*
X0234116Y0029925D01*
X0232499Y0029925D01*
X0231368Y0030393D01*
X0230504Y0031258D01*
X0230035Y0032388D01*
X0230035Y0033612D01*
X0230504Y0034742D01*
X0230035Y0033175D02*
X0202800Y0033175D01*
X0202800Y0031576D02*
X0230372Y0031576D01*
X0232372Y0029978D02*
X0202549Y0029978D01*
X0202864Y0028000D02*
X0199136Y0028000D01*
X0196500Y0025364D01*
X0196500Y0021636D01*
X0199136Y0019000D01*
X0202864Y0019000D01*
X0205500Y0021636D01*
X0205500Y0025364D01*
X0202864Y0028000D01*
X0204083Y0026781D02*
X0207917Y0026781D01*
X0209136Y0028000D02*
X0206500Y0025364D01*
X0206500Y0021636D01*
X0209136Y0019000D01*
X0212864Y0019000D01*
X0215500Y0021636D01*
X0215500Y0025364D01*
X0212864Y0028000D01*
X0209136Y0028000D01*
X0206500Y0025182D02*
X0205500Y0025182D01*
X0205500Y0023584D02*
X0206500Y0023584D01*
X0206500Y0021985D02*
X0205500Y0021985D01*
X0204251Y0020387D02*
X0207749Y0020387D01*
X0209136Y0018000D02*
X0206500Y0015364D01*
X0206500Y0011636D01*
X0207636Y0010500D01*
X0204364Y0010500D01*
X0205500Y0011636D01*
X0205500Y0015364D01*
X0202864Y0018000D01*
X0199136Y0018000D01*
X0196500Y0015364D01*
X0196500Y0011636D01*
X0197636Y0010500D01*
X0194364Y0010500D01*
X0195500Y0011636D01*
X0195500Y0015364D01*
X0192864Y0018000D01*
X0189136Y0018000D01*
X0186500Y0015364D01*
X0186500Y0011636D01*
X0187636Y0010500D01*
X0184364Y0010500D01*
X0185500Y0011636D01*
X0185500Y0015364D01*
X0182864Y0018000D01*
X0179136Y0018000D01*
X0176500Y0015364D01*
X0176500Y0011636D01*
X0177636Y0010500D01*
X0174364Y0010500D01*
X0175500Y0011636D01*
X0175500Y0015364D01*
X0172864Y0018000D01*
X0169136Y0018000D01*
X0166500Y0015364D01*
X0166500Y0011636D01*
X0167636Y0010500D01*
X0164364Y0010500D01*
X0165500Y0011636D01*
X0165500Y0015364D01*
X0162864Y0018000D01*
X0159136Y0018000D01*
X0156500Y0015364D01*
X0156500Y0011636D01*
X0157636Y0010500D01*
X0154364Y0010500D01*
X0155500Y0011636D01*
X0155500Y0015364D01*
X0152864Y0018000D01*
X0149136Y0018000D01*
X0146500Y0015364D01*
X0146500Y0011636D01*
X0147636Y0010500D01*
X0144364Y0010500D01*
X0145500Y0011636D01*
X0145500Y0015364D01*
X0142864Y0018000D01*
X0139136Y0018000D01*
X0136500Y0015364D01*
X0136500Y0011636D01*
X0137636Y0010500D01*
X0134364Y0010500D01*
X0135500Y0011636D01*
X0135500Y0015364D01*
X0132864Y0018000D01*
X0129136Y0018000D01*
X0126500Y0015364D01*
X0126500Y0011636D01*
X0127636Y0010500D01*
X0124364Y0010500D01*
X0125500Y0011636D01*
X0125500Y0015364D01*
X0122864Y0018000D01*
X0119136Y0018000D01*
X0116500Y0015364D01*
X0116500Y0011636D01*
X0117636Y0010500D01*
X0114364Y0010500D01*
X0115500Y0011636D01*
X0115500Y0015364D01*
X0112864Y0018000D01*
X0109136Y0018000D01*
X0106500Y0015364D01*
X0106500Y0011636D01*
X0107636Y0010500D01*
X0104364Y0010500D01*
X0105500Y0011636D01*
X0105500Y0015364D01*
X0102864Y0018000D01*
X0099136Y0018000D01*
X0096500Y0015364D01*
X0096500Y0011636D01*
X0097636Y0010500D01*
X0094364Y0010500D01*
X0095500Y0011636D01*
X0095500Y0015364D01*
X0092864Y0018000D01*
X0089136Y0018000D01*
X0086500Y0015364D01*
X0086500Y0011636D01*
X0087636Y0010500D01*
X0084364Y0010500D01*
X0085500Y0011636D01*
X0085500Y0015364D01*
X0082864Y0018000D01*
X0079136Y0018000D01*
X0076500Y0015364D01*
X0076500Y0011636D01*
X0077636Y0010500D01*
X0074788Y0010500D01*
X0075800Y0011512D01*
X0075800Y0013300D01*
X0071200Y0013300D01*
X0071200Y0013700D01*
X0075800Y0013700D01*
X0075800Y0015488D01*
X0075270Y0016018D01*
X0076300Y0017047D01*
X0078300Y0019047D01*
X0078300Y0019836D01*
X0079136Y0019000D01*
X0082864Y0019000D01*
X0085500Y0021636D01*
X0085500Y0025364D01*
X0082864Y0028000D01*
X0079136Y0028000D01*
X0078300Y0027164D01*
X0078300Y0028668D01*
X0079549Y0029185D01*
X0080815Y0030451D01*
X0081500Y0032105D01*
X0081500Y0039895D01*
X0080815Y0041549D01*
X0079549Y0042815D01*
X0077895Y0043500D01*
X0076105Y0043500D01*
X0074451Y0042815D01*
X0073185Y0041549D01*
X0072500Y0039895D01*
X0072500Y0032105D01*
X0073185Y0030451D01*
X0073700Y0029936D01*
X0073700Y0027164D01*
X0072864Y0028000D01*
X0069136Y0028000D01*
X0066500Y0025364D01*
X0066500Y0021636D01*
X0067836Y0020300D01*
X0064164Y0020300D01*
X0065500Y0021636D01*
X0065500Y0025364D01*
X0062864Y0028000D01*
X0059136Y0028000D01*
X0056500Y0025364D01*
X0056500Y0021636D01*
X0057836Y0020300D01*
X0054547Y0020300D01*
X0052247Y0018000D01*
X0049136Y0018000D01*
X0046500Y0015364D01*
X0046500Y0011636D01*
X0047636Y0010500D01*
X0043000Y0010500D01*
X0043000Y0146500D01*
X0244000Y0146500D01*
X0244000Y0026864D01*
X0242864Y0028000D01*
X0239136Y0028000D01*
X0236500Y0025364D01*
X0236500Y0021636D01*
X0239136Y0019000D01*
X0242864Y0019000D01*
X0244000Y0020136D01*
X0244000Y0016864D01*
X0242864Y0018000D01*
X0239136Y0018000D01*
X0236500Y0015364D01*
X0236500Y0011636D01*
X0237636Y0010500D01*
X0234364Y0010500D01*
X0235500Y0011636D01*
X0235500Y0015364D01*
X0232864Y0018000D01*
X0229136Y0018000D01*
X0226500Y0015364D01*
X0226500Y0011636D01*
X0227636Y0010500D01*
X0224364Y0010500D01*
X0225500Y0011636D01*
X0225500Y0015364D01*
X0222864Y0018000D01*
X0219136Y0018000D01*
X0216500Y0015364D01*
X0216500Y0011636D01*
X0217636Y0010500D01*
X0214364Y0010500D01*
X0215500Y0011636D01*
X0215500Y0015364D01*
X0212864Y0018000D01*
X0209136Y0018000D01*
X0208326Y0017190D02*
X0203674Y0017190D01*
X0205273Y0015591D02*
X0206727Y0015591D01*
X0206500Y0013993D02*
X0205500Y0013993D01*
X0205500Y0012394D02*
X0206500Y0012394D01*
X0207341Y0010796D02*
X0204659Y0010796D01*
X0197341Y0010796D02*
X0194659Y0010796D01*
X0195500Y0012394D02*
X0196500Y0012394D01*
X0196500Y0013993D02*
X0195500Y0013993D01*
X0195273Y0015591D02*
X0196727Y0015591D01*
X0198326Y0017190D02*
X0193674Y0017190D01*
X0192864Y0019000D02*
X0189136Y0019000D01*
X0186500Y0021636D01*
X0186500Y0025364D01*
X0189136Y0028000D01*
X0192864Y0028000D01*
X0195500Y0025364D01*
X0195500Y0021636D01*
X0192864Y0019000D01*
X0194251Y0020387D02*
X0197749Y0020387D01*
X0196500Y0021985D02*
X0195500Y0021985D01*
X0195500Y0023584D02*
X0196500Y0023584D01*
X0196500Y0025182D02*
X0195500Y0025182D01*
X0194083Y0026781D02*
X0197917Y0026781D01*
X0189451Y0029978D02*
X0134737Y0029978D01*
X0134661Y0029873D02*
X0135105Y0030484D01*
X0135448Y0031157D01*
X0135682Y0031876D01*
X0135800Y0032622D01*
X0135800Y0035800D01*
X0131200Y0035800D01*
X0131200Y0036200D01*
X0135800Y0036200D01*
X0135800Y0039378D01*
X0135682Y0040124D01*
X0135448Y0040843D01*
X0135105Y0041516D01*
X0134661Y0042127D01*
X0134127Y0042661D01*
X0133516Y0043105D01*
X0132843Y0043448D01*
X0132124Y0043682D01*
X0131378Y0043800D01*
X0131200Y0043800D01*
X0131200Y0036200D01*
X0130800Y0036200D01*
X0130800Y0043800D01*
X0130622Y0043800D01*
X0129876Y0043682D01*
X0129157Y0043448D01*
X0128484Y0043105D01*
X0127873Y0042661D01*
X0127339Y0042127D01*
X0126895Y0041516D01*
X0126552Y0040843D01*
X0126318Y0040124D01*
X0126200Y0039378D01*
X0126200Y0036200D01*
X0130800Y0036200D01*
X0130800Y0035800D01*
X0131200Y0035800D01*
X0131200Y0028200D01*
X0131378Y0028200D01*
X0132124Y0028318D01*
X0132843Y0028552D01*
X0133516Y0028895D01*
X0134127Y0029339D01*
X0134661Y0029873D01*
X0135584Y0031576D02*
X0189200Y0031576D01*
X0193000Y0034000D02*
X0148000Y0034000D01*
X0141000Y0041000D01*
X0137700Y0041167D02*
X0135283Y0041167D01*
X0135770Y0039569D02*
X0138021Y0039569D01*
X0139691Y0037970D02*
X0135800Y0037970D01*
X0135800Y0036372D02*
X0142376Y0036372D01*
X0143974Y0034773D02*
X0135800Y0034773D01*
X0135800Y0033175D02*
X0145573Y0033175D01*
X0148881Y0036372D02*
X0189200Y0036372D01*
X0189399Y0037970D02*
X0187309Y0037970D01*
X0188979Y0039569D02*
X0193738Y0039569D01*
X0192139Y0041167D02*
X0189300Y0041167D01*
X0188840Y0042766D02*
X0191200Y0042766D01*
X0191200Y0044364D02*
X0145888Y0044364D01*
X0144290Y0045963D02*
X0191200Y0045963D01*
X0191200Y0047561D02*
X0142691Y0047561D01*
X0141093Y0049160D02*
X0191200Y0049160D01*
X0191200Y0050758D02*
X0177761Y0050758D01*
X0179360Y0052357D02*
X0191604Y0052357D01*
X0193203Y0053955D02*
X0180958Y0053955D01*
X0181843Y0055554D02*
X0192728Y0055554D01*
X0191130Y0057152D02*
X0181843Y0057152D01*
X0179543Y0055793D02*
X0176250Y0052500D01*
X0170354Y0052500D01*
X0170354Y0054382D01*
X0170016Y0054720D01*
X0170354Y0052500D02*
X0170016Y0052161D01*
X0166154Y0052357D02*
X0151146Y0052357D01*
X0151146Y0052161D02*
X0151146Y0053087D01*
X0151024Y0053545D01*
X0150846Y0053852D01*
X0150846Y0061149D01*
X0149968Y0062028D01*
X0144001Y0062028D01*
X0143122Y0061149D01*
X0143122Y0053852D01*
X0142945Y0053545D01*
X0142822Y0053087D01*
X0142822Y0052161D01*
X0142822Y0051235D01*
X0142945Y0050778D01*
X0143182Y0050367D01*
X0143517Y0050032D01*
X0143927Y0049795D01*
X0144385Y0049672D01*
X0146984Y0049672D01*
X0146984Y0052161D01*
X0146984Y0052161D01*
X0142822Y0052161D01*
X0146984Y0052161D01*
X0146984Y0052161D01*
X0146984Y0049672D01*
X0149583Y0049672D01*
X0150041Y0049795D01*
X0150452Y0050032D01*
X0150787Y0050367D01*
X0151024Y0050778D01*
X0151146Y0051235D01*
X0151146Y0052161D01*
X0146984Y0052161D01*
X0146984Y0052161D01*
X0151146Y0052161D01*
X0151013Y0050758D02*
X0166246Y0050758D01*
X0166154Y0053955D02*
X0150846Y0053955D01*
X0150846Y0055554D02*
X0166154Y0055554D01*
X0166154Y0057152D02*
X0150846Y0057152D01*
X0150846Y0058751D02*
X0166154Y0058751D01*
X0166154Y0060349D02*
X0150846Y0060349D01*
X0150047Y0061948D02*
X0166953Y0061948D01*
X0169200Y0063546D02*
X0141799Y0063546D01*
X0140800Y0061948D02*
X0143921Y0061948D01*
X0143122Y0060349D02*
X0140800Y0060349D01*
X0140800Y0058751D02*
X0143122Y0058751D01*
X0143122Y0057152D02*
X0140800Y0057152D01*
X0140800Y0055554D02*
X0143122Y0055554D01*
X0143122Y0053955D02*
X0140800Y0053955D01*
X0140800Y0052357D02*
X0142822Y0052357D01*
X0142956Y0050758D02*
X0140800Y0050758D01*
X0138500Y0050000D02*
X0135000Y0046500D01*
X0097500Y0046500D01*
X0079000Y0065000D01*
X0079000Y0073500D01*
X0097780Y0054720D01*
X0104484Y0054720D01*
X0104484Y0052161D02*
X0103161Y0052161D01*
X0099000Y0050500D01*
X0102017Y0049160D02*
X0134407Y0049160D01*
X0135425Y0050758D02*
X0136006Y0050758D01*
X0138500Y0050000D02*
X0138500Y0048500D01*
X0146000Y0041000D01*
X0186000Y0041000D01*
X0184691Y0037970D02*
X0147282Y0037970D01*
X0139383Y0044364D02*
X0136117Y0044364D01*
X0137715Y0045963D02*
X0137785Y0045963D01*
X0138160Y0042766D02*
X0133983Y0042766D01*
X0131200Y0042766D02*
X0130800Y0042766D01*
X0130800Y0041167D02*
X0131200Y0041167D01*
X0131000Y0041000D02*
X0131000Y0036000D01*
X0130800Y0035800D02*
X0130800Y0028200D01*
X0130622Y0028200D01*
X0129876Y0028318D01*
X0129157Y0028552D01*
X0128484Y0028895D01*
X0127873Y0029339D01*
X0127339Y0029873D01*
X0126895Y0030484D01*
X0126552Y0031157D01*
X0126318Y0031876D01*
X0126200Y0032622D01*
X0126200Y0035800D01*
X0130800Y0035800D01*
X0130800Y0036372D02*
X0131200Y0036372D01*
X0131200Y0037970D02*
X0130800Y0037970D01*
X0130800Y0039569D02*
X0131200Y0039569D01*
X0126717Y0041167D02*
X0124973Y0041167D01*
X0124815Y0041549D02*
X0123549Y0042815D01*
X0121895Y0043500D01*
X0120105Y0043500D01*
X0118451Y0042815D01*
X0117185Y0041549D01*
X0116500Y0039895D01*
X0116500Y0032105D01*
X0117103Y0030650D01*
X0115500Y0032253D01*
X0115500Y0039895D01*
X0114815Y0041549D01*
X0113549Y0042815D01*
X0111895Y0043500D01*
X0110105Y0043500D01*
X0108451Y0042815D01*
X0107185Y0041549D01*
X0106500Y0039895D01*
X0106500Y0032105D01*
X0107103Y0030650D01*
X0100280Y0037473D01*
X0100645Y0037400D01*
X0101000Y0037400D01*
X0101355Y0037400D01*
X0102050Y0037538D01*
X0102705Y0037810D01*
X0103295Y0038204D01*
X0103796Y0038705D01*
X0104190Y0039295D01*
X0104462Y0039950D01*
X0104600Y0040645D01*
X0104600Y0041000D01*
X0101000Y0041000D01*
X0101000Y0041000D01*
X0101000Y0041000D01*
X0101000Y0037400D01*
X0101000Y0041000D01*
X0101000Y0041000D01*
X0097400Y0041000D01*
X0097400Y0040645D01*
X0097473Y0040280D01*
X0089453Y0048300D01*
X0070047Y0048300D01*
X0068700Y0046953D01*
X0064700Y0042953D01*
X0064700Y0042918D01*
X0064451Y0042815D01*
X0063185Y0041549D01*
X0062500Y0039895D01*
X0062500Y0032105D01*
X0063185Y0030451D01*
X0064451Y0029185D01*
X0066105Y0028500D01*
X0067895Y0028500D01*
X0069549Y0029185D01*
X0070815Y0030451D01*
X0071500Y0032105D01*
X0071500Y0039895D01*
X0070815Y0041549D01*
X0070308Y0042056D01*
X0071953Y0043700D01*
X0085991Y0043700D01*
X0085876Y0043682D01*
X0085157Y0043448D01*
X0084484Y0043105D01*
X0083873Y0042661D01*
X0083339Y0042127D01*
X0082895Y0041516D01*
X0082552Y0040843D01*
X0082318Y0040124D01*
X0082200Y0039378D01*
X0082200Y0036200D01*
X0086800Y0036200D01*
X0086800Y0035800D01*
X0087200Y0035800D01*
X0087200Y0036200D01*
X0091800Y0036200D01*
X0091800Y0039378D01*
X0091787Y0039460D01*
X0106500Y0024747D01*
X0106500Y0021636D01*
X0109136Y0019000D01*
X0112864Y0019000D01*
X0115500Y0021636D01*
X0115500Y0025364D01*
X0112864Y0028000D01*
X0109753Y0028000D01*
X0108650Y0029103D01*
X0110105Y0028500D01*
X0111895Y0028500D01*
X0112498Y0028750D01*
X0116500Y0024747D01*
X0116500Y0021636D01*
X0119136Y0019000D01*
X0122864Y0019000D01*
X0125500Y0021636D01*
X0125500Y0025364D01*
X0122864Y0028000D01*
X0119753Y0028000D01*
X0118650Y0029103D01*
X0120105Y0028500D01*
X0121895Y0028500D01*
X0123549Y0029185D01*
X0124815Y0030451D01*
X0125500Y0032105D01*
X0125500Y0039895D01*
X0124815Y0041549D01*
X0123598Y0042766D02*
X0128017Y0042766D01*
X0126230Y0039569D02*
X0125500Y0039569D01*
X0125500Y0037970D02*
X0126200Y0037970D01*
X0126200Y0036372D02*
X0125500Y0036372D01*
X0125500Y0034773D02*
X0126200Y0034773D01*
X0126200Y0033175D02*
X0125500Y0033175D01*
X0125281Y0031576D02*
X0126416Y0031576D01*
X0127263Y0029978D02*
X0124342Y0029978D01*
X0124083Y0026781D02*
X0127917Y0026781D01*
X0129136Y0028000D02*
X0126500Y0025364D01*
X0126500Y0021636D01*
X0129136Y0019000D01*
X0132864Y0019000D01*
X0135500Y0021636D01*
X0135500Y0025364D01*
X0132864Y0028000D01*
X0129136Y0028000D01*
X0129688Y0028379D02*
X0119374Y0028379D01*
X0116719Y0031576D02*
X0116176Y0031576D01*
X0116500Y0033175D02*
X0115500Y0033175D01*
X0115500Y0034773D02*
X0116500Y0034773D01*
X0116500Y0036372D02*
X0115500Y0036372D01*
X0115500Y0037970D02*
X0116500Y0037970D01*
X0116500Y0039569D02*
X0115500Y0039569D01*
X0114973Y0041167D02*
X0117027Y0041167D01*
X0118402Y0042766D02*
X0113598Y0042766D01*
X0108402Y0042766D02*
X0104150Y0042766D01*
X0104600Y0041167D02*
X0107027Y0041167D01*
X0106500Y0039569D02*
X0104304Y0039569D01*
X0102945Y0037970D02*
X0106500Y0037970D01*
X0106500Y0036372D02*
X0101381Y0036372D01*
X0101000Y0037970D02*
X0101000Y0037970D01*
X0101000Y0039569D02*
X0101000Y0039569D01*
X0097400Y0041167D02*
X0096585Y0041167D01*
X0097850Y0042766D02*
X0094987Y0042766D01*
X0096383Y0044364D02*
X0093388Y0044364D01*
X0094785Y0045963D02*
X0091790Y0045963D01*
X0093186Y0047561D02*
X0090191Y0047561D01*
X0091587Y0049160D02*
X0043000Y0049160D01*
X0043000Y0050758D02*
X0089989Y0050758D01*
X0088390Y0052357D02*
X0064261Y0052357D01*
X0064157Y0052253D02*
X0066077Y0054173D01*
X0067116Y0056682D01*
X0067116Y0059397D01*
X0066077Y0061905D01*
X0064157Y0063825D01*
X0061649Y0064864D01*
X0058934Y0064864D01*
X0056425Y0063825D01*
X0054505Y0061905D01*
X0053466Y0059397D01*
X0053466Y0056682D01*
X0054505Y0054173D01*
X0056425Y0052253D01*
X0058934Y0051214D01*
X0061649Y0051214D01*
X0064157Y0052253D01*
X0065859Y0053955D02*
X0086792Y0053955D01*
X0085193Y0055554D02*
X0066649Y0055554D01*
X0067116Y0057152D02*
X0083595Y0057152D01*
X0081996Y0058751D02*
X0067116Y0058751D01*
X0066722Y0060349D02*
X0080398Y0060349D01*
X0078799Y0061948D02*
X0066035Y0061948D01*
X0064436Y0063546D02*
X0077201Y0063546D01*
X0076700Y0065145D02*
X0043000Y0065145D01*
X0043000Y0066743D02*
X0076700Y0066743D01*
X0076700Y0068342D02*
X0043000Y0068342D01*
X0043000Y0069940D02*
X0076700Y0069940D01*
X0076700Y0071539D02*
X0043000Y0071539D01*
X0043000Y0073137D02*
X0076700Y0073137D01*
X0076700Y0074736D02*
X0043000Y0074736D01*
X0043000Y0076334D02*
X0076700Y0076334D01*
X0076700Y0077933D02*
X0043000Y0077933D01*
X0043000Y0079532D02*
X0076700Y0079532D01*
X0076700Y0081130D02*
X0043000Y0081130D01*
X0043000Y0082729D02*
X0055871Y0082729D01*
X0056425Y0082175D02*
X0058934Y0081136D01*
X0061649Y0081136D01*
X0064157Y0082175D01*
X0066077Y0084095D01*
X0067116Y0086603D01*
X0067116Y0089318D01*
X0066077Y0091827D01*
X0064157Y0093747D01*
X0061649Y0094786D01*
X0058934Y0094786D01*
X0056425Y0093747D01*
X0054505Y0091827D01*
X0053466Y0089318D01*
X0053466Y0086603D01*
X0054505Y0084095D01*
X0056425Y0082175D01*
X0054409Y0084327D02*
X0043000Y0084327D01*
X0043000Y0085926D02*
X0053747Y0085926D01*
X0053466Y0087524D02*
X0043000Y0087524D01*
X0043000Y0089123D02*
X0053466Y0089123D01*
X0054047Y0090721D02*
X0043000Y0090721D01*
X0043000Y0092320D02*
X0054998Y0092320D01*
X0056839Y0093918D02*
X0043000Y0093918D01*
X0043000Y0095517D02*
X0076700Y0095517D01*
X0076700Y0097115D02*
X0043000Y0097115D01*
X0043000Y0098714D02*
X0076700Y0098714D01*
X0076700Y0100312D02*
X0043000Y0100312D01*
X0043000Y0101911D02*
X0057253Y0101911D01*
X0056425Y0102253D02*
X0058934Y0101214D01*
X0061649Y0101214D01*
X0064157Y0102253D01*
X0066077Y0104173D01*
X0067116Y0106682D01*
X0067116Y0109397D01*
X0066077Y0111905D01*
X0064157Y0113825D01*
X0061649Y0114864D01*
X0058934Y0114864D01*
X0056425Y0113825D01*
X0054505Y0111905D01*
X0053466Y0109397D01*
X0053466Y0106682D01*
X0054505Y0104173D01*
X0056425Y0102253D01*
X0055170Y0103509D02*
X0043000Y0103509D01*
X0043000Y0105108D02*
X0054118Y0105108D01*
X0053466Y0106706D02*
X0043000Y0106706D01*
X0043000Y0108305D02*
X0053466Y0108305D01*
X0053676Y0109903D02*
X0043000Y0109903D01*
X0043000Y0111502D02*
X0054338Y0111502D01*
X0055700Y0113100D02*
X0043000Y0113100D01*
X0043000Y0114699D02*
X0058534Y0114699D01*
X0062049Y0114699D02*
X0076700Y0114699D01*
X0076700Y0116297D02*
X0043000Y0116297D01*
X0043000Y0117896D02*
X0076700Y0117896D01*
X0076700Y0119494D02*
X0043000Y0119494D01*
X0043000Y0121093D02*
X0076700Y0121093D01*
X0076700Y0122691D02*
X0043000Y0122691D01*
X0043000Y0124290D02*
X0076700Y0124290D01*
X0076700Y0125888D02*
X0043000Y0125888D01*
X0043000Y0127487D02*
X0077234Y0127487D01*
X0078047Y0128300D02*
X0078047Y0128300D01*
X0078833Y0129085D02*
X0043000Y0129085D01*
X0043000Y0130684D02*
X0080431Y0130684D01*
X0082500Y0129500D02*
X0104264Y0129500D01*
X0104484Y0129720D01*
X0104484Y0127161D02*
X0104484Y0125484D01*
X0103500Y0123500D01*
X0105760Y0121093D02*
X0137654Y0121093D01*
X0136056Y0122691D02*
X0106737Y0122691D01*
X0106745Y0124290D02*
X0134457Y0124290D01*
X0133886Y0124861D02*
X0143700Y0115047D01*
X0143700Y0114862D01*
X0140261Y0114862D01*
X0139382Y0113984D01*
X0139382Y0108016D01*
X0140157Y0107242D01*
X0140157Y0104758D01*
X0139382Y0103984D01*
X0139382Y0103300D01*
X0137618Y0103300D01*
X0137618Y0103984D01*
X0136739Y0104862D01*
X0132347Y0104862D01*
X0131469Y0103984D01*
X0131469Y0098016D01*
X0132347Y0097138D01*
X0136739Y0097138D01*
X0137618Y0098016D01*
X0137618Y0098700D01*
X0139382Y0098700D01*
X0139382Y0098016D01*
X0140261Y0097138D01*
X0144653Y0097138D01*
X0145531Y0098016D01*
X0145531Y0101759D01*
X0146469Y0100822D01*
X0146469Y0098016D01*
X0147347Y0097138D01*
X0151739Y0097138D01*
X0152618Y0098016D01*
X0152618Y0098700D01*
X0154382Y0098700D01*
X0154382Y0098016D01*
X0155261Y0097138D01*
X0159653Y0097138D01*
X0160531Y0098016D01*
X0160531Y0103984D01*
X0159653Y0104862D01*
X0155261Y0104862D01*
X0154382Y0103984D01*
X0154382Y0103300D01*
X0152618Y0103300D01*
X0152618Y0103984D01*
X0151739Y0104862D01*
X0148934Y0104862D01*
X0148300Y0105496D01*
X0148300Y0107138D01*
X0151739Y0107138D01*
X0152618Y0108016D01*
X0152618Y0108700D01*
X0154382Y0108700D01*
X0154382Y0108016D01*
X0155261Y0107138D01*
X0159653Y0107138D01*
X0160531Y0108016D01*
X0160531Y0113984D01*
X0159653Y0114862D01*
X0155261Y0114862D01*
X0154382Y0113984D01*
X0154382Y0113300D01*
X0152618Y0113300D01*
X0152618Y0113984D01*
X0151739Y0114862D01*
X0150800Y0114862D01*
X0150800Y0119453D01*
X0149453Y0120800D01*
X0145580Y0124672D01*
X0146984Y0124672D01*
X0146984Y0127161D01*
X0146984Y0127161D01*
X0146984Y0124672D01*
X0149583Y0124672D01*
X0150041Y0124795D01*
X0150452Y0125032D01*
X0150787Y0125367D01*
X0151024Y0125778D01*
X0151146Y0126235D01*
X0151146Y0127161D01*
X0146984Y0127161D01*
X0146984Y0127161D01*
X0151146Y0127161D01*
X0151146Y0128087D01*
X0151024Y0128545D01*
X0150846Y0128852D01*
X0150846Y0136149D01*
X0149968Y0137028D01*
X0144001Y0137028D01*
X0143122Y0136149D01*
X0143122Y0128852D01*
X0142945Y0128545D01*
X0142822Y0128087D01*
X0142822Y0127431D01*
X0138232Y0132020D01*
X0131378Y0132020D01*
X0131378Y0133148D01*
X0131555Y0133455D01*
X0131678Y0133913D01*
X0131678Y0134839D01*
X0131678Y0135765D01*
X0131555Y0136222D01*
X0131318Y0136633D01*
X0130983Y0136968D01*
X0130573Y0137205D01*
X0130115Y0137328D01*
X0127516Y0137328D01*
X0127516Y0134839D01*
X0127516Y0134839D01*
X0131678Y0134839D01*
X0127516Y0134839D01*
X0127516Y0134839D01*
X0127516Y0137328D01*
X0124917Y0137328D01*
X0124459Y0137205D01*
X0124048Y0136968D01*
X0123713Y0136633D01*
X0123476Y0136222D01*
X0123354Y0135765D01*
X0123354Y0134839D01*
X0127516Y0134839D01*
X0127516Y0134839D01*
X0123354Y0134839D01*
X0123354Y0133913D01*
X0123476Y0133455D01*
X0123654Y0133148D01*
X0123654Y0125851D01*
X0124532Y0124972D01*
X0126452Y0124972D01*
X0126563Y0124861D01*
X0133886Y0124861D01*
X0134839Y0127161D02*
X0127516Y0127161D01*
X0127516Y0129720D02*
X0137280Y0129720D01*
X0148500Y0118500D01*
X0148500Y0112043D01*
X0149543Y0111000D01*
X0157457Y0111000D01*
X0160531Y0111502D02*
X0161469Y0111502D01*
X0161469Y0113100D02*
X0160531Y0113100D01*
X0161469Y0113984D02*
X0162347Y0114862D01*
X0162536Y0114862D01*
X0161882Y0115516D01*
X0161882Y0121484D01*
X0162657Y0122258D01*
X0162657Y0127089D01*
X0162646Y0128028D01*
X0162657Y0128039D01*
X0162657Y0128055D01*
X0163321Y0128719D01*
X0163977Y0129391D01*
X0163993Y0129391D01*
X0164004Y0129402D01*
X0164944Y0129402D01*
X0166154Y0129416D01*
X0166154Y0136149D01*
X0167032Y0137028D01*
X0168952Y0137028D01*
X0169063Y0137139D01*
X0170386Y0137139D01*
X0171700Y0138453D01*
X0171700Y0139156D01*
X0172202Y0140369D01*
X0173131Y0141298D01*
X0174344Y0141800D01*
X0175656Y0141800D01*
X0176869Y0141298D01*
X0177798Y0140369D01*
X0178300Y0139156D01*
X0178300Y0137844D01*
X0177798Y0136631D01*
X0176869Y0135702D01*
X0175656Y0135200D01*
X0174953Y0135200D01*
X0174303Y0134550D01*
X0177453Y0134550D01*
X0178800Y0133203D01*
X0181843Y0130159D01*
X0181843Y0114758D01*
X0182618Y0113984D01*
X0182618Y0108016D01*
X0181843Y0107242D01*
X0181843Y0104758D01*
X0182618Y0103984D01*
X0182618Y0098016D01*
X0181739Y0097138D01*
X0177347Y0097138D01*
X0176469Y0098016D01*
X0176469Y0103984D01*
X0177243Y0104758D01*
X0177243Y0107242D01*
X0176469Y0108016D01*
X0176469Y0113984D01*
X0177243Y0114758D01*
X0177243Y0120443D01*
X0176656Y0120200D01*
X0175344Y0120200D01*
X0175118Y0120293D01*
X0175118Y0115516D01*
X0174464Y0114862D01*
X0174653Y0114862D01*
X0175531Y0113984D01*
X0175531Y0108016D01*
X0174653Y0107138D01*
X0170261Y0107138D01*
X0169382Y0108016D01*
X0169382Y0108700D01*
X0167618Y0108700D01*
X0167618Y0108016D01*
X0166739Y0107138D01*
X0162347Y0107138D01*
X0161469Y0108016D01*
X0161469Y0113984D01*
X0162184Y0114699D02*
X0159816Y0114699D01*
X0161882Y0116297D02*
X0150800Y0116297D01*
X0150800Y0117896D02*
X0161882Y0117896D01*
X0161882Y0119494D02*
X0150758Y0119494D01*
X0149160Y0121093D02*
X0161882Y0121093D01*
X0162657Y0122691D02*
X0147561Y0122691D01*
X0145963Y0124290D02*
X0162657Y0124290D01*
X0162657Y0125888D02*
X0151053Y0125888D01*
X0151146Y0127487D02*
X0162652Y0127487D01*
X0163679Y0129085D02*
X0150846Y0129085D01*
X0150846Y0130684D02*
X0166154Y0130684D01*
X0166154Y0132282D02*
X0150846Y0132282D01*
X0150846Y0133881D02*
X0166154Y0133881D01*
X0166154Y0135479D02*
X0150846Y0135479D01*
X0143122Y0135479D02*
X0131678Y0135479D01*
X0131669Y0133881D02*
X0143122Y0133881D01*
X0143122Y0132282D02*
X0131378Y0132282D01*
X0127516Y0132280D02*
X0127516Y0129720D01*
X0123654Y0129085D02*
X0108346Y0129085D01*
X0108346Y0127487D02*
X0123654Y0127487D01*
X0123654Y0125888D02*
X0108346Y0125888D01*
X0108346Y0130684D02*
X0123654Y0130684D01*
X0123654Y0132282D02*
X0108346Y0132282D01*
X0108346Y0133881D02*
X0123362Y0133881D01*
X0123354Y0135479D02*
X0108346Y0135479D01*
X0106784Y0137078D02*
X0124239Y0137078D01*
X0127516Y0137078D02*
X0127516Y0137078D01*
X0127516Y0135479D02*
X0127516Y0135479D01*
X0130793Y0137078D02*
X0169002Y0137078D01*
X0171700Y0138676D02*
X0143093Y0138676D01*
X0144022Y0140275D02*
X0172163Y0140275D01*
X0175000Y0138500D02*
X0171339Y0134839D01*
X0170016Y0134839D01*
X0170016Y0132280D02*
X0170045Y0132250D01*
X0176500Y0132250D01*
X0179543Y0129207D01*
X0179543Y0111000D01*
X0179543Y0101000D01*
X0176469Y0100312D02*
X0175531Y0100312D01*
X0175531Y0098714D02*
X0176469Y0098714D01*
X0174757Y0097115D02*
X0184874Y0097115D01*
X0184874Y0098714D02*
X0182618Y0098714D01*
X0182618Y0100312D02*
X0184982Y0100312D01*
X0182618Y0101911D02*
X0189094Y0101911D01*
X0189094Y0103509D02*
X0182618Y0103509D01*
X0181843Y0105108D02*
X0189094Y0105108D01*
X0187654Y0108500D02*
X0187654Y0113500D01*
X0189500Y0113500D01*
X0188000Y0115000D01*
X0188000Y0116500D02*
X0191000Y0113500D01*
X0189500Y0113500D01*
X0189000Y0113000D02*
X0188000Y0112000D01*
X0187654Y0113500D02*
X0187654Y0121846D01*
X0186000Y0123500D01*
X0183740Y0121093D02*
X0181843Y0121093D01*
X0181843Y0122691D02*
X0182763Y0122691D01*
X0182755Y0124290D02*
X0181843Y0124290D01*
X0181843Y0125888D02*
X0183721Y0125888D01*
X0181843Y0127487D02*
X0244000Y0127487D01*
X0244000Y0129085D02*
X0181843Y0129085D01*
X0181319Y0130684D02*
X0244000Y0130684D01*
X0244000Y0132282D02*
X0179720Y0132282D01*
X0178122Y0133881D02*
X0244000Y0133881D01*
X0244000Y0135479D02*
X0176331Y0135479D01*
X0177983Y0137078D02*
X0244000Y0137078D01*
X0244000Y0138676D02*
X0178300Y0138676D01*
X0177837Y0140275D02*
X0244000Y0140275D01*
X0244000Y0141873D02*
X0143960Y0141873D01*
X0142945Y0143472D02*
X0244000Y0143472D01*
X0244000Y0145070D02*
X0043000Y0145070D01*
X0043000Y0143472D02*
X0056151Y0143472D01*
X0056425Y0143747D02*
X0054505Y0141827D01*
X0053466Y0139318D01*
X0053466Y0136603D01*
X0054505Y0134095D01*
X0056425Y0132175D01*
X0058934Y0131136D01*
X0061649Y0131136D01*
X0064157Y0132175D01*
X0066077Y0134095D01*
X0067116Y0136603D01*
X0067116Y0139318D01*
X0066077Y0141827D01*
X0064157Y0143747D01*
X0061649Y0144786D01*
X0058934Y0144786D01*
X0056425Y0143747D01*
X0054552Y0141873D02*
X0043000Y0141873D01*
X0043000Y0140275D02*
X0053863Y0140275D01*
X0053466Y0138676D02*
X0043000Y0138676D01*
X0043000Y0137078D02*
X0053466Y0137078D01*
X0053932Y0135479D02*
X0043000Y0135479D01*
X0043000Y0133881D02*
X0054719Y0133881D01*
X0056318Y0132282D02*
X0043000Y0132282D01*
X0064265Y0132282D02*
X0096465Y0132282D01*
X0099720Y0132280D02*
X0096000Y0136000D01*
X0092875Y0137078D02*
X0067116Y0137078D01*
X0067116Y0138676D02*
X0094010Y0138676D01*
X0092700Y0135479D02*
X0066651Y0135479D01*
X0065864Y0133881D02*
X0093452Y0133881D01*
X0099720Y0132280D02*
X0104484Y0132280D01*
X0104484Y0134839D02*
X0104484Y0139484D01*
X0106000Y0141000D01*
X0140750Y0141000D01*
X0138407Y0138676D02*
X0106929Y0138676D01*
X0103621Y0141873D02*
X0066030Y0141873D01*
X0066720Y0140275D02*
X0102184Y0140275D01*
X0102184Y0138676D02*
X0097990Y0138676D01*
X0099125Y0137078D02*
X0102184Y0137078D01*
X0100622Y0135479D02*
X0099773Y0135479D01*
X0087807Y0125888D02*
X0082141Y0125888D01*
X0081300Y0124290D02*
X0086880Y0124290D01*
X0086700Y0122691D02*
X0081300Y0122691D01*
X0081300Y0121093D02*
X0087136Y0121093D01*
X0088425Y0119494D02*
X0081300Y0119494D01*
X0081300Y0117896D02*
X0088700Y0117896D01*
X0088700Y0116297D02*
X0081300Y0116297D01*
X0081300Y0114699D02*
X0088700Y0114699D01*
X0088700Y0113100D02*
X0081300Y0113100D01*
X0081300Y0111502D02*
X0088700Y0111502D01*
X0088700Y0109903D02*
X0081300Y0109903D01*
X0081300Y0108305D02*
X0088899Y0108305D01*
X0090498Y0106706D02*
X0081300Y0106706D01*
X0081300Y0105108D02*
X0092096Y0105108D01*
X0093695Y0103509D02*
X0081300Y0103509D01*
X0081300Y0101911D02*
X0095293Y0101911D01*
X0096382Y0100312D02*
X0081300Y0100312D01*
X0081300Y0098714D02*
X0096382Y0098714D01*
X0099457Y0101000D02*
X0091000Y0109457D01*
X0091000Y0123000D01*
X0098500Y0121000D02*
X0101000Y0121000D01*
X0103500Y0118500D01*
X0103500Y0112043D01*
X0106543Y0111000D01*
X0112457Y0111000D01*
X0112457Y0101000D01*
X0115531Y0100312D02*
X0116469Y0100312D01*
X0116469Y0098714D02*
X0115531Y0098714D01*
X0116469Y0098016D02*
X0117347Y0097138D01*
X0121739Y0097138D01*
X0122618Y0098016D01*
X0122618Y0098700D01*
X0124382Y0098700D01*
X0124382Y0098016D01*
X0125261Y0097138D01*
X0129653Y0097138D01*
X0130531Y0098016D01*
X0130531Y0103984D01*
X0129653Y0104862D01*
X0125261Y0104862D01*
X0124382Y0103984D01*
X0124382Y0103300D01*
X0122618Y0103300D01*
X0122618Y0103984D01*
X0121843Y0104758D01*
X0121843Y0107242D01*
X0122618Y0108016D01*
X0122618Y0108700D01*
X0128633Y0108700D01*
X0129131Y0108202D01*
X0130344Y0107700D01*
X0131656Y0107700D01*
X0132869Y0108202D01*
X0133798Y0109131D01*
X0134300Y0110344D01*
X0134300Y0111656D01*
X0133798Y0112869D01*
X0132869Y0113798D01*
X0131656Y0114300D01*
X0130344Y0114300D01*
X0129131Y0113798D01*
X0128633Y0113300D01*
X0122618Y0113300D01*
X0122618Y0113984D01*
X0121739Y0114862D01*
X0117347Y0114862D01*
X0116469Y0113984D01*
X0116469Y0108016D01*
X0117243Y0107242D01*
X0117243Y0104758D01*
X0116469Y0103984D01*
X0116469Y0098016D01*
X0116469Y0101911D02*
X0115531Y0101911D01*
X0115531Y0103509D02*
X0116469Y0103509D01*
X0117243Y0105108D02*
X0114757Y0105108D01*
X0114757Y0106706D02*
X0117243Y0106706D01*
X0116469Y0108305D02*
X0115531Y0108305D01*
X0115531Y0109903D02*
X0116469Y0109903D01*
X0116469Y0111502D02*
X0115531Y0111502D01*
X0115531Y0113100D02*
X0116469Y0113100D01*
X0117184Y0114699D02*
X0114816Y0114699D01*
X0110097Y0114699D02*
X0108903Y0114699D01*
X0105800Y0116297D02*
X0142450Y0116297D01*
X0140852Y0117896D02*
X0105800Y0117896D01*
X0105758Y0119494D02*
X0139253Y0119494D01*
X0140097Y0114699D02*
X0121903Y0114699D01*
X0119543Y0111000D02*
X0131000Y0111000D01*
X0132972Y0108305D02*
X0139382Y0108305D01*
X0139382Y0109903D02*
X0134118Y0109903D01*
X0134300Y0111502D02*
X0139382Y0111502D01*
X0139382Y0113100D02*
X0133567Y0113100D01*
X0129028Y0108305D02*
X0122618Y0108305D01*
X0121843Y0106706D02*
X0140157Y0106706D01*
X0140157Y0105108D02*
X0121843Y0105108D01*
X0122618Y0103509D02*
X0124382Y0103509D01*
X0127457Y0101000D02*
X0119543Y0101000D01*
X0119543Y0111000D01*
X0130531Y0103509D02*
X0131469Y0103509D01*
X0131469Y0101911D02*
X0130531Y0101911D01*
X0130531Y0100312D02*
X0131469Y0100312D01*
X0131469Y0098714D02*
X0130531Y0098714D01*
X0134543Y0101000D02*
X0142457Y0101000D01*
X0142457Y0111000D01*
X0148300Y0106706D02*
X0177243Y0106706D01*
X0177243Y0105108D02*
X0148688Y0105108D01*
X0146000Y0104543D02*
X0149543Y0101000D01*
X0157457Y0101000D01*
X0160531Y0100312D02*
X0161469Y0100312D01*
X0161469Y0098714D02*
X0160531Y0098714D01*
X0162243Y0097115D02*
X0081300Y0097115D01*
X0081300Y0095517D02*
X0162243Y0095517D01*
X0161469Y0093918D02*
X0160531Y0093918D01*
X0160531Y0092320D02*
X0161469Y0092320D01*
X0161469Y0090721D02*
X0160531Y0090721D01*
X0160531Y0089123D02*
X0161469Y0089123D01*
X0160871Y0087524D02*
X0160039Y0087524D01*
X0159273Y0085926D02*
X0156800Y0085926D01*
X0153500Y0086000D02*
X0153500Y0087043D01*
X0149543Y0091000D01*
X0149543Y0089543D01*
X0149543Y0091000D02*
X0157457Y0091000D01*
X0154382Y0093918D02*
X0152618Y0093918D01*
X0146469Y0093918D02*
X0145531Y0093918D01*
X0145531Y0092320D02*
X0146469Y0092320D01*
X0146469Y0090721D02*
X0145531Y0090721D01*
X0145531Y0089123D02*
X0146469Y0089123D01*
X0146961Y0087524D02*
X0145039Y0087524D01*
X0144757Y0085926D02*
X0150200Y0085926D01*
X0146812Y0084327D02*
X0145188Y0084327D01*
X0145531Y0082729D02*
X0146469Y0082729D01*
X0146469Y0081130D02*
X0145531Y0081130D01*
X0145531Y0079532D02*
X0146279Y0079532D01*
X0142457Y0081000D02*
X0142457Y0091000D01*
X0134543Y0091000D01*
X0131469Y0090721D02*
X0130531Y0090721D01*
X0130531Y0089123D02*
X0131469Y0089123D01*
X0131961Y0087524D02*
X0130039Y0087524D01*
X0124874Y0087524D02*
X0122126Y0087524D01*
X0121843Y0085926D02*
X0140157Y0085926D01*
X0139874Y0087524D02*
X0137126Y0087524D01*
X0139725Y0084327D02*
X0122275Y0084327D01*
X0122618Y0082729D02*
X0139382Y0082729D01*
X0139382Y0081130D02*
X0122618Y0081130D01*
X0122618Y0079532D02*
X0139382Y0079532D01*
X0139465Y0077933D02*
X0122535Y0077933D01*
X0121843Y0076334D02*
X0143082Y0076334D01*
X0141483Y0074736D02*
X0120489Y0074736D01*
X0118890Y0073137D02*
X0139885Y0073137D01*
X0138286Y0071539D02*
X0117292Y0071539D01*
X0115693Y0069940D02*
X0136688Y0069940D01*
X0135089Y0068342D02*
X0114095Y0068342D01*
X0112496Y0066743D02*
X0133491Y0066743D01*
X0131892Y0065145D02*
X0110898Y0065145D01*
X0109299Y0063546D02*
X0131200Y0063546D01*
X0131200Y0061948D02*
X0131003Y0061948D01*
X0133500Y0063500D02*
X0133500Y0058500D01*
X0131000Y0056000D01*
X0128795Y0056000D01*
X0127516Y0054720D01*
X0128500Y0055705D01*
X0128500Y0056000D01*
X0127516Y0056984D01*
X0127516Y0057280D01*
X0127516Y0060349D02*
X0127516Y0060349D01*
X0127516Y0061948D02*
X0127516Y0061948D01*
X0124028Y0061948D02*
X0107701Y0061948D01*
X0108346Y0060349D02*
X0123354Y0060349D01*
X0123397Y0058751D02*
X0108346Y0058751D01*
X0108346Y0057152D02*
X0123654Y0057152D01*
X0123654Y0055554D02*
X0108346Y0055554D01*
X0108346Y0053955D02*
X0123654Y0053955D01*
X0123654Y0052357D02*
X0108346Y0052357D01*
X0108254Y0050758D02*
X0123746Y0050758D01*
X0127516Y0052161D02*
X0132161Y0052161D01*
X0133500Y0053500D01*
X0138500Y0050000D02*
X0138500Y0063500D01*
X0148500Y0073500D01*
X0158500Y0073500D01*
X0161000Y0076000D01*
X0161000Y0084400D01*
X0162575Y0085975D01*
X0168475Y0085975D01*
X0172457Y0089957D01*
X0172457Y0091000D01*
X0172457Y0101000D01*
X0169382Y0100312D02*
X0167618Y0100312D01*
X0167618Y0101911D02*
X0169382Y0101911D01*
X0169382Y0103509D02*
X0167618Y0103509D01*
X0164543Y0101000D02*
X0164543Y0099957D01*
X0168500Y0096000D01*
X0164543Y0092043D01*
X0164543Y0091000D01*
X0164543Y0101000D01*
X0161469Y0101911D02*
X0160531Y0101911D01*
X0160531Y0103509D02*
X0161469Y0103509D01*
X0161469Y0108305D02*
X0160531Y0108305D01*
X0160531Y0109903D02*
X0161469Y0109903D01*
X0164543Y0111000D02*
X0172457Y0111000D01*
X0172043Y0111413D01*
X0172043Y0118500D01*
X0175118Y0117896D02*
X0177243Y0117896D01*
X0177243Y0119494D02*
X0175118Y0119494D01*
X0175118Y0116297D02*
X0177243Y0116297D01*
X0177184Y0114699D02*
X0174816Y0114699D01*
X0175531Y0113100D02*
X0176469Y0113100D01*
X0176469Y0111502D02*
X0175531Y0111502D01*
X0175531Y0109903D02*
X0176469Y0109903D01*
X0176469Y0108305D02*
X0175531Y0108305D01*
X0181843Y0106706D02*
X0184964Y0106706D01*
X0184874Y0108305D02*
X0182618Y0108305D01*
X0182618Y0109903D02*
X0184874Y0109903D01*
X0185354Y0111502D02*
X0182618Y0111502D01*
X0182618Y0113100D02*
X0185354Y0113100D01*
X0185354Y0114699D02*
X0181903Y0114699D01*
X0181843Y0116297D02*
X0185354Y0116297D01*
X0185354Y0117896D02*
X0181843Y0117896D01*
X0181843Y0119494D02*
X0185354Y0119494D01*
X0189954Y0119494D02*
X0244000Y0119494D01*
X0244000Y0117896D02*
X0189954Y0117896D01*
X0191455Y0116297D02*
X0244000Y0116297D01*
X0244000Y0114699D02*
X0241153Y0114699D01*
X0241368Y0113100D02*
X0244000Y0113100D01*
X0244000Y0111502D02*
X0241368Y0111502D01*
X0241368Y0109903D02*
X0244000Y0109903D01*
X0244000Y0108305D02*
X0241156Y0108305D01*
X0240593Y0106706D02*
X0244000Y0106706D01*
X0244000Y0105108D02*
X0240593Y0105108D01*
X0242209Y0103509D02*
X0244000Y0103509D01*
X0244000Y0101911D02*
X0242209Y0101911D01*
X0242209Y0100312D02*
X0244000Y0100312D01*
X0244000Y0098714D02*
X0242993Y0098714D01*
X0242993Y0097115D02*
X0244000Y0097115D01*
X0244000Y0095517D02*
X0242993Y0095517D01*
X0242993Y0093918D02*
X0244000Y0093918D01*
X0244000Y0092320D02*
X0242993Y0092320D01*
X0242993Y0090721D02*
X0244000Y0090721D01*
X0244000Y0089123D02*
X0242993Y0089123D01*
X0242993Y0087524D02*
X0244000Y0087524D01*
X0244000Y0085926D02*
X0242993Y0085926D01*
X0242993Y0084327D02*
X0244000Y0084327D01*
X0244000Y0082729D02*
X0242993Y0082729D01*
X0242993Y0081130D02*
X0244000Y0081130D01*
X0244000Y0079532D02*
X0242993Y0079532D01*
X0242993Y0077933D02*
X0244000Y0077933D01*
X0244000Y0076334D02*
X0242993Y0076334D01*
X0242993Y0074736D02*
X0244000Y0074736D01*
X0244000Y0073137D02*
X0242993Y0073137D01*
X0242993Y0071539D02*
X0244000Y0071539D01*
X0244000Y0069940D02*
X0242993Y0069940D01*
X0242993Y0068342D02*
X0244000Y0068342D01*
X0244000Y0066743D02*
X0242993Y0066743D01*
X0242993Y0065145D02*
X0244000Y0065145D01*
X0244000Y0063546D02*
X0242993Y0063546D01*
X0242993Y0061948D02*
X0244000Y0061948D01*
X0244000Y0060349D02*
X0242993Y0060349D01*
X0242993Y0058751D02*
X0244000Y0058751D01*
X0244000Y0057152D02*
X0242993Y0057152D01*
X0242993Y0055554D02*
X0244000Y0055554D01*
X0244000Y0053955D02*
X0242993Y0053955D01*
X0242993Y0052357D02*
X0244000Y0052357D01*
X0244000Y0050758D02*
X0242993Y0050758D01*
X0242993Y0049160D02*
X0244000Y0049160D01*
X0244000Y0047561D02*
X0242993Y0047561D01*
X0242993Y0045963D02*
X0244000Y0045963D01*
X0244000Y0044364D02*
X0242993Y0044364D01*
X0242993Y0042766D02*
X0244000Y0042766D01*
X0244000Y0041167D02*
X0242993Y0041167D01*
X0242993Y0039569D02*
X0244000Y0039569D01*
X0244000Y0037970D02*
X0242993Y0037970D01*
X0242993Y0036372D02*
X0244000Y0036372D01*
X0244000Y0034773D02*
X0243465Y0034773D01*
X0243965Y0033175D02*
X0244000Y0033175D01*
X0244000Y0031576D02*
X0243628Y0031576D01*
X0244000Y0029978D02*
X0241628Y0029978D01*
X0239758Y0029978D02*
X0238903Y0029978D01*
X0235097Y0029978D02*
X0234242Y0029978D01*
X0232864Y0028000D02*
X0229136Y0028000D01*
X0226500Y0025364D01*
X0226500Y0021636D01*
X0229136Y0019000D01*
X0232864Y0019000D01*
X0235500Y0021636D01*
X0235500Y0025364D01*
X0232864Y0028000D01*
X0234083Y0026781D02*
X0237917Y0026781D01*
X0236500Y0025182D02*
X0235500Y0025182D01*
X0235500Y0023584D02*
X0236500Y0023584D01*
X0236500Y0021985D02*
X0235500Y0021985D01*
X0234251Y0020387D02*
X0237749Y0020387D01*
X0244000Y0018788D02*
X0078041Y0018788D01*
X0078326Y0017190D02*
X0076442Y0017190D01*
X0076727Y0015591D02*
X0075697Y0015591D01*
X0075800Y0013993D02*
X0076500Y0013993D01*
X0076500Y0012394D02*
X0075800Y0012394D01*
X0075084Y0010796D02*
X0077341Y0010796D01*
X0084659Y0010796D02*
X0087341Y0010796D01*
X0086500Y0012394D02*
X0085500Y0012394D01*
X0085500Y0013993D02*
X0086500Y0013993D01*
X0086727Y0015591D02*
X0085273Y0015591D01*
X0083674Y0017190D02*
X0088326Y0017190D01*
X0089136Y0019000D02*
X0092864Y0019000D01*
X0095500Y0021636D01*
X0095500Y0025364D01*
X0092864Y0028000D01*
X0089136Y0028000D01*
X0086500Y0025364D01*
X0086500Y0021636D01*
X0089136Y0019000D01*
X0087749Y0020387D02*
X0084251Y0020387D01*
X0085500Y0021985D02*
X0086500Y0021985D01*
X0086500Y0023584D02*
X0085500Y0023584D01*
X0085500Y0025182D02*
X0086500Y0025182D01*
X0087917Y0026781D02*
X0084083Y0026781D01*
X0085157Y0028552D02*
X0084484Y0028895D01*
X0083873Y0029339D01*
X0083339Y0029873D01*
X0082895Y0030484D01*
X0082552Y0031157D01*
X0082318Y0031876D01*
X0082200Y0032622D01*
X0082200Y0035800D01*
X0086800Y0035800D01*
X0086800Y0028200D01*
X0086622Y0028200D01*
X0085876Y0028318D01*
X0085157Y0028552D01*
X0085688Y0028379D02*
X0078300Y0028379D01*
X0080342Y0029978D02*
X0083263Y0029978D01*
X0082416Y0031576D02*
X0081281Y0031576D01*
X0081500Y0033175D02*
X0082200Y0033175D01*
X0082200Y0034773D02*
X0081500Y0034773D01*
X0081500Y0036372D02*
X0082200Y0036372D01*
X0082200Y0037970D02*
X0081500Y0037970D01*
X0081500Y0039569D02*
X0082230Y0039569D01*
X0082717Y0041167D02*
X0080973Y0041167D01*
X0079598Y0042766D02*
X0084017Y0042766D01*
X0088500Y0046000D02*
X0111000Y0023500D01*
X0115500Y0023584D02*
X0116500Y0023584D01*
X0116500Y0021985D02*
X0115500Y0021985D01*
X0114251Y0020387D02*
X0117749Y0020387D01*
X0121000Y0023500D02*
X0111000Y0033500D01*
X0111000Y0036000D01*
X0106500Y0034773D02*
X0102979Y0034773D01*
X0104578Y0033175D02*
X0106500Y0033175D01*
X0106719Y0031576D02*
X0106176Y0031576D01*
X0109374Y0028379D02*
X0112868Y0028379D01*
X0114083Y0026781D02*
X0114467Y0026781D01*
X0115500Y0025182D02*
X0116065Y0025182D01*
X0125500Y0025182D02*
X0126500Y0025182D01*
X0126500Y0023584D02*
X0125500Y0023584D01*
X0125500Y0021985D02*
X0126500Y0021985D01*
X0127749Y0020387D02*
X0124251Y0020387D01*
X0123674Y0017190D02*
X0128326Y0017190D01*
X0126727Y0015591D02*
X0125273Y0015591D01*
X0125500Y0013993D02*
X0126500Y0013993D01*
X0126500Y0012394D02*
X0125500Y0012394D01*
X0124659Y0010796D02*
X0127341Y0010796D01*
X0134659Y0010796D02*
X0137341Y0010796D01*
X0136500Y0012394D02*
X0135500Y0012394D01*
X0135500Y0013993D02*
X0136500Y0013993D01*
X0136727Y0015591D02*
X0135273Y0015591D01*
X0133674Y0017190D02*
X0138326Y0017190D01*
X0139136Y0019000D02*
X0142864Y0019000D01*
X0145500Y0021636D01*
X0145500Y0025364D01*
X0142864Y0028000D01*
X0139136Y0028000D01*
X0136500Y0025364D01*
X0136500Y0021636D01*
X0139136Y0019000D01*
X0137749Y0020387D02*
X0134251Y0020387D01*
X0135500Y0021985D02*
X0136500Y0021985D01*
X0136500Y0023584D02*
X0135500Y0023584D01*
X0135500Y0025182D02*
X0136500Y0025182D01*
X0137917Y0026781D02*
X0134083Y0026781D01*
X0132312Y0028379D02*
X0244000Y0028379D01*
X0240693Y0033000D02*
X0240693Y0098378D01*
X0238740Y0100331D01*
X0238293Y0100778D01*
X0238293Y0111500D01*
X0235219Y0111502D02*
X0234581Y0111502D01*
X0234581Y0111500D02*
X0234581Y0114099D01*
X0234459Y0114557D01*
X0234222Y0114967D01*
X0233887Y0115303D01*
X0233476Y0115540D01*
X0233018Y0115662D01*
X0231207Y0115662D01*
X0231207Y0111500D01*
X0234581Y0111500D01*
X0231207Y0111500D01*
X0231207Y0111500D01*
X0231207Y0111500D01*
X0231207Y0107338D01*
X0233018Y0107338D01*
X0233476Y0107460D01*
X0233887Y0107697D01*
X0234222Y0108033D01*
X0234459Y0108443D01*
X0234581Y0108901D01*
X0234581Y0111500D01*
X0234581Y0109903D02*
X0235219Y0109903D01*
X0235430Y0108305D02*
X0234379Y0108305D01*
X0235993Y0106706D02*
X0220800Y0106706D01*
X0220800Y0105108D02*
X0223379Y0105108D01*
X0223844Y0105300D02*
X0222631Y0104798D01*
X0221702Y0103869D01*
X0221200Y0102656D01*
X0221200Y0101344D01*
X0221702Y0100131D01*
X0222631Y0099202D01*
X0223844Y0098700D01*
X0224547Y0098700D01*
X0225217Y0098031D01*
X0227791Y0098031D01*
X0227791Y0096953D01*
X0228670Y0096075D01*
X0233850Y0096075D01*
X0234728Y0096953D01*
X0234728Y0103708D01*
X0233850Y0104587D01*
X0228670Y0104587D01*
X0227791Y0103708D01*
X0227791Y0102677D01*
X0227298Y0103869D01*
X0226369Y0104798D01*
X0225156Y0105300D01*
X0223844Y0105300D01*
X0225621Y0105108D02*
X0235993Y0105108D01*
X0235272Y0103509D02*
X0234728Y0103509D01*
X0234728Y0101911D02*
X0235272Y0101911D01*
X0235272Y0100312D02*
X0234728Y0100312D01*
X0234728Y0098714D02*
X0235272Y0098714D01*
X0235272Y0097115D02*
X0234728Y0097115D01*
X0232002Y0095517D02*
X0223000Y0095517D01*
X0223000Y0097115D02*
X0227791Y0097115D01*
X0226169Y0100331D02*
X0224500Y0102000D01*
X0227447Y0103509D02*
X0227791Y0103509D01*
X0228937Y0107460D02*
X0229395Y0107338D01*
X0231207Y0107338D01*
X0231207Y0111500D01*
X0231207Y0111500D01*
X0231207Y0115662D01*
X0229395Y0115662D01*
X0228937Y0115540D01*
X0228527Y0115303D01*
X0228192Y0114967D01*
X0227955Y0114557D01*
X0227832Y0114099D01*
X0227832Y0111500D01*
X0227832Y0108901D01*
X0227955Y0108443D01*
X0228192Y0108033D01*
X0228527Y0107697D01*
X0228937Y0107460D01*
X0228034Y0108305D02*
X0220800Y0108305D01*
X0220349Y0109903D02*
X0227832Y0109903D01*
X0227832Y0111500D02*
X0231207Y0111500D01*
X0231207Y0111500D01*
X0227832Y0111500D01*
X0227832Y0111502D02*
X0218751Y0111502D01*
X0217152Y0113100D02*
X0227832Y0113100D01*
X0228036Y0114699D02*
X0215554Y0114699D01*
X0213500Y0113500D02*
X0191000Y0113500D01*
X0194173Y0109903D02*
X0213844Y0109903D01*
X0215443Y0108305D02*
X0194173Y0108305D01*
X0194083Y0106706D02*
X0216200Y0106706D01*
X0216200Y0105108D02*
X0193694Y0105108D01*
X0193694Y0103509D02*
X0216200Y0103509D01*
X0216200Y0101911D02*
X0193694Y0101911D01*
X0194065Y0100312D02*
X0205948Y0100312D01*
X0204546Y0098714D02*
X0194173Y0098714D01*
X0194173Y0097115D02*
X0204000Y0097115D01*
X0208500Y0093500D02*
X0198500Y0093500D01*
X0193500Y0088500D01*
X0190154Y0088500D01*
X0187654Y0091000D01*
X0187654Y0090154D01*
X0186000Y0088500D01*
X0187000Y0088500D01*
X0188000Y0089500D01*
X0187000Y0088500D02*
X0190000Y0088500D01*
X0186000Y0088500D02*
X0183500Y0086000D01*
X0183500Y0073500D01*
X0181000Y0071000D01*
X0179543Y0071000D01*
X0179543Y0055793D01*
X0176000Y0059500D02*
X0174000Y0057500D01*
X0170236Y0057500D01*
X0170016Y0057280D01*
X0170016Y0059839D02*
X0170016Y0060016D01*
X0172500Y0063500D01*
X0169609Y0065145D02*
X0143398Y0065145D01*
X0144996Y0066743D02*
X0171707Y0066743D01*
X0173293Y0066743D02*
X0173700Y0066743D01*
X0169382Y0068342D02*
X0146595Y0068342D01*
X0148193Y0069940D02*
X0169382Y0069940D01*
X0169382Y0071539D02*
X0159792Y0071539D01*
X0161390Y0073137D02*
X0169382Y0073137D01*
X0170134Y0074736D02*
X0162989Y0074736D01*
X0163300Y0076334D02*
X0170157Y0076334D01*
X0169465Y0077933D02*
X0167535Y0077933D01*
X0164543Y0081000D02*
X0172457Y0081000D01*
X0172457Y0071000D01*
X0176000Y0076000D02*
X0176000Y0059500D01*
X0185800Y0074736D02*
X0238393Y0074736D01*
X0238393Y0076334D02*
X0185800Y0076334D01*
X0185800Y0077933D02*
X0238393Y0077933D01*
X0238393Y0079532D02*
X0185800Y0079532D01*
X0185800Y0081130D02*
X0238393Y0081130D01*
X0238393Y0082729D02*
X0185800Y0082729D01*
X0185800Y0084327D02*
X0238393Y0084327D01*
X0238393Y0085926D02*
X0186678Y0085926D01*
X0183370Y0089123D02*
X0182618Y0089123D01*
X0182618Y0090721D02*
X0184968Y0090721D01*
X0185047Y0090800D02*
X0185047Y0090800D01*
X0185354Y0092320D02*
X0182618Y0092320D01*
X0182618Y0093918D02*
X0185354Y0093918D01*
X0185354Y0095517D02*
X0174757Y0095517D01*
X0175531Y0093918D02*
X0176469Y0093918D01*
X0176469Y0092320D02*
X0175531Y0092320D01*
X0175531Y0090721D02*
X0176469Y0090721D01*
X0176469Y0089123D02*
X0175531Y0089123D01*
X0175039Y0087524D02*
X0176961Y0087524D01*
X0177243Y0085926D02*
X0171678Y0085926D01*
X0175188Y0084327D02*
X0176812Y0084327D01*
X0176469Y0082729D02*
X0175531Y0082729D01*
X0175531Y0081130D02*
X0176469Y0081130D01*
X0176279Y0079532D02*
X0175531Y0079532D01*
X0176000Y0076000D02*
X0179543Y0079543D01*
X0179543Y0081000D01*
X0179543Y0091000D01*
X0187654Y0091000D02*
X0187654Y0098500D01*
X0191394Y0098500D02*
X0191394Y0093894D01*
X0191000Y0093500D01*
X0194300Y0093918D02*
X0195665Y0093918D01*
X0197264Y0095517D02*
X0193694Y0095517D01*
X0191394Y0098500D02*
X0191394Y0108500D01*
X0176469Y0103509D02*
X0175531Y0103509D01*
X0175531Y0101911D02*
X0176469Y0101911D01*
X0169382Y0108305D02*
X0167618Y0108305D01*
X0155097Y0114699D02*
X0151903Y0114699D01*
X0146000Y0116000D02*
X0146000Y0104543D01*
X0139382Y0103509D02*
X0137618Y0103509D01*
X0145531Y0100312D02*
X0146469Y0100312D01*
X0146469Y0098714D02*
X0145531Y0098714D01*
X0139382Y0093918D02*
X0137618Y0093918D01*
X0131469Y0093918D02*
X0130531Y0093918D01*
X0130531Y0092320D02*
X0131469Y0092320D01*
X0127457Y0091000D02*
X0119543Y0091000D01*
X0119543Y0081000D01*
X0119543Y0077043D01*
X0104484Y0061984D01*
X0104484Y0059839D01*
X0101421Y0061948D02*
X0100800Y0061948D01*
X0101799Y0063546D02*
X0102794Y0063546D01*
X0103398Y0065145D02*
X0104392Y0065145D01*
X0104996Y0066743D02*
X0105991Y0066743D01*
X0106595Y0068342D02*
X0107589Y0068342D01*
X0108193Y0069940D02*
X0109188Y0069940D01*
X0109792Y0071539D02*
X0110786Y0071539D01*
X0111390Y0073137D02*
X0112385Y0073137D01*
X0112989Y0074736D02*
X0113983Y0074736D01*
X0114587Y0076334D02*
X0115582Y0076334D01*
X0115448Y0077933D02*
X0116552Y0077933D01*
X0116469Y0079532D02*
X0115531Y0079532D01*
X0115531Y0081130D02*
X0116469Y0081130D01*
X0116469Y0082729D02*
X0115531Y0082729D01*
X0115188Y0084327D02*
X0116812Y0084327D01*
X0117243Y0085926D02*
X0114757Y0085926D01*
X0115039Y0087524D02*
X0116961Y0087524D01*
X0116469Y0089123D02*
X0115531Y0089123D01*
X0115531Y0090721D02*
X0116469Y0090721D01*
X0116469Y0092320D02*
X0115531Y0092320D01*
X0115531Y0093918D02*
X0116469Y0093918D01*
X0112457Y0091000D02*
X0106543Y0091000D01*
X0103469Y0090721D02*
X0102531Y0090721D01*
X0102531Y0092320D02*
X0103469Y0092320D01*
X0103469Y0093918D02*
X0102531Y0093918D01*
X0099457Y0091000D02*
X0099457Y0089543D01*
X0104000Y0085000D01*
X0104000Y0083543D01*
X0106543Y0081000D01*
X0103161Y0081130D02*
X0102531Y0081130D01*
X0102531Y0079532D02*
X0103469Y0079532D01*
X0103552Y0077933D02*
X0102448Y0077933D01*
X0099457Y0081000D02*
X0099000Y0081000D01*
X0091000Y0073000D01*
X0095300Y0073137D02*
X0104885Y0073137D01*
X0103286Y0071539D02*
X0095049Y0071539D01*
X0094022Y0069940D02*
X0101688Y0069940D01*
X0100089Y0068342D02*
X0087411Y0068342D01*
X0087978Y0069940D02*
X0085812Y0069940D01*
X0086951Y0071539D02*
X0084214Y0071539D01*
X0082615Y0073137D02*
X0086700Y0073137D01*
X0087065Y0074736D02*
X0081300Y0074736D01*
X0081300Y0076334D02*
X0088253Y0076334D01*
X0092680Y0077933D02*
X0081300Y0077933D01*
X0081300Y0079532D02*
X0094279Y0079532D01*
X0095877Y0081130D02*
X0081300Y0081130D01*
X0081300Y0082729D02*
X0096382Y0082729D01*
X0096725Y0084327D02*
X0081300Y0084327D01*
X0081300Y0085926D02*
X0099822Y0085926D01*
X0096874Y0087524D02*
X0081300Y0087524D01*
X0081300Y0089123D02*
X0096382Y0089123D01*
X0096382Y0090721D02*
X0081300Y0090721D01*
X0081300Y0092320D02*
X0096382Y0092320D01*
X0096382Y0093918D02*
X0081300Y0093918D01*
X0076700Y0093918D02*
X0063743Y0093918D01*
X0065584Y0092320D02*
X0076700Y0092320D01*
X0076700Y0090721D02*
X0066535Y0090721D01*
X0067116Y0089123D02*
X0076700Y0089123D01*
X0076700Y0087524D02*
X0067116Y0087524D01*
X0066836Y0085926D02*
X0076700Y0085926D01*
X0076700Y0084327D02*
X0066174Y0084327D01*
X0064711Y0082729D02*
X0076700Y0082729D01*
X0079000Y0073500D02*
X0079000Y0126000D01*
X0082500Y0129500D01*
X0064432Y0143472D02*
X0138555Y0143472D01*
X0139569Y0130684D02*
X0143122Y0130684D01*
X0143122Y0129085D02*
X0141167Y0129085D01*
X0142766Y0127487D02*
X0142822Y0127487D01*
X0146984Y0125888D02*
X0146984Y0125888D01*
X0146000Y0116000D02*
X0134839Y0127161D01*
X0152618Y0108305D02*
X0154382Y0108305D01*
X0154382Y0103509D02*
X0152618Y0103509D01*
X0164957Y0118500D02*
X0164957Y0127102D01*
X0170016Y0127161D01*
X0173677Y0123500D01*
X0176000Y0123500D01*
X0170016Y0127161D02*
X0170016Y0129720D01*
X0188279Y0125888D02*
X0244000Y0125888D01*
X0244000Y0124290D02*
X0189245Y0124290D01*
X0189954Y0122691D02*
X0244000Y0122691D01*
X0244000Y0121093D02*
X0189954Y0121093D01*
X0213500Y0113500D02*
X0218500Y0108500D01*
X0218500Y0093500D01*
X0214000Y0093918D02*
X0213000Y0093918D01*
X0213000Y0092320D02*
X0214000Y0092320D01*
X0214000Y0090721D02*
X0213000Y0090721D01*
X0212800Y0089123D02*
X0214200Y0089123D01*
X0215112Y0087524D02*
X0211888Y0087524D01*
X0205112Y0087524D02*
X0195777Y0087524D01*
X0197375Y0089123D02*
X0204200Y0089123D01*
X0204000Y0090721D02*
X0198974Y0090721D01*
X0213000Y0095517D02*
X0214000Y0095517D01*
X0214000Y0097115D02*
X0213000Y0097115D01*
X0212454Y0098714D02*
X0214546Y0098714D01*
X0215948Y0100312D02*
X0211052Y0100312D01*
X0220800Y0101911D02*
X0221200Y0101911D01*
X0221052Y0100312D02*
X0221627Y0100312D01*
X0222454Y0098714D02*
X0223811Y0098714D01*
X0226169Y0100331D02*
X0231260Y0100331D01*
X0237998Y0095517D02*
X0238393Y0095517D01*
X0231531Y0093918D02*
X0223000Y0093918D01*
X0223000Y0092320D02*
X0231531Y0092320D01*
X0231531Y0090721D02*
X0223000Y0090721D01*
X0222800Y0089123D02*
X0231531Y0089123D01*
X0232299Y0087524D02*
X0221888Y0087524D01*
X0237701Y0087524D02*
X0238393Y0087524D01*
X0238393Y0073137D02*
X0237872Y0073137D01*
X0233278Y0073137D02*
X0227872Y0073137D01*
X0227439Y0073571D02*
X0223711Y0073571D01*
X0221075Y0070935D01*
X0221075Y0067207D01*
X0223711Y0064571D01*
X0227439Y0064571D01*
X0230075Y0067207D01*
X0230075Y0070935D01*
X0227439Y0073571D01*
X0229471Y0071539D02*
X0231679Y0071539D01*
X0231075Y0069940D02*
X0230075Y0069940D01*
X0230075Y0068342D02*
X0231075Y0068342D01*
X0231538Y0066743D02*
X0229612Y0066743D01*
X0228013Y0065145D02*
X0233137Y0065145D01*
X0233687Y0063546D02*
X0227463Y0063546D01*
X0227439Y0063571D02*
X0223711Y0063571D01*
X0221075Y0060935D01*
X0221075Y0057207D01*
X0223711Y0054571D01*
X0227439Y0054571D01*
X0230075Y0057207D01*
X0230075Y0060935D01*
X0227439Y0063571D01*
X0229062Y0061948D02*
X0232088Y0061948D01*
X0231075Y0060349D02*
X0230075Y0060349D01*
X0230075Y0058751D02*
X0231075Y0058751D01*
X0231007Y0057152D02*
X0230020Y0057152D01*
X0231007Y0055554D02*
X0228422Y0055554D01*
X0233307Y0056803D02*
X0235575Y0059071D01*
X0236000Y0058646D01*
X0233307Y0056803D02*
X0233307Y0033000D01*
X0237000Y0033000D02*
X0237000Y0041000D01*
X0220075Y0057207D02*
X0217439Y0054571D01*
X0213711Y0054571D01*
X0211075Y0057207D01*
X0211075Y0060935D01*
X0213711Y0063571D01*
X0217439Y0063571D01*
X0220075Y0060935D01*
X0220075Y0057207D01*
X0220020Y0057152D02*
X0221130Y0057152D01*
X0221075Y0058751D02*
X0220075Y0058751D01*
X0220075Y0060349D02*
X0221075Y0060349D01*
X0222088Y0061948D02*
X0219062Y0061948D01*
X0217463Y0063546D02*
X0223687Y0063546D01*
X0223137Y0065145D02*
X0218013Y0065145D01*
X0217439Y0064571D02*
X0220075Y0067207D01*
X0220075Y0070935D01*
X0217439Y0073571D01*
X0213711Y0073571D01*
X0211075Y0070935D01*
X0211075Y0067207D01*
X0213711Y0064571D01*
X0217439Y0064571D01*
X0219612Y0066743D02*
X0221538Y0066743D01*
X0221075Y0068342D02*
X0220075Y0068342D01*
X0220075Y0069940D02*
X0221075Y0069940D01*
X0221679Y0071539D02*
X0219471Y0071539D01*
X0217872Y0073137D02*
X0223278Y0073137D01*
X0213278Y0073137D02*
X0207872Y0073137D01*
X0209471Y0071539D02*
X0211679Y0071539D01*
X0211075Y0069940D02*
X0210075Y0069940D01*
X0210075Y0068342D02*
X0211075Y0068342D01*
X0211538Y0066743D02*
X0209612Y0066743D01*
X0208013Y0065145D02*
X0213137Y0065145D01*
X0213687Y0063546D02*
X0207463Y0063546D01*
X0209062Y0061948D02*
X0212088Y0061948D01*
X0211075Y0060349D02*
X0210075Y0060349D01*
X0210075Y0058751D02*
X0211075Y0058751D01*
X0211130Y0057152D02*
X0210020Y0057152D01*
X0208422Y0055554D02*
X0212728Y0055554D01*
X0218422Y0055554D02*
X0222728Y0055554D01*
X0237463Y0063546D02*
X0238393Y0063546D01*
X0238393Y0065145D02*
X0238013Y0065145D01*
X0227917Y0026781D02*
X0224083Y0026781D01*
X0222864Y0028000D02*
X0219136Y0028000D01*
X0216500Y0025364D01*
X0216500Y0021636D01*
X0219136Y0019000D01*
X0222864Y0019000D01*
X0225500Y0021636D01*
X0225500Y0025364D01*
X0222864Y0028000D01*
X0225500Y0025182D02*
X0226500Y0025182D01*
X0226500Y0023584D02*
X0225500Y0023584D01*
X0225500Y0021985D02*
X0226500Y0021985D01*
X0227749Y0020387D02*
X0224251Y0020387D01*
X0223674Y0017190D02*
X0228326Y0017190D01*
X0226727Y0015591D02*
X0225273Y0015591D01*
X0225500Y0013993D02*
X0226500Y0013993D01*
X0226500Y0012394D02*
X0225500Y0012394D01*
X0224659Y0010796D02*
X0227341Y0010796D01*
X0234659Y0010796D02*
X0237341Y0010796D01*
X0236500Y0012394D02*
X0235500Y0012394D01*
X0235500Y0013993D02*
X0236500Y0013993D01*
X0236727Y0015591D02*
X0235273Y0015591D01*
X0233674Y0017190D02*
X0238326Y0017190D01*
X0243674Y0017190D02*
X0244000Y0017190D01*
X0218326Y0017190D02*
X0213674Y0017190D01*
X0215273Y0015591D02*
X0216727Y0015591D01*
X0216500Y0013993D02*
X0215500Y0013993D01*
X0215500Y0012394D02*
X0216500Y0012394D01*
X0217341Y0010796D02*
X0214659Y0010796D01*
X0214251Y0020387D02*
X0217749Y0020387D01*
X0216500Y0021985D02*
X0215500Y0021985D01*
X0215500Y0023584D02*
X0216500Y0023584D01*
X0216500Y0025182D02*
X0215500Y0025182D01*
X0214083Y0026781D02*
X0217917Y0026781D01*
X0188326Y0017190D02*
X0183674Y0017190D01*
X0185273Y0015591D02*
X0186727Y0015591D01*
X0186500Y0013993D02*
X0185500Y0013993D01*
X0185500Y0012394D02*
X0186500Y0012394D01*
X0187341Y0010796D02*
X0184659Y0010796D01*
X0177341Y0010796D02*
X0174659Y0010796D01*
X0175500Y0012394D02*
X0176500Y0012394D01*
X0176500Y0013993D02*
X0175500Y0013993D01*
X0175273Y0015591D02*
X0176727Y0015591D01*
X0178326Y0017190D02*
X0173674Y0017190D01*
X0172864Y0019000D02*
X0169136Y0019000D01*
X0166500Y0021636D01*
X0166500Y0025364D01*
X0169136Y0028000D01*
X0172864Y0028000D01*
X0175500Y0025364D01*
X0175500Y0021636D01*
X0172864Y0019000D01*
X0174251Y0020387D02*
X0177749Y0020387D01*
X0176500Y0021636D02*
X0179136Y0019000D01*
X0182864Y0019000D01*
X0185500Y0021636D01*
X0185500Y0025364D01*
X0182864Y0028000D01*
X0179136Y0028000D01*
X0176500Y0025364D01*
X0176500Y0021636D01*
X0176500Y0021985D02*
X0175500Y0021985D01*
X0175500Y0023584D02*
X0176500Y0023584D01*
X0176500Y0025182D02*
X0175500Y0025182D01*
X0174083Y0026781D02*
X0177917Y0026781D01*
X0184083Y0026781D02*
X0187917Y0026781D01*
X0186500Y0025182D02*
X0185500Y0025182D01*
X0185500Y0023584D02*
X0186500Y0023584D01*
X0186500Y0021985D02*
X0185500Y0021985D01*
X0184251Y0020387D02*
X0187749Y0020387D01*
X0168326Y0017190D02*
X0163674Y0017190D01*
X0165273Y0015591D02*
X0166727Y0015591D01*
X0166500Y0013993D02*
X0165500Y0013993D01*
X0165500Y0012394D02*
X0166500Y0012394D01*
X0167341Y0010796D02*
X0164659Y0010796D01*
X0157341Y0010796D02*
X0154659Y0010796D01*
X0155500Y0012394D02*
X0156500Y0012394D01*
X0156500Y0013993D02*
X0155500Y0013993D01*
X0155273Y0015591D02*
X0156727Y0015591D01*
X0158326Y0017190D02*
X0153674Y0017190D01*
X0152864Y0019000D02*
X0149136Y0019000D01*
X0146500Y0021636D01*
X0146500Y0025364D01*
X0149136Y0028000D01*
X0152864Y0028000D01*
X0155500Y0025364D01*
X0155500Y0021636D01*
X0152864Y0019000D01*
X0154251Y0020387D02*
X0157749Y0020387D01*
X0156500Y0021636D02*
X0159136Y0019000D01*
X0162864Y0019000D01*
X0165500Y0021636D01*
X0165500Y0025364D01*
X0162864Y0028000D01*
X0159136Y0028000D01*
X0156500Y0025364D01*
X0156500Y0021636D01*
X0156500Y0021985D02*
X0155500Y0021985D01*
X0155500Y0023584D02*
X0156500Y0023584D01*
X0156500Y0025182D02*
X0155500Y0025182D01*
X0154083Y0026781D02*
X0157917Y0026781D01*
X0164083Y0026781D02*
X0167917Y0026781D01*
X0166500Y0025182D02*
X0165500Y0025182D01*
X0165500Y0023584D02*
X0166500Y0023584D01*
X0166500Y0021985D02*
X0165500Y0021985D01*
X0164251Y0020387D02*
X0167749Y0020387D01*
X0148326Y0017190D02*
X0143674Y0017190D01*
X0145273Y0015591D02*
X0146727Y0015591D01*
X0146500Y0013993D02*
X0145500Y0013993D01*
X0145500Y0012394D02*
X0146500Y0012394D01*
X0147341Y0010796D02*
X0144659Y0010796D01*
X0144251Y0020387D02*
X0147749Y0020387D01*
X0146500Y0021985D02*
X0145500Y0021985D01*
X0145500Y0023584D02*
X0146500Y0023584D01*
X0146500Y0025182D02*
X0145500Y0025182D01*
X0144083Y0026781D02*
X0147917Y0026781D01*
X0131200Y0028379D02*
X0130800Y0028379D01*
X0130800Y0029978D02*
X0131200Y0029978D01*
X0131200Y0031576D02*
X0130800Y0031576D01*
X0130800Y0033175D02*
X0131200Y0033175D01*
X0131200Y0034773D02*
X0130800Y0034773D01*
X0106065Y0025182D02*
X0105500Y0025182D01*
X0105500Y0025364D02*
X0102864Y0028000D01*
X0099136Y0028000D01*
X0096500Y0025364D01*
X0096500Y0021636D01*
X0099136Y0019000D01*
X0102864Y0019000D01*
X0105500Y0021636D01*
X0105500Y0025364D01*
X0104467Y0026781D02*
X0104083Y0026781D01*
X0102868Y0028379D02*
X0088312Y0028379D01*
X0088124Y0028318D02*
X0088843Y0028552D01*
X0089516Y0028895D01*
X0090127Y0029339D01*
X0090661Y0029873D01*
X0091105Y0030484D01*
X0091448Y0031157D01*
X0091682Y0031876D01*
X0091800Y0032622D01*
X0091800Y0035800D01*
X0087200Y0035800D01*
X0087200Y0028200D01*
X0087378Y0028200D01*
X0088124Y0028318D01*
X0087200Y0028379D02*
X0086800Y0028379D01*
X0086800Y0029978D02*
X0087200Y0029978D01*
X0087200Y0031576D02*
X0086800Y0031576D01*
X0086800Y0033175D02*
X0087200Y0033175D01*
X0087200Y0034773D02*
X0086800Y0034773D01*
X0091800Y0034773D02*
X0096474Y0034773D01*
X0098073Y0033175D02*
X0091800Y0033175D01*
X0091584Y0031576D02*
X0099671Y0031576D01*
X0101270Y0029978D02*
X0090737Y0029978D01*
X0094083Y0026781D02*
X0097917Y0026781D01*
X0096500Y0025182D02*
X0095500Y0025182D01*
X0095500Y0023584D02*
X0096500Y0023584D01*
X0096500Y0021985D02*
X0095500Y0021985D01*
X0094251Y0020387D02*
X0097749Y0020387D01*
X0098326Y0017190D02*
X0093674Y0017190D01*
X0095273Y0015591D02*
X0096727Y0015591D01*
X0096500Y0013993D02*
X0095500Y0013993D01*
X0095500Y0012394D02*
X0096500Y0012394D01*
X0097341Y0010796D02*
X0094659Y0010796D01*
X0104659Y0010796D02*
X0107341Y0010796D01*
X0106500Y0012394D02*
X0105500Y0012394D01*
X0105500Y0013993D02*
X0106500Y0013993D01*
X0106727Y0015591D02*
X0105273Y0015591D01*
X0103674Y0017190D02*
X0108326Y0017190D01*
X0113674Y0017190D02*
X0118326Y0017190D01*
X0116727Y0015591D02*
X0115273Y0015591D01*
X0115500Y0013993D02*
X0116500Y0013993D01*
X0116500Y0012394D02*
X0115500Y0012394D01*
X0114659Y0010796D02*
X0117341Y0010796D01*
X0107749Y0020387D02*
X0104251Y0020387D01*
X0105500Y0021985D02*
X0106500Y0021985D01*
X0106500Y0023584D02*
X0105500Y0023584D01*
X0094876Y0036372D02*
X0091800Y0036372D01*
X0091800Y0037970D02*
X0093277Y0037970D01*
X0088500Y0046000D02*
X0071000Y0046000D01*
X0067000Y0042000D01*
X0067000Y0036000D01*
X0062500Y0036372D02*
X0043000Y0036372D01*
X0043000Y0037970D02*
X0062500Y0037970D01*
X0062500Y0039569D02*
X0043000Y0039569D01*
X0043000Y0041167D02*
X0063027Y0041167D01*
X0064402Y0042766D02*
X0043000Y0042766D01*
X0043000Y0044364D02*
X0066112Y0044364D01*
X0067710Y0045963D02*
X0043000Y0045963D01*
X0043000Y0047561D02*
X0069309Y0047561D01*
X0071018Y0042766D02*
X0074402Y0042766D01*
X0073027Y0041167D02*
X0070973Y0041167D01*
X0071500Y0039569D02*
X0072500Y0039569D01*
X0072500Y0037970D02*
X0071500Y0037970D01*
X0071500Y0036372D02*
X0072500Y0036372D01*
X0072500Y0034773D02*
X0071500Y0034773D01*
X0071500Y0033175D02*
X0072500Y0033175D01*
X0072719Y0031576D02*
X0071281Y0031576D01*
X0070342Y0029978D02*
X0073658Y0029978D01*
X0073700Y0028379D02*
X0043000Y0028379D01*
X0043000Y0026781D02*
X0047917Y0026781D01*
X0049136Y0028000D02*
X0046500Y0025364D01*
X0046500Y0021636D01*
X0049136Y0019000D01*
X0052864Y0019000D01*
X0055500Y0021636D01*
X0055500Y0025364D01*
X0052864Y0028000D01*
X0049136Y0028000D01*
X0046500Y0025182D02*
X0043000Y0025182D01*
X0043000Y0023584D02*
X0046500Y0023584D01*
X0046500Y0021985D02*
X0043000Y0021985D01*
X0043000Y0020387D02*
X0047749Y0020387D01*
X0043000Y0018788D02*
X0053035Y0018788D01*
X0055500Y0018000D02*
X0051000Y0013500D01*
X0046500Y0013993D02*
X0043000Y0013993D01*
X0043000Y0015591D02*
X0046727Y0015591D01*
X0048326Y0017190D02*
X0043000Y0017190D01*
X0043000Y0012394D02*
X0046500Y0012394D01*
X0047341Y0010796D02*
X0043000Y0010796D01*
X0055500Y0018000D02*
X0074000Y0018000D01*
X0076000Y0020000D01*
X0076000Y0031000D01*
X0077000Y0032000D01*
X0077000Y0036000D01*
X0067917Y0026781D02*
X0064083Y0026781D01*
X0065500Y0025182D02*
X0066500Y0025182D01*
X0066500Y0023584D02*
X0065500Y0023584D01*
X0065500Y0021985D02*
X0066500Y0021985D01*
X0067749Y0020387D02*
X0064251Y0020387D01*
X0057749Y0020387D02*
X0054251Y0020387D01*
X0055500Y0021985D02*
X0056500Y0021985D01*
X0056500Y0023584D02*
X0055500Y0023584D01*
X0055500Y0025182D02*
X0056500Y0025182D01*
X0057917Y0026781D02*
X0054083Y0026781D01*
X0062719Y0031576D02*
X0043000Y0031576D01*
X0043000Y0029978D02*
X0063658Y0029978D01*
X0062500Y0033175D02*
X0043000Y0033175D01*
X0043000Y0034773D02*
X0062500Y0034773D01*
X0056322Y0052357D02*
X0043000Y0052357D01*
X0043000Y0053955D02*
X0054723Y0053955D01*
X0053934Y0055554D02*
X0043000Y0055554D01*
X0043000Y0057152D02*
X0053466Y0057152D01*
X0053466Y0058751D02*
X0043000Y0058751D01*
X0043000Y0060349D02*
X0053861Y0060349D01*
X0054548Y0061948D02*
X0043000Y0061948D01*
X0043000Y0063546D02*
X0056146Y0063546D01*
X0089009Y0066743D02*
X0098491Y0066743D01*
X0096892Y0065145D02*
X0090608Y0065145D01*
X0092206Y0063546D02*
X0096200Y0063546D01*
X0096200Y0061948D02*
X0093805Y0061948D01*
X0095403Y0060349D02*
X0096200Y0060349D01*
X0098500Y0058500D02*
X0099750Y0057250D01*
X0104455Y0057250D01*
X0104484Y0057280D01*
X0098500Y0058500D02*
X0098500Y0063500D01*
X0112457Y0077457D01*
X0112457Y0081000D01*
X0112457Y0091000D01*
X0103469Y0089123D02*
X0103130Y0089123D01*
X0103469Y0098714D02*
X0102531Y0098714D01*
X0102531Y0100312D02*
X0103469Y0100312D01*
X0106543Y0101000D02*
X0103000Y0104543D01*
X0103000Y0107000D01*
X0099457Y0110543D01*
X0099457Y0111000D01*
X0076700Y0111502D02*
X0066245Y0111502D01*
X0066907Y0109903D02*
X0076700Y0109903D01*
X0076700Y0108305D02*
X0067116Y0108305D01*
X0067116Y0106706D02*
X0076700Y0106706D01*
X0076700Y0105108D02*
X0066464Y0105108D01*
X0065413Y0103509D02*
X0076700Y0103509D01*
X0076700Y0101911D02*
X0063330Y0101911D01*
X0064882Y0113100D02*
X0076700Y0113100D01*
X0122618Y0093918D02*
X0124382Y0093918D01*
X0149543Y0081000D02*
X0149543Y0079543D01*
X0133500Y0063500D01*
X0146984Y0050758D02*
X0146984Y0050758D01*
X0108082Y0076334D02*
X0097587Y0076334D01*
X0095989Y0074736D02*
X0106483Y0074736D01*
X0149543Y0081000D02*
X0157457Y0081000D01*
X0220800Y0103509D02*
X0221553Y0103509D01*
X0231207Y0108305D02*
X0231207Y0108305D01*
X0231207Y0109903D02*
X0231207Y0109903D01*
X0231207Y0111502D02*
X0231207Y0111502D01*
X0231207Y0113100D02*
X0231207Y0113100D01*
X0231207Y0114699D02*
X0231207Y0114699D01*
X0234377Y0114699D02*
X0235434Y0114699D01*
X0235219Y0113100D02*
X0234581Y0113100D01*
X0070800Y0013700D02*
X0070800Y0013300D01*
X0066200Y0013300D01*
X0066200Y0011512D01*
X0067212Y0010500D01*
X0064364Y0010500D01*
X0065500Y0011636D01*
X0065500Y0015364D01*
X0065164Y0015700D01*
X0066412Y0015700D01*
X0066200Y0015488D01*
X0066200Y0013700D01*
X0070800Y0013700D01*
X0066200Y0013993D02*
X0065500Y0013993D01*
X0065500Y0012394D02*
X0066200Y0012394D01*
X0066916Y0010796D02*
X0064659Y0010796D01*
X0065273Y0015591D02*
X0066303Y0015591D01*
D24*
X0101000Y0041000D03*
X0099000Y0050500D03*
X0133500Y0053500D03*
X0141000Y0041000D03*
X0172500Y0063500D03*
X0186000Y0041000D03*
X0237000Y0041000D03*
X0153500Y0086000D03*
X0168500Y0096000D03*
X0191000Y0093500D03*
X0224500Y0102000D03*
X0186000Y0123500D03*
X0176000Y0123500D03*
X0175000Y0138500D03*
X0140750Y0141000D03*
X0103500Y0123500D03*
X0098500Y0121000D03*
X0096000Y0136000D03*
X0131000Y0111000D03*
M02*
