%
M48
M72
T01C0.02000
T02C0.03600
T03C0.04000
T04C0.07100
%
T01
X76500Y40800
X86500Y36800
X98500Y31300
X105000Y43300
X84050Y53450
X85500Y63300
X100500Y75800
X119000Y72800
X128000Y65800
X133500Y55800
X142000Y53800
X142000Y42800
X172500Y65800
X187500Y54300
X237000Y43300
X153500Y88300
X168500Y98300
X191000Y95800
X224500Y104300
X186000Y125800
X176000Y125800
X175000Y140800
X140750Y143300
X103500Y125800
X98500Y123300
X96000Y138300
X131000Y113300
X109500Y107800
X123000Y98300
T02
X91000Y75300
X91000Y125300
T03
X51000Y15800
X61000Y15800
X71000Y15800
X81000Y15800
X91000Y15800
X101000Y15800
X111000Y15800
X121000Y15800
X131000Y15800
X141000Y15800
X151000Y15800
X161000Y15800
X171000Y15800
X181000Y15800
X191000Y15800
X201000Y15800
X211000Y15800
X221000Y15800
X231000Y15800
X241000Y15800
X241000Y25800
X231000Y25800
X221000Y25800
X211000Y25800
X201000Y25800
X191000Y25800
X181000Y25800
X171000Y25800
X161000Y25800
X151000Y25800
X141000Y25800
X131000Y25800
X121000Y25800
X111000Y25800
X101000Y25800
X91000Y25800
X81000Y25800
X71000Y25800
X61000Y25800
X51000Y25800
X111500Y38800
X121500Y38800
X131500Y38800
X156000Y38800
X166000Y38800
X176000Y38800
X195575Y61371
X205575Y61371
X215575Y61371
X225575Y61371
X235575Y61371
X235575Y71371
X225575Y71371
X215575Y71371
X205575Y71371
X195575Y71371
X208500Y95800
X218500Y95800
T04
X60291Y90261
X60291Y110339
X60291Y140261
X60291Y60339
M30
