G75*
%MOIN*%
%OFA0B0*%
%FSLAX25Y25*%
%IPPOS*%
%LPD*%
%AMOC8*
5,1,8,0,0,1.08239X$1,22.5*
%
%ADD10C,0.00600*%
%ADD11C,0.02200*%
%ADD12C,0.00800*%
%ADD13C,0.02559*%
%ADD14C,0.00400*%
%ADD15R,0.03937X0.00394*%
%ADD16C,0.00500*%
D10*
X0046000Y0013300D02*
X0046000Y0028300D01*
X0048500Y0030800D01*
X0053500Y0030800D01*
X0056000Y0028300D01*
X0056000Y0013300D01*
X0058500Y0010800D01*
X0063500Y0010800D01*
X0066000Y0013300D01*
X0066000Y0028300D01*
X0068500Y0030800D01*
X0073500Y0030800D01*
X0076000Y0028300D01*
X0076000Y0013300D01*
X0078500Y0010800D01*
X0083500Y0010800D01*
X0086000Y0013300D01*
X0086000Y0028300D01*
X0088500Y0030800D01*
X0093500Y0030800D01*
X0096000Y0028300D01*
X0096000Y0013300D01*
X0098500Y0010800D01*
X0103500Y0010800D01*
X0106000Y0013300D01*
X0106000Y0028300D01*
X0108500Y0030800D01*
X0113500Y0030800D01*
X0116000Y0028300D01*
X0116000Y0013300D01*
X0113500Y0010800D01*
X0108500Y0010800D01*
X0106000Y0013300D01*
X0116000Y0013300D02*
X0118500Y0010800D01*
X0123500Y0010800D01*
X0126000Y0013300D01*
X0126000Y0028300D01*
X0128500Y0030800D01*
X0133500Y0030800D01*
X0136000Y0028300D01*
X0136000Y0013300D01*
X0133500Y0010800D01*
X0128500Y0010800D01*
X0126000Y0013300D01*
X0136000Y0013300D02*
X0138500Y0010800D01*
X0143500Y0010800D01*
X0146000Y0013300D01*
X0146000Y0028300D01*
X0148500Y0030800D01*
X0153500Y0030800D01*
X0156000Y0028300D01*
X0156000Y0013300D01*
X0153500Y0010800D01*
X0148500Y0010800D01*
X0146000Y0013300D01*
X0156000Y0013300D02*
X0158500Y0010800D01*
X0163500Y0010800D01*
X0166000Y0013300D01*
X0166000Y0028300D01*
X0168500Y0030800D01*
X0173500Y0030800D01*
X0176000Y0028300D01*
X0176000Y0013300D01*
X0173500Y0010800D01*
X0168500Y0010800D01*
X0166000Y0013300D01*
X0176000Y0013300D02*
X0178500Y0010800D01*
X0183500Y0010800D01*
X0186000Y0013300D01*
X0186000Y0028300D01*
X0188500Y0030800D01*
X0193500Y0030800D01*
X0196000Y0028300D01*
X0196000Y0013300D01*
X0193500Y0010800D01*
X0188500Y0010800D01*
X0186000Y0013300D01*
X0196000Y0013300D02*
X0198500Y0010800D01*
X0203500Y0010800D01*
X0206000Y0013300D01*
X0206000Y0028300D01*
X0208500Y0030800D01*
X0213500Y0030800D01*
X0216000Y0028300D01*
X0216000Y0013300D01*
X0213500Y0010800D01*
X0208500Y0010800D01*
X0206000Y0013300D01*
X0216000Y0013300D02*
X0218500Y0010800D01*
X0223500Y0010800D01*
X0226000Y0013300D01*
X0226000Y0028300D01*
X0228500Y0030800D01*
X0233500Y0030800D01*
X0236000Y0028300D01*
X0238500Y0030800D01*
X0243500Y0030800D01*
X0246000Y0028300D01*
X0246000Y0013300D01*
X0243500Y0010800D01*
X0238500Y0010800D01*
X0236000Y0013300D01*
X0236000Y0028300D01*
X0226000Y0028300D02*
X0223500Y0030800D01*
X0218500Y0030800D01*
X0216000Y0028300D01*
X0206000Y0028300D02*
X0203500Y0030800D01*
X0198500Y0030800D01*
X0196000Y0028300D01*
X0201500Y0032300D02*
X0190500Y0032300D01*
X0190440Y0032302D01*
X0190379Y0032307D01*
X0190320Y0032316D01*
X0190261Y0032329D01*
X0190202Y0032345D01*
X0190145Y0032365D01*
X0190090Y0032388D01*
X0190035Y0032415D01*
X0189983Y0032444D01*
X0189932Y0032477D01*
X0189883Y0032513D01*
X0189837Y0032551D01*
X0189793Y0032593D01*
X0189751Y0032637D01*
X0189713Y0032683D01*
X0189677Y0032732D01*
X0189644Y0032783D01*
X0189615Y0032835D01*
X0189588Y0032890D01*
X0189565Y0032945D01*
X0189545Y0033002D01*
X0189529Y0033061D01*
X0189516Y0033120D01*
X0189507Y0033179D01*
X0189502Y0033240D01*
X0189500Y0033300D01*
X0189500Y0039300D01*
X0189502Y0039360D01*
X0189507Y0039421D01*
X0189516Y0039480D01*
X0189529Y0039539D01*
X0189545Y0039598D01*
X0189565Y0039655D01*
X0189588Y0039710D01*
X0189615Y0039765D01*
X0189644Y0039817D01*
X0189677Y0039868D01*
X0189713Y0039917D01*
X0189751Y0039963D01*
X0189793Y0040007D01*
X0189837Y0040049D01*
X0189883Y0040087D01*
X0189932Y0040123D01*
X0189983Y0040156D01*
X0190035Y0040185D01*
X0190090Y0040212D01*
X0190145Y0040235D01*
X0190202Y0040255D01*
X0190261Y0040271D01*
X0190320Y0040284D01*
X0190379Y0040293D01*
X0190440Y0040298D01*
X0190500Y0040300D01*
X0201500Y0040300D01*
X0201560Y0040298D01*
X0201621Y0040293D01*
X0201680Y0040284D01*
X0201739Y0040271D01*
X0201798Y0040255D01*
X0201855Y0040235D01*
X0201910Y0040212D01*
X0201965Y0040185D01*
X0202017Y0040156D01*
X0202068Y0040123D01*
X0202117Y0040087D01*
X0202163Y0040049D01*
X0202207Y0040007D01*
X0202249Y0039963D01*
X0202287Y0039917D01*
X0202323Y0039868D01*
X0202356Y0039817D01*
X0202385Y0039765D01*
X0202412Y0039710D01*
X0202435Y0039655D01*
X0202455Y0039598D01*
X0202471Y0039539D01*
X0202484Y0039480D01*
X0202493Y0039421D01*
X0202498Y0039360D01*
X0202500Y0039300D01*
X0202500Y0033300D01*
X0202498Y0033240D01*
X0202493Y0033179D01*
X0202484Y0033120D01*
X0202471Y0033061D01*
X0202455Y0033002D01*
X0202435Y0032945D01*
X0202412Y0032890D01*
X0202385Y0032835D01*
X0202356Y0032783D01*
X0202323Y0032732D01*
X0202287Y0032683D01*
X0202249Y0032637D01*
X0202207Y0032593D01*
X0202163Y0032551D01*
X0202117Y0032513D01*
X0202068Y0032477D01*
X0202017Y0032444D01*
X0201965Y0032415D01*
X0201910Y0032388D01*
X0201855Y0032365D01*
X0201798Y0032345D01*
X0201739Y0032329D01*
X0201680Y0032316D01*
X0201621Y0032307D01*
X0201560Y0032302D01*
X0201500Y0032300D01*
X0186000Y0028300D02*
X0183500Y0030800D01*
X0178500Y0030800D01*
X0176000Y0028300D01*
X0173500Y0033800D02*
X0171000Y0036300D01*
X0168500Y0033800D01*
X0163500Y0033800D01*
X0161000Y0036300D01*
X0158500Y0033800D01*
X0153500Y0033800D01*
X0151000Y0036300D01*
X0151000Y0041300D01*
X0153500Y0043800D01*
X0158500Y0043800D01*
X0161000Y0041300D01*
X0163500Y0043800D01*
X0168500Y0043800D01*
X0171000Y0041300D01*
X0173500Y0043800D01*
X0178500Y0043800D01*
X0181000Y0041300D01*
X0181000Y0036300D01*
X0178500Y0033800D01*
X0173500Y0033800D01*
X0171000Y0036300D02*
X0171000Y0041300D01*
X0161000Y0041300D02*
X0161000Y0036300D01*
X0158500Y0030800D02*
X0163500Y0030800D01*
X0166000Y0028300D01*
X0158500Y0030800D02*
X0156000Y0028300D01*
X0146000Y0028300D02*
X0143500Y0030800D01*
X0138500Y0030800D01*
X0136000Y0028300D01*
X0134000Y0033800D02*
X0129000Y0033800D01*
X0126500Y0036300D01*
X0124000Y0033800D01*
X0119000Y0033800D01*
X0116500Y0036300D01*
X0114000Y0033800D01*
X0109000Y0033800D01*
X0106500Y0036300D01*
X0106500Y0041300D01*
X0109000Y0043800D01*
X0114000Y0043800D01*
X0116500Y0041300D01*
X0119000Y0043800D01*
X0124000Y0043800D01*
X0126500Y0041300D01*
X0129000Y0043800D01*
X0134000Y0043800D01*
X0136500Y0041300D01*
X0136500Y0036300D01*
X0134000Y0033800D01*
X0126500Y0036300D02*
X0126500Y0041300D01*
X0116500Y0041300D02*
X0116500Y0036300D01*
X0118500Y0030800D02*
X0123500Y0030800D01*
X0126000Y0028300D01*
X0118500Y0030800D02*
X0116000Y0028300D01*
X0106000Y0028300D02*
X0103500Y0030800D01*
X0098500Y0030800D01*
X0096000Y0028300D01*
X0086000Y0028300D02*
X0083500Y0030800D01*
X0078500Y0030800D01*
X0076000Y0028300D01*
X0066000Y0028300D02*
X0063500Y0030800D01*
X0058500Y0030800D01*
X0056000Y0028300D01*
X0056000Y0013300D02*
X0053500Y0010800D01*
X0048500Y0010800D01*
X0046000Y0013300D01*
X0066000Y0013300D02*
X0068500Y0010800D01*
X0073500Y0010800D01*
X0076000Y0013300D01*
X0086000Y0013300D02*
X0088500Y0010800D01*
X0093500Y0010800D01*
X0096000Y0013300D01*
X0174819Y0070938D02*
X0177181Y0070938D01*
X0177181Y0075662D02*
X0174819Y0075662D01*
X0174819Y0080938D02*
X0177181Y0080938D01*
X0177181Y0085662D02*
X0174819Y0085662D01*
X0174819Y0090938D02*
X0177181Y0090938D01*
X0177181Y0095662D02*
X0174819Y0095662D01*
X0174819Y0100938D02*
X0177181Y0100938D01*
X0177181Y0105662D02*
X0174819Y0105662D01*
X0174819Y0110938D02*
X0177181Y0110938D01*
X0177181Y0115662D02*
X0174819Y0115662D01*
X0169681Y0118438D02*
X0167319Y0118438D01*
X0162181Y0115662D02*
X0159819Y0115662D01*
X0159819Y0110938D02*
X0162181Y0110938D01*
X0162181Y0105662D02*
X0159819Y0105662D01*
X0159819Y0100938D02*
X0162181Y0100938D01*
X0162181Y0095662D02*
X0159819Y0095662D01*
X0159819Y0090938D02*
X0162181Y0090938D01*
X0162181Y0085662D02*
X0159819Y0085662D01*
X0159819Y0080938D02*
X0162181Y0080938D01*
X0147181Y0080938D02*
X0144819Y0080938D01*
X0144819Y0085662D02*
X0147181Y0085662D01*
X0147181Y0090938D02*
X0144819Y0090938D01*
X0144819Y0095662D02*
X0147181Y0095662D01*
X0147181Y0100938D02*
X0144819Y0100938D01*
X0144819Y0105662D02*
X0147181Y0105662D01*
X0147181Y0110938D02*
X0144819Y0110938D01*
X0144819Y0115662D02*
X0147181Y0115662D01*
X0132181Y0105662D02*
X0129819Y0105662D01*
X0129819Y0100938D02*
X0132181Y0100938D01*
X0132181Y0095662D02*
X0129819Y0095662D01*
X0129819Y0090938D02*
X0132181Y0090938D01*
X0117181Y0090938D02*
X0114819Y0090938D01*
X0114819Y0095662D02*
X0117181Y0095662D01*
X0117181Y0100938D02*
X0114819Y0100938D01*
X0114819Y0105662D02*
X0117181Y0105662D01*
X0117181Y0110938D02*
X0114819Y0110938D01*
X0114819Y0115662D02*
X0117181Y0115662D01*
X0104181Y0115662D02*
X0101819Y0115662D01*
X0101819Y0110938D02*
X0104181Y0110938D01*
X0104181Y0105662D02*
X0101819Y0105662D01*
X0101819Y0100938D02*
X0104181Y0100938D01*
X0104181Y0095662D02*
X0101819Y0095662D01*
X0101819Y0090938D02*
X0104181Y0090938D01*
X0104181Y0085662D02*
X0101819Y0085662D01*
X0101819Y0080938D02*
X0104181Y0080938D01*
X0114819Y0080938D02*
X0117181Y0080938D01*
X0117181Y0085662D02*
X0114819Y0085662D01*
X0167319Y0123162D02*
X0169681Y0123162D01*
X0203500Y0098300D02*
X0206000Y0100800D01*
X0211000Y0100800D01*
X0213500Y0098300D01*
X0216000Y0100800D01*
X0221000Y0100800D01*
X0223500Y0098300D01*
X0223500Y0093300D01*
X0221000Y0090800D01*
X0216000Y0090800D01*
X0213500Y0093300D01*
X0211000Y0090800D01*
X0206000Y0090800D01*
X0203500Y0093300D01*
X0203500Y0098300D01*
X0213500Y0098300D02*
X0213500Y0093300D01*
X0213075Y0076371D02*
X0218075Y0076371D01*
X0220575Y0073871D01*
X0220575Y0058871D01*
X0223075Y0056371D01*
X0228075Y0056371D01*
X0230575Y0058871D01*
X0233075Y0056371D01*
X0238075Y0056371D01*
X0240575Y0058871D01*
X0240575Y0073871D01*
X0238075Y0076371D01*
X0233075Y0076371D01*
X0230575Y0073871D01*
X0230575Y0058871D01*
X0220575Y0058871D02*
X0218075Y0056371D01*
X0213075Y0056371D01*
X0210575Y0058871D01*
X0210575Y0073871D01*
X0213075Y0076371D01*
X0210575Y0073871D02*
X0208075Y0076371D01*
X0203075Y0076371D01*
X0200575Y0073871D01*
X0200575Y0058871D01*
X0203075Y0056371D01*
X0208075Y0056371D01*
X0210575Y0058871D01*
X0200575Y0058871D02*
X0198075Y0056371D01*
X0193075Y0056371D01*
X0190575Y0058871D01*
X0190575Y0073871D01*
X0193075Y0076371D01*
X0198075Y0076371D01*
X0200575Y0073871D01*
X0220575Y0073871D02*
X0223075Y0076371D01*
X0228075Y0076371D01*
X0230575Y0073871D01*
X0233569Y0111438D02*
X0235931Y0111438D01*
X0235931Y0116162D02*
X0233569Y0116162D01*
X0236000Y0013300D02*
X0233500Y0010800D01*
X0228500Y0010800D01*
X0226000Y0013300D01*
D11*
X0176000Y0083180D02*
X0176000Y0083420D01*
X0161000Y0083420D02*
X0161000Y0083180D01*
X0161000Y0093180D02*
X0161000Y0093420D01*
X0161000Y0103180D02*
X0161000Y0103420D01*
X0161000Y0113180D02*
X0161000Y0113420D01*
X0146000Y0113420D02*
X0146000Y0113180D01*
X0116000Y0103420D02*
X0116000Y0103180D01*
X0116000Y0093420D02*
X0116000Y0093180D01*
X0103000Y0083420D02*
X0103000Y0083180D01*
X0103000Y0103180D02*
X0103000Y0103420D01*
X0146000Y0083420D02*
X0146000Y0083180D01*
X0176000Y0113180D02*
X0176000Y0113420D01*
D12*
X0166965Y0127788D02*
X0166965Y0138812D01*
X0150035Y0138812D01*
X0150035Y0127788D01*
X0166965Y0127788D01*
X0124465Y0127788D02*
X0124465Y0138812D01*
X0107535Y0138812D01*
X0107535Y0127788D01*
X0124465Y0127788D01*
X0124465Y0063812D02*
X0107535Y0063812D01*
X0107535Y0052788D01*
X0124465Y0052788D01*
X0124465Y0063812D01*
X0150035Y0063812D02*
X0150035Y0052788D01*
X0166965Y0052788D01*
X0166965Y0063812D01*
X0150035Y0063812D01*
D13*
X0164898Y0055741D03*
X0109602Y0060859D03*
X0164898Y0130741D03*
X0109602Y0135859D03*
D14*
X0216111Y0043569D02*
X0217646Y0045104D01*
X0217646Y0040500D01*
X0219180Y0040500D02*
X0216111Y0040500D01*
X0220715Y0042035D02*
X0222250Y0040500D01*
X0223784Y0042035D01*
X0223784Y0045104D01*
X0220715Y0045104D02*
X0220715Y0042035D01*
X0225319Y0042802D02*
X0228388Y0042802D01*
X0231457Y0040500D02*
X0231457Y0045104D01*
X0229923Y0045104D02*
X0232992Y0045104D01*
X0234527Y0045104D02*
X0236061Y0045104D01*
X0235294Y0045104D02*
X0235294Y0040500D01*
X0234527Y0040500D02*
X0236061Y0040500D01*
X0237596Y0040500D02*
X0240665Y0040500D01*
X0239131Y0042802D02*
X0237596Y0042802D01*
X0237596Y0045104D02*
X0237596Y0040500D01*
X0237596Y0045104D02*
X0240665Y0045104D01*
D15*
X0189425Y0099422D03*
X0189425Y0102178D03*
X0189425Y0109422D03*
X0189425Y0112178D03*
D16*
X0094937Y0101678D02*
X0094937Y0148922D01*
X0042181Y0148922D01*
X0042181Y0101678D01*
X0094937Y0101678D01*
X0094937Y0098922D02*
X0094937Y0051678D01*
X0042181Y0051678D01*
X0042181Y0098922D01*
X0094937Y0098922D01*
M02*
