G75*
%MOIN*%
%OFA0B0*%
%FSLAX25Y25*%
%IPPOS*%
%LPD*%
%AMOC8*
5,1,8,0,0,1.08239X$1,22.5*
%
%ADD10R,0.03950X0.05524*%
%ADD11OC8,0.06800*%
%ADD12R,0.05524X0.02178*%
%ADD13R,0.04737X0.06312*%
%ADD14C,0.03950*%
%ADD15C,0.01581*%
%ADD16R,0.03359X0.02965*%
%ADD17C,0.06800*%
%ADD18C,0.06400*%
%ADD19C,0.11450*%
%ADD20R,0.05400X0.07100*%
%ADD21R,0.00600X0.07200*%
%ADD22C,0.04400*%
D10*
X0099457Y0081000D03*
X0106543Y0081000D03*
X0112457Y0081000D03*
X0119543Y0081000D03*
X0119543Y0091000D03*
X0112457Y0091000D03*
X0106543Y0091000D03*
X0099457Y0091000D03*
X0099457Y0101000D03*
X0106543Y0101000D03*
X0112457Y0101000D03*
X0119543Y0101000D03*
X0127457Y0101000D03*
X0134543Y0101000D03*
X0142457Y0101000D03*
X0149543Y0101000D03*
X0157457Y0101000D03*
X0164543Y0101000D03*
X0172457Y0101000D03*
X0179543Y0101000D03*
X0179543Y0091000D03*
X0172457Y0091000D03*
X0164543Y0091000D03*
X0157457Y0091000D03*
X0149543Y0091000D03*
X0142457Y0091000D03*
X0134543Y0091000D03*
X0127457Y0091000D03*
X0142457Y0081000D03*
X0149543Y0081000D03*
X0157457Y0081000D03*
X0164543Y0081000D03*
X0172457Y0081000D03*
X0179543Y0081000D03*
X0179543Y0071000D03*
X0172457Y0071000D03*
X0172457Y0111000D03*
X0179543Y0111000D03*
X0172043Y0118500D03*
X0164957Y0118500D03*
X0164543Y0111000D03*
X0157457Y0111000D03*
X0149543Y0111000D03*
X0142457Y0111000D03*
X0119543Y0111000D03*
X0112457Y0111000D03*
X0106543Y0111000D03*
X0099457Y0111000D03*
X0231207Y0111500D03*
X0238293Y0111500D03*
D11*
X0051000Y0013500D03*
X0061000Y0013500D03*
X0071000Y0013500D03*
X0081000Y0013500D03*
X0091000Y0013500D03*
X0101000Y0013500D03*
X0111000Y0013500D03*
X0121000Y0013500D03*
X0131000Y0013500D03*
X0141000Y0013500D03*
X0151000Y0013500D03*
X0161000Y0013500D03*
X0171000Y0013500D03*
X0181000Y0013500D03*
X0191000Y0013500D03*
X0201000Y0013500D03*
X0211000Y0013500D03*
X0221000Y0013500D03*
X0231000Y0013500D03*
X0241000Y0013500D03*
X0241000Y0023500D03*
X0231000Y0023500D03*
X0221000Y0023500D03*
X0211000Y0023500D03*
X0201000Y0023500D03*
X0191000Y0023500D03*
X0181000Y0023500D03*
X0171000Y0023500D03*
X0161000Y0023500D03*
X0151000Y0023500D03*
X0141000Y0023500D03*
X0131000Y0023500D03*
X0121000Y0023500D03*
X0111000Y0023500D03*
X0101000Y0023500D03*
X0091000Y0023500D03*
X0081000Y0023500D03*
X0071000Y0023500D03*
X0061000Y0023500D03*
X0051000Y0023500D03*
X0195575Y0059071D03*
X0205575Y0059071D03*
X0215575Y0059071D03*
X0225575Y0059071D03*
X0235575Y0059071D03*
X0235575Y0069071D03*
X0225575Y0069071D03*
X0215575Y0069071D03*
X0205575Y0069071D03*
X0195575Y0069071D03*
D12*
X0170016Y0059839D03*
X0170016Y0057280D03*
X0170016Y0054720D03*
X0170016Y0052161D03*
X0146984Y0052161D03*
X0146984Y0054720D03*
X0146984Y0057280D03*
X0146984Y0059839D03*
X0127516Y0059839D03*
X0127516Y0057280D03*
X0127516Y0054720D03*
X0127516Y0052161D03*
X0104484Y0052161D03*
X0104484Y0054720D03*
X0104484Y0057280D03*
X0104484Y0059839D03*
X0104484Y0127161D03*
X0104484Y0129720D03*
X0104484Y0132280D03*
X0104484Y0134839D03*
X0127516Y0134839D03*
X0127516Y0132280D03*
X0127516Y0129720D03*
X0127516Y0127161D03*
X0146984Y0127161D03*
X0146984Y0129720D03*
X0146984Y0132280D03*
X0146984Y0134839D03*
X0170016Y0134839D03*
X0170016Y0132280D03*
X0170016Y0129720D03*
X0170016Y0127161D03*
D13*
X0231260Y0100331D03*
X0238740Y0100331D03*
X0235000Y0091669D03*
D14*
X0233503Y0033000D02*
X0233111Y0033000D01*
X0240497Y0033000D02*
X0240889Y0033000D01*
D15*
X0237791Y0034578D02*
X0237791Y0031422D01*
X0236209Y0031422D01*
X0236209Y0034578D01*
X0237791Y0034578D01*
X0237791Y0033002D02*
X0236209Y0033002D01*
D16*
X0191394Y0098500D03*
X0187654Y0098500D03*
X0187654Y0108500D03*
X0191394Y0108500D03*
D17*
X0208500Y0096500D02*
X0208500Y0090500D01*
X0218500Y0090500D02*
X0218500Y0096500D01*
X0131000Y0039000D02*
X0131000Y0033000D01*
X0121000Y0033000D02*
X0121000Y0039000D01*
X0111000Y0039000D02*
X0111000Y0033000D01*
X0087000Y0033000D02*
X0087000Y0039000D01*
X0077000Y0039000D02*
X0077000Y0033000D01*
X0067000Y0033000D02*
X0067000Y0039000D01*
D18*
X0091000Y0073000D03*
X0091000Y0123000D03*
D19*
X0060291Y0108039D03*
X0060291Y0087961D03*
X0060291Y0058039D03*
X0060291Y0137961D03*
D20*
X0193000Y0034000D03*
X0199000Y0034000D03*
D21*
X0196000Y0034000D03*
D22*
X0186000Y0041000D03*
X0172500Y0063500D03*
X0153500Y0086000D03*
X0168500Y0096000D03*
X0191000Y0093500D03*
X0224500Y0102000D03*
X0186000Y0123500D03*
X0176000Y0123500D03*
X0175000Y0138500D03*
X0140750Y0141000D03*
X0103500Y0123500D03*
X0098500Y0121000D03*
X0096000Y0136000D03*
X0131000Y0111000D03*
X0133500Y0053500D03*
X0141000Y0041000D03*
X0101000Y0041000D03*
X0099000Y0050500D03*
X0237000Y0041000D03*
M02*
