G04 EAGLE Gerber RS-274X export*
G75*
%MOMM*%
%FSLAX34Y34*%
%LPD*%
%INSilkscreen Bottom*%
%IPPOS*%
%AMOC8*
5,1,8,0,0,1.08239X$1,22.5*%
G01*
%ADD10C,0.101600*%
%ADD11C,0.127000*%


D10*
X1143706Y913638D02*
X1143706Y925322D01*
X1143706Y920129D02*
X1137214Y920129D01*
X1137214Y925322D02*
X1137214Y913638D01*
X1155756Y913638D02*
X1155756Y925322D01*
X1155756Y913638D02*
X1150564Y913638D01*
X1162615Y916234D02*
X1162617Y916135D01*
X1162623Y916035D01*
X1162632Y915936D01*
X1162645Y915838D01*
X1162662Y915740D01*
X1162683Y915642D01*
X1162708Y915546D01*
X1162736Y915451D01*
X1162768Y915357D01*
X1162803Y915264D01*
X1162842Y915172D01*
X1162885Y915082D01*
X1162930Y914994D01*
X1162980Y914907D01*
X1163032Y914823D01*
X1163088Y914740D01*
X1163146Y914660D01*
X1163208Y914582D01*
X1163273Y914507D01*
X1163341Y914434D01*
X1163411Y914364D01*
X1163484Y914296D01*
X1163559Y914231D01*
X1163637Y914169D01*
X1163717Y914111D01*
X1163800Y914055D01*
X1163884Y914003D01*
X1163971Y913953D01*
X1164059Y913908D01*
X1164149Y913865D01*
X1164241Y913826D01*
X1164334Y913791D01*
X1164428Y913759D01*
X1164523Y913731D01*
X1164619Y913706D01*
X1164717Y913685D01*
X1164815Y913668D01*
X1164913Y913655D01*
X1165012Y913646D01*
X1165112Y913640D01*
X1165211Y913638D01*
X1165355Y913640D01*
X1165500Y913646D01*
X1165644Y913655D01*
X1165787Y913668D01*
X1165931Y913685D01*
X1166074Y913706D01*
X1166216Y913731D01*
X1166357Y913759D01*
X1166498Y913791D01*
X1166638Y913827D01*
X1166777Y913866D01*
X1166915Y913909D01*
X1167051Y913956D01*
X1167187Y914006D01*
X1167321Y914060D01*
X1167453Y914117D01*
X1167584Y914178D01*
X1167713Y914242D01*
X1167841Y914310D01*
X1167967Y914381D01*
X1168091Y914455D01*
X1168212Y914532D01*
X1168332Y914613D01*
X1168450Y914696D01*
X1168565Y914783D01*
X1168678Y914873D01*
X1168789Y914966D01*
X1168897Y915061D01*
X1169003Y915160D01*
X1169106Y915261D01*
X1168781Y922726D02*
X1168779Y922825D01*
X1168773Y922925D01*
X1168764Y923024D01*
X1168751Y923122D01*
X1168734Y923220D01*
X1168713Y923318D01*
X1168688Y923414D01*
X1168660Y923509D01*
X1168628Y923603D01*
X1168593Y923696D01*
X1168554Y923788D01*
X1168511Y923878D01*
X1168466Y923966D01*
X1168416Y924053D01*
X1168364Y924137D01*
X1168308Y924220D01*
X1168250Y924300D01*
X1168188Y924378D01*
X1168123Y924453D01*
X1168055Y924526D01*
X1167985Y924596D01*
X1167912Y924664D01*
X1167837Y924729D01*
X1167759Y924791D01*
X1167679Y924849D01*
X1167596Y924905D01*
X1167512Y924957D01*
X1167425Y925007D01*
X1167337Y925052D01*
X1167247Y925095D01*
X1167155Y925134D01*
X1167062Y925169D01*
X1166968Y925201D01*
X1166873Y925229D01*
X1166777Y925254D01*
X1166679Y925275D01*
X1166581Y925292D01*
X1166483Y925305D01*
X1166384Y925314D01*
X1166284Y925320D01*
X1166185Y925322D01*
X1166049Y925320D01*
X1165913Y925314D01*
X1165777Y925305D01*
X1165641Y925292D01*
X1165506Y925274D01*
X1165372Y925254D01*
X1165238Y925229D01*
X1165104Y925201D01*
X1164972Y925168D01*
X1164841Y925133D01*
X1164710Y925093D01*
X1164581Y925050D01*
X1164453Y925004D01*
X1164327Y924953D01*
X1164201Y924900D01*
X1164078Y924842D01*
X1163956Y924782D01*
X1163836Y924718D01*
X1163717Y924650D01*
X1163601Y924580D01*
X1163487Y924506D01*
X1163374Y924429D01*
X1163264Y924348D01*
X1167483Y920454D02*
X1167569Y920507D01*
X1167653Y920564D01*
X1167735Y920623D01*
X1167815Y920686D01*
X1167892Y920752D01*
X1167967Y920820D01*
X1168039Y920892D01*
X1168108Y920966D01*
X1168174Y921043D01*
X1168237Y921122D01*
X1168297Y921204D01*
X1168354Y921288D01*
X1168408Y921374D01*
X1168458Y921462D01*
X1168505Y921552D01*
X1168549Y921643D01*
X1168588Y921737D01*
X1168625Y921831D01*
X1168657Y921927D01*
X1168686Y922025D01*
X1168711Y922123D01*
X1168732Y922222D01*
X1168750Y922322D01*
X1168763Y922422D01*
X1168773Y922523D01*
X1168779Y922625D01*
X1168781Y922726D01*
X1163912Y918506D02*
X1163826Y918453D01*
X1163742Y918396D01*
X1163660Y918337D01*
X1163580Y918274D01*
X1163503Y918208D01*
X1163428Y918140D01*
X1163356Y918068D01*
X1163287Y917994D01*
X1163221Y917917D01*
X1163158Y917838D01*
X1163098Y917756D01*
X1163041Y917672D01*
X1162987Y917586D01*
X1162937Y917498D01*
X1162890Y917408D01*
X1162846Y917317D01*
X1162807Y917223D01*
X1162770Y917129D01*
X1162738Y917033D01*
X1162709Y916935D01*
X1162684Y916837D01*
X1162663Y916738D01*
X1162645Y916638D01*
X1162632Y916538D01*
X1162622Y916437D01*
X1162616Y916335D01*
X1162614Y916234D01*
X1163913Y918506D02*
X1167483Y920454D01*
X1099566Y870788D02*
X1099566Y868417D01*
X1099568Y868322D01*
X1099574Y868226D01*
X1099583Y868131D01*
X1099597Y868037D01*
X1099614Y867943D01*
X1099635Y867850D01*
X1099660Y867757D01*
X1099688Y867666D01*
X1099720Y867576D01*
X1099756Y867488D01*
X1099795Y867401D01*
X1099838Y867315D01*
X1099884Y867232D01*
X1099933Y867150D01*
X1099986Y867070D01*
X1100042Y866993D01*
X1100100Y866917D01*
X1100162Y866845D01*
X1100227Y866775D01*
X1100295Y866707D01*
X1100365Y866642D01*
X1100437Y866580D01*
X1100513Y866522D01*
X1100590Y866466D01*
X1100670Y866413D01*
X1100752Y866364D01*
X1100835Y866318D01*
X1100921Y866275D01*
X1101008Y866236D01*
X1101096Y866200D01*
X1101186Y866168D01*
X1101277Y866140D01*
X1101370Y866115D01*
X1101463Y866094D01*
X1101557Y866077D01*
X1101651Y866063D01*
X1101746Y866054D01*
X1101842Y866048D01*
X1101937Y866046D01*
X1107863Y866046D01*
X1107958Y866048D01*
X1108054Y866054D01*
X1108149Y866063D01*
X1108243Y866077D01*
X1108337Y866094D01*
X1108430Y866115D01*
X1108523Y866140D01*
X1108614Y866168D01*
X1108704Y866200D01*
X1108792Y866236D01*
X1108879Y866275D01*
X1108965Y866318D01*
X1109048Y866364D01*
X1109130Y866413D01*
X1109210Y866466D01*
X1109287Y866522D01*
X1109363Y866580D01*
X1109435Y866642D01*
X1109505Y866707D01*
X1109573Y866775D01*
X1109638Y866845D01*
X1109700Y866917D01*
X1109758Y866993D01*
X1109814Y867070D01*
X1109867Y867150D01*
X1109916Y867231D01*
X1109962Y867315D01*
X1110005Y867401D01*
X1110044Y867488D01*
X1110080Y867576D01*
X1110112Y867666D01*
X1110140Y867757D01*
X1110165Y867850D01*
X1110186Y867943D01*
X1110203Y868037D01*
X1110217Y868131D01*
X1110226Y868226D01*
X1110232Y868321D01*
X1110234Y868417D01*
X1110234Y870788D01*
X1110234Y877804D02*
X1099566Y874248D01*
X1099566Y881360D02*
X1110234Y877804D01*
X1102233Y880471D02*
X1102233Y875137D01*
X1099566Y885707D02*
X1110234Y885707D01*
X1099566Y891634D01*
X1110234Y891634D01*
X1176553Y700532D02*
X1176553Y689356D01*
X1171586Y689356D01*
X1167043Y689356D02*
X1162076Y689356D01*
X1167043Y689356D02*
X1167043Y700532D01*
X1162076Y700532D01*
X1163318Y695565D02*
X1167043Y695565D01*
X1158542Y689356D02*
X1154817Y700532D01*
X1151092Y689356D01*
X1152023Y692150D02*
X1157611Y692150D01*
X1146417Y689356D02*
X1146417Y700532D01*
X1140208Y700532D02*
X1146417Y693702D01*
X1143933Y696186D02*
X1140208Y689356D01*
X1129767Y697738D02*
X1129769Y697842D01*
X1129775Y697947D01*
X1129785Y698051D01*
X1129798Y698154D01*
X1129816Y698257D01*
X1129837Y698360D01*
X1129862Y698461D01*
X1129891Y698562D01*
X1129924Y698661D01*
X1129960Y698759D01*
X1130000Y698855D01*
X1130044Y698950D01*
X1130091Y699044D01*
X1130141Y699135D01*
X1130195Y699224D01*
X1130252Y699312D01*
X1130313Y699397D01*
X1130377Y699480D01*
X1130443Y699560D01*
X1130513Y699638D01*
X1130585Y699714D01*
X1130661Y699786D01*
X1130739Y699856D01*
X1130819Y699922D01*
X1130902Y699986D01*
X1130987Y700047D01*
X1131075Y700104D01*
X1131164Y700158D01*
X1131255Y700208D01*
X1131349Y700255D01*
X1131444Y700299D01*
X1131540Y700339D01*
X1131638Y700375D01*
X1131737Y700408D01*
X1131838Y700437D01*
X1131939Y700462D01*
X1132042Y700483D01*
X1132145Y700501D01*
X1132248Y700514D01*
X1132352Y700524D01*
X1132457Y700530D01*
X1132561Y700532D01*
X1132561Y700533D02*
X1132680Y700531D01*
X1132798Y700525D01*
X1132917Y700515D01*
X1133035Y700502D01*
X1133152Y700484D01*
X1133269Y700462D01*
X1133385Y700437D01*
X1133500Y700408D01*
X1133615Y700375D01*
X1133728Y700338D01*
X1133839Y700298D01*
X1133950Y700254D01*
X1134058Y700206D01*
X1134165Y700155D01*
X1134271Y700100D01*
X1134374Y700041D01*
X1134476Y699980D01*
X1134575Y699915D01*
X1134673Y699846D01*
X1134767Y699775D01*
X1134860Y699700D01*
X1134950Y699623D01*
X1135037Y699542D01*
X1135122Y699459D01*
X1135204Y699373D01*
X1135283Y699284D01*
X1135359Y699193D01*
X1135432Y699099D01*
X1135501Y699003D01*
X1135568Y698904D01*
X1135631Y698804D01*
X1135691Y698701D01*
X1135748Y698597D01*
X1135800Y698490D01*
X1135850Y698382D01*
X1135896Y698273D01*
X1135938Y698161D01*
X1135976Y698049D01*
X1130698Y695565D02*
X1130623Y695639D01*
X1130551Y695716D01*
X1130481Y695795D01*
X1130414Y695877D01*
X1130350Y695961D01*
X1130289Y696047D01*
X1130231Y696135D01*
X1130176Y696226D01*
X1130124Y696318D01*
X1130076Y696412D01*
X1130031Y696507D01*
X1129989Y696605D01*
X1129951Y696703D01*
X1129916Y696803D01*
X1129885Y696904D01*
X1129858Y697006D01*
X1129834Y697109D01*
X1129813Y697212D01*
X1129797Y697317D01*
X1129784Y697422D01*
X1129774Y697527D01*
X1129769Y697632D01*
X1129767Y697738D01*
X1130698Y695565D02*
X1135976Y689356D01*
X1129767Y689356D01*
X1176553Y682244D02*
X1176553Y671068D01*
X1171586Y671068D01*
X1167043Y671068D02*
X1162076Y671068D01*
X1167043Y671068D02*
X1167043Y682244D01*
X1162076Y682244D01*
X1163318Y677277D02*
X1167043Y677277D01*
X1158542Y671068D02*
X1154817Y682244D01*
X1151092Y671068D01*
X1152023Y673862D02*
X1157611Y673862D01*
X1146417Y671068D02*
X1146417Y682244D01*
X1140208Y682244D02*
X1146417Y675414D01*
X1143933Y677898D02*
X1140208Y671068D01*
X1135976Y671068D02*
X1132871Y671068D01*
X1132760Y671070D01*
X1132650Y671076D01*
X1132539Y671086D01*
X1132429Y671100D01*
X1132320Y671117D01*
X1132211Y671139D01*
X1132103Y671164D01*
X1131997Y671194D01*
X1131891Y671227D01*
X1131786Y671264D01*
X1131683Y671304D01*
X1131582Y671349D01*
X1131482Y671396D01*
X1131383Y671448D01*
X1131287Y671503D01*
X1131193Y671561D01*
X1131101Y671622D01*
X1131011Y671687D01*
X1130923Y671755D01*
X1130838Y671826D01*
X1130756Y671900D01*
X1130676Y671977D01*
X1130599Y672057D01*
X1130525Y672139D01*
X1130454Y672224D01*
X1130386Y672312D01*
X1130321Y672402D01*
X1130260Y672494D01*
X1130202Y672588D01*
X1130147Y672684D01*
X1130095Y672783D01*
X1130048Y672883D01*
X1130003Y672984D01*
X1129963Y673087D01*
X1129926Y673192D01*
X1129893Y673298D01*
X1129863Y673404D01*
X1129838Y673512D01*
X1129816Y673621D01*
X1129799Y673730D01*
X1129785Y673840D01*
X1129775Y673951D01*
X1129769Y674061D01*
X1129767Y674172D01*
X1129769Y674283D01*
X1129775Y674393D01*
X1129785Y674504D01*
X1129799Y674614D01*
X1129816Y674723D01*
X1129838Y674832D01*
X1129863Y674940D01*
X1129893Y675046D01*
X1129926Y675152D01*
X1129963Y675257D01*
X1130003Y675360D01*
X1130048Y675461D01*
X1130095Y675561D01*
X1130147Y675660D01*
X1130202Y675756D01*
X1130260Y675850D01*
X1130321Y675942D01*
X1130386Y676032D01*
X1130454Y676120D01*
X1130525Y676205D01*
X1130599Y676287D01*
X1130676Y676367D01*
X1130756Y676444D01*
X1130838Y676518D01*
X1130923Y676589D01*
X1131011Y676657D01*
X1131101Y676722D01*
X1131193Y676783D01*
X1131287Y676841D01*
X1131383Y676896D01*
X1131482Y676948D01*
X1131582Y676995D01*
X1131683Y677040D01*
X1131786Y677080D01*
X1131891Y677117D01*
X1131997Y677150D01*
X1132103Y677180D01*
X1132211Y677205D01*
X1132320Y677227D01*
X1132429Y677244D01*
X1132539Y677258D01*
X1132650Y677268D01*
X1132760Y677274D01*
X1132871Y677276D01*
X1132251Y682244D02*
X1135976Y682244D01*
X1132251Y682244D02*
X1132152Y682242D01*
X1132054Y682236D01*
X1131955Y682226D01*
X1131858Y682213D01*
X1131760Y682195D01*
X1131664Y682174D01*
X1131568Y682148D01*
X1131474Y682119D01*
X1131381Y682087D01*
X1131289Y682050D01*
X1131199Y682010D01*
X1131110Y681966D01*
X1131023Y681919D01*
X1130938Y681869D01*
X1130856Y681815D01*
X1130775Y681758D01*
X1130697Y681698D01*
X1130621Y681634D01*
X1130548Y681568D01*
X1130477Y681499D01*
X1130409Y681427D01*
X1130345Y681352D01*
X1130283Y681275D01*
X1130224Y681196D01*
X1130169Y681114D01*
X1130116Y681030D01*
X1130068Y680945D01*
X1130022Y680857D01*
X1129980Y680767D01*
X1129942Y680676D01*
X1129908Y680584D01*
X1129877Y680490D01*
X1129850Y680395D01*
X1129826Y680299D01*
X1129807Y680202D01*
X1129791Y680105D01*
X1129779Y680007D01*
X1129771Y679908D01*
X1129767Y679809D01*
X1129767Y679711D01*
X1129771Y679612D01*
X1129779Y679513D01*
X1129791Y679415D01*
X1129807Y679318D01*
X1129826Y679221D01*
X1129850Y679125D01*
X1129877Y679030D01*
X1129908Y678936D01*
X1129942Y678844D01*
X1129980Y678753D01*
X1130022Y678663D01*
X1130068Y678575D01*
X1130116Y678490D01*
X1130169Y678406D01*
X1130224Y678324D01*
X1130283Y678245D01*
X1130345Y678168D01*
X1130409Y678093D01*
X1130477Y678021D01*
X1130548Y677952D01*
X1130621Y677886D01*
X1130697Y677822D01*
X1130775Y677762D01*
X1130856Y677705D01*
X1130938Y677651D01*
X1131023Y677601D01*
X1131110Y677554D01*
X1131199Y677510D01*
X1131289Y677470D01*
X1131381Y677433D01*
X1131474Y677401D01*
X1131568Y677372D01*
X1131664Y677346D01*
X1131760Y677325D01*
X1131858Y677307D01*
X1131955Y677294D01*
X1132054Y677284D01*
X1132152Y677278D01*
X1132251Y677276D01*
X1132251Y677277D02*
X1134734Y677277D01*
D11*
X1138739Y911808D02*
X1181239Y911808D01*
X1181239Y841808D01*
X1138739Y841808D01*
X1138739Y911808D01*
X1138421Y664258D02*
X1180921Y664258D01*
X1180921Y606758D01*
X1138421Y606758D01*
X1138421Y664258D01*
X1138421Y765858D02*
X1180921Y765858D01*
X1180921Y708358D01*
X1138421Y708358D01*
X1138421Y765858D01*
M02*
