G75*
%MOIN*%
%OFA0B0*%
%FSLAX25Y25*%
%IPPOS*%
%LPD*%
%AMOC8*
5,1,8,0,0,1.08239X$1,22.5*
%
%ADD10C,0.00000*%
%ADD11OC8,0.06700*%
%ADD12C,0.06700*%
%ADD13OC8,0.05600*%
%ADD14R,0.06306X0.05518*%
%ADD15R,0.05518X0.06306*%
%ADD16C,0.05600*%
%ADD17R,0.08400X0.03000*%
%ADD18R,0.06900X0.15400*%
%ADD19R,0.25400X0.15400*%
%ADD20C,0.00500*%
%ADD21C,0.03150*%
%ADD22R,0.02400X0.08274*%
%ADD23R,0.02756X0.08661*%
%ADD24C,0.10439*%
D10*
X0027500Y0034500D02*
X0027500Y0324500D01*
X0266500Y0324500D01*
X0266500Y0034500D01*
X0027500Y0034500D01*
D11*
X0101500Y0075000D03*
X0256500Y0174500D03*
X0256500Y0184500D03*
X0256500Y0204500D03*
X0256500Y0214500D03*
D12*
X0101500Y0089000D03*
D13*
X0194000Y0284500D03*
X0186500Y0289500D03*
X0194000Y0294500D03*
X0234000Y0304500D03*
X0244000Y0304500D03*
X0086500Y0307000D03*
X0076500Y0307000D03*
X0051500Y0307000D03*
X0041500Y0307000D03*
D14*
X0041500Y0288240D03*
X0041500Y0280760D03*
X0076500Y0280760D03*
X0076500Y0288240D03*
X0129000Y0268240D03*
X0129000Y0260760D03*
X0129000Y0248240D03*
X0129000Y0240760D03*
X0144000Y0260760D03*
X0144000Y0268240D03*
X0169000Y0285760D03*
X0169000Y0293240D03*
X0256500Y0263240D03*
X0256500Y0255760D03*
X0256500Y0238240D03*
X0256500Y0230760D03*
X0256500Y0158240D03*
X0256500Y0150760D03*
X0256500Y0133240D03*
X0256500Y0125760D03*
D15*
X0217740Y0299500D03*
X0210260Y0299500D03*
D16*
X0139000Y0309400D02*
X0139000Y0314600D01*
X0129000Y0314600D02*
X0129000Y0309400D01*
X0129000Y0284600D02*
X0129000Y0279400D01*
X0139000Y0279400D02*
X0139000Y0284600D01*
D17*
X0164400Y0269500D03*
X0164400Y0264500D03*
X0164400Y0259500D03*
X0164400Y0254500D03*
X0164400Y0249500D03*
X0164400Y0244500D03*
X0164400Y0239500D03*
X0164400Y0234500D03*
X0188600Y0234500D03*
X0188600Y0239500D03*
X0188600Y0244500D03*
X0188600Y0249500D03*
X0188600Y0254500D03*
X0188600Y0259500D03*
X0188600Y0264500D03*
X0188600Y0269500D03*
X0209400Y0242000D03*
X0209400Y0237000D03*
X0209400Y0232000D03*
X0209400Y0227000D03*
X0209400Y0222000D03*
X0209400Y0217000D03*
X0209400Y0212000D03*
X0209400Y0207000D03*
X0209400Y0192000D03*
X0209400Y0187000D03*
X0209400Y0182000D03*
X0209400Y0177000D03*
X0209400Y0172000D03*
X0209400Y0167000D03*
X0209400Y0162000D03*
X0209400Y0157000D03*
X0209400Y0139500D03*
X0209400Y0134500D03*
X0209400Y0129500D03*
X0209400Y0124500D03*
X0209400Y0119500D03*
X0209400Y0114500D03*
X0209400Y0109500D03*
X0233600Y0109500D03*
X0233600Y0114500D03*
X0233600Y0119500D03*
X0233600Y0124500D03*
X0233600Y0129500D03*
X0233600Y0134500D03*
X0233600Y0139500D03*
X0233600Y0157000D03*
X0233600Y0162000D03*
X0233600Y0167000D03*
X0233600Y0172000D03*
X0233600Y0177000D03*
X0233600Y0182000D03*
X0233600Y0187000D03*
X0233600Y0192000D03*
X0233600Y0207000D03*
X0233600Y0212000D03*
X0233600Y0217000D03*
X0233600Y0222000D03*
X0233600Y0227000D03*
X0233600Y0232000D03*
X0233600Y0237000D03*
X0233600Y0242000D03*
D18*
X0236500Y0047000D03*
X0226500Y0047000D03*
X0216500Y0047000D03*
X0206500Y0047000D03*
X0196500Y0047000D03*
X0186500Y0047000D03*
X0176500Y0047000D03*
X0166500Y0047000D03*
X0156500Y0047000D03*
X0246500Y0047000D03*
X0256500Y0047000D03*
D19*
X0136500Y0047000D03*
X0106500Y0047000D03*
X0076500Y0047000D03*
X0046500Y0047000D03*
D20*
X0029500Y0034500D02*
X0149000Y0034500D01*
X0153200Y0034500D01*
X0264500Y0034500D01*
X0266500Y0036500D01*
X0029500Y0034500D02*
X0027500Y0036500D01*
D21*
X0050752Y0125346D03*
X0058626Y0125346D03*
X0058626Y0133220D03*
X0050752Y0133220D03*
X0050752Y0141094D03*
X0058626Y0141094D03*
X0066500Y0141094D03*
X0074374Y0141094D03*
X0074374Y0133220D03*
X0074374Y0125346D03*
X0066500Y0125346D03*
X0066500Y0133220D03*
X0082248Y0133220D03*
X0082248Y0125346D03*
X0082248Y0141094D03*
X0082248Y0152906D03*
X0082248Y0160780D03*
X0090122Y0160780D03*
X0090122Y0152906D03*
X0090122Y0168654D03*
X0082248Y0168654D03*
X0074374Y0168654D03*
X0074374Y0160780D03*
X0074374Y0152906D03*
X0058626Y0152906D03*
X0058626Y0160780D03*
X0050752Y0160780D03*
X0050752Y0152906D03*
X0042878Y0152906D03*
X0042878Y0160780D03*
X0042878Y0168654D03*
X0050752Y0168654D03*
X0058626Y0168654D03*
X0122878Y0168654D03*
X0130752Y0168654D03*
X0138626Y0168654D03*
X0138626Y0160780D03*
X0130752Y0160780D03*
X0130752Y0152906D03*
X0138626Y0152906D03*
X0138626Y0141094D03*
X0130752Y0141094D03*
X0130752Y0133220D03*
X0130752Y0125346D03*
X0138626Y0125346D03*
X0138626Y0133220D03*
X0146500Y0133220D03*
X0146500Y0125346D03*
X0154374Y0125346D03*
X0154374Y0133220D03*
X0162248Y0133220D03*
X0162248Y0125346D03*
X0162248Y0141094D03*
X0154374Y0141094D03*
X0146500Y0141094D03*
X0154374Y0152906D03*
X0154374Y0160780D03*
X0154374Y0168654D03*
X0162248Y0168654D03*
X0170122Y0168654D03*
X0170122Y0160780D03*
X0162248Y0160780D03*
X0162248Y0152906D03*
X0170122Y0152906D03*
X0122878Y0152906D03*
X0122878Y0160780D03*
D22*
X0122878Y0182433D03*
X0126815Y0182433D03*
X0130752Y0182433D03*
X0134689Y0182433D03*
X0142563Y0182433D03*
X0150437Y0182433D03*
X0158311Y0182433D03*
X0162248Y0182433D03*
X0166185Y0182433D03*
X0170122Y0182433D03*
X0170122Y0111567D03*
X0162248Y0111567D03*
X0158311Y0111567D03*
X0154374Y0111567D03*
X0150437Y0111567D03*
X0146500Y0111567D03*
X0142563Y0111567D03*
X0138626Y0111567D03*
X0134689Y0111567D03*
X0130752Y0111567D03*
X0122878Y0111567D03*
X0090122Y0111567D03*
X0082248Y0111567D03*
X0078311Y0111567D03*
X0074374Y0111567D03*
X0070437Y0111567D03*
X0066500Y0111567D03*
X0062563Y0111567D03*
X0058626Y0111567D03*
X0054689Y0111567D03*
X0050752Y0111567D03*
X0042878Y0111567D03*
X0042878Y0182433D03*
X0046815Y0182433D03*
X0050752Y0182433D03*
X0054689Y0182433D03*
X0062563Y0182433D03*
X0070437Y0182433D03*
X0078311Y0182433D03*
X0082248Y0182433D03*
X0086185Y0182433D03*
X0090122Y0182433D03*
D23*
X0094059Y0182413D03*
X0074374Y0182413D03*
X0066500Y0182413D03*
X0058626Y0182413D03*
X0038941Y0182413D03*
X0038941Y0111587D03*
X0046815Y0111587D03*
X0086185Y0111587D03*
X0094059Y0111587D03*
X0118941Y0111587D03*
X0126815Y0111587D03*
X0166185Y0111587D03*
X0174059Y0111587D03*
X0174059Y0182413D03*
X0154374Y0182413D03*
X0146500Y0182413D03*
X0138626Y0182413D03*
X0118941Y0182413D03*
D24*
X0061520Y0209205D02*
X0051480Y0209205D01*
X0051480Y0224795D02*
X0061520Y0224795D01*
X0061520Y0249205D02*
X0051480Y0249205D01*
X0051480Y0264795D02*
X0061520Y0264795D01*
M02*
