G75*
%MOIN*%
%OFA0B0*%
%FSLAX25Y25*%
%IPPOS*%
%LPD*%
%AMOC8*
5,1,8,0,0,1.08239X$1,22.5*
%
%ADD10C,0.00000*%
%ADD11C,0.00600*%
%ADD12C,0.00500*%
%ADD13C,0.01000*%
%ADD14C,0.00800*%
%ADD15C,0.00400*%
%ADD16R,0.04000X0.01500*%
%ADD17C,0.00200*%
D10*
X0027500Y0034500D02*
X0027500Y0324500D01*
X0266500Y0324500D01*
X0266500Y0034500D01*
X0027500Y0034500D01*
X0149000Y0034500D02*
X0149000Y0067000D01*
X0153200Y0067000D01*
X0153200Y0034500D01*
D11*
X0081500Y0082000D02*
X0081506Y0082491D01*
X0081524Y0082981D01*
X0081554Y0083471D01*
X0081596Y0083960D01*
X0081650Y0084448D01*
X0081716Y0084935D01*
X0081794Y0085419D01*
X0081884Y0085902D01*
X0081986Y0086382D01*
X0082099Y0086860D01*
X0082224Y0087334D01*
X0082361Y0087806D01*
X0082509Y0088274D01*
X0082669Y0088738D01*
X0082840Y0089198D01*
X0083022Y0089654D01*
X0083216Y0090105D01*
X0083420Y0090551D01*
X0083636Y0090992D01*
X0083862Y0091428D01*
X0084098Y0091858D01*
X0084345Y0092282D01*
X0084603Y0092700D01*
X0084871Y0093111D01*
X0085148Y0093516D01*
X0085436Y0093914D01*
X0085733Y0094305D01*
X0086040Y0094688D01*
X0086356Y0095063D01*
X0086681Y0095431D01*
X0087015Y0095791D01*
X0087358Y0096142D01*
X0087709Y0096485D01*
X0088069Y0096819D01*
X0088437Y0097144D01*
X0088812Y0097460D01*
X0089195Y0097767D01*
X0089586Y0098064D01*
X0089984Y0098352D01*
X0090389Y0098629D01*
X0090800Y0098897D01*
X0091218Y0099155D01*
X0091642Y0099402D01*
X0092072Y0099638D01*
X0092508Y0099864D01*
X0092949Y0100080D01*
X0093395Y0100284D01*
X0093846Y0100478D01*
X0094302Y0100660D01*
X0094762Y0100831D01*
X0095226Y0100991D01*
X0095694Y0101139D01*
X0096166Y0101276D01*
X0096640Y0101401D01*
X0097118Y0101514D01*
X0097598Y0101616D01*
X0098081Y0101706D01*
X0098565Y0101784D01*
X0099052Y0101850D01*
X0099540Y0101904D01*
X0100029Y0101946D01*
X0100519Y0101976D01*
X0101009Y0101994D01*
X0101500Y0102000D01*
X0101991Y0101994D01*
X0102481Y0101976D01*
X0102971Y0101946D01*
X0103460Y0101904D01*
X0103948Y0101850D01*
X0104435Y0101784D01*
X0104919Y0101706D01*
X0105402Y0101616D01*
X0105882Y0101514D01*
X0106360Y0101401D01*
X0106834Y0101276D01*
X0107306Y0101139D01*
X0107774Y0100991D01*
X0108238Y0100831D01*
X0108698Y0100660D01*
X0109154Y0100478D01*
X0109605Y0100284D01*
X0110051Y0100080D01*
X0110492Y0099864D01*
X0110928Y0099638D01*
X0111358Y0099402D01*
X0111782Y0099155D01*
X0112200Y0098897D01*
X0112611Y0098629D01*
X0113016Y0098352D01*
X0113414Y0098064D01*
X0113805Y0097767D01*
X0114188Y0097460D01*
X0114563Y0097144D01*
X0114931Y0096819D01*
X0115291Y0096485D01*
X0115642Y0096142D01*
X0115985Y0095791D01*
X0116319Y0095431D01*
X0116644Y0095063D01*
X0116960Y0094688D01*
X0117267Y0094305D01*
X0117564Y0093914D01*
X0117852Y0093516D01*
X0118129Y0093111D01*
X0118397Y0092700D01*
X0118655Y0092282D01*
X0118902Y0091858D01*
X0119138Y0091428D01*
X0119364Y0090992D01*
X0119580Y0090551D01*
X0119784Y0090105D01*
X0119978Y0089654D01*
X0120160Y0089198D01*
X0120331Y0088738D01*
X0120491Y0088274D01*
X0120639Y0087806D01*
X0120776Y0087334D01*
X0120901Y0086860D01*
X0121014Y0086382D01*
X0121116Y0085902D01*
X0121206Y0085419D01*
X0121284Y0084935D01*
X0121350Y0084448D01*
X0121404Y0083960D01*
X0121446Y0083471D01*
X0121476Y0082981D01*
X0121494Y0082491D01*
X0121500Y0082000D01*
X0121494Y0081509D01*
X0121476Y0081019D01*
X0121446Y0080529D01*
X0121404Y0080040D01*
X0121350Y0079552D01*
X0121284Y0079065D01*
X0121206Y0078581D01*
X0121116Y0078098D01*
X0121014Y0077618D01*
X0120901Y0077140D01*
X0120776Y0076666D01*
X0120639Y0076194D01*
X0120491Y0075726D01*
X0120331Y0075262D01*
X0120160Y0074802D01*
X0119978Y0074346D01*
X0119784Y0073895D01*
X0119580Y0073449D01*
X0119364Y0073008D01*
X0119138Y0072572D01*
X0118902Y0072142D01*
X0118655Y0071718D01*
X0118397Y0071300D01*
X0118129Y0070889D01*
X0117852Y0070484D01*
X0117564Y0070086D01*
X0117267Y0069695D01*
X0116960Y0069312D01*
X0116644Y0068937D01*
X0116319Y0068569D01*
X0115985Y0068209D01*
X0115642Y0067858D01*
X0115291Y0067515D01*
X0114931Y0067181D01*
X0114563Y0066856D01*
X0114188Y0066540D01*
X0113805Y0066233D01*
X0113414Y0065936D01*
X0113016Y0065648D01*
X0112611Y0065371D01*
X0112200Y0065103D01*
X0111782Y0064845D01*
X0111358Y0064598D01*
X0110928Y0064362D01*
X0110492Y0064136D01*
X0110051Y0063920D01*
X0109605Y0063716D01*
X0109154Y0063522D01*
X0108698Y0063340D01*
X0108238Y0063169D01*
X0107774Y0063009D01*
X0107306Y0062861D01*
X0106834Y0062724D01*
X0106360Y0062599D01*
X0105882Y0062486D01*
X0105402Y0062384D01*
X0104919Y0062294D01*
X0104435Y0062216D01*
X0103948Y0062150D01*
X0103460Y0062096D01*
X0102971Y0062054D01*
X0102481Y0062024D01*
X0101991Y0062006D01*
X0101500Y0062000D01*
X0101009Y0062006D01*
X0100519Y0062024D01*
X0100029Y0062054D01*
X0099540Y0062096D01*
X0099052Y0062150D01*
X0098565Y0062216D01*
X0098081Y0062294D01*
X0097598Y0062384D01*
X0097118Y0062486D01*
X0096640Y0062599D01*
X0096166Y0062724D01*
X0095694Y0062861D01*
X0095226Y0063009D01*
X0094762Y0063169D01*
X0094302Y0063340D01*
X0093846Y0063522D01*
X0093395Y0063716D01*
X0092949Y0063920D01*
X0092508Y0064136D01*
X0092072Y0064362D01*
X0091642Y0064598D01*
X0091218Y0064845D01*
X0090800Y0065103D01*
X0090389Y0065371D01*
X0089984Y0065648D01*
X0089586Y0065936D01*
X0089195Y0066233D01*
X0088812Y0066540D01*
X0088437Y0066856D01*
X0088069Y0067181D01*
X0087709Y0067515D01*
X0087358Y0067858D01*
X0087015Y0068209D01*
X0086681Y0068569D01*
X0086356Y0068937D01*
X0086040Y0069312D01*
X0085733Y0069695D01*
X0085436Y0070086D01*
X0085148Y0070484D01*
X0084871Y0070889D01*
X0084603Y0071300D01*
X0084345Y0071718D01*
X0084098Y0072142D01*
X0083862Y0072572D01*
X0083636Y0073008D01*
X0083420Y0073449D01*
X0083216Y0073895D01*
X0083022Y0074346D01*
X0082840Y0074802D01*
X0082669Y0075262D01*
X0082509Y0075726D01*
X0082361Y0076194D01*
X0082224Y0076666D01*
X0082099Y0077140D01*
X0081986Y0077618D01*
X0081884Y0078098D01*
X0081794Y0078581D01*
X0081716Y0079065D01*
X0081650Y0079552D01*
X0081596Y0080040D01*
X0081554Y0080529D01*
X0081524Y0081019D01*
X0081506Y0081509D01*
X0081500Y0082000D01*
X0104500Y0094000D02*
X0107500Y0094000D01*
X0106000Y0095500D02*
X0106000Y0092500D01*
X0213800Y0108500D02*
X0213800Y0140500D01*
X0213802Y0140576D01*
X0213808Y0140652D01*
X0213817Y0140727D01*
X0213831Y0140802D01*
X0213848Y0140876D01*
X0213869Y0140949D01*
X0213893Y0141021D01*
X0213922Y0141092D01*
X0213953Y0141161D01*
X0213988Y0141228D01*
X0214027Y0141293D01*
X0214069Y0141357D01*
X0214114Y0141418D01*
X0214162Y0141477D01*
X0214213Y0141533D01*
X0214267Y0141587D01*
X0214323Y0141638D01*
X0214382Y0141686D01*
X0214443Y0141731D01*
X0214507Y0141773D01*
X0214572Y0141812D01*
X0214639Y0141847D01*
X0214708Y0141878D01*
X0214779Y0141907D01*
X0214851Y0141931D01*
X0214924Y0141952D01*
X0214998Y0141969D01*
X0215073Y0141983D01*
X0215148Y0141992D01*
X0215224Y0141998D01*
X0215300Y0142000D01*
X0227700Y0142000D01*
X0227800Y0142000D02*
X0227800Y0107000D01*
X0227700Y0107000D02*
X0223500Y0107000D01*
X0219500Y0107000D01*
X0215300Y0107000D01*
X0215224Y0107002D01*
X0215148Y0107008D01*
X0215073Y0107017D01*
X0214998Y0107031D01*
X0214924Y0107048D01*
X0214851Y0107069D01*
X0214779Y0107093D01*
X0214708Y0107122D01*
X0214639Y0107153D01*
X0214572Y0107188D01*
X0214507Y0107227D01*
X0214443Y0107269D01*
X0214382Y0107314D01*
X0214323Y0107362D01*
X0214267Y0107413D01*
X0214213Y0107467D01*
X0214162Y0107523D01*
X0214114Y0107582D01*
X0214069Y0107643D01*
X0214027Y0107707D01*
X0213988Y0107772D01*
X0213953Y0107839D01*
X0213922Y0107908D01*
X0213893Y0107979D01*
X0213869Y0108051D01*
X0213848Y0108124D01*
X0213831Y0108198D01*
X0213817Y0108273D01*
X0213808Y0108348D01*
X0213802Y0108424D01*
X0213800Y0108500D01*
X0219500Y0107000D02*
X0219502Y0107088D01*
X0219508Y0107177D01*
X0219518Y0107265D01*
X0219531Y0107352D01*
X0219549Y0107439D01*
X0219570Y0107525D01*
X0219595Y0107610D01*
X0219624Y0107693D01*
X0219657Y0107776D01*
X0219693Y0107856D01*
X0219732Y0107935D01*
X0219775Y0108013D01*
X0219822Y0108088D01*
X0219872Y0108161D01*
X0219925Y0108232D01*
X0219981Y0108301D01*
X0220040Y0108367D01*
X0220102Y0108430D01*
X0220166Y0108490D01*
X0220233Y0108548D01*
X0220303Y0108602D01*
X0220375Y0108654D01*
X0220449Y0108702D01*
X0220526Y0108747D01*
X0220604Y0108788D01*
X0220684Y0108826D01*
X0220765Y0108860D01*
X0220848Y0108891D01*
X0220933Y0108918D01*
X0221018Y0108941D01*
X0221104Y0108960D01*
X0221192Y0108976D01*
X0221279Y0108988D01*
X0221367Y0108996D01*
X0221456Y0109000D01*
X0221544Y0109000D01*
X0221633Y0108996D01*
X0221721Y0108988D01*
X0221808Y0108976D01*
X0221896Y0108960D01*
X0221982Y0108941D01*
X0222067Y0108918D01*
X0222152Y0108891D01*
X0222235Y0108860D01*
X0222316Y0108826D01*
X0222396Y0108788D01*
X0222474Y0108747D01*
X0222551Y0108702D01*
X0222625Y0108654D01*
X0222697Y0108602D01*
X0222767Y0108548D01*
X0222834Y0108490D01*
X0222898Y0108430D01*
X0222960Y0108367D01*
X0223019Y0108301D01*
X0223075Y0108232D01*
X0223128Y0108161D01*
X0223178Y0108088D01*
X0223225Y0108013D01*
X0223268Y0107935D01*
X0223307Y0107856D01*
X0223343Y0107776D01*
X0223376Y0107693D01*
X0223405Y0107610D01*
X0223430Y0107525D01*
X0223451Y0107439D01*
X0223469Y0107352D01*
X0223482Y0107265D01*
X0223492Y0107177D01*
X0223498Y0107088D01*
X0223500Y0107000D01*
X0227700Y0107000D02*
X0227776Y0107002D01*
X0227852Y0107008D01*
X0227927Y0107017D01*
X0228002Y0107031D01*
X0228076Y0107048D01*
X0228149Y0107069D01*
X0228221Y0107093D01*
X0228292Y0107122D01*
X0228361Y0107153D01*
X0228428Y0107188D01*
X0228493Y0107227D01*
X0228557Y0107269D01*
X0228618Y0107314D01*
X0228677Y0107362D01*
X0228733Y0107413D01*
X0228787Y0107467D01*
X0228838Y0107523D01*
X0228886Y0107582D01*
X0228931Y0107643D01*
X0228973Y0107707D01*
X0229012Y0107772D01*
X0229047Y0107839D01*
X0229078Y0107908D01*
X0229107Y0107979D01*
X0229131Y0108051D01*
X0229152Y0108124D01*
X0229169Y0108198D01*
X0229183Y0108273D01*
X0229192Y0108348D01*
X0229198Y0108424D01*
X0229200Y0108500D01*
X0229200Y0140500D01*
X0229198Y0140576D01*
X0229192Y0140652D01*
X0229183Y0140727D01*
X0229169Y0140802D01*
X0229152Y0140876D01*
X0229131Y0140949D01*
X0229107Y0141021D01*
X0229078Y0141092D01*
X0229047Y0141161D01*
X0229012Y0141228D01*
X0228973Y0141293D01*
X0228931Y0141357D01*
X0228886Y0141418D01*
X0228838Y0141477D01*
X0228787Y0141533D01*
X0228733Y0141587D01*
X0228677Y0141638D01*
X0228618Y0141686D01*
X0228557Y0141731D01*
X0228493Y0141773D01*
X0228428Y0141812D01*
X0228361Y0141847D01*
X0228292Y0141878D01*
X0228221Y0141907D01*
X0228149Y0141931D01*
X0228076Y0141952D01*
X0228002Y0141969D01*
X0227927Y0141983D01*
X0227852Y0141992D01*
X0227776Y0141998D01*
X0227700Y0142000D01*
X0227700Y0154500D02*
X0215300Y0154500D01*
X0215224Y0154502D01*
X0215148Y0154508D01*
X0215073Y0154517D01*
X0214998Y0154531D01*
X0214924Y0154548D01*
X0214851Y0154569D01*
X0214779Y0154593D01*
X0214708Y0154622D01*
X0214639Y0154653D01*
X0214572Y0154688D01*
X0214507Y0154727D01*
X0214443Y0154769D01*
X0214382Y0154814D01*
X0214323Y0154862D01*
X0214267Y0154913D01*
X0214213Y0154967D01*
X0214162Y0155023D01*
X0214114Y0155082D01*
X0214069Y0155143D01*
X0214027Y0155207D01*
X0213988Y0155272D01*
X0213953Y0155339D01*
X0213922Y0155408D01*
X0213893Y0155479D01*
X0213869Y0155551D01*
X0213848Y0155624D01*
X0213831Y0155698D01*
X0213817Y0155773D01*
X0213808Y0155848D01*
X0213802Y0155924D01*
X0213800Y0156000D01*
X0213800Y0193000D01*
X0213802Y0193076D01*
X0213808Y0193152D01*
X0213817Y0193227D01*
X0213831Y0193302D01*
X0213848Y0193376D01*
X0213869Y0193449D01*
X0213893Y0193521D01*
X0213922Y0193592D01*
X0213953Y0193661D01*
X0213988Y0193728D01*
X0214027Y0193793D01*
X0214069Y0193857D01*
X0214114Y0193918D01*
X0214162Y0193977D01*
X0214213Y0194033D01*
X0214267Y0194087D01*
X0214323Y0194138D01*
X0214382Y0194186D01*
X0214443Y0194231D01*
X0214507Y0194273D01*
X0214572Y0194312D01*
X0214639Y0194347D01*
X0214708Y0194378D01*
X0214779Y0194407D01*
X0214851Y0194431D01*
X0214924Y0194452D01*
X0214998Y0194469D01*
X0215073Y0194483D01*
X0215148Y0194492D01*
X0215224Y0194498D01*
X0215300Y0194500D01*
X0219500Y0194500D01*
X0223500Y0194500D01*
X0227700Y0194500D01*
X0227776Y0194498D01*
X0227852Y0194492D01*
X0227927Y0194483D01*
X0228002Y0194469D01*
X0228076Y0194452D01*
X0228149Y0194431D01*
X0228221Y0194407D01*
X0228292Y0194378D01*
X0228361Y0194347D01*
X0228428Y0194312D01*
X0228493Y0194273D01*
X0228557Y0194231D01*
X0228618Y0194186D01*
X0228677Y0194138D01*
X0228733Y0194087D01*
X0228787Y0194033D01*
X0228838Y0193977D01*
X0228886Y0193918D01*
X0228931Y0193857D01*
X0228973Y0193793D01*
X0229012Y0193728D01*
X0229047Y0193661D01*
X0229078Y0193592D01*
X0229107Y0193521D01*
X0229131Y0193449D01*
X0229152Y0193376D01*
X0229169Y0193302D01*
X0229183Y0193227D01*
X0229192Y0193152D01*
X0229198Y0193076D01*
X0229200Y0193000D01*
X0229200Y0156000D01*
X0229198Y0155924D01*
X0229192Y0155848D01*
X0229183Y0155773D01*
X0229169Y0155698D01*
X0229152Y0155624D01*
X0229131Y0155551D01*
X0229107Y0155479D01*
X0229078Y0155408D01*
X0229047Y0155339D01*
X0229012Y0155272D01*
X0228973Y0155207D01*
X0228931Y0155143D01*
X0228886Y0155082D01*
X0228838Y0155023D01*
X0228787Y0154967D01*
X0228733Y0154913D01*
X0228677Y0154862D01*
X0228618Y0154814D01*
X0228557Y0154769D01*
X0228493Y0154727D01*
X0228428Y0154688D01*
X0228361Y0154653D01*
X0228292Y0154622D01*
X0228221Y0154593D01*
X0228149Y0154569D01*
X0228076Y0154548D01*
X0228002Y0154531D01*
X0227927Y0154517D01*
X0227852Y0154508D01*
X0227776Y0154502D01*
X0227700Y0154500D01*
X0251500Y0171000D02*
X0251500Y0188000D01*
X0251502Y0188060D01*
X0251507Y0188121D01*
X0251516Y0188180D01*
X0251529Y0188239D01*
X0251545Y0188298D01*
X0251565Y0188355D01*
X0251588Y0188410D01*
X0251615Y0188465D01*
X0251644Y0188517D01*
X0251677Y0188568D01*
X0251713Y0188617D01*
X0251751Y0188663D01*
X0251793Y0188707D01*
X0251837Y0188749D01*
X0251883Y0188787D01*
X0251932Y0188823D01*
X0251983Y0188856D01*
X0252035Y0188885D01*
X0252090Y0188912D01*
X0252145Y0188935D01*
X0252202Y0188955D01*
X0252261Y0188971D01*
X0252320Y0188984D01*
X0252379Y0188993D01*
X0252440Y0188998D01*
X0252500Y0189000D01*
X0260500Y0189000D01*
X0260560Y0188998D01*
X0260621Y0188993D01*
X0260680Y0188984D01*
X0260739Y0188971D01*
X0260798Y0188955D01*
X0260855Y0188935D01*
X0260910Y0188912D01*
X0260965Y0188885D01*
X0261017Y0188856D01*
X0261068Y0188823D01*
X0261117Y0188787D01*
X0261163Y0188749D01*
X0261207Y0188707D01*
X0261249Y0188663D01*
X0261287Y0188617D01*
X0261323Y0188568D01*
X0261356Y0188517D01*
X0261385Y0188465D01*
X0261412Y0188410D01*
X0261435Y0188355D01*
X0261455Y0188298D01*
X0261471Y0188239D01*
X0261484Y0188180D01*
X0261493Y0188121D01*
X0261498Y0188060D01*
X0261500Y0188000D01*
X0261500Y0171000D01*
X0261498Y0170940D01*
X0261493Y0170879D01*
X0261484Y0170820D01*
X0261471Y0170761D01*
X0261455Y0170702D01*
X0261435Y0170645D01*
X0261412Y0170590D01*
X0261385Y0170535D01*
X0261356Y0170483D01*
X0261323Y0170432D01*
X0261287Y0170383D01*
X0261249Y0170337D01*
X0261207Y0170293D01*
X0261163Y0170251D01*
X0261117Y0170213D01*
X0261068Y0170177D01*
X0261017Y0170144D01*
X0260965Y0170115D01*
X0260910Y0170088D01*
X0260855Y0170065D01*
X0260798Y0170045D01*
X0260739Y0170029D01*
X0260680Y0170016D01*
X0260621Y0170007D01*
X0260560Y0170002D01*
X0260500Y0170000D01*
X0252500Y0170000D01*
X0252440Y0170002D01*
X0252379Y0170007D01*
X0252320Y0170016D01*
X0252261Y0170029D01*
X0252202Y0170045D01*
X0252145Y0170065D01*
X0252090Y0170088D01*
X0252035Y0170115D01*
X0251983Y0170144D01*
X0251932Y0170177D01*
X0251883Y0170213D01*
X0251837Y0170251D01*
X0251793Y0170293D01*
X0251751Y0170337D01*
X0251713Y0170383D01*
X0251677Y0170432D01*
X0251644Y0170483D01*
X0251615Y0170535D01*
X0251588Y0170590D01*
X0251565Y0170645D01*
X0251545Y0170702D01*
X0251529Y0170761D01*
X0251516Y0170820D01*
X0251507Y0170879D01*
X0251502Y0170940D01*
X0251500Y0171000D01*
X0256500Y0178000D02*
X0256500Y0178500D01*
X0256500Y0180500D02*
X0256500Y0181000D01*
X0260500Y0200000D02*
X0252500Y0200000D01*
X0252440Y0200002D01*
X0252379Y0200007D01*
X0252320Y0200016D01*
X0252261Y0200029D01*
X0252202Y0200045D01*
X0252145Y0200065D01*
X0252090Y0200088D01*
X0252035Y0200115D01*
X0251983Y0200144D01*
X0251932Y0200177D01*
X0251883Y0200213D01*
X0251837Y0200251D01*
X0251793Y0200293D01*
X0251751Y0200337D01*
X0251713Y0200383D01*
X0251677Y0200432D01*
X0251644Y0200483D01*
X0251615Y0200535D01*
X0251588Y0200590D01*
X0251565Y0200645D01*
X0251545Y0200702D01*
X0251529Y0200761D01*
X0251516Y0200820D01*
X0251507Y0200879D01*
X0251502Y0200940D01*
X0251500Y0201000D01*
X0251500Y0218000D01*
X0251502Y0218060D01*
X0251507Y0218121D01*
X0251516Y0218180D01*
X0251529Y0218239D01*
X0251545Y0218298D01*
X0251565Y0218355D01*
X0251588Y0218410D01*
X0251615Y0218465D01*
X0251644Y0218517D01*
X0251677Y0218568D01*
X0251713Y0218617D01*
X0251751Y0218663D01*
X0251793Y0218707D01*
X0251837Y0218749D01*
X0251883Y0218787D01*
X0251932Y0218823D01*
X0251983Y0218856D01*
X0252035Y0218885D01*
X0252090Y0218912D01*
X0252145Y0218935D01*
X0252202Y0218955D01*
X0252261Y0218971D01*
X0252320Y0218984D01*
X0252379Y0218993D01*
X0252440Y0218998D01*
X0252500Y0219000D01*
X0260500Y0219000D01*
X0260560Y0218998D01*
X0260621Y0218993D01*
X0260680Y0218984D01*
X0260739Y0218971D01*
X0260798Y0218955D01*
X0260855Y0218935D01*
X0260910Y0218912D01*
X0260965Y0218885D01*
X0261017Y0218856D01*
X0261068Y0218823D01*
X0261117Y0218787D01*
X0261163Y0218749D01*
X0261207Y0218707D01*
X0261249Y0218663D01*
X0261287Y0218617D01*
X0261323Y0218568D01*
X0261356Y0218517D01*
X0261385Y0218465D01*
X0261412Y0218410D01*
X0261435Y0218355D01*
X0261455Y0218298D01*
X0261471Y0218239D01*
X0261484Y0218180D01*
X0261493Y0218121D01*
X0261498Y0218060D01*
X0261500Y0218000D01*
X0261500Y0201000D01*
X0261498Y0200940D01*
X0261493Y0200879D01*
X0261484Y0200820D01*
X0261471Y0200761D01*
X0261455Y0200702D01*
X0261435Y0200645D01*
X0261412Y0200590D01*
X0261385Y0200535D01*
X0261356Y0200483D01*
X0261323Y0200432D01*
X0261287Y0200383D01*
X0261249Y0200337D01*
X0261207Y0200293D01*
X0261163Y0200251D01*
X0261117Y0200213D01*
X0261068Y0200177D01*
X0261017Y0200144D01*
X0260965Y0200115D01*
X0260910Y0200088D01*
X0260855Y0200065D01*
X0260798Y0200045D01*
X0260739Y0200029D01*
X0260680Y0200016D01*
X0260621Y0200007D01*
X0260560Y0200002D01*
X0260500Y0200000D01*
X0256500Y0208000D02*
X0256500Y0208500D01*
X0256500Y0210500D02*
X0256500Y0211000D01*
X0229200Y0206000D02*
X0229200Y0243000D01*
X0229198Y0243076D01*
X0229192Y0243152D01*
X0229183Y0243227D01*
X0229169Y0243302D01*
X0229152Y0243376D01*
X0229131Y0243449D01*
X0229107Y0243521D01*
X0229078Y0243592D01*
X0229047Y0243661D01*
X0229012Y0243728D01*
X0228973Y0243793D01*
X0228931Y0243857D01*
X0228886Y0243918D01*
X0228838Y0243977D01*
X0228787Y0244033D01*
X0228733Y0244087D01*
X0228677Y0244138D01*
X0228618Y0244186D01*
X0228557Y0244231D01*
X0228493Y0244273D01*
X0228428Y0244312D01*
X0228361Y0244347D01*
X0228292Y0244378D01*
X0228221Y0244407D01*
X0228149Y0244431D01*
X0228076Y0244452D01*
X0228002Y0244469D01*
X0227927Y0244483D01*
X0227852Y0244492D01*
X0227776Y0244498D01*
X0227700Y0244500D01*
X0215300Y0244500D01*
X0215224Y0244498D01*
X0215148Y0244492D01*
X0215073Y0244483D01*
X0214998Y0244469D01*
X0214924Y0244452D01*
X0214851Y0244431D01*
X0214779Y0244407D01*
X0214708Y0244378D01*
X0214639Y0244347D01*
X0214572Y0244312D01*
X0214507Y0244273D01*
X0214443Y0244231D01*
X0214382Y0244186D01*
X0214323Y0244138D01*
X0214267Y0244087D01*
X0214213Y0244033D01*
X0214162Y0243977D01*
X0214114Y0243918D01*
X0214069Y0243857D01*
X0214027Y0243793D01*
X0213988Y0243728D01*
X0213953Y0243661D01*
X0213922Y0243592D01*
X0213893Y0243521D01*
X0213869Y0243449D01*
X0213848Y0243376D01*
X0213831Y0243302D01*
X0213817Y0243227D01*
X0213808Y0243152D01*
X0213802Y0243076D01*
X0213800Y0243000D01*
X0213800Y0206000D01*
X0213802Y0205924D01*
X0213808Y0205848D01*
X0213817Y0205773D01*
X0213831Y0205698D01*
X0213848Y0205624D01*
X0213869Y0205551D01*
X0213893Y0205479D01*
X0213922Y0205408D01*
X0213953Y0205339D01*
X0213988Y0205272D01*
X0214027Y0205207D01*
X0214069Y0205143D01*
X0214114Y0205082D01*
X0214162Y0205023D01*
X0214213Y0204967D01*
X0214267Y0204913D01*
X0214323Y0204862D01*
X0214382Y0204814D01*
X0214443Y0204769D01*
X0214507Y0204727D01*
X0214572Y0204688D01*
X0214639Y0204653D01*
X0214708Y0204622D01*
X0214779Y0204593D01*
X0214851Y0204569D01*
X0214924Y0204548D01*
X0214998Y0204531D01*
X0215073Y0204517D01*
X0215148Y0204508D01*
X0215224Y0204502D01*
X0215300Y0204500D01*
X0219500Y0204500D01*
X0223500Y0204500D01*
X0227700Y0204500D01*
X0227776Y0204502D01*
X0227852Y0204508D01*
X0227927Y0204517D01*
X0228002Y0204531D01*
X0228076Y0204548D01*
X0228149Y0204569D01*
X0228221Y0204593D01*
X0228292Y0204622D01*
X0228361Y0204653D01*
X0228428Y0204688D01*
X0228493Y0204727D01*
X0228557Y0204769D01*
X0228618Y0204814D01*
X0228677Y0204862D01*
X0228733Y0204913D01*
X0228787Y0204967D01*
X0228838Y0205023D01*
X0228886Y0205082D01*
X0228931Y0205143D01*
X0228973Y0205207D01*
X0229012Y0205272D01*
X0229047Y0205339D01*
X0229078Y0205408D01*
X0229107Y0205479D01*
X0229131Y0205551D01*
X0229152Y0205624D01*
X0229169Y0205698D01*
X0229183Y0205773D01*
X0229192Y0205848D01*
X0229198Y0205924D01*
X0229200Y0206000D01*
X0223500Y0204500D02*
X0223498Y0204588D01*
X0223492Y0204677D01*
X0223482Y0204765D01*
X0223469Y0204852D01*
X0223451Y0204939D01*
X0223430Y0205025D01*
X0223405Y0205110D01*
X0223376Y0205193D01*
X0223343Y0205276D01*
X0223307Y0205356D01*
X0223268Y0205435D01*
X0223225Y0205513D01*
X0223178Y0205588D01*
X0223128Y0205661D01*
X0223075Y0205732D01*
X0223019Y0205801D01*
X0222960Y0205867D01*
X0222898Y0205930D01*
X0222834Y0205990D01*
X0222767Y0206048D01*
X0222697Y0206102D01*
X0222625Y0206154D01*
X0222551Y0206202D01*
X0222474Y0206247D01*
X0222396Y0206288D01*
X0222316Y0206326D01*
X0222235Y0206360D01*
X0222152Y0206391D01*
X0222067Y0206418D01*
X0221982Y0206441D01*
X0221896Y0206460D01*
X0221808Y0206476D01*
X0221721Y0206488D01*
X0221633Y0206496D01*
X0221544Y0206500D01*
X0221456Y0206500D01*
X0221367Y0206496D01*
X0221279Y0206488D01*
X0221192Y0206476D01*
X0221104Y0206460D01*
X0221018Y0206441D01*
X0220933Y0206418D01*
X0220848Y0206391D01*
X0220765Y0206360D01*
X0220684Y0206326D01*
X0220604Y0206288D01*
X0220526Y0206247D01*
X0220449Y0206202D01*
X0220375Y0206154D01*
X0220303Y0206102D01*
X0220233Y0206048D01*
X0220166Y0205990D01*
X0220102Y0205930D01*
X0220040Y0205867D01*
X0219981Y0205801D01*
X0219925Y0205732D01*
X0219872Y0205661D01*
X0219822Y0205588D01*
X0219775Y0205513D01*
X0219732Y0205435D01*
X0219693Y0205356D01*
X0219657Y0205276D01*
X0219624Y0205193D01*
X0219595Y0205110D01*
X0219570Y0205025D01*
X0219549Y0204939D01*
X0219531Y0204852D01*
X0219518Y0204765D01*
X0219508Y0204677D01*
X0219502Y0204588D01*
X0219500Y0204500D01*
X0219500Y0194500D02*
X0219502Y0194412D01*
X0219508Y0194323D01*
X0219518Y0194235D01*
X0219531Y0194148D01*
X0219549Y0194061D01*
X0219570Y0193975D01*
X0219595Y0193890D01*
X0219624Y0193807D01*
X0219657Y0193724D01*
X0219693Y0193644D01*
X0219732Y0193565D01*
X0219775Y0193487D01*
X0219822Y0193412D01*
X0219872Y0193339D01*
X0219925Y0193268D01*
X0219981Y0193199D01*
X0220040Y0193133D01*
X0220102Y0193070D01*
X0220166Y0193010D01*
X0220233Y0192952D01*
X0220303Y0192898D01*
X0220375Y0192846D01*
X0220449Y0192798D01*
X0220526Y0192753D01*
X0220604Y0192712D01*
X0220684Y0192674D01*
X0220765Y0192640D01*
X0220848Y0192609D01*
X0220933Y0192582D01*
X0221018Y0192559D01*
X0221104Y0192540D01*
X0221192Y0192524D01*
X0221279Y0192512D01*
X0221367Y0192504D01*
X0221456Y0192500D01*
X0221544Y0192500D01*
X0221633Y0192504D01*
X0221721Y0192512D01*
X0221808Y0192524D01*
X0221896Y0192540D01*
X0221982Y0192559D01*
X0222067Y0192582D01*
X0222152Y0192609D01*
X0222235Y0192640D01*
X0222316Y0192674D01*
X0222396Y0192712D01*
X0222474Y0192753D01*
X0222551Y0192798D01*
X0222625Y0192846D01*
X0222697Y0192898D01*
X0222767Y0192952D01*
X0222834Y0193010D01*
X0222898Y0193070D01*
X0222960Y0193133D01*
X0223019Y0193199D01*
X0223075Y0193268D01*
X0223128Y0193339D01*
X0223178Y0193412D01*
X0223225Y0193487D01*
X0223268Y0193565D01*
X0223307Y0193644D01*
X0223343Y0193724D01*
X0223376Y0193807D01*
X0223405Y0193890D01*
X0223430Y0193975D01*
X0223451Y0194061D01*
X0223469Y0194148D01*
X0223482Y0194235D01*
X0223492Y0194323D01*
X0223498Y0194412D01*
X0223500Y0194500D01*
X0184200Y0233500D02*
X0184200Y0270500D01*
X0184198Y0270576D01*
X0184192Y0270652D01*
X0184183Y0270727D01*
X0184169Y0270802D01*
X0184152Y0270876D01*
X0184131Y0270949D01*
X0184107Y0271021D01*
X0184078Y0271092D01*
X0184047Y0271161D01*
X0184012Y0271228D01*
X0183973Y0271293D01*
X0183931Y0271357D01*
X0183886Y0271418D01*
X0183838Y0271477D01*
X0183787Y0271533D01*
X0183733Y0271587D01*
X0183677Y0271638D01*
X0183618Y0271686D01*
X0183557Y0271731D01*
X0183493Y0271773D01*
X0183428Y0271812D01*
X0183361Y0271847D01*
X0183292Y0271878D01*
X0183221Y0271907D01*
X0183149Y0271931D01*
X0183076Y0271952D01*
X0183002Y0271969D01*
X0182927Y0271983D01*
X0182852Y0271992D01*
X0182776Y0271998D01*
X0182700Y0272000D01*
X0170300Y0272000D01*
X0170224Y0271998D01*
X0170148Y0271992D01*
X0170073Y0271983D01*
X0169998Y0271969D01*
X0169924Y0271952D01*
X0169851Y0271931D01*
X0169779Y0271907D01*
X0169708Y0271878D01*
X0169639Y0271847D01*
X0169572Y0271812D01*
X0169507Y0271773D01*
X0169443Y0271731D01*
X0169382Y0271686D01*
X0169323Y0271638D01*
X0169267Y0271587D01*
X0169213Y0271533D01*
X0169162Y0271477D01*
X0169114Y0271418D01*
X0169069Y0271357D01*
X0169027Y0271293D01*
X0168988Y0271228D01*
X0168953Y0271161D01*
X0168922Y0271092D01*
X0168893Y0271021D01*
X0168869Y0270949D01*
X0168848Y0270876D01*
X0168831Y0270802D01*
X0168817Y0270727D01*
X0168808Y0270652D01*
X0168802Y0270576D01*
X0168800Y0270500D01*
X0168800Y0233500D01*
X0168802Y0233424D01*
X0168808Y0233348D01*
X0168817Y0233273D01*
X0168831Y0233198D01*
X0168848Y0233124D01*
X0168869Y0233051D01*
X0168893Y0232979D01*
X0168922Y0232908D01*
X0168953Y0232839D01*
X0168988Y0232772D01*
X0169027Y0232707D01*
X0169069Y0232643D01*
X0169114Y0232582D01*
X0169162Y0232523D01*
X0169213Y0232467D01*
X0169267Y0232413D01*
X0169323Y0232362D01*
X0169382Y0232314D01*
X0169443Y0232269D01*
X0169507Y0232227D01*
X0169572Y0232188D01*
X0169639Y0232153D01*
X0169708Y0232122D01*
X0169779Y0232093D01*
X0169851Y0232069D01*
X0169924Y0232048D01*
X0169998Y0232031D01*
X0170073Y0232017D01*
X0170148Y0232008D01*
X0170224Y0232002D01*
X0170300Y0232000D01*
X0174500Y0232000D01*
X0178500Y0232000D01*
X0182700Y0232000D01*
X0182776Y0232002D01*
X0182852Y0232008D01*
X0182927Y0232017D01*
X0183002Y0232031D01*
X0183076Y0232048D01*
X0183149Y0232069D01*
X0183221Y0232093D01*
X0183292Y0232122D01*
X0183361Y0232153D01*
X0183428Y0232188D01*
X0183493Y0232227D01*
X0183557Y0232269D01*
X0183618Y0232314D01*
X0183677Y0232362D01*
X0183733Y0232413D01*
X0183787Y0232467D01*
X0183838Y0232523D01*
X0183886Y0232582D01*
X0183931Y0232643D01*
X0183973Y0232707D01*
X0184012Y0232772D01*
X0184047Y0232839D01*
X0184078Y0232908D01*
X0184107Y0232979D01*
X0184131Y0233051D01*
X0184152Y0233124D01*
X0184169Y0233198D01*
X0184183Y0233273D01*
X0184192Y0233348D01*
X0184198Y0233424D01*
X0184200Y0233500D01*
X0178500Y0232000D02*
X0178498Y0232088D01*
X0178492Y0232177D01*
X0178482Y0232265D01*
X0178469Y0232352D01*
X0178451Y0232439D01*
X0178430Y0232525D01*
X0178405Y0232610D01*
X0178376Y0232693D01*
X0178343Y0232776D01*
X0178307Y0232856D01*
X0178268Y0232935D01*
X0178225Y0233013D01*
X0178178Y0233088D01*
X0178128Y0233161D01*
X0178075Y0233232D01*
X0178019Y0233301D01*
X0177960Y0233367D01*
X0177898Y0233430D01*
X0177834Y0233490D01*
X0177767Y0233548D01*
X0177697Y0233602D01*
X0177625Y0233654D01*
X0177551Y0233702D01*
X0177474Y0233747D01*
X0177396Y0233788D01*
X0177316Y0233826D01*
X0177235Y0233860D01*
X0177152Y0233891D01*
X0177067Y0233918D01*
X0176982Y0233941D01*
X0176896Y0233960D01*
X0176808Y0233976D01*
X0176721Y0233988D01*
X0176633Y0233996D01*
X0176544Y0234000D01*
X0176456Y0234000D01*
X0176367Y0233996D01*
X0176279Y0233988D01*
X0176192Y0233976D01*
X0176104Y0233960D01*
X0176018Y0233941D01*
X0175933Y0233918D01*
X0175848Y0233891D01*
X0175765Y0233860D01*
X0175684Y0233826D01*
X0175604Y0233788D01*
X0175526Y0233747D01*
X0175449Y0233702D01*
X0175375Y0233654D01*
X0175303Y0233602D01*
X0175233Y0233548D01*
X0175166Y0233490D01*
X0175102Y0233430D01*
X0175040Y0233367D01*
X0174981Y0233301D01*
X0174925Y0233232D01*
X0174872Y0233161D01*
X0174822Y0233088D01*
X0174775Y0233013D01*
X0174732Y0232935D01*
X0174693Y0232856D01*
X0174657Y0232776D01*
X0174624Y0232693D01*
X0174595Y0232610D01*
X0174570Y0232525D01*
X0174549Y0232439D01*
X0174531Y0232352D01*
X0174518Y0232265D01*
X0174508Y0232177D01*
X0174502Y0232088D01*
X0174500Y0232000D01*
X0147000Y0277500D02*
X0147000Y0290500D01*
X0147000Y0303500D01*
X0147000Y0316500D01*
X0121000Y0316500D01*
X0121000Y0303500D01*
X0121000Y0290500D01*
X0121000Y0277500D01*
X0147000Y0277500D01*
X0142000Y0289500D02*
X0136000Y0289500D01*
X0136000Y0304500D01*
X0142000Y0304500D01*
X0142000Y0289500D01*
X0145000Y0290500D02*
X0147000Y0290500D01*
X0145000Y0290500D02*
X0145000Y0303500D01*
X0147000Y0303500D01*
X0132000Y0304500D02*
X0132000Y0289500D01*
X0126000Y0289500D01*
X0126000Y0304500D01*
X0132000Y0304500D01*
X0123000Y0303500D02*
X0121000Y0303500D01*
X0123000Y0303500D02*
X0123000Y0290500D01*
X0121000Y0290500D01*
X0071500Y0307000D02*
X0071503Y0307245D01*
X0071512Y0307491D01*
X0071527Y0307736D01*
X0071548Y0307980D01*
X0071575Y0308224D01*
X0071608Y0308467D01*
X0071647Y0308710D01*
X0071692Y0308951D01*
X0071743Y0309191D01*
X0071800Y0309430D01*
X0071862Y0309667D01*
X0071931Y0309903D01*
X0072005Y0310137D01*
X0072085Y0310369D01*
X0072170Y0310599D01*
X0072261Y0310827D01*
X0072358Y0311052D01*
X0072460Y0311276D01*
X0072568Y0311496D01*
X0072681Y0311714D01*
X0072799Y0311929D01*
X0072923Y0312141D01*
X0073051Y0312350D01*
X0073185Y0312556D01*
X0073324Y0312758D01*
X0073468Y0312957D01*
X0073617Y0313152D01*
X0073770Y0313344D01*
X0073928Y0313532D01*
X0074090Y0313716D01*
X0074258Y0313895D01*
X0074429Y0314071D01*
X0074605Y0314242D01*
X0074784Y0314410D01*
X0074968Y0314572D01*
X0075156Y0314730D01*
X0075348Y0314883D01*
X0075543Y0315032D01*
X0075742Y0315176D01*
X0075944Y0315315D01*
X0076150Y0315449D01*
X0076359Y0315577D01*
X0076571Y0315701D01*
X0076786Y0315819D01*
X0077004Y0315932D01*
X0077224Y0316040D01*
X0077448Y0316142D01*
X0077673Y0316239D01*
X0077901Y0316330D01*
X0078131Y0316415D01*
X0078363Y0316495D01*
X0078597Y0316569D01*
X0078833Y0316638D01*
X0079070Y0316700D01*
X0079309Y0316757D01*
X0079549Y0316808D01*
X0079790Y0316853D01*
X0080033Y0316892D01*
X0080276Y0316925D01*
X0080520Y0316952D01*
X0080764Y0316973D01*
X0081009Y0316988D01*
X0081255Y0316997D01*
X0081500Y0317000D01*
X0081745Y0316997D01*
X0081991Y0316988D01*
X0082236Y0316973D01*
X0082480Y0316952D01*
X0082724Y0316925D01*
X0082967Y0316892D01*
X0083210Y0316853D01*
X0083451Y0316808D01*
X0083691Y0316757D01*
X0083930Y0316700D01*
X0084167Y0316638D01*
X0084403Y0316569D01*
X0084637Y0316495D01*
X0084869Y0316415D01*
X0085099Y0316330D01*
X0085327Y0316239D01*
X0085552Y0316142D01*
X0085776Y0316040D01*
X0085996Y0315932D01*
X0086214Y0315819D01*
X0086429Y0315701D01*
X0086641Y0315577D01*
X0086850Y0315449D01*
X0087056Y0315315D01*
X0087258Y0315176D01*
X0087457Y0315032D01*
X0087652Y0314883D01*
X0087844Y0314730D01*
X0088032Y0314572D01*
X0088216Y0314410D01*
X0088395Y0314242D01*
X0088571Y0314071D01*
X0088742Y0313895D01*
X0088910Y0313716D01*
X0089072Y0313532D01*
X0089230Y0313344D01*
X0089383Y0313152D01*
X0089532Y0312957D01*
X0089676Y0312758D01*
X0089815Y0312556D01*
X0089949Y0312350D01*
X0090077Y0312141D01*
X0090201Y0311929D01*
X0090319Y0311714D01*
X0090432Y0311496D01*
X0090540Y0311276D01*
X0090642Y0311052D01*
X0090739Y0310827D01*
X0090830Y0310599D01*
X0090915Y0310369D01*
X0090995Y0310137D01*
X0091069Y0309903D01*
X0091138Y0309667D01*
X0091200Y0309430D01*
X0091257Y0309191D01*
X0091308Y0308951D01*
X0091353Y0308710D01*
X0091392Y0308467D01*
X0091425Y0308224D01*
X0091452Y0307980D01*
X0091473Y0307736D01*
X0091488Y0307491D01*
X0091497Y0307245D01*
X0091500Y0307000D01*
X0091497Y0306755D01*
X0091488Y0306509D01*
X0091473Y0306264D01*
X0091452Y0306020D01*
X0091425Y0305776D01*
X0091392Y0305533D01*
X0091353Y0305290D01*
X0091308Y0305049D01*
X0091257Y0304809D01*
X0091200Y0304570D01*
X0091138Y0304333D01*
X0091069Y0304097D01*
X0090995Y0303863D01*
X0090915Y0303631D01*
X0090830Y0303401D01*
X0090739Y0303173D01*
X0090642Y0302948D01*
X0090540Y0302724D01*
X0090432Y0302504D01*
X0090319Y0302286D01*
X0090201Y0302071D01*
X0090077Y0301859D01*
X0089949Y0301650D01*
X0089815Y0301444D01*
X0089676Y0301242D01*
X0089532Y0301043D01*
X0089383Y0300848D01*
X0089230Y0300656D01*
X0089072Y0300468D01*
X0088910Y0300284D01*
X0088742Y0300105D01*
X0088571Y0299929D01*
X0088395Y0299758D01*
X0088216Y0299590D01*
X0088032Y0299428D01*
X0087844Y0299270D01*
X0087652Y0299117D01*
X0087457Y0298968D01*
X0087258Y0298824D01*
X0087056Y0298685D01*
X0086850Y0298551D01*
X0086641Y0298423D01*
X0086429Y0298299D01*
X0086214Y0298181D01*
X0085996Y0298068D01*
X0085776Y0297960D01*
X0085552Y0297858D01*
X0085327Y0297761D01*
X0085099Y0297670D01*
X0084869Y0297585D01*
X0084637Y0297505D01*
X0084403Y0297431D01*
X0084167Y0297362D01*
X0083930Y0297300D01*
X0083691Y0297243D01*
X0083451Y0297192D01*
X0083210Y0297147D01*
X0082967Y0297108D01*
X0082724Y0297075D01*
X0082480Y0297048D01*
X0082236Y0297027D01*
X0081991Y0297012D01*
X0081745Y0297003D01*
X0081500Y0297000D01*
X0081255Y0297003D01*
X0081009Y0297012D01*
X0080764Y0297027D01*
X0080520Y0297048D01*
X0080276Y0297075D01*
X0080033Y0297108D01*
X0079790Y0297147D01*
X0079549Y0297192D01*
X0079309Y0297243D01*
X0079070Y0297300D01*
X0078833Y0297362D01*
X0078597Y0297431D01*
X0078363Y0297505D01*
X0078131Y0297585D01*
X0077901Y0297670D01*
X0077673Y0297761D01*
X0077448Y0297858D01*
X0077224Y0297960D01*
X0077004Y0298068D01*
X0076786Y0298181D01*
X0076571Y0298299D01*
X0076359Y0298423D01*
X0076150Y0298551D01*
X0075944Y0298685D01*
X0075742Y0298824D01*
X0075543Y0298968D01*
X0075348Y0299117D01*
X0075156Y0299270D01*
X0074968Y0299428D01*
X0074784Y0299590D01*
X0074605Y0299758D01*
X0074429Y0299929D01*
X0074258Y0300105D01*
X0074090Y0300284D01*
X0073928Y0300468D01*
X0073770Y0300656D01*
X0073617Y0300848D01*
X0073468Y0301043D01*
X0073324Y0301242D01*
X0073185Y0301444D01*
X0073051Y0301650D01*
X0072923Y0301859D01*
X0072799Y0302071D01*
X0072681Y0302286D01*
X0072568Y0302504D01*
X0072460Y0302724D01*
X0072358Y0302948D01*
X0072261Y0303173D01*
X0072170Y0303401D01*
X0072085Y0303631D01*
X0072005Y0303863D01*
X0071931Y0304097D01*
X0071862Y0304333D01*
X0071800Y0304570D01*
X0071743Y0304809D01*
X0071692Y0305049D01*
X0071647Y0305290D01*
X0071608Y0305533D01*
X0071575Y0305776D01*
X0071548Y0306020D01*
X0071527Y0306264D01*
X0071512Y0306509D01*
X0071503Y0306755D01*
X0071500Y0307000D01*
X0036500Y0307000D02*
X0036503Y0307245D01*
X0036512Y0307491D01*
X0036527Y0307736D01*
X0036548Y0307980D01*
X0036575Y0308224D01*
X0036608Y0308467D01*
X0036647Y0308710D01*
X0036692Y0308951D01*
X0036743Y0309191D01*
X0036800Y0309430D01*
X0036862Y0309667D01*
X0036931Y0309903D01*
X0037005Y0310137D01*
X0037085Y0310369D01*
X0037170Y0310599D01*
X0037261Y0310827D01*
X0037358Y0311052D01*
X0037460Y0311276D01*
X0037568Y0311496D01*
X0037681Y0311714D01*
X0037799Y0311929D01*
X0037923Y0312141D01*
X0038051Y0312350D01*
X0038185Y0312556D01*
X0038324Y0312758D01*
X0038468Y0312957D01*
X0038617Y0313152D01*
X0038770Y0313344D01*
X0038928Y0313532D01*
X0039090Y0313716D01*
X0039258Y0313895D01*
X0039429Y0314071D01*
X0039605Y0314242D01*
X0039784Y0314410D01*
X0039968Y0314572D01*
X0040156Y0314730D01*
X0040348Y0314883D01*
X0040543Y0315032D01*
X0040742Y0315176D01*
X0040944Y0315315D01*
X0041150Y0315449D01*
X0041359Y0315577D01*
X0041571Y0315701D01*
X0041786Y0315819D01*
X0042004Y0315932D01*
X0042224Y0316040D01*
X0042448Y0316142D01*
X0042673Y0316239D01*
X0042901Y0316330D01*
X0043131Y0316415D01*
X0043363Y0316495D01*
X0043597Y0316569D01*
X0043833Y0316638D01*
X0044070Y0316700D01*
X0044309Y0316757D01*
X0044549Y0316808D01*
X0044790Y0316853D01*
X0045033Y0316892D01*
X0045276Y0316925D01*
X0045520Y0316952D01*
X0045764Y0316973D01*
X0046009Y0316988D01*
X0046255Y0316997D01*
X0046500Y0317000D01*
X0046745Y0316997D01*
X0046991Y0316988D01*
X0047236Y0316973D01*
X0047480Y0316952D01*
X0047724Y0316925D01*
X0047967Y0316892D01*
X0048210Y0316853D01*
X0048451Y0316808D01*
X0048691Y0316757D01*
X0048930Y0316700D01*
X0049167Y0316638D01*
X0049403Y0316569D01*
X0049637Y0316495D01*
X0049869Y0316415D01*
X0050099Y0316330D01*
X0050327Y0316239D01*
X0050552Y0316142D01*
X0050776Y0316040D01*
X0050996Y0315932D01*
X0051214Y0315819D01*
X0051429Y0315701D01*
X0051641Y0315577D01*
X0051850Y0315449D01*
X0052056Y0315315D01*
X0052258Y0315176D01*
X0052457Y0315032D01*
X0052652Y0314883D01*
X0052844Y0314730D01*
X0053032Y0314572D01*
X0053216Y0314410D01*
X0053395Y0314242D01*
X0053571Y0314071D01*
X0053742Y0313895D01*
X0053910Y0313716D01*
X0054072Y0313532D01*
X0054230Y0313344D01*
X0054383Y0313152D01*
X0054532Y0312957D01*
X0054676Y0312758D01*
X0054815Y0312556D01*
X0054949Y0312350D01*
X0055077Y0312141D01*
X0055201Y0311929D01*
X0055319Y0311714D01*
X0055432Y0311496D01*
X0055540Y0311276D01*
X0055642Y0311052D01*
X0055739Y0310827D01*
X0055830Y0310599D01*
X0055915Y0310369D01*
X0055995Y0310137D01*
X0056069Y0309903D01*
X0056138Y0309667D01*
X0056200Y0309430D01*
X0056257Y0309191D01*
X0056308Y0308951D01*
X0056353Y0308710D01*
X0056392Y0308467D01*
X0056425Y0308224D01*
X0056452Y0307980D01*
X0056473Y0307736D01*
X0056488Y0307491D01*
X0056497Y0307245D01*
X0056500Y0307000D01*
X0056497Y0306755D01*
X0056488Y0306509D01*
X0056473Y0306264D01*
X0056452Y0306020D01*
X0056425Y0305776D01*
X0056392Y0305533D01*
X0056353Y0305290D01*
X0056308Y0305049D01*
X0056257Y0304809D01*
X0056200Y0304570D01*
X0056138Y0304333D01*
X0056069Y0304097D01*
X0055995Y0303863D01*
X0055915Y0303631D01*
X0055830Y0303401D01*
X0055739Y0303173D01*
X0055642Y0302948D01*
X0055540Y0302724D01*
X0055432Y0302504D01*
X0055319Y0302286D01*
X0055201Y0302071D01*
X0055077Y0301859D01*
X0054949Y0301650D01*
X0054815Y0301444D01*
X0054676Y0301242D01*
X0054532Y0301043D01*
X0054383Y0300848D01*
X0054230Y0300656D01*
X0054072Y0300468D01*
X0053910Y0300284D01*
X0053742Y0300105D01*
X0053571Y0299929D01*
X0053395Y0299758D01*
X0053216Y0299590D01*
X0053032Y0299428D01*
X0052844Y0299270D01*
X0052652Y0299117D01*
X0052457Y0298968D01*
X0052258Y0298824D01*
X0052056Y0298685D01*
X0051850Y0298551D01*
X0051641Y0298423D01*
X0051429Y0298299D01*
X0051214Y0298181D01*
X0050996Y0298068D01*
X0050776Y0297960D01*
X0050552Y0297858D01*
X0050327Y0297761D01*
X0050099Y0297670D01*
X0049869Y0297585D01*
X0049637Y0297505D01*
X0049403Y0297431D01*
X0049167Y0297362D01*
X0048930Y0297300D01*
X0048691Y0297243D01*
X0048451Y0297192D01*
X0048210Y0297147D01*
X0047967Y0297108D01*
X0047724Y0297075D01*
X0047480Y0297048D01*
X0047236Y0297027D01*
X0046991Y0297012D01*
X0046745Y0297003D01*
X0046500Y0297000D01*
X0046255Y0297003D01*
X0046009Y0297012D01*
X0045764Y0297027D01*
X0045520Y0297048D01*
X0045276Y0297075D01*
X0045033Y0297108D01*
X0044790Y0297147D01*
X0044549Y0297192D01*
X0044309Y0297243D01*
X0044070Y0297300D01*
X0043833Y0297362D01*
X0043597Y0297431D01*
X0043363Y0297505D01*
X0043131Y0297585D01*
X0042901Y0297670D01*
X0042673Y0297761D01*
X0042448Y0297858D01*
X0042224Y0297960D01*
X0042004Y0298068D01*
X0041786Y0298181D01*
X0041571Y0298299D01*
X0041359Y0298423D01*
X0041150Y0298551D01*
X0040944Y0298685D01*
X0040742Y0298824D01*
X0040543Y0298968D01*
X0040348Y0299117D01*
X0040156Y0299270D01*
X0039968Y0299428D01*
X0039784Y0299590D01*
X0039605Y0299758D01*
X0039429Y0299929D01*
X0039258Y0300105D01*
X0039090Y0300284D01*
X0038928Y0300468D01*
X0038770Y0300656D01*
X0038617Y0300848D01*
X0038468Y0301043D01*
X0038324Y0301242D01*
X0038185Y0301444D01*
X0038051Y0301650D01*
X0037923Y0301859D01*
X0037799Y0302071D01*
X0037681Y0302286D01*
X0037568Y0302504D01*
X0037460Y0302724D01*
X0037358Y0302948D01*
X0037261Y0303173D01*
X0037170Y0303401D01*
X0037085Y0303631D01*
X0037005Y0303863D01*
X0036931Y0304097D01*
X0036862Y0304333D01*
X0036800Y0304570D01*
X0036743Y0304809D01*
X0036692Y0305049D01*
X0036647Y0305290D01*
X0036608Y0305533D01*
X0036575Y0305776D01*
X0036548Y0306020D01*
X0036527Y0306264D01*
X0036512Y0306509D01*
X0036503Y0306755D01*
X0036500Y0307000D01*
X0229000Y0304500D02*
X0229003Y0304745D01*
X0229012Y0304991D01*
X0229027Y0305236D01*
X0229048Y0305480D01*
X0229075Y0305724D01*
X0229108Y0305967D01*
X0229147Y0306210D01*
X0229192Y0306451D01*
X0229243Y0306691D01*
X0229300Y0306930D01*
X0229362Y0307167D01*
X0229431Y0307403D01*
X0229505Y0307637D01*
X0229585Y0307869D01*
X0229670Y0308099D01*
X0229761Y0308327D01*
X0229858Y0308552D01*
X0229960Y0308776D01*
X0230068Y0308996D01*
X0230181Y0309214D01*
X0230299Y0309429D01*
X0230423Y0309641D01*
X0230551Y0309850D01*
X0230685Y0310056D01*
X0230824Y0310258D01*
X0230968Y0310457D01*
X0231117Y0310652D01*
X0231270Y0310844D01*
X0231428Y0311032D01*
X0231590Y0311216D01*
X0231758Y0311395D01*
X0231929Y0311571D01*
X0232105Y0311742D01*
X0232284Y0311910D01*
X0232468Y0312072D01*
X0232656Y0312230D01*
X0232848Y0312383D01*
X0233043Y0312532D01*
X0233242Y0312676D01*
X0233444Y0312815D01*
X0233650Y0312949D01*
X0233859Y0313077D01*
X0234071Y0313201D01*
X0234286Y0313319D01*
X0234504Y0313432D01*
X0234724Y0313540D01*
X0234948Y0313642D01*
X0235173Y0313739D01*
X0235401Y0313830D01*
X0235631Y0313915D01*
X0235863Y0313995D01*
X0236097Y0314069D01*
X0236333Y0314138D01*
X0236570Y0314200D01*
X0236809Y0314257D01*
X0237049Y0314308D01*
X0237290Y0314353D01*
X0237533Y0314392D01*
X0237776Y0314425D01*
X0238020Y0314452D01*
X0238264Y0314473D01*
X0238509Y0314488D01*
X0238755Y0314497D01*
X0239000Y0314500D01*
X0239245Y0314497D01*
X0239491Y0314488D01*
X0239736Y0314473D01*
X0239980Y0314452D01*
X0240224Y0314425D01*
X0240467Y0314392D01*
X0240710Y0314353D01*
X0240951Y0314308D01*
X0241191Y0314257D01*
X0241430Y0314200D01*
X0241667Y0314138D01*
X0241903Y0314069D01*
X0242137Y0313995D01*
X0242369Y0313915D01*
X0242599Y0313830D01*
X0242827Y0313739D01*
X0243052Y0313642D01*
X0243276Y0313540D01*
X0243496Y0313432D01*
X0243714Y0313319D01*
X0243929Y0313201D01*
X0244141Y0313077D01*
X0244350Y0312949D01*
X0244556Y0312815D01*
X0244758Y0312676D01*
X0244957Y0312532D01*
X0245152Y0312383D01*
X0245344Y0312230D01*
X0245532Y0312072D01*
X0245716Y0311910D01*
X0245895Y0311742D01*
X0246071Y0311571D01*
X0246242Y0311395D01*
X0246410Y0311216D01*
X0246572Y0311032D01*
X0246730Y0310844D01*
X0246883Y0310652D01*
X0247032Y0310457D01*
X0247176Y0310258D01*
X0247315Y0310056D01*
X0247449Y0309850D01*
X0247577Y0309641D01*
X0247701Y0309429D01*
X0247819Y0309214D01*
X0247932Y0308996D01*
X0248040Y0308776D01*
X0248142Y0308552D01*
X0248239Y0308327D01*
X0248330Y0308099D01*
X0248415Y0307869D01*
X0248495Y0307637D01*
X0248569Y0307403D01*
X0248638Y0307167D01*
X0248700Y0306930D01*
X0248757Y0306691D01*
X0248808Y0306451D01*
X0248853Y0306210D01*
X0248892Y0305967D01*
X0248925Y0305724D01*
X0248952Y0305480D01*
X0248973Y0305236D01*
X0248988Y0304991D01*
X0248997Y0304745D01*
X0249000Y0304500D01*
X0248997Y0304255D01*
X0248988Y0304009D01*
X0248973Y0303764D01*
X0248952Y0303520D01*
X0248925Y0303276D01*
X0248892Y0303033D01*
X0248853Y0302790D01*
X0248808Y0302549D01*
X0248757Y0302309D01*
X0248700Y0302070D01*
X0248638Y0301833D01*
X0248569Y0301597D01*
X0248495Y0301363D01*
X0248415Y0301131D01*
X0248330Y0300901D01*
X0248239Y0300673D01*
X0248142Y0300448D01*
X0248040Y0300224D01*
X0247932Y0300004D01*
X0247819Y0299786D01*
X0247701Y0299571D01*
X0247577Y0299359D01*
X0247449Y0299150D01*
X0247315Y0298944D01*
X0247176Y0298742D01*
X0247032Y0298543D01*
X0246883Y0298348D01*
X0246730Y0298156D01*
X0246572Y0297968D01*
X0246410Y0297784D01*
X0246242Y0297605D01*
X0246071Y0297429D01*
X0245895Y0297258D01*
X0245716Y0297090D01*
X0245532Y0296928D01*
X0245344Y0296770D01*
X0245152Y0296617D01*
X0244957Y0296468D01*
X0244758Y0296324D01*
X0244556Y0296185D01*
X0244350Y0296051D01*
X0244141Y0295923D01*
X0243929Y0295799D01*
X0243714Y0295681D01*
X0243496Y0295568D01*
X0243276Y0295460D01*
X0243052Y0295358D01*
X0242827Y0295261D01*
X0242599Y0295170D01*
X0242369Y0295085D01*
X0242137Y0295005D01*
X0241903Y0294931D01*
X0241667Y0294862D01*
X0241430Y0294800D01*
X0241191Y0294743D01*
X0240951Y0294692D01*
X0240710Y0294647D01*
X0240467Y0294608D01*
X0240224Y0294575D01*
X0239980Y0294548D01*
X0239736Y0294527D01*
X0239491Y0294512D01*
X0239245Y0294503D01*
X0239000Y0294500D01*
X0238755Y0294503D01*
X0238509Y0294512D01*
X0238264Y0294527D01*
X0238020Y0294548D01*
X0237776Y0294575D01*
X0237533Y0294608D01*
X0237290Y0294647D01*
X0237049Y0294692D01*
X0236809Y0294743D01*
X0236570Y0294800D01*
X0236333Y0294862D01*
X0236097Y0294931D01*
X0235863Y0295005D01*
X0235631Y0295085D01*
X0235401Y0295170D01*
X0235173Y0295261D01*
X0234948Y0295358D01*
X0234724Y0295460D01*
X0234504Y0295568D01*
X0234286Y0295681D01*
X0234071Y0295799D01*
X0233859Y0295923D01*
X0233650Y0296051D01*
X0233444Y0296185D01*
X0233242Y0296324D01*
X0233043Y0296468D01*
X0232848Y0296617D01*
X0232656Y0296770D01*
X0232468Y0296928D01*
X0232284Y0297090D01*
X0232105Y0297258D01*
X0231929Y0297429D01*
X0231758Y0297605D01*
X0231590Y0297784D01*
X0231428Y0297968D01*
X0231270Y0298156D01*
X0231117Y0298348D01*
X0230968Y0298543D01*
X0230824Y0298742D01*
X0230685Y0298944D01*
X0230551Y0299150D01*
X0230423Y0299359D01*
X0230299Y0299571D01*
X0230181Y0299786D01*
X0230068Y0300004D01*
X0229960Y0300224D01*
X0229858Y0300448D01*
X0229761Y0300673D01*
X0229670Y0300901D01*
X0229585Y0301131D01*
X0229505Y0301363D01*
X0229431Y0301597D01*
X0229362Y0301833D01*
X0229300Y0302070D01*
X0229243Y0302309D01*
X0229192Y0302549D01*
X0229147Y0302790D01*
X0229108Y0303033D01*
X0229075Y0303276D01*
X0229048Y0303520D01*
X0229027Y0303764D01*
X0229012Y0304009D01*
X0229003Y0304255D01*
X0229000Y0304500D01*
D12*
X0251750Y0306850D02*
X0254753Y0306850D01*
X0256354Y0306850D02*
X0256354Y0311354D01*
X0259356Y0311354D01*
X0260958Y0311354D02*
X0263210Y0311354D01*
X0263960Y0310603D01*
X0263960Y0307601D01*
X0263210Y0306850D01*
X0260958Y0306850D01*
X0260958Y0311354D01*
X0257855Y0309102D02*
X0256354Y0309102D01*
X0256354Y0306850D02*
X0259356Y0306850D01*
X0265562Y0306850D02*
X0268564Y0306850D01*
X0267063Y0306850D02*
X0267063Y0311354D01*
X0265562Y0309853D01*
X0251750Y0311354D02*
X0251750Y0306850D01*
X0200500Y0297746D02*
X0200500Y0281254D01*
X0195000Y0280627D02*
X0195000Y0279048D01*
X0195000Y0288373D02*
X0195000Y0290627D01*
X0200500Y0281254D02*
X0200301Y0281101D01*
X0200099Y0280953D01*
X0199894Y0280810D01*
X0199685Y0280672D01*
X0199473Y0280539D01*
X0199258Y0280411D01*
X0199040Y0280289D01*
X0198819Y0280171D01*
X0198595Y0280059D01*
X0198369Y0279952D01*
X0198140Y0279851D01*
X0197909Y0279755D01*
X0197675Y0279664D01*
X0197440Y0279579D01*
X0197202Y0279500D01*
X0196963Y0279427D01*
X0196722Y0279359D01*
X0196480Y0279297D01*
X0196236Y0279241D01*
X0195990Y0279190D01*
X0195744Y0279146D01*
X0195497Y0279107D01*
X0195249Y0279075D01*
X0195000Y0279048D01*
X0194745Y0279026D01*
X0194489Y0279011D01*
X0194233Y0279003D01*
X0193976Y0279000D01*
X0193720Y0279004D01*
X0193464Y0279014D01*
X0193208Y0279030D01*
X0192953Y0279052D01*
X0192698Y0279081D01*
X0192444Y0279116D01*
X0192191Y0279157D01*
X0191939Y0279204D01*
X0191689Y0279258D01*
X0191440Y0279317D01*
X0191192Y0279383D01*
X0190946Y0279454D01*
X0190701Y0279532D01*
X0190459Y0279615D01*
X0190219Y0279704D01*
X0189981Y0279800D01*
X0189745Y0279901D01*
X0189512Y0280007D01*
X0189282Y0280120D01*
X0189054Y0280238D01*
X0188830Y0280361D01*
X0188608Y0280490D01*
X0188390Y0280624D01*
X0188175Y0280764D01*
X0187964Y0280909D01*
X0187756Y0281059D01*
X0187552Y0281213D01*
X0187351Y0281373D01*
X0187155Y0281538D01*
X0186963Y0281707D01*
X0186774Y0281882D01*
X0186591Y0282060D01*
X0186411Y0282243D01*
X0186236Y0282431D01*
X0186066Y0282622D01*
X0185901Y0282818D01*
X0185740Y0283018D01*
X0185584Y0283221D01*
X0185434Y0283428D01*
X0185288Y0283639D01*
X0185147Y0283854D01*
X0185012Y0284071D01*
X0184882Y0284292D01*
X0184758Y0284516D01*
X0184639Y0284743D01*
X0184526Y0284973D01*
X0184418Y0285206D01*
X0184316Y0285441D01*
X0184220Y0285679D01*
X0184130Y0285918D01*
X0184045Y0286160D01*
X0183967Y0286404D01*
X0183967Y0292596D02*
X0184045Y0292838D01*
X0184129Y0293078D01*
X0184218Y0293316D01*
X0184313Y0293552D01*
X0184415Y0293786D01*
X0184521Y0294017D01*
X0184634Y0294245D01*
X0184751Y0294471D01*
X0184874Y0294694D01*
X0185003Y0294913D01*
X0185137Y0295130D01*
X0185276Y0295343D01*
X0185420Y0295553D01*
X0185569Y0295759D01*
X0185723Y0295961D01*
X0185882Y0296160D01*
X0186046Y0296355D01*
X0186215Y0296546D01*
X0186388Y0296732D01*
X0186565Y0296915D01*
X0186747Y0297093D01*
X0186933Y0297266D01*
X0187124Y0297435D01*
X0187318Y0297599D01*
X0187516Y0297759D01*
X0187718Y0297914D01*
X0187924Y0298063D01*
X0188133Y0298208D01*
X0188346Y0298348D01*
X0188562Y0298482D01*
X0188782Y0298611D01*
X0189004Y0298735D01*
X0189229Y0298854D01*
X0189457Y0298966D01*
X0189688Y0299074D01*
X0189921Y0299175D01*
X0190157Y0299271D01*
X0190395Y0299362D01*
X0190635Y0299446D01*
X0190877Y0299525D01*
X0191121Y0299598D01*
X0191367Y0299664D01*
X0191614Y0299725D01*
X0191862Y0299780D01*
X0192112Y0299829D01*
X0192363Y0299872D01*
X0192615Y0299908D01*
X0192867Y0299939D01*
X0193121Y0299963D01*
X0193374Y0299981D01*
X0193629Y0299993D01*
X0193883Y0299999D01*
X0194138Y0299999D01*
X0194392Y0299993D01*
X0194646Y0299980D01*
X0194900Y0299961D01*
X0195153Y0299936D01*
X0195406Y0299905D01*
X0195658Y0299868D01*
X0195908Y0299825D01*
X0196158Y0299776D01*
X0196407Y0299720D01*
X0196654Y0299659D01*
X0196899Y0299592D01*
X0197143Y0299519D01*
X0197385Y0299440D01*
X0197624Y0299355D01*
X0197862Y0299264D01*
X0198098Y0299167D01*
X0198331Y0299065D01*
X0198561Y0298957D01*
X0198789Y0298844D01*
X0199014Y0298725D01*
X0199236Y0298601D01*
X0199455Y0298471D01*
X0199671Y0298337D01*
X0199884Y0298197D01*
X0200093Y0298051D01*
X0200298Y0297901D01*
X0200500Y0297746D01*
X0195000Y0298373D02*
X0195000Y0299952D01*
X0191250Y0303001D02*
X0190499Y0302250D01*
X0187497Y0302250D01*
X0186746Y0303001D01*
X0186746Y0304502D01*
X0187497Y0305253D01*
X0190499Y0305253D01*
X0191250Y0304502D01*
X0191250Y0303001D01*
X0189749Y0303751D02*
X0191250Y0305253D01*
X0191250Y0306854D02*
X0191250Y0309856D01*
X0191250Y0308355D02*
X0186746Y0308355D01*
X0188247Y0306854D01*
X0133460Y0318250D02*
X0130458Y0318250D01*
X0131959Y0318250D02*
X0131959Y0322754D01*
X0130458Y0321253D01*
X0128856Y0322754D02*
X0128856Y0318250D01*
X0127355Y0319751D01*
X0125854Y0318250D01*
X0125854Y0322754D01*
X0124253Y0322003D02*
X0123502Y0322754D01*
X0122001Y0322754D01*
X0121250Y0322003D01*
X0121250Y0321253D01*
X0122001Y0320502D01*
X0123502Y0320502D01*
X0124253Y0319751D01*
X0124253Y0319001D01*
X0123502Y0318250D01*
X0122001Y0318250D01*
X0121250Y0319001D01*
X0111064Y0313103D02*
X0110314Y0313854D01*
X0108812Y0313854D01*
X0108062Y0313103D01*
X0106460Y0313103D02*
X0106460Y0310101D01*
X0105710Y0309350D01*
X0103458Y0309350D01*
X0103458Y0313854D01*
X0105710Y0313854D01*
X0106460Y0313103D01*
X0108062Y0309350D02*
X0111064Y0312353D01*
X0111064Y0313103D01*
X0111064Y0309350D02*
X0108062Y0309350D01*
X0101856Y0309350D02*
X0098854Y0309350D01*
X0098854Y0313854D01*
X0101856Y0313854D01*
X0100355Y0311602D02*
X0098854Y0311602D01*
X0097253Y0309350D02*
X0094250Y0309350D01*
X0094250Y0313854D01*
X0071460Y0313103D02*
X0071460Y0310101D01*
X0070710Y0309350D01*
X0068458Y0309350D01*
X0068458Y0313854D01*
X0070710Y0313854D01*
X0071460Y0313103D01*
X0066856Y0313854D02*
X0063854Y0313854D01*
X0063854Y0309350D01*
X0066856Y0309350D01*
X0065355Y0311602D02*
X0063854Y0311602D01*
X0062253Y0309350D02*
X0059250Y0309350D01*
X0059250Y0313854D01*
X0035004Y0178496D02*
X0032642Y0176134D01*
X0032642Y0117866D01*
X0035004Y0115504D01*
X0097996Y0115504D01*
X0100358Y0117866D01*
X0100358Y0176134D01*
X0097996Y0178496D01*
X0035004Y0178496D01*
X0036972Y0121409D02*
X0036974Y0121497D01*
X0036980Y0121585D01*
X0036990Y0121673D01*
X0037004Y0121761D01*
X0037021Y0121847D01*
X0037043Y0121933D01*
X0037068Y0122017D01*
X0037098Y0122101D01*
X0037130Y0122183D01*
X0037167Y0122263D01*
X0037207Y0122342D01*
X0037251Y0122419D01*
X0037298Y0122494D01*
X0037348Y0122566D01*
X0037402Y0122637D01*
X0037458Y0122704D01*
X0037518Y0122770D01*
X0037580Y0122832D01*
X0037646Y0122892D01*
X0037713Y0122948D01*
X0037784Y0123002D01*
X0037856Y0123052D01*
X0037931Y0123099D01*
X0038008Y0123143D01*
X0038087Y0123183D01*
X0038167Y0123220D01*
X0038249Y0123252D01*
X0038333Y0123282D01*
X0038417Y0123307D01*
X0038503Y0123329D01*
X0038589Y0123346D01*
X0038677Y0123360D01*
X0038765Y0123370D01*
X0038853Y0123376D01*
X0038941Y0123378D01*
X0039029Y0123376D01*
X0039117Y0123370D01*
X0039205Y0123360D01*
X0039293Y0123346D01*
X0039379Y0123329D01*
X0039465Y0123307D01*
X0039549Y0123282D01*
X0039633Y0123252D01*
X0039715Y0123220D01*
X0039795Y0123183D01*
X0039874Y0123143D01*
X0039951Y0123099D01*
X0040026Y0123052D01*
X0040098Y0123002D01*
X0040169Y0122948D01*
X0040236Y0122892D01*
X0040302Y0122832D01*
X0040364Y0122770D01*
X0040424Y0122704D01*
X0040480Y0122637D01*
X0040534Y0122566D01*
X0040584Y0122494D01*
X0040631Y0122419D01*
X0040675Y0122342D01*
X0040715Y0122263D01*
X0040752Y0122183D01*
X0040784Y0122101D01*
X0040814Y0122017D01*
X0040839Y0121933D01*
X0040861Y0121847D01*
X0040878Y0121761D01*
X0040892Y0121673D01*
X0040902Y0121585D01*
X0040908Y0121497D01*
X0040910Y0121409D01*
X0040908Y0121321D01*
X0040902Y0121233D01*
X0040892Y0121145D01*
X0040878Y0121057D01*
X0040861Y0120971D01*
X0040839Y0120885D01*
X0040814Y0120801D01*
X0040784Y0120717D01*
X0040752Y0120635D01*
X0040715Y0120555D01*
X0040675Y0120476D01*
X0040631Y0120399D01*
X0040584Y0120324D01*
X0040534Y0120252D01*
X0040480Y0120181D01*
X0040424Y0120114D01*
X0040364Y0120048D01*
X0040302Y0119986D01*
X0040236Y0119926D01*
X0040169Y0119870D01*
X0040098Y0119816D01*
X0040026Y0119766D01*
X0039951Y0119719D01*
X0039874Y0119675D01*
X0039795Y0119635D01*
X0039715Y0119598D01*
X0039633Y0119566D01*
X0039549Y0119536D01*
X0039465Y0119511D01*
X0039379Y0119489D01*
X0039293Y0119472D01*
X0039205Y0119458D01*
X0039117Y0119448D01*
X0039029Y0119442D01*
X0038941Y0119440D01*
X0038853Y0119442D01*
X0038765Y0119448D01*
X0038677Y0119458D01*
X0038589Y0119472D01*
X0038503Y0119489D01*
X0038417Y0119511D01*
X0038333Y0119536D01*
X0038249Y0119566D01*
X0038167Y0119598D01*
X0038087Y0119635D01*
X0038008Y0119675D01*
X0037931Y0119719D01*
X0037856Y0119766D01*
X0037784Y0119816D01*
X0037713Y0119870D01*
X0037646Y0119926D01*
X0037580Y0119986D01*
X0037518Y0120048D01*
X0037458Y0120114D01*
X0037402Y0120181D01*
X0037348Y0120252D01*
X0037298Y0120324D01*
X0037251Y0120399D01*
X0037207Y0120476D01*
X0037167Y0120555D01*
X0037130Y0120635D01*
X0037098Y0120717D01*
X0037068Y0120801D01*
X0037043Y0120885D01*
X0037021Y0120971D01*
X0037004Y0121057D01*
X0036990Y0121145D01*
X0036980Y0121233D01*
X0036974Y0121321D01*
X0036972Y0121409D01*
X0112642Y0117866D02*
X0112642Y0176134D01*
X0115004Y0178496D01*
X0177996Y0178496D01*
X0180358Y0176134D01*
X0180358Y0117866D01*
X0177996Y0115504D01*
X0115004Y0115504D01*
X0112642Y0117866D01*
X0116972Y0121409D02*
X0116974Y0121497D01*
X0116980Y0121585D01*
X0116990Y0121673D01*
X0117004Y0121761D01*
X0117021Y0121847D01*
X0117043Y0121933D01*
X0117068Y0122017D01*
X0117098Y0122101D01*
X0117130Y0122183D01*
X0117167Y0122263D01*
X0117207Y0122342D01*
X0117251Y0122419D01*
X0117298Y0122494D01*
X0117348Y0122566D01*
X0117402Y0122637D01*
X0117458Y0122704D01*
X0117518Y0122770D01*
X0117580Y0122832D01*
X0117646Y0122892D01*
X0117713Y0122948D01*
X0117784Y0123002D01*
X0117856Y0123052D01*
X0117931Y0123099D01*
X0118008Y0123143D01*
X0118087Y0123183D01*
X0118167Y0123220D01*
X0118249Y0123252D01*
X0118333Y0123282D01*
X0118417Y0123307D01*
X0118503Y0123329D01*
X0118589Y0123346D01*
X0118677Y0123360D01*
X0118765Y0123370D01*
X0118853Y0123376D01*
X0118941Y0123378D01*
X0119029Y0123376D01*
X0119117Y0123370D01*
X0119205Y0123360D01*
X0119293Y0123346D01*
X0119379Y0123329D01*
X0119465Y0123307D01*
X0119549Y0123282D01*
X0119633Y0123252D01*
X0119715Y0123220D01*
X0119795Y0123183D01*
X0119874Y0123143D01*
X0119951Y0123099D01*
X0120026Y0123052D01*
X0120098Y0123002D01*
X0120169Y0122948D01*
X0120236Y0122892D01*
X0120302Y0122832D01*
X0120364Y0122770D01*
X0120424Y0122704D01*
X0120480Y0122637D01*
X0120534Y0122566D01*
X0120584Y0122494D01*
X0120631Y0122419D01*
X0120675Y0122342D01*
X0120715Y0122263D01*
X0120752Y0122183D01*
X0120784Y0122101D01*
X0120814Y0122017D01*
X0120839Y0121933D01*
X0120861Y0121847D01*
X0120878Y0121761D01*
X0120892Y0121673D01*
X0120902Y0121585D01*
X0120908Y0121497D01*
X0120910Y0121409D01*
X0120908Y0121321D01*
X0120902Y0121233D01*
X0120892Y0121145D01*
X0120878Y0121057D01*
X0120861Y0120971D01*
X0120839Y0120885D01*
X0120814Y0120801D01*
X0120784Y0120717D01*
X0120752Y0120635D01*
X0120715Y0120555D01*
X0120675Y0120476D01*
X0120631Y0120399D01*
X0120584Y0120324D01*
X0120534Y0120252D01*
X0120480Y0120181D01*
X0120424Y0120114D01*
X0120364Y0120048D01*
X0120302Y0119986D01*
X0120236Y0119926D01*
X0120169Y0119870D01*
X0120098Y0119816D01*
X0120026Y0119766D01*
X0119951Y0119719D01*
X0119874Y0119675D01*
X0119795Y0119635D01*
X0119715Y0119598D01*
X0119633Y0119566D01*
X0119549Y0119536D01*
X0119465Y0119511D01*
X0119379Y0119489D01*
X0119293Y0119472D01*
X0119205Y0119458D01*
X0119117Y0119448D01*
X0119029Y0119442D01*
X0118941Y0119440D01*
X0118853Y0119442D01*
X0118765Y0119448D01*
X0118677Y0119458D01*
X0118589Y0119472D01*
X0118503Y0119489D01*
X0118417Y0119511D01*
X0118333Y0119536D01*
X0118249Y0119566D01*
X0118167Y0119598D01*
X0118087Y0119635D01*
X0118008Y0119675D01*
X0117931Y0119719D01*
X0117856Y0119766D01*
X0117784Y0119816D01*
X0117713Y0119870D01*
X0117646Y0119926D01*
X0117580Y0119986D01*
X0117518Y0120048D01*
X0117458Y0120114D01*
X0117402Y0120181D01*
X0117348Y0120252D01*
X0117298Y0120324D01*
X0117251Y0120399D01*
X0117207Y0120476D01*
X0117167Y0120555D01*
X0117130Y0120635D01*
X0117098Y0120717D01*
X0117068Y0120801D01*
X0117043Y0120885D01*
X0117021Y0120971D01*
X0117004Y0121057D01*
X0116990Y0121145D01*
X0116980Y0121233D01*
X0116974Y0121321D01*
X0116972Y0121409D01*
X0119750Y0064649D02*
X0119750Y0061646D01*
X0119750Y0063147D02*
X0115246Y0063147D01*
X0116747Y0061646D01*
X0115997Y0060045D02*
X0115246Y0059294D01*
X0115246Y0057793D01*
X0115997Y0057042D01*
X0118999Y0057042D01*
X0119750Y0057793D01*
X0119750Y0059294D01*
X0118999Y0060045D01*
X0149000Y0034500D02*
X0153200Y0034500D01*
X0264500Y0034500D01*
X0266500Y0036500D01*
X0149000Y0034500D02*
X0029500Y0034500D01*
X0027500Y0036500D01*
X0262746Y0177793D02*
X0263497Y0177042D01*
X0266499Y0177042D01*
X0267250Y0177793D01*
X0267250Y0179294D01*
X0266499Y0180045D01*
X0267250Y0181646D02*
X0264247Y0184649D01*
X0263497Y0184649D01*
X0262746Y0183898D01*
X0262746Y0182397D01*
X0263497Y0181646D01*
X0263497Y0180045D02*
X0262746Y0179294D01*
X0262746Y0177793D01*
X0267250Y0181646D02*
X0267250Y0184649D01*
X0266499Y0207042D02*
X0263497Y0207042D01*
X0262746Y0207793D01*
X0262746Y0209294D01*
X0263497Y0210045D01*
X0263497Y0211646D02*
X0262746Y0212397D01*
X0262746Y0213898D01*
X0263497Y0214649D01*
X0264247Y0214649D01*
X0264998Y0213898D01*
X0265749Y0214649D01*
X0266499Y0214649D01*
X0267250Y0213898D01*
X0267250Y0212397D01*
X0266499Y0211646D01*
X0266499Y0210045D02*
X0267250Y0209294D01*
X0267250Y0207793D01*
X0266499Y0207042D01*
X0264998Y0213147D02*
X0264998Y0213898D01*
D13*
X0259500Y0210500D02*
X0256500Y0210500D01*
X0253500Y0210500D01*
X0253500Y0208500D02*
X0256500Y0208500D01*
X0259500Y0208500D01*
X0259500Y0180500D02*
X0256500Y0180500D01*
X0253500Y0180500D01*
X0253500Y0178500D02*
X0256500Y0178500D01*
X0259500Y0178500D01*
X0249000Y0297000D02*
X0248813Y0296757D01*
X0248621Y0296519D01*
X0248422Y0296286D01*
X0248218Y0296058D01*
X0248009Y0295835D01*
X0247794Y0295617D01*
X0247574Y0295404D01*
X0247349Y0295197D01*
X0247118Y0294995D01*
X0246883Y0294799D01*
X0246643Y0294609D01*
X0246399Y0294425D01*
X0246150Y0294247D01*
X0245896Y0294075D01*
X0245639Y0293909D01*
X0245378Y0293749D01*
X0245113Y0293596D01*
X0244844Y0293450D01*
X0244571Y0293310D01*
X0244296Y0293177D01*
X0244017Y0293051D01*
X0243735Y0292931D01*
X0243450Y0292819D01*
X0243163Y0292714D01*
X0242873Y0292615D01*
X0242581Y0292524D01*
X0242286Y0292440D01*
X0241990Y0292363D01*
X0241692Y0292293D01*
X0241392Y0292231D01*
X0241091Y0292176D01*
X0240789Y0292129D01*
X0240485Y0292089D01*
X0240181Y0292056D01*
X0239876Y0292031D01*
X0239570Y0292013D01*
X0239264Y0292003D01*
X0238958Y0292000D01*
X0238652Y0292005D01*
X0238346Y0292017D01*
X0238040Y0292037D01*
X0237736Y0292064D01*
X0237431Y0292099D01*
X0237128Y0292141D01*
X0236826Y0292190D01*
X0236525Y0292247D01*
X0236226Y0292312D01*
X0235928Y0292383D01*
X0235633Y0292462D01*
X0235339Y0292548D01*
X0235047Y0292641D01*
X0234758Y0292742D01*
X0234471Y0292849D01*
X0234187Y0292964D01*
X0233906Y0293085D01*
X0233628Y0293213D01*
X0233353Y0293348D01*
X0233082Y0293490D01*
X0232814Y0293638D01*
X0232550Y0293793D01*
X0232290Y0293954D01*
X0232034Y0294121D01*
X0231781Y0294295D01*
X0231534Y0294475D01*
X0231290Y0294661D01*
X0231052Y0294852D01*
X0230818Y0295050D01*
X0230589Y0295253D01*
X0230365Y0295462D01*
X0230146Y0295676D01*
X0229933Y0295896D01*
X0229725Y0296120D01*
X0229522Y0296350D01*
X0229326Y0296584D01*
X0229135Y0296824D01*
X0228950Y0297067D01*
X0228771Y0297316D01*
X0228598Y0297568D01*
X0228431Y0297825D01*
X0228271Y0298086D01*
X0228117Y0298351D01*
X0227970Y0298619D01*
X0227829Y0298891D01*
X0227695Y0299166D01*
X0227568Y0299445D01*
X0227447Y0299726D01*
X0227334Y0300011D01*
X0227228Y0300298D01*
X0227128Y0300587D01*
X0227036Y0300879D01*
X0226951Y0301173D01*
X0226873Y0301469D01*
X0226802Y0301767D01*
X0226739Y0302067D01*
X0226683Y0302368D01*
X0226635Y0302670D01*
X0226594Y0302973D01*
X0226560Y0303277D01*
X0226534Y0303582D01*
X0226515Y0303888D01*
X0226504Y0304194D01*
X0226500Y0304500D01*
X0226504Y0304806D01*
X0226515Y0305112D01*
X0226534Y0305418D01*
X0226560Y0305723D01*
X0226594Y0306027D01*
X0226635Y0306330D01*
X0226683Y0306632D01*
X0226739Y0306933D01*
X0226802Y0307233D01*
X0226873Y0307531D01*
X0226951Y0307827D01*
X0227036Y0308121D01*
X0227128Y0308413D01*
X0227228Y0308702D01*
X0227334Y0308989D01*
X0227447Y0309274D01*
X0227568Y0309555D01*
X0227695Y0309834D01*
X0227829Y0310109D01*
X0227970Y0310381D01*
X0228117Y0310649D01*
X0228271Y0310914D01*
X0228431Y0311175D01*
X0228598Y0311432D01*
X0228771Y0311684D01*
X0228950Y0311933D01*
X0229135Y0312176D01*
X0229326Y0312416D01*
X0229522Y0312650D01*
X0229725Y0312880D01*
X0229933Y0313104D01*
X0230146Y0313324D01*
X0230365Y0313538D01*
X0230589Y0313747D01*
X0230818Y0313950D01*
X0231052Y0314148D01*
X0231290Y0314339D01*
X0231534Y0314525D01*
X0231781Y0314705D01*
X0232034Y0314879D01*
X0232290Y0315046D01*
X0232550Y0315207D01*
X0232814Y0315362D01*
X0233082Y0315510D01*
X0233353Y0315652D01*
X0233628Y0315787D01*
X0233906Y0315915D01*
X0234187Y0316036D01*
X0234471Y0316151D01*
X0234758Y0316258D01*
X0235047Y0316359D01*
X0235339Y0316452D01*
X0235633Y0316538D01*
X0235928Y0316617D01*
X0236226Y0316688D01*
X0236525Y0316753D01*
X0236826Y0316810D01*
X0237128Y0316859D01*
X0237431Y0316901D01*
X0237736Y0316936D01*
X0238040Y0316963D01*
X0238346Y0316983D01*
X0238652Y0316995D01*
X0238958Y0317000D01*
X0239264Y0316997D01*
X0239570Y0316987D01*
X0239876Y0316969D01*
X0240181Y0316944D01*
X0240485Y0316911D01*
X0240789Y0316871D01*
X0241091Y0316824D01*
X0241392Y0316769D01*
X0241692Y0316707D01*
X0241990Y0316637D01*
X0242286Y0316560D01*
X0242581Y0316476D01*
X0242873Y0316385D01*
X0243163Y0316286D01*
X0243450Y0316181D01*
X0243735Y0316069D01*
X0244017Y0315949D01*
X0244296Y0315823D01*
X0244571Y0315690D01*
X0244844Y0315550D01*
X0245113Y0315404D01*
X0245378Y0315251D01*
X0245639Y0315091D01*
X0245896Y0314925D01*
X0246150Y0314753D01*
X0246399Y0314575D01*
X0246643Y0314391D01*
X0246883Y0314201D01*
X0247118Y0314005D01*
X0247349Y0313803D01*
X0247574Y0313596D01*
X0247794Y0313383D01*
X0248009Y0313165D01*
X0248218Y0312942D01*
X0248422Y0312714D01*
X0248621Y0312481D01*
X0248813Y0312243D01*
X0249000Y0312000D01*
X0091500Y0314500D02*
X0091313Y0314743D01*
X0091121Y0314981D01*
X0090922Y0315214D01*
X0090718Y0315442D01*
X0090509Y0315665D01*
X0090294Y0315883D01*
X0090074Y0316096D01*
X0089849Y0316303D01*
X0089618Y0316505D01*
X0089383Y0316701D01*
X0089143Y0316891D01*
X0088899Y0317075D01*
X0088650Y0317253D01*
X0088396Y0317425D01*
X0088139Y0317591D01*
X0087878Y0317751D01*
X0087613Y0317904D01*
X0087344Y0318050D01*
X0087071Y0318190D01*
X0086796Y0318323D01*
X0086517Y0318449D01*
X0086235Y0318569D01*
X0085950Y0318681D01*
X0085663Y0318786D01*
X0085373Y0318885D01*
X0085081Y0318976D01*
X0084786Y0319060D01*
X0084490Y0319137D01*
X0084192Y0319207D01*
X0083892Y0319269D01*
X0083591Y0319324D01*
X0083289Y0319371D01*
X0082985Y0319411D01*
X0082681Y0319444D01*
X0082376Y0319469D01*
X0082070Y0319487D01*
X0081764Y0319497D01*
X0081458Y0319500D01*
X0081152Y0319495D01*
X0080846Y0319483D01*
X0080540Y0319463D01*
X0080236Y0319436D01*
X0079931Y0319401D01*
X0079628Y0319359D01*
X0079326Y0319310D01*
X0079025Y0319253D01*
X0078726Y0319188D01*
X0078428Y0319117D01*
X0078133Y0319038D01*
X0077839Y0318952D01*
X0077547Y0318859D01*
X0077258Y0318758D01*
X0076971Y0318651D01*
X0076687Y0318536D01*
X0076406Y0318415D01*
X0076128Y0318287D01*
X0075853Y0318152D01*
X0075582Y0318010D01*
X0075314Y0317862D01*
X0075050Y0317707D01*
X0074790Y0317546D01*
X0074534Y0317379D01*
X0074281Y0317205D01*
X0074034Y0317025D01*
X0073790Y0316839D01*
X0073552Y0316648D01*
X0073318Y0316450D01*
X0073089Y0316247D01*
X0072865Y0316038D01*
X0072646Y0315824D01*
X0072433Y0315604D01*
X0072225Y0315380D01*
X0072022Y0315150D01*
X0071826Y0314916D01*
X0071635Y0314676D01*
X0071450Y0314433D01*
X0071271Y0314184D01*
X0071098Y0313932D01*
X0070931Y0313675D01*
X0070771Y0313414D01*
X0070617Y0313149D01*
X0070470Y0312881D01*
X0070329Y0312609D01*
X0070195Y0312334D01*
X0070068Y0312055D01*
X0069947Y0311774D01*
X0069834Y0311489D01*
X0069728Y0311202D01*
X0069628Y0310913D01*
X0069536Y0310621D01*
X0069451Y0310327D01*
X0069373Y0310031D01*
X0069302Y0309733D01*
X0069239Y0309433D01*
X0069183Y0309132D01*
X0069135Y0308830D01*
X0069094Y0308527D01*
X0069060Y0308223D01*
X0069034Y0307918D01*
X0069015Y0307612D01*
X0069004Y0307306D01*
X0069000Y0307000D01*
X0069004Y0306694D01*
X0069015Y0306388D01*
X0069034Y0306082D01*
X0069060Y0305777D01*
X0069094Y0305473D01*
X0069135Y0305170D01*
X0069183Y0304868D01*
X0069239Y0304567D01*
X0069302Y0304267D01*
X0069373Y0303969D01*
X0069451Y0303673D01*
X0069536Y0303379D01*
X0069628Y0303087D01*
X0069728Y0302798D01*
X0069834Y0302511D01*
X0069947Y0302226D01*
X0070068Y0301945D01*
X0070195Y0301666D01*
X0070329Y0301391D01*
X0070470Y0301119D01*
X0070617Y0300851D01*
X0070771Y0300586D01*
X0070931Y0300325D01*
X0071098Y0300068D01*
X0071271Y0299816D01*
X0071450Y0299567D01*
X0071635Y0299324D01*
X0071826Y0299084D01*
X0072022Y0298850D01*
X0072225Y0298620D01*
X0072433Y0298396D01*
X0072646Y0298176D01*
X0072865Y0297962D01*
X0073089Y0297753D01*
X0073318Y0297550D01*
X0073552Y0297352D01*
X0073790Y0297161D01*
X0074034Y0296975D01*
X0074281Y0296795D01*
X0074534Y0296621D01*
X0074790Y0296454D01*
X0075050Y0296293D01*
X0075314Y0296138D01*
X0075582Y0295990D01*
X0075853Y0295848D01*
X0076128Y0295713D01*
X0076406Y0295585D01*
X0076687Y0295464D01*
X0076971Y0295349D01*
X0077258Y0295242D01*
X0077547Y0295141D01*
X0077839Y0295048D01*
X0078133Y0294962D01*
X0078428Y0294883D01*
X0078726Y0294812D01*
X0079025Y0294747D01*
X0079326Y0294690D01*
X0079628Y0294641D01*
X0079931Y0294599D01*
X0080236Y0294564D01*
X0080540Y0294537D01*
X0080846Y0294517D01*
X0081152Y0294505D01*
X0081458Y0294500D01*
X0081764Y0294503D01*
X0082070Y0294513D01*
X0082376Y0294531D01*
X0082681Y0294556D01*
X0082985Y0294589D01*
X0083289Y0294629D01*
X0083591Y0294676D01*
X0083892Y0294731D01*
X0084192Y0294793D01*
X0084490Y0294863D01*
X0084786Y0294940D01*
X0085081Y0295024D01*
X0085373Y0295115D01*
X0085663Y0295214D01*
X0085950Y0295319D01*
X0086235Y0295431D01*
X0086517Y0295551D01*
X0086796Y0295677D01*
X0087071Y0295810D01*
X0087344Y0295950D01*
X0087613Y0296096D01*
X0087878Y0296249D01*
X0088139Y0296409D01*
X0088396Y0296575D01*
X0088650Y0296747D01*
X0088899Y0296925D01*
X0089143Y0297109D01*
X0089383Y0297299D01*
X0089618Y0297495D01*
X0089849Y0297697D01*
X0090074Y0297904D01*
X0090294Y0298117D01*
X0090509Y0298335D01*
X0090718Y0298558D01*
X0090922Y0298786D01*
X0091121Y0299019D01*
X0091313Y0299257D01*
X0091500Y0299500D01*
X0056500Y0299500D02*
X0056313Y0299257D01*
X0056121Y0299019D01*
X0055922Y0298786D01*
X0055718Y0298558D01*
X0055509Y0298335D01*
X0055294Y0298117D01*
X0055074Y0297904D01*
X0054849Y0297697D01*
X0054618Y0297495D01*
X0054383Y0297299D01*
X0054143Y0297109D01*
X0053899Y0296925D01*
X0053650Y0296747D01*
X0053396Y0296575D01*
X0053139Y0296409D01*
X0052878Y0296249D01*
X0052613Y0296096D01*
X0052344Y0295950D01*
X0052071Y0295810D01*
X0051796Y0295677D01*
X0051517Y0295551D01*
X0051235Y0295431D01*
X0050950Y0295319D01*
X0050663Y0295214D01*
X0050373Y0295115D01*
X0050081Y0295024D01*
X0049786Y0294940D01*
X0049490Y0294863D01*
X0049192Y0294793D01*
X0048892Y0294731D01*
X0048591Y0294676D01*
X0048289Y0294629D01*
X0047985Y0294589D01*
X0047681Y0294556D01*
X0047376Y0294531D01*
X0047070Y0294513D01*
X0046764Y0294503D01*
X0046458Y0294500D01*
X0046152Y0294505D01*
X0045846Y0294517D01*
X0045540Y0294537D01*
X0045236Y0294564D01*
X0044931Y0294599D01*
X0044628Y0294641D01*
X0044326Y0294690D01*
X0044025Y0294747D01*
X0043726Y0294812D01*
X0043428Y0294883D01*
X0043133Y0294962D01*
X0042839Y0295048D01*
X0042547Y0295141D01*
X0042258Y0295242D01*
X0041971Y0295349D01*
X0041687Y0295464D01*
X0041406Y0295585D01*
X0041128Y0295713D01*
X0040853Y0295848D01*
X0040582Y0295990D01*
X0040314Y0296138D01*
X0040050Y0296293D01*
X0039790Y0296454D01*
X0039534Y0296621D01*
X0039281Y0296795D01*
X0039034Y0296975D01*
X0038790Y0297161D01*
X0038552Y0297352D01*
X0038318Y0297550D01*
X0038089Y0297753D01*
X0037865Y0297962D01*
X0037646Y0298176D01*
X0037433Y0298396D01*
X0037225Y0298620D01*
X0037022Y0298850D01*
X0036826Y0299084D01*
X0036635Y0299324D01*
X0036450Y0299567D01*
X0036271Y0299816D01*
X0036098Y0300068D01*
X0035931Y0300325D01*
X0035771Y0300586D01*
X0035617Y0300851D01*
X0035470Y0301119D01*
X0035329Y0301391D01*
X0035195Y0301666D01*
X0035068Y0301945D01*
X0034947Y0302226D01*
X0034834Y0302511D01*
X0034728Y0302798D01*
X0034628Y0303087D01*
X0034536Y0303379D01*
X0034451Y0303673D01*
X0034373Y0303969D01*
X0034302Y0304267D01*
X0034239Y0304567D01*
X0034183Y0304868D01*
X0034135Y0305170D01*
X0034094Y0305473D01*
X0034060Y0305777D01*
X0034034Y0306082D01*
X0034015Y0306388D01*
X0034004Y0306694D01*
X0034000Y0307000D01*
X0034004Y0307306D01*
X0034015Y0307612D01*
X0034034Y0307918D01*
X0034060Y0308223D01*
X0034094Y0308527D01*
X0034135Y0308830D01*
X0034183Y0309132D01*
X0034239Y0309433D01*
X0034302Y0309733D01*
X0034373Y0310031D01*
X0034451Y0310327D01*
X0034536Y0310621D01*
X0034628Y0310913D01*
X0034728Y0311202D01*
X0034834Y0311489D01*
X0034947Y0311774D01*
X0035068Y0312055D01*
X0035195Y0312334D01*
X0035329Y0312609D01*
X0035470Y0312881D01*
X0035617Y0313149D01*
X0035771Y0313414D01*
X0035931Y0313675D01*
X0036098Y0313932D01*
X0036271Y0314184D01*
X0036450Y0314433D01*
X0036635Y0314676D01*
X0036826Y0314916D01*
X0037022Y0315150D01*
X0037225Y0315380D01*
X0037433Y0315604D01*
X0037646Y0315824D01*
X0037865Y0316038D01*
X0038089Y0316247D01*
X0038318Y0316450D01*
X0038552Y0316648D01*
X0038790Y0316839D01*
X0039034Y0317025D01*
X0039281Y0317205D01*
X0039534Y0317379D01*
X0039790Y0317546D01*
X0040050Y0317707D01*
X0040314Y0317862D01*
X0040582Y0318010D01*
X0040853Y0318152D01*
X0041128Y0318287D01*
X0041406Y0318415D01*
X0041687Y0318536D01*
X0041971Y0318651D01*
X0042258Y0318758D01*
X0042547Y0318859D01*
X0042839Y0318952D01*
X0043133Y0319038D01*
X0043428Y0319117D01*
X0043726Y0319188D01*
X0044025Y0319253D01*
X0044326Y0319310D01*
X0044628Y0319359D01*
X0044931Y0319401D01*
X0045236Y0319436D01*
X0045540Y0319463D01*
X0045846Y0319483D01*
X0046152Y0319495D01*
X0046458Y0319500D01*
X0046764Y0319497D01*
X0047070Y0319487D01*
X0047376Y0319469D01*
X0047681Y0319444D01*
X0047985Y0319411D01*
X0048289Y0319371D01*
X0048591Y0319324D01*
X0048892Y0319269D01*
X0049192Y0319207D01*
X0049490Y0319137D01*
X0049786Y0319060D01*
X0050081Y0318976D01*
X0050373Y0318885D01*
X0050663Y0318786D01*
X0050950Y0318681D01*
X0051235Y0318569D01*
X0051517Y0318449D01*
X0051796Y0318323D01*
X0052071Y0318190D01*
X0052344Y0318050D01*
X0052613Y0317904D01*
X0052878Y0317751D01*
X0053139Y0317591D01*
X0053396Y0317425D01*
X0053650Y0317253D01*
X0053899Y0317075D01*
X0054143Y0316891D01*
X0054383Y0316701D01*
X0054618Y0316505D01*
X0054849Y0316303D01*
X0055074Y0316096D01*
X0055294Y0315883D01*
X0055509Y0315665D01*
X0055718Y0315442D01*
X0055922Y0315214D01*
X0056121Y0314981D01*
X0056313Y0314743D01*
X0056500Y0314500D01*
D14*
X0056500Y0299500D01*
X0075496Y0272000D02*
X0037012Y0272000D01*
X0037012Y0264913D01*
X0046559Y0264913D01*
X0046559Y0249185D01*
X0037012Y0249185D01*
X0037012Y0242098D01*
X0075496Y0242098D01*
X0075496Y0272000D01*
X0091500Y0299500D02*
X0091500Y0314500D01*
X0037012Y0264913D02*
X0037012Y0249185D01*
X0037012Y0232000D02*
X0075496Y0232000D01*
X0075496Y0202098D01*
X0037012Y0202098D01*
X0037012Y0209185D01*
X0046559Y0209185D01*
X0046559Y0224913D01*
X0037012Y0224913D01*
X0037012Y0209185D01*
X0037012Y0224913D02*
X0037012Y0232000D01*
X0249000Y0297000D02*
X0249000Y0312000D01*
D15*
X0223977Y0308537D02*
X0223977Y0307769D01*
X0220908Y0304700D01*
X0223977Y0304700D01*
X0219373Y0304700D02*
X0216304Y0304700D01*
X0217839Y0304700D02*
X0217839Y0309304D01*
X0216304Y0307769D01*
X0214769Y0307002D02*
X0214769Y0308537D01*
X0214002Y0309304D01*
X0211700Y0309304D01*
X0211700Y0304700D01*
X0211700Y0306235D02*
X0214002Y0306235D01*
X0214769Y0307002D01*
X0213235Y0306235D02*
X0214769Y0304700D01*
X0220908Y0308537D02*
X0221675Y0309304D01*
X0223210Y0309304D01*
X0223977Y0308537D01*
X0178800Y0290665D02*
X0178800Y0287596D01*
X0178800Y0286061D02*
X0178800Y0282992D01*
X0178800Y0281457D02*
X0177265Y0279923D01*
X0177265Y0280690D02*
X0177265Y0278388D01*
X0178800Y0278388D02*
X0174196Y0278388D01*
X0174196Y0280690D01*
X0174963Y0281457D01*
X0176498Y0281457D01*
X0177265Y0280690D01*
X0175731Y0282992D02*
X0174196Y0284527D01*
X0178800Y0284527D01*
X0175731Y0287596D02*
X0174196Y0289131D01*
X0178800Y0289131D01*
X0145033Y0255873D02*
X0145800Y0255106D01*
X0145800Y0253571D01*
X0145033Y0252804D01*
X0144265Y0252804D01*
X0143498Y0253571D01*
X0143498Y0255106D01*
X0144265Y0255873D01*
X0145033Y0255873D01*
X0143498Y0255106D02*
X0142731Y0255873D01*
X0141963Y0255873D01*
X0141196Y0255106D01*
X0141196Y0253571D01*
X0141963Y0252804D01*
X0142731Y0252804D01*
X0143498Y0253571D01*
X0143498Y0251269D02*
X0144265Y0250502D01*
X0144265Y0248200D01*
X0144265Y0249735D02*
X0145800Y0251269D01*
X0143498Y0251269D02*
X0141963Y0251269D01*
X0141196Y0250502D01*
X0141196Y0248200D01*
X0145800Y0248200D01*
X0138800Y0245665D02*
X0138800Y0242596D01*
X0138800Y0241061D02*
X0137265Y0239527D01*
X0137265Y0240294D02*
X0137265Y0237992D01*
X0138800Y0237992D02*
X0134196Y0237992D01*
X0134196Y0240294D01*
X0134963Y0241061D01*
X0136498Y0241061D01*
X0137265Y0240294D01*
X0135731Y0242596D02*
X0134196Y0244131D01*
X0138800Y0244131D01*
X0123800Y0262200D02*
X0119196Y0262200D01*
X0119196Y0264502D01*
X0119963Y0265269D01*
X0121498Y0265269D01*
X0122265Y0264502D01*
X0122265Y0262200D01*
X0122265Y0263735D02*
X0123800Y0265269D01*
X0123800Y0266804D02*
X0123033Y0266804D01*
X0119963Y0269873D01*
X0119196Y0269873D01*
X0119196Y0266804D01*
X0071300Y0282200D02*
X0066696Y0282200D01*
X0066696Y0284502D01*
X0067463Y0285269D01*
X0068998Y0285269D01*
X0069765Y0284502D01*
X0069765Y0282200D01*
X0069765Y0283735D02*
X0071300Y0285269D01*
X0071300Y0286804D02*
X0071300Y0289873D01*
X0071300Y0288339D02*
X0066696Y0288339D01*
X0068231Y0286804D01*
X0068998Y0291408D02*
X0068998Y0294477D01*
X0066696Y0293710D02*
X0068998Y0291408D01*
X0071300Y0293710D02*
X0066696Y0293710D01*
X0036300Y0293710D02*
X0036300Y0292175D01*
X0035533Y0291408D01*
X0036300Y0289873D02*
X0036300Y0286804D01*
X0036300Y0288339D02*
X0031696Y0288339D01*
X0033231Y0286804D01*
X0033998Y0285269D02*
X0034765Y0284502D01*
X0034765Y0282200D01*
X0034765Y0283735D02*
X0036300Y0285269D01*
X0033998Y0285269D02*
X0032463Y0285269D01*
X0031696Y0284502D01*
X0031696Y0282200D01*
X0036300Y0282200D01*
X0032463Y0291408D02*
X0031696Y0292175D01*
X0031696Y0293710D01*
X0032463Y0294477D01*
X0033231Y0294477D01*
X0033998Y0293710D01*
X0034765Y0294477D01*
X0035533Y0294477D01*
X0036300Y0293710D01*
X0033998Y0293710D02*
X0033998Y0292942D01*
X0064992Y0239166D02*
X0068061Y0234562D01*
X0069596Y0234562D02*
X0072665Y0237631D01*
X0072665Y0238399D01*
X0071898Y0239166D01*
X0070363Y0239166D01*
X0069596Y0238399D01*
X0068061Y0239166D02*
X0064992Y0234562D01*
X0069596Y0234562D02*
X0072665Y0234562D01*
X0071131Y0199166D02*
X0071131Y0194562D01*
X0072665Y0194562D02*
X0069596Y0194562D01*
X0068061Y0194562D02*
X0064992Y0199166D01*
X0068061Y0199166D02*
X0064992Y0194562D01*
X0069596Y0197631D02*
X0071131Y0199166D01*
X0246696Y0159873D02*
X0246696Y0156804D01*
X0248998Y0156804D01*
X0248231Y0158339D01*
X0248231Y0159106D01*
X0248998Y0159873D01*
X0250533Y0159873D01*
X0251300Y0159106D01*
X0251300Y0157571D01*
X0250533Y0156804D01*
X0251300Y0155269D02*
X0249765Y0153735D01*
X0249765Y0154502D02*
X0249765Y0152200D01*
X0251300Y0152200D02*
X0246696Y0152200D01*
X0246696Y0154502D01*
X0247463Y0155269D01*
X0248998Y0155269D01*
X0249765Y0154502D01*
X0249765Y0134873D02*
X0248998Y0134106D01*
X0248998Y0131804D01*
X0250533Y0131804D01*
X0251300Y0132571D01*
X0251300Y0134106D01*
X0250533Y0134873D01*
X0249765Y0134873D01*
X0247463Y0133339D02*
X0248998Y0131804D01*
X0248998Y0130269D02*
X0249765Y0129502D01*
X0249765Y0127200D01*
X0249765Y0128735D02*
X0251300Y0130269D01*
X0248998Y0130269D02*
X0247463Y0130269D01*
X0246696Y0129502D01*
X0246696Y0127200D01*
X0251300Y0127200D01*
X0247463Y0133339D02*
X0246696Y0134873D01*
X0261696Y0227992D02*
X0261696Y0230294D01*
X0262463Y0231061D01*
X0263998Y0231061D01*
X0264765Y0230294D01*
X0264765Y0227992D01*
X0264765Y0229527D02*
X0266300Y0231061D01*
X0265533Y0232596D02*
X0266300Y0233363D01*
X0266300Y0234898D01*
X0265533Y0235665D01*
X0262463Y0235665D01*
X0261696Y0234898D01*
X0261696Y0233363D01*
X0262463Y0232596D01*
X0263231Y0232596D01*
X0263998Y0233363D01*
X0263998Y0235665D01*
X0266300Y0227992D02*
X0261696Y0227992D01*
X0261696Y0248388D02*
X0261696Y0250690D01*
X0262463Y0251457D01*
X0263998Y0251457D01*
X0264765Y0250690D01*
X0264765Y0248388D01*
X0264765Y0249923D02*
X0266300Y0251457D01*
X0266300Y0252992D02*
X0266300Y0256061D01*
X0266300Y0254527D02*
X0261696Y0254527D01*
X0263231Y0252992D01*
X0262463Y0257596D02*
X0261696Y0258363D01*
X0261696Y0259898D01*
X0262463Y0260665D01*
X0265533Y0257596D01*
X0266300Y0258363D01*
X0266300Y0259898D01*
X0265533Y0260665D01*
X0262463Y0260665D01*
X0262463Y0257596D02*
X0265533Y0257596D01*
X0266300Y0248388D02*
X0261696Y0248388D01*
D16*
X0139000Y0291250D03*
X0139000Y0293750D03*
X0139000Y0296250D03*
X0129000Y0296250D03*
X0129000Y0293750D03*
X0129000Y0291250D03*
D17*
X0182800Y0272000D02*
X0182800Y0232000D01*
X0215200Y0194500D02*
X0215200Y0154500D01*
X0227800Y0204500D02*
X0227800Y0244500D01*
M02*
