%
M48
M72
T01C0.02400
T02C0.02756
T03C0.03200
T04C0.06693
%
T01
X21500Y141250
X25875Y163750
X222750Y126875
X222125Y143125
X214000Y201875
X225875Y130625
X73375Y152500
X80250Y168750
X95875Y210000
X195875Y263125
X212750Y97500
X117750Y38125
X77125Y142500
X74000Y165000
X102125Y268625
X129625Y201875
X189625Y103125
X189625Y75000
X190875Y163750
X191000Y173500
X189625Y58750
X170875Y207500
X144625Y230000
X199000Y123750
X192750Y204375
X122125Y230000
X129625Y196875
X199000Y128750
X196500Y183125
X189000Y186875
X189000Y201250
X172750Y85000
X167125Y181250
X14625Y70000
X189000Y179375
X80250Y163750
X80250Y118750
X142750Y70000
X129625Y213125
X102750Y52500
X150250Y208125
X199000Y190625
X206500Y118125
X199000Y116250
X197125Y56875
X172750Y55000
X172750Y33125
X174625Y180625
X179625Y33125
X165250Y176250
X165250Y123750
X192750Y108125
X193375Y33125
X145875Y168750
X132125Y43750
X176500Y215000
X163375Y184375
X147750Y183750
X135250Y47500
X214625Y175625
X217750Y33125
X129625Y218125
X140250Y186250
X155250Y176250
X160250Y33125
X167750Y33125
X154000Y214375
X144000Y203125
X144000Y177500
X174625Y172500
X175875Y43750
X189000Y41875
X188375Y218750
X190875Y211250
X202125Y43750
X212750Y33125
X189000Y155625
X185250Y38125
X167125Y136875
X164625Y43750
X144000Y40625
X144000Y32500
X155875Y130625
X155250Y33125
X160875Y105000
X218375Y146875
X221500Y75625
X147750Y66250
X229625Y133750
X229625Y65625
X144000Y56875
X120875Y53125
X221500Y51250
X225875Y104375
X14625Y64375
X177125Y273125
X205250Y245000
X162750Y264375
X142750Y62500
X151500Y88750
X151500Y56875
X112750Y35625
X230000Y156250
X168375Y200625
X163375Y130625
X205875Y112500
X80250Y71250
X95250Y70000
X105250Y83750
X169625Y191875
X172750Y100875
X151500Y98125
T02
X19000Y157500
X26500Y157500
X49000Y157500
X59000Y157500
X99000Y157500
X106500Y157500
X134000Y157500
X141500Y157500
X24000Y70000
X29000Y67500
X104000Y70000
X109000Y67500
X116500Y67500
X167500Y165000
X167500Y148750
X36500Y67500
X134000Y67500
X51500Y67500
X44000Y67500
X124000Y67500
T03
X74000Y40500
X74000Y54500
X229000Y150000
X229000Y140000
X229000Y180000
X229000Y170000
X14000Y272500
X24000Y272500
X206500Y270000
X216500Y270000
X49000Y272500
X59000Y272500
X166500Y260000
X159000Y255000
X166500Y250000
X101500Y247500
X111500Y247500
X111500Y277500
X101500Y277500
T04
X29000Y174705
X29000Y190295
X29000Y214705
X29000Y230295
M30
