G75*
%MOIN*%
%OFA0B0*%
%FSLAX25Y25*%
%IPPOS*%
%LPD*%
%AMOC8*
5,1,8,0,0,1.08239X$1,22.5*
%
%ADD10C,0.00000*%
%ADD11OC8,0.06300*%
%ADD12C,0.06300*%
%ADD13OC8,0.05200*%
%ADD14R,0.05906X0.05118*%
%ADD15R,0.05118X0.05906*%
%ADD16C,0.05200*%
%ADD17R,0.08000X0.02600*%
%ADD18R,0.06500X0.15000*%
%ADD19R,0.25000X0.15000*%
%ADD20C,0.00500*%
%ADD21R,0.02000X0.47244*%
%ADD22R,0.02000X0.07874*%
%ADD23R,0.02000X0.15748*%
%ADD24R,0.43307X0.23622*%
%ADD25R,0.02559X0.32677*%
%ADD26R,0.25591X0.23622*%
%ADD27R,0.03937X0.29528*%
%ADD28C,0.10039*%
%ADD29C,0.01600*%
%ADD30C,0.01000*%
%ADD31C,0.02400*%
%ADD32C,0.04134*%
%ADD33C,0.03200*%
%ADD34C,0.03600*%
D10*
X0027500Y0034500D02*
X0027500Y0324500D01*
X0266500Y0324500D01*
X0266500Y0034500D01*
X0027500Y0034500D01*
D11*
X0101500Y0075000D03*
X0256500Y0174500D03*
X0256500Y0184500D03*
X0256500Y0204500D03*
X0256500Y0214500D03*
D12*
X0101500Y0089000D03*
D13*
X0194000Y0284500D03*
X0186500Y0289500D03*
X0194000Y0294500D03*
X0234000Y0304500D03*
X0244000Y0304500D03*
X0086500Y0307000D03*
X0076500Y0307000D03*
X0051500Y0307000D03*
X0041500Y0307000D03*
D14*
X0041500Y0288240D03*
X0041500Y0280760D03*
X0076500Y0280760D03*
X0076500Y0288240D03*
X0129000Y0268240D03*
X0129000Y0260760D03*
X0129000Y0248240D03*
X0129000Y0240760D03*
X0144000Y0260760D03*
X0144000Y0268240D03*
X0169000Y0285760D03*
X0169000Y0293240D03*
X0256500Y0263240D03*
X0256500Y0255760D03*
X0256500Y0238240D03*
X0256500Y0230760D03*
X0256500Y0158240D03*
X0256500Y0150760D03*
X0256500Y0133240D03*
X0256500Y0125760D03*
D15*
X0217740Y0299500D03*
X0210260Y0299500D03*
D16*
X0139000Y0309400D02*
X0139000Y0314600D01*
X0129000Y0314600D02*
X0129000Y0309400D01*
X0129000Y0284600D02*
X0129000Y0279400D01*
X0139000Y0279400D02*
X0139000Y0284600D01*
D17*
X0164400Y0269500D03*
X0164400Y0264500D03*
X0164400Y0259500D03*
X0164400Y0254500D03*
X0164400Y0249500D03*
X0164400Y0244500D03*
X0164400Y0239500D03*
X0164400Y0234500D03*
X0188600Y0234500D03*
X0188600Y0239500D03*
X0188600Y0244500D03*
X0188600Y0249500D03*
X0188600Y0254500D03*
X0188600Y0259500D03*
X0188600Y0264500D03*
X0188600Y0269500D03*
X0209400Y0242000D03*
X0209400Y0237000D03*
X0209400Y0232000D03*
X0209400Y0227000D03*
X0209400Y0222000D03*
X0209400Y0217000D03*
X0209400Y0212000D03*
X0209400Y0207000D03*
X0209400Y0192000D03*
X0209400Y0187000D03*
X0209400Y0182000D03*
X0209400Y0177000D03*
X0209400Y0172000D03*
X0209400Y0167000D03*
X0209400Y0162000D03*
X0209400Y0157000D03*
X0209400Y0139500D03*
X0209400Y0134500D03*
X0209400Y0129500D03*
X0209400Y0124500D03*
X0209400Y0119500D03*
X0209400Y0114500D03*
X0209400Y0109500D03*
X0233600Y0109500D03*
X0233600Y0114500D03*
X0233600Y0119500D03*
X0233600Y0124500D03*
X0233600Y0129500D03*
X0233600Y0134500D03*
X0233600Y0139500D03*
X0233600Y0157000D03*
X0233600Y0162000D03*
X0233600Y0167000D03*
X0233600Y0172000D03*
X0233600Y0177000D03*
X0233600Y0182000D03*
X0233600Y0187000D03*
X0233600Y0192000D03*
X0233600Y0207000D03*
X0233600Y0212000D03*
X0233600Y0217000D03*
X0233600Y0222000D03*
X0233600Y0227000D03*
X0233600Y0232000D03*
X0233600Y0237000D03*
X0233600Y0242000D03*
D18*
X0236500Y0047000D03*
X0226500Y0047000D03*
X0216500Y0047000D03*
X0206500Y0047000D03*
X0196500Y0047000D03*
X0186500Y0047000D03*
X0176500Y0047000D03*
X0166500Y0047000D03*
X0156500Y0047000D03*
X0246500Y0047000D03*
X0256500Y0047000D03*
D19*
X0136500Y0047000D03*
X0106500Y0047000D03*
X0076500Y0047000D03*
X0046500Y0047000D03*
D20*
X0029500Y0034500D02*
X0149000Y0034500D01*
X0153200Y0034500D01*
X0264500Y0034500D01*
X0266500Y0036500D01*
X0029500Y0034500D02*
X0027500Y0036500D01*
D21*
X0038941Y0131252D03*
X0038941Y0162748D03*
X0094059Y0162748D03*
X0118941Y0162748D03*
X0118941Y0131252D03*
X0094059Y0131252D03*
X0174059Y0131252D03*
X0174059Y0162748D03*
D22*
X0170122Y0182433D03*
X0166185Y0182433D03*
X0162248Y0182433D03*
X0158311Y0182433D03*
X0150437Y0182433D03*
X0142563Y0182433D03*
X0134689Y0182433D03*
X0130752Y0182433D03*
X0126815Y0182433D03*
X0122878Y0182433D03*
X0090122Y0182433D03*
X0086185Y0182433D03*
X0082248Y0182433D03*
X0078311Y0182433D03*
X0070437Y0182433D03*
X0062563Y0182433D03*
X0054689Y0182433D03*
X0050752Y0182433D03*
X0046815Y0182433D03*
X0042878Y0182433D03*
X0042878Y0111567D03*
X0050752Y0111567D03*
X0054689Y0111567D03*
X0058626Y0111567D03*
X0062563Y0111567D03*
X0066500Y0111567D03*
X0070437Y0111567D03*
X0074374Y0111567D03*
X0078311Y0111567D03*
X0082248Y0111567D03*
X0090122Y0111567D03*
X0122878Y0111567D03*
X0130752Y0111567D03*
X0134689Y0111567D03*
X0138626Y0111567D03*
X0142563Y0111567D03*
X0146500Y0111567D03*
X0150437Y0111567D03*
X0154374Y0111567D03*
X0158311Y0111567D03*
X0162248Y0111567D03*
X0170122Y0111567D03*
D23*
X0166185Y0115504D03*
X0126815Y0115504D03*
X0086185Y0115504D03*
X0046815Y0115504D03*
X0058626Y0178496D03*
X0066500Y0178496D03*
X0074374Y0178496D03*
X0138626Y0178496D03*
X0146500Y0178496D03*
X0154374Y0178496D03*
D24*
X0146500Y0133220D03*
X0066500Y0133220D03*
D25*
X0066500Y0159382D03*
X0146500Y0159382D03*
D26*
X0129768Y0160780D03*
X0163232Y0160780D03*
X0083232Y0160780D03*
X0049768Y0160780D03*
D27*
X0038941Y0136154D03*
X0094059Y0136154D03*
X0118941Y0136154D03*
X0174059Y0136154D03*
D28*
X0061520Y0209205D02*
X0051480Y0209205D01*
X0051480Y0224795D02*
X0061520Y0224795D01*
X0061520Y0249205D02*
X0051480Y0249205D01*
X0051480Y0264795D02*
X0061520Y0264795D01*
D29*
X0067743Y0252000D02*
X0081500Y0252000D01*
X0076500Y0242000D01*
X0046500Y0242000D01*
X0046500Y0244541D01*
X0046974Y0244066D01*
X0047683Y0243522D01*
X0048458Y0243075D01*
X0049283Y0242733D01*
X0050147Y0242502D01*
X0051033Y0242385D01*
X0055700Y0242385D01*
X0055700Y0248405D01*
X0057300Y0248405D01*
X0057300Y0250005D01*
X0068293Y0250005D01*
X0068223Y0250538D01*
X0067991Y0251402D01*
X0067743Y0252000D01*
X0067786Y0251898D02*
X0081449Y0251898D01*
X0081398Y0251898D02*
X0081602Y0251898D01*
X0081500Y0252000D02*
X0116500Y0217000D01*
X0116500Y0187474D01*
X0116264Y0187065D01*
X0116141Y0186607D01*
X0116141Y0174189D01*
X0115867Y0174031D01*
X0115532Y0173696D01*
X0115295Y0173285D01*
X0115172Y0172828D01*
X0115172Y0161579D01*
X0116141Y0161579D01*
X0116141Y0159980D01*
X0115172Y0159980D01*
X0115172Y0152000D01*
X0111500Y0152000D01*
X0111500Y0207000D01*
X0076500Y0242000D01*
X0071500Y0242000D01*
X0081500Y0252000D01*
X0080650Y0250299D02*
X0068254Y0250299D01*
X0068293Y0248405D02*
X0057300Y0248405D01*
X0057300Y0242385D01*
X0061967Y0242385D01*
X0062853Y0242502D01*
X0063716Y0242733D01*
X0064542Y0243075D01*
X0065317Y0243522D01*
X0066026Y0244066D01*
X0066658Y0244699D01*
X0067202Y0245408D01*
X0067649Y0246182D01*
X0067991Y0247008D01*
X0068223Y0247871D01*
X0068293Y0248405D01*
X0068016Y0247102D02*
X0079051Y0247102D01*
X0078252Y0245503D02*
X0067257Y0245503D01*
X0065815Y0243905D02*
X0077452Y0243905D01*
X0076653Y0242306D02*
X0046500Y0242306D01*
X0046500Y0243905D02*
X0047184Y0243905D01*
X0055700Y0243905D02*
X0057300Y0243905D01*
X0057300Y0245503D02*
X0055700Y0245503D01*
X0055700Y0247102D02*
X0057300Y0247102D01*
X0057300Y0248701D02*
X0079850Y0248701D01*
X0079799Y0250299D02*
X0083201Y0250299D01*
X0084799Y0248701D02*
X0078201Y0248701D01*
X0076602Y0247102D02*
X0086398Y0247102D01*
X0087997Y0245503D02*
X0075003Y0245503D01*
X0073405Y0243905D02*
X0089595Y0243905D01*
X0091194Y0242306D02*
X0071806Y0242306D01*
X0077792Y0240708D02*
X0092792Y0240708D01*
X0094391Y0239109D02*
X0079391Y0239109D01*
X0080989Y0237511D02*
X0095989Y0237511D01*
X0097588Y0235912D02*
X0082588Y0235912D01*
X0084186Y0234314D02*
X0099186Y0234314D01*
X0100785Y0232715D02*
X0085785Y0232715D01*
X0087383Y0231117D02*
X0102383Y0231117D01*
X0103982Y0229518D02*
X0088982Y0229518D01*
X0090580Y0227920D02*
X0105580Y0227920D01*
X0107179Y0226321D02*
X0092179Y0226321D01*
X0093777Y0224723D02*
X0108777Y0224723D01*
X0110376Y0223124D02*
X0095376Y0223124D01*
X0096974Y0221526D02*
X0111974Y0221526D01*
X0113573Y0219927D02*
X0098573Y0219927D01*
X0100171Y0218329D02*
X0115171Y0218329D01*
X0116500Y0216730D02*
X0101770Y0216730D01*
X0103368Y0215132D02*
X0116500Y0215132D01*
X0116500Y0213533D02*
X0104967Y0213533D01*
X0106565Y0211935D02*
X0116500Y0211935D01*
X0116500Y0210336D02*
X0108164Y0210336D01*
X0109762Y0208738D02*
X0116500Y0208738D01*
X0116500Y0207139D02*
X0111361Y0207139D01*
X0111500Y0205541D02*
X0116500Y0205541D01*
X0116500Y0203942D02*
X0111500Y0203942D01*
X0111500Y0202344D02*
X0116500Y0202344D01*
X0116500Y0200745D02*
X0111500Y0200745D01*
X0111500Y0199147D02*
X0116500Y0199147D01*
X0116500Y0197548D02*
X0111500Y0197548D01*
X0111500Y0195950D02*
X0116500Y0195950D01*
X0116500Y0194351D02*
X0111500Y0194351D01*
X0111500Y0192753D02*
X0116500Y0192753D01*
X0116500Y0191154D02*
X0111500Y0191154D01*
X0111500Y0189556D02*
X0116500Y0189556D01*
X0116500Y0187957D02*
X0111500Y0187957D01*
X0111500Y0186359D02*
X0116141Y0186359D01*
X0116141Y0184760D02*
X0111500Y0184760D01*
X0111500Y0183162D02*
X0116141Y0183162D01*
X0116141Y0181563D02*
X0111500Y0181563D01*
X0111500Y0179965D02*
X0116141Y0179965D01*
X0116141Y0178366D02*
X0111500Y0178366D01*
X0111500Y0176768D02*
X0116141Y0176768D01*
X0116141Y0175169D02*
X0111500Y0175169D01*
X0111500Y0173570D02*
X0115460Y0173570D01*
X0115172Y0171972D02*
X0111500Y0171972D01*
X0111500Y0170373D02*
X0115172Y0170373D01*
X0115172Y0168775D02*
X0111500Y0168775D01*
X0111500Y0167176D02*
X0115172Y0167176D01*
X0115172Y0165578D02*
X0111500Y0165578D01*
X0111500Y0163979D02*
X0115172Y0163979D01*
X0115172Y0162381D02*
X0111500Y0162381D01*
X0111500Y0160782D02*
X0116141Y0160782D01*
X0115172Y0159184D02*
X0111500Y0159184D01*
X0111500Y0157585D02*
X0115172Y0157585D01*
X0115172Y0155987D02*
X0111500Y0155987D01*
X0111500Y0154388D02*
X0115172Y0154388D01*
X0115172Y0152790D02*
X0111500Y0152790D01*
X0130568Y0159980D02*
X0130568Y0161579D01*
X0141500Y0161579D01*
X0141500Y0159980D01*
X0130568Y0159980D01*
X0130568Y0160782D02*
X0141500Y0160782D01*
X0146500Y0133220D02*
X0126500Y0133220D01*
X0126500Y0115750D01*
X0126500Y0059500D01*
X0106500Y0059500D01*
X0106500Y0047000D01*
X0107300Y0047288D02*
X0135700Y0047288D01*
X0135700Y0047800D02*
X0135700Y0046200D01*
X0122200Y0046200D01*
X0122200Y0039500D01*
X0120800Y0039500D01*
X0120800Y0046200D01*
X0107300Y0046200D01*
X0107300Y0047800D01*
X0105700Y0047800D01*
X0105700Y0056300D01*
X0093763Y0056300D01*
X0093305Y0056177D01*
X0092895Y0055940D01*
X0092560Y0055605D01*
X0092323Y0055195D01*
X0092200Y0054737D01*
X0092200Y0047800D01*
X0105700Y0047800D01*
X0105700Y0046200D01*
X0092200Y0046200D01*
X0092200Y0039500D01*
X0090800Y0039500D01*
X0090800Y0046200D01*
X0077300Y0046200D01*
X0077300Y0047800D01*
X0075700Y0047800D01*
X0075700Y0056300D01*
X0063763Y0056300D01*
X0063305Y0056177D01*
X0062895Y0055940D01*
X0062560Y0055605D01*
X0062323Y0055195D01*
X0062200Y0054737D01*
X0062200Y0047800D01*
X0075700Y0047800D01*
X0075700Y0046200D01*
X0062200Y0046200D01*
X0062200Y0039500D01*
X0060800Y0039500D01*
X0060800Y0046200D01*
X0047300Y0046200D01*
X0047300Y0047800D01*
X0060800Y0047800D01*
X0060800Y0054737D01*
X0060677Y0055195D01*
X0060440Y0055605D01*
X0060105Y0055940D01*
X0059695Y0056177D01*
X0059237Y0056300D01*
X0047300Y0056300D01*
X0047300Y0047800D01*
X0045700Y0047800D01*
X0045700Y0056300D01*
X0033763Y0056300D01*
X0033305Y0056177D01*
X0032895Y0055940D01*
X0032560Y0055605D01*
X0032323Y0055195D01*
X0032200Y0054737D01*
X0032200Y0047800D01*
X0045700Y0047800D01*
X0045700Y0046200D01*
X0032200Y0046200D01*
X0032200Y0039500D01*
X0031500Y0039500D01*
X0031500Y0097000D01*
X0039475Y0097000D01*
X0040312Y0096162D01*
X0041488Y0095675D01*
X0042762Y0095675D01*
X0043938Y0096162D01*
X0044775Y0097000D01*
X0128350Y0097000D01*
X0128350Y0089625D01*
X0127537Y0088813D01*
X0127050Y0087637D01*
X0127050Y0086363D01*
X0127537Y0085187D01*
X0128437Y0084287D01*
X0129613Y0083800D01*
X0130887Y0083800D01*
X0132063Y0084287D01*
X0132963Y0085187D01*
X0133450Y0086363D01*
X0133450Y0087637D01*
X0132963Y0088813D01*
X0132150Y0089625D01*
X0132150Y0097000D01*
X0146500Y0097000D01*
X0146500Y0093275D01*
X0146338Y0093275D01*
X0139463Y0086400D01*
X0138350Y0085287D01*
X0138350Y0072750D01*
X0137537Y0071938D01*
X0137050Y0070762D01*
X0137050Y0069488D01*
X0137537Y0068312D01*
X0138437Y0067412D01*
X0139613Y0066925D01*
X0140887Y0066925D01*
X0142063Y0067412D01*
X0142963Y0068312D01*
X0143450Y0069488D01*
X0143450Y0069907D01*
X0144613Y0069425D01*
X0145887Y0069425D01*
X0146500Y0069679D01*
X0146500Y0056300D01*
X0137300Y0056300D01*
X0137300Y0047800D01*
X0135700Y0047800D01*
X0135700Y0056300D01*
X0123763Y0056300D01*
X0123305Y0056177D01*
X0122895Y0055940D01*
X0122560Y0055605D01*
X0122323Y0055195D01*
X0122200Y0054737D01*
X0122200Y0047800D01*
X0135700Y0047800D01*
X0135700Y0048887D02*
X0137300Y0048887D01*
X0137300Y0050485D02*
X0135700Y0050485D01*
X0135700Y0052084D02*
X0137300Y0052084D01*
X0137300Y0053682D02*
X0135700Y0053682D01*
X0135700Y0055281D02*
X0137300Y0055281D01*
X0136500Y0047000D02*
X0136500Y0097000D01*
X0166500Y0097000D01*
X0166500Y0111567D01*
X0166185Y0111567D01*
X0166185Y0115504D01*
X0166185Y0111567D02*
X0162248Y0111567D01*
X0166500Y0111567D02*
X0166500Y0133220D01*
X0146500Y0133220D01*
X0149000Y0119500D02*
X0136500Y0119500D01*
X0134689Y0117689D01*
X0134689Y0111567D01*
X0130752Y0111567D02*
X0130752Y0105248D01*
X0131500Y0104500D01*
X0136500Y0102000D02*
X0142563Y0108063D01*
X0142563Y0111567D01*
X0146500Y0111567D02*
X0146500Y0104500D01*
X0144000Y0102000D01*
X0146500Y0096842D02*
X0132150Y0096842D01*
X0132150Y0095243D02*
X0146500Y0095243D01*
X0146500Y0093645D02*
X0132150Y0093645D01*
X0132150Y0092046D02*
X0145109Y0092046D01*
X0143511Y0090448D02*
X0132150Y0090448D01*
X0132926Y0088849D02*
X0141912Y0088849D01*
X0140314Y0087251D02*
X0133450Y0087251D01*
X0133155Y0085652D02*
X0138715Y0085652D01*
X0138350Y0084054D02*
X0131499Y0084054D01*
X0129001Y0084054D02*
X0101914Y0084054D01*
X0101890Y0084050D02*
X0102659Y0084172D01*
X0103400Y0084413D01*
X0104094Y0084766D01*
X0104725Y0085224D01*
X0105276Y0085775D01*
X0105734Y0086406D01*
X0106087Y0087100D01*
X0106328Y0087841D01*
X0106450Y0088610D01*
X0106450Y0089000D01*
X0106450Y0089390D01*
X0106328Y0090159D01*
X0106087Y0090900D01*
X0105734Y0091594D01*
X0105276Y0092225D01*
X0104725Y0092776D01*
X0104094Y0093234D01*
X0103400Y0093587D01*
X0102659Y0093828D01*
X0101890Y0093950D01*
X0101500Y0093950D01*
X0101500Y0089000D01*
X0101500Y0089000D01*
X0106450Y0089000D01*
X0101500Y0089000D01*
X0101500Y0089000D01*
X0101500Y0089000D01*
X0096550Y0089000D01*
X0096550Y0089390D01*
X0096672Y0090159D01*
X0096913Y0090900D01*
X0097266Y0091594D01*
X0097724Y0092225D01*
X0098275Y0092776D01*
X0098906Y0093234D01*
X0099600Y0093587D01*
X0100341Y0093828D01*
X0101110Y0093950D01*
X0101500Y0093950D01*
X0101500Y0089000D01*
X0101500Y0084050D01*
X0101890Y0084050D01*
X0101500Y0084054D02*
X0101500Y0084054D01*
X0101500Y0084050D02*
X0101500Y0089000D01*
X0101500Y0089000D01*
X0096550Y0089000D01*
X0096550Y0088610D01*
X0096672Y0087841D01*
X0096913Y0087100D01*
X0097266Y0086406D01*
X0097724Y0085775D01*
X0098275Y0085224D01*
X0098906Y0084766D01*
X0099600Y0084413D01*
X0100341Y0084172D01*
X0101110Y0084050D01*
X0101500Y0084050D01*
X0101086Y0084054D02*
X0031500Y0084054D01*
X0031500Y0085652D02*
X0097847Y0085652D01*
X0096864Y0087251D02*
X0031500Y0087251D01*
X0031500Y0088849D02*
X0096550Y0088849D01*
X0096766Y0090448D02*
X0031500Y0090448D01*
X0031500Y0092046D02*
X0097595Y0092046D01*
X0099777Y0093645D02*
X0031500Y0093645D01*
X0031500Y0095243D02*
X0128350Y0095243D01*
X0128350Y0093645D02*
X0103223Y0093645D01*
X0101500Y0093645D02*
X0101500Y0093645D01*
X0101500Y0092046D02*
X0101500Y0092046D01*
X0101500Y0090448D02*
X0101500Y0090448D01*
X0101500Y0088849D02*
X0101500Y0088849D01*
X0101500Y0087251D02*
X0101500Y0087251D01*
X0101500Y0085652D02*
X0101500Y0085652D01*
X0105153Y0085652D02*
X0127345Y0085652D01*
X0127050Y0087251D02*
X0106136Y0087251D01*
X0106450Y0088849D02*
X0127574Y0088849D01*
X0128350Y0090448D02*
X0106234Y0090448D01*
X0105405Y0092046D02*
X0128350Y0092046D01*
X0128350Y0096842D02*
X0044617Y0096842D01*
X0039633Y0096842D02*
X0031500Y0096842D01*
X0031500Y0082455D02*
X0138350Y0082455D01*
X0138350Y0080857D02*
X0031500Y0080857D01*
X0031500Y0079258D02*
X0099324Y0079258D01*
X0099615Y0079550D02*
X0096950Y0076885D01*
X0096950Y0073115D01*
X0099615Y0070450D01*
X0103385Y0070450D01*
X0106050Y0073115D01*
X0106050Y0076885D01*
X0103385Y0079550D01*
X0099615Y0079550D01*
X0097725Y0077660D02*
X0031500Y0077660D01*
X0031500Y0076061D02*
X0096950Y0076061D01*
X0096950Y0074463D02*
X0031500Y0074463D01*
X0031500Y0072864D02*
X0097201Y0072864D01*
X0098800Y0071266D02*
X0031500Y0071266D01*
X0031500Y0069667D02*
X0137050Y0069667D01*
X0137259Y0071266D02*
X0104200Y0071266D01*
X0105799Y0072864D02*
X0138350Y0072864D01*
X0138350Y0074463D02*
X0106050Y0074463D01*
X0106050Y0076061D02*
X0138350Y0076061D01*
X0138350Y0077660D02*
X0105275Y0077660D01*
X0103676Y0079258D02*
X0138350Y0079258D01*
X0143450Y0069667D02*
X0144029Y0069667D01*
X0142719Y0068069D02*
X0146500Y0068069D01*
X0146471Y0069667D02*
X0146500Y0069667D01*
X0146500Y0066470D02*
X0031500Y0066470D01*
X0031500Y0064872D02*
X0146500Y0064872D01*
X0146500Y0063273D02*
X0031500Y0063273D01*
X0031500Y0061675D02*
X0146500Y0061675D01*
X0146500Y0060076D02*
X0031500Y0060076D01*
X0031500Y0058478D02*
X0146500Y0058478D01*
X0146500Y0056879D02*
X0031500Y0056879D01*
X0031500Y0055281D02*
X0032372Y0055281D01*
X0032200Y0053682D02*
X0031500Y0053682D01*
X0031500Y0052084D02*
X0032200Y0052084D01*
X0032200Y0050485D02*
X0031500Y0050485D01*
X0031500Y0048887D02*
X0032200Y0048887D01*
X0031500Y0047288D02*
X0045700Y0047288D01*
X0046500Y0047000D02*
X0046500Y0115750D01*
X0046500Y0127000D01*
X0054689Y0117689D02*
X0056500Y0119500D01*
X0069000Y0119500D01*
X0070437Y0118063D01*
X0070437Y0111567D01*
X0070437Y0103063D01*
X0071500Y0102000D01*
X0074374Y0106626D02*
X0079000Y0102000D01*
X0074374Y0106626D02*
X0074374Y0111567D01*
X0066500Y0111567D02*
X0066500Y0104500D01*
X0064000Y0102000D01*
X0062563Y0108063D02*
X0056500Y0102000D01*
X0051500Y0104500D02*
X0050752Y0105248D01*
X0050752Y0111567D01*
X0054689Y0111567D02*
X0054689Y0117689D01*
X0062563Y0111567D02*
X0062563Y0108063D01*
X0082248Y0111567D02*
X0086500Y0111567D01*
X0086500Y0112000D01*
X0086185Y0112000D01*
X0086185Y0115504D01*
X0086500Y0112000D02*
X0086500Y0137000D01*
X0066500Y0137000D01*
X0066500Y0159382D01*
X0058626Y0178496D02*
X0058626Y0207079D01*
X0056500Y0209205D01*
X0054295Y0207000D01*
X0046500Y0207000D01*
X0036500Y0197000D01*
X0036500Y0187474D01*
X0036264Y0187065D01*
X0036141Y0186607D01*
X0036141Y0174189D01*
X0035900Y0174050D01*
X0035900Y0212000D01*
X0045257Y0212000D01*
X0045009Y0211402D01*
X0044777Y0210538D01*
X0044707Y0210005D01*
X0055700Y0210005D01*
X0055700Y0208405D01*
X0044707Y0208405D01*
X0044777Y0207871D01*
X0045009Y0207008D01*
X0045351Y0206182D01*
X0045798Y0205408D01*
X0046342Y0204699D01*
X0046974Y0204066D01*
X0047683Y0203522D01*
X0048458Y0203075D01*
X0049283Y0202733D01*
X0050147Y0202502D01*
X0051033Y0202385D01*
X0055700Y0202385D01*
X0055700Y0208405D01*
X0057300Y0208405D01*
X0057300Y0202385D01*
X0061967Y0202385D01*
X0062853Y0202502D01*
X0063716Y0202733D01*
X0064542Y0203075D01*
X0065317Y0203522D01*
X0066026Y0204066D01*
X0066500Y0204541D01*
X0066500Y0197000D01*
X0057775Y0197000D01*
X0057775Y0199037D01*
X0056662Y0200150D01*
X0056000Y0200150D01*
X0055188Y0200963D01*
X0054012Y0201450D01*
X0052738Y0201450D01*
X0051562Y0200963D01*
X0050662Y0200063D01*
X0050175Y0198887D01*
X0050175Y0197613D01*
X0050429Y0197000D01*
X0036500Y0197000D01*
X0036500Y0187000D01*
X0038941Y0184559D01*
X0038941Y0162748D01*
X0038941Y0174391D02*
X0038941Y0187000D01*
X0038941Y0187000D01*
X0038941Y0174391D01*
X0038941Y0174391D01*
X0038941Y0175169D02*
X0038941Y0175169D01*
X0038941Y0176768D02*
X0038941Y0176768D01*
X0038941Y0178366D02*
X0038941Y0178366D01*
X0038941Y0179965D02*
X0038941Y0179965D01*
X0038941Y0181563D02*
X0038941Y0181563D01*
X0038941Y0183162D02*
X0038941Y0183162D01*
X0038941Y0184760D02*
X0038941Y0184760D01*
X0038941Y0186359D02*
X0038941Y0186359D01*
X0036141Y0186359D02*
X0035900Y0186359D01*
X0035900Y0187957D02*
X0036500Y0187957D01*
X0036500Y0189556D02*
X0035900Y0189556D01*
X0035900Y0191154D02*
X0036500Y0191154D01*
X0036500Y0192753D02*
X0035900Y0192753D01*
X0035900Y0194351D02*
X0036500Y0194351D01*
X0036500Y0195950D02*
X0035900Y0195950D01*
X0035900Y0197548D02*
X0050202Y0197548D01*
X0050283Y0199147D02*
X0035900Y0199147D01*
X0035900Y0200745D02*
X0051345Y0200745D01*
X0055405Y0200745D02*
X0066500Y0200745D01*
X0066500Y0199147D02*
X0057665Y0199147D01*
X0057775Y0197548D02*
X0066500Y0197548D01*
X0066500Y0202344D02*
X0035900Y0202344D01*
X0035900Y0203942D02*
X0047136Y0203942D01*
X0045721Y0205541D02*
X0035900Y0205541D01*
X0035900Y0207139D02*
X0044973Y0207139D01*
X0044751Y0210336D02*
X0035900Y0210336D01*
X0035900Y0208738D02*
X0055700Y0208738D01*
X0055700Y0207139D02*
X0057300Y0207139D01*
X0057300Y0205541D02*
X0055700Y0205541D01*
X0055700Y0203942D02*
X0057300Y0203942D01*
X0065864Y0203942D02*
X0066500Y0203942D01*
X0081995Y0215132D02*
X0093368Y0215132D01*
X0091770Y0216730D02*
X0080716Y0216730D01*
X0079437Y0218329D02*
X0090171Y0218329D01*
X0088573Y0219927D02*
X0078158Y0219927D01*
X0076879Y0221526D02*
X0086974Y0221526D01*
X0085376Y0223124D02*
X0068132Y0223124D01*
X0068223Y0223462D02*
X0068293Y0223995D01*
X0057300Y0223995D01*
X0057300Y0225595D01*
X0068293Y0225595D01*
X0068223Y0226129D01*
X0067991Y0226992D01*
X0067649Y0227818D01*
X0067202Y0228592D01*
X0066658Y0229301D01*
X0066026Y0229934D01*
X0065317Y0230478D01*
X0064542Y0230925D01*
X0063716Y0231267D01*
X0062853Y0231498D01*
X0061967Y0231615D01*
X0057300Y0231615D01*
X0057300Y0225595D01*
X0055700Y0225595D01*
X0055700Y0231615D01*
X0051033Y0231615D01*
X0050147Y0231498D01*
X0049283Y0231267D01*
X0048458Y0230925D01*
X0047683Y0230478D01*
X0046974Y0229934D01*
X0046500Y0229459D01*
X0046500Y0232000D01*
X0076500Y0232000D01*
X0101500Y0207000D01*
X0101500Y0205150D01*
X0096963Y0205150D01*
X0095850Y0204037D01*
X0095850Y0197812D01*
X0076500Y0222000D01*
X0067743Y0222000D01*
X0067991Y0222598D01*
X0068223Y0223462D01*
X0068171Y0226321D02*
X0082179Y0226321D01*
X0083777Y0224723D02*
X0057300Y0224723D01*
X0057300Y0226321D02*
X0055700Y0226321D01*
X0055700Y0227920D02*
X0057300Y0227920D01*
X0057300Y0229518D02*
X0055700Y0229518D01*
X0055700Y0231117D02*
X0057300Y0231117D01*
X0064079Y0231117D02*
X0077383Y0231117D01*
X0078982Y0229518D02*
X0066441Y0229518D01*
X0067590Y0227920D02*
X0080580Y0227920D01*
X0083273Y0213533D02*
X0094967Y0213533D01*
X0096565Y0211935D02*
X0084552Y0211935D01*
X0085831Y0210336D02*
X0098164Y0210336D01*
X0099762Y0208738D02*
X0087110Y0208738D01*
X0088389Y0207139D02*
X0101361Y0207139D01*
X0101500Y0205541D02*
X0089667Y0205541D01*
X0090946Y0203942D02*
X0095850Y0203942D01*
X0095850Y0202344D02*
X0092225Y0202344D01*
X0093504Y0200745D02*
X0095850Y0200745D01*
X0095850Y0199147D02*
X0094783Y0199147D01*
X0054689Y0182433D02*
X0051933Y0182433D01*
X0051500Y0182000D01*
X0050752Y0182433D02*
X0046933Y0182433D01*
X0046500Y0182000D01*
X0036141Y0181563D02*
X0035900Y0181563D01*
X0035900Y0179965D02*
X0036141Y0179965D01*
X0036141Y0178366D02*
X0035900Y0178366D01*
X0035900Y0176768D02*
X0036141Y0176768D01*
X0036141Y0175169D02*
X0035900Y0175169D01*
X0035900Y0183162D02*
X0036141Y0183162D01*
X0036141Y0184760D02*
X0035900Y0184760D01*
X0035900Y0211935D02*
X0045230Y0211935D01*
X0046500Y0229518D02*
X0046559Y0229518D01*
X0046500Y0231117D02*
X0048921Y0231117D01*
X0149000Y0119500D02*
X0150437Y0118063D01*
X0150437Y0111567D01*
X0150437Y0103063D01*
X0151500Y0102000D01*
X0154374Y0106626D02*
X0156500Y0104500D01*
X0159000Y0104500D01*
X0161500Y0102000D01*
X0154374Y0106626D02*
X0154374Y0111567D01*
X0137781Y0068069D02*
X0031500Y0068069D01*
X0045700Y0055281D02*
X0047300Y0055281D01*
X0047300Y0053682D02*
X0045700Y0053682D01*
X0045700Y0052084D02*
X0047300Y0052084D01*
X0047300Y0050485D02*
X0045700Y0050485D01*
X0045700Y0048887D02*
X0047300Y0048887D01*
X0047300Y0047288D02*
X0075700Y0047288D01*
X0076500Y0047000D02*
X0086500Y0054500D01*
X0086500Y0111567D01*
X0089237Y0056300D02*
X0077300Y0056300D01*
X0077300Y0047800D01*
X0090800Y0047800D01*
X0090800Y0054737D01*
X0090677Y0055195D01*
X0090440Y0055605D01*
X0090105Y0055940D01*
X0089695Y0056177D01*
X0089237Y0056300D01*
X0090628Y0055281D02*
X0092372Y0055281D01*
X0092200Y0053682D02*
X0090800Y0053682D01*
X0090800Y0052084D02*
X0092200Y0052084D01*
X0092200Y0050485D02*
X0090800Y0050485D01*
X0090800Y0048887D02*
X0092200Y0048887D01*
X0092200Y0045690D02*
X0090800Y0045690D01*
X0090800Y0044091D02*
X0092200Y0044091D01*
X0092200Y0042493D02*
X0090800Y0042493D01*
X0090800Y0040894D02*
X0092200Y0040894D01*
X0105700Y0047288D02*
X0077300Y0047288D01*
X0077300Y0048887D02*
X0075700Y0048887D01*
X0075700Y0050485D02*
X0077300Y0050485D01*
X0077300Y0052084D02*
X0075700Y0052084D01*
X0075700Y0053682D02*
X0077300Y0053682D01*
X0077300Y0055281D02*
X0075700Y0055281D01*
X0062372Y0055281D02*
X0060628Y0055281D01*
X0060800Y0053682D02*
X0062200Y0053682D01*
X0062200Y0052084D02*
X0060800Y0052084D01*
X0060800Y0050485D02*
X0062200Y0050485D01*
X0062200Y0048887D02*
X0060800Y0048887D01*
X0060800Y0045690D02*
X0062200Y0045690D01*
X0062200Y0044091D02*
X0060800Y0044091D01*
X0060800Y0042493D02*
X0062200Y0042493D01*
X0062200Y0040894D02*
X0060800Y0040894D01*
X0032200Y0040894D02*
X0031500Y0040894D01*
X0031500Y0042493D02*
X0032200Y0042493D01*
X0032200Y0044091D02*
X0031500Y0044091D01*
X0031500Y0045690D02*
X0032200Y0045690D01*
X0105700Y0048887D02*
X0107300Y0048887D01*
X0107300Y0047800D02*
X0107300Y0056300D01*
X0119237Y0056300D01*
X0119695Y0056177D01*
X0120105Y0055940D01*
X0120440Y0055605D01*
X0120677Y0055195D01*
X0120800Y0054737D01*
X0120800Y0047800D01*
X0107300Y0047800D01*
X0107300Y0050485D02*
X0105700Y0050485D01*
X0105700Y0052084D02*
X0107300Y0052084D01*
X0107300Y0053682D02*
X0105700Y0053682D01*
X0105700Y0055281D02*
X0107300Y0055281D01*
X0120628Y0055281D02*
X0122372Y0055281D01*
X0122200Y0053682D02*
X0120800Y0053682D01*
X0120800Y0052084D02*
X0122200Y0052084D01*
X0122200Y0050485D02*
X0120800Y0050485D01*
X0120800Y0048887D02*
X0122200Y0048887D01*
X0122200Y0045690D02*
X0120800Y0045690D01*
X0120800Y0044091D02*
X0122200Y0044091D01*
X0122200Y0042493D02*
X0120800Y0042493D01*
X0120800Y0040894D02*
X0122200Y0040894D01*
D30*
X0140250Y0070125D02*
X0140250Y0084500D01*
X0147125Y0091375D01*
X0149625Y0091375D01*
X0153375Y0087625D01*
X0175250Y0087625D01*
X0179000Y0091375D01*
X0174000Y0091375D02*
X0179625Y0097000D01*
X0254000Y0097000D01*
X0257125Y0100125D01*
X0256500Y0095125D02*
X0219000Y0095125D01*
X0217125Y0093250D01*
X0222750Y0089500D02*
X0200250Y0089500D01*
X0203375Y0078250D02*
X0205250Y0076375D01*
X0216500Y0076375D01*
X0212750Y0072625D02*
X0211500Y0071375D01*
X0170875Y0071375D01*
X0166500Y0067000D01*
X0166500Y0047000D01*
X0171500Y0054500D02*
X0176500Y0047000D01*
X0171500Y0054500D02*
X0171500Y0067000D01*
X0171500Y0075125D02*
X0189000Y0075125D01*
X0192125Y0078250D01*
X0195250Y0067625D02*
X0187750Y0067625D01*
X0182750Y0067625D02*
X0182750Y0054500D01*
X0186500Y0047000D01*
X0196500Y0047000D02*
X0200250Y0054500D01*
X0200250Y0067625D01*
X0207125Y0067625D02*
X0207125Y0054500D01*
X0206500Y0047000D01*
X0216500Y0047000D02*
X0220875Y0054500D01*
X0220875Y0067625D01*
X0226500Y0071375D02*
X0226500Y0047000D01*
X0236500Y0047000D02*
X0236500Y0064500D01*
X0217125Y0083875D01*
X0164625Y0083875D01*
X0162750Y0082000D01*
X0159625Y0078250D02*
X0169625Y0078250D01*
X0173375Y0082000D01*
X0215875Y0082000D01*
X0226500Y0071375D01*
X0229625Y0078250D02*
X0240250Y0067625D01*
X0245250Y0067625D02*
X0245250Y0054500D01*
X0246500Y0047000D01*
X0256500Y0047000D02*
X0256500Y0095125D01*
X0252750Y0098875D02*
X0178375Y0098875D01*
X0176500Y0097000D01*
X0170250Y0097000D01*
X0171500Y0091375D02*
X0174000Y0091375D01*
X0175250Y0100750D02*
X0239625Y0100750D01*
X0249000Y0110125D01*
X0252750Y0111375D02*
X0252750Y0098875D01*
X0252750Y0111375D02*
X0246500Y0117625D01*
X0235875Y0117625D01*
X0234000Y0119500D01*
X0233600Y0119500D01*
X0233600Y0114500D02*
X0234000Y0114500D01*
X0235875Y0112625D01*
X0237750Y0112625D01*
X0239000Y0111375D01*
X0239000Y0104500D01*
X0170250Y0104500D01*
X0179000Y0123250D02*
X0207750Y0123250D01*
X0209000Y0124500D01*
X0209400Y0124500D01*
X0209400Y0129500D02*
X0207125Y0129500D01*
X0200250Y0135375D01*
X0200250Y0135750D01*
X0182125Y0135750D01*
X0179000Y0132625D01*
X0174059Y0131252D02*
X0174000Y0131375D01*
X0174000Y0135750D01*
X0174059Y0136154D01*
X0174000Y0136375D01*
X0174000Y0161375D01*
X0173375Y0161375D01*
X0174059Y0162748D01*
X0173375Y0162000D01*
X0172750Y0161375D01*
X0163375Y0161375D01*
X0163232Y0160780D01*
X0146500Y0159382D02*
X0146500Y0133220D01*
X0134689Y0117689D02*
X0134000Y0117625D01*
X0133375Y0117625D01*
X0132750Y0118250D01*
X0127125Y0115750D02*
X0126500Y0115750D01*
X0126815Y0115504D02*
X0127125Y0115750D01*
X0130250Y0105125D02*
X0131500Y0104500D01*
X0130250Y0105125D02*
X0130250Y0087000D01*
X0145250Y0075125D02*
X0145250Y0072625D01*
X0145250Y0075125D02*
X0149625Y0079500D01*
X0152500Y0079500D01*
X0156500Y0075500D01*
X0156500Y0047000D01*
X0150250Y0085750D02*
X0249000Y0085750D01*
X0224625Y0091375D02*
X0222750Y0089500D01*
X0217125Y0109500D02*
X0209625Y0109500D01*
X0209400Y0109500D01*
X0209625Y0109500D02*
X0209625Y0114500D01*
X0209400Y0114500D01*
X0209400Y0119500D02*
X0200250Y0119500D01*
X0209400Y0134500D02*
X0212125Y0134500D01*
X0220250Y0126375D01*
X0231500Y0126375D01*
X0233375Y0124500D01*
X0233600Y0124500D01*
X0235000Y0128250D02*
X0233750Y0129500D01*
X0233600Y0129500D01*
X0235000Y0128250D02*
X0246250Y0128250D01*
X0253750Y0120750D01*
X0260000Y0120750D01*
X0261250Y0122000D01*
X0261250Y0190750D01*
X0257500Y0190750D01*
X0256500Y0184500D02*
X0249625Y0177625D01*
X0234625Y0177625D01*
X0234000Y0177000D01*
X0233600Y0177000D01*
X0233600Y0172000D02*
X0234000Y0172000D01*
X0235875Y0170125D01*
X0254000Y0170125D01*
X0255875Y0168250D01*
X0257125Y0168250D01*
X0253375Y0165125D02*
X0239000Y0165125D01*
X0239000Y0155125D01*
X0238375Y0154500D01*
X0238375Y0139500D01*
X0238062Y0139188D01*
X0248375Y0128875D01*
X0254000Y0128875D01*
X0256500Y0126375D01*
X0256500Y0125760D01*
X0256500Y0133240D02*
X0256500Y0138875D01*
X0253375Y0138875D01*
X0256500Y0138875D02*
X0256500Y0150760D01*
X0256500Y0158240D02*
X0256500Y0158250D01*
X0253375Y0161375D01*
X0250250Y0161375D01*
X0239000Y0165125D02*
X0239000Y0167000D01*
X0233600Y0167000D01*
X0215250Y0167000D01*
X0209625Y0167000D01*
X0209400Y0167000D01*
X0209625Y0167000D02*
X0209625Y0162000D01*
X0209400Y0162000D01*
X0209625Y0162000D02*
X0209625Y0157000D01*
X0209400Y0157000D01*
X0209000Y0147000D02*
X0233375Y0147000D01*
X0232125Y0150750D02*
X0226500Y0150750D01*
X0232125Y0150750D02*
X0234000Y0152625D01*
X0233600Y0157000D02*
X0233375Y0157000D01*
X0232125Y0158250D01*
X0226500Y0158250D01*
X0226500Y0163250D02*
X0232125Y0163250D01*
X0233375Y0162000D01*
X0233600Y0162000D01*
X0215250Y0167000D02*
X0215250Y0173875D01*
X0214000Y0175125D01*
X0211500Y0175125D01*
X0209625Y0177000D01*
X0209400Y0177000D01*
X0209400Y0172000D02*
X0209000Y0172000D01*
X0208375Y0171375D01*
X0194625Y0171375D01*
X0190875Y0165125D02*
X0209000Y0147000D01*
X0208375Y0142625D02*
X0220250Y0142625D01*
X0217125Y0137625D02*
X0211500Y0137625D01*
X0209625Y0139500D01*
X0209400Y0139500D01*
X0208375Y0142625D02*
X0192750Y0158250D01*
X0183375Y0165125D02*
X0183375Y0181625D01*
X0188750Y0187000D01*
X0209400Y0187000D01*
X0212500Y0187000D01*
X0211500Y0190125D02*
X0216500Y0190125D01*
X0216500Y0195125D02*
X0186500Y0195125D01*
X0179625Y0188250D01*
X0179625Y0139500D01*
X0188375Y0139500D01*
X0217125Y0109500D02*
X0233600Y0109500D01*
X0240250Y0132000D02*
X0237750Y0134500D01*
X0233600Y0134500D01*
X0233600Y0139500D02*
X0237750Y0139500D01*
X0238062Y0139188D01*
X0234625Y0181375D02*
X0245875Y0181375D01*
X0234625Y0181375D02*
X0234000Y0182000D01*
X0233600Y0182000D01*
X0233600Y0187000D02*
X0233375Y0187000D01*
X0231500Y0188875D01*
X0222750Y0188875D01*
X0216500Y0195125D01*
X0218375Y0198250D02*
X0227125Y0198250D01*
X0233375Y0192000D01*
X0233600Y0192000D01*
X0230500Y0199500D02*
X0227500Y0202500D01*
X0218500Y0202500D01*
X0217500Y0201500D01*
X0197000Y0201500D01*
X0195000Y0199500D01*
X0196250Y0200750D01*
X0202125Y0207000D02*
X0176500Y0207000D01*
X0171500Y0212000D01*
X0177750Y0210750D02*
X0167750Y0220750D01*
X0175250Y0218250D02*
X0190250Y0218250D01*
X0190875Y0218875D01*
X0194625Y0215750D02*
X0196812Y0217937D01*
X0190250Y0224500D01*
X0142125Y0224500D01*
X0138375Y0228250D01*
X0131250Y0228250D01*
X0119625Y0239875D01*
X0119625Y0282000D01*
X0085875Y0313250D01*
X0034000Y0313250D01*
X0034000Y0109500D01*
X0037750Y0105750D01*
X0040875Y0105750D01*
X0042125Y0104500D01*
X0037125Y0103875D02*
X0042125Y0098875D01*
X0037125Y0103875D02*
X0036500Y0103875D01*
X0032125Y0108250D01*
X0032125Y0318875D01*
X0190875Y0318875D01*
X0204625Y0307625D01*
X0210250Y0299500D02*
X0210260Y0299500D01*
X0210250Y0299500D02*
X0209625Y0298875D01*
X0190250Y0298875D01*
X0194000Y0294500D02*
X0194625Y0293875D01*
X0234000Y0293875D01*
X0234000Y0304500D01*
X0244000Y0304500D02*
X0256500Y0304500D01*
X0256500Y0283875D01*
X0194000Y0283875D01*
X0194000Y0284500D01*
X0194000Y0283875D02*
X0194000Y0269500D01*
X0188600Y0269500D01*
X0188375Y0269500D01*
X0188375Y0264500D01*
X0188600Y0264500D01*
X0188375Y0264500D02*
X0188375Y0259500D01*
X0188600Y0259500D01*
X0188375Y0259500D02*
X0182750Y0259500D01*
X0164400Y0259500D01*
X0164000Y0259500D01*
X0162750Y0260750D01*
X0144000Y0260750D01*
X0144000Y0260760D01*
X0144000Y0260750D02*
X0129000Y0260750D01*
X0129000Y0260760D01*
X0129000Y0260750D02*
X0129000Y0248240D01*
X0129000Y0247625D01*
X0126500Y0247625D01*
X0123375Y0244500D01*
X0129000Y0240760D02*
X0129000Y0240750D01*
X0143375Y0226375D01*
X0197125Y0226375D01*
X0200875Y0222000D02*
X0209400Y0222000D01*
X0211500Y0225125D02*
X0226500Y0225125D01*
X0220250Y0221375D02*
X0216500Y0221375D01*
X0220250Y0221375D02*
X0224000Y0217625D01*
X0226500Y0215125D02*
X0225250Y0213875D01*
X0216500Y0213875D01*
X0218500Y0208000D02*
X0209400Y0207000D01*
X0207750Y0210750D02*
X0192750Y0210750D01*
X0196812Y0217937D02*
X0200875Y0222000D01*
X0202125Y0215125D02*
X0207125Y0215125D01*
X0209000Y0217000D01*
X0209400Y0217000D01*
X0209400Y0212000D02*
X0209000Y0212000D01*
X0207750Y0210750D01*
X0216500Y0203500D02*
X0217500Y0204500D01*
X0226500Y0204500D01*
X0229000Y0207000D01*
X0233600Y0207000D01*
X0235875Y0210125D02*
X0242125Y0210125D01*
X0235875Y0210125D02*
X0234000Y0212000D01*
X0233600Y0212000D01*
X0231500Y0215125D02*
X0226500Y0215125D01*
X0231500Y0215125D02*
X0233375Y0217000D01*
X0233600Y0217000D01*
X0235875Y0220125D02*
X0240875Y0220125D01*
X0256500Y0204500D01*
X0261500Y0201000D02*
X0260000Y0199500D01*
X0230500Y0199500D01*
X0216500Y0203500D02*
X0173625Y0203500D01*
X0173375Y0203250D01*
X0170246Y0199254D02*
X0142746Y0199254D01*
X0143744Y0198256D02*
X0171244Y0198256D01*
X0172243Y0197257D02*
X0144743Y0197257D01*
X0145741Y0196259D02*
X0173241Y0196259D01*
X0174240Y0195260D02*
X0146740Y0195260D01*
X0147500Y0194500D02*
X0082500Y0259500D01*
X0065328Y0259500D01*
X0065828Y0259883D01*
X0066432Y0260487D01*
X0066952Y0261165D01*
X0067380Y0261905D01*
X0067707Y0262695D01*
X0067928Y0263521D01*
X0068030Y0264295D01*
X0057000Y0264295D01*
X0057000Y0265295D01*
X0068030Y0265295D01*
X0067928Y0266070D01*
X0067707Y0266895D01*
X0067380Y0267685D01*
X0066952Y0268425D01*
X0066432Y0269103D01*
X0066035Y0269500D01*
X0085000Y0269500D01*
X0137500Y0217000D01*
X0152500Y0217000D01*
X0175000Y0194500D01*
X0175000Y0192000D01*
X0172500Y0192000D01*
X0172167Y0192333D01*
X0172167Y0192630D01*
X0171685Y0193794D01*
X0170794Y0194685D01*
X0169630Y0195167D01*
X0168370Y0195167D01*
X0167206Y0194685D01*
X0167021Y0194500D01*
X0163479Y0194500D01*
X0163294Y0194685D01*
X0162130Y0195167D01*
X0160870Y0195167D01*
X0159706Y0194685D01*
X0159521Y0194500D01*
X0157500Y0194500D01*
X0155000Y0192000D01*
X0152500Y0192000D01*
X0150000Y0194500D01*
X0147500Y0194500D01*
X0150238Y0194262D02*
X0157262Y0194262D01*
X0156263Y0193263D02*
X0151237Y0193263D01*
X0152235Y0192265D02*
X0155265Y0192265D01*
X0166252Y0203248D02*
X0138752Y0203248D01*
X0139750Y0202250D02*
X0167250Y0202250D01*
X0168249Y0201251D02*
X0140749Y0201251D01*
X0141747Y0200253D02*
X0169247Y0200253D01*
X0165253Y0204247D02*
X0137753Y0204247D01*
X0136755Y0205245D02*
X0164255Y0205245D01*
X0163256Y0206244D02*
X0135756Y0206244D01*
X0134758Y0207242D02*
X0162258Y0207242D01*
X0161259Y0208241D02*
X0133759Y0208241D01*
X0132761Y0209239D02*
X0160261Y0209239D01*
X0159262Y0210238D02*
X0131762Y0210238D01*
X0130763Y0211237D02*
X0158263Y0211237D01*
X0157265Y0212235D02*
X0129765Y0212235D01*
X0128766Y0213234D02*
X0156266Y0213234D01*
X0155268Y0214232D02*
X0127768Y0214232D01*
X0126769Y0215231D02*
X0154269Y0215231D01*
X0153271Y0216229D02*
X0125771Y0216229D01*
X0124772Y0217228D02*
X0137272Y0217228D01*
X0136274Y0218226D02*
X0123774Y0218226D01*
X0122775Y0219225D02*
X0135275Y0219225D01*
X0134277Y0220223D02*
X0121777Y0220223D01*
X0120778Y0221222D02*
X0133278Y0221222D01*
X0132280Y0222220D02*
X0119780Y0222220D01*
X0118781Y0223219D02*
X0131281Y0223219D01*
X0130283Y0224217D02*
X0117783Y0224217D01*
X0116784Y0225216D02*
X0129284Y0225216D01*
X0128286Y0226214D02*
X0115786Y0226214D01*
X0114787Y0227213D02*
X0127287Y0227213D01*
X0126289Y0228211D02*
X0113789Y0228211D01*
X0112790Y0229210D02*
X0125290Y0229210D01*
X0124292Y0230208D02*
X0111792Y0230208D01*
X0110793Y0231207D02*
X0123293Y0231207D01*
X0122295Y0232205D02*
X0109795Y0232205D01*
X0108796Y0233204D02*
X0121296Y0233204D01*
X0120298Y0234202D02*
X0107798Y0234202D01*
X0106799Y0235201D02*
X0119299Y0235201D01*
X0118301Y0236199D02*
X0105801Y0236199D01*
X0104802Y0237198D02*
X0117302Y0237198D01*
X0116304Y0238196D02*
X0103804Y0238196D01*
X0102805Y0239195D02*
X0115305Y0239195D01*
X0114307Y0240193D02*
X0101807Y0240193D01*
X0100808Y0241192D02*
X0113308Y0241192D01*
X0112310Y0242190D02*
X0099810Y0242190D01*
X0098811Y0243189D02*
X0111311Y0243189D01*
X0110313Y0244187D02*
X0097813Y0244187D01*
X0096814Y0245186D02*
X0109314Y0245186D01*
X0108316Y0246184D02*
X0095816Y0246184D01*
X0094817Y0247183D02*
X0107317Y0247183D01*
X0106319Y0248181D02*
X0093819Y0248181D01*
X0092820Y0249180D02*
X0105320Y0249180D01*
X0104322Y0250178D02*
X0091822Y0250178D01*
X0090823Y0251177D02*
X0103323Y0251177D01*
X0102325Y0252175D02*
X0089825Y0252175D01*
X0088826Y0253174D02*
X0101326Y0253174D01*
X0100328Y0254172D02*
X0087828Y0254172D01*
X0086829Y0255171D02*
X0099329Y0255171D01*
X0098330Y0256170D02*
X0085830Y0256170D01*
X0084832Y0257168D02*
X0097332Y0257168D01*
X0096333Y0258167D02*
X0083833Y0258167D01*
X0082835Y0259165D02*
X0095335Y0259165D01*
X0094336Y0260164D02*
X0066108Y0260164D01*
X0066950Y0261162D02*
X0093338Y0261162D01*
X0092339Y0262161D02*
X0067485Y0262161D01*
X0067831Y0263159D02*
X0091341Y0263159D01*
X0090342Y0264158D02*
X0068012Y0264158D01*
X0067905Y0266155D02*
X0088345Y0266155D01*
X0087347Y0267153D02*
X0067600Y0267153D01*
X0067110Y0268152D02*
X0086348Y0268152D01*
X0085350Y0269150D02*
X0066385Y0269150D01*
X0057000Y0265156D02*
X0089344Y0265156D01*
X0076500Y0264500D02*
X0076500Y0280760D01*
X0076500Y0288240D02*
X0076500Y0307000D01*
X0082125Y0311375D02*
X0055875Y0311375D01*
X0051500Y0307000D01*
X0041500Y0307000D02*
X0041500Y0288240D01*
X0041500Y0280760D02*
X0041500Y0232625D01*
X0046500Y0232625D01*
X0046500Y0232000D01*
X0053375Y0198250D02*
X0055875Y0198250D01*
X0055875Y0181375D01*
X0054625Y0180125D01*
X0053375Y0180125D01*
X0049000Y0175750D01*
X0050752Y0182433D02*
X0046815Y0182433D01*
X0050752Y0182433D02*
X0054689Y0182433D01*
X0066500Y0178496D02*
X0066500Y0159382D01*
X0083232Y0160780D02*
X0095000Y0162000D01*
X0095000Y0152000D01*
X0094059Y0131252D01*
X0094000Y0131375D01*
X0094000Y0135750D01*
X0094059Y0136154D01*
X0094625Y0136375D01*
X0094625Y0152000D01*
X0095000Y0152000D01*
X0097828Y0152000D01*
X0092750Y0161375D02*
X0083375Y0161375D01*
X0083232Y0160780D01*
X0092750Y0161375D02*
X0093375Y0162000D01*
X0094059Y0162748D01*
X0104625Y0177000D02*
X0104625Y0196375D01*
X0101500Y0199500D01*
X0099000Y0197000D02*
X0097750Y0198250D01*
X0097750Y0203250D01*
X0107750Y0203250D01*
X0107750Y0198250D02*
X0107750Y0178875D01*
X0108375Y0178250D01*
X0108375Y0153250D01*
X0107750Y0153250D01*
X0115172Y0152000D02*
X0115250Y0151375D01*
X0118375Y0151375D01*
X0118375Y0136375D01*
X0118941Y0136154D01*
X0119000Y0135750D01*
X0119000Y0131375D01*
X0118941Y0131252D01*
X0122750Y0104500D02*
X0109000Y0104500D01*
X0107750Y0105750D01*
X0148375Y0087625D02*
X0150250Y0085750D01*
X0146500Y0159382D02*
X0146500Y0178496D01*
X0139000Y0178875D02*
X0138626Y0178496D01*
X0130875Y0182433D02*
X0130875Y0182625D01*
X0130752Y0182433D01*
X0118941Y0162748D02*
X0118375Y0162625D01*
X0117125Y0162625D01*
X0116500Y0162000D01*
X0116141Y0161579D01*
X0100875Y0187000D02*
X0099000Y0188875D01*
X0099000Y0197000D01*
X0082125Y0182625D02*
X0082248Y0182433D01*
X0082125Y0182433D02*
X0082125Y0182625D01*
X0049625Y0161375D02*
X0049768Y0160780D01*
X0049625Y0161375D02*
X0048375Y0162625D01*
X0039625Y0162625D01*
X0038941Y0162748D01*
X0039000Y0162000D01*
X0039000Y0136375D01*
X0038941Y0136154D01*
X0039000Y0135750D01*
X0039000Y0131375D01*
X0038941Y0131252D01*
X0046500Y0115750D02*
X0047125Y0115750D01*
X0046815Y0115504D01*
X0047125Y0115750D02*
X0064000Y0132625D01*
X0066500Y0132625D01*
X0066500Y0133220D01*
X0157125Y0231375D02*
X0197125Y0231375D01*
X0200875Y0235125D01*
X0207125Y0235125D01*
X0209000Y0237000D01*
X0209400Y0237000D01*
X0215250Y0237000D01*
X0216500Y0235750D01*
X0220250Y0238875D02*
X0217125Y0242000D01*
X0209400Y0242000D01*
X0198375Y0242000D01*
X0197125Y0245750D02*
X0218375Y0245750D01*
X0215875Y0253250D02*
X0190250Y0253250D01*
X0189000Y0254500D01*
X0188600Y0254500D01*
X0186500Y0251375D02*
X0184000Y0251375D01*
X0182750Y0252625D01*
X0182750Y0259500D01*
X0186500Y0251375D02*
X0188375Y0249500D01*
X0188600Y0249500D01*
X0188600Y0244500D02*
X0188375Y0244500D01*
X0186500Y0242625D01*
X0177750Y0242625D01*
X0179000Y0246375D02*
X0181500Y0248875D01*
X0179000Y0246375D02*
X0166500Y0246375D01*
X0164625Y0244500D01*
X0164400Y0244500D01*
X0162125Y0247625D02*
X0157125Y0247625D01*
X0157125Y0252625D02*
X0162125Y0252625D01*
X0164000Y0254500D01*
X0164400Y0254500D01*
X0164400Y0249500D02*
X0164000Y0249500D01*
X0162125Y0247625D01*
X0164400Y0239500D02*
X0164625Y0239500D01*
X0166500Y0237625D01*
X0171500Y0237625D01*
X0164400Y0234500D02*
X0164000Y0234500D01*
X0162125Y0236375D01*
X0157125Y0236375D01*
X0164400Y0264500D02*
X0149625Y0264500D01*
X0145250Y0269500D02*
X0164400Y0269500D01*
X0167125Y0269500D01*
X0172125Y0264500D01*
X0190875Y0241375D02*
X0192750Y0241375D01*
X0197125Y0245750D01*
X0190875Y0241375D02*
X0189000Y0239500D01*
X0188600Y0239500D01*
X0189625Y0235125D02*
X0189000Y0234500D01*
X0188600Y0234500D01*
X0189625Y0235125D02*
X0195875Y0235125D01*
X0204000Y0249500D02*
X0245250Y0249500D01*
X0245250Y0235125D01*
X0239000Y0228875D01*
X0235875Y0228875D01*
X0234000Y0227000D01*
X0233600Y0227000D01*
X0233600Y0222000D02*
X0234000Y0222000D01*
X0235875Y0220125D01*
X0233600Y0232000D02*
X0233375Y0232000D01*
X0233375Y0237000D01*
X0233600Y0237000D01*
X0234000Y0237000D01*
X0234625Y0236375D01*
X0241500Y0236375D01*
X0233375Y0237000D02*
X0233375Y0242000D01*
X0233600Y0242000D01*
X0233375Y0232000D02*
X0209400Y0232000D01*
X0209400Y0227000D02*
X0209625Y0227000D01*
X0211500Y0225125D01*
X0182750Y0210750D02*
X0177750Y0210750D01*
X0175000Y0194262D02*
X0171217Y0194262D01*
X0171905Y0193263D02*
X0175000Y0193263D01*
X0175000Y0192265D02*
X0172235Y0192265D01*
X0195000Y0183250D02*
X0196250Y0182000D01*
X0209400Y0182000D01*
X0211500Y0190125D02*
X0209625Y0192000D01*
X0209400Y0192000D01*
X0256500Y0214500D02*
X0261500Y0209500D01*
X0261500Y0201000D01*
X0256500Y0214500D02*
X0256500Y0230760D01*
X0256500Y0238240D02*
X0256500Y0255760D01*
X0256500Y0256375D01*
X0255875Y0256375D01*
X0232750Y0279500D01*
X0223375Y0297625D02*
X0219625Y0297625D01*
X0217750Y0299500D01*
X0217740Y0299500D01*
X0217750Y0299500D02*
X0213375Y0303875D01*
X0130875Y0303875D01*
X0129625Y0303125D01*
X0125500Y0300500D02*
X0125500Y0308500D01*
X0129000Y0312000D01*
X0139000Y0312000D01*
X0125500Y0300500D02*
X0137125Y0288875D01*
X0166500Y0288875D01*
X0169000Y0286375D01*
X0169000Y0285760D01*
X0169000Y0293240D02*
X0169000Y0293250D01*
X0170250Y0294500D01*
X0194000Y0294500D01*
X0145250Y0269500D02*
X0144000Y0268250D01*
X0144000Y0268240D01*
X0144625Y0269500D01*
X0139000Y0269500D01*
X0139000Y0282000D01*
X0129000Y0282000D02*
X0129000Y0268240D01*
X0086500Y0307000D02*
X0082125Y0311375D01*
X0256500Y0283875D02*
X0256500Y0263240D01*
D31*
X0174000Y0194500D02*
X0171500Y0197000D01*
X0156500Y0197000D01*
X0154000Y0194500D01*
X0151500Y0197000D01*
X0154000Y0194500D02*
X0154000Y0178870D01*
X0154374Y0178496D01*
X0139000Y0178875D02*
X0139000Y0194500D01*
X0136500Y0197000D01*
X0121500Y0197000D01*
X0119000Y0194500D01*
X0116500Y0197000D01*
X0119000Y0197000D01*
X0119000Y0194500D01*
X0119000Y0171547D01*
X0129768Y0160780D01*
X0132780Y0160780D01*
X0139000Y0167000D01*
X0139000Y0178875D01*
X0139000Y0194500D02*
X0139000Y0197000D01*
X0136500Y0197000D01*
X0121500Y0197000D02*
X0119000Y0197000D01*
X0116500Y0197000D02*
X0114000Y0197000D01*
X0114000Y0214500D01*
X0081500Y0247000D01*
X0058705Y0247000D01*
X0056500Y0249205D01*
X0056500Y0224795D02*
X0056795Y0224500D01*
X0069000Y0224500D01*
X0071500Y0222000D01*
X0071500Y0189500D01*
X0074374Y0186626D01*
X0074374Y0178496D01*
X0094059Y0162748D02*
X0094059Y0211941D01*
X0081500Y0224500D01*
X0069000Y0224500D01*
X0174000Y0194500D02*
X0174000Y0162807D01*
X0174059Y0162748D01*
D32*
X0195000Y0183250D03*
X0195000Y0199500D03*
X0169000Y0192000D03*
X0161500Y0192000D03*
X0134000Y0192000D03*
X0126500Y0192000D03*
X0086500Y0192000D03*
X0076500Y0192000D03*
X0054000Y0192000D03*
X0046500Y0192000D03*
X0051500Y0104500D03*
X0056500Y0102000D03*
X0064000Y0102000D03*
X0071500Y0102000D03*
X0079000Y0102000D03*
X0131500Y0104500D03*
X0136500Y0102000D03*
X0144000Y0102000D03*
X0151500Y0102000D03*
X0161500Y0102000D03*
D33*
X0162248Y0182433D02*
X0162248Y0191252D01*
X0161500Y0192000D01*
X0166185Y0189185D02*
X0169000Y0192000D01*
X0166185Y0189185D02*
X0166185Y0182433D01*
X0158311Y0182433D01*
X0154000Y0197000D02*
X0151500Y0197000D01*
X0146500Y0197000D01*
X0079000Y0264500D01*
X0076500Y0264500D01*
X0056795Y0264500D01*
X0056500Y0264795D01*
X0054000Y0192000D02*
X0051500Y0189500D01*
X0051500Y0182000D01*
X0054000Y0182000D02*
X0046500Y0182000D01*
X0046500Y0192000D01*
X0076500Y0192000D02*
X0078311Y0190189D01*
X0078311Y0182433D01*
X0082125Y0182433D01*
X0082248Y0182433D01*
X0086185Y0182433D01*
X0086185Y0191685D01*
X0086500Y0192000D01*
X0126500Y0192000D02*
X0126815Y0191685D01*
X0126815Y0182433D01*
X0130752Y0182433D01*
X0130875Y0182433D01*
X0134689Y0182433D01*
X0134433Y0182433D01*
X0134000Y0182000D01*
X0134000Y0192000D01*
D34*
X0107750Y0198250D03*
X0107750Y0203250D03*
X0101500Y0199500D03*
X0100875Y0187000D03*
X0104625Y0177000D03*
X0107750Y0153250D03*
X0132750Y0118250D03*
X0122750Y0104500D03*
X0107750Y0105750D03*
X0130250Y0087000D03*
X0145250Y0072625D03*
X0140250Y0070125D03*
X0148375Y0087625D03*
X0159625Y0078250D03*
X0162750Y0082000D03*
X0171500Y0075125D03*
X0171500Y0067000D03*
X0182750Y0067625D03*
X0187750Y0067625D03*
X0195250Y0067625D03*
X0200250Y0067625D03*
X0207125Y0067625D03*
X0212750Y0072625D03*
X0216500Y0076375D03*
X0220875Y0067625D03*
X0229625Y0078250D03*
X0224625Y0091375D03*
X0217125Y0093250D03*
X0203375Y0078250D03*
X0200250Y0089500D03*
X0192125Y0078250D03*
X0179000Y0091375D03*
X0171500Y0091375D03*
X0170250Y0097000D03*
X0175250Y0100750D03*
X0170250Y0104500D03*
X0179000Y0123250D03*
X0179000Y0132625D03*
X0188375Y0139500D03*
X0200250Y0135375D03*
X0200250Y0119500D03*
X0217125Y0109500D03*
X0240250Y0132000D03*
X0253375Y0138875D03*
X0234000Y0152625D03*
X0233375Y0147000D03*
X0226500Y0150750D03*
X0226500Y0158250D03*
X0226500Y0163250D03*
X0220250Y0142625D03*
X0217125Y0137625D03*
X0192750Y0158250D03*
X0190875Y0165125D03*
X0194625Y0171375D03*
X0183375Y0165125D03*
X0216500Y0190125D03*
X0218375Y0198250D03*
X0218500Y0208000D03*
X0216500Y0213875D03*
X0224000Y0217625D03*
X0216500Y0221375D03*
X0226500Y0225125D03*
X0216500Y0235750D03*
X0220250Y0238875D03*
X0218375Y0245750D03*
X0215875Y0253250D03*
X0204000Y0249500D03*
X0198375Y0242000D03*
X0195875Y0235125D03*
X0197125Y0226375D03*
X0190875Y0218875D03*
X0194625Y0215750D03*
X0192750Y0210750D03*
X0182750Y0210750D03*
X0175250Y0218250D03*
X0171500Y0212000D03*
X0167750Y0220750D03*
X0157125Y0231375D03*
X0157125Y0236375D03*
X0157125Y0247625D03*
X0157125Y0252625D03*
X0149625Y0264500D03*
X0172125Y0264500D03*
X0181500Y0248875D03*
X0177750Y0242625D03*
X0171500Y0237625D03*
X0202125Y0215125D03*
X0202125Y0207000D03*
X0173375Y0203250D03*
X0123375Y0244500D03*
X0129625Y0303125D03*
X0190250Y0298875D03*
X0204625Y0307625D03*
X0223375Y0297625D03*
X0232750Y0279500D03*
X0241500Y0236375D03*
X0242125Y0210125D03*
X0257500Y0190750D03*
X0249625Y0177625D03*
X0245875Y0181375D03*
X0257125Y0168250D03*
X0253375Y0165125D03*
X0250250Y0161375D03*
X0249000Y0110125D03*
X0257125Y0100125D03*
X0249000Y0085750D03*
X0245250Y0067625D03*
X0240250Y0067625D03*
X0053375Y0198250D03*
X0049000Y0175750D03*
X0042125Y0104500D03*
X0042125Y0098875D03*
M02*
