%
M48
M72
T01C0.02362
T02C0.03200
T03C0.04000
T04C0.04400
T05C0.04700
T06C0.05118
T07C0.05200
T08C0.06299
T09C0.08661
T10C0.13000
%
T01
X370000Y491250
X375000Y491250
X380000Y491250
X385000Y563750
X390000Y563750
X395000Y563750
T02
X385000Y602500
X385000Y612500
X385000Y622500
X415000Y622500
X415000Y612500
X415000Y602500
X435000Y610000
X445000Y610000
X455000Y610000
X471250Y602500
X487500Y602500
X503750Y602500
X520000Y602500
X520000Y622500
X503750Y622500
X487500Y622500
X471250Y622500
X575000Y610000
X585000Y610000
X595000Y610000
X611250Y602500
X627500Y602500
X643750Y602500
X660000Y602500
X660000Y622500
X643750Y622500
X627500Y622500
X611250Y622500
X715000Y610000
X725000Y610000
X735000Y610000
X751250Y602500
X767500Y602500
X783750Y602500
X800000Y602500
X800000Y622500
X783750Y622500
X767500Y622500
X751250Y622500
X777500Y440000
X787500Y440000
X797500Y440000
X807500Y440000
X807500Y425000
X797500Y425000
X787500Y425000
X777500Y425000
X777500Y410000
X787500Y410000
X797500Y410000
X807500Y410000
X667500Y410000
X657500Y410000
X647500Y410000
X637500Y410000
X637500Y425000
X647500Y425000
X657500Y425000
X667500Y425000
X667500Y440000
X657500Y440000
X647500Y440000
X637500Y440000
X527500Y440000
X517500Y440000
X507500Y440000
X497500Y440000
X497500Y425000
X507500Y425000
X517500Y425000
X527500Y425000
X527500Y410000
X517500Y410000
X507500Y410000
X497500Y410000
X411250Y343750
X401250Y343750
X401250Y323750
X411250Y323750
X411250Y303750
X401250Y303750
X340000Y320000
X330000Y320000
X320000Y320000
X320000Y350000
X330000Y350000
X340000Y350000
X340000Y410000
X340000Y420000
X350000Y420000
X350000Y410000
X360000Y410000
X360000Y420000
X370000Y420000
X370000Y410000
X380000Y410000
X380000Y420000
X390000Y420000
X390000Y410000
X390000Y440000
X380000Y440000
X370000Y440000
X360000Y440000
X350000Y440000
X340000Y440000
X343750Y480000
X353750Y480000
X333750Y480000
X323750Y480000
X300000Y481750
X300000Y495750
X323750Y510000
X333750Y510000
X343750Y510000
X353750Y510000
X343750Y520000
X313750Y520000
X287500Y460000
X277500Y460000
T03
X282500Y433750
X282500Y423750
X282500Y410000
X282500Y400000
X282500Y386250
X292500Y386250
X292500Y376250
X292500Y366250
X282500Y366250
X282500Y376250
X320000Y380000
X320000Y390000
X330000Y390000
X330000Y380000
X340000Y380000
X340000Y390000
X350000Y390000
X350000Y380000
X360000Y380000
X360000Y390000
X370000Y390000
X370000Y380000
X380000Y380000
X380000Y390000
X512500Y392500
X512500Y302500
X652500Y302500
X652500Y392500
X792500Y392500
X792500Y302500
X285000Y520000
X285000Y530000
X285000Y540000
T04
X310000Y460000
X310000Y430000
X792500Y460000
X792500Y490000
T05
X795000Y510000
X795000Y530000
X795000Y570000
X795000Y590000
X655000Y590000
X655000Y570000
X655000Y530000
X655000Y510000
X515000Y510000
X515000Y530000
X515000Y570000
X515000Y590000
X362500Y575000
X342500Y575000
X302500Y575000
X282500Y575000
T06
X330000Y615000
X360000Y615000
T07
X427500Y335000
X442500Y335000
X442500Y320000
X427500Y320000
X427500Y305000
X442500Y305000
X462500Y305000
X462500Y320000
X462500Y335000
X477500Y335000
X477500Y320000
X477500Y305000
X567500Y305000
X582500Y305000
X582500Y320000
X567500Y320000
X567500Y335000
X582500Y335000
X602500Y335000
X617500Y335000
X617500Y320000
X602500Y320000
X602500Y305000
X617500Y305000
X707500Y305000
X707500Y320000
X707500Y335000
X722500Y335000
X722500Y320000
X722500Y305000
X742500Y305000
X757500Y305000
X757500Y320000
X742500Y320000
X742500Y335000
X757500Y335000
T08
X740000Y375000
X725000Y375000
X710000Y375000
X600000Y375000
X585000Y375000
X570000Y375000
X460000Y375000
X445000Y375000
X430000Y375000
X415000Y575000
X445000Y575000
X475000Y575000
X555000Y575000
X585000Y575000
X615000Y575000
X695000Y575000
X725000Y575000
X755000Y575000
T09
X755000Y375000
X695000Y375000
X615000Y375000
X555000Y375000
X475000Y375000
X415000Y375000
T10
X290000Y310000
X545000Y310000
X685000Y310000
X685000Y610000
X545000Y610000
X290000Y610000
M30
