G75*
%MOIN*%
%OFA0B0*%
%FSLAX25Y25*%
%IPPOS*%
%LPD*%
%AMOC8*
5,1,8,0,0,1.08239X$1,22.5*
%
%ADD10C,0.10000*%
%ADD11OC8,0.10000*%
%ADD12C,0.07050*%
%ADD13OC8,0.05200*%
%ADD14C,0.06000*%
%ADD15C,0.05200*%
%ADD16R,0.09449X0.09449*%
%ADD17R,0.12661X0.12661*%
%ADD18OC8,0.06600*%
%ADD19OC8,0.06000*%
%ADD20OC8,0.12500*%
%ADD21R,0.15000X0.15000*%
%ADD22C,0.15000*%
%ADD23C,0.07087*%
%ADD24C,0.01200*%
%ADD25C,0.01600*%
%ADD26C,0.03562*%
%ADD27C,0.04000*%
D10*
X0330000Y0510000D03*
D11*
X0330000Y0530000D03*
D12*
X0531475Y0540000D02*
X0538525Y0540000D01*
X0538525Y0560000D02*
X0531475Y0560000D01*
X0531475Y0500000D02*
X0538525Y0500000D01*
X0538525Y0480000D02*
X0531475Y0480000D01*
X0671475Y0480000D02*
X0678525Y0480000D01*
X0678525Y0500000D02*
X0671475Y0500000D01*
X0671475Y0540000D02*
X0678525Y0540000D01*
X0678525Y0560000D02*
X0671475Y0560000D01*
X0811475Y0560000D02*
X0818525Y0560000D01*
X0818525Y0540000D02*
X0811475Y0540000D01*
X0811475Y0500000D02*
X0818525Y0500000D01*
X0818525Y0480000D02*
X0811475Y0480000D01*
D13*
X0355000Y0400000D03*
X0355000Y0390000D03*
X0355000Y0380000D03*
X0355000Y0370000D03*
X0355000Y0360000D03*
X0355000Y0350000D03*
X0335000Y0350000D03*
X0335000Y0360000D03*
X0335000Y0370000D03*
X0335000Y0380000D03*
X0335000Y0390000D03*
X0335000Y0400000D03*
X0310000Y0400000D03*
X0300000Y0400000D03*
X0300000Y0387500D03*
X0310000Y0387500D03*
X0310000Y0375000D03*
X0300000Y0375000D03*
X0305000Y0412500D03*
X0305000Y0422500D03*
X0305000Y0435000D03*
X0290000Y0455000D03*
X0305000Y0465000D03*
X0260000Y0455000D03*
X0250000Y0560000D03*
X0280000Y0560000D03*
D14*
X0275000Y0513000D02*
X0275000Y0507000D01*
X0265000Y0507000D02*
X0265000Y0513000D01*
X0285000Y0513000D02*
X0285000Y0507000D01*
X0273000Y0435000D02*
X0267000Y0435000D01*
X0267000Y0425000D02*
X0273000Y0425000D01*
D15*
X0257600Y0485000D02*
X0252400Y0485000D01*
X0292400Y0485000D02*
X0297600Y0485000D01*
D16*
X0405000Y0550000D03*
X0435000Y0550000D03*
X0465000Y0550000D03*
X0575000Y0550000D03*
X0605000Y0550000D03*
X0635000Y0550000D03*
X0715000Y0550000D03*
X0745000Y0550000D03*
X0775000Y0550000D03*
X0760000Y0350000D03*
X0745000Y0350000D03*
X0730000Y0350000D03*
X0620000Y0350000D03*
X0605000Y0350000D03*
X0590000Y0350000D03*
X0450000Y0350000D03*
X0435000Y0350000D03*
X0420000Y0350000D03*
D17*
X0405000Y0350000D03*
X0465000Y0350000D03*
X0575000Y0350000D03*
X0635000Y0350000D03*
X0715000Y0350000D03*
X0775000Y0350000D03*
D18*
X0815000Y0428750D03*
X0815000Y0458750D03*
X0335000Y0458750D03*
X0335000Y0428750D03*
D19*
X0275000Y0400000D03*
X0275000Y0390000D03*
X0265000Y0390000D03*
X0265000Y0400000D03*
X0265000Y0380000D03*
X0265000Y0370000D03*
X0265000Y0360000D03*
X0265000Y0350000D03*
X0275000Y0350000D03*
X0275000Y0360000D03*
X0275000Y0370000D03*
X0275000Y0380000D03*
X0275000Y0340000D03*
X0265000Y0340000D03*
X0535000Y0315000D03*
X0535000Y0405000D03*
X0675000Y0405000D03*
X0675000Y0315000D03*
X0815000Y0315000D03*
X0815000Y0405000D03*
D20*
X0815000Y0295000D03*
X0815000Y0280000D03*
X0800000Y0280000D03*
X0800000Y0295000D03*
X0785000Y0295000D03*
X0785000Y0280000D03*
X0770000Y0280000D03*
X0770000Y0295000D03*
X0755000Y0295000D03*
X0755000Y0280000D03*
X0740000Y0280000D03*
X0740000Y0295000D03*
X0675000Y0295000D03*
X0675000Y0280000D03*
X0660000Y0280000D03*
X0660000Y0295000D03*
X0645000Y0295000D03*
X0645000Y0280000D03*
X0630000Y0280000D03*
X0630000Y0295000D03*
X0615000Y0295000D03*
X0615000Y0280000D03*
X0600000Y0280000D03*
X0600000Y0295000D03*
X0535000Y0295000D03*
X0535000Y0280000D03*
X0520000Y0280000D03*
X0520000Y0295000D03*
X0505000Y0295000D03*
X0505000Y0280000D03*
X0490000Y0280000D03*
X0490000Y0295000D03*
X0475000Y0295000D03*
X0475000Y0280000D03*
X0460000Y0280000D03*
X0460000Y0295000D03*
X0420000Y0295000D03*
X0420000Y0280000D03*
X0405000Y0280000D03*
X0405000Y0295000D03*
X0390000Y0295000D03*
X0390000Y0280000D03*
X0375000Y0280000D03*
X0375000Y0295000D03*
X0360000Y0295000D03*
X0360000Y0280000D03*
X0345000Y0280000D03*
X0345000Y0295000D03*
X0330000Y0295000D03*
X0330000Y0280000D03*
X0315000Y0280000D03*
X0315000Y0295000D03*
X0315000Y0310000D03*
X0330000Y0310000D03*
X0345000Y0310000D03*
X0360000Y0310000D03*
X0375000Y0310000D03*
X0390000Y0310000D03*
X0405000Y0310000D03*
X0420000Y0310000D03*
D21*
X0300000Y0580000D03*
D22*
X0331047Y0580000D03*
D23*
X0258543Y0315000D02*
X0251457Y0315000D01*
X0251457Y0305000D02*
X0258543Y0305000D01*
D24*
X0241250Y0266250D02*
X0828625Y0266250D01*
X0828750Y0266375D01*
X0828750Y0446250D01*
X0241250Y0446250D01*
X0241250Y0266250D01*
X0241250Y0266442D02*
X0828750Y0266442D01*
X0828750Y0267640D02*
X0241250Y0267640D01*
X0241250Y0268839D02*
X0828750Y0268839D01*
X0828750Y0270037D02*
X0241250Y0270037D01*
X0241250Y0271236D02*
X0828750Y0271236D01*
X0828750Y0272434D02*
X0818263Y0272434D01*
X0818172Y0272343D02*
X0822657Y0276828D01*
X0822657Y0283172D01*
X0818329Y0287500D01*
X0822657Y0291828D01*
X0822657Y0298172D01*
X0818172Y0302657D01*
X0811828Y0302657D01*
X0807500Y0298329D01*
X0803172Y0302657D01*
X0796828Y0302657D01*
X0792500Y0298329D01*
X0788172Y0302657D01*
X0781828Y0302657D01*
X0777500Y0298329D01*
X0773172Y0302657D01*
X0766828Y0302657D01*
X0762500Y0298329D01*
X0758172Y0302657D01*
X0751828Y0302657D01*
X0747500Y0298329D01*
X0743172Y0302657D01*
X0736828Y0302657D01*
X0732343Y0298172D01*
X0732343Y0291828D01*
X0736671Y0287500D01*
X0732343Y0283172D01*
X0732343Y0276828D01*
X0736828Y0272343D01*
X0743172Y0272343D01*
X0747500Y0276671D01*
X0751828Y0272343D01*
X0758172Y0272343D01*
X0762500Y0276671D01*
X0766828Y0272343D01*
X0773172Y0272343D01*
X0777500Y0276671D01*
X0781828Y0272343D01*
X0788172Y0272343D01*
X0792500Y0276671D01*
X0796828Y0272343D01*
X0803172Y0272343D01*
X0807500Y0276671D01*
X0811828Y0272343D01*
X0818172Y0272343D01*
X0819461Y0273633D02*
X0828750Y0273633D01*
X0828750Y0274831D02*
X0820660Y0274831D01*
X0821859Y0276030D02*
X0828750Y0276030D01*
X0828750Y0277228D02*
X0822657Y0277228D01*
X0822657Y0278427D02*
X0828750Y0278427D01*
X0828750Y0279625D02*
X0822657Y0279625D01*
X0822657Y0280824D02*
X0828750Y0280824D01*
X0828750Y0282022D02*
X0822657Y0282022D01*
X0822608Y0283221D02*
X0828750Y0283221D01*
X0828750Y0284419D02*
X0821409Y0284419D01*
X0820211Y0285618D02*
X0828750Y0285618D01*
X0828750Y0286816D02*
X0819012Y0286816D01*
X0818844Y0288015D02*
X0828750Y0288015D01*
X0828750Y0289213D02*
X0820042Y0289213D01*
X0821241Y0290412D02*
X0828750Y0290412D01*
X0828750Y0291610D02*
X0822439Y0291610D01*
X0822657Y0292809D02*
X0828750Y0292809D01*
X0828750Y0294007D02*
X0822657Y0294007D01*
X0822657Y0295206D02*
X0828750Y0295206D01*
X0828750Y0296404D02*
X0822657Y0296404D01*
X0822657Y0297603D02*
X0828750Y0297603D01*
X0828750Y0298801D02*
X0822027Y0298801D01*
X0820829Y0300000D02*
X0828750Y0300000D01*
X0828750Y0301199D02*
X0819630Y0301199D01*
X0818432Y0302397D02*
X0828750Y0302397D01*
X0828750Y0303596D02*
X0424697Y0303596D01*
X0423602Y0302500D02*
X0427850Y0306748D01*
X0427850Y0309400D01*
X0420600Y0309400D01*
X0420600Y0310600D01*
X0419400Y0310600D01*
X0419400Y0317850D01*
X0416748Y0317850D01*
X0412500Y0313602D01*
X0408252Y0317850D01*
X0405600Y0317850D01*
X0405600Y0310600D01*
X0404400Y0310600D01*
X0404400Y0317850D01*
X0401748Y0317850D01*
X0397500Y0313602D01*
X0393252Y0317850D01*
X0390600Y0317850D01*
X0390600Y0310600D01*
X0389400Y0310600D01*
X0389400Y0317850D01*
X0386748Y0317850D01*
X0382500Y0313602D01*
X0378252Y0317850D01*
X0375600Y0317850D01*
X0375600Y0310600D01*
X0374400Y0310600D01*
X0374400Y0317850D01*
X0371748Y0317850D01*
X0367500Y0313602D01*
X0363252Y0317850D01*
X0360600Y0317850D01*
X0360600Y0310600D01*
X0359400Y0310600D01*
X0359400Y0317850D01*
X0356748Y0317850D01*
X0352500Y0313602D01*
X0348252Y0317850D01*
X0345600Y0317850D01*
X0345600Y0310600D01*
X0344400Y0310600D01*
X0344400Y0317850D01*
X0341748Y0317850D01*
X0337500Y0313602D01*
X0333252Y0317850D01*
X0330600Y0317850D01*
X0330600Y0310600D01*
X0329400Y0310600D01*
X0329400Y0317850D01*
X0326748Y0317850D01*
X0322500Y0313602D01*
X0318252Y0317850D01*
X0315600Y0317850D01*
X0315600Y0310600D01*
X0314400Y0310600D01*
X0314400Y0317850D01*
X0311748Y0317850D01*
X0307150Y0313252D01*
X0307150Y0310600D01*
X0314400Y0310600D01*
X0314400Y0309400D01*
X0307150Y0309400D01*
X0307150Y0306748D01*
X0311398Y0302500D01*
X0307150Y0298252D01*
X0307150Y0295600D01*
X0314400Y0295600D01*
X0314400Y0302850D01*
X0314400Y0309400D01*
X0315600Y0309400D01*
X0315600Y0310600D01*
X0329400Y0310600D01*
X0329400Y0309400D01*
X0330600Y0309400D01*
X0330600Y0310600D01*
X0344400Y0310600D01*
X0344400Y0309400D01*
X0345600Y0309400D01*
X0345600Y0310600D01*
X0359400Y0310600D01*
X0359400Y0309400D01*
X0360600Y0309400D01*
X0360600Y0310600D01*
X0374400Y0310600D01*
X0374400Y0309400D01*
X0375600Y0309400D01*
X0375600Y0310600D01*
X0389400Y0310600D01*
X0389400Y0309400D01*
X0390600Y0309400D01*
X0390600Y0310600D01*
X0404400Y0310600D01*
X0404400Y0309400D01*
X0405600Y0309400D01*
X0405600Y0310600D01*
X0419400Y0310600D01*
X0419400Y0309400D01*
X0420600Y0309400D01*
X0420600Y0295600D01*
X0427850Y0295600D01*
X0427850Y0298252D01*
X0423602Y0302500D01*
X0423705Y0302397D02*
X0456568Y0302397D01*
X0456828Y0302657D02*
X0452343Y0298172D01*
X0452343Y0291828D01*
X0456671Y0287500D01*
X0452343Y0283172D01*
X0452343Y0276828D01*
X0456828Y0272343D01*
X0463172Y0272343D01*
X0467500Y0276671D01*
X0471828Y0272343D01*
X0478172Y0272343D01*
X0482500Y0276671D01*
X0486828Y0272343D01*
X0493172Y0272343D01*
X0497500Y0276671D01*
X0501828Y0272343D01*
X0508172Y0272343D01*
X0512500Y0276671D01*
X0516828Y0272343D01*
X0523172Y0272343D01*
X0527500Y0276671D01*
X0531828Y0272343D01*
X0538172Y0272343D01*
X0542657Y0276828D01*
X0542657Y0283172D01*
X0538329Y0287500D01*
X0542657Y0291828D01*
X0542657Y0298172D01*
X0538172Y0302657D01*
X0531828Y0302657D01*
X0527500Y0298329D01*
X0523172Y0302657D01*
X0516828Y0302657D01*
X0512500Y0298329D01*
X0508172Y0302657D01*
X0501828Y0302657D01*
X0497500Y0298329D01*
X0493172Y0302657D01*
X0486828Y0302657D01*
X0482500Y0298329D01*
X0478172Y0302657D01*
X0471828Y0302657D01*
X0467500Y0298329D01*
X0463172Y0302657D01*
X0456828Y0302657D01*
X0455370Y0301199D02*
X0424903Y0301199D01*
X0426102Y0300000D02*
X0454171Y0300000D01*
X0452973Y0298801D02*
X0427300Y0298801D01*
X0427850Y0297603D02*
X0452343Y0297603D01*
X0452343Y0296404D02*
X0427850Y0296404D01*
X0427850Y0294400D02*
X0420600Y0294400D01*
X0420600Y0295600D01*
X0419400Y0295600D01*
X0419400Y0302850D01*
X0419400Y0309400D01*
X0412150Y0309400D01*
X0405600Y0309400D01*
X0405600Y0295600D01*
X0419400Y0295600D01*
X0419400Y0294400D01*
X0412150Y0294400D01*
X0405600Y0294400D01*
X0405600Y0295600D01*
X0404400Y0295600D01*
X0404400Y0302850D01*
X0404400Y0309400D01*
X0397150Y0309400D01*
X0390600Y0309400D01*
X0390600Y0295600D01*
X0404400Y0295600D01*
X0404400Y0294400D01*
X0397150Y0294400D01*
X0390600Y0294400D01*
X0390600Y0295600D01*
X0389400Y0295600D01*
X0389400Y0302150D01*
X0389400Y0309400D01*
X0382150Y0309400D01*
X0375600Y0309400D01*
X0375600Y0295600D01*
X0389400Y0295600D01*
X0389400Y0294400D01*
X0382850Y0294400D01*
X0375600Y0294400D01*
X0375600Y0295600D01*
X0374400Y0295600D01*
X0374400Y0302850D01*
X0374400Y0309400D01*
X0367150Y0309400D01*
X0360600Y0309400D01*
X0360600Y0295600D01*
X0374400Y0295600D01*
X0374400Y0294400D01*
X0367150Y0294400D01*
X0360600Y0294400D01*
X0360600Y0295600D01*
X0359400Y0295600D01*
X0359400Y0302850D01*
X0359400Y0309400D01*
X0352150Y0309400D01*
X0345600Y0309400D01*
X0345600Y0295600D01*
X0359400Y0295600D01*
X0359400Y0294400D01*
X0352150Y0294400D01*
X0345600Y0294400D01*
X0345600Y0295600D01*
X0344400Y0295600D01*
X0344400Y0302850D01*
X0344400Y0309400D01*
X0337150Y0309400D01*
X0330600Y0309400D01*
X0330600Y0295600D01*
X0344400Y0295600D01*
X0344400Y0294400D01*
X0337150Y0294400D01*
X0330600Y0294400D01*
X0330600Y0295600D01*
X0329400Y0295600D01*
X0329400Y0302850D01*
X0329400Y0309400D01*
X0322150Y0309400D01*
X0315600Y0309400D01*
X0315600Y0295600D01*
X0329400Y0295600D01*
X0329400Y0294400D01*
X0322150Y0294400D01*
X0315600Y0294400D01*
X0315600Y0295600D01*
X0314400Y0295600D01*
X0314400Y0294400D01*
X0307150Y0294400D01*
X0307150Y0291748D01*
X0311398Y0287500D01*
X0307150Y0283252D01*
X0307150Y0280600D01*
X0314400Y0280600D01*
X0314400Y0287850D01*
X0314400Y0294400D01*
X0315600Y0294400D01*
X0315600Y0280600D01*
X0314400Y0280600D01*
X0314400Y0279400D01*
X0307150Y0279400D01*
X0307150Y0276748D01*
X0311748Y0272150D01*
X0314400Y0272150D01*
X0314400Y0279400D01*
X0315600Y0279400D01*
X0315600Y0280600D01*
X0329400Y0280600D01*
X0329400Y0287850D01*
X0329400Y0294400D01*
X0330600Y0294400D01*
X0330600Y0280600D01*
X0329400Y0280600D01*
X0329400Y0279400D01*
X0330600Y0279400D01*
X0330600Y0280600D01*
X0344400Y0280600D01*
X0344400Y0287850D01*
X0344400Y0294400D01*
X0345600Y0294400D01*
X0345600Y0280600D01*
X0344400Y0280600D01*
X0344400Y0279400D01*
X0345600Y0279400D01*
X0345600Y0280600D01*
X0359400Y0280600D01*
X0359400Y0287850D01*
X0359400Y0294400D01*
X0360600Y0294400D01*
X0360600Y0280600D01*
X0359400Y0280600D01*
X0359400Y0279400D01*
X0360600Y0279400D01*
X0360600Y0280600D01*
X0374400Y0280600D01*
X0374400Y0287150D01*
X0374400Y0294400D01*
X0375600Y0294400D01*
X0375600Y0280600D01*
X0374400Y0280600D01*
X0374400Y0279400D01*
X0375600Y0279400D01*
X0375600Y0280600D01*
X0389400Y0280600D01*
X0389400Y0287850D01*
X0389400Y0294400D01*
X0390600Y0294400D01*
X0390600Y0280600D01*
X0389400Y0280600D01*
X0389400Y0279400D01*
X0390600Y0279400D01*
X0390600Y0280600D01*
X0404400Y0280600D01*
X0404400Y0287850D01*
X0404400Y0294400D01*
X0405600Y0294400D01*
X0405600Y0280600D01*
X0404400Y0280600D01*
X0404400Y0279400D01*
X0405600Y0279400D01*
X0405600Y0280600D01*
X0419400Y0280600D01*
X0419400Y0287850D01*
X0419400Y0294400D01*
X0420600Y0294400D01*
X0420600Y0280600D01*
X0427850Y0280600D01*
X0427850Y0283252D01*
X0423602Y0287500D01*
X0427850Y0291748D01*
X0427850Y0294400D01*
X0427850Y0294007D02*
X0452343Y0294007D01*
X0452343Y0292809D02*
X0427850Y0292809D01*
X0427712Y0291610D02*
X0452561Y0291610D01*
X0453759Y0290412D02*
X0426513Y0290412D01*
X0425315Y0289213D02*
X0454958Y0289213D01*
X0456156Y0288015D02*
X0424116Y0288015D01*
X0424285Y0286816D02*
X0455988Y0286816D01*
X0454789Y0285618D02*
X0425484Y0285618D01*
X0426682Y0284419D02*
X0453591Y0284419D01*
X0452392Y0283221D02*
X0427850Y0283221D01*
X0427850Y0282022D02*
X0452343Y0282022D01*
X0452343Y0280824D02*
X0427850Y0280824D01*
X0427850Y0279400D02*
X0420600Y0279400D01*
X0420600Y0280600D01*
X0419400Y0280600D01*
X0419400Y0279400D01*
X0420600Y0279400D01*
X0420600Y0272150D01*
X0423252Y0272150D01*
X0427850Y0276748D01*
X0427850Y0279400D01*
X0427850Y0278427D02*
X0452343Y0278427D01*
X0452343Y0279625D02*
X0420600Y0279625D01*
X0420600Y0278427D02*
X0419400Y0278427D01*
X0419400Y0279400D02*
X0419400Y0272150D01*
X0416748Y0272150D01*
X0412500Y0276398D01*
X0408252Y0272150D01*
X0405600Y0272150D01*
X0405600Y0279400D01*
X0412150Y0279400D01*
X0419400Y0279400D01*
X0419400Y0279625D02*
X0405600Y0279625D01*
X0405600Y0278427D02*
X0404400Y0278427D01*
X0404400Y0279400D02*
X0404400Y0272150D01*
X0401748Y0272150D01*
X0397500Y0276398D01*
X0393252Y0272150D01*
X0390600Y0272150D01*
X0390600Y0279400D01*
X0397150Y0279400D01*
X0404400Y0279400D01*
X0404400Y0279625D02*
X0390600Y0279625D01*
X0390600Y0278427D02*
X0389400Y0278427D01*
X0389400Y0279400D02*
X0389400Y0272150D01*
X0386748Y0272150D01*
X0382500Y0276398D01*
X0378252Y0272150D01*
X0375600Y0272150D01*
X0375600Y0279400D01*
X0382150Y0279400D01*
X0389400Y0279400D01*
X0389400Y0279625D02*
X0375600Y0279625D01*
X0375600Y0278427D02*
X0374400Y0278427D01*
X0374400Y0279400D02*
X0374400Y0272150D01*
X0371748Y0272150D01*
X0367500Y0276398D01*
X0363252Y0272150D01*
X0360600Y0272150D01*
X0360600Y0279400D01*
X0367850Y0279400D01*
X0374400Y0279400D01*
X0374400Y0279625D02*
X0360600Y0279625D01*
X0360600Y0278427D02*
X0359400Y0278427D01*
X0359400Y0279400D02*
X0359400Y0272150D01*
X0356748Y0272150D01*
X0352500Y0276398D01*
X0348252Y0272150D01*
X0345600Y0272150D01*
X0345600Y0279400D01*
X0352150Y0279400D01*
X0359400Y0279400D01*
X0359400Y0279625D02*
X0345600Y0279625D01*
X0345600Y0278427D02*
X0344400Y0278427D01*
X0344400Y0279400D02*
X0344400Y0272150D01*
X0341748Y0272150D01*
X0337500Y0276398D01*
X0333252Y0272150D01*
X0330600Y0272150D01*
X0330600Y0279400D01*
X0337150Y0279400D01*
X0344400Y0279400D01*
X0344400Y0279625D02*
X0330600Y0279625D01*
X0330600Y0278427D02*
X0329400Y0278427D01*
X0329400Y0279400D02*
X0329400Y0272150D01*
X0326748Y0272150D01*
X0322500Y0276398D01*
X0318252Y0272150D01*
X0315600Y0272150D01*
X0315600Y0279400D01*
X0322150Y0279400D01*
X0329400Y0279400D01*
X0329400Y0279625D02*
X0315600Y0279625D01*
X0315600Y0278427D02*
X0314400Y0278427D01*
X0314400Y0279625D02*
X0266363Y0279625D01*
X0267036Y0280298D02*
X0264702Y0277964D01*
X0264702Y0277964D01*
X0261651Y0276700D01*
X0261651Y0276700D01*
X0260414Y0276700D01*
X0258349Y0276700D01*
X0255298Y0277964D01*
X0255298Y0277964D01*
X0252964Y0280298D01*
X0252964Y0280298D01*
X0251700Y0283349D01*
X0251700Y0286651D01*
X0252964Y0289702D01*
X0252964Y0289702D01*
X0255298Y0292036D01*
X0255298Y0292036D01*
X0258349Y0293300D01*
X0261651Y0293300D01*
X0264702Y0292036D01*
X0264702Y0292036D01*
X0267036Y0289702D01*
X0267036Y0289702D01*
X0268300Y0286651D01*
X0268300Y0283349D01*
X0267036Y0280298D01*
X0267036Y0280298D01*
X0267254Y0280824D02*
X0307150Y0280824D01*
X0307150Y0282022D02*
X0267750Y0282022D01*
X0268247Y0283221D02*
X0307150Y0283221D01*
X0308318Y0284419D02*
X0268300Y0284419D01*
X0268300Y0285618D02*
X0309516Y0285618D01*
X0310715Y0286816D02*
X0268231Y0286816D01*
X0267735Y0288015D02*
X0310884Y0288015D01*
X0309685Y0289213D02*
X0267239Y0289213D01*
X0266326Y0290412D02*
X0308487Y0290412D01*
X0307288Y0291610D02*
X0265128Y0291610D01*
X0262836Y0292809D02*
X0307150Y0292809D01*
X0307150Y0294007D02*
X0241250Y0294007D01*
X0241250Y0292809D02*
X0257164Y0292809D01*
X0254872Y0291610D02*
X0241250Y0291610D01*
X0241250Y0290412D02*
X0253674Y0290412D01*
X0252761Y0289213D02*
X0241250Y0289213D01*
X0241250Y0288015D02*
X0252265Y0288015D01*
X0251769Y0286816D02*
X0241250Y0286816D01*
X0241250Y0285618D02*
X0251700Y0285618D01*
X0251700Y0284419D02*
X0241250Y0284419D01*
X0241250Y0283221D02*
X0251753Y0283221D01*
X0252250Y0282022D02*
X0241250Y0282022D01*
X0241250Y0280824D02*
X0252746Y0280824D01*
X0253637Y0279625D02*
X0241250Y0279625D01*
X0241250Y0278427D02*
X0254835Y0278427D01*
X0257074Y0277228D02*
X0241250Y0277228D01*
X0241250Y0276030D02*
X0307869Y0276030D01*
X0307150Y0277228D02*
X0262926Y0277228D01*
X0265165Y0278427D02*
X0307150Y0278427D01*
X0305000Y0278427D02*
X0430000Y0278427D01*
X0430000Y0279625D02*
X0305000Y0279625D01*
X0305000Y0280824D02*
X0430000Y0280824D01*
X0430000Y0282022D02*
X0305000Y0282022D01*
X0305000Y0283221D02*
X0430000Y0283221D01*
X0430000Y0284419D02*
X0305000Y0284419D01*
X0305000Y0285618D02*
X0430000Y0285618D01*
X0430000Y0286816D02*
X0305000Y0286816D01*
X0305000Y0288015D02*
X0430000Y0288015D01*
X0430000Y0289213D02*
X0305000Y0289213D01*
X0305000Y0290412D02*
X0430000Y0290412D01*
X0430000Y0291610D02*
X0305000Y0291610D01*
X0305000Y0292809D02*
X0430000Y0292809D01*
X0430000Y0294007D02*
X0305000Y0294007D01*
X0305000Y0295206D02*
X0430000Y0295206D01*
X0430000Y0296404D02*
X0305000Y0296404D01*
X0305000Y0297603D02*
X0430000Y0297603D01*
X0430000Y0298801D02*
X0305000Y0298801D01*
X0305000Y0300000D02*
X0430000Y0300000D01*
X0430000Y0301199D02*
X0305000Y0301199D01*
X0305000Y0302397D02*
X0430000Y0302397D01*
X0430000Y0303596D02*
X0305000Y0303596D01*
X0305000Y0304794D02*
X0430000Y0304794D01*
X0430000Y0305993D02*
X0305000Y0305993D01*
X0305000Y0307191D02*
X0430000Y0307191D01*
X0430000Y0308390D02*
X0305000Y0308390D01*
X0305000Y0309588D02*
X0430000Y0309588D01*
X0430000Y0310787D02*
X0305000Y0310787D01*
X0305000Y0311985D02*
X0430000Y0311985D01*
X0430000Y0313184D02*
X0305000Y0313184D01*
X0305000Y0314382D02*
X0430000Y0314382D01*
X0430000Y0315581D02*
X0305000Y0315581D01*
X0305000Y0316779D02*
X0430000Y0316779D01*
X0430000Y0317978D02*
X0305000Y0317978D01*
X0305000Y0319176D02*
X0430000Y0319176D01*
X0430000Y0320000D02*
X0430000Y0270000D01*
X0305000Y0270000D01*
X0305000Y0320000D01*
X0430000Y0320000D01*
X0425521Y0315581D02*
X0530593Y0315581D01*
X0530593Y0316779D02*
X0424322Y0316779D01*
X0423252Y0317850D02*
X0420600Y0317850D01*
X0420600Y0310600D01*
X0427850Y0310600D01*
X0427850Y0313252D01*
X0423252Y0317850D01*
X0420600Y0316779D02*
X0419400Y0316779D01*
X0419400Y0315581D02*
X0420600Y0315581D01*
X0420600Y0314382D02*
X0419400Y0314382D01*
X0419400Y0313184D02*
X0420600Y0313184D01*
X0420600Y0311985D02*
X0419400Y0311985D01*
X0419400Y0310787D02*
X0420600Y0310787D01*
X0420600Y0309588D02*
X0828750Y0309588D01*
X0828750Y0308390D02*
X0427850Y0308390D01*
X0427850Y0307191D02*
X0828750Y0307191D01*
X0828750Y0305993D02*
X0427094Y0305993D01*
X0425896Y0304794D02*
X0828750Y0304794D01*
X0828750Y0310787D02*
X0817019Y0310787D01*
X0816825Y0310593D02*
X0819407Y0313175D01*
X0819407Y0316825D01*
X0816825Y0319407D01*
X0813175Y0319407D01*
X0810593Y0316825D01*
X0810593Y0313175D01*
X0813175Y0310593D01*
X0816825Y0310593D01*
X0818218Y0311985D02*
X0828750Y0311985D01*
X0828750Y0313184D02*
X0819407Y0313184D01*
X0819407Y0314382D02*
X0828750Y0314382D01*
X0828750Y0315581D02*
X0819407Y0315581D01*
X0819407Y0316779D02*
X0828750Y0316779D01*
X0828750Y0317978D02*
X0818255Y0317978D01*
X0817056Y0319176D02*
X0828750Y0319176D01*
X0828750Y0320375D02*
X0241250Y0320375D01*
X0241250Y0321573D02*
X0828750Y0321573D01*
X0828750Y0322772D02*
X0241250Y0322772D01*
X0241250Y0323970D02*
X0828750Y0323970D01*
X0828750Y0325169D02*
X0241250Y0325169D01*
X0241250Y0326367D02*
X0828750Y0326367D01*
X0828750Y0327566D02*
X0241250Y0327566D01*
X0241250Y0328764D02*
X0828750Y0328764D01*
X0828750Y0329963D02*
X0241250Y0329963D01*
X0241250Y0331161D02*
X0828750Y0331161D01*
X0828750Y0332360D02*
X0241250Y0332360D01*
X0241250Y0333558D02*
X0828750Y0333558D01*
X0828750Y0334757D02*
X0241250Y0334757D01*
X0241250Y0335955D02*
X0262812Y0335955D01*
X0263175Y0335593D02*
X0266825Y0335593D01*
X0269407Y0338175D01*
X0269407Y0341825D01*
X0266825Y0344407D01*
X0263175Y0344407D01*
X0260593Y0341825D01*
X0260593Y0338175D01*
X0263175Y0335593D01*
X0261614Y0337154D02*
X0241250Y0337154D01*
X0241250Y0338352D02*
X0260593Y0338352D01*
X0260593Y0339551D02*
X0241250Y0339551D01*
X0241250Y0340749D02*
X0260593Y0340749D01*
X0260715Y0341948D02*
X0241250Y0341948D01*
X0241250Y0343146D02*
X0261914Y0343146D01*
X0263112Y0344345D02*
X0241250Y0344345D01*
X0241250Y0345543D02*
X0397069Y0345543D01*
X0397069Y0344345D02*
X0276888Y0344345D01*
X0276825Y0344407D02*
X0273175Y0344407D01*
X0270593Y0341825D01*
X0270593Y0338175D01*
X0273175Y0335593D01*
X0276825Y0335593D01*
X0279407Y0338175D01*
X0279407Y0341825D01*
X0276825Y0344407D01*
X0276825Y0345593D02*
X0279407Y0348175D01*
X0279407Y0351825D01*
X0276825Y0354407D01*
X0273175Y0354407D01*
X0270593Y0351825D01*
X0270593Y0348175D01*
X0273175Y0345593D01*
X0276825Y0345593D01*
X0277974Y0346742D02*
X0332591Y0346742D01*
X0333340Y0345993D02*
X0336660Y0345993D01*
X0339007Y0348340D01*
X0339007Y0351660D01*
X0336660Y0354007D01*
X0333340Y0354007D01*
X0330993Y0351660D01*
X0330993Y0348340D01*
X0333340Y0345993D01*
X0331393Y0347940D02*
X0279173Y0347940D01*
X0279407Y0349139D02*
X0330993Y0349139D01*
X0330993Y0350337D02*
X0279407Y0350337D01*
X0279407Y0351536D02*
X0330993Y0351536D01*
X0332068Y0352734D02*
X0278498Y0352734D01*
X0277300Y0353933D02*
X0333266Y0353933D01*
X0333340Y0355993D02*
X0336660Y0355993D01*
X0339007Y0358340D01*
X0339007Y0361660D01*
X0336660Y0364007D01*
X0333340Y0364007D01*
X0330993Y0361660D01*
X0330993Y0358340D01*
X0333340Y0355993D01*
X0333003Y0356330D02*
X0277563Y0356330D01*
X0276825Y0355593D02*
X0279407Y0358175D01*
X0279407Y0361825D01*
X0276825Y0364407D01*
X0273175Y0364407D01*
X0270593Y0361825D01*
X0270593Y0358175D01*
X0273175Y0355593D01*
X0276825Y0355593D01*
X0278761Y0357529D02*
X0331805Y0357529D01*
X0330993Y0358727D02*
X0279407Y0358727D01*
X0279407Y0359926D02*
X0330993Y0359926D01*
X0330993Y0361124D02*
X0279407Y0361124D01*
X0278910Y0362323D02*
X0331656Y0362323D01*
X0332854Y0363521D02*
X0277711Y0363521D01*
X0276905Y0365400D02*
X0279600Y0368095D01*
X0279600Y0369600D01*
X0275400Y0369600D01*
X0275400Y0370400D01*
X0274600Y0370400D01*
X0274600Y0374600D01*
X0273095Y0374600D01*
X0270400Y0371905D01*
X0270400Y0370400D01*
X0274600Y0370400D01*
X0274600Y0369600D01*
X0270400Y0369600D01*
X0270400Y0368095D01*
X0273095Y0365400D01*
X0274600Y0365400D01*
X0274600Y0369600D01*
X0275400Y0369600D01*
X0275400Y0365400D01*
X0276905Y0365400D01*
X0277423Y0365918D02*
X0828750Y0365918D01*
X0828750Y0364720D02*
X0241250Y0364720D01*
X0241250Y0365918D02*
X0262576Y0365918D01*
X0263095Y0365400D02*
X0260400Y0368095D01*
X0260400Y0369600D01*
X0264600Y0369600D01*
X0264600Y0370400D01*
X0264600Y0374600D01*
X0263095Y0374600D01*
X0260400Y0371905D01*
X0260400Y0370400D01*
X0264600Y0370400D01*
X0265400Y0370400D01*
X0265400Y0374600D01*
X0266905Y0374600D01*
X0269600Y0371905D01*
X0269600Y0370400D01*
X0265400Y0370400D01*
X0265400Y0369600D01*
X0269600Y0369600D01*
X0269600Y0368095D01*
X0266905Y0365400D01*
X0265400Y0365400D01*
X0265400Y0369600D01*
X0264600Y0369600D01*
X0264600Y0365400D01*
X0263095Y0365400D01*
X0263175Y0364407D02*
X0260593Y0361825D01*
X0260593Y0358175D01*
X0263175Y0355593D01*
X0266825Y0355593D01*
X0269407Y0358175D01*
X0269407Y0361825D01*
X0266825Y0364407D01*
X0263175Y0364407D01*
X0262289Y0363521D02*
X0241250Y0363521D01*
X0241250Y0362323D02*
X0261090Y0362323D01*
X0260593Y0361124D02*
X0241250Y0361124D01*
X0241250Y0359926D02*
X0260593Y0359926D01*
X0260593Y0358727D02*
X0241250Y0358727D01*
X0241250Y0357529D02*
X0261239Y0357529D01*
X0262437Y0356330D02*
X0241250Y0356330D01*
X0241250Y0355132D02*
X0397069Y0355132D01*
X0397069Y0356330D02*
X0356997Y0356330D01*
X0356660Y0355993D02*
X0359007Y0358340D01*
X0359007Y0361660D01*
X0356660Y0364007D01*
X0353340Y0364007D01*
X0350993Y0361660D01*
X0350993Y0358340D01*
X0353340Y0355993D01*
X0356660Y0355993D01*
X0356660Y0354007D02*
X0353340Y0354007D01*
X0350993Y0351660D01*
X0350993Y0348340D01*
X0353340Y0345993D01*
X0356660Y0345993D01*
X0359007Y0348340D01*
X0359007Y0351660D01*
X0356660Y0354007D01*
X0356734Y0353933D02*
X0397069Y0353933D01*
X0397069Y0352734D02*
X0357932Y0352734D01*
X0359007Y0351536D02*
X0397069Y0351536D01*
X0397069Y0350600D02*
X0404400Y0350600D01*
X0404400Y0357931D01*
X0398459Y0357931D01*
X0398052Y0357822D01*
X0397687Y0357611D01*
X0397389Y0357313D01*
X0397178Y0356948D01*
X0397069Y0356541D01*
X0397069Y0350600D01*
X0397069Y0349400D02*
X0397069Y0343459D01*
X0397178Y0343052D01*
X0397389Y0342687D01*
X0397687Y0342389D01*
X0398052Y0342178D01*
X0398459Y0342069D01*
X0404400Y0342069D01*
X0404400Y0349400D01*
X0405600Y0349400D01*
X0405600Y0350600D01*
X0404400Y0350600D01*
X0404400Y0349400D01*
X0397069Y0349400D01*
X0397069Y0349139D02*
X0359007Y0349139D01*
X0359007Y0350337D02*
X0404400Y0350337D01*
X0404400Y0349139D02*
X0405600Y0349139D01*
X0405600Y0349400D02*
X0405600Y0342069D01*
X0411541Y0342069D01*
X0411948Y0342178D01*
X0412313Y0342389D01*
X0412611Y0342687D01*
X0412822Y0343052D01*
X0412931Y0343459D01*
X0412931Y0349400D01*
X0405600Y0349400D01*
X0405600Y0350337D02*
X0419400Y0350337D01*
X0419400Y0350600D02*
X0419400Y0349400D01*
X0420600Y0349400D01*
X0420600Y0350600D01*
X0419400Y0350600D01*
X0419400Y0356324D01*
X0415065Y0356324D01*
X0414658Y0356215D01*
X0414293Y0356005D01*
X0413995Y0355707D01*
X0413785Y0355342D01*
X0413676Y0354935D01*
X0413676Y0350600D01*
X0419400Y0350600D01*
X0419400Y0351536D02*
X0420600Y0351536D01*
X0420600Y0350600D02*
X0420600Y0356324D01*
X0424935Y0356324D01*
X0425342Y0356215D01*
X0425707Y0356005D01*
X0426005Y0355707D01*
X0426215Y0355342D01*
X0426324Y0354935D01*
X0426324Y0350600D01*
X0420600Y0350600D01*
X0420600Y0350337D02*
X0428869Y0350337D01*
X0428869Y0349139D02*
X0426324Y0349139D01*
X0426324Y0349400D02*
X0426324Y0345065D01*
X0426215Y0344658D01*
X0426005Y0344293D01*
X0425707Y0343995D01*
X0425342Y0343785D01*
X0424935Y0343676D01*
X0420600Y0343676D01*
X0420600Y0349400D01*
X0426324Y0349400D01*
X0426324Y0347940D02*
X0428869Y0347940D01*
X0428869Y0346742D02*
X0426324Y0346742D01*
X0426324Y0345543D02*
X0428869Y0345543D01*
X0428869Y0344693D02*
X0429693Y0343869D01*
X0440307Y0343869D01*
X0441131Y0344693D01*
X0441131Y0355307D01*
X0440307Y0356131D01*
X0429693Y0356131D01*
X0428869Y0355307D01*
X0428869Y0344693D01*
X0429216Y0344345D02*
X0426035Y0344345D01*
X0420600Y0344345D02*
X0419400Y0344345D01*
X0419400Y0343676D02*
X0419400Y0349400D01*
X0413676Y0349400D01*
X0413676Y0345065D01*
X0413785Y0344658D01*
X0413995Y0344293D01*
X0414293Y0343995D01*
X0414658Y0343785D01*
X0415065Y0343676D01*
X0419400Y0343676D01*
X0419400Y0345543D02*
X0420600Y0345543D01*
X0420600Y0346742D02*
X0419400Y0346742D01*
X0419400Y0347940D02*
X0420600Y0347940D01*
X0420600Y0349139D02*
X0419400Y0349139D01*
X0419400Y0352734D02*
X0420600Y0352734D01*
X0420600Y0353933D02*
X0419400Y0353933D01*
X0419400Y0355132D02*
X0420600Y0355132D01*
X0426272Y0355132D02*
X0428869Y0355132D01*
X0428869Y0353933D02*
X0426324Y0353933D01*
X0426324Y0352734D02*
X0428869Y0352734D01*
X0428869Y0351536D02*
X0426324Y0351536D01*
X0413750Y0351536D02*
X0395000Y0351536D01*
X0395000Y0352734D02*
X0413750Y0352734D01*
X0413676Y0352734D02*
X0412931Y0352734D01*
X0412931Y0351536D02*
X0413676Y0351536D01*
X0412931Y0350600D02*
X0412931Y0356541D01*
X0412822Y0356948D01*
X0412611Y0357313D01*
X0412313Y0357611D01*
X0411948Y0357822D01*
X0411541Y0357931D01*
X0405600Y0357931D01*
X0405600Y0350600D01*
X0412931Y0350600D01*
X0413750Y0350337D02*
X0395000Y0350337D01*
X0395000Y0349139D02*
X0413750Y0349139D01*
X0413676Y0349139D02*
X0412931Y0349139D01*
X0412931Y0347940D02*
X0413676Y0347940D01*
X0413750Y0347940D02*
X0395000Y0347940D01*
X0395000Y0346742D02*
X0413750Y0346742D01*
X0413676Y0346742D02*
X0412931Y0346742D01*
X0412931Y0345543D02*
X0413676Y0345543D01*
X0413750Y0345543D02*
X0395000Y0345543D01*
X0395000Y0344345D02*
X0413750Y0344345D01*
X0413965Y0344345D02*
X0412931Y0344345D01*
X0412847Y0343146D02*
X0457262Y0343146D01*
X0457262Y0343086D02*
X0458086Y0342262D01*
X0471914Y0342262D01*
X0472738Y0343086D01*
X0472738Y0356914D01*
X0471914Y0357738D01*
X0458086Y0357738D01*
X0457262Y0356914D01*
X0457262Y0343086D01*
X0457262Y0344345D02*
X0455784Y0344345D01*
X0456131Y0344693D02*
X0456131Y0355307D01*
X0455307Y0356131D01*
X0444693Y0356131D01*
X0443869Y0355307D01*
X0443869Y0344693D01*
X0444693Y0343869D01*
X0455307Y0343869D01*
X0456131Y0344693D01*
X0456131Y0345543D02*
X0457262Y0345543D01*
X0457262Y0346742D02*
X0456131Y0346742D01*
X0456131Y0347940D02*
X0457262Y0347940D01*
X0457262Y0349139D02*
X0456131Y0349139D01*
X0456131Y0350337D02*
X0457262Y0350337D01*
X0457262Y0351536D02*
X0456131Y0351536D01*
X0456131Y0352734D02*
X0457262Y0352734D01*
X0457262Y0353933D02*
X0456131Y0353933D01*
X0456131Y0355132D02*
X0457262Y0355132D01*
X0457262Y0356330D02*
X0412931Y0356330D01*
X0413750Y0356330D02*
X0395000Y0356330D01*
X0395000Y0355132D02*
X0413750Y0355132D01*
X0413728Y0355132D02*
X0412931Y0355132D01*
X0412931Y0353933D02*
X0413676Y0353933D01*
X0413750Y0353933D02*
X0395000Y0353933D01*
X0395000Y0357529D02*
X0413750Y0357529D01*
X0413750Y0358727D02*
X0395000Y0358727D01*
X0395000Y0359926D02*
X0413750Y0359926D01*
X0413750Y0360000D02*
X0413750Y0340000D01*
X0395000Y0340000D01*
X0395000Y0360000D01*
X0413750Y0360000D01*
X0412396Y0357529D02*
X0457877Y0357529D01*
X0443869Y0355132D02*
X0441131Y0355132D01*
X0441131Y0353933D02*
X0443869Y0353933D01*
X0443869Y0352734D02*
X0441131Y0352734D01*
X0441131Y0351536D02*
X0443869Y0351536D01*
X0443869Y0350337D02*
X0441131Y0350337D01*
X0441131Y0349139D02*
X0443869Y0349139D01*
X0443869Y0347940D02*
X0441131Y0347940D01*
X0441131Y0346742D02*
X0443869Y0346742D01*
X0443869Y0345543D02*
X0441131Y0345543D01*
X0440784Y0344345D02*
X0444216Y0344345D01*
X0472738Y0344345D02*
X0567069Y0344345D01*
X0567069Y0343459D02*
X0567178Y0343052D01*
X0567389Y0342687D01*
X0567687Y0342389D01*
X0568052Y0342178D01*
X0568459Y0342069D01*
X0574400Y0342069D01*
X0574400Y0349400D01*
X0575600Y0349400D01*
X0575600Y0350600D01*
X0574400Y0350600D01*
X0574400Y0357931D01*
X0568459Y0357931D01*
X0568052Y0357822D01*
X0567687Y0357611D01*
X0567389Y0357313D01*
X0567178Y0356948D01*
X0567069Y0356541D01*
X0567069Y0350600D01*
X0574400Y0350600D01*
X0574400Y0349400D01*
X0567069Y0349400D01*
X0567069Y0343459D01*
X0567153Y0343146D02*
X0472738Y0343146D01*
X0472738Y0345543D02*
X0567069Y0345543D01*
X0567069Y0346742D02*
X0472738Y0346742D01*
X0472738Y0347940D02*
X0567069Y0347940D01*
X0567069Y0349139D02*
X0472738Y0349139D01*
X0472738Y0350337D02*
X0574400Y0350337D01*
X0574400Y0349139D02*
X0575600Y0349139D01*
X0575600Y0349400D02*
X0575600Y0342069D01*
X0581541Y0342069D01*
X0581948Y0342178D01*
X0582313Y0342389D01*
X0582611Y0342687D01*
X0582822Y0343052D01*
X0582931Y0343459D01*
X0582931Y0349400D01*
X0575600Y0349400D01*
X0575600Y0350337D02*
X0589400Y0350337D01*
X0589400Y0350600D02*
X0589400Y0349400D01*
X0590600Y0349400D01*
X0590600Y0350600D01*
X0589400Y0350600D01*
X0589400Y0356324D01*
X0585065Y0356324D01*
X0584658Y0356215D01*
X0584293Y0356005D01*
X0583995Y0355707D01*
X0583785Y0355342D01*
X0583676Y0354935D01*
X0583676Y0350600D01*
X0589400Y0350600D01*
X0589400Y0351536D02*
X0590600Y0351536D01*
X0590600Y0350600D02*
X0590600Y0356324D01*
X0594935Y0356324D01*
X0595342Y0356215D01*
X0595707Y0356005D01*
X0596005Y0355707D01*
X0596215Y0355342D01*
X0596324Y0354935D01*
X0596324Y0350600D01*
X0590600Y0350600D01*
X0590600Y0350337D02*
X0598869Y0350337D01*
X0598869Y0349139D02*
X0596324Y0349139D01*
X0596324Y0349400D02*
X0596324Y0345065D01*
X0596215Y0344658D01*
X0596005Y0344293D01*
X0595707Y0343995D01*
X0595342Y0343785D01*
X0594935Y0343676D01*
X0590600Y0343676D01*
X0590600Y0349400D01*
X0596324Y0349400D01*
X0596324Y0347940D02*
X0598869Y0347940D01*
X0598869Y0346742D02*
X0596324Y0346742D01*
X0596324Y0345543D02*
X0598869Y0345543D01*
X0598869Y0344693D02*
X0599693Y0343869D01*
X0610307Y0343869D01*
X0611131Y0344693D01*
X0611131Y0355307D01*
X0610307Y0356131D01*
X0599693Y0356131D01*
X0598869Y0355307D01*
X0598869Y0344693D01*
X0599216Y0344345D02*
X0596035Y0344345D01*
X0590600Y0344345D02*
X0589400Y0344345D01*
X0589400Y0343676D02*
X0589400Y0349400D01*
X0583676Y0349400D01*
X0583676Y0345065D01*
X0583785Y0344658D01*
X0583995Y0344293D01*
X0584293Y0343995D01*
X0584658Y0343785D01*
X0585065Y0343676D01*
X0589400Y0343676D01*
X0589400Y0345543D02*
X0590600Y0345543D01*
X0590600Y0346742D02*
X0589400Y0346742D01*
X0589400Y0347940D02*
X0590600Y0347940D01*
X0590600Y0349139D02*
X0589400Y0349139D01*
X0589400Y0352734D02*
X0590600Y0352734D01*
X0590600Y0353933D02*
X0589400Y0353933D01*
X0589400Y0355132D02*
X0590600Y0355132D01*
X0596272Y0355132D02*
X0598869Y0355132D01*
X0598869Y0353933D02*
X0596324Y0353933D01*
X0596324Y0352734D02*
X0598869Y0352734D01*
X0598869Y0351536D02*
X0596324Y0351536D01*
X0583750Y0351536D02*
X0565000Y0351536D01*
X0565000Y0352734D02*
X0583750Y0352734D01*
X0583676Y0352734D02*
X0582931Y0352734D01*
X0582931Y0351536D02*
X0583676Y0351536D01*
X0582931Y0350600D02*
X0582931Y0356541D01*
X0582822Y0356948D01*
X0582611Y0357313D01*
X0582313Y0357611D01*
X0581948Y0357822D01*
X0581541Y0357931D01*
X0575600Y0357931D01*
X0575600Y0350600D01*
X0582931Y0350600D01*
X0583750Y0350337D02*
X0565000Y0350337D01*
X0565000Y0349139D02*
X0583750Y0349139D01*
X0583676Y0349139D02*
X0582931Y0349139D01*
X0582931Y0347940D02*
X0583676Y0347940D01*
X0583750Y0347940D02*
X0565000Y0347940D01*
X0565000Y0346742D02*
X0583750Y0346742D01*
X0583676Y0346742D02*
X0582931Y0346742D01*
X0582931Y0345543D02*
X0583676Y0345543D01*
X0583750Y0345543D02*
X0565000Y0345543D01*
X0565000Y0344345D02*
X0583750Y0344345D01*
X0583965Y0344345D02*
X0582931Y0344345D01*
X0582847Y0343146D02*
X0627262Y0343146D01*
X0627262Y0343086D02*
X0628086Y0342262D01*
X0641914Y0342262D01*
X0642738Y0343086D01*
X0642738Y0356914D01*
X0641914Y0357738D01*
X0628086Y0357738D01*
X0627262Y0356914D01*
X0627262Y0343086D01*
X0627262Y0344345D02*
X0625784Y0344345D01*
X0626131Y0344693D02*
X0626131Y0355307D01*
X0625307Y0356131D01*
X0614693Y0356131D01*
X0613869Y0355307D01*
X0613869Y0344693D01*
X0614693Y0343869D01*
X0625307Y0343869D01*
X0626131Y0344693D01*
X0626131Y0345543D02*
X0627262Y0345543D01*
X0627262Y0346742D02*
X0626131Y0346742D01*
X0626131Y0347940D02*
X0627262Y0347940D01*
X0627262Y0349139D02*
X0626131Y0349139D01*
X0626131Y0350337D02*
X0627262Y0350337D01*
X0627262Y0351536D02*
X0626131Y0351536D01*
X0626131Y0352734D02*
X0627262Y0352734D01*
X0627262Y0353933D02*
X0626131Y0353933D01*
X0626131Y0355132D02*
X0627262Y0355132D01*
X0627262Y0356330D02*
X0582931Y0356330D01*
X0583750Y0356330D02*
X0565000Y0356330D01*
X0565000Y0355132D02*
X0583750Y0355132D01*
X0583728Y0355132D02*
X0582931Y0355132D01*
X0582931Y0353933D02*
X0583676Y0353933D01*
X0583750Y0353933D02*
X0565000Y0353933D01*
X0567069Y0353933D02*
X0472738Y0353933D01*
X0472738Y0352734D02*
X0567069Y0352734D01*
X0567069Y0351536D02*
X0472738Y0351536D01*
X0472738Y0355132D02*
X0567069Y0355132D01*
X0567069Y0356330D02*
X0472738Y0356330D01*
X0472123Y0357529D02*
X0567604Y0357529D01*
X0565000Y0357529D02*
X0583750Y0357529D01*
X0583750Y0358727D02*
X0565000Y0358727D01*
X0565000Y0359926D02*
X0583750Y0359926D01*
X0583750Y0360000D02*
X0583750Y0340000D01*
X0565000Y0340000D01*
X0565000Y0360000D01*
X0583750Y0360000D01*
X0582396Y0357529D02*
X0627877Y0357529D01*
X0613869Y0355132D02*
X0611131Y0355132D01*
X0611131Y0353933D02*
X0613869Y0353933D01*
X0613869Y0352734D02*
X0611131Y0352734D01*
X0611131Y0351536D02*
X0613869Y0351536D01*
X0613869Y0350337D02*
X0611131Y0350337D01*
X0611131Y0349139D02*
X0613869Y0349139D01*
X0613869Y0347940D02*
X0611131Y0347940D01*
X0611131Y0346742D02*
X0613869Y0346742D01*
X0613869Y0345543D02*
X0611131Y0345543D01*
X0610784Y0344345D02*
X0614216Y0344345D01*
X0642738Y0344345D02*
X0707069Y0344345D01*
X0707069Y0343459D02*
X0707178Y0343052D01*
X0707389Y0342687D01*
X0707687Y0342389D01*
X0708052Y0342178D01*
X0708459Y0342069D01*
X0714400Y0342069D01*
X0714400Y0349400D01*
X0715600Y0349400D01*
X0715600Y0350600D01*
X0714400Y0350600D01*
X0714400Y0357931D01*
X0708459Y0357931D01*
X0708052Y0357822D01*
X0707687Y0357611D01*
X0707389Y0357313D01*
X0707178Y0356948D01*
X0707069Y0356541D01*
X0707069Y0350600D01*
X0714400Y0350600D01*
X0714400Y0349400D01*
X0707069Y0349400D01*
X0707069Y0343459D01*
X0707153Y0343146D02*
X0642738Y0343146D01*
X0642738Y0345543D02*
X0707069Y0345543D01*
X0707069Y0346742D02*
X0642738Y0346742D01*
X0642738Y0347940D02*
X0707069Y0347940D01*
X0707069Y0349139D02*
X0642738Y0349139D01*
X0642738Y0350337D02*
X0714400Y0350337D01*
X0714400Y0349139D02*
X0715600Y0349139D01*
X0715600Y0349400D02*
X0715600Y0342069D01*
X0721541Y0342069D01*
X0721948Y0342178D01*
X0722313Y0342389D01*
X0722611Y0342687D01*
X0722822Y0343052D01*
X0722931Y0343459D01*
X0722931Y0349400D01*
X0715600Y0349400D01*
X0715600Y0350337D02*
X0729400Y0350337D01*
X0729400Y0350600D02*
X0729400Y0349400D01*
X0730600Y0349400D01*
X0730600Y0350600D01*
X0729400Y0350600D01*
X0729400Y0356324D01*
X0725065Y0356324D01*
X0724658Y0356215D01*
X0724293Y0356005D01*
X0723995Y0355707D01*
X0723785Y0355342D01*
X0723676Y0354935D01*
X0723676Y0350600D01*
X0729400Y0350600D01*
X0729400Y0351536D02*
X0730600Y0351536D01*
X0730600Y0350600D02*
X0730600Y0356324D01*
X0734935Y0356324D01*
X0735342Y0356215D01*
X0735707Y0356005D01*
X0736005Y0355707D01*
X0736215Y0355342D01*
X0736324Y0354935D01*
X0736324Y0350600D01*
X0730600Y0350600D01*
X0730600Y0350337D02*
X0738869Y0350337D01*
X0738869Y0349139D02*
X0736324Y0349139D01*
X0736324Y0349400D02*
X0736324Y0345065D01*
X0736215Y0344658D01*
X0736005Y0344293D01*
X0735707Y0343995D01*
X0735342Y0343785D01*
X0734935Y0343676D01*
X0730600Y0343676D01*
X0730600Y0349400D01*
X0736324Y0349400D01*
X0736324Y0347940D02*
X0738869Y0347940D01*
X0738869Y0346742D02*
X0736324Y0346742D01*
X0736324Y0345543D02*
X0738869Y0345543D01*
X0738869Y0344693D02*
X0739693Y0343869D01*
X0750307Y0343869D01*
X0751131Y0344693D01*
X0751131Y0355307D01*
X0750307Y0356131D01*
X0739693Y0356131D01*
X0738869Y0355307D01*
X0738869Y0344693D01*
X0739216Y0344345D02*
X0736035Y0344345D01*
X0730600Y0344345D02*
X0729400Y0344345D01*
X0729400Y0343676D02*
X0729400Y0349400D01*
X0723676Y0349400D01*
X0723676Y0345065D01*
X0723785Y0344658D01*
X0723995Y0344293D01*
X0724293Y0343995D01*
X0724658Y0343785D01*
X0725065Y0343676D01*
X0729400Y0343676D01*
X0729400Y0345543D02*
X0730600Y0345543D01*
X0730600Y0346742D02*
X0729400Y0346742D01*
X0729400Y0347940D02*
X0730600Y0347940D01*
X0730600Y0349139D02*
X0729400Y0349139D01*
X0729400Y0352734D02*
X0730600Y0352734D01*
X0730600Y0353933D02*
X0729400Y0353933D01*
X0729400Y0355132D02*
X0730600Y0355132D01*
X0736272Y0355132D02*
X0738869Y0355132D01*
X0738869Y0353933D02*
X0736324Y0353933D01*
X0736324Y0352734D02*
X0738869Y0352734D01*
X0738869Y0351536D02*
X0736324Y0351536D01*
X0723750Y0351536D02*
X0705000Y0351536D01*
X0705000Y0352734D02*
X0723750Y0352734D01*
X0723676Y0352734D02*
X0722931Y0352734D01*
X0722931Y0351536D02*
X0723676Y0351536D01*
X0722931Y0350600D02*
X0722931Y0356541D01*
X0722822Y0356948D01*
X0722611Y0357313D01*
X0722313Y0357611D01*
X0721948Y0357822D01*
X0721541Y0357931D01*
X0715600Y0357931D01*
X0715600Y0350600D01*
X0722931Y0350600D01*
X0723750Y0350337D02*
X0705000Y0350337D01*
X0705000Y0349139D02*
X0723750Y0349139D01*
X0723676Y0349139D02*
X0722931Y0349139D01*
X0722931Y0347940D02*
X0723676Y0347940D01*
X0723750Y0347940D02*
X0705000Y0347940D01*
X0705000Y0346742D02*
X0723750Y0346742D01*
X0723676Y0346742D02*
X0722931Y0346742D01*
X0722931Y0345543D02*
X0723676Y0345543D01*
X0723750Y0345543D02*
X0705000Y0345543D01*
X0705000Y0344345D02*
X0723750Y0344345D01*
X0723965Y0344345D02*
X0722931Y0344345D01*
X0722847Y0343146D02*
X0767262Y0343146D01*
X0767262Y0343086D02*
X0768086Y0342262D01*
X0781914Y0342262D01*
X0782738Y0343086D01*
X0782738Y0356914D01*
X0781914Y0357738D01*
X0768086Y0357738D01*
X0767262Y0356914D01*
X0767262Y0343086D01*
X0767262Y0344345D02*
X0765784Y0344345D01*
X0766131Y0344693D02*
X0766131Y0355307D01*
X0765307Y0356131D01*
X0754693Y0356131D01*
X0753869Y0355307D01*
X0753869Y0344693D01*
X0754693Y0343869D01*
X0765307Y0343869D01*
X0766131Y0344693D01*
X0766131Y0345543D02*
X0767262Y0345543D01*
X0767262Y0346742D02*
X0766131Y0346742D01*
X0766131Y0347940D02*
X0767262Y0347940D01*
X0767262Y0349139D02*
X0766131Y0349139D01*
X0766131Y0350337D02*
X0767262Y0350337D01*
X0767262Y0351536D02*
X0766131Y0351536D01*
X0766131Y0352734D02*
X0767262Y0352734D01*
X0767262Y0353933D02*
X0766131Y0353933D01*
X0766131Y0355132D02*
X0767262Y0355132D01*
X0767262Y0356330D02*
X0722931Y0356330D01*
X0723750Y0356330D02*
X0705000Y0356330D01*
X0705000Y0355132D02*
X0723750Y0355132D01*
X0723728Y0355132D02*
X0722931Y0355132D01*
X0722931Y0353933D02*
X0723676Y0353933D01*
X0723750Y0353933D02*
X0705000Y0353933D01*
X0707069Y0353933D02*
X0642738Y0353933D01*
X0642738Y0352734D02*
X0707069Y0352734D01*
X0707069Y0351536D02*
X0642738Y0351536D01*
X0642738Y0355132D02*
X0707069Y0355132D01*
X0707069Y0356330D02*
X0642738Y0356330D01*
X0642123Y0357529D02*
X0707604Y0357529D01*
X0705000Y0357529D02*
X0723750Y0357529D01*
X0723750Y0358727D02*
X0705000Y0358727D01*
X0705000Y0359926D02*
X0723750Y0359926D01*
X0723750Y0360000D02*
X0723750Y0340000D01*
X0705000Y0340000D01*
X0705000Y0360000D01*
X0723750Y0360000D01*
X0722396Y0357529D02*
X0767877Y0357529D01*
X0782123Y0357529D02*
X0828750Y0357529D01*
X0828750Y0358727D02*
X0359007Y0358727D01*
X0359007Y0359926D02*
X0828750Y0359926D01*
X0828750Y0361124D02*
X0359007Y0361124D01*
X0358344Y0362323D02*
X0828750Y0362323D01*
X0828750Y0363521D02*
X0357146Y0363521D01*
X0356660Y0365993D02*
X0353340Y0365993D01*
X0350993Y0368340D01*
X0350993Y0371660D01*
X0353340Y0374007D01*
X0356660Y0374007D01*
X0359007Y0371660D01*
X0359007Y0368340D01*
X0356660Y0365993D01*
X0357784Y0367117D02*
X0828750Y0367117D01*
X0828750Y0368315D02*
X0358982Y0368315D01*
X0359007Y0369514D02*
X0828750Y0369514D01*
X0828750Y0370712D02*
X0359007Y0370712D01*
X0358756Y0371911D02*
X0828750Y0371911D01*
X0828750Y0373109D02*
X0357558Y0373109D01*
X0356660Y0375993D02*
X0359007Y0378340D01*
X0359007Y0381660D01*
X0356660Y0384007D01*
X0353340Y0384007D01*
X0350993Y0381660D01*
X0350993Y0378340D01*
X0353340Y0375993D01*
X0356660Y0375993D01*
X0357372Y0376705D02*
X0828750Y0376705D01*
X0828750Y0377903D02*
X0358570Y0377903D01*
X0359007Y0379102D02*
X0828750Y0379102D01*
X0828750Y0380300D02*
X0359007Y0380300D01*
X0359007Y0381499D02*
X0828750Y0381499D01*
X0828750Y0382697D02*
X0357970Y0382697D01*
X0356771Y0383896D02*
X0828750Y0383896D01*
X0828750Y0385094D02*
X0313261Y0385094D01*
X0314007Y0385840D02*
X0311660Y0383493D01*
X0308340Y0383493D01*
X0305993Y0385840D01*
X0305993Y0389160D01*
X0308340Y0391507D01*
X0311660Y0391507D01*
X0314007Y0389160D01*
X0314007Y0385840D01*
X0314007Y0386293D02*
X0333040Y0386293D01*
X0333340Y0385993D02*
X0336660Y0385993D01*
X0339007Y0388340D01*
X0339007Y0391660D01*
X0336660Y0394007D01*
X0333340Y0394007D01*
X0330993Y0391660D01*
X0330993Y0388340D01*
X0333340Y0385993D01*
X0333340Y0384007D02*
X0330993Y0381660D01*
X0330993Y0378340D01*
X0333340Y0375993D01*
X0336660Y0375993D01*
X0339007Y0378340D01*
X0339007Y0381660D01*
X0336660Y0384007D01*
X0333340Y0384007D01*
X0333229Y0383896D02*
X0312063Y0383896D01*
X0314007Y0387491D02*
X0331842Y0387491D01*
X0330993Y0388690D02*
X0314007Y0388690D01*
X0313279Y0389888D02*
X0330993Y0389888D01*
X0330993Y0391087D02*
X0312080Y0391087D01*
X0307920Y0391087D02*
X0302080Y0391087D01*
X0301660Y0391507D02*
X0298340Y0391507D01*
X0295993Y0389160D01*
X0295993Y0385840D01*
X0298340Y0383493D01*
X0301660Y0383493D01*
X0304007Y0385840D01*
X0304007Y0389160D01*
X0301660Y0391507D01*
X0303279Y0389888D02*
X0306721Y0389888D01*
X0305993Y0388690D02*
X0304007Y0388690D01*
X0304007Y0387491D02*
X0305993Y0387491D01*
X0305993Y0386293D02*
X0304007Y0386293D01*
X0303261Y0385094D02*
X0306739Y0385094D01*
X0307937Y0383896D02*
X0302063Y0383896D01*
X0297937Y0383896D02*
X0277337Y0383896D01*
X0276825Y0384407D02*
X0273175Y0384407D01*
X0270593Y0381825D01*
X0270593Y0378175D01*
X0273175Y0375593D01*
X0276825Y0375593D01*
X0279407Y0378175D01*
X0279407Y0381825D01*
X0276825Y0384407D01*
X0276825Y0385593D02*
X0279407Y0388175D01*
X0279407Y0391825D01*
X0276825Y0394407D01*
X0273175Y0394407D01*
X0270593Y0391825D01*
X0270593Y0388175D01*
X0273175Y0385593D01*
X0276825Y0385593D01*
X0277525Y0386293D02*
X0295993Y0386293D01*
X0295993Y0387491D02*
X0278724Y0387491D01*
X0279407Y0388690D02*
X0295993Y0388690D01*
X0296721Y0389888D02*
X0279407Y0389888D01*
X0279407Y0391087D02*
X0297920Y0391087D01*
X0298340Y0395993D02*
X0301660Y0395993D01*
X0304007Y0398340D01*
X0304007Y0401660D01*
X0301660Y0404007D01*
X0298340Y0404007D01*
X0295993Y0401660D01*
X0295993Y0398340D01*
X0298340Y0395993D01*
X0297254Y0397079D02*
X0278312Y0397079D01*
X0279407Y0398175D02*
X0276825Y0395593D01*
X0273175Y0395593D01*
X0270593Y0398175D01*
X0270593Y0401825D01*
X0273175Y0404407D01*
X0276825Y0404407D01*
X0279407Y0401825D01*
X0279407Y0398175D01*
X0279407Y0398278D02*
X0296055Y0398278D01*
X0295993Y0399476D02*
X0279407Y0399476D01*
X0279407Y0400675D02*
X0295993Y0400675D01*
X0296207Y0401873D02*
X0279359Y0401873D01*
X0278161Y0403072D02*
X0297405Y0403072D01*
X0302595Y0403072D02*
X0307405Y0403072D01*
X0308340Y0404007D02*
X0305993Y0401660D01*
X0305993Y0398340D01*
X0308340Y0395993D01*
X0311660Y0395993D01*
X0314007Y0398340D01*
X0314007Y0401660D01*
X0311660Y0404007D01*
X0308340Y0404007D01*
X0306207Y0401873D02*
X0303793Y0401873D01*
X0304007Y0400675D02*
X0305993Y0400675D01*
X0305993Y0399476D02*
X0304007Y0399476D01*
X0303945Y0398278D02*
X0306055Y0398278D01*
X0307254Y0397079D02*
X0302746Y0397079D01*
X0312746Y0397079D02*
X0332254Y0397079D01*
X0333340Y0395993D02*
X0330993Y0398340D01*
X0330993Y0401660D01*
X0333340Y0404007D01*
X0336660Y0404007D01*
X0339007Y0401660D01*
X0339007Y0398340D01*
X0336660Y0395993D01*
X0333340Y0395993D01*
X0332817Y0393484D02*
X0277749Y0393484D01*
X0278947Y0392285D02*
X0331619Y0392285D01*
X0337183Y0393484D02*
X0352817Y0393484D01*
X0353340Y0394007D02*
X0350993Y0391660D01*
X0350993Y0388340D01*
X0353340Y0385993D01*
X0356660Y0385993D01*
X0359007Y0388340D01*
X0359007Y0391660D01*
X0356660Y0394007D01*
X0353340Y0394007D01*
X0353340Y0395993D02*
X0356660Y0395993D01*
X0359007Y0398340D01*
X0359007Y0401660D01*
X0356660Y0404007D01*
X0353340Y0404007D01*
X0350993Y0401660D01*
X0350993Y0398340D01*
X0353340Y0395993D01*
X0352254Y0397079D02*
X0337746Y0397079D01*
X0338945Y0398278D02*
X0351055Y0398278D01*
X0350993Y0399476D02*
X0339007Y0399476D01*
X0339007Y0400675D02*
X0350993Y0400675D01*
X0351207Y0401873D02*
X0338793Y0401873D01*
X0337595Y0403072D02*
X0352405Y0403072D01*
X0357595Y0403072D02*
X0530695Y0403072D01*
X0530593Y0403175D02*
X0533175Y0400593D01*
X0536825Y0400593D01*
X0539407Y0403175D01*
X0539407Y0406825D01*
X0536825Y0409407D01*
X0533175Y0409407D01*
X0530593Y0406825D01*
X0530593Y0403175D01*
X0530593Y0404270D02*
X0276962Y0404270D01*
X0273038Y0404270D02*
X0266962Y0404270D01*
X0266825Y0404407D02*
X0263175Y0404407D01*
X0260593Y0401825D01*
X0260593Y0398175D01*
X0263175Y0395593D01*
X0266825Y0395593D01*
X0269407Y0398175D01*
X0269407Y0401825D01*
X0266825Y0404407D01*
X0268161Y0403072D02*
X0271839Y0403072D01*
X0270641Y0401873D02*
X0269359Y0401873D01*
X0269407Y0400675D02*
X0270593Y0400675D01*
X0270593Y0399476D02*
X0269407Y0399476D01*
X0269407Y0398278D02*
X0270593Y0398278D01*
X0271688Y0397079D02*
X0268312Y0397079D01*
X0267113Y0395881D02*
X0272887Y0395881D01*
X0272251Y0393484D02*
X0267749Y0393484D01*
X0266825Y0394407D02*
X0263175Y0394407D01*
X0260593Y0391825D01*
X0260593Y0388175D01*
X0263175Y0385593D01*
X0266825Y0385593D01*
X0269407Y0388175D01*
X0269407Y0391825D01*
X0266825Y0394407D01*
X0268947Y0392285D02*
X0271053Y0392285D01*
X0270593Y0391087D02*
X0269407Y0391087D01*
X0269407Y0389888D02*
X0270593Y0389888D01*
X0270593Y0388690D02*
X0269407Y0388690D01*
X0268724Y0387491D02*
X0271276Y0387491D01*
X0272475Y0386293D02*
X0267525Y0386293D01*
X0266825Y0384407D02*
X0263175Y0384407D01*
X0260593Y0381825D01*
X0260593Y0378175D01*
X0263175Y0375593D01*
X0266825Y0375593D01*
X0269407Y0378175D01*
X0269407Y0381825D01*
X0266825Y0384407D01*
X0267337Y0383896D02*
X0272663Y0383896D01*
X0271465Y0382697D02*
X0268535Y0382697D01*
X0269407Y0381499D02*
X0270593Y0381499D01*
X0270593Y0380300D02*
X0269407Y0380300D01*
X0269407Y0379102D02*
X0270593Y0379102D01*
X0270864Y0377903D02*
X0269136Y0377903D01*
X0267937Y0376705D02*
X0272063Y0376705D01*
X0272802Y0374308D02*
X0267198Y0374308D01*
X0268396Y0373109D02*
X0271604Y0373109D01*
X0270405Y0371911D02*
X0269595Y0371911D01*
X0269600Y0370712D02*
X0270400Y0370712D01*
X0270400Y0369514D02*
X0269600Y0369514D01*
X0269600Y0368315D02*
X0270400Y0368315D01*
X0271378Y0367117D02*
X0268622Y0367117D01*
X0267423Y0365918D02*
X0272576Y0365918D01*
X0274600Y0365918D02*
X0275400Y0365918D01*
X0275400Y0367117D02*
X0274600Y0367117D01*
X0274600Y0368315D02*
X0275400Y0368315D01*
X0275400Y0369514D02*
X0274600Y0369514D01*
X0275400Y0370400D02*
X0275400Y0374600D01*
X0276905Y0374600D01*
X0279600Y0371905D01*
X0279600Y0370400D01*
X0275400Y0370400D01*
X0275400Y0370712D02*
X0274600Y0370712D01*
X0274600Y0371911D02*
X0275400Y0371911D01*
X0275400Y0373109D02*
X0274600Y0373109D01*
X0274600Y0374308D02*
X0275400Y0374308D01*
X0277198Y0374308D02*
X0295993Y0374308D01*
X0295993Y0373340D02*
X0298340Y0370993D01*
X0301660Y0370993D01*
X0304007Y0373340D01*
X0304007Y0376660D01*
X0301660Y0379007D01*
X0298340Y0379007D01*
X0295993Y0376660D01*
X0295993Y0373340D01*
X0296224Y0373109D02*
X0278396Y0373109D01*
X0279595Y0371911D02*
X0297422Y0371911D01*
X0295993Y0375506D02*
X0241250Y0375506D01*
X0241250Y0374308D02*
X0262802Y0374308D01*
X0261604Y0373109D02*
X0241250Y0373109D01*
X0241250Y0371911D02*
X0260405Y0371911D01*
X0260400Y0370712D02*
X0241250Y0370712D01*
X0241250Y0369514D02*
X0260400Y0369514D01*
X0260400Y0368315D02*
X0241250Y0368315D01*
X0241250Y0367117D02*
X0261378Y0367117D01*
X0264600Y0367117D02*
X0265400Y0367117D01*
X0265400Y0368315D02*
X0264600Y0368315D01*
X0264600Y0369514D02*
X0265400Y0369514D01*
X0265400Y0370712D02*
X0264600Y0370712D01*
X0264600Y0371911D02*
X0265400Y0371911D01*
X0265400Y0373109D02*
X0264600Y0373109D01*
X0264600Y0374308D02*
X0265400Y0374308D01*
X0262063Y0376705D02*
X0241250Y0376705D01*
X0241250Y0377903D02*
X0260864Y0377903D01*
X0260593Y0379102D02*
X0241250Y0379102D01*
X0241250Y0380300D02*
X0260593Y0380300D01*
X0260593Y0381499D02*
X0241250Y0381499D01*
X0241250Y0382697D02*
X0261465Y0382697D01*
X0262663Y0383896D02*
X0241250Y0383896D01*
X0241250Y0385094D02*
X0296739Y0385094D01*
X0297236Y0377903D02*
X0279136Y0377903D01*
X0279407Y0379102D02*
X0330993Y0379102D01*
X0330993Y0380300D02*
X0279407Y0380300D01*
X0279407Y0381499D02*
X0330993Y0381499D01*
X0332030Y0382697D02*
X0278535Y0382697D01*
X0277937Y0376705D02*
X0296038Y0376705D01*
X0302764Y0377903D02*
X0307236Y0377903D01*
X0308340Y0379007D02*
X0305993Y0376660D01*
X0305993Y0373340D01*
X0308340Y0370993D01*
X0311660Y0370993D01*
X0314007Y0373340D01*
X0314007Y0376660D01*
X0311660Y0379007D01*
X0308340Y0379007D01*
X0306038Y0376705D02*
X0303962Y0376705D01*
X0304007Y0375506D02*
X0305993Y0375506D01*
X0305993Y0374308D02*
X0304007Y0374308D01*
X0303776Y0373109D02*
X0306224Y0373109D01*
X0307422Y0371911D02*
X0302578Y0371911D01*
X0312578Y0371911D02*
X0331244Y0371911D01*
X0330993Y0371660D02*
X0330993Y0368340D01*
X0333340Y0365993D01*
X0336660Y0365993D01*
X0339007Y0368340D01*
X0339007Y0371660D01*
X0336660Y0374007D01*
X0333340Y0374007D01*
X0330993Y0371660D01*
X0330993Y0370712D02*
X0279600Y0370712D01*
X0279600Y0369514D02*
X0330993Y0369514D01*
X0331018Y0368315D02*
X0279600Y0368315D01*
X0278622Y0367117D02*
X0332216Y0367117D01*
X0337784Y0367117D02*
X0352216Y0367117D01*
X0351018Y0368315D02*
X0338982Y0368315D01*
X0339007Y0369514D02*
X0350993Y0369514D01*
X0350993Y0370712D02*
X0339007Y0370712D01*
X0338756Y0371911D02*
X0351244Y0371911D01*
X0352442Y0373109D02*
X0337558Y0373109D01*
X0337372Y0376705D02*
X0352628Y0376705D01*
X0351430Y0377903D02*
X0338570Y0377903D01*
X0339007Y0379102D02*
X0350993Y0379102D01*
X0350993Y0380300D02*
X0339007Y0380300D01*
X0339007Y0381499D02*
X0350993Y0381499D01*
X0352030Y0382697D02*
X0337970Y0382697D01*
X0336771Y0383896D02*
X0353229Y0383896D01*
X0353040Y0386293D02*
X0336960Y0386293D01*
X0338158Y0387491D02*
X0351842Y0387491D01*
X0350993Y0388690D02*
X0339007Y0388690D01*
X0339007Y0389888D02*
X0350993Y0389888D01*
X0350993Y0391087D02*
X0339007Y0391087D01*
X0338381Y0392285D02*
X0351619Y0392285D01*
X0357183Y0393484D02*
X0828750Y0393484D01*
X0828750Y0394682D02*
X0241250Y0394682D01*
X0241250Y0393484D02*
X0262251Y0393484D01*
X0261053Y0392285D02*
X0241250Y0392285D01*
X0241250Y0391087D02*
X0260593Y0391087D01*
X0260593Y0389888D02*
X0241250Y0389888D01*
X0241250Y0388690D02*
X0260593Y0388690D01*
X0261276Y0387491D02*
X0241250Y0387491D01*
X0241250Y0386293D02*
X0262475Y0386293D01*
X0262887Y0395881D02*
X0241250Y0395881D01*
X0241250Y0397079D02*
X0261688Y0397079D01*
X0260593Y0398278D02*
X0241250Y0398278D01*
X0241250Y0399476D02*
X0260593Y0399476D01*
X0260593Y0400675D02*
X0241250Y0400675D01*
X0241250Y0401873D02*
X0260641Y0401873D01*
X0261839Y0403072D02*
X0241250Y0403072D01*
X0241250Y0404270D02*
X0263038Y0404270D01*
X0277113Y0395881D02*
X0828750Y0395881D01*
X0828750Y0397079D02*
X0357746Y0397079D01*
X0358945Y0398278D02*
X0828750Y0398278D01*
X0828750Y0399476D02*
X0359007Y0399476D01*
X0359007Y0400675D02*
X0533092Y0400675D01*
X0531894Y0401873D02*
X0358793Y0401873D01*
X0358381Y0392285D02*
X0828750Y0392285D01*
X0828750Y0391087D02*
X0359007Y0391087D01*
X0359007Y0389888D02*
X0828750Y0389888D01*
X0828750Y0388690D02*
X0359007Y0388690D01*
X0358158Y0387491D02*
X0828750Y0387491D01*
X0828750Y0386293D02*
X0356960Y0386293D01*
X0352854Y0363521D02*
X0337146Y0363521D01*
X0338344Y0362323D02*
X0351656Y0362323D01*
X0350993Y0361124D02*
X0339007Y0361124D01*
X0339007Y0359926D02*
X0350993Y0359926D01*
X0350993Y0358727D02*
X0339007Y0358727D01*
X0338195Y0357529D02*
X0351805Y0357529D01*
X0353003Y0356330D02*
X0336997Y0356330D01*
X0336734Y0353933D02*
X0353266Y0353933D01*
X0352068Y0352734D02*
X0337932Y0352734D01*
X0339007Y0351536D02*
X0350993Y0351536D01*
X0350993Y0350337D02*
X0339007Y0350337D01*
X0339007Y0349139D02*
X0350993Y0349139D01*
X0351393Y0347940D02*
X0338607Y0347940D01*
X0337409Y0346742D02*
X0352591Y0346742D01*
X0357409Y0346742D02*
X0397069Y0346742D01*
X0397069Y0347940D02*
X0358607Y0347940D01*
X0358195Y0357529D02*
X0397604Y0357529D01*
X0404400Y0357529D02*
X0405600Y0357529D01*
X0405600Y0356330D02*
X0404400Y0356330D01*
X0404400Y0355132D02*
X0405600Y0355132D01*
X0405600Y0353933D02*
X0404400Y0353933D01*
X0404400Y0352734D02*
X0405600Y0352734D01*
X0405600Y0351536D02*
X0404400Y0351536D01*
X0404400Y0347940D02*
X0405600Y0347940D01*
X0405600Y0346742D02*
X0404400Y0346742D01*
X0404400Y0345543D02*
X0405600Y0345543D01*
X0405600Y0344345D02*
X0404400Y0344345D01*
X0404400Y0343146D02*
X0405600Y0343146D01*
X0413750Y0343146D02*
X0395000Y0343146D01*
X0395000Y0341948D02*
X0413750Y0341948D01*
X0413750Y0340749D02*
X0395000Y0340749D01*
X0397153Y0343146D02*
X0278086Y0343146D01*
X0279285Y0341948D02*
X0828750Y0341948D01*
X0828750Y0343146D02*
X0782738Y0343146D01*
X0782738Y0344345D02*
X0828750Y0344345D01*
X0828750Y0345543D02*
X0782738Y0345543D01*
X0782738Y0346742D02*
X0828750Y0346742D01*
X0828750Y0347940D02*
X0782738Y0347940D01*
X0782738Y0349139D02*
X0828750Y0349139D01*
X0828750Y0350337D02*
X0782738Y0350337D01*
X0782738Y0351536D02*
X0828750Y0351536D01*
X0828750Y0352734D02*
X0782738Y0352734D01*
X0782738Y0353933D02*
X0828750Y0353933D01*
X0828750Y0355132D02*
X0782738Y0355132D01*
X0782738Y0356330D02*
X0828750Y0356330D01*
X0828750Y0340749D02*
X0279407Y0340749D01*
X0279407Y0339551D02*
X0828750Y0339551D01*
X0828750Y0338352D02*
X0279407Y0338352D01*
X0278386Y0337154D02*
X0828750Y0337154D01*
X0828750Y0335955D02*
X0277188Y0335955D01*
X0272812Y0335955D02*
X0267188Y0335955D01*
X0268386Y0337154D02*
X0271614Y0337154D01*
X0270593Y0338352D02*
X0269407Y0338352D01*
X0269407Y0339551D02*
X0270593Y0339551D01*
X0270593Y0340749D02*
X0269407Y0340749D01*
X0269285Y0341948D02*
X0270715Y0341948D01*
X0271914Y0343146D02*
X0268086Y0343146D01*
X0266888Y0344345D02*
X0273112Y0344345D01*
X0272025Y0346742D02*
X0267974Y0346742D01*
X0266825Y0345593D02*
X0269407Y0348175D01*
X0269407Y0351825D01*
X0266825Y0354407D01*
X0263175Y0354407D01*
X0260593Y0351825D01*
X0260593Y0348175D01*
X0263175Y0345593D01*
X0266825Y0345593D01*
X0269173Y0347940D02*
X0270827Y0347940D01*
X0270593Y0349139D02*
X0269407Y0349139D01*
X0269407Y0350337D02*
X0270593Y0350337D01*
X0270593Y0351536D02*
X0269407Y0351536D01*
X0268498Y0352734D02*
X0271502Y0352734D01*
X0272700Y0353933D02*
X0267300Y0353933D01*
X0267563Y0356330D02*
X0272437Y0356330D01*
X0271239Y0357529D02*
X0268761Y0357529D01*
X0269407Y0358727D02*
X0270593Y0358727D01*
X0270593Y0359926D02*
X0269407Y0359926D01*
X0269407Y0361124D02*
X0270593Y0361124D01*
X0271090Y0362323D02*
X0268910Y0362323D01*
X0267711Y0363521D02*
X0272289Y0363521D01*
X0265400Y0365918D02*
X0264600Y0365918D01*
X0262700Y0353933D02*
X0241250Y0353933D01*
X0241250Y0352734D02*
X0261502Y0352734D01*
X0260593Y0351536D02*
X0241250Y0351536D01*
X0241250Y0350337D02*
X0260593Y0350337D01*
X0260593Y0349139D02*
X0241250Y0349139D01*
X0241250Y0347940D02*
X0260827Y0347940D01*
X0262025Y0346742D02*
X0241250Y0346742D01*
X0241250Y0319176D02*
X0248632Y0319176D01*
X0248653Y0319197D02*
X0247260Y0317804D01*
X0246506Y0315985D01*
X0246506Y0314015D01*
X0247260Y0312196D01*
X0248653Y0310803D01*
X0250472Y0310050D01*
X0259528Y0310050D01*
X0261347Y0310803D01*
X0262740Y0312196D01*
X0263494Y0314015D01*
X0263494Y0315985D01*
X0262740Y0317804D01*
X0261347Y0319197D01*
X0259528Y0319950D01*
X0250472Y0319950D01*
X0248653Y0319197D01*
X0247433Y0317978D02*
X0241250Y0317978D01*
X0241250Y0316779D02*
X0246835Y0316779D01*
X0246506Y0315581D02*
X0241250Y0315581D01*
X0241250Y0314382D02*
X0246506Y0314382D01*
X0246851Y0313184D02*
X0241250Y0313184D01*
X0241250Y0311985D02*
X0247471Y0311985D01*
X0248693Y0310787D02*
X0241250Y0310787D01*
X0241250Y0309588D02*
X0249597Y0309588D01*
X0250472Y0309950D02*
X0248653Y0309197D01*
X0247260Y0307804D01*
X0246506Y0305985D01*
X0246506Y0304015D01*
X0247260Y0302196D01*
X0248653Y0300803D01*
X0250472Y0300050D01*
X0259528Y0300050D01*
X0261347Y0300803D01*
X0262740Y0302196D01*
X0263494Y0304015D01*
X0263494Y0305985D01*
X0262740Y0307804D01*
X0261347Y0309197D01*
X0259528Y0309950D01*
X0250472Y0309950D01*
X0247845Y0308390D02*
X0241250Y0308390D01*
X0241250Y0307191D02*
X0247006Y0307191D01*
X0246510Y0305993D02*
X0241250Y0305993D01*
X0241250Y0304794D02*
X0246506Y0304794D01*
X0246680Y0303596D02*
X0241250Y0303596D01*
X0241250Y0302397D02*
X0247177Y0302397D01*
X0248257Y0301199D02*
X0241250Y0301199D01*
X0241250Y0300000D02*
X0308898Y0300000D01*
X0307700Y0298801D02*
X0241250Y0298801D01*
X0241250Y0297603D02*
X0307150Y0297603D01*
X0307150Y0296404D02*
X0241250Y0296404D01*
X0241250Y0295206D02*
X0314400Y0295206D01*
X0314400Y0296404D02*
X0315600Y0296404D01*
X0315600Y0295206D02*
X0329400Y0295206D01*
X0329400Y0296404D02*
X0330600Y0296404D01*
X0330600Y0295206D02*
X0344400Y0295206D01*
X0344400Y0296404D02*
X0345600Y0296404D01*
X0345600Y0295206D02*
X0359400Y0295206D01*
X0359400Y0296404D02*
X0360600Y0296404D01*
X0360600Y0295206D02*
X0374400Y0295206D01*
X0374400Y0296404D02*
X0375600Y0296404D01*
X0375600Y0295206D02*
X0389400Y0295206D01*
X0389400Y0296404D02*
X0390600Y0296404D01*
X0390600Y0295206D02*
X0404400Y0295206D01*
X0404400Y0296404D02*
X0405600Y0296404D01*
X0405600Y0295206D02*
X0419400Y0295206D01*
X0419400Y0296404D02*
X0420600Y0296404D01*
X0420600Y0295206D02*
X0452343Y0295206D01*
X0463432Y0302397D02*
X0471568Y0302397D01*
X0470370Y0301199D02*
X0464630Y0301199D01*
X0465829Y0300000D02*
X0469171Y0300000D01*
X0467973Y0298801D02*
X0467027Y0298801D01*
X0478432Y0302397D02*
X0486568Y0302397D01*
X0485370Y0301199D02*
X0479630Y0301199D01*
X0480829Y0300000D02*
X0484171Y0300000D01*
X0482973Y0298801D02*
X0482027Y0298801D01*
X0493432Y0302397D02*
X0501568Y0302397D01*
X0500370Y0301199D02*
X0494630Y0301199D01*
X0495829Y0300000D02*
X0499171Y0300000D01*
X0497973Y0298801D02*
X0497027Y0298801D01*
X0508432Y0302397D02*
X0516568Y0302397D01*
X0515370Y0301199D02*
X0509630Y0301199D01*
X0510829Y0300000D02*
X0514171Y0300000D01*
X0512973Y0298801D02*
X0512027Y0298801D01*
X0523432Y0302397D02*
X0531568Y0302397D01*
X0530370Y0301199D02*
X0524630Y0301199D01*
X0525829Y0300000D02*
X0529171Y0300000D01*
X0527973Y0298801D02*
X0527027Y0298801D01*
X0538432Y0302397D02*
X0596568Y0302397D01*
X0596828Y0302657D02*
X0592343Y0298172D01*
X0592343Y0291828D01*
X0596671Y0287500D01*
X0592343Y0283172D01*
X0592343Y0276828D01*
X0596828Y0272343D01*
X0603172Y0272343D01*
X0607500Y0276671D01*
X0611828Y0272343D01*
X0618172Y0272343D01*
X0622500Y0276671D01*
X0626828Y0272343D01*
X0633172Y0272343D01*
X0637500Y0276671D01*
X0641828Y0272343D01*
X0648172Y0272343D01*
X0652500Y0276671D01*
X0656828Y0272343D01*
X0663172Y0272343D01*
X0667500Y0276671D01*
X0671828Y0272343D01*
X0678172Y0272343D01*
X0682657Y0276828D01*
X0682657Y0283172D01*
X0678329Y0287500D01*
X0682657Y0291828D01*
X0682657Y0298172D01*
X0678172Y0302657D01*
X0671828Y0302657D01*
X0667500Y0298329D01*
X0663172Y0302657D01*
X0656828Y0302657D01*
X0652500Y0298329D01*
X0648172Y0302657D01*
X0641828Y0302657D01*
X0637500Y0298329D01*
X0633172Y0302657D01*
X0626828Y0302657D01*
X0622500Y0298329D01*
X0618172Y0302657D01*
X0611828Y0302657D01*
X0607500Y0298329D01*
X0603172Y0302657D01*
X0596828Y0302657D01*
X0595370Y0301199D02*
X0539630Y0301199D01*
X0540829Y0300000D02*
X0594171Y0300000D01*
X0592973Y0298801D02*
X0542027Y0298801D01*
X0542657Y0297603D02*
X0592343Y0297603D01*
X0592343Y0296404D02*
X0542657Y0296404D01*
X0542657Y0295206D02*
X0592343Y0295206D01*
X0592343Y0294007D02*
X0542657Y0294007D01*
X0542657Y0292809D02*
X0562164Y0292809D01*
X0563349Y0293300D02*
X0560298Y0292036D01*
X0557964Y0289702D01*
X0556700Y0286651D01*
X0556700Y0283349D01*
X0557964Y0280298D01*
X0560298Y0277964D01*
X0560298Y0277964D01*
X0563349Y0276700D01*
X0564586Y0276700D01*
X0566651Y0276700D01*
X0569702Y0277964D01*
X0572036Y0280298D01*
X0572036Y0280298D01*
X0573300Y0283349D01*
X0573300Y0286651D01*
X0572036Y0289702D01*
X0569702Y0292036D01*
X0566651Y0293300D01*
X0563349Y0293300D01*
X0560298Y0292036D02*
X0560298Y0292036D01*
X0559872Y0291610D02*
X0542439Y0291610D01*
X0541241Y0290412D02*
X0558674Y0290412D01*
X0557964Y0289702D02*
X0557964Y0289702D01*
X0557761Y0289213D02*
X0540042Y0289213D01*
X0538844Y0288015D02*
X0557265Y0288015D01*
X0556769Y0286816D02*
X0539012Y0286816D01*
X0540211Y0285618D02*
X0556700Y0285618D01*
X0556700Y0284419D02*
X0541409Y0284419D01*
X0542608Y0283221D02*
X0556753Y0283221D01*
X0557250Y0282022D02*
X0542657Y0282022D01*
X0542657Y0280824D02*
X0557746Y0280824D01*
X0557964Y0280298D02*
X0557964Y0280298D01*
X0558637Y0279625D02*
X0542657Y0279625D01*
X0542657Y0278427D02*
X0559835Y0278427D01*
X0560298Y0277964D02*
X0560298Y0277964D01*
X0562074Y0277228D02*
X0542657Y0277228D01*
X0541859Y0276030D02*
X0593141Y0276030D01*
X0592343Y0277228D02*
X0567926Y0277228D01*
X0569702Y0277964D02*
X0569702Y0277964D01*
X0570165Y0278427D02*
X0592343Y0278427D01*
X0592343Y0279625D02*
X0571363Y0279625D01*
X0572254Y0280824D02*
X0592343Y0280824D01*
X0592343Y0282022D02*
X0572750Y0282022D01*
X0573247Y0283221D02*
X0592392Y0283221D01*
X0593591Y0284419D02*
X0573300Y0284419D01*
X0573300Y0285618D02*
X0594789Y0285618D01*
X0595988Y0286816D02*
X0573231Y0286816D01*
X0572735Y0288015D02*
X0596156Y0288015D01*
X0594958Y0289213D02*
X0572239Y0289213D01*
X0572036Y0289702D02*
X0572036Y0289702D01*
X0571326Y0290412D02*
X0593759Y0290412D01*
X0592561Y0291610D02*
X0570128Y0291610D01*
X0569702Y0292036D02*
X0569702Y0292036D01*
X0567836Y0292809D02*
X0592343Y0292809D01*
X0603432Y0302397D02*
X0611568Y0302397D01*
X0610370Y0301199D02*
X0604630Y0301199D01*
X0605829Y0300000D02*
X0609171Y0300000D01*
X0607973Y0298801D02*
X0607027Y0298801D01*
X0618432Y0302397D02*
X0626568Y0302397D01*
X0625370Y0301199D02*
X0619630Y0301199D01*
X0620829Y0300000D02*
X0624171Y0300000D01*
X0622973Y0298801D02*
X0622027Y0298801D01*
X0633432Y0302397D02*
X0641568Y0302397D01*
X0640370Y0301199D02*
X0634630Y0301199D01*
X0635829Y0300000D02*
X0639171Y0300000D01*
X0637973Y0298801D02*
X0637027Y0298801D01*
X0648432Y0302397D02*
X0656568Y0302397D01*
X0655370Y0301199D02*
X0649630Y0301199D01*
X0650829Y0300000D02*
X0654171Y0300000D01*
X0652973Y0298801D02*
X0652027Y0298801D01*
X0663432Y0302397D02*
X0671568Y0302397D01*
X0670370Y0301199D02*
X0664630Y0301199D01*
X0665829Y0300000D02*
X0669171Y0300000D01*
X0667973Y0298801D02*
X0667027Y0298801D01*
X0678432Y0302397D02*
X0736568Y0302397D01*
X0735370Y0301199D02*
X0679630Y0301199D01*
X0680829Y0300000D02*
X0734171Y0300000D01*
X0732973Y0298801D02*
X0682027Y0298801D01*
X0682657Y0297603D02*
X0732343Y0297603D01*
X0732343Y0296404D02*
X0682657Y0296404D01*
X0682657Y0295206D02*
X0732343Y0295206D01*
X0732343Y0294007D02*
X0682657Y0294007D01*
X0682657Y0292809D02*
X0702164Y0292809D01*
X0703349Y0293300D02*
X0700298Y0292036D01*
X0697964Y0289702D01*
X0697964Y0289702D01*
X0696700Y0286651D01*
X0696700Y0283349D01*
X0697964Y0280298D01*
X0700298Y0277964D01*
X0703349Y0276700D01*
X0704586Y0276700D01*
X0706651Y0276700D01*
X0709702Y0277964D01*
X0712036Y0280298D01*
X0713300Y0283349D01*
X0713300Y0286651D01*
X0712036Y0289702D01*
X0709702Y0292036D01*
X0709702Y0292036D01*
X0706651Y0293300D01*
X0703349Y0293300D01*
X0700298Y0292036D02*
X0700298Y0292036D01*
X0699872Y0291610D02*
X0682439Y0291610D01*
X0681241Y0290412D02*
X0698674Y0290412D01*
X0697761Y0289213D02*
X0680042Y0289213D01*
X0678844Y0288015D02*
X0697265Y0288015D01*
X0696769Y0286816D02*
X0679012Y0286816D01*
X0680211Y0285618D02*
X0696700Y0285618D01*
X0696700Y0284419D02*
X0681409Y0284419D01*
X0682608Y0283221D02*
X0696753Y0283221D01*
X0697250Y0282022D02*
X0682657Y0282022D01*
X0682657Y0280824D02*
X0697746Y0280824D01*
X0697964Y0280298D02*
X0697964Y0280298D01*
X0698637Y0279625D02*
X0682657Y0279625D01*
X0682657Y0278427D02*
X0699835Y0278427D01*
X0700298Y0277964D02*
X0700298Y0277964D01*
X0702074Y0277228D02*
X0682657Y0277228D01*
X0681859Y0276030D02*
X0733141Y0276030D01*
X0732343Y0277228D02*
X0707926Y0277228D01*
X0709702Y0277964D02*
X0709702Y0277964D01*
X0710165Y0278427D02*
X0732343Y0278427D01*
X0732343Y0279625D02*
X0711363Y0279625D01*
X0712254Y0280824D02*
X0732343Y0280824D01*
X0732343Y0282022D02*
X0712750Y0282022D01*
X0713247Y0283221D02*
X0732392Y0283221D01*
X0733591Y0284419D02*
X0713300Y0284419D01*
X0713300Y0285618D02*
X0734789Y0285618D01*
X0735988Y0286816D02*
X0713231Y0286816D01*
X0712735Y0288015D02*
X0736156Y0288015D01*
X0734958Y0289213D02*
X0712239Y0289213D01*
X0712036Y0289702D02*
X0712036Y0289702D01*
X0711326Y0290412D02*
X0733759Y0290412D01*
X0732561Y0291610D02*
X0710128Y0291610D01*
X0709702Y0292036D02*
X0709702Y0292036D01*
X0707836Y0292809D02*
X0732343Y0292809D01*
X0743432Y0302397D02*
X0751568Y0302397D01*
X0750370Y0301199D02*
X0744630Y0301199D01*
X0745829Y0300000D02*
X0749171Y0300000D01*
X0747973Y0298801D02*
X0747027Y0298801D01*
X0758432Y0302397D02*
X0766568Y0302397D01*
X0765370Y0301199D02*
X0759630Y0301199D01*
X0760829Y0300000D02*
X0764171Y0300000D01*
X0762973Y0298801D02*
X0762027Y0298801D01*
X0773432Y0302397D02*
X0781568Y0302397D01*
X0780370Y0301199D02*
X0774630Y0301199D01*
X0775829Y0300000D02*
X0779171Y0300000D01*
X0777973Y0298801D02*
X0777027Y0298801D01*
X0788432Y0302397D02*
X0796568Y0302397D01*
X0795370Y0301199D02*
X0789630Y0301199D01*
X0790829Y0300000D02*
X0794171Y0300000D01*
X0792973Y0298801D02*
X0792027Y0298801D01*
X0803432Y0302397D02*
X0811568Y0302397D01*
X0810370Y0301199D02*
X0804630Y0301199D01*
X0805829Y0300000D02*
X0809171Y0300000D01*
X0807973Y0298801D02*
X0807027Y0298801D01*
X0812981Y0310787D02*
X0677019Y0310787D01*
X0676825Y0310593D02*
X0679407Y0313175D01*
X0679407Y0316825D01*
X0676825Y0319407D01*
X0673175Y0319407D01*
X0670593Y0316825D01*
X0670593Y0313175D01*
X0673175Y0310593D01*
X0676825Y0310593D01*
X0678218Y0311985D02*
X0811782Y0311985D01*
X0810593Y0313184D02*
X0679407Y0313184D01*
X0679407Y0314382D02*
X0810593Y0314382D01*
X0810593Y0315581D02*
X0679407Y0315581D01*
X0679407Y0316779D02*
X0810593Y0316779D01*
X0811745Y0317978D02*
X0678255Y0317978D01*
X0677056Y0319176D02*
X0812944Y0319176D01*
X0754216Y0344345D02*
X0750784Y0344345D01*
X0751131Y0345543D02*
X0753869Y0345543D01*
X0753869Y0346742D02*
X0751131Y0346742D01*
X0751131Y0347940D02*
X0753869Y0347940D01*
X0753869Y0349139D02*
X0751131Y0349139D01*
X0751131Y0350337D02*
X0753869Y0350337D01*
X0753869Y0351536D02*
X0751131Y0351536D01*
X0751131Y0352734D02*
X0753869Y0352734D01*
X0753869Y0353933D02*
X0751131Y0353933D01*
X0751131Y0355132D02*
X0753869Y0355132D01*
X0723750Y0343146D02*
X0705000Y0343146D01*
X0705000Y0341948D02*
X0723750Y0341948D01*
X0723750Y0340749D02*
X0705000Y0340749D01*
X0714400Y0343146D02*
X0715600Y0343146D01*
X0715600Y0344345D02*
X0714400Y0344345D01*
X0714400Y0345543D02*
X0715600Y0345543D01*
X0715600Y0346742D02*
X0714400Y0346742D01*
X0714400Y0347940D02*
X0715600Y0347940D01*
X0715600Y0351536D02*
X0714400Y0351536D01*
X0714400Y0352734D02*
X0715600Y0352734D01*
X0715600Y0353933D02*
X0714400Y0353933D01*
X0714400Y0355132D02*
X0715600Y0355132D01*
X0715600Y0356330D02*
X0714400Y0356330D01*
X0714400Y0357529D02*
X0715600Y0357529D01*
X0672944Y0319176D02*
X0537056Y0319176D01*
X0536825Y0319407D02*
X0533175Y0319407D01*
X0530593Y0316825D01*
X0530593Y0313175D01*
X0533175Y0310593D01*
X0536825Y0310593D01*
X0539407Y0313175D01*
X0539407Y0316825D01*
X0536825Y0319407D01*
X0538255Y0317978D02*
X0671745Y0317978D01*
X0670593Y0316779D02*
X0539407Y0316779D01*
X0539407Y0315581D02*
X0670593Y0315581D01*
X0670593Y0314382D02*
X0539407Y0314382D01*
X0539407Y0313184D02*
X0670593Y0313184D01*
X0671782Y0311985D02*
X0538218Y0311985D01*
X0537019Y0310787D02*
X0672981Y0310787D01*
X0668141Y0276030D02*
X0666859Y0276030D01*
X0665660Y0274831D02*
X0669340Y0274831D01*
X0670538Y0273633D02*
X0664461Y0273633D01*
X0663263Y0272434D02*
X0671737Y0272434D01*
X0678263Y0272434D02*
X0736737Y0272434D01*
X0735538Y0273633D02*
X0679461Y0273633D01*
X0680660Y0274831D02*
X0734340Y0274831D01*
X0743263Y0272434D02*
X0751737Y0272434D01*
X0750538Y0273633D02*
X0744461Y0273633D01*
X0745660Y0274831D02*
X0749340Y0274831D01*
X0748141Y0276030D02*
X0746859Y0276030D01*
X0758263Y0272434D02*
X0766737Y0272434D01*
X0765538Y0273633D02*
X0759461Y0273633D01*
X0760660Y0274831D02*
X0764340Y0274831D01*
X0763141Y0276030D02*
X0761859Y0276030D01*
X0773263Y0272434D02*
X0781737Y0272434D01*
X0780538Y0273633D02*
X0774461Y0273633D01*
X0775660Y0274831D02*
X0779340Y0274831D01*
X0778141Y0276030D02*
X0776859Y0276030D01*
X0788263Y0272434D02*
X0796737Y0272434D01*
X0795538Y0273633D02*
X0789461Y0273633D01*
X0790660Y0274831D02*
X0794340Y0274831D01*
X0793141Y0276030D02*
X0791859Y0276030D01*
X0803263Y0272434D02*
X0811737Y0272434D01*
X0810538Y0273633D02*
X0804461Y0273633D01*
X0805660Y0274831D02*
X0809340Y0274831D01*
X0808141Y0276030D02*
X0806859Y0276030D01*
X0828750Y0374308D02*
X0314007Y0374308D01*
X0314007Y0375506D02*
X0828750Y0375506D01*
X0828750Y0400675D02*
X0816908Y0400675D01*
X0816825Y0400593D02*
X0819407Y0403175D01*
X0819407Y0406825D01*
X0816825Y0409407D01*
X0813175Y0409407D01*
X0810593Y0406825D01*
X0810593Y0403175D01*
X0813175Y0400593D01*
X0816825Y0400593D01*
X0818106Y0401873D02*
X0828750Y0401873D01*
X0828750Y0403072D02*
X0819305Y0403072D01*
X0819407Y0404270D02*
X0828750Y0404270D01*
X0828750Y0405469D02*
X0819407Y0405469D01*
X0819407Y0406668D02*
X0828750Y0406668D01*
X0828750Y0407866D02*
X0818367Y0407866D01*
X0817168Y0409065D02*
X0828750Y0409065D01*
X0828750Y0410263D02*
X0308430Y0410263D01*
X0309007Y0410840D02*
X0306660Y0408493D01*
X0303340Y0408493D01*
X0300993Y0410840D01*
X0300993Y0414160D01*
X0303340Y0416507D01*
X0306660Y0416507D01*
X0309007Y0414160D01*
X0309007Y0410840D01*
X0309007Y0411462D02*
X0828750Y0411462D01*
X0828750Y0412660D02*
X0309007Y0412660D01*
X0309007Y0413859D02*
X0828750Y0413859D01*
X0828750Y0415057D02*
X0308110Y0415057D01*
X0306911Y0416256D02*
X0828750Y0416256D01*
X0828750Y0417454D02*
X0241250Y0417454D01*
X0241250Y0416256D02*
X0303089Y0416256D01*
X0301890Y0415057D02*
X0241250Y0415057D01*
X0241250Y0413859D02*
X0300993Y0413859D01*
X0300993Y0412660D02*
X0241250Y0412660D01*
X0241250Y0411462D02*
X0300993Y0411462D01*
X0301570Y0410263D02*
X0241250Y0410263D01*
X0241250Y0409065D02*
X0302769Y0409065D01*
X0307231Y0409065D02*
X0532832Y0409065D01*
X0531633Y0407866D02*
X0241250Y0407866D01*
X0241250Y0406668D02*
X0530593Y0406668D01*
X0530593Y0405469D02*
X0241250Y0405469D01*
X0241250Y0418653D02*
X0303180Y0418653D01*
X0303340Y0418493D02*
X0306660Y0418493D01*
X0309007Y0420840D01*
X0309007Y0424160D01*
X0306660Y0426507D01*
X0303340Y0426507D01*
X0300993Y0424160D01*
X0300993Y0420840D01*
X0303340Y0418493D01*
X0301982Y0419851D02*
X0241250Y0419851D01*
X0241250Y0421050D02*
X0265021Y0421050D01*
X0264504Y0421264D02*
X0266123Y0420593D01*
X0273877Y0420593D01*
X0275496Y0421264D01*
X0276736Y0422504D01*
X0277407Y0424123D01*
X0277407Y0425877D01*
X0276736Y0427496D01*
X0275496Y0428736D01*
X0273877Y0429407D01*
X0266123Y0429407D01*
X0264504Y0428736D01*
X0263264Y0427496D01*
X0262593Y0425877D01*
X0262593Y0424123D01*
X0263264Y0422504D01*
X0264504Y0421264D01*
X0263519Y0422248D02*
X0241250Y0422248D01*
X0241250Y0423447D02*
X0262873Y0423447D01*
X0262593Y0424645D02*
X0241250Y0424645D01*
X0241250Y0425844D02*
X0262593Y0425844D01*
X0263076Y0427042D02*
X0241250Y0427042D01*
X0241250Y0428241D02*
X0264008Y0428241D01*
X0264504Y0431264D02*
X0266123Y0430593D01*
X0273877Y0430593D01*
X0275496Y0431264D01*
X0276736Y0432504D01*
X0277407Y0434123D01*
X0277407Y0435877D01*
X0276736Y0437496D01*
X0275496Y0438736D01*
X0273877Y0439407D01*
X0266123Y0439407D01*
X0264504Y0438736D01*
X0263264Y0437496D01*
X0262593Y0435877D01*
X0262593Y0434123D01*
X0263264Y0432504D01*
X0264504Y0431264D01*
X0263931Y0431836D02*
X0241250Y0431836D01*
X0241250Y0430638D02*
X0266015Y0430638D01*
X0263044Y0433035D02*
X0241250Y0433035D01*
X0241250Y0434233D02*
X0262593Y0434233D01*
X0262593Y0435432D02*
X0241250Y0435432D01*
X0241250Y0436630D02*
X0262905Y0436630D01*
X0263596Y0437829D02*
X0241250Y0437829D01*
X0241250Y0439027D02*
X0265207Y0439027D01*
X0274793Y0439027D02*
X0828750Y0439027D01*
X0828750Y0437829D02*
X0307838Y0437829D01*
X0309007Y0436660D02*
X0306660Y0439007D01*
X0303340Y0439007D01*
X0300993Y0436660D01*
X0300993Y0433340D01*
X0303340Y0430993D01*
X0306660Y0430993D01*
X0309007Y0433340D01*
X0309007Y0436660D01*
X0309007Y0436630D02*
X0828750Y0436630D01*
X0828750Y0435432D02*
X0309007Y0435432D01*
X0309007Y0434233D02*
X0828750Y0434233D01*
X0828750Y0433035D02*
X0817645Y0433035D01*
X0817030Y0433650D02*
X0815500Y0433650D01*
X0815500Y0429250D01*
X0814500Y0429250D01*
X0814500Y0433650D01*
X0812970Y0433650D01*
X0810100Y0430780D01*
X0810100Y0429250D01*
X0814500Y0429250D01*
X0814500Y0428250D01*
X0810100Y0428250D01*
X0810100Y0426720D01*
X0812970Y0423850D01*
X0814500Y0423850D01*
X0814500Y0428250D01*
X0815500Y0428250D01*
X0815500Y0429250D01*
X0819900Y0429250D01*
X0819900Y0430780D01*
X0817030Y0433650D01*
X0815500Y0433035D02*
X0814500Y0433035D01*
X0814500Y0431836D02*
X0815500Y0431836D01*
X0815500Y0430638D02*
X0814500Y0430638D01*
X0814500Y0429439D02*
X0815500Y0429439D01*
X0815500Y0428250D02*
X0819900Y0428250D01*
X0819900Y0426720D01*
X0817030Y0423850D01*
X0815500Y0423850D01*
X0815500Y0428250D01*
X0815500Y0428241D02*
X0814500Y0428241D01*
X0814500Y0427042D02*
X0815500Y0427042D01*
X0815500Y0425844D02*
X0814500Y0425844D01*
X0814500Y0424645D02*
X0815500Y0424645D01*
X0817825Y0424645D02*
X0828750Y0424645D01*
X0828750Y0423447D02*
X0309007Y0423447D01*
X0309007Y0422248D02*
X0828750Y0422248D01*
X0828750Y0421050D02*
X0309007Y0421050D01*
X0308018Y0419851D02*
X0828750Y0419851D01*
X0828750Y0418653D02*
X0306819Y0418653D01*
X0308522Y0424645D02*
X0332175Y0424645D01*
X0332970Y0423850D02*
X0330100Y0426720D01*
X0330100Y0428250D01*
X0334500Y0428250D01*
X0334500Y0429250D01*
X0334500Y0433650D01*
X0332970Y0433650D01*
X0330100Y0430780D01*
X0330100Y0429250D01*
X0334500Y0429250D01*
X0335500Y0429250D01*
X0335500Y0433650D01*
X0337030Y0433650D01*
X0339900Y0430780D01*
X0339900Y0429250D01*
X0335500Y0429250D01*
X0335500Y0428250D01*
X0339900Y0428250D01*
X0339900Y0426720D01*
X0337030Y0423850D01*
X0335500Y0423850D01*
X0335500Y0428250D01*
X0334500Y0428250D01*
X0334500Y0423850D01*
X0332970Y0423850D01*
X0334500Y0424645D02*
X0335500Y0424645D01*
X0335500Y0425844D02*
X0334500Y0425844D01*
X0334500Y0427042D02*
X0335500Y0427042D01*
X0335500Y0428241D02*
X0334500Y0428241D01*
X0334500Y0429439D02*
X0335500Y0429439D01*
X0335500Y0430638D02*
X0334500Y0430638D01*
X0334500Y0431836D02*
X0335500Y0431836D01*
X0335500Y0433035D02*
X0334500Y0433035D01*
X0332355Y0433035D02*
X0308702Y0433035D01*
X0307503Y0431836D02*
X0331157Y0431836D01*
X0330100Y0430638D02*
X0273985Y0430638D01*
X0276069Y0431836D02*
X0302497Y0431836D01*
X0301298Y0433035D02*
X0276956Y0433035D01*
X0277407Y0434233D02*
X0300993Y0434233D01*
X0300993Y0435432D02*
X0277407Y0435432D01*
X0277095Y0436630D02*
X0300993Y0436630D01*
X0302162Y0437829D02*
X0276404Y0437829D01*
X0275992Y0428241D02*
X0330100Y0428241D01*
X0330100Y0429439D02*
X0241250Y0429439D01*
X0241250Y0440226D02*
X0828750Y0440226D01*
X0828750Y0441424D02*
X0241250Y0441424D01*
X0241250Y0442623D02*
X0828750Y0442623D01*
X0828750Y0443821D02*
X0241250Y0443821D01*
X0241250Y0445020D02*
X0828750Y0445020D01*
X0828750Y0446218D02*
X0241250Y0446218D01*
X0241250Y0452500D02*
X0241250Y0603625D01*
X0241375Y0603750D01*
X0828625Y0603750D01*
X0828750Y0603625D01*
X0828750Y0453750D01*
X0358407Y0452749D01*
X0358407Y0530678D01*
X0357888Y0531930D01*
X0356930Y0532888D01*
X0355678Y0533407D01*
X0354322Y0533407D01*
X0353070Y0532888D01*
X0352112Y0531930D01*
X0351593Y0530678D01*
X0351593Y0452735D01*
X0293551Y0452611D01*
X0294200Y0453260D01*
X0294200Y0454800D01*
X0290200Y0454800D01*
X0290200Y0455200D01*
X0294200Y0455200D01*
X0294200Y0456740D01*
X0291740Y0459200D01*
X0290200Y0459200D01*
X0290200Y0455200D01*
X0289800Y0455200D01*
X0289800Y0459200D01*
X0288260Y0459200D01*
X0285800Y0456740D01*
X0285800Y0455200D01*
X0289800Y0455200D01*
X0289800Y0454800D01*
X0285800Y0454800D01*
X0285800Y0453260D01*
X0286464Y0452596D01*
X0263214Y0452547D01*
X0264007Y0453340D01*
X0264007Y0456660D01*
X0261660Y0459007D01*
X0258340Y0459007D01*
X0255993Y0456660D01*
X0255993Y0453340D01*
X0256800Y0452533D01*
X0241250Y0452500D01*
X0241250Y0453409D02*
X0255993Y0453409D01*
X0255993Y0454608D02*
X0241250Y0454608D01*
X0241250Y0455806D02*
X0255993Y0455806D01*
X0256338Y0457005D02*
X0241250Y0457005D01*
X0241250Y0458203D02*
X0257537Y0458203D01*
X0262463Y0458203D02*
X0287264Y0458203D01*
X0286065Y0457005D02*
X0263662Y0457005D01*
X0264007Y0455806D02*
X0285800Y0455806D01*
X0285800Y0454608D02*
X0264007Y0454608D01*
X0264007Y0453409D02*
X0285800Y0453409D01*
X0289800Y0455806D02*
X0290200Y0455806D01*
X0290200Y0457005D02*
X0289800Y0457005D01*
X0289800Y0458203D02*
X0290200Y0458203D01*
X0292736Y0458203D02*
X0330100Y0458203D01*
X0330100Y0458250D02*
X0330100Y0456720D01*
X0332970Y0453850D01*
X0334500Y0453850D01*
X0334500Y0458250D01*
X0330100Y0458250D01*
X0330100Y0459250D02*
X0334500Y0459250D01*
X0334500Y0463650D01*
X0332970Y0463650D01*
X0330100Y0460780D01*
X0330100Y0459250D01*
X0330100Y0459402D02*
X0241250Y0459402D01*
X0241250Y0460601D02*
X0330100Y0460601D01*
X0331119Y0461799D02*
X0307466Y0461799D01*
X0306660Y0460993D02*
X0309007Y0463340D01*
X0309007Y0466660D01*
X0306660Y0469007D01*
X0303340Y0469007D01*
X0300993Y0466660D01*
X0300993Y0463340D01*
X0303340Y0460993D01*
X0306660Y0460993D01*
X0308664Y0462998D02*
X0332318Y0462998D01*
X0334500Y0462998D02*
X0335500Y0462998D01*
X0335500Y0463650D02*
X0335500Y0459250D01*
X0334500Y0459250D01*
X0334500Y0458250D01*
X0335500Y0458250D01*
X0335500Y0459250D01*
X0339900Y0459250D01*
X0339900Y0460780D01*
X0337030Y0463650D01*
X0335500Y0463650D01*
X0335500Y0461799D02*
X0334500Y0461799D01*
X0334500Y0460601D02*
X0335500Y0460601D01*
X0335500Y0459402D02*
X0334500Y0459402D01*
X0334500Y0458203D02*
X0335500Y0458203D01*
X0335500Y0458250D02*
X0335500Y0453850D01*
X0337030Y0453850D01*
X0339900Y0456720D01*
X0339900Y0458250D01*
X0335500Y0458250D01*
X0335500Y0457005D02*
X0334500Y0457005D01*
X0334500Y0455806D02*
X0335500Y0455806D01*
X0335500Y0454608D02*
X0334500Y0454608D01*
X0332212Y0454608D02*
X0294200Y0454608D01*
X0294200Y0455806D02*
X0331014Y0455806D01*
X0330100Y0457005D02*
X0293935Y0457005D01*
X0294200Y0453409D02*
X0351593Y0453409D01*
X0351593Y0454608D02*
X0337788Y0454608D01*
X0338986Y0455806D02*
X0351593Y0455806D01*
X0351593Y0457005D02*
X0339900Y0457005D01*
X0339900Y0458203D02*
X0351593Y0458203D01*
X0351593Y0459402D02*
X0339900Y0459402D01*
X0339900Y0460601D02*
X0351593Y0460601D01*
X0351593Y0461799D02*
X0338881Y0461799D01*
X0337682Y0462998D02*
X0351593Y0462998D01*
X0351593Y0464196D02*
X0309007Y0464196D01*
X0309007Y0465395D02*
X0351593Y0465395D01*
X0351593Y0466593D02*
X0309007Y0466593D01*
X0307875Y0467792D02*
X0351593Y0467792D01*
X0351593Y0468990D02*
X0306677Y0468990D01*
X0303323Y0468990D02*
X0241250Y0468990D01*
X0241250Y0467792D02*
X0302125Y0467792D01*
X0300993Y0466593D02*
X0241250Y0466593D01*
X0241250Y0465395D02*
X0300993Y0465395D01*
X0300993Y0464196D02*
X0241250Y0464196D01*
X0241250Y0462998D02*
X0301336Y0462998D01*
X0302534Y0461799D02*
X0241250Y0461799D01*
X0241250Y0470189D02*
X0351593Y0470189D01*
X0351593Y0471387D02*
X0241250Y0471387D01*
X0241250Y0472586D02*
X0351593Y0472586D01*
X0351593Y0473784D02*
X0241250Y0473784D01*
X0241250Y0474983D02*
X0351593Y0474983D01*
X0351593Y0476181D02*
X0241250Y0476181D01*
X0241250Y0477380D02*
X0351593Y0477380D01*
X0351593Y0478578D02*
X0241250Y0478578D01*
X0241250Y0479777D02*
X0351593Y0479777D01*
X0351593Y0480975D02*
X0241250Y0480975D01*
X0241250Y0482174D02*
X0249559Y0482174D01*
X0249003Y0482730D02*
X0250130Y0481603D01*
X0251603Y0480993D01*
X0258397Y0480993D01*
X0259870Y0481603D01*
X0260997Y0482730D01*
X0261607Y0484203D01*
X0261607Y0485797D01*
X0260997Y0487270D01*
X0259870Y0488397D01*
X0258397Y0489007D01*
X0251603Y0489007D01*
X0250130Y0488397D01*
X0249003Y0487270D01*
X0248393Y0485797D01*
X0248393Y0484203D01*
X0249003Y0482730D01*
X0248737Y0483372D02*
X0241250Y0483372D01*
X0241250Y0484571D02*
X0248393Y0484571D01*
X0248393Y0485769D02*
X0241250Y0485769D01*
X0241250Y0486968D02*
X0248878Y0486968D01*
X0249899Y0488166D02*
X0241250Y0488166D01*
X0241250Y0489365D02*
X0351593Y0489365D01*
X0351593Y0490563D02*
X0241250Y0490563D01*
X0241250Y0491762D02*
X0351593Y0491762D01*
X0351593Y0492960D02*
X0241250Y0492960D01*
X0241250Y0494159D02*
X0351593Y0494159D01*
X0351593Y0495357D02*
X0241250Y0495357D01*
X0241250Y0496556D02*
X0351593Y0496556D01*
X0351593Y0497754D02*
X0241250Y0497754D01*
X0241250Y0498953D02*
X0351593Y0498953D01*
X0351593Y0500151D02*
X0241250Y0500151D01*
X0241250Y0501350D02*
X0351593Y0501350D01*
X0351593Y0502548D02*
X0241250Y0502548D01*
X0241250Y0503747D02*
X0262021Y0503747D01*
X0262504Y0503264D02*
X0264123Y0502593D01*
X0265877Y0502593D01*
X0267496Y0503264D01*
X0268736Y0504504D01*
X0269407Y0506123D01*
X0269407Y0513877D01*
X0268736Y0515496D01*
X0267496Y0516736D01*
X0265877Y0517407D01*
X0264123Y0517407D01*
X0262504Y0516736D01*
X0261264Y0515496D01*
X0260593Y0513877D01*
X0260593Y0506123D01*
X0261264Y0504504D01*
X0262504Y0503264D01*
X0261081Y0504945D02*
X0241250Y0504945D01*
X0241250Y0506144D02*
X0260593Y0506144D01*
X0260593Y0507342D02*
X0241250Y0507342D01*
X0241250Y0508541D02*
X0260593Y0508541D01*
X0260593Y0509739D02*
X0241250Y0509739D01*
X0241250Y0510938D02*
X0260593Y0510938D01*
X0260593Y0512137D02*
X0241250Y0512137D01*
X0241250Y0513335D02*
X0260593Y0513335D01*
X0260865Y0514534D02*
X0241250Y0514534D01*
X0241250Y0515732D02*
X0261499Y0515732D01*
X0262973Y0516931D02*
X0241250Y0516931D01*
X0241250Y0518129D02*
X0351593Y0518129D01*
X0351593Y0516931D02*
X0287027Y0516931D01*
X0287496Y0516736D02*
X0285877Y0517407D01*
X0284123Y0517407D01*
X0282504Y0516736D01*
X0281264Y0515496D01*
X0280593Y0513877D01*
X0280593Y0506123D01*
X0281264Y0504504D01*
X0282504Y0503264D01*
X0284123Y0502593D01*
X0285877Y0502593D01*
X0287496Y0503264D01*
X0288736Y0504504D01*
X0289407Y0506123D01*
X0289407Y0513877D01*
X0288736Y0515496D01*
X0287496Y0516736D01*
X0288501Y0515732D02*
X0327096Y0515732D01*
X0326371Y0515432D02*
X0324568Y0513629D01*
X0323593Y0511274D01*
X0323593Y0508726D01*
X0324568Y0506371D01*
X0326371Y0504568D01*
X0328726Y0503593D01*
X0331274Y0503593D01*
X0333629Y0504568D01*
X0335432Y0506371D01*
X0336407Y0508726D01*
X0336407Y0511274D01*
X0335432Y0513629D01*
X0333629Y0515432D01*
X0331274Y0516407D01*
X0328726Y0516407D01*
X0326371Y0515432D01*
X0325473Y0514534D02*
X0289135Y0514534D01*
X0289407Y0513335D02*
X0324446Y0513335D01*
X0323950Y0512137D02*
X0289407Y0512137D01*
X0289407Y0510938D02*
X0323593Y0510938D01*
X0323593Y0509739D02*
X0289407Y0509739D01*
X0289407Y0508541D02*
X0323669Y0508541D01*
X0324166Y0507342D02*
X0289407Y0507342D01*
X0289407Y0506144D02*
X0324795Y0506144D01*
X0325994Y0504945D02*
X0288919Y0504945D01*
X0287979Y0503747D02*
X0328354Y0503747D01*
X0331646Y0503747D02*
X0351593Y0503747D01*
X0351593Y0504945D02*
X0334006Y0504945D01*
X0335205Y0506144D02*
X0351593Y0506144D01*
X0351593Y0507342D02*
X0335834Y0507342D01*
X0336331Y0508541D02*
X0351593Y0508541D01*
X0351593Y0509739D02*
X0336407Y0509739D01*
X0336407Y0510938D02*
X0351593Y0510938D01*
X0351593Y0512137D02*
X0336050Y0512137D01*
X0335554Y0513335D02*
X0351593Y0513335D01*
X0351593Y0514534D02*
X0334527Y0514534D01*
X0332904Y0515732D02*
X0351593Y0515732D01*
X0351593Y0519328D02*
X0241250Y0519328D01*
X0241250Y0520526D02*
X0351593Y0520526D01*
X0351593Y0521725D02*
X0241250Y0521725D01*
X0241250Y0522923D02*
X0351593Y0522923D01*
X0351593Y0524122D02*
X0333455Y0524122D01*
X0332734Y0523400D02*
X0336600Y0527266D01*
X0336600Y0529600D01*
X0330400Y0529600D01*
X0330400Y0530400D01*
X0329600Y0530400D01*
X0329600Y0536600D01*
X0327266Y0536600D01*
X0323400Y0532734D01*
X0323400Y0530400D01*
X0329600Y0530400D01*
X0329600Y0529600D01*
X0323400Y0529600D01*
X0323400Y0527266D01*
X0327266Y0523400D01*
X0329600Y0523400D01*
X0329600Y0529600D01*
X0330400Y0529600D01*
X0330400Y0523400D01*
X0332734Y0523400D01*
X0330400Y0524122D02*
X0329600Y0524122D01*
X0329600Y0525320D02*
X0330400Y0525320D01*
X0330400Y0526519D02*
X0329600Y0526519D01*
X0329600Y0527717D02*
X0330400Y0527717D01*
X0330400Y0528916D02*
X0329600Y0528916D01*
X0329600Y0530114D02*
X0241250Y0530114D01*
X0241250Y0528916D02*
X0323400Y0528916D01*
X0323400Y0527717D02*
X0241250Y0527717D01*
X0241250Y0526519D02*
X0324148Y0526519D01*
X0325346Y0525320D02*
X0241250Y0525320D01*
X0241250Y0524122D02*
X0326545Y0524122D01*
X0330400Y0530114D02*
X0351593Y0530114D01*
X0351593Y0528916D02*
X0336600Y0528916D01*
X0336600Y0527717D02*
X0351593Y0527717D01*
X0351593Y0526519D02*
X0335852Y0526519D01*
X0334654Y0525320D02*
X0351593Y0525320D01*
X0351856Y0531313D02*
X0336600Y0531313D01*
X0336600Y0530400D02*
X0336600Y0532734D01*
X0332734Y0536600D01*
X0330400Y0536600D01*
X0330400Y0530400D01*
X0336600Y0530400D01*
X0336600Y0532511D02*
X0352693Y0532511D01*
X0357307Y0532511D02*
X0828750Y0532511D01*
X0828750Y0531313D02*
X0358144Y0531313D01*
X0358407Y0530114D02*
X0828750Y0530114D01*
X0828750Y0528916D02*
X0358407Y0528916D01*
X0358407Y0527717D02*
X0828750Y0527717D01*
X0828750Y0526519D02*
X0358407Y0526519D01*
X0358407Y0525320D02*
X0828750Y0525320D01*
X0828750Y0524122D02*
X0358407Y0524122D01*
X0358407Y0522923D02*
X0828750Y0522923D01*
X0828750Y0521725D02*
X0358407Y0521725D01*
X0358407Y0520526D02*
X0828750Y0520526D01*
X0828750Y0519328D02*
X0358407Y0519328D01*
X0358407Y0518129D02*
X0828750Y0518129D01*
X0828750Y0516931D02*
X0358407Y0516931D01*
X0358407Y0515732D02*
X0828750Y0515732D01*
X0828750Y0514534D02*
X0358407Y0514534D01*
X0358407Y0513335D02*
X0828750Y0513335D01*
X0828750Y0512137D02*
X0358407Y0512137D01*
X0358407Y0510938D02*
X0828750Y0510938D01*
X0828750Y0509739D02*
X0358407Y0509739D01*
X0358407Y0508541D02*
X0828750Y0508541D01*
X0828750Y0507342D02*
X0358407Y0507342D01*
X0358407Y0506144D02*
X0828750Y0506144D01*
X0828750Y0504945D02*
X0358407Y0504945D01*
X0358407Y0503747D02*
X0528247Y0503747D01*
X0528681Y0504181D02*
X0527294Y0502794D01*
X0526543Y0500981D01*
X0526543Y0499019D01*
X0527294Y0497206D01*
X0528681Y0495819D01*
X0530494Y0495068D01*
X0539506Y0495068D01*
X0541319Y0495819D01*
X0542706Y0497206D01*
X0543457Y0499019D01*
X0543457Y0500981D01*
X0542706Y0502794D01*
X0541319Y0504181D01*
X0539506Y0504932D01*
X0530494Y0504932D01*
X0528681Y0504181D01*
X0527192Y0502548D02*
X0358407Y0502548D01*
X0358407Y0501350D02*
X0526696Y0501350D01*
X0526543Y0500151D02*
X0358407Y0500151D01*
X0358407Y0498953D02*
X0526570Y0498953D01*
X0527067Y0497754D02*
X0358407Y0497754D01*
X0358407Y0496556D02*
X0527944Y0496556D01*
X0529795Y0495357D02*
X0358407Y0495357D01*
X0358407Y0494159D02*
X0828750Y0494159D01*
X0828750Y0495357D02*
X0820205Y0495357D01*
X0819506Y0495068D02*
X0821319Y0495819D01*
X0822706Y0497206D01*
X0823457Y0499019D01*
X0823457Y0500981D01*
X0822706Y0502794D01*
X0821319Y0504181D01*
X0819506Y0504932D01*
X0810494Y0504932D01*
X0808681Y0504181D01*
X0807294Y0502794D01*
X0806543Y0500981D01*
X0806543Y0499019D01*
X0807294Y0497206D01*
X0808681Y0495819D01*
X0810494Y0495068D01*
X0819506Y0495068D01*
X0822056Y0496556D02*
X0828750Y0496556D01*
X0828750Y0497754D02*
X0822933Y0497754D01*
X0823430Y0498953D02*
X0828750Y0498953D01*
X0828750Y0500151D02*
X0823457Y0500151D01*
X0823304Y0501350D02*
X0828750Y0501350D01*
X0828750Y0502548D02*
X0822808Y0502548D01*
X0821753Y0503747D02*
X0828750Y0503747D01*
X0828750Y0492960D02*
X0358407Y0492960D01*
X0358407Y0491762D02*
X0828750Y0491762D01*
X0828750Y0490563D02*
X0358407Y0490563D01*
X0358407Y0489365D02*
X0828750Y0489365D01*
X0828750Y0488166D02*
X0358407Y0488166D01*
X0358407Y0486968D02*
X0828750Y0486968D01*
X0828750Y0485769D02*
X0358407Y0485769D01*
X0358407Y0484571D02*
X0529622Y0484571D01*
X0530494Y0484932D02*
X0528681Y0484181D01*
X0527294Y0482794D01*
X0526543Y0480981D01*
X0526543Y0479019D01*
X0527294Y0477206D01*
X0528681Y0475819D01*
X0530494Y0475068D01*
X0539506Y0475068D01*
X0541319Y0475819D01*
X0542706Y0477206D01*
X0543457Y0479019D01*
X0543457Y0480981D01*
X0542706Y0482794D01*
X0541319Y0484181D01*
X0539506Y0484932D01*
X0530494Y0484932D01*
X0527872Y0483372D02*
X0358407Y0483372D01*
X0358407Y0482174D02*
X0527037Y0482174D01*
X0526543Y0480975D02*
X0358407Y0480975D01*
X0358407Y0479777D02*
X0526543Y0479777D01*
X0526725Y0478578D02*
X0358407Y0478578D01*
X0358407Y0477380D02*
X0527222Y0477380D01*
X0528319Y0476181D02*
X0358407Y0476181D01*
X0358407Y0474983D02*
X0828750Y0474983D01*
X0828750Y0476181D02*
X0821681Y0476181D01*
X0821319Y0475819D02*
X0822706Y0477206D01*
X0823457Y0479019D01*
X0823457Y0480981D01*
X0822706Y0482794D01*
X0821319Y0484181D01*
X0819506Y0484932D01*
X0810494Y0484932D01*
X0808681Y0484181D01*
X0807294Y0482794D01*
X0806543Y0480981D01*
X0806543Y0479019D01*
X0807294Y0477206D01*
X0808681Y0475819D01*
X0810494Y0475068D01*
X0819506Y0475068D01*
X0821319Y0475819D01*
X0822778Y0477380D02*
X0828750Y0477380D01*
X0828750Y0478578D02*
X0823275Y0478578D01*
X0823457Y0479777D02*
X0828750Y0479777D01*
X0828750Y0480975D02*
X0823457Y0480975D01*
X0822963Y0482174D02*
X0828750Y0482174D01*
X0828750Y0483372D02*
X0822128Y0483372D01*
X0820378Y0484571D02*
X0828750Y0484571D01*
X0828750Y0473784D02*
X0358407Y0473784D01*
X0358407Y0472586D02*
X0828750Y0472586D01*
X0828750Y0471387D02*
X0358407Y0471387D01*
X0358407Y0470189D02*
X0828750Y0470189D01*
X0828750Y0468990D02*
X0358407Y0468990D01*
X0358407Y0467792D02*
X0828750Y0467792D01*
X0828750Y0466593D02*
X0358407Y0466593D01*
X0358407Y0465395D02*
X0828750Y0465395D01*
X0828750Y0464196D02*
X0358407Y0464196D01*
X0358407Y0462998D02*
X0812318Y0462998D01*
X0812970Y0463650D02*
X0810100Y0460780D01*
X0810100Y0459250D01*
X0814500Y0459250D01*
X0814500Y0463650D01*
X0812970Y0463650D01*
X0814500Y0462998D02*
X0815500Y0462998D01*
X0815500Y0463650D02*
X0815500Y0459250D01*
X0814500Y0459250D01*
X0814500Y0458250D01*
X0810100Y0458250D01*
X0810100Y0456720D01*
X0812970Y0453850D01*
X0814500Y0453850D01*
X0814500Y0458250D01*
X0815500Y0458250D01*
X0815500Y0459250D01*
X0819900Y0459250D01*
X0819900Y0460780D01*
X0817030Y0463650D01*
X0815500Y0463650D01*
X0815500Y0461799D02*
X0814500Y0461799D01*
X0814500Y0460601D02*
X0815500Y0460601D01*
X0815500Y0459402D02*
X0814500Y0459402D01*
X0814500Y0458203D02*
X0815500Y0458203D01*
X0815500Y0458250D02*
X0815500Y0453850D01*
X0817030Y0453850D01*
X0819900Y0456720D01*
X0819900Y0458250D01*
X0815500Y0458250D01*
X0815500Y0457005D02*
X0814500Y0457005D01*
X0814500Y0455806D02*
X0815500Y0455806D01*
X0815500Y0454608D02*
X0814500Y0454608D01*
X0812212Y0454608D02*
X0358407Y0454608D01*
X0358407Y0455806D02*
X0811014Y0455806D01*
X0810100Y0457005D02*
X0358407Y0457005D01*
X0358407Y0458203D02*
X0810100Y0458203D01*
X0810100Y0459402D02*
X0358407Y0459402D01*
X0358407Y0460601D02*
X0810100Y0460601D01*
X0811119Y0461799D02*
X0358407Y0461799D01*
X0358407Y0453409D02*
X0668692Y0453409D01*
X0670494Y0475068D02*
X0668681Y0475819D01*
X0667294Y0477206D01*
X0666543Y0479019D01*
X0666543Y0480981D01*
X0667294Y0482794D01*
X0668681Y0484181D01*
X0670494Y0484932D01*
X0679506Y0484932D01*
X0681319Y0484181D01*
X0682706Y0482794D01*
X0683457Y0480981D01*
X0683457Y0479019D01*
X0682706Y0477206D01*
X0681319Y0475819D01*
X0679506Y0475068D01*
X0670494Y0475068D01*
X0668319Y0476181D02*
X0541681Y0476181D01*
X0542778Y0477380D02*
X0667222Y0477380D01*
X0666725Y0478578D02*
X0543275Y0478578D01*
X0543457Y0479777D02*
X0666543Y0479777D01*
X0666543Y0480975D02*
X0543457Y0480975D01*
X0542963Y0482174D02*
X0667037Y0482174D01*
X0667872Y0483372D02*
X0542128Y0483372D01*
X0540378Y0484571D02*
X0669622Y0484571D01*
X0670494Y0495068D02*
X0668681Y0495819D01*
X0667294Y0497206D01*
X0666543Y0499019D01*
X0666543Y0500981D01*
X0667294Y0502794D01*
X0668681Y0504181D01*
X0670494Y0504932D01*
X0679506Y0504932D01*
X0681319Y0504181D01*
X0682706Y0502794D01*
X0683457Y0500981D01*
X0683457Y0499019D01*
X0682706Y0497206D01*
X0681319Y0495819D01*
X0679506Y0495068D01*
X0670494Y0495068D01*
X0669795Y0495357D02*
X0540205Y0495357D01*
X0542056Y0496556D02*
X0667944Y0496556D01*
X0667067Y0497754D02*
X0542933Y0497754D01*
X0543430Y0498953D02*
X0666570Y0498953D01*
X0666543Y0500151D02*
X0543457Y0500151D01*
X0543304Y0501350D02*
X0666696Y0501350D01*
X0667192Y0502548D02*
X0542808Y0502548D01*
X0541753Y0503747D02*
X0668247Y0503747D01*
X0680205Y0495357D02*
X0809795Y0495357D01*
X0807944Y0496556D02*
X0682056Y0496556D01*
X0682933Y0497754D02*
X0807067Y0497754D01*
X0806570Y0498953D02*
X0683430Y0498953D01*
X0683457Y0500151D02*
X0806543Y0500151D01*
X0806696Y0501350D02*
X0683304Y0501350D01*
X0682808Y0502548D02*
X0807192Y0502548D01*
X0808247Y0503747D02*
X0681753Y0503747D01*
X0680378Y0484571D02*
X0809622Y0484571D01*
X0807872Y0483372D02*
X0682128Y0483372D01*
X0682963Y0482174D02*
X0807037Y0482174D01*
X0806543Y0480975D02*
X0683457Y0480975D01*
X0683457Y0479777D02*
X0806543Y0479777D01*
X0806725Y0478578D02*
X0683275Y0478578D01*
X0682778Y0477380D02*
X0807222Y0477380D01*
X0808319Y0476181D02*
X0681681Y0476181D01*
X0679506Y0535068D02*
X0681319Y0535819D01*
X0682706Y0537206D01*
X0683457Y0539019D01*
X0683457Y0540981D01*
X0682706Y0542794D01*
X0681319Y0544181D01*
X0679506Y0544932D01*
X0670494Y0544932D01*
X0668681Y0544181D01*
X0667294Y0542794D01*
X0666543Y0540981D01*
X0666543Y0539019D01*
X0667294Y0537206D01*
X0668681Y0535819D01*
X0670494Y0535068D01*
X0679506Y0535068D01*
X0681607Y0536107D02*
X0808393Y0536107D01*
X0808681Y0535819D02*
X0810494Y0535068D01*
X0819506Y0535068D01*
X0821319Y0535819D01*
X0822706Y0537206D01*
X0823457Y0539019D01*
X0823457Y0540981D01*
X0822706Y0542794D01*
X0821319Y0544181D01*
X0819506Y0544932D01*
X0810494Y0544932D01*
X0808681Y0544181D01*
X0807294Y0542794D01*
X0806543Y0540981D01*
X0806543Y0539019D01*
X0807294Y0537206D01*
X0808681Y0535819D01*
X0807253Y0537305D02*
X0682747Y0537305D01*
X0683244Y0538504D02*
X0806756Y0538504D01*
X0806543Y0539702D02*
X0683457Y0539702D01*
X0683457Y0540901D02*
X0806543Y0540901D01*
X0807006Y0542099D02*
X0682994Y0542099D01*
X0682202Y0543298D02*
X0807798Y0543298D01*
X0809442Y0544496D02*
X0780935Y0544496D01*
X0781131Y0544693D02*
X0781131Y0555307D01*
X0780307Y0556131D01*
X0769693Y0556131D01*
X0768869Y0555307D01*
X0768869Y0544693D01*
X0769693Y0543869D01*
X0780307Y0543869D01*
X0781131Y0544693D01*
X0781131Y0545695D02*
X0828750Y0545695D01*
X0828750Y0546893D02*
X0781131Y0546893D01*
X0781131Y0548092D02*
X0828750Y0548092D01*
X0828750Y0549290D02*
X0781131Y0549290D01*
X0781131Y0550489D02*
X0828750Y0550489D01*
X0828750Y0551687D02*
X0781131Y0551687D01*
X0781131Y0552886D02*
X0828750Y0552886D01*
X0828750Y0554084D02*
X0781131Y0554084D01*
X0781131Y0555283D02*
X0809975Y0555283D01*
X0810494Y0555068D02*
X0808681Y0555819D01*
X0807294Y0557206D01*
X0806543Y0559019D01*
X0806543Y0560981D01*
X0807294Y0562794D01*
X0808681Y0564181D01*
X0810494Y0564932D01*
X0819506Y0564932D01*
X0821319Y0564181D01*
X0822706Y0562794D01*
X0823457Y0560981D01*
X0823457Y0559019D01*
X0822706Y0557206D01*
X0821319Y0555819D01*
X0819506Y0555068D01*
X0810494Y0555068D01*
X0808019Y0556481D02*
X0681981Y0556481D01*
X0681319Y0555819D02*
X0682706Y0557206D01*
X0683457Y0559019D01*
X0683457Y0560981D01*
X0682706Y0562794D01*
X0681319Y0564181D01*
X0679506Y0564932D01*
X0670494Y0564932D01*
X0668681Y0564181D01*
X0667294Y0562794D01*
X0666543Y0560981D01*
X0666543Y0559019D01*
X0667294Y0557206D01*
X0668681Y0555819D01*
X0670494Y0555068D01*
X0679506Y0555068D01*
X0681319Y0555819D01*
X0680025Y0555283D02*
X0708769Y0555283D01*
X0708785Y0555342D02*
X0708676Y0554935D01*
X0708676Y0550600D01*
X0714400Y0550600D01*
X0714400Y0556324D01*
X0710065Y0556324D01*
X0709658Y0556215D01*
X0709293Y0556005D01*
X0708995Y0555707D01*
X0708785Y0555342D01*
X0708676Y0554084D02*
X0641131Y0554084D01*
X0641131Y0552886D02*
X0708676Y0552886D01*
X0708676Y0551687D02*
X0641131Y0551687D01*
X0641131Y0550489D02*
X0714400Y0550489D01*
X0714400Y0550600D02*
X0714400Y0549400D01*
X0715600Y0549400D01*
X0715600Y0550600D01*
X0714400Y0550600D01*
X0714400Y0551687D02*
X0715600Y0551687D01*
X0715600Y0550600D02*
X0715600Y0556324D01*
X0719935Y0556324D01*
X0720342Y0556215D01*
X0720707Y0556005D01*
X0721005Y0555707D01*
X0721215Y0555342D01*
X0721324Y0554935D01*
X0721324Y0550600D01*
X0715600Y0550600D01*
X0715600Y0550489D02*
X0738869Y0550489D01*
X0738869Y0551687D02*
X0721324Y0551687D01*
X0721324Y0552886D02*
X0738869Y0552886D01*
X0738869Y0554084D02*
X0721324Y0554084D01*
X0721231Y0555283D02*
X0738869Y0555283D01*
X0738869Y0555307D02*
X0738869Y0544693D01*
X0739693Y0543869D01*
X0750307Y0543869D01*
X0751131Y0544693D01*
X0751131Y0555307D01*
X0750307Y0556131D01*
X0739693Y0556131D01*
X0738869Y0555307D01*
X0738869Y0549290D02*
X0721324Y0549290D01*
X0721324Y0549400D02*
X0721324Y0545065D01*
X0721215Y0544658D01*
X0721005Y0544293D01*
X0720707Y0543995D01*
X0720342Y0543785D01*
X0719935Y0543676D01*
X0715600Y0543676D01*
X0715600Y0549400D01*
X0721324Y0549400D01*
X0721324Y0548092D02*
X0738869Y0548092D01*
X0738869Y0546893D02*
X0721324Y0546893D01*
X0721324Y0545695D02*
X0738869Y0545695D01*
X0739065Y0544496D02*
X0721122Y0544496D01*
X0725000Y0544496D02*
X0705000Y0544496D01*
X0705000Y0543298D02*
X0725000Y0543298D01*
X0725000Y0542099D02*
X0705000Y0542099D01*
X0705000Y0540901D02*
X0725000Y0540901D01*
X0725000Y0540000D02*
X0705000Y0540000D01*
X0705000Y0560000D01*
X0725000Y0560000D01*
X0725000Y0540000D01*
X0725000Y0545695D02*
X0705000Y0545695D01*
X0705000Y0546893D02*
X0725000Y0546893D01*
X0725000Y0548092D02*
X0705000Y0548092D01*
X0705000Y0549290D02*
X0725000Y0549290D01*
X0725000Y0550489D02*
X0705000Y0550489D01*
X0705000Y0551687D02*
X0725000Y0551687D01*
X0725000Y0552886D02*
X0705000Y0552886D01*
X0705000Y0554084D02*
X0725000Y0554084D01*
X0725000Y0555283D02*
X0705000Y0555283D01*
X0705000Y0556481D02*
X0725000Y0556481D01*
X0725000Y0557680D02*
X0705000Y0557680D01*
X0705000Y0558878D02*
X0725000Y0558878D01*
X0715600Y0555283D02*
X0714400Y0555283D01*
X0714400Y0554084D02*
X0715600Y0554084D01*
X0715600Y0552886D02*
X0714400Y0552886D01*
X0714400Y0549400D02*
X0708676Y0549400D01*
X0708676Y0545065D01*
X0708785Y0544658D01*
X0708995Y0544293D01*
X0709293Y0543995D01*
X0709658Y0543785D01*
X0710065Y0543676D01*
X0714400Y0543676D01*
X0714400Y0549400D01*
X0714400Y0549290D02*
X0715600Y0549290D01*
X0715600Y0548092D02*
X0714400Y0548092D01*
X0714400Y0546893D02*
X0715600Y0546893D01*
X0715600Y0545695D02*
X0714400Y0545695D01*
X0714400Y0544496D02*
X0715600Y0544496D01*
X0708878Y0544496D02*
X0680558Y0544496D01*
X0669442Y0544496D02*
X0640935Y0544496D01*
X0641131Y0544693D02*
X0641131Y0555307D01*
X0640307Y0556131D01*
X0629693Y0556131D01*
X0628869Y0555307D01*
X0628869Y0544693D01*
X0629693Y0543869D01*
X0640307Y0543869D01*
X0641131Y0544693D01*
X0641131Y0545695D02*
X0708676Y0545695D01*
X0708676Y0546893D02*
X0641131Y0546893D01*
X0641131Y0548092D02*
X0708676Y0548092D01*
X0708676Y0549290D02*
X0641131Y0549290D01*
X0641131Y0555283D02*
X0669975Y0555283D01*
X0668019Y0556481D02*
X0541981Y0556481D01*
X0541319Y0555819D02*
X0542706Y0557206D01*
X0543457Y0559019D01*
X0543457Y0560981D01*
X0542706Y0562794D01*
X0541319Y0564181D01*
X0539506Y0564932D01*
X0530494Y0564932D01*
X0528681Y0564181D01*
X0527294Y0562794D01*
X0526543Y0560981D01*
X0526543Y0559019D01*
X0527294Y0557206D01*
X0528681Y0555819D01*
X0530494Y0555068D01*
X0539506Y0555068D01*
X0541319Y0555819D01*
X0540025Y0555283D02*
X0568769Y0555283D01*
X0568785Y0555342D02*
X0568676Y0554935D01*
X0568676Y0550600D01*
X0574400Y0550600D01*
X0574400Y0556324D01*
X0570065Y0556324D01*
X0569658Y0556215D01*
X0569293Y0556005D01*
X0568995Y0555707D01*
X0568785Y0555342D01*
X0568676Y0554084D02*
X0471131Y0554084D01*
X0471131Y0552886D02*
X0568676Y0552886D01*
X0568676Y0551687D02*
X0471131Y0551687D01*
X0471131Y0550489D02*
X0574400Y0550489D01*
X0574400Y0550600D02*
X0574400Y0549400D01*
X0575600Y0549400D01*
X0575600Y0550600D01*
X0574400Y0550600D01*
X0574400Y0551687D02*
X0575600Y0551687D01*
X0575600Y0550600D02*
X0575600Y0556324D01*
X0579935Y0556324D01*
X0580342Y0556215D01*
X0580707Y0556005D01*
X0581005Y0555707D01*
X0581215Y0555342D01*
X0581324Y0554935D01*
X0581324Y0550600D01*
X0575600Y0550600D01*
X0575600Y0550489D02*
X0598869Y0550489D01*
X0598869Y0551687D02*
X0581324Y0551687D01*
X0581324Y0552886D02*
X0598869Y0552886D01*
X0598869Y0554084D02*
X0581324Y0554084D01*
X0581231Y0555283D02*
X0598869Y0555283D01*
X0598869Y0555307D02*
X0598869Y0544693D01*
X0599693Y0543869D01*
X0610307Y0543869D01*
X0611131Y0544693D01*
X0611131Y0555307D01*
X0610307Y0556131D01*
X0599693Y0556131D01*
X0598869Y0555307D01*
X0598869Y0549290D02*
X0581324Y0549290D01*
X0581324Y0549400D02*
X0581324Y0545065D01*
X0581215Y0544658D01*
X0581005Y0544293D01*
X0580707Y0543995D01*
X0580342Y0543785D01*
X0579935Y0543676D01*
X0575600Y0543676D01*
X0575600Y0549400D01*
X0581324Y0549400D01*
X0581324Y0548092D02*
X0598869Y0548092D01*
X0598869Y0546893D02*
X0581324Y0546893D01*
X0581324Y0545695D02*
X0598869Y0545695D01*
X0599065Y0544496D02*
X0581122Y0544496D01*
X0585000Y0544496D02*
X0565000Y0544496D01*
X0565000Y0543298D02*
X0585000Y0543298D01*
X0585000Y0542099D02*
X0565000Y0542099D01*
X0565000Y0540901D02*
X0585000Y0540901D01*
X0585000Y0540000D02*
X0565000Y0540000D01*
X0565000Y0560000D01*
X0585000Y0560000D01*
X0585000Y0540000D01*
X0585000Y0545695D02*
X0565000Y0545695D01*
X0565000Y0546893D02*
X0585000Y0546893D01*
X0585000Y0548092D02*
X0565000Y0548092D01*
X0565000Y0549290D02*
X0585000Y0549290D01*
X0585000Y0550489D02*
X0565000Y0550489D01*
X0565000Y0551687D02*
X0585000Y0551687D01*
X0585000Y0552886D02*
X0565000Y0552886D01*
X0565000Y0554084D02*
X0585000Y0554084D01*
X0585000Y0555283D02*
X0565000Y0555283D01*
X0565000Y0556481D02*
X0585000Y0556481D01*
X0585000Y0557680D02*
X0565000Y0557680D01*
X0565000Y0558878D02*
X0585000Y0558878D01*
X0575600Y0555283D02*
X0574400Y0555283D01*
X0574400Y0554084D02*
X0575600Y0554084D01*
X0575600Y0552886D02*
X0574400Y0552886D01*
X0574400Y0549400D02*
X0568676Y0549400D01*
X0568676Y0545065D01*
X0568785Y0544658D01*
X0568995Y0544293D01*
X0569293Y0543995D01*
X0569658Y0543785D01*
X0570065Y0543676D01*
X0574400Y0543676D01*
X0574400Y0549400D01*
X0574400Y0549290D02*
X0575600Y0549290D01*
X0575600Y0548092D02*
X0574400Y0548092D01*
X0574400Y0546893D02*
X0575600Y0546893D01*
X0575600Y0545695D02*
X0574400Y0545695D01*
X0574400Y0544496D02*
X0575600Y0544496D01*
X0568878Y0544496D02*
X0540558Y0544496D01*
X0541319Y0544181D02*
X0539506Y0544932D01*
X0530494Y0544932D01*
X0528681Y0544181D01*
X0527294Y0542794D01*
X0526543Y0540981D01*
X0526543Y0539019D01*
X0527294Y0537206D01*
X0528681Y0535819D01*
X0530494Y0535068D01*
X0539506Y0535068D01*
X0541319Y0535819D01*
X0542706Y0537206D01*
X0543457Y0539019D01*
X0543457Y0540981D01*
X0542706Y0542794D01*
X0541319Y0544181D01*
X0542202Y0543298D02*
X0667798Y0543298D01*
X0667006Y0542099D02*
X0542994Y0542099D01*
X0543457Y0540901D02*
X0666543Y0540901D01*
X0666543Y0539702D02*
X0543457Y0539702D01*
X0543244Y0538504D02*
X0666756Y0538504D01*
X0667253Y0537305D02*
X0542747Y0537305D01*
X0541607Y0536107D02*
X0668393Y0536107D01*
X0667098Y0557680D02*
X0542902Y0557680D01*
X0543399Y0558878D02*
X0666601Y0558878D01*
X0666543Y0560077D02*
X0543457Y0560077D01*
X0543335Y0561275D02*
X0666665Y0561275D01*
X0667161Y0562474D02*
X0542839Y0562474D01*
X0541828Y0563672D02*
X0668172Y0563672D01*
X0670346Y0564871D02*
X0539654Y0564871D01*
X0530346Y0564871D02*
X0241250Y0564871D01*
X0241250Y0566070D02*
X0828750Y0566070D01*
X0828750Y0567268D02*
X0241250Y0567268D01*
X0241250Y0568467D02*
X0828750Y0568467D01*
X0828750Y0569665D02*
X0241250Y0569665D01*
X0241250Y0570864D02*
X0828750Y0570864D01*
X0828750Y0572062D02*
X0335498Y0572062D01*
X0335080Y0571821D02*
X0336113Y0572417D01*
X0337060Y0573144D01*
X0337903Y0573987D01*
X0338629Y0574933D01*
X0339226Y0575967D01*
X0339682Y0577069D01*
X0339991Y0578221D01*
X0340146Y0579400D01*
X0331647Y0579400D01*
X0331647Y0580600D01*
X0340146Y0580600D01*
X0339991Y0581779D01*
X0339682Y0582931D01*
X0339226Y0584033D01*
X0338629Y0585067D01*
X0337903Y0586013D01*
X0337060Y0586856D01*
X0336113Y0587583D01*
X0335080Y0588179D01*
X0333978Y0588636D01*
X0332826Y0588944D01*
X0331647Y0589100D01*
X0331647Y0580600D01*
X0330447Y0580600D01*
X0330447Y0589100D01*
X0329268Y0588944D01*
X0328115Y0588636D01*
X0327013Y0588179D01*
X0325980Y0587583D01*
X0325034Y0586856D01*
X0324190Y0586013D01*
X0323464Y0585067D01*
X0322868Y0584033D01*
X0322411Y0582931D01*
X0322103Y0581779D01*
X0321947Y0580600D01*
X0330447Y0580600D01*
X0330447Y0579400D01*
X0331647Y0579400D01*
X0331647Y0570900D01*
X0332826Y0571056D01*
X0333978Y0571364D01*
X0335080Y0571821D01*
X0337177Y0573261D02*
X0828750Y0573261D01*
X0828750Y0574459D02*
X0338265Y0574459D01*
X0339048Y0575658D02*
X0828750Y0575658D01*
X0828750Y0576856D02*
X0707028Y0576856D01*
X0706651Y0576700D02*
X0709702Y0577964D01*
X0712036Y0580298D01*
X0712036Y0580298D01*
X0713300Y0583349D01*
X0713300Y0586651D01*
X0712036Y0589702D01*
X0709702Y0592036D01*
X0706651Y0593300D01*
X0703349Y0593300D01*
X0703349Y0593300D01*
X0700298Y0592036D01*
X0697964Y0589702D01*
X0696700Y0586651D01*
X0696700Y0583349D01*
X0697964Y0580298D01*
X0700298Y0577964D01*
X0703349Y0576700D01*
X0704586Y0576700D01*
X0706651Y0576700D01*
X0709702Y0577964D02*
X0709702Y0577964D01*
X0709793Y0578055D02*
X0828750Y0578055D01*
X0828750Y0579253D02*
X0710991Y0579253D01*
X0712100Y0580452D02*
X0828750Y0580452D01*
X0828750Y0581650D02*
X0712596Y0581650D01*
X0713093Y0582849D02*
X0828750Y0582849D01*
X0828750Y0584047D02*
X0713300Y0584047D01*
X0713300Y0585246D02*
X0828750Y0585246D01*
X0828750Y0586444D02*
X0713300Y0586444D01*
X0712889Y0587643D02*
X0828750Y0587643D01*
X0828750Y0588841D02*
X0712393Y0588841D01*
X0712036Y0589702D02*
X0712036Y0589702D01*
X0711698Y0590040D02*
X0828750Y0590040D01*
X0828750Y0591238D02*
X0710500Y0591238D01*
X0709702Y0592036D02*
X0709702Y0592036D01*
X0708735Y0592437D02*
X0828750Y0592437D01*
X0828750Y0593635D02*
X0241250Y0593635D01*
X0241250Y0592437D02*
X0256265Y0592437D01*
X0255298Y0592036D02*
X0255298Y0592036D01*
X0252964Y0589702D01*
X0252964Y0589702D01*
X0251700Y0586651D01*
X0251700Y0583349D01*
X0252964Y0580298D01*
X0255298Y0577964D01*
X0258349Y0576700D01*
X0259586Y0576700D01*
X0261651Y0576700D01*
X0264702Y0577964D01*
X0267036Y0580298D01*
X0267036Y0580298D01*
X0268300Y0583349D01*
X0268300Y0586651D01*
X0267036Y0589702D01*
X0264702Y0592036D01*
X0264702Y0592036D01*
X0261651Y0593300D01*
X0258349Y0593300D01*
X0255298Y0592036D01*
X0254500Y0591238D02*
X0241250Y0591238D01*
X0241250Y0590040D02*
X0253302Y0590040D01*
X0252607Y0588841D02*
X0241250Y0588841D01*
X0241250Y0587643D02*
X0252111Y0587643D01*
X0251700Y0586444D02*
X0241250Y0586444D01*
X0241250Y0585246D02*
X0251700Y0585246D01*
X0251700Y0584047D02*
X0241250Y0584047D01*
X0241250Y0582849D02*
X0251907Y0582849D01*
X0252404Y0581650D02*
X0241250Y0581650D01*
X0241250Y0580452D02*
X0252900Y0580452D01*
X0252964Y0580298D02*
X0252964Y0580298D01*
X0254009Y0579253D02*
X0241250Y0579253D01*
X0241250Y0578055D02*
X0255207Y0578055D01*
X0255298Y0577964D02*
X0255298Y0577964D01*
X0257972Y0576856D02*
X0241250Y0576856D01*
X0241250Y0575658D02*
X0291093Y0575658D01*
X0291093Y0576856D02*
X0262028Y0576856D01*
X0264702Y0577964D02*
X0264702Y0577964D01*
X0264793Y0578055D02*
X0291093Y0578055D01*
X0291093Y0579253D02*
X0265991Y0579253D01*
X0267100Y0580452D02*
X0291093Y0580452D01*
X0291093Y0581650D02*
X0267596Y0581650D01*
X0268093Y0582849D02*
X0291093Y0582849D01*
X0291093Y0584047D02*
X0268300Y0584047D01*
X0268300Y0585246D02*
X0291093Y0585246D01*
X0291093Y0586444D02*
X0268300Y0586444D01*
X0267889Y0587643D02*
X0291093Y0587643D01*
X0291093Y0588083D02*
X0291093Y0571917D01*
X0291917Y0571093D01*
X0308083Y0571093D01*
X0308907Y0571917D01*
X0308907Y0588083D01*
X0308083Y0588907D01*
X0291917Y0588907D01*
X0291093Y0588083D01*
X0291851Y0588841D02*
X0267393Y0588841D01*
X0267036Y0589702D02*
X0267036Y0589702D01*
X0266698Y0590040D02*
X0558302Y0590040D01*
X0557964Y0589702D02*
X0557964Y0589702D01*
X0560298Y0592036D01*
X0560298Y0592036D01*
X0563349Y0593300D01*
X0566651Y0593300D01*
X0569702Y0592036D01*
X0569702Y0592036D01*
X0572036Y0589702D01*
X0572036Y0589702D01*
X0573300Y0586651D01*
X0573300Y0583349D01*
X0572036Y0580298D01*
X0572036Y0580298D01*
X0569702Y0577964D01*
X0569702Y0577964D01*
X0566651Y0576700D01*
X0566651Y0576700D01*
X0565414Y0576700D01*
X0563349Y0576700D01*
X0560298Y0577964D01*
X0560298Y0577964D01*
X0557964Y0580298D01*
X0557964Y0580298D01*
X0556700Y0583349D01*
X0556700Y0586651D01*
X0557964Y0589702D01*
X0557607Y0588841D02*
X0333211Y0588841D01*
X0331647Y0588841D02*
X0330447Y0588841D01*
X0330447Y0587643D02*
X0331647Y0587643D01*
X0331647Y0586444D02*
X0330447Y0586444D01*
X0330447Y0585246D02*
X0331647Y0585246D01*
X0331647Y0584047D02*
X0330447Y0584047D01*
X0330447Y0582849D02*
X0331647Y0582849D01*
X0331647Y0581650D02*
X0330447Y0581650D01*
X0330447Y0580452D02*
X0308907Y0580452D01*
X0308907Y0581650D02*
X0322086Y0581650D01*
X0322389Y0582849D02*
X0308907Y0582849D01*
X0308907Y0584047D02*
X0322876Y0584047D01*
X0323602Y0585246D02*
X0308907Y0585246D01*
X0308907Y0586444D02*
X0324622Y0586444D01*
X0326084Y0587643D02*
X0308907Y0587643D01*
X0308149Y0588841D02*
X0328883Y0588841D01*
X0336009Y0587643D02*
X0557111Y0587643D01*
X0556700Y0586444D02*
X0337472Y0586444D01*
X0338492Y0585246D02*
X0556700Y0585246D01*
X0556700Y0584047D02*
X0339218Y0584047D01*
X0339705Y0582849D02*
X0556907Y0582849D01*
X0557404Y0581650D02*
X0340008Y0581650D01*
X0340127Y0579253D02*
X0559009Y0579253D01*
X0557900Y0580452D02*
X0331647Y0580452D01*
X0331647Y0579253D02*
X0330447Y0579253D01*
X0330447Y0579400D02*
X0330447Y0570900D01*
X0329268Y0571056D01*
X0328115Y0571364D01*
X0327013Y0571821D01*
X0325980Y0572417D01*
X0325034Y0573144D01*
X0324190Y0573987D01*
X0323464Y0574933D01*
X0322868Y0575967D01*
X0322411Y0577069D01*
X0322103Y0578221D01*
X0321947Y0579400D01*
X0330447Y0579400D01*
X0330447Y0578055D02*
X0331647Y0578055D01*
X0331647Y0576856D02*
X0330447Y0576856D01*
X0330447Y0575658D02*
X0331647Y0575658D01*
X0331647Y0574459D02*
X0330447Y0574459D01*
X0330447Y0573261D02*
X0331647Y0573261D01*
X0331647Y0572062D02*
X0330447Y0572062D01*
X0326596Y0572062D02*
X0308907Y0572062D01*
X0308907Y0573261D02*
X0324917Y0573261D01*
X0323828Y0574459D02*
X0308907Y0574459D01*
X0308907Y0575658D02*
X0323046Y0575658D01*
X0322499Y0576856D02*
X0308907Y0576856D01*
X0308907Y0578055D02*
X0322147Y0578055D01*
X0321967Y0579253D02*
X0308907Y0579253D01*
X0291093Y0574459D02*
X0241250Y0574459D01*
X0241250Y0573261D02*
X0291093Y0573261D01*
X0291093Y0572062D02*
X0241250Y0572062D01*
X0241250Y0563672D02*
X0248006Y0563672D01*
X0248340Y0564007D02*
X0245993Y0561660D01*
X0245993Y0558340D01*
X0248340Y0555993D01*
X0251660Y0555993D01*
X0254007Y0558340D01*
X0254007Y0561660D01*
X0251660Y0564007D01*
X0248340Y0564007D01*
X0246807Y0562474D02*
X0241250Y0562474D01*
X0241250Y0561275D02*
X0245993Y0561275D01*
X0245993Y0560077D02*
X0241250Y0560077D01*
X0241250Y0558878D02*
X0245993Y0558878D01*
X0246653Y0557680D02*
X0241250Y0557680D01*
X0241250Y0556481D02*
X0247852Y0556481D01*
X0252148Y0556481D02*
X0277852Y0556481D01*
X0278340Y0555993D02*
X0281660Y0555993D01*
X0284007Y0558340D01*
X0284007Y0561660D01*
X0281660Y0564007D01*
X0278340Y0564007D01*
X0275993Y0561660D01*
X0275993Y0558340D01*
X0278340Y0555993D01*
X0276653Y0557680D02*
X0253347Y0557680D01*
X0254007Y0558878D02*
X0275993Y0558878D01*
X0275993Y0560077D02*
X0254007Y0560077D01*
X0254007Y0561275D02*
X0275993Y0561275D01*
X0276807Y0562474D02*
X0253193Y0562474D01*
X0251994Y0563672D02*
X0278006Y0563672D01*
X0281994Y0563672D02*
X0528172Y0563672D01*
X0527161Y0562474D02*
X0283193Y0562474D01*
X0284007Y0561275D02*
X0526665Y0561275D01*
X0526543Y0560077D02*
X0284007Y0560077D01*
X0284007Y0558878D02*
X0526601Y0558878D01*
X0527098Y0557680D02*
X0283347Y0557680D01*
X0282148Y0556481D02*
X0528019Y0556481D01*
X0529975Y0555283D02*
X0471131Y0555283D01*
X0471131Y0555307D02*
X0470307Y0556131D01*
X0459693Y0556131D01*
X0458869Y0555307D01*
X0458869Y0544693D01*
X0459693Y0543869D01*
X0470307Y0543869D01*
X0471131Y0544693D01*
X0471131Y0555307D01*
X0471131Y0549290D02*
X0568676Y0549290D01*
X0568676Y0548092D02*
X0471131Y0548092D01*
X0471131Y0546893D02*
X0568676Y0546893D01*
X0568676Y0545695D02*
X0471131Y0545695D01*
X0470935Y0544496D02*
X0529442Y0544496D01*
X0527798Y0543298D02*
X0241250Y0543298D01*
X0241250Y0544496D02*
X0398878Y0544496D01*
X0398785Y0544658D02*
X0398995Y0544293D01*
X0399293Y0543995D01*
X0399658Y0543785D01*
X0400065Y0543676D01*
X0404400Y0543676D01*
X0404400Y0549400D01*
X0405600Y0549400D01*
X0405600Y0550600D01*
X0404400Y0550600D01*
X0404400Y0556324D01*
X0400065Y0556324D01*
X0399658Y0556215D01*
X0399293Y0556005D01*
X0398995Y0555707D01*
X0398785Y0555342D01*
X0398676Y0554935D01*
X0398676Y0550600D01*
X0404400Y0550600D01*
X0404400Y0549400D01*
X0398676Y0549400D01*
X0398676Y0545065D01*
X0398785Y0544658D01*
X0398676Y0545695D02*
X0241250Y0545695D01*
X0241250Y0546893D02*
X0398676Y0546893D01*
X0398676Y0548092D02*
X0241250Y0548092D01*
X0241250Y0549290D02*
X0398676Y0549290D01*
X0398676Y0551687D02*
X0241250Y0551687D01*
X0241250Y0550489D02*
X0404400Y0550489D01*
X0404400Y0551687D02*
X0405600Y0551687D01*
X0405600Y0550600D02*
X0405600Y0556324D01*
X0409935Y0556324D01*
X0410342Y0556215D01*
X0410707Y0556005D01*
X0411005Y0555707D01*
X0411215Y0555342D01*
X0411324Y0554935D01*
X0411324Y0550600D01*
X0405600Y0550600D01*
X0405600Y0550489D02*
X0428869Y0550489D01*
X0428869Y0551687D02*
X0411324Y0551687D01*
X0411324Y0552886D02*
X0428869Y0552886D01*
X0428869Y0554084D02*
X0411324Y0554084D01*
X0411231Y0555283D02*
X0428869Y0555283D01*
X0428869Y0555307D02*
X0428869Y0544693D01*
X0429693Y0543869D01*
X0440307Y0543869D01*
X0441131Y0544693D01*
X0441131Y0555307D01*
X0440307Y0556131D01*
X0429693Y0556131D01*
X0428869Y0555307D01*
X0428869Y0549290D02*
X0411324Y0549290D01*
X0411324Y0549400D02*
X0411324Y0545065D01*
X0411215Y0544658D01*
X0411005Y0544293D01*
X0410707Y0543995D01*
X0410342Y0543785D01*
X0409935Y0543676D01*
X0405600Y0543676D01*
X0405600Y0549400D01*
X0411324Y0549400D01*
X0411324Y0548092D02*
X0428869Y0548092D01*
X0428869Y0546893D02*
X0411324Y0546893D01*
X0411324Y0545695D02*
X0428869Y0545695D01*
X0429065Y0544496D02*
X0411122Y0544496D01*
X0415000Y0544496D02*
X0395000Y0544496D01*
X0395000Y0543298D02*
X0415000Y0543298D01*
X0415000Y0542099D02*
X0395000Y0542099D01*
X0395000Y0540901D02*
X0415000Y0540901D01*
X0415000Y0540000D02*
X0395000Y0540000D01*
X0395000Y0560000D01*
X0415000Y0560000D01*
X0415000Y0540000D01*
X0415000Y0545695D02*
X0395000Y0545695D01*
X0395000Y0546893D02*
X0415000Y0546893D01*
X0415000Y0548092D02*
X0395000Y0548092D01*
X0395000Y0549290D02*
X0415000Y0549290D01*
X0415000Y0550489D02*
X0395000Y0550489D01*
X0395000Y0551687D02*
X0415000Y0551687D01*
X0415000Y0552886D02*
X0395000Y0552886D01*
X0395000Y0554084D02*
X0415000Y0554084D01*
X0415000Y0555283D02*
X0395000Y0555283D01*
X0395000Y0556481D02*
X0415000Y0556481D01*
X0415000Y0557680D02*
X0395000Y0557680D01*
X0395000Y0558878D02*
X0415000Y0558878D01*
X0405600Y0555283D02*
X0404400Y0555283D01*
X0404400Y0554084D02*
X0405600Y0554084D01*
X0405600Y0552886D02*
X0404400Y0552886D01*
X0404400Y0549290D02*
X0405600Y0549290D01*
X0405600Y0548092D02*
X0404400Y0548092D01*
X0404400Y0546893D02*
X0405600Y0546893D01*
X0405600Y0545695D02*
X0404400Y0545695D01*
X0404400Y0544496D02*
X0405600Y0544496D01*
X0398676Y0552886D02*
X0241250Y0552886D01*
X0241250Y0554084D02*
X0398676Y0554084D01*
X0398769Y0555283D02*
X0241250Y0555283D01*
X0241250Y0542099D02*
X0527006Y0542099D01*
X0526543Y0540901D02*
X0241250Y0540901D01*
X0241250Y0539702D02*
X0526543Y0539702D01*
X0526756Y0538504D02*
X0241250Y0538504D01*
X0241250Y0537305D02*
X0527253Y0537305D01*
X0528393Y0536107D02*
X0333227Y0536107D01*
X0334426Y0534908D02*
X0828750Y0534908D01*
X0828750Y0533710D02*
X0335624Y0533710D01*
X0330400Y0533710D02*
X0329600Y0533710D01*
X0329600Y0534908D02*
X0330400Y0534908D01*
X0330400Y0536107D02*
X0329600Y0536107D01*
X0326773Y0536107D02*
X0241250Y0536107D01*
X0241250Y0534908D02*
X0325574Y0534908D01*
X0324376Y0533710D02*
X0241250Y0533710D01*
X0241250Y0532511D02*
X0323400Y0532511D01*
X0323400Y0531313D02*
X0241250Y0531313D01*
X0267027Y0516931D02*
X0272973Y0516931D01*
X0272504Y0516736D02*
X0271264Y0515496D01*
X0270593Y0513877D01*
X0270593Y0506123D01*
X0271264Y0504504D01*
X0272504Y0503264D01*
X0274123Y0502593D01*
X0275877Y0502593D01*
X0277496Y0503264D01*
X0278736Y0504504D01*
X0279407Y0506123D01*
X0279407Y0513877D01*
X0278736Y0515496D01*
X0277496Y0516736D01*
X0275877Y0517407D01*
X0274123Y0517407D01*
X0272504Y0516736D01*
X0271499Y0515732D02*
X0268501Y0515732D01*
X0269135Y0514534D02*
X0270865Y0514534D01*
X0270593Y0513335D02*
X0269407Y0513335D01*
X0269407Y0512137D02*
X0270593Y0512137D01*
X0270593Y0510938D02*
X0269407Y0510938D01*
X0269407Y0509739D02*
X0270593Y0509739D01*
X0270593Y0508541D02*
X0269407Y0508541D01*
X0269407Y0507342D02*
X0270593Y0507342D01*
X0270593Y0506144D02*
X0269407Y0506144D01*
X0268919Y0504945D02*
X0271081Y0504945D01*
X0272021Y0503747D02*
X0267979Y0503747D01*
X0277979Y0503747D02*
X0282021Y0503747D01*
X0281081Y0504945D02*
X0278919Y0504945D01*
X0279407Y0506144D02*
X0280593Y0506144D01*
X0280593Y0507342D02*
X0279407Y0507342D01*
X0279407Y0508541D02*
X0280593Y0508541D01*
X0280593Y0509739D02*
X0279407Y0509739D01*
X0279407Y0510938D02*
X0280593Y0510938D01*
X0280593Y0512137D02*
X0279407Y0512137D01*
X0279407Y0513335D02*
X0280593Y0513335D01*
X0280865Y0514534D02*
X0279135Y0514534D01*
X0278501Y0515732D02*
X0281499Y0515732D01*
X0282973Y0516931D02*
X0277027Y0516931D01*
X0290130Y0488397D02*
X0289003Y0487270D01*
X0288393Y0485797D01*
X0288393Y0484203D01*
X0289003Y0482730D01*
X0290130Y0481603D01*
X0291603Y0480993D01*
X0298397Y0480993D01*
X0299870Y0481603D01*
X0300997Y0482730D01*
X0301607Y0484203D01*
X0301607Y0485797D01*
X0300997Y0487270D01*
X0299870Y0488397D01*
X0298397Y0489007D01*
X0291603Y0489007D01*
X0290130Y0488397D01*
X0289899Y0488166D02*
X0260101Y0488166D01*
X0261122Y0486968D02*
X0288878Y0486968D01*
X0288393Y0485769D02*
X0261607Y0485769D01*
X0261607Y0484571D02*
X0288393Y0484571D01*
X0288737Y0483372D02*
X0261263Y0483372D01*
X0260441Y0482174D02*
X0289559Y0482174D01*
X0300441Y0482174D02*
X0351593Y0482174D01*
X0351593Y0483372D02*
X0301263Y0483372D01*
X0301607Y0484571D02*
X0351593Y0484571D01*
X0351593Y0485769D02*
X0301607Y0485769D01*
X0301122Y0486968D02*
X0351593Y0486968D01*
X0351593Y0488166D02*
X0300101Y0488166D01*
X0329600Y0531313D02*
X0330400Y0531313D01*
X0330400Y0532511D02*
X0329600Y0532511D01*
X0339594Y0576856D02*
X0562972Y0576856D01*
X0560207Y0578055D02*
X0339947Y0578055D01*
X0265500Y0591238D02*
X0559500Y0591238D01*
X0561265Y0592437D02*
X0263735Y0592437D01*
X0264702Y0592036D02*
X0264702Y0592036D01*
X0241250Y0594834D02*
X0828750Y0594834D01*
X0828750Y0596032D02*
X0241250Y0596032D01*
X0241250Y0597231D02*
X0828750Y0597231D01*
X0828750Y0598429D02*
X0241250Y0598429D01*
X0241250Y0599628D02*
X0828750Y0599628D01*
X0828750Y0600826D02*
X0241250Y0600826D01*
X0241250Y0602025D02*
X0828750Y0602025D01*
X0828750Y0603223D02*
X0241250Y0603223D01*
X0441131Y0555283D02*
X0458869Y0555283D01*
X0458869Y0554084D02*
X0441131Y0554084D01*
X0441131Y0552886D02*
X0458869Y0552886D01*
X0458869Y0551687D02*
X0441131Y0551687D01*
X0441131Y0550489D02*
X0458869Y0550489D01*
X0458869Y0549290D02*
X0441131Y0549290D01*
X0441131Y0548092D02*
X0458869Y0548092D01*
X0458869Y0546893D02*
X0441131Y0546893D01*
X0441131Y0545695D02*
X0458869Y0545695D01*
X0459065Y0544496D02*
X0440935Y0544496D01*
X0567028Y0576856D02*
X0702972Y0576856D01*
X0700298Y0577964D02*
X0700298Y0577964D01*
X0700207Y0578055D02*
X0569793Y0578055D01*
X0570991Y0579253D02*
X0699009Y0579253D01*
X0697964Y0580298D02*
X0697964Y0580298D01*
X0697900Y0580452D02*
X0572100Y0580452D01*
X0572596Y0581650D02*
X0697404Y0581650D01*
X0696907Y0582849D02*
X0573093Y0582849D01*
X0573300Y0584047D02*
X0696700Y0584047D01*
X0696700Y0585246D02*
X0573300Y0585246D01*
X0573300Y0586444D02*
X0696700Y0586444D01*
X0697111Y0587643D02*
X0572889Y0587643D01*
X0572393Y0588841D02*
X0697607Y0588841D01*
X0697964Y0589702D02*
X0697964Y0589702D01*
X0698302Y0590040D02*
X0571698Y0590040D01*
X0570500Y0591238D02*
X0699500Y0591238D01*
X0701265Y0592437D02*
X0568735Y0592437D01*
X0611131Y0555283D02*
X0628869Y0555283D01*
X0628869Y0554084D02*
X0611131Y0554084D01*
X0611131Y0552886D02*
X0628869Y0552886D01*
X0628869Y0551687D02*
X0611131Y0551687D01*
X0611131Y0550489D02*
X0628869Y0550489D01*
X0628869Y0549290D02*
X0611131Y0549290D01*
X0611131Y0548092D02*
X0628869Y0548092D01*
X0628869Y0546893D02*
X0611131Y0546893D01*
X0611131Y0545695D02*
X0628869Y0545695D01*
X0629065Y0544496D02*
X0610935Y0544496D01*
X0679654Y0564871D02*
X0810346Y0564871D01*
X0808172Y0563672D02*
X0681828Y0563672D01*
X0682839Y0562474D02*
X0807161Y0562474D01*
X0806665Y0561275D02*
X0683335Y0561275D01*
X0683457Y0560077D02*
X0806543Y0560077D01*
X0806601Y0558878D02*
X0683399Y0558878D01*
X0682902Y0557680D02*
X0807098Y0557680D01*
X0820025Y0555283D02*
X0828750Y0555283D01*
X0828750Y0556481D02*
X0821981Y0556481D01*
X0822902Y0557680D02*
X0828750Y0557680D01*
X0828750Y0558878D02*
X0823399Y0558878D01*
X0823457Y0560077D02*
X0828750Y0560077D01*
X0828750Y0561275D02*
X0823335Y0561275D01*
X0822839Y0562474D02*
X0828750Y0562474D01*
X0828750Y0563672D02*
X0821828Y0563672D01*
X0819654Y0564871D02*
X0828750Y0564871D01*
X0828750Y0544496D02*
X0820558Y0544496D01*
X0822202Y0543298D02*
X0828750Y0543298D01*
X0828750Y0542099D02*
X0822994Y0542099D01*
X0823457Y0540901D02*
X0828750Y0540901D01*
X0828750Y0539702D02*
X0823457Y0539702D01*
X0823244Y0538504D02*
X0828750Y0538504D01*
X0828750Y0537305D02*
X0822747Y0537305D01*
X0821607Y0536107D02*
X0828750Y0536107D01*
X0769065Y0544496D02*
X0750935Y0544496D01*
X0751131Y0545695D02*
X0768869Y0545695D01*
X0768869Y0546893D02*
X0751131Y0546893D01*
X0751131Y0548092D02*
X0768869Y0548092D01*
X0768869Y0549290D02*
X0751131Y0549290D01*
X0751131Y0550489D02*
X0768869Y0550489D01*
X0768869Y0551687D02*
X0751131Y0551687D01*
X0751131Y0552886D02*
X0768869Y0552886D01*
X0768869Y0554084D02*
X0751131Y0554084D01*
X0751131Y0555283D02*
X0768869Y0555283D01*
X0817682Y0462998D02*
X0828750Y0462998D01*
X0828750Y0461799D02*
X0818881Y0461799D01*
X0819900Y0460601D02*
X0828750Y0460601D01*
X0828750Y0459402D02*
X0819900Y0459402D01*
X0819900Y0458203D02*
X0828750Y0458203D01*
X0828750Y0457005D02*
X0819900Y0457005D01*
X0818986Y0455806D02*
X0828750Y0455806D01*
X0828750Y0454608D02*
X0817788Y0454608D01*
X0812355Y0433035D02*
X0337645Y0433035D01*
X0338843Y0431836D02*
X0811157Y0431836D01*
X0810100Y0430638D02*
X0339900Y0430638D01*
X0339900Y0429439D02*
X0810100Y0429439D01*
X0810100Y0428241D02*
X0339900Y0428241D01*
X0339900Y0427042D02*
X0810100Y0427042D01*
X0810977Y0425844D02*
X0339023Y0425844D01*
X0337825Y0424645D02*
X0812175Y0424645D01*
X0819023Y0425844D02*
X0828750Y0425844D01*
X0828750Y0427042D02*
X0819900Y0427042D01*
X0819900Y0428241D02*
X0828750Y0428241D01*
X0828750Y0429439D02*
X0819900Y0429439D01*
X0819900Y0430638D02*
X0828750Y0430638D01*
X0828750Y0431836D02*
X0818843Y0431836D01*
X0812832Y0409065D02*
X0677168Y0409065D01*
X0676825Y0409407D02*
X0673175Y0409407D01*
X0670593Y0406825D01*
X0670593Y0403175D01*
X0673175Y0400593D01*
X0676825Y0400593D01*
X0679407Y0403175D01*
X0679407Y0406825D01*
X0676825Y0409407D01*
X0678367Y0407866D02*
X0811633Y0407866D01*
X0810593Y0406668D02*
X0679407Y0406668D01*
X0679407Y0405469D02*
X0810593Y0405469D01*
X0810593Y0404270D02*
X0679407Y0404270D01*
X0679305Y0403072D02*
X0810695Y0403072D01*
X0811894Y0401873D02*
X0678106Y0401873D01*
X0676908Y0400675D02*
X0813092Y0400675D01*
X0673092Y0400675D02*
X0536908Y0400675D01*
X0538106Y0401873D02*
X0671894Y0401873D01*
X0670695Y0403072D02*
X0539305Y0403072D01*
X0539407Y0404270D02*
X0670593Y0404270D01*
X0670593Y0405469D02*
X0539407Y0405469D01*
X0539407Y0406668D02*
X0670593Y0406668D01*
X0671633Y0407866D02*
X0538367Y0407866D01*
X0537168Y0409065D02*
X0672832Y0409065D01*
X0583750Y0343146D02*
X0565000Y0343146D01*
X0565000Y0341948D02*
X0583750Y0341948D01*
X0583750Y0340749D02*
X0565000Y0340749D01*
X0574400Y0343146D02*
X0575600Y0343146D01*
X0575600Y0344345D02*
X0574400Y0344345D01*
X0574400Y0345543D02*
X0575600Y0345543D01*
X0575600Y0346742D02*
X0574400Y0346742D01*
X0574400Y0347940D02*
X0575600Y0347940D01*
X0575600Y0351536D02*
X0574400Y0351536D01*
X0574400Y0352734D02*
X0575600Y0352734D01*
X0575600Y0353933D02*
X0574400Y0353933D01*
X0574400Y0355132D02*
X0575600Y0355132D01*
X0575600Y0356330D02*
X0574400Y0356330D01*
X0574400Y0357529D02*
X0575600Y0357529D01*
X0532944Y0319176D02*
X0261368Y0319176D01*
X0262567Y0317978D02*
X0531745Y0317978D01*
X0530593Y0314382D02*
X0426719Y0314382D01*
X0427850Y0313184D02*
X0530593Y0313184D01*
X0531782Y0311985D02*
X0427850Y0311985D01*
X0427850Y0310787D02*
X0532981Y0310787D01*
X0528141Y0276030D02*
X0526859Y0276030D01*
X0525660Y0274831D02*
X0529340Y0274831D01*
X0530538Y0273633D02*
X0524461Y0273633D01*
X0523263Y0272434D02*
X0531737Y0272434D01*
X0538263Y0272434D02*
X0596737Y0272434D01*
X0595538Y0273633D02*
X0539461Y0273633D01*
X0540660Y0274831D02*
X0594340Y0274831D01*
X0603263Y0272434D02*
X0611737Y0272434D01*
X0610538Y0273633D02*
X0604461Y0273633D01*
X0605660Y0274831D02*
X0609340Y0274831D01*
X0608141Y0276030D02*
X0606859Y0276030D01*
X0618263Y0272434D02*
X0626737Y0272434D01*
X0625538Y0273633D02*
X0619461Y0273633D01*
X0620660Y0274831D02*
X0624340Y0274831D01*
X0623141Y0276030D02*
X0621859Y0276030D01*
X0633263Y0272434D02*
X0641737Y0272434D01*
X0640538Y0273633D02*
X0634461Y0273633D01*
X0635660Y0274831D02*
X0639340Y0274831D01*
X0638141Y0276030D02*
X0636859Y0276030D01*
X0648263Y0272434D02*
X0656737Y0272434D01*
X0655538Y0273633D02*
X0649461Y0273633D01*
X0650660Y0274831D02*
X0654340Y0274831D01*
X0653141Y0276030D02*
X0651859Y0276030D01*
X0516737Y0272434D02*
X0508263Y0272434D01*
X0509461Y0273633D02*
X0515538Y0273633D01*
X0514340Y0274831D02*
X0510660Y0274831D01*
X0511859Y0276030D02*
X0513141Y0276030D01*
X0501737Y0272434D02*
X0493263Y0272434D01*
X0494461Y0273633D02*
X0500538Y0273633D01*
X0499340Y0274831D02*
X0495660Y0274831D01*
X0496859Y0276030D02*
X0498141Y0276030D01*
X0486737Y0272434D02*
X0478263Y0272434D01*
X0479461Y0273633D02*
X0485538Y0273633D01*
X0484340Y0274831D02*
X0480660Y0274831D01*
X0481859Y0276030D02*
X0483141Y0276030D01*
X0471737Y0272434D02*
X0463263Y0272434D01*
X0464461Y0273633D02*
X0470538Y0273633D01*
X0469340Y0274831D02*
X0465660Y0274831D01*
X0466859Y0276030D02*
X0468141Y0276030D01*
X0456737Y0272434D02*
X0423536Y0272434D01*
X0424734Y0273633D02*
X0455538Y0273633D01*
X0454340Y0274831D02*
X0425933Y0274831D01*
X0427131Y0276030D02*
X0453141Y0276030D01*
X0452343Y0277228D02*
X0427850Y0277228D01*
X0430000Y0277228D02*
X0305000Y0277228D01*
X0305000Y0276030D02*
X0430000Y0276030D01*
X0430000Y0274831D02*
X0305000Y0274831D01*
X0305000Y0273633D02*
X0430000Y0273633D01*
X0430000Y0272434D02*
X0305000Y0272434D01*
X0305000Y0271236D02*
X0430000Y0271236D01*
X0430000Y0270037D02*
X0305000Y0270037D01*
X0309067Y0274831D02*
X0241250Y0274831D01*
X0241250Y0273633D02*
X0310266Y0273633D01*
X0311464Y0272434D02*
X0241250Y0272434D01*
X0261743Y0301199D02*
X0310097Y0301199D01*
X0311295Y0302397D02*
X0262823Y0302397D01*
X0263320Y0303596D02*
X0310303Y0303596D01*
X0309104Y0304794D02*
X0263494Y0304794D01*
X0263490Y0305993D02*
X0307906Y0305993D01*
X0307150Y0307191D02*
X0262994Y0307191D01*
X0262155Y0308390D02*
X0307150Y0308390D01*
X0307150Y0310787D02*
X0261307Y0310787D01*
X0260403Y0309588D02*
X0314400Y0309588D01*
X0314400Y0308390D02*
X0315600Y0308390D01*
X0315600Y0309588D02*
X0329400Y0309588D01*
X0329400Y0308390D02*
X0330600Y0308390D01*
X0330600Y0309588D02*
X0344400Y0309588D01*
X0344400Y0308390D02*
X0345600Y0308390D01*
X0345600Y0309588D02*
X0359400Y0309588D01*
X0359400Y0308390D02*
X0360600Y0308390D01*
X0360600Y0309588D02*
X0374400Y0309588D01*
X0374400Y0308390D02*
X0375600Y0308390D01*
X0375600Y0309588D02*
X0389400Y0309588D01*
X0389400Y0308390D02*
X0390600Y0308390D01*
X0390600Y0309588D02*
X0404400Y0309588D01*
X0404400Y0308390D02*
X0405600Y0308390D01*
X0405600Y0309588D02*
X0419400Y0309588D01*
X0419400Y0308390D02*
X0420600Y0308390D01*
X0420600Y0307191D02*
X0419400Y0307191D01*
X0419400Y0305993D02*
X0420600Y0305993D01*
X0420600Y0304794D02*
X0419400Y0304794D01*
X0419400Y0303596D02*
X0420600Y0303596D01*
X0420600Y0302397D02*
X0419400Y0302397D01*
X0419400Y0301199D02*
X0420600Y0301199D01*
X0420600Y0300000D02*
X0419400Y0300000D01*
X0419400Y0298801D02*
X0420600Y0298801D01*
X0420600Y0297603D02*
X0419400Y0297603D01*
X0419400Y0294007D02*
X0420600Y0294007D01*
X0420600Y0292809D02*
X0419400Y0292809D01*
X0419400Y0291610D02*
X0420600Y0291610D01*
X0420600Y0290412D02*
X0419400Y0290412D01*
X0419400Y0289213D02*
X0420600Y0289213D01*
X0420600Y0288015D02*
X0419400Y0288015D01*
X0419400Y0286816D02*
X0420600Y0286816D01*
X0420600Y0285618D02*
X0419400Y0285618D01*
X0419400Y0284419D02*
X0420600Y0284419D01*
X0420600Y0283221D02*
X0419400Y0283221D01*
X0419400Y0282022D02*
X0420600Y0282022D01*
X0420600Y0280824D02*
X0419400Y0280824D01*
X0419400Y0277228D02*
X0420600Y0277228D01*
X0420600Y0276030D02*
X0419400Y0276030D01*
X0419400Y0274831D02*
X0420600Y0274831D01*
X0420600Y0273633D02*
X0419400Y0273633D01*
X0419400Y0272434D02*
X0420600Y0272434D01*
X0416464Y0272434D02*
X0408536Y0272434D01*
X0409734Y0273633D02*
X0415266Y0273633D01*
X0414067Y0274831D02*
X0410933Y0274831D01*
X0412131Y0276030D02*
X0412869Y0276030D01*
X0405600Y0276030D02*
X0404400Y0276030D01*
X0404400Y0277228D02*
X0405600Y0277228D01*
X0405600Y0274831D02*
X0404400Y0274831D01*
X0404400Y0273633D02*
X0405600Y0273633D01*
X0405600Y0272434D02*
X0404400Y0272434D01*
X0401464Y0272434D02*
X0393536Y0272434D01*
X0394734Y0273633D02*
X0400266Y0273633D01*
X0399067Y0274831D02*
X0395933Y0274831D01*
X0397131Y0276030D02*
X0397869Y0276030D01*
X0390600Y0276030D02*
X0389400Y0276030D01*
X0389400Y0277228D02*
X0390600Y0277228D01*
X0390600Y0274831D02*
X0389400Y0274831D01*
X0389400Y0273633D02*
X0390600Y0273633D01*
X0390600Y0272434D02*
X0389400Y0272434D01*
X0386464Y0272434D02*
X0378536Y0272434D01*
X0379734Y0273633D02*
X0385266Y0273633D01*
X0384067Y0274831D02*
X0380933Y0274831D01*
X0382131Y0276030D02*
X0382869Y0276030D01*
X0375600Y0276030D02*
X0374400Y0276030D01*
X0374400Y0277228D02*
X0375600Y0277228D01*
X0375600Y0274831D02*
X0374400Y0274831D01*
X0374400Y0273633D02*
X0375600Y0273633D01*
X0375600Y0272434D02*
X0374400Y0272434D01*
X0371464Y0272434D02*
X0363536Y0272434D01*
X0364734Y0273633D02*
X0370266Y0273633D01*
X0369067Y0274831D02*
X0365933Y0274831D01*
X0367131Y0276030D02*
X0367869Y0276030D01*
X0360600Y0276030D02*
X0359400Y0276030D01*
X0359400Y0277228D02*
X0360600Y0277228D01*
X0360600Y0274831D02*
X0359400Y0274831D01*
X0359400Y0273633D02*
X0360600Y0273633D01*
X0360600Y0272434D02*
X0359400Y0272434D01*
X0356464Y0272434D02*
X0348536Y0272434D01*
X0349734Y0273633D02*
X0355266Y0273633D01*
X0354067Y0274831D02*
X0350933Y0274831D01*
X0352131Y0276030D02*
X0352869Y0276030D01*
X0345600Y0276030D02*
X0344400Y0276030D01*
X0344400Y0277228D02*
X0345600Y0277228D01*
X0345600Y0274831D02*
X0344400Y0274831D01*
X0344400Y0273633D02*
X0345600Y0273633D01*
X0345600Y0272434D02*
X0344400Y0272434D01*
X0341464Y0272434D02*
X0333536Y0272434D01*
X0334734Y0273633D02*
X0340266Y0273633D01*
X0339067Y0274831D02*
X0335933Y0274831D01*
X0337131Y0276030D02*
X0337869Y0276030D01*
X0330600Y0276030D02*
X0329400Y0276030D01*
X0329400Y0277228D02*
X0330600Y0277228D01*
X0330600Y0274831D02*
X0329400Y0274831D01*
X0329400Y0273633D02*
X0330600Y0273633D01*
X0330600Y0272434D02*
X0329400Y0272434D01*
X0326464Y0272434D02*
X0318536Y0272434D01*
X0319734Y0273633D02*
X0325266Y0273633D01*
X0324067Y0274831D02*
X0320933Y0274831D01*
X0322131Y0276030D02*
X0322869Y0276030D01*
X0315600Y0276030D02*
X0314400Y0276030D01*
X0314400Y0277228D02*
X0315600Y0277228D01*
X0315600Y0274831D02*
X0314400Y0274831D01*
X0314400Y0273633D02*
X0315600Y0273633D01*
X0315600Y0272434D02*
X0314400Y0272434D01*
X0314400Y0280824D02*
X0315600Y0280824D01*
X0315600Y0282022D02*
X0314400Y0282022D01*
X0314400Y0283221D02*
X0315600Y0283221D01*
X0315600Y0284419D02*
X0314400Y0284419D01*
X0314400Y0285618D02*
X0315600Y0285618D01*
X0315600Y0286816D02*
X0314400Y0286816D01*
X0314400Y0288015D02*
X0315600Y0288015D01*
X0315600Y0289213D02*
X0314400Y0289213D01*
X0314400Y0290412D02*
X0315600Y0290412D01*
X0315600Y0291610D02*
X0314400Y0291610D01*
X0314400Y0292809D02*
X0315600Y0292809D01*
X0315600Y0294007D02*
X0314400Y0294007D01*
X0314400Y0297603D02*
X0315600Y0297603D01*
X0315600Y0298801D02*
X0314400Y0298801D01*
X0314400Y0300000D02*
X0315600Y0300000D01*
X0315600Y0301199D02*
X0314400Y0301199D01*
X0314400Y0302397D02*
X0315600Y0302397D01*
X0315600Y0303596D02*
X0314400Y0303596D01*
X0314400Y0304794D02*
X0315600Y0304794D01*
X0315600Y0305993D02*
X0314400Y0305993D01*
X0314400Y0307191D02*
X0315600Y0307191D01*
X0315600Y0310787D02*
X0314400Y0310787D01*
X0314400Y0311985D02*
X0315600Y0311985D01*
X0315600Y0313184D02*
X0314400Y0313184D01*
X0314400Y0314382D02*
X0315600Y0314382D01*
X0315600Y0315581D02*
X0314400Y0315581D01*
X0314400Y0316779D02*
X0315600Y0316779D01*
X0319322Y0316779D02*
X0325678Y0316779D01*
X0324479Y0315581D02*
X0320521Y0315581D01*
X0321719Y0314382D02*
X0323281Y0314382D01*
X0329400Y0314382D02*
X0330600Y0314382D01*
X0330600Y0313184D02*
X0329400Y0313184D01*
X0329400Y0311985D02*
X0330600Y0311985D01*
X0330600Y0310787D02*
X0329400Y0310787D01*
X0329400Y0307191D02*
X0330600Y0307191D01*
X0330600Y0305993D02*
X0329400Y0305993D01*
X0329400Y0304794D02*
X0330600Y0304794D01*
X0330600Y0303596D02*
X0329400Y0303596D01*
X0329400Y0302397D02*
X0330600Y0302397D01*
X0330600Y0301199D02*
X0329400Y0301199D01*
X0329400Y0300000D02*
X0330600Y0300000D01*
X0330600Y0298801D02*
X0329400Y0298801D01*
X0329400Y0297603D02*
X0330600Y0297603D01*
X0330600Y0294007D02*
X0329400Y0294007D01*
X0329400Y0292809D02*
X0330600Y0292809D01*
X0330600Y0291610D02*
X0329400Y0291610D01*
X0329400Y0290412D02*
X0330600Y0290412D01*
X0330600Y0289213D02*
X0329400Y0289213D01*
X0329400Y0288015D02*
X0330600Y0288015D01*
X0330600Y0286816D02*
X0329400Y0286816D01*
X0329400Y0285618D02*
X0330600Y0285618D01*
X0330600Y0284419D02*
X0329400Y0284419D01*
X0329400Y0283221D02*
X0330600Y0283221D01*
X0330600Y0282022D02*
X0329400Y0282022D01*
X0329400Y0280824D02*
X0330600Y0280824D01*
X0344400Y0280824D02*
X0345600Y0280824D01*
X0345600Y0282022D02*
X0344400Y0282022D01*
X0344400Y0283221D02*
X0345600Y0283221D01*
X0345600Y0284419D02*
X0344400Y0284419D01*
X0344400Y0285618D02*
X0345600Y0285618D01*
X0345600Y0286816D02*
X0344400Y0286816D01*
X0344400Y0288015D02*
X0345600Y0288015D01*
X0345600Y0289213D02*
X0344400Y0289213D01*
X0344400Y0290412D02*
X0345600Y0290412D01*
X0345600Y0291610D02*
X0344400Y0291610D01*
X0344400Y0292809D02*
X0345600Y0292809D01*
X0345600Y0294007D02*
X0344400Y0294007D01*
X0344400Y0297603D02*
X0345600Y0297603D01*
X0345600Y0298801D02*
X0344400Y0298801D01*
X0344400Y0300000D02*
X0345600Y0300000D01*
X0345600Y0301199D02*
X0344400Y0301199D01*
X0344400Y0302397D02*
X0345600Y0302397D01*
X0345600Y0303596D02*
X0344400Y0303596D01*
X0344400Y0304794D02*
X0345600Y0304794D01*
X0345600Y0305993D02*
X0344400Y0305993D01*
X0344400Y0307191D02*
X0345600Y0307191D01*
X0345600Y0310787D02*
X0344400Y0310787D01*
X0344400Y0311985D02*
X0345600Y0311985D01*
X0345600Y0313184D02*
X0344400Y0313184D01*
X0344400Y0314382D02*
X0345600Y0314382D01*
X0345600Y0315581D02*
X0344400Y0315581D01*
X0344400Y0316779D02*
X0345600Y0316779D01*
X0349322Y0316779D02*
X0355678Y0316779D01*
X0354479Y0315581D02*
X0350521Y0315581D01*
X0351719Y0314382D02*
X0353281Y0314382D01*
X0359400Y0314382D02*
X0360600Y0314382D01*
X0360600Y0313184D02*
X0359400Y0313184D01*
X0359400Y0311985D02*
X0360600Y0311985D01*
X0360600Y0310787D02*
X0359400Y0310787D01*
X0359400Y0307191D02*
X0360600Y0307191D01*
X0360600Y0305993D02*
X0359400Y0305993D01*
X0359400Y0304794D02*
X0360600Y0304794D01*
X0360600Y0303596D02*
X0359400Y0303596D01*
X0359400Y0302397D02*
X0360600Y0302397D01*
X0360600Y0301199D02*
X0359400Y0301199D01*
X0359400Y0300000D02*
X0360600Y0300000D01*
X0360600Y0298801D02*
X0359400Y0298801D01*
X0359400Y0297603D02*
X0360600Y0297603D01*
X0360600Y0294007D02*
X0359400Y0294007D01*
X0359400Y0292809D02*
X0360600Y0292809D01*
X0360600Y0291610D02*
X0359400Y0291610D01*
X0359400Y0290412D02*
X0360600Y0290412D01*
X0360600Y0289213D02*
X0359400Y0289213D01*
X0359400Y0288015D02*
X0360600Y0288015D01*
X0360600Y0286816D02*
X0359400Y0286816D01*
X0359400Y0285618D02*
X0360600Y0285618D01*
X0360600Y0284419D02*
X0359400Y0284419D01*
X0359400Y0283221D02*
X0360600Y0283221D01*
X0360600Y0282022D02*
X0359400Y0282022D01*
X0359400Y0280824D02*
X0360600Y0280824D01*
X0374400Y0280824D02*
X0375600Y0280824D01*
X0375600Y0282022D02*
X0374400Y0282022D01*
X0374400Y0283221D02*
X0375600Y0283221D01*
X0375600Y0284419D02*
X0374400Y0284419D01*
X0374400Y0285618D02*
X0375600Y0285618D01*
X0375600Y0286816D02*
X0374400Y0286816D01*
X0374400Y0288015D02*
X0375600Y0288015D01*
X0375600Y0289213D02*
X0374400Y0289213D01*
X0374400Y0290412D02*
X0375600Y0290412D01*
X0375600Y0291610D02*
X0374400Y0291610D01*
X0374400Y0292809D02*
X0375600Y0292809D01*
X0375600Y0294007D02*
X0374400Y0294007D01*
X0374400Y0297603D02*
X0375600Y0297603D01*
X0375600Y0298801D02*
X0374400Y0298801D01*
X0374400Y0300000D02*
X0375600Y0300000D01*
X0375600Y0301199D02*
X0374400Y0301199D01*
X0374400Y0302397D02*
X0375600Y0302397D01*
X0375600Y0303596D02*
X0374400Y0303596D01*
X0374400Y0304794D02*
X0375600Y0304794D01*
X0375600Y0305993D02*
X0374400Y0305993D01*
X0374400Y0307191D02*
X0375600Y0307191D01*
X0375600Y0310787D02*
X0374400Y0310787D01*
X0374400Y0311985D02*
X0375600Y0311985D01*
X0375600Y0313184D02*
X0374400Y0313184D01*
X0374400Y0314382D02*
X0375600Y0314382D01*
X0375600Y0315581D02*
X0374400Y0315581D01*
X0374400Y0316779D02*
X0375600Y0316779D01*
X0379322Y0316779D02*
X0385678Y0316779D01*
X0384479Y0315581D02*
X0380521Y0315581D01*
X0381719Y0314382D02*
X0383281Y0314382D01*
X0389400Y0314382D02*
X0390600Y0314382D01*
X0390600Y0313184D02*
X0389400Y0313184D01*
X0389400Y0311985D02*
X0390600Y0311985D01*
X0390600Y0310787D02*
X0389400Y0310787D01*
X0389400Y0307191D02*
X0390600Y0307191D01*
X0390600Y0305993D02*
X0389400Y0305993D01*
X0389400Y0304794D02*
X0390600Y0304794D01*
X0390600Y0303596D02*
X0389400Y0303596D01*
X0389400Y0302397D02*
X0390600Y0302397D01*
X0390600Y0301199D02*
X0389400Y0301199D01*
X0389400Y0300000D02*
X0390600Y0300000D01*
X0390600Y0298801D02*
X0389400Y0298801D01*
X0389400Y0297603D02*
X0390600Y0297603D01*
X0390600Y0294007D02*
X0389400Y0294007D01*
X0389400Y0292809D02*
X0390600Y0292809D01*
X0390600Y0291610D02*
X0389400Y0291610D01*
X0389400Y0290412D02*
X0390600Y0290412D01*
X0390600Y0289213D02*
X0389400Y0289213D01*
X0389400Y0288015D02*
X0390600Y0288015D01*
X0390600Y0286816D02*
X0389400Y0286816D01*
X0389400Y0285618D02*
X0390600Y0285618D01*
X0390600Y0284419D02*
X0389400Y0284419D01*
X0389400Y0283221D02*
X0390600Y0283221D01*
X0390600Y0282022D02*
X0389400Y0282022D01*
X0389400Y0280824D02*
X0390600Y0280824D01*
X0404400Y0280824D02*
X0405600Y0280824D01*
X0405600Y0282022D02*
X0404400Y0282022D01*
X0404400Y0283221D02*
X0405600Y0283221D01*
X0405600Y0284419D02*
X0404400Y0284419D01*
X0404400Y0285618D02*
X0405600Y0285618D01*
X0405600Y0286816D02*
X0404400Y0286816D01*
X0404400Y0288015D02*
X0405600Y0288015D01*
X0405600Y0289213D02*
X0404400Y0289213D01*
X0404400Y0290412D02*
X0405600Y0290412D01*
X0405600Y0291610D02*
X0404400Y0291610D01*
X0404400Y0292809D02*
X0405600Y0292809D01*
X0405600Y0294007D02*
X0404400Y0294007D01*
X0404400Y0297603D02*
X0405600Y0297603D01*
X0405600Y0298801D02*
X0404400Y0298801D01*
X0404400Y0300000D02*
X0405600Y0300000D01*
X0405600Y0301199D02*
X0404400Y0301199D01*
X0404400Y0302397D02*
X0405600Y0302397D01*
X0405600Y0303596D02*
X0404400Y0303596D01*
X0404400Y0304794D02*
X0405600Y0304794D01*
X0405600Y0305993D02*
X0404400Y0305993D01*
X0404400Y0307191D02*
X0405600Y0307191D01*
X0405600Y0310787D02*
X0404400Y0310787D01*
X0404400Y0311985D02*
X0405600Y0311985D01*
X0405600Y0313184D02*
X0404400Y0313184D01*
X0404400Y0314382D02*
X0405600Y0314382D01*
X0405600Y0315581D02*
X0404400Y0315581D01*
X0404400Y0316779D02*
X0405600Y0316779D01*
X0409322Y0316779D02*
X0415678Y0316779D01*
X0414479Y0315581D02*
X0410521Y0315581D01*
X0411719Y0314382D02*
X0413281Y0314382D01*
X0400678Y0316779D02*
X0394322Y0316779D01*
X0395521Y0315581D02*
X0399479Y0315581D01*
X0398281Y0314382D02*
X0396719Y0314382D01*
X0390600Y0315581D02*
X0389400Y0315581D01*
X0389400Y0316779D02*
X0390600Y0316779D01*
X0370678Y0316779D02*
X0364322Y0316779D01*
X0365521Y0315581D02*
X0369479Y0315581D01*
X0368281Y0314382D02*
X0366719Y0314382D01*
X0360600Y0315581D02*
X0359400Y0315581D01*
X0359400Y0316779D02*
X0360600Y0316779D01*
X0340678Y0316779D02*
X0334322Y0316779D01*
X0335521Y0315581D02*
X0339479Y0315581D01*
X0338281Y0314382D02*
X0336719Y0314382D01*
X0330600Y0315581D02*
X0329400Y0315581D01*
X0329400Y0316779D02*
X0330600Y0316779D01*
X0310678Y0316779D02*
X0263165Y0316779D01*
X0263494Y0315581D02*
X0309479Y0315581D01*
X0308281Y0314382D02*
X0263494Y0314382D01*
X0263149Y0313184D02*
X0307150Y0313184D01*
X0307150Y0311985D02*
X0262529Y0311985D01*
X0313776Y0373109D02*
X0332442Y0373109D01*
X0332628Y0376705D02*
X0313962Y0376705D01*
X0312764Y0377903D02*
X0331430Y0377903D01*
X0331055Y0398278D02*
X0313945Y0398278D01*
X0314007Y0399476D02*
X0330993Y0399476D01*
X0330993Y0400675D02*
X0314007Y0400675D01*
X0313793Y0401873D02*
X0331207Y0401873D01*
X0332405Y0403072D02*
X0312595Y0403072D01*
X0300993Y0421050D02*
X0274979Y0421050D01*
X0276481Y0422248D02*
X0300993Y0422248D01*
X0300993Y0423447D02*
X0277127Y0423447D01*
X0277407Y0424645D02*
X0301478Y0424645D01*
X0302677Y0425844D02*
X0277407Y0425844D01*
X0276924Y0427042D02*
X0330100Y0427042D01*
X0330977Y0425844D02*
X0307323Y0425844D01*
D25*
X0320000Y0570000D02*
X0320000Y0590000D01*
X0345000Y0590000D01*
X0345000Y0570000D01*
X0320000Y0570000D01*
X0320000Y0570148D02*
X0345000Y0570148D01*
X0345000Y0571747D02*
X0320000Y0571747D01*
X0320000Y0573345D02*
X0345000Y0573345D01*
X0345000Y0574944D02*
X0320000Y0574944D01*
X0320000Y0576542D02*
X0345000Y0576542D01*
X0345000Y0578141D02*
X0320000Y0578141D01*
X0320000Y0579739D02*
X0345000Y0579739D01*
X0345000Y0581338D02*
X0320000Y0581338D01*
X0320000Y0582937D02*
X0345000Y0582937D01*
X0345000Y0584535D02*
X0320000Y0584535D01*
X0320000Y0586134D02*
X0345000Y0586134D01*
X0345000Y0587732D02*
X0320000Y0587732D01*
X0320000Y0589331D02*
X0345000Y0589331D01*
D26*
X0355000Y0530000D03*
X0355000Y0450000D03*
D27*
X0355000Y0530000D01*
M02*
