G75*
%MOIN*%
%OFA0B0*%
%FSLAX25Y25*%
%IPPOS*%
%LPD*%
%AMOC8*
5,1,8,0,0,1.08239X$1,22.5*
%
%ADD10C,0.00000*%
%ADD11C,0.00100*%
%ADD12C,0.00600*%
%ADD13C,0.00400*%
%ADD14R,0.00787X0.00787*%
%ADD15R,0.00984X0.00591*%
D10*
X0006500Y0005500D02*
X0006500Y0107500D01*
X0084500Y0107500D01*
X0084500Y0005500D01*
X0006500Y0005500D01*
D11*
X0015053Y0007050D02*
X0015053Y0007950D01*
X0015303Y0007950D01*
X0015333Y0007948D01*
X0015363Y0007943D01*
X0015392Y0007934D01*
X0015419Y0007921D01*
X0015445Y0007906D01*
X0015469Y0007887D01*
X0015490Y0007866D01*
X0015509Y0007842D01*
X0015524Y0007816D01*
X0015537Y0007789D01*
X0015546Y0007760D01*
X0015551Y0007730D01*
X0015553Y0007700D01*
X0015551Y0007670D01*
X0015546Y0007640D01*
X0015537Y0007611D01*
X0015524Y0007584D01*
X0015509Y0007558D01*
X0015490Y0007534D01*
X0015469Y0007513D01*
X0015445Y0007494D01*
X0015419Y0007479D01*
X0015392Y0007466D01*
X0015363Y0007457D01*
X0015333Y0007452D01*
X0015303Y0007450D01*
X0015053Y0007450D01*
X0015353Y0007450D02*
X0015553Y0007050D01*
X0015947Y0007050D02*
X0016247Y0007050D01*
X0016273Y0007052D01*
X0016299Y0007057D01*
X0016324Y0007065D01*
X0016347Y0007077D01*
X0016369Y0007091D01*
X0016388Y0007109D01*
X0016406Y0007128D01*
X0016420Y0007150D01*
X0016432Y0007173D01*
X0016440Y0007198D01*
X0016445Y0007224D01*
X0016447Y0007250D01*
X0016447Y0007350D01*
X0016445Y0007376D01*
X0016440Y0007402D01*
X0016432Y0007427D01*
X0016420Y0007450D01*
X0016406Y0007472D01*
X0016388Y0007491D01*
X0016369Y0007509D01*
X0016347Y0007523D01*
X0016324Y0007535D01*
X0016299Y0007543D01*
X0016273Y0007548D01*
X0016247Y0007550D01*
X0015947Y0007550D01*
X0015947Y0007950D01*
X0016447Y0007950D01*
X0025053Y0007950D02*
X0025053Y0007050D01*
X0025053Y0007450D02*
X0025303Y0007450D01*
X0025353Y0007450D02*
X0025553Y0007050D01*
X0025947Y0007250D02*
X0026447Y0007250D01*
X0026297Y0007450D02*
X0026297Y0007050D01*
X0025947Y0007250D02*
X0026147Y0007950D01*
X0025303Y0007950D02*
X0025053Y0007950D01*
X0025303Y0007950D02*
X0025333Y0007948D01*
X0025363Y0007943D01*
X0025392Y0007934D01*
X0025419Y0007921D01*
X0025445Y0007906D01*
X0025469Y0007887D01*
X0025490Y0007866D01*
X0025509Y0007842D01*
X0025524Y0007816D01*
X0025537Y0007789D01*
X0025546Y0007760D01*
X0025551Y0007730D01*
X0025553Y0007700D01*
X0025551Y0007670D01*
X0025546Y0007640D01*
X0025537Y0007611D01*
X0025524Y0007584D01*
X0025509Y0007558D01*
X0025490Y0007534D01*
X0025469Y0007513D01*
X0025445Y0007494D01*
X0025419Y0007479D01*
X0025392Y0007466D01*
X0025363Y0007457D01*
X0025333Y0007452D01*
X0025303Y0007450D01*
X0036053Y0007450D02*
X0036303Y0007450D01*
X0036353Y0007450D02*
X0036553Y0007050D01*
X0036947Y0007300D02*
X0036947Y0007550D01*
X0037247Y0007550D01*
X0036947Y0007550D02*
X0036949Y0007589D01*
X0036955Y0007628D01*
X0036964Y0007666D01*
X0036977Y0007703D01*
X0036994Y0007739D01*
X0037014Y0007772D01*
X0037038Y0007804D01*
X0037064Y0007833D01*
X0037093Y0007859D01*
X0037125Y0007883D01*
X0037158Y0007903D01*
X0037194Y0007920D01*
X0037231Y0007933D01*
X0037269Y0007942D01*
X0037308Y0007948D01*
X0037347Y0007950D01*
X0037447Y0007350D02*
X0037447Y0007300D01*
X0037447Y0007350D02*
X0037445Y0007376D01*
X0037440Y0007402D01*
X0037432Y0007427D01*
X0037420Y0007450D01*
X0037406Y0007472D01*
X0037388Y0007491D01*
X0037369Y0007509D01*
X0037347Y0007523D01*
X0037324Y0007535D01*
X0037299Y0007543D01*
X0037273Y0007548D01*
X0037247Y0007550D01*
X0037447Y0007300D02*
X0037445Y0007270D01*
X0037440Y0007240D01*
X0037431Y0007211D01*
X0037418Y0007184D01*
X0037403Y0007158D01*
X0037384Y0007134D01*
X0037363Y0007113D01*
X0037339Y0007094D01*
X0037313Y0007079D01*
X0037286Y0007066D01*
X0037257Y0007057D01*
X0037227Y0007052D01*
X0037197Y0007050D01*
X0037167Y0007052D01*
X0037137Y0007057D01*
X0037108Y0007066D01*
X0037081Y0007079D01*
X0037055Y0007094D01*
X0037031Y0007113D01*
X0037010Y0007134D01*
X0036991Y0007158D01*
X0036976Y0007184D01*
X0036963Y0007211D01*
X0036954Y0007240D01*
X0036949Y0007270D01*
X0036947Y0007300D01*
X0036303Y0007450D02*
X0036333Y0007452D01*
X0036363Y0007457D01*
X0036392Y0007466D01*
X0036419Y0007479D01*
X0036445Y0007494D01*
X0036469Y0007513D01*
X0036490Y0007534D01*
X0036509Y0007558D01*
X0036524Y0007584D01*
X0036537Y0007611D01*
X0036546Y0007640D01*
X0036551Y0007670D01*
X0036553Y0007700D01*
X0036551Y0007730D01*
X0036546Y0007760D01*
X0036537Y0007789D01*
X0036524Y0007816D01*
X0036509Y0007842D01*
X0036490Y0007866D01*
X0036469Y0007887D01*
X0036445Y0007906D01*
X0036419Y0007921D01*
X0036392Y0007934D01*
X0036363Y0007943D01*
X0036333Y0007948D01*
X0036303Y0007950D01*
X0036053Y0007950D01*
X0036053Y0007050D01*
X0021300Y0030717D02*
X0020200Y0030472D01*
X0020567Y0030961D02*
X0021300Y0031206D01*
X0020200Y0031450D01*
X0020567Y0031924D02*
X0020567Y0032169D01*
X0020567Y0032168D02*
X0020569Y0032194D01*
X0020574Y0032220D01*
X0020584Y0032244D01*
X0020596Y0032267D01*
X0020612Y0032288D01*
X0020630Y0032306D01*
X0020651Y0032322D01*
X0020674Y0032334D01*
X0020698Y0032344D01*
X0020724Y0032349D01*
X0020750Y0032351D01*
X0020750Y0032352D02*
X0021300Y0032352D01*
X0021300Y0032077D01*
X0021298Y0032049D01*
X0021293Y0032022D01*
X0021284Y0031995D01*
X0021271Y0031970D01*
X0021256Y0031947D01*
X0021237Y0031926D01*
X0021216Y0031907D01*
X0021193Y0031892D01*
X0021168Y0031879D01*
X0021141Y0031870D01*
X0021114Y0031865D01*
X0021086Y0031863D01*
X0021058Y0031865D01*
X0021031Y0031870D01*
X0021004Y0031879D01*
X0020979Y0031892D01*
X0020956Y0031907D01*
X0020935Y0031926D01*
X0020916Y0031947D01*
X0020901Y0031970D01*
X0020888Y0031995D01*
X0020879Y0032022D01*
X0020874Y0032049D01*
X0020872Y0032077D01*
X0020872Y0032352D01*
X0020567Y0032883D02*
X0020567Y0033250D01*
X0020689Y0033250D01*
X0020567Y0032883D02*
X0021300Y0032883D01*
X0021300Y0033633D02*
X0020567Y0033633D01*
X0020567Y0033938D01*
X0020569Y0033964D01*
X0020574Y0033990D01*
X0020584Y0034014D01*
X0020596Y0034037D01*
X0020612Y0034058D01*
X0020630Y0034076D01*
X0020651Y0034092D01*
X0020674Y0034104D01*
X0020698Y0034114D01*
X0020724Y0034119D01*
X0020750Y0034121D01*
X0021300Y0034121D01*
X0021300Y0034597D02*
X0020567Y0034597D01*
X0020261Y0034628D02*
X0020261Y0034566D01*
X0020200Y0034566D01*
X0020200Y0034628D01*
X0020261Y0034628D01*
X0020567Y0035073D02*
X0020567Y0035378D01*
X0020569Y0035404D01*
X0020574Y0035430D01*
X0020584Y0035454D01*
X0020596Y0035477D01*
X0020612Y0035498D01*
X0020630Y0035516D01*
X0020651Y0035532D01*
X0020674Y0035544D01*
X0020698Y0035554D01*
X0020724Y0035559D01*
X0020750Y0035561D01*
X0021300Y0035561D01*
X0021300Y0035073D02*
X0020567Y0035073D01*
X0020750Y0036039D02*
X0021117Y0036039D01*
X0021143Y0036041D01*
X0021169Y0036046D01*
X0021193Y0036056D01*
X0021216Y0036068D01*
X0021237Y0036084D01*
X0021255Y0036102D01*
X0021271Y0036123D01*
X0021283Y0036146D01*
X0021293Y0036170D01*
X0021298Y0036196D01*
X0021300Y0036222D01*
X0021300Y0036528D01*
X0021483Y0036528D02*
X0020567Y0036528D01*
X0020567Y0036222D01*
X0020569Y0036196D01*
X0020574Y0036170D01*
X0020584Y0036146D01*
X0020596Y0036123D01*
X0020612Y0036102D01*
X0020630Y0036084D01*
X0020651Y0036068D01*
X0020674Y0036056D01*
X0020698Y0036046D01*
X0020724Y0036041D01*
X0020750Y0036039D01*
X0021483Y0036527D02*
X0021509Y0036525D01*
X0021535Y0036520D01*
X0021559Y0036510D01*
X0021582Y0036498D01*
X0021603Y0036482D01*
X0021621Y0036464D01*
X0021637Y0036443D01*
X0021649Y0036420D01*
X0021659Y0036396D01*
X0021664Y0036370D01*
X0021666Y0036344D01*
X0021667Y0036344D02*
X0021667Y0036100D01*
X0021950Y0037800D02*
X0021050Y0037800D01*
X0021050Y0038580D02*
X0021050Y0038980D01*
X0021050Y0039358D02*
X0021050Y0039608D01*
X0021052Y0039638D01*
X0021057Y0039668D01*
X0021066Y0039697D01*
X0021079Y0039724D01*
X0021094Y0039750D01*
X0021113Y0039774D01*
X0021134Y0039795D01*
X0021158Y0039814D01*
X0021184Y0039829D01*
X0021211Y0039842D01*
X0021240Y0039851D01*
X0021270Y0039856D01*
X0021300Y0039858D01*
X0021700Y0039858D01*
X0021730Y0039856D01*
X0021760Y0039851D01*
X0021789Y0039842D01*
X0021816Y0039829D01*
X0021842Y0039814D01*
X0021866Y0039795D01*
X0021887Y0039774D01*
X0021906Y0039750D01*
X0021921Y0039724D01*
X0021934Y0039697D01*
X0021943Y0039668D01*
X0021948Y0039638D01*
X0021950Y0039608D01*
X0021950Y0039358D01*
X0021050Y0039358D01*
X0021450Y0038880D02*
X0021450Y0038580D01*
X0021050Y0038580D02*
X0021950Y0038580D01*
X0021950Y0038980D01*
X0021950Y0038200D02*
X0021950Y0037800D01*
X0021950Y0040288D02*
X0021950Y0040788D01*
X0021950Y0040538D02*
X0021050Y0040538D01*
X0021250Y0040288D01*
X0020567Y0030961D02*
X0021300Y0030717D01*
X0012050Y0031398D02*
X0012050Y0031642D01*
X0012050Y0031398D02*
X0012048Y0031369D01*
X0012043Y0031340D01*
X0012034Y0031311D01*
X0012022Y0031285D01*
X0012007Y0031259D01*
X0011989Y0031236D01*
X0011968Y0031215D01*
X0011945Y0031197D01*
X0011919Y0031182D01*
X0011893Y0031170D01*
X0011864Y0031161D01*
X0011835Y0031156D01*
X0011806Y0031154D01*
X0011806Y0031153D02*
X0011194Y0031153D01*
X0011194Y0031154D02*
X0011165Y0031156D01*
X0011136Y0031161D01*
X0011107Y0031170D01*
X0011081Y0031182D01*
X0011055Y0031197D01*
X0011032Y0031215D01*
X0011011Y0031236D01*
X0010993Y0031259D01*
X0010978Y0031285D01*
X0010966Y0031311D01*
X0010957Y0031340D01*
X0010952Y0031369D01*
X0010950Y0031398D01*
X0010950Y0031642D01*
X0011317Y0032088D02*
X0011317Y0032455D01*
X0011439Y0032455D01*
X0011317Y0032794D02*
X0012050Y0032794D01*
X0011867Y0033264D02*
X0010950Y0033264D01*
X0011317Y0033142D02*
X0011317Y0033509D01*
X0011317Y0033910D02*
X0012050Y0033910D01*
X0012050Y0033509D02*
X0012050Y0033447D01*
X0012048Y0033421D01*
X0012043Y0033395D01*
X0012033Y0033371D01*
X0012021Y0033348D01*
X0012005Y0033327D01*
X0011987Y0033309D01*
X0011966Y0033293D01*
X0011943Y0033281D01*
X0011919Y0033271D01*
X0011893Y0033266D01*
X0011867Y0033264D01*
X0011011Y0032825D02*
X0011011Y0032764D01*
X0010950Y0032764D01*
X0010950Y0032825D01*
X0011011Y0032825D01*
X0011317Y0032088D02*
X0012050Y0032088D01*
X0011011Y0033880D02*
X0011011Y0033941D01*
X0010950Y0033941D01*
X0010950Y0033880D01*
X0011011Y0033880D01*
X0011500Y0034351D02*
X0011867Y0034351D01*
X0011893Y0034353D01*
X0011919Y0034358D01*
X0011943Y0034368D01*
X0011966Y0034380D01*
X0011987Y0034396D01*
X0012005Y0034414D01*
X0012021Y0034435D01*
X0012033Y0034458D01*
X0012043Y0034482D01*
X0012048Y0034508D01*
X0012050Y0034534D01*
X0012050Y0034779D01*
X0011500Y0034351D02*
X0011474Y0034353D01*
X0011448Y0034358D01*
X0011424Y0034368D01*
X0011401Y0034380D01*
X0011380Y0034396D01*
X0011362Y0034414D01*
X0011346Y0034435D01*
X0011334Y0034458D01*
X0011324Y0034482D01*
X0011319Y0034508D01*
X0011317Y0034534D01*
X0011317Y0034779D01*
X0011317Y0035233D02*
X0011317Y0035478D01*
X0011319Y0035504D01*
X0011324Y0035530D01*
X0011334Y0035554D01*
X0011346Y0035577D01*
X0011362Y0035598D01*
X0011380Y0035616D01*
X0011401Y0035632D01*
X0011424Y0035644D01*
X0011448Y0035654D01*
X0011474Y0035659D01*
X0011500Y0035661D01*
X0012050Y0035661D01*
X0012050Y0035386D01*
X0012048Y0035358D01*
X0012043Y0035331D01*
X0012034Y0035304D01*
X0012021Y0035279D01*
X0012006Y0035256D01*
X0011987Y0035235D01*
X0011966Y0035216D01*
X0011943Y0035201D01*
X0011918Y0035188D01*
X0011891Y0035179D01*
X0011864Y0035174D01*
X0011836Y0035172D01*
X0011808Y0035174D01*
X0011781Y0035179D01*
X0011754Y0035188D01*
X0011729Y0035201D01*
X0011706Y0035216D01*
X0011685Y0035235D01*
X0011666Y0035256D01*
X0011651Y0035279D01*
X0011638Y0035304D01*
X0011629Y0035331D01*
X0011624Y0035358D01*
X0011622Y0035386D01*
X0011622Y0035661D01*
X0011867Y0036163D02*
X0010950Y0036163D01*
X0011867Y0036164D02*
X0011893Y0036166D01*
X0011919Y0036171D01*
X0011943Y0036181D01*
X0011966Y0036193D01*
X0011987Y0036209D01*
X0012005Y0036227D01*
X0012021Y0036248D01*
X0012033Y0036271D01*
X0012043Y0036295D01*
X0012048Y0036321D01*
X0012050Y0036347D01*
X0012200Y0037550D02*
X0011300Y0037550D01*
X0011300Y0038330D02*
X0011300Y0038730D01*
X0011300Y0039108D02*
X0011300Y0039358D01*
X0011302Y0039388D01*
X0011307Y0039418D01*
X0011316Y0039447D01*
X0011329Y0039474D01*
X0011344Y0039500D01*
X0011363Y0039524D01*
X0011384Y0039545D01*
X0011408Y0039564D01*
X0011434Y0039579D01*
X0011461Y0039592D01*
X0011490Y0039601D01*
X0011520Y0039606D01*
X0011550Y0039608D01*
X0011950Y0039608D01*
X0011980Y0039606D01*
X0012010Y0039601D01*
X0012039Y0039592D01*
X0012066Y0039579D01*
X0012092Y0039564D01*
X0012116Y0039545D01*
X0012137Y0039524D01*
X0012156Y0039500D01*
X0012171Y0039474D01*
X0012184Y0039447D01*
X0012193Y0039418D01*
X0012198Y0039388D01*
X0012200Y0039358D01*
X0012200Y0039108D01*
X0011300Y0039108D01*
X0011700Y0038630D02*
X0011700Y0038330D01*
X0011300Y0038330D02*
X0012200Y0038330D01*
X0012200Y0038730D01*
X0012200Y0037950D02*
X0012200Y0037550D01*
X0012200Y0040038D02*
X0012200Y0040538D01*
X0012200Y0040038D02*
X0011700Y0040463D01*
X0011300Y0040313D02*
X0011302Y0040280D01*
X0011308Y0040247D01*
X0011317Y0040216D01*
X0011330Y0040185D01*
X0011346Y0040157D01*
X0011365Y0040130D01*
X0011388Y0040106D01*
X0011413Y0040084D01*
X0011440Y0040065D01*
X0011469Y0040050D01*
X0011500Y0040038D01*
X0011700Y0040463D02*
X0011680Y0040482D01*
X0011657Y0040499D01*
X0011633Y0040513D01*
X0011607Y0040524D01*
X0011580Y0040532D01*
X0011553Y0040536D01*
X0011525Y0040538D01*
X0011498Y0040536D01*
X0011471Y0040531D01*
X0011445Y0040523D01*
X0011420Y0040512D01*
X0011397Y0040498D01*
X0011376Y0040481D01*
X0011357Y0040462D01*
X0011340Y0040441D01*
X0011326Y0040418D01*
X0011315Y0040393D01*
X0011307Y0040367D01*
X0011302Y0040340D01*
X0011300Y0040313D01*
X0032300Y0040338D02*
X0032300Y0040038D01*
X0032300Y0040338D02*
X0032302Y0040365D01*
X0032307Y0040392D01*
X0032317Y0040418D01*
X0032329Y0040442D01*
X0032345Y0040464D01*
X0032363Y0040484D01*
X0032385Y0040501D01*
X0032408Y0040516D01*
X0032433Y0040526D01*
X0032459Y0040534D01*
X0032486Y0040538D01*
X0032514Y0040538D01*
X0032541Y0040534D01*
X0032567Y0040526D01*
X0032592Y0040516D01*
X0032615Y0040501D01*
X0032637Y0040484D01*
X0032655Y0040464D01*
X0032671Y0040442D01*
X0032683Y0040418D01*
X0032693Y0040392D01*
X0032698Y0040365D01*
X0032700Y0040338D01*
X0032700Y0040138D01*
X0032700Y0040288D02*
X0032702Y0040318D01*
X0032707Y0040348D01*
X0032716Y0040377D01*
X0032729Y0040404D01*
X0032744Y0040430D01*
X0032763Y0040454D01*
X0032784Y0040475D01*
X0032808Y0040494D01*
X0032834Y0040509D01*
X0032861Y0040522D01*
X0032890Y0040531D01*
X0032920Y0040536D01*
X0032950Y0040538D01*
X0032980Y0040536D01*
X0033010Y0040531D01*
X0033039Y0040522D01*
X0033066Y0040509D01*
X0033092Y0040494D01*
X0033116Y0040475D01*
X0033137Y0040454D01*
X0033156Y0040430D01*
X0033171Y0040404D01*
X0033184Y0040377D01*
X0033193Y0040348D01*
X0033198Y0040318D01*
X0033200Y0040288D01*
X0033200Y0040038D01*
X0032950Y0039608D02*
X0032550Y0039608D01*
X0032520Y0039606D01*
X0032490Y0039601D01*
X0032461Y0039592D01*
X0032434Y0039579D01*
X0032408Y0039564D01*
X0032384Y0039545D01*
X0032363Y0039524D01*
X0032344Y0039500D01*
X0032329Y0039474D01*
X0032316Y0039447D01*
X0032307Y0039418D01*
X0032302Y0039388D01*
X0032300Y0039358D01*
X0032300Y0039108D01*
X0033200Y0039108D01*
X0033200Y0039358D01*
X0033198Y0039388D01*
X0033193Y0039418D01*
X0033184Y0039447D01*
X0033171Y0039474D01*
X0033156Y0039500D01*
X0033137Y0039524D01*
X0033116Y0039545D01*
X0033092Y0039564D01*
X0033066Y0039579D01*
X0033039Y0039592D01*
X0033010Y0039601D01*
X0032980Y0039606D01*
X0032950Y0039608D01*
X0033200Y0038730D02*
X0033200Y0038330D01*
X0032300Y0038330D01*
X0032300Y0038730D01*
X0032700Y0038630D02*
X0032700Y0038330D01*
X0033200Y0037950D02*
X0033200Y0037550D01*
X0032300Y0037550D01*
X0031950Y0035100D02*
X0033050Y0034733D01*
X0031950Y0034367D01*
X0031950Y0033706D02*
X0031950Y0033400D01*
X0033050Y0033400D01*
X0032561Y0033400D02*
X0032561Y0033706D01*
X0032562Y0033706D02*
X0032560Y0033740D01*
X0032554Y0033774D01*
X0032545Y0033807D01*
X0032532Y0033839D01*
X0032515Y0033869D01*
X0032495Y0033897D01*
X0032472Y0033922D01*
X0032447Y0033945D01*
X0032419Y0033965D01*
X0032389Y0033982D01*
X0032357Y0033995D01*
X0032324Y0034004D01*
X0032290Y0034010D01*
X0032256Y0034012D01*
X0032222Y0034010D01*
X0032188Y0034004D01*
X0032155Y0033995D01*
X0032123Y0033982D01*
X0032093Y0033965D01*
X0032065Y0033945D01*
X0032040Y0033922D01*
X0032017Y0033897D01*
X0031997Y0033869D01*
X0031980Y0033839D01*
X0031967Y0033807D01*
X0031958Y0033774D01*
X0031952Y0033740D01*
X0031950Y0033706D01*
X0049565Y0045050D02*
X0049565Y0045450D01*
X0049567Y0045480D01*
X0049572Y0045510D01*
X0049581Y0045539D01*
X0049594Y0045566D01*
X0049609Y0045592D01*
X0049628Y0045616D01*
X0049649Y0045637D01*
X0049673Y0045656D01*
X0049699Y0045671D01*
X0049726Y0045684D01*
X0049755Y0045693D01*
X0049785Y0045698D01*
X0049815Y0045700D01*
X0049845Y0045698D01*
X0049875Y0045693D01*
X0049904Y0045684D01*
X0049931Y0045671D01*
X0049957Y0045656D01*
X0049981Y0045637D01*
X0050002Y0045616D01*
X0050021Y0045592D01*
X0050036Y0045566D01*
X0050049Y0045539D01*
X0050058Y0045510D01*
X0050063Y0045480D01*
X0050065Y0045450D01*
X0050065Y0045050D01*
X0049965Y0045000D02*
X0050165Y0044800D01*
X0050435Y0044800D02*
X0050935Y0044800D01*
X0050685Y0044800D02*
X0050685Y0045700D01*
X0050435Y0045500D01*
X0050065Y0045050D02*
X0050063Y0045020D01*
X0050058Y0044990D01*
X0050049Y0044961D01*
X0050036Y0044934D01*
X0050021Y0044908D01*
X0050002Y0044884D01*
X0049981Y0044863D01*
X0049957Y0044844D01*
X0049931Y0044829D01*
X0049904Y0044816D01*
X0049875Y0044807D01*
X0049845Y0044802D01*
X0049815Y0044800D01*
X0049785Y0044802D01*
X0049755Y0044807D01*
X0049726Y0044816D01*
X0049699Y0044829D01*
X0049673Y0044844D01*
X0049649Y0044863D01*
X0049628Y0044884D01*
X0049609Y0044908D01*
X0049594Y0044934D01*
X0049581Y0044961D01*
X0049572Y0044990D01*
X0049567Y0045020D01*
X0049565Y0045050D01*
X0044750Y0068374D02*
X0044250Y0068374D01*
X0044224Y0068376D01*
X0044198Y0068381D01*
X0044173Y0068389D01*
X0044150Y0068401D01*
X0044128Y0068415D01*
X0044109Y0068433D01*
X0044091Y0068452D01*
X0044077Y0068474D01*
X0044065Y0068497D01*
X0044057Y0068522D01*
X0044052Y0068548D01*
X0044050Y0068574D01*
X0044050Y0068774D01*
X0044250Y0069126D02*
X0044050Y0069376D01*
X0044950Y0069376D01*
X0044950Y0069126D02*
X0044950Y0069626D01*
X0044950Y0068774D02*
X0044950Y0068574D01*
X0044948Y0068548D01*
X0044943Y0068522D01*
X0044935Y0068497D01*
X0044923Y0068474D01*
X0044909Y0068452D01*
X0044891Y0068433D01*
X0044872Y0068415D01*
X0044850Y0068401D01*
X0044827Y0068389D01*
X0044802Y0068381D01*
X0044776Y0068376D01*
X0044750Y0068374D01*
X0040700Y0068303D02*
X0039800Y0068303D01*
X0039800Y0068553D01*
X0039802Y0068583D01*
X0039807Y0068613D01*
X0039816Y0068642D01*
X0039829Y0068669D01*
X0039844Y0068695D01*
X0039863Y0068719D01*
X0039884Y0068740D01*
X0039908Y0068759D01*
X0039934Y0068774D01*
X0039961Y0068787D01*
X0039990Y0068796D01*
X0040020Y0068801D01*
X0040050Y0068803D01*
X0040080Y0068801D01*
X0040110Y0068796D01*
X0040139Y0068787D01*
X0040166Y0068774D01*
X0040192Y0068759D01*
X0040216Y0068740D01*
X0040237Y0068719D01*
X0040256Y0068695D01*
X0040271Y0068669D01*
X0040284Y0068642D01*
X0040293Y0068613D01*
X0040298Y0068583D01*
X0040300Y0068553D01*
X0040300Y0068303D01*
X0040300Y0068603D02*
X0040700Y0068803D01*
X0040700Y0069197D02*
X0040700Y0069447D01*
X0040698Y0069477D01*
X0040693Y0069507D01*
X0040684Y0069536D01*
X0040671Y0069563D01*
X0040656Y0069589D01*
X0040637Y0069613D01*
X0040616Y0069634D01*
X0040592Y0069653D01*
X0040566Y0069668D01*
X0040539Y0069681D01*
X0040510Y0069690D01*
X0040480Y0069695D01*
X0040450Y0069697D01*
X0040420Y0069695D01*
X0040390Y0069690D01*
X0040361Y0069681D01*
X0040334Y0069668D01*
X0040308Y0069653D01*
X0040284Y0069634D01*
X0040263Y0069613D01*
X0040244Y0069589D01*
X0040229Y0069563D01*
X0040216Y0069536D01*
X0040207Y0069507D01*
X0040202Y0069477D01*
X0040200Y0069447D01*
X0040200Y0069497D02*
X0040200Y0069297D01*
X0040200Y0069497D02*
X0040198Y0069524D01*
X0040193Y0069551D01*
X0040183Y0069577D01*
X0040171Y0069601D01*
X0040155Y0069623D01*
X0040137Y0069643D01*
X0040115Y0069660D01*
X0040092Y0069675D01*
X0040067Y0069685D01*
X0040041Y0069693D01*
X0040014Y0069697D01*
X0039986Y0069697D01*
X0039959Y0069693D01*
X0039933Y0069685D01*
X0039908Y0069675D01*
X0039885Y0069660D01*
X0039863Y0069643D01*
X0039845Y0069623D01*
X0039829Y0069601D01*
X0039817Y0069577D01*
X0039807Y0069551D01*
X0039802Y0069524D01*
X0039800Y0069497D01*
X0039800Y0069197D01*
X0030700Y0069197D02*
X0030700Y0069697D01*
X0030700Y0069447D02*
X0029800Y0069447D01*
X0030000Y0069197D01*
X0029800Y0068553D02*
X0029802Y0068583D01*
X0029807Y0068613D01*
X0029816Y0068642D01*
X0029829Y0068669D01*
X0029844Y0068695D01*
X0029863Y0068719D01*
X0029884Y0068740D01*
X0029908Y0068759D01*
X0029934Y0068774D01*
X0029961Y0068787D01*
X0029990Y0068796D01*
X0030020Y0068801D01*
X0030050Y0068803D01*
X0030080Y0068801D01*
X0030110Y0068796D01*
X0030139Y0068787D01*
X0030166Y0068774D01*
X0030192Y0068759D01*
X0030216Y0068740D01*
X0030237Y0068719D01*
X0030256Y0068695D01*
X0030271Y0068669D01*
X0030284Y0068642D01*
X0030293Y0068613D01*
X0030298Y0068583D01*
X0030300Y0068553D01*
X0030300Y0068303D01*
X0030300Y0068603D02*
X0030700Y0068803D01*
X0030700Y0068303D02*
X0029800Y0068303D01*
X0029800Y0068553D01*
X0020700Y0068303D02*
X0019800Y0068303D01*
X0019800Y0068553D01*
X0019802Y0068583D01*
X0019807Y0068613D01*
X0019816Y0068642D01*
X0019829Y0068669D01*
X0019844Y0068695D01*
X0019863Y0068719D01*
X0019884Y0068740D01*
X0019908Y0068759D01*
X0019934Y0068774D01*
X0019961Y0068787D01*
X0019990Y0068796D01*
X0020020Y0068801D01*
X0020050Y0068803D01*
X0020080Y0068801D01*
X0020110Y0068796D01*
X0020139Y0068787D01*
X0020166Y0068774D01*
X0020192Y0068759D01*
X0020216Y0068740D01*
X0020237Y0068719D01*
X0020256Y0068695D01*
X0020271Y0068669D01*
X0020284Y0068642D01*
X0020293Y0068613D01*
X0020298Y0068583D01*
X0020300Y0068553D01*
X0020300Y0068303D01*
X0020300Y0068603D02*
X0020700Y0068803D01*
X0020700Y0069197D02*
X0020200Y0069622D01*
X0019800Y0069472D02*
X0019802Y0069439D01*
X0019808Y0069406D01*
X0019817Y0069375D01*
X0019830Y0069344D01*
X0019846Y0069316D01*
X0019865Y0069289D01*
X0019888Y0069265D01*
X0019913Y0069243D01*
X0019940Y0069224D01*
X0019969Y0069209D01*
X0020000Y0069197D01*
X0020200Y0069622D02*
X0020180Y0069641D01*
X0020157Y0069658D01*
X0020133Y0069672D01*
X0020107Y0069683D01*
X0020080Y0069691D01*
X0020053Y0069695D01*
X0020025Y0069697D01*
X0019998Y0069695D01*
X0019971Y0069690D01*
X0019945Y0069682D01*
X0019920Y0069671D01*
X0019897Y0069657D01*
X0019876Y0069640D01*
X0019857Y0069621D01*
X0019840Y0069600D01*
X0019826Y0069577D01*
X0019815Y0069552D01*
X0019807Y0069526D01*
X0019802Y0069499D01*
X0019800Y0069472D01*
X0020700Y0069697D02*
X0020700Y0069197D01*
X0009700Y0094687D02*
X0009700Y0094787D01*
X0009698Y0094813D01*
X0009693Y0094839D01*
X0009685Y0094864D01*
X0009673Y0094887D01*
X0009659Y0094909D01*
X0009641Y0094928D01*
X0009622Y0094946D01*
X0009600Y0094960D01*
X0009577Y0094972D01*
X0009552Y0094980D01*
X0009526Y0094985D01*
X0009500Y0094987D01*
X0008800Y0094987D01*
X0008800Y0095458D02*
X0008800Y0095708D01*
X0008802Y0095738D01*
X0008807Y0095768D01*
X0008816Y0095797D01*
X0008829Y0095824D01*
X0008844Y0095850D01*
X0008863Y0095874D01*
X0008884Y0095895D01*
X0008908Y0095914D01*
X0008934Y0095929D01*
X0008961Y0095942D01*
X0008990Y0095951D01*
X0009020Y0095956D01*
X0009050Y0095958D01*
X0009080Y0095956D01*
X0009110Y0095951D01*
X0009139Y0095942D01*
X0009166Y0095929D01*
X0009192Y0095914D01*
X0009216Y0095895D01*
X0009237Y0095874D01*
X0009256Y0095850D01*
X0009271Y0095824D01*
X0009284Y0095797D01*
X0009293Y0095768D01*
X0009298Y0095738D01*
X0009300Y0095708D01*
X0009300Y0095458D01*
X0009700Y0095458D02*
X0008800Y0095458D01*
X0009200Y0096738D02*
X0009180Y0096757D01*
X0009157Y0096774D01*
X0009133Y0096788D01*
X0009107Y0096799D01*
X0009080Y0096807D01*
X0009053Y0096811D01*
X0009025Y0096813D01*
X0009200Y0096738D02*
X0009700Y0096313D01*
X0009700Y0096813D01*
X0009000Y0096313D02*
X0008969Y0096325D01*
X0008940Y0096340D01*
X0008913Y0096359D01*
X0008888Y0096381D01*
X0008865Y0096405D01*
X0008846Y0096432D01*
X0008830Y0096460D01*
X0008817Y0096491D01*
X0008808Y0096522D01*
X0008802Y0096555D01*
X0008800Y0096588D01*
X0008802Y0096615D01*
X0008807Y0096642D01*
X0008815Y0096668D01*
X0008826Y0096693D01*
X0008840Y0096716D01*
X0008857Y0096737D01*
X0008876Y0096756D01*
X0008897Y0096773D01*
X0008920Y0096787D01*
X0008945Y0096798D01*
X0008971Y0096806D01*
X0008998Y0096811D01*
X0009025Y0096813D01*
X0067037Y0011250D02*
X0067037Y0010550D01*
X0067035Y0010524D01*
X0067030Y0010498D01*
X0067022Y0010473D01*
X0067010Y0010450D01*
X0066996Y0010428D01*
X0066978Y0010409D01*
X0066959Y0010391D01*
X0066937Y0010377D01*
X0066914Y0010365D01*
X0066889Y0010357D01*
X0066863Y0010352D01*
X0066837Y0010350D01*
X0066737Y0010350D01*
X0067508Y0010350D02*
X0067508Y0011250D01*
X0067758Y0011250D01*
X0067788Y0011248D01*
X0067818Y0011243D01*
X0067847Y0011234D01*
X0067874Y0011221D01*
X0067900Y0011206D01*
X0067924Y0011187D01*
X0067945Y0011166D01*
X0067964Y0011142D01*
X0067979Y0011116D01*
X0067992Y0011089D01*
X0068001Y0011060D01*
X0068006Y0011030D01*
X0068008Y0011000D01*
X0068006Y0010970D01*
X0068001Y0010940D01*
X0067992Y0010911D01*
X0067979Y0010884D01*
X0067964Y0010858D01*
X0067945Y0010834D01*
X0067924Y0010813D01*
X0067900Y0010794D01*
X0067874Y0010779D01*
X0067847Y0010766D01*
X0067818Y0010757D01*
X0067788Y0010752D01*
X0067758Y0010750D01*
X0067508Y0010750D01*
X0068363Y0011050D02*
X0068613Y0011250D01*
X0068613Y0010350D01*
X0068363Y0010350D02*
X0068863Y0010350D01*
D12*
X0070250Y0012000D02*
X0072750Y0014500D01*
X0072750Y0019500D01*
X0070250Y0022000D01*
X0072750Y0024500D01*
X0072750Y0029500D01*
X0070250Y0032000D01*
X0065250Y0032000D01*
X0062750Y0029500D01*
X0062750Y0024500D01*
X0065250Y0022000D01*
X0070250Y0022000D01*
X0065250Y0022000D02*
X0062750Y0019500D01*
X0062750Y0014500D01*
X0065250Y0012000D01*
X0070250Y0012000D01*
X0070250Y0032000D02*
X0072750Y0034500D01*
X0072750Y0039500D01*
X0070250Y0042000D01*
X0072750Y0044500D01*
X0072750Y0049500D01*
X0070250Y0052000D01*
X0065250Y0052000D01*
X0062750Y0049500D01*
X0062750Y0044500D01*
X0065250Y0042000D01*
X0070250Y0042000D01*
X0065250Y0042000D02*
X0062750Y0039500D01*
X0062750Y0034500D01*
X0065250Y0032000D01*
X0062750Y0085750D02*
X0067750Y0085750D01*
X0070250Y0088250D01*
X0072750Y0085750D01*
X0077750Y0085750D01*
X0080250Y0088250D01*
X0080250Y0103250D01*
X0077750Y0105750D01*
X0072750Y0105750D01*
X0070250Y0103250D01*
X0070250Y0088250D01*
X0062750Y0085750D02*
X0060250Y0088250D01*
X0060250Y0103250D01*
X0062750Y0105750D01*
X0067750Y0105750D01*
X0070250Y0103250D01*
X0060250Y0103250D02*
X0057750Y0105750D01*
X0052750Y0105750D01*
X0050250Y0103250D01*
X0050250Y0088250D01*
X0052750Y0085750D01*
X0057750Y0085750D01*
X0060250Y0088250D01*
X0050250Y0088250D02*
X0047750Y0085750D01*
X0042750Y0085750D01*
X0040250Y0088250D01*
X0040250Y0103250D01*
X0042750Y0105750D01*
X0047750Y0105750D01*
X0050250Y0103250D01*
X0040250Y0103250D02*
X0037750Y0105750D01*
X0032750Y0105750D01*
X0030250Y0103250D01*
X0030250Y0088250D01*
X0032750Y0085750D01*
X0037750Y0085750D01*
X0040250Y0088250D01*
X0030250Y0088250D02*
X0027750Y0085750D01*
X0022750Y0085750D01*
X0020250Y0088250D01*
X0020250Y0103250D01*
X0022750Y0105750D01*
X0027750Y0105750D01*
X0030250Y0103250D01*
X0020250Y0103250D02*
X0017750Y0105750D01*
X0012750Y0105750D01*
X0010250Y0103250D01*
X0010250Y0088250D01*
X0012750Y0085750D01*
X0017750Y0085750D01*
X0020250Y0088250D01*
D13*
X0013782Y0041165D02*
X0013705Y0041092D01*
X0013630Y0041017D01*
X0013559Y0040939D01*
X0013490Y0040858D01*
X0013424Y0040775D01*
X0013361Y0040690D01*
X0013302Y0040602D01*
X0013245Y0040513D01*
X0013192Y0040421D01*
X0013142Y0040327D01*
X0013096Y0040232D01*
X0013053Y0040135D01*
X0013014Y0040037D01*
X0012978Y0039937D01*
X0012946Y0039836D01*
X0012918Y0039734D01*
X0012893Y0039631D01*
X0012872Y0039527D01*
X0012855Y0039422D01*
X0012841Y0039317D01*
X0012832Y0039212D01*
X0012826Y0039106D01*
X0012824Y0039000D01*
X0012826Y0038894D01*
X0012832Y0038788D01*
X0012841Y0038683D01*
X0012855Y0038578D01*
X0012872Y0038473D01*
X0012893Y0038369D01*
X0012918Y0038266D01*
X0012946Y0038164D01*
X0012978Y0038063D01*
X0013014Y0037963D01*
X0013053Y0037865D01*
X0013096Y0037768D01*
X0013142Y0037673D01*
X0013192Y0037579D01*
X0013245Y0037487D01*
X0013302Y0037398D01*
X0013361Y0037310D01*
X0013424Y0037225D01*
X0013490Y0037142D01*
X0013559Y0037061D01*
X0013630Y0036983D01*
X0013705Y0036908D01*
X0013782Y0036835D01*
X0017718Y0036835D02*
X0017795Y0036908D01*
X0017870Y0036983D01*
X0017941Y0037061D01*
X0018010Y0037142D01*
X0018076Y0037225D01*
X0018139Y0037310D01*
X0018198Y0037398D01*
X0018255Y0037487D01*
X0018308Y0037579D01*
X0018358Y0037673D01*
X0018404Y0037768D01*
X0018447Y0037865D01*
X0018486Y0037963D01*
X0018522Y0038063D01*
X0018554Y0038164D01*
X0018582Y0038266D01*
X0018607Y0038369D01*
X0018628Y0038473D01*
X0018645Y0038578D01*
X0018659Y0038683D01*
X0018668Y0038788D01*
X0018674Y0038894D01*
X0018676Y0039000D01*
X0018674Y0039106D01*
X0018668Y0039212D01*
X0018659Y0039317D01*
X0018645Y0039422D01*
X0018628Y0039527D01*
X0018607Y0039631D01*
X0018582Y0039734D01*
X0018554Y0039836D01*
X0018522Y0039937D01*
X0018486Y0040037D01*
X0018447Y0040135D01*
X0018404Y0040232D01*
X0018358Y0040327D01*
X0018308Y0040421D01*
X0018255Y0040513D01*
X0018198Y0040602D01*
X0018139Y0040690D01*
X0018076Y0040775D01*
X0018010Y0040858D01*
X0017941Y0040939D01*
X0017870Y0041017D01*
X0017795Y0041092D01*
X0017718Y0041165D01*
X0023532Y0041165D02*
X0023455Y0041092D01*
X0023380Y0041017D01*
X0023309Y0040939D01*
X0023240Y0040858D01*
X0023174Y0040775D01*
X0023111Y0040690D01*
X0023052Y0040602D01*
X0022995Y0040513D01*
X0022942Y0040421D01*
X0022892Y0040327D01*
X0022846Y0040232D01*
X0022803Y0040135D01*
X0022764Y0040037D01*
X0022728Y0039937D01*
X0022696Y0039836D01*
X0022668Y0039734D01*
X0022643Y0039631D01*
X0022622Y0039527D01*
X0022605Y0039422D01*
X0022591Y0039317D01*
X0022582Y0039212D01*
X0022576Y0039106D01*
X0022574Y0039000D01*
X0022576Y0038894D01*
X0022582Y0038788D01*
X0022591Y0038683D01*
X0022605Y0038578D01*
X0022622Y0038473D01*
X0022643Y0038369D01*
X0022668Y0038266D01*
X0022696Y0038164D01*
X0022728Y0038063D01*
X0022764Y0037963D01*
X0022803Y0037865D01*
X0022846Y0037768D01*
X0022892Y0037673D01*
X0022942Y0037579D01*
X0022995Y0037487D01*
X0023052Y0037398D01*
X0023111Y0037310D01*
X0023174Y0037225D01*
X0023240Y0037142D01*
X0023309Y0037061D01*
X0023380Y0036983D01*
X0023455Y0036908D01*
X0023532Y0036835D01*
X0027468Y0036835D02*
X0027545Y0036908D01*
X0027620Y0036983D01*
X0027691Y0037061D01*
X0027760Y0037142D01*
X0027826Y0037225D01*
X0027889Y0037310D01*
X0027948Y0037398D01*
X0028005Y0037487D01*
X0028058Y0037579D01*
X0028108Y0037673D01*
X0028154Y0037768D01*
X0028197Y0037865D01*
X0028236Y0037963D01*
X0028272Y0038063D01*
X0028304Y0038164D01*
X0028332Y0038266D01*
X0028357Y0038369D01*
X0028378Y0038473D01*
X0028395Y0038578D01*
X0028409Y0038683D01*
X0028418Y0038788D01*
X0028424Y0038894D01*
X0028426Y0039000D01*
X0028424Y0039106D01*
X0028418Y0039212D01*
X0028409Y0039317D01*
X0028395Y0039422D01*
X0028378Y0039527D01*
X0028357Y0039631D01*
X0028332Y0039734D01*
X0028304Y0039836D01*
X0028272Y0039937D01*
X0028236Y0040037D01*
X0028197Y0040135D01*
X0028154Y0040232D01*
X0028108Y0040327D01*
X0028058Y0040421D01*
X0028005Y0040513D01*
X0027948Y0040602D01*
X0027889Y0040690D01*
X0027826Y0040775D01*
X0027760Y0040858D01*
X0027691Y0040939D01*
X0027620Y0041017D01*
X0027545Y0041092D01*
X0027468Y0041165D01*
X0034782Y0041165D02*
X0034705Y0041092D01*
X0034630Y0041017D01*
X0034559Y0040939D01*
X0034490Y0040858D01*
X0034424Y0040775D01*
X0034361Y0040690D01*
X0034302Y0040602D01*
X0034245Y0040513D01*
X0034192Y0040421D01*
X0034142Y0040327D01*
X0034096Y0040232D01*
X0034053Y0040135D01*
X0034014Y0040037D01*
X0033978Y0039937D01*
X0033946Y0039836D01*
X0033918Y0039734D01*
X0033893Y0039631D01*
X0033872Y0039527D01*
X0033855Y0039422D01*
X0033841Y0039317D01*
X0033832Y0039212D01*
X0033826Y0039106D01*
X0033824Y0039000D01*
X0033826Y0038894D01*
X0033832Y0038788D01*
X0033841Y0038683D01*
X0033855Y0038578D01*
X0033872Y0038473D01*
X0033893Y0038369D01*
X0033918Y0038266D01*
X0033946Y0038164D01*
X0033978Y0038063D01*
X0034014Y0037963D01*
X0034053Y0037865D01*
X0034096Y0037768D01*
X0034142Y0037673D01*
X0034192Y0037579D01*
X0034245Y0037487D01*
X0034302Y0037398D01*
X0034361Y0037310D01*
X0034424Y0037225D01*
X0034490Y0037142D01*
X0034559Y0037061D01*
X0034630Y0036983D01*
X0034705Y0036908D01*
X0034782Y0036835D01*
X0038718Y0036835D02*
X0038795Y0036908D01*
X0038870Y0036983D01*
X0038941Y0037061D01*
X0039010Y0037142D01*
X0039076Y0037225D01*
X0039139Y0037310D01*
X0039198Y0037398D01*
X0039255Y0037487D01*
X0039308Y0037579D01*
X0039358Y0037673D01*
X0039404Y0037768D01*
X0039447Y0037865D01*
X0039486Y0037963D01*
X0039522Y0038063D01*
X0039554Y0038164D01*
X0039582Y0038266D01*
X0039607Y0038369D01*
X0039628Y0038473D01*
X0039645Y0038578D01*
X0039659Y0038683D01*
X0039668Y0038788D01*
X0039674Y0038894D01*
X0039676Y0039000D01*
X0039674Y0039106D01*
X0039668Y0039212D01*
X0039659Y0039317D01*
X0039645Y0039422D01*
X0039628Y0039527D01*
X0039607Y0039631D01*
X0039582Y0039734D01*
X0039554Y0039836D01*
X0039522Y0039937D01*
X0039486Y0040037D01*
X0039447Y0040135D01*
X0039404Y0040232D01*
X0039358Y0040327D01*
X0039308Y0040421D01*
X0039255Y0040513D01*
X0039198Y0040602D01*
X0039139Y0040690D01*
X0039076Y0040775D01*
X0039010Y0040858D01*
X0038941Y0040939D01*
X0038870Y0041017D01*
X0038795Y0041092D01*
X0038718Y0041165D01*
D14*
X0036750Y0039000D03*
X0025500Y0039000D03*
X0015750Y0039000D03*
D15*
X0018014Y0041067D03*
X0027764Y0041067D03*
X0039014Y0041067D03*
M02*
