%
M48
M72
T01C0.01378
T02C0.04000
%
T01
X27000Y46000
X4000Y76000
X42000Y23000
X73000Y25000
X45000Y7000
X71750Y6750
X36000Y64000
X40000Y76750
X55500Y76750
X50000Y60000
X68500Y50250
X19000Y48000
X72250Y54000
X11000Y48750
X72750Y46250
X41000Y47000
T02
X61250Y11500
X61250Y21500
X61250Y31500
X61250Y41500
X8750Y85250
X8750Y95250
X18750Y85250
X18750Y95250
X28750Y85250
X28750Y95250
X38750Y85250
X38750Y95250
X48750Y85250
X48750Y95250
X58750Y85250
X58750Y95250
X68750Y85250
X68750Y95250
M30
