G75*
%MOIN*%
%OFA0B0*%
%FSLAX25Y25*%
%IPPOS*%
%LPD*%
%AMOC8*
5,1,8,0,0,1.08239X$1,22.5*
%
%ADD10C,0.00000*%
%ADD11R,0.07487X0.06699*%
%ADD12C,0.06400*%
%ADD13OC8,0.06400*%
%ADD14R,0.07498X0.06699*%
%ADD15R,0.04337X0.05912*%
%ADD16C,0.01378*%
%ADD17R,0.01476X0.01378*%
%ADD18R,0.01378X0.01476*%
%ADD19R,0.09449X0.09449*%
D10*
X0006500Y0005500D02*
X0006500Y0107500D01*
X0084500Y0107500D01*
X0084500Y0005500D01*
X0006500Y0005500D01*
D11*
X0049250Y0063488D03*
X0049250Y0074512D03*
D12*
X0064750Y0047000D02*
X0070750Y0047000D01*
X0070750Y0037000D02*
X0064750Y0037000D01*
X0064750Y0027000D02*
X0070750Y0027000D01*
X0070750Y0017000D02*
X0064750Y0017000D01*
D13*
X0065250Y0090750D03*
X0065250Y0100750D03*
X0055250Y0100750D03*
X0055250Y0090750D03*
X0045250Y0090750D03*
X0045250Y0100750D03*
X0035250Y0100750D03*
X0035250Y0090750D03*
X0025250Y0090750D03*
X0025250Y0100750D03*
X0015250Y0100750D03*
X0015250Y0090750D03*
X0075250Y0090750D03*
X0075250Y0100750D03*
D14*
X0035750Y0074598D03*
X0035750Y0063402D03*
X0025750Y0063402D03*
X0025750Y0074598D03*
X0015750Y0074598D03*
X0015750Y0063402D03*
X0015750Y0044598D03*
X0015750Y0033402D03*
X0015750Y0023598D03*
X0015750Y0012402D03*
X0025750Y0012402D03*
X0025750Y0023598D03*
X0025500Y0033402D03*
X0025500Y0044598D03*
X0036750Y0044598D03*
X0036750Y0033402D03*
X0036750Y0023598D03*
X0036750Y0012402D03*
D15*
X0050250Y0037169D03*
X0046510Y0045831D03*
X0053990Y0045831D03*
D16*
X0065911Y0062307D03*
X0068470Y0062307D03*
X0071030Y0062307D03*
X0073589Y0062307D03*
X0076443Y0065161D03*
X0076443Y0067720D03*
X0076443Y0070280D03*
X0076443Y0072839D03*
X0073589Y0075693D03*
X0071030Y0075693D03*
X0068470Y0075693D03*
X0065911Y0075693D03*
X0063057Y0072839D03*
X0063057Y0070280D03*
X0063057Y0067720D03*
X0063057Y0065161D03*
D17*
X0062319Y0065161D03*
X0062319Y0067720D03*
X0062319Y0070280D03*
X0062319Y0072839D03*
X0077181Y0072839D03*
X0077181Y0070280D03*
X0077181Y0067720D03*
X0077181Y0065161D03*
D18*
X0073589Y0061569D03*
X0071030Y0061569D03*
X0068470Y0061569D03*
X0065911Y0061569D03*
X0065911Y0076431D03*
X0068470Y0076431D03*
X0071030Y0076431D03*
X0073589Y0076431D03*
D19*
X0069750Y0069000D03*
M02*
