G75*
%MOIN*%
%OFA0B0*%
%FSLAX25Y25*%
%IPPOS*%
%LPD*%
%AMOC8*
5,1,8,0,0,1.08239X$1,22.5*
%
%ADD10C,0.00600*%
%ADD11C,0.01200*%
D10*
X0338500Y0405500D02*
X0351500Y0405500D01*
X0351587Y0405502D01*
X0351674Y0405508D01*
X0351761Y0405517D01*
X0351847Y0405530D01*
X0351933Y0405547D01*
X0352018Y0405568D01*
X0352101Y0405593D01*
X0352184Y0405621D01*
X0352265Y0405652D01*
X0352345Y0405687D01*
X0352423Y0405726D01*
X0352500Y0405768D01*
X0352575Y0405813D01*
X0352647Y0405862D01*
X0352718Y0405913D01*
X0352786Y0405968D01*
X0352851Y0406025D01*
X0352914Y0406086D01*
X0352975Y0406149D01*
X0353032Y0406214D01*
X0353087Y0406282D01*
X0353138Y0406353D01*
X0353187Y0406425D01*
X0353232Y0406500D01*
X0353274Y0406577D01*
X0353313Y0406655D01*
X0353348Y0406735D01*
X0353379Y0406816D01*
X0353407Y0406899D01*
X0353432Y0406982D01*
X0353453Y0407067D01*
X0353470Y0407153D01*
X0353483Y0407239D01*
X0353492Y0407326D01*
X0353498Y0407413D01*
X0353500Y0407500D01*
X0353500Y0412500D01*
X0353498Y0412587D01*
X0353492Y0412674D01*
X0353483Y0412761D01*
X0353470Y0412847D01*
X0353453Y0412933D01*
X0353432Y0413018D01*
X0353407Y0413101D01*
X0353379Y0413184D01*
X0353348Y0413265D01*
X0353313Y0413345D01*
X0353274Y0413423D01*
X0353232Y0413500D01*
X0353187Y0413575D01*
X0353138Y0413647D01*
X0353087Y0413718D01*
X0353032Y0413786D01*
X0352975Y0413851D01*
X0352914Y0413914D01*
X0352851Y0413975D01*
X0352786Y0414032D01*
X0352718Y0414087D01*
X0352647Y0414138D01*
X0352575Y0414187D01*
X0352500Y0414232D01*
X0352423Y0414274D01*
X0352345Y0414313D01*
X0352265Y0414348D01*
X0352184Y0414379D01*
X0352101Y0414407D01*
X0352018Y0414432D01*
X0351933Y0414453D01*
X0351847Y0414470D01*
X0351761Y0414483D01*
X0351674Y0414492D01*
X0351587Y0414498D01*
X0351500Y0414500D01*
X0338500Y0414500D01*
X0338413Y0414498D01*
X0338326Y0414492D01*
X0338239Y0414483D01*
X0338153Y0414470D01*
X0338067Y0414453D01*
X0337982Y0414432D01*
X0337899Y0414407D01*
X0337816Y0414379D01*
X0337735Y0414348D01*
X0337655Y0414313D01*
X0337577Y0414274D01*
X0337500Y0414232D01*
X0337425Y0414187D01*
X0337353Y0414138D01*
X0337282Y0414087D01*
X0337214Y0414032D01*
X0337149Y0413975D01*
X0337086Y0413914D01*
X0337025Y0413851D01*
X0336968Y0413786D01*
X0336913Y0413718D01*
X0336862Y0413647D01*
X0336813Y0413575D01*
X0336768Y0413500D01*
X0336726Y0413423D01*
X0336687Y0413345D01*
X0336652Y0413265D01*
X0336621Y0413184D01*
X0336593Y0413101D01*
X0336568Y0413018D01*
X0336547Y0412933D01*
X0336530Y0412847D01*
X0336517Y0412761D01*
X0336508Y0412674D01*
X0336502Y0412587D01*
X0336500Y0412500D01*
X0336500Y0407500D01*
X0336502Y0407413D01*
X0336508Y0407326D01*
X0336517Y0407239D01*
X0336530Y0407153D01*
X0336547Y0407067D01*
X0336568Y0406982D01*
X0336593Y0406899D01*
X0336621Y0406816D01*
X0336652Y0406735D01*
X0336687Y0406655D01*
X0336726Y0406577D01*
X0336768Y0406500D01*
X0336813Y0406425D01*
X0336862Y0406353D01*
X0336913Y0406282D01*
X0336968Y0406214D01*
X0337025Y0406149D01*
X0337086Y0406086D01*
X0337149Y0406025D01*
X0337214Y0405968D01*
X0337282Y0405913D01*
X0337353Y0405862D01*
X0337425Y0405813D01*
X0337500Y0405768D01*
X0337577Y0405726D01*
X0337655Y0405687D01*
X0337735Y0405652D01*
X0337816Y0405621D01*
X0337899Y0405593D01*
X0337982Y0405568D01*
X0338067Y0405547D01*
X0338153Y0405530D01*
X0338239Y0405517D01*
X0338326Y0405508D01*
X0338413Y0405502D01*
X0338500Y0405500D01*
X0356500Y0407500D02*
X0356500Y0412500D01*
X0356502Y0412587D01*
X0356508Y0412674D01*
X0356517Y0412761D01*
X0356530Y0412847D01*
X0356547Y0412933D01*
X0356568Y0413018D01*
X0356593Y0413101D01*
X0356621Y0413184D01*
X0356652Y0413265D01*
X0356687Y0413345D01*
X0356726Y0413423D01*
X0356768Y0413500D01*
X0356813Y0413575D01*
X0356862Y0413647D01*
X0356913Y0413718D01*
X0356968Y0413786D01*
X0357025Y0413851D01*
X0357086Y0413914D01*
X0357149Y0413975D01*
X0357214Y0414032D01*
X0357282Y0414087D01*
X0357353Y0414138D01*
X0357425Y0414187D01*
X0357500Y0414232D01*
X0357577Y0414274D01*
X0357655Y0414313D01*
X0357735Y0414348D01*
X0357816Y0414379D01*
X0357899Y0414407D01*
X0357982Y0414432D01*
X0358067Y0414453D01*
X0358153Y0414470D01*
X0358239Y0414483D01*
X0358326Y0414492D01*
X0358413Y0414498D01*
X0358500Y0414500D01*
X0371500Y0414500D01*
X0371587Y0414498D01*
X0371674Y0414492D01*
X0371761Y0414483D01*
X0371847Y0414470D01*
X0371933Y0414453D01*
X0372018Y0414432D01*
X0372101Y0414407D01*
X0372184Y0414379D01*
X0372265Y0414348D01*
X0372345Y0414313D01*
X0372423Y0414274D01*
X0372500Y0414232D01*
X0372575Y0414187D01*
X0372647Y0414138D01*
X0372718Y0414087D01*
X0372786Y0414032D01*
X0372851Y0413975D01*
X0372914Y0413914D01*
X0372975Y0413851D01*
X0373032Y0413786D01*
X0373087Y0413718D01*
X0373138Y0413647D01*
X0373187Y0413575D01*
X0373232Y0413500D01*
X0373274Y0413423D01*
X0373313Y0413345D01*
X0373348Y0413265D01*
X0373379Y0413184D01*
X0373407Y0413101D01*
X0373432Y0413018D01*
X0373453Y0412933D01*
X0373470Y0412847D01*
X0373483Y0412761D01*
X0373492Y0412674D01*
X0373498Y0412587D01*
X0373500Y0412500D01*
X0373500Y0407500D01*
X0373498Y0407413D01*
X0373492Y0407326D01*
X0373483Y0407239D01*
X0373470Y0407153D01*
X0373453Y0407067D01*
X0373432Y0406982D01*
X0373407Y0406899D01*
X0373379Y0406816D01*
X0373348Y0406735D01*
X0373313Y0406655D01*
X0373274Y0406577D01*
X0373232Y0406500D01*
X0373187Y0406425D01*
X0373138Y0406353D01*
X0373087Y0406282D01*
X0373032Y0406214D01*
X0372975Y0406149D01*
X0372914Y0406086D01*
X0372851Y0406025D01*
X0372786Y0405968D01*
X0372718Y0405913D01*
X0372647Y0405862D01*
X0372575Y0405813D01*
X0372500Y0405768D01*
X0372423Y0405726D01*
X0372345Y0405687D01*
X0372265Y0405652D01*
X0372184Y0405621D01*
X0372101Y0405593D01*
X0372018Y0405568D01*
X0371933Y0405547D01*
X0371847Y0405530D01*
X0371761Y0405517D01*
X0371674Y0405508D01*
X0371587Y0405502D01*
X0371500Y0405500D01*
X0358500Y0405500D01*
X0358413Y0405502D01*
X0358326Y0405508D01*
X0358239Y0405517D01*
X0358153Y0405530D01*
X0358067Y0405547D01*
X0357982Y0405568D01*
X0357899Y0405593D01*
X0357816Y0405621D01*
X0357735Y0405652D01*
X0357655Y0405687D01*
X0357577Y0405726D01*
X0357500Y0405768D01*
X0357425Y0405813D01*
X0357353Y0405862D01*
X0357282Y0405913D01*
X0357214Y0405968D01*
X0357149Y0406025D01*
X0357086Y0406086D01*
X0357025Y0406149D01*
X0356968Y0406214D01*
X0356913Y0406282D01*
X0356862Y0406353D01*
X0356813Y0406425D01*
X0356768Y0406500D01*
X0356726Y0406577D01*
X0356687Y0406655D01*
X0356652Y0406735D01*
X0356621Y0406816D01*
X0356593Y0406899D01*
X0356568Y0406982D01*
X0356547Y0407067D01*
X0356530Y0407153D01*
X0356517Y0407239D01*
X0356508Y0407326D01*
X0356502Y0407413D01*
X0356500Y0407500D01*
X0356500Y0424000D02*
X0356500Y0425000D01*
X0357000Y0425500D01*
X0357000Y0434500D01*
X0356500Y0435000D01*
X0356500Y0436000D01*
X0356502Y0436060D01*
X0356507Y0436121D01*
X0356516Y0436180D01*
X0356529Y0436239D01*
X0356545Y0436298D01*
X0356565Y0436355D01*
X0356588Y0436410D01*
X0356615Y0436465D01*
X0356644Y0436517D01*
X0356677Y0436568D01*
X0356713Y0436617D01*
X0356751Y0436663D01*
X0356793Y0436707D01*
X0356837Y0436749D01*
X0356883Y0436787D01*
X0356932Y0436823D01*
X0356983Y0436856D01*
X0357035Y0436885D01*
X0357090Y0436912D01*
X0357145Y0436935D01*
X0357202Y0436955D01*
X0357261Y0436971D01*
X0357320Y0436984D01*
X0357379Y0436993D01*
X0357440Y0436998D01*
X0357500Y0437000D01*
X0353500Y0436000D02*
X0353500Y0435000D01*
X0353000Y0434500D01*
X0353000Y0425500D01*
X0353500Y0425000D01*
X0353500Y0424000D01*
X0353498Y0423940D01*
X0353493Y0423879D01*
X0353484Y0423820D01*
X0353471Y0423761D01*
X0353455Y0423702D01*
X0353435Y0423645D01*
X0353412Y0423590D01*
X0353385Y0423535D01*
X0353356Y0423483D01*
X0353323Y0423432D01*
X0353287Y0423383D01*
X0353249Y0423337D01*
X0353207Y0423293D01*
X0353163Y0423251D01*
X0353117Y0423213D01*
X0353068Y0423177D01*
X0353017Y0423144D01*
X0352965Y0423115D01*
X0352910Y0423088D01*
X0352855Y0423065D01*
X0352798Y0423045D01*
X0352739Y0423029D01*
X0352680Y0423016D01*
X0352621Y0423007D01*
X0352560Y0423002D01*
X0352500Y0423000D01*
X0347500Y0423000D02*
X0347440Y0423002D01*
X0347379Y0423007D01*
X0347320Y0423016D01*
X0347261Y0423029D01*
X0347202Y0423045D01*
X0347145Y0423065D01*
X0347090Y0423088D01*
X0347035Y0423115D01*
X0346983Y0423144D01*
X0346932Y0423177D01*
X0346883Y0423213D01*
X0346837Y0423251D01*
X0346793Y0423293D01*
X0346751Y0423337D01*
X0346713Y0423383D01*
X0346677Y0423432D01*
X0346644Y0423483D01*
X0346615Y0423535D01*
X0346588Y0423590D01*
X0346565Y0423645D01*
X0346545Y0423702D01*
X0346529Y0423761D01*
X0346516Y0423820D01*
X0346507Y0423879D01*
X0346502Y0423940D01*
X0346500Y0424000D01*
X0346500Y0425000D01*
X0347000Y0425500D01*
X0347000Y0434500D01*
X0346500Y0435000D01*
X0346500Y0436000D01*
X0346502Y0436060D01*
X0346507Y0436121D01*
X0346516Y0436180D01*
X0346529Y0436239D01*
X0346545Y0436298D01*
X0346565Y0436355D01*
X0346588Y0436410D01*
X0346615Y0436465D01*
X0346644Y0436517D01*
X0346677Y0436568D01*
X0346713Y0436617D01*
X0346751Y0436663D01*
X0346793Y0436707D01*
X0346837Y0436749D01*
X0346883Y0436787D01*
X0346932Y0436823D01*
X0346983Y0436856D01*
X0347035Y0436885D01*
X0347090Y0436912D01*
X0347145Y0436935D01*
X0347202Y0436955D01*
X0347261Y0436971D01*
X0347320Y0436984D01*
X0347379Y0436993D01*
X0347440Y0436998D01*
X0347500Y0437000D01*
X0343500Y0436000D02*
X0343500Y0435000D01*
X0343000Y0434500D01*
X0343000Y0425500D01*
X0343500Y0425000D01*
X0343500Y0424000D01*
X0343498Y0423940D01*
X0343493Y0423879D01*
X0343484Y0423820D01*
X0343471Y0423761D01*
X0343455Y0423702D01*
X0343435Y0423645D01*
X0343412Y0423590D01*
X0343385Y0423535D01*
X0343356Y0423483D01*
X0343323Y0423432D01*
X0343287Y0423383D01*
X0343249Y0423337D01*
X0343207Y0423293D01*
X0343163Y0423251D01*
X0343117Y0423213D01*
X0343068Y0423177D01*
X0343017Y0423144D01*
X0342965Y0423115D01*
X0342910Y0423088D01*
X0342855Y0423065D01*
X0342798Y0423045D01*
X0342739Y0423029D01*
X0342680Y0423016D01*
X0342621Y0423007D01*
X0342560Y0423002D01*
X0342500Y0423000D01*
X0337500Y0423000D02*
X0337440Y0423002D01*
X0337379Y0423007D01*
X0337320Y0423016D01*
X0337261Y0423029D01*
X0337202Y0423045D01*
X0337145Y0423065D01*
X0337090Y0423088D01*
X0337035Y0423115D01*
X0336983Y0423144D01*
X0336932Y0423177D01*
X0336883Y0423213D01*
X0336837Y0423251D01*
X0336793Y0423293D01*
X0336751Y0423337D01*
X0336713Y0423383D01*
X0336677Y0423432D01*
X0336644Y0423483D01*
X0336615Y0423535D01*
X0336588Y0423590D01*
X0336565Y0423645D01*
X0336545Y0423702D01*
X0336529Y0423761D01*
X0336516Y0423820D01*
X0336507Y0423879D01*
X0336502Y0423940D01*
X0336500Y0424000D01*
X0336500Y0425000D01*
X0337000Y0425500D01*
X0337000Y0434500D01*
X0336500Y0435000D01*
X0336500Y0436000D01*
X0336502Y0436060D01*
X0336507Y0436121D01*
X0336516Y0436180D01*
X0336529Y0436239D01*
X0336545Y0436298D01*
X0336565Y0436355D01*
X0336588Y0436410D01*
X0336615Y0436465D01*
X0336644Y0436517D01*
X0336677Y0436568D01*
X0336713Y0436617D01*
X0336751Y0436663D01*
X0336793Y0436707D01*
X0336837Y0436749D01*
X0336883Y0436787D01*
X0336932Y0436823D01*
X0336983Y0436856D01*
X0337035Y0436885D01*
X0337090Y0436912D01*
X0337145Y0436935D01*
X0337202Y0436955D01*
X0337261Y0436971D01*
X0337320Y0436984D01*
X0337379Y0436993D01*
X0337440Y0436998D01*
X0337500Y0437000D01*
X0342500Y0437000D02*
X0342560Y0436998D01*
X0342621Y0436993D01*
X0342680Y0436984D01*
X0342739Y0436971D01*
X0342798Y0436955D01*
X0342855Y0436935D01*
X0342910Y0436912D01*
X0342965Y0436885D01*
X0343017Y0436856D01*
X0343068Y0436823D01*
X0343117Y0436787D01*
X0343163Y0436749D01*
X0343207Y0436707D01*
X0343249Y0436663D01*
X0343287Y0436617D01*
X0343323Y0436568D01*
X0343356Y0436517D01*
X0343385Y0436465D01*
X0343412Y0436410D01*
X0343435Y0436355D01*
X0343455Y0436298D01*
X0343471Y0436239D01*
X0343484Y0436180D01*
X0343493Y0436121D01*
X0343498Y0436060D01*
X0343500Y0436000D01*
X0352500Y0437000D02*
X0352560Y0436998D01*
X0352621Y0436993D01*
X0352680Y0436984D01*
X0352739Y0436971D01*
X0352798Y0436955D01*
X0352855Y0436935D01*
X0352910Y0436912D01*
X0352965Y0436885D01*
X0353017Y0436856D01*
X0353068Y0436823D01*
X0353117Y0436787D01*
X0353163Y0436749D01*
X0353207Y0436707D01*
X0353249Y0436663D01*
X0353287Y0436617D01*
X0353323Y0436568D01*
X0353356Y0436517D01*
X0353385Y0436465D01*
X0353412Y0436410D01*
X0353435Y0436355D01*
X0353455Y0436298D01*
X0353471Y0436239D01*
X0353484Y0436180D01*
X0353493Y0436121D01*
X0353498Y0436060D01*
X0353500Y0436000D01*
X0362500Y0437000D02*
X0362560Y0436998D01*
X0362621Y0436993D01*
X0362680Y0436984D01*
X0362739Y0436971D01*
X0362798Y0436955D01*
X0362855Y0436935D01*
X0362910Y0436912D01*
X0362965Y0436885D01*
X0363017Y0436856D01*
X0363068Y0436823D01*
X0363117Y0436787D01*
X0363163Y0436749D01*
X0363207Y0436707D01*
X0363249Y0436663D01*
X0363287Y0436617D01*
X0363323Y0436568D01*
X0363356Y0436517D01*
X0363385Y0436465D01*
X0363412Y0436410D01*
X0363435Y0436355D01*
X0363455Y0436298D01*
X0363471Y0436239D01*
X0363484Y0436180D01*
X0363493Y0436121D01*
X0363498Y0436060D01*
X0363500Y0436000D01*
X0363500Y0435000D01*
X0363000Y0434500D01*
X0363000Y0425500D01*
X0363500Y0425000D01*
X0363500Y0424000D01*
X0363498Y0423940D01*
X0363493Y0423879D01*
X0363484Y0423820D01*
X0363471Y0423761D01*
X0363455Y0423702D01*
X0363435Y0423645D01*
X0363412Y0423590D01*
X0363385Y0423535D01*
X0363356Y0423483D01*
X0363323Y0423432D01*
X0363287Y0423383D01*
X0363249Y0423337D01*
X0363207Y0423293D01*
X0363163Y0423251D01*
X0363117Y0423213D01*
X0363068Y0423177D01*
X0363017Y0423144D01*
X0362965Y0423115D01*
X0362910Y0423088D01*
X0362855Y0423065D01*
X0362798Y0423045D01*
X0362739Y0423029D01*
X0362680Y0423016D01*
X0362621Y0423007D01*
X0362560Y0423002D01*
X0362500Y0423000D01*
X0366500Y0424000D02*
X0366500Y0425000D01*
X0367000Y0425500D01*
X0367000Y0434500D01*
X0366500Y0435000D01*
X0366500Y0436000D01*
X0366502Y0436060D01*
X0366507Y0436121D01*
X0366516Y0436180D01*
X0366529Y0436239D01*
X0366545Y0436298D01*
X0366565Y0436355D01*
X0366588Y0436410D01*
X0366615Y0436465D01*
X0366644Y0436517D01*
X0366677Y0436568D01*
X0366713Y0436617D01*
X0366751Y0436663D01*
X0366793Y0436707D01*
X0366837Y0436749D01*
X0366883Y0436787D01*
X0366932Y0436823D01*
X0366983Y0436856D01*
X0367035Y0436885D01*
X0367090Y0436912D01*
X0367145Y0436935D01*
X0367202Y0436955D01*
X0367261Y0436971D01*
X0367320Y0436984D01*
X0367379Y0436993D01*
X0367440Y0436998D01*
X0367500Y0437000D01*
X0372500Y0437000D02*
X0372560Y0436998D01*
X0372621Y0436993D01*
X0372680Y0436984D01*
X0372739Y0436971D01*
X0372798Y0436955D01*
X0372855Y0436935D01*
X0372910Y0436912D01*
X0372965Y0436885D01*
X0373017Y0436856D01*
X0373068Y0436823D01*
X0373117Y0436787D01*
X0373163Y0436749D01*
X0373207Y0436707D01*
X0373249Y0436663D01*
X0373287Y0436617D01*
X0373323Y0436568D01*
X0373356Y0436517D01*
X0373385Y0436465D01*
X0373412Y0436410D01*
X0373435Y0436355D01*
X0373455Y0436298D01*
X0373471Y0436239D01*
X0373484Y0436180D01*
X0373493Y0436121D01*
X0373498Y0436060D01*
X0373500Y0436000D01*
X0373500Y0435000D01*
X0373000Y0434500D01*
X0373000Y0425500D01*
X0373500Y0425000D01*
X0373500Y0424000D01*
X0373498Y0423940D01*
X0373493Y0423879D01*
X0373484Y0423820D01*
X0373471Y0423761D01*
X0373455Y0423702D01*
X0373435Y0423645D01*
X0373412Y0423590D01*
X0373385Y0423535D01*
X0373356Y0423483D01*
X0373323Y0423432D01*
X0373287Y0423383D01*
X0373249Y0423337D01*
X0373207Y0423293D01*
X0373163Y0423251D01*
X0373117Y0423213D01*
X0373068Y0423177D01*
X0373017Y0423144D01*
X0372965Y0423115D01*
X0372910Y0423088D01*
X0372855Y0423065D01*
X0372798Y0423045D01*
X0372739Y0423029D01*
X0372680Y0423016D01*
X0372621Y0423007D01*
X0372560Y0423002D01*
X0372500Y0423000D01*
X0376500Y0424000D02*
X0376500Y0425000D01*
X0377000Y0425500D01*
X0377000Y0434500D01*
X0376500Y0435000D01*
X0376500Y0436000D01*
X0376502Y0436060D01*
X0376507Y0436121D01*
X0376516Y0436180D01*
X0376529Y0436239D01*
X0376545Y0436298D01*
X0376565Y0436355D01*
X0376588Y0436410D01*
X0376615Y0436465D01*
X0376644Y0436517D01*
X0376677Y0436568D01*
X0376713Y0436617D01*
X0376751Y0436663D01*
X0376793Y0436707D01*
X0376837Y0436749D01*
X0376883Y0436787D01*
X0376932Y0436823D01*
X0376983Y0436856D01*
X0377035Y0436885D01*
X0377090Y0436912D01*
X0377145Y0436935D01*
X0377202Y0436955D01*
X0377261Y0436971D01*
X0377320Y0436984D01*
X0377379Y0436993D01*
X0377440Y0436998D01*
X0377500Y0437000D01*
X0382500Y0437000D02*
X0382560Y0436998D01*
X0382621Y0436993D01*
X0382680Y0436984D01*
X0382739Y0436971D01*
X0382798Y0436955D01*
X0382855Y0436935D01*
X0382910Y0436912D01*
X0382965Y0436885D01*
X0383017Y0436856D01*
X0383068Y0436823D01*
X0383117Y0436787D01*
X0383163Y0436749D01*
X0383207Y0436707D01*
X0383249Y0436663D01*
X0383287Y0436617D01*
X0383323Y0436568D01*
X0383356Y0436517D01*
X0383385Y0436465D01*
X0383412Y0436410D01*
X0383435Y0436355D01*
X0383455Y0436298D01*
X0383471Y0436239D01*
X0383484Y0436180D01*
X0383493Y0436121D01*
X0383498Y0436060D01*
X0383500Y0436000D01*
X0383500Y0435000D01*
X0383000Y0434500D01*
X0383000Y0425500D01*
X0383500Y0425000D01*
X0383500Y0424000D01*
X0383498Y0423940D01*
X0383493Y0423879D01*
X0383484Y0423820D01*
X0383471Y0423761D01*
X0383455Y0423702D01*
X0383435Y0423645D01*
X0383412Y0423590D01*
X0383385Y0423535D01*
X0383356Y0423483D01*
X0383323Y0423432D01*
X0383287Y0423383D01*
X0383249Y0423337D01*
X0383207Y0423293D01*
X0383163Y0423251D01*
X0383117Y0423213D01*
X0383068Y0423177D01*
X0383017Y0423144D01*
X0382965Y0423115D01*
X0382910Y0423088D01*
X0382855Y0423065D01*
X0382798Y0423045D01*
X0382739Y0423029D01*
X0382680Y0423016D01*
X0382621Y0423007D01*
X0382560Y0423002D01*
X0382500Y0423000D01*
X0386500Y0424000D02*
X0386500Y0425000D01*
X0387000Y0425500D01*
X0387000Y0434500D01*
X0386500Y0435000D01*
X0386500Y0436000D01*
X0386502Y0436060D01*
X0386507Y0436121D01*
X0386516Y0436180D01*
X0386529Y0436239D01*
X0386545Y0436298D01*
X0386565Y0436355D01*
X0386588Y0436410D01*
X0386615Y0436465D01*
X0386644Y0436517D01*
X0386677Y0436568D01*
X0386713Y0436617D01*
X0386751Y0436663D01*
X0386793Y0436707D01*
X0386837Y0436749D01*
X0386883Y0436787D01*
X0386932Y0436823D01*
X0386983Y0436856D01*
X0387035Y0436885D01*
X0387090Y0436912D01*
X0387145Y0436935D01*
X0387202Y0436955D01*
X0387261Y0436971D01*
X0387320Y0436984D01*
X0387379Y0436993D01*
X0387440Y0436998D01*
X0387500Y0437000D01*
X0392500Y0437000D02*
X0392560Y0436998D01*
X0392621Y0436993D01*
X0392680Y0436984D01*
X0392739Y0436971D01*
X0392798Y0436955D01*
X0392855Y0436935D01*
X0392910Y0436912D01*
X0392965Y0436885D01*
X0393017Y0436856D01*
X0393068Y0436823D01*
X0393117Y0436787D01*
X0393163Y0436749D01*
X0393207Y0436707D01*
X0393249Y0436663D01*
X0393287Y0436617D01*
X0393323Y0436568D01*
X0393356Y0436517D01*
X0393385Y0436465D01*
X0393412Y0436410D01*
X0393435Y0436355D01*
X0393455Y0436298D01*
X0393471Y0436239D01*
X0393484Y0436180D01*
X0393493Y0436121D01*
X0393498Y0436060D01*
X0393500Y0436000D01*
X0393500Y0435000D01*
X0393000Y0434500D01*
X0393000Y0425500D01*
X0393500Y0425000D01*
X0393500Y0424000D01*
X0393498Y0423940D01*
X0393493Y0423879D01*
X0393484Y0423820D01*
X0393471Y0423761D01*
X0393455Y0423702D01*
X0393435Y0423645D01*
X0393412Y0423590D01*
X0393385Y0423535D01*
X0393356Y0423483D01*
X0393323Y0423432D01*
X0393287Y0423383D01*
X0393249Y0423337D01*
X0393207Y0423293D01*
X0393163Y0423251D01*
X0393117Y0423213D01*
X0393068Y0423177D01*
X0393017Y0423144D01*
X0392965Y0423115D01*
X0392910Y0423088D01*
X0392855Y0423065D01*
X0392798Y0423045D01*
X0392739Y0423029D01*
X0392680Y0423016D01*
X0392621Y0423007D01*
X0392560Y0423002D01*
X0392500Y0423000D01*
X0387500Y0423000D02*
X0387440Y0423002D01*
X0387379Y0423007D01*
X0387320Y0423016D01*
X0387261Y0423029D01*
X0387202Y0423045D01*
X0387145Y0423065D01*
X0387090Y0423088D01*
X0387035Y0423115D01*
X0386983Y0423144D01*
X0386932Y0423177D01*
X0386883Y0423213D01*
X0386837Y0423251D01*
X0386793Y0423293D01*
X0386751Y0423337D01*
X0386713Y0423383D01*
X0386677Y0423432D01*
X0386644Y0423483D01*
X0386615Y0423535D01*
X0386588Y0423590D01*
X0386565Y0423645D01*
X0386545Y0423702D01*
X0386529Y0423761D01*
X0386516Y0423820D01*
X0386507Y0423879D01*
X0386502Y0423940D01*
X0386500Y0424000D01*
X0377500Y0423000D02*
X0377440Y0423002D01*
X0377379Y0423007D01*
X0377320Y0423016D01*
X0377261Y0423029D01*
X0377202Y0423045D01*
X0377145Y0423065D01*
X0377090Y0423088D01*
X0377035Y0423115D01*
X0376983Y0423144D01*
X0376932Y0423177D01*
X0376883Y0423213D01*
X0376837Y0423251D01*
X0376793Y0423293D01*
X0376751Y0423337D01*
X0376713Y0423383D01*
X0376677Y0423432D01*
X0376644Y0423483D01*
X0376615Y0423535D01*
X0376588Y0423590D01*
X0376565Y0423645D01*
X0376545Y0423702D01*
X0376529Y0423761D01*
X0376516Y0423820D01*
X0376507Y0423879D01*
X0376502Y0423940D01*
X0376500Y0424000D01*
X0367500Y0423000D02*
X0367440Y0423002D01*
X0367379Y0423007D01*
X0367320Y0423016D01*
X0367261Y0423029D01*
X0367202Y0423045D01*
X0367145Y0423065D01*
X0367090Y0423088D01*
X0367035Y0423115D01*
X0366983Y0423144D01*
X0366932Y0423177D01*
X0366883Y0423213D01*
X0366837Y0423251D01*
X0366793Y0423293D01*
X0366751Y0423337D01*
X0366713Y0423383D01*
X0366677Y0423432D01*
X0366644Y0423483D01*
X0366615Y0423535D01*
X0366588Y0423590D01*
X0366565Y0423645D01*
X0366545Y0423702D01*
X0366529Y0423761D01*
X0366516Y0423820D01*
X0366507Y0423879D01*
X0366502Y0423940D01*
X0366500Y0424000D01*
X0357500Y0423000D02*
X0357440Y0423002D01*
X0357379Y0423007D01*
X0357320Y0423016D01*
X0357261Y0423029D01*
X0357202Y0423045D01*
X0357145Y0423065D01*
X0357090Y0423088D01*
X0357035Y0423115D01*
X0356983Y0423144D01*
X0356932Y0423177D01*
X0356883Y0423213D01*
X0356837Y0423251D01*
X0356793Y0423293D01*
X0356751Y0423337D01*
X0356713Y0423383D01*
X0356677Y0423432D01*
X0356644Y0423483D01*
X0356615Y0423535D01*
X0356588Y0423590D01*
X0356565Y0423645D01*
X0356545Y0423702D01*
X0356529Y0423761D01*
X0356516Y0423820D01*
X0356507Y0423879D01*
X0356502Y0423940D01*
X0356500Y0424000D01*
X0376500Y0412500D02*
X0376500Y0407500D01*
X0376502Y0407413D01*
X0376508Y0407326D01*
X0376517Y0407239D01*
X0376530Y0407153D01*
X0376547Y0407067D01*
X0376568Y0406982D01*
X0376593Y0406899D01*
X0376621Y0406816D01*
X0376652Y0406735D01*
X0376687Y0406655D01*
X0376726Y0406577D01*
X0376768Y0406500D01*
X0376813Y0406425D01*
X0376862Y0406353D01*
X0376913Y0406282D01*
X0376968Y0406214D01*
X0377025Y0406149D01*
X0377086Y0406086D01*
X0377149Y0406025D01*
X0377214Y0405968D01*
X0377282Y0405913D01*
X0377353Y0405862D01*
X0377425Y0405813D01*
X0377500Y0405768D01*
X0377577Y0405726D01*
X0377655Y0405687D01*
X0377735Y0405652D01*
X0377816Y0405621D01*
X0377899Y0405593D01*
X0377982Y0405568D01*
X0378067Y0405547D01*
X0378153Y0405530D01*
X0378239Y0405517D01*
X0378326Y0405508D01*
X0378413Y0405502D01*
X0378500Y0405500D01*
X0391500Y0405500D01*
X0391587Y0405502D01*
X0391674Y0405508D01*
X0391761Y0405517D01*
X0391847Y0405530D01*
X0391933Y0405547D01*
X0392018Y0405568D01*
X0392101Y0405593D01*
X0392184Y0405621D01*
X0392265Y0405652D01*
X0392345Y0405687D01*
X0392423Y0405726D01*
X0392500Y0405768D01*
X0392575Y0405813D01*
X0392647Y0405862D01*
X0392718Y0405913D01*
X0392786Y0405968D01*
X0392851Y0406025D01*
X0392914Y0406086D01*
X0392975Y0406149D01*
X0393032Y0406214D01*
X0393087Y0406282D01*
X0393138Y0406353D01*
X0393187Y0406425D01*
X0393232Y0406500D01*
X0393274Y0406577D01*
X0393313Y0406655D01*
X0393348Y0406735D01*
X0393379Y0406816D01*
X0393407Y0406899D01*
X0393432Y0406982D01*
X0393453Y0407067D01*
X0393470Y0407153D01*
X0393483Y0407239D01*
X0393492Y0407326D01*
X0393498Y0407413D01*
X0393500Y0407500D01*
X0393500Y0412500D01*
X0393498Y0412587D01*
X0393492Y0412674D01*
X0393483Y0412761D01*
X0393470Y0412847D01*
X0393453Y0412933D01*
X0393432Y0413018D01*
X0393407Y0413101D01*
X0393379Y0413184D01*
X0393348Y0413265D01*
X0393313Y0413345D01*
X0393274Y0413423D01*
X0393232Y0413500D01*
X0393187Y0413575D01*
X0393138Y0413647D01*
X0393087Y0413718D01*
X0393032Y0413786D01*
X0392975Y0413851D01*
X0392914Y0413914D01*
X0392851Y0413975D01*
X0392786Y0414032D01*
X0392718Y0414087D01*
X0392647Y0414138D01*
X0392575Y0414187D01*
X0392500Y0414232D01*
X0392423Y0414274D01*
X0392345Y0414313D01*
X0392265Y0414348D01*
X0392184Y0414379D01*
X0392101Y0414407D01*
X0392018Y0414432D01*
X0391933Y0414453D01*
X0391847Y0414470D01*
X0391761Y0414483D01*
X0391674Y0414492D01*
X0391587Y0414498D01*
X0391500Y0414500D01*
X0378500Y0414500D01*
X0378413Y0414498D01*
X0378326Y0414492D01*
X0378239Y0414483D01*
X0378153Y0414470D01*
X0378067Y0414453D01*
X0377982Y0414432D01*
X0377899Y0414407D01*
X0377816Y0414379D01*
X0377735Y0414348D01*
X0377655Y0414313D01*
X0377577Y0414274D01*
X0377500Y0414232D01*
X0377425Y0414187D01*
X0377353Y0414138D01*
X0377282Y0414087D01*
X0377214Y0414032D01*
X0377149Y0413975D01*
X0377086Y0413914D01*
X0377025Y0413851D01*
X0376968Y0413786D01*
X0376913Y0413718D01*
X0376862Y0413647D01*
X0376813Y0413575D01*
X0376768Y0413500D01*
X0376726Y0413423D01*
X0376687Y0413345D01*
X0376652Y0413265D01*
X0376621Y0413184D01*
X0376593Y0413101D01*
X0376568Y0413018D01*
X0376547Y0412933D01*
X0376530Y0412847D01*
X0376517Y0412761D01*
X0376508Y0412674D01*
X0376502Y0412587D01*
X0376500Y0412500D01*
D11*
X0383800Y0413000D02*
X0383800Y0407000D01*
X0386300Y0407000D02*
X0386300Y0413000D01*
X0366300Y0413000D02*
X0366300Y0407000D01*
X0363800Y0407000D02*
X0363800Y0413000D01*
X0346300Y0413000D02*
X0346300Y0407000D01*
X0343800Y0407000D02*
X0343800Y0413000D01*
M02*
