%
M48
M72
T01C0.02362
T02C0.03200
T03C0.04000
T04C0.04400
T05C0.04700
T06C0.05118
T07C0.05200
T08C0.06299
T09C0.08661
T10C0.13000
%
T01
X225000Y166250
X240000Y238750
X220000Y166250
X235000Y238750
X215000Y166250
X230000Y238750
T02
X122500Y135000
X132500Y135000
X178750Y155000
X178750Y185000
X168750Y185000
X168750Y155000
X235000Y95000
X235000Y115000
X225000Y115000
X225000Y95000
X215000Y95000
X215000Y115000
X205000Y115000
X205000Y95000
X195000Y95000
X195000Y115000
X185000Y115000
X185000Y95000
X185000Y85000
X195000Y85000
X205000Y85000
X215000Y85000
X225000Y85000
X235000Y85000
X188750Y185000
X188750Y155000
X198750Y185000
X198750Y155000
X188750Y195000
X158750Y195000
X145000Y156750
X145000Y170750
X342500Y115000
X352500Y115000
X482500Y100000
X492500Y100000
X622500Y115000
X632500Y115000
X300000Y285000
X280000Y285000
X290000Y285000
X230000Y277500
X260000Y277500
X440000Y285000
X420000Y285000
X430000Y285000
X580000Y285000
X560000Y285000
X570000Y285000
X316250Y277500
X316250Y297500
X332500Y277500
X332500Y297500
X348750Y277500
X348750Y297500
X365000Y277500
X365000Y297500
X456250Y277500
X456250Y297500
X472500Y277500
X472500Y297500
X488750Y277500
X488750Y297500
X505000Y277500
X505000Y297500
X596250Y277500
X596250Y297500
X612500Y277500
X612500Y297500
X628750Y277500
X628750Y297500
X645000Y277500
X645000Y297500
X230000Y287500
X260000Y287500
X230000Y297500
X260000Y297500
X342500Y100000
X352500Y100000
X342500Y85000
X352500Y85000
X482500Y115000
X492500Y115000
X482500Y85000
X492500Y85000
X622500Y100000
X632500Y100000
X622500Y85000
X632500Y85000
X642500Y115000
X652500Y115000
X642500Y100000
X652500Y100000
X642500Y85000
X652500Y85000
X502500Y115000
X512500Y115000
X502500Y100000
X512500Y100000
X502500Y85000
X512500Y85000
X362500Y115000
X372500Y115000
X362500Y100000
X372500Y100000
X362500Y85000
X372500Y85000
X246250Y18750
X256250Y18750
X185000Y-5000
X185000Y25000
X246250Y-1250
X256250Y-1250
X175000Y-5000
X175000Y25000
X246250Y-21250
X256250Y-21250
X165000Y-5000
X165000Y25000
T03
X130000Y195000
X130000Y205000
X130000Y215000
X357500Y67500
X357500Y-22500
X497500Y67500
X497500Y-22500
X637500Y67500
X637500Y-22500
X165000Y55000
X165000Y65000
X175000Y55000
X175000Y65000
X185000Y55000
X185000Y65000
X195000Y55000
X195000Y65000
X205000Y55000
X205000Y65000
X215000Y55000
X215000Y65000
X225000Y55000
X225000Y65000
X127500Y75000
X127500Y85000
X127500Y41250
X127500Y51250
X127500Y61250
X137500Y41250
X137500Y51250
X137500Y61250
X127500Y98750
X127500Y108750
T04
X155000Y135000
X155000Y105000
X637500Y165000
X637500Y135000
T05
X500000Y185000
X500000Y265000
X500000Y205000
X500000Y245000
X640000Y185000
X640000Y265000
X640000Y205000
X640000Y245000
X360000Y185000
X360000Y265000
X360000Y205000
X360000Y245000
X207500Y250000
X127500Y250000
X187500Y250000
X147500Y250000
T06
X175000Y290000
X205000Y290000
T07
X272500Y-20000
X287500Y-20000
X272500Y-5000
X287500Y-5000
X272500Y10000
X287500Y10000
X567500Y-20000
X552500Y-5000
X552500Y10000
X427500Y-5000
X427500Y10000
X567500Y-5000
X567500Y10000
X427500Y-20000
X412500Y-20000
X412500Y-5000
X412500Y10000
X552500Y-20000
X307500Y-5000
X322500Y-5000
X307500Y-20000
X322500Y-20000
X322500Y10000
X307500Y10000
X447500Y-5000
X462500Y-5000
X447500Y-20000
X447500Y10000
X462500Y10000
X462500Y-20000
X587500Y-5000
X602500Y-5000
X587500Y-20000
X602500Y-20000
X587500Y10000
X602500Y10000
T08
X320000Y250000
X290000Y250000
X260000Y250000
X290000Y50000
X305000Y50000
X275000Y50000
X460000Y250000
X430000Y250000
X400000Y250000
X430000Y50000
X445000Y50000
X415000Y50000
X600000Y250000
X570000Y250000
X540000Y250000
X570000Y50000
X585000Y50000
X555000Y50000
T09
X260000Y50000
X320000Y50000
X400000Y50000
X460000Y50000
X540000Y50000
X600000Y50000
T10
X390000Y-15000
X390000Y285000
X530000Y-15000
X530000Y285000
X135000Y-15000
X135000Y285000
M30
