%
M48
M72
T01C0.01378
T02C0.02500
T03C0.03800
T04C0.04000
T05C0.06000
T06C0.13000
%
T01
X290000Y470000
X290000Y530000
X290000Y580000
X325000Y600000
X350000Y565000
X365000Y555000
X370000Y555000
X395000Y565000
X405000Y568750
X405000Y571250
X408125Y553125
X408125Y550625
X427500Y565000
X445000Y545000
X457000Y565000
X460289Y567000
X445000Y585000
X391250Y526250
X376250Y513750
X373750Y513750
X370000Y520000
X373750Y522589
X368750Y487500
X368750Y485000
X372500Y472500
X375000Y440000
X415000Y485000
X440000Y470000
X455425Y470000
X458803Y470000
X435000Y446250
X455425Y510000
X458803Y510000
X376875Y605000
X360000Y585000
X346250Y513750
X343750Y513750
T02
X395000Y515000
X395000Y510000
X395000Y505000
X395000Y500000
T03
X390000Y535000
X380000Y535000
X370000Y535000
X360000Y535000
X350000Y535000
X340000Y535000
X330000Y535000
X330000Y595000
X340000Y595000
X350000Y595000
X360000Y595000
X370000Y595000
X380000Y595000
X390000Y595000
X400000Y595000
X410000Y595000
X420000Y595000
X430000Y595000
X440000Y595000
X450000Y595000
X460000Y595000
X460000Y535000
X450000Y535000
X440000Y535000
X430000Y535000
X420000Y535000
X410000Y535000
X400000Y535000
T04
X395000Y485000
X385000Y485000
X441250Y485000
X441250Y495000
X430000Y612500
X430000Y622500
X420000Y622500
X420000Y612500
X410000Y612500
X410000Y622500
X400000Y622500
X400000Y612500
X365000Y612500
X365000Y622500
X355000Y622500
X355000Y612500
X345000Y612500
X345000Y622500
T05
X420000Y515850
X420000Y494150
T06
X285000Y445000
X285000Y615000
X455000Y615000
X455000Y445000
M30
