G75*
%MOIN*%
%OFA0B0*%
%FSLAX25Y25*%
%IPPOS*%
%LPD*%
%AMOC8*
5,1,8,0,0,1.08239X$1,22.5*
%
%ADD10C,0.00300*%
%ADD11C,0.04000*%
%ADD12C,0.06000*%
%ADD13C,0.00000*%
%ADD14R,0.09000X0.09000*%
%ADD15OC8,0.06000*%
%ADD16C,0.05700*%
%ADD17R,0.06693X0.02362*%
%ADD18R,0.10630X0.03937*%
%ADD19C,0.01000*%
%ADD20C,0.02578*%
%ADD21C,0.02400*%
%ADD22C,0.01200*%
%ADD23C,0.01600*%
%ADD24C,0.03200*%
%ADD25C,0.02000*%
D10*
X0270000Y0430000D02*
X0270000Y0630000D01*
X0470000Y0630000D01*
X0470000Y0430000D01*
X0270000Y0430000D01*
D11*
X0395000Y0500000D03*
X0395000Y0505000D03*
X0395000Y0510000D03*
X0395000Y0515000D03*
D12*
X0395000Y0488000D02*
X0395000Y0482000D01*
X0385000Y0482000D02*
X0385000Y0488000D01*
X0438250Y0485000D02*
X0444250Y0485000D01*
X0444250Y0495000D02*
X0438250Y0495000D01*
D13*
X0448500Y0445000D02*
X0448502Y0445161D01*
X0448508Y0445321D01*
X0448518Y0445482D01*
X0448532Y0445642D01*
X0448550Y0445802D01*
X0448571Y0445961D01*
X0448597Y0446120D01*
X0448627Y0446278D01*
X0448660Y0446435D01*
X0448698Y0446592D01*
X0448739Y0446747D01*
X0448784Y0446901D01*
X0448833Y0447054D01*
X0448886Y0447206D01*
X0448942Y0447357D01*
X0449003Y0447506D01*
X0449066Y0447654D01*
X0449134Y0447800D01*
X0449205Y0447944D01*
X0449279Y0448086D01*
X0449357Y0448227D01*
X0449439Y0448365D01*
X0449524Y0448502D01*
X0449612Y0448636D01*
X0449704Y0448768D01*
X0449799Y0448898D01*
X0449897Y0449026D01*
X0449998Y0449151D01*
X0450102Y0449273D01*
X0450209Y0449393D01*
X0450319Y0449510D01*
X0450432Y0449625D01*
X0450548Y0449736D01*
X0450667Y0449845D01*
X0450788Y0449950D01*
X0450912Y0450053D01*
X0451038Y0450153D01*
X0451166Y0450249D01*
X0451297Y0450342D01*
X0451431Y0450432D01*
X0451566Y0450519D01*
X0451704Y0450602D01*
X0451843Y0450682D01*
X0451985Y0450758D01*
X0452128Y0450831D01*
X0452273Y0450900D01*
X0452420Y0450966D01*
X0452568Y0451028D01*
X0452718Y0451086D01*
X0452869Y0451141D01*
X0453022Y0451192D01*
X0453176Y0451239D01*
X0453331Y0451282D01*
X0453487Y0451321D01*
X0453643Y0451357D01*
X0453801Y0451388D01*
X0453959Y0451416D01*
X0454118Y0451440D01*
X0454278Y0451460D01*
X0454438Y0451476D01*
X0454598Y0451488D01*
X0454759Y0451496D01*
X0454920Y0451500D01*
X0455080Y0451500D01*
X0455241Y0451496D01*
X0455402Y0451488D01*
X0455562Y0451476D01*
X0455722Y0451460D01*
X0455882Y0451440D01*
X0456041Y0451416D01*
X0456199Y0451388D01*
X0456357Y0451357D01*
X0456513Y0451321D01*
X0456669Y0451282D01*
X0456824Y0451239D01*
X0456978Y0451192D01*
X0457131Y0451141D01*
X0457282Y0451086D01*
X0457432Y0451028D01*
X0457580Y0450966D01*
X0457727Y0450900D01*
X0457872Y0450831D01*
X0458015Y0450758D01*
X0458157Y0450682D01*
X0458296Y0450602D01*
X0458434Y0450519D01*
X0458569Y0450432D01*
X0458703Y0450342D01*
X0458834Y0450249D01*
X0458962Y0450153D01*
X0459088Y0450053D01*
X0459212Y0449950D01*
X0459333Y0449845D01*
X0459452Y0449736D01*
X0459568Y0449625D01*
X0459681Y0449510D01*
X0459791Y0449393D01*
X0459898Y0449273D01*
X0460002Y0449151D01*
X0460103Y0449026D01*
X0460201Y0448898D01*
X0460296Y0448768D01*
X0460388Y0448636D01*
X0460476Y0448502D01*
X0460561Y0448365D01*
X0460643Y0448227D01*
X0460721Y0448086D01*
X0460795Y0447944D01*
X0460866Y0447800D01*
X0460934Y0447654D01*
X0460997Y0447506D01*
X0461058Y0447357D01*
X0461114Y0447206D01*
X0461167Y0447054D01*
X0461216Y0446901D01*
X0461261Y0446747D01*
X0461302Y0446592D01*
X0461340Y0446435D01*
X0461373Y0446278D01*
X0461403Y0446120D01*
X0461429Y0445961D01*
X0461450Y0445802D01*
X0461468Y0445642D01*
X0461482Y0445482D01*
X0461492Y0445321D01*
X0461498Y0445161D01*
X0461500Y0445000D01*
X0461498Y0444839D01*
X0461492Y0444679D01*
X0461482Y0444518D01*
X0461468Y0444358D01*
X0461450Y0444198D01*
X0461429Y0444039D01*
X0461403Y0443880D01*
X0461373Y0443722D01*
X0461340Y0443565D01*
X0461302Y0443408D01*
X0461261Y0443253D01*
X0461216Y0443099D01*
X0461167Y0442946D01*
X0461114Y0442794D01*
X0461058Y0442643D01*
X0460997Y0442494D01*
X0460934Y0442346D01*
X0460866Y0442200D01*
X0460795Y0442056D01*
X0460721Y0441914D01*
X0460643Y0441773D01*
X0460561Y0441635D01*
X0460476Y0441498D01*
X0460388Y0441364D01*
X0460296Y0441232D01*
X0460201Y0441102D01*
X0460103Y0440974D01*
X0460002Y0440849D01*
X0459898Y0440727D01*
X0459791Y0440607D01*
X0459681Y0440490D01*
X0459568Y0440375D01*
X0459452Y0440264D01*
X0459333Y0440155D01*
X0459212Y0440050D01*
X0459088Y0439947D01*
X0458962Y0439847D01*
X0458834Y0439751D01*
X0458703Y0439658D01*
X0458569Y0439568D01*
X0458434Y0439481D01*
X0458296Y0439398D01*
X0458157Y0439318D01*
X0458015Y0439242D01*
X0457872Y0439169D01*
X0457727Y0439100D01*
X0457580Y0439034D01*
X0457432Y0438972D01*
X0457282Y0438914D01*
X0457131Y0438859D01*
X0456978Y0438808D01*
X0456824Y0438761D01*
X0456669Y0438718D01*
X0456513Y0438679D01*
X0456357Y0438643D01*
X0456199Y0438612D01*
X0456041Y0438584D01*
X0455882Y0438560D01*
X0455722Y0438540D01*
X0455562Y0438524D01*
X0455402Y0438512D01*
X0455241Y0438504D01*
X0455080Y0438500D01*
X0454920Y0438500D01*
X0454759Y0438504D01*
X0454598Y0438512D01*
X0454438Y0438524D01*
X0454278Y0438540D01*
X0454118Y0438560D01*
X0453959Y0438584D01*
X0453801Y0438612D01*
X0453643Y0438643D01*
X0453487Y0438679D01*
X0453331Y0438718D01*
X0453176Y0438761D01*
X0453022Y0438808D01*
X0452869Y0438859D01*
X0452718Y0438914D01*
X0452568Y0438972D01*
X0452420Y0439034D01*
X0452273Y0439100D01*
X0452128Y0439169D01*
X0451985Y0439242D01*
X0451843Y0439318D01*
X0451704Y0439398D01*
X0451566Y0439481D01*
X0451431Y0439568D01*
X0451297Y0439658D01*
X0451166Y0439751D01*
X0451038Y0439847D01*
X0450912Y0439947D01*
X0450788Y0440050D01*
X0450667Y0440155D01*
X0450548Y0440264D01*
X0450432Y0440375D01*
X0450319Y0440490D01*
X0450209Y0440607D01*
X0450102Y0440727D01*
X0449998Y0440849D01*
X0449897Y0440974D01*
X0449799Y0441102D01*
X0449704Y0441232D01*
X0449612Y0441364D01*
X0449524Y0441498D01*
X0449439Y0441635D01*
X0449357Y0441773D01*
X0449279Y0441914D01*
X0449205Y0442056D01*
X0449134Y0442200D01*
X0449066Y0442346D01*
X0449003Y0442494D01*
X0448942Y0442643D01*
X0448886Y0442794D01*
X0448833Y0442946D01*
X0448784Y0443099D01*
X0448739Y0443253D01*
X0448698Y0443408D01*
X0448660Y0443565D01*
X0448627Y0443722D01*
X0448597Y0443880D01*
X0448571Y0444039D01*
X0448550Y0444198D01*
X0448532Y0444358D01*
X0448518Y0444518D01*
X0448508Y0444679D01*
X0448502Y0444839D01*
X0448500Y0445000D01*
X0448500Y0615000D02*
X0448502Y0615161D01*
X0448508Y0615321D01*
X0448518Y0615482D01*
X0448532Y0615642D01*
X0448550Y0615802D01*
X0448571Y0615961D01*
X0448597Y0616120D01*
X0448627Y0616278D01*
X0448660Y0616435D01*
X0448698Y0616592D01*
X0448739Y0616747D01*
X0448784Y0616901D01*
X0448833Y0617054D01*
X0448886Y0617206D01*
X0448942Y0617357D01*
X0449003Y0617506D01*
X0449066Y0617654D01*
X0449134Y0617800D01*
X0449205Y0617944D01*
X0449279Y0618086D01*
X0449357Y0618227D01*
X0449439Y0618365D01*
X0449524Y0618502D01*
X0449612Y0618636D01*
X0449704Y0618768D01*
X0449799Y0618898D01*
X0449897Y0619026D01*
X0449998Y0619151D01*
X0450102Y0619273D01*
X0450209Y0619393D01*
X0450319Y0619510D01*
X0450432Y0619625D01*
X0450548Y0619736D01*
X0450667Y0619845D01*
X0450788Y0619950D01*
X0450912Y0620053D01*
X0451038Y0620153D01*
X0451166Y0620249D01*
X0451297Y0620342D01*
X0451431Y0620432D01*
X0451566Y0620519D01*
X0451704Y0620602D01*
X0451843Y0620682D01*
X0451985Y0620758D01*
X0452128Y0620831D01*
X0452273Y0620900D01*
X0452420Y0620966D01*
X0452568Y0621028D01*
X0452718Y0621086D01*
X0452869Y0621141D01*
X0453022Y0621192D01*
X0453176Y0621239D01*
X0453331Y0621282D01*
X0453487Y0621321D01*
X0453643Y0621357D01*
X0453801Y0621388D01*
X0453959Y0621416D01*
X0454118Y0621440D01*
X0454278Y0621460D01*
X0454438Y0621476D01*
X0454598Y0621488D01*
X0454759Y0621496D01*
X0454920Y0621500D01*
X0455080Y0621500D01*
X0455241Y0621496D01*
X0455402Y0621488D01*
X0455562Y0621476D01*
X0455722Y0621460D01*
X0455882Y0621440D01*
X0456041Y0621416D01*
X0456199Y0621388D01*
X0456357Y0621357D01*
X0456513Y0621321D01*
X0456669Y0621282D01*
X0456824Y0621239D01*
X0456978Y0621192D01*
X0457131Y0621141D01*
X0457282Y0621086D01*
X0457432Y0621028D01*
X0457580Y0620966D01*
X0457727Y0620900D01*
X0457872Y0620831D01*
X0458015Y0620758D01*
X0458157Y0620682D01*
X0458296Y0620602D01*
X0458434Y0620519D01*
X0458569Y0620432D01*
X0458703Y0620342D01*
X0458834Y0620249D01*
X0458962Y0620153D01*
X0459088Y0620053D01*
X0459212Y0619950D01*
X0459333Y0619845D01*
X0459452Y0619736D01*
X0459568Y0619625D01*
X0459681Y0619510D01*
X0459791Y0619393D01*
X0459898Y0619273D01*
X0460002Y0619151D01*
X0460103Y0619026D01*
X0460201Y0618898D01*
X0460296Y0618768D01*
X0460388Y0618636D01*
X0460476Y0618502D01*
X0460561Y0618365D01*
X0460643Y0618227D01*
X0460721Y0618086D01*
X0460795Y0617944D01*
X0460866Y0617800D01*
X0460934Y0617654D01*
X0460997Y0617506D01*
X0461058Y0617357D01*
X0461114Y0617206D01*
X0461167Y0617054D01*
X0461216Y0616901D01*
X0461261Y0616747D01*
X0461302Y0616592D01*
X0461340Y0616435D01*
X0461373Y0616278D01*
X0461403Y0616120D01*
X0461429Y0615961D01*
X0461450Y0615802D01*
X0461468Y0615642D01*
X0461482Y0615482D01*
X0461492Y0615321D01*
X0461498Y0615161D01*
X0461500Y0615000D01*
X0461498Y0614839D01*
X0461492Y0614679D01*
X0461482Y0614518D01*
X0461468Y0614358D01*
X0461450Y0614198D01*
X0461429Y0614039D01*
X0461403Y0613880D01*
X0461373Y0613722D01*
X0461340Y0613565D01*
X0461302Y0613408D01*
X0461261Y0613253D01*
X0461216Y0613099D01*
X0461167Y0612946D01*
X0461114Y0612794D01*
X0461058Y0612643D01*
X0460997Y0612494D01*
X0460934Y0612346D01*
X0460866Y0612200D01*
X0460795Y0612056D01*
X0460721Y0611914D01*
X0460643Y0611773D01*
X0460561Y0611635D01*
X0460476Y0611498D01*
X0460388Y0611364D01*
X0460296Y0611232D01*
X0460201Y0611102D01*
X0460103Y0610974D01*
X0460002Y0610849D01*
X0459898Y0610727D01*
X0459791Y0610607D01*
X0459681Y0610490D01*
X0459568Y0610375D01*
X0459452Y0610264D01*
X0459333Y0610155D01*
X0459212Y0610050D01*
X0459088Y0609947D01*
X0458962Y0609847D01*
X0458834Y0609751D01*
X0458703Y0609658D01*
X0458569Y0609568D01*
X0458434Y0609481D01*
X0458296Y0609398D01*
X0458157Y0609318D01*
X0458015Y0609242D01*
X0457872Y0609169D01*
X0457727Y0609100D01*
X0457580Y0609034D01*
X0457432Y0608972D01*
X0457282Y0608914D01*
X0457131Y0608859D01*
X0456978Y0608808D01*
X0456824Y0608761D01*
X0456669Y0608718D01*
X0456513Y0608679D01*
X0456357Y0608643D01*
X0456199Y0608612D01*
X0456041Y0608584D01*
X0455882Y0608560D01*
X0455722Y0608540D01*
X0455562Y0608524D01*
X0455402Y0608512D01*
X0455241Y0608504D01*
X0455080Y0608500D01*
X0454920Y0608500D01*
X0454759Y0608504D01*
X0454598Y0608512D01*
X0454438Y0608524D01*
X0454278Y0608540D01*
X0454118Y0608560D01*
X0453959Y0608584D01*
X0453801Y0608612D01*
X0453643Y0608643D01*
X0453487Y0608679D01*
X0453331Y0608718D01*
X0453176Y0608761D01*
X0453022Y0608808D01*
X0452869Y0608859D01*
X0452718Y0608914D01*
X0452568Y0608972D01*
X0452420Y0609034D01*
X0452273Y0609100D01*
X0452128Y0609169D01*
X0451985Y0609242D01*
X0451843Y0609318D01*
X0451704Y0609398D01*
X0451566Y0609481D01*
X0451431Y0609568D01*
X0451297Y0609658D01*
X0451166Y0609751D01*
X0451038Y0609847D01*
X0450912Y0609947D01*
X0450788Y0610050D01*
X0450667Y0610155D01*
X0450548Y0610264D01*
X0450432Y0610375D01*
X0450319Y0610490D01*
X0450209Y0610607D01*
X0450102Y0610727D01*
X0449998Y0610849D01*
X0449897Y0610974D01*
X0449799Y0611102D01*
X0449704Y0611232D01*
X0449612Y0611364D01*
X0449524Y0611498D01*
X0449439Y0611635D01*
X0449357Y0611773D01*
X0449279Y0611914D01*
X0449205Y0612056D01*
X0449134Y0612200D01*
X0449066Y0612346D01*
X0449003Y0612494D01*
X0448942Y0612643D01*
X0448886Y0612794D01*
X0448833Y0612946D01*
X0448784Y0613099D01*
X0448739Y0613253D01*
X0448698Y0613408D01*
X0448660Y0613565D01*
X0448627Y0613722D01*
X0448597Y0613880D01*
X0448571Y0614039D01*
X0448550Y0614198D01*
X0448532Y0614358D01*
X0448518Y0614518D01*
X0448508Y0614679D01*
X0448502Y0614839D01*
X0448500Y0615000D01*
X0278500Y0615000D02*
X0278502Y0615161D01*
X0278508Y0615321D01*
X0278518Y0615482D01*
X0278532Y0615642D01*
X0278550Y0615802D01*
X0278571Y0615961D01*
X0278597Y0616120D01*
X0278627Y0616278D01*
X0278660Y0616435D01*
X0278698Y0616592D01*
X0278739Y0616747D01*
X0278784Y0616901D01*
X0278833Y0617054D01*
X0278886Y0617206D01*
X0278942Y0617357D01*
X0279003Y0617506D01*
X0279066Y0617654D01*
X0279134Y0617800D01*
X0279205Y0617944D01*
X0279279Y0618086D01*
X0279357Y0618227D01*
X0279439Y0618365D01*
X0279524Y0618502D01*
X0279612Y0618636D01*
X0279704Y0618768D01*
X0279799Y0618898D01*
X0279897Y0619026D01*
X0279998Y0619151D01*
X0280102Y0619273D01*
X0280209Y0619393D01*
X0280319Y0619510D01*
X0280432Y0619625D01*
X0280548Y0619736D01*
X0280667Y0619845D01*
X0280788Y0619950D01*
X0280912Y0620053D01*
X0281038Y0620153D01*
X0281166Y0620249D01*
X0281297Y0620342D01*
X0281431Y0620432D01*
X0281566Y0620519D01*
X0281704Y0620602D01*
X0281843Y0620682D01*
X0281985Y0620758D01*
X0282128Y0620831D01*
X0282273Y0620900D01*
X0282420Y0620966D01*
X0282568Y0621028D01*
X0282718Y0621086D01*
X0282869Y0621141D01*
X0283022Y0621192D01*
X0283176Y0621239D01*
X0283331Y0621282D01*
X0283487Y0621321D01*
X0283643Y0621357D01*
X0283801Y0621388D01*
X0283959Y0621416D01*
X0284118Y0621440D01*
X0284278Y0621460D01*
X0284438Y0621476D01*
X0284598Y0621488D01*
X0284759Y0621496D01*
X0284920Y0621500D01*
X0285080Y0621500D01*
X0285241Y0621496D01*
X0285402Y0621488D01*
X0285562Y0621476D01*
X0285722Y0621460D01*
X0285882Y0621440D01*
X0286041Y0621416D01*
X0286199Y0621388D01*
X0286357Y0621357D01*
X0286513Y0621321D01*
X0286669Y0621282D01*
X0286824Y0621239D01*
X0286978Y0621192D01*
X0287131Y0621141D01*
X0287282Y0621086D01*
X0287432Y0621028D01*
X0287580Y0620966D01*
X0287727Y0620900D01*
X0287872Y0620831D01*
X0288015Y0620758D01*
X0288157Y0620682D01*
X0288296Y0620602D01*
X0288434Y0620519D01*
X0288569Y0620432D01*
X0288703Y0620342D01*
X0288834Y0620249D01*
X0288962Y0620153D01*
X0289088Y0620053D01*
X0289212Y0619950D01*
X0289333Y0619845D01*
X0289452Y0619736D01*
X0289568Y0619625D01*
X0289681Y0619510D01*
X0289791Y0619393D01*
X0289898Y0619273D01*
X0290002Y0619151D01*
X0290103Y0619026D01*
X0290201Y0618898D01*
X0290296Y0618768D01*
X0290388Y0618636D01*
X0290476Y0618502D01*
X0290561Y0618365D01*
X0290643Y0618227D01*
X0290721Y0618086D01*
X0290795Y0617944D01*
X0290866Y0617800D01*
X0290934Y0617654D01*
X0290997Y0617506D01*
X0291058Y0617357D01*
X0291114Y0617206D01*
X0291167Y0617054D01*
X0291216Y0616901D01*
X0291261Y0616747D01*
X0291302Y0616592D01*
X0291340Y0616435D01*
X0291373Y0616278D01*
X0291403Y0616120D01*
X0291429Y0615961D01*
X0291450Y0615802D01*
X0291468Y0615642D01*
X0291482Y0615482D01*
X0291492Y0615321D01*
X0291498Y0615161D01*
X0291500Y0615000D01*
X0291498Y0614839D01*
X0291492Y0614679D01*
X0291482Y0614518D01*
X0291468Y0614358D01*
X0291450Y0614198D01*
X0291429Y0614039D01*
X0291403Y0613880D01*
X0291373Y0613722D01*
X0291340Y0613565D01*
X0291302Y0613408D01*
X0291261Y0613253D01*
X0291216Y0613099D01*
X0291167Y0612946D01*
X0291114Y0612794D01*
X0291058Y0612643D01*
X0290997Y0612494D01*
X0290934Y0612346D01*
X0290866Y0612200D01*
X0290795Y0612056D01*
X0290721Y0611914D01*
X0290643Y0611773D01*
X0290561Y0611635D01*
X0290476Y0611498D01*
X0290388Y0611364D01*
X0290296Y0611232D01*
X0290201Y0611102D01*
X0290103Y0610974D01*
X0290002Y0610849D01*
X0289898Y0610727D01*
X0289791Y0610607D01*
X0289681Y0610490D01*
X0289568Y0610375D01*
X0289452Y0610264D01*
X0289333Y0610155D01*
X0289212Y0610050D01*
X0289088Y0609947D01*
X0288962Y0609847D01*
X0288834Y0609751D01*
X0288703Y0609658D01*
X0288569Y0609568D01*
X0288434Y0609481D01*
X0288296Y0609398D01*
X0288157Y0609318D01*
X0288015Y0609242D01*
X0287872Y0609169D01*
X0287727Y0609100D01*
X0287580Y0609034D01*
X0287432Y0608972D01*
X0287282Y0608914D01*
X0287131Y0608859D01*
X0286978Y0608808D01*
X0286824Y0608761D01*
X0286669Y0608718D01*
X0286513Y0608679D01*
X0286357Y0608643D01*
X0286199Y0608612D01*
X0286041Y0608584D01*
X0285882Y0608560D01*
X0285722Y0608540D01*
X0285562Y0608524D01*
X0285402Y0608512D01*
X0285241Y0608504D01*
X0285080Y0608500D01*
X0284920Y0608500D01*
X0284759Y0608504D01*
X0284598Y0608512D01*
X0284438Y0608524D01*
X0284278Y0608540D01*
X0284118Y0608560D01*
X0283959Y0608584D01*
X0283801Y0608612D01*
X0283643Y0608643D01*
X0283487Y0608679D01*
X0283331Y0608718D01*
X0283176Y0608761D01*
X0283022Y0608808D01*
X0282869Y0608859D01*
X0282718Y0608914D01*
X0282568Y0608972D01*
X0282420Y0609034D01*
X0282273Y0609100D01*
X0282128Y0609169D01*
X0281985Y0609242D01*
X0281843Y0609318D01*
X0281704Y0609398D01*
X0281566Y0609481D01*
X0281431Y0609568D01*
X0281297Y0609658D01*
X0281166Y0609751D01*
X0281038Y0609847D01*
X0280912Y0609947D01*
X0280788Y0610050D01*
X0280667Y0610155D01*
X0280548Y0610264D01*
X0280432Y0610375D01*
X0280319Y0610490D01*
X0280209Y0610607D01*
X0280102Y0610727D01*
X0279998Y0610849D01*
X0279897Y0610974D01*
X0279799Y0611102D01*
X0279704Y0611232D01*
X0279612Y0611364D01*
X0279524Y0611498D01*
X0279439Y0611635D01*
X0279357Y0611773D01*
X0279279Y0611914D01*
X0279205Y0612056D01*
X0279134Y0612200D01*
X0279066Y0612346D01*
X0279003Y0612494D01*
X0278942Y0612643D01*
X0278886Y0612794D01*
X0278833Y0612946D01*
X0278784Y0613099D01*
X0278739Y0613253D01*
X0278698Y0613408D01*
X0278660Y0613565D01*
X0278627Y0613722D01*
X0278597Y0613880D01*
X0278571Y0614039D01*
X0278550Y0614198D01*
X0278532Y0614358D01*
X0278518Y0614518D01*
X0278508Y0614679D01*
X0278502Y0614839D01*
X0278500Y0615000D01*
X0278500Y0445000D02*
X0278502Y0445161D01*
X0278508Y0445321D01*
X0278518Y0445482D01*
X0278532Y0445642D01*
X0278550Y0445802D01*
X0278571Y0445961D01*
X0278597Y0446120D01*
X0278627Y0446278D01*
X0278660Y0446435D01*
X0278698Y0446592D01*
X0278739Y0446747D01*
X0278784Y0446901D01*
X0278833Y0447054D01*
X0278886Y0447206D01*
X0278942Y0447357D01*
X0279003Y0447506D01*
X0279066Y0447654D01*
X0279134Y0447800D01*
X0279205Y0447944D01*
X0279279Y0448086D01*
X0279357Y0448227D01*
X0279439Y0448365D01*
X0279524Y0448502D01*
X0279612Y0448636D01*
X0279704Y0448768D01*
X0279799Y0448898D01*
X0279897Y0449026D01*
X0279998Y0449151D01*
X0280102Y0449273D01*
X0280209Y0449393D01*
X0280319Y0449510D01*
X0280432Y0449625D01*
X0280548Y0449736D01*
X0280667Y0449845D01*
X0280788Y0449950D01*
X0280912Y0450053D01*
X0281038Y0450153D01*
X0281166Y0450249D01*
X0281297Y0450342D01*
X0281431Y0450432D01*
X0281566Y0450519D01*
X0281704Y0450602D01*
X0281843Y0450682D01*
X0281985Y0450758D01*
X0282128Y0450831D01*
X0282273Y0450900D01*
X0282420Y0450966D01*
X0282568Y0451028D01*
X0282718Y0451086D01*
X0282869Y0451141D01*
X0283022Y0451192D01*
X0283176Y0451239D01*
X0283331Y0451282D01*
X0283487Y0451321D01*
X0283643Y0451357D01*
X0283801Y0451388D01*
X0283959Y0451416D01*
X0284118Y0451440D01*
X0284278Y0451460D01*
X0284438Y0451476D01*
X0284598Y0451488D01*
X0284759Y0451496D01*
X0284920Y0451500D01*
X0285080Y0451500D01*
X0285241Y0451496D01*
X0285402Y0451488D01*
X0285562Y0451476D01*
X0285722Y0451460D01*
X0285882Y0451440D01*
X0286041Y0451416D01*
X0286199Y0451388D01*
X0286357Y0451357D01*
X0286513Y0451321D01*
X0286669Y0451282D01*
X0286824Y0451239D01*
X0286978Y0451192D01*
X0287131Y0451141D01*
X0287282Y0451086D01*
X0287432Y0451028D01*
X0287580Y0450966D01*
X0287727Y0450900D01*
X0287872Y0450831D01*
X0288015Y0450758D01*
X0288157Y0450682D01*
X0288296Y0450602D01*
X0288434Y0450519D01*
X0288569Y0450432D01*
X0288703Y0450342D01*
X0288834Y0450249D01*
X0288962Y0450153D01*
X0289088Y0450053D01*
X0289212Y0449950D01*
X0289333Y0449845D01*
X0289452Y0449736D01*
X0289568Y0449625D01*
X0289681Y0449510D01*
X0289791Y0449393D01*
X0289898Y0449273D01*
X0290002Y0449151D01*
X0290103Y0449026D01*
X0290201Y0448898D01*
X0290296Y0448768D01*
X0290388Y0448636D01*
X0290476Y0448502D01*
X0290561Y0448365D01*
X0290643Y0448227D01*
X0290721Y0448086D01*
X0290795Y0447944D01*
X0290866Y0447800D01*
X0290934Y0447654D01*
X0290997Y0447506D01*
X0291058Y0447357D01*
X0291114Y0447206D01*
X0291167Y0447054D01*
X0291216Y0446901D01*
X0291261Y0446747D01*
X0291302Y0446592D01*
X0291340Y0446435D01*
X0291373Y0446278D01*
X0291403Y0446120D01*
X0291429Y0445961D01*
X0291450Y0445802D01*
X0291468Y0445642D01*
X0291482Y0445482D01*
X0291492Y0445321D01*
X0291498Y0445161D01*
X0291500Y0445000D01*
X0291498Y0444839D01*
X0291492Y0444679D01*
X0291482Y0444518D01*
X0291468Y0444358D01*
X0291450Y0444198D01*
X0291429Y0444039D01*
X0291403Y0443880D01*
X0291373Y0443722D01*
X0291340Y0443565D01*
X0291302Y0443408D01*
X0291261Y0443253D01*
X0291216Y0443099D01*
X0291167Y0442946D01*
X0291114Y0442794D01*
X0291058Y0442643D01*
X0290997Y0442494D01*
X0290934Y0442346D01*
X0290866Y0442200D01*
X0290795Y0442056D01*
X0290721Y0441914D01*
X0290643Y0441773D01*
X0290561Y0441635D01*
X0290476Y0441498D01*
X0290388Y0441364D01*
X0290296Y0441232D01*
X0290201Y0441102D01*
X0290103Y0440974D01*
X0290002Y0440849D01*
X0289898Y0440727D01*
X0289791Y0440607D01*
X0289681Y0440490D01*
X0289568Y0440375D01*
X0289452Y0440264D01*
X0289333Y0440155D01*
X0289212Y0440050D01*
X0289088Y0439947D01*
X0288962Y0439847D01*
X0288834Y0439751D01*
X0288703Y0439658D01*
X0288569Y0439568D01*
X0288434Y0439481D01*
X0288296Y0439398D01*
X0288157Y0439318D01*
X0288015Y0439242D01*
X0287872Y0439169D01*
X0287727Y0439100D01*
X0287580Y0439034D01*
X0287432Y0438972D01*
X0287282Y0438914D01*
X0287131Y0438859D01*
X0286978Y0438808D01*
X0286824Y0438761D01*
X0286669Y0438718D01*
X0286513Y0438679D01*
X0286357Y0438643D01*
X0286199Y0438612D01*
X0286041Y0438584D01*
X0285882Y0438560D01*
X0285722Y0438540D01*
X0285562Y0438524D01*
X0285402Y0438512D01*
X0285241Y0438504D01*
X0285080Y0438500D01*
X0284920Y0438500D01*
X0284759Y0438504D01*
X0284598Y0438512D01*
X0284438Y0438524D01*
X0284278Y0438540D01*
X0284118Y0438560D01*
X0283959Y0438584D01*
X0283801Y0438612D01*
X0283643Y0438643D01*
X0283487Y0438679D01*
X0283331Y0438718D01*
X0283176Y0438761D01*
X0283022Y0438808D01*
X0282869Y0438859D01*
X0282718Y0438914D01*
X0282568Y0438972D01*
X0282420Y0439034D01*
X0282273Y0439100D01*
X0282128Y0439169D01*
X0281985Y0439242D01*
X0281843Y0439318D01*
X0281704Y0439398D01*
X0281566Y0439481D01*
X0281431Y0439568D01*
X0281297Y0439658D01*
X0281166Y0439751D01*
X0281038Y0439847D01*
X0280912Y0439947D01*
X0280788Y0440050D01*
X0280667Y0440155D01*
X0280548Y0440264D01*
X0280432Y0440375D01*
X0280319Y0440490D01*
X0280209Y0440607D01*
X0280102Y0440727D01*
X0279998Y0440849D01*
X0279897Y0440974D01*
X0279799Y0441102D01*
X0279704Y0441232D01*
X0279612Y0441364D01*
X0279524Y0441498D01*
X0279439Y0441635D01*
X0279357Y0441773D01*
X0279279Y0441914D01*
X0279205Y0442056D01*
X0279134Y0442200D01*
X0279066Y0442346D01*
X0279003Y0442494D01*
X0278942Y0442643D01*
X0278886Y0442794D01*
X0278833Y0442946D01*
X0278784Y0443099D01*
X0278739Y0443253D01*
X0278698Y0443408D01*
X0278660Y0443565D01*
X0278627Y0443722D01*
X0278597Y0443880D01*
X0278571Y0444039D01*
X0278550Y0444198D01*
X0278532Y0444358D01*
X0278518Y0444518D01*
X0278508Y0444679D01*
X0278502Y0444839D01*
X0278500Y0445000D01*
D14*
X0420000Y0494150D03*
X0420000Y0515850D03*
D15*
X0420000Y0612500D03*
X0420000Y0622500D03*
X0410000Y0622500D03*
X0410000Y0612500D03*
X0400000Y0612500D03*
X0400000Y0622500D03*
X0430000Y0622500D03*
X0430000Y0612500D03*
X0365000Y0612500D03*
X0365000Y0622500D03*
X0355000Y0622500D03*
X0355000Y0612500D03*
X0345000Y0612500D03*
X0345000Y0622500D03*
D16*
X0340000Y0595000D03*
X0350000Y0595000D03*
X0360000Y0595000D03*
X0370000Y0595000D03*
X0380000Y0595000D03*
X0390000Y0595000D03*
X0400000Y0595000D03*
X0410000Y0595000D03*
X0420000Y0595000D03*
X0430000Y0595000D03*
X0440000Y0595000D03*
X0450000Y0595000D03*
X0460000Y0595000D03*
X0460000Y0535000D03*
X0450000Y0535000D03*
X0440000Y0535000D03*
X0430000Y0535000D03*
X0420000Y0535000D03*
X0410000Y0535000D03*
X0400000Y0535000D03*
X0390000Y0535000D03*
X0380000Y0535000D03*
X0370000Y0535000D03*
X0360000Y0535000D03*
X0350000Y0535000D03*
X0340000Y0535000D03*
X0330000Y0535000D03*
X0330000Y0595000D03*
D17*
X0450529Y0569921D03*
X0450529Y0565000D03*
X0450529Y0560079D03*
X0450404Y0512461D03*
X0450404Y0507539D03*
X0450404Y0472461D03*
X0450404Y0467539D03*
D18*
X0463002Y0460256D03*
X0463002Y0479744D03*
X0463002Y0500256D03*
X0463002Y0519744D03*
X0463127Y0552795D03*
X0463127Y0577205D03*
D19*
X0462643Y0577147D02*
X0271650Y0577147D01*
X0271650Y0578145D02*
X0456312Y0578145D01*
X0456312Y0577689D02*
X0462643Y0577689D01*
X0462643Y0580673D01*
X0457615Y0580673D01*
X0457233Y0580571D01*
X0456891Y0580374D01*
X0456612Y0580094D01*
X0456414Y0579752D01*
X0456312Y0579371D01*
X0456312Y0577689D01*
X0456312Y0576720D02*
X0456312Y0575039D01*
X0456414Y0574657D01*
X0456612Y0574315D01*
X0456891Y0574036D01*
X0457233Y0573838D01*
X0457615Y0573736D01*
X0462643Y0573736D01*
X0462643Y0576720D01*
X0463611Y0576720D01*
X0463611Y0573736D01*
X0468350Y0573736D01*
X0468350Y0556264D01*
X0463611Y0556264D01*
X0463611Y0553280D01*
X0462643Y0553280D01*
X0462643Y0556264D01*
X0457615Y0556264D01*
X0457233Y0556162D01*
X0456891Y0555964D01*
X0456612Y0555685D01*
X0456414Y0555343D01*
X0456312Y0554961D01*
X0456312Y0553280D01*
X0462643Y0553280D01*
X0462643Y0552311D01*
X0463611Y0552311D01*
X0463611Y0549327D01*
X0468350Y0549327D01*
X0468350Y0523213D01*
X0463486Y0523213D01*
X0463486Y0520228D01*
X0462518Y0520228D01*
X0462518Y0519260D01*
X0463486Y0519260D01*
X0463486Y0516276D01*
X0468350Y0516276D01*
X0468350Y0503724D01*
X0463486Y0503724D01*
X0463486Y0500740D01*
X0462518Y0500740D01*
X0462518Y0503724D01*
X0457490Y0503724D01*
X0457108Y0503622D01*
X0456766Y0503425D01*
X0456487Y0503145D01*
X0456289Y0502803D01*
X0456187Y0502422D01*
X0456187Y0500740D01*
X0462518Y0500740D01*
X0462518Y0499772D01*
X0456187Y0499772D01*
X0456187Y0498090D01*
X0456289Y0497708D01*
X0456487Y0497366D01*
X0456766Y0497087D01*
X0457108Y0496890D01*
X0457490Y0496787D01*
X0462518Y0496787D01*
X0462518Y0499772D01*
X0463486Y0499772D01*
X0463486Y0496787D01*
X0468350Y0496787D01*
X0468350Y0483213D01*
X0463486Y0483213D01*
X0463486Y0480228D01*
X0462518Y0480228D01*
X0462518Y0479260D01*
X0463486Y0479260D01*
X0463486Y0476276D01*
X0468350Y0476276D01*
X0468350Y0463724D01*
X0463486Y0463724D01*
X0463486Y0460740D01*
X0462518Y0460740D01*
X0462518Y0463724D01*
X0457490Y0463724D01*
X0457108Y0463622D01*
X0456766Y0463425D01*
X0456487Y0463145D01*
X0456289Y0462803D01*
X0456187Y0462422D01*
X0456187Y0460740D01*
X0462518Y0460740D01*
X0462518Y0459772D01*
X0456187Y0459772D01*
X0456187Y0458090D01*
X0456289Y0457708D01*
X0456487Y0457366D01*
X0456766Y0457087D01*
X0457108Y0456890D01*
X0457490Y0456787D01*
X0462518Y0456787D01*
X0462518Y0459772D01*
X0463486Y0459772D01*
X0463486Y0456787D01*
X0468350Y0456787D01*
X0468350Y0431650D01*
X0271650Y0431650D01*
X0271650Y0628350D01*
X0468350Y0628350D01*
X0468350Y0580673D01*
X0463611Y0580673D01*
X0463611Y0577689D01*
X0462643Y0577689D01*
X0462643Y0576720D01*
X0456312Y0576720D01*
X0456312Y0576148D02*
X0271650Y0576148D01*
X0271650Y0575150D02*
X0456312Y0575150D01*
X0456775Y0574151D02*
X0271650Y0574151D01*
X0271650Y0573153D02*
X0468350Y0573153D01*
X0468350Y0572154D02*
X0458509Y0572154D01*
X0458784Y0572041D02*
X0457865Y0572421D01*
X0450031Y0572421D01*
X0449986Y0572402D01*
X0446644Y0572402D01*
X0445882Y0571641D01*
X0445882Y0568202D01*
X0446584Y0567500D01*
X0428230Y0567500D01*
X0428015Y0567589D01*
X0426985Y0567589D01*
X0426033Y0567195D01*
X0425305Y0566467D01*
X0424911Y0565515D01*
X0424911Y0564485D01*
X0425305Y0563533D01*
X0426033Y0562805D01*
X0426985Y0562411D01*
X0428015Y0562411D01*
X0428230Y0562500D01*
X0446584Y0562500D01*
X0445882Y0561798D01*
X0445882Y0558359D01*
X0446644Y0557598D01*
X0449986Y0557598D01*
X0450031Y0557579D01*
X0455576Y0557579D01*
X0456495Y0557959D01*
X0457198Y0558663D01*
X0459119Y0560584D01*
X0459500Y0561503D01*
X0459500Y0564270D01*
X0459589Y0564485D01*
X0459589Y0564488D01*
X0459774Y0564411D01*
X0460804Y0564411D01*
X0461756Y0564805D01*
X0462484Y0565533D01*
X0462878Y0566485D01*
X0462878Y0567515D01*
X0462484Y0568467D01*
X0461756Y0569195D01*
X0461541Y0569284D01*
X0458784Y0572041D01*
X0459669Y0571156D02*
X0468350Y0571156D01*
X0468350Y0570157D02*
X0460667Y0570157D01*
X0461791Y0569159D02*
X0468350Y0569159D01*
X0468350Y0568160D02*
X0462611Y0568160D01*
X0462878Y0567162D02*
X0468350Y0567162D01*
X0468350Y0566163D02*
X0462745Y0566163D01*
X0462115Y0565165D02*
X0468350Y0565165D01*
X0468350Y0564166D02*
X0459500Y0564166D01*
X0459500Y0563168D02*
X0468350Y0563168D01*
X0468350Y0562169D02*
X0459500Y0562169D01*
X0459362Y0561171D02*
X0468350Y0561171D01*
X0468350Y0560172D02*
X0458708Y0560172D01*
X0457709Y0559174D02*
X0468350Y0559174D01*
X0468350Y0558175D02*
X0456711Y0558175D01*
X0457295Y0556178D02*
X0397500Y0556178D01*
X0397500Y0555180D02*
X0456371Y0555180D01*
X0456312Y0554181D02*
X0397500Y0554181D01*
X0397500Y0553183D02*
X0462643Y0553183D01*
X0462643Y0552311D02*
X0456312Y0552311D01*
X0456312Y0550629D01*
X0456414Y0550248D01*
X0456612Y0549906D01*
X0456891Y0549626D01*
X0457233Y0549429D01*
X0457615Y0549327D01*
X0462643Y0549327D01*
X0462643Y0552311D01*
X0462643Y0552184D02*
X0463611Y0552184D01*
X0463611Y0551186D02*
X0462643Y0551186D01*
X0462643Y0550187D02*
X0463611Y0550187D01*
X0463611Y0554181D02*
X0462643Y0554181D01*
X0462643Y0555180D02*
X0463611Y0555180D01*
X0463611Y0556178D02*
X0462643Y0556178D01*
X0468350Y0557177D02*
X0397500Y0557177D01*
X0397500Y0558175D02*
X0446066Y0558175D01*
X0445882Y0559174D02*
X0397500Y0559174D01*
X0397500Y0560172D02*
X0445882Y0560172D01*
X0445882Y0561171D02*
X0397500Y0561171D01*
X0397500Y0562169D02*
X0446253Y0562169D01*
X0445923Y0568160D02*
X0271650Y0568160D01*
X0271650Y0567162D02*
X0393501Y0567162D01*
X0393533Y0567195D02*
X0392805Y0566467D01*
X0392411Y0565515D01*
X0392411Y0564485D01*
X0392500Y0564270D01*
X0392500Y0544503D01*
X0392881Y0543584D01*
X0393584Y0542881D01*
X0397859Y0538605D01*
X0397649Y0538518D01*
X0396482Y0537351D01*
X0395850Y0535825D01*
X0395850Y0534175D01*
X0396482Y0532649D01*
X0397649Y0531482D01*
X0399175Y0530850D01*
X0400825Y0530850D01*
X0402351Y0531482D01*
X0403518Y0532649D01*
X0404150Y0534175D01*
X0404150Y0535825D01*
X0403518Y0537351D01*
X0403469Y0537400D01*
X0406531Y0537400D01*
X0406482Y0537351D01*
X0405850Y0535825D01*
X0405850Y0534175D01*
X0406482Y0532649D01*
X0407649Y0531482D01*
X0409175Y0530850D01*
X0410825Y0530850D01*
X0412351Y0531482D01*
X0413518Y0532649D01*
X0414150Y0534175D01*
X0414150Y0535825D01*
X0413518Y0537351D01*
X0413469Y0537400D01*
X0416531Y0537400D01*
X0416482Y0537351D01*
X0415850Y0535825D01*
X0415850Y0534175D01*
X0416482Y0532649D01*
X0417649Y0531482D01*
X0419175Y0530850D01*
X0420825Y0530850D01*
X0422351Y0531482D01*
X0423518Y0532649D01*
X0424150Y0534175D01*
X0424150Y0535825D01*
X0423518Y0537351D01*
X0423469Y0537400D01*
X0426531Y0537400D01*
X0426482Y0537351D01*
X0425850Y0535825D01*
X0425850Y0534175D01*
X0426482Y0532649D01*
X0427649Y0531482D01*
X0429175Y0530850D01*
X0430825Y0530850D01*
X0432351Y0531482D01*
X0433518Y0532649D01*
X0434150Y0534175D01*
X0434150Y0535825D01*
X0433518Y0537351D01*
X0433469Y0537400D01*
X0436531Y0537400D01*
X0436482Y0537351D01*
X0435850Y0535825D01*
X0435850Y0534175D01*
X0436482Y0532649D01*
X0437649Y0531482D01*
X0439175Y0530850D01*
X0440825Y0530850D01*
X0442351Y0531482D01*
X0443518Y0532649D01*
X0444150Y0534175D01*
X0444150Y0535825D01*
X0443518Y0537351D01*
X0443469Y0537400D01*
X0446531Y0537400D01*
X0446482Y0537351D01*
X0445850Y0535825D01*
X0445850Y0534175D01*
X0446482Y0532649D01*
X0447649Y0531482D01*
X0449175Y0530850D01*
X0450825Y0530850D01*
X0452351Y0531482D01*
X0453518Y0532649D01*
X0454150Y0534175D01*
X0454150Y0534244D01*
X0455514Y0532881D01*
X0456432Y0532500D01*
X0456631Y0532500D01*
X0457649Y0531482D01*
X0459175Y0530850D01*
X0460825Y0530850D01*
X0462351Y0531482D01*
X0463518Y0532649D01*
X0464150Y0534175D01*
X0464150Y0535825D01*
X0463518Y0537351D01*
X0462351Y0538518D01*
X0460825Y0539150D01*
X0459175Y0539150D01*
X0457649Y0538518D01*
X0457298Y0538167D01*
X0454149Y0541316D01*
X0453446Y0542019D01*
X0452527Y0542400D01*
X0401136Y0542400D01*
X0397500Y0546036D01*
X0397500Y0564270D01*
X0397589Y0564485D01*
X0397589Y0565515D01*
X0397195Y0566467D01*
X0396467Y0567195D01*
X0395515Y0567589D01*
X0394485Y0567589D01*
X0393533Y0567195D01*
X0392680Y0566163D02*
X0271650Y0566163D01*
X0271650Y0565165D02*
X0392411Y0565165D01*
X0392500Y0564166D02*
X0271650Y0564166D01*
X0271650Y0563168D02*
X0392500Y0563168D01*
X0392500Y0562169D02*
X0271650Y0562169D01*
X0271650Y0561171D02*
X0392500Y0561171D01*
X0392500Y0560172D02*
X0271650Y0560172D01*
X0271650Y0559174D02*
X0392500Y0559174D01*
X0392500Y0558175D02*
X0271650Y0558175D01*
X0271650Y0557177D02*
X0363515Y0557177D01*
X0363533Y0557195D02*
X0362805Y0556467D01*
X0362411Y0555515D01*
X0362411Y0554485D01*
X0362805Y0553533D01*
X0363100Y0553239D01*
X0363100Y0549213D01*
X0376037Y0536276D01*
X0375850Y0535825D01*
X0375850Y0534175D01*
X0376482Y0532649D01*
X0377649Y0531482D01*
X0379175Y0530850D01*
X0380825Y0530850D01*
X0382351Y0531482D01*
X0383518Y0532649D01*
X0384150Y0534175D01*
X0384150Y0535825D01*
X0383518Y0537351D01*
X0382351Y0538518D01*
X0380825Y0539150D01*
X0379175Y0539150D01*
X0378724Y0538963D01*
X0366900Y0550787D01*
X0366900Y0553239D01*
X0367195Y0553533D01*
X0367500Y0554270D01*
X0367805Y0553533D01*
X0368533Y0552805D01*
X0369485Y0552411D01*
X0369902Y0552411D01*
X0386037Y0536276D01*
X0385850Y0535825D01*
X0385850Y0534175D01*
X0386482Y0532649D01*
X0387649Y0531482D01*
X0389175Y0530850D01*
X0390825Y0530850D01*
X0392351Y0531482D01*
X0393518Y0532649D01*
X0394150Y0534175D01*
X0394150Y0535825D01*
X0393518Y0537351D01*
X0392351Y0538518D01*
X0390825Y0539150D01*
X0389175Y0539150D01*
X0388724Y0538963D01*
X0372589Y0555098D01*
X0372589Y0555515D01*
X0372195Y0556467D01*
X0371467Y0557195D01*
X0370515Y0557589D01*
X0369485Y0557589D01*
X0368533Y0557195D01*
X0367805Y0556467D01*
X0367500Y0555730D01*
X0367195Y0556467D01*
X0366467Y0557195D01*
X0365515Y0557589D01*
X0364485Y0557589D01*
X0363533Y0557195D01*
X0362686Y0556178D02*
X0271650Y0556178D01*
X0271650Y0555180D02*
X0362411Y0555180D01*
X0362537Y0554181D02*
X0271650Y0554181D01*
X0271650Y0553183D02*
X0363100Y0553183D01*
X0363100Y0552184D02*
X0271650Y0552184D01*
X0271650Y0551186D02*
X0363100Y0551186D01*
X0363100Y0550187D02*
X0271650Y0550187D01*
X0271650Y0549189D02*
X0363124Y0549189D01*
X0364123Y0548190D02*
X0271650Y0548190D01*
X0271650Y0547192D02*
X0365121Y0547192D01*
X0366120Y0546193D02*
X0271650Y0546193D01*
X0271650Y0545195D02*
X0367118Y0545195D01*
X0368117Y0544196D02*
X0271650Y0544196D01*
X0271650Y0543198D02*
X0369115Y0543198D01*
X0370114Y0542199D02*
X0271650Y0542199D01*
X0271650Y0541201D02*
X0371112Y0541201D01*
X0372111Y0540202D02*
X0271650Y0540202D01*
X0271650Y0539204D02*
X0373109Y0539204D01*
X0372351Y0538518D02*
X0370825Y0539150D01*
X0369175Y0539150D01*
X0367649Y0538518D01*
X0366482Y0537351D01*
X0365850Y0535825D01*
X0365850Y0534175D01*
X0366482Y0532649D01*
X0367649Y0531482D01*
X0369175Y0530850D01*
X0370825Y0530850D01*
X0372351Y0531482D01*
X0373518Y0532649D01*
X0374150Y0534175D01*
X0374150Y0535825D01*
X0373518Y0537351D01*
X0372351Y0538518D01*
X0372664Y0538205D02*
X0374108Y0538205D01*
X0373578Y0537207D02*
X0375106Y0537207D01*
X0376008Y0536208D02*
X0373992Y0536208D01*
X0374150Y0535210D02*
X0375850Y0535210D01*
X0375850Y0534211D02*
X0374150Y0534211D01*
X0373752Y0533212D02*
X0376248Y0533212D01*
X0376917Y0532214D02*
X0373083Y0532214D01*
X0371708Y0531215D02*
X0378292Y0531215D01*
X0381708Y0531215D02*
X0388292Y0531215D01*
X0386917Y0532214D02*
X0383083Y0532214D01*
X0383752Y0533212D02*
X0386248Y0533212D01*
X0385850Y0534211D02*
X0384150Y0534211D01*
X0384150Y0535210D02*
X0385850Y0535210D01*
X0386008Y0536208D02*
X0383992Y0536208D01*
X0383578Y0537207D02*
X0385106Y0537207D01*
X0384108Y0538205D02*
X0382664Y0538205D01*
X0383109Y0539204D02*
X0378483Y0539204D01*
X0377485Y0540202D02*
X0382111Y0540202D01*
X0381112Y0541201D02*
X0376486Y0541201D01*
X0375488Y0542199D02*
X0380114Y0542199D01*
X0379115Y0543198D02*
X0374489Y0543198D01*
X0373491Y0544196D02*
X0378117Y0544196D01*
X0377118Y0545195D02*
X0372492Y0545195D01*
X0371494Y0546193D02*
X0376120Y0546193D01*
X0375121Y0547192D02*
X0370495Y0547192D01*
X0369497Y0548190D02*
X0374123Y0548190D01*
X0373124Y0549189D02*
X0368498Y0549189D01*
X0367500Y0550187D02*
X0372126Y0550187D01*
X0371127Y0551186D02*
X0366900Y0551186D01*
X0366900Y0552184D02*
X0370129Y0552184D01*
X0368156Y0553183D02*
X0366900Y0553183D01*
X0367463Y0554181D02*
X0367537Y0554181D01*
X0367686Y0556178D02*
X0367314Y0556178D01*
X0366485Y0557177D02*
X0368515Y0557177D01*
X0371485Y0557177D02*
X0392500Y0557177D01*
X0392500Y0556178D02*
X0372314Y0556178D01*
X0372589Y0555180D02*
X0392500Y0555180D01*
X0392500Y0554181D02*
X0373506Y0554181D01*
X0374504Y0553183D02*
X0392500Y0553183D01*
X0392500Y0552184D02*
X0375503Y0552184D01*
X0376501Y0551186D02*
X0392500Y0551186D01*
X0392500Y0550187D02*
X0377500Y0550187D01*
X0378498Y0549189D02*
X0392500Y0549189D01*
X0392500Y0548190D02*
X0379497Y0548190D01*
X0380495Y0547192D02*
X0392500Y0547192D01*
X0392500Y0546193D02*
X0381494Y0546193D01*
X0382492Y0545195D02*
X0392500Y0545195D01*
X0392627Y0544196D02*
X0383491Y0544196D01*
X0384489Y0543198D02*
X0393267Y0543198D01*
X0393584Y0542881D02*
X0393584Y0542881D01*
X0394265Y0542199D02*
X0385488Y0542199D01*
X0386486Y0541201D02*
X0395264Y0541201D01*
X0396262Y0540202D02*
X0387485Y0540202D01*
X0388483Y0539204D02*
X0397261Y0539204D01*
X0397336Y0538205D02*
X0392664Y0538205D01*
X0393578Y0537207D02*
X0396422Y0537207D01*
X0396008Y0536208D02*
X0393992Y0536208D01*
X0394150Y0535210D02*
X0395850Y0535210D01*
X0395850Y0534211D02*
X0394150Y0534211D01*
X0393752Y0533212D02*
X0396248Y0533212D01*
X0396917Y0532214D02*
X0393083Y0532214D01*
X0391708Y0531215D02*
X0398292Y0531215D01*
X0401708Y0531215D02*
X0408292Y0531215D01*
X0406917Y0532214D02*
X0403083Y0532214D01*
X0403752Y0533212D02*
X0406248Y0533212D01*
X0405850Y0534211D02*
X0404150Y0534211D01*
X0404150Y0535210D02*
X0405850Y0535210D01*
X0406008Y0536208D02*
X0403992Y0536208D01*
X0403578Y0537207D02*
X0406422Y0537207D01*
X0413578Y0537207D02*
X0416422Y0537207D01*
X0416008Y0536208D02*
X0413992Y0536208D01*
X0414150Y0535210D02*
X0415850Y0535210D01*
X0415850Y0534211D02*
X0414150Y0534211D01*
X0413752Y0533212D02*
X0416248Y0533212D01*
X0416917Y0532214D02*
X0413083Y0532214D01*
X0411708Y0531215D02*
X0418292Y0531215D01*
X0421708Y0531215D02*
X0428292Y0531215D01*
X0426917Y0532214D02*
X0423083Y0532214D01*
X0423752Y0533212D02*
X0426248Y0533212D01*
X0425850Y0534211D02*
X0424150Y0534211D01*
X0424150Y0535210D02*
X0425850Y0535210D01*
X0426008Y0536208D02*
X0423992Y0536208D01*
X0423578Y0537207D02*
X0426422Y0537207D01*
X0433578Y0537207D02*
X0436422Y0537207D01*
X0436008Y0536208D02*
X0433992Y0536208D01*
X0434150Y0535210D02*
X0435850Y0535210D01*
X0435850Y0534211D02*
X0434150Y0534211D01*
X0433752Y0533212D02*
X0436248Y0533212D01*
X0436917Y0532214D02*
X0433083Y0532214D01*
X0431708Y0531215D02*
X0438292Y0531215D01*
X0441708Y0531215D02*
X0448292Y0531215D01*
X0446917Y0532214D02*
X0443083Y0532214D01*
X0443752Y0533212D02*
X0446248Y0533212D01*
X0445850Y0534211D02*
X0444150Y0534211D01*
X0444150Y0535210D02*
X0445850Y0535210D01*
X0446008Y0536208D02*
X0443992Y0536208D01*
X0443578Y0537207D02*
X0446422Y0537207D01*
X0451708Y0531215D02*
X0458292Y0531215D01*
X0456917Y0532214D02*
X0453083Y0532214D01*
X0453752Y0533212D02*
X0455182Y0533212D01*
X0454183Y0534211D02*
X0454150Y0534211D01*
X0457260Y0538205D02*
X0457336Y0538205D01*
X0456262Y0539204D02*
X0468350Y0539204D01*
X0468350Y0540202D02*
X0455263Y0540202D01*
X0454265Y0541201D02*
X0468350Y0541201D01*
X0468350Y0542199D02*
X0453012Y0542199D01*
X0456449Y0550187D02*
X0397500Y0550187D01*
X0397500Y0549189D02*
X0468350Y0549189D01*
X0468350Y0548190D02*
X0397500Y0548190D01*
X0397500Y0547192D02*
X0468350Y0547192D01*
X0468350Y0546193D02*
X0397500Y0546193D01*
X0398341Y0545195D02*
X0468350Y0545195D01*
X0468350Y0544196D02*
X0399339Y0544196D01*
X0400338Y0543198D02*
X0468350Y0543198D01*
X0468350Y0538205D02*
X0462664Y0538205D01*
X0463578Y0537207D02*
X0468350Y0537207D01*
X0468350Y0536208D02*
X0463992Y0536208D01*
X0464150Y0535210D02*
X0468350Y0535210D01*
X0468350Y0534211D02*
X0464150Y0534211D01*
X0463752Y0533212D02*
X0468350Y0533212D01*
X0468350Y0532214D02*
X0463083Y0532214D01*
X0461708Y0531215D02*
X0468350Y0531215D01*
X0468350Y0530217D02*
X0271650Y0530217D01*
X0271650Y0531215D02*
X0328292Y0531215D01*
X0327649Y0531482D02*
X0329175Y0530850D01*
X0330825Y0530850D01*
X0332351Y0531482D01*
X0333518Y0532649D01*
X0334150Y0534175D01*
X0334150Y0535825D01*
X0333518Y0537351D01*
X0332351Y0538518D01*
X0330825Y0539150D01*
X0329175Y0539150D01*
X0327649Y0538518D01*
X0326482Y0537351D01*
X0325850Y0535825D01*
X0325850Y0534175D01*
X0326482Y0532649D01*
X0327649Y0531482D01*
X0326917Y0532214D02*
X0271650Y0532214D01*
X0271650Y0533212D02*
X0326248Y0533212D01*
X0325850Y0534211D02*
X0271650Y0534211D01*
X0271650Y0535210D02*
X0325850Y0535210D01*
X0326008Y0536208D02*
X0271650Y0536208D01*
X0271650Y0537207D02*
X0326422Y0537207D01*
X0327336Y0538205D02*
X0271650Y0538205D01*
X0271650Y0529218D02*
X0468350Y0529218D01*
X0468350Y0528220D02*
X0271650Y0528220D01*
X0271650Y0527221D02*
X0468350Y0527221D01*
X0468350Y0526223D02*
X0271650Y0526223D01*
X0271650Y0525224D02*
X0468350Y0525224D01*
X0468350Y0524226D02*
X0375774Y0524226D01*
X0375945Y0524056D02*
X0375217Y0524784D01*
X0374265Y0525178D01*
X0373235Y0525178D01*
X0372283Y0524784D01*
X0371555Y0524056D01*
X0371161Y0523104D01*
X0371161Y0522321D01*
X0370515Y0522589D01*
X0369485Y0522589D01*
X0368533Y0522195D01*
X0367805Y0521467D01*
X0367411Y0520515D01*
X0367411Y0519485D01*
X0367805Y0518533D01*
X0368533Y0517805D01*
X0369485Y0517411D01*
X0370515Y0517411D01*
X0371467Y0517805D01*
X0371861Y0518200D01*
X0376754Y0518200D01*
X0378200Y0516754D01*
X0378200Y0489254D01*
X0380700Y0486754D01*
X0380700Y0481145D01*
X0381355Y0479564D01*
X0382564Y0478355D01*
X0384145Y0477700D01*
X0385855Y0477700D01*
X0387436Y0478355D01*
X0388645Y0479564D01*
X0389300Y0481145D01*
X0389300Y0487236D01*
X0390700Y0485836D01*
X0390700Y0481145D01*
X0391355Y0479564D01*
X0392564Y0478355D01*
X0394145Y0477700D01*
X0395855Y0477700D01*
X0397436Y0478355D01*
X0398645Y0479564D01*
X0399300Y0481145D01*
X0399300Y0488855D01*
X0398645Y0490436D01*
X0397436Y0491645D01*
X0395855Y0492300D01*
X0394145Y0492300D01*
X0392564Y0491645D01*
X0391355Y0490436D01*
X0391307Y0490320D01*
X0387527Y0494100D01*
X0386496Y0494100D01*
X0383600Y0496996D01*
X0383600Y0518991D01*
X0382546Y0520046D01*
X0378991Y0523600D01*
X0376134Y0523600D01*
X0375945Y0524056D01*
X0373750Y0522589D02*
X0374539Y0521800D01*
X0378246Y0521800D01*
X0381800Y0518246D01*
X0381800Y0496250D01*
X0385750Y0492300D01*
X0386781Y0492300D01*
X0394081Y0485000D01*
X0395000Y0485000D01*
X0399300Y0485284D02*
X0433950Y0485284D01*
X0433950Y0485855D02*
X0433950Y0484145D01*
X0434605Y0482564D01*
X0435814Y0481355D01*
X0437395Y0480700D01*
X0445105Y0480700D01*
X0446686Y0481355D01*
X0447895Y0482564D01*
X0448550Y0484145D01*
X0448550Y0485855D01*
X0447895Y0487436D01*
X0446686Y0488645D01*
X0445105Y0489300D01*
X0437395Y0489300D01*
X0435814Y0488645D01*
X0434605Y0487436D01*
X0433950Y0485855D01*
X0434127Y0486282D02*
X0399300Y0486282D01*
X0399300Y0487281D02*
X0434541Y0487281D01*
X0435448Y0488279D02*
X0399300Y0488279D01*
X0399125Y0489278D02*
X0414200Y0489278D01*
X0414200Y0489112D02*
X0414962Y0488350D01*
X0425038Y0488350D01*
X0425800Y0489112D01*
X0425800Y0499188D01*
X0425038Y0499950D01*
X0414962Y0499950D01*
X0414200Y0499188D01*
X0414200Y0489112D01*
X0414200Y0490277D02*
X0398711Y0490277D01*
X0397806Y0491275D02*
X0414200Y0491275D01*
X0414200Y0492274D02*
X0395919Y0492274D01*
X0394081Y0492274D02*
X0389353Y0492274D01*
X0388355Y0493272D02*
X0414200Y0493272D01*
X0414200Y0494271D02*
X0386325Y0494271D01*
X0385327Y0495269D02*
X0414200Y0495269D01*
X0414200Y0496268D02*
X0384328Y0496268D01*
X0383600Y0497266D02*
X0393067Y0497266D01*
X0393131Y0497202D02*
X0394344Y0496700D01*
X0395656Y0496700D01*
X0396869Y0497202D01*
X0397798Y0498131D01*
X0398300Y0499344D01*
X0398300Y0500656D01*
X0397798Y0501869D01*
X0397308Y0502359D01*
X0397719Y0502769D01*
X0398102Y0503342D01*
X0398365Y0503979D01*
X0398500Y0504655D01*
X0398500Y0504875D01*
X0395125Y0504875D01*
X0395125Y0505125D01*
X0398500Y0505125D01*
X0398500Y0505345D01*
X0398365Y0506021D01*
X0398102Y0506658D01*
X0397719Y0507231D01*
X0397308Y0507641D01*
X0397798Y0508131D01*
X0398300Y0509344D01*
X0398300Y0510656D01*
X0397798Y0511869D01*
X0397167Y0512500D01*
X0397798Y0513131D01*
X0398300Y0514344D01*
X0398300Y0515656D01*
X0397798Y0516869D01*
X0396869Y0517798D01*
X0395656Y0518300D01*
X0394344Y0518300D01*
X0393131Y0517798D01*
X0392202Y0516869D01*
X0391700Y0515656D01*
X0391700Y0514344D01*
X0392202Y0513131D01*
X0392833Y0512500D01*
X0392202Y0511869D01*
X0391700Y0510656D01*
X0391700Y0509344D01*
X0392202Y0508131D01*
X0392692Y0507641D01*
X0392281Y0507231D01*
X0391898Y0506658D01*
X0391634Y0506021D01*
X0391500Y0505345D01*
X0391500Y0505125D01*
X0394875Y0505125D01*
X0394875Y0504875D01*
X0391500Y0504875D01*
X0391500Y0504655D01*
X0391634Y0503979D01*
X0391898Y0503342D01*
X0392281Y0502769D01*
X0392692Y0502359D01*
X0392202Y0501869D01*
X0391700Y0500656D01*
X0391700Y0499344D01*
X0392202Y0498131D01*
X0393131Y0497202D01*
X0392147Y0498265D02*
X0383600Y0498265D01*
X0383600Y0499263D02*
X0391733Y0499263D01*
X0391700Y0500262D02*
X0383600Y0500262D01*
X0383600Y0501260D02*
X0391950Y0501260D01*
X0392592Y0502259D02*
X0383600Y0502259D01*
X0383600Y0503257D02*
X0391955Y0503257D01*
X0391579Y0504256D02*
X0383600Y0504256D01*
X0383600Y0505254D02*
X0391500Y0505254D01*
X0391731Y0506253D02*
X0383600Y0506253D01*
X0383600Y0507251D02*
X0392301Y0507251D01*
X0392153Y0508250D02*
X0383600Y0508250D01*
X0383600Y0509248D02*
X0391739Y0509248D01*
X0391700Y0510247D02*
X0383600Y0510247D01*
X0383600Y0511245D02*
X0391944Y0511245D01*
X0392577Y0512244D02*
X0383600Y0512244D01*
X0383600Y0513242D02*
X0392156Y0513242D01*
X0391743Y0514241D02*
X0383600Y0514241D01*
X0383600Y0515239D02*
X0391700Y0515239D01*
X0391941Y0516238D02*
X0383600Y0516238D01*
X0383600Y0517236D02*
X0392569Y0517236D01*
X0394186Y0518235D02*
X0383600Y0518235D01*
X0383358Y0519233D02*
X0414000Y0519233D01*
X0413875Y0519233D02*
X0426125Y0519233D01*
X0426000Y0519233D02*
X0456187Y0519233D01*
X0456187Y0519260D02*
X0456187Y0517578D01*
X0456289Y0517197D01*
X0456487Y0516855D01*
X0456766Y0516575D01*
X0457108Y0516378D01*
X0457490Y0516276D01*
X0462518Y0516276D01*
X0462518Y0519260D01*
X0456187Y0519260D01*
X0456187Y0520228D02*
X0462518Y0520228D01*
X0462518Y0523213D01*
X0457490Y0523213D01*
X0457108Y0523110D01*
X0456766Y0522913D01*
X0456487Y0522634D01*
X0456289Y0522292D01*
X0456187Y0521910D01*
X0456187Y0520228D01*
X0456187Y0520232D02*
X0426000Y0520232D01*
X0426125Y0520232D02*
X0413875Y0520232D01*
X0414000Y0520232D02*
X0382359Y0520232D01*
X0381361Y0521230D02*
X0414276Y0521230D01*
X0414300Y0521271D02*
X0414102Y0520929D01*
X0414000Y0520547D01*
X0414000Y0516350D01*
X0419500Y0516350D01*
X0419500Y0521850D01*
X0415303Y0521850D01*
X0414921Y0521748D01*
X0414579Y0521550D01*
X0414300Y0521271D01*
X0413875Y0521230D02*
X0426125Y0521230D01*
X0425898Y0520929D02*
X0425700Y0521271D01*
X0425421Y0521550D01*
X0425079Y0521748D01*
X0424697Y0521850D01*
X0420500Y0521850D01*
X0420500Y0516350D01*
X0426000Y0516350D01*
X0426000Y0520547D01*
X0425898Y0520929D01*
X0425724Y0521230D02*
X0456187Y0521230D01*
X0456272Y0522229D02*
X0380362Y0522229D01*
X0379364Y0523227D02*
X0468350Y0523227D01*
X0463486Y0522229D02*
X0462518Y0522229D01*
X0462518Y0521230D02*
X0463486Y0521230D01*
X0463486Y0520232D02*
X0462518Y0520232D01*
X0462518Y0519233D02*
X0463486Y0519233D01*
X0463486Y0518235D02*
X0462518Y0518235D01*
X0462518Y0517236D02*
X0463486Y0517236D01*
X0468350Y0516238D02*
X0420500Y0516238D01*
X0420500Y0516350D02*
X0420500Y0515350D01*
X0426000Y0515350D01*
X0426000Y0511153D01*
X0425898Y0510771D01*
X0425700Y0510429D01*
X0425421Y0510150D01*
X0425079Y0509952D01*
X0424697Y0509850D01*
X0420500Y0509850D01*
X0420500Y0515350D01*
X0419500Y0515350D01*
X0419500Y0509850D01*
X0415303Y0509850D01*
X0414921Y0509952D01*
X0414579Y0510150D01*
X0414300Y0510429D01*
X0414102Y0510771D01*
X0414000Y0511153D01*
X0414000Y0515350D01*
X0419500Y0515350D01*
X0419500Y0516350D01*
X0420500Y0516350D01*
X0420500Y0517236D02*
X0419500Y0517236D01*
X0419500Y0516238D02*
X0398059Y0516238D01*
X0398300Y0515239D02*
X0414000Y0515239D01*
X0413875Y0515239D02*
X0426125Y0515239D01*
X0426000Y0515239D02*
X0468350Y0515239D01*
X0468350Y0514241D02*
X0454989Y0514241D01*
X0455050Y0514180D02*
X0454288Y0514942D01*
X0446519Y0514942D01*
X0445757Y0514180D01*
X0445757Y0510741D01*
X0446498Y0510000D01*
X0445757Y0509259D01*
X0445757Y0505820D01*
X0446519Y0505058D01*
X0454288Y0505058D01*
X0454641Y0505411D01*
X0457326Y0505411D01*
X0458439Y0506524D01*
X0458901Y0506986D01*
X0459331Y0507417D01*
X0460269Y0507805D01*
X0460998Y0508533D01*
X0461392Y0509485D01*
X0461392Y0510515D01*
X0460998Y0511467D01*
X0460269Y0512195D01*
X0459318Y0512589D01*
X0458288Y0512589D01*
X0457336Y0512195D01*
X0457114Y0511972D01*
X0456891Y0512195D01*
X0455940Y0512589D01*
X0455050Y0512589D01*
X0455050Y0514180D01*
X0455050Y0513242D02*
X0468350Y0513242D01*
X0468350Y0512244D02*
X0460151Y0512244D01*
X0461089Y0511245D02*
X0468350Y0511245D01*
X0468350Y0510247D02*
X0461392Y0510247D01*
X0461294Y0509248D02*
X0468350Y0509248D01*
X0468350Y0508250D02*
X0460714Y0508250D01*
X0459166Y0507251D02*
X0468350Y0507251D01*
X0468350Y0506253D02*
X0458167Y0506253D01*
X0458439Y0506524D02*
X0458439Y0506524D01*
X0458901Y0506986D02*
X0458901Y0506986D01*
X0456598Y0503257D02*
X0398045Y0503257D01*
X0398420Y0504256D02*
X0468350Y0504256D01*
X0468350Y0505254D02*
X0454484Y0505254D01*
X0456187Y0502259D02*
X0397408Y0502259D01*
X0398050Y0501260D02*
X0456187Y0501260D01*
X0456187Y0499263D02*
X0445194Y0499263D01*
X0445105Y0499300D02*
X0446686Y0498645D01*
X0447895Y0497436D01*
X0448550Y0495855D01*
X0448550Y0494145D01*
X0447895Y0492564D01*
X0446686Y0491355D01*
X0445105Y0490700D01*
X0437395Y0490700D01*
X0435814Y0491355D01*
X0434605Y0492564D01*
X0433950Y0494145D01*
X0433950Y0495855D01*
X0434605Y0497436D01*
X0435814Y0498645D01*
X0437395Y0499300D01*
X0445105Y0499300D01*
X0447067Y0498265D02*
X0456187Y0498265D01*
X0456587Y0497266D02*
X0447966Y0497266D01*
X0448379Y0496268D02*
X0468350Y0496268D01*
X0468350Y0495269D02*
X0448550Y0495269D01*
X0448550Y0494271D02*
X0468350Y0494271D01*
X0468350Y0493272D02*
X0448189Y0493272D01*
X0447605Y0492274D02*
X0468350Y0492274D01*
X0468350Y0491275D02*
X0446494Y0491275D01*
X0445158Y0489278D02*
X0468350Y0489278D01*
X0468350Y0490277D02*
X0425800Y0490277D01*
X0425800Y0491275D02*
X0436006Y0491275D01*
X0434895Y0492274D02*
X0425800Y0492274D01*
X0425800Y0493272D02*
X0434311Y0493272D01*
X0433950Y0494271D02*
X0425800Y0494271D01*
X0425800Y0495269D02*
X0433950Y0495269D01*
X0434121Y0496268D02*
X0425800Y0496268D01*
X0425800Y0497266D02*
X0434534Y0497266D01*
X0435433Y0498265D02*
X0425800Y0498265D01*
X0425725Y0499263D02*
X0437306Y0499263D01*
X0437342Y0489278D02*
X0425800Y0489278D01*
X0433950Y0484285D02*
X0399300Y0484285D01*
X0399300Y0483287D02*
X0434305Y0483287D01*
X0434880Y0482288D02*
X0399300Y0482288D01*
X0399300Y0481290D02*
X0435971Y0481290D01*
X0439485Y0472589D02*
X0438533Y0472195D01*
X0437805Y0471467D01*
X0437411Y0470515D01*
X0437411Y0469485D01*
X0437805Y0468533D01*
X0438533Y0467805D01*
X0439485Y0467411D01*
X0440515Y0467411D01*
X0441467Y0467805D01*
X0441561Y0467900D01*
X0445204Y0467900D01*
X0445524Y0467580D01*
X0445757Y0467580D01*
X0445757Y0465820D01*
X0446519Y0465058D01*
X0454288Y0465058D01*
X0454641Y0465411D01*
X0457326Y0465411D01*
X0458439Y0466524D01*
X0459331Y0467417D01*
X0460269Y0467805D01*
X0460998Y0468533D01*
X0461392Y0469485D01*
X0461392Y0470515D01*
X0460998Y0471467D01*
X0460269Y0472195D01*
X0459318Y0472589D01*
X0458288Y0472589D01*
X0457336Y0472195D01*
X0457114Y0471972D01*
X0456891Y0472195D01*
X0455940Y0472589D01*
X0455050Y0472589D01*
X0455050Y0474180D01*
X0454288Y0474942D01*
X0446519Y0474942D01*
X0445757Y0474180D01*
X0445757Y0472100D01*
X0441561Y0472100D01*
X0441467Y0472195D01*
X0440515Y0472589D01*
X0439485Y0472589D01*
X0438795Y0472303D02*
X0271650Y0472303D01*
X0271650Y0471305D02*
X0437738Y0471305D01*
X0437411Y0470306D02*
X0271650Y0470306D01*
X0271650Y0469308D02*
X0437484Y0469308D01*
X0438029Y0468309D02*
X0271650Y0468309D01*
X0271650Y0467311D02*
X0445757Y0467311D01*
X0445757Y0466312D02*
X0271650Y0466312D01*
X0271650Y0465314D02*
X0446263Y0465314D01*
X0445757Y0472303D02*
X0441205Y0472303D01*
X0445757Y0473302D02*
X0271650Y0473302D01*
X0271650Y0474300D02*
X0445877Y0474300D01*
X0446529Y0481290D02*
X0456187Y0481290D01*
X0456187Y0481910D02*
X0456187Y0480228D01*
X0462518Y0480228D01*
X0462518Y0483213D01*
X0457490Y0483213D01*
X0457108Y0483110D01*
X0456766Y0482913D01*
X0456487Y0482634D01*
X0456289Y0482292D01*
X0456187Y0481910D01*
X0456288Y0482288D02*
X0447620Y0482288D01*
X0448195Y0483287D02*
X0468350Y0483287D01*
X0468350Y0484285D02*
X0448550Y0484285D01*
X0448550Y0485284D02*
X0468350Y0485284D01*
X0468350Y0486282D02*
X0448373Y0486282D01*
X0447959Y0487281D02*
X0468350Y0487281D01*
X0468350Y0488279D02*
X0447052Y0488279D01*
X0456187Y0480291D02*
X0398947Y0480291D01*
X0398374Y0479293D02*
X0462518Y0479293D01*
X0462518Y0479260D02*
X0456187Y0479260D01*
X0456187Y0477578D01*
X0456289Y0477197D01*
X0456487Y0476855D01*
X0456766Y0476575D01*
X0457108Y0476378D01*
X0457490Y0476276D01*
X0462518Y0476276D01*
X0462518Y0479260D01*
X0462518Y0478294D02*
X0463486Y0478294D01*
X0463486Y0477296D02*
X0462518Y0477296D01*
X0462518Y0476297D02*
X0463486Y0476297D01*
X0463486Y0480291D02*
X0462518Y0480291D01*
X0462518Y0481290D02*
X0463486Y0481290D01*
X0463486Y0482288D02*
X0462518Y0482288D01*
X0456187Y0478294D02*
X0397290Y0478294D01*
X0392710Y0478294D02*
X0387290Y0478294D01*
X0388374Y0479293D02*
X0391626Y0479293D01*
X0391053Y0480291D02*
X0388947Y0480291D01*
X0389300Y0481290D02*
X0390700Y0481290D01*
X0390700Y0482288D02*
X0389300Y0482288D01*
X0389300Y0483287D02*
X0390700Y0483287D01*
X0390700Y0484285D02*
X0389300Y0484285D01*
X0389300Y0485284D02*
X0390700Y0485284D01*
X0390253Y0486282D02*
X0389300Y0486282D01*
X0385000Y0485000D02*
X0380000Y0490000D01*
X0380000Y0517500D01*
X0377500Y0520000D01*
X0370000Y0520000D01*
X0368104Y0518235D02*
X0271650Y0518235D01*
X0271650Y0519233D02*
X0367515Y0519233D01*
X0367411Y0520232D02*
X0271650Y0520232D01*
X0271650Y0521230D02*
X0367707Y0521230D01*
X0368616Y0522229D02*
X0271650Y0522229D01*
X0271650Y0523227D02*
X0371212Y0523227D01*
X0371726Y0524226D02*
X0271650Y0524226D01*
X0271650Y0517236D02*
X0377718Y0517236D01*
X0378200Y0516238D02*
X0271650Y0516238D01*
X0271650Y0515239D02*
X0378200Y0515239D01*
X0378200Y0514241D02*
X0271650Y0514241D01*
X0271650Y0513242D02*
X0378200Y0513242D01*
X0378200Y0512244D02*
X0271650Y0512244D01*
X0271650Y0511245D02*
X0378200Y0511245D01*
X0378200Y0510247D02*
X0271650Y0510247D01*
X0271650Y0509248D02*
X0378200Y0509248D01*
X0378200Y0508250D02*
X0271650Y0508250D01*
X0271650Y0507251D02*
X0378200Y0507251D01*
X0378200Y0506253D02*
X0271650Y0506253D01*
X0271650Y0505254D02*
X0378200Y0505254D01*
X0378200Y0504256D02*
X0271650Y0504256D01*
X0271650Y0503257D02*
X0378200Y0503257D01*
X0378200Y0502259D02*
X0271650Y0502259D01*
X0271650Y0501260D02*
X0378200Y0501260D01*
X0378200Y0500262D02*
X0271650Y0500262D01*
X0271650Y0499263D02*
X0378200Y0499263D01*
X0378200Y0498265D02*
X0271650Y0498265D01*
X0271650Y0497266D02*
X0378200Y0497266D01*
X0378200Y0496268D02*
X0271650Y0496268D01*
X0271650Y0495269D02*
X0378200Y0495269D01*
X0378200Y0494271D02*
X0271650Y0494271D01*
X0271650Y0493272D02*
X0378200Y0493272D01*
X0378200Y0492274D02*
X0271650Y0492274D01*
X0271650Y0491275D02*
X0378200Y0491275D01*
X0378200Y0490277D02*
X0271650Y0490277D01*
X0271650Y0489278D02*
X0378200Y0489278D01*
X0379175Y0488279D02*
X0271650Y0488279D01*
X0271650Y0487281D02*
X0380173Y0487281D01*
X0380700Y0486282D02*
X0271650Y0486282D01*
X0271650Y0485284D02*
X0380700Y0485284D01*
X0380700Y0484285D02*
X0271650Y0484285D01*
X0271650Y0483287D02*
X0380700Y0483287D01*
X0380700Y0482288D02*
X0271650Y0482288D01*
X0271650Y0481290D02*
X0380700Y0481290D01*
X0381053Y0480291D02*
X0271650Y0480291D01*
X0271650Y0479293D02*
X0381626Y0479293D01*
X0382710Y0478294D02*
X0271650Y0478294D01*
X0271650Y0477296D02*
X0456263Y0477296D01*
X0457408Y0476297D02*
X0271650Y0476297D01*
X0271650Y0475299D02*
X0468350Y0475299D01*
X0468350Y0474300D02*
X0454930Y0474300D01*
X0455050Y0473302D02*
X0468350Y0473302D01*
X0468350Y0472303D02*
X0460007Y0472303D01*
X0461065Y0471305D02*
X0468350Y0471305D01*
X0468350Y0470306D02*
X0461392Y0470306D01*
X0461318Y0469308D02*
X0468350Y0469308D01*
X0468350Y0468309D02*
X0460773Y0468309D01*
X0459225Y0467311D02*
X0468350Y0467311D01*
X0468350Y0466312D02*
X0458227Y0466312D01*
X0456658Y0463317D02*
X0271650Y0463317D01*
X0271650Y0464315D02*
X0468350Y0464315D01*
X0468350Y0465314D02*
X0454544Y0465314D01*
X0456187Y0462318D02*
X0271650Y0462318D01*
X0271650Y0461320D02*
X0456187Y0461320D01*
X0456187Y0459323D02*
X0271650Y0459323D01*
X0271650Y0460321D02*
X0462518Y0460321D01*
X0462518Y0459323D02*
X0463486Y0459323D01*
X0463486Y0458324D02*
X0462518Y0458324D01*
X0462518Y0457326D02*
X0463486Y0457326D01*
X0463486Y0461320D02*
X0462518Y0461320D01*
X0462518Y0462318D02*
X0463486Y0462318D01*
X0463486Y0463317D02*
X0462518Y0463317D01*
X0456187Y0458324D02*
X0271650Y0458324D01*
X0271650Y0457326D02*
X0456527Y0457326D01*
X0456631Y0453200D02*
X0453369Y0453200D01*
X0450355Y0451952D01*
X0448048Y0449645D01*
X0448048Y0449645D01*
X0446800Y0446631D01*
X0446800Y0443369D01*
X0448048Y0440355D01*
X0450355Y0438048D01*
X0453369Y0436800D01*
X0455373Y0436800D01*
X0456631Y0436800D01*
X0456631Y0436800D01*
X0459645Y0438048D01*
X0461952Y0440355D01*
X0463200Y0443369D01*
X0463200Y0446631D01*
X0461952Y0449645D01*
X0459645Y0451952D01*
X0456631Y0453200D01*
X0458724Y0452333D02*
X0468350Y0452333D01*
X0468350Y0451335D02*
X0460262Y0451335D01*
X0459645Y0451952D02*
X0459645Y0451952D01*
X0461260Y0450336D02*
X0468350Y0450336D01*
X0468350Y0449338D02*
X0462079Y0449338D01*
X0461952Y0449645D02*
X0461952Y0449645D01*
X0462493Y0448339D02*
X0468350Y0448339D01*
X0468350Y0447341D02*
X0462906Y0447341D01*
X0463200Y0446342D02*
X0468350Y0446342D01*
X0468350Y0445343D02*
X0463200Y0445343D01*
X0463200Y0444345D02*
X0468350Y0444345D01*
X0468350Y0443346D02*
X0463191Y0443346D01*
X0462777Y0442348D02*
X0468350Y0442348D01*
X0468350Y0441349D02*
X0462363Y0441349D01*
X0461952Y0440355D02*
X0461952Y0440355D01*
X0461947Y0440351D02*
X0468350Y0440351D01*
X0468350Y0439352D02*
X0460949Y0439352D01*
X0459950Y0438354D02*
X0468350Y0438354D01*
X0468350Y0437355D02*
X0457972Y0437355D01*
X0459645Y0438048D02*
X0459645Y0438048D01*
X0452028Y0437355D02*
X0287972Y0437355D01*
X0286631Y0436800D02*
X0289645Y0438048D01*
X0291952Y0440355D01*
X0293200Y0443369D01*
X0293200Y0446631D01*
X0291952Y0449645D01*
X0289645Y0451952D01*
X0286631Y0453200D01*
X0283369Y0453200D01*
X0280355Y0451952D01*
X0278048Y0449645D01*
X0278048Y0449645D01*
X0276800Y0446631D01*
X0276800Y0443369D01*
X0278048Y0440355D01*
X0280355Y0438048D01*
X0283369Y0436800D01*
X0285373Y0436800D01*
X0286631Y0436800D01*
X0289645Y0438048D02*
X0289645Y0438048D01*
X0289950Y0438354D02*
X0450050Y0438354D01*
X0450355Y0438048D02*
X0450355Y0438048D01*
X0449051Y0439352D02*
X0290949Y0439352D01*
X0291947Y0440351D02*
X0448053Y0440351D01*
X0448048Y0440355D02*
X0448048Y0440355D01*
X0447636Y0441349D02*
X0292363Y0441349D01*
X0291952Y0440355D02*
X0291952Y0440355D01*
X0291952Y0440355D01*
X0292777Y0442348D02*
X0447223Y0442348D01*
X0446809Y0443346D02*
X0293191Y0443346D01*
X0293200Y0444345D02*
X0446800Y0444345D01*
X0446800Y0445343D02*
X0293200Y0445343D01*
X0293200Y0446342D02*
X0446800Y0446342D01*
X0447094Y0447341D02*
X0292906Y0447341D01*
X0292493Y0448339D02*
X0447507Y0448339D01*
X0447921Y0449338D02*
X0292079Y0449338D01*
X0291952Y0449645D02*
X0291952Y0449645D01*
X0291260Y0450336D02*
X0448740Y0450336D01*
X0449738Y0451335D02*
X0290262Y0451335D01*
X0289645Y0451952D02*
X0289645Y0451952D01*
X0288724Y0452333D02*
X0451276Y0452333D01*
X0450355Y0451952D02*
X0450355Y0451952D01*
X0468350Y0453332D02*
X0271650Y0453332D01*
X0271650Y0454330D02*
X0468350Y0454330D01*
X0468350Y0455329D02*
X0271650Y0455329D01*
X0271650Y0456327D02*
X0468350Y0456327D01*
X0457598Y0472303D02*
X0456629Y0472303D01*
X0462518Y0497266D02*
X0463486Y0497266D01*
X0463486Y0498265D02*
X0462518Y0498265D01*
X0462518Y0499263D02*
X0463486Y0499263D01*
X0462518Y0500262D02*
X0398300Y0500262D01*
X0398267Y0499263D02*
X0414275Y0499263D01*
X0414200Y0498265D02*
X0397853Y0498265D01*
X0396933Y0497266D02*
X0414200Y0497266D01*
X0413875Y0507375D02*
X0413875Y0523625D01*
X0426125Y0523625D01*
X0426125Y0507375D01*
X0413875Y0507375D01*
X0413875Y0508250D02*
X0426125Y0508250D01*
X0426125Y0509248D02*
X0413875Y0509248D01*
X0413875Y0510247D02*
X0426125Y0510247D01*
X0425518Y0510247D02*
X0446251Y0510247D01*
X0445757Y0511245D02*
X0426000Y0511245D01*
X0426125Y0511245D02*
X0413875Y0511245D01*
X0414000Y0511245D02*
X0398056Y0511245D01*
X0398300Y0510247D02*
X0414482Y0510247D01*
X0414000Y0512244D02*
X0397423Y0512244D01*
X0397844Y0513242D02*
X0414000Y0513242D01*
X0413875Y0513242D02*
X0426125Y0513242D01*
X0426000Y0513242D02*
X0445757Y0513242D01*
X0445757Y0512244D02*
X0426000Y0512244D01*
X0426125Y0512244D02*
X0413875Y0512244D01*
X0413875Y0514241D02*
X0426125Y0514241D01*
X0426000Y0514241D02*
X0445818Y0514241D01*
X0445757Y0509248D02*
X0398260Y0509248D01*
X0397847Y0508250D02*
X0445757Y0508250D01*
X0445757Y0507251D02*
X0397699Y0507251D01*
X0398269Y0506253D02*
X0445757Y0506253D01*
X0446323Y0505254D02*
X0398500Y0505254D01*
X0398257Y0514241D02*
X0414000Y0514241D01*
X0413875Y0516238D02*
X0426125Y0516238D01*
X0426125Y0517236D02*
X0413875Y0517236D01*
X0414000Y0517236D02*
X0397431Y0517236D01*
X0395814Y0518235D02*
X0414000Y0518235D01*
X0413875Y0518235D02*
X0426125Y0518235D01*
X0426000Y0518235D02*
X0456187Y0518235D01*
X0456279Y0517236D02*
X0426000Y0517236D01*
X0426125Y0522229D02*
X0413875Y0522229D01*
X0413875Y0523227D02*
X0426125Y0523227D01*
X0420500Y0521230D02*
X0419500Y0521230D01*
X0419500Y0520232D02*
X0420500Y0520232D01*
X0420500Y0519233D02*
X0419500Y0519233D01*
X0419500Y0518235D02*
X0420500Y0518235D01*
X0420500Y0515239D02*
X0419500Y0515239D01*
X0419500Y0514241D02*
X0420500Y0514241D01*
X0420500Y0513242D02*
X0419500Y0513242D01*
X0419500Y0512244D02*
X0420500Y0512244D01*
X0420500Y0511245D02*
X0419500Y0511245D01*
X0419500Y0510247D02*
X0420500Y0510247D01*
X0392194Y0491275D02*
X0390352Y0491275D01*
X0368292Y0531215D02*
X0361708Y0531215D01*
X0362351Y0531482D02*
X0363518Y0532649D01*
X0364150Y0534175D01*
X0364150Y0535825D01*
X0363518Y0537351D01*
X0362351Y0538518D01*
X0360825Y0539150D01*
X0359175Y0539150D01*
X0357649Y0538518D01*
X0356482Y0537351D01*
X0355850Y0535825D01*
X0355850Y0534175D01*
X0356482Y0532649D01*
X0357649Y0531482D01*
X0359175Y0530850D01*
X0360825Y0530850D01*
X0362351Y0531482D01*
X0363083Y0532214D02*
X0366917Y0532214D01*
X0366248Y0533212D02*
X0363752Y0533212D01*
X0364150Y0534211D02*
X0365850Y0534211D01*
X0365850Y0535210D02*
X0364150Y0535210D01*
X0363992Y0536208D02*
X0366008Y0536208D01*
X0366422Y0537207D02*
X0363578Y0537207D01*
X0362664Y0538205D02*
X0367336Y0538205D01*
X0357336Y0538205D02*
X0352664Y0538205D01*
X0352351Y0538518D02*
X0350825Y0539150D01*
X0349175Y0539150D01*
X0347649Y0538518D01*
X0346482Y0537351D01*
X0345850Y0535825D01*
X0345850Y0534175D01*
X0346482Y0532649D01*
X0347649Y0531482D01*
X0349175Y0530850D01*
X0350825Y0530850D01*
X0352351Y0531482D01*
X0353518Y0532649D01*
X0354150Y0534175D01*
X0354150Y0535825D01*
X0353518Y0537351D01*
X0352351Y0538518D01*
X0353578Y0537207D02*
X0356422Y0537207D01*
X0356008Y0536208D02*
X0353992Y0536208D01*
X0354150Y0535210D02*
X0355850Y0535210D01*
X0355850Y0534211D02*
X0354150Y0534211D01*
X0353752Y0533212D02*
X0356248Y0533212D01*
X0356917Y0532214D02*
X0353083Y0532214D01*
X0351708Y0531215D02*
X0358292Y0531215D01*
X0348292Y0531215D02*
X0341708Y0531215D01*
X0342351Y0531482D02*
X0343518Y0532649D01*
X0344150Y0534175D01*
X0344150Y0535825D01*
X0343518Y0537351D01*
X0342351Y0538518D01*
X0340825Y0539150D01*
X0339175Y0539150D01*
X0337649Y0538518D01*
X0336482Y0537351D01*
X0335850Y0535825D01*
X0335850Y0534175D01*
X0336482Y0532649D01*
X0337649Y0531482D01*
X0339175Y0530850D01*
X0340825Y0530850D01*
X0342351Y0531482D01*
X0343083Y0532214D02*
X0346917Y0532214D01*
X0346248Y0533212D02*
X0343752Y0533212D01*
X0344150Y0534211D02*
X0345850Y0534211D01*
X0345850Y0535210D02*
X0344150Y0535210D01*
X0343992Y0536208D02*
X0346008Y0536208D01*
X0346422Y0537207D02*
X0343578Y0537207D01*
X0342664Y0538205D02*
X0347336Y0538205D01*
X0337336Y0538205D02*
X0332664Y0538205D01*
X0333578Y0537207D02*
X0336422Y0537207D01*
X0336008Y0536208D02*
X0333992Y0536208D01*
X0334150Y0535210D02*
X0335850Y0535210D01*
X0335850Y0534211D02*
X0334150Y0534211D01*
X0333752Y0533212D02*
X0336248Y0533212D01*
X0336917Y0532214D02*
X0333083Y0532214D01*
X0331708Y0531215D02*
X0338292Y0531215D01*
X0359485Y0582411D02*
X0360515Y0582411D01*
X0361467Y0582805D01*
X0362195Y0583533D01*
X0362589Y0584485D01*
X0362589Y0585515D01*
X0362195Y0586467D01*
X0361467Y0587195D01*
X0360515Y0587589D01*
X0359485Y0587589D01*
X0359270Y0587500D01*
X0331036Y0587500D01*
X0327500Y0591036D01*
X0327500Y0591631D01*
X0327649Y0591482D01*
X0329175Y0590850D01*
X0330825Y0590850D01*
X0332351Y0591482D01*
X0333518Y0592649D01*
X0334150Y0594175D01*
X0334150Y0595825D01*
X0333518Y0597351D01*
X0332351Y0598518D01*
X0330825Y0599150D01*
X0329175Y0599150D01*
X0327649Y0598518D01*
X0327500Y0598369D01*
X0327500Y0599270D01*
X0327589Y0599485D01*
X0327589Y0600515D01*
X0327195Y0601467D01*
X0326467Y0602195D01*
X0325515Y0602589D01*
X0324485Y0602589D01*
X0323533Y0602195D01*
X0322805Y0601467D01*
X0322411Y0600515D01*
X0322411Y0599485D01*
X0322500Y0599270D01*
X0322500Y0589503D01*
X0322881Y0588584D01*
X0323584Y0587881D01*
X0327881Y0583584D01*
X0328584Y0582881D01*
X0329503Y0582500D01*
X0359270Y0582500D01*
X0359485Y0582411D01*
X0361799Y0583138D02*
X0468350Y0583138D01*
X0468350Y0582140D02*
X0271650Y0582140D01*
X0271650Y0583138D02*
X0328326Y0583138D01*
X0327328Y0584137D02*
X0271650Y0584137D01*
X0271650Y0585135D02*
X0326329Y0585135D01*
X0325331Y0586134D02*
X0271650Y0586134D01*
X0271650Y0587132D02*
X0324332Y0587132D01*
X0323334Y0588131D02*
X0271650Y0588131D01*
X0271650Y0589129D02*
X0322655Y0589129D01*
X0322500Y0590128D02*
X0271650Y0590128D01*
X0271650Y0591126D02*
X0322500Y0591126D01*
X0322500Y0592125D02*
X0271650Y0592125D01*
X0271650Y0593123D02*
X0322500Y0593123D01*
X0322500Y0594122D02*
X0271650Y0594122D01*
X0271650Y0595120D02*
X0322500Y0595120D01*
X0322500Y0596119D02*
X0271650Y0596119D01*
X0271650Y0597117D02*
X0322500Y0597117D01*
X0322500Y0598116D02*
X0271650Y0598116D01*
X0271650Y0599114D02*
X0322500Y0599114D01*
X0322411Y0600113D02*
X0271650Y0600113D01*
X0271650Y0601111D02*
X0322658Y0601111D01*
X0323448Y0602110D02*
X0271650Y0602110D01*
X0271650Y0603108D02*
X0468350Y0603108D01*
X0468350Y0602110D02*
X0326552Y0602110D01*
X0327342Y0601111D02*
X0468350Y0601111D01*
X0468350Y0600113D02*
X0327589Y0600113D01*
X0327500Y0599114D02*
X0329088Y0599114D01*
X0330912Y0599114D02*
X0339088Y0599114D01*
X0339175Y0599150D02*
X0337649Y0598518D01*
X0336482Y0597351D01*
X0335850Y0595825D01*
X0335850Y0594175D01*
X0336482Y0592649D01*
X0337649Y0591482D01*
X0339175Y0590850D01*
X0340825Y0590850D01*
X0342351Y0591482D01*
X0343518Y0592649D01*
X0344150Y0594175D01*
X0344150Y0595825D01*
X0343518Y0597351D01*
X0342351Y0598518D01*
X0340825Y0599150D01*
X0339175Y0599150D01*
X0340912Y0599114D02*
X0349088Y0599114D01*
X0349175Y0599150D02*
X0347649Y0598518D01*
X0346482Y0597351D01*
X0345850Y0595825D01*
X0345850Y0594175D01*
X0346482Y0592649D01*
X0347649Y0591482D01*
X0349175Y0590850D01*
X0350825Y0590850D01*
X0352351Y0591482D01*
X0353518Y0592649D01*
X0354150Y0594175D01*
X0354150Y0595825D01*
X0353518Y0597351D01*
X0352351Y0598518D01*
X0350825Y0599150D01*
X0349175Y0599150D01*
X0350912Y0599114D02*
X0359088Y0599114D01*
X0359175Y0599150D02*
X0357649Y0598518D01*
X0356482Y0597351D01*
X0355850Y0595825D01*
X0355850Y0594175D01*
X0356482Y0592649D01*
X0357649Y0591482D01*
X0359175Y0590850D01*
X0360825Y0590850D01*
X0362351Y0591482D01*
X0363518Y0592649D01*
X0364150Y0594175D01*
X0364150Y0595825D01*
X0363518Y0597351D01*
X0362351Y0598518D01*
X0360825Y0599150D01*
X0359175Y0599150D01*
X0360912Y0599114D02*
X0369088Y0599114D01*
X0369175Y0599150D02*
X0367649Y0598518D01*
X0366482Y0597351D01*
X0365850Y0595825D01*
X0365850Y0594175D01*
X0366482Y0592649D01*
X0367649Y0591482D01*
X0369175Y0590850D01*
X0370825Y0590850D01*
X0372351Y0591482D01*
X0373518Y0592649D01*
X0374150Y0594175D01*
X0374150Y0595825D01*
X0373518Y0597351D01*
X0372351Y0598518D01*
X0370825Y0599150D01*
X0369175Y0599150D01*
X0370912Y0599114D02*
X0379088Y0599114D01*
X0379175Y0599150D02*
X0377649Y0598518D01*
X0376482Y0597351D01*
X0375850Y0595825D01*
X0375850Y0594175D01*
X0376482Y0592649D01*
X0377649Y0591482D01*
X0379175Y0590850D01*
X0380825Y0590850D01*
X0382351Y0591482D01*
X0383518Y0592649D01*
X0384150Y0594175D01*
X0384150Y0595825D01*
X0383518Y0597351D01*
X0382351Y0598518D01*
X0380825Y0599150D01*
X0379175Y0599150D01*
X0380912Y0599114D02*
X0389088Y0599114D01*
X0389175Y0599150D02*
X0387649Y0598518D01*
X0386482Y0597351D01*
X0385850Y0595825D01*
X0385850Y0594175D01*
X0386482Y0592649D01*
X0387649Y0591482D01*
X0389175Y0590850D01*
X0390825Y0590850D01*
X0392351Y0591482D01*
X0393518Y0592649D01*
X0394150Y0594175D01*
X0394150Y0595825D01*
X0393518Y0597351D01*
X0392351Y0598518D01*
X0390825Y0599150D01*
X0389175Y0599150D01*
X0390912Y0599114D02*
X0399088Y0599114D01*
X0399175Y0599150D02*
X0397649Y0598518D01*
X0396482Y0597351D01*
X0395850Y0595825D01*
X0395850Y0594175D01*
X0396482Y0592649D01*
X0397649Y0591482D01*
X0399175Y0590850D01*
X0400825Y0590850D01*
X0402351Y0591482D01*
X0403518Y0592649D01*
X0404150Y0594175D01*
X0404150Y0595825D01*
X0403518Y0597351D01*
X0402351Y0598518D01*
X0400825Y0599150D01*
X0399175Y0599150D01*
X0400912Y0599114D02*
X0409088Y0599114D01*
X0409175Y0599150D02*
X0407649Y0598518D01*
X0406482Y0597351D01*
X0405850Y0595825D01*
X0405850Y0594175D01*
X0406482Y0592649D01*
X0407649Y0591482D01*
X0409175Y0590850D01*
X0410825Y0590850D01*
X0412351Y0591482D01*
X0413518Y0592649D01*
X0414150Y0594175D01*
X0414150Y0595825D01*
X0413518Y0597351D01*
X0412351Y0598518D01*
X0410825Y0599150D01*
X0409175Y0599150D01*
X0410912Y0599114D02*
X0419088Y0599114D01*
X0419175Y0599150D02*
X0417649Y0598518D01*
X0416482Y0597351D01*
X0415850Y0595825D01*
X0415850Y0594175D01*
X0416482Y0592649D01*
X0417649Y0591482D01*
X0419175Y0590850D01*
X0420825Y0590850D01*
X0422351Y0591482D01*
X0423518Y0592649D01*
X0424150Y0594175D01*
X0424150Y0595825D01*
X0423518Y0597351D01*
X0422351Y0598518D01*
X0420825Y0599150D01*
X0419175Y0599150D01*
X0420912Y0599114D02*
X0429088Y0599114D01*
X0429175Y0599150D02*
X0427649Y0598518D01*
X0426482Y0597351D01*
X0425850Y0595825D01*
X0425850Y0594175D01*
X0426482Y0592649D01*
X0427649Y0591482D01*
X0429175Y0590850D01*
X0430825Y0590850D01*
X0432351Y0591482D01*
X0433518Y0592649D01*
X0434150Y0594175D01*
X0434150Y0595825D01*
X0433518Y0597351D01*
X0432351Y0598518D01*
X0430825Y0599150D01*
X0429175Y0599150D01*
X0430912Y0599114D02*
X0439088Y0599114D01*
X0439175Y0599150D02*
X0437649Y0598518D01*
X0436482Y0597351D01*
X0435850Y0595825D01*
X0435850Y0594175D01*
X0436482Y0592649D01*
X0437649Y0591482D01*
X0439175Y0590850D01*
X0440825Y0590850D01*
X0442351Y0591482D01*
X0443518Y0592649D01*
X0444150Y0594175D01*
X0444150Y0595825D01*
X0443518Y0597351D01*
X0442351Y0598518D01*
X0440825Y0599150D01*
X0439175Y0599150D01*
X0440912Y0599114D02*
X0449088Y0599114D01*
X0449175Y0599150D02*
X0447649Y0598518D01*
X0446482Y0597351D01*
X0445850Y0595825D01*
X0445850Y0594175D01*
X0446482Y0592649D01*
X0447649Y0591482D01*
X0449175Y0590850D01*
X0450825Y0590850D01*
X0452351Y0591482D01*
X0453518Y0592649D01*
X0454150Y0594175D01*
X0454150Y0595825D01*
X0453518Y0597351D01*
X0452351Y0598518D01*
X0450825Y0599150D01*
X0449175Y0599150D01*
X0450912Y0599114D02*
X0458585Y0599114D01*
X0458330Y0599031D02*
X0457720Y0598720D01*
X0457166Y0598318D01*
X0456682Y0597834D01*
X0456280Y0597280D01*
X0455969Y0596670D01*
X0455757Y0596019D01*
X0455667Y0595450D01*
X0459550Y0595450D01*
X0459550Y0599333D01*
X0458981Y0599243D01*
X0458330Y0599031D01*
X0459550Y0599114D02*
X0460450Y0599114D01*
X0460450Y0599333D02*
X0460450Y0595450D01*
X0459550Y0595450D01*
X0459550Y0594550D01*
X0455667Y0594550D01*
X0455757Y0593981D01*
X0455969Y0593330D01*
X0456280Y0592720D01*
X0456682Y0592166D01*
X0457166Y0591682D01*
X0457720Y0591280D01*
X0458330Y0590969D01*
X0458981Y0590757D01*
X0459550Y0590667D01*
X0459550Y0594550D01*
X0460450Y0594550D01*
X0460450Y0595450D01*
X0464333Y0595450D01*
X0464243Y0596019D01*
X0464031Y0596670D01*
X0463720Y0597280D01*
X0463318Y0597834D01*
X0462834Y0598318D01*
X0462280Y0598720D01*
X0461670Y0599031D01*
X0461019Y0599243D01*
X0460450Y0599333D01*
X0461415Y0599114D02*
X0468350Y0599114D01*
X0468350Y0598116D02*
X0463036Y0598116D01*
X0463803Y0597117D02*
X0468350Y0597117D01*
X0468350Y0596119D02*
X0464210Y0596119D01*
X0464333Y0594550D02*
X0460450Y0594550D01*
X0460450Y0590667D01*
X0461019Y0590757D01*
X0461670Y0590969D01*
X0462280Y0591280D01*
X0462834Y0591682D01*
X0463318Y0592166D01*
X0463720Y0592720D01*
X0464031Y0593330D01*
X0464243Y0593981D01*
X0464333Y0594550D01*
X0464265Y0594122D02*
X0468350Y0594122D01*
X0468350Y0595120D02*
X0460450Y0595120D01*
X0459550Y0595120D02*
X0454150Y0595120D01*
X0454128Y0594122D02*
X0455735Y0594122D01*
X0456074Y0593123D02*
X0453714Y0593123D01*
X0452994Y0592125D02*
X0456724Y0592125D01*
X0458021Y0591126D02*
X0451492Y0591126D01*
X0448508Y0591126D02*
X0441492Y0591126D01*
X0442994Y0592125D02*
X0447006Y0592125D01*
X0446285Y0593123D02*
X0443714Y0593123D01*
X0444128Y0594122D02*
X0445872Y0594122D01*
X0445850Y0595120D02*
X0444150Y0595120D01*
X0444029Y0596119D02*
X0445971Y0596119D01*
X0446385Y0597117D02*
X0443615Y0597117D01*
X0442753Y0598116D02*
X0447247Y0598116D01*
X0452753Y0598116D02*
X0456964Y0598116D01*
X0456197Y0597117D02*
X0453615Y0597117D01*
X0454029Y0596119D02*
X0455790Y0596119D01*
X0459550Y0596119D02*
X0460450Y0596119D01*
X0460450Y0597117D02*
X0459550Y0597117D01*
X0459550Y0598116D02*
X0460450Y0598116D01*
X0460450Y0594122D02*
X0459550Y0594122D01*
X0459550Y0593123D02*
X0460450Y0593123D01*
X0460450Y0592125D02*
X0459550Y0592125D01*
X0459550Y0591126D02*
X0460450Y0591126D01*
X0461979Y0591126D02*
X0468350Y0591126D01*
X0468350Y0590128D02*
X0328408Y0590128D01*
X0328508Y0591126D02*
X0327500Y0591126D01*
X0329406Y0589129D02*
X0468350Y0589129D01*
X0468350Y0588131D02*
X0330405Y0588131D01*
X0331492Y0591126D02*
X0338508Y0591126D01*
X0337006Y0592125D02*
X0332994Y0592125D01*
X0333714Y0593123D02*
X0336285Y0593123D01*
X0335872Y0594122D02*
X0334128Y0594122D01*
X0334150Y0595120D02*
X0335850Y0595120D01*
X0335971Y0596119D02*
X0334029Y0596119D01*
X0333615Y0597117D02*
X0336385Y0597117D01*
X0337247Y0598116D02*
X0332753Y0598116D01*
X0342753Y0598116D02*
X0347247Y0598116D01*
X0346385Y0597117D02*
X0343615Y0597117D01*
X0344029Y0596119D02*
X0345971Y0596119D01*
X0345850Y0595120D02*
X0344150Y0595120D01*
X0344128Y0594122D02*
X0345872Y0594122D01*
X0346285Y0593123D02*
X0343714Y0593123D01*
X0342994Y0592125D02*
X0347006Y0592125D01*
X0348508Y0591126D02*
X0341492Y0591126D01*
X0351492Y0591126D02*
X0358508Y0591126D01*
X0357006Y0592125D02*
X0352994Y0592125D01*
X0353714Y0593123D02*
X0356285Y0593123D01*
X0355872Y0594122D02*
X0354128Y0594122D01*
X0354150Y0595120D02*
X0355850Y0595120D01*
X0355971Y0596119D02*
X0354029Y0596119D01*
X0353615Y0597117D02*
X0356385Y0597117D01*
X0357247Y0598116D02*
X0352753Y0598116D01*
X0353219Y0608200D02*
X0356781Y0608200D01*
X0359300Y0610719D01*
X0359300Y0614281D01*
X0358381Y0615200D01*
X0361619Y0615200D01*
X0360700Y0614281D01*
X0360700Y0610719D01*
X0363219Y0608200D01*
X0366781Y0608200D01*
X0369300Y0610719D01*
X0369300Y0614281D01*
X0368381Y0615200D01*
X0395297Y0615200D01*
X0395958Y0614539D01*
X0395700Y0614281D01*
X0395700Y0610719D01*
X0398219Y0608200D01*
X0401781Y0608200D01*
X0404300Y0610719D01*
X0404300Y0614281D01*
X0402900Y0615681D01*
X0402900Y0619319D01*
X0404300Y0620719D01*
X0404300Y0624281D01*
X0401781Y0626800D01*
X0398219Y0626800D01*
X0395700Y0624281D01*
X0395700Y0620719D01*
X0395958Y0620461D01*
X0395297Y0619800D01*
X0368381Y0619800D01*
X0369300Y0620719D01*
X0369300Y0624281D01*
X0366781Y0626800D01*
X0363219Y0626800D01*
X0360700Y0624281D01*
X0360700Y0620719D01*
X0361619Y0619800D01*
X0358381Y0619800D01*
X0359300Y0620719D01*
X0359300Y0624281D01*
X0356781Y0626800D01*
X0353219Y0626800D01*
X0350700Y0624281D01*
X0350700Y0620719D01*
X0351619Y0619800D01*
X0350297Y0619800D01*
X0348950Y0618453D01*
X0347039Y0616542D01*
X0346781Y0616800D01*
X0343219Y0616800D01*
X0340700Y0614281D01*
X0340700Y0610719D01*
X0343219Y0608200D01*
X0346781Y0608200D01*
X0349300Y0610719D01*
X0349300Y0612297D01*
X0350700Y0613697D01*
X0350700Y0610719D01*
X0353219Y0608200D01*
X0352320Y0609099D02*
X0347680Y0609099D01*
X0348679Y0610098D02*
X0351321Y0610098D01*
X0350700Y0611096D02*
X0349300Y0611096D01*
X0349300Y0612095D02*
X0350700Y0612095D01*
X0350700Y0613093D02*
X0350096Y0613093D01*
X0347585Y0617087D02*
X0293011Y0617087D01*
X0293200Y0616631D02*
X0291952Y0619645D01*
X0289645Y0621952D01*
X0286631Y0623200D01*
X0283369Y0623200D01*
X0280355Y0621952D01*
X0278048Y0619645D01*
X0276800Y0616631D01*
X0276800Y0613369D01*
X0278048Y0610355D01*
X0280355Y0608048D01*
X0283369Y0606800D01*
X0284627Y0606800D01*
X0286631Y0606800D01*
X0289645Y0608048D01*
X0291952Y0610355D01*
X0293200Y0613369D01*
X0293200Y0616631D01*
X0293200Y0616089D02*
X0342508Y0616089D01*
X0341509Y0615090D02*
X0293200Y0615090D01*
X0293200Y0614092D02*
X0340700Y0614092D01*
X0340700Y0613093D02*
X0293086Y0613093D01*
X0292672Y0612095D02*
X0340700Y0612095D01*
X0340700Y0611096D02*
X0292259Y0611096D01*
X0291952Y0610355D02*
X0291952Y0610355D01*
X0291694Y0610098D02*
X0341321Y0610098D01*
X0342320Y0609099D02*
X0290696Y0609099D01*
X0289697Y0608101D02*
X0428035Y0608101D01*
X0428136Y0608000D02*
X0429500Y0608000D01*
X0429500Y0612000D01*
X0430500Y0612000D01*
X0430500Y0613000D01*
X0434500Y0613000D01*
X0434500Y0614364D01*
X0431864Y0617000D01*
X0430500Y0617000D01*
X0430500Y0613000D01*
X0429500Y0613000D01*
X0429500Y0617000D01*
X0428136Y0617000D01*
X0425500Y0614364D01*
X0425500Y0613000D01*
X0429500Y0613000D01*
X0429500Y0612000D01*
X0425500Y0612000D01*
X0425500Y0610636D01*
X0428136Y0608000D01*
X0429500Y0608101D02*
X0430500Y0608101D01*
X0430500Y0608000D02*
X0431864Y0608000D01*
X0434500Y0610636D01*
X0434500Y0612000D01*
X0430500Y0612000D01*
X0430500Y0608000D01*
X0430500Y0609099D02*
X0429500Y0609099D01*
X0429500Y0610098D02*
X0430500Y0610098D01*
X0430500Y0611096D02*
X0429500Y0611096D01*
X0429500Y0612095D02*
X0424300Y0612095D01*
X0424300Y0613093D02*
X0425500Y0613093D01*
X0425500Y0614092D02*
X0424300Y0614092D01*
X0424300Y0614281D02*
X0422100Y0616481D01*
X0422100Y0618519D01*
X0424300Y0620719D01*
X0424300Y0624281D01*
X0421781Y0626800D01*
X0418219Y0626800D01*
X0415700Y0624281D01*
X0415700Y0620719D01*
X0417900Y0618519D01*
X0417900Y0616481D01*
X0415700Y0614281D01*
X0415700Y0610719D01*
X0418219Y0608200D01*
X0421781Y0608200D01*
X0424300Y0610719D01*
X0424300Y0614281D01*
X0423491Y0615090D02*
X0426226Y0615090D01*
X0427225Y0616089D02*
X0422492Y0616089D01*
X0422100Y0617087D02*
X0446989Y0617087D01*
X0446800Y0616631D02*
X0446800Y0613369D01*
X0448048Y0610355D01*
X0450355Y0608048D01*
X0453369Y0606800D01*
X0455373Y0606800D01*
X0456631Y0606800D01*
X0456631Y0606800D01*
X0459645Y0608048D01*
X0461952Y0610355D01*
X0463200Y0613369D01*
X0463200Y0616631D01*
X0461952Y0619645D01*
X0459645Y0621952D01*
X0456631Y0623200D01*
X0453369Y0623200D01*
X0450355Y0621952D01*
X0448048Y0619645D01*
X0448048Y0619645D01*
X0446800Y0616631D01*
X0446800Y0616089D02*
X0432775Y0616089D01*
X0433774Y0615090D02*
X0446800Y0615090D01*
X0446800Y0614092D02*
X0434500Y0614092D01*
X0434500Y0613093D02*
X0446914Y0613093D01*
X0447328Y0612095D02*
X0430500Y0612095D01*
X0430500Y0613093D02*
X0429500Y0613093D01*
X0429500Y0614092D02*
X0430500Y0614092D01*
X0430500Y0615090D02*
X0429500Y0615090D01*
X0429500Y0616089D02*
X0430500Y0616089D01*
X0430500Y0618000D02*
X0431864Y0618000D01*
X0434500Y0620636D01*
X0434500Y0622000D01*
X0430500Y0622000D01*
X0430500Y0623000D01*
X0434500Y0623000D01*
X0434500Y0624364D01*
X0431864Y0627000D01*
X0430500Y0627000D01*
X0430500Y0623000D01*
X0429500Y0623000D01*
X0429500Y0627000D01*
X0428136Y0627000D01*
X0425500Y0624364D01*
X0425500Y0623000D01*
X0429500Y0623000D01*
X0429500Y0622000D01*
X0430500Y0622000D01*
X0430500Y0618000D01*
X0430500Y0618086D02*
X0429500Y0618086D01*
X0429500Y0618000D02*
X0429500Y0622000D01*
X0425500Y0622000D01*
X0425500Y0620636D01*
X0428136Y0618000D01*
X0429500Y0618000D01*
X0429500Y0619084D02*
X0430500Y0619084D01*
X0430500Y0620083D02*
X0429500Y0620083D01*
X0429500Y0621081D02*
X0430500Y0621081D01*
X0430500Y0622080D02*
X0450665Y0622080D01*
X0450355Y0621952D02*
X0450355Y0621952D01*
X0449485Y0621081D02*
X0434500Y0621081D01*
X0433947Y0620083D02*
X0448486Y0620083D01*
X0447816Y0619084D02*
X0432948Y0619084D01*
X0431950Y0618086D02*
X0447403Y0618086D01*
X0447741Y0611096D02*
X0434500Y0611096D01*
X0433962Y0610098D02*
X0448306Y0610098D01*
X0448048Y0610355D02*
X0448048Y0610355D01*
X0449304Y0609099D02*
X0432963Y0609099D01*
X0431965Y0608101D02*
X0450303Y0608101D01*
X0450355Y0608048D02*
X0450355Y0608048D01*
X0452639Y0607102D02*
X0287361Y0607102D01*
X0289645Y0608048D02*
X0289645Y0608048D01*
X0282639Y0607102D02*
X0271650Y0607102D01*
X0271650Y0606104D02*
X0468350Y0606104D01*
X0468350Y0607102D02*
X0457361Y0607102D01*
X0459645Y0608048D02*
X0459645Y0608048D01*
X0459697Y0608101D02*
X0468350Y0608101D01*
X0468350Y0609099D02*
X0460696Y0609099D01*
X0461694Y0610098D02*
X0468350Y0610098D01*
X0468350Y0611096D02*
X0462259Y0611096D01*
X0461952Y0610355D02*
X0461952Y0610355D01*
X0462672Y0612095D02*
X0468350Y0612095D01*
X0468350Y0613093D02*
X0463086Y0613093D01*
X0463200Y0614092D02*
X0468350Y0614092D01*
X0468350Y0615090D02*
X0463200Y0615090D01*
X0463200Y0616089D02*
X0468350Y0616089D01*
X0468350Y0617087D02*
X0463011Y0617087D01*
X0462597Y0618086D02*
X0468350Y0618086D01*
X0468350Y0619084D02*
X0462184Y0619084D01*
X0461952Y0619645D02*
X0461952Y0619645D01*
X0461514Y0620083D02*
X0468350Y0620083D01*
X0468350Y0621081D02*
X0460515Y0621081D01*
X0459645Y0621952D02*
X0459645Y0621952D01*
X0459335Y0622080D02*
X0468350Y0622080D01*
X0468350Y0623079D02*
X0456924Y0623079D01*
X0453076Y0623079D02*
X0434500Y0623079D01*
X0434500Y0624077D02*
X0468350Y0624077D01*
X0468350Y0625076D02*
X0433788Y0625076D01*
X0432790Y0626074D02*
X0468350Y0626074D01*
X0468350Y0627073D02*
X0271650Y0627073D01*
X0271650Y0628071D02*
X0468350Y0628071D01*
X0468350Y0605105D02*
X0271650Y0605105D01*
X0271650Y0604107D02*
X0468350Y0604107D01*
X0468350Y0593123D02*
X0463926Y0593123D01*
X0463276Y0592125D02*
X0468350Y0592125D01*
X0468350Y0587132D02*
X0361529Y0587132D01*
X0362333Y0586134D02*
X0468350Y0586134D01*
X0468350Y0585135D02*
X0362589Y0585135D01*
X0362445Y0584137D02*
X0468350Y0584137D01*
X0468350Y0581141D02*
X0271650Y0581141D01*
X0271650Y0580143D02*
X0456660Y0580143D01*
X0456312Y0579144D02*
X0271650Y0579144D01*
X0271650Y0572154D02*
X0446396Y0572154D01*
X0445882Y0571156D02*
X0271650Y0571156D01*
X0271650Y0570157D02*
X0445882Y0570157D01*
X0445882Y0569159D02*
X0271650Y0569159D01*
X0271650Y0608101D02*
X0280303Y0608101D01*
X0280355Y0608048D02*
X0280355Y0608048D01*
X0279304Y0609099D02*
X0271650Y0609099D01*
X0271650Y0610098D02*
X0278306Y0610098D01*
X0278048Y0610355D02*
X0278048Y0610355D01*
X0277741Y0611096D02*
X0271650Y0611096D01*
X0271650Y0612095D02*
X0277328Y0612095D01*
X0276914Y0613093D02*
X0271650Y0613093D01*
X0271650Y0614092D02*
X0276800Y0614092D01*
X0276800Y0615090D02*
X0271650Y0615090D01*
X0271650Y0616089D02*
X0276800Y0616089D01*
X0276989Y0617087D02*
X0271650Y0617087D01*
X0271650Y0618086D02*
X0277403Y0618086D01*
X0277816Y0619084D02*
X0271650Y0619084D01*
X0271650Y0620083D02*
X0278486Y0620083D01*
X0278048Y0619645D02*
X0278048Y0619645D01*
X0279485Y0621081D02*
X0271650Y0621081D01*
X0271650Y0622080D02*
X0280665Y0622080D01*
X0283076Y0623079D02*
X0271650Y0623079D01*
X0271650Y0624077D02*
X0340700Y0624077D01*
X0340700Y0624281D02*
X0340700Y0620719D01*
X0343219Y0618200D01*
X0346781Y0618200D01*
X0349300Y0620719D01*
X0349300Y0624281D01*
X0346781Y0626800D01*
X0343219Y0626800D01*
X0340700Y0624281D01*
X0341494Y0625076D02*
X0271650Y0625076D01*
X0271650Y0626074D02*
X0342493Y0626074D01*
X0340700Y0623079D02*
X0286924Y0623079D01*
X0289335Y0622080D02*
X0340700Y0622080D01*
X0340700Y0621081D02*
X0290515Y0621081D01*
X0289645Y0621952D02*
X0289645Y0621952D01*
X0291514Y0620083D02*
X0341336Y0620083D01*
X0342334Y0619084D02*
X0292184Y0619084D01*
X0291952Y0619645D02*
X0291952Y0619645D01*
X0292597Y0618086D02*
X0348583Y0618086D01*
X0347666Y0619084D02*
X0349582Y0619084D01*
X0348664Y0620083D02*
X0351336Y0620083D01*
X0350700Y0621081D02*
X0349300Y0621081D01*
X0349300Y0622080D02*
X0350700Y0622080D01*
X0350700Y0623079D02*
X0349300Y0623079D01*
X0349300Y0624077D02*
X0350700Y0624077D01*
X0351494Y0625076D02*
X0348506Y0625076D01*
X0347507Y0626074D02*
X0352493Y0626074D01*
X0357507Y0626074D02*
X0362493Y0626074D01*
X0361494Y0625076D02*
X0358506Y0625076D01*
X0359300Y0624077D02*
X0360700Y0624077D01*
X0360700Y0623079D02*
X0359300Y0623079D01*
X0359300Y0622080D02*
X0360700Y0622080D01*
X0360700Y0621081D02*
X0359300Y0621081D01*
X0358664Y0620083D02*
X0361336Y0620083D01*
X0361509Y0615090D02*
X0358491Y0615090D01*
X0359300Y0614092D02*
X0360700Y0614092D01*
X0360700Y0613093D02*
X0359300Y0613093D01*
X0359300Y0612095D02*
X0360700Y0612095D01*
X0360700Y0611096D02*
X0359300Y0611096D01*
X0358679Y0610098D02*
X0361321Y0610098D01*
X0362320Y0609099D02*
X0357680Y0609099D01*
X0367680Y0609099D02*
X0397320Y0609099D01*
X0396321Y0610098D02*
X0368679Y0610098D01*
X0369300Y0611096D02*
X0395700Y0611096D01*
X0395700Y0612095D02*
X0369300Y0612095D01*
X0369300Y0613093D02*
X0395700Y0613093D01*
X0395700Y0614092D02*
X0369300Y0614092D01*
X0368491Y0615090D02*
X0395407Y0615090D01*
X0395580Y0620083D02*
X0368664Y0620083D01*
X0369300Y0621081D02*
X0395700Y0621081D01*
X0395700Y0622080D02*
X0369300Y0622080D01*
X0369300Y0623079D02*
X0395700Y0623079D01*
X0395700Y0624077D02*
X0369300Y0624077D01*
X0368506Y0625076D02*
X0396494Y0625076D01*
X0397493Y0626074D02*
X0367507Y0626074D01*
X0367247Y0598116D02*
X0362753Y0598116D01*
X0363615Y0597117D02*
X0366385Y0597117D01*
X0365971Y0596119D02*
X0364029Y0596119D01*
X0364150Y0595120D02*
X0365850Y0595120D01*
X0365872Y0594122D02*
X0364128Y0594122D01*
X0363714Y0593123D02*
X0366285Y0593123D01*
X0367006Y0592125D02*
X0362994Y0592125D01*
X0361492Y0591126D02*
X0368508Y0591126D01*
X0371492Y0591126D02*
X0378508Y0591126D01*
X0377006Y0592125D02*
X0372994Y0592125D01*
X0373714Y0593123D02*
X0376285Y0593123D01*
X0375872Y0594122D02*
X0374128Y0594122D01*
X0374150Y0595120D02*
X0375850Y0595120D01*
X0375971Y0596119D02*
X0374029Y0596119D01*
X0373615Y0597117D02*
X0376385Y0597117D01*
X0377247Y0598116D02*
X0372753Y0598116D01*
X0382753Y0598116D02*
X0387247Y0598116D01*
X0386385Y0597117D02*
X0383615Y0597117D01*
X0384029Y0596119D02*
X0385971Y0596119D01*
X0385850Y0595120D02*
X0384150Y0595120D01*
X0384128Y0594122D02*
X0385872Y0594122D01*
X0386285Y0593123D02*
X0383714Y0593123D01*
X0382994Y0592125D02*
X0387006Y0592125D01*
X0388508Y0591126D02*
X0381492Y0591126D01*
X0391492Y0591126D02*
X0398508Y0591126D01*
X0397006Y0592125D02*
X0392994Y0592125D01*
X0393714Y0593123D02*
X0396285Y0593123D01*
X0395872Y0594122D02*
X0394128Y0594122D01*
X0394150Y0595120D02*
X0395850Y0595120D01*
X0395971Y0596119D02*
X0394029Y0596119D01*
X0393615Y0597117D02*
X0396385Y0597117D01*
X0397247Y0598116D02*
X0392753Y0598116D01*
X0402753Y0598116D02*
X0407247Y0598116D01*
X0406385Y0597117D02*
X0403615Y0597117D01*
X0404029Y0596119D02*
X0405971Y0596119D01*
X0405850Y0595120D02*
X0404150Y0595120D01*
X0404128Y0594122D02*
X0405872Y0594122D01*
X0406285Y0593123D02*
X0403714Y0593123D01*
X0402994Y0592125D02*
X0407006Y0592125D01*
X0408508Y0591126D02*
X0401492Y0591126D01*
X0411492Y0591126D02*
X0418508Y0591126D01*
X0417006Y0592125D02*
X0412994Y0592125D01*
X0413714Y0593123D02*
X0416285Y0593123D01*
X0415872Y0594122D02*
X0414128Y0594122D01*
X0414150Y0595120D02*
X0415850Y0595120D01*
X0415971Y0596119D02*
X0414029Y0596119D01*
X0413615Y0597117D02*
X0416385Y0597117D01*
X0417247Y0598116D02*
X0412753Y0598116D01*
X0411781Y0608200D02*
X0414300Y0610719D01*
X0414300Y0614281D01*
X0412100Y0616481D01*
X0412100Y0618519D01*
X0414300Y0620719D01*
X0414300Y0624281D01*
X0411781Y0626800D01*
X0408219Y0626800D01*
X0405700Y0624281D01*
X0405700Y0620719D01*
X0407900Y0618519D01*
X0407900Y0616481D01*
X0405700Y0614281D01*
X0405700Y0610719D01*
X0408219Y0608200D01*
X0411781Y0608200D01*
X0412680Y0609099D02*
X0417320Y0609099D01*
X0416321Y0610098D02*
X0413679Y0610098D01*
X0414300Y0611096D02*
X0415700Y0611096D01*
X0415700Y0612095D02*
X0414300Y0612095D01*
X0414300Y0613093D02*
X0415700Y0613093D01*
X0415700Y0614092D02*
X0414300Y0614092D01*
X0413491Y0615090D02*
X0416509Y0615090D01*
X0417508Y0616089D02*
X0412492Y0616089D01*
X0412100Y0617087D02*
X0417900Y0617087D01*
X0417900Y0618086D02*
X0412100Y0618086D01*
X0412666Y0619084D02*
X0417334Y0619084D01*
X0416336Y0620083D02*
X0413664Y0620083D01*
X0414300Y0621081D02*
X0415700Y0621081D01*
X0415700Y0622080D02*
X0414300Y0622080D01*
X0414300Y0623079D02*
X0415700Y0623079D01*
X0415700Y0624077D02*
X0414300Y0624077D01*
X0413506Y0625076D02*
X0416494Y0625076D01*
X0417493Y0626074D02*
X0412507Y0626074D01*
X0407493Y0626074D02*
X0402507Y0626074D01*
X0403506Y0625076D02*
X0406494Y0625076D01*
X0405700Y0624077D02*
X0404300Y0624077D01*
X0404300Y0623079D02*
X0405700Y0623079D01*
X0405700Y0622080D02*
X0404300Y0622080D01*
X0404300Y0621081D02*
X0405700Y0621081D01*
X0406336Y0620083D02*
X0403664Y0620083D01*
X0402900Y0619084D02*
X0407334Y0619084D01*
X0407900Y0618086D02*
X0402900Y0618086D01*
X0402900Y0617087D02*
X0407900Y0617087D01*
X0407508Y0616089D02*
X0402900Y0616089D01*
X0403491Y0615090D02*
X0406509Y0615090D01*
X0405700Y0614092D02*
X0404300Y0614092D01*
X0404300Y0613093D02*
X0405700Y0613093D01*
X0405700Y0612095D02*
X0404300Y0612095D01*
X0404300Y0611096D02*
X0405700Y0611096D01*
X0406321Y0610098D02*
X0403679Y0610098D01*
X0402680Y0609099D02*
X0407320Y0609099D01*
X0422680Y0609099D02*
X0427037Y0609099D01*
X0426038Y0610098D02*
X0423679Y0610098D01*
X0424300Y0611096D02*
X0425500Y0611096D01*
X0428050Y0618086D02*
X0422100Y0618086D01*
X0422666Y0619084D02*
X0427052Y0619084D01*
X0426053Y0620083D02*
X0423664Y0620083D01*
X0424300Y0621081D02*
X0425500Y0621081D01*
X0424300Y0622080D02*
X0429500Y0622080D01*
X0429500Y0623079D02*
X0430500Y0623079D01*
X0430500Y0624077D02*
X0429500Y0624077D01*
X0429500Y0625076D02*
X0430500Y0625076D01*
X0430500Y0626074D02*
X0429500Y0626074D01*
X0427210Y0626074D02*
X0422507Y0626074D01*
X0423506Y0625076D02*
X0426212Y0625076D01*
X0425500Y0624077D02*
X0424300Y0624077D01*
X0424300Y0623079D02*
X0425500Y0623079D01*
X0427247Y0598116D02*
X0422753Y0598116D01*
X0423615Y0597117D02*
X0426385Y0597117D01*
X0425971Y0596119D02*
X0424029Y0596119D01*
X0424150Y0595120D02*
X0425850Y0595120D01*
X0425872Y0594122D02*
X0424128Y0594122D01*
X0423714Y0593123D02*
X0426285Y0593123D01*
X0427006Y0592125D02*
X0422994Y0592125D01*
X0421492Y0591126D02*
X0428508Y0591126D01*
X0431492Y0591126D02*
X0438508Y0591126D01*
X0437006Y0592125D02*
X0432994Y0592125D01*
X0433714Y0593123D02*
X0436285Y0593123D01*
X0435872Y0594122D02*
X0434128Y0594122D01*
X0434150Y0595120D02*
X0435850Y0595120D01*
X0435971Y0596119D02*
X0434029Y0596119D01*
X0433615Y0597117D02*
X0436385Y0597117D01*
X0437247Y0598116D02*
X0432753Y0598116D01*
X0426001Y0567162D02*
X0396499Y0567162D01*
X0397320Y0566163D02*
X0425180Y0566163D01*
X0424911Y0565165D02*
X0397589Y0565165D01*
X0397500Y0564166D02*
X0425043Y0564166D01*
X0425671Y0563168D02*
X0397500Y0563168D01*
X0397500Y0552184D02*
X0456312Y0552184D01*
X0456312Y0551186D02*
X0397500Y0551186D01*
X0456773Y0512244D02*
X0457454Y0512244D01*
X0462518Y0503257D02*
X0463486Y0503257D01*
X0463486Y0502259D02*
X0462518Y0502259D01*
X0462518Y0501260D02*
X0463486Y0501260D01*
X0468350Y0436357D02*
X0271650Y0436357D01*
X0271650Y0437355D02*
X0282028Y0437355D01*
X0280355Y0438048D02*
X0280355Y0438048D01*
X0280050Y0438354D02*
X0271650Y0438354D01*
X0271650Y0439352D02*
X0279051Y0439352D01*
X0278053Y0440351D02*
X0271650Y0440351D01*
X0271650Y0441349D02*
X0277636Y0441349D01*
X0278048Y0440355D02*
X0278048Y0440355D01*
X0277223Y0442348D02*
X0271650Y0442348D01*
X0271650Y0443346D02*
X0276809Y0443346D01*
X0276800Y0444345D02*
X0271650Y0444345D01*
X0271650Y0445343D02*
X0276800Y0445343D01*
X0276800Y0446342D02*
X0271650Y0446342D01*
X0271650Y0447341D02*
X0277094Y0447341D01*
X0277507Y0448339D02*
X0271650Y0448339D01*
X0271650Y0449338D02*
X0277921Y0449338D01*
X0278740Y0450336D02*
X0271650Y0450336D01*
X0271650Y0451335D02*
X0279738Y0451335D01*
X0280355Y0451952D02*
X0280355Y0451952D01*
X0281276Y0452333D02*
X0271650Y0452333D01*
X0271650Y0435358D02*
X0468350Y0435358D01*
X0468350Y0434360D02*
X0271650Y0434360D01*
X0271650Y0433361D02*
X0468350Y0433361D01*
X0468350Y0432363D02*
X0271650Y0432363D01*
X0283369Y0623200D02*
X0283369Y0623200D01*
X0462643Y0580143D02*
X0463611Y0580143D01*
X0463611Y0579144D02*
X0462643Y0579144D01*
X0462643Y0578145D02*
X0463611Y0578145D01*
X0463611Y0576148D02*
X0462643Y0576148D01*
X0462643Y0575150D02*
X0463611Y0575150D01*
X0463611Y0574151D02*
X0462643Y0574151D01*
D20*
X0460289Y0567000D03*
X0457000Y0565000D03*
X0445000Y0545000D03*
X0427500Y0565000D03*
X0408125Y0553125D03*
X0408125Y0550625D03*
X0405000Y0568750D03*
X0405000Y0571250D03*
X0395000Y0565000D03*
X0370000Y0555000D03*
X0365000Y0555000D03*
X0350000Y0565000D03*
X0360000Y0585000D03*
X0376875Y0605000D03*
X0325000Y0600000D03*
X0290000Y0580000D03*
X0290000Y0530000D03*
X0290000Y0470000D03*
X0343750Y0513750D03*
X0346250Y0513750D03*
X0370000Y0520000D03*
X0373750Y0522589D03*
X0373750Y0513750D03*
X0376250Y0513750D03*
X0391250Y0526250D03*
X0368750Y0487500D03*
X0368750Y0485000D03*
X0372500Y0472500D03*
X0375000Y0440000D03*
X0415000Y0485000D03*
X0440000Y0470000D03*
X0455425Y0470000D03*
X0458803Y0470000D03*
X0435000Y0446250D03*
X0455425Y0510000D03*
X0458803Y0510000D03*
X0445000Y0585000D03*
D21*
X0450529Y0569921D02*
X0457368Y0569921D01*
X0460289Y0567000D01*
X0457000Y0565000D02*
X0457000Y0562000D01*
X0455079Y0560079D01*
X0450529Y0560079D01*
X0450529Y0565000D02*
X0427500Y0565000D01*
X0452030Y0539900D02*
X0400100Y0539900D01*
X0395000Y0545000D01*
X0395000Y0565000D01*
X0360000Y0585000D02*
X0330000Y0585000D01*
X0325000Y0590000D01*
X0325000Y0600000D01*
X0452030Y0539900D02*
X0456930Y0535000D01*
X0460000Y0535000D01*
D22*
X0450404Y0512461D02*
X0452744Y0510120D01*
X0454330Y0510120D01*
X0454450Y0510000D01*
X0455425Y0510000D01*
X0458114Y0509311D02*
X0458114Y0508886D01*
X0456539Y0507311D01*
X0454311Y0507311D01*
X0454083Y0507539D01*
X0450404Y0507539D01*
X0458114Y0509311D02*
X0458803Y0510000D01*
X0450404Y0472461D02*
X0452744Y0470120D01*
X0454330Y0470120D01*
X0454450Y0470000D01*
X0455425Y0470000D01*
X0458114Y0469311D02*
X0458114Y0468886D01*
X0456539Y0467311D01*
X0454311Y0467311D01*
X0454083Y0467539D01*
X0450404Y0467539D01*
X0458114Y0469311D02*
X0458803Y0470000D01*
X0390000Y0535000D02*
X0370000Y0555000D01*
X0365000Y0555000D02*
X0365000Y0550000D01*
X0380000Y0535000D01*
D23*
X0410000Y0612500D02*
X0410000Y0622500D01*
X0420000Y0622500D02*
X0420000Y0612500D01*
X0440000Y0470000D02*
X0446074Y0470000D01*
X0446394Y0469680D01*
X0448263Y0469680D01*
X0450404Y0467539D01*
D24*
X0400000Y0612500D02*
X0400000Y0613750D01*
X0400000Y0617500D01*
X0400000Y0621250D01*
X0400000Y0622500D01*
D25*
X0400000Y0621250D02*
X0396250Y0617500D01*
X0400000Y0613750D01*
X0400000Y0617500D02*
X0351250Y0617500D01*
X0346250Y0612500D01*
X0345000Y0612500D01*
M02*
