G04 EAGLE Gerber RS-274X export*
G75*
%MOMM*%
%FSLAX34Y34*%
%LPD*%
%INSoldermask Bottom*%
%IPPOS*%
%AMOC8*
5,1,8,0,0,1.08239X$1,22.5*%
G01*
%ADD10C,2.601600*%
%ADD11R,3.911600X2.421600*%
%ADD12R,9.751600X11.101600*%
%ADD13R,1.001600X1.051600*%
%ADD14R,1.701600X2.101600*%
%ADD15R,2.387600X2.387600*%
%ADD16P,1.759533X8X202.500000*%
%ADD17C,1.625600*%
%ADD18C,1.549400*%
%ADD19C,3.403600*%
%ADD20R,1.801600X0.701600*%
%ADD21R,2.801600X1.101600*%


D10*
X1117600Y666750D03*
X1117600Y730250D03*
X1117600Y806450D03*
X1117600Y869950D03*
X1117600Y946150D03*
X1117600Y1009650D03*
X1117600Y1225550D03*
X1117600Y1289050D03*
X723900Y730250D03*
X723900Y666750D03*
X723900Y869950D03*
X723900Y806450D03*
X723900Y1009650D03*
X723900Y946150D03*
X723900Y1149350D03*
X723900Y1085850D03*
D11*
X1066500Y711200D03*
D12*
X969300Y685800D03*
D11*
X1066500Y660400D03*
X1066500Y850900D03*
D12*
X969300Y825500D03*
D11*
X1066500Y800100D03*
X1066500Y990600D03*
D12*
X969300Y965200D03*
D11*
X1066500Y939800D03*
D13*
X1085725Y765175D03*
X1054225Y765175D03*
X1082550Y904875D03*
X1051050Y904875D03*
X1082550Y1047750D03*
X1051050Y1047750D03*
D14*
X1055975Y742950D03*
X1083975Y742950D03*
X1052800Y882650D03*
X1080800Y882650D03*
X1052800Y1022350D03*
X1080800Y1022350D03*
D15*
X1140397Y1530350D03*
X1085279Y1530350D03*
D16*
X876300Y1809750D03*
X876300Y1784350D03*
X850900Y1809750D03*
X850900Y1784350D03*
X825500Y1809750D03*
X825500Y1784350D03*
D17*
X1187450Y1487170D02*
X1187450Y1471930D01*
X1162050Y1471930D02*
X1162050Y1487170D01*
D18*
X1155700Y1727200D03*
X1130300Y1727200D03*
X1104900Y1727200D03*
X1079500Y1727200D03*
X1130300Y1574800D03*
X1054100Y1727200D03*
X1028700Y1727200D03*
X1003300Y1727200D03*
X977900Y1727200D03*
X952500Y1727200D03*
X927100Y1727200D03*
X901700Y1727200D03*
X876300Y1727200D03*
X850900Y1727200D03*
X850900Y1574800D03*
X876300Y1574800D03*
X901700Y1574800D03*
X927100Y1574800D03*
X952500Y1574800D03*
X977900Y1574800D03*
X1003300Y1574800D03*
X1028700Y1574800D03*
X1054100Y1574800D03*
X1079500Y1574800D03*
X1104900Y1574800D03*
X1155700Y1574800D03*
X1181100Y1727200D03*
X1181100Y1574800D03*
D16*
X1041400Y1809750D03*
X1041400Y1784350D03*
X1016000Y1809750D03*
X1016000Y1784350D03*
X990600Y1809750D03*
X990600Y1784350D03*
X965200Y1809750D03*
X965200Y1784350D03*
D19*
X1168400Y1790700D03*
X1168400Y596900D03*
X673100Y596900D03*
X673100Y1790700D03*
D20*
X1155138Y1651000D03*
X1155138Y1663500D03*
X1155138Y1638500D03*
D21*
X1187138Y1682000D03*
X1187138Y1620000D03*
D17*
X1188720Y1371600D02*
X1173480Y1371600D01*
X1173480Y1397000D02*
X1188720Y1397000D01*
X1150620Y1371600D02*
X1135380Y1371600D01*
X1135380Y1397000D02*
X1150620Y1397000D01*
X1130300Y1427480D02*
X1130300Y1442720D01*
X1155700Y1442720D02*
X1155700Y1427480D01*
X1181100Y1427480D02*
X1181100Y1442720D01*
D14*
X1090900Y622300D03*
X1118900Y622300D03*
X1116300Y771525D03*
X1144300Y771525D03*
X1116300Y911225D03*
X1144300Y911225D03*
D10*
X1117600Y1085850D03*
X1117600Y1149350D03*
M02*
