G04 EAGLE Gerber RS-274X export*
G75*
%MOMM*%
%FSLAX34Y34*%
%LPD*%
%INBottom Copper*%
%IPPOS*%
%AMOC8*
5,1,8,0,0,1.08239X$1,22.5*%
G01*
%ADD10P,2.061953X8X22.500000*%
%ADD11P,2.061953X8X292.500000*%
%ADD12C,1.371600*%
%ADD13C,0.203200*%
%ADD14C,0.654800*%
%ADD15C,0.812800*%
%ADD16C,0.355600*%
%ADD17C,0.304800*%
%ADD18C,0.254000*%
%ADD19C,0.609600*%
%ADD20C,0.406400*%
%ADD21C,0.508000*%

G36*
X820792Y3572D02*
X820792Y3572D01*
X820911Y3579D01*
X820949Y3592D01*
X820990Y3597D01*
X821100Y3640D01*
X821213Y3677D01*
X821248Y3699D01*
X821285Y3714D01*
X821381Y3783D01*
X821482Y3847D01*
X821510Y3877D01*
X821543Y3900D01*
X821619Y3992D01*
X821700Y4079D01*
X821720Y4114D01*
X821745Y4145D01*
X821796Y4253D01*
X821854Y4357D01*
X821864Y4397D01*
X821881Y4433D01*
X821903Y4550D01*
X821933Y4665D01*
X821937Y4725D01*
X821941Y4745D01*
X821939Y4766D01*
X821943Y4826D01*
X821943Y437762D01*
X821926Y437900D01*
X821913Y438039D01*
X821906Y438058D01*
X821903Y438078D01*
X821852Y438207D01*
X821805Y438338D01*
X821794Y438355D01*
X821786Y438373D01*
X821705Y438486D01*
X821627Y438601D01*
X821611Y438614D01*
X821600Y438631D01*
X821492Y438719D01*
X821388Y438811D01*
X821370Y438821D01*
X821355Y438834D01*
X821229Y438893D01*
X821105Y438956D01*
X821085Y438961D01*
X821067Y438969D01*
X820931Y438995D01*
X820795Y439026D01*
X820774Y439025D01*
X820755Y439029D01*
X820616Y439020D01*
X820477Y439016D01*
X820457Y439010D01*
X820437Y439009D01*
X820305Y438966D01*
X820171Y438928D01*
X820154Y438917D01*
X820135Y438911D01*
X820017Y438837D01*
X819897Y438766D01*
X819876Y438748D01*
X819866Y438741D01*
X819852Y438726D01*
X819777Y438660D01*
X807711Y426595D01*
X807651Y426516D01*
X807583Y426444D01*
X807554Y426391D01*
X807517Y426343D01*
X807477Y426252D01*
X807429Y426166D01*
X807414Y426107D01*
X807390Y426052D01*
X807375Y425954D01*
X807350Y425858D01*
X807344Y425758D01*
X807340Y425737D01*
X807342Y425725D01*
X807340Y425697D01*
X807340Y417063D01*
X800749Y410472D01*
X800664Y410363D01*
X800575Y410256D01*
X800567Y410237D01*
X800554Y410221D01*
X800499Y410093D01*
X800440Y409968D01*
X800436Y409948D01*
X800428Y409929D01*
X800406Y409791D01*
X800380Y409655D01*
X800381Y409635D01*
X800378Y409615D01*
X800391Y409476D01*
X800400Y409338D01*
X800406Y409319D01*
X800408Y409299D01*
X800455Y409167D01*
X800498Y409036D01*
X800509Y409018D01*
X800515Y408999D01*
X800593Y408884D01*
X800668Y408767D01*
X800683Y408753D01*
X800694Y408736D01*
X800798Y408644D01*
X800899Y408549D01*
X800917Y408539D01*
X800932Y408526D01*
X801057Y408462D01*
X801178Y408395D01*
X801198Y408390D01*
X801209Y408385D01*
X808356Y401238D01*
X808356Y398779D01*
X797560Y398779D01*
X797442Y398764D01*
X797323Y398757D01*
X797285Y398744D01*
X797245Y398739D01*
X797134Y398696D01*
X797021Y398659D01*
X796987Y398637D01*
X796949Y398622D01*
X796853Y398552D01*
X796752Y398489D01*
X796724Y398459D01*
X796692Y398435D01*
X796616Y398344D01*
X796534Y398257D01*
X796515Y398222D01*
X796489Y398191D01*
X796438Y398083D01*
X796381Y397979D01*
X796370Y397939D01*
X796353Y397903D01*
X796331Y397786D01*
X796301Y397671D01*
X796297Y397610D01*
X796293Y397590D01*
X796295Y397570D01*
X796291Y397510D01*
X796291Y394970D01*
X796306Y394852D01*
X796313Y394733D01*
X796326Y394695D01*
X796331Y394654D01*
X796375Y394544D01*
X796411Y394431D01*
X796433Y394396D01*
X796448Y394359D01*
X796518Y394263D01*
X796581Y394162D01*
X796611Y394134D01*
X796635Y394101D01*
X796726Y394026D01*
X796813Y393944D01*
X796848Y393924D01*
X796880Y393899D01*
X796987Y393848D01*
X797092Y393790D01*
X797131Y393780D01*
X797167Y393763D01*
X797284Y393741D01*
X797399Y393711D01*
X797460Y393707D01*
X797480Y393703D01*
X797500Y393705D01*
X797560Y393701D01*
X808356Y393701D01*
X808356Y391242D01*
X801194Y384080D01*
X801071Y384036D01*
X801054Y384025D01*
X801035Y384017D01*
X800923Y383936D01*
X800808Y383858D01*
X800794Y383842D01*
X800778Y383831D01*
X800689Y383723D01*
X800597Y383619D01*
X800588Y383601D01*
X800575Y383586D01*
X800516Y383460D01*
X800453Y383336D01*
X800448Y383316D01*
X800440Y383298D01*
X800414Y383162D01*
X800383Y383026D01*
X800384Y383005D01*
X800380Y382986D01*
X800389Y382847D01*
X800393Y382708D01*
X800398Y382688D01*
X800400Y382668D01*
X800442Y382536D01*
X800481Y382402D01*
X800491Y382385D01*
X800498Y382366D01*
X800572Y382248D01*
X800643Y382128D01*
X800661Y382107D01*
X800668Y382097D01*
X800683Y382083D01*
X800749Y382008D01*
X807340Y375417D01*
X807340Y366263D01*
X800867Y359790D01*
X791713Y359790D01*
X785122Y366381D01*
X785013Y366466D01*
X784906Y366555D01*
X784887Y366563D01*
X784871Y366576D01*
X784743Y366631D01*
X784618Y366690D01*
X784598Y366694D01*
X784579Y366702D01*
X784441Y366724D01*
X784305Y366750D01*
X784285Y366749D01*
X784265Y366752D01*
X784126Y366739D01*
X783988Y366730D01*
X783969Y366724D01*
X783949Y366722D01*
X783817Y366675D01*
X783686Y366632D01*
X783668Y366621D01*
X783649Y366615D01*
X783534Y366537D01*
X783417Y366462D01*
X783403Y366447D01*
X783386Y366436D01*
X783294Y366332D01*
X783199Y366231D01*
X783189Y366213D01*
X783176Y366198D01*
X783112Y366073D01*
X783045Y365952D01*
X783040Y365932D01*
X783035Y365921D01*
X775794Y358680D01*
X775671Y358636D01*
X775654Y358625D01*
X775635Y358617D01*
X775523Y358536D01*
X775408Y358458D01*
X775394Y358442D01*
X775378Y358431D01*
X775289Y358323D01*
X775197Y358219D01*
X775188Y358201D01*
X775175Y358186D01*
X775116Y358060D01*
X775053Y357936D01*
X775048Y357916D01*
X775040Y357898D01*
X775014Y357762D01*
X774983Y357626D01*
X774984Y357605D01*
X774980Y357586D01*
X774989Y357447D01*
X774993Y357308D01*
X774998Y357288D01*
X775000Y357268D01*
X775042Y357136D01*
X775081Y357002D01*
X775091Y356985D01*
X775098Y356966D01*
X775172Y356848D01*
X775243Y356728D01*
X775261Y356707D01*
X775268Y356697D01*
X775283Y356683D01*
X775349Y356608D01*
X781940Y350017D01*
X781940Y340863D01*
X775467Y334390D01*
X766313Y334390D01*
X759840Y340863D01*
X759840Y350017D01*
X766431Y356608D01*
X766516Y356717D01*
X766605Y356824D01*
X766613Y356843D01*
X766626Y356859D01*
X766681Y356987D01*
X766740Y357112D01*
X766744Y357132D01*
X766752Y357151D01*
X766774Y357289D01*
X766800Y357425D01*
X766799Y357445D01*
X766802Y357465D01*
X766789Y357604D01*
X766780Y357742D01*
X766774Y357761D01*
X766772Y357781D01*
X766725Y357913D01*
X766682Y358044D01*
X766671Y358062D01*
X766665Y358081D01*
X766587Y358196D01*
X766512Y358313D01*
X766497Y358327D01*
X766486Y358344D01*
X766382Y358436D01*
X766281Y358531D01*
X766263Y358541D01*
X766248Y358554D01*
X766123Y358618D01*
X766002Y358685D01*
X765982Y358690D01*
X765971Y358695D01*
X758824Y365842D01*
X758824Y368301D01*
X769620Y368301D01*
X769738Y368316D01*
X769857Y368323D01*
X769895Y368336D01*
X769935Y368341D01*
X770046Y368384D01*
X770159Y368421D01*
X770193Y368443D01*
X770231Y368458D01*
X770327Y368528D01*
X770428Y368591D01*
X770456Y368621D01*
X770488Y368644D01*
X770564Y368736D01*
X770646Y368823D01*
X770665Y368858D01*
X770691Y368889D01*
X770742Y368997D01*
X770799Y369101D01*
X770810Y369141D01*
X770827Y369177D01*
X770849Y369294D01*
X770879Y369409D01*
X770883Y369470D01*
X770887Y369490D01*
X770885Y369510D01*
X770889Y369570D01*
X770889Y372110D01*
X770874Y372228D01*
X770867Y372347D01*
X770854Y372385D01*
X770849Y372425D01*
X770805Y372536D01*
X770769Y372649D01*
X770747Y372684D01*
X770732Y372721D01*
X770662Y372817D01*
X770599Y372918D01*
X770569Y372946D01*
X770545Y372979D01*
X770454Y373054D01*
X770367Y373136D01*
X770332Y373156D01*
X770300Y373181D01*
X770193Y373232D01*
X770088Y373290D01*
X770049Y373300D01*
X770013Y373317D01*
X769896Y373339D01*
X769781Y373369D01*
X769720Y373373D01*
X769700Y373377D01*
X769680Y373375D01*
X769620Y373379D01*
X758824Y373379D01*
X758824Y375838D01*
X765986Y383000D01*
X766109Y383044D01*
X766126Y383055D01*
X766145Y383063D01*
X766257Y383144D01*
X766372Y383222D01*
X766386Y383238D01*
X766402Y383249D01*
X766491Y383357D01*
X766583Y383461D01*
X766592Y383479D01*
X766605Y383494D01*
X766664Y383620D01*
X766727Y383744D01*
X766732Y383764D01*
X766740Y383782D01*
X766766Y383918D01*
X766797Y384054D01*
X766796Y384075D01*
X766800Y384094D01*
X766791Y384233D01*
X766787Y384372D01*
X766782Y384392D01*
X766780Y384412D01*
X766738Y384544D01*
X766699Y384678D01*
X766689Y384695D01*
X766682Y384714D01*
X766608Y384832D01*
X766537Y384952D01*
X766519Y384973D01*
X766512Y384983D01*
X766497Y384997D01*
X766431Y385072D01*
X759840Y391663D01*
X759840Y400817D01*
X766313Y407290D01*
X775467Y407290D01*
X782058Y400699D01*
X782167Y400614D01*
X782274Y400525D01*
X782293Y400517D01*
X782309Y400504D01*
X782437Y400449D01*
X782562Y400390D01*
X782582Y400386D01*
X782601Y400378D01*
X782739Y400356D01*
X782875Y400330D01*
X782895Y400331D01*
X782915Y400328D01*
X783054Y400341D01*
X783192Y400350D01*
X783211Y400356D01*
X783231Y400358D01*
X783363Y400405D01*
X783494Y400448D01*
X783512Y400459D01*
X783531Y400465D01*
X783646Y400543D01*
X783763Y400618D01*
X783777Y400633D01*
X783794Y400644D01*
X783886Y400748D01*
X783981Y400849D01*
X783991Y400867D01*
X784004Y400882D01*
X784068Y401007D01*
X784135Y401128D01*
X784140Y401148D01*
X784145Y401159D01*
X791386Y408400D01*
X791509Y408444D01*
X791526Y408455D01*
X791545Y408463D01*
X791657Y408544D01*
X791772Y408622D01*
X791786Y408638D01*
X791802Y408649D01*
X791891Y408757D01*
X791983Y408861D01*
X791992Y408879D01*
X792005Y408894D01*
X792064Y409020D01*
X792127Y409144D01*
X792132Y409164D01*
X792140Y409182D01*
X792166Y409318D01*
X792197Y409454D01*
X792196Y409475D01*
X792200Y409494D01*
X792191Y409633D01*
X792187Y409772D01*
X792182Y409792D01*
X792180Y409812D01*
X792138Y409944D01*
X792099Y410078D01*
X792089Y410095D01*
X792082Y410114D01*
X792008Y410232D01*
X791937Y410352D01*
X791919Y410373D01*
X791912Y410383D01*
X791897Y410397D01*
X791831Y410472D01*
X785240Y417063D01*
X785240Y426217D01*
X791713Y432690D01*
X800347Y432690D01*
X800445Y432702D01*
X800544Y432705D01*
X800603Y432722D01*
X800663Y432730D01*
X800755Y432766D01*
X800850Y432794D01*
X800902Y432824D01*
X800958Y432847D01*
X801038Y432905D01*
X801124Y432955D01*
X801199Y433021D01*
X801216Y433033D01*
X801224Y433043D01*
X801245Y433061D01*
X802007Y433824D01*
X802092Y433933D01*
X802181Y434040D01*
X802189Y434059D01*
X802202Y434075D01*
X802257Y434203D01*
X802316Y434328D01*
X802320Y434348D01*
X802328Y434367D01*
X802350Y434505D01*
X802376Y434641D01*
X802375Y434661D01*
X802378Y434681D01*
X802365Y434820D01*
X802356Y434958D01*
X802350Y434977D01*
X802348Y434997D01*
X802301Y435128D01*
X802258Y435260D01*
X802247Y435278D01*
X802240Y435297D01*
X802163Y435411D01*
X802088Y435529D01*
X802073Y435543D01*
X802062Y435560D01*
X801958Y435652D01*
X801856Y435747D01*
X801839Y435757D01*
X801823Y435770D01*
X801700Y435833D01*
X801578Y435901D01*
X801558Y435906D01*
X801540Y435915D01*
X801404Y435945D01*
X801270Y435980D01*
X801242Y435982D01*
X801230Y435985D01*
X801209Y435984D01*
X801109Y435990D01*
X791713Y435990D01*
X785240Y442463D01*
X785240Y451617D01*
X791713Y458090D01*
X800867Y458090D01*
X807340Y451617D01*
X807340Y442221D01*
X807357Y442083D01*
X807370Y441944D01*
X807377Y441925D01*
X807380Y441905D01*
X807431Y441776D01*
X807478Y441645D01*
X807489Y441628D01*
X807497Y441610D01*
X807578Y441497D01*
X807656Y441382D01*
X807672Y441369D01*
X807683Y441352D01*
X807791Y441263D01*
X807895Y441172D01*
X807913Y441162D01*
X807928Y441149D01*
X808054Y441090D01*
X808178Y441027D01*
X808198Y441022D01*
X808216Y441014D01*
X808352Y440988D01*
X808488Y440957D01*
X808509Y440958D01*
X808528Y440954D01*
X808667Y440963D01*
X808806Y440967D01*
X808826Y440973D01*
X808846Y440974D01*
X808978Y441017D01*
X809112Y441055D01*
X809129Y441066D01*
X809148Y441072D01*
X809266Y441146D01*
X809386Y441217D01*
X809407Y441235D01*
X809417Y441242D01*
X809431Y441257D01*
X809506Y441323D01*
X813952Y445768D01*
X814012Y445847D01*
X814080Y445919D01*
X814109Y445972D01*
X814146Y446020D01*
X814186Y446111D01*
X814234Y446197D01*
X814249Y446256D01*
X814273Y446311D01*
X814288Y446409D01*
X814313Y446505D01*
X814319Y446605D01*
X814323Y446626D01*
X814321Y446638D01*
X814323Y446666D01*
X814323Y493469D01*
X814311Y493567D01*
X814308Y493666D01*
X814291Y493724D01*
X814283Y493784D01*
X814247Y493876D01*
X814219Y493972D01*
X814189Y494024D01*
X814166Y494080D01*
X814108Y494160D01*
X814058Y494245D01*
X814015Y494294D01*
X814014Y494295D01*
X814012Y494297D01*
X813992Y494321D01*
X813980Y494337D01*
X813970Y494345D01*
X813952Y494366D01*
X809506Y498811D01*
X809397Y498897D01*
X809290Y498985D01*
X809271Y498994D01*
X809255Y499006D01*
X809127Y499062D01*
X809002Y499121D01*
X808982Y499125D01*
X808963Y499133D01*
X808825Y499155D01*
X808689Y499181D01*
X808669Y499179D01*
X808649Y499182D01*
X808510Y499169D01*
X808372Y499161D01*
X808353Y499155D01*
X808333Y499153D01*
X808201Y499105D01*
X808070Y499063D01*
X808052Y499052D01*
X808033Y499045D01*
X807918Y498967D01*
X807801Y498893D01*
X807787Y498878D01*
X807770Y498866D01*
X807678Y498762D01*
X807583Y498661D01*
X807573Y498643D01*
X807560Y498628D01*
X807496Y498504D01*
X807429Y498382D01*
X807424Y498363D01*
X807415Y498345D01*
X807385Y498209D01*
X807350Y498075D01*
X807348Y498046D01*
X807345Y498035D01*
X807346Y498014D01*
X807340Y497914D01*
X807340Y493263D01*
X800867Y486790D01*
X791713Y486790D01*
X785240Y493263D01*
X785240Y502417D01*
X791713Y508890D01*
X796029Y508890D01*
X796167Y508907D01*
X796306Y508920D01*
X796325Y508927D01*
X796345Y508930D01*
X796474Y508981D01*
X796605Y509028D01*
X796622Y509039D01*
X796640Y509047D01*
X796753Y509128D01*
X796868Y509206D01*
X796881Y509222D01*
X796898Y509233D01*
X796987Y509341D01*
X797078Y509445D01*
X797088Y509463D01*
X797101Y509478D01*
X797160Y509604D01*
X797223Y509728D01*
X797228Y509748D01*
X797236Y509766D01*
X797262Y509902D01*
X797293Y510038D01*
X797292Y510059D01*
X797296Y510078D01*
X797287Y510217D01*
X797283Y510356D01*
X797277Y510376D01*
X797276Y510396D01*
X797233Y510528D01*
X797195Y510662D01*
X797184Y510679D01*
X797178Y510698D01*
X797104Y510816D01*
X797033Y510936D01*
X797015Y510957D01*
X797008Y510967D01*
X796993Y510981D01*
X796927Y511056D01*
X792228Y515756D01*
X792149Y515816D01*
X792077Y515884D01*
X792024Y515913D01*
X791976Y515950D01*
X791885Y515990D01*
X791799Y516038D01*
X791740Y516053D01*
X791685Y516077D01*
X791587Y516092D01*
X791491Y516117D01*
X791391Y516123D01*
X791370Y516127D01*
X791358Y516125D01*
X791330Y516127D01*
X739020Y516127D01*
X738922Y516115D01*
X738823Y516112D01*
X738764Y516095D01*
X738704Y516087D01*
X738612Y516051D01*
X738517Y516023D01*
X738465Y515993D01*
X738409Y515970D01*
X738329Y515912D01*
X738243Y515862D01*
X738168Y515796D01*
X738151Y515784D01*
X738143Y515774D01*
X738122Y515756D01*
X725794Y503427D01*
X640595Y503427D01*
X640497Y503415D01*
X640398Y503412D01*
X640339Y503395D01*
X640279Y503387D01*
X640187Y503351D01*
X640092Y503323D01*
X640040Y503293D01*
X639984Y503270D01*
X639904Y503212D01*
X639818Y503162D01*
X639743Y503096D01*
X639726Y503084D01*
X639718Y503074D01*
X639697Y503056D01*
X636995Y500354D01*
X636935Y500275D01*
X636867Y500203D01*
X636838Y500150D01*
X636801Y500102D01*
X636761Y500011D01*
X636713Y499925D01*
X636698Y499866D01*
X636674Y499811D01*
X636659Y499713D01*
X636653Y499692D01*
X633813Y496851D01*
X629837Y496851D01*
X627001Y499688D01*
X626994Y499712D01*
X626986Y499772D01*
X626950Y499864D01*
X626922Y499959D01*
X626892Y500011D01*
X626869Y500067D01*
X626811Y500147D01*
X626761Y500233D01*
X626695Y500308D01*
X626683Y500325D01*
X626673Y500333D01*
X626655Y500354D01*
X623953Y503056D01*
X623874Y503116D01*
X623802Y503184D01*
X623749Y503213D01*
X623701Y503250D01*
X623610Y503290D01*
X623524Y503338D01*
X623465Y503353D01*
X623410Y503377D01*
X623312Y503392D01*
X623216Y503417D01*
X623116Y503423D01*
X623095Y503427D01*
X623083Y503425D01*
X623055Y503427D01*
X497720Y503427D01*
X497622Y503415D01*
X497523Y503412D01*
X497464Y503395D01*
X497404Y503387D01*
X497312Y503351D01*
X497217Y503323D01*
X497165Y503293D01*
X497109Y503270D01*
X497029Y503212D01*
X496943Y503162D01*
X496868Y503096D01*
X496851Y503084D01*
X496843Y503074D01*
X496822Y503056D01*
X494120Y500354D01*
X494060Y500275D01*
X493992Y500203D01*
X493963Y500150D01*
X493926Y500102D01*
X493886Y500011D01*
X493838Y499925D01*
X493823Y499866D01*
X493799Y499811D01*
X493784Y499713D01*
X493778Y499692D01*
X490938Y496851D01*
X486962Y496851D01*
X484151Y499662D01*
X484151Y503638D01*
X486988Y506474D01*
X487012Y506481D01*
X487072Y506489D01*
X487164Y506525D01*
X487259Y506553D01*
X487311Y506583D01*
X487367Y506606D01*
X487447Y506664D01*
X487533Y506714D01*
X487608Y506780D01*
X487625Y506792D01*
X487633Y506802D01*
X487654Y506820D01*
X490356Y509522D01*
X493406Y512573D01*
X721480Y512573D01*
X721578Y512585D01*
X721677Y512588D01*
X721736Y512605D01*
X721796Y512613D01*
X721888Y512649D01*
X721983Y512677D01*
X722035Y512707D01*
X722091Y512730D01*
X722171Y512788D01*
X722257Y512838D01*
X722332Y512904D01*
X722349Y512916D01*
X722357Y512926D01*
X722378Y512944D01*
X734706Y525273D01*
X795644Y525273D01*
X798694Y522223D01*
X798694Y522222D01*
X803527Y517389D01*
X803606Y517329D01*
X803678Y517261D01*
X803731Y517232D01*
X803779Y517195D01*
X803870Y517155D01*
X803956Y517107D01*
X804015Y517092D01*
X804070Y517068D01*
X804168Y517053D01*
X804209Y517042D01*
X819777Y501475D01*
X819886Y501390D01*
X819993Y501301D01*
X820012Y501292D01*
X820028Y501280D01*
X820156Y501225D01*
X820281Y501165D01*
X820301Y501162D01*
X820320Y501154D01*
X820458Y501132D01*
X820594Y501106D01*
X820614Y501107D01*
X820634Y501104D01*
X820773Y501117D01*
X820911Y501125D01*
X820930Y501132D01*
X820950Y501134D01*
X821082Y501181D01*
X821213Y501223D01*
X821231Y501234D01*
X821250Y501241D01*
X821365Y501319D01*
X821482Y501394D01*
X821496Y501408D01*
X821513Y501420D01*
X821605Y501524D01*
X821700Y501625D01*
X821710Y501643D01*
X821723Y501658D01*
X821787Y501782D01*
X821854Y501904D01*
X821859Y501923D01*
X821868Y501941D01*
X821898Y502077D01*
X821933Y502212D01*
X821935Y502240D01*
X821938Y502252D01*
X821937Y502272D01*
X821943Y502372D01*
X821943Y534924D01*
X821928Y535042D01*
X821921Y535161D01*
X821908Y535199D01*
X821903Y535240D01*
X821860Y535350D01*
X821823Y535463D01*
X821801Y535498D01*
X821786Y535535D01*
X821717Y535631D01*
X821653Y535732D01*
X821623Y535760D01*
X821600Y535793D01*
X821508Y535869D01*
X821421Y535950D01*
X821386Y535970D01*
X821355Y535995D01*
X821247Y536046D01*
X821143Y536104D01*
X821103Y536114D01*
X821067Y536131D01*
X820950Y536153D01*
X820835Y536183D01*
X820775Y536187D01*
X820755Y536191D01*
X820734Y536189D01*
X820674Y536193D01*
X4826Y536193D01*
X4708Y536178D01*
X4589Y536171D01*
X4551Y536158D01*
X4510Y536153D01*
X4400Y536110D01*
X4287Y536073D01*
X4252Y536051D01*
X4215Y536036D01*
X4119Y535967D01*
X4018Y535903D01*
X3990Y535873D01*
X3957Y535850D01*
X3881Y535758D01*
X3800Y535671D01*
X3780Y535636D01*
X3755Y535605D01*
X3704Y535497D01*
X3646Y535393D01*
X3636Y535353D01*
X3619Y535317D01*
X3597Y535200D01*
X3567Y535085D01*
X3563Y535025D01*
X3559Y535005D01*
X3561Y534984D01*
X3557Y534924D01*
X3557Y4826D01*
X3572Y4708D01*
X3579Y4589D01*
X3592Y4551D01*
X3597Y4510D01*
X3640Y4400D01*
X3677Y4287D01*
X3699Y4252D01*
X3714Y4215D01*
X3783Y4119D01*
X3847Y4018D01*
X3877Y3990D01*
X3900Y3957D01*
X3992Y3881D01*
X4079Y3800D01*
X4114Y3780D01*
X4145Y3755D01*
X4253Y3704D01*
X4357Y3646D01*
X4397Y3636D01*
X4433Y3619D01*
X4550Y3597D01*
X4665Y3567D01*
X4725Y3563D01*
X4745Y3559D01*
X4766Y3561D01*
X4826Y3557D01*
X820674Y3557D01*
X820792Y3572D01*
G37*
%LPC*%
G36*
X188512Y173001D02*
X188512Y173001D01*
X185701Y175812D01*
X185701Y179788D01*
X187080Y181166D01*
X187140Y181244D01*
X187208Y181316D01*
X187237Y181369D01*
X187274Y181417D01*
X187314Y181508D01*
X187362Y181595D01*
X187377Y181653D01*
X187401Y181709D01*
X187416Y181807D01*
X187441Y181903D01*
X187447Y182003D01*
X187451Y182023D01*
X187449Y182035D01*
X187451Y182063D01*
X187451Y247142D01*
X187436Y247260D01*
X187429Y247379D01*
X187416Y247417D01*
X187411Y247458D01*
X187368Y247568D01*
X187331Y247681D01*
X187309Y247716D01*
X187294Y247753D01*
X187225Y247849D01*
X187161Y247950D01*
X187131Y247978D01*
X187108Y248011D01*
X187016Y248087D01*
X186929Y248168D01*
X186894Y248188D01*
X186863Y248213D01*
X186755Y248264D01*
X186651Y248322D01*
X186611Y248332D01*
X186575Y248349D01*
X186458Y248371D01*
X186343Y248401D01*
X186283Y248405D01*
X186263Y248409D01*
X186242Y248407D01*
X186182Y248411D01*
X125888Y248411D01*
X123834Y249262D01*
X122262Y250834D01*
X121411Y252888D01*
X121411Y255112D01*
X122262Y257166D01*
X123834Y258738D01*
X125888Y259589D01*
X259842Y259589D01*
X259960Y259604D01*
X260079Y259611D01*
X260117Y259624D01*
X260158Y259629D01*
X260268Y259672D01*
X260381Y259709D01*
X260416Y259731D01*
X260453Y259746D01*
X260549Y259815D01*
X260650Y259879D01*
X260678Y259909D01*
X260711Y259932D01*
X260787Y260024D01*
X260868Y260111D01*
X260888Y260146D01*
X260913Y260177D01*
X260964Y260285D01*
X261022Y260389D01*
X261032Y260429D01*
X261049Y260465D01*
X261071Y260582D01*
X261101Y260697D01*
X261105Y260757D01*
X261109Y260777D01*
X261107Y260798D01*
X261111Y260858D01*
X261111Y269112D01*
X261962Y271166D01*
X263534Y272738D01*
X265588Y273589D01*
X267812Y273589D01*
X269866Y272738D01*
X271438Y271166D01*
X272289Y269112D01*
X272289Y260858D01*
X272304Y260740D01*
X272311Y260621D01*
X272324Y260583D01*
X272329Y260542D01*
X272372Y260432D01*
X272409Y260319D01*
X272431Y260284D01*
X272446Y260247D01*
X272515Y260151D01*
X272579Y260050D01*
X272609Y260022D01*
X272632Y259989D01*
X272724Y259913D01*
X272811Y259832D01*
X272846Y259812D01*
X272877Y259787D01*
X272985Y259736D01*
X273089Y259678D01*
X273129Y259668D01*
X273165Y259651D01*
X273282Y259629D01*
X273397Y259599D01*
X273457Y259595D01*
X273477Y259591D01*
X273498Y259593D01*
X273558Y259589D01*
X361442Y259589D01*
X361560Y259604D01*
X361679Y259611D01*
X361717Y259624D01*
X361758Y259629D01*
X361868Y259672D01*
X361981Y259709D01*
X362016Y259731D01*
X362053Y259746D01*
X362149Y259815D01*
X362250Y259879D01*
X362278Y259909D01*
X362311Y259932D01*
X362387Y260024D01*
X362468Y260111D01*
X362488Y260146D01*
X362513Y260177D01*
X362564Y260285D01*
X362622Y260389D01*
X362632Y260429D01*
X362649Y260465D01*
X362671Y260582D01*
X362701Y260697D01*
X362705Y260757D01*
X362709Y260777D01*
X362707Y260798D01*
X362711Y260858D01*
X362711Y269112D01*
X363562Y271166D01*
X365134Y272738D01*
X367188Y273589D01*
X369412Y273589D01*
X371466Y272738D01*
X373038Y271166D01*
X373889Y269112D01*
X373889Y260858D01*
X373904Y260740D01*
X373911Y260621D01*
X373924Y260583D01*
X373929Y260542D01*
X373972Y260432D01*
X374009Y260319D01*
X374031Y260284D01*
X374046Y260247D01*
X374115Y260151D01*
X374179Y260050D01*
X374209Y260022D01*
X374232Y259989D01*
X374324Y259913D01*
X374411Y259832D01*
X374446Y259812D01*
X374477Y259787D01*
X374585Y259736D01*
X374689Y259678D01*
X374729Y259668D01*
X374765Y259651D01*
X374882Y259629D01*
X374997Y259599D01*
X375057Y259595D01*
X375077Y259591D01*
X375098Y259593D01*
X375158Y259589D01*
X403559Y259589D01*
X403658Y259601D01*
X403757Y259604D01*
X403815Y259621D01*
X403875Y259629D01*
X403967Y259665D01*
X404062Y259693D01*
X404114Y259723D01*
X404171Y259746D01*
X404251Y259804D01*
X404336Y259854D01*
X404411Y259920D01*
X404428Y259932D01*
X404436Y259942D01*
X404457Y259960D01*
X412759Y268263D01*
X414813Y269114D01*
X501426Y269114D01*
X501525Y269126D01*
X501624Y269129D01*
X501682Y269146D01*
X501742Y269154D01*
X501834Y269190D01*
X501929Y269218D01*
X501981Y269248D01*
X502038Y269271D01*
X502118Y269329D01*
X502203Y269379D01*
X502278Y269445D01*
X502295Y269457D01*
X502303Y269467D01*
X502324Y269485D01*
X517834Y284996D01*
X519888Y285847D01*
X614593Y285847D01*
X616647Y284996D01*
X641682Y259960D01*
X641761Y259900D01*
X641833Y259832D01*
X641886Y259803D01*
X641934Y259766D01*
X642025Y259726D01*
X642111Y259678D01*
X642170Y259663D01*
X642225Y259639D01*
X642323Y259624D01*
X642419Y259599D01*
X642519Y259593D01*
X642540Y259589D01*
X642552Y259591D01*
X642580Y259589D01*
X648812Y259589D01*
X650866Y258738D01*
X652438Y257166D01*
X653289Y255112D01*
X653289Y252888D01*
X652438Y250834D01*
X650866Y249262D01*
X648812Y248411D01*
X638627Y248411D01*
X636573Y249262D01*
X611538Y274298D01*
X611460Y274358D01*
X611388Y274426D01*
X611335Y274455D01*
X611287Y274492D01*
X611196Y274532D01*
X611109Y274580D01*
X611051Y274595D01*
X610995Y274619D01*
X610897Y274634D01*
X610801Y274659D01*
X610701Y274665D01*
X610681Y274669D01*
X610669Y274667D01*
X610641Y274669D01*
X602968Y274669D01*
X602850Y274654D01*
X602731Y274647D01*
X602693Y274634D01*
X602652Y274629D01*
X602542Y274586D01*
X602429Y274549D01*
X602394Y274527D01*
X602357Y274512D01*
X602261Y274443D01*
X602160Y274379D01*
X602132Y274349D01*
X602099Y274326D01*
X602023Y274234D01*
X601942Y274147D01*
X601922Y274112D01*
X601897Y274081D01*
X601846Y273973D01*
X601788Y273869D01*
X601778Y273829D01*
X601761Y273793D01*
X601739Y273676D01*
X601709Y273561D01*
X601705Y273501D01*
X601701Y273481D01*
X601703Y273460D01*
X601699Y273400D01*
X601699Y268900D01*
X600828Y268030D01*
X600768Y267952D01*
X600700Y267880D01*
X600671Y267827D01*
X600634Y267779D01*
X600594Y267688D01*
X600546Y267601D01*
X600531Y267543D01*
X600507Y267487D01*
X600492Y267389D01*
X600467Y267293D01*
X600461Y267193D01*
X600457Y267173D01*
X600459Y267161D01*
X600457Y267133D01*
X600457Y230097D01*
X600469Y229999D01*
X600472Y229900D01*
X600489Y229842D01*
X600497Y229782D01*
X600533Y229690D01*
X600561Y229595D01*
X600591Y229543D01*
X600614Y229486D01*
X600672Y229406D01*
X600722Y229321D01*
X600788Y229245D01*
X600800Y229229D01*
X600810Y229221D01*
X600828Y229200D01*
X601699Y228330D01*
X601699Y224354D01*
X598888Y221543D01*
X594912Y221543D01*
X592101Y224354D01*
X592101Y228330D01*
X592972Y229200D01*
X593032Y229278D01*
X593100Y229350D01*
X593129Y229403D01*
X593166Y229451D01*
X593206Y229542D01*
X593254Y229629D01*
X593269Y229687D01*
X593293Y229743D01*
X593308Y229841D01*
X593333Y229937D01*
X593339Y230037D01*
X593343Y230057D01*
X593341Y230069D01*
X593343Y230097D01*
X593343Y267133D01*
X593331Y267231D01*
X593328Y267330D01*
X593311Y267388D01*
X593303Y267448D01*
X593267Y267540D01*
X593239Y267635D01*
X593209Y267687D01*
X593186Y267744D01*
X593128Y267824D01*
X593078Y267909D01*
X593012Y267985D01*
X593000Y268001D01*
X592990Y268009D01*
X592972Y268030D01*
X592101Y268900D01*
X592101Y273400D01*
X592086Y273518D01*
X592079Y273637D01*
X592066Y273675D01*
X592061Y273716D01*
X592018Y273826D01*
X591981Y273939D01*
X591959Y273974D01*
X591944Y274011D01*
X591875Y274107D01*
X591811Y274208D01*
X591781Y274236D01*
X591758Y274269D01*
X591666Y274345D01*
X591579Y274426D01*
X591544Y274446D01*
X591513Y274471D01*
X591405Y274522D01*
X591301Y274580D01*
X591261Y274590D01*
X591225Y274607D01*
X591108Y274629D01*
X590993Y274659D01*
X590933Y274663D01*
X590913Y274667D01*
X590892Y274665D01*
X590832Y274669D01*
X523841Y274669D01*
X523743Y274657D01*
X523644Y274654D01*
X523585Y274637D01*
X523525Y274629D01*
X523433Y274593D01*
X523338Y274565D01*
X523286Y274535D01*
X523230Y274512D01*
X523149Y274454D01*
X523064Y274404D01*
X522989Y274338D01*
X522972Y274326D01*
X522964Y274316D01*
X522943Y274298D01*
X507433Y258787D01*
X505379Y257936D01*
X418766Y257936D01*
X418667Y257924D01*
X418568Y257921D01*
X418510Y257904D01*
X418450Y257896D01*
X418358Y257860D01*
X418263Y257832D01*
X418211Y257802D01*
X418154Y257779D01*
X418074Y257721D01*
X417989Y257671D01*
X417914Y257605D01*
X417897Y257593D01*
X417889Y257583D01*
X417868Y257565D01*
X409566Y249262D01*
X407512Y248411D01*
X194818Y248411D01*
X194700Y248396D01*
X194581Y248389D01*
X194543Y248376D01*
X194502Y248371D01*
X194392Y248328D01*
X194279Y248291D01*
X194244Y248269D01*
X194207Y248254D01*
X194111Y248185D01*
X194010Y248121D01*
X193982Y248091D01*
X193949Y248068D01*
X193873Y247976D01*
X193792Y247889D01*
X193772Y247854D01*
X193747Y247823D01*
X193696Y247715D01*
X193638Y247611D01*
X193628Y247571D01*
X193611Y247535D01*
X193589Y247418D01*
X193559Y247303D01*
X193555Y247243D01*
X193551Y247223D01*
X193553Y247202D01*
X193549Y247142D01*
X193549Y182063D01*
X193561Y181965D01*
X193564Y181866D01*
X193581Y181808D01*
X193589Y181748D01*
X193625Y181656D01*
X193653Y181561D01*
X193683Y181509D01*
X193706Y181452D01*
X193764Y181372D01*
X193814Y181287D01*
X193880Y181211D01*
X193892Y181195D01*
X193902Y181187D01*
X193920Y181166D01*
X195299Y179788D01*
X195299Y175812D01*
X192488Y173001D01*
X188512Y173001D01*
G37*
%LPD*%
%LPC*%
G36*
X484688Y346811D02*
X484688Y346811D01*
X482634Y347662D01*
X467957Y362340D01*
X467879Y362400D01*
X467806Y362468D01*
X467753Y362497D01*
X467706Y362534D01*
X467615Y362574D01*
X467528Y362622D01*
X467469Y362637D01*
X467414Y362661D01*
X467316Y362676D01*
X467220Y362701D01*
X467120Y362707D01*
X467100Y362711D01*
X467087Y362709D01*
X467059Y362711D01*
X369250Y362711D01*
X369152Y362699D01*
X369053Y362696D01*
X368994Y362679D01*
X368934Y362671D01*
X368842Y362635D01*
X368747Y362607D01*
X368695Y362577D01*
X368639Y362554D01*
X368559Y362496D01*
X368473Y362446D01*
X368398Y362380D01*
X368381Y362368D01*
X368374Y362358D01*
X368352Y362340D01*
X367206Y361193D01*
X364125Y359917D01*
X347075Y359917D01*
X343994Y361193D01*
X342848Y362340D01*
X342769Y362400D01*
X342697Y362468D01*
X342644Y362497D01*
X342596Y362534D01*
X342505Y362574D01*
X342419Y362622D01*
X342360Y362637D01*
X342304Y362661D01*
X342206Y362676D01*
X342111Y362701D01*
X342011Y362707D01*
X341990Y362711D01*
X341978Y362709D01*
X341950Y362711D01*
X318450Y362711D01*
X318352Y362699D01*
X318253Y362696D01*
X318195Y362679D01*
X318134Y362671D01*
X318042Y362635D01*
X317947Y362607D01*
X317895Y362577D01*
X317839Y362554D01*
X317759Y362496D01*
X317673Y362446D01*
X317598Y362380D01*
X317581Y362368D01*
X317574Y362358D01*
X317552Y362340D01*
X316406Y361193D01*
X313325Y359917D01*
X296275Y359917D01*
X293194Y361193D01*
X290835Y363552D01*
X289559Y366633D01*
X289559Y369967D01*
X290835Y373048D01*
X293194Y375407D01*
X296275Y376683D01*
X313325Y376683D01*
X316406Y375407D01*
X317552Y374260D01*
X317631Y374200D01*
X317703Y374132D01*
X317756Y374103D01*
X317804Y374066D01*
X317895Y374026D01*
X317981Y373978D01*
X318040Y373963D01*
X318096Y373939D01*
X318194Y373924D01*
X318289Y373899D01*
X318389Y373893D01*
X318410Y373889D01*
X318422Y373891D01*
X318450Y373889D01*
X341950Y373889D01*
X342048Y373901D01*
X342147Y373904D01*
X342206Y373921D01*
X342266Y373929D01*
X342358Y373965D01*
X342453Y373993D01*
X342505Y374023D01*
X342561Y374046D01*
X342641Y374104D01*
X342727Y374154D01*
X342802Y374220D01*
X342819Y374232D01*
X342826Y374242D01*
X342848Y374260D01*
X343994Y375407D01*
X347075Y376683D01*
X364125Y376683D01*
X367206Y375407D01*
X368352Y374260D01*
X368431Y374200D01*
X368503Y374132D01*
X368556Y374103D01*
X368604Y374066D01*
X368695Y374026D01*
X368781Y373978D01*
X368840Y373963D01*
X368896Y373939D01*
X368994Y373924D01*
X369089Y373899D01*
X369189Y373893D01*
X369210Y373889D01*
X369222Y373891D01*
X369250Y373889D01*
X471012Y373889D01*
X473066Y373038D01*
X487743Y358360D01*
X487821Y358300D01*
X487894Y358232D01*
X487947Y358203D01*
X487994Y358166D01*
X488085Y358126D01*
X488172Y358078D01*
X488231Y358063D01*
X488286Y358039D01*
X488384Y358024D01*
X488480Y357999D01*
X488580Y357993D01*
X488600Y357989D01*
X488613Y357991D01*
X488641Y357989D01*
X686912Y357989D01*
X688966Y357138D01*
X690538Y355566D01*
X691389Y353512D01*
X691389Y351288D01*
X690538Y349234D01*
X688966Y347662D01*
X686912Y346811D01*
X484688Y346811D01*
G37*
%LPD*%
%LPC*%
G36*
X450083Y45846D02*
X450083Y45846D01*
X443610Y52319D01*
X443610Y61473D01*
X450201Y68064D01*
X450286Y68173D01*
X450375Y68280D01*
X450383Y68299D01*
X450396Y68315D01*
X450451Y68443D01*
X450510Y68568D01*
X450514Y68588D01*
X450522Y68607D01*
X450544Y68745D01*
X450570Y68881D01*
X450569Y68901D01*
X450572Y68921D01*
X450559Y69060D01*
X450550Y69198D01*
X450544Y69217D01*
X450542Y69237D01*
X450495Y69369D01*
X450452Y69500D01*
X450441Y69518D01*
X450435Y69537D01*
X450357Y69652D01*
X450282Y69769D01*
X450267Y69783D01*
X450256Y69800D01*
X450152Y69892D01*
X450051Y69987D01*
X450033Y69997D01*
X450018Y70010D01*
X449893Y70074D01*
X449772Y70141D01*
X449752Y70146D01*
X449741Y70151D01*
X442500Y77392D01*
X442456Y77515D01*
X442445Y77532D01*
X442437Y77551D01*
X442356Y77663D01*
X442278Y77778D01*
X442262Y77792D01*
X442251Y77808D01*
X442143Y77897D01*
X442039Y77989D01*
X442021Y77998D01*
X442006Y78011D01*
X441880Y78070D01*
X441756Y78133D01*
X441736Y78138D01*
X441718Y78146D01*
X441582Y78172D01*
X441446Y78203D01*
X441425Y78202D01*
X441406Y78206D01*
X441267Y78197D01*
X441128Y78193D01*
X441108Y78188D01*
X441088Y78186D01*
X440956Y78144D01*
X440822Y78105D01*
X440805Y78095D01*
X440786Y78088D01*
X440668Y78014D01*
X440548Y77943D01*
X440527Y77925D01*
X440517Y77918D01*
X440503Y77903D01*
X440428Y77837D01*
X433837Y71246D01*
X424683Y71246D01*
X418210Y77719D01*
X418210Y86873D01*
X424683Y93346D01*
X433837Y93346D01*
X440428Y86755D01*
X440537Y86670D01*
X440644Y86581D01*
X440663Y86573D01*
X440679Y86560D01*
X440807Y86505D01*
X440932Y86446D01*
X440952Y86442D01*
X440971Y86434D01*
X441109Y86412D01*
X441245Y86386D01*
X441265Y86387D01*
X441285Y86384D01*
X441424Y86397D01*
X441562Y86406D01*
X441581Y86412D01*
X441601Y86414D01*
X441733Y86461D01*
X441864Y86504D01*
X441882Y86515D01*
X441901Y86521D01*
X442016Y86599D01*
X442133Y86674D01*
X442147Y86689D01*
X442164Y86700D01*
X442256Y86804D01*
X442351Y86905D01*
X442361Y86923D01*
X442374Y86938D01*
X442438Y87063D01*
X442505Y87184D01*
X442510Y87204D01*
X442515Y87215D01*
X449662Y94362D01*
X452121Y94362D01*
X452121Y83566D01*
X452136Y83448D01*
X452143Y83329D01*
X452156Y83291D01*
X452161Y83251D01*
X452204Y83140D01*
X452241Y83027D01*
X452263Y82993D01*
X452278Y82955D01*
X452348Y82859D01*
X452411Y82758D01*
X452441Y82730D01*
X452464Y82698D01*
X452556Y82622D01*
X452643Y82540D01*
X452678Y82521D01*
X452709Y82495D01*
X452817Y82444D01*
X452921Y82387D01*
X452961Y82376D01*
X452997Y82359D01*
X453114Y82337D01*
X453229Y82307D01*
X453290Y82303D01*
X453310Y82299D01*
X453330Y82301D01*
X453390Y82297D01*
X455930Y82297D01*
X456048Y82312D01*
X456167Y82319D01*
X456205Y82332D01*
X456245Y82337D01*
X456356Y82381D01*
X456469Y82417D01*
X456504Y82439D01*
X456541Y82454D01*
X456637Y82524D01*
X456738Y82587D01*
X456766Y82617D01*
X456799Y82641D01*
X456874Y82732D01*
X456956Y82819D01*
X456976Y82854D01*
X457001Y82886D01*
X457052Y82993D01*
X457110Y83098D01*
X457120Y83137D01*
X457137Y83173D01*
X457159Y83290D01*
X457189Y83405D01*
X457193Y83466D01*
X457197Y83486D01*
X457195Y83506D01*
X457199Y83566D01*
X457199Y94362D01*
X459658Y94362D01*
X466820Y87200D01*
X466864Y87077D01*
X466875Y87060D01*
X466883Y87041D01*
X466964Y86929D01*
X467042Y86814D01*
X467058Y86800D01*
X467069Y86784D01*
X467177Y86695D01*
X467281Y86603D01*
X467299Y86594D01*
X467314Y86581D01*
X467440Y86522D01*
X467564Y86459D01*
X467584Y86454D01*
X467602Y86446D01*
X467738Y86420D01*
X467874Y86389D01*
X467895Y86390D01*
X467914Y86386D01*
X468053Y86395D01*
X468192Y86399D01*
X468212Y86404D01*
X468232Y86406D01*
X468364Y86448D01*
X468498Y86487D01*
X468515Y86497D01*
X468534Y86504D01*
X468652Y86578D01*
X468772Y86649D01*
X468793Y86667D01*
X468803Y86674D01*
X468817Y86689D01*
X468892Y86755D01*
X475483Y93346D01*
X484637Y93346D01*
X491228Y86755D01*
X491337Y86670D01*
X491444Y86581D01*
X491463Y86573D01*
X491479Y86560D01*
X491607Y86505D01*
X491732Y86446D01*
X491752Y86442D01*
X491771Y86434D01*
X491909Y86412D01*
X492045Y86386D01*
X492065Y86387D01*
X492085Y86384D01*
X492224Y86397D01*
X492362Y86406D01*
X492381Y86412D01*
X492401Y86414D01*
X492533Y86461D01*
X492664Y86504D01*
X492682Y86515D01*
X492701Y86521D01*
X492816Y86599D01*
X492933Y86674D01*
X492947Y86689D01*
X492964Y86700D01*
X493056Y86804D01*
X493151Y86905D01*
X493161Y86923D01*
X493174Y86938D01*
X493238Y87063D01*
X493305Y87184D01*
X493310Y87204D01*
X493315Y87215D01*
X500462Y94362D01*
X502921Y94362D01*
X502921Y83566D01*
X502936Y83448D01*
X502943Y83329D01*
X502956Y83291D01*
X502961Y83251D01*
X503004Y83140D01*
X503041Y83027D01*
X503063Y82993D01*
X503078Y82955D01*
X503148Y82859D01*
X503211Y82758D01*
X503241Y82730D01*
X503264Y82698D01*
X503356Y82622D01*
X503443Y82540D01*
X503478Y82521D01*
X503509Y82495D01*
X503617Y82444D01*
X503721Y82387D01*
X503761Y82376D01*
X503797Y82359D01*
X503914Y82337D01*
X504029Y82307D01*
X504090Y82303D01*
X504110Y82299D01*
X504130Y82301D01*
X504190Y82297D01*
X506730Y82297D01*
X506848Y82312D01*
X506967Y82319D01*
X507005Y82332D01*
X507045Y82337D01*
X507156Y82381D01*
X507269Y82417D01*
X507304Y82439D01*
X507341Y82454D01*
X507437Y82524D01*
X507538Y82587D01*
X507566Y82617D01*
X507599Y82641D01*
X507674Y82732D01*
X507756Y82819D01*
X507776Y82854D01*
X507801Y82886D01*
X507852Y82993D01*
X507910Y83098D01*
X507920Y83137D01*
X507937Y83173D01*
X507959Y83290D01*
X507989Y83405D01*
X507993Y83466D01*
X507997Y83486D01*
X507995Y83506D01*
X507999Y83566D01*
X507999Y94362D01*
X510458Y94362D01*
X517620Y87200D01*
X517664Y87077D01*
X517675Y87060D01*
X517683Y87041D01*
X517764Y86929D01*
X517842Y86814D01*
X517858Y86800D01*
X517869Y86784D01*
X517977Y86695D01*
X518081Y86603D01*
X518099Y86594D01*
X518114Y86581D01*
X518240Y86522D01*
X518364Y86459D01*
X518384Y86454D01*
X518402Y86446D01*
X518538Y86420D01*
X518674Y86389D01*
X518695Y86390D01*
X518714Y86386D01*
X518853Y86395D01*
X518992Y86399D01*
X519012Y86404D01*
X519032Y86406D01*
X519164Y86448D01*
X519298Y86487D01*
X519315Y86497D01*
X519334Y86504D01*
X519452Y86578D01*
X519572Y86649D01*
X519593Y86667D01*
X519603Y86674D01*
X519617Y86689D01*
X519692Y86755D01*
X526283Y93346D01*
X535437Y93346D01*
X541910Y86873D01*
X541910Y77719D01*
X535437Y71246D01*
X526283Y71246D01*
X519692Y77837D01*
X519583Y77922D01*
X519476Y78011D01*
X519457Y78019D01*
X519441Y78032D01*
X519313Y78087D01*
X519188Y78146D01*
X519168Y78150D01*
X519149Y78158D01*
X519011Y78180D01*
X518875Y78206D01*
X518855Y78205D01*
X518835Y78208D01*
X518696Y78195D01*
X518558Y78186D01*
X518539Y78180D01*
X518519Y78178D01*
X518387Y78131D01*
X518256Y78088D01*
X518238Y78077D01*
X518219Y78071D01*
X518104Y77993D01*
X517987Y77918D01*
X517973Y77903D01*
X517956Y77892D01*
X517864Y77788D01*
X517769Y77687D01*
X517759Y77669D01*
X517746Y77654D01*
X517682Y77529D01*
X517615Y77408D01*
X517610Y77388D01*
X517605Y77377D01*
X510364Y70136D01*
X510241Y70092D01*
X510224Y70081D01*
X510205Y70073D01*
X510093Y69992D01*
X509978Y69914D01*
X509964Y69898D01*
X509948Y69887D01*
X509859Y69779D01*
X509767Y69675D01*
X509758Y69657D01*
X509745Y69642D01*
X509686Y69516D01*
X509623Y69392D01*
X509618Y69372D01*
X509610Y69354D01*
X509584Y69218D01*
X509553Y69082D01*
X509554Y69061D01*
X509550Y69042D01*
X509559Y68903D01*
X509563Y68764D01*
X509568Y68744D01*
X509570Y68724D01*
X509612Y68592D01*
X509651Y68458D01*
X509661Y68441D01*
X509668Y68422D01*
X509742Y68304D01*
X509813Y68184D01*
X509831Y68163D01*
X509838Y68153D01*
X509853Y68139D01*
X509919Y68064D01*
X516510Y61473D01*
X516510Y52319D01*
X510037Y45846D01*
X500883Y45846D01*
X494410Y52319D01*
X494410Y61473D01*
X501001Y68064D01*
X501086Y68173D01*
X501175Y68280D01*
X501183Y68299D01*
X501196Y68315D01*
X501251Y68443D01*
X501310Y68568D01*
X501314Y68588D01*
X501322Y68607D01*
X501344Y68745D01*
X501370Y68881D01*
X501369Y68901D01*
X501372Y68921D01*
X501359Y69060D01*
X501350Y69198D01*
X501344Y69217D01*
X501342Y69237D01*
X501295Y69369D01*
X501252Y69500D01*
X501241Y69518D01*
X501235Y69537D01*
X501157Y69652D01*
X501082Y69769D01*
X501067Y69783D01*
X501056Y69800D01*
X500952Y69892D01*
X500851Y69987D01*
X500833Y69997D01*
X500818Y70010D01*
X500693Y70074D01*
X500572Y70141D01*
X500552Y70146D01*
X500541Y70151D01*
X493300Y77392D01*
X493256Y77515D01*
X493245Y77532D01*
X493237Y77551D01*
X493156Y77663D01*
X493078Y77778D01*
X493062Y77792D01*
X493051Y77808D01*
X492943Y77897D01*
X492839Y77989D01*
X492821Y77998D01*
X492806Y78011D01*
X492680Y78070D01*
X492556Y78133D01*
X492536Y78138D01*
X492518Y78146D01*
X492382Y78172D01*
X492246Y78203D01*
X492225Y78202D01*
X492206Y78206D01*
X492067Y78197D01*
X491928Y78193D01*
X491908Y78188D01*
X491888Y78186D01*
X491756Y78144D01*
X491622Y78105D01*
X491605Y78095D01*
X491586Y78088D01*
X491468Y78014D01*
X491348Y77943D01*
X491327Y77925D01*
X491317Y77918D01*
X491303Y77903D01*
X491228Y77837D01*
X484637Y71246D01*
X475483Y71246D01*
X468892Y77837D01*
X468783Y77922D01*
X468676Y78011D01*
X468657Y78019D01*
X468641Y78032D01*
X468513Y78087D01*
X468388Y78146D01*
X468368Y78150D01*
X468349Y78158D01*
X468211Y78180D01*
X468075Y78206D01*
X468055Y78205D01*
X468035Y78208D01*
X467896Y78195D01*
X467758Y78186D01*
X467739Y78180D01*
X467719Y78178D01*
X467587Y78131D01*
X467456Y78088D01*
X467438Y78077D01*
X467419Y78071D01*
X467304Y77993D01*
X467187Y77918D01*
X467173Y77903D01*
X467156Y77892D01*
X467064Y77788D01*
X466969Y77687D01*
X466959Y77669D01*
X466946Y77654D01*
X466882Y77529D01*
X466815Y77408D01*
X466810Y77388D01*
X466805Y77377D01*
X459564Y70136D01*
X459441Y70092D01*
X459424Y70081D01*
X459405Y70073D01*
X459293Y69992D01*
X459178Y69914D01*
X459164Y69898D01*
X459148Y69887D01*
X459059Y69779D01*
X458967Y69675D01*
X458958Y69657D01*
X458945Y69642D01*
X458886Y69516D01*
X458823Y69392D01*
X458818Y69372D01*
X458810Y69354D01*
X458784Y69218D01*
X458753Y69082D01*
X458754Y69061D01*
X458750Y69042D01*
X458759Y68903D01*
X458763Y68764D01*
X458768Y68744D01*
X458770Y68724D01*
X458812Y68592D01*
X458851Y68458D01*
X458861Y68441D01*
X458868Y68422D01*
X458942Y68304D01*
X459013Y68184D01*
X459031Y68163D01*
X459038Y68153D01*
X459053Y68139D01*
X459119Y68064D01*
X465710Y61473D01*
X465710Y52319D01*
X459237Y45846D01*
X450083Y45846D01*
G37*
%LPD*%
%LPC*%
G36*
X323083Y45846D02*
X323083Y45846D01*
X316610Y52319D01*
X316610Y61473D01*
X323201Y68064D01*
X323286Y68173D01*
X323375Y68280D01*
X323383Y68299D01*
X323396Y68315D01*
X323451Y68443D01*
X323510Y68568D01*
X323514Y68588D01*
X323522Y68607D01*
X323544Y68745D01*
X323570Y68881D01*
X323569Y68901D01*
X323572Y68921D01*
X323559Y69060D01*
X323550Y69198D01*
X323544Y69217D01*
X323542Y69237D01*
X323495Y69369D01*
X323452Y69500D01*
X323441Y69518D01*
X323435Y69537D01*
X323357Y69652D01*
X323282Y69769D01*
X323267Y69783D01*
X323256Y69800D01*
X323152Y69892D01*
X323051Y69987D01*
X323033Y69997D01*
X323018Y70010D01*
X322893Y70074D01*
X322772Y70141D01*
X322752Y70146D01*
X322741Y70151D01*
X315500Y77392D01*
X315456Y77515D01*
X315445Y77532D01*
X315437Y77551D01*
X315356Y77663D01*
X315278Y77778D01*
X315262Y77792D01*
X315251Y77808D01*
X315143Y77897D01*
X315039Y77989D01*
X315021Y77998D01*
X315006Y78011D01*
X314880Y78070D01*
X314756Y78133D01*
X314736Y78138D01*
X314718Y78146D01*
X314582Y78172D01*
X314446Y78203D01*
X314425Y78202D01*
X314406Y78206D01*
X314267Y78197D01*
X314128Y78193D01*
X314108Y78188D01*
X314088Y78186D01*
X313956Y78144D01*
X313822Y78105D01*
X313805Y78095D01*
X313786Y78088D01*
X313668Y78014D01*
X313548Y77943D01*
X313527Y77925D01*
X313517Y77918D01*
X313503Y77903D01*
X313428Y77837D01*
X306837Y71246D01*
X297683Y71246D01*
X291210Y77719D01*
X291210Y86873D01*
X297683Y93346D01*
X306837Y93346D01*
X313428Y86755D01*
X313537Y86670D01*
X313644Y86581D01*
X313663Y86573D01*
X313679Y86560D01*
X313807Y86505D01*
X313932Y86446D01*
X313952Y86442D01*
X313971Y86434D01*
X314109Y86412D01*
X314245Y86386D01*
X314265Y86387D01*
X314285Y86384D01*
X314424Y86397D01*
X314562Y86406D01*
X314581Y86412D01*
X314601Y86414D01*
X314733Y86461D01*
X314864Y86504D01*
X314882Y86515D01*
X314901Y86521D01*
X315016Y86599D01*
X315133Y86674D01*
X315147Y86689D01*
X315164Y86700D01*
X315256Y86804D01*
X315351Y86905D01*
X315361Y86923D01*
X315374Y86938D01*
X315438Y87063D01*
X315505Y87184D01*
X315510Y87204D01*
X315515Y87215D01*
X322662Y94362D01*
X325121Y94362D01*
X325121Y83566D01*
X325136Y83448D01*
X325143Y83329D01*
X325156Y83291D01*
X325161Y83251D01*
X325204Y83140D01*
X325241Y83027D01*
X325263Y82993D01*
X325278Y82955D01*
X325348Y82859D01*
X325411Y82758D01*
X325441Y82730D01*
X325464Y82698D01*
X325556Y82622D01*
X325643Y82540D01*
X325678Y82521D01*
X325709Y82495D01*
X325817Y82444D01*
X325921Y82387D01*
X325961Y82376D01*
X325997Y82359D01*
X326114Y82337D01*
X326229Y82307D01*
X326290Y82303D01*
X326310Y82299D01*
X326330Y82301D01*
X326390Y82297D01*
X328930Y82297D01*
X329048Y82312D01*
X329167Y82319D01*
X329205Y82332D01*
X329245Y82337D01*
X329356Y82381D01*
X329469Y82417D01*
X329504Y82439D01*
X329541Y82454D01*
X329637Y82524D01*
X329738Y82587D01*
X329766Y82617D01*
X329799Y82641D01*
X329874Y82732D01*
X329956Y82819D01*
X329976Y82854D01*
X330001Y82886D01*
X330052Y82993D01*
X330110Y83098D01*
X330120Y83137D01*
X330137Y83173D01*
X330159Y83290D01*
X330189Y83405D01*
X330193Y83466D01*
X330197Y83486D01*
X330195Y83506D01*
X330199Y83566D01*
X330199Y94362D01*
X332658Y94362D01*
X339820Y87200D01*
X339864Y87077D01*
X339875Y87060D01*
X339883Y87041D01*
X339964Y86929D01*
X340042Y86814D01*
X340058Y86800D01*
X340069Y86784D01*
X340177Y86695D01*
X340281Y86603D01*
X340299Y86594D01*
X340314Y86581D01*
X340440Y86522D01*
X340564Y86459D01*
X340584Y86454D01*
X340602Y86446D01*
X340738Y86420D01*
X340874Y86389D01*
X340895Y86390D01*
X340914Y86386D01*
X341053Y86395D01*
X341192Y86399D01*
X341212Y86404D01*
X341232Y86406D01*
X341364Y86448D01*
X341498Y86487D01*
X341515Y86497D01*
X341534Y86504D01*
X341652Y86578D01*
X341772Y86649D01*
X341793Y86667D01*
X341803Y86674D01*
X341817Y86689D01*
X341892Y86755D01*
X348483Y93346D01*
X357637Y93346D01*
X364110Y86873D01*
X364110Y77719D01*
X357637Y71246D01*
X348483Y71246D01*
X341892Y77837D01*
X341783Y77922D01*
X341676Y78011D01*
X341657Y78019D01*
X341641Y78032D01*
X341513Y78087D01*
X341388Y78146D01*
X341368Y78150D01*
X341349Y78158D01*
X341211Y78180D01*
X341075Y78206D01*
X341055Y78205D01*
X341035Y78208D01*
X340896Y78195D01*
X340758Y78186D01*
X340739Y78180D01*
X340719Y78178D01*
X340587Y78131D01*
X340456Y78088D01*
X340438Y78077D01*
X340419Y78071D01*
X340304Y77993D01*
X340187Y77918D01*
X340173Y77903D01*
X340156Y77892D01*
X340064Y77788D01*
X339969Y77687D01*
X339959Y77669D01*
X339946Y77654D01*
X339882Y77529D01*
X339815Y77408D01*
X339810Y77388D01*
X339805Y77377D01*
X332564Y70136D01*
X332441Y70092D01*
X332424Y70081D01*
X332405Y70073D01*
X332293Y69992D01*
X332178Y69914D01*
X332164Y69898D01*
X332148Y69887D01*
X332059Y69779D01*
X331967Y69675D01*
X331958Y69657D01*
X331945Y69642D01*
X331886Y69516D01*
X331823Y69392D01*
X331818Y69372D01*
X331810Y69354D01*
X331784Y69218D01*
X331753Y69082D01*
X331754Y69061D01*
X331750Y69042D01*
X331759Y68903D01*
X331763Y68764D01*
X331768Y68744D01*
X331770Y68724D01*
X331812Y68592D01*
X331851Y68458D01*
X331861Y68441D01*
X331868Y68422D01*
X331942Y68304D01*
X332013Y68184D01*
X332031Y68163D01*
X332038Y68153D01*
X332053Y68139D01*
X332119Y68064D01*
X338710Y61473D01*
X338710Y52319D01*
X332237Y45846D01*
X323083Y45846D01*
G37*
%LPD*%
%LPC*%
G36*
X246883Y45846D02*
X246883Y45846D01*
X240410Y52319D01*
X240410Y61473D01*
X247001Y68064D01*
X247086Y68173D01*
X247175Y68280D01*
X247183Y68299D01*
X247196Y68315D01*
X247251Y68443D01*
X247310Y68568D01*
X247314Y68588D01*
X247322Y68607D01*
X247344Y68745D01*
X247370Y68881D01*
X247369Y68901D01*
X247372Y68921D01*
X247359Y69060D01*
X247350Y69198D01*
X247344Y69217D01*
X247342Y69237D01*
X247295Y69369D01*
X247252Y69500D01*
X247241Y69518D01*
X247235Y69537D01*
X247157Y69652D01*
X247082Y69769D01*
X247067Y69783D01*
X247056Y69800D01*
X246952Y69892D01*
X246851Y69987D01*
X246833Y69997D01*
X246818Y70010D01*
X246693Y70074D01*
X246572Y70141D01*
X246552Y70146D01*
X246541Y70151D01*
X239300Y77392D01*
X239256Y77515D01*
X239245Y77532D01*
X239237Y77551D01*
X239156Y77663D01*
X239078Y77778D01*
X239062Y77792D01*
X239051Y77808D01*
X238943Y77897D01*
X238839Y77989D01*
X238821Y77998D01*
X238806Y78011D01*
X238680Y78070D01*
X238556Y78133D01*
X238536Y78138D01*
X238518Y78146D01*
X238382Y78172D01*
X238246Y78203D01*
X238225Y78202D01*
X238206Y78206D01*
X238067Y78197D01*
X237928Y78193D01*
X237908Y78188D01*
X237888Y78186D01*
X237756Y78144D01*
X237622Y78105D01*
X237605Y78095D01*
X237586Y78088D01*
X237468Y78014D01*
X237348Y77943D01*
X237327Y77925D01*
X237317Y77918D01*
X237303Y77903D01*
X237228Y77837D01*
X230637Y71246D01*
X221483Y71246D01*
X215010Y77719D01*
X215010Y86873D01*
X221483Y93346D01*
X230637Y93346D01*
X237228Y86755D01*
X237337Y86670D01*
X237444Y86581D01*
X237463Y86573D01*
X237479Y86560D01*
X237607Y86505D01*
X237732Y86446D01*
X237752Y86442D01*
X237771Y86434D01*
X237909Y86412D01*
X238045Y86386D01*
X238065Y86387D01*
X238085Y86384D01*
X238224Y86397D01*
X238362Y86406D01*
X238381Y86412D01*
X238401Y86414D01*
X238533Y86461D01*
X238664Y86504D01*
X238682Y86515D01*
X238701Y86521D01*
X238816Y86599D01*
X238933Y86674D01*
X238947Y86689D01*
X238964Y86700D01*
X239056Y86804D01*
X239151Y86905D01*
X239161Y86923D01*
X239174Y86938D01*
X239238Y87063D01*
X239305Y87184D01*
X239310Y87204D01*
X239315Y87215D01*
X246462Y94362D01*
X248921Y94362D01*
X248921Y83566D01*
X248936Y83448D01*
X248943Y83329D01*
X248956Y83291D01*
X248961Y83251D01*
X249004Y83140D01*
X249041Y83027D01*
X249063Y82993D01*
X249078Y82955D01*
X249148Y82859D01*
X249211Y82758D01*
X249241Y82730D01*
X249264Y82698D01*
X249356Y82622D01*
X249443Y82540D01*
X249478Y82521D01*
X249509Y82495D01*
X249617Y82444D01*
X249721Y82387D01*
X249761Y82376D01*
X249797Y82359D01*
X249914Y82337D01*
X250029Y82307D01*
X250090Y82303D01*
X250110Y82299D01*
X250130Y82301D01*
X250190Y82297D01*
X252730Y82297D01*
X252848Y82312D01*
X252967Y82319D01*
X253005Y82332D01*
X253045Y82337D01*
X253156Y82381D01*
X253269Y82417D01*
X253304Y82439D01*
X253341Y82454D01*
X253437Y82524D01*
X253538Y82587D01*
X253566Y82617D01*
X253599Y82641D01*
X253674Y82732D01*
X253756Y82819D01*
X253776Y82854D01*
X253801Y82886D01*
X253852Y82993D01*
X253910Y83098D01*
X253920Y83137D01*
X253937Y83173D01*
X253959Y83290D01*
X253989Y83405D01*
X253993Y83466D01*
X253997Y83486D01*
X253995Y83506D01*
X253999Y83566D01*
X253999Y94362D01*
X256458Y94362D01*
X263620Y87200D01*
X263664Y87077D01*
X263675Y87060D01*
X263683Y87041D01*
X263764Y86929D01*
X263842Y86814D01*
X263858Y86800D01*
X263869Y86784D01*
X263977Y86695D01*
X264081Y86603D01*
X264099Y86594D01*
X264114Y86581D01*
X264240Y86522D01*
X264364Y86459D01*
X264384Y86454D01*
X264402Y86446D01*
X264538Y86420D01*
X264674Y86389D01*
X264695Y86390D01*
X264714Y86386D01*
X264853Y86395D01*
X264992Y86399D01*
X265012Y86404D01*
X265032Y86406D01*
X265164Y86448D01*
X265298Y86487D01*
X265315Y86497D01*
X265334Y86504D01*
X265452Y86578D01*
X265572Y86649D01*
X265593Y86667D01*
X265603Y86674D01*
X265617Y86689D01*
X265692Y86755D01*
X272283Y93346D01*
X281437Y93346D01*
X287910Y86873D01*
X287910Y77719D01*
X281437Y71246D01*
X272283Y71246D01*
X265692Y77837D01*
X265583Y77922D01*
X265476Y78011D01*
X265457Y78019D01*
X265441Y78032D01*
X265313Y78087D01*
X265188Y78146D01*
X265168Y78150D01*
X265149Y78158D01*
X265011Y78180D01*
X264875Y78206D01*
X264855Y78205D01*
X264835Y78208D01*
X264696Y78195D01*
X264558Y78186D01*
X264539Y78180D01*
X264519Y78178D01*
X264387Y78131D01*
X264256Y78088D01*
X264238Y78077D01*
X264219Y78071D01*
X264104Y77993D01*
X263987Y77918D01*
X263973Y77903D01*
X263956Y77892D01*
X263864Y77788D01*
X263769Y77687D01*
X263759Y77669D01*
X263746Y77654D01*
X263682Y77529D01*
X263615Y77408D01*
X263610Y77388D01*
X263605Y77377D01*
X256364Y70136D01*
X256241Y70092D01*
X256224Y70081D01*
X256205Y70073D01*
X256093Y69992D01*
X255978Y69914D01*
X255964Y69898D01*
X255948Y69887D01*
X255859Y69779D01*
X255767Y69675D01*
X255758Y69657D01*
X255745Y69642D01*
X255686Y69516D01*
X255623Y69392D01*
X255618Y69372D01*
X255610Y69354D01*
X255584Y69218D01*
X255553Y69082D01*
X255554Y69061D01*
X255550Y69042D01*
X255559Y68903D01*
X255563Y68764D01*
X255568Y68744D01*
X255570Y68724D01*
X255612Y68592D01*
X255651Y68458D01*
X255661Y68441D01*
X255668Y68422D01*
X255742Y68304D01*
X255813Y68184D01*
X255831Y68163D01*
X255838Y68153D01*
X255853Y68139D01*
X255919Y68064D01*
X262510Y61473D01*
X262510Y52319D01*
X256037Y45846D01*
X246883Y45846D01*
G37*
%LPD*%
%LPC*%
G36*
X145283Y45846D02*
X145283Y45846D01*
X138810Y52319D01*
X138810Y61473D01*
X145401Y68064D01*
X145486Y68173D01*
X145575Y68280D01*
X145583Y68299D01*
X145596Y68315D01*
X145651Y68443D01*
X145710Y68568D01*
X145714Y68588D01*
X145722Y68607D01*
X145744Y68745D01*
X145770Y68881D01*
X145769Y68901D01*
X145772Y68921D01*
X145759Y69060D01*
X145750Y69198D01*
X145744Y69217D01*
X145742Y69237D01*
X145695Y69369D01*
X145652Y69500D01*
X145641Y69518D01*
X145635Y69537D01*
X145557Y69652D01*
X145482Y69769D01*
X145467Y69783D01*
X145456Y69800D01*
X145352Y69892D01*
X145251Y69987D01*
X145233Y69997D01*
X145218Y70010D01*
X145093Y70074D01*
X144972Y70141D01*
X144952Y70146D01*
X144941Y70151D01*
X137700Y77392D01*
X137656Y77515D01*
X137645Y77532D01*
X137637Y77551D01*
X137556Y77663D01*
X137478Y77778D01*
X137462Y77792D01*
X137451Y77808D01*
X137343Y77897D01*
X137239Y77989D01*
X137221Y77998D01*
X137206Y78011D01*
X137080Y78070D01*
X136956Y78133D01*
X136936Y78138D01*
X136918Y78146D01*
X136782Y78172D01*
X136646Y78203D01*
X136625Y78202D01*
X136606Y78206D01*
X136467Y78197D01*
X136328Y78193D01*
X136308Y78188D01*
X136288Y78186D01*
X136156Y78144D01*
X136022Y78105D01*
X136005Y78095D01*
X135986Y78088D01*
X135868Y78014D01*
X135748Y77943D01*
X135727Y77925D01*
X135717Y77918D01*
X135703Y77903D01*
X135628Y77837D01*
X129037Y71246D01*
X119883Y71246D01*
X113410Y77719D01*
X113410Y86873D01*
X119883Y93346D01*
X129037Y93346D01*
X135628Y86755D01*
X135737Y86670D01*
X135844Y86581D01*
X135863Y86573D01*
X135879Y86560D01*
X136007Y86505D01*
X136132Y86446D01*
X136152Y86442D01*
X136171Y86434D01*
X136309Y86412D01*
X136445Y86386D01*
X136465Y86387D01*
X136485Y86384D01*
X136624Y86397D01*
X136762Y86406D01*
X136781Y86412D01*
X136801Y86414D01*
X136933Y86461D01*
X137064Y86504D01*
X137082Y86515D01*
X137101Y86521D01*
X137216Y86599D01*
X137333Y86674D01*
X137347Y86689D01*
X137364Y86700D01*
X137456Y86804D01*
X137551Y86905D01*
X137561Y86923D01*
X137574Y86938D01*
X137638Y87063D01*
X137705Y87184D01*
X137710Y87204D01*
X137715Y87215D01*
X144862Y94362D01*
X147321Y94362D01*
X147321Y83566D01*
X147336Y83448D01*
X147343Y83329D01*
X147356Y83291D01*
X147361Y83251D01*
X147404Y83140D01*
X147441Y83027D01*
X147463Y82993D01*
X147478Y82955D01*
X147548Y82859D01*
X147611Y82758D01*
X147641Y82730D01*
X147664Y82698D01*
X147756Y82622D01*
X147843Y82540D01*
X147878Y82521D01*
X147909Y82495D01*
X148017Y82444D01*
X148121Y82387D01*
X148161Y82376D01*
X148197Y82359D01*
X148314Y82337D01*
X148429Y82307D01*
X148490Y82303D01*
X148510Y82299D01*
X148530Y82301D01*
X148590Y82297D01*
X151130Y82297D01*
X151248Y82312D01*
X151367Y82319D01*
X151405Y82332D01*
X151445Y82337D01*
X151556Y82381D01*
X151669Y82417D01*
X151704Y82439D01*
X151741Y82454D01*
X151837Y82524D01*
X151938Y82587D01*
X151966Y82617D01*
X151999Y82641D01*
X152074Y82732D01*
X152156Y82819D01*
X152176Y82854D01*
X152201Y82886D01*
X152252Y82993D01*
X152310Y83098D01*
X152320Y83137D01*
X152337Y83173D01*
X152359Y83290D01*
X152389Y83405D01*
X152393Y83466D01*
X152397Y83486D01*
X152395Y83506D01*
X152399Y83566D01*
X152399Y94362D01*
X154858Y94362D01*
X162020Y87200D01*
X162064Y87077D01*
X162075Y87060D01*
X162083Y87041D01*
X162164Y86929D01*
X162242Y86814D01*
X162258Y86800D01*
X162269Y86784D01*
X162377Y86695D01*
X162481Y86603D01*
X162499Y86594D01*
X162514Y86581D01*
X162640Y86522D01*
X162764Y86459D01*
X162784Y86454D01*
X162802Y86446D01*
X162938Y86420D01*
X163074Y86389D01*
X163095Y86390D01*
X163114Y86386D01*
X163253Y86395D01*
X163392Y86399D01*
X163412Y86404D01*
X163432Y86406D01*
X163564Y86448D01*
X163698Y86487D01*
X163715Y86497D01*
X163734Y86504D01*
X163852Y86578D01*
X163972Y86649D01*
X163993Y86667D01*
X164003Y86674D01*
X164017Y86689D01*
X164092Y86755D01*
X170683Y93346D01*
X179837Y93346D01*
X186310Y86873D01*
X186310Y77719D01*
X179837Y71246D01*
X170683Y71246D01*
X164092Y77837D01*
X163983Y77922D01*
X163876Y78011D01*
X163857Y78019D01*
X163841Y78032D01*
X163713Y78087D01*
X163588Y78146D01*
X163568Y78150D01*
X163549Y78158D01*
X163411Y78180D01*
X163275Y78206D01*
X163255Y78205D01*
X163235Y78208D01*
X163096Y78195D01*
X162958Y78186D01*
X162939Y78180D01*
X162919Y78178D01*
X162787Y78131D01*
X162656Y78088D01*
X162638Y78077D01*
X162619Y78071D01*
X162504Y77993D01*
X162387Y77918D01*
X162373Y77903D01*
X162356Y77892D01*
X162264Y77788D01*
X162169Y77687D01*
X162159Y77669D01*
X162146Y77654D01*
X162082Y77529D01*
X162015Y77408D01*
X162010Y77388D01*
X162005Y77377D01*
X154764Y70136D01*
X154641Y70092D01*
X154624Y70081D01*
X154605Y70073D01*
X154493Y69992D01*
X154378Y69914D01*
X154364Y69898D01*
X154348Y69887D01*
X154259Y69779D01*
X154167Y69675D01*
X154158Y69657D01*
X154145Y69642D01*
X154086Y69516D01*
X154023Y69392D01*
X154018Y69372D01*
X154010Y69354D01*
X153984Y69218D01*
X153953Y69082D01*
X153954Y69061D01*
X153950Y69042D01*
X153959Y68903D01*
X153963Y68764D01*
X153968Y68744D01*
X153970Y68724D01*
X154012Y68592D01*
X154051Y68458D01*
X154061Y68441D01*
X154068Y68422D01*
X154142Y68304D01*
X154213Y68184D01*
X154231Y68163D01*
X154238Y68153D01*
X154253Y68139D01*
X154319Y68064D01*
X160910Y61473D01*
X160910Y52319D01*
X154437Y45846D01*
X145283Y45846D01*
G37*
%LPD*%
%LPC*%
G36*
X766313Y207390D02*
X766313Y207390D01*
X759840Y213863D01*
X759840Y223017D01*
X766431Y229608D01*
X766516Y229717D01*
X766605Y229824D01*
X766613Y229843D01*
X766626Y229859D01*
X766681Y229987D01*
X766740Y230112D01*
X766744Y230132D01*
X766752Y230151D01*
X766774Y230289D01*
X766800Y230425D01*
X766799Y230445D01*
X766802Y230465D01*
X766789Y230604D01*
X766780Y230742D01*
X766774Y230761D01*
X766772Y230781D01*
X766725Y230913D01*
X766682Y231044D01*
X766671Y231062D01*
X766665Y231081D01*
X766587Y231196D01*
X766512Y231313D01*
X766497Y231327D01*
X766486Y231344D01*
X766382Y231436D01*
X766281Y231531D01*
X766263Y231541D01*
X766248Y231554D01*
X766123Y231618D01*
X766002Y231685D01*
X765982Y231690D01*
X765971Y231695D01*
X758824Y238842D01*
X758824Y241301D01*
X769620Y241301D01*
X769738Y241316D01*
X769857Y241323D01*
X769895Y241336D01*
X769935Y241341D01*
X770046Y241384D01*
X770159Y241421D01*
X770193Y241443D01*
X770231Y241458D01*
X770327Y241528D01*
X770428Y241591D01*
X770456Y241621D01*
X770488Y241644D01*
X770564Y241736D01*
X770646Y241823D01*
X770665Y241858D01*
X770691Y241889D01*
X770742Y241997D01*
X770799Y242101D01*
X770810Y242141D01*
X770827Y242177D01*
X770849Y242294D01*
X770879Y242409D01*
X770883Y242470D01*
X770887Y242490D01*
X770885Y242510D01*
X770889Y242570D01*
X770889Y245110D01*
X770874Y245228D01*
X770867Y245347D01*
X770854Y245385D01*
X770849Y245425D01*
X770805Y245536D01*
X770769Y245649D01*
X770747Y245684D01*
X770732Y245721D01*
X770662Y245817D01*
X770599Y245918D01*
X770569Y245946D01*
X770545Y245979D01*
X770454Y246054D01*
X770367Y246136D01*
X770332Y246156D01*
X770300Y246181D01*
X770193Y246232D01*
X770088Y246290D01*
X770049Y246300D01*
X770013Y246317D01*
X769896Y246339D01*
X769781Y246369D01*
X769720Y246373D01*
X769700Y246377D01*
X769680Y246375D01*
X769620Y246379D01*
X758824Y246379D01*
X758824Y248838D01*
X765986Y256000D01*
X766109Y256044D01*
X766126Y256055D01*
X766145Y256063D01*
X766257Y256144D01*
X766372Y256222D01*
X766386Y256238D01*
X766402Y256249D01*
X766491Y256357D01*
X766583Y256461D01*
X766592Y256479D01*
X766605Y256494D01*
X766664Y256620D01*
X766727Y256744D01*
X766732Y256764D01*
X766740Y256782D01*
X766766Y256918D01*
X766797Y257054D01*
X766796Y257075D01*
X766800Y257094D01*
X766791Y257233D01*
X766787Y257372D01*
X766782Y257392D01*
X766780Y257412D01*
X766738Y257544D01*
X766699Y257678D01*
X766689Y257695D01*
X766682Y257714D01*
X766608Y257832D01*
X766537Y257952D01*
X766519Y257973D01*
X766512Y257983D01*
X766497Y257997D01*
X766431Y258072D01*
X759840Y264663D01*
X759840Y273817D01*
X766313Y280290D01*
X775467Y280290D01*
X781940Y273817D01*
X781940Y264663D01*
X775349Y258072D01*
X775264Y257963D01*
X775175Y257856D01*
X775167Y257837D01*
X775154Y257821D01*
X775099Y257693D01*
X775040Y257568D01*
X775036Y257548D01*
X775028Y257529D01*
X775006Y257391D01*
X774980Y257255D01*
X774981Y257235D01*
X774978Y257215D01*
X774991Y257076D01*
X775000Y256938D01*
X775006Y256919D01*
X775008Y256899D01*
X775055Y256767D01*
X775098Y256636D01*
X775109Y256618D01*
X775115Y256599D01*
X775193Y256484D01*
X775268Y256367D01*
X775283Y256353D01*
X775294Y256336D01*
X775398Y256244D01*
X775499Y256149D01*
X775517Y256139D01*
X775532Y256126D01*
X775657Y256062D01*
X775778Y255995D01*
X775798Y255990D01*
X775809Y255985D01*
X783050Y248744D01*
X783094Y248621D01*
X783105Y248604D01*
X783113Y248585D01*
X783194Y248473D01*
X783272Y248358D01*
X783288Y248344D01*
X783299Y248328D01*
X783407Y248239D01*
X783511Y248147D01*
X783529Y248138D01*
X783544Y248125D01*
X783670Y248066D01*
X783794Y248003D01*
X783814Y247998D01*
X783832Y247990D01*
X783968Y247964D01*
X784104Y247933D01*
X784125Y247934D01*
X784144Y247930D01*
X784283Y247939D01*
X784422Y247943D01*
X784442Y247948D01*
X784462Y247950D01*
X784594Y247992D01*
X784728Y248031D01*
X784745Y248041D01*
X784764Y248048D01*
X784882Y248122D01*
X785002Y248193D01*
X785023Y248211D01*
X785033Y248218D01*
X785047Y248233D01*
X785122Y248299D01*
X791713Y254890D01*
X800867Y254890D01*
X807340Y248417D01*
X807340Y239263D01*
X800867Y232790D01*
X791713Y232790D01*
X785122Y239381D01*
X785013Y239466D01*
X784906Y239555D01*
X784887Y239563D01*
X784871Y239576D01*
X784743Y239631D01*
X784618Y239690D01*
X784598Y239694D01*
X784579Y239702D01*
X784441Y239724D01*
X784305Y239750D01*
X784285Y239749D01*
X784265Y239752D01*
X784126Y239739D01*
X783988Y239730D01*
X783969Y239724D01*
X783949Y239722D01*
X783817Y239675D01*
X783686Y239632D01*
X783668Y239621D01*
X783649Y239615D01*
X783534Y239537D01*
X783417Y239462D01*
X783403Y239447D01*
X783386Y239436D01*
X783294Y239332D01*
X783199Y239231D01*
X783189Y239213D01*
X783176Y239198D01*
X783112Y239073D01*
X783045Y238952D01*
X783040Y238932D01*
X783035Y238921D01*
X775794Y231680D01*
X775671Y231636D01*
X775654Y231625D01*
X775635Y231617D01*
X775523Y231536D01*
X775408Y231458D01*
X775394Y231442D01*
X775378Y231431D01*
X775289Y231323D01*
X775197Y231219D01*
X775188Y231201D01*
X775175Y231186D01*
X775116Y231060D01*
X775053Y230936D01*
X775048Y230916D01*
X775040Y230898D01*
X775014Y230762D01*
X774983Y230626D01*
X774984Y230605D01*
X774980Y230586D01*
X774989Y230447D01*
X774993Y230308D01*
X774998Y230288D01*
X775000Y230268D01*
X775042Y230136D01*
X775081Y230002D01*
X775091Y229985D01*
X775098Y229966D01*
X775172Y229848D01*
X775243Y229728D01*
X775261Y229707D01*
X775268Y229697D01*
X775283Y229683D01*
X775349Y229608D01*
X781940Y223017D01*
X781940Y213863D01*
X775467Y207390D01*
X766313Y207390D01*
G37*
%LPD*%
%LPC*%
G36*
X195662Y44830D02*
X195662Y44830D01*
X188500Y51992D01*
X188456Y52115D01*
X188445Y52132D01*
X188437Y52151D01*
X188356Y52263D01*
X188278Y52378D01*
X188262Y52392D01*
X188251Y52408D01*
X188143Y52497D01*
X188039Y52589D01*
X188021Y52598D01*
X188006Y52611D01*
X187880Y52670D01*
X187756Y52733D01*
X187736Y52738D01*
X187718Y52746D01*
X187582Y52772D01*
X187446Y52803D01*
X187425Y52802D01*
X187406Y52806D01*
X187267Y52797D01*
X187128Y52793D01*
X187108Y52788D01*
X187088Y52786D01*
X186956Y52744D01*
X186822Y52705D01*
X186805Y52695D01*
X186786Y52688D01*
X186668Y52614D01*
X186548Y52543D01*
X186527Y52525D01*
X186517Y52518D01*
X186503Y52503D01*
X186428Y52437D01*
X179837Y45846D01*
X170683Y45846D01*
X164210Y52319D01*
X164210Y61473D01*
X170683Y67946D01*
X179837Y67946D01*
X186428Y61355D01*
X186537Y61270D01*
X186644Y61181D01*
X186663Y61173D01*
X186679Y61160D01*
X186807Y61105D01*
X186932Y61046D01*
X186952Y61042D01*
X186971Y61034D01*
X187109Y61012D01*
X187245Y60986D01*
X187265Y60987D01*
X187285Y60984D01*
X187424Y60997D01*
X187562Y61006D01*
X187581Y61012D01*
X187601Y61014D01*
X187733Y61061D01*
X187864Y61104D01*
X187882Y61115D01*
X187901Y61121D01*
X188016Y61199D01*
X188133Y61274D01*
X188147Y61289D01*
X188164Y61300D01*
X188256Y61404D01*
X188351Y61505D01*
X188361Y61523D01*
X188374Y61538D01*
X188438Y61663D01*
X188505Y61784D01*
X188510Y61804D01*
X188515Y61815D01*
X195756Y69056D01*
X195879Y69100D01*
X195896Y69111D01*
X195915Y69119D01*
X196027Y69200D01*
X196142Y69278D01*
X196156Y69294D01*
X196172Y69305D01*
X196261Y69413D01*
X196353Y69517D01*
X196362Y69535D01*
X196375Y69550D01*
X196434Y69676D01*
X196497Y69800D01*
X196502Y69820D01*
X196510Y69838D01*
X196536Y69974D01*
X196567Y70110D01*
X196566Y70131D01*
X196570Y70150D01*
X196561Y70289D01*
X196557Y70428D01*
X196552Y70448D01*
X196550Y70468D01*
X196508Y70600D01*
X196469Y70734D01*
X196459Y70751D01*
X196452Y70770D01*
X196378Y70888D01*
X196307Y71008D01*
X196289Y71029D01*
X196282Y71039D01*
X196267Y71053D01*
X196201Y71128D01*
X189610Y77719D01*
X189610Y86873D01*
X196083Y93346D01*
X205237Y93346D01*
X211710Y86873D01*
X211710Y77719D01*
X205119Y71128D01*
X205034Y71019D01*
X204945Y70912D01*
X204937Y70893D01*
X204924Y70877D01*
X204869Y70749D01*
X204810Y70624D01*
X204806Y70604D01*
X204798Y70585D01*
X204776Y70447D01*
X204750Y70311D01*
X204751Y70291D01*
X204748Y70271D01*
X204761Y70132D01*
X204770Y69994D01*
X204776Y69975D01*
X204778Y69955D01*
X204825Y69823D01*
X204868Y69692D01*
X204879Y69674D01*
X204885Y69655D01*
X204963Y69540D01*
X205038Y69423D01*
X205053Y69409D01*
X205064Y69392D01*
X205168Y69300D01*
X205269Y69205D01*
X205287Y69195D01*
X205302Y69182D01*
X205427Y69118D01*
X205548Y69051D01*
X205568Y69046D01*
X205579Y69041D01*
X212820Y61800D01*
X212864Y61677D01*
X212875Y61660D01*
X212883Y61641D01*
X212964Y61529D01*
X213042Y61414D01*
X213058Y61400D01*
X213069Y61384D01*
X213177Y61295D01*
X213281Y61203D01*
X213299Y61194D01*
X213314Y61181D01*
X213440Y61122D01*
X213564Y61059D01*
X213584Y61054D01*
X213602Y61046D01*
X213738Y61020D01*
X213874Y60989D01*
X213895Y60990D01*
X213914Y60986D01*
X214053Y60995D01*
X214192Y60999D01*
X214212Y61004D01*
X214232Y61006D01*
X214364Y61048D01*
X214498Y61087D01*
X214515Y61097D01*
X214534Y61104D01*
X214652Y61178D01*
X214772Y61249D01*
X214793Y61267D01*
X214803Y61274D01*
X214817Y61289D01*
X214892Y61355D01*
X221483Y67946D01*
X230637Y67946D01*
X237110Y61473D01*
X237110Y52319D01*
X230637Y45846D01*
X221483Y45846D01*
X214892Y52437D01*
X214783Y52522D01*
X214676Y52611D01*
X214657Y52619D01*
X214641Y52632D01*
X214513Y52687D01*
X214388Y52746D01*
X214368Y52750D01*
X214349Y52758D01*
X214211Y52780D01*
X214075Y52806D01*
X214055Y52805D01*
X214035Y52808D01*
X213896Y52795D01*
X213758Y52786D01*
X213739Y52780D01*
X213719Y52778D01*
X213587Y52731D01*
X213456Y52688D01*
X213438Y52677D01*
X213419Y52671D01*
X213304Y52593D01*
X213187Y52518D01*
X213173Y52503D01*
X213156Y52492D01*
X213064Y52388D01*
X212969Y52287D01*
X212959Y52269D01*
X212946Y52254D01*
X212882Y52129D01*
X212815Y52008D01*
X212810Y51988D01*
X212805Y51977D01*
X205658Y44830D01*
X203199Y44830D01*
X203199Y55626D01*
X203184Y55744D01*
X203177Y55863D01*
X203164Y55901D01*
X203159Y55941D01*
X203116Y56052D01*
X203079Y56165D01*
X203057Y56199D01*
X203042Y56237D01*
X202972Y56333D01*
X202909Y56434D01*
X202879Y56462D01*
X202855Y56494D01*
X202764Y56570D01*
X202677Y56652D01*
X202642Y56671D01*
X202611Y56697D01*
X202503Y56748D01*
X202399Y56805D01*
X202359Y56816D01*
X202323Y56833D01*
X202206Y56855D01*
X202091Y56885D01*
X202030Y56889D01*
X202010Y56893D01*
X201990Y56891D01*
X201930Y56895D01*
X199390Y56895D01*
X199272Y56880D01*
X199153Y56873D01*
X199115Y56860D01*
X199074Y56855D01*
X198964Y56811D01*
X198851Y56775D01*
X198816Y56753D01*
X198779Y56738D01*
X198683Y56668D01*
X198582Y56605D01*
X198554Y56575D01*
X198521Y56551D01*
X198446Y56460D01*
X198364Y56373D01*
X198344Y56338D01*
X198319Y56306D01*
X198268Y56199D01*
X198210Y56094D01*
X198200Y56055D01*
X198183Y56019D01*
X198161Y55902D01*
X198131Y55787D01*
X198127Y55726D01*
X198123Y55706D01*
X198125Y55686D01*
X198124Y55682D01*
X198123Y55676D01*
X198124Y55671D01*
X198121Y55626D01*
X198121Y44830D01*
X195662Y44830D01*
G37*
%LPD*%
%LPC*%
G36*
X398862Y44830D02*
X398862Y44830D01*
X391700Y51992D01*
X391656Y52115D01*
X391645Y52132D01*
X391637Y52151D01*
X391556Y52263D01*
X391478Y52378D01*
X391462Y52392D01*
X391451Y52408D01*
X391343Y52497D01*
X391239Y52589D01*
X391221Y52598D01*
X391206Y52611D01*
X391080Y52670D01*
X390956Y52733D01*
X390936Y52738D01*
X390918Y52746D01*
X390782Y52772D01*
X390646Y52803D01*
X390625Y52802D01*
X390606Y52806D01*
X390467Y52797D01*
X390328Y52793D01*
X390308Y52788D01*
X390288Y52786D01*
X390156Y52744D01*
X390022Y52705D01*
X390005Y52695D01*
X389986Y52688D01*
X389868Y52614D01*
X389748Y52543D01*
X389727Y52525D01*
X389717Y52518D01*
X389703Y52503D01*
X389628Y52437D01*
X383037Y45846D01*
X373883Y45846D01*
X367410Y52319D01*
X367410Y61473D01*
X373883Y67946D01*
X383037Y67946D01*
X389628Y61355D01*
X389737Y61270D01*
X389844Y61181D01*
X389863Y61173D01*
X389879Y61160D01*
X390007Y61105D01*
X390132Y61046D01*
X390152Y61042D01*
X390171Y61034D01*
X390309Y61012D01*
X390445Y60986D01*
X390465Y60987D01*
X390485Y60984D01*
X390624Y60997D01*
X390762Y61006D01*
X390781Y61012D01*
X390801Y61014D01*
X390933Y61061D01*
X391064Y61104D01*
X391082Y61115D01*
X391101Y61121D01*
X391216Y61199D01*
X391333Y61274D01*
X391347Y61289D01*
X391364Y61300D01*
X391456Y61404D01*
X391551Y61505D01*
X391561Y61523D01*
X391574Y61538D01*
X391638Y61663D01*
X391705Y61784D01*
X391710Y61804D01*
X391715Y61815D01*
X398956Y69056D01*
X399079Y69100D01*
X399096Y69111D01*
X399115Y69119D01*
X399227Y69200D01*
X399342Y69278D01*
X399356Y69294D01*
X399372Y69305D01*
X399461Y69413D01*
X399553Y69517D01*
X399562Y69535D01*
X399575Y69550D01*
X399634Y69676D01*
X399697Y69800D01*
X399702Y69820D01*
X399710Y69838D01*
X399736Y69974D01*
X399767Y70110D01*
X399766Y70131D01*
X399770Y70150D01*
X399761Y70289D01*
X399757Y70428D01*
X399752Y70448D01*
X399750Y70468D01*
X399708Y70600D01*
X399669Y70734D01*
X399659Y70751D01*
X399652Y70770D01*
X399578Y70888D01*
X399507Y71008D01*
X399489Y71029D01*
X399482Y71039D01*
X399467Y71053D01*
X399401Y71128D01*
X392810Y77719D01*
X392810Y86873D01*
X399283Y93346D01*
X408437Y93346D01*
X414910Y86873D01*
X414910Y77719D01*
X408319Y71128D01*
X408234Y71019D01*
X408145Y70912D01*
X408137Y70893D01*
X408124Y70877D01*
X408069Y70749D01*
X408010Y70624D01*
X408006Y70604D01*
X407998Y70585D01*
X407976Y70447D01*
X407950Y70311D01*
X407951Y70291D01*
X407948Y70271D01*
X407961Y70132D01*
X407970Y69994D01*
X407976Y69975D01*
X407978Y69955D01*
X408025Y69823D01*
X408068Y69692D01*
X408079Y69674D01*
X408085Y69655D01*
X408163Y69540D01*
X408238Y69423D01*
X408253Y69409D01*
X408264Y69392D01*
X408368Y69300D01*
X408469Y69205D01*
X408487Y69195D01*
X408502Y69182D01*
X408627Y69118D01*
X408748Y69051D01*
X408768Y69046D01*
X408779Y69041D01*
X416020Y61800D01*
X416064Y61677D01*
X416075Y61660D01*
X416083Y61641D01*
X416164Y61529D01*
X416242Y61414D01*
X416258Y61400D01*
X416269Y61384D01*
X416377Y61295D01*
X416481Y61203D01*
X416499Y61194D01*
X416514Y61181D01*
X416640Y61122D01*
X416764Y61059D01*
X416784Y61054D01*
X416802Y61046D01*
X416938Y61020D01*
X417074Y60989D01*
X417095Y60990D01*
X417114Y60986D01*
X417253Y60995D01*
X417392Y60999D01*
X417412Y61004D01*
X417432Y61006D01*
X417564Y61048D01*
X417698Y61087D01*
X417715Y61097D01*
X417734Y61104D01*
X417852Y61178D01*
X417972Y61249D01*
X417993Y61267D01*
X418003Y61274D01*
X418017Y61289D01*
X418092Y61355D01*
X424683Y67946D01*
X433837Y67946D01*
X440310Y61473D01*
X440310Y52319D01*
X433837Y45846D01*
X424683Y45846D01*
X418092Y52437D01*
X417983Y52522D01*
X417876Y52611D01*
X417857Y52619D01*
X417841Y52632D01*
X417713Y52687D01*
X417588Y52746D01*
X417568Y52750D01*
X417549Y52758D01*
X417411Y52780D01*
X417275Y52806D01*
X417255Y52805D01*
X417235Y52808D01*
X417096Y52795D01*
X416958Y52786D01*
X416939Y52780D01*
X416919Y52778D01*
X416787Y52731D01*
X416656Y52688D01*
X416638Y52677D01*
X416619Y52671D01*
X416504Y52593D01*
X416387Y52518D01*
X416373Y52503D01*
X416356Y52492D01*
X416264Y52388D01*
X416169Y52287D01*
X416159Y52269D01*
X416146Y52254D01*
X416082Y52129D01*
X416015Y52008D01*
X416010Y51988D01*
X416005Y51977D01*
X408858Y44830D01*
X406399Y44830D01*
X406399Y55626D01*
X406384Y55744D01*
X406377Y55863D01*
X406364Y55901D01*
X406359Y55941D01*
X406316Y56052D01*
X406279Y56165D01*
X406257Y56199D01*
X406242Y56237D01*
X406172Y56333D01*
X406109Y56434D01*
X406079Y56462D01*
X406055Y56494D01*
X405964Y56570D01*
X405877Y56652D01*
X405842Y56671D01*
X405811Y56697D01*
X405703Y56748D01*
X405599Y56805D01*
X405559Y56816D01*
X405523Y56833D01*
X405406Y56855D01*
X405291Y56885D01*
X405230Y56889D01*
X405210Y56893D01*
X405190Y56891D01*
X405130Y56895D01*
X402590Y56895D01*
X402472Y56880D01*
X402353Y56873D01*
X402315Y56860D01*
X402274Y56855D01*
X402164Y56811D01*
X402051Y56775D01*
X402016Y56753D01*
X401979Y56738D01*
X401883Y56668D01*
X401782Y56605D01*
X401754Y56575D01*
X401721Y56551D01*
X401646Y56460D01*
X401564Y56373D01*
X401544Y56338D01*
X401519Y56306D01*
X401468Y56199D01*
X401410Y56094D01*
X401400Y56055D01*
X401383Y56019D01*
X401361Y55902D01*
X401331Y55787D01*
X401327Y55726D01*
X401323Y55706D01*
X401325Y55686D01*
X401324Y55682D01*
X401323Y55676D01*
X401324Y55671D01*
X401321Y55626D01*
X401321Y44830D01*
X398862Y44830D01*
G37*
%LPD*%
%LPC*%
G36*
X74212Y7901D02*
X74212Y7901D01*
X71401Y10712D01*
X71401Y14688D01*
X72526Y15812D01*
X72586Y15890D01*
X72654Y15962D01*
X72683Y16015D01*
X72720Y16063D01*
X72760Y16154D01*
X72808Y16241D01*
X72823Y16299D01*
X72847Y16355D01*
X72862Y16453D01*
X72887Y16549D01*
X72893Y16649D01*
X72897Y16669D01*
X72895Y16681D01*
X72897Y16709D01*
X72897Y90268D01*
X87532Y104903D01*
X161091Y104903D01*
X161189Y104915D01*
X161288Y104918D01*
X161346Y104935D01*
X161406Y104943D01*
X161498Y104979D01*
X161593Y105007D01*
X161645Y105037D01*
X161702Y105060D01*
X161782Y105118D01*
X161867Y105168D01*
X161943Y105234D01*
X161959Y105246D01*
X161967Y105256D01*
X161988Y105274D01*
X163112Y106399D01*
X167088Y106399D01*
X169899Y103588D01*
X169899Y99612D01*
X167088Y96801D01*
X163112Y96801D01*
X161988Y97926D01*
X161910Y97986D01*
X161838Y98054D01*
X161785Y98083D01*
X161737Y98120D01*
X161646Y98160D01*
X161559Y98208D01*
X161501Y98223D01*
X161445Y98247D01*
X161347Y98262D01*
X161251Y98287D01*
X161151Y98293D01*
X161131Y98297D01*
X161119Y98295D01*
X161091Y98297D01*
X90794Y98297D01*
X90696Y98285D01*
X90597Y98282D01*
X90538Y98265D01*
X90478Y98257D01*
X90386Y98221D01*
X90291Y98193D01*
X90239Y98163D01*
X90183Y98140D01*
X90103Y98082D01*
X90017Y98032D01*
X89942Y97966D01*
X89925Y97954D01*
X89917Y97944D01*
X89896Y97926D01*
X79874Y87904D01*
X79814Y87825D01*
X79746Y87753D01*
X79717Y87700D01*
X79680Y87652D01*
X79640Y87561D01*
X79592Y87475D01*
X79577Y87416D01*
X79553Y87361D01*
X79538Y87263D01*
X79513Y87167D01*
X79507Y87067D01*
X79503Y87046D01*
X79505Y87034D01*
X79503Y87006D01*
X79503Y61214D01*
X79518Y61096D01*
X79525Y60977D01*
X79538Y60939D01*
X79543Y60898D01*
X79586Y60788D01*
X79623Y60675D01*
X79645Y60640D01*
X79660Y60603D01*
X79729Y60507D01*
X79793Y60406D01*
X79823Y60378D01*
X79846Y60345D01*
X79938Y60269D01*
X80025Y60188D01*
X80060Y60168D01*
X80091Y60143D01*
X80199Y60092D01*
X80303Y60034D01*
X80343Y60024D01*
X80379Y60007D01*
X80496Y59985D01*
X80611Y59955D01*
X80671Y59951D01*
X80691Y59947D01*
X80712Y59949D01*
X80772Y59945D01*
X86741Y59945D01*
X86859Y59960D01*
X86978Y59967D01*
X87016Y59980D01*
X87057Y59985D01*
X87167Y60028D01*
X87280Y60065D01*
X87315Y60087D01*
X87352Y60102D01*
X87448Y60171D01*
X87549Y60235D01*
X87577Y60265D01*
X87610Y60288D01*
X87686Y60380D01*
X87767Y60467D01*
X87787Y60502D01*
X87812Y60533D01*
X87863Y60641D01*
X87921Y60745D01*
X87931Y60785D01*
X87948Y60821D01*
X87970Y60938D01*
X88000Y61053D01*
X88004Y61113D01*
X88008Y61133D01*
X88006Y61154D01*
X88010Y61214D01*
X88010Y61473D01*
X94483Y67946D01*
X103637Y67946D01*
X110110Y61473D01*
X110110Y52319D01*
X103637Y45846D01*
X94483Y45846D01*
X88010Y52319D01*
X88010Y52578D01*
X87995Y52696D01*
X87988Y52815D01*
X87975Y52853D01*
X87970Y52894D01*
X87927Y53004D01*
X87890Y53117D01*
X87868Y53152D01*
X87853Y53189D01*
X87784Y53285D01*
X87720Y53386D01*
X87690Y53414D01*
X87667Y53447D01*
X87575Y53523D01*
X87488Y53604D01*
X87453Y53624D01*
X87422Y53649D01*
X87314Y53700D01*
X87210Y53758D01*
X87170Y53768D01*
X87134Y53785D01*
X87017Y53807D01*
X86902Y53837D01*
X86842Y53841D01*
X86822Y53845D01*
X86801Y53843D01*
X86741Y53847D01*
X80772Y53847D01*
X80654Y53832D01*
X80535Y53825D01*
X80497Y53812D01*
X80456Y53807D01*
X80346Y53764D01*
X80233Y53727D01*
X80198Y53705D01*
X80161Y53690D01*
X80065Y53621D01*
X79964Y53557D01*
X79936Y53527D01*
X79903Y53504D01*
X79827Y53412D01*
X79746Y53325D01*
X79726Y53290D01*
X79701Y53259D01*
X79650Y53151D01*
X79592Y53047D01*
X79582Y53007D01*
X79565Y52971D01*
X79543Y52854D01*
X79513Y52739D01*
X79509Y52679D01*
X79505Y52659D01*
X79507Y52638D01*
X79503Y52578D01*
X79503Y16709D01*
X79515Y16611D01*
X79518Y16512D01*
X79535Y16454D01*
X79543Y16394D01*
X79579Y16302D01*
X79607Y16207D01*
X79637Y16155D01*
X79660Y16098D01*
X79718Y16018D01*
X79768Y15933D01*
X79834Y15857D01*
X79846Y15841D01*
X79856Y15833D01*
X79874Y15812D01*
X80999Y14688D01*
X80999Y10712D01*
X78188Y7901D01*
X74212Y7901D01*
G37*
%LPD*%
%LPC*%
G36*
X576662Y44830D02*
X576662Y44830D01*
X569500Y51992D01*
X569456Y52115D01*
X569445Y52132D01*
X569437Y52151D01*
X569356Y52263D01*
X569278Y52378D01*
X569262Y52392D01*
X569251Y52408D01*
X569143Y52497D01*
X569039Y52589D01*
X569021Y52598D01*
X569006Y52611D01*
X568880Y52670D01*
X568756Y52733D01*
X568736Y52738D01*
X568718Y52746D01*
X568582Y52772D01*
X568446Y52803D01*
X568425Y52802D01*
X568406Y52806D01*
X568267Y52797D01*
X568128Y52793D01*
X568108Y52788D01*
X568088Y52786D01*
X567956Y52744D01*
X567822Y52705D01*
X567805Y52695D01*
X567786Y52688D01*
X567668Y52614D01*
X567548Y52543D01*
X567527Y52525D01*
X567517Y52518D01*
X567503Y52503D01*
X567428Y52437D01*
X560837Y45846D01*
X551683Y45846D01*
X545210Y52319D01*
X545210Y61473D01*
X551683Y67946D01*
X560837Y67946D01*
X567428Y61355D01*
X567537Y61270D01*
X567644Y61181D01*
X567663Y61173D01*
X567679Y61160D01*
X567807Y61105D01*
X567932Y61046D01*
X567952Y61042D01*
X567971Y61034D01*
X568109Y61012D01*
X568245Y60986D01*
X568265Y60987D01*
X568285Y60984D01*
X568424Y60997D01*
X568562Y61006D01*
X568581Y61012D01*
X568601Y61014D01*
X568733Y61061D01*
X568864Y61104D01*
X568882Y61115D01*
X568901Y61121D01*
X569016Y61199D01*
X569133Y61274D01*
X569147Y61289D01*
X569164Y61300D01*
X569256Y61404D01*
X569351Y61505D01*
X569361Y61523D01*
X569374Y61538D01*
X569438Y61663D01*
X569505Y61784D01*
X569510Y61804D01*
X569515Y61815D01*
X576756Y69056D01*
X576879Y69100D01*
X576896Y69111D01*
X576915Y69119D01*
X577027Y69200D01*
X577142Y69278D01*
X577156Y69294D01*
X577172Y69305D01*
X577261Y69413D01*
X577353Y69517D01*
X577362Y69535D01*
X577375Y69550D01*
X577434Y69676D01*
X577497Y69800D01*
X577502Y69820D01*
X577510Y69838D01*
X577536Y69974D01*
X577567Y70110D01*
X577566Y70131D01*
X577570Y70150D01*
X577561Y70289D01*
X577557Y70428D01*
X577552Y70448D01*
X577550Y70468D01*
X577508Y70600D01*
X577469Y70734D01*
X577459Y70751D01*
X577452Y70770D01*
X577378Y70888D01*
X577307Y71008D01*
X577289Y71029D01*
X577282Y71039D01*
X577267Y71053D01*
X577201Y71128D01*
X570610Y77719D01*
X570610Y86873D01*
X577083Y93346D01*
X586237Y93346D01*
X592710Y86873D01*
X592710Y77719D01*
X586119Y71128D01*
X586034Y71019D01*
X585945Y70912D01*
X585937Y70893D01*
X585924Y70877D01*
X585869Y70749D01*
X585810Y70624D01*
X585806Y70604D01*
X585798Y70585D01*
X585776Y70447D01*
X585750Y70311D01*
X585751Y70291D01*
X585748Y70271D01*
X585761Y70132D01*
X585770Y69994D01*
X585776Y69975D01*
X585778Y69955D01*
X585825Y69823D01*
X585868Y69692D01*
X585879Y69674D01*
X585885Y69655D01*
X585963Y69540D01*
X586038Y69423D01*
X586053Y69409D01*
X586064Y69392D01*
X586168Y69300D01*
X586269Y69205D01*
X586287Y69195D01*
X586302Y69182D01*
X586427Y69118D01*
X586548Y69051D01*
X586568Y69046D01*
X586579Y69041D01*
X593726Y61894D01*
X593726Y59435D01*
X582930Y59435D01*
X582812Y59420D01*
X582693Y59413D01*
X582655Y59400D01*
X582615Y59395D01*
X582504Y59352D01*
X582391Y59315D01*
X582357Y59293D01*
X582319Y59278D01*
X582223Y59208D01*
X582122Y59145D01*
X582094Y59115D01*
X582062Y59091D01*
X581986Y59000D01*
X581904Y58913D01*
X581885Y58878D01*
X581859Y58847D01*
X581808Y58739D01*
X581751Y58635D01*
X581740Y58595D01*
X581723Y58559D01*
X581701Y58442D01*
X581671Y58327D01*
X581667Y58266D01*
X581663Y58246D01*
X581665Y58226D01*
X581664Y58219D01*
X581663Y58215D01*
X581664Y58211D01*
X581661Y58166D01*
X581661Y56895D01*
X580390Y56895D01*
X580272Y56880D01*
X580153Y56873D01*
X580115Y56860D01*
X580074Y56855D01*
X579964Y56811D01*
X579851Y56775D01*
X579816Y56753D01*
X579779Y56738D01*
X579683Y56668D01*
X579582Y56605D01*
X579554Y56575D01*
X579521Y56551D01*
X579446Y56460D01*
X579364Y56373D01*
X579344Y56338D01*
X579319Y56306D01*
X579268Y56199D01*
X579210Y56094D01*
X579200Y56055D01*
X579183Y56019D01*
X579161Y55902D01*
X579131Y55787D01*
X579127Y55726D01*
X579123Y55706D01*
X579125Y55686D01*
X579124Y55682D01*
X579123Y55676D01*
X579124Y55671D01*
X579121Y55626D01*
X579121Y44830D01*
X576662Y44830D01*
G37*
%LPD*%
%LPC*%
G36*
X181975Y359917D02*
X181975Y359917D01*
X178894Y361193D01*
X176535Y363552D01*
X175259Y366633D01*
X175259Y369967D01*
X176535Y373048D01*
X178894Y375407D01*
X181975Y376683D01*
X199025Y376683D01*
X202106Y375407D01*
X203252Y374260D01*
X203331Y374200D01*
X203403Y374132D01*
X203456Y374103D01*
X203504Y374066D01*
X203595Y374026D01*
X203681Y373978D01*
X203740Y373963D01*
X203796Y373939D01*
X203894Y373924D01*
X203989Y373899D01*
X204089Y373893D01*
X204110Y373889D01*
X204122Y373891D01*
X204150Y373889D01*
X227650Y373889D01*
X227748Y373901D01*
X227847Y373904D01*
X227906Y373921D01*
X227966Y373929D01*
X228058Y373965D01*
X228153Y373993D01*
X228205Y374023D01*
X228261Y374046D01*
X228341Y374104D01*
X228427Y374154D01*
X228502Y374220D01*
X228519Y374232D01*
X228526Y374242D01*
X228548Y374260D01*
X229694Y375407D01*
X232775Y376683D01*
X249825Y376683D01*
X252906Y375407D01*
X255265Y373048D01*
X256541Y369967D01*
X256541Y366633D01*
X255265Y363552D01*
X252906Y361193D01*
X249825Y359917D01*
X232775Y359917D01*
X229694Y361193D01*
X228548Y362340D01*
X228469Y362400D01*
X228397Y362468D01*
X228344Y362497D01*
X228296Y362534D01*
X228205Y362574D01*
X228119Y362622D01*
X228060Y362637D01*
X228004Y362661D01*
X227906Y362676D01*
X227811Y362701D01*
X227711Y362707D01*
X227690Y362711D01*
X227678Y362709D01*
X227650Y362711D01*
X204150Y362711D01*
X204052Y362699D01*
X203953Y362696D01*
X203895Y362679D01*
X203834Y362671D01*
X203742Y362635D01*
X203647Y362607D01*
X203595Y362577D01*
X203539Y362554D01*
X203459Y362496D01*
X203373Y362446D01*
X203298Y362380D01*
X203281Y362368D01*
X203274Y362358D01*
X203252Y362340D01*
X202106Y361193D01*
X199025Y359917D01*
X181975Y359917D01*
G37*
%LPD*%
%LPC*%
G36*
X544112Y427001D02*
X544112Y427001D01*
X543242Y427872D01*
X543164Y427932D01*
X543092Y428000D01*
X543039Y428029D01*
X542991Y428066D01*
X542900Y428106D01*
X542813Y428154D01*
X542755Y428169D01*
X542699Y428193D01*
X542601Y428208D01*
X542505Y428233D01*
X542405Y428239D01*
X542385Y428243D01*
X542373Y428241D01*
X542345Y428243D01*
X531927Y428243D01*
X519599Y440572D01*
X519520Y440632D01*
X519448Y440700D01*
X519395Y440729D01*
X519347Y440766D01*
X519256Y440806D01*
X519170Y440854D01*
X519111Y440869D01*
X519055Y440893D01*
X518957Y440908D01*
X518862Y440933D01*
X518762Y440939D01*
X518741Y440943D01*
X518729Y440941D01*
X518701Y440943D01*
X486355Y440943D01*
X486257Y440931D01*
X486158Y440928D01*
X486100Y440911D01*
X486040Y440903D01*
X485948Y440867D01*
X485853Y440839D01*
X485801Y440809D01*
X485744Y440786D01*
X485664Y440728D01*
X485579Y440678D01*
X485503Y440612D01*
X485487Y440600D01*
X485479Y440590D01*
X485458Y440572D01*
X484588Y439701D01*
X480612Y439701D01*
X477801Y442512D01*
X477801Y446488D01*
X480612Y449299D01*
X484588Y449299D01*
X485458Y448428D01*
X485536Y448368D01*
X485608Y448300D01*
X485661Y448271D01*
X485709Y448234D01*
X485800Y448194D01*
X485887Y448146D01*
X485945Y448131D01*
X486001Y448107D01*
X486099Y448092D01*
X486195Y448067D01*
X486295Y448061D01*
X486315Y448057D01*
X486327Y448059D01*
X486355Y448057D01*
X522173Y448057D01*
X534501Y435728D01*
X534580Y435668D01*
X534652Y435600D01*
X534705Y435571D01*
X534753Y435534D01*
X534844Y435494D01*
X534930Y435446D01*
X534989Y435431D01*
X535045Y435407D01*
X535143Y435392D01*
X535238Y435367D01*
X535338Y435361D01*
X535359Y435357D01*
X535371Y435359D01*
X535399Y435357D01*
X542345Y435357D01*
X542443Y435369D01*
X542542Y435372D01*
X542600Y435389D01*
X542660Y435397D01*
X542752Y435433D01*
X542847Y435461D01*
X542899Y435491D01*
X542956Y435514D01*
X543036Y435572D01*
X543121Y435622D01*
X543197Y435688D01*
X543213Y435700D01*
X543221Y435710D01*
X543242Y435728D01*
X544112Y436599D01*
X548088Y436599D01*
X550899Y433788D01*
X550899Y429812D01*
X548088Y427001D01*
X544112Y427001D01*
G37*
%LPD*%
%LPC*%
G36*
X112312Y160301D02*
X112312Y160301D01*
X110934Y161680D01*
X110856Y161740D01*
X110784Y161808D01*
X110731Y161837D01*
X110683Y161874D01*
X110592Y161914D01*
X110505Y161962D01*
X110447Y161977D01*
X110391Y162001D01*
X110293Y162016D01*
X110197Y162041D01*
X110097Y162047D01*
X110077Y162051D01*
X110065Y162049D01*
X110037Y162051D01*
X87637Y162051D01*
X85836Y163852D01*
X85836Y163868D01*
X85819Y163926D01*
X85811Y163986D01*
X85775Y164078D01*
X85747Y164173D01*
X85717Y164226D01*
X85694Y164282D01*
X85636Y164362D01*
X85586Y164447D01*
X85520Y164523D01*
X85508Y164539D01*
X85498Y164547D01*
X85480Y164568D01*
X75414Y174634D01*
X75336Y174694D01*
X75264Y174762D01*
X75211Y174791D01*
X75163Y174828D01*
X75072Y174868D01*
X74985Y174916D01*
X74927Y174931D01*
X74871Y174955D01*
X74773Y174970D01*
X74677Y174995D01*
X74577Y175001D01*
X74557Y175005D01*
X74545Y175003D01*
X74517Y175005D01*
X42617Y175005D01*
X42519Y174993D01*
X42420Y174990D01*
X42362Y174973D01*
X42302Y174965D01*
X42210Y174929D01*
X42115Y174901D01*
X42063Y174871D01*
X42006Y174848D01*
X41926Y174790D01*
X41841Y174740D01*
X41765Y174674D01*
X41749Y174662D01*
X41741Y174652D01*
X41720Y174634D01*
X40088Y173001D01*
X36112Y173001D01*
X33301Y175812D01*
X33301Y179788D01*
X36112Y182599D01*
X40088Y182599D01*
X41720Y180966D01*
X41798Y180906D01*
X41870Y180838D01*
X41923Y180809D01*
X41971Y180772D01*
X42062Y180732D01*
X42149Y180684D01*
X42207Y180669D01*
X42263Y180645D01*
X42361Y180630D01*
X42457Y180605D01*
X42557Y180599D01*
X42577Y180595D01*
X42589Y180597D01*
X42617Y180595D01*
X77358Y180595D01*
X79366Y178586D01*
X89432Y168520D01*
X89510Y168460D01*
X89582Y168392D01*
X89635Y168363D01*
X89683Y168326D01*
X89774Y168286D01*
X89861Y168238D01*
X89919Y168223D01*
X89975Y168199D01*
X90073Y168184D01*
X90169Y168159D01*
X90269Y168153D01*
X90289Y168149D01*
X90301Y168151D01*
X90329Y168149D01*
X110037Y168149D01*
X110135Y168161D01*
X110234Y168164D01*
X110292Y168181D01*
X110352Y168189D01*
X110444Y168225D01*
X110539Y168253D01*
X110591Y168283D01*
X110648Y168306D01*
X110728Y168364D01*
X110813Y168414D01*
X110889Y168480D01*
X110905Y168492D01*
X110913Y168502D01*
X110934Y168520D01*
X112312Y169899D01*
X116288Y169899D01*
X119099Y167088D01*
X119099Y163112D01*
X116288Y160301D01*
X112312Y160301D01*
G37*
%LPD*%
%LPC*%
G36*
X302812Y425701D02*
X302812Y425701D01*
X300001Y428512D01*
X300001Y432488D01*
X302812Y435299D01*
X306788Y435299D01*
X307150Y434936D01*
X307228Y434876D01*
X307300Y434808D01*
X307353Y434779D01*
X307401Y434742D01*
X307492Y434702D01*
X307579Y434654D01*
X307637Y434639D01*
X307693Y434615D01*
X307791Y434600D01*
X307887Y434575D01*
X307987Y434569D01*
X308007Y434565D01*
X308019Y434567D01*
X308047Y434565D01*
X352353Y434565D01*
X352451Y434577D01*
X352550Y434580D01*
X352608Y434597D01*
X352668Y434605D01*
X352760Y434641D01*
X352855Y434669D01*
X352907Y434699D01*
X352964Y434722D01*
X353044Y434780D01*
X353129Y434830D01*
X353205Y434896D01*
X353221Y434908D01*
X353229Y434918D01*
X353250Y434936D01*
X353612Y435299D01*
X357588Y435299D01*
X360399Y432488D01*
X360399Y428512D01*
X357588Y425701D01*
X353612Y425701D01*
X353250Y426064D01*
X353172Y426124D01*
X353100Y426192D01*
X353047Y426221D01*
X352999Y426258D01*
X352908Y426298D01*
X352821Y426346D01*
X352763Y426361D01*
X352707Y426385D01*
X352609Y426400D01*
X352513Y426425D01*
X352413Y426431D01*
X352393Y426435D01*
X352381Y426433D01*
X352353Y426435D01*
X308047Y426435D01*
X307949Y426423D01*
X307850Y426420D01*
X307792Y426403D01*
X307732Y426395D01*
X307640Y426359D01*
X307545Y426331D01*
X307493Y426301D01*
X307436Y426278D01*
X307356Y426220D01*
X307271Y426170D01*
X307195Y426104D01*
X307179Y426092D01*
X307171Y426082D01*
X307150Y426064D01*
X306788Y425701D01*
X302812Y425701D01*
G37*
%LPD*%
%LPC*%
G36*
X188512Y425701D02*
X188512Y425701D01*
X185701Y428512D01*
X185701Y432488D01*
X188512Y435299D01*
X192488Y435299D01*
X192850Y434936D01*
X192928Y434876D01*
X193000Y434808D01*
X193053Y434779D01*
X193101Y434742D01*
X193192Y434702D01*
X193279Y434654D01*
X193337Y434639D01*
X193393Y434615D01*
X193491Y434600D01*
X193587Y434575D01*
X193687Y434569D01*
X193707Y434565D01*
X193719Y434567D01*
X193747Y434565D01*
X238053Y434565D01*
X238151Y434577D01*
X238250Y434580D01*
X238308Y434597D01*
X238368Y434605D01*
X238460Y434641D01*
X238555Y434669D01*
X238607Y434699D01*
X238664Y434722D01*
X238744Y434780D01*
X238829Y434830D01*
X238905Y434896D01*
X238921Y434908D01*
X238929Y434918D01*
X238950Y434936D01*
X239312Y435299D01*
X243288Y435299D01*
X246099Y432488D01*
X246099Y428512D01*
X243288Y425701D01*
X239312Y425701D01*
X238950Y426064D01*
X238872Y426124D01*
X238800Y426192D01*
X238747Y426221D01*
X238699Y426258D01*
X238608Y426298D01*
X238521Y426346D01*
X238463Y426361D01*
X238407Y426385D01*
X238309Y426400D01*
X238213Y426425D01*
X238113Y426431D01*
X238093Y426435D01*
X238081Y426433D01*
X238053Y426435D01*
X193747Y426435D01*
X193649Y426423D01*
X193550Y426420D01*
X193492Y426403D01*
X193432Y426395D01*
X193340Y426359D01*
X193245Y426331D01*
X193193Y426301D01*
X193136Y426278D01*
X193056Y426220D01*
X192971Y426170D01*
X192895Y426104D01*
X192879Y426092D01*
X192871Y426082D01*
X192850Y426064D01*
X192488Y425701D01*
X188512Y425701D01*
G37*
%LPD*%
%LPC*%
G36*
X671112Y427001D02*
X671112Y427001D01*
X668301Y429812D01*
X668301Y431043D01*
X668289Y431141D01*
X668286Y431240D01*
X668269Y431298D01*
X668261Y431359D01*
X668225Y431451D01*
X668197Y431546D01*
X668167Y431598D01*
X668144Y431654D01*
X668086Y431734D01*
X668036Y431820D01*
X667970Y431895D01*
X667958Y431912D01*
X667948Y431919D01*
X667930Y431941D01*
X659299Y440572D01*
X659220Y440632D01*
X659148Y440700D01*
X659095Y440729D01*
X659047Y440766D01*
X658956Y440806D01*
X658870Y440854D01*
X658811Y440869D01*
X658755Y440893D01*
X658657Y440908D01*
X658562Y440933D01*
X658462Y440939D01*
X658441Y440943D01*
X658429Y440941D01*
X658401Y440943D01*
X626055Y440943D01*
X625957Y440931D01*
X625858Y440928D01*
X625800Y440911D01*
X625740Y440903D01*
X625648Y440867D01*
X625553Y440839D01*
X625501Y440809D01*
X625444Y440786D01*
X625364Y440728D01*
X625279Y440678D01*
X625203Y440612D01*
X625187Y440600D01*
X625179Y440590D01*
X625158Y440572D01*
X624288Y439701D01*
X620312Y439701D01*
X617501Y442512D01*
X617501Y446488D01*
X620312Y449299D01*
X624288Y449299D01*
X625158Y448428D01*
X625236Y448368D01*
X625308Y448300D01*
X625361Y448271D01*
X625409Y448234D01*
X625500Y448194D01*
X625587Y448146D01*
X625645Y448131D01*
X625701Y448107D01*
X625799Y448092D01*
X625895Y448067D01*
X625995Y448061D01*
X626015Y448057D01*
X626027Y448059D01*
X626055Y448057D01*
X661873Y448057D01*
X672959Y436970D01*
X673038Y436910D01*
X673110Y436842D01*
X673163Y436813D01*
X673211Y436776D01*
X673302Y436736D01*
X673388Y436688D01*
X673447Y436673D01*
X673503Y436649D01*
X673601Y436634D01*
X673696Y436609D01*
X673796Y436603D01*
X673817Y436599D01*
X673829Y436601D01*
X673857Y436599D01*
X675088Y436599D01*
X677899Y433788D01*
X677899Y429812D01*
X675088Y427001D01*
X671112Y427001D01*
G37*
%LPD*%
%LPC*%
G36*
X588375Y182117D02*
X588375Y182117D01*
X585294Y183393D01*
X582935Y185752D01*
X581659Y188833D01*
X581659Y192167D01*
X582935Y195248D01*
X585294Y197607D01*
X588375Y198883D01*
X605425Y198883D01*
X608506Y197607D01*
X610865Y195248D01*
X612141Y192167D01*
X612141Y188833D01*
X610865Y185752D01*
X608506Y183393D01*
X605425Y182117D01*
X588375Y182117D01*
G37*
%LPD*%
%LPC*%
G36*
X588375Y156717D02*
X588375Y156717D01*
X585294Y157993D01*
X582935Y160352D01*
X581659Y163433D01*
X581659Y166767D01*
X582935Y169848D01*
X585294Y172207D01*
X588375Y173483D01*
X605425Y173483D01*
X608506Y172207D01*
X610865Y169848D01*
X612141Y166767D01*
X612141Y163433D01*
X610865Y160352D01*
X608506Y157993D01*
X605425Y156717D01*
X588375Y156717D01*
G37*
%LPD*%
%LPC*%
G36*
X347075Y385317D02*
X347075Y385317D01*
X343994Y386593D01*
X341635Y388952D01*
X340359Y392033D01*
X340359Y395367D01*
X341635Y398448D01*
X343994Y400807D01*
X347075Y402083D01*
X364125Y402083D01*
X367206Y400807D01*
X369565Y398448D01*
X370841Y395367D01*
X370841Y392033D01*
X369565Y388952D01*
X367206Y386593D01*
X364125Y385317D01*
X347075Y385317D01*
G37*
%LPD*%
%LPC*%
G36*
X296275Y385317D02*
X296275Y385317D01*
X293194Y386593D01*
X290835Y388952D01*
X289559Y392033D01*
X289559Y395367D01*
X290835Y398448D01*
X293194Y400807D01*
X296275Y402083D01*
X313325Y402083D01*
X316406Y400807D01*
X318765Y398448D01*
X320041Y395367D01*
X320041Y392033D01*
X318765Y388952D01*
X316406Y386593D01*
X313325Y385317D01*
X296275Y385317D01*
G37*
%LPD*%
%LPC*%
G36*
X232775Y385317D02*
X232775Y385317D01*
X229694Y386593D01*
X227335Y388952D01*
X226059Y392033D01*
X226059Y395367D01*
X227335Y398448D01*
X229694Y400807D01*
X232775Y402083D01*
X249825Y402083D01*
X252906Y400807D01*
X255265Y398448D01*
X256541Y395367D01*
X256541Y392033D01*
X255265Y388952D01*
X252906Y386593D01*
X249825Y385317D01*
X232775Y385317D01*
G37*
%LPD*%
%LPC*%
G36*
X181975Y385317D02*
X181975Y385317D01*
X178894Y386593D01*
X176535Y388952D01*
X175259Y392033D01*
X175259Y395367D01*
X176535Y398448D01*
X178894Y400807D01*
X181975Y402083D01*
X199025Y402083D01*
X202106Y400807D01*
X204465Y398448D01*
X205741Y395367D01*
X205741Y392033D01*
X204465Y388952D01*
X202106Y386593D01*
X199025Y385317D01*
X181975Y385317D01*
G37*
%LPD*%
%LPC*%
G36*
X550275Y182117D02*
X550275Y182117D01*
X547194Y183393D01*
X544835Y185752D01*
X543559Y188833D01*
X543559Y192167D01*
X544835Y195248D01*
X547194Y197607D01*
X550275Y198883D01*
X567325Y198883D01*
X570406Y197607D01*
X572765Y195248D01*
X574041Y192167D01*
X574041Y188833D01*
X572765Y185752D01*
X570406Y183393D01*
X567325Y182117D01*
X550275Y182117D01*
G37*
%LPD*%
%LPC*%
G36*
X550275Y156717D02*
X550275Y156717D01*
X547194Y157993D01*
X544835Y160352D01*
X543559Y163433D01*
X543559Y166767D01*
X544835Y169848D01*
X547194Y172207D01*
X550275Y173483D01*
X567325Y173483D01*
X570406Y172207D01*
X572765Y169848D01*
X574041Y166767D01*
X574041Y163433D01*
X572765Y160352D01*
X570406Y157993D01*
X567325Y156717D01*
X550275Y156717D01*
G37*
%LPD*%
%LPC*%
G36*
X791713Y181990D02*
X791713Y181990D01*
X785240Y188463D01*
X785240Y197617D01*
X791713Y204090D01*
X800867Y204090D01*
X807340Y197617D01*
X807340Y188463D01*
X800867Y181990D01*
X791713Y181990D01*
G37*
%LPD*%
%LPC*%
G36*
X766313Y283590D02*
X766313Y283590D01*
X759840Y290063D01*
X759840Y299217D01*
X766313Y305690D01*
X775467Y305690D01*
X781940Y299217D01*
X781940Y290063D01*
X775467Y283590D01*
X766313Y283590D01*
G37*
%LPD*%
%LPC*%
G36*
X766313Y486790D02*
X766313Y486790D01*
X759840Y493263D01*
X759840Y502417D01*
X766313Y508890D01*
X775467Y508890D01*
X781940Y502417D01*
X781940Y493263D01*
X775467Y486790D01*
X766313Y486790D01*
G37*
%LPD*%
%LPC*%
G36*
X791713Y461390D02*
X791713Y461390D01*
X785240Y467863D01*
X785240Y477017D01*
X791713Y483490D01*
X800867Y483490D01*
X807340Y477017D01*
X807340Y467863D01*
X800867Y461390D01*
X791713Y461390D01*
G37*
%LPD*%
%LPC*%
G36*
X791713Y156590D02*
X791713Y156590D01*
X785240Y163063D01*
X785240Y172217D01*
X791713Y178690D01*
X800867Y178690D01*
X807340Y172217D01*
X807340Y163063D01*
X800867Y156590D01*
X791713Y156590D01*
G37*
%LPD*%
%LPC*%
G36*
X766313Y156590D02*
X766313Y156590D01*
X759840Y163063D01*
X759840Y172217D01*
X766313Y178690D01*
X775467Y178690D01*
X781940Y172217D01*
X781940Y163063D01*
X775467Y156590D01*
X766313Y156590D01*
G37*
%LPD*%
%LPC*%
G36*
X766313Y181990D02*
X766313Y181990D01*
X759840Y188463D01*
X759840Y197617D01*
X766313Y204090D01*
X775467Y204090D01*
X781940Y197617D01*
X781940Y188463D01*
X775467Y181990D01*
X766313Y181990D01*
G37*
%LPD*%
%LPC*%
G36*
X766313Y461390D02*
X766313Y461390D01*
X759840Y467863D01*
X759840Y477017D01*
X766313Y483490D01*
X775467Y483490D01*
X781940Y477017D01*
X781940Y467863D01*
X775467Y461390D01*
X766313Y461390D01*
G37*
%LPD*%
%LPC*%
G36*
X791713Y131190D02*
X791713Y131190D01*
X785240Y137663D01*
X785240Y146817D01*
X791713Y153290D01*
X800867Y153290D01*
X807340Y146817D01*
X807340Y137663D01*
X800867Y131190D01*
X791713Y131190D01*
G37*
%LPD*%
%LPC*%
G36*
X766313Y131190D02*
X766313Y131190D01*
X759840Y137663D01*
X759840Y146817D01*
X766313Y153290D01*
X775467Y153290D01*
X781940Y146817D01*
X781940Y137663D01*
X775467Y131190D01*
X766313Y131190D01*
G37*
%LPD*%
%LPC*%
G36*
X766313Y435990D02*
X766313Y435990D01*
X759840Y442463D01*
X759840Y451617D01*
X766313Y458090D01*
X775467Y458090D01*
X781940Y451617D01*
X781940Y442463D01*
X775467Y435990D01*
X766313Y435990D01*
G37*
%LPD*%
%LPC*%
G36*
X766313Y410590D02*
X766313Y410590D01*
X759840Y417063D01*
X759840Y426217D01*
X766313Y432690D01*
X775467Y432690D01*
X781940Y426217D01*
X781940Y417063D01*
X775467Y410590D01*
X766313Y410590D01*
G37*
%LPD*%
%LPC*%
G36*
X791713Y334390D02*
X791713Y334390D01*
X785240Y340863D01*
X785240Y350017D01*
X791713Y356490D01*
X800867Y356490D01*
X807340Y350017D01*
X807340Y340863D01*
X800867Y334390D01*
X791713Y334390D01*
G37*
%LPD*%
%LPC*%
G36*
X791713Y308990D02*
X791713Y308990D01*
X785240Y315463D01*
X785240Y324617D01*
X791713Y331090D01*
X800867Y331090D01*
X807340Y324617D01*
X807340Y315463D01*
X800867Y308990D01*
X791713Y308990D01*
G37*
%LPD*%
%LPC*%
G36*
X766313Y308990D02*
X766313Y308990D01*
X759840Y315463D01*
X759840Y324617D01*
X766313Y331090D01*
X775467Y331090D01*
X781940Y324617D01*
X781940Y315463D01*
X775467Y308990D01*
X766313Y308990D01*
G37*
%LPD*%
%LPC*%
G36*
X373883Y71246D02*
X373883Y71246D01*
X367410Y77719D01*
X367410Y86873D01*
X373883Y93346D01*
X383037Y93346D01*
X389510Y86873D01*
X389510Y77719D01*
X383037Y71246D01*
X373883Y71246D01*
G37*
%LPD*%
%LPC*%
G36*
X791713Y283590D02*
X791713Y283590D01*
X785240Y290063D01*
X785240Y299217D01*
X791713Y305690D01*
X800867Y305690D01*
X807340Y299217D01*
X807340Y290063D01*
X800867Y283590D01*
X791713Y283590D01*
G37*
%LPD*%
%LPC*%
G36*
X94483Y71246D02*
X94483Y71246D01*
X88010Y77719D01*
X88010Y86873D01*
X94483Y93346D01*
X103637Y93346D01*
X110110Y86873D01*
X110110Y77719D01*
X103637Y71246D01*
X94483Y71246D01*
G37*
%LPD*%
%LPC*%
G36*
X791713Y258190D02*
X791713Y258190D01*
X785240Y264663D01*
X785240Y273817D01*
X791713Y280290D01*
X800867Y280290D01*
X807340Y273817D01*
X807340Y264663D01*
X800867Y258190D01*
X791713Y258190D01*
G37*
%LPD*%
%LPC*%
G36*
X551683Y71246D02*
X551683Y71246D01*
X545210Y77719D01*
X545210Y86873D01*
X551683Y93346D01*
X560837Y93346D01*
X567310Y86873D01*
X567310Y77719D01*
X560837Y71246D01*
X551683Y71246D01*
G37*
%LPD*%
%LPC*%
G36*
X791713Y207390D02*
X791713Y207390D01*
X785240Y213863D01*
X785240Y223017D01*
X791713Y229490D01*
X800867Y229490D01*
X807340Y223017D01*
X807340Y213863D01*
X800867Y207390D01*
X791713Y207390D01*
G37*
%LPD*%
%LPC*%
G36*
X348483Y45846D02*
X348483Y45846D01*
X342010Y52319D01*
X342010Y61473D01*
X348483Y67946D01*
X357637Y67946D01*
X364110Y61473D01*
X364110Y52319D01*
X357637Y45846D01*
X348483Y45846D01*
G37*
%LPD*%
%LPC*%
G36*
X475483Y45846D02*
X475483Y45846D01*
X469010Y52319D01*
X469010Y61473D01*
X475483Y67946D01*
X484637Y67946D01*
X491110Y61473D01*
X491110Y52319D01*
X484637Y45846D01*
X475483Y45846D01*
G37*
%LPD*%
%LPC*%
G36*
X119883Y45846D02*
X119883Y45846D01*
X113410Y52319D01*
X113410Y61473D01*
X119883Y67946D01*
X129037Y67946D01*
X135510Y61473D01*
X135510Y52319D01*
X129037Y45846D01*
X119883Y45846D01*
G37*
%LPD*%
%LPC*%
G36*
X526283Y45846D02*
X526283Y45846D01*
X519810Y52319D01*
X519810Y61473D01*
X526283Y67946D01*
X535437Y67946D01*
X541910Y61473D01*
X541910Y52319D01*
X535437Y45846D01*
X526283Y45846D01*
G37*
%LPD*%
%LPC*%
G36*
X297683Y45846D02*
X297683Y45846D01*
X291210Y52319D01*
X291210Y61473D01*
X297683Y67946D01*
X306837Y67946D01*
X313310Y61473D01*
X313310Y52319D01*
X306837Y45846D01*
X297683Y45846D01*
G37*
%LPD*%
%LPC*%
G36*
X272283Y45846D02*
X272283Y45846D01*
X265810Y52319D01*
X265810Y61473D01*
X272283Y67946D01*
X281437Y67946D01*
X287910Y61473D01*
X287910Y52319D01*
X281437Y45846D01*
X272283Y45846D01*
G37*
%LPD*%
%LPC*%
G36*
X163112Y312701D02*
X163112Y312701D01*
X160301Y315512D01*
X160301Y319488D01*
X163112Y322299D01*
X165421Y322299D01*
X165519Y322311D01*
X165618Y322314D01*
X165676Y322331D01*
X165736Y322339D01*
X165828Y322375D01*
X165923Y322403D01*
X165976Y322433D01*
X166032Y322456D01*
X166112Y322514D01*
X166197Y322564D01*
X166273Y322630D01*
X166289Y322642D01*
X166297Y322652D01*
X166318Y322670D01*
X189342Y345695D01*
X198683Y345695D01*
X198781Y345707D01*
X198880Y345710D01*
X198938Y345727D01*
X198998Y345735D01*
X199090Y345771D01*
X199185Y345799D01*
X199237Y345829D01*
X199294Y345852D01*
X199374Y345910D01*
X199459Y345960D01*
X199535Y346026D01*
X199551Y346038D01*
X199559Y346048D01*
X199580Y346066D01*
X201212Y347699D01*
X205188Y347699D01*
X207999Y344888D01*
X207999Y340912D01*
X205188Y338101D01*
X201212Y338101D01*
X199580Y339734D01*
X199502Y339794D01*
X199430Y339862D01*
X199377Y339891D01*
X199329Y339928D01*
X199238Y339968D01*
X199151Y340016D01*
X199093Y340031D01*
X199037Y340055D01*
X198939Y340070D01*
X198843Y340095D01*
X198743Y340101D01*
X198723Y340105D01*
X198711Y340103D01*
X198683Y340105D01*
X192183Y340105D01*
X192085Y340093D01*
X191986Y340090D01*
X191928Y340073D01*
X191868Y340065D01*
X191776Y340029D01*
X191681Y340001D01*
X191628Y339971D01*
X191572Y339948D01*
X191492Y339890D01*
X191407Y339840D01*
X191331Y339774D01*
X191315Y339762D01*
X191307Y339752D01*
X191286Y339734D01*
X170270Y318718D01*
X170210Y318640D01*
X170142Y318568D01*
X170113Y318515D01*
X170076Y318467D01*
X170036Y318376D01*
X169988Y318289D01*
X169973Y318231D01*
X169949Y318175D01*
X169934Y318077D01*
X169909Y317981D01*
X169903Y317881D01*
X169899Y317861D01*
X169901Y317849D01*
X169899Y317821D01*
X169899Y315512D01*
X167088Y312701D01*
X163112Y312701D01*
G37*
%LPD*%
%LPC*%
G36*
X584199Y44830D02*
X584199Y44830D01*
X584199Y54357D01*
X593726Y54357D01*
X593726Y51898D01*
X586658Y44830D01*
X584199Y44830D01*
G37*
%LPD*%
D10*
X99060Y56896D03*
X99060Y82296D03*
X124460Y56896D03*
X124460Y82296D03*
X149860Y56896D03*
X149860Y82296D03*
X175260Y56896D03*
X175260Y82296D03*
X200660Y56896D03*
X200660Y82296D03*
X226060Y56896D03*
X226060Y82296D03*
X251460Y56896D03*
X251460Y82296D03*
X276860Y56896D03*
X276860Y82296D03*
X302260Y56896D03*
X302260Y82296D03*
X327660Y56896D03*
X327660Y82296D03*
X353060Y56896D03*
X353060Y82296D03*
X378460Y56896D03*
X378460Y82296D03*
X403860Y56896D03*
X403860Y82296D03*
X429260Y56896D03*
X429260Y82296D03*
X454660Y56896D03*
X454660Y82296D03*
X480060Y56896D03*
X480060Y82296D03*
X505460Y56896D03*
X505460Y82296D03*
X530860Y56896D03*
X530860Y82296D03*
X556260Y56896D03*
X556260Y82296D03*
X581660Y56896D03*
X581660Y82296D03*
D11*
X770890Y497840D03*
X796290Y497840D03*
X770890Y472440D03*
X796290Y472440D03*
X770890Y447040D03*
X796290Y447040D03*
X770890Y421640D03*
X796290Y421640D03*
X770890Y396240D03*
X796290Y396240D03*
X770890Y370840D03*
X796290Y370840D03*
X770890Y345440D03*
X796290Y345440D03*
X770890Y320040D03*
X796290Y320040D03*
X770890Y294640D03*
X796290Y294640D03*
X770890Y269240D03*
X796290Y269240D03*
X770890Y243840D03*
X796290Y243840D03*
X770890Y218440D03*
X796290Y218440D03*
X770890Y193040D03*
X796290Y193040D03*
X770890Y167640D03*
X796290Y167640D03*
X770890Y142240D03*
X796290Y142240D03*
D12*
X565658Y190500D02*
X551942Y190500D01*
X551942Y165100D02*
X565658Y165100D01*
X590042Y190500D02*
X603758Y190500D01*
X603758Y165100D02*
X590042Y165100D01*
X362458Y393700D02*
X348742Y393700D01*
X348742Y368300D02*
X362458Y368300D01*
X248158Y393700D02*
X234442Y393700D01*
X234442Y368300D02*
X248158Y368300D01*
X197358Y393700D02*
X183642Y393700D01*
X183642Y368300D02*
X197358Y368300D01*
X297942Y393700D02*
X311658Y393700D01*
X311658Y368300D02*
X297942Y368300D01*
D13*
X354013Y490538D02*
X355628Y490538D01*
D14*
X508000Y457200D03*
X647700Y457200D03*
X688975Y323850D03*
X682625Y323850D03*
X542925Y323850D03*
X549275Y323850D03*
X631825Y282575D03*
X631825Y276225D03*
X492125Y282575D03*
X492125Y276225D03*
X498475Y317500D03*
X504825Y317500D03*
X638175Y317500D03*
X644525Y317500D03*
X685800Y447675D03*
X546100Y447675D03*
X273050Y517525D03*
X133350Y514350D03*
X425450Y514350D03*
X812800Y396875D03*
X25400Y381000D03*
X25400Y228600D03*
X114300Y381000D03*
X88900Y228600D03*
X266700Y330200D03*
X317500Y190500D03*
X628650Y207010D03*
X425450Y406400D03*
X584200Y304800D03*
X444500Y304800D03*
X577850Y406400D03*
X660400Y114300D03*
X721360Y205740D03*
X200025Y38100D03*
X403225Y38100D03*
X241300Y177800D03*
X600075Y57150D03*
X584200Y38100D03*
X276225Y107950D03*
X377825Y107950D03*
X749300Y371475D03*
X571500Y244475D03*
X723900Y260350D03*
X727075Y390525D03*
X733425Y482600D03*
X504825Y104775D03*
X454025Y104775D03*
X546100Y352400D03*
X685800Y352400D03*
D15*
X355600Y368300D02*
X304800Y368300D01*
X241300Y368300D02*
X190500Y368300D01*
X546100Y352400D02*
X685800Y352400D01*
X546100Y352400D02*
X485800Y352400D01*
X469900Y368300D01*
X355600Y368300D01*
D14*
X76200Y12700D03*
D16*
X76200Y57150D01*
D14*
X165100Y101600D03*
D16*
X76200Y88900D02*
X76200Y57150D01*
X88900Y101600D02*
X165100Y101600D01*
X88900Y101600D02*
X76200Y88900D01*
D17*
X76454Y56896D02*
X99060Y56896D01*
X76454Y56896D02*
X76200Y57150D01*
D14*
X165100Y317500D03*
D18*
X190500Y342900D01*
X203200Y342900D01*
D14*
X203200Y342900D03*
X127000Y254000D03*
D15*
X190500Y254000D02*
X266700Y254000D01*
D14*
X647700Y254000D03*
D15*
X190500Y254000D02*
X127000Y254000D01*
X266700Y254000D02*
X368300Y254000D01*
X461154Y263525D02*
X501650Y263525D01*
D14*
X501650Y263525D03*
D19*
X796290Y421640D02*
X818896Y444246D01*
X802340Y512445D02*
X802005Y512445D01*
X793750Y520700D01*
X802340Y512445D02*
X818896Y495889D01*
D14*
X488950Y501650D03*
D19*
X818896Y495889D02*
X818896Y444246D01*
D14*
X631825Y501650D03*
X266700Y268000D03*
D15*
X266700Y254000D01*
D14*
X368300Y268000D03*
D15*
X368300Y254000D01*
X406400Y254000D01*
X415925Y263525D01*
X501650Y263525D01*
X504267Y263525D01*
X639739Y254000D02*
X647700Y254000D01*
X639739Y254000D02*
X613481Y280258D01*
X521000Y280258D01*
X504267Y263525D01*
D19*
X736600Y520700D02*
X793750Y520700D01*
X736600Y520700D02*
X723900Y508000D01*
X638175Y508000D02*
X631825Y501650D01*
X638175Y508000D02*
X723900Y508000D01*
X625475Y508000D02*
X495300Y508000D01*
X488950Y501650D01*
X625475Y508000D02*
X631825Y501650D01*
X638175Y508000D02*
X625475Y508000D01*
D18*
X88900Y165100D02*
X76200Y177800D01*
X38100Y177800D01*
D14*
X38100Y177800D03*
D17*
X88900Y165100D02*
X114300Y165100D01*
D14*
X114300Y165100D03*
D17*
X190500Y177800D02*
X190500Y254000D01*
D14*
X190500Y177800D03*
X482600Y444500D03*
D20*
X520700Y444500D01*
X533400Y431800D01*
X546100Y431800D01*
D14*
X546100Y431800D03*
X622300Y444500D03*
D20*
X660400Y444500D02*
X673100Y431800D01*
D14*
X673100Y431800D03*
D20*
X660400Y444500D02*
X622300Y444500D01*
D14*
X596900Y226342D03*
D20*
X596900Y270888D01*
D14*
X596900Y270888D03*
X304800Y430500D03*
D21*
X355600Y430500D01*
D14*
X355600Y430500D03*
X241300Y430500D03*
D21*
X190500Y430500D01*
D14*
X190500Y430500D03*
M02*
