G04 EAGLE Gerber RS-274X export*
G75*
%MOMM*%
%FSLAX34Y34*%
%LPD*%
%INSolderpaste Top*%
%IPPOS*%
%AMOC8*
5,1,8,0,0,1.08239X$1,22.5*%
G01*
%ADD10R,2.000000X1.600000*%
%ADD11R,1.803000X1.600000*%
%ADD12R,0.609600X1.524000*%
%ADD13R,1.300000X1.500000*%
%ADD14R,1.500000X1.300000*%
%ADD15R,1.600200X1.168400*%
%ADD16R,0.600000X1.700000*%
%ADD17R,1.000000X2.700000*%
%ADD18R,1.000000X1.400000*%
%ADD19R,1.400000X1.000000*%


D10*
X355600Y458500D03*
X355600Y430500D03*
X241300Y458500D03*
X241300Y430500D03*
X190500Y458500D03*
X190500Y430500D03*
X304800Y430500D03*
X304800Y458500D03*
D11*
X266700Y204720D03*
X266700Y176280D03*
X368300Y204720D03*
X368300Y176280D03*
D10*
X266700Y240000D03*
X266700Y268000D03*
X368300Y240000D03*
X368300Y268000D03*
D12*
X628650Y303276D03*
X628650Y357124D03*
X641350Y303276D03*
X654050Y303276D03*
X641350Y357124D03*
X654050Y357124D03*
X666750Y303276D03*
X666750Y357124D03*
X488950Y303276D03*
X488950Y357124D03*
X501650Y303276D03*
X514350Y303276D03*
X501650Y357124D03*
X514350Y357124D03*
X527050Y303276D03*
X527050Y357124D03*
D13*
X657200Y279400D03*
X638200Y279400D03*
X517500Y279400D03*
X498500Y279400D03*
D14*
X546100Y352400D03*
X546100Y333400D03*
X685800Y352400D03*
X685800Y333400D03*
X647700Y435000D03*
X647700Y454000D03*
X508000Y435000D03*
X508000Y454000D03*
X615950Y263550D03*
X615950Y282550D03*
X679450Y263550D03*
X679450Y282550D03*
X609600Y333400D03*
X609600Y352400D03*
X476250Y263550D03*
X476250Y282550D03*
X539750Y263550D03*
X539750Y282550D03*
X469900Y333400D03*
X469900Y352400D03*
D11*
X635000Y379480D03*
X635000Y407920D03*
X660400Y407920D03*
X660400Y379480D03*
X495300Y379480D03*
X495300Y407920D03*
X520700Y407920D03*
X520700Y379480D03*
D15*
X685800Y449580D03*
X685800Y464820D03*
X546100Y449580D03*
X546100Y464820D03*
D16*
X323950Y489975D03*
X336450Y489975D03*
D17*
X367450Y521975D03*
X292950Y521975D03*
D16*
X348950Y489975D03*
X311450Y489975D03*
X209650Y489975D03*
X222150Y489975D03*
D17*
X253150Y521975D03*
X178650Y521975D03*
D16*
X234650Y489975D03*
X197150Y489975D03*
X57250Y489975D03*
X69750Y489975D03*
D17*
X88250Y521975D03*
X38750Y521975D03*
D14*
X587375Y333400D03*
X587375Y352400D03*
X447675Y333400D03*
X447675Y352400D03*
D16*
X641450Y489975D03*
X653950Y489975D03*
D17*
X684950Y521975D03*
X610450Y521975D03*
D16*
X666450Y489975D03*
X628950Y489975D03*
X501750Y489975D03*
X514250Y489975D03*
D17*
X545250Y521975D03*
X470750Y521975D03*
D16*
X526750Y489975D03*
X489250Y489975D03*
D18*
X368300Y138000D03*
X377800Y116000D03*
X358800Y116000D03*
X266700Y138000D03*
X276200Y116000D03*
X257200Y116000D03*
D14*
X238125Y117500D03*
X238125Y136500D03*
X339725Y117500D03*
X339725Y136500D03*
D19*
X585900Y457200D03*
X607900Y466700D03*
X607900Y447700D03*
X446200Y457200D03*
X468200Y466700D03*
X468200Y447700D03*
D11*
X190500Y239780D03*
X190500Y268220D03*
X215900Y239780D03*
X215900Y268220D03*
D14*
X190500Y212700D03*
X190500Y193700D03*
X215900Y212700D03*
X215900Y193700D03*
M02*
