G04 EAGLE Gerber RS-274X export*
G75*
%MOMM*%
%FSLAX34Y34*%
%LPD*%
%INSoldermask Bottom*%
%IPPOS*%
%AMOC8*
5,1,8,0,0,1.08239X$1,22.5*%
G01*
%ADD10P,2.171924X8X22.500000*%
%ADD11P,2.171924X8X292.500000*%
%ADD12C,1.473200*%


D10*
X99060Y56896D03*
X99060Y82296D03*
X124460Y56896D03*
X124460Y82296D03*
X149860Y56896D03*
X149860Y82296D03*
X175260Y56896D03*
X175260Y82296D03*
X200660Y56896D03*
X200660Y82296D03*
X226060Y56896D03*
X226060Y82296D03*
X251460Y56896D03*
X251460Y82296D03*
X276860Y56896D03*
X276860Y82296D03*
X302260Y56896D03*
X302260Y82296D03*
X327660Y56896D03*
X327660Y82296D03*
X353060Y56896D03*
X353060Y82296D03*
X378460Y56896D03*
X378460Y82296D03*
X403860Y56896D03*
X403860Y82296D03*
X429260Y56896D03*
X429260Y82296D03*
X454660Y56896D03*
X454660Y82296D03*
X480060Y56896D03*
X480060Y82296D03*
X505460Y56896D03*
X505460Y82296D03*
X530860Y56896D03*
X530860Y82296D03*
X556260Y56896D03*
X556260Y82296D03*
X581660Y56896D03*
X581660Y82296D03*
D11*
X770890Y497840D03*
X796290Y497840D03*
X770890Y472440D03*
X796290Y472440D03*
X770890Y447040D03*
X796290Y447040D03*
X770890Y421640D03*
X796290Y421640D03*
X770890Y396240D03*
X796290Y396240D03*
X770890Y370840D03*
X796290Y370840D03*
X770890Y345440D03*
X796290Y345440D03*
X770890Y320040D03*
X796290Y320040D03*
X770890Y294640D03*
X796290Y294640D03*
X770890Y269240D03*
X796290Y269240D03*
X770890Y243840D03*
X796290Y243840D03*
X770890Y218440D03*
X796290Y218440D03*
X770890Y193040D03*
X796290Y193040D03*
X770890Y167640D03*
X796290Y167640D03*
X770890Y142240D03*
X796290Y142240D03*
D12*
X565658Y190500D02*
X551942Y190500D01*
X551942Y165100D02*
X565658Y165100D01*
X590042Y190500D02*
X603758Y190500D01*
X603758Y165100D02*
X590042Y165100D01*
X362458Y393700D02*
X348742Y393700D01*
X348742Y368300D02*
X362458Y368300D01*
X248158Y393700D02*
X234442Y393700D01*
X234442Y368300D02*
X248158Y368300D01*
X197358Y393700D02*
X183642Y393700D01*
X183642Y368300D02*
X197358Y368300D01*
X297942Y393700D02*
X311658Y393700D01*
X311658Y368300D02*
X297942Y368300D01*
M02*
