G75*
%MOIN*%
%OFA0B0*%
%FSLAX25Y25*%
%IPPOS*%
%LPD*%
%AMOC8*
5,1,8,0,0,1.08239X$1,22.5*
%
%ADD10C,0.00300*%
%ADD11C,0.00400*%
%ADD12C,0.00800*%
%ADD13C,0.00000*%
%ADD14C,0.00500*%
D10*
X0255000Y0285000D02*
X0455000Y0285000D01*
X0455000Y0725000D01*
X0255000Y0725000D01*
X0255000Y0285000D01*
X0437515Y0430767D02*
X0438132Y0430150D01*
X0439367Y0430150D01*
X0439984Y0430767D01*
X0437515Y0433236D01*
X0437515Y0430767D01*
X0439984Y0430767D02*
X0439984Y0433236D01*
X0439367Y0433853D01*
X0438132Y0433853D01*
X0437515Y0433236D01*
X0441198Y0430150D02*
X0443667Y0430150D01*
X0444881Y0430150D02*
X0446116Y0431384D01*
X0445498Y0431384D02*
X0447350Y0431384D01*
X0447350Y0430150D02*
X0447350Y0433853D01*
X0445498Y0433853D01*
X0444881Y0433236D01*
X0444881Y0432002D01*
X0445498Y0431384D01*
X0443667Y0432619D02*
X0442432Y0433853D01*
X0442432Y0430150D01*
X0444315Y0378853D02*
X0445550Y0378853D01*
X0446167Y0378236D01*
X0446167Y0377619D01*
X0445550Y0377002D01*
X0443698Y0377002D01*
X0443698Y0378236D02*
X0444315Y0378853D01*
X0443698Y0378236D02*
X0443698Y0375767D01*
X0444315Y0375150D01*
X0445550Y0375150D01*
X0446167Y0375767D01*
X0447381Y0375150D02*
X0448616Y0376384D01*
X0447998Y0376384D02*
X0449850Y0376384D01*
X0449850Y0375150D02*
X0449850Y0378853D01*
X0447998Y0378853D01*
X0447381Y0378236D01*
X0447381Y0377002D01*
X0447998Y0376384D01*
X0444850Y0487650D02*
X0444850Y0491353D01*
X0442998Y0491353D01*
X0442381Y0490736D01*
X0442381Y0489502D01*
X0442998Y0488884D01*
X0444850Y0488884D01*
X0443616Y0488884D02*
X0442381Y0487650D01*
X0441167Y0487650D02*
X0438698Y0487650D01*
X0437484Y0487650D02*
X0435015Y0487650D01*
X0436249Y0487650D02*
X0436249Y0491353D01*
X0437484Y0490119D01*
X0439932Y0491353D02*
X0439932Y0487650D01*
X0441167Y0490119D02*
X0439932Y0491353D01*
D11*
X0339804Y0468665D02*
X0339037Y0467131D01*
X0337502Y0465596D01*
X0337502Y0467898D01*
X0336735Y0468665D01*
X0335967Y0468665D01*
X0335200Y0467898D01*
X0335200Y0466363D01*
X0335967Y0465596D01*
X0337502Y0465596D01*
X0339037Y0464061D02*
X0335967Y0464061D01*
X0335200Y0463294D01*
X0335200Y0461759D01*
X0335967Y0460992D01*
X0339037Y0460992D01*
X0339804Y0461759D01*
X0339804Y0463294D01*
X0339037Y0464061D01*
X0336735Y0462527D02*
X0335200Y0464061D01*
X0335967Y0413665D02*
X0335200Y0412898D01*
X0335200Y0411363D01*
X0335967Y0410596D01*
X0335967Y0409061D02*
X0335200Y0408294D01*
X0335200Y0406759D01*
X0335967Y0405992D01*
X0339037Y0405992D01*
X0339804Y0406759D01*
X0339804Y0408294D01*
X0339037Y0409061D01*
X0335967Y0409061D01*
X0335200Y0409061D02*
X0336735Y0407527D01*
X0337502Y0410596D02*
X0338269Y0412131D01*
X0338269Y0412898D01*
X0337502Y0413665D01*
X0335967Y0413665D01*
X0337502Y0410596D02*
X0339804Y0410596D01*
X0339804Y0413665D01*
X0337502Y0358665D02*
X0337502Y0355596D01*
X0339804Y0357898D01*
X0335200Y0357898D01*
X0335200Y0354061D02*
X0336735Y0352527D01*
X0335967Y0354061D02*
X0335200Y0353294D01*
X0335200Y0351759D01*
X0335967Y0350992D01*
X0339037Y0350992D01*
X0339804Y0351759D01*
X0339804Y0353294D01*
X0339037Y0354061D01*
X0335967Y0354061D01*
X0421450Y0650398D02*
X0426054Y0650398D01*
X0423752Y0650398D02*
X0423752Y0653467D01*
X0426054Y0653467D02*
X0421450Y0653467D01*
X0421450Y0658523D02*
X0421450Y0661592D01*
X0421450Y0658523D02*
X0426054Y0658523D01*
X0425287Y0666648D02*
X0424519Y0666648D01*
X0423752Y0667415D01*
X0423752Y0668950D01*
X0422985Y0669717D01*
X0422217Y0669717D01*
X0421450Y0668950D01*
X0421450Y0667415D01*
X0422217Y0666648D01*
X0425287Y0666648D02*
X0426054Y0667415D01*
X0426054Y0668950D01*
X0425287Y0669717D01*
X0416679Y0668071D02*
X0412075Y0668071D01*
X0416679Y0665002D01*
X0412075Y0665002D01*
X0412075Y0663467D02*
X0415144Y0663467D01*
X0416679Y0661933D01*
X0415144Y0660398D01*
X0412075Y0660398D01*
X0412842Y0658863D02*
X0412075Y0658096D01*
X0412075Y0656561D01*
X0412842Y0655794D01*
X0415912Y0655794D01*
X0416679Y0656561D01*
X0416679Y0658096D01*
X0415912Y0658863D01*
X0414377Y0660398D02*
X0414377Y0663467D01*
D12*
X0426654Y0483110D02*
X0426654Y0479610D01*
X0433346Y0479610D01*
X0433346Y0471890D01*
X0426654Y0471890D02*
X0426654Y0479610D01*
X0433346Y0479610D02*
X0433346Y0483110D01*
X0430404Y0425610D02*
X0430404Y0422110D01*
X0437096Y0422110D01*
X0437096Y0414390D01*
X0430404Y0414390D02*
X0430404Y0422110D01*
X0437096Y0422110D02*
X0437096Y0425610D01*
X0439596Y0370610D02*
X0439596Y0367110D01*
X0432904Y0367110D01*
X0432904Y0370610D01*
X0432904Y0367110D02*
X0432904Y0359390D01*
X0439596Y0359390D02*
X0439596Y0367110D01*
X0387992Y0361654D02*
X0387992Y0318346D01*
X0382992Y0318346D01*
X0382992Y0361654D02*
X0387992Y0361654D01*
X0387992Y0373346D02*
X0382992Y0373346D01*
X0387992Y0373346D02*
X0387992Y0416654D01*
X0382992Y0416654D01*
X0382992Y0428346D02*
X0387992Y0428346D01*
X0387992Y0471654D01*
X0382992Y0471654D01*
D13*
X0433500Y0300000D02*
X0433502Y0300161D01*
X0433508Y0300321D01*
X0433518Y0300482D01*
X0433532Y0300642D01*
X0433550Y0300802D01*
X0433571Y0300961D01*
X0433597Y0301120D01*
X0433627Y0301278D01*
X0433660Y0301435D01*
X0433698Y0301592D01*
X0433739Y0301747D01*
X0433784Y0301901D01*
X0433833Y0302054D01*
X0433886Y0302206D01*
X0433942Y0302357D01*
X0434003Y0302506D01*
X0434066Y0302654D01*
X0434134Y0302800D01*
X0434205Y0302944D01*
X0434279Y0303086D01*
X0434357Y0303227D01*
X0434439Y0303365D01*
X0434524Y0303502D01*
X0434612Y0303636D01*
X0434704Y0303768D01*
X0434799Y0303898D01*
X0434897Y0304026D01*
X0434998Y0304151D01*
X0435102Y0304273D01*
X0435209Y0304393D01*
X0435319Y0304510D01*
X0435432Y0304625D01*
X0435548Y0304736D01*
X0435667Y0304845D01*
X0435788Y0304950D01*
X0435912Y0305053D01*
X0436038Y0305153D01*
X0436166Y0305249D01*
X0436297Y0305342D01*
X0436431Y0305432D01*
X0436566Y0305519D01*
X0436704Y0305602D01*
X0436843Y0305682D01*
X0436985Y0305758D01*
X0437128Y0305831D01*
X0437273Y0305900D01*
X0437420Y0305966D01*
X0437568Y0306028D01*
X0437718Y0306086D01*
X0437869Y0306141D01*
X0438022Y0306192D01*
X0438176Y0306239D01*
X0438331Y0306282D01*
X0438487Y0306321D01*
X0438643Y0306357D01*
X0438801Y0306388D01*
X0438959Y0306416D01*
X0439118Y0306440D01*
X0439278Y0306460D01*
X0439438Y0306476D01*
X0439598Y0306488D01*
X0439759Y0306496D01*
X0439920Y0306500D01*
X0440080Y0306500D01*
X0440241Y0306496D01*
X0440402Y0306488D01*
X0440562Y0306476D01*
X0440722Y0306460D01*
X0440882Y0306440D01*
X0441041Y0306416D01*
X0441199Y0306388D01*
X0441357Y0306357D01*
X0441513Y0306321D01*
X0441669Y0306282D01*
X0441824Y0306239D01*
X0441978Y0306192D01*
X0442131Y0306141D01*
X0442282Y0306086D01*
X0442432Y0306028D01*
X0442580Y0305966D01*
X0442727Y0305900D01*
X0442872Y0305831D01*
X0443015Y0305758D01*
X0443157Y0305682D01*
X0443296Y0305602D01*
X0443434Y0305519D01*
X0443569Y0305432D01*
X0443703Y0305342D01*
X0443834Y0305249D01*
X0443962Y0305153D01*
X0444088Y0305053D01*
X0444212Y0304950D01*
X0444333Y0304845D01*
X0444452Y0304736D01*
X0444568Y0304625D01*
X0444681Y0304510D01*
X0444791Y0304393D01*
X0444898Y0304273D01*
X0445002Y0304151D01*
X0445103Y0304026D01*
X0445201Y0303898D01*
X0445296Y0303768D01*
X0445388Y0303636D01*
X0445476Y0303502D01*
X0445561Y0303365D01*
X0445643Y0303227D01*
X0445721Y0303086D01*
X0445795Y0302944D01*
X0445866Y0302800D01*
X0445934Y0302654D01*
X0445997Y0302506D01*
X0446058Y0302357D01*
X0446114Y0302206D01*
X0446167Y0302054D01*
X0446216Y0301901D01*
X0446261Y0301747D01*
X0446302Y0301592D01*
X0446340Y0301435D01*
X0446373Y0301278D01*
X0446403Y0301120D01*
X0446429Y0300961D01*
X0446450Y0300802D01*
X0446468Y0300642D01*
X0446482Y0300482D01*
X0446492Y0300321D01*
X0446498Y0300161D01*
X0446500Y0300000D01*
X0446498Y0299839D01*
X0446492Y0299679D01*
X0446482Y0299518D01*
X0446468Y0299358D01*
X0446450Y0299198D01*
X0446429Y0299039D01*
X0446403Y0298880D01*
X0446373Y0298722D01*
X0446340Y0298565D01*
X0446302Y0298408D01*
X0446261Y0298253D01*
X0446216Y0298099D01*
X0446167Y0297946D01*
X0446114Y0297794D01*
X0446058Y0297643D01*
X0445997Y0297494D01*
X0445934Y0297346D01*
X0445866Y0297200D01*
X0445795Y0297056D01*
X0445721Y0296914D01*
X0445643Y0296773D01*
X0445561Y0296635D01*
X0445476Y0296498D01*
X0445388Y0296364D01*
X0445296Y0296232D01*
X0445201Y0296102D01*
X0445103Y0295974D01*
X0445002Y0295849D01*
X0444898Y0295727D01*
X0444791Y0295607D01*
X0444681Y0295490D01*
X0444568Y0295375D01*
X0444452Y0295264D01*
X0444333Y0295155D01*
X0444212Y0295050D01*
X0444088Y0294947D01*
X0443962Y0294847D01*
X0443834Y0294751D01*
X0443703Y0294658D01*
X0443569Y0294568D01*
X0443434Y0294481D01*
X0443296Y0294398D01*
X0443157Y0294318D01*
X0443015Y0294242D01*
X0442872Y0294169D01*
X0442727Y0294100D01*
X0442580Y0294034D01*
X0442432Y0293972D01*
X0442282Y0293914D01*
X0442131Y0293859D01*
X0441978Y0293808D01*
X0441824Y0293761D01*
X0441669Y0293718D01*
X0441513Y0293679D01*
X0441357Y0293643D01*
X0441199Y0293612D01*
X0441041Y0293584D01*
X0440882Y0293560D01*
X0440722Y0293540D01*
X0440562Y0293524D01*
X0440402Y0293512D01*
X0440241Y0293504D01*
X0440080Y0293500D01*
X0439920Y0293500D01*
X0439759Y0293504D01*
X0439598Y0293512D01*
X0439438Y0293524D01*
X0439278Y0293540D01*
X0439118Y0293560D01*
X0438959Y0293584D01*
X0438801Y0293612D01*
X0438643Y0293643D01*
X0438487Y0293679D01*
X0438331Y0293718D01*
X0438176Y0293761D01*
X0438022Y0293808D01*
X0437869Y0293859D01*
X0437718Y0293914D01*
X0437568Y0293972D01*
X0437420Y0294034D01*
X0437273Y0294100D01*
X0437128Y0294169D01*
X0436985Y0294242D01*
X0436843Y0294318D01*
X0436704Y0294398D01*
X0436566Y0294481D01*
X0436431Y0294568D01*
X0436297Y0294658D01*
X0436166Y0294751D01*
X0436038Y0294847D01*
X0435912Y0294947D01*
X0435788Y0295050D01*
X0435667Y0295155D01*
X0435548Y0295264D01*
X0435432Y0295375D01*
X0435319Y0295490D01*
X0435209Y0295607D01*
X0435102Y0295727D01*
X0434998Y0295849D01*
X0434897Y0295974D01*
X0434799Y0296102D01*
X0434704Y0296232D01*
X0434612Y0296364D01*
X0434524Y0296498D01*
X0434439Y0296635D01*
X0434357Y0296773D01*
X0434279Y0296914D01*
X0434205Y0297056D01*
X0434134Y0297200D01*
X0434066Y0297346D01*
X0434003Y0297494D01*
X0433942Y0297643D01*
X0433886Y0297794D01*
X0433833Y0297946D01*
X0433784Y0298099D01*
X0433739Y0298253D01*
X0433698Y0298408D01*
X0433660Y0298565D01*
X0433627Y0298722D01*
X0433597Y0298880D01*
X0433571Y0299039D01*
X0433550Y0299198D01*
X0433532Y0299358D01*
X0433518Y0299518D01*
X0433508Y0299679D01*
X0433502Y0299839D01*
X0433500Y0300000D01*
X0263500Y0300000D02*
X0263502Y0300161D01*
X0263508Y0300321D01*
X0263518Y0300482D01*
X0263532Y0300642D01*
X0263550Y0300802D01*
X0263571Y0300961D01*
X0263597Y0301120D01*
X0263627Y0301278D01*
X0263660Y0301435D01*
X0263698Y0301592D01*
X0263739Y0301747D01*
X0263784Y0301901D01*
X0263833Y0302054D01*
X0263886Y0302206D01*
X0263942Y0302357D01*
X0264003Y0302506D01*
X0264066Y0302654D01*
X0264134Y0302800D01*
X0264205Y0302944D01*
X0264279Y0303086D01*
X0264357Y0303227D01*
X0264439Y0303365D01*
X0264524Y0303502D01*
X0264612Y0303636D01*
X0264704Y0303768D01*
X0264799Y0303898D01*
X0264897Y0304026D01*
X0264998Y0304151D01*
X0265102Y0304273D01*
X0265209Y0304393D01*
X0265319Y0304510D01*
X0265432Y0304625D01*
X0265548Y0304736D01*
X0265667Y0304845D01*
X0265788Y0304950D01*
X0265912Y0305053D01*
X0266038Y0305153D01*
X0266166Y0305249D01*
X0266297Y0305342D01*
X0266431Y0305432D01*
X0266566Y0305519D01*
X0266704Y0305602D01*
X0266843Y0305682D01*
X0266985Y0305758D01*
X0267128Y0305831D01*
X0267273Y0305900D01*
X0267420Y0305966D01*
X0267568Y0306028D01*
X0267718Y0306086D01*
X0267869Y0306141D01*
X0268022Y0306192D01*
X0268176Y0306239D01*
X0268331Y0306282D01*
X0268487Y0306321D01*
X0268643Y0306357D01*
X0268801Y0306388D01*
X0268959Y0306416D01*
X0269118Y0306440D01*
X0269278Y0306460D01*
X0269438Y0306476D01*
X0269598Y0306488D01*
X0269759Y0306496D01*
X0269920Y0306500D01*
X0270080Y0306500D01*
X0270241Y0306496D01*
X0270402Y0306488D01*
X0270562Y0306476D01*
X0270722Y0306460D01*
X0270882Y0306440D01*
X0271041Y0306416D01*
X0271199Y0306388D01*
X0271357Y0306357D01*
X0271513Y0306321D01*
X0271669Y0306282D01*
X0271824Y0306239D01*
X0271978Y0306192D01*
X0272131Y0306141D01*
X0272282Y0306086D01*
X0272432Y0306028D01*
X0272580Y0305966D01*
X0272727Y0305900D01*
X0272872Y0305831D01*
X0273015Y0305758D01*
X0273157Y0305682D01*
X0273296Y0305602D01*
X0273434Y0305519D01*
X0273569Y0305432D01*
X0273703Y0305342D01*
X0273834Y0305249D01*
X0273962Y0305153D01*
X0274088Y0305053D01*
X0274212Y0304950D01*
X0274333Y0304845D01*
X0274452Y0304736D01*
X0274568Y0304625D01*
X0274681Y0304510D01*
X0274791Y0304393D01*
X0274898Y0304273D01*
X0275002Y0304151D01*
X0275103Y0304026D01*
X0275201Y0303898D01*
X0275296Y0303768D01*
X0275388Y0303636D01*
X0275476Y0303502D01*
X0275561Y0303365D01*
X0275643Y0303227D01*
X0275721Y0303086D01*
X0275795Y0302944D01*
X0275866Y0302800D01*
X0275934Y0302654D01*
X0275997Y0302506D01*
X0276058Y0302357D01*
X0276114Y0302206D01*
X0276167Y0302054D01*
X0276216Y0301901D01*
X0276261Y0301747D01*
X0276302Y0301592D01*
X0276340Y0301435D01*
X0276373Y0301278D01*
X0276403Y0301120D01*
X0276429Y0300961D01*
X0276450Y0300802D01*
X0276468Y0300642D01*
X0276482Y0300482D01*
X0276492Y0300321D01*
X0276498Y0300161D01*
X0276500Y0300000D01*
X0276498Y0299839D01*
X0276492Y0299679D01*
X0276482Y0299518D01*
X0276468Y0299358D01*
X0276450Y0299198D01*
X0276429Y0299039D01*
X0276403Y0298880D01*
X0276373Y0298722D01*
X0276340Y0298565D01*
X0276302Y0298408D01*
X0276261Y0298253D01*
X0276216Y0298099D01*
X0276167Y0297946D01*
X0276114Y0297794D01*
X0276058Y0297643D01*
X0275997Y0297494D01*
X0275934Y0297346D01*
X0275866Y0297200D01*
X0275795Y0297056D01*
X0275721Y0296914D01*
X0275643Y0296773D01*
X0275561Y0296635D01*
X0275476Y0296498D01*
X0275388Y0296364D01*
X0275296Y0296232D01*
X0275201Y0296102D01*
X0275103Y0295974D01*
X0275002Y0295849D01*
X0274898Y0295727D01*
X0274791Y0295607D01*
X0274681Y0295490D01*
X0274568Y0295375D01*
X0274452Y0295264D01*
X0274333Y0295155D01*
X0274212Y0295050D01*
X0274088Y0294947D01*
X0273962Y0294847D01*
X0273834Y0294751D01*
X0273703Y0294658D01*
X0273569Y0294568D01*
X0273434Y0294481D01*
X0273296Y0294398D01*
X0273157Y0294318D01*
X0273015Y0294242D01*
X0272872Y0294169D01*
X0272727Y0294100D01*
X0272580Y0294034D01*
X0272432Y0293972D01*
X0272282Y0293914D01*
X0272131Y0293859D01*
X0271978Y0293808D01*
X0271824Y0293761D01*
X0271669Y0293718D01*
X0271513Y0293679D01*
X0271357Y0293643D01*
X0271199Y0293612D01*
X0271041Y0293584D01*
X0270882Y0293560D01*
X0270722Y0293540D01*
X0270562Y0293524D01*
X0270402Y0293512D01*
X0270241Y0293504D01*
X0270080Y0293500D01*
X0269920Y0293500D01*
X0269759Y0293504D01*
X0269598Y0293512D01*
X0269438Y0293524D01*
X0269278Y0293540D01*
X0269118Y0293560D01*
X0268959Y0293584D01*
X0268801Y0293612D01*
X0268643Y0293643D01*
X0268487Y0293679D01*
X0268331Y0293718D01*
X0268176Y0293761D01*
X0268022Y0293808D01*
X0267869Y0293859D01*
X0267718Y0293914D01*
X0267568Y0293972D01*
X0267420Y0294034D01*
X0267273Y0294100D01*
X0267128Y0294169D01*
X0266985Y0294242D01*
X0266843Y0294318D01*
X0266704Y0294398D01*
X0266566Y0294481D01*
X0266431Y0294568D01*
X0266297Y0294658D01*
X0266166Y0294751D01*
X0266038Y0294847D01*
X0265912Y0294947D01*
X0265788Y0295050D01*
X0265667Y0295155D01*
X0265548Y0295264D01*
X0265432Y0295375D01*
X0265319Y0295490D01*
X0265209Y0295607D01*
X0265102Y0295727D01*
X0264998Y0295849D01*
X0264897Y0295974D01*
X0264799Y0296102D01*
X0264704Y0296232D01*
X0264612Y0296364D01*
X0264524Y0296498D01*
X0264439Y0296635D01*
X0264357Y0296773D01*
X0264279Y0296914D01*
X0264205Y0297056D01*
X0264134Y0297200D01*
X0264066Y0297346D01*
X0264003Y0297494D01*
X0263942Y0297643D01*
X0263886Y0297794D01*
X0263833Y0297946D01*
X0263784Y0298099D01*
X0263739Y0298253D01*
X0263698Y0298408D01*
X0263660Y0298565D01*
X0263627Y0298722D01*
X0263597Y0298880D01*
X0263571Y0299039D01*
X0263550Y0299198D01*
X0263532Y0299358D01*
X0263518Y0299518D01*
X0263508Y0299679D01*
X0263502Y0299839D01*
X0263500Y0300000D01*
X0263500Y0710000D02*
X0263502Y0710161D01*
X0263508Y0710321D01*
X0263518Y0710482D01*
X0263532Y0710642D01*
X0263550Y0710802D01*
X0263571Y0710961D01*
X0263597Y0711120D01*
X0263627Y0711278D01*
X0263660Y0711435D01*
X0263698Y0711592D01*
X0263739Y0711747D01*
X0263784Y0711901D01*
X0263833Y0712054D01*
X0263886Y0712206D01*
X0263942Y0712357D01*
X0264003Y0712506D01*
X0264066Y0712654D01*
X0264134Y0712800D01*
X0264205Y0712944D01*
X0264279Y0713086D01*
X0264357Y0713227D01*
X0264439Y0713365D01*
X0264524Y0713502D01*
X0264612Y0713636D01*
X0264704Y0713768D01*
X0264799Y0713898D01*
X0264897Y0714026D01*
X0264998Y0714151D01*
X0265102Y0714273D01*
X0265209Y0714393D01*
X0265319Y0714510D01*
X0265432Y0714625D01*
X0265548Y0714736D01*
X0265667Y0714845D01*
X0265788Y0714950D01*
X0265912Y0715053D01*
X0266038Y0715153D01*
X0266166Y0715249D01*
X0266297Y0715342D01*
X0266431Y0715432D01*
X0266566Y0715519D01*
X0266704Y0715602D01*
X0266843Y0715682D01*
X0266985Y0715758D01*
X0267128Y0715831D01*
X0267273Y0715900D01*
X0267420Y0715966D01*
X0267568Y0716028D01*
X0267718Y0716086D01*
X0267869Y0716141D01*
X0268022Y0716192D01*
X0268176Y0716239D01*
X0268331Y0716282D01*
X0268487Y0716321D01*
X0268643Y0716357D01*
X0268801Y0716388D01*
X0268959Y0716416D01*
X0269118Y0716440D01*
X0269278Y0716460D01*
X0269438Y0716476D01*
X0269598Y0716488D01*
X0269759Y0716496D01*
X0269920Y0716500D01*
X0270080Y0716500D01*
X0270241Y0716496D01*
X0270402Y0716488D01*
X0270562Y0716476D01*
X0270722Y0716460D01*
X0270882Y0716440D01*
X0271041Y0716416D01*
X0271199Y0716388D01*
X0271357Y0716357D01*
X0271513Y0716321D01*
X0271669Y0716282D01*
X0271824Y0716239D01*
X0271978Y0716192D01*
X0272131Y0716141D01*
X0272282Y0716086D01*
X0272432Y0716028D01*
X0272580Y0715966D01*
X0272727Y0715900D01*
X0272872Y0715831D01*
X0273015Y0715758D01*
X0273157Y0715682D01*
X0273296Y0715602D01*
X0273434Y0715519D01*
X0273569Y0715432D01*
X0273703Y0715342D01*
X0273834Y0715249D01*
X0273962Y0715153D01*
X0274088Y0715053D01*
X0274212Y0714950D01*
X0274333Y0714845D01*
X0274452Y0714736D01*
X0274568Y0714625D01*
X0274681Y0714510D01*
X0274791Y0714393D01*
X0274898Y0714273D01*
X0275002Y0714151D01*
X0275103Y0714026D01*
X0275201Y0713898D01*
X0275296Y0713768D01*
X0275388Y0713636D01*
X0275476Y0713502D01*
X0275561Y0713365D01*
X0275643Y0713227D01*
X0275721Y0713086D01*
X0275795Y0712944D01*
X0275866Y0712800D01*
X0275934Y0712654D01*
X0275997Y0712506D01*
X0276058Y0712357D01*
X0276114Y0712206D01*
X0276167Y0712054D01*
X0276216Y0711901D01*
X0276261Y0711747D01*
X0276302Y0711592D01*
X0276340Y0711435D01*
X0276373Y0711278D01*
X0276403Y0711120D01*
X0276429Y0710961D01*
X0276450Y0710802D01*
X0276468Y0710642D01*
X0276482Y0710482D01*
X0276492Y0710321D01*
X0276498Y0710161D01*
X0276500Y0710000D01*
X0276498Y0709839D01*
X0276492Y0709679D01*
X0276482Y0709518D01*
X0276468Y0709358D01*
X0276450Y0709198D01*
X0276429Y0709039D01*
X0276403Y0708880D01*
X0276373Y0708722D01*
X0276340Y0708565D01*
X0276302Y0708408D01*
X0276261Y0708253D01*
X0276216Y0708099D01*
X0276167Y0707946D01*
X0276114Y0707794D01*
X0276058Y0707643D01*
X0275997Y0707494D01*
X0275934Y0707346D01*
X0275866Y0707200D01*
X0275795Y0707056D01*
X0275721Y0706914D01*
X0275643Y0706773D01*
X0275561Y0706635D01*
X0275476Y0706498D01*
X0275388Y0706364D01*
X0275296Y0706232D01*
X0275201Y0706102D01*
X0275103Y0705974D01*
X0275002Y0705849D01*
X0274898Y0705727D01*
X0274791Y0705607D01*
X0274681Y0705490D01*
X0274568Y0705375D01*
X0274452Y0705264D01*
X0274333Y0705155D01*
X0274212Y0705050D01*
X0274088Y0704947D01*
X0273962Y0704847D01*
X0273834Y0704751D01*
X0273703Y0704658D01*
X0273569Y0704568D01*
X0273434Y0704481D01*
X0273296Y0704398D01*
X0273157Y0704318D01*
X0273015Y0704242D01*
X0272872Y0704169D01*
X0272727Y0704100D01*
X0272580Y0704034D01*
X0272432Y0703972D01*
X0272282Y0703914D01*
X0272131Y0703859D01*
X0271978Y0703808D01*
X0271824Y0703761D01*
X0271669Y0703718D01*
X0271513Y0703679D01*
X0271357Y0703643D01*
X0271199Y0703612D01*
X0271041Y0703584D01*
X0270882Y0703560D01*
X0270722Y0703540D01*
X0270562Y0703524D01*
X0270402Y0703512D01*
X0270241Y0703504D01*
X0270080Y0703500D01*
X0269920Y0703500D01*
X0269759Y0703504D01*
X0269598Y0703512D01*
X0269438Y0703524D01*
X0269278Y0703540D01*
X0269118Y0703560D01*
X0268959Y0703584D01*
X0268801Y0703612D01*
X0268643Y0703643D01*
X0268487Y0703679D01*
X0268331Y0703718D01*
X0268176Y0703761D01*
X0268022Y0703808D01*
X0267869Y0703859D01*
X0267718Y0703914D01*
X0267568Y0703972D01*
X0267420Y0704034D01*
X0267273Y0704100D01*
X0267128Y0704169D01*
X0266985Y0704242D01*
X0266843Y0704318D01*
X0266704Y0704398D01*
X0266566Y0704481D01*
X0266431Y0704568D01*
X0266297Y0704658D01*
X0266166Y0704751D01*
X0266038Y0704847D01*
X0265912Y0704947D01*
X0265788Y0705050D01*
X0265667Y0705155D01*
X0265548Y0705264D01*
X0265432Y0705375D01*
X0265319Y0705490D01*
X0265209Y0705607D01*
X0265102Y0705727D01*
X0264998Y0705849D01*
X0264897Y0705974D01*
X0264799Y0706102D01*
X0264704Y0706232D01*
X0264612Y0706364D01*
X0264524Y0706498D01*
X0264439Y0706635D01*
X0264357Y0706773D01*
X0264279Y0706914D01*
X0264205Y0707056D01*
X0264134Y0707200D01*
X0264066Y0707346D01*
X0264003Y0707494D01*
X0263942Y0707643D01*
X0263886Y0707794D01*
X0263833Y0707946D01*
X0263784Y0708099D01*
X0263739Y0708253D01*
X0263698Y0708408D01*
X0263660Y0708565D01*
X0263627Y0708722D01*
X0263597Y0708880D01*
X0263571Y0709039D01*
X0263550Y0709198D01*
X0263532Y0709358D01*
X0263518Y0709518D01*
X0263508Y0709679D01*
X0263502Y0709839D01*
X0263500Y0710000D01*
X0433500Y0710000D02*
X0433502Y0710161D01*
X0433508Y0710321D01*
X0433518Y0710482D01*
X0433532Y0710642D01*
X0433550Y0710802D01*
X0433571Y0710961D01*
X0433597Y0711120D01*
X0433627Y0711278D01*
X0433660Y0711435D01*
X0433698Y0711592D01*
X0433739Y0711747D01*
X0433784Y0711901D01*
X0433833Y0712054D01*
X0433886Y0712206D01*
X0433942Y0712357D01*
X0434003Y0712506D01*
X0434066Y0712654D01*
X0434134Y0712800D01*
X0434205Y0712944D01*
X0434279Y0713086D01*
X0434357Y0713227D01*
X0434439Y0713365D01*
X0434524Y0713502D01*
X0434612Y0713636D01*
X0434704Y0713768D01*
X0434799Y0713898D01*
X0434897Y0714026D01*
X0434998Y0714151D01*
X0435102Y0714273D01*
X0435209Y0714393D01*
X0435319Y0714510D01*
X0435432Y0714625D01*
X0435548Y0714736D01*
X0435667Y0714845D01*
X0435788Y0714950D01*
X0435912Y0715053D01*
X0436038Y0715153D01*
X0436166Y0715249D01*
X0436297Y0715342D01*
X0436431Y0715432D01*
X0436566Y0715519D01*
X0436704Y0715602D01*
X0436843Y0715682D01*
X0436985Y0715758D01*
X0437128Y0715831D01*
X0437273Y0715900D01*
X0437420Y0715966D01*
X0437568Y0716028D01*
X0437718Y0716086D01*
X0437869Y0716141D01*
X0438022Y0716192D01*
X0438176Y0716239D01*
X0438331Y0716282D01*
X0438487Y0716321D01*
X0438643Y0716357D01*
X0438801Y0716388D01*
X0438959Y0716416D01*
X0439118Y0716440D01*
X0439278Y0716460D01*
X0439438Y0716476D01*
X0439598Y0716488D01*
X0439759Y0716496D01*
X0439920Y0716500D01*
X0440080Y0716500D01*
X0440241Y0716496D01*
X0440402Y0716488D01*
X0440562Y0716476D01*
X0440722Y0716460D01*
X0440882Y0716440D01*
X0441041Y0716416D01*
X0441199Y0716388D01*
X0441357Y0716357D01*
X0441513Y0716321D01*
X0441669Y0716282D01*
X0441824Y0716239D01*
X0441978Y0716192D01*
X0442131Y0716141D01*
X0442282Y0716086D01*
X0442432Y0716028D01*
X0442580Y0715966D01*
X0442727Y0715900D01*
X0442872Y0715831D01*
X0443015Y0715758D01*
X0443157Y0715682D01*
X0443296Y0715602D01*
X0443434Y0715519D01*
X0443569Y0715432D01*
X0443703Y0715342D01*
X0443834Y0715249D01*
X0443962Y0715153D01*
X0444088Y0715053D01*
X0444212Y0714950D01*
X0444333Y0714845D01*
X0444452Y0714736D01*
X0444568Y0714625D01*
X0444681Y0714510D01*
X0444791Y0714393D01*
X0444898Y0714273D01*
X0445002Y0714151D01*
X0445103Y0714026D01*
X0445201Y0713898D01*
X0445296Y0713768D01*
X0445388Y0713636D01*
X0445476Y0713502D01*
X0445561Y0713365D01*
X0445643Y0713227D01*
X0445721Y0713086D01*
X0445795Y0712944D01*
X0445866Y0712800D01*
X0445934Y0712654D01*
X0445997Y0712506D01*
X0446058Y0712357D01*
X0446114Y0712206D01*
X0446167Y0712054D01*
X0446216Y0711901D01*
X0446261Y0711747D01*
X0446302Y0711592D01*
X0446340Y0711435D01*
X0446373Y0711278D01*
X0446403Y0711120D01*
X0446429Y0710961D01*
X0446450Y0710802D01*
X0446468Y0710642D01*
X0446482Y0710482D01*
X0446492Y0710321D01*
X0446498Y0710161D01*
X0446500Y0710000D01*
X0446498Y0709839D01*
X0446492Y0709679D01*
X0446482Y0709518D01*
X0446468Y0709358D01*
X0446450Y0709198D01*
X0446429Y0709039D01*
X0446403Y0708880D01*
X0446373Y0708722D01*
X0446340Y0708565D01*
X0446302Y0708408D01*
X0446261Y0708253D01*
X0446216Y0708099D01*
X0446167Y0707946D01*
X0446114Y0707794D01*
X0446058Y0707643D01*
X0445997Y0707494D01*
X0445934Y0707346D01*
X0445866Y0707200D01*
X0445795Y0707056D01*
X0445721Y0706914D01*
X0445643Y0706773D01*
X0445561Y0706635D01*
X0445476Y0706498D01*
X0445388Y0706364D01*
X0445296Y0706232D01*
X0445201Y0706102D01*
X0445103Y0705974D01*
X0445002Y0705849D01*
X0444898Y0705727D01*
X0444791Y0705607D01*
X0444681Y0705490D01*
X0444568Y0705375D01*
X0444452Y0705264D01*
X0444333Y0705155D01*
X0444212Y0705050D01*
X0444088Y0704947D01*
X0443962Y0704847D01*
X0443834Y0704751D01*
X0443703Y0704658D01*
X0443569Y0704568D01*
X0443434Y0704481D01*
X0443296Y0704398D01*
X0443157Y0704318D01*
X0443015Y0704242D01*
X0442872Y0704169D01*
X0442727Y0704100D01*
X0442580Y0704034D01*
X0442432Y0703972D01*
X0442282Y0703914D01*
X0442131Y0703859D01*
X0441978Y0703808D01*
X0441824Y0703761D01*
X0441669Y0703718D01*
X0441513Y0703679D01*
X0441357Y0703643D01*
X0441199Y0703612D01*
X0441041Y0703584D01*
X0440882Y0703560D01*
X0440722Y0703540D01*
X0440562Y0703524D01*
X0440402Y0703512D01*
X0440241Y0703504D01*
X0440080Y0703500D01*
X0439920Y0703500D01*
X0439759Y0703504D01*
X0439598Y0703512D01*
X0439438Y0703524D01*
X0439278Y0703540D01*
X0439118Y0703560D01*
X0438959Y0703584D01*
X0438801Y0703612D01*
X0438643Y0703643D01*
X0438487Y0703679D01*
X0438331Y0703718D01*
X0438176Y0703761D01*
X0438022Y0703808D01*
X0437869Y0703859D01*
X0437718Y0703914D01*
X0437568Y0703972D01*
X0437420Y0704034D01*
X0437273Y0704100D01*
X0437128Y0704169D01*
X0436985Y0704242D01*
X0436843Y0704318D01*
X0436704Y0704398D01*
X0436566Y0704481D01*
X0436431Y0704568D01*
X0436297Y0704658D01*
X0436166Y0704751D01*
X0436038Y0704847D01*
X0435912Y0704947D01*
X0435788Y0705050D01*
X0435667Y0705155D01*
X0435548Y0705264D01*
X0435432Y0705375D01*
X0435319Y0705490D01*
X0435209Y0705607D01*
X0435102Y0705727D01*
X0434998Y0705849D01*
X0434897Y0705974D01*
X0434799Y0706102D01*
X0434704Y0706232D01*
X0434612Y0706364D01*
X0434524Y0706498D01*
X0434439Y0706635D01*
X0434357Y0706773D01*
X0434279Y0706914D01*
X0434205Y0707056D01*
X0434134Y0707200D01*
X0434066Y0707346D01*
X0434003Y0707494D01*
X0433942Y0707643D01*
X0433886Y0707794D01*
X0433833Y0707946D01*
X0433784Y0708099D01*
X0433739Y0708253D01*
X0433698Y0708408D01*
X0433660Y0708565D01*
X0433627Y0708722D01*
X0433597Y0708880D01*
X0433571Y0709039D01*
X0433550Y0709198D01*
X0433532Y0709358D01*
X0433518Y0709518D01*
X0433508Y0709679D01*
X0433502Y0709839D01*
X0433500Y0710000D01*
D14*
X0435172Y0673780D02*
X0435172Y0646220D01*
X0451905Y0646220D01*
X0451905Y0673780D01*
X0435172Y0673780D01*
M02*
