G75*
%MOIN*%
%OFA0B0*%
%FSLAX25Y25*%
%IPPOS*%
%LPD*%
%AMOC8*
5,1,8,0,0,1.08239X$1,22.5*
%
%ADD10C,0.01600*%
%ADD11C,0.07400*%
%ADD12C,0.00000*%
D10*
X0001800Y0085017D02*
X0001825Y0087059D01*
X0001900Y0089100D01*
X0002025Y0091139D01*
X0002201Y0093174D01*
X0002426Y0095204D01*
X0002701Y0097227D01*
X0003025Y0099244D01*
X0003399Y0101252D01*
X0003822Y0103250D01*
X0004294Y0105237D01*
X0004814Y0107212D01*
X0005383Y0109174D01*
X0006000Y0111121D01*
X0006665Y0113052D01*
X0007376Y0114966D01*
X0008135Y0116863D01*
X0008939Y0118740D01*
X0009790Y0120597D01*
X0010686Y0122432D01*
X0011626Y0124245D01*
X0012611Y0126035D01*
X0013639Y0127799D01*
X0014711Y0129538D01*
X0015825Y0131250D01*
X0016980Y0132934D01*
X0018176Y0134589D01*
X0019413Y0136215D01*
X0020689Y0137809D01*
X0022004Y0139372D01*
X0023357Y0140902D01*
X0024747Y0142398D01*
X0026174Y0143860D01*
X0027636Y0145287D01*
X0029132Y0146677D01*
X0030662Y0148030D01*
X0032225Y0149345D01*
X0033819Y0150621D01*
X0035445Y0151858D01*
X0037100Y0153054D01*
X0038784Y0154209D01*
X0040496Y0155323D01*
X0042235Y0156395D01*
X0043999Y0157423D01*
X0045789Y0158408D01*
X0047602Y0159348D01*
X0049437Y0160244D01*
X0051294Y0161095D01*
X0053171Y0161899D01*
X0055068Y0162658D01*
X0056982Y0163369D01*
X0058913Y0164034D01*
X0060860Y0164651D01*
X0062822Y0165220D01*
X0064797Y0165740D01*
X0066784Y0166212D01*
X0068782Y0166635D01*
X0070790Y0167009D01*
X0072807Y0167333D01*
X0074830Y0167608D01*
X0076860Y0167833D01*
X0078895Y0168009D01*
X0080934Y0168134D01*
X0082975Y0168209D01*
X0085017Y0168234D01*
X0087059Y0168209D01*
X0089100Y0168134D01*
X0091139Y0168009D01*
X0093174Y0167833D01*
X0095204Y0167608D01*
X0097227Y0167333D01*
X0099244Y0167009D01*
X0101252Y0166635D01*
X0103250Y0166212D01*
X0105237Y0165740D01*
X0107212Y0165220D01*
X0109174Y0164651D01*
X0111121Y0164034D01*
X0113052Y0163369D01*
X0114966Y0162658D01*
X0116863Y0161899D01*
X0118740Y0161095D01*
X0120597Y0160244D01*
X0122432Y0159348D01*
X0124245Y0158408D01*
X0126035Y0157423D01*
X0127799Y0156395D01*
X0129538Y0155323D01*
X0131250Y0154209D01*
X0132934Y0153054D01*
X0134589Y0151858D01*
X0136215Y0150621D01*
X0137809Y0149345D01*
X0139372Y0148030D01*
X0140902Y0146677D01*
X0142398Y0145287D01*
X0143860Y0143860D01*
X0145287Y0142398D01*
X0146677Y0140902D01*
X0148030Y0139372D01*
X0149345Y0137809D01*
X0150621Y0136215D01*
X0151858Y0134589D01*
X0153054Y0132934D01*
X0154209Y0131250D01*
X0155323Y0129538D01*
X0156395Y0127799D01*
X0157423Y0126035D01*
X0158408Y0124245D01*
X0159348Y0122432D01*
X0160244Y0120597D01*
X0161095Y0118740D01*
X0161899Y0116863D01*
X0162658Y0114966D01*
X0163369Y0113052D01*
X0164034Y0111121D01*
X0164651Y0109174D01*
X0165220Y0107212D01*
X0165740Y0105237D01*
X0166212Y0103250D01*
X0166635Y0101252D01*
X0167009Y0099244D01*
X0167333Y0097227D01*
X0167608Y0095204D01*
X0167833Y0093174D01*
X0168009Y0091139D01*
X0168134Y0089100D01*
X0168209Y0087059D01*
X0168234Y0085017D01*
X0168209Y0082975D01*
X0168134Y0080934D01*
X0168009Y0078895D01*
X0167833Y0076860D01*
X0167608Y0074830D01*
X0167333Y0072807D01*
X0167009Y0070790D01*
X0166635Y0068782D01*
X0166212Y0066784D01*
X0165740Y0064797D01*
X0165220Y0062822D01*
X0164651Y0060860D01*
X0164034Y0058913D01*
X0163369Y0056982D01*
X0162658Y0055068D01*
X0161899Y0053171D01*
X0161095Y0051294D01*
X0160244Y0049437D01*
X0159348Y0047602D01*
X0158408Y0045789D01*
X0157423Y0043999D01*
X0156395Y0042235D01*
X0155323Y0040496D01*
X0154209Y0038784D01*
X0153054Y0037100D01*
X0151858Y0035445D01*
X0150621Y0033819D01*
X0149345Y0032225D01*
X0148030Y0030662D01*
X0146677Y0029132D01*
X0145287Y0027636D01*
X0143860Y0026174D01*
X0142398Y0024747D01*
X0140902Y0023357D01*
X0139372Y0022004D01*
X0137809Y0020689D01*
X0136215Y0019413D01*
X0134589Y0018176D01*
X0132934Y0016980D01*
X0131250Y0015825D01*
X0129538Y0014711D01*
X0127799Y0013639D01*
X0126035Y0012611D01*
X0124245Y0011626D01*
X0122432Y0010686D01*
X0120597Y0009790D01*
X0118740Y0008939D01*
X0116863Y0008135D01*
X0114966Y0007376D01*
X0113052Y0006665D01*
X0111121Y0006000D01*
X0109174Y0005383D01*
X0107212Y0004814D01*
X0105237Y0004294D01*
X0103250Y0003822D01*
X0101252Y0003399D01*
X0099244Y0003025D01*
X0097227Y0002701D01*
X0095204Y0002426D01*
X0093174Y0002201D01*
X0091139Y0002025D01*
X0089100Y0001900D01*
X0087059Y0001825D01*
X0085017Y0001800D01*
X0082975Y0001825D01*
X0080934Y0001900D01*
X0078895Y0002025D01*
X0076860Y0002201D01*
X0074830Y0002426D01*
X0072807Y0002701D01*
X0070790Y0003025D01*
X0068782Y0003399D01*
X0066784Y0003822D01*
X0064797Y0004294D01*
X0062822Y0004814D01*
X0060860Y0005383D01*
X0058913Y0006000D01*
X0056982Y0006665D01*
X0055068Y0007376D01*
X0053171Y0008135D01*
X0051294Y0008939D01*
X0049437Y0009790D01*
X0047602Y0010686D01*
X0045789Y0011626D01*
X0043999Y0012611D01*
X0042235Y0013639D01*
X0040496Y0014711D01*
X0038784Y0015825D01*
X0037100Y0016980D01*
X0035445Y0018176D01*
X0033819Y0019413D01*
X0032225Y0020689D01*
X0030662Y0022004D01*
X0029132Y0023357D01*
X0027636Y0024747D01*
X0026174Y0026174D01*
X0024747Y0027636D01*
X0023357Y0029132D01*
X0022004Y0030662D01*
X0020689Y0032225D01*
X0019413Y0033819D01*
X0018176Y0035445D01*
X0016980Y0037100D01*
X0015825Y0038784D01*
X0014711Y0040496D01*
X0013639Y0042235D01*
X0012611Y0043999D01*
X0011626Y0045789D01*
X0010686Y0047602D01*
X0009790Y0049437D01*
X0008939Y0051294D01*
X0008135Y0053171D01*
X0007376Y0055068D01*
X0006665Y0056982D01*
X0006000Y0058913D01*
X0005383Y0060860D01*
X0004814Y0062822D01*
X0004294Y0064797D01*
X0003822Y0066784D01*
X0003399Y0068782D01*
X0003025Y0070790D01*
X0002701Y0072807D01*
X0002426Y0074830D01*
X0002201Y0076860D01*
X0002025Y0078895D01*
X0001900Y0080934D01*
X0001825Y0082975D01*
X0001800Y0085017D01*
D11*
X0072517Y0120017D03*
X0082517Y0120017D03*
X0092517Y0120017D03*
X0097517Y0110017D03*
X0087517Y0110017D03*
X0077517Y0110017D03*
D12*
X0058617Y0145017D02*
X0058619Y0145177D01*
X0058625Y0145336D01*
X0058635Y0145495D01*
X0058649Y0145654D01*
X0058667Y0145813D01*
X0058688Y0145971D01*
X0058714Y0146128D01*
X0058744Y0146285D01*
X0058777Y0146441D01*
X0058815Y0146596D01*
X0058856Y0146750D01*
X0058901Y0146903D01*
X0058950Y0147055D01*
X0059003Y0147206D01*
X0059059Y0147355D01*
X0059120Y0147503D01*
X0059183Y0147649D01*
X0059251Y0147794D01*
X0059322Y0147937D01*
X0059396Y0148078D01*
X0059474Y0148217D01*
X0059556Y0148354D01*
X0059641Y0148489D01*
X0059729Y0148622D01*
X0059821Y0148753D01*
X0059915Y0148881D01*
X0060013Y0149007D01*
X0060114Y0149131D01*
X0060218Y0149252D01*
X0060325Y0149370D01*
X0060435Y0149486D01*
X0060548Y0149599D01*
X0060664Y0149709D01*
X0060782Y0149816D01*
X0060903Y0149920D01*
X0061027Y0150021D01*
X0061153Y0150119D01*
X0061281Y0150213D01*
X0061412Y0150305D01*
X0061545Y0150393D01*
X0061680Y0150478D01*
X0061817Y0150560D01*
X0061956Y0150638D01*
X0062097Y0150712D01*
X0062240Y0150783D01*
X0062385Y0150851D01*
X0062531Y0150914D01*
X0062679Y0150975D01*
X0062828Y0151031D01*
X0062979Y0151084D01*
X0063131Y0151133D01*
X0063284Y0151178D01*
X0063438Y0151219D01*
X0063593Y0151257D01*
X0063749Y0151290D01*
X0063906Y0151320D01*
X0064063Y0151346D01*
X0064221Y0151367D01*
X0064380Y0151385D01*
X0064539Y0151399D01*
X0064698Y0151409D01*
X0064857Y0151415D01*
X0065017Y0151417D01*
X0065177Y0151415D01*
X0065336Y0151409D01*
X0065495Y0151399D01*
X0065654Y0151385D01*
X0065813Y0151367D01*
X0065971Y0151346D01*
X0066128Y0151320D01*
X0066285Y0151290D01*
X0066441Y0151257D01*
X0066596Y0151219D01*
X0066750Y0151178D01*
X0066903Y0151133D01*
X0067055Y0151084D01*
X0067206Y0151031D01*
X0067355Y0150975D01*
X0067503Y0150914D01*
X0067649Y0150851D01*
X0067794Y0150783D01*
X0067937Y0150712D01*
X0068078Y0150638D01*
X0068217Y0150560D01*
X0068354Y0150478D01*
X0068489Y0150393D01*
X0068622Y0150305D01*
X0068753Y0150213D01*
X0068881Y0150119D01*
X0069007Y0150021D01*
X0069131Y0149920D01*
X0069252Y0149816D01*
X0069370Y0149709D01*
X0069486Y0149599D01*
X0069599Y0149486D01*
X0069709Y0149370D01*
X0069816Y0149252D01*
X0069920Y0149131D01*
X0070021Y0149007D01*
X0070119Y0148881D01*
X0070213Y0148753D01*
X0070305Y0148622D01*
X0070393Y0148489D01*
X0070478Y0148354D01*
X0070560Y0148217D01*
X0070638Y0148078D01*
X0070712Y0147937D01*
X0070783Y0147794D01*
X0070851Y0147649D01*
X0070914Y0147503D01*
X0070975Y0147355D01*
X0071031Y0147206D01*
X0071084Y0147055D01*
X0071133Y0146903D01*
X0071178Y0146750D01*
X0071219Y0146596D01*
X0071257Y0146441D01*
X0071290Y0146285D01*
X0071320Y0146128D01*
X0071346Y0145971D01*
X0071367Y0145813D01*
X0071385Y0145654D01*
X0071399Y0145495D01*
X0071409Y0145336D01*
X0071415Y0145177D01*
X0071417Y0145017D01*
X0071415Y0144857D01*
X0071409Y0144698D01*
X0071399Y0144539D01*
X0071385Y0144380D01*
X0071367Y0144221D01*
X0071346Y0144063D01*
X0071320Y0143906D01*
X0071290Y0143749D01*
X0071257Y0143593D01*
X0071219Y0143438D01*
X0071178Y0143284D01*
X0071133Y0143131D01*
X0071084Y0142979D01*
X0071031Y0142828D01*
X0070975Y0142679D01*
X0070914Y0142531D01*
X0070851Y0142385D01*
X0070783Y0142240D01*
X0070712Y0142097D01*
X0070638Y0141956D01*
X0070560Y0141817D01*
X0070478Y0141680D01*
X0070393Y0141545D01*
X0070305Y0141412D01*
X0070213Y0141281D01*
X0070119Y0141153D01*
X0070021Y0141027D01*
X0069920Y0140903D01*
X0069816Y0140782D01*
X0069709Y0140664D01*
X0069599Y0140548D01*
X0069486Y0140435D01*
X0069370Y0140325D01*
X0069252Y0140218D01*
X0069131Y0140114D01*
X0069007Y0140013D01*
X0068881Y0139915D01*
X0068753Y0139821D01*
X0068622Y0139729D01*
X0068489Y0139641D01*
X0068354Y0139556D01*
X0068217Y0139474D01*
X0068078Y0139396D01*
X0067937Y0139322D01*
X0067794Y0139251D01*
X0067649Y0139183D01*
X0067503Y0139120D01*
X0067355Y0139059D01*
X0067206Y0139003D01*
X0067055Y0138950D01*
X0066903Y0138901D01*
X0066750Y0138856D01*
X0066596Y0138815D01*
X0066441Y0138777D01*
X0066285Y0138744D01*
X0066128Y0138714D01*
X0065971Y0138688D01*
X0065813Y0138667D01*
X0065654Y0138649D01*
X0065495Y0138635D01*
X0065336Y0138625D01*
X0065177Y0138619D01*
X0065017Y0138617D01*
X0064857Y0138619D01*
X0064698Y0138625D01*
X0064539Y0138635D01*
X0064380Y0138649D01*
X0064221Y0138667D01*
X0064063Y0138688D01*
X0063906Y0138714D01*
X0063749Y0138744D01*
X0063593Y0138777D01*
X0063438Y0138815D01*
X0063284Y0138856D01*
X0063131Y0138901D01*
X0062979Y0138950D01*
X0062828Y0139003D01*
X0062679Y0139059D01*
X0062531Y0139120D01*
X0062385Y0139183D01*
X0062240Y0139251D01*
X0062097Y0139322D01*
X0061956Y0139396D01*
X0061817Y0139474D01*
X0061680Y0139556D01*
X0061545Y0139641D01*
X0061412Y0139729D01*
X0061281Y0139821D01*
X0061153Y0139915D01*
X0061027Y0140013D01*
X0060903Y0140114D01*
X0060782Y0140218D01*
X0060664Y0140325D01*
X0060548Y0140435D01*
X0060435Y0140548D01*
X0060325Y0140664D01*
X0060218Y0140782D01*
X0060114Y0140903D01*
X0060013Y0141027D01*
X0059915Y0141153D01*
X0059821Y0141281D01*
X0059729Y0141412D01*
X0059641Y0141545D01*
X0059556Y0141680D01*
X0059474Y0141817D01*
X0059396Y0141956D01*
X0059322Y0142097D01*
X0059251Y0142240D01*
X0059183Y0142385D01*
X0059120Y0142531D01*
X0059059Y0142679D01*
X0059003Y0142828D01*
X0058950Y0142979D01*
X0058901Y0143131D01*
X0058856Y0143284D01*
X0058815Y0143438D01*
X0058777Y0143593D01*
X0058744Y0143749D01*
X0058714Y0143906D01*
X0058688Y0144063D01*
X0058667Y0144221D01*
X0058649Y0144380D01*
X0058635Y0144539D01*
X0058625Y0144698D01*
X0058619Y0144857D01*
X0058617Y0145017D01*
X0098617Y0145017D02*
X0098619Y0145177D01*
X0098625Y0145336D01*
X0098635Y0145495D01*
X0098649Y0145654D01*
X0098667Y0145813D01*
X0098688Y0145971D01*
X0098714Y0146128D01*
X0098744Y0146285D01*
X0098777Y0146441D01*
X0098815Y0146596D01*
X0098856Y0146750D01*
X0098901Y0146903D01*
X0098950Y0147055D01*
X0099003Y0147206D01*
X0099059Y0147355D01*
X0099120Y0147503D01*
X0099183Y0147649D01*
X0099251Y0147794D01*
X0099322Y0147937D01*
X0099396Y0148078D01*
X0099474Y0148217D01*
X0099556Y0148354D01*
X0099641Y0148489D01*
X0099729Y0148622D01*
X0099821Y0148753D01*
X0099915Y0148881D01*
X0100013Y0149007D01*
X0100114Y0149131D01*
X0100218Y0149252D01*
X0100325Y0149370D01*
X0100435Y0149486D01*
X0100548Y0149599D01*
X0100664Y0149709D01*
X0100782Y0149816D01*
X0100903Y0149920D01*
X0101027Y0150021D01*
X0101153Y0150119D01*
X0101281Y0150213D01*
X0101412Y0150305D01*
X0101545Y0150393D01*
X0101680Y0150478D01*
X0101817Y0150560D01*
X0101956Y0150638D01*
X0102097Y0150712D01*
X0102240Y0150783D01*
X0102385Y0150851D01*
X0102531Y0150914D01*
X0102679Y0150975D01*
X0102828Y0151031D01*
X0102979Y0151084D01*
X0103131Y0151133D01*
X0103284Y0151178D01*
X0103438Y0151219D01*
X0103593Y0151257D01*
X0103749Y0151290D01*
X0103906Y0151320D01*
X0104063Y0151346D01*
X0104221Y0151367D01*
X0104380Y0151385D01*
X0104539Y0151399D01*
X0104698Y0151409D01*
X0104857Y0151415D01*
X0105017Y0151417D01*
X0105177Y0151415D01*
X0105336Y0151409D01*
X0105495Y0151399D01*
X0105654Y0151385D01*
X0105813Y0151367D01*
X0105971Y0151346D01*
X0106128Y0151320D01*
X0106285Y0151290D01*
X0106441Y0151257D01*
X0106596Y0151219D01*
X0106750Y0151178D01*
X0106903Y0151133D01*
X0107055Y0151084D01*
X0107206Y0151031D01*
X0107355Y0150975D01*
X0107503Y0150914D01*
X0107649Y0150851D01*
X0107794Y0150783D01*
X0107937Y0150712D01*
X0108078Y0150638D01*
X0108217Y0150560D01*
X0108354Y0150478D01*
X0108489Y0150393D01*
X0108622Y0150305D01*
X0108753Y0150213D01*
X0108881Y0150119D01*
X0109007Y0150021D01*
X0109131Y0149920D01*
X0109252Y0149816D01*
X0109370Y0149709D01*
X0109486Y0149599D01*
X0109599Y0149486D01*
X0109709Y0149370D01*
X0109816Y0149252D01*
X0109920Y0149131D01*
X0110021Y0149007D01*
X0110119Y0148881D01*
X0110213Y0148753D01*
X0110305Y0148622D01*
X0110393Y0148489D01*
X0110478Y0148354D01*
X0110560Y0148217D01*
X0110638Y0148078D01*
X0110712Y0147937D01*
X0110783Y0147794D01*
X0110851Y0147649D01*
X0110914Y0147503D01*
X0110975Y0147355D01*
X0111031Y0147206D01*
X0111084Y0147055D01*
X0111133Y0146903D01*
X0111178Y0146750D01*
X0111219Y0146596D01*
X0111257Y0146441D01*
X0111290Y0146285D01*
X0111320Y0146128D01*
X0111346Y0145971D01*
X0111367Y0145813D01*
X0111385Y0145654D01*
X0111399Y0145495D01*
X0111409Y0145336D01*
X0111415Y0145177D01*
X0111417Y0145017D01*
X0111415Y0144857D01*
X0111409Y0144698D01*
X0111399Y0144539D01*
X0111385Y0144380D01*
X0111367Y0144221D01*
X0111346Y0144063D01*
X0111320Y0143906D01*
X0111290Y0143749D01*
X0111257Y0143593D01*
X0111219Y0143438D01*
X0111178Y0143284D01*
X0111133Y0143131D01*
X0111084Y0142979D01*
X0111031Y0142828D01*
X0110975Y0142679D01*
X0110914Y0142531D01*
X0110851Y0142385D01*
X0110783Y0142240D01*
X0110712Y0142097D01*
X0110638Y0141956D01*
X0110560Y0141817D01*
X0110478Y0141680D01*
X0110393Y0141545D01*
X0110305Y0141412D01*
X0110213Y0141281D01*
X0110119Y0141153D01*
X0110021Y0141027D01*
X0109920Y0140903D01*
X0109816Y0140782D01*
X0109709Y0140664D01*
X0109599Y0140548D01*
X0109486Y0140435D01*
X0109370Y0140325D01*
X0109252Y0140218D01*
X0109131Y0140114D01*
X0109007Y0140013D01*
X0108881Y0139915D01*
X0108753Y0139821D01*
X0108622Y0139729D01*
X0108489Y0139641D01*
X0108354Y0139556D01*
X0108217Y0139474D01*
X0108078Y0139396D01*
X0107937Y0139322D01*
X0107794Y0139251D01*
X0107649Y0139183D01*
X0107503Y0139120D01*
X0107355Y0139059D01*
X0107206Y0139003D01*
X0107055Y0138950D01*
X0106903Y0138901D01*
X0106750Y0138856D01*
X0106596Y0138815D01*
X0106441Y0138777D01*
X0106285Y0138744D01*
X0106128Y0138714D01*
X0105971Y0138688D01*
X0105813Y0138667D01*
X0105654Y0138649D01*
X0105495Y0138635D01*
X0105336Y0138625D01*
X0105177Y0138619D01*
X0105017Y0138617D01*
X0104857Y0138619D01*
X0104698Y0138625D01*
X0104539Y0138635D01*
X0104380Y0138649D01*
X0104221Y0138667D01*
X0104063Y0138688D01*
X0103906Y0138714D01*
X0103749Y0138744D01*
X0103593Y0138777D01*
X0103438Y0138815D01*
X0103284Y0138856D01*
X0103131Y0138901D01*
X0102979Y0138950D01*
X0102828Y0139003D01*
X0102679Y0139059D01*
X0102531Y0139120D01*
X0102385Y0139183D01*
X0102240Y0139251D01*
X0102097Y0139322D01*
X0101956Y0139396D01*
X0101817Y0139474D01*
X0101680Y0139556D01*
X0101545Y0139641D01*
X0101412Y0139729D01*
X0101281Y0139821D01*
X0101153Y0139915D01*
X0101027Y0140013D01*
X0100903Y0140114D01*
X0100782Y0140218D01*
X0100664Y0140325D01*
X0100548Y0140435D01*
X0100435Y0140548D01*
X0100325Y0140664D01*
X0100218Y0140782D01*
X0100114Y0140903D01*
X0100013Y0141027D01*
X0099915Y0141153D01*
X0099821Y0141281D01*
X0099729Y0141412D01*
X0099641Y0141545D01*
X0099556Y0141680D01*
X0099474Y0141817D01*
X0099396Y0141956D01*
X0099322Y0142097D01*
X0099251Y0142240D01*
X0099183Y0142385D01*
X0099120Y0142531D01*
X0099059Y0142679D01*
X0099003Y0142828D01*
X0098950Y0142979D01*
X0098901Y0143131D01*
X0098856Y0143284D01*
X0098815Y0143438D01*
X0098777Y0143593D01*
X0098744Y0143749D01*
X0098714Y0143906D01*
X0098688Y0144063D01*
X0098667Y0144221D01*
X0098649Y0144380D01*
X0098635Y0144539D01*
X0098625Y0144698D01*
X0098619Y0144857D01*
X0098617Y0145017D01*
M02*
