G75*
%MOIN*%
%OFA0B0*%
%FSLAX25Y25*%
%IPPOS*%
%LPD*%
%AMOC8*
5,1,8,0,0,1.08239X$1,22.5*
%
%ADD10C,0.01000*%
%ADD11C,0.00400*%
%ADD12C,0.00600*%
%ADD13C,0.00300*%
D10*
X0046300Y0041300D02*
X0146300Y0041300D01*
X0146300Y0146300D01*
X0046300Y0146300D01*
X0046300Y0041300D01*
D11*
X0072267Y0101500D02*
X0071500Y0102267D01*
X0071500Y0103802D01*
X0072267Y0104569D01*
X0073802Y0106104D02*
X0073802Y0109173D01*
X0071500Y0108406D02*
X0076104Y0108406D01*
X0073802Y0106104D01*
X0075337Y0104569D02*
X0076104Y0103802D01*
X0076104Y0102267D01*
X0075337Y0101500D01*
X0072267Y0101500D01*
X0129500Y0101267D02*
X0129500Y0102802D01*
X0130267Y0103569D01*
X0129500Y0105104D02*
X0129500Y0108173D01*
X0129500Y0106639D02*
X0134104Y0106639D01*
X0132569Y0105104D01*
X0133337Y0103569D02*
X0134104Y0102802D01*
X0134104Y0101267D01*
X0133337Y0100500D01*
X0130267Y0100500D01*
X0129500Y0101267D01*
D12*
X0111600Y0120900D02*
X0111600Y0131700D01*
X0109000Y0131700D01*
X0103600Y0131700D02*
X0089000Y0131700D01*
X0083600Y0131700D02*
X0081000Y0131700D01*
X0081000Y0120900D01*
X0093600Y0120900D01*
X0099000Y0120900D02*
X0111600Y0120900D01*
D13*
X0108266Y0123950D02*
X0107482Y0123950D01*
X0106698Y0124734D01*
X0106698Y0128654D01*
X0107482Y0128654D02*
X0105914Y0128654D01*
X0104446Y0128654D02*
X0102094Y0128654D01*
X0101310Y0127870D01*
X0101310Y0126302D01*
X0102094Y0125518D01*
X0104446Y0125518D01*
X0104446Y0123950D02*
X0104446Y0128654D01*
X0109050Y0124734D02*
X0108266Y0123950D01*
X0099842Y0123950D02*
X0096706Y0123950D01*
X0098274Y0123950D02*
X0098274Y0128654D01*
X0099842Y0127086D01*
M02*
