G75*
%MOIN*%
%OFA0B0*%
%FSLAX25Y25*%
%IPPOS*%
%LPD*%
%AMOC8*
5,1,8,0,0,1.08239X$1,22.5*
%
%ADD10C,0.00300*%
%ADD11C,0.00200*%
%ADD12C,0.01000*%
%ADD13C,0.00500*%
%ADD14C,0.00400*%
D10*
X0082950Y0046950D02*
X0085419Y0049419D01*
X0085419Y0050036D01*
X0084802Y0050653D01*
X0083567Y0050653D01*
X0082950Y0050036D01*
X0082950Y0046950D02*
X0085419Y0046950D01*
X0086633Y0047567D02*
X0089102Y0050036D01*
X0089102Y0047567D01*
X0088485Y0046950D01*
X0087250Y0046950D01*
X0086633Y0047567D01*
X0086633Y0050036D01*
X0087250Y0050653D01*
X0088485Y0050653D01*
X0089102Y0050036D01*
X0090316Y0049419D02*
X0091551Y0050653D01*
X0091551Y0046950D01*
X0092785Y0046950D02*
X0090316Y0046950D01*
X0093999Y0046950D02*
X0093999Y0047567D01*
X0096468Y0050036D01*
X0096468Y0050653D01*
X0093999Y0050653D01*
X0097683Y0046950D02*
X0100151Y0050653D01*
X0101366Y0050036D02*
X0101983Y0050653D01*
X0103217Y0050653D01*
X0103834Y0050036D01*
X0103834Y0049419D01*
X0101366Y0046950D01*
X0103834Y0046950D01*
X0105049Y0047567D02*
X0105049Y0050036D01*
X0105666Y0050653D01*
X0106900Y0050653D01*
X0107518Y0050036D01*
X0105049Y0047567D01*
X0105666Y0046950D01*
X0106900Y0046950D01*
X0107518Y0047567D01*
X0107518Y0050036D01*
X0108732Y0049419D02*
X0109966Y0050653D01*
X0109966Y0046950D01*
X0108732Y0046950D02*
X0111201Y0046950D01*
X0112415Y0047567D02*
X0112415Y0048184D01*
X0113032Y0048802D01*
X0114267Y0048802D01*
X0114884Y0048184D01*
X0114884Y0047567D01*
X0114267Y0046950D01*
X0113032Y0046950D01*
X0112415Y0047567D01*
X0113032Y0048802D02*
X0112415Y0049419D01*
X0112415Y0050036D01*
X0113032Y0050653D01*
X0114267Y0050653D01*
X0114884Y0050036D01*
X0114884Y0049419D01*
X0114267Y0048802D01*
X0114107Y0120450D02*
X0112872Y0121684D01*
X0111638Y0120450D01*
X0111638Y0124153D01*
X0110424Y0123536D02*
X0109806Y0124153D01*
X0108572Y0124153D01*
X0107955Y0123536D01*
X0107955Y0122919D01*
X0108572Y0122302D01*
X0109806Y0122302D01*
X0110424Y0121684D01*
X0110424Y0121067D01*
X0109806Y0120450D01*
X0108572Y0120450D01*
X0107955Y0121067D01*
X0106740Y0120450D02*
X0104272Y0120450D01*
X0104272Y0124153D01*
X0100589Y0124153D02*
X0100589Y0120450D01*
X0103057Y0120450D01*
X0099368Y0120450D02*
X0098133Y0120450D01*
X0098750Y0120450D02*
X0098750Y0124153D01*
X0098133Y0124153D02*
X0099368Y0124153D01*
X0096919Y0124153D02*
X0094450Y0121684D01*
X0095067Y0122302D02*
X0096919Y0120450D01*
X0094450Y0120450D02*
X0094450Y0124153D01*
X0087650Y0127067D02*
X0087650Y0128302D01*
X0087033Y0128919D01*
X0085798Y0128919D01*
X0085798Y0127684D01*
X0084564Y0126450D02*
X0087033Y0126450D01*
X0087650Y0127067D01*
X0087650Y0130133D02*
X0083947Y0130133D01*
X0087650Y0132602D01*
X0083947Y0132602D01*
X0083947Y0133816D02*
X0083947Y0135668D01*
X0084564Y0136285D01*
X0087033Y0136285D01*
X0087650Y0135668D01*
X0087650Y0133816D01*
X0083947Y0133816D01*
X0084564Y0128919D02*
X0083947Y0128302D01*
X0083947Y0127067D01*
X0084564Y0126450D01*
X0103947Y0131450D02*
X0105798Y0131450D01*
X0105181Y0132684D01*
X0105181Y0133302D01*
X0105798Y0133919D01*
X0107033Y0133919D01*
X0107650Y0133302D01*
X0107650Y0132067D01*
X0107033Y0131450D01*
X0103947Y0131450D02*
X0103947Y0133919D01*
X0103947Y0135133D02*
X0106416Y0135133D01*
X0107650Y0136368D01*
X0106416Y0137602D01*
X0103947Y0137602D01*
X0114107Y0124153D02*
X0114107Y0120450D01*
X0115321Y0120450D02*
X0116556Y0120450D01*
X0115938Y0120450D02*
X0115938Y0124153D01*
X0115321Y0124153D02*
X0116556Y0124153D01*
X0117777Y0124153D02*
X0120245Y0124153D01*
X0119011Y0124153D02*
X0119011Y0120450D01*
X0121460Y0121067D02*
X0122077Y0120450D01*
X0123311Y0120450D01*
X0123928Y0121067D01*
X0125143Y0120450D02*
X0125143Y0124153D01*
X0123928Y0123536D02*
X0123311Y0124153D01*
X0122077Y0124153D01*
X0121460Y0123536D01*
X0121460Y0121067D01*
X0125143Y0122302D02*
X0127612Y0122302D01*
X0127612Y0124153D02*
X0127612Y0120450D01*
D11*
X0108784Y0113900D02*
X0107583Y0113900D01*
X0108184Y0113900D02*
X0108184Y0115702D01*
X0107583Y0115101D01*
X0106943Y0115401D02*
X0106642Y0115702D01*
X0106042Y0115702D01*
X0105742Y0115401D01*
X0105742Y0115101D01*
X0106042Y0114801D01*
X0106642Y0114801D01*
X0106943Y0114501D01*
X0106943Y0114200D01*
X0106642Y0113900D01*
X0106042Y0113900D01*
X0105742Y0114200D01*
X0105101Y0114200D02*
X0105101Y0115702D01*
X0103900Y0115702D02*
X0103900Y0114200D01*
X0104200Y0113900D01*
X0104801Y0113900D01*
X0105101Y0114200D01*
X0106342Y0113600D02*
X0106342Y0116002D01*
X0106851Y0116900D02*
X0105449Y0116900D01*
X0105449Y0119702D01*
X0106851Y0119702D01*
X0107318Y0119235D01*
X0107318Y0117367D01*
X0106851Y0116900D01*
X0104555Y0116900D02*
X0103621Y0117834D01*
X0104088Y0117834D02*
X0102687Y0117834D01*
X0102687Y0116900D02*
X0102687Y0119702D01*
X0104088Y0119702D01*
X0104555Y0119235D01*
X0104555Y0118301D01*
X0104088Y0117834D01*
X0101793Y0118301D02*
X0099925Y0118301D01*
X0099925Y0118768D02*
X0100859Y0119702D01*
X0101793Y0118768D01*
X0101793Y0116900D01*
X0099925Y0116900D02*
X0099925Y0118768D01*
X0099031Y0119235D02*
X0098564Y0119702D01*
X0097629Y0119702D01*
X0097162Y0119235D01*
X0097162Y0117367D01*
X0097629Y0116900D01*
X0098564Y0116900D01*
X0099031Y0117367D01*
X0099031Y0119235D01*
X0096268Y0119235D02*
X0096268Y0118768D01*
X0095801Y0118301D01*
X0094400Y0118301D01*
X0094400Y0116900D02*
X0094400Y0119702D01*
X0095801Y0119702D01*
X0096268Y0119235D01*
X0095801Y0118301D02*
X0096268Y0117834D01*
X0096268Y0117367D01*
X0095801Y0116900D01*
X0094400Y0116900D01*
X0096199Y0127400D02*
X0097400Y0127400D01*
X0097700Y0127700D01*
X0097700Y0128301D01*
X0097400Y0128601D01*
X0096199Y0128601D01*
X0095898Y0128301D01*
X0095898Y0127700D01*
X0096199Y0127400D01*
X0095898Y0129242D02*
X0097400Y0129242D01*
X0097700Y0129542D01*
X0097700Y0130142D01*
X0097400Y0130443D01*
X0095898Y0130443D01*
X0095898Y0131083D02*
X0095898Y0132284D01*
X0095898Y0131684D02*
X0097700Y0131684D01*
X0097700Y0132925D02*
X0095898Y0132925D01*
X0095898Y0133825D01*
X0096199Y0134126D01*
X0096799Y0134126D01*
X0097099Y0133825D01*
X0097099Y0132925D01*
X0097400Y0134766D02*
X0095898Y0134766D01*
X0095898Y0135967D02*
X0097400Y0135967D01*
X0097700Y0135667D01*
X0097700Y0135067D01*
X0097400Y0134766D01*
X0095898Y0136608D02*
X0095898Y0137809D01*
X0095898Y0137208D02*
X0097700Y0137208D01*
X0078484Y0115702D02*
X0078784Y0115401D01*
X0078784Y0115101D01*
X0078484Y0114801D01*
X0078784Y0114501D01*
X0078784Y0114200D01*
X0078484Y0113900D01*
X0077883Y0113900D01*
X0077583Y0114200D01*
X0076943Y0114200D02*
X0076943Y0114501D01*
X0076642Y0114801D01*
X0076042Y0114801D01*
X0075742Y0115101D01*
X0075742Y0115401D01*
X0076042Y0115702D01*
X0076642Y0115702D01*
X0076943Y0115401D01*
X0077583Y0115401D02*
X0077883Y0115702D01*
X0078484Y0115702D01*
X0078484Y0114801D02*
X0078184Y0114801D01*
X0076943Y0114200D02*
X0076642Y0113900D01*
X0076042Y0113900D01*
X0075742Y0114200D01*
X0075101Y0114200D02*
X0075101Y0115702D01*
X0073900Y0115702D02*
X0073900Y0114200D01*
X0074200Y0113900D01*
X0074801Y0113900D01*
X0075101Y0114200D01*
X0076342Y0113600D02*
X0076342Y0116002D01*
X0076202Y0096702D02*
X0076202Y0094900D01*
X0077403Y0094900D01*
X0078043Y0095200D02*
X0078344Y0094900D01*
X0078944Y0094900D01*
X0079244Y0095200D01*
X0079244Y0096401D01*
X0078944Y0096702D01*
X0078344Y0096702D01*
X0078043Y0096401D01*
X0078043Y0095200D01*
X0078964Y0093702D02*
X0078964Y0091900D01*
X0079865Y0091900D01*
X0080165Y0092200D01*
X0080165Y0092801D01*
X0079865Y0093101D01*
X0078964Y0093101D01*
X0078330Y0093101D02*
X0078030Y0093101D01*
X0077430Y0092501D01*
X0077430Y0093101D02*
X0077430Y0091900D01*
X0076789Y0091900D02*
X0076789Y0092801D01*
X0076489Y0093101D01*
X0075888Y0093101D01*
X0075888Y0092501D02*
X0076789Y0092501D01*
X0076789Y0091900D02*
X0075888Y0091900D01*
X0075588Y0092200D01*
X0075888Y0092501D01*
X0074947Y0092501D02*
X0073746Y0092501D01*
X0073746Y0092801D02*
X0074047Y0093101D01*
X0074647Y0093101D01*
X0074947Y0092801D01*
X0074947Y0092501D01*
X0074647Y0091900D02*
X0074047Y0091900D01*
X0073746Y0092200D01*
X0073746Y0092801D01*
X0073106Y0091900D02*
X0073106Y0093702D01*
X0071905Y0093702D02*
X0073106Y0091900D01*
X0071905Y0091900D02*
X0071905Y0093702D01*
X0071892Y0094900D02*
X0071291Y0094900D01*
X0071591Y0094900D02*
X0071591Y0096101D01*
X0071291Y0096101D01*
X0071591Y0096702D02*
X0071591Y0097002D01*
X0072519Y0095801D02*
X0072819Y0096101D01*
X0073720Y0096101D01*
X0073419Y0095501D02*
X0072819Y0095501D01*
X0072519Y0095801D01*
X0072519Y0094900D02*
X0073419Y0094900D01*
X0073720Y0095200D01*
X0073419Y0095501D01*
X0069423Y0093702D02*
X0069423Y0091900D01*
X0068522Y0091900D01*
X0068222Y0092200D01*
X0068222Y0092801D01*
X0068522Y0093101D01*
X0069423Y0093101D01*
X0068208Y0094900D02*
X0068208Y0096702D01*
X0067608Y0096702D02*
X0068809Y0096702D01*
X0066967Y0096702D02*
X0066967Y0095200D01*
X0066667Y0094900D01*
X0066067Y0094900D01*
X0065766Y0095200D01*
X0065766Y0096702D01*
X0065126Y0096401D02*
X0065126Y0095801D01*
X0064825Y0095501D01*
X0063925Y0095501D01*
X0063925Y0094900D02*
X0063925Y0096702D01*
X0064825Y0096702D01*
X0065126Y0096401D01*
X0063284Y0096702D02*
X0062083Y0096702D01*
X0062684Y0096702D02*
X0062684Y0094900D01*
X0061443Y0095200D02*
X0061443Y0096702D01*
X0060242Y0096702D02*
X0060242Y0095200D01*
X0060542Y0094900D01*
X0061142Y0094900D01*
X0061443Y0095200D01*
X0062083Y0093702D02*
X0063284Y0093702D01*
X0063925Y0093101D02*
X0064225Y0093101D01*
X0064225Y0091900D01*
X0063925Y0091900D02*
X0064525Y0091900D01*
X0065152Y0092200D02*
X0065453Y0091900D01*
X0066053Y0091900D01*
X0066353Y0092501D02*
X0065152Y0092501D01*
X0065152Y0092801D02*
X0065453Y0093101D01*
X0066053Y0093101D01*
X0066353Y0092801D01*
X0066353Y0092501D01*
X0066994Y0091900D02*
X0067595Y0091900D01*
X0067294Y0091900D02*
X0067294Y0093702D01*
X0066994Y0093702D01*
X0065152Y0092801D02*
X0065152Y0092200D01*
X0064225Y0093702D02*
X0064225Y0094002D01*
X0062684Y0092801D02*
X0062083Y0092801D01*
X0062083Y0091900D02*
X0062083Y0093702D01*
X0059601Y0093401D02*
X0059601Y0093101D01*
X0059301Y0092801D01*
X0058400Y0092801D01*
X0058400Y0093702D02*
X0059301Y0093702D01*
X0059601Y0093401D01*
X0059301Y0092801D02*
X0059601Y0092501D01*
X0059601Y0092200D01*
X0059301Y0091900D01*
X0058400Y0091900D01*
X0058400Y0093702D01*
X0058700Y0094900D02*
X0059301Y0094900D01*
X0059601Y0095200D01*
X0059601Y0096401D01*
X0059301Y0096702D01*
X0058700Y0096702D01*
X0058400Y0096401D01*
X0058400Y0095200D01*
X0058700Y0094900D01*
X0078400Y0085202D02*
X0078400Y0082400D01*
X0078400Y0083334D02*
X0080268Y0085202D01*
X0081629Y0084268D02*
X0081162Y0083801D01*
X0081162Y0082867D01*
X0081629Y0082400D01*
X0082564Y0082400D01*
X0083031Y0082867D01*
X0083031Y0083801D01*
X0082564Y0084268D01*
X0081629Y0084268D01*
X0080268Y0082400D02*
X0078867Y0083801D01*
X0083925Y0082400D02*
X0084859Y0082400D01*
X0084392Y0082400D02*
X0084392Y0085202D01*
X0083925Y0085202D01*
X0085766Y0084268D02*
X0086700Y0084268D01*
X0086233Y0084735D02*
X0086233Y0082867D01*
X0086700Y0082400D01*
X0087608Y0082400D02*
X0088542Y0082400D01*
X0088075Y0082400D02*
X0088075Y0084268D01*
X0087608Y0084268D01*
X0088075Y0085202D02*
X0088075Y0085669D01*
X0089449Y0084268D02*
X0090851Y0084268D01*
X0091318Y0083801D01*
X0091318Y0082400D01*
X0089449Y0082400D02*
X0089449Y0084268D01*
X0094974Y0083334D02*
X0096842Y0085202D01*
X0098204Y0084268D02*
X0097736Y0083801D01*
X0097736Y0082867D01*
X0098204Y0082400D01*
X0099138Y0082400D01*
X0099605Y0082867D01*
X0099605Y0083801D01*
X0099138Y0084268D01*
X0098204Y0084268D01*
X0096842Y0082400D02*
X0095441Y0083801D01*
X0094974Y0085202D02*
X0094974Y0082400D01*
X0100499Y0082400D02*
X0101900Y0082400D01*
X0102367Y0082867D01*
X0101900Y0083334D01*
X0100966Y0083334D01*
X0100499Y0083801D01*
X0100966Y0084268D01*
X0102367Y0084268D01*
X0103261Y0084268D02*
X0103728Y0084268D01*
X0103728Y0082400D01*
X0103261Y0082400D02*
X0104195Y0082400D01*
X0105103Y0082400D02*
X0105103Y0085202D01*
X0103728Y0085202D02*
X0103728Y0085669D01*
X0105103Y0083334D02*
X0106504Y0084268D01*
X0107405Y0083801D02*
X0109273Y0083801D01*
X0110167Y0083801D02*
X0112035Y0083801D01*
X0112929Y0082867D02*
X0113396Y0083334D01*
X0114798Y0083334D01*
X0114798Y0083801D02*
X0114798Y0082400D01*
X0113396Y0082400D01*
X0112929Y0082867D01*
X0112035Y0082400D02*
X0112035Y0085202D01*
X0113396Y0084268D02*
X0114331Y0084268D01*
X0114798Y0083801D01*
X0115692Y0083334D02*
X0116626Y0084268D01*
X0117093Y0084268D01*
X0117994Y0084268D02*
X0118928Y0082400D01*
X0119862Y0084268D01*
X0120756Y0083801D02*
X0121223Y0084268D01*
X0122157Y0084268D01*
X0122624Y0083801D01*
X0122624Y0083334D01*
X0120756Y0083334D01*
X0120756Y0082867D02*
X0120756Y0083801D01*
X0120756Y0082867D02*
X0121223Y0082400D01*
X0122157Y0082400D01*
X0123518Y0082867D02*
X0123985Y0082400D01*
X0125387Y0082400D01*
X0125387Y0081933D02*
X0124920Y0081466D01*
X0124453Y0081466D01*
X0125387Y0081933D02*
X0125387Y0084268D01*
X0123518Y0084268D02*
X0123518Y0082867D01*
X0115692Y0082400D02*
X0115692Y0084268D01*
X0110167Y0085202D02*
X0110167Y0082400D01*
X0106504Y0082400D02*
X0105103Y0083334D01*
X0089066Y0094900D02*
X0089066Y0095801D01*
X0088766Y0096101D01*
X0088165Y0096101D01*
X0087865Y0095801D01*
X0087238Y0096101D02*
X0086637Y0096101D01*
X0086938Y0096401D02*
X0086938Y0095200D01*
X0087238Y0094900D01*
X0087865Y0094900D02*
X0087865Y0096702D01*
X0085710Y0096702D02*
X0085710Y0097002D01*
X0085710Y0096101D02*
X0085710Y0094900D01*
X0085410Y0094900D02*
X0086010Y0094900D01*
X0085710Y0096101D02*
X0085410Y0096101D01*
X0084769Y0096101D02*
X0084769Y0095200D01*
X0084469Y0094900D01*
X0084169Y0095200D01*
X0083868Y0094900D01*
X0083568Y0095200D01*
X0083568Y0096101D01*
X0081086Y0096702D02*
X0081086Y0094900D01*
X0080486Y0095501D01*
X0079885Y0094900D01*
X0079885Y0096702D01*
X0080806Y0093101D02*
X0080806Y0092200D01*
X0081106Y0091900D01*
X0082007Y0091900D01*
X0082007Y0091600D02*
X0081707Y0091299D01*
X0081406Y0091299D01*
X0082007Y0091600D02*
X0082007Y0093101D01*
X0085817Y0064002D02*
X0085817Y0061600D01*
X0085517Y0061900D02*
X0086118Y0061900D01*
X0086418Y0062200D01*
X0086418Y0062501D01*
X0086118Y0062801D01*
X0085517Y0062801D01*
X0085217Y0063101D01*
X0085217Y0063401D01*
X0085517Y0063702D01*
X0086118Y0063702D01*
X0086418Y0063401D01*
X0087058Y0062801D02*
X0088259Y0062801D01*
X0087959Y0063702D02*
X0087058Y0062801D01*
X0087959Y0061900D02*
X0087959Y0063702D01*
X0085517Y0061900D02*
X0085217Y0062200D01*
X0084576Y0062200D02*
X0084276Y0061900D01*
X0083676Y0061900D01*
X0083375Y0062200D01*
X0083375Y0063702D01*
X0084576Y0063702D02*
X0084576Y0062200D01*
X0078100Y0060500D02*
X0077700Y0058900D01*
X0077500Y0060200D02*
X0077000Y0061300D01*
X0076500Y0060200D01*
X0075800Y0060500D01*
X0076200Y0058900D01*
X0075400Y0059600D01*
X0075300Y0059100D01*
X0074500Y0059300D01*
X0074800Y0058600D01*
X0074300Y0058400D01*
X0075500Y0057500D01*
X0075200Y0055101D02*
X0075801Y0055101D01*
X0076101Y0054801D01*
X0076101Y0053900D01*
X0075200Y0053900D01*
X0074900Y0054200D01*
X0075200Y0054501D01*
X0076101Y0054501D01*
X0076742Y0054200D02*
X0076742Y0055101D01*
X0076742Y0054200D02*
X0077042Y0053900D01*
X0077943Y0053900D01*
X0077943Y0055101D01*
X0078583Y0055101D02*
X0079184Y0055101D01*
X0078883Y0055401D02*
X0078883Y0054200D01*
X0079184Y0053900D01*
X0079811Y0054200D02*
X0080111Y0053900D01*
X0080712Y0053900D01*
X0081012Y0054200D01*
X0081012Y0054801D01*
X0080712Y0055101D01*
X0080111Y0055101D01*
X0079811Y0054801D01*
X0079811Y0054200D01*
X0081652Y0053900D02*
X0081652Y0055101D01*
X0082553Y0055101D01*
X0082853Y0054801D01*
X0082853Y0053900D01*
X0083494Y0054200D02*
X0083794Y0053900D01*
X0084395Y0053900D01*
X0084695Y0054200D01*
X0084695Y0054801D01*
X0084395Y0055101D01*
X0083794Y0055101D01*
X0083494Y0054801D01*
X0083494Y0054200D01*
X0085336Y0053900D02*
X0085336Y0055101D01*
X0085636Y0055101D01*
X0085936Y0054801D01*
X0086236Y0055101D01*
X0086537Y0054801D01*
X0086537Y0053900D01*
X0085936Y0053900D02*
X0085936Y0054801D01*
X0087177Y0054801D02*
X0087177Y0054200D01*
X0087477Y0053900D01*
X0088078Y0053900D01*
X0088378Y0054200D01*
X0088378Y0054801D01*
X0088078Y0055101D01*
X0087477Y0055101D01*
X0087177Y0054801D01*
X0089019Y0055101D02*
X0089019Y0054200D01*
X0089319Y0053900D01*
X0090220Y0053900D01*
X0090220Y0055101D01*
X0090860Y0054801D02*
X0091161Y0055101D01*
X0092061Y0055101D01*
X0091761Y0054501D02*
X0091161Y0054501D01*
X0090860Y0054801D01*
X0090860Y0053900D02*
X0091761Y0053900D01*
X0092061Y0054200D01*
X0091761Y0054501D01*
X0094543Y0054501D02*
X0095144Y0055101D01*
X0095444Y0055101D01*
X0096078Y0054801D02*
X0096078Y0054200D01*
X0096378Y0053900D01*
X0096979Y0053900D01*
X0097279Y0054200D01*
X0097279Y0054801D01*
X0096979Y0055101D01*
X0096378Y0055101D01*
X0096078Y0054801D01*
X0094543Y0055101D02*
X0094543Y0053900D01*
X0097920Y0053900D02*
X0097920Y0055702D01*
X0097920Y0055101D02*
X0098820Y0055101D01*
X0099121Y0054801D01*
X0099121Y0054200D01*
X0098820Y0053900D01*
X0097920Y0053900D01*
X0099761Y0054200D02*
X0099761Y0054801D01*
X0100061Y0055101D01*
X0100662Y0055101D01*
X0100962Y0054801D01*
X0100962Y0054200D01*
X0100662Y0053900D01*
X0100061Y0053900D01*
X0099761Y0054200D01*
X0101603Y0055101D02*
X0102203Y0055101D01*
X0101903Y0055401D02*
X0101903Y0054200D01*
X0102203Y0053900D01*
X0102830Y0053900D02*
X0103431Y0053900D01*
X0103131Y0053900D02*
X0103131Y0055101D01*
X0102830Y0055101D01*
X0103131Y0055702D02*
X0103131Y0056002D01*
X0104058Y0054801D02*
X0104058Y0054200D01*
X0104358Y0053900D01*
X0105259Y0053900D01*
X0105259Y0055101D02*
X0104358Y0055101D01*
X0104058Y0054801D01*
X0107741Y0055101D02*
X0108342Y0053900D01*
X0108942Y0055101D01*
X0109583Y0054801D02*
X0109883Y0055101D01*
X0110484Y0055101D01*
X0110784Y0054801D01*
X0110784Y0054501D01*
X0109583Y0054501D01*
X0109583Y0054801D02*
X0109583Y0054200D01*
X0109883Y0053900D01*
X0110484Y0053900D01*
X0111424Y0053900D02*
X0111424Y0055702D01*
X0111725Y0055101D02*
X0111424Y0054801D01*
X0111725Y0055101D02*
X0112325Y0055101D01*
X0112626Y0054801D01*
X0112626Y0053900D01*
X0113266Y0053900D02*
X0113867Y0053900D01*
X0113566Y0053900D02*
X0113566Y0055101D01*
X0113266Y0055101D01*
X0113566Y0055702D02*
X0113566Y0056002D01*
X0114494Y0054801D02*
X0114494Y0054200D01*
X0114794Y0053900D01*
X0115695Y0053900D01*
X0116335Y0053900D02*
X0116936Y0053900D01*
X0116636Y0053900D02*
X0116636Y0055702D01*
X0116335Y0055702D01*
X0115695Y0055101D02*
X0114794Y0055101D01*
X0114494Y0054801D01*
X0117563Y0054801D02*
X0117563Y0054200D01*
X0117863Y0053900D01*
X0118464Y0053900D01*
X0118764Y0054501D02*
X0117563Y0054501D01*
X0117563Y0054801D02*
X0117863Y0055101D01*
X0118464Y0055101D01*
X0118764Y0054801D01*
X0118764Y0054501D01*
X0121246Y0055101D02*
X0121246Y0053299D01*
X0121246Y0053900D02*
X0122147Y0053900D01*
X0122447Y0054200D01*
X0122447Y0054801D01*
X0122147Y0055101D01*
X0121246Y0055101D01*
X0123088Y0055101D02*
X0123088Y0053900D01*
X0123088Y0054501D02*
X0123688Y0055101D01*
X0123989Y0055101D01*
X0124622Y0054801D02*
X0124622Y0054200D01*
X0124923Y0053900D01*
X0125523Y0053900D01*
X0125823Y0054200D01*
X0125823Y0054801D01*
X0125523Y0055101D01*
X0124923Y0055101D01*
X0124622Y0054801D01*
X0126464Y0053299D02*
X0126764Y0053299D01*
X0127064Y0053600D01*
X0127064Y0055101D01*
X0127064Y0055702D02*
X0127064Y0056002D01*
X0127992Y0055101D02*
X0128592Y0055101D01*
X0128893Y0054801D01*
X0128893Y0054501D01*
X0127692Y0054501D01*
X0127692Y0054801D02*
X0127992Y0055101D01*
X0127692Y0054801D02*
X0127692Y0054200D01*
X0127992Y0053900D01*
X0128592Y0053900D01*
X0129533Y0054200D02*
X0129533Y0054801D01*
X0129833Y0055101D01*
X0130734Y0055101D01*
X0131375Y0055101D02*
X0131975Y0055101D01*
X0131675Y0055401D02*
X0131675Y0054200D01*
X0131975Y0053900D01*
X0130734Y0053900D02*
X0129833Y0053900D01*
X0129533Y0054200D01*
X0118259Y0062200D02*
X0117959Y0061900D01*
X0117359Y0061900D01*
X0117058Y0062200D01*
X0117058Y0062801D02*
X0117659Y0063101D01*
X0117959Y0063101D01*
X0118259Y0062801D01*
X0118259Y0062200D01*
X0117058Y0062801D02*
X0117058Y0063702D01*
X0118259Y0063702D01*
X0116418Y0063401D02*
X0116118Y0063702D01*
X0115517Y0063702D01*
X0115217Y0063401D01*
X0115217Y0063101D01*
X0115517Y0062801D01*
X0116118Y0062801D01*
X0116418Y0062501D01*
X0116418Y0062200D01*
X0116118Y0061900D01*
X0115517Y0061900D01*
X0115217Y0062200D01*
X0114576Y0062200D02*
X0114576Y0063702D01*
X0113375Y0063702D02*
X0113375Y0062200D01*
X0113676Y0061900D01*
X0114276Y0061900D01*
X0114576Y0062200D01*
X0115817Y0061600D02*
X0115817Y0064002D01*
X0078100Y0060500D02*
X0077500Y0060200D01*
D12*
X0046300Y0041300D02*
X0146300Y0041300D01*
X0146300Y0146300D01*
X0046300Y0146300D01*
X0046300Y0041300D01*
D13*
X0075700Y0056700D02*
X0086000Y0062300D01*
X0086200Y0062400D02*
X0086200Y0056700D01*
X0087500Y0056700D02*
X0087500Y0058100D01*
X0096800Y0058100D01*
X0096900Y0058100D01*
X0097000Y0058100D02*
X0097050Y0058109D01*
X0097099Y0058121D01*
X0097147Y0058137D01*
X0097193Y0058156D01*
X0097238Y0058178D01*
X0097282Y0058204D01*
X0097323Y0058233D01*
X0097362Y0058265D01*
X0097399Y0058299D01*
X0097433Y0058336D01*
X0097465Y0058375D01*
X0097493Y0058417D01*
X0097518Y0058461D01*
X0097540Y0058506D01*
X0097559Y0058553D01*
X0097574Y0058601D01*
X0097586Y0058650D01*
X0097594Y0058699D01*
X0097599Y0058749D01*
X0097600Y0058800D01*
X0097600Y0058700D01*
X0097600Y0058800D02*
X0097600Y0061700D01*
X0097591Y0061750D01*
X0097579Y0061799D01*
X0097563Y0061847D01*
X0097544Y0061893D01*
X0097522Y0061938D01*
X0097496Y0061982D01*
X0097467Y0062023D01*
X0097435Y0062062D01*
X0097401Y0062099D01*
X0097364Y0062133D01*
X0097325Y0062165D01*
X0097283Y0062193D01*
X0097239Y0062218D01*
X0097194Y0062240D01*
X0097147Y0062259D01*
X0097099Y0062274D01*
X0097050Y0062286D01*
X0097001Y0062294D01*
X0096951Y0062299D01*
X0096900Y0062300D01*
X0087500Y0062300D01*
X0087500Y0058100D01*
X0086000Y0058100D02*
X0078300Y0058100D01*
X0096800Y0058100D02*
X0096850Y0058099D01*
X0096900Y0058094D01*
X0096950Y0058086D01*
X0096999Y0058075D01*
X0097047Y0058059D01*
X0097094Y0058040D01*
X0097139Y0058018D01*
X0097183Y0057993D01*
X0097225Y0057965D01*
X0097264Y0057933D01*
X0097301Y0057899D01*
X0097336Y0057862D01*
X0097367Y0057823D01*
X0097396Y0057782D01*
X0097422Y0057738D01*
X0097444Y0057693D01*
X0097463Y0057646D01*
X0097479Y0057599D01*
X0097491Y0057550D01*
X0097500Y0057500D01*
X0097500Y0057600D02*
X0097500Y0056700D01*
X0099200Y0056900D02*
X0107000Y0062300D01*
X0108500Y0062300D02*
X0116900Y0062300D01*
X0116951Y0062299D01*
X0117001Y0062294D01*
X0117050Y0062286D01*
X0117099Y0062274D01*
X0117147Y0062259D01*
X0117194Y0062240D01*
X0117239Y0062218D01*
X0117283Y0062193D01*
X0117325Y0062165D01*
X0117364Y0062133D01*
X0117401Y0062099D01*
X0117435Y0062062D01*
X0117467Y0062023D01*
X0117496Y0061982D01*
X0117522Y0061938D01*
X0117544Y0061893D01*
X0117563Y0061847D01*
X0117579Y0061799D01*
X0117591Y0061750D01*
X0117600Y0061700D01*
X0117600Y0058800D01*
X0117600Y0058700D01*
X0117600Y0058800D02*
X0117599Y0058749D01*
X0117594Y0058699D01*
X0117586Y0058650D01*
X0117574Y0058601D01*
X0117559Y0058553D01*
X0117540Y0058506D01*
X0117518Y0058461D01*
X0117493Y0058417D01*
X0117465Y0058375D01*
X0117433Y0058336D01*
X0117399Y0058299D01*
X0117362Y0058265D01*
X0117323Y0058233D01*
X0117282Y0058204D01*
X0117238Y0058178D01*
X0117193Y0058156D01*
X0117147Y0058137D01*
X0117099Y0058121D01*
X0117050Y0058109D01*
X0117000Y0058100D01*
X0116900Y0058100D02*
X0108500Y0058100D01*
X0108500Y0056700D01*
X0108500Y0058100D02*
X0108500Y0062300D01*
X0099200Y0062400D02*
X0099200Y0056900D01*
D14*
X0100333Y0065292D02*
X0097263Y0065292D01*
X0096496Y0066059D01*
X0096496Y0067594D01*
X0097263Y0068361D01*
X0096496Y0069896D02*
X0098798Y0069896D01*
X0098031Y0071431D01*
X0098031Y0072198D01*
X0098798Y0072965D01*
X0100333Y0072965D01*
X0101100Y0072198D01*
X0101100Y0070663D01*
X0100333Y0069896D01*
X0100333Y0068361D02*
X0101100Y0067594D01*
X0101100Y0066059D01*
X0100333Y0065292D01*
X0096496Y0069896D02*
X0096496Y0072965D01*
X0126496Y0074965D02*
X0127263Y0073431D01*
X0128798Y0071896D01*
X0128798Y0074198D01*
X0129565Y0074965D01*
X0130333Y0074965D01*
X0131100Y0074198D01*
X0131100Y0072663D01*
X0130333Y0071896D01*
X0128798Y0071896D01*
X0127263Y0070361D02*
X0126496Y0069594D01*
X0126496Y0068059D01*
X0127263Y0067292D01*
X0130333Y0067292D01*
X0131100Y0068059D01*
X0131100Y0069594D01*
X0130333Y0070361D01*
X0096100Y0104767D02*
X0096100Y0106302D01*
X0095333Y0107069D01*
X0096100Y0108604D02*
X0093031Y0111673D01*
X0092263Y0111673D01*
X0091496Y0110906D01*
X0091496Y0109371D01*
X0092263Y0108604D01*
X0092263Y0107069D02*
X0091496Y0106302D01*
X0091496Y0104767D01*
X0092263Y0104000D01*
X0095333Y0104000D01*
X0096100Y0104767D01*
X0096100Y0108604D02*
X0096100Y0111673D01*
X0066100Y0110906D02*
X0066100Y0109371D01*
X0065333Y0108604D01*
X0065333Y0107069D02*
X0066100Y0106302D01*
X0066100Y0104767D01*
X0065333Y0104000D01*
X0062263Y0104000D01*
X0061496Y0104767D01*
X0061496Y0106302D01*
X0062263Y0107069D01*
X0062263Y0108604D02*
X0061496Y0109371D01*
X0061496Y0110906D01*
X0062263Y0111673D01*
X0063031Y0111673D01*
X0063798Y0110906D01*
X0064565Y0111673D01*
X0065333Y0111673D01*
X0066100Y0110906D01*
X0063798Y0110906D02*
X0063798Y0110139D01*
M02*
