%
M48
M72
T01C0.01378
T02C0.04000
%
T01
X375000Y524000
X372000Y540000
X371000Y564000
X380000Y577000
X366000Y581000
X358000Y563000
X349000Y565000
X341000Y565750
X334000Y593000
X370000Y593750
X385500Y593750
X402250Y571000
X398500Y567250
X402750Y563250
X403000Y542000
X401750Y523750
T02
X391250Y528500
X391250Y538500
X391250Y548500
X391250Y558500
X388750Y602250
X388750Y612250
X378750Y612250
X378750Y602250
X368750Y602250
X368750Y612250
X358750Y612250
X358750Y602250
X348750Y602250
X348750Y612250
X338750Y612250
X338750Y602250
X398750Y602250
X398750Y612250
M30
