G75*
%MOIN*%
%OFA0B0*%
%FSLAX25Y25*%
%IPPOS*%
%LPD*%
%AMOC8*
5,1,8,0,0,1.08239X$1,22.5*
%
%ADD10C,0.00000*%
%ADD11C,0.06000*%
%ADD12OC8,0.06000*%
%ADD13C,0.01000*%
%ADD14C,0.02578*%
%ADD15C,0.02000*%
%ADD16C,0.01200*%
D10*
X0330000Y0517000D02*
X0330000Y0619000D01*
X0408000Y0619000D01*
X0408000Y0517000D01*
X0330000Y0517000D01*
D11*
X0388250Y0528500D02*
X0394250Y0528500D01*
X0394250Y0538500D02*
X0388250Y0538500D01*
X0388250Y0548500D02*
X0394250Y0548500D01*
X0394250Y0558500D02*
X0388250Y0558500D01*
D12*
X0388750Y0602250D03*
X0388750Y0612250D03*
X0378750Y0612250D03*
X0378750Y0602250D03*
X0368750Y0602250D03*
X0368750Y0612250D03*
X0358750Y0612250D03*
X0358750Y0602250D03*
X0348750Y0602250D03*
X0348750Y0612250D03*
X0338750Y0612250D03*
X0338750Y0602250D03*
X0398750Y0602250D03*
X0398750Y0612250D03*
D13*
X0403050Y0611859D02*
X0406500Y0611859D01*
X0406500Y0612857D02*
X0403050Y0612857D01*
X0403050Y0613856D02*
X0406500Y0613856D01*
X0406500Y0614854D02*
X0402227Y0614854D01*
X0403050Y0614031D02*
X0400531Y0616550D01*
X0396969Y0616550D01*
X0394450Y0614031D01*
X0394450Y0610469D01*
X0396969Y0607950D01*
X0400531Y0607950D01*
X0403050Y0610469D01*
X0403050Y0614031D01*
X0401228Y0615853D02*
X0406500Y0615853D01*
X0406500Y0616851D02*
X0331500Y0616851D01*
X0331500Y0617500D02*
X0406500Y0617500D01*
X0406500Y0518500D01*
X0331500Y0518500D01*
X0331500Y0617500D01*
X0331500Y0615853D02*
X0336272Y0615853D01*
X0336969Y0616550D02*
X0334450Y0614031D01*
X0334450Y0610469D01*
X0336969Y0607950D01*
X0340531Y0607950D01*
X0343050Y0610469D01*
X0343050Y0614031D01*
X0340531Y0616550D01*
X0336969Y0616550D01*
X0335273Y0614854D02*
X0331500Y0614854D01*
X0331500Y0613856D02*
X0334450Y0613856D01*
X0334450Y0612857D02*
X0331500Y0612857D01*
X0331500Y0611859D02*
X0334450Y0611859D01*
X0334450Y0610860D02*
X0331500Y0610860D01*
X0331500Y0609862D02*
X0335057Y0609862D01*
X0336056Y0608863D02*
X0331500Y0608863D01*
X0331500Y0607865D02*
X0366772Y0607865D01*
X0366886Y0607750D02*
X0368250Y0607750D01*
X0368250Y0611750D01*
X0369250Y0611750D01*
X0369250Y0612750D01*
X0373250Y0612750D01*
X0373250Y0614114D01*
X0370614Y0616750D01*
X0369250Y0616750D01*
X0369250Y0612750D01*
X0368250Y0612750D01*
X0368250Y0616750D01*
X0366886Y0616750D01*
X0364250Y0614114D01*
X0364250Y0612750D01*
X0368250Y0612750D01*
X0368250Y0611750D01*
X0364250Y0611750D01*
X0364250Y0610386D01*
X0366886Y0607750D01*
X0366886Y0606750D02*
X0364250Y0604114D01*
X0364250Y0602750D01*
X0368250Y0602750D01*
X0368250Y0606750D01*
X0366886Y0606750D01*
X0366004Y0605868D02*
X0361214Y0605868D01*
X0360531Y0606550D02*
X0356969Y0606550D01*
X0354450Y0604031D01*
X0354450Y0600469D01*
X0356969Y0597950D01*
X0360531Y0597950D01*
X0363050Y0600469D01*
X0363050Y0604031D01*
X0360531Y0606550D01*
X0360531Y0607950D02*
X0363050Y0610469D01*
X0363050Y0614031D01*
X0360531Y0616550D01*
X0356969Y0616550D01*
X0354450Y0614031D01*
X0354450Y0610469D01*
X0356969Y0607950D01*
X0360531Y0607950D01*
X0361444Y0608863D02*
X0365773Y0608863D01*
X0364774Y0609862D02*
X0362443Y0609862D01*
X0363050Y0610860D02*
X0364250Y0610860D01*
X0363050Y0611859D02*
X0368250Y0611859D01*
X0368250Y0612857D02*
X0369250Y0612857D01*
X0369250Y0611859D02*
X0374450Y0611859D01*
X0374450Y0612857D02*
X0373250Y0612857D01*
X0373250Y0613856D02*
X0374450Y0613856D01*
X0374450Y0614031D02*
X0374450Y0610469D01*
X0376969Y0607950D01*
X0380531Y0607950D01*
X0383050Y0610469D01*
X0383050Y0614031D01*
X0380531Y0616550D01*
X0376969Y0616550D01*
X0374450Y0614031D01*
X0375273Y0614854D02*
X0372510Y0614854D01*
X0371511Y0615853D02*
X0376272Y0615853D01*
X0381228Y0615853D02*
X0386272Y0615853D01*
X0386969Y0616550D02*
X0384450Y0614031D01*
X0384450Y0610469D01*
X0386969Y0607950D01*
X0390531Y0607950D01*
X0393050Y0610469D01*
X0393050Y0614031D01*
X0390531Y0616550D01*
X0386969Y0616550D01*
X0385273Y0614854D02*
X0382227Y0614854D01*
X0383050Y0613856D02*
X0384450Y0613856D01*
X0384450Y0612857D02*
X0383050Y0612857D01*
X0383050Y0611859D02*
X0384450Y0611859D01*
X0384450Y0610860D02*
X0383050Y0610860D01*
X0382443Y0609862D02*
X0385057Y0609862D01*
X0386056Y0608863D02*
X0381444Y0608863D01*
X0380531Y0606550D02*
X0376969Y0606550D01*
X0374450Y0604031D01*
X0374450Y0600469D01*
X0376969Y0597950D01*
X0380531Y0597950D01*
X0383050Y0600469D01*
X0383050Y0604031D01*
X0380531Y0606550D01*
X0381214Y0605868D02*
X0386286Y0605868D01*
X0386969Y0606550D02*
X0384450Y0604031D01*
X0384450Y0600469D01*
X0386969Y0597950D01*
X0390531Y0597950D01*
X0393050Y0600469D01*
X0393050Y0604031D01*
X0390531Y0606550D01*
X0386969Y0606550D01*
X0385288Y0604869D02*
X0382212Y0604869D01*
X0383050Y0603870D02*
X0384450Y0603870D01*
X0384450Y0602872D02*
X0383050Y0602872D01*
X0383050Y0601873D02*
X0384450Y0601873D01*
X0384450Y0600875D02*
X0383050Y0600875D01*
X0382458Y0599876D02*
X0385042Y0599876D01*
X0386041Y0598878D02*
X0381459Y0598878D01*
X0384287Y0596050D02*
X0371213Y0596050D01*
X0370515Y0596339D01*
X0369485Y0596339D01*
X0368533Y0595945D01*
X0367805Y0595217D01*
X0367411Y0594265D01*
X0367411Y0593235D01*
X0367805Y0592283D01*
X0368533Y0591555D01*
X0369485Y0591161D01*
X0370515Y0591161D01*
X0371213Y0591450D01*
X0376700Y0591450D01*
X0376700Y0577047D01*
X0377516Y0576231D01*
X0377805Y0575533D01*
X0378533Y0574805D01*
X0379485Y0574411D01*
X0380515Y0574411D01*
X0381467Y0574805D01*
X0382195Y0575533D01*
X0382589Y0576485D01*
X0382589Y0577515D01*
X0382195Y0578467D01*
X0381467Y0579195D01*
X0381300Y0579264D01*
X0381300Y0591450D01*
X0384287Y0591450D01*
X0384985Y0591161D01*
X0386015Y0591161D01*
X0386967Y0591555D01*
X0387695Y0592283D01*
X0388089Y0593235D01*
X0388089Y0594265D01*
X0387695Y0595217D01*
X0386967Y0595945D01*
X0386015Y0596339D01*
X0384985Y0596339D01*
X0384287Y0596050D01*
X0387029Y0595882D02*
X0406500Y0595882D01*
X0406500Y0594884D02*
X0387833Y0594884D01*
X0388089Y0593885D02*
X0406500Y0593885D01*
X0406500Y0592887D02*
X0387945Y0592887D01*
X0387300Y0591888D02*
X0406500Y0591888D01*
X0406500Y0590890D02*
X0381300Y0590890D01*
X0381300Y0589891D02*
X0406500Y0589891D01*
X0406500Y0588893D02*
X0381300Y0588893D01*
X0381300Y0587894D02*
X0406500Y0587894D01*
X0406500Y0586896D02*
X0381300Y0586896D01*
X0381300Y0585897D02*
X0406500Y0585897D01*
X0406500Y0584899D02*
X0381300Y0584899D01*
X0381300Y0583900D02*
X0406500Y0583900D01*
X0406500Y0582902D02*
X0381300Y0582902D01*
X0381300Y0581903D02*
X0406500Y0581903D01*
X0406500Y0580905D02*
X0381300Y0580905D01*
X0381300Y0579906D02*
X0406500Y0579906D01*
X0406500Y0578908D02*
X0381754Y0578908D01*
X0382426Y0577909D02*
X0406500Y0577909D01*
X0406500Y0576911D02*
X0382589Y0576911D01*
X0382352Y0575912D02*
X0406500Y0575912D01*
X0406500Y0574914D02*
X0381575Y0574914D01*
X0379463Y0572900D02*
X0378463Y0571900D01*
X0344463Y0571900D01*
X0340902Y0568339D01*
X0340485Y0568339D01*
X0339533Y0567945D01*
X0338805Y0567217D01*
X0338411Y0566265D01*
X0338411Y0565235D01*
X0338805Y0564283D01*
X0339533Y0563555D01*
X0340485Y0563161D01*
X0341515Y0563161D01*
X0342467Y0563555D01*
X0343195Y0564283D01*
X0343589Y0565235D01*
X0343589Y0565652D01*
X0346037Y0568100D01*
X0349413Y0568100D01*
X0348902Y0567589D01*
X0348485Y0567589D01*
X0347533Y0567195D01*
X0346805Y0566467D01*
X0346411Y0565515D01*
X0346411Y0564485D01*
X0346805Y0563533D01*
X0347533Y0562805D01*
X0348485Y0562411D01*
X0349515Y0562411D01*
X0350467Y0562805D01*
X0351195Y0563533D01*
X0351589Y0564485D01*
X0351589Y0564902D01*
X0352037Y0565350D01*
X0368757Y0565350D01*
X0368411Y0564515D01*
X0368411Y0563485D01*
X0368805Y0562533D01*
X0369533Y0561805D01*
X0370485Y0561411D01*
X0370902Y0561411D01*
X0370963Y0561350D01*
X0384758Y0561350D01*
X0384401Y0560859D01*
X0384080Y0560227D01*
X0383861Y0559554D01*
X0383773Y0559000D01*
X0390750Y0559000D01*
X0390750Y0558000D01*
X0391750Y0558000D01*
X0391750Y0559000D01*
X0398727Y0559000D01*
X0398639Y0559554D01*
X0398420Y0560227D01*
X0398099Y0560859D01*
X0397742Y0561350D01*
X0400989Y0561350D01*
X0401283Y0561055D01*
X0402235Y0560661D01*
X0403265Y0560661D01*
X0404217Y0561055D01*
X0404945Y0561783D01*
X0405339Y0562735D01*
X0405339Y0563765D01*
X0404945Y0564717D01*
X0404217Y0565445D01*
X0403265Y0565839D01*
X0402235Y0565839D01*
X0401283Y0565445D01*
X0400989Y0565150D01*
X0400061Y0565150D01*
X0400695Y0565783D01*
X0401089Y0566735D01*
X0401089Y0567765D01*
X0400695Y0568717D01*
X0400311Y0569100D01*
X0400489Y0569100D01*
X0400783Y0568805D01*
X0401735Y0568411D01*
X0402765Y0568411D01*
X0403717Y0568805D01*
X0404445Y0569533D01*
X0404839Y0570485D01*
X0404839Y0571515D01*
X0404445Y0572467D01*
X0403717Y0573195D01*
X0402765Y0573589D01*
X0401735Y0573589D01*
X0400783Y0573195D01*
X0400489Y0572900D01*
X0379463Y0572900D01*
X0378481Y0571918D02*
X0331500Y0571918D01*
X0331500Y0570920D02*
X0343483Y0570920D01*
X0342484Y0569921D02*
X0331500Y0569921D01*
X0331500Y0568923D02*
X0341486Y0568923D01*
X0339513Y0567924D02*
X0331500Y0567924D01*
X0331500Y0566926D02*
X0338685Y0566926D01*
X0338411Y0565927D02*
X0331500Y0565927D01*
X0331500Y0564929D02*
X0338538Y0564929D01*
X0339159Y0563930D02*
X0331500Y0563930D01*
X0331500Y0562932D02*
X0347407Y0562932D01*
X0346641Y0563930D02*
X0342841Y0563930D01*
X0343462Y0564929D02*
X0346411Y0564929D01*
X0346582Y0565927D02*
X0343864Y0565927D01*
X0344863Y0566926D02*
X0347264Y0566926D01*
X0345861Y0567924D02*
X0349237Y0567924D01*
X0351616Y0564929D02*
X0368582Y0564929D01*
X0368411Y0563930D02*
X0351359Y0563930D01*
X0350593Y0562932D02*
X0368640Y0562932D01*
X0369406Y0561933D02*
X0331500Y0561933D01*
X0331500Y0560934D02*
X0384456Y0560934D01*
X0383985Y0559936D02*
X0331500Y0559936D01*
X0331500Y0558937D02*
X0390750Y0558937D01*
X0390750Y0558000D02*
X0383773Y0558000D01*
X0383861Y0557446D01*
X0384080Y0556773D01*
X0384401Y0556141D01*
X0384818Y0555568D01*
X0385318Y0555068D01*
X0385891Y0554651D01*
X0386523Y0554330D01*
X0387196Y0554111D01*
X0387896Y0554000D01*
X0390750Y0554000D01*
X0390750Y0558000D01*
X0390750Y0557939D02*
X0391750Y0557939D01*
X0391750Y0558000D02*
X0391750Y0554000D01*
X0394604Y0554000D01*
X0395304Y0554111D01*
X0395977Y0554330D01*
X0396609Y0554651D01*
X0397182Y0555068D01*
X0397682Y0555568D01*
X0398099Y0556141D01*
X0398420Y0556773D01*
X0398639Y0557446D01*
X0398727Y0558000D01*
X0391750Y0558000D01*
X0391750Y0558937D02*
X0406500Y0558937D01*
X0406500Y0557939D02*
X0398717Y0557939D01*
X0398475Y0556940D02*
X0406500Y0556940D01*
X0406500Y0555942D02*
X0397954Y0555942D01*
X0397011Y0554943D02*
X0406500Y0554943D01*
X0406500Y0553945D02*
X0331500Y0553945D01*
X0331500Y0554943D02*
X0385489Y0554943D01*
X0384546Y0555942D02*
X0331500Y0555942D01*
X0331500Y0556940D02*
X0384025Y0556940D01*
X0383783Y0557939D02*
X0331500Y0557939D01*
X0331500Y0552946D02*
X0406500Y0552946D01*
X0406500Y0551948D02*
X0396883Y0551948D01*
X0396686Y0552145D02*
X0395105Y0552800D01*
X0387395Y0552800D01*
X0385814Y0552145D01*
X0384605Y0550936D01*
X0383950Y0549355D01*
X0383950Y0547645D01*
X0384605Y0546064D01*
X0385814Y0544855D01*
X0387395Y0544200D01*
X0395105Y0544200D01*
X0396686Y0544855D01*
X0397895Y0546064D01*
X0398550Y0547645D01*
X0398550Y0549355D01*
X0397895Y0550936D01*
X0396686Y0552145D01*
X0397882Y0550949D02*
X0406500Y0550949D01*
X0406500Y0549951D02*
X0398303Y0549951D01*
X0398550Y0548952D02*
X0406500Y0548952D01*
X0406500Y0547954D02*
X0398550Y0547954D01*
X0398264Y0546955D02*
X0406500Y0546955D01*
X0406500Y0545957D02*
X0397788Y0545957D01*
X0396789Y0544958D02*
X0406500Y0544958D01*
X0406500Y0543960D02*
X0331500Y0543960D01*
X0331500Y0544958D02*
X0385711Y0544958D01*
X0384712Y0545957D02*
X0331500Y0545957D01*
X0331500Y0546955D02*
X0384236Y0546955D01*
X0383950Y0547954D02*
X0331500Y0547954D01*
X0331500Y0548952D02*
X0383950Y0548952D01*
X0384197Y0549951D02*
X0331500Y0549951D01*
X0331500Y0550949D02*
X0384618Y0550949D01*
X0385617Y0551948D02*
X0331500Y0551948D01*
X0331500Y0542961D02*
X0406500Y0542961D01*
X0406500Y0541963D02*
X0396868Y0541963D01*
X0396686Y0542145D02*
X0395105Y0542800D01*
X0387395Y0542800D01*
X0385814Y0542145D01*
X0384605Y0540936D01*
X0383950Y0539355D01*
X0383950Y0537645D01*
X0384605Y0536064D01*
X0385814Y0534855D01*
X0387395Y0534200D01*
X0395105Y0534200D01*
X0396686Y0534855D01*
X0397895Y0536064D01*
X0398550Y0537645D01*
X0398550Y0539355D01*
X0397895Y0540936D01*
X0396686Y0542145D01*
X0397867Y0540964D02*
X0406500Y0540964D01*
X0406500Y0539966D02*
X0398297Y0539966D01*
X0398550Y0538967D02*
X0406500Y0538967D01*
X0406500Y0537969D02*
X0398550Y0537969D01*
X0398271Y0536970D02*
X0406500Y0536970D01*
X0406500Y0535972D02*
X0397803Y0535972D01*
X0396804Y0534973D02*
X0406500Y0534973D01*
X0406500Y0533975D02*
X0331500Y0533975D01*
X0331500Y0534973D02*
X0385696Y0534973D01*
X0384697Y0535972D02*
X0331500Y0535972D01*
X0331500Y0536970D02*
X0384229Y0536970D01*
X0383950Y0537969D02*
X0331500Y0537969D01*
X0331500Y0538967D02*
X0383950Y0538967D01*
X0384203Y0539966D02*
X0331500Y0539966D01*
X0331500Y0540964D02*
X0384633Y0540964D01*
X0385632Y0541963D02*
X0331500Y0541963D01*
X0331500Y0532976D02*
X0406500Y0532976D01*
X0406500Y0531978D02*
X0396853Y0531978D01*
X0396686Y0532145D02*
X0395105Y0532800D01*
X0387395Y0532800D01*
X0385814Y0532145D01*
X0384605Y0530936D01*
X0383950Y0529355D01*
X0383950Y0527645D01*
X0384605Y0526064D01*
X0385814Y0524855D01*
X0387395Y0524200D01*
X0395105Y0524200D01*
X0396686Y0524855D01*
X0397895Y0526064D01*
X0398550Y0527645D01*
X0398550Y0529355D01*
X0397895Y0530936D01*
X0396686Y0532145D01*
X0397852Y0530979D02*
X0406500Y0530979D01*
X0406500Y0529981D02*
X0398291Y0529981D01*
X0398550Y0528982D02*
X0406500Y0528982D01*
X0406500Y0527984D02*
X0398550Y0527984D01*
X0398277Y0526985D02*
X0406500Y0526985D01*
X0406500Y0525987D02*
X0397818Y0525987D01*
X0396819Y0524988D02*
X0406500Y0524988D01*
X0406500Y0523990D02*
X0331500Y0523990D01*
X0331500Y0524988D02*
X0385681Y0524988D01*
X0384682Y0525987D02*
X0331500Y0525987D01*
X0331500Y0526985D02*
X0384223Y0526985D01*
X0383950Y0527984D02*
X0331500Y0527984D01*
X0331500Y0528982D02*
X0383950Y0528982D01*
X0384209Y0529981D02*
X0331500Y0529981D01*
X0331500Y0530979D02*
X0384648Y0530979D01*
X0385647Y0531978D02*
X0331500Y0531978D01*
X0331500Y0522991D02*
X0406500Y0522991D01*
X0406500Y0521993D02*
X0331500Y0521993D01*
X0331500Y0520994D02*
X0406500Y0520994D01*
X0406500Y0519996D02*
X0331500Y0519996D01*
X0331500Y0518997D02*
X0406500Y0518997D01*
X0391750Y0554943D02*
X0390750Y0554943D01*
X0390750Y0555942D02*
X0391750Y0555942D01*
X0391750Y0556940D02*
X0390750Y0556940D01*
X0398044Y0560934D02*
X0401575Y0560934D01*
X0403925Y0560934D02*
X0406500Y0560934D01*
X0406500Y0559936D02*
X0398515Y0559936D01*
X0400754Y0565927D02*
X0406500Y0565927D01*
X0406500Y0564929D02*
X0404733Y0564929D01*
X0405271Y0563930D02*
X0406500Y0563930D01*
X0406500Y0562932D02*
X0405339Y0562932D01*
X0405007Y0561933D02*
X0406500Y0561933D01*
X0406500Y0566926D02*
X0401089Y0566926D01*
X0401023Y0567924D02*
X0406500Y0567924D01*
X0406500Y0568923D02*
X0403834Y0568923D01*
X0404605Y0569921D02*
X0406500Y0569921D01*
X0406500Y0570920D02*
X0404839Y0570920D01*
X0404672Y0571918D02*
X0406500Y0571918D01*
X0406500Y0572917D02*
X0403995Y0572917D01*
X0406500Y0573915D02*
X0331500Y0573915D01*
X0331500Y0572917D02*
X0400505Y0572917D01*
X0400489Y0568923D02*
X0400666Y0568923D01*
X0378425Y0574914D02*
X0331500Y0574914D01*
X0331500Y0575912D02*
X0377648Y0575912D01*
X0376837Y0576911D02*
X0331500Y0576911D01*
X0331500Y0577909D02*
X0376700Y0577909D01*
X0376700Y0578908D02*
X0331500Y0578908D01*
X0331500Y0579906D02*
X0376700Y0579906D01*
X0376700Y0580905D02*
X0331500Y0580905D01*
X0331500Y0581903D02*
X0376700Y0581903D01*
X0376700Y0582902D02*
X0331500Y0582902D01*
X0331500Y0583900D02*
X0376700Y0583900D01*
X0376700Y0584899D02*
X0331500Y0584899D01*
X0331500Y0585897D02*
X0376700Y0585897D01*
X0376700Y0586896D02*
X0331500Y0586896D01*
X0331500Y0587894D02*
X0376700Y0587894D01*
X0376700Y0588893D02*
X0331500Y0588893D01*
X0331500Y0589891D02*
X0376700Y0589891D01*
X0376700Y0590890D02*
X0331500Y0590890D01*
X0331500Y0591888D02*
X0368200Y0591888D01*
X0367555Y0592887D02*
X0331500Y0592887D01*
X0331500Y0593885D02*
X0367411Y0593885D01*
X0367667Y0594884D02*
X0331500Y0594884D01*
X0331500Y0595882D02*
X0368471Y0595882D01*
X0368250Y0597750D02*
X0368250Y0601750D01*
X0369250Y0601750D01*
X0369250Y0602750D01*
X0373250Y0602750D01*
X0373250Y0604114D01*
X0370614Y0606750D01*
X0369250Y0606750D01*
X0369250Y0602750D01*
X0368250Y0602750D01*
X0368250Y0601750D01*
X0364250Y0601750D01*
X0364250Y0600386D01*
X0366886Y0597750D01*
X0368250Y0597750D01*
X0368250Y0597879D02*
X0369250Y0597879D01*
X0369250Y0597750D02*
X0370614Y0597750D01*
X0373250Y0600386D01*
X0373250Y0601750D01*
X0369250Y0601750D01*
X0369250Y0597750D01*
X0369250Y0598878D02*
X0368250Y0598878D01*
X0368250Y0599876D02*
X0369250Y0599876D01*
X0369250Y0600875D02*
X0368250Y0600875D01*
X0368250Y0601873D02*
X0363050Y0601873D01*
X0363050Y0600875D02*
X0364250Y0600875D01*
X0364760Y0599876D02*
X0362458Y0599876D01*
X0361459Y0598878D02*
X0365758Y0598878D01*
X0366757Y0597879D02*
X0331500Y0597879D01*
X0331500Y0596881D02*
X0406500Y0596881D01*
X0406500Y0597879D02*
X0370743Y0597879D01*
X0371742Y0598878D02*
X0376041Y0598878D01*
X0375042Y0599876D02*
X0372740Y0599876D01*
X0373250Y0600875D02*
X0374450Y0600875D01*
X0374450Y0601873D02*
X0369250Y0601873D01*
X0369250Y0602872D02*
X0368250Y0602872D01*
X0368250Y0603870D02*
X0369250Y0603870D01*
X0369250Y0604869D02*
X0368250Y0604869D01*
X0368250Y0605868D02*
X0369250Y0605868D01*
X0369250Y0607750D02*
X0370614Y0607750D01*
X0373250Y0610386D01*
X0373250Y0611750D01*
X0369250Y0611750D01*
X0369250Y0607750D01*
X0369250Y0607865D02*
X0368250Y0607865D01*
X0368250Y0608863D02*
X0369250Y0608863D01*
X0369250Y0609862D02*
X0368250Y0609862D01*
X0368250Y0610860D02*
X0369250Y0610860D01*
X0369250Y0613856D02*
X0368250Y0613856D01*
X0368250Y0614854D02*
X0369250Y0614854D01*
X0369250Y0615853D02*
X0368250Y0615853D01*
X0365989Y0615853D02*
X0361228Y0615853D01*
X0362227Y0614854D02*
X0364990Y0614854D01*
X0364250Y0613856D02*
X0363050Y0613856D01*
X0363050Y0612857D02*
X0364250Y0612857D01*
X0365005Y0604869D02*
X0362212Y0604869D01*
X0363050Y0603870D02*
X0364250Y0603870D01*
X0364250Y0602872D02*
X0363050Y0602872D01*
X0356286Y0605868D02*
X0351214Y0605868D01*
X0350531Y0606550D02*
X0346969Y0606550D01*
X0344450Y0604031D01*
X0344450Y0600469D01*
X0346969Y0597950D01*
X0350531Y0597950D01*
X0353050Y0600469D01*
X0353050Y0604031D01*
X0350531Y0606550D01*
X0350531Y0607950D02*
X0353050Y0610469D01*
X0353050Y0614031D01*
X0350531Y0616550D01*
X0346969Y0616550D01*
X0344450Y0614031D01*
X0344450Y0610469D01*
X0346969Y0607950D01*
X0350531Y0607950D01*
X0351444Y0608863D02*
X0356056Y0608863D01*
X0355057Y0609862D02*
X0352443Y0609862D01*
X0353050Y0610860D02*
X0354450Y0610860D01*
X0354450Y0611859D02*
X0353050Y0611859D01*
X0353050Y0612857D02*
X0354450Y0612857D01*
X0354450Y0613856D02*
X0353050Y0613856D01*
X0352227Y0614854D02*
X0355273Y0614854D01*
X0356272Y0615853D02*
X0351228Y0615853D01*
X0346272Y0615853D02*
X0341228Y0615853D01*
X0342227Y0614854D02*
X0345273Y0614854D01*
X0344450Y0613856D02*
X0343050Y0613856D01*
X0343050Y0612857D02*
X0344450Y0612857D01*
X0344450Y0611859D02*
X0343050Y0611859D01*
X0343050Y0610860D02*
X0344450Y0610860D01*
X0345057Y0609862D02*
X0342443Y0609862D01*
X0341444Y0608863D02*
X0346056Y0608863D01*
X0346286Y0605868D02*
X0341214Y0605868D01*
X0340531Y0606550D02*
X0336969Y0606550D01*
X0334450Y0604031D01*
X0334450Y0600469D01*
X0336969Y0597950D01*
X0340531Y0597950D01*
X0343050Y0600469D01*
X0343050Y0604031D01*
X0340531Y0606550D01*
X0342212Y0604869D02*
X0345288Y0604869D01*
X0344450Y0603870D02*
X0343050Y0603870D01*
X0343050Y0602872D02*
X0344450Y0602872D01*
X0344450Y0601873D02*
X0343050Y0601873D01*
X0343050Y0600875D02*
X0344450Y0600875D01*
X0345042Y0599876D02*
X0342458Y0599876D01*
X0341459Y0598878D02*
X0346041Y0598878D01*
X0351459Y0598878D02*
X0356041Y0598878D01*
X0355042Y0599876D02*
X0352458Y0599876D01*
X0353050Y0600875D02*
X0354450Y0600875D01*
X0354450Y0601873D02*
X0353050Y0601873D01*
X0353050Y0602872D02*
X0354450Y0602872D01*
X0354450Y0603870D02*
X0353050Y0603870D01*
X0352212Y0604869D02*
X0355288Y0604869D01*
X0370728Y0607865D02*
X0406500Y0607865D01*
X0406500Y0608863D02*
X0401444Y0608863D01*
X0402443Y0609862D02*
X0406500Y0609862D01*
X0406500Y0610860D02*
X0403050Y0610860D01*
X0400531Y0606550D02*
X0396969Y0606550D01*
X0394450Y0604031D01*
X0394450Y0600469D01*
X0396969Y0597950D01*
X0400531Y0597950D01*
X0403050Y0600469D01*
X0403050Y0604031D01*
X0400531Y0606550D01*
X0401214Y0605868D02*
X0406500Y0605868D01*
X0406500Y0606866D02*
X0331500Y0606866D01*
X0331500Y0605868D02*
X0336286Y0605868D01*
X0335288Y0604869D02*
X0331500Y0604869D01*
X0331500Y0603870D02*
X0334450Y0603870D01*
X0334450Y0602872D02*
X0331500Y0602872D01*
X0331500Y0601873D02*
X0334450Y0601873D01*
X0334450Y0600875D02*
X0331500Y0600875D01*
X0331500Y0599876D02*
X0335042Y0599876D01*
X0336041Y0598878D02*
X0331500Y0598878D01*
X0371496Y0605868D02*
X0376286Y0605868D01*
X0375288Y0604869D02*
X0372495Y0604869D01*
X0373250Y0603870D02*
X0374450Y0603870D01*
X0374450Y0602872D02*
X0373250Y0602872D01*
X0371727Y0608863D02*
X0376056Y0608863D01*
X0375057Y0609862D02*
X0372726Y0609862D01*
X0373250Y0610860D02*
X0374450Y0610860D01*
X0391444Y0608863D02*
X0396056Y0608863D01*
X0395057Y0609862D02*
X0392443Y0609862D01*
X0393050Y0610860D02*
X0394450Y0610860D01*
X0394450Y0611859D02*
X0393050Y0611859D01*
X0393050Y0612857D02*
X0394450Y0612857D01*
X0394450Y0613856D02*
X0393050Y0613856D01*
X0392227Y0614854D02*
X0395273Y0614854D01*
X0396272Y0615853D02*
X0391228Y0615853D01*
X0391214Y0605868D02*
X0396286Y0605868D01*
X0395288Y0604869D02*
X0392212Y0604869D01*
X0393050Y0603870D02*
X0394450Y0603870D01*
X0394450Y0602872D02*
X0393050Y0602872D01*
X0393050Y0601873D02*
X0394450Y0601873D01*
X0394450Y0600875D02*
X0393050Y0600875D01*
X0392458Y0599876D02*
X0395042Y0599876D01*
X0396041Y0598878D02*
X0391459Y0598878D01*
X0401459Y0598878D02*
X0406500Y0598878D01*
X0406500Y0599876D02*
X0402458Y0599876D01*
X0403050Y0600875D02*
X0406500Y0600875D01*
X0406500Y0601873D02*
X0403050Y0601873D01*
X0403050Y0602872D02*
X0406500Y0602872D01*
X0406500Y0603870D02*
X0403050Y0603870D01*
X0402212Y0604869D02*
X0406500Y0604869D01*
D14*
X0385500Y0593750D03*
X0370000Y0593750D03*
X0366000Y0581000D03*
X0371000Y0564000D03*
X0380000Y0577000D03*
X0398500Y0567250D03*
X0402250Y0571000D03*
X0402750Y0563250D03*
X0403000Y0542000D03*
X0401750Y0523750D03*
X0375000Y0524000D03*
X0372000Y0540000D03*
X0358000Y0563000D03*
X0349000Y0565000D03*
X0341000Y0565750D03*
X0334000Y0593000D03*
D15*
X0370000Y0593750D02*
X0380000Y0593750D01*
X0379000Y0592750D01*
X0379000Y0578000D01*
X0380000Y0577000D01*
X0380000Y0593750D02*
X0385500Y0593750D01*
D16*
X0380250Y0571000D02*
X0379250Y0570000D01*
X0345250Y0570000D01*
X0341000Y0565750D01*
X0349000Y0565000D02*
X0351250Y0567250D01*
X0398500Y0567250D01*
X0402250Y0571000D02*
X0380250Y0571000D01*
X0371750Y0563250D02*
X0371000Y0564000D01*
X0371750Y0563250D02*
X0402750Y0563250D01*
M02*
