G75*
%MOIN*%
%OFA0B0*%
%FSLAX25Y25*%
%IPPOS*%
%LPD*%
%AMOC8*
5,1,8,0,0,1.08239X$1,22.5*
%
%ADD10C,0.00000*%
%ADD11R,0.07087X0.06299*%
%ADD12R,0.07098X0.06299*%
%ADD13R,0.03937X0.05512*%
%ADD14C,0.00984*%
%ADD15R,0.01280X0.00984*%
%ADD16R,0.00984X0.01280*%
%ADD17R,0.08268X0.08268*%
D10*
X0330000Y0517000D02*
X0330000Y0619000D01*
X0408000Y0619000D01*
X0408000Y0517000D01*
X0330000Y0517000D01*
D11*
X0372750Y0574988D03*
X0372750Y0586012D03*
D12*
X0359250Y0586098D03*
X0349250Y0586098D03*
X0339250Y0586098D03*
X0339250Y0574902D03*
X0349250Y0574902D03*
X0359250Y0574902D03*
X0360250Y0556098D03*
X0360250Y0544902D03*
X0360250Y0535098D03*
X0349250Y0535098D03*
X0349000Y0544902D03*
X0339250Y0544902D03*
X0339250Y0535098D03*
X0339250Y0523902D03*
X0349250Y0523902D03*
X0360250Y0523902D03*
X0349000Y0556098D03*
X0339250Y0556098D03*
D13*
X0370010Y0557331D03*
X0377490Y0557331D03*
X0373750Y0548669D03*
D14*
X0389411Y0573807D03*
X0391970Y0573807D03*
X0394530Y0573807D03*
X0397089Y0573807D03*
X0399943Y0576661D03*
X0399943Y0579220D03*
X0399943Y0581780D03*
X0399943Y0584339D03*
X0397089Y0587193D03*
X0394530Y0587193D03*
X0391970Y0587193D03*
X0389411Y0587193D03*
X0386557Y0584339D03*
X0386557Y0581780D03*
X0386557Y0579220D03*
X0386557Y0576661D03*
D15*
X0385917Y0576661D03*
X0385917Y0579220D03*
X0385917Y0581780D03*
X0385917Y0584339D03*
X0400583Y0584339D03*
X0400583Y0581780D03*
X0400583Y0579220D03*
X0400583Y0576661D03*
D16*
X0397089Y0573167D03*
X0394530Y0573167D03*
X0391970Y0573167D03*
X0389411Y0573167D03*
X0389411Y0587833D03*
X0391970Y0587833D03*
X0394530Y0587833D03*
X0397089Y0587833D03*
D17*
X0393250Y0580500D03*
M02*
