G75*
%MOIN*%
%OFA0B0*%
%FSLAX25Y25*%
%IPPOS*%
%LPD*%
%AMOC8*
5,1,8,0,0,1.08239X$1,22.5*
%
%ADD10C,0.00000*%
%ADD11R,0.07487X0.06699*%
%ADD12C,0.06400*%
%ADD13OC8,0.06400*%
%ADD14R,0.07498X0.06699*%
%ADD15R,0.04337X0.05912*%
%ADD16C,0.01378*%
%ADD17R,0.01476X0.01378*%
%ADD18R,0.01378X0.01476*%
%ADD19R,0.09449X0.09449*%
D10*
X0330000Y0517000D02*
X0330000Y0619000D01*
X0408000Y0619000D01*
X0408000Y0517000D01*
X0330000Y0517000D01*
D11*
X0372750Y0574988D03*
X0372750Y0586012D03*
D12*
X0388250Y0558500D02*
X0394250Y0558500D01*
X0394250Y0548500D02*
X0388250Y0548500D01*
X0388250Y0538500D02*
X0394250Y0538500D01*
X0394250Y0528500D02*
X0388250Y0528500D01*
D13*
X0388750Y0602250D03*
X0388750Y0612250D03*
X0378750Y0612250D03*
X0378750Y0602250D03*
X0368750Y0602250D03*
X0368750Y0612250D03*
X0358750Y0612250D03*
X0358750Y0602250D03*
X0348750Y0602250D03*
X0348750Y0612250D03*
X0338750Y0612250D03*
X0338750Y0602250D03*
X0398750Y0602250D03*
X0398750Y0612250D03*
D14*
X0359250Y0586098D03*
X0349250Y0586098D03*
X0339250Y0586098D03*
X0339250Y0574902D03*
X0349250Y0574902D03*
X0359250Y0574902D03*
X0360250Y0556098D03*
X0360250Y0544902D03*
X0360250Y0535098D03*
X0349250Y0535098D03*
X0349000Y0544902D03*
X0339250Y0544902D03*
X0339250Y0535098D03*
X0339250Y0523902D03*
X0349250Y0523902D03*
X0360250Y0523902D03*
X0349000Y0556098D03*
X0339250Y0556098D03*
D15*
X0370010Y0557331D03*
X0377490Y0557331D03*
X0373750Y0548669D03*
D16*
X0389411Y0573807D03*
X0391970Y0573807D03*
X0394530Y0573807D03*
X0397089Y0573807D03*
X0399943Y0576661D03*
X0399943Y0579220D03*
X0399943Y0581780D03*
X0399943Y0584339D03*
X0397089Y0587193D03*
X0394530Y0587193D03*
X0391970Y0587193D03*
X0389411Y0587193D03*
X0386557Y0584339D03*
X0386557Y0581780D03*
X0386557Y0579220D03*
X0386557Y0576661D03*
D17*
X0385819Y0576661D03*
X0385819Y0579220D03*
X0385819Y0581780D03*
X0385819Y0584339D03*
X0400681Y0584339D03*
X0400681Y0581780D03*
X0400681Y0579220D03*
X0400681Y0576661D03*
D18*
X0397089Y0573069D03*
X0394530Y0573069D03*
X0391970Y0573069D03*
X0389411Y0573069D03*
X0389411Y0587931D03*
X0391970Y0587931D03*
X0394530Y0587931D03*
X0397089Y0587931D03*
D19*
X0393250Y0580500D03*
M02*
