G75*
%MOIN*%
%OFA0B0*%
%FSLAX25Y25*%
%IPPOS*%
%LPD*%
%AMOC8*
5,1,8,0,0,1.08239X$1,22.5*
%
%ADD10C,0.00000*%
%ADD11C,0.01000*%
%ADD12R,0.03150X0.04724*%
%ADD13R,0.04724X0.01378*%
%ADD14R,0.03937X0.05512*%
%ADD15OC8,0.06000*%
%ADD16C,0.03150*%
%ADD17C,0.01181*%
%ADD18R,0.02559X0.02165*%
%ADD19C,0.06000*%
%ADD20C,0.05600*%
%ADD21C,0.10650*%
%ADD22R,0.04600X0.06300*%
%ADD23R,0.05906X0.01772*%
%ADD24R,0.06299X0.07098*%
%ADD25C,0.01600*%
%ADD26C,0.00800*%
%ADD27C,0.03600*%
D10*
X0001000Y0003300D02*
X0001000Y0229261D01*
X0283701Y0229261D01*
X0283701Y0003300D01*
X0001000Y0003300D01*
D11*
X0041000Y0008800D02*
X0041000Y0223800D01*
X0282000Y0223800D01*
X0282000Y0008800D01*
X0041000Y0008800D01*
D12*
X0102457Y0097300D03*
X0109543Y0097300D03*
X0109543Y0113300D03*
X0102457Y0113300D03*
X0102457Y0129300D03*
X0109543Y0129300D03*
X0109543Y0145300D03*
X0102457Y0145300D03*
X0136457Y0137300D03*
X0143543Y0137300D03*
X0143543Y0127300D03*
X0149457Y0127300D03*
X0156543Y0127300D03*
X0164457Y0127300D03*
X0171543Y0127300D03*
X0179457Y0127300D03*
X0186543Y0127300D03*
X0194457Y0127300D03*
X0201543Y0127300D03*
X0209457Y0127300D03*
X0216543Y0127300D03*
X0216543Y0137300D03*
X0209457Y0137300D03*
X0201543Y0137300D03*
X0194457Y0137300D03*
X0186543Y0137300D03*
X0179457Y0137300D03*
X0179457Y0117300D03*
X0186543Y0117300D03*
X0194457Y0117300D03*
X0201543Y0117300D03*
X0209457Y0117300D03*
X0216543Y0117300D03*
X0216543Y0107300D03*
X0209457Y0107300D03*
X0201543Y0107300D03*
X0194457Y0107300D03*
X0186543Y0107300D03*
X0179457Y0107300D03*
X0171543Y0117300D03*
X0164457Y0117300D03*
X0156543Y0117300D03*
X0149457Y0117300D03*
X0143543Y0117300D03*
X0136457Y0117300D03*
X0136457Y0107300D03*
X0143543Y0107300D03*
X0136457Y0127300D03*
X0209457Y0147300D03*
X0216543Y0147300D03*
X0216543Y0097300D03*
X0209457Y0097300D03*
X0253207Y0083800D03*
X0260293Y0083800D03*
D13*
X0173516Y0083020D03*
X0173516Y0085580D03*
X0173516Y0088139D03*
X0173516Y0095461D03*
X0173516Y0098020D03*
X0173516Y0100580D03*
X0173516Y0103139D03*
X0150484Y0103139D03*
X0150484Y0100580D03*
X0150484Y0098020D03*
X0150484Y0095461D03*
X0150484Y0088139D03*
X0150484Y0085580D03*
X0150484Y0083020D03*
X0150484Y0080461D03*
X0173516Y0080461D03*
X0173516Y0142461D03*
X0173516Y0145020D03*
X0173516Y0147580D03*
X0173516Y0150139D03*
X0173516Y0157461D03*
X0173516Y0160020D03*
X0173516Y0162580D03*
X0173516Y0165139D03*
X0150484Y0165139D03*
X0150484Y0162580D03*
X0150484Y0160020D03*
X0150484Y0157461D03*
X0150484Y0150139D03*
X0150484Y0147580D03*
X0150484Y0145020D03*
X0150484Y0142461D03*
D14*
X0253260Y0071631D03*
X0260740Y0071631D03*
X0257000Y0062969D03*
D15*
X0235575Y0061371D03*
X0225575Y0061371D03*
X0225575Y0071371D03*
X0235575Y0071371D03*
X0215575Y0071371D03*
X0205575Y0071371D03*
X0195575Y0071371D03*
X0195575Y0061371D03*
X0205575Y0061371D03*
X0215575Y0061371D03*
X0211000Y0025800D03*
X0221000Y0025800D03*
X0231000Y0025800D03*
X0241000Y0025800D03*
X0251000Y0025800D03*
X0261000Y0025800D03*
X0271000Y0025800D03*
X0271000Y0015800D03*
X0261000Y0015800D03*
X0251000Y0015800D03*
X0241000Y0015800D03*
X0231000Y0015800D03*
X0221000Y0015800D03*
X0211000Y0015800D03*
X0201000Y0015800D03*
X0191000Y0015800D03*
X0181000Y0015800D03*
X0171000Y0015800D03*
X0161000Y0015800D03*
X0151000Y0015800D03*
X0141000Y0015800D03*
X0131000Y0015800D03*
X0121000Y0015800D03*
X0111000Y0015800D03*
X0101000Y0015800D03*
X0091000Y0015800D03*
X0081000Y0015800D03*
X0071000Y0015800D03*
X0061000Y0015800D03*
X0051000Y0015800D03*
X0051000Y0025800D03*
X0061000Y0025800D03*
X0071000Y0025800D03*
X0081000Y0025800D03*
X0091000Y0025800D03*
X0101000Y0025800D03*
X0111000Y0025800D03*
X0121000Y0025800D03*
X0131000Y0025800D03*
X0141000Y0025800D03*
X0151000Y0025800D03*
X0161000Y0025800D03*
X0171000Y0025800D03*
X0181000Y0025800D03*
X0191000Y0025800D03*
X0201000Y0025800D03*
X0201000Y0205800D03*
X0191000Y0205800D03*
X0191000Y0215800D03*
X0201000Y0215800D03*
X0211000Y0215800D03*
X0221000Y0215800D03*
X0231000Y0215800D03*
X0231000Y0205800D03*
X0221000Y0205800D03*
X0211000Y0205800D03*
X0241000Y0205800D03*
X0251000Y0205800D03*
X0251000Y0215800D03*
X0241000Y0215800D03*
X0261000Y0215800D03*
X0271000Y0215800D03*
X0271000Y0205800D03*
X0261000Y0205800D03*
X0181000Y0205800D03*
X0171000Y0205800D03*
X0161000Y0205800D03*
X0161000Y0215800D03*
X0171000Y0215800D03*
X0181000Y0215800D03*
X0151000Y0215800D03*
X0141000Y0215800D03*
X0141000Y0205800D03*
X0151000Y0205800D03*
X0131000Y0205800D03*
X0121000Y0205800D03*
X0121000Y0215800D03*
X0131000Y0215800D03*
X0111000Y0215800D03*
X0101000Y0215800D03*
X0091000Y0215800D03*
X0091000Y0205800D03*
X0101000Y0205800D03*
X0111000Y0205800D03*
X0081000Y0205800D03*
X0071000Y0205800D03*
X0071000Y0215800D03*
X0081000Y0215800D03*
X0061000Y0215800D03*
X0051000Y0215800D03*
X0051000Y0205800D03*
X0061000Y0205800D03*
D16*
X0236111Y0037300D02*
X0236503Y0037300D01*
X0243497Y0037300D02*
X0243889Y0037300D01*
D17*
X0240591Y0038678D02*
X0240591Y0035922D01*
X0239409Y0035922D01*
X0239409Y0038678D01*
X0240591Y0038678D01*
X0240591Y0037102D02*
X0239409Y0037102D01*
X0239409Y0038282D02*
X0240591Y0038282D01*
D18*
X0228394Y0124800D03*
X0224654Y0124800D03*
X0224654Y0134800D03*
X0228394Y0134800D03*
D19*
X0246500Y0134800D02*
X0252500Y0134800D01*
X0252500Y0124800D02*
X0246500Y0124800D01*
X0133000Y0040800D02*
X0133000Y0034800D01*
X0123000Y0034800D02*
X0123000Y0040800D01*
X0113000Y0040800D02*
X0113000Y0034800D01*
X0087500Y0034800D02*
X0087500Y0040800D01*
X0077500Y0040800D02*
X0077500Y0034800D01*
X0067500Y0034800D02*
X0067500Y0040800D01*
D20*
X0091000Y0075300D03*
X0091000Y0168300D03*
D21*
X0060291Y0153339D03*
X0060291Y0183261D03*
X0060291Y0090261D03*
X0060291Y0060339D03*
D22*
X0189500Y0037800D03*
X0195500Y0037800D03*
D23*
X0174071Y0054961D03*
X0174071Y0057520D03*
X0174071Y0060080D03*
X0174071Y0062639D03*
X0157929Y0062639D03*
X0157929Y0060080D03*
X0157929Y0057520D03*
X0157929Y0054961D03*
X0132071Y0054961D03*
X0132071Y0057520D03*
X0132071Y0060080D03*
X0132071Y0062639D03*
X0115929Y0062639D03*
X0115929Y0060080D03*
X0115929Y0057520D03*
X0115929Y0054961D03*
D24*
X0117402Y0097300D03*
X0128598Y0097300D03*
X0128598Y0113300D03*
X0117402Y0113300D03*
X0117402Y0129300D03*
X0128598Y0129300D03*
X0128598Y0145300D03*
X0117402Y0145300D03*
D25*
X0109543Y0145300D01*
X0106469Y0145772D02*
X0105531Y0145772D01*
X0105531Y0147370D02*
X0106469Y0147370D01*
X0106469Y0148284D02*
X0107347Y0149162D01*
X0111739Y0149162D01*
X0112618Y0148284D01*
X0112618Y0147600D01*
X0112752Y0147600D01*
X0112752Y0149471D01*
X0113631Y0150349D01*
X0121173Y0150349D01*
X0122051Y0149471D01*
X0122051Y0141129D01*
X0121173Y0140251D01*
X0113631Y0140251D01*
X0112752Y0141129D01*
X0112752Y0143000D01*
X0112618Y0143000D01*
X0112618Y0142316D01*
X0111739Y0141438D01*
X0107347Y0141438D01*
X0106469Y0142316D01*
X0106469Y0148284D01*
X0105531Y0148284D02*
X0104653Y0149162D01*
X0100261Y0149162D01*
X0099382Y0148284D01*
X0099382Y0146600D01*
X0070283Y0146600D01*
X0066468Y0150416D01*
X0067116Y0151982D01*
X0067116Y0154697D01*
X0066077Y0157205D01*
X0064157Y0159125D01*
X0061649Y0160164D01*
X0058934Y0160164D01*
X0056425Y0159125D01*
X0054505Y0157205D01*
X0053466Y0154697D01*
X0053466Y0151982D01*
X0054505Y0149473D01*
X0056425Y0147553D01*
X0058934Y0146514D01*
X0061649Y0146514D01*
X0063215Y0147163D01*
X0068378Y0142000D01*
X0099698Y0142000D01*
X0100261Y0141438D01*
X0100700Y0141438D01*
X0100700Y0133162D01*
X0100261Y0133162D01*
X0099382Y0132284D01*
X0099382Y0126316D01*
X0100157Y0125542D01*
X0100157Y0117058D01*
X0099382Y0116284D01*
X0099382Y0110316D01*
X0100157Y0109542D01*
X0100157Y0101058D01*
X0099382Y0100284D01*
X0099382Y0094316D01*
X0100261Y0093438D01*
X0104653Y0093438D01*
X0105531Y0094316D01*
X0105531Y0100284D01*
X0104757Y0101058D01*
X0104757Y0109542D01*
X0105531Y0110316D01*
X0105531Y0116284D01*
X0104757Y0117058D01*
X0104757Y0125542D01*
X0105531Y0126316D01*
X0105531Y0132284D01*
X0105300Y0132515D01*
X0105300Y0142085D01*
X0105531Y0142316D01*
X0105531Y0148284D01*
X0104846Y0148969D02*
X0107154Y0148969D01*
X0102457Y0145300D02*
X0102457Y0144843D01*
X0103000Y0144300D01*
X0103000Y0129843D01*
X0102457Y0129300D01*
X0102457Y0113300D01*
X0102457Y0097300D01*
X0105531Y0097817D02*
X0106469Y0097817D01*
X0106469Y0099415D02*
X0105531Y0099415D01*
X0106469Y0100284D02*
X0106469Y0094316D01*
X0107347Y0093438D01*
X0111739Y0093438D01*
X0112618Y0094316D01*
X0112618Y0095000D01*
X0112752Y0095000D01*
X0112752Y0093129D01*
X0113631Y0092251D01*
X0121173Y0092251D01*
X0122051Y0093129D01*
X0122051Y0101471D01*
X0121173Y0102349D01*
X0113631Y0102349D01*
X0112752Y0101471D01*
X0112752Y0099600D01*
X0112618Y0099600D01*
X0112618Y0100284D01*
X0111739Y0101162D01*
X0107347Y0101162D01*
X0106469Y0100284D01*
X0107199Y0101014D02*
X0104801Y0101014D01*
X0104757Y0102612D02*
X0138700Y0102612D01*
X0138653Y0103438D02*
X0138700Y0103485D01*
X0138700Y0097253D01*
X0138300Y0096853D01*
X0138300Y0097956D01*
X0137798Y0099169D01*
X0136869Y0100098D01*
X0135656Y0100600D01*
X0134344Y0100600D01*
X0133248Y0100146D01*
X0133248Y0101471D01*
X0132369Y0102349D01*
X0124827Y0102349D01*
X0123949Y0101471D01*
X0123949Y0093129D01*
X0124827Y0092251D01*
X0132369Y0092251D01*
X0133248Y0093129D01*
X0133248Y0094454D01*
X0134344Y0094000D01*
X0135447Y0094000D01*
X0119047Y0077600D01*
X0094702Y0077600D01*
X0094645Y0077736D01*
X0093436Y0078945D01*
X0091855Y0079600D01*
X0090145Y0079600D01*
X0088564Y0078945D01*
X0087355Y0077736D01*
X0086700Y0076155D01*
X0086700Y0074445D01*
X0087355Y0072864D01*
X0088564Y0071655D01*
X0090145Y0071000D01*
X0091855Y0071000D01*
X0093436Y0071655D01*
X0094645Y0072864D01*
X0094702Y0073000D01*
X0120953Y0073000D01*
X0122300Y0074347D01*
X0143300Y0095347D01*
X0143300Y0095432D01*
X0144124Y0095091D01*
X0143202Y0094169D01*
X0142700Y0092956D01*
X0142700Y0091644D01*
X0143202Y0090431D01*
X0144131Y0089502D01*
X0145344Y0089000D01*
X0146622Y0089000D01*
X0146622Y0082152D01*
X0146445Y0081845D01*
X0146322Y0081387D01*
X0146322Y0080461D01*
X0146322Y0079535D01*
X0146445Y0079078D01*
X0146682Y0078667D01*
X0147017Y0078332D01*
X0147427Y0078095D01*
X0147885Y0077972D01*
X0150484Y0077972D01*
X0150484Y0080461D01*
X0150484Y0080461D01*
X0146322Y0080461D01*
X0150484Y0080461D01*
X0150484Y0080461D01*
X0150484Y0077972D01*
X0153083Y0077972D01*
X0153541Y0078095D01*
X0153952Y0078332D01*
X0154287Y0078667D01*
X0154524Y0079078D01*
X0154646Y0079535D01*
X0154646Y0080461D01*
X0150484Y0080461D01*
X0150484Y0080461D01*
X0154646Y0080461D01*
X0154646Y0081387D01*
X0154524Y0081845D01*
X0154346Y0082152D01*
X0154346Y0089449D01*
X0153468Y0090328D01*
X0148694Y0090328D01*
X0148767Y0090400D01*
X0149787Y0090400D01*
X0150900Y0091513D01*
X0152384Y0092997D01*
X0152384Y0093272D01*
X0153468Y0093272D01*
X0154346Y0094151D01*
X0154346Y0096120D01*
X0156507Y0096120D01*
X0156797Y0096410D01*
X0157202Y0095431D01*
X0158131Y0094502D01*
X0158700Y0094267D01*
X0158700Y0078253D01*
X0155047Y0074600D01*
X0133047Y0074600D01*
X0131700Y0073253D01*
X0131700Y0073253D01*
X0120827Y0062380D01*
X0120382Y0062380D01*
X0120382Y0064146D01*
X0119503Y0065024D01*
X0117829Y0065024D01*
X0117829Y0066486D01*
X0117869Y0066502D01*
X0118798Y0067431D01*
X0119300Y0068644D01*
X0119300Y0069956D01*
X0118798Y0071169D01*
X0117869Y0072098D01*
X0116656Y0072600D01*
X0115344Y0072600D01*
X0114131Y0072098D01*
X0113202Y0071169D01*
X0112700Y0069956D01*
X0112700Y0068644D01*
X0113202Y0067431D01*
X0114029Y0066604D01*
X0114029Y0065024D01*
X0112355Y0065024D01*
X0111476Y0064146D01*
X0111476Y0059490D01*
X0110869Y0060098D01*
X0109656Y0060600D01*
X0108344Y0060600D01*
X0107131Y0060098D01*
X0106202Y0059169D01*
X0105700Y0057956D01*
X0105700Y0056644D01*
X0106202Y0055431D01*
X0106433Y0055200D01*
X0105767Y0055200D01*
X0104869Y0056098D01*
X0103656Y0056600D01*
X0102344Y0056600D01*
X0101131Y0056098D01*
X0100202Y0055169D01*
X0099700Y0053956D01*
X0099700Y0052644D01*
X0099884Y0052200D01*
X0082213Y0052200D01*
X0081100Y0051087D01*
X0077500Y0047487D01*
X0073900Y0051087D01*
X0072787Y0052200D01*
X0050213Y0052200D01*
X0043213Y0045200D01*
X0043000Y0044987D01*
X0043000Y0221800D01*
X0280000Y0221800D01*
X0280000Y0010800D01*
X0043000Y0010800D01*
X0043000Y0015613D01*
X0044100Y0014513D01*
X0045213Y0013400D01*
X0047036Y0013400D01*
X0049136Y0011300D01*
X0052864Y0011300D01*
X0055500Y0013936D01*
X0055500Y0017664D01*
X0052864Y0020300D01*
X0049136Y0020300D01*
X0046500Y0017664D01*
X0046500Y0017487D01*
X0045900Y0018087D01*
X0045900Y0042513D01*
X0051787Y0048400D01*
X0056433Y0048400D01*
X0056202Y0048169D01*
X0055700Y0046956D01*
X0055700Y0045687D01*
X0054100Y0044087D01*
X0054100Y0029064D01*
X0052864Y0030300D01*
X0049136Y0030300D01*
X0046500Y0027664D01*
X0046500Y0023936D01*
X0049136Y0021300D01*
X0052864Y0021300D01*
X0054100Y0022536D01*
X0054100Y0019513D01*
X0055213Y0018400D01*
X0056500Y0017113D01*
X0056500Y0013936D01*
X0059136Y0011300D01*
X0062864Y0011300D01*
X0065500Y0013936D01*
X0065500Y0017664D01*
X0062864Y0020300D01*
X0059136Y0020300D01*
X0058912Y0020075D01*
X0057900Y0021087D01*
X0057900Y0022536D01*
X0059136Y0021300D01*
X0062864Y0021300D01*
X0065500Y0023936D01*
X0065500Y0027664D01*
X0062864Y0030300D01*
X0059136Y0030300D01*
X0057900Y0029064D01*
X0057900Y0042513D01*
X0058387Y0043000D01*
X0059656Y0043000D01*
X0060869Y0043502D01*
X0061798Y0044431D01*
X0062300Y0045644D01*
X0062300Y0046956D01*
X0061798Y0048169D01*
X0061567Y0048400D01*
X0071213Y0048400D01*
X0074984Y0044629D01*
X0074951Y0044615D01*
X0073685Y0043349D01*
X0073000Y0041695D01*
X0073000Y0033905D01*
X0073685Y0032251D01*
X0074951Y0030985D01*
X0075998Y0030551D01*
X0074306Y0028858D01*
X0072864Y0030300D01*
X0069136Y0030300D01*
X0066500Y0027664D01*
X0066500Y0023936D01*
X0069136Y0021300D01*
X0072864Y0021300D01*
X0073700Y0022136D01*
X0073700Y0021253D01*
X0072747Y0020300D01*
X0069136Y0020300D01*
X0066500Y0017664D01*
X0066500Y0013936D01*
X0069136Y0011300D01*
X0072864Y0011300D01*
X0075500Y0013936D01*
X0075500Y0016547D01*
X0076200Y0017247D01*
X0076200Y0016000D01*
X0080800Y0016000D01*
X0080800Y0020600D01*
X0079012Y0020600D01*
X0078300Y0019888D01*
X0078300Y0022136D01*
X0079136Y0021300D01*
X0082864Y0021300D01*
X0085500Y0023936D01*
X0085500Y0027664D01*
X0084558Y0028606D01*
X0086356Y0030403D01*
X0086605Y0030300D01*
X0088395Y0030300D01*
X0090049Y0030985D01*
X0091315Y0032251D01*
X0092000Y0033905D01*
X0092000Y0041695D01*
X0091604Y0042651D01*
X0093953Y0045000D01*
X0100132Y0045000D01*
X0099700Y0043956D01*
X0099700Y0042687D01*
X0099100Y0042087D01*
X0099100Y0030264D01*
X0096500Y0027664D01*
X0096500Y0023936D01*
X0099136Y0021300D01*
X0102864Y0021300D01*
X0105500Y0023936D01*
X0105500Y0027664D01*
X0102900Y0030264D01*
X0102900Y0040000D01*
X0103656Y0040000D01*
X0104869Y0040502D01*
X0105798Y0041431D01*
X0106300Y0042644D01*
X0106300Y0043956D01*
X0105868Y0045000D01*
X0111381Y0045000D01*
X0110451Y0044615D01*
X0109185Y0043349D01*
X0108500Y0041695D01*
X0108500Y0033905D01*
X0109185Y0032251D01*
X0110451Y0030985D01*
X0112105Y0030300D01*
X0113313Y0030300D01*
X0114100Y0029513D01*
X0115213Y0028400D01*
X0115713Y0028400D01*
X0116500Y0027613D01*
X0116500Y0023936D01*
X0119136Y0021300D01*
X0122864Y0021300D01*
X0125500Y0023936D01*
X0125500Y0027664D01*
X0125164Y0028000D01*
X0126836Y0028000D01*
X0126500Y0027664D01*
X0126500Y0023936D01*
X0129136Y0021300D01*
X0132864Y0021300D01*
X0135500Y0023936D01*
X0135500Y0027664D01*
X0132864Y0030300D01*
X0132253Y0030300D01*
X0133895Y0030300D01*
X0135549Y0030985D01*
X0136815Y0032251D01*
X0137500Y0033905D01*
X0137500Y0041695D01*
X0136815Y0043349D01*
X0135549Y0044615D01*
X0133895Y0045300D01*
X0132105Y0045300D01*
X0130451Y0044615D01*
X0129185Y0043349D01*
X0128500Y0041695D01*
X0128500Y0033905D01*
X0128750Y0033302D01*
X0128047Y0032600D01*
X0126959Y0032600D01*
X0127500Y0033905D01*
X0127500Y0041695D01*
X0126815Y0043349D01*
X0125549Y0044615D01*
X0125300Y0044718D01*
X0125300Y0044913D01*
X0126787Y0046400D01*
X0178213Y0046400D01*
X0185700Y0038913D01*
X0185700Y0034029D01*
X0186579Y0033150D01*
X0192421Y0033150D01*
X0192500Y0033229D01*
X0192579Y0033150D01*
X0198421Y0033150D01*
X0199300Y0034029D01*
X0199300Y0041571D01*
X0198421Y0042450D01*
X0197800Y0042450D01*
X0197800Y0057232D01*
X0200075Y0059507D01*
X0200075Y0063235D01*
X0197439Y0065871D01*
X0193711Y0065871D01*
X0191075Y0063235D01*
X0191075Y0061980D01*
X0186346Y0061980D01*
X0186798Y0062431D01*
X0187300Y0063644D01*
X0187300Y0064956D01*
X0186798Y0066169D01*
X0185869Y0067098D01*
X0184656Y0067600D01*
X0183387Y0067600D01*
X0178787Y0072200D01*
X0172787Y0072200D01*
X0169900Y0075087D01*
X0169900Y0078905D01*
X0170532Y0078272D01*
X0172452Y0078272D01*
X0172724Y0078000D01*
X0178633Y0078000D01*
X0179131Y0077502D01*
X0180344Y0077000D01*
X0181656Y0077000D01*
X0182869Y0077502D01*
X0183798Y0078431D01*
X0184300Y0079644D01*
X0184300Y0080956D01*
X0183798Y0082169D01*
X0182869Y0083098D01*
X0182381Y0083300D01*
X0182869Y0083502D01*
X0183798Y0084431D01*
X0184300Y0085644D01*
X0184300Y0086956D01*
X0183798Y0088169D01*
X0182869Y0089098D01*
X0181656Y0089600D01*
X0180344Y0089600D01*
X0179700Y0089334D01*
X0179798Y0089431D01*
X0180300Y0090644D01*
X0180300Y0091956D01*
X0179801Y0093161D01*
X0193114Y0093161D01*
X0198953Y0099000D01*
X0200300Y0100347D01*
X0200300Y0103438D01*
X0203739Y0103438D01*
X0204618Y0104316D01*
X0204618Y0105000D01*
X0206382Y0105000D01*
X0206382Y0104316D01*
X0207157Y0103542D01*
X0207157Y0101058D01*
X0206382Y0100284D01*
X0206382Y0094316D01*
X0207261Y0093438D01*
X0210700Y0093438D01*
X0210700Y0092347D01*
X0213700Y0089347D01*
X0215047Y0088000D01*
X0232047Y0088000D01*
X0238700Y0081347D01*
X0238700Y0074610D01*
X0237439Y0075871D01*
X0233711Y0075871D01*
X0231075Y0073235D01*
X0231075Y0069507D01*
X0233711Y0066871D01*
X0237439Y0066871D01*
X0238700Y0068132D01*
X0238700Y0064610D01*
X0237439Y0065871D01*
X0233711Y0065871D01*
X0231075Y0063235D01*
X0231075Y0059507D01*
X0233275Y0057307D01*
X0233275Y0038490D01*
X0233035Y0037912D01*
X0233035Y0036688D01*
X0233504Y0035558D01*
X0234368Y0034693D01*
X0235499Y0034225D01*
X0237116Y0034225D01*
X0237847Y0034528D01*
X0238544Y0033831D01*
X0241456Y0033831D01*
X0242153Y0034528D01*
X0242884Y0034225D01*
X0244501Y0034225D01*
X0245631Y0034693D01*
X0245938Y0035000D01*
X0255953Y0035000D01*
X0257300Y0036347D01*
X0265300Y0044347D01*
X0265300Y0066253D01*
X0263953Y0067600D01*
X0263754Y0067799D01*
X0264209Y0068253D01*
X0264209Y0075008D01*
X0263330Y0075887D01*
X0262593Y0075887D01*
X0262593Y0080042D01*
X0263368Y0080816D01*
X0263368Y0086784D01*
X0262489Y0087662D01*
X0258097Y0087662D01*
X0257219Y0086784D01*
X0257219Y0080816D01*
X0257993Y0080042D01*
X0257993Y0075730D01*
X0257272Y0075008D01*
X0257272Y0068253D01*
X0258150Y0067375D01*
X0258440Y0067375D01*
X0258440Y0067225D01*
X0254410Y0067225D01*
X0253531Y0066347D01*
X0253531Y0059592D01*
X0254410Y0058713D01*
X0259590Y0058713D01*
X0260468Y0059592D01*
X0260468Y0064579D01*
X0260700Y0064347D01*
X0260700Y0046253D01*
X0254047Y0039600D01*
X0245938Y0039600D01*
X0245631Y0039907D01*
X0244501Y0040375D01*
X0242884Y0040375D01*
X0242300Y0040133D01*
X0242300Y0040347D01*
X0243300Y0041347D01*
X0243300Y0083253D01*
X0241953Y0084600D01*
X0233953Y0092600D01*
X0216953Y0092600D01*
X0216115Y0093438D01*
X0218739Y0093438D01*
X0219618Y0094316D01*
X0219618Y0095000D01*
X0225633Y0095000D01*
X0226131Y0094502D01*
X0227344Y0094000D01*
X0228656Y0094000D01*
X0229869Y0094502D01*
X0230798Y0095431D01*
X0231300Y0096644D01*
X0231300Y0097956D01*
X0230798Y0099169D01*
X0229869Y0100098D01*
X0228656Y0100600D01*
X0227344Y0100600D01*
X0227300Y0100582D01*
X0227300Y0114347D01*
X0228953Y0116000D01*
X0246953Y0116000D01*
X0248300Y0117347D01*
X0251253Y0120300D01*
X0253395Y0120300D01*
X0255049Y0120985D01*
X0256315Y0122251D01*
X0257000Y0123905D01*
X0257000Y0125695D01*
X0256315Y0127349D01*
X0255049Y0128615D01*
X0253395Y0129300D01*
X0245605Y0129300D01*
X0243951Y0128615D01*
X0242685Y0127349D01*
X0242000Y0125695D01*
X0242000Y0123905D01*
X0242685Y0122251D01*
X0243951Y0120985D01*
X0244881Y0120600D01*
X0228953Y0120600D01*
X0227335Y0122217D01*
X0230295Y0122217D01*
X0231173Y0123096D01*
X0231173Y0126504D01*
X0230694Y0126984D01*
X0230694Y0132616D01*
X0231173Y0133096D01*
X0231173Y0136504D01*
X0230295Y0137383D01*
X0227335Y0137383D01*
X0227953Y0138000D01*
X0243047Y0138000D01*
X0243192Y0137856D01*
X0242685Y0137349D01*
X0242000Y0135695D01*
X0242000Y0133905D01*
X0242685Y0132251D01*
X0243951Y0130985D01*
X0245605Y0130300D01*
X0253395Y0130300D01*
X0255049Y0130985D01*
X0256315Y0132251D01*
X0257000Y0133905D01*
X0257000Y0135695D01*
X0256315Y0137349D01*
X0255049Y0138615D01*
X0253395Y0139300D01*
X0248253Y0139300D01*
X0246300Y0141253D01*
X0244953Y0142600D01*
X0226300Y0142600D01*
X0226300Y0145753D01*
X0224953Y0147100D01*
X0222453Y0149600D01*
X0219618Y0149600D01*
X0219618Y0150284D01*
X0219300Y0150602D01*
X0219300Y0154333D01*
X0220131Y0153502D01*
X0221344Y0153000D01*
X0222656Y0153000D01*
X0223869Y0153502D01*
X0224798Y0154431D01*
X0225300Y0155644D01*
X0225300Y0156956D01*
X0224798Y0158169D01*
X0223869Y0159098D01*
X0222656Y0159600D01*
X0221953Y0159600D01*
X0218020Y0163532D01*
X0216673Y0164880D01*
X0177378Y0164880D01*
X0177378Y0166169D01*
X0178074Y0167000D01*
X0178656Y0167000D01*
X0179869Y0167502D01*
X0180798Y0168431D01*
X0181300Y0169644D01*
X0181300Y0170956D01*
X0180798Y0172169D01*
X0179869Y0173098D01*
X0178656Y0173600D01*
X0177344Y0173600D01*
X0176131Y0173098D01*
X0175202Y0172169D01*
X0174700Y0170956D01*
X0174700Y0170136D01*
X0172349Y0167328D01*
X0170532Y0167328D01*
X0169654Y0166449D01*
X0169654Y0156151D01*
X0170532Y0155272D01*
X0172452Y0155272D01*
X0172563Y0155161D01*
X0212886Y0155161D01*
X0214700Y0153347D01*
X0214700Y0151162D01*
X0214347Y0151162D01*
X0213469Y0150284D01*
X0213469Y0144316D01*
X0214347Y0143438D01*
X0216899Y0143438D01*
X0216700Y0142956D01*
X0216700Y0142253D01*
X0216047Y0141600D01*
X0215610Y0141162D01*
X0214347Y0141162D01*
X0213469Y0140284D01*
X0213469Y0134316D01*
X0214243Y0133542D01*
X0214243Y0131058D01*
X0213469Y0130284D01*
X0213469Y0124316D01*
X0214347Y0123438D01*
X0218739Y0123438D01*
X0219618Y0124316D01*
X0219618Y0129301D01*
X0220344Y0129000D01*
X0221047Y0129000D01*
X0222047Y0128000D01*
X0226094Y0128000D01*
X0226094Y0127383D01*
X0222753Y0127383D01*
X0221874Y0126504D01*
X0221874Y0123096D01*
X0222700Y0122270D01*
X0222700Y0120347D01*
X0224047Y0119000D01*
X0224747Y0118300D01*
X0222700Y0116253D01*
X0222700Y0109168D01*
X0221656Y0109600D01*
X0219618Y0109600D01*
X0219618Y0110284D01*
X0218843Y0111058D01*
X0218843Y0113542D01*
X0219618Y0114316D01*
X0219618Y0120284D01*
X0218739Y0121162D01*
X0214347Y0121162D01*
X0213469Y0120284D01*
X0213469Y0114316D01*
X0214243Y0113542D01*
X0214243Y0113309D01*
X0213953Y0113600D01*
X0212531Y0115021D01*
X0212531Y0120284D01*
X0211757Y0121058D01*
X0211757Y0123542D01*
X0212531Y0124316D01*
X0212531Y0130284D01*
X0211653Y0131162D01*
X0209101Y0131162D01*
X0209300Y0131644D01*
X0209300Y0132956D01*
X0209101Y0133438D01*
X0211653Y0133438D01*
X0212531Y0134316D01*
X0212531Y0140284D01*
X0211757Y0141058D01*
X0211757Y0143542D01*
X0212531Y0144316D01*
X0212531Y0150284D01*
X0211653Y0151162D01*
X0207261Y0151162D01*
X0206382Y0150284D01*
X0206382Y0144316D01*
X0207157Y0143542D01*
X0207157Y0141058D01*
X0206382Y0140284D01*
X0206382Y0139600D01*
X0204618Y0139600D01*
X0204618Y0140284D01*
X0203739Y0141162D01*
X0199347Y0141162D01*
X0198469Y0140284D01*
X0198469Y0134316D01*
X0199347Y0133438D01*
X0202899Y0133438D01*
X0202700Y0132956D01*
X0202700Y0132253D01*
X0201610Y0131162D01*
X0199347Y0131162D01*
X0198469Y0130284D01*
X0198469Y0124316D01*
X0199243Y0123542D01*
X0199243Y0121058D01*
X0198469Y0120284D01*
X0198469Y0116541D01*
X0197531Y0117478D01*
X0197531Y0120284D01*
X0196653Y0121162D01*
X0192261Y0121162D01*
X0191382Y0120284D01*
X0191382Y0119600D01*
X0189618Y0119600D01*
X0189618Y0120284D01*
X0188739Y0121162D01*
X0184347Y0121162D01*
X0183469Y0120284D01*
X0183469Y0114316D01*
X0184347Y0113438D01*
X0188739Y0113438D01*
X0189618Y0114316D01*
X0189618Y0115000D01*
X0191382Y0115000D01*
X0191382Y0114316D01*
X0192261Y0113438D01*
X0195066Y0113438D01*
X0195700Y0112804D01*
X0195700Y0111162D01*
X0192261Y0111162D01*
X0191382Y0110284D01*
X0191382Y0109600D01*
X0189618Y0109600D01*
X0189618Y0110284D01*
X0188739Y0111162D01*
X0184347Y0111162D01*
X0183469Y0110284D01*
X0183469Y0107478D01*
X0182531Y0106541D01*
X0182531Y0110284D01*
X0181757Y0111058D01*
X0181757Y0113542D01*
X0182531Y0114316D01*
X0182531Y0120284D01*
X0181653Y0121162D01*
X0179425Y0121162D01*
X0179462Y0121250D01*
X0179600Y0121945D01*
X0179600Y0122300D01*
X0179600Y0122655D01*
X0179462Y0123350D01*
X0179425Y0123438D01*
X0181653Y0123438D01*
X0182531Y0124316D01*
X0182531Y0128059D01*
X0183469Y0127122D01*
X0183469Y0124316D01*
X0184347Y0123438D01*
X0188739Y0123438D01*
X0189618Y0124316D01*
X0189618Y0125000D01*
X0191382Y0125000D01*
X0191382Y0124316D01*
X0192261Y0123438D01*
X0196653Y0123438D01*
X0197531Y0124316D01*
X0197531Y0130284D01*
X0196653Y0131162D01*
X0192261Y0131162D01*
X0191382Y0130284D01*
X0191382Y0129600D01*
X0189618Y0129600D01*
X0189618Y0130284D01*
X0188739Y0131162D01*
X0185934Y0131162D01*
X0185300Y0131796D01*
X0185300Y0133438D01*
X0188739Y0133438D01*
X0189618Y0134316D01*
X0189618Y0135000D01*
X0191382Y0135000D01*
X0191382Y0134316D01*
X0192261Y0133438D01*
X0196653Y0133438D01*
X0197531Y0134316D01*
X0197531Y0140284D01*
X0196653Y0141162D01*
X0192261Y0141162D01*
X0191382Y0140284D01*
X0191382Y0139600D01*
X0189618Y0139600D01*
X0189618Y0140284D01*
X0189300Y0140602D01*
X0189300Y0145253D01*
X0187953Y0146600D01*
X0187232Y0147320D01*
X0177378Y0147320D01*
X0177378Y0148448D01*
X0177555Y0148755D01*
X0177678Y0149213D01*
X0177678Y0150139D01*
X0177678Y0151065D01*
X0177555Y0151522D01*
X0177318Y0151933D01*
X0176983Y0152268D01*
X0176573Y0152505D01*
X0176115Y0152628D01*
X0173516Y0152628D01*
X0173516Y0150139D01*
X0173516Y0150139D01*
X0177678Y0150139D01*
X0173516Y0150139D01*
X0173516Y0150139D01*
X0173516Y0152628D01*
X0170917Y0152628D01*
X0170459Y0152505D01*
X0170048Y0152268D01*
X0169713Y0151933D01*
X0169476Y0151522D01*
X0169354Y0151065D01*
X0169354Y0150139D01*
X0173516Y0150139D01*
X0173354Y0150300D01*
X0169000Y0150300D01*
X0168000Y0149300D01*
X0169354Y0149213D02*
X0169476Y0148755D01*
X0169654Y0148448D01*
X0169654Y0141151D01*
X0170532Y0140272D01*
X0172452Y0140272D01*
X0172563Y0140161D01*
X0176382Y0140161D01*
X0176382Y0135543D01*
X0176190Y0136005D01*
X0175796Y0136595D01*
X0175295Y0137096D01*
X0174705Y0137490D01*
X0174050Y0137762D01*
X0173355Y0137900D01*
X0173000Y0137900D01*
X0173000Y0134300D01*
X0173000Y0134300D01*
X0173000Y0137900D01*
X0172645Y0137900D01*
X0171950Y0137762D01*
X0171295Y0137490D01*
X0170705Y0137096D01*
X0170204Y0136595D01*
X0169810Y0136005D01*
X0169538Y0135350D01*
X0169400Y0134655D01*
X0169400Y0134300D01*
X0173000Y0134300D01*
X0173000Y0134300D01*
X0169400Y0134300D01*
X0169400Y0133945D01*
X0169538Y0133250D01*
X0169810Y0132595D01*
X0170204Y0132005D01*
X0170705Y0131504D01*
X0171216Y0131162D01*
X0169347Y0131162D01*
X0168469Y0130284D01*
X0168469Y0124518D01*
X0167531Y0125455D01*
X0167531Y0130284D01*
X0166653Y0131162D01*
X0165300Y0131162D01*
X0165300Y0148253D01*
X0163953Y0149600D01*
X0161114Y0152439D01*
X0149532Y0152439D01*
X0149421Y0152328D01*
X0147501Y0152328D01*
X0146622Y0151449D01*
X0146622Y0148200D01*
X0145656Y0148600D01*
X0144344Y0148600D01*
X0143131Y0148098D01*
X0142202Y0147169D01*
X0141963Y0146590D01*
X0119300Y0169253D01*
X0117953Y0170600D01*
X0094702Y0170600D01*
X0094645Y0170736D01*
X0093436Y0171945D01*
X0091855Y0172600D01*
X0090145Y0172600D01*
X0088564Y0171945D01*
X0087355Y0170736D01*
X0086700Y0169155D01*
X0086700Y0167445D01*
X0087355Y0165864D01*
X0088564Y0164655D01*
X0090145Y0164000D01*
X0091855Y0164000D01*
X0093436Y0164655D01*
X0094645Y0165864D01*
X0094702Y0166000D01*
X0116047Y0166000D01*
X0131698Y0150349D01*
X0129203Y0150349D01*
X0122300Y0157253D01*
X0120953Y0158600D01*
X0077953Y0158600D01*
X0070300Y0166253D01*
X0068953Y0167600D01*
X0058047Y0167600D01*
X0047047Y0156600D01*
X0045700Y0155253D01*
X0045700Y0085347D01*
X0070200Y0060847D01*
X0070200Y0060144D01*
X0070702Y0058931D01*
X0071631Y0058002D01*
X0072844Y0057500D01*
X0074156Y0057500D01*
X0075369Y0058002D01*
X0076298Y0058931D01*
X0076800Y0060144D01*
X0076800Y0061456D01*
X0076298Y0062669D01*
X0075369Y0063598D01*
X0074156Y0064100D01*
X0073453Y0064100D01*
X0050300Y0087253D01*
X0050300Y0153347D01*
X0059953Y0163000D01*
X0067047Y0163000D01*
X0076047Y0154000D01*
X0119047Y0154000D01*
X0123949Y0149098D01*
X0123949Y0141129D01*
X0124827Y0140251D01*
X0132369Y0140251D01*
X0133248Y0141129D01*
X0133248Y0148799D01*
X0138700Y0143347D01*
X0138700Y0141115D01*
X0138653Y0141162D01*
X0134261Y0141162D01*
X0133382Y0140284D01*
X0133382Y0134316D01*
X0134157Y0133542D01*
X0134157Y0131058D01*
X0133382Y0130284D01*
X0133382Y0124316D01*
X0134261Y0123438D01*
X0138653Y0123438D01*
X0139531Y0124316D01*
X0139531Y0130284D01*
X0138757Y0131058D01*
X0138757Y0133542D01*
X0139531Y0134316D01*
X0139531Y0136516D01*
X0139700Y0136347D01*
X0140469Y0135579D01*
X0140469Y0134316D01*
X0141347Y0133438D01*
X0145739Y0133438D01*
X0146618Y0134316D01*
X0146618Y0140284D01*
X0145739Y0141162D01*
X0143300Y0141162D01*
X0143300Y0142432D01*
X0144344Y0142000D01*
X0145656Y0142000D01*
X0146622Y0142400D01*
X0146622Y0141151D01*
X0147501Y0140272D01*
X0148184Y0140272D01*
X0148184Y0140125D01*
X0147700Y0138956D01*
X0147700Y0137644D01*
X0148202Y0136431D01*
X0149131Y0135502D01*
X0150344Y0135000D01*
X0150447Y0135000D01*
X0149047Y0133600D01*
X0147700Y0132253D01*
X0147700Y0131162D01*
X0147261Y0131162D01*
X0146500Y0130402D01*
X0145739Y0131162D01*
X0141347Y0131162D01*
X0140469Y0130284D01*
X0140469Y0124316D01*
X0141347Y0123438D01*
X0145739Y0123438D01*
X0146500Y0124198D01*
X0147261Y0123438D01*
X0149175Y0123438D01*
X0149700Y0122913D01*
X0149700Y0121644D01*
X0149899Y0121162D01*
X0147261Y0121162D01*
X0146500Y0120402D01*
X0145739Y0121162D01*
X0141347Y0121162D01*
X0140469Y0120284D01*
X0140469Y0114316D01*
X0141347Y0113438D01*
X0145739Y0113438D01*
X0146500Y0114198D01*
X0147261Y0113438D01*
X0147557Y0113438D01*
X0147557Y0108544D01*
X0146618Y0107605D01*
X0146618Y0110284D01*
X0145739Y0111162D01*
X0141347Y0111162D01*
X0140469Y0110284D01*
X0140469Y0109021D01*
X0140047Y0108600D01*
X0139531Y0108084D01*
X0139531Y0110284D01*
X0138757Y0111058D01*
X0138757Y0113542D01*
X0139531Y0114316D01*
X0139531Y0120284D01*
X0138653Y0121162D01*
X0134261Y0121162D01*
X0133382Y0120284D01*
X0133382Y0117619D01*
X0133188Y0117954D01*
X0132853Y0118290D01*
X0132443Y0118527D01*
X0131985Y0118649D01*
X0131016Y0118649D01*
X0131798Y0119431D01*
X0132300Y0120644D01*
X0132300Y0121956D01*
X0131798Y0123169D01*
X0131300Y0123667D01*
X0131300Y0124251D01*
X0132369Y0124251D01*
X0133248Y0125129D01*
X0133248Y0133471D01*
X0132369Y0134349D01*
X0124827Y0134349D01*
X0123949Y0133471D01*
X0123949Y0125129D01*
X0124827Y0124251D01*
X0126700Y0124251D01*
X0126700Y0123667D01*
X0126202Y0123169D01*
X0125700Y0121956D01*
X0125700Y0120644D01*
X0126202Y0119431D01*
X0126984Y0118649D01*
X0125212Y0118649D01*
X0124754Y0118527D01*
X0124344Y0118290D01*
X0124008Y0117954D01*
X0123771Y0117544D01*
X0123649Y0117086D01*
X0123649Y0114075D01*
X0127824Y0114075D01*
X0127824Y0112525D01*
X0129373Y0112525D01*
X0129373Y0107951D01*
X0131985Y0107951D01*
X0132443Y0108073D01*
X0132853Y0108310D01*
X0133188Y0108646D01*
X0133382Y0108981D01*
X0133382Y0104316D01*
X0134261Y0103438D01*
X0138653Y0103438D01*
X0138700Y0101014D02*
X0133248Y0101014D01*
X0137552Y0099415D02*
X0138700Y0099415D01*
X0138700Y0097817D02*
X0138300Y0097817D01*
X0141000Y0096300D02*
X0120000Y0075300D01*
X0091000Y0075300D01*
X0094022Y0072240D02*
X0114476Y0072240D01*
X0112984Y0070642D02*
X0066911Y0070642D01*
X0068509Y0069043D02*
X0112700Y0069043D01*
X0113197Y0067445D02*
X0070108Y0067445D01*
X0071706Y0065846D02*
X0114029Y0065846D01*
X0111579Y0064248D02*
X0073305Y0064248D01*
X0076306Y0062649D02*
X0111476Y0062649D01*
X0111476Y0061051D02*
X0076800Y0061051D01*
X0076514Y0059452D02*
X0106485Y0059452D01*
X0105700Y0057854D02*
X0075011Y0057854D01*
X0071989Y0057854D02*
X0066649Y0057854D01*
X0067116Y0058982D02*
X0066077Y0056473D01*
X0064157Y0054553D01*
X0061649Y0053514D01*
X0058934Y0053514D01*
X0056425Y0054553D01*
X0054505Y0056473D01*
X0053466Y0058982D01*
X0053466Y0061697D01*
X0054505Y0064205D01*
X0056425Y0066125D01*
X0058934Y0067164D01*
X0061649Y0067164D01*
X0064157Y0066125D01*
X0066077Y0064205D01*
X0067116Y0061697D01*
X0067116Y0058982D01*
X0067116Y0059452D02*
X0070486Y0059452D01*
X0069996Y0061051D02*
X0067116Y0061051D01*
X0066722Y0062649D02*
X0068398Y0062649D01*
X0066799Y0064248D02*
X0066035Y0064248D01*
X0065201Y0065846D02*
X0064436Y0065846D01*
X0063602Y0067445D02*
X0043000Y0067445D01*
X0043000Y0069043D02*
X0062004Y0069043D01*
X0060405Y0070642D02*
X0043000Y0070642D01*
X0043000Y0072240D02*
X0058807Y0072240D01*
X0057208Y0073839D02*
X0043000Y0073839D01*
X0043000Y0075437D02*
X0055610Y0075437D01*
X0054011Y0077036D02*
X0043000Y0077036D01*
X0043000Y0078634D02*
X0052413Y0078634D01*
X0050814Y0080233D02*
X0043000Y0080233D01*
X0043000Y0081832D02*
X0049216Y0081832D01*
X0047617Y0083430D02*
X0043000Y0083430D01*
X0043000Y0085029D02*
X0046019Y0085029D01*
X0045700Y0086627D02*
X0043000Y0086627D01*
X0043000Y0088226D02*
X0045700Y0088226D01*
X0045700Y0089824D02*
X0043000Y0089824D01*
X0043000Y0091423D02*
X0045700Y0091423D01*
X0045700Y0093021D02*
X0043000Y0093021D01*
X0043000Y0094620D02*
X0045700Y0094620D01*
X0045700Y0096218D02*
X0043000Y0096218D01*
X0043000Y0097817D02*
X0045700Y0097817D01*
X0045700Y0099415D02*
X0043000Y0099415D01*
X0043000Y0101014D02*
X0045700Y0101014D01*
X0045700Y0102612D02*
X0043000Y0102612D01*
X0043000Y0104211D02*
X0045700Y0104211D01*
X0045700Y0105809D02*
X0043000Y0105809D01*
X0043000Y0107408D02*
X0045700Y0107408D01*
X0045700Y0109006D02*
X0043000Y0109006D01*
X0043000Y0110605D02*
X0045700Y0110605D01*
X0045700Y0112203D02*
X0043000Y0112203D01*
X0043000Y0113802D02*
X0045700Y0113802D01*
X0045700Y0115400D02*
X0043000Y0115400D01*
X0043000Y0116999D02*
X0045700Y0116999D01*
X0045700Y0118597D02*
X0043000Y0118597D01*
X0043000Y0120196D02*
X0045700Y0120196D01*
X0045700Y0121794D02*
X0043000Y0121794D01*
X0043000Y0123393D02*
X0045700Y0123393D01*
X0045700Y0124991D02*
X0043000Y0124991D01*
X0043000Y0126590D02*
X0045700Y0126590D01*
X0045700Y0128188D02*
X0043000Y0128188D01*
X0043000Y0129787D02*
X0045700Y0129787D01*
X0045700Y0131385D02*
X0043000Y0131385D01*
X0043000Y0132984D02*
X0045700Y0132984D01*
X0045700Y0134582D02*
X0043000Y0134582D01*
X0043000Y0136181D02*
X0045700Y0136181D01*
X0045700Y0137779D02*
X0043000Y0137779D01*
X0043000Y0139378D02*
X0045700Y0139378D01*
X0045700Y0140976D02*
X0043000Y0140976D01*
X0043000Y0142575D02*
X0045700Y0142575D01*
X0045700Y0144173D02*
X0043000Y0144173D01*
X0043000Y0145772D02*
X0045700Y0145772D01*
X0045700Y0147370D02*
X0043000Y0147370D01*
X0043000Y0148969D02*
X0045700Y0148969D01*
X0045700Y0150568D02*
X0043000Y0150568D01*
X0043000Y0152166D02*
X0045700Y0152166D01*
X0045700Y0153765D02*
X0043000Y0153765D01*
X0043000Y0155363D02*
X0045810Y0155363D01*
X0047409Y0156962D02*
X0043000Y0156962D01*
X0043000Y0158560D02*
X0049007Y0158560D01*
X0050606Y0160159D02*
X0043000Y0160159D01*
X0043000Y0161757D02*
X0052204Y0161757D01*
X0053803Y0163356D02*
X0043000Y0163356D01*
X0043000Y0164954D02*
X0055401Y0164954D01*
X0057000Y0166553D02*
X0043000Y0166553D01*
X0043000Y0168151D02*
X0086700Y0168151D01*
X0086946Y0169750D02*
X0043000Y0169750D01*
X0043000Y0171348D02*
X0087967Y0171348D01*
X0091000Y0168300D02*
X0117000Y0168300D01*
X0141000Y0144300D01*
X0141000Y0138300D01*
X0142000Y0137300D01*
X0143543Y0137300D01*
X0146618Y0137779D02*
X0147700Y0137779D01*
X0147875Y0139378D02*
X0146618Y0139378D01*
X0146797Y0140976D02*
X0145925Y0140976D01*
X0150484Y0142461D02*
X0150484Y0138816D01*
X0151000Y0138300D01*
X0148452Y0136181D02*
X0146618Y0136181D01*
X0146618Y0134582D02*
X0150030Y0134582D01*
X0148431Y0132984D02*
X0138757Y0132984D01*
X0138757Y0131385D02*
X0147700Y0131385D01*
X0150000Y0131300D02*
X0150000Y0127843D01*
X0149457Y0127300D01*
X0143543Y0127300D01*
X0140469Y0126590D02*
X0139531Y0126590D01*
X0139531Y0128188D02*
X0140469Y0128188D01*
X0140469Y0129787D02*
X0139531Y0129787D01*
X0136457Y0127300D02*
X0136457Y0137300D01*
X0133382Y0137779D02*
X0105300Y0137779D01*
X0105300Y0136181D02*
X0133382Y0136181D01*
X0133382Y0134582D02*
X0105300Y0134582D01*
X0105300Y0132984D02*
X0107169Y0132984D01*
X0107347Y0133162D02*
X0106469Y0132284D01*
X0106469Y0126316D01*
X0107347Y0125438D01*
X0111739Y0125438D01*
X0112618Y0126316D01*
X0112618Y0127000D01*
X0112752Y0127000D01*
X0112752Y0125129D01*
X0113631Y0124251D01*
X0121173Y0124251D01*
X0122051Y0125129D01*
X0122051Y0133471D01*
X0121173Y0134349D01*
X0113631Y0134349D01*
X0112752Y0133471D01*
X0112752Y0131600D01*
X0112618Y0131600D01*
X0112618Y0132284D01*
X0111739Y0133162D01*
X0107347Y0133162D01*
X0106469Y0131385D02*
X0105531Y0131385D01*
X0105531Y0129787D02*
X0106469Y0129787D01*
X0106469Y0128188D02*
X0105531Y0128188D01*
X0105531Y0126590D02*
X0106469Y0126590D01*
X0104757Y0124991D02*
X0112890Y0124991D01*
X0112752Y0126590D02*
X0112618Y0126590D01*
X0109543Y0129300D02*
X0117402Y0129300D01*
X0122051Y0129787D02*
X0123949Y0129787D01*
X0123949Y0131385D02*
X0122051Y0131385D01*
X0122051Y0132984D02*
X0123949Y0132984D01*
X0128598Y0129300D02*
X0129000Y0129300D01*
X0129000Y0121300D01*
X0132115Y0120196D02*
X0133382Y0120196D01*
X0133382Y0118597D02*
X0132179Y0118597D01*
X0132300Y0121794D02*
X0149700Y0121794D01*
X0149220Y0123393D02*
X0131574Y0123393D01*
X0133110Y0124991D02*
X0133382Y0124991D01*
X0133382Y0126590D02*
X0133248Y0126590D01*
X0133248Y0128188D02*
X0133382Y0128188D01*
X0133382Y0129787D02*
X0133248Y0129787D01*
X0133248Y0131385D02*
X0134157Y0131385D01*
X0134157Y0132984D02*
X0133248Y0132984D01*
X0139531Y0134582D02*
X0140469Y0134582D01*
X0139866Y0136181D02*
X0139531Y0136181D01*
X0139700Y0136347D02*
X0139700Y0136347D01*
X0138700Y0142575D02*
X0133248Y0142575D01*
X0133248Y0144173D02*
X0137874Y0144173D01*
X0136275Y0145772D02*
X0133248Y0145772D01*
X0133248Y0147370D02*
X0134677Y0147370D01*
X0137985Y0150568D02*
X0146622Y0150568D01*
X0146622Y0148969D02*
X0139584Y0148969D01*
X0141182Y0147370D02*
X0142404Y0147370D01*
X0147339Y0152166D02*
X0136387Y0152166D01*
X0134788Y0153765D02*
X0214283Y0153765D01*
X0214700Y0152166D02*
X0177085Y0152166D01*
X0177678Y0150568D02*
X0206666Y0150568D01*
X0206382Y0148969D02*
X0177613Y0148969D01*
X0177378Y0147370D02*
X0206382Y0147370D01*
X0206382Y0145772D02*
X0188781Y0145772D01*
X0189300Y0144173D02*
X0206525Y0144173D01*
X0207157Y0142575D02*
X0189300Y0142575D01*
X0189300Y0140976D02*
X0192075Y0140976D01*
X0194457Y0137300D02*
X0186543Y0137300D01*
X0187000Y0137757D01*
X0187000Y0144300D01*
X0186280Y0145020D01*
X0173516Y0145020D01*
X0173516Y0147580D01*
X0173516Y0150139D02*
X0169354Y0150139D01*
X0169354Y0149213D01*
X0169419Y0148969D02*
X0164584Y0148969D01*
X0165300Y0147370D02*
X0169654Y0147370D01*
X0169654Y0145772D02*
X0165300Y0145772D01*
X0165300Y0144173D02*
X0169654Y0144173D01*
X0169654Y0142575D02*
X0165300Y0142575D01*
X0165300Y0140976D02*
X0169828Y0140976D01*
X0173516Y0142461D02*
X0181839Y0142461D01*
X0183000Y0141300D01*
X0183000Y0130843D01*
X0186543Y0127300D01*
X0194457Y0127300D01*
X0197531Y0126590D02*
X0198469Y0126590D01*
X0198469Y0128188D02*
X0197531Y0128188D01*
X0197531Y0129787D02*
X0198469Y0129787D01*
X0201543Y0127843D02*
X0206000Y0132300D01*
X0209193Y0131385D02*
X0214243Y0131385D01*
X0214243Y0132984D02*
X0209289Y0132984D01*
X0212531Y0134582D02*
X0213469Y0134582D01*
X0213469Y0136181D02*
X0212531Y0136181D01*
X0212531Y0137779D02*
X0213469Y0137779D01*
X0213469Y0139378D02*
X0212531Y0139378D01*
X0211839Y0140976D02*
X0214161Y0140976D01*
X0211757Y0142575D02*
X0216700Y0142575D01*
X0217000Y0139300D02*
X0217000Y0137757D01*
X0216543Y0137300D01*
X0216000Y0137843D01*
X0216543Y0137300D02*
X0216543Y0127300D01*
X0213469Y0126590D02*
X0212531Y0126590D01*
X0212531Y0128188D02*
X0213469Y0128188D01*
X0213469Y0129787D02*
X0212531Y0129787D01*
X0209457Y0127300D02*
X0209457Y0117300D01*
X0209457Y0114843D01*
X0213000Y0111300D01*
X0213000Y0093300D01*
X0216000Y0090300D01*
X0233000Y0090300D01*
X0241000Y0082300D01*
X0241000Y0042300D01*
X0240000Y0041300D01*
X0240000Y0037300D01*
X0236307Y0037300D02*
X0235575Y0038032D01*
X0235575Y0061371D01*
X0232088Y0064248D02*
X0229062Y0064248D01*
X0230075Y0063235D02*
X0227439Y0065871D01*
X0223711Y0065871D01*
X0221075Y0063235D01*
X0221075Y0059507D01*
X0223711Y0056871D01*
X0227439Y0056871D01*
X0230075Y0059507D01*
X0230075Y0063235D01*
X0230075Y0062649D02*
X0231075Y0062649D01*
X0231075Y0061051D02*
X0230075Y0061051D01*
X0230020Y0059452D02*
X0231130Y0059452D01*
X0232728Y0057854D02*
X0228422Y0057854D01*
X0233275Y0056255D02*
X0197800Y0056255D01*
X0197800Y0054657D02*
X0233275Y0054657D01*
X0233275Y0053058D02*
X0197800Y0053058D01*
X0197800Y0051460D02*
X0233275Y0051460D01*
X0233275Y0049861D02*
X0197800Y0049861D01*
X0197800Y0048263D02*
X0233275Y0048263D01*
X0233275Y0046664D02*
X0197800Y0046664D01*
X0197800Y0045066D02*
X0233275Y0045066D01*
X0233275Y0043467D02*
X0197800Y0043467D01*
X0199003Y0041869D02*
X0233275Y0041869D01*
X0233275Y0040270D02*
X0199300Y0040270D01*
X0199300Y0038672D02*
X0233275Y0038672D01*
X0233035Y0037073D02*
X0199300Y0037073D01*
X0199300Y0035475D02*
X0233587Y0035475D01*
X0238499Y0033876D02*
X0199148Y0033876D01*
X0199136Y0030300D02*
X0196500Y0027664D01*
X0196500Y0023936D01*
X0199136Y0021300D01*
X0202864Y0021300D01*
X0205500Y0023936D01*
X0205500Y0027664D01*
X0202864Y0030300D01*
X0199136Y0030300D01*
X0197917Y0029081D02*
X0194083Y0029081D01*
X0192864Y0030300D02*
X0195500Y0027664D01*
X0195500Y0023936D01*
X0192864Y0021300D01*
X0189136Y0021300D01*
X0186500Y0023936D01*
X0186500Y0027664D01*
X0189136Y0030300D01*
X0192864Y0030300D01*
X0187917Y0029081D02*
X0184083Y0029081D01*
X0182864Y0030300D02*
X0179136Y0030300D01*
X0176500Y0027664D01*
X0176500Y0023936D01*
X0179136Y0021300D01*
X0182864Y0021300D01*
X0185500Y0023936D01*
X0185500Y0027664D01*
X0182864Y0030300D01*
X0185852Y0033876D02*
X0137488Y0033876D01*
X0137500Y0035475D02*
X0185700Y0035475D01*
X0185700Y0037073D02*
X0137500Y0037073D01*
X0137500Y0038672D02*
X0185700Y0038672D01*
X0184343Y0040270D02*
X0137500Y0040270D01*
X0137428Y0041869D02*
X0182744Y0041869D01*
X0181146Y0043467D02*
X0136697Y0043467D01*
X0134461Y0045066D02*
X0179547Y0045066D01*
X0189500Y0040800D02*
X0189500Y0037800D01*
X0195500Y0037800D02*
X0195500Y0061371D01*
X0195575Y0061371D01*
X0192088Y0064248D02*
X0187300Y0064248D01*
X0186931Y0065846D02*
X0193687Y0065846D01*
X0193711Y0066871D02*
X0197439Y0066871D01*
X0200075Y0069507D01*
X0200075Y0073235D01*
X0197439Y0075871D01*
X0193711Y0075871D01*
X0191075Y0073235D01*
X0191075Y0069507D01*
X0193711Y0066871D01*
X0193137Y0067445D02*
X0185031Y0067445D01*
X0181944Y0069043D02*
X0191538Y0069043D01*
X0191075Y0070642D02*
X0180345Y0070642D01*
X0172747Y0072240D02*
X0191075Y0072240D01*
X0191679Y0073839D02*
X0171148Y0073839D01*
X0169900Y0075437D02*
X0193278Y0075437D01*
X0197872Y0075437D02*
X0203278Y0075437D01*
X0203711Y0075871D02*
X0201075Y0073235D01*
X0201075Y0069507D01*
X0203711Y0066871D01*
X0207439Y0066871D01*
X0210075Y0069507D01*
X0210075Y0073235D01*
X0207439Y0075871D01*
X0203711Y0075871D01*
X0201679Y0073839D02*
X0199471Y0073839D01*
X0200075Y0072240D02*
X0201075Y0072240D01*
X0201075Y0070642D02*
X0200075Y0070642D01*
X0199612Y0069043D02*
X0201538Y0069043D01*
X0203137Y0067445D02*
X0198013Y0067445D01*
X0197463Y0065846D02*
X0203687Y0065846D01*
X0203711Y0065871D02*
X0201075Y0063235D01*
X0201075Y0059507D01*
X0203711Y0056871D01*
X0207439Y0056871D01*
X0210075Y0059507D01*
X0210075Y0063235D01*
X0207439Y0065871D01*
X0203711Y0065871D01*
X0202088Y0064248D02*
X0199062Y0064248D01*
X0200075Y0062649D02*
X0201075Y0062649D01*
X0201075Y0061051D02*
X0200075Y0061051D01*
X0200020Y0059452D02*
X0201130Y0059452D01*
X0202728Y0057854D02*
X0198422Y0057854D01*
X0191075Y0062649D02*
X0186888Y0062649D01*
X0181743Y0077036D02*
X0238700Y0077036D01*
X0238700Y0078634D02*
X0183882Y0078634D01*
X0184300Y0080233D02*
X0238700Y0080233D01*
X0238216Y0081832D02*
X0183937Y0081832D01*
X0182695Y0083430D02*
X0236617Y0083430D01*
X0235019Y0085029D02*
X0184045Y0085029D01*
X0184300Y0086627D02*
X0233420Y0086627D01*
X0236729Y0089824D02*
X0280000Y0089824D01*
X0280000Y0088226D02*
X0238327Y0088226D01*
X0239926Y0086627D02*
X0249893Y0086627D01*
X0249832Y0086399D02*
X0249832Y0083800D01*
X0249832Y0081201D01*
X0249955Y0080743D01*
X0250192Y0080333D01*
X0250527Y0079997D01*
X0250846Y0079813D01*
X0250202Y0079169D01*
X0249700Y0077956D01*
X0249700Y0076644D01*
X0250202Y0075431D01*
X0250208Y0075425D01*
X0249791Y0075008D01*
X0249791Y0068253D01*
X0250670Y0067375D01*
X0255850Y0067375D01*
X0256728Y0068253D01*
X0256728Y0075008D01*
X0255946Y0075790D01*
X0256300Y0076644D01*
X0256300Y0077956D01*
X0255798Y0079169D01*
X0255263Y0079703D01*
X0255476Y0079760D01*
X0255887Y0079997D01*
X0256222Y0080333D01*
X0256459Y0080743D01*
X0256581Y0081201D01*
X0256581Y0083800D01*
X0256581Y0086399D01*
X0256459Y0086857D01*
X0256222Y0087267D01*
X0255887Y0087603D01*
X0255476Y0087840D01*
X0255018Y0087962D01*
X0253207Y0087962D01*
X0253207Y0083800D01*
X0256581Y0083800D01*
X0253207Y0083800D01*
X0253207Y0083800D01*
X0253207Y0083800D01*
X0253207Y0087962D01*
X0251395Y0087962D01*
X0250937Y0087840D01*
X0250527Y0087603D01*
X0250192Y0087267D01*
X0249955Y0086857D01*
X0249832Y0086399D01*
X0249832Y0085029D02*
X0241524Y0085029D01*
X0243123Y0083430D02*
X0249832Y0083430D01*
X0249832Y0083800D02*
X0253207Y0083800D01*
X0253207Y0083800D01*
X0249832Y0083800D01*
X0249832Y0081832D02*
X0243300Y0081832D01*
X0243300Y0080233D02*
X0250291Y0080233D01*
X0249981Y0078634D02*
X0243300Y0078634D01*
X0243300Y0077036D02*
X0249700Y0077036D01*
X0250200Y0075437D02*
X0243300Y0075437D01*
X0243300Y0073839D02*
X0249791Y0073839D01*
X0249791Y0072240D02*
X0243300Y0072240D01*
X0243300Y0070642D02*
X0249791Y0070642D01*
X0249791Y0069043D02*
X0243300Y0069043D01*
X0243300Y0067445D02*
X0250600Y0067445D01*
X0253531Y0065846D02*
X0243300Y0065846D01*
X0243300Y0064248D02*
X0253531Y0064248D01*
X0253531Y0062649D02*
X0243300Y0062649D01*
X0243300Y0061051D02*
X0253531Y0061051D01*
X0253671Y0059452D02*
X0243300Y0059452D01*
X0243300Y0057854D02*
X0260700Y0057854D01*
X0260700Y0059452D02*
X0260329Y0059452D01*
X0260468Y0061051D02*
X0260700Y0061051D01*
X0260700Y0062649D02*
X0260468Y0062649D01*
X0260468Y0064248D02*
X0260700Y0064248D01*
X0263000Y0065300D02*
X0263000Y0045300D01*
X0255000Y0037300D01*
X0243693Y0037300D01*
X0244754Y0040270D02*
X0254718Y0040270D01*
X0256316Y0041869D02*
X0243300Y0041869D01*
X0243300Y0043467D02*
X0257915Y0043467D01*
X0259513Y0045066D02*
X0243300Y0045066D01*
X0243300Y0046664D02*
X0260700Y0046664D01*
X0260700Y0048263D02*
X0243300Y0048263D01*
X0243300Y0049861D02*
X0260700Y0049861D01*
X0260700Y0051460D02*
X0243300Y0051460D01*
X0243300Y0053058D02*
X0260700Y0053058D01*
X0260700Y0054657D02*
X0243300Y0054657D01*
X0243300Y0056255D02*
X0260700Y0056255D01*
X0265300Y0056255D02*
X0280000Y0056255D01*
X0280000Y0054657D02*
X0265300Y0054657D01*
X0265300Y0053058D02*
X0280000Y0053058D01*
X0280000Y0051460D02*
X0265300Y0051460D01*
X0265300Y0049861D02*
X0280000Y0049861D01*
X0280000Y0048263D02*
X0265300Y0048263D01*
X0265300Y0046664D02*
X0280000Y0046664D01*
X0280000Y0045066D02*
X0265300Y0045066D01*
X0264420Y0043467D02*
X0280000Y0043467D01*
X0280000Y0041869D02*
X0262821Y0041869D01*
X0261223Y0040270D02*
X0280000Y0040270D01*
X0280000Y0038672D02*
X0259624Y0038672D01*
X0258026Y0037073D02*
X0280000Y0037073D01*
X0280000Y0035475D02*
X0256427Y0035475D01*
X0259136Y0030300D02*
X0256500Y0027664D01*
X0256500Y0023936D01*
X0259136Y0021300D01*
X0262864Y0021300D01*
X0265500Y0023936D01*
X0265500Y0027664D01*
X0262864Y0030300D01*
X0259136Y0030300D01*
X0257917Y0029081D02*
X0254083Y0029081D01*
X0252864Y0030300D02*
X0249136Y0030300D01*
X0246500Y0027664D01*
X0246500Y0023936D01*
X0249136Y0021300D01*
X0252864Y0021300D01*
X0255500Y0023936D01*
X0255500Y0027664D01*
X0252864Y0030300D01*
X0255500Y0027482D02*
X0256500Y0027482D01*
X0256500Y0025884D02*
X0255500Y0025884D01*
X0255500Y0024285D02*
X0256500Y0024285D01*
X0257749Y0022687D02*
X0254251Y0022687D01*
X0252864Y0020300D02*
X0249136Y0020300D01*
X0246500Y0017664D01*
X0246500Y0013936D01*
X0249136Y0011300D01*
X0252864Y0011300D01*
X0255500Y0013936D01*
X0255500Y0017664D01*
X0252864Y0020300D01*
X0253674Y0019490D02*
X0258326Y0019490D01*
X0259136Y0020300D02*
X0256500Y0017664D01*
X0256500Y0013936D01*
X0259136Y0011300D01*
X0262864Y0011300D01*
X0265500Y0013936D01*
X0265500Y0017664D01*
X0262864Y0020300D01*
X0259136Y0020300D01*
X0256727Y0017891D02*
X0255273Y0017891D01*
X0255500Y0016293D02*
X0256500Y0016293D01*
X0256500Y0014694D02*
X0255500Y0014694D01*
X0254659Y0013096D02*
X0257341Y0013096D01*
X0258939Y0011497D02*
X0253061Y0011497D01*
X0248939Y0011497D02*
X0243061Y0011497D01*
X0242864Y0011300D02*
X0245500Y0013936D01*
X0245500Y0017664D01*
X0242864Y0020300D01*
X0239136Y0020300D01*
X0236500Y0017664D01*
X0236500Y0013936D01*
X0239136Y0011300D01*
X0242864Y0011300D01*
X0244659Y0013096D02*
X0247341Y0013096D01*
X0246500Y0014694D02*
X0245500Y0014694D01*
X0245500Y0016293D02*
X0246500Y0016293D01*
X0246727Y0017891D02*
X0245273Y0017891D01*
X0243674Y0019490D02*
X0248326Y0019490D01*
X0247749Y0022687D02*
X0244251Y0022687D01*
X0245500Y0023936D02*
X0242864Y0021300D01*
X0239136Y0021300D01*
X0236500Y0023936D01*
X0236500Y0027664D01*
X0239136Y0030300D01*
X0242864Y0030300D01*
X0245500Y0027664D01*
X0245500Y0023936D01*
X0245500Y0024285D02*
X0246500Y0024285D01*
X0246500Y0025884D02*
X0245500Y0025884D01*
X0245500Y0027482D02*
X0246500Y0027482D01*
X0247917Y0029081D02*
X0244083Y0029081D01*
X0241501Y0033876D02*
X0280000Y0033876D01*
X0280000Y0032278D02*
X0136826Y0032278D01*
X0134810Y0030679D02*
X0280000Y0030679D01*
X0280000Y0029081D02*
X0274083Y0029081D01*
X0272864Y0030300D02*
X0269136Y0030300D01*
X0266500Y0027664D01*
X0266500Y0023936D01*
X0269136Y0021300D01*
X0272864Y0021300D01*
X0275500Y0023936D01*
X0275500Y0027664D01*
X0272864Y0030300D01*
X0275500Y0027482D02*
X0280000Y0027482D01*
X0280000Y0025884D02*
X0275500Y0025884D01*
X0275500Y0024285D02*
X0280000Y0024285D01*
X0280000Y0022687D02*
X0274251Y0022687D01*
X0272864Y0020300D02*
X0269136Y0020300D01*
X0266500Y0017664D01*
X0266500Y0013936D01*
X0269136Y0011300D01*
X0272864Y0011300D01*
X0275500Y0013936D01*
X0275500Y0017664D01*
X0272864Y0020300D01*
X0273674Y0019490D02*
X0280000Y0019490D01*
X0280000Y0021088D02*
X0078300Y0021088D01*
X0076000Y0020300D02*
X0076000Y0027300D01*
X0079000Y0030300D01*
X0083000Y0030300D01*
X0087000Y0034300D01*
X0089310Y0030679D02*
X0099100Y0030679D01*
X0099100Y0032278D02*
X0091326Y0032278D01*
X0091988Y0033876D02*
X0099100Y0033876D01*
X0099100Y0035475D02*
X0092000Y0035475D01*
X0092000Y0037073D02*
X0099100Y0037073D01*
X0099100Y0038672D02*
X0092000Y0038672D01*
X0092000Y0040270D02*
X0099100Y0040270D01*
X0099100Y0041869D02*
X0091928Y0041869D01*
X0092420Y0043467D02*
X0099700Y0043467D01*
X0104309Y0040270D02*
X0108500Y0040270D01*
X0108500Y0038672D02*
X0102900Y0038672D01*
X0102900Y0037073D02*
X0108500Y0037073D01*
X0108500Y0035475D02*
X0102900Y0035475D01*
X0102900Y0033876D02*
X0108512Y0033876D01*
X0109174Y0032278D02*
X0102900Y0032278D01*
X0102900Y0030679D02*
X0111190Y0030679D01*
X0112864Y0030300D02*
X0109136Y0030300D01*
X0106500Y0027664D01*
X0106500Y0023936D01*
X0109136Y0021300D01*
X0112864Y0021300D01*
X0115500Y0023936D01*
X0115500Y0027664D01*
X0112864Y0030300D01*
X0114083Y0029081D02*
X0114532Y0029081D01*
X0115500Y0027482D02*
X0116500Y0027482D01*
X0116500Y0025884D02*
X0115500Y0025884D01*
X0115500Y0024285D02*
X0116500Y0024285D01*
X0117749Y0022687D02*
X0114251Y0022687D01*
X0112864Y0020300D02*
X0109136Y0020300D01*
X0106500Y0017664D01*
X0106500Y0013936D01*
X0109136Y0011300D01*
X0112864Y0011300D01*
X0115500Y0013936D01*
X0115500Y0017664D01*
X0112864Y0020300D01*
X0113674Y0019490D02*
X0118326Y0019490D01*
X0119136Y0020300D02*
X0116500Y0017664D01*
X0116500Y0013936D01*
X0119136Y0011300D01*
X0122864Y0011300D01*
X0125500Y0013936D01*
X0125500Y0017664D01*
X0122864Y0020300D01*
X0119136Y0020300D01*
X0116727Y0017891D02*
X0115273Y0017891D01*
X0115500Y0016293D02*
X0116500Y0016293D01*
X0116500Y0014694D02*
X0115500Y0014694D01*
X0114659Y0013096D02*
X0117341Y0013096D01*
X0118939Y0011497D02*
X0113061Y0011497D01*
X0108939Y0011497D02*
X0103061Y0011497D01*
X0102864Y0011300D02*
X0105500Y0013936D01*
X0105500Y0017664D01*
X0102864Y0020300D01*
X0099136Y0020300D01*
X0096500Y0017664D01*
X0096500Y0013936D01*
X0099136Y0011300D01*
X0102864Y0011300D01*
X0104659Y0013096D02*
X0107341Y0013096D01*
X0106500Y0014694D02*
X0105500Y0014694D01*
X0105500Y0016293D02*
X0106500Y0016293D01*
X0106727Y0017891D02*
X0105273Y0017891D01*
X0103674Y0019490D02*
X0108326Y0019490D01*
X0107749Y0022687D02*
X0104251Y0022687D01*
X0105500Y0024285D02*
X0106500Y0024285D01*
X0106500Y0025884D02*
X0105500Y0025884D01*
X0105500Y0027482D02*
X0106500Y0027482D01*
X0107917Y0029081D02*
X0104083Y0029081D01*
X0097917Y0029081D02*
X0094083Y0029081D01*
X0092864Y0030300D02*
X0095500Y0027664D01*
X0095500Y0023936D01*
X0092864Y0021300D01*
X0089136Y0021300D01*
X0086500Y0023936D01*
X0086500Y0027664D01*
X0089136Y0030300D01*
X0092864Y0030300D01*
X0087917Y0029081D02*
X0085033Y0029081D01*
X0085500Y0027482D02*
X0086500Y0027482D01*
X0086500Y0025884D02*
X0085500Y0025884D01*
X0085500Y0024285D02*
X0086500Y0024285D01*
X0087749Y0022687D02*
X0084251Y0022687D01*
X0082988Y0020600D02*
X0081200Y0020600D01*
X0081200Y0016000D01*
X0080800Y0016000D01*
X0080800Y0015600D01*
X0081200Y0015600D01*
X0081200Y0016000D01*
X0085800Y0016000D01*
X0085800Y0017788D01*
X0082988Y0020600D01*
X0084099Y0019490D02*
X0088326Y0019490D01*
X0089136Y0020300D02*
X0086500Y0017664D01*
X0086500Y0013936D01*
X0089136Y0011300D01*
X0092864Y0011300D01*
X0095500Y0013936D01*
X0095500Y0017664D01*
X0092864Y0020300D01*
X0089136Y0020300D01*
X0086727Y0017891D02*
X0085697Y0017891D01*
X0085800Y0016293D02*
X0086500Y0016293D01*
X0085800Y0015600D02*
X0081200Y0015600D01*
X0081200Y0011000D01*
X0082988Y0011000D01*
X0085800Y0013812D01*
X0085800Y0015600D01*
X0085800Y0014694D02*
X0086500Y0014694D01*
X0087341Y0013096D02*
X0085084Y0013096D01*
X0083485Y0011497D02*
X0088939Y0011497D01*
X0093061Y0011497D02*
X0098939Y0011497D01*
X0097341Y0013096D02*
X0094659Y0013096D01*
X0095500Y0014694D02*
X0096500Y0014694D01*
X0096500Y0016293D02*
X0095500Y0016293D01*
X0095273Y0017891D02*
X0096727Y0017891D01*
X0098326Y0019490D02*
X0093674Y0019490D01*
X0094251Y0022687D02*
X0097749Y0022687D01*
X0096500Y0024285D02*
X0095500Y0024285D01*
X0095500Y0025884D02*
X0096500Y0025884D01*
X0096500Y0027482D02*
X0095500Y0027482D01*
X0087000Y0037300D02*
X0087500Y0037800D01*
X0087500Y0041800D01*
X0093000Y0047300D01*
X0117000Y0047300D01*
X0118000Y0046300D01*
X0118000Y0032300D01*
X0120000Y0030300D01*
X0129000Y0030300D01*
X0133000Y0034300D01*
X0133000Y0037800D01*
X0128500Y0037073D02*
X0127500Y0037073D01*
X0127500Y0035475D02*
X0128500Y0035475D01*
X0128512Y0033876D02*
X0127488Y0033876D01*
X0127500Y0038672D02*
X0128500Y0038672D01*
X0128500Y0040270D02*
X0127500Y0040270D01*
X0127428Y0041869D02*
X0128572Y0041869D01*
X0129303Y0043467D02*
X0126697Y0043467D01*
X0125453Y0045066D02*
X0131539Y0045066D01*
X0123000Y0045300D02*
X0123000Y0037800D01*
X0132253Y0030300D02*
X0132253Y0030300D01*
X0134083Y0029081D02*
X0137917Y0029081D01*
X0139136Y0030300D02*
X0136500Y0027664D01*
X0136500Y0023936D01*
X0139136Y0021300D01*
X0142864Y0021300D01*
X0145500Y0023936D01*
X0145500Y0027664D01*
X0142864Y0030300D01*
X0139136Y0030300D01*
X0136500Y0027482D02*
X0135500Y0027482D01*
X0135500Y0025884D02*
X0136500Y0025884D01*
X0136500Y0024285D02*
X0135500Y0024285D01*
X0134251Y0022687D02*
X0137749Y0022687D01*
X0139136Y0020300D02*
X0136500Y0017664D01*
X0136500Y0013936D01*
X0139136Y0011300D01*
X0142864Y0011300D01*
X0145500Y0013936D01*
X0145500Y0017664D01*
X0142864Y0020300D01*
X0139136Y0020300D01*
X0138326Y0019490D02*
X0133674Y0019490D01*
X0132864Y0020300D02*
X0129136Y0020300D01*
X0126500Y0017664D01*
X0126500Y0013936D01*
X0129136Y0011300D01*
X0132864Y0011300D01*
X0135500Y0013936D01*
X0135500Y0017664D01*
X0132864Y0020300D01*
X0135273Y0017891D02*
X0136727Y0017891D01*
X0136500Y0016293D02*
X0135500Y0016293D01*
X0135500Y0014694D02*
X0136500Y0014694D01*
X0137341Y0013096D02*
X0134659Y0013096D01*
X0133061Y0011497D02*
X0138939Y0011497D01*
X0143061Y0011497D02*
X0148939Y0011497D01*
X0149136Y0011300D02*
X0152864Y0011300D01*
X0155500Y0013936D01*
X0155500Y0017664D01*
X0152864Y0020300D01*
X0149136Y0020300D01*
X0146500Y0017664D01*
X0146500Y0013936D01*
X0149136Y0011300D01*
X0147341Y0013096D02*
X0144659Y0013096D01*
X0145500Y0014694D02*
X0146500Y0014694D01*
X0146500Y0016293D02*
X0145500Y0016293D01*
X0145273Y0017891D02*
X0146727Y0017891D01*
X0148326Y0019490D02*
X0143674Y0019490D01*
X0144251Y0022687D02*
X0147749Y0022687D01*
X0146500Y0023936D02*
X0149136Y0021300D01*
X0152864Y0021300D01*
X0155500Y0023936D01*
X0155500Y0027664D01*
X0152864Y0030300D01*
X0149136Y0030300D01*
X0146500Y0027664D01*
X0146500Y0023936D01*
X0146500Y0024285D02*
X0145500Y0024285D01*
X0145500Y0025884D02*
X0146500Y0025884D01*
X0146500Y0027482D02*
X0145500Y0027482D01*
X0144083Y0029081D02*
X0147917Y0029081D01*
X0154083Y0029081D02*
X0157917Y0029081D01*
X0159136Y0030300D02*
X0156500Y0027664D01*
X0156500Y0023936D01*
X0159136Y0021300D01*
X0162864Y0021300D01*
X0165500Y0023936D01*
X0165500Y0027664D01*
X0162864Y0030300D01*
X0159136Y0030300D01*
X0156500Y0027482D02*
X0155500Y0027482D01*
X0155500Y0025884D02*
X0156500Y0025884D01*
X0156500Y0024285D02*
X0155500Y0024285D01*
X0154251Y0022687D02*
X0157749Y0022687D01*
X0159136Y0020300D02*
X0156500Y0017664D01*
X0156500Y0013936D01*
X0159136Y0011300D01*
X0162864Y0011300D01*
X0165500Y0013936D01*
X0165500Y0017664D01*
X0162864Y0020300D01*
X0159136Y0020300D01*
X0158326Y0019490D02*
X0153674Y0019490D01*
X0155273Y0017891D02*
X0156727Y0017891D01*
X0156500Y0016293D02*
X0155500Y0016293D01*
X0155500Y0014694D02*
X0156500Y0014694D01*
X0157341Y0013096D02*
X0154659Y0013096D01*
X0153061Y0011497D02*
X0158939Y0011497D01*
X0163061Y0011497D02*
X0168939Y0011497D01*
X0169136Y0011300D02*
X0172864Y0011300D01*
X0175500Y0013936D01*
X0175500Y0017664D01*
X0172864Y0020300D01*
X0169136Y0020300D01*
X0166500Y0017664D01*
X0166500Y0013936D01*
X0169136Y0011300D01*
X0167341Y0013096D02*
X0164659Y0013096D01*
X0165500Y0014694D02*
X0166500Y0014694D01*
X0166500Y0016293D02*
X0165500Y0016293D01*
X0165273Y0017891D02*
X0166727Y0017891D01*
X0168326Y0019490D02*
X0163674Y0019490D01*
X0164251Y0022687D02*
X0167749Y0022687D01*
X0166500Y0023936D02*
X0169136Y0021300D01*
X0172864Y0021300D01*
X0175500Y0023936D01*
X0175500Y0027664D01*
X0172864Y0030300D01*
X0169136Y0030300D01*
X0166500Y0027664D01*
X0166500Y0023936D01*
X0166500Y0024285D02*
X0165500Y0024285D01*
X0165500Y0025884D02*
X0166500Y0025884D01*
X0166500Y0027482D02*
X0165500Y0027482D01*
X0164083Y0029081D02*
X0167917Y0029081D01*
X0174083Y0029081D02*
X0177917Y0029081D01*
X0176500Y0027482D02*
X0175500Y0027482D01*
X0175500Y0025884D02*
X0176500Y0025884D01*
X0176500Y0024285D02*
X0175500Y0024285D01*
X0174251Y0022687D02*
X0177749Y0022687D01*
X0179136Y0020300D02*
X0176500Y0017664D01*
X0176500Y0013936D01*
X0179136Y0011300D01*
X0182864Y0011300D01*
X0185500Y0013936D01*
X0185500Y0017664D01*
X0182864Y0020300D01*
X0179136Y0020300D01*
X0178326Y0019490D02*
X0173674Y0019490D01*
X0175273Y0017891D02*
X0176727Y0017891D01*
X0176500Y0016293D02*
X0175500Y0016293D01*
X0175500Y0014694D02*
X0176500Y0014694D01*
X0177341Y0013096D02*
X0174659Y0013096D01*
X0173061Y0011497D02*
X0178939Y0011497D01*
X0183061Y0011497D02*
X0188939Y0011497D01*
X0189136Y0011300D02*
X0192864Y0011300D01*
X0195500Y0013936D01*
X0195500Y0017664D01*
X0192864Y0020300D01*
X0189136Y0020300D01*
X0186500Y0017664D01*
X0186500Y0013936D01*
X0189136Y0011300D01*
X0187341Y0013096D02*
X0184659Y0013096D01*
X0185500Y0014694D02*
X0186500Y0014694D01*
X0186500Y0016293D02*
X0185500Y0016293D01*
X0185273Y0017891D02*
X0186727Y0017891D01*
X0188326Y0019490D02*
X0183674Y0019490D01*
X0184251Y0022687D02*
X0187749Y0022687D01*
X0186500Y0024285D02*
X0185500Y0024285D01*
X0185500Y0025884D02*
X0186500Y0025884D01*
X0186500Y0027482D02*
X0185500Y0027482D01*
X0194251Y0022687D02*
X0197749Y0022687D01*
X0196500Y0024285D02*
X0195500Y0024285D01*
X0195500Y0025884D02*
X0196500Y0025884D01*
X0196500Y0027482D02*
X0195500Y0027482D01*
X0199136Y0020300D02*
X0196500Y0017664D01*
X0196500Y0013936D01*
X0199136Y0011300D01*
X0202864Y0011300D01*
X0205500Y0013936D01*
X0205500Y0017664D01*
X0202864Y0020300D01*
X0199136Y0020300D01*
X0198326Y0019490D02*
X0193674Y0019490D01*
X0195273Y0017891D02*
X0196727Y0017891D01*
X0196500Y0016293D02*
X0195500Y0016293D01*
X0195500Y0014694D02*
X0196500Y0014694D01*
X0197341Y0013096D02*
X0194659Y0013096D01*
X0193061Y0011497D02*
X0198939Y0011497D01*
X0203061Y0011497D02*
X0208939Y0011497D01*
X0209136Y0011300D02*
X0212864Y0011300D01*
X0215500Y0013936D01*
X0215500Y0017664D01*
X0212864Y0020300D01*
X0209136Y0020300D01*
X0206500Y0017664D01*
X0206500Y0013936D01*
X0209136Y0011300D01*
X0207341Y0013096D02*
X0204659Y0013096D01*
X0205500Y0014694D02*
X0206500Y0014694D01*
X0206500Y0016293D02*
X0205500Y0016293D01*
X0205273Y0017891D02*
X0206727Y0017891D01*
X0208326Y0019490D02*
X0203674Y0019490D01*
X0204251Y0022687D02*
X0207749Y0022687D01*
X0206500Y0023936D02*
X0209136Y0021300D01*
X0212864Y0021300D01*
X0215500Y0023936D01*
X0215500Y0027664D01*
X0212864Y0030300D01*
X0209136Y0030300D01*
X0206500Y0027664D01*
X0206500Y0023936D01*
X0206500Y0024285D02*
X0205500Y0024285D01*
X0205500Y0025884D02*
X0206500Y0025884D01*
X0206500Y0027482D02*
X0205500Y0027482D01*
X0204083Y0029081D02*
X0207917Y0029081D01*
X0214083Y0029081D02*
X0217917Y0029081D01*
X0219136Y0030300D02*
X0216500Y0027664D01*
X0216500Y0023936D01*
X0219136Y0021300D01*
X0222864Y0021300D01*
X0225500Y0023936D01*
X0225500Y0027664D01*
X0222864Y0030300D01*
X0219136Y0030300D01*
X0216500Y0027482D02*
X0215500Y0027482D01*
X0215500Y0025884D02*
X0216500Y0025884D01*
X0216500Y0024285D02*
X0215500Y0024285D01*
X0214251Y0022687D02*
X0217749Y0022687D01*
X0219136Y0020300D02*
X0216500Y0017664D01*
X0216500Y0013936D01*
X0219136Y0011300D01*
X0222864Y0011300D01*
X0225500Y0013936D01*
X0225500Y0017664D01*
X0222864Y0020300D01*
X0219136Y0020300D01*
X0218326Y0019490D02*
X0213674Y0019490D01*
X0215273Y0017891D02*
X0216727Y0017891D01*
X0216500Y0016293D02*
X0215500Y0016293D01*
X0215500Y0014694D02*
X0216500Y0014694D01*
X0217341Y0013096D02*
X0214659Y0013096D01*
X0213061Y0011497D02*
X0218939Y0011497D01*
X0223061Y0011497D02*
X0228939Y0011497D01*
X0229136Y0011300D02*
X0232864Y0011300D01*
X0235500Y0013936D01*
X0235500Y0017664D01*
X0232864Y0020300D01*
X0229136Y0020300D01*
X0226500Y0017664D01*
X0226500Y0013936D01*
X0229136Y0011300D01*
X0227341Y0013096D02*
X0224659Y0013096D01*
X0225500Y0014694D02*
X0226500Y0014694D01*
X0226500Y0016293D02*
X0225500Y0016293D01*
X0225273Y0017891D02*
X0226727Y0017891D01*
X0228326Y0019490D02*
X0223674Y0019490D01*
X0224251Y0022687D02*
X0227749Y0022687D01*
X0226500Y0023936D02*
X0229136Y0021300D01*
X0232864Y0021300D01*
X0235500Y0023936D01*
X0235500Y0027664D01*
X0232864Y0030300D01*
X0229136Y0030300D01*
X0226500Y0027664D01*
X0226500Y0023936D01*
X0226500Y0024285D02*
X0225500Y0024285D01*
X0225500Y0025884D02*
X0226500Y0025884D01*
X0226500Y0027482D02*
X0225500Y0027482D01*
X0224083Y0029081D02*
X0227917Y0029081D01*
X0234083Y0029081D02*
X0237917Y0029081D01*
X0236500Y0027482D02*
X0235500Y0027482D01*
X0235500Y0025884D02*
X0236500Y0025884D01*
X0236500Y0024285D02*
X0235500Y0024285D01*
X0234251Y0022687D02*
X0237749Y0022687D01*
X0238326Y0019490D02*
X0233674Y0019490D01*
X0235273Y0017891D02*
X0236727Y0017891D01*
X0236500Y0016293D02*
X0235500Y0016293D01*
X0235500Y0014694D02*
X0236500Y0014694D01*
X0237341Y0013096D02*
X0234659Y0013096D01*
X0233061Y0011497D02*
X0238939Y0011497D01*
X0263061Y0011497D02*
X0268939Y0011497D01*
X0267341Y0013096D02*
X0264659Y0013096D01*
X0265500Y0014694D02*
X0266500Y0014694D01*
X0266500Y0016293D02*
X0265500Y0016293D01*
X0265273Y0017891D02*
X0266727Y0017891D01*
X0268326Y0019490D02*
X0263674Y0019490D01*
X0264251Y0022687D02*
X0267749Y0022687D01*
X0266500Y0024285D02*
X0265500Y0024285D01*
X0265500Y0025884D02*
X0266500Y0025884D01*
X0266500Y0027482D02*
X0265500Y0027482D01*
X0264083Y0029081D02*
X0267917Y0029081D01*
X0275273Y0017891D02*
X0280000Y0017891D01*
X0280000Y0016293D02*
X0275500Y0016293D01*
X0275500Y0014694D02*
X0280000Y0014694D01*
X0280000Y0013096D02*
X0274659Y0013096D01*
X0273061Y0011497D02*
X0280000Y0011497D01*
X0242632Y0040270D02*
X0242300Y0040270D01*
X0222728Y0057854D02*
X0218422Y0057854D01*
X0217439Y0056871D02*
X0213711Y0056871D01*
X0211075Y0059507D01*
X0211075Y0063235D01*
X0213711Y0065871D01*
X0217439Y0065871D01*
X0220075Y0063235D01*
X0220075Y0059507D01*
X0217439Y0056871D01*
X0220020Y0059452D02*
X0221130Y0059452D01*
X0221075Y0061051D02*
X0220075Y0061051D01*
X0220075Y0062649D02*
X0221075Y0062649D01*
X0222088Y0064248D02*
X0219062Y0064248D01*
X0217463Y0065846D02*
X0223687Y0065846D01*
X0223711Y0066871D02*
X0227439Y0066871D01*
X0230075Y0069507D01*
X0230075Y0073235D01*
X0227439Y0075871D01*
X0223711Y0075871D01*
X0221075Y0073235D01*
X0221075Y0069507D01*
X0223711Y0066871D01*
X0223137Y0067445D02*
X0218013Y0067445D01*
X0217439Y0066871D02*
X0220075Y0069507D01*
X0220075Y0073235D01*
X0217439Y0075871D01*
X0213711Y0075871D01*
X0211075Y0073235D01*
X0211075Y0069507D01*
X0213711Y0066871D01*
X0217439Y0066871D01*
X0219612Y0069043D02*
X0221538Y0069043D01*
X0221075Y0070642D02*
X0220075Y0070642D01*
X0220075Y0072240D02*
X0221075Y0072240D01*
X0221679Y0073839D02*
X0219471Y0073839D01*
X0217872Y0075437D02*
X0223278Y0075437D01*
X0227872Y0075437D02*
X0233278Y0075437D01*
X0231679Y0073839D02*
X0229471Y0073839D01*
X0230075Y0072240D02*
X0231075Y0072240D01*
X0231075Y0070642D02*
X0230075Y0070642D01*
X0229612Y0069043D02*
X0231538Y0069043D01*
X0233137Y0067445D02*
X0228013Y0067445D01*
X0227463Y0065846D02*
X0233687Y0065846D01*
X0237463Y0065846D02*
X0238700Y0065846D01*
X0238700Y0067445D02*
X0238013Y0067445D01*
X0237872Y0075437D02*
X0238700Y0075437D01*
X0253000Y0077300D02*
X0253260Y0077040D01*
X0253260Y0071631D01*
X0256728Y0072240D02*
X0257272Y0072240D01*
X0257272Y0070642D02*
X0256728Y0070642D01*
X0256728Y0069043D02*
X0257272Y0069043D01*
X0258080Y0067445D02*
X0255920Y0067445D01*
X0260740Y0067560D02*
X0260740Y0071631D01*
X0260293Y0072078D01*
X0260293Y0083800D01*
X0257219Y0083430D02*
X0256581Y0083430D01*
X0256581Y0081832D02*
X0257219Y0081832D01*
X0257802Y0080233D02*
X0256122Y0080233D01*
X0256019Y0078634D02*
X0257993Y0078634D01*
X0257993Y0077036D02*
X0256300Y0077036D01*
X0256299Y0075437D02*
X0257701Y0075437D01*
X0257272Y0073839D02*
X0256728Y0073839D01*
X0262593Y0077036D02*
X0280000Y0077036D01*
X0280000Y0078634D02*
X0262593Y0078634D01*
X0262785Y0080233D02*
X0280000Y0080233D01*
X0280000Y0081832D02*
X0263368Y0081832D01*
X0263368Y0083430D02*
X0280000Y0083430D01*
X0280000Y0085029D02*
X0263368Y0085029D01*
X0263368Y0086627D02*
X0280000Y0086627D01*
X0280000Y0091423D02*
X0235130Y0091423D01*
X0229987Y0094620D02*
X0280000Y0094620D01*
X0280000Y0096218D02*
X0231124Y0096218D01*
X0231300Y0097817D02*
X0280000Y0097817D01*
X0280000Y0099415D02*
X0230552Y0099415D01*
X0228000Y0097300D02*
X0216543Y0097300D01*
X0221000Y0097300D01*
X0225000Y0101300D01*
X0225000Y0115300D01*
X0228000Y0118300D01*
X0225000Y0121300D01*
X0225000Y0124454D01*
X0224654Y0124800D01*
X0221874Y0124991D02*
X0219618Y0124991D01*
X0219618Y0126590D02*
X0221960Y0126590D01*
X0221859Y0128188D02*
X0219618Y0128188D01*
X0223000Y0130300D02*
X0228394Y0130300D01*
X0228394Y0124800D01*
X0231173Y0124991D02*
X0242000Y0124991D01*
X0242212Y0123393D02*
X0231173Y0123393D01*
X0231087Y0126590D02*
X0242371Y0126590D01*
X0243524Y0128188D02*
X0230694Y0128188D01*
X0230694Y0129787D02*
X0280000Y0129787D01*
X0280000Y0131385D02*
X0255449Y0131385D01*
X0256618Y0132984D02*
X0280000Y0132984D01*
X0280000Y0134582D02*
X0257000Y0134582D01*
X0256799Y0136181D02*
X0280000Y0136181D01*
X0280000Y0137779D02*
X0255885Y0137779D01*
X0249500Y0134800D02*
X0244000Y0140300D01*
X0227000Y0140300D01*
X0226000Y0139300D01*
X0224000Y0139300D01*
X0224000Y0135454D01*
X0224654Y0134800D01*
X0227732Y0137779D02*
X0243115Y0137779D01*
X0242201Y0136181D02*
X0231173Y0136181D01*
X0231173Y0134582D02*
X0242000Y0134582D01*
X0242381Y0132984D02*
X0231061Y0132984D01*
X0230694Y0131385D02*
X0243551Y0131385D01*
X0249500Y0124800D02*
X0249500Y0121800D01*
X0246000Y0118300D01*
X0228000Y0118300D01*
X0228353Y0115400D02*
X0280000Y0115400D01*
X0280000Y0113802D02*
X0227300Y0113802D01*
X0227300Y0112203D02*
X0280000Y0112203D01*
X0280000Y0110605D02*
X0227300Y0110605D01*
X0227300Y0109006D02*
X0280000Y0109006D01*
X0280000Y0107408D02*
X0227300Y0107408D01*
X0227300Y0105809D02*
X0280000Y0105809D01*
X0280000Y0104211D02*
X0227300Y0104211D01*
X0227300Y0102612D02*
X0280000Y0102612D01*
X0280000Y0101014D02*
X0227300Y0101014D01*
X0226013Y0094620D02*
X0219618Y0094620D01*
X0216532Y0093021D02*
X0280000Y0093021D01*
X0280000Y0075437D02*
X0263779Y0075437D01*
X0264209Y0073839D02*
X0280000Y0073839D01*
X0280000Y0072240D02*
X0264209Y0072240D01*
X0264209Y0070642D02*
X0280000Y0070642D01*
X0280000Y0069043D02*
X0264209Y0069043D01*
X0264108Y0067445D02*
X0280000Y0067445D01*
X0280000Y0065846D02*
X0265300Y0065846D01*
X0265300Y0064248D02*
X0280000Y0064248D01*
X0280000Y0062649D02*
X0265300Y0062649D01*
X0265300Y0061051D02*
X0280000Y0061051D01*
X0280000Y0059452D02*
X0265300Y0059452D01*
X0265300Y0057854D02*
X0280000Y0057854D01*
X0263000Y0065300D02*
X0260740Y0067560D01*
X0257219Y0085029D02*
X0256581Y0085029D01*
X0256520Y0086627D02*
X0257219Y0086627D01*
X0253207Y0086627D02*
X0253207Y0086627D01*
X0253207Y0085029D02*
X0253207Y0085029D01*
X0221000Y0106300D02*
X0220000Y0107300D01*
X0216543Y0107300D01*
X0216543Y0117300D01*
X0213469Y0116999D02*
X0212531Y0116999D01*
X0212531Y0118597D02*
X0213469Y0118597D01*
X0213469Y0120196D02*
X0212531Y0120196D01*
X0211757Y0121794D02*
X0222700Y0121794D01*
X0222852Y0120196D02*
X0219618Y0120196D01*
X0219618Y0118597D02*
X0224450Y0118597D01*
X0223446Y0116999D02*
X0219618Y0116999D01*
X0219618Y0115400D02*
X0222700Y0115400D01*
X0222700Y0113802D02*
X0219103Y0113802D01*
X0218843Y0112203D02*
X0222700Y0112203D01*
X0222700Y0110605D02*
X0219297Y0110605D01*
X0213983Y0113802D02*
X0213751Y0113802D01*
X0213469Y0115400D02*
X0212531Y0115400D01*
X0211757Y0123393D02*
X0221874Y0123393D01*
X0227758Y0121794D02*
X0243142Y0121794D01*
X0247951Y0116999D02*
X0280000Y0116999D01*
X0280000Y0118597D02*
X0249550Y0118597D01*
X0251148Y0120196D02*
X0280000Y0120196D01*
X0280000Y0121794D02*
X0255858Y0121794D01*
X0256788Y0123393D02*
X0280000Y0123393D01*
X0280000Y0124991D02*
X0257000Y0124991D01*
X0256629Y0126590D02*
X0280000Y0126590D01*
X0280000Y0128188D02*
X0255476Y0128188D01*
X0248175Y0139378D02*
X0280000Y0139378D01*
X0280000Y0140976D02*
X0246576Y0140976D01*
X0244978Y0142575D02*
X0280000Y0142575D01*
X0280000Y0144173D02*
X0226300Y0144173D01*
X0226281Y0145772D02*
X0280000Y0145772D01*
X0280000Y0147370D02*
X0224682Y0147370D01*
X0223084Y0148969D02*
X0280000Y0148969D01*
X0280000Y0150568D02*
X0219334Y0150568D01*
X0219300Y0152166D02*
X0280000Y0152166D01*
X0280000Y0153765D02*
X0224131Y0153765D01*
X0225184Y0155363D02*
X0280000Y0155363D01*
X0280000Y0156962D02*
X0225298Y0156962D01*
X0224407Y0158560D02*
X0280000Y0158560D01*
X0280000Y0160159D02*
X0221394Y0160159D01*
X0219796Y0161757D02*
X0280000Y0161757D01*
X0280000Y0163356D02*
X0218197Y0163356D01*
X0215720Y0162580D02*
X0173516Y0162580D01*
X0173516Y0165139D02*
X0177000Y0169300D01*
X0178000Y0170300D01*
X0174862Y0171348D02*
X0094033Y0171348D01*
X0093735Y0164954D02*
X0117093Y0164954D01*
X0118692Y0163356D02*
X0073197Y0163356D01*
X0071599Y0164954D02*
X0088265Y0164954D01*
X0087069Y0166553D02*
X0070000Y0166553D01*
X0068000Y0165300D02*
X0059000Y0165300D01*
X0048000Y0154300D01*
X0048000Y0086300D01*
X0073500Y0060800D01*
X0065859Y0056255D02*
X0101512Y0056255D01*
X0099990Y0054657D02*
X0064261Y0054657D01*
X0056322Y0054657D02*
X0043000Y0054657D01*
X0043000Y0056255D02*
X0054723Y0056255D01*
X0053934Y0057854D02*
X0043000Y0057854D01*
X0043000Y0059452D02*
X0053466Y0059452D01*
X0053466Y0061051D02*
X0043000Y0061051D01*
X0043000Y0062649D02*
X0053861Y0062649D01*
X0054548Y0064248D02*
X0043000Y0064248D01*
X0043000Y0065846D02*
X0056146Y0065846D01*
X0065312Y0072240D02*
X0087978Y0072240D01*
X0086951Y0073839D02*
X0063714Y0073839D01*
X0062115Y0075437D02*
X0086700Y0075437D01*
X0087065Y0077036D02*
X0060517Y0077036D01*
X0058918Y0078634D02*
X0088253Y0078634D01*
X0093747Y0078634D02*
X0120082Y0078634D01*
X0121680Y0080233D02*
X0057320Y0080233D01*
X0055721Y0081832D02*
X0123279Y0081832D01*
X0124877Y0083430D02*
X0054123Y0083430D01*
X0052524Y0085029D02*
X0055871Y0085029D01*
X0056425Y0084475D02*
X0058934Y0083436D01*
X0061649Y0083436D01*
X0064157Y0084475D01*
X0066077Y0086395D01*
X0067116Y0088903D01*
X0067116Y0091618D01*
X0066077Y0094127D01*
X0064157Y0096047D01*
X0061649Y0097086D01*
X0058934Y0097086D01*
X0056425Y0096047D01*
X0054505Y0094127D01*
X0053466Y0091618D01*
X0053466Y0088903D01*
X0054505Y0086395D01*
X0056425Y0084475D01*
X0054409Y0086627D02*
X0050926Y0086627D01*
X0050300Y0088226D02*
X0053747Y0088226D01*
X0053466Y0089824D02*
X0050300Y0089824D01*
X0050300Y0091423D02*
X0053466Y0091423D01*
X0054047Y0093021D02*
X0050300Y0093021D01*
X0050300Y0094620D02*
X0054998Y0094620D01*
X0056839Y0096218D02*
X0050300Y0096218D01*
X0050300Y0097817D02*
X0099382Y0097817D01*
X0099382Y0099415D02*
X0050300Y0099415D01*
X0050300Y0101014D02*
X0100112Y0101014D01*
X0100157Y0102612D02*
X0050300Y0102612D01*
X0050300Y0104211D02*
X0100157Y0104211D01*
X0100157Y0105809D02*
X0050300Y0105809D01*
X0050300Y0107408D02*
X0100157Y0107408D01*
X0100157Y0109006D02*
X0050300Y0109006D01*
X0050300Y0110605D02*
X0099382Y0110605D01*
X0099382Y0112203D02*
X0050300Y0112203D01*
X0050300Y0113802D02*
X0099382Y0113802D01*
X0099382Y0115400D02*
X0050300Y0115400D01*
X0050300Y0116999D02*
X0100097Y0116999D01*
X0100157Y0118597D02*
X0050300Y0118597D01*
X0050300Y0120196D02*
X0100157Y0120196D01*
X0100157Y0121794D02*
X0050300Y0121794D01*
X0050300Y0123393D02*
X0100157Y0123393D01*
X0100157Y0124991D02*
X0050300Y0124991D01*
X0050300Y0126590D02*
X0099382Y0126590D01*
X0099382Y0128188D02*
X0050300Y0128188D01*
X0050300Y0129787D02*
X0099382Y0129787D01*
X0099382Y0131385D02*
X0050300Y0131385D01*
X0050300Y0132984D02*
X0100082Y0132984D01*
X0100700Y0134582D02*
X0050300Y0134582D01*
X0050300Y0136181D02*
X0100700Y0136181D01*
X0100700Y0137779D02*
X0050300Y0137779D01*
X0050300Y0139378D02*
X0100700Y0139378D01*
X0100700Y0140976D02*
X0050300Y0140976D01*
X0050300Y0142575D02*
X0067803Y0142575D01*
X0066205Y0144173D02*
X0050300Y0144173D01*
X0050300Y0145772D02*
X0064606Y0145772D01*
X0067914Y0148969D02*
X0100067Y0148969D01*
X0099382Y0147370D02*
X0069513Y0147370D01*
X0066531Y0150568D02*
X0122480Y0150568D01*
X0122051Y0148969D02*
X0123949Y0148969D01*
X0123949Y0147370D02*
X0122051Y0147370D01*
X0122051Y0145772D02*
X0123949Y0145772D01*
X0123949Y0144173D02*
X0122051Y0144173D01*
X0122051Y0142575D02*
X0123949Y0142575D01*
X0124102Y0140976D02*
X0121898Y0140976D01*
X0128598Y0145300D02*
X0128598Y0147702D01*
X0120000Y0156300D01*
X0077000Y0156300D01*
X0068000Y0165300D01*
X0068290Y0161757D02*
X0058710Y0161757D01*
X0058920Y0160159D02*
X0057111Y0160159D01*
X0055860Y0158560D02*
X0055513Y0158560D01*
X0054404Y0156962D02*
X0053914Y0156962D01*
X0053742Y0155363D02*
X0052316Y0155363D01*
X0053466Y0153765D02*
X0050717Y0153765D01*
X0050300Y0152166D02*
X0053466Y0152166D01*
X0054052Y0150568D02*
X0050300Y0150568D01*
X0050300Y0148969D02*
X0055010Y0148969D01*
X0056867Y0147370D02*
X0050300Y0147370D01*
X0060291Y0153339D02*
X0069331Y0144300D01*
X0103000Y0144300D01*
X0105531Y0144173D02*
X0106469Y0144173D01*
X0106469Y0142575D02*
X0105531Y0142575D01*
X0105300Y0140976D02*
X0112905Y0140976D01*
X0112752Y0142575D02*
X0112618Y0142575D01*
X0112752Y0148969D02*
X0111933Y0148969D01*
X0119283Y0153765D02*
X0067116Y0153765D01*
X0067116Y0152166D02*
X0120881Y0152166D01*
X0124190Y0155363D02*
X0126684Y0155363D01*
X0125788Y0153765D02*
X0128283Y0153765D01*
X0127387Y0152166D02*
X0129881Y0152166D01*
X0128985Y0150568D02*
X0131480Y0150568D01*
X0133190Y0155363D02*
X0146986Y0155363D01*
X0147017Y0155332D02*
X0147427Y0155095D01*
X0147885Y0154972D01*
X0150484Y0154972D01*
X0150484Y0157461D01*
X0150484Y0157461D01*
X0146322Y0157461D01*
X0146322Y0156535D01*
X0146445Y0156078D01*
X0146682Y0155667D01*
X0147017Y0155332D01*
X0146322Y0156962D02*
X0131591Y0156962D01*
X0129993Y0158560D02*
X0146368Y0158560D01*
X0146322Y0158387D02*
X0146445Y0158845D01*
X0146622Y0159152D01*
X0146622Y0166449D01*
X0147501Y0167328D01*
X0153468Y0167328D01*
X0154346Y0166449D01*
X0154346Y0159152D01*
X0154524Y0158845D01*
X0154646Y0158387D01*
X0154646Y0157461D01*
X0150484Y0157461D01*
X0150484Y0157461D01*
X0150484Y0154972D01*
X0153083Y0154972D01*
X0153541Y0155095D01*
X0153952Y0155332D01*
X0154287Y0155667D01*
X0154524Y0156078D01*
X0154646Y0156535D01*
X0154646Y0157461D01*
X0150484Y0157461D01*
X0146322Y0157461D01*
X0146322Y0158387D01*
X0146622Y0160159D02*
X0128394Y0160159D01*
X0126796Y0161757D02*
X0146622Y0161757D01*
X0146622Y0163356D02*
X0125197Y0163356D01*
X0123599Y0164954D02*
X0146622Y0164954D01*
X0146726Y0166553D02*
X0122000Y0166553D01*
X0120402Y0168151D02*
X0173038Y0168151D01*
X0174377Y0169750D02*
X0118803Y0169750D01*
X0120290Y0161757D02*
X0074796Y0161757D01*
X0076394Y0160159D02*
X0121889Y0160159D01*
X0120993Y0158560D02*
X0123487Y0158560D01*
X0122300Y0157253D02*
X0122300Y0157253D01*
X0122591Y0156962D02*
X0125086Y0156962D01*
X0133095Y0140976D02*
X0134075Y0140976D01*
X0133382Y0139378D02*
X0105300Y0139378D01*
X0111918Y0132984D02*
X0112752Y0132984D01*
X0122051Y0128188D02*
X0123949Y0128188D01*
X0123949Y0126590D02*
X0122051Y0126590D01*
X0121913Y0124991D02*
X0124087Y0124991D01*
X0126426Y0123393D02*
X0104757Y0123393D01*
X0104757Y0121794D02*
X0125700Y0121794D01*
X0125885Y0120196D02*
X0104757Y0120196D01*
X0104757Y0118597D02*
X0125018Y0118597D01*
X0123649Y0116999D02*
X0122051Y0116999D01*
X0122051Y0117471D02*
X0121173Y0118349D01*
X0113631Y0118349D01*
X0112752Y0117471D01*
X0112752Y0115600D01*
X0112618Y0115600D01*
X0112618Y0116284D01*
X0111739Y0117162D01*
X0107347Y0117162D01*
X0106469Y0116284D01*
X0106469Y0110316D01*
X0107347Y0109438D01*
X0111739Y0109438D01*
X0112618Y0110316D01*
X0112618Y0111000D01*
X0112752Y0111000D01*
X0112752Y0109129D01*
X0113631Y0108251D01*
X0121173Y0108251D01*
X0122051Y0109129D01*
X0122051Y0117471D01*
X0122051Y0115400D02*
X0123649Y0115400D01*
X0122051Y0113802D02*
X0127824Y0113802D01*
X0127824Y0112525D02*
X0123649Y0112525D01*
X0123649Y0109514D01*
X0123771Y0109056D01*
X0124008Y0108646D01*
X0124344Y0108310D01*
X0124754Y0108073D01*
X0125212Y0107951D01*
X0127824Y0107951D01*
X0127824Y0112525D01*
X0127824Y0112203D02*
X0129373Y0112203D01*
X0129373Y0112525D02*
X0129373Y0114075D01*
X0133548Y0114075D01*
X0133548Y0114150D01*
X0134157Y0113542D01*
X0134157Y0111058D01*
X0133548Y0110450D01*
X0133548Y0112525D01*
X0129373Y0112525D01*
X0129373Y0113802D02*
X0133897Y0113802D01*
X0134157Y0112203D02*
X0133548Y0112203D01*
X0133548Y0110605D02*
X0133703Y0110605D01*
X0129373Y0110605D02*
X0127824Y0110605D01*
X0127824Y0109006D02*
X0129373Y0109006D01*
X0133382Y0107408D02*
X0104757Y0107408D01*
X0104757Y0109006D02*
X0112875Y0109006D01*
X0112752Y0110605D02*
X0112618Y0110605D01*
X0109543Y0113300D02*
X0117402Y0113300D01*
X0122051Y0112203D02*
X0123649Y0112203D01*
X0123649Y0110605D02*
X0122051Y0110605D01*
X0121928Y0109006D02*
X0123800Y0109006D01*
X0133382Y0105809D02*
X0104757Y0105809D01*
X0104757Y0104211D02*
X0133488Y0104211D01*
X0136457Y0107300D02*
X0136457Y0117300D01*
X0139531Y0116999D02*
X0140469Y0116999D01*
X0140469Y0118597D02*
X0139531Y0118597D01*
X0139531Y0120196D02*
X0140469Y0120196D01*
X0143543Y0117300D02*
X0149457Y0117300D01*
X0146897Y0113802D02*
X0146103Y0113802D01*
X0147557Y0112203D02*
X0138757Y0112203D01*
X0139017Y0113802D02*
X0140983Y0113802D01*
X0140469Y0115400D02*
X0139531Y0115400D01*
X0139210Y0110605D02*
X0140790Y0110605D01*
X0140454Y0109006D02*
X0139531Y0109006D01*
X0142000Y0107300D02*
X0141000Y0106300D01*
X0141000Y0096300D01*
X0142572Y0094620D02*
X0143653Y0094620D01*
X0142727Y0093021D02*
X0140974Y0093021D01*
X0139375Y0091423D02*
X0142792Y0091423D01*
X0143809Y0089824D02*
X0137777Y0089824D01*
X0136178Y0088226D02*
X0146622Y0088226D01*
X0146622Y0086627D02*
X0134580Y0086627D01*
X0132981Y0085029D02*
X0146622Y0085029D01*
X0146622Y0083430D02*
X0131383Y0083430D01*
X0129784Y0081832D02*
X0146441Y0081832D01*
X0146322Y0080233D02*
X0128186Y0080233D01*
X0126587Y0078634D02*
X0146714Y0078634D01*
X0150484Y0078634D02*
X0150484Y0078634D01*
X0150484Y0080233D02*
X0150484Y0080233D01*
X0154254Y0078634D02*
X0158700Y0078634D01*
X0158700Y0080233D02*
X0154646Y0080233D01*
X0154527Y0081832D02*
X0158700Y0081832D01*
X0158700Y0083430D02*
X0154346Y0083430D01*
X0154346Y0085029D02*
X0158700Y0085029D01*
X0158700Y0086627D02*
X0154346Y0086627D01*
X0154346Y0088226D02*
X0158700Y0088226D01*
X0158700Y0089824D02*
X0153971Y0089824D01*
X0150810Y0091423D02*
X0158700Y0091423D01*
X0158700Y0093021D02*
X0152384Y0093021D01*
X0154346Y0094620D02*
X0158013Y0094620D01*
X0156876Y0096218D02*
X0156605Y0096218D01*
X0160000Y0097300D02*
X0161000Y0096300D01*
X0161000Y0077300D01*
X0156000Y0072300D01*
X0134000Y0072300D01*
X0121780Y0060080D01*
X0115929Y0060080D01*
X0120382Y0062649D02*
X0121097Y0062649D01*
X0120280Y0064248D02*
X0122695Y0064248D01*
X0124294Y0065846D02*
X0117829Y0065846D01*
X0118803Y0067445D02*
X0125892Y0067445D01*
X0127491Y0069043D02*
X0119300Y0069043D01*
X0119016Y0070642D02*
X0129089Y0070642D01*
X0130688Y0072240D02*
X0117524Y0072240D01*
X0121792Y0073839D02*
X0132286Y0073839D01*
X0124989Y0077036D02*
X0157483Y0077036D01*
X0155885Y0075437D02*
X0123390Y0075437D01*
X0126476Y0085029D02*
X0064711Y0085029D01*
X0066174Y0086627D02*
X0128074Y0086627D01*
X0129673Y0088226D02*
X0066836Y0088226D01*
X0067116Y0089824D02*
X0131271Y0089824D01*
X0132870Y0091423D02*
X0067116Y0091423D01*
X0066535Y0093021D02*
X0112860Y0093021D01*
X0112752Y0094620D02*
X0112618Y0094620D01*
X0109543Y0097300D02*
X0117402Y0097300D01*
X0122051Y0097817D02*
X0123949Y0097817D01*
X0123949Y0099415D02*
X0122051Y0099415D01*
X0122051Y0101014D02*
X0123949Y0101014D01*
X0123949Y0096218D02*
X0122051Y0096218D01*
X0122051Y0094620D02*
X0123949Y0094620D01*
X0124057Y0093021D02*
X0121943Y0093021D01*
X0112752Y0101014D02*
X0111888Y0101014D01*
X0106469Y0096218D02*
X0105531Y0096218D01*
X0105531Y0094620D02*
X0106469Y0094620D01*
X0099382Y0094620D02*
X0065584Y0094620D01*
X0063743Y0096218D02*
X0099382Y0096218D01*
X0105531Y0110605D02*
X0106469Y0110605D01*
X0106469Y0112203D02*
X0105531Y0112203D01*
X0105531Y0113802D02*
X0106469Y0113802D01*
X0106469Y0115400D02*
X0105531Y0115400D01*
X0104816Y0116999D02*
X0107184Y0116999D01*
X0111903Y0116999D02*
X0112752Y0116999D01*
X0139531Y0124991D02*
X0140469Y0124991D01*
X0150000Y0131300D02*
X0152000Y0133300D01*
X0156000Y0133300D01*
X0158000Y0135300D01*
X0158000Y0146300D01*
X0156720Y0147580D01*
X0150484Y0147580D01*
X0150484Y0150139D02*
X0160161Y0150139D01*
X0163000Y0147300D01*
X0163000Y0128757D01*
X0164457Y0127300D01*
X0156543Y0127300D01*
X0157000Y0127757D01*
X0165300Y0131385D02*
X0170882Y0131385D01*
X0169649Y0132984D02*
X0165300Y0132984D01*
X0165300Y0134582D02*
X0169400Y0134582D01*
X0169927Y0136181D02*
X0165300Y0136181D01*
X0165300Y0137779D02*
X0172039Y0137779D01*
X0173000Y0137779D02*
X0173000Y0137779D01*
X0173961Y0137779D02*
X0176382Y0137779D01*
X0176382Y0136181D02*
X0176073Y0136181D01*
X0173000Y0136181D02*
X0173000Y0136181D01*
X0173000Y0134582D02*
X0173000Y0134582D01*
X0176382Y0139378D02*
X0165300Y0139378D01*
X0167531Y0129787D02*
X0168469Y0129787D01*
X0168469Y0128188D02*
X0167531Y0128188D01*
X0167531Y0126590D02*
X0168469Y0126590D01*
X0168469Y0124991D02*
X0167996Y0124991D01*
X0169549Y0123438D02*
X0172575Y0123438D01*
X0172538Y0123350D01*
X0172400Y0122655D01*
X0172400Y0122300D01*
X0176000Y0122300D01*
X0179600Y0122300D01*
X0176000Y0122300D01*
X0176000Y0122300D01*
X0176000Y0122300D01*
X0172400Y0122300D01*
X0172400Y0121945D01*
X0172538Y0121250D01*
X0172575Y0121162D01*
X0169900Y0121162D01*
X0169900Y0123087D01*
X0169549Y0123438D01*
X0169594Y0123393D02*
X0172556Y0123393D01*
X0172430Y0121794D02*
X0169900Y0121794D01*
X0171543Y0117300D02*
X0179457Y0117300D01*
X0179457Y0107300D01*
X0182531Y0107408D02*
X0183398Y0107408D01*
X0183469Y0109006D02*
X0182531Y0109006D01*
X0182210Y0110605D02*
X0183790Y0110605D01*
X0181757Y0112203D02*
X0195700Y0112203D01*
X0198000Y0113757D02*
X0194457Y0117300D01*
X0186543Y0117300D01*
X0183469Y0116999D02*
X0182531Y0116999D01*
X0182531Y0118597D02*
X0183469Y0118597D01*
X0183469Y0120196D02*
X0182531Y0120196D01*
X0179570Y0121794D02*
X0199243Y0121794D01*
X0199243Y0123393D02*
X0179444Y0123393D01*
X0182531Y0124991D02*
X0183469Y0124991D01*
X0183469Y0126590D02*
X0182531Y0126590D01*
X0179457Y0127300D02*
X0171543Y0127300D01*
X0179457Y0127300D02*
X0179457Y0137300D01*
X0185300Y0132984D02*
X0202711Y0132984D01*
X0201833Y0131385D02*
X0185711Y0131385D01*
X0189618Y0129787D02*
X0191382Y0129787D01*
X0191382Y0134582D02*
X0189618Y0134582D01*
X0197531Y0134582D02*
X0198469Y0134582D01*
X0198469Y0136181D02*
X0197531Y0136181D01*
X0197531Y0137779D02*
X0198469Y0137779D01*
X0198469Y0139378D02*
X0197531Y0139378D01*
X0196839Y0140976D02*
X0199161Y0140976D01*
X0203925Y0140976D02*
X0207075Y0140976D01*
X0209457Y0137300D02*
X0201543Y0137300D01*
X0209457Y0137300D02*
X0209457Y0147300D01*
X0212531Y0147370D02*
X0213469Y0147370D01*
X0213469Y0145772D02*
X0212531Y0145772D01*
X0212388Y0144173D02*
X0213612Y0144173D01*
X0216543Y0147300D02*
X0217000Y0148257D01*
X0217000Y0154300D01*
X0213839Y0157461D01*
X0173516Y0157461D01*
X0173516Y0160020D01*
X0169654Y0160159D02*
X0154346Y0160159D01*
X0154346Y0161757D02*
X0169654Y0161757D01*
X0169654Y0163356D02*
X0154346Y0163356D01*
X0154346Y0164954D02*
X0169654Y0164954D01*
X0169757Y0166553D02*
X0154243Y0166553D01*
X0154600Y0158560D02*
X0169654Y0158560D01*
X0169654Y0156962D02*
X0154646Y0156962D01*
X0153983Y0155363D02*
X0170442Y0155363D01*
X0169946Y0152166D02*
X0161387Y0152166D01*
X0162985Y0150568D02*
X0169354Y0150568D01*
X0173516Y0150568D02*
X0173516Y0150568D01*
X0173516Y0150139D02*
X0173516Y0150139D01*
X0173516Y0152166D02*
X0173516Y0152166D01*
X0177378Y0164954D02*
X0280000Y0164954D01*
X0280000Y0166553D02*
X0177699Y0166553D01*
X0180518Y0168151D02*
X0280000Y0168151D01*
X0280000Y0169750D02*
X0181300Y0169750D01*
X0181138Y0171348D02*
X0280000Y0171348D01*
X0280000Y0172947D02*
X0180020Y0172947D01*
X0175980Y0172947D02*
X0043000Y0172947D01*
X0043000Y0174545D02*
X0280000Y0174545D01*
X0280000Y0176144D02*
X0043000Y0176144D01*
X0043000Y0177742D02*
X0056158Y0177742D01*
X0056425Y0177475D02*
X0058934Y0176436D01*
X0061649Y0176436D01*
X0064157Y0177475D01*
X0066077Y0179395D01*
X0067116Y0181903D01*
X0067116Y0184618D01*
X0066077Y0187127D01*
X0064157Y0189047D01*
X0061649Y0190086D01*
X0058934Y0190086D01*
X0056425Y0189047D01*
X0054505Y0187127D01*
X0053466Y0184618D01*
X0053466Y0181903D01*
X0054505Y0179395D01*
X0056425Y0177475D01*
X0054559Y0179341D02*
X0043000Y0179341D01*
X0043000Y0180939D02*
X0053866Y0180939D01*
X0053466Y0182538D02*
X0043000Y0182538D01*
X0043000Y0184136D02*
X0053466Y0184136D01*
X0053929Y0185735D02*
X0043000Y0185735D01*
X0043000Y0187333D02*
X0054712Y0187333D01*
X0056310Y0188932D02*
X0043000Y0188932D01*
X0043000Y0190530D02*
X0280000Y0190530D01*
X0280000Y0188932D02*
X0064272Y0188932D01*
X0065871Y0187333D02*
X0280000Y0187333D01*
X0280000Y0185735D02*
X0066654Y0185735D01*
X0067116Y0184136D02*
X0280000Y0184136D01*
X0280000Y0182538D02*
X0067116Y0182538D01*
X0066717Y0180939D02*
X0280000Y0180939D01*
X0280000Y0179341D02*
X0066023Y0179341D01*
X0064425Y0177742D02*
X0280000Y0177742D01*
X0280000Y0192129D02*
X0043000Y0192129D01*
X0043000Y0193727D02*
X0280000Y0193727D01*
X0280000Y0195326D02*
X0043000Y0195326D01*
X0043000Y0196924D02*
X0280000Y0196924D01*
X0280000Y0198523D02*
X0043000Y0198523D01*
X0043000Y0200121D02*
X0280000Y0200121D01*
X0280000Y0201720D02*
X0273284Y0201720D01*
X0272864Y0201300D02*
X0275500Y0203936D01*
X0275500Y0207664D01*
X0272864Y0210300D01*
X0269136Y0210300D01*
X0266500Y0207664D01*
X0266500Y0203936D01*
X0269136Y0201300D01*
X0272864Y0201300D01*
X0274882Y0203318D02*
X0280000Y0203318D01*
X0280000Y0204917D02*
X0275500Y0204917D01*
X0275500Y0206515D02*
X0280000Y0206515D01*
X0280000Y0208114D02*
X0275050Y0208114D01*
X0273452Y0209712D02*
X0280000Y0209712D01*
X0280000Y0211311D02*
X0272875Y0211311D01*
X0272864Y0211300D02*
X0275500Y0213936D01*
X0275500Y0217664D01*
X0272864Y0220300D01*
X0269136Y0220300D01*
X0266500Y0217664D01*
X0266500Y0213936D01*
X0269136Y0211300D01*
X0272864Y0211300D01*
X0274473Y0212909D02*
X0280000Y0212909D01*
X0280000Y0214508D02*
X0275500Y0214508D01*
X0275500Y0216106D02*
X0280000Y0216106D01*
X0280000Y0217705D02*
X0275459Y0217705D01*
X0273860Y0219303D02*
X0280000Y0219303D01*
X0280000Y0220902D02*
X0043000Y0220902D01*
X0043000Y0219303D02*
X0048140Y0219303D01*
X0049136Y0220300D02*
X0046500Y0217664D01*
X0046500Y0213936D01*
X0049136Y0211300D01*
X0052864Y0211300D01*
X0055500Y0213936D01*
X0055500Y0217664D01*
X0052864Y0220300D01*
X0049136Y0220300D01*
X0046541Y0217705D02*
X0043000Y0217705D01*
X0043000Y0216106D02*
X0046500Y0216106D01*
X0046500Y0214508D02*
X0043000Y0214508D01*
X0043000Y0212909D02*
X0047527Y0212909D01*
X0049125Y0211311D02*
X0043000Y0211311D01*
X0043000Y0209712D02*
X0048548Y0209712D01*
X0049136Y0210300D02*
X0046500Y0207664D01*
X0046500Y0203936D01*
X0049136Y0201300D01*
X0052864Y0201300D01*
X0055500Y0203936D01*
X0055500Y0207664D01*
X0052864Y0210300D01*
X0049136Y0210300D01*
X0046950Y0208114D02*
X0043000Y0208114D01*
X0043000Y0206515D02*
X0046500Y0206515D01*
X0046500Y0204917D02*
X0043000Y0204917D01*
X0043000Y0203318D02*
X0047118Y0203318D01*
X0048716Y0201720D02*
X0043000Y0201720D01*
X0053284Y0201720D02*
X0058716Y0201720D01*
X0059136Y0201300D02*
X0062864Y0201300D01*
X0065500Y0203936D01*
X0065500Y0207664D01*
X0062864Y0210300D01*
X0059136Y0210300D01*
X0056500Y0207664D01*
X0056500Y0203936D01*
X0059136Y0201300D01*
X0057118Y0203318D02*
X0054882Y0203318D01*
X0055500Y0204917D02*
X0056500Y0204917D01*
X0056500Y0206515D02*
X0055500Y0206515D01*
X0055050Y0208114D02*
X0056950Y0208114D01*
X0058548Y0209712D02*
X0053452Y0209712D01*
X0052875Y0211311D02*
X0059125Y0211311D01*
X0059136Y0211300D02*
X0062864Y0211300D01*
X0065500Y0213936D01*
X0065500Y0217664D01*
X0062864Y0220300D01*
X0059136Y0220300D01*
X0056500Y0217664D01*
X0056500Y0213936D01*
X0059136Y0211300D01*
X0057527Y0212909D02*
X0054473Y0212909D01*
X0055500Y0214508D02*
X0056500Y0214508D01*
X0056500Y0216106D02*
X0055500Y0216106D01*
X0055459Y0217705D02*
X0056541Y0217705D01*
X0058140Y0219303D02*
X0053860Y0219303D01*
X0063860Y0219303D02*
X0068140Y0219303D01*
X0069136Y0220300D02*
X0066500Y0217664D01*
X0066500Y0213936D01*
X0069136Y0211300D01*
X0072864Y0211300D01*
X0075500Y0213936D01*
X0075500Y0217664D01*
X0072864Y0220300D01*
X0069136Y0220300D01*
X0066541Y0217705D02*
X0065459Y0217705D01*
X0065500Y0216106D02*
X0066500Y0216106D01*
X0066500Y0214508D02*
X0065500Y0214508D01*
X0064473Y0212909D02*
X0067527Y0212909D01*
X0069125Y0211311D02*
X0062875Y0211311D01*
X0063452Y0209712D02*
X0068548Y0209712D01*
X0069136Y0210300D02*
X0066500Y0207664D01*
X0066500Y0203936D01*
X0069136Y0201300D01*
X0072864Y0201300D01*
X0075500Y0203936D01*
X0075500Y0207664D01*
X0072864Y0210300D01*
X0069136Y0210300D01*
X0066950Y0208114D02*
X0065050Y0208114D01*
X0065500Y0206515D02*
X0066500Y0206515D01*
X0066500Y0204917D02*
X0065500Y0204917D01*
X0064882Y0203318D02*
X0067118Y0203318D01*
X0068716Y0201720D02*
X0063284Y0201720D01*
X0073284Y0201720D02*
X0078716Y0201720D01*
X0079136Y0201300D02*
X0076500Y0203936D01*
X0076500Y0207664D01*
X0079136Y0210300D01*
X0082864Y0210300D01*
X0085500Y0207664D01*
X0085500Y0203936D01*
X0082864Y0201300D01*
X0079136Y0201300D01*
X0077118Y0203318D02*
X0074882Y0203318D01*
X0075500Y0204917D02*
X0076500Y0204917D01*
X0076500Y0206515D02*
X0075500Y0206515D01*
X0075050Y0208114D02*
X0076950Y0208114D01*
X0078548Y0209712D02*
X0073452Y0209712D01*
X0072875Y0211311D02*
X0079125Y0211311D01*
X0079136Y0211300D02*
X0082864Y0211300D01*
X0085500Y0213936D01*
X0085500Y0217664D01*
X0082864Y0220300D01*
X0079136Y0220300D01*
X0076500Y0217664D01*
X0076500Y0213936D01*
X0079136Y0211300D01*
X0077527Y0212909D02*
X0074473Y0212909D01*
X0075500Y0214508D02*
X0076500Y0214508D01*
X0076500Y0216106D02*
X0075500Y0216106D01*
X0075459Y0217705D02*
X0076541Y0217705D01*
X0078140Y0219303D02*
X0073860Y0219303D01*
X0083860Y0219303D02*
X0088140Y0219303D01*
X0089136Y0220300D02*
X0086500Y0217664D01*
X0086500Y0213936D01*
X0089136Y0211300D01*
X0092864Y0211300D01*
X0095500Y0213936D01*
X0095500Y0217664D01*
X0092864Y0220300D01*
X0089136Y0220300D01*
X0086541Y0217705D02*
X0085459Y0217705D01*
X0085500Y0216106D02*
X0086500Y0216106D01*
X0086500Y0214508D02*
X0085500Y0214508D01*
X0084473Y0212909D02*
X0087527Y0212909D01*
X0089125Y0211311D02*
X0082875Y0211311D01*
X0083452Y0209712D02*
X0088548Y0209712D01*
X0089136Y0210300D02*
X0086500Y0207664D01*
X0086500Y0203936D01*
X0089136Y0201300D01*
X0092864Y0201300D01*
X0095500Y0203936D01*
X0095500Y0207664D01*
X0092864Y0210300D01*
X0089136Y0210300D01*
X0086950Y0208114D02*
X0085050Y0208114D01*
X0085500Y0206515D02*
X0086500Y0206515D01*
X0086500Y0204917D02*
X0085500Y0204917D01*
X0084882Y0203318D02*
X0087118Y0203318D01*
X0088716Y0201720D02*
X0083284Y0201720D01*
X0093284Y0201720D02*
X0098716Y0201720D01*
X0099136Y0201300D02*
X0102864Y0201300D01*
X0105500Y0203936D01*
X0105500Y0207664D01*
X0102864Y0210300D01*
X0099136Y0210300D01*
X0096500Y0207664D01*
X0096500Y0203936D01*
X0099136Y0201300D01*
X0097118Y0203318D02*
X0094882Y0203318D01*
X0095500Y0204917D02*
X0096500Y0204917D01*
X0096500Y0206515D02*
X0095500Y0206515D01*
X0095050Y0208114D02*
X0096950Y0208114D01*
X0098548Y0209712D02*
X0093452Y0209712D01*
X0092875Y0211311D02*
X0099125Y0211311D01*
X0099136Y0211300D02*
X0102864Y0211300D01*
X0105500Y0213936D01*
X0105500Y0217664D01*
X0102864Y0220300D01*
X0099136Y0220300D01*
X0096500Y0217664D01*
X0096500Y0213936D01*
X0099136Y0211300D01*
X0097527Y0212909D02*
X0094473Y0212909D01*
X0095500Y0214508D02*
X0096500Y0214508D01*
X0096500Y0216106D02*
X0095500Y0216106D01*
X0095459Y0217705D02*
X0096541Y0217705D01*
X0098140Y0219303D02*
X0093860Y0219303D01*
X0103860Y0219303D02*
X0108140Y0219303D01*
X0109136Y0220300D02*
X0106500Y0217664D01*
X0106500Y0213936D01*
X0109136Y0211300D01*
X0112864Y0211300D01*
X0115500Y0213936D01*
X0115500Y0217664D01*
X0112864Y0220300D01*
X0109136Y0220300D01*
X0106541Y0217705D02*
X0105459Y0217705D01*
X0105500Y0216106D02*
X0106500Y0216106D01*
X0106500Y0214508D02*
X0105500Y0214508D01*
X0104473Y0212909D02*
X0107527Y0212909D01*
X0109125Y0211311D02*
X0102875Y0211311D01*
X0103452Y0209712D02*
X0108548Y0209712D01*
X0109136Y0210300D02*
X0106500Y0207664D01*
X0106500Y0203936D01*
X0109136Y0201300D01*
X0112864Y0201300D01*
X0115500Y0203936D01*
X0115500Y0207664D01*
X0112864Y0210300D01*
X0109136Y0210300D01*
X0106950Y0208114D02*
X0105050Y0208114D01*
X0105500Y0206515D02*
X0106500Y0206515D01*
X0106500Y0204917D02*
X0105500Y0204917D01*
X0104882Y0203318D02*
X0107118Y0203318D01*
X0108716Y0201720D02*
X0103284Y0201720D01*
X0113284Y0201720D02*
X0118716Y0201720D01*
X0119136Y0201300D02*
X0122864Y0201300D01*
X0125500Y0203936D01*
X0125500Y0207664D01*
X0122864Y0210300D01*
X0119136Y0210300D01*
X0116500Y0207664D01*
X0116500Y0203936D01*
X0119136Y0201300D01*
X0117118Y0203318D02*
X0114882Y0203318D01*
X0115500Y0204917D02*
X0116500Y0204917D01*
X0116500Y0206515D02*
X0115500Y0206515D01*
X0115050Y0208114D02*
X0116950Y0208114D01*
X0118548Y0209712D02*
X0113452Y0209712D01*
X0112875Y0211311D02*
X0119125Y0211311D01*
X0119136Y0211300D02*
X0122864Y0211300D01*
X0125500Y0213936D01*
X0125500Y0217664D01*
X0122864Y0220300D01*
X0119136Y0220300D01*
X0116500Y0217664D01*
X0116500Y0213936D01*
X0119136Y0211300D01*
X0117527Y0212909D02*
X0114473Y0212909D01*
X0115500Y0214508D02*
X0116500Y0214508D01*
X0116500Y0216106D02*
X0115500Y0216106D01*
X0115459Y0217705D02*
X0116541Y0217705D01*
X0118140Y0219303D02*
X0113860Y0219303D01*
X0123860Y0219303D02*
X0128140Y0219303D01*
X0129136Y0220300D02*
X0126500Y0217664D01*
X0126500Y0213936D01*
X0129136Y0211300D01*
X0132864Y0211300D01*
X0135500Y0213936D01*
X0135500Y0217664D01*
X0132864Y0220300D01*
X0129136Y0220300D01*
X0126541Y0217705D02*
X0125459Y0217705D01*
X0125500Y0216106D02*
X0126500Y0216106D01*
X0126500Y0214508D02*
X0125500Y0214508D01*
X0124473Y0212909D02*
X0127527Y0212909D01*
X0129125Y0211311D02*
X0122875Y0211311D01*
X0123452Y0209712D02*
X0128548Y0209712D01*
X0129136Y0210300D02*
X0126500Y0207664D01*
X0126500Y0203936D01*
X0129136Y0201300D01*
X0132864Y0201300D01*
X0135500Y0203936D01*
X0135500Y0207664D01*
X0132864Y0210300D01*
X0129136Y0210300D01*
X0126950Y0208114D02*
X0125050Y0208114D01*
X0125500Y0206515D02*
X0126500Y0206515D01*
X0126500Y0204917D02*
X0125500Y0204917D01*
X0124882Y0203318D02*
X0127118Y0203318D01*
X0128716Y0201720D02*
X0123284Y0201720D01*
X0133284Y0201720D02*
X0138716Y0201720D01*
X0139136Y0201300D02*
X0142864Y0201300D01*
X0145500Y0203936D01*
X0145500Y0207664D01*
X0142864Y0210300D01*
X0139136Y0210300D01*
X0136500Y0207664D01*
X0136500Y0203936D01*
X0139136Y0201300D01*
X0137118Y0203318D02*
X0134882Y0203318D01*
X0135500Y0204917D02*
X0136500Y0204917D01*
X0136500Y0206515D02*
X0135500Y0206515D01*
X0135050Y0208114D02*
X0136950Y0208114D01*
X0138548Y0209712D02*
X0133452Y0209712D01*
X0132875Y0211311D02*
X0139125Y0211311D01*
X0139136Y0211300D02*
X0142864Y0211300D01*
X0145500Y0213936D01*
X0145500Y0217664D01*
X0142864Y0220300D01*
X0139136Y0220300D01*
X0136500Y0217664D01*
X0136500Y0213936D01*
X0139136Y0211300D01*
X0137527Y0212909D02*
X0134473Y0212909D01*
X0135500Y0214508D02*
X0136500Y0214508D01*
X0136500Y0216106D02*
X0135500Y0216106D01*
X0135459Y0217705D02*
X0136541Y0217705D01*
X0138140Y0219303D02*
X0133860Y0219303D01*
X0143860Y0219303D02*
X0148140Y0219303D01*
X0149136Y0220300D02*
X0146500Y0217664D01*
X0146500Y0213936D01*
X0149136Y0211300D01*
X0152864Y0211300D01*
X0155500Y0213936D01*
X0155500Y0217664D01*
X0152864Y0220300D01*
X0149136Y0220300D01*
X0146541Y0217705D02*
X0145459Y0217705D01*
X0145500Y0216106D02*
X0146500Y0216106D01*
X0146500Y0214508D02*
X0145500Y0214508D01*
X0144473Y0212909D02*
X0147527Y0212909D01*
X0149125Y0211311D02*
X0142875Y0211311D01*
X0143452Y0209712D02*
X0148548Y0209712D01*
X0149136Y0210300D02*
X0146500Y0207664D01*
X0146500Y0203936D01*
X0149136Y0201300D01*
X0152864Y0201300D01*
X0155500Y0203936D01*
X0155500Y0207664D01*
X0152864Y0210300D01*
X0149136Y0210300D01*
X0146950Y0208114D02*
X0145050Y0208114D01*
X0145500Y0206515D02*
X0146500Y0206515D01*
X0146500Y0204917D02*
X0145500Y0204917D01*
X0144882Y0203318D02*
X0147118Y0203318D01*
X0148716Y0201720D02*
X0143284Y0201720D01*
X0153284Y0201720D02*
X0158716Y0201720D01*
X0159136Y0201300D02*
X0162864Y0201300D01*
X0165500Y0203936D01*
X0165500Y0207664D01*
X0162864Y0210300D01*
X0159136Y0210300D01*
X0156500Y0207664D01*
X0156500Y0203936D01*
X0159136Y0201300D01*
X0157118Y0203318D02*
X0154882Y0203318D01*
X0155500Y0204917D02*
X0156500Y0204917D01*
X0156500Y0206515D02*
X0155500Y0206515D01*
X0155050Y0208114D02*
X0156950Y0208114D01*
X0158548Y0209712D02*
X0153452Y0209712D01*
X0152875Y0211311D02*
X0159125Y0211311D01*
X0159136Y0211300D02*
X0162864Y0211300D01*
X0165500Y0213936D01*
X0165500Y0217664D01*
X0162864Y0220300D01*
X0159136Y0220300D01*
X0156500Y0217664D01*
X0156500Y0213936D01*
X0159136Y0211300D01*
X0157527Y0212909D02*
X0154473Y0212909D01*
X0155500Y0214508D02*
X0156500Y0214508D01*
X0156500Y0216106D02*
X0155500Y0216106D01*
X0155459Y0217705D02*
X0156541Y0217705D01*
X0158140Y0219303D02*
X0153860Y0219303D01*
X0163860Y0219303D02*
X0168140Y0219303D01*
X0169136Y0220300D02*
X0166500Y0217664D01*
X0166500Y0213936D01*
X0169136Y0211300D01*
X0172864Y0211300D01*
X0175500Y0213936D01*
X0175500Y0217664D01*
X0172864Y0220300D01*
X0169136Y0220300D01*
X0166541Y0217705D02*
X0165459Y0217705D01*
X0165500Y0216106D02*
X0166500Y0216106D01*
X0166500Y0214508D02*
X0165500Y0214508D01*
X0164473Y0212909D02*
X0167527Y0212909D01*
X0169125Y0211311D02*
X0162875Y0211311D01*
X0163452Y0209712D02*
X0168548Y0209712D01*
X0169136Y0210300D02*
X0166500Y0207664D01*
X0166500Y0203936D01*
X0169136Y0201300D01*
X0172864Y0201300D01*
X0175500Y0203936D01*
X0175500Y0207664D01*
X0172864Y0210300D01*
X0169136Y0210300D01*
X0166950Y0208114D02*
X0165050Y0208114D01*
X0165500Y0206515D02*
X0166500Y0206515D01*
X0166500Y0204917D02*
X0165500Y0204917D01*
X0164882Y0203318D02*
X0167118Y0203318D01*
X0168716Y0201720D02*
X0163284Y0201720D01*
X0173284Y0201720D02*
X0178716Y0201720D01*
X0179136Y0201300D02*
X0182864Y0201300D01*
X0185500Y0203936D01*
X0185500Y0207664D01*
X0182864Y0210300D01*
X0179136Y0210300D01*
X0176500Y0207664D01*
X0176500Y0203936D01*
X0179136Y0201300D01*
X0177118Y0203318D02*
X0174882Y0203318D01*
X0175500Y0204917D02*
X0176500Y0204917D01*
X0176500Y0206515D02*
X0175500Y0206515D01*
X0175050Y0208114D02*
X0176950Y0208114D01*
X0178548Y0209712D02*
X0173452Y0209712D01*
X0172875Y0211311D02*
X0179125Y0211311D01*
X0179136Y0211300D02*
X0182864Y0211300D01*
X0185500Y0213936D01*
X0185500Y0217664D01*
X0182864Y0220300D01*
X0179136Y0220300D01*
X0176500Y0217664D01*
X0176500Y0213936D01*
X0179136Y0211300D01*
X0177527Y0212909D02*
X0174473Y0212909D01*
X0175500Y0214508D02*
X0176500Y0214508D01*
X0176500Y0216106D02*
X0175500Y0216106D01*
X0175459Y0217705D02*
X0176541Y0217705D01*
X0178140Y0219303D02*
X0173860Y0219303D01*
X0183860Y0219303D02*
X0188140Y0219303D01*
X0189136Y0220300D02*
X0186500Y0217664D01*
X0186500Y0213936D01*
X0189136Y0211300D01*
X0192864Y0211300D01*
X0195500Y0213936D01*
X0195500Y0217664D01*
X0192864Y0220300D01*
X0189136Y0220300D01*
X0186541Y0217705D02*
X0185459Y0217705D01*
X0185500Y0216106D02*
X0186500Y0216106D01*
X0186500Y0214508D02*
X0185500Y0214508D01*
X0184473Y0212909D02*
X0187527Y0212909D01*
X0189125Y0211311D02*
X0182875Y0211311D01*
X0183452Y0209712D02*
X0188548Y0209712D01*
X0189136Y0210300D02*
X0186500Y0207664D01*
X0186500Y0203936D01*
X0189136Y0201300D01*
X0192864Y0201300D01*
X0195500Y0203936D01*
X0195500Y0207664D01*
X0192864Y0210300D01*
X0189136Y0210300D01*
X0186950Y0208114D02*
X0185050Y0208114D01*
X0185500Y0206515D02*
X0186500Y0206515D01*
X0186500Y0204917D02*
X0185500Y0204917D01*
X0184882Y0203318D02*
X0187118Y0203318D01*
X0188716Y0201720D02*
X0183284Y0201720D01*
X0193284Y0201720D02*
X0198716Y0201720D01*
X0199136Y0201300D02*
X0196500Y0203936D01*
X0196500Y0207664D01*
X0199136Y0210300D01*
X0202864Y0210300D01*
X0205500Y0207664D01*
X0205500Y0203936D01*
X0202864Y0201300D01*
X0199136Y0201300D01*
X0197118Y0203318D02*
X0194882Y0203318D01*
X0195500Y0204917D02*
X0196500Y0204917D01*
X0196500Y0206515D02*
X0195500Y0206515D01*
X0195050Y0208114D02*
X0196950Y0208114D01*
X0198548Y0209712D02*
X0193452Y0209712D01*
X0192875Y0211311D02*
X0199125Y0211311D01*
X0199136Y0211300D02*
X0202864Y0211300D01*
X0205500Y0213936D01*
X0205500Y0217664D01*
X0202864Y0220300D01*
X0199136Y0220300D01*
X0196500Y0217664D01*
X0196500Y0213936D01*
X0199136Y0211300D01*
X0197527Y0212909D02*
X0194473Y0212909D01*
X0195500Y0214508D02*
X0196500Y0214508D01*
X0196500Y0216106D02*
X0195500Y0216106D01*
X0195459Y0217705D02*
X0196541Y0217705D01*
X0198140Y0219303D02*
X0193860Y0219303D01*
X0203860Y0219303D02*
X0208140Y0219303D01*
X0209136Y0220300D02*
X0206500Y0217664D01*
X0206500Y0213936D01*
X0209136Y0211300D01*
X0212864Y0211300D01*
X0215500Y0213936D01*
X0215500Y0217664D01*
X0212864Y0220300D01*
X0209136Y0220300D01*
X0206541Y0217705D02*
X0205459Y0217705D01*
X0205500Y0216106D02*
X0206500Y0216106D01*
X0206500Y0214508D02*
X0205500Y0214508D01*
X0204473Y0212909D02*
X0207527Y0212909D01*
X0209125Y0211311D02*
X0202875Y0211311D01*
X0203452Y0209712D02*
X0208548Y0209712D01*
X0209136Y0210300D02*
X0206500Y0207664D01*
X0206500Y0203936D01*
X0209136Y0201300D01*
X0212864Y0201300D01*
X0215500Y0203936D01*
X0215500Y0207664D01*
X0212864Y0210300D01*
X0209136Y0210300D01*
X0206950Y0208114D02*
X0205050Y0208114D01*
X0205500Y0206515D02*
X0206500Y0206515D01*
X0206500Y0204917D02*
X0205500Y0204917D01*
X0204882Y0203318D02*
X0207118Y0203318D01*
X0208716Y0201720D02*
X0203284Y0201720D01*
X0213284Y0201720D02*
X0218716Y0201720D01*
X0219136Y0201300D02*
X0222864Y0201300D01*
X0225500Y0203936D01*
X0225500Y0207664D01*
X0222864Y0210300D01*
X0219136Y0210300D01*
X0216500Y0207664D01*
X0216500Y0203936D01*
X0219136Y0201300D01*
X0217118Y0203318D02*
X0214882Y0203318D01*
X0215500Y0204917D02*
X0216500Y0204917D01*
X0216500Y0206515D02*
X0215500Y0206515D01*
X0215050Y0208114D02*
X0216950Y0208114D01*
X0218548Y0209712D02*
X0213452Y0209712D01*
X0212875Y0211311D02*
X0219125Y0211311D01*
X0219136Y0211300D02*
X0222864Y0211300D01*
X0225500Y0213936D01*
X0225500Y0217664D01*
X0222864Y0220300D01*
X0219136Y0220300D01*
X0216500Y0217664D01*
X0216500Y0213936D01*
X0219136Y0211300D01*
X0217527Y0212909D02*
X0214473Y0212909D01*
X0215500Y0214508D02*
X0216500Y0214508D01*
X0216500Y0216106D02*
X0215500Y0216106D01*
X0215459Y0217705D02*
X0216541Y0217705D01*
X0218140Y0219303D02*
X0213860Y0219303D01*
X0223860Y0219303D02*
X0228140Y0219303D01*
X0229136Y0220300D02*
X0226500Y0217664D01*
X0226500Y0213936D01*
X0229136Y0211300D01*
X0232864Y0211300D01*
X0235500Y0213936D01*
X0235500Y0217664D01*
X0232864Y0220300D01*
X0229136Y0220300D01*
X0226541Y0217705D02*
X0225459Y0217705D01*
X0225500Y0216106D02*
X0226500Y0216106D01*
X0226500Y0214508D02*
X0225500Y0214508D01*
X0224473Y0212909D02*
X0227527Y0212909D01*
X0229125Y0211311D02*
X0222875Y0211311D01*
X0223452Y0209712D02*
X0228548Y0209712D01*
X0229136Y0210300D02*
X0226500Y0207664D01*
X0226500Y0203936D01*
X0229136Y0201300D01*
X0232864Y0201300D01*
X0235500Y0203936D01*
X0235500Y0207664D01*
X0232864Y0210300D01*
X0229136Y0210300D01*
X0226950Y0208114D02*
X0225050Y0208114D01*
X0225500Y0206515D02*
X0226500Y0206515D01*
X0226500Y0204917D02*
X0225500Y0204917D01*
X0224882Y0203318D02*
X0227118Y0203318D01*
X0228716Y0201720D02*
X0223284Y0201720D01*
X0233284Y0201720D02*
X0238716Y0201720D01*
X0239136Y0201300D02*
X0242864Y0201300D01*
X0245500Y0203936D01*
X0245500Y0207664D01*
X0242864Y0210300D01*
X0239136Y0210300D01*
X0236500Y0207664D01*
X0236500Y0203936D01*
X0239136Y0201300D01*
X0237118Y0203318D02*
X0234882Y0203318D01*
X0235500Y0204917D02*
X0236500Y0204917D01*
X0236500Y0206515D02*
X0235500Y0206515D01*
X0235050Y0208114D02*
X0236950Y0208114D01*
X0238548Y0209712D02*
X0233452Y0209712D01*
X0232875Y0211311D02*
X0239125Y0211311D01*
X0239136Y0211300D02*
X0242864Y0211300D01*
X0245500Y0213936D01*
X0245500Y0217664D01*
X0242864Y0220300D01*
X0239136Y0220300D01*
X0236500Y0217664D01*
X0236500Y0213936D01*
X0239136Y0211300D01*
X0237527Y0212909D02*
X0234473Y0212909D01*
X0235500Y0214508D02*
X0236500Y0214508D01*
X0236500Y0216106D02*
X0235500Y0216106D01*
X0235459Y0217705D02*
X0236541Y0217705D01*
X0238140Y0219303D02*
X0233860Y0219303D01*
X0243860Y0219303D02*
X0248140Y0219303D01*
X0249136Y0220300D02*
X0246500Y0217664D01*
X0246500Y0213936D01*
X0249136Y0211300D01*
X0252864Y0211300D01*
X0255500Y0213936D01*
X0255500Y0217664D01*
X0252864Y0220300D01*
X0249136Y0220300D01*
X0246541Y0217705D02*
X0245459Y0217705D01*
X0245500Y0216106D02*
X0246500Y0216106D01*
X0246500Y0214508D02*
X0245500Y0214508D01*
X0244473Y0212909D02*
X0247527Y0212909D01*
X0249125Y0211311D02*
X0242875Y0211311D01*
X0243452Y0209712D02*
X0248548Y0209712D01*
X0249136Y0210300D02*
X0246500Y0207664D01*
X0246500Y0203936D01*
X0249136Y0201300D01*
X0252864Y0201300D01*
X0255500Y0203936D01*
X0255500Y0207664D01*
X0252864Y0210300D01*
X0249136Y0210300D01*
X0246950Y0208114D02*
X0245050Y0208114D01*
X0245500Y0206515D02*
X0246500Y0206515D01*
X0246500Y0204917D02*
X0245500Y0204917D01*
X0244882Y0203318D02*
X0247118Y0203318D01*
X0248716Y0201720D02*
X0243284Y0201720D01*
X0253284Y0201720D02*
X0258716Y0201720D01*
X0259136Y0201300D02*
X0262864Y0201300D01*
X0265500Y0203936D01*
X0265500Y0207664D01*
X0262864Y0210300D01*
X0259136Y0210300D01*
X0256500Y0207664D01*
X0256500Y0203936D01*
X0259136Y0201300D01*
X0257118Y0203318D02*
X0254882Y0203318D01*
X0255500Y0204917D02*
X0256500Y0204917D01*
X0256500Y0206515D02*
X0255500Y0206515D01*
X0255050Y0208114D02*
X0256950Y0208114D01*
X0258548Y0209712D02*
X0253452Y0209712D01*
X0252875Y0211311D02*
X0259125Y0211311D01*
X0259136Y0211300D02*
X0262864Y0211300D01*
X0265500Y0213936D01*
X0265500Y0217664D01*
X0262864Y0220300D01*
X0259136Y0220300D01*
X0256500Y0217664D01*
X0256500Y0213936D01*
X0259136Y0211300D01*
X0257527Y0212909D02*
X0254473Y0212909D01*
X0255500Y0214508D02*
X0256500Y0214508D01*
X0256500Y0216106D02*
X0255500Y0216106D01*
X0255459Y0217705D02*
X0256541Y0217705D01*
X0258140Y0219303D02*
X0253860Y0219303D01*
X0263860Y0219303D02*
X0268140Y0219303D01*
X0266541Y0217705D02*
X0265459Y0217705D01*
X0265500Y0216106D02*
X0266500Y0216106D01*
X0266500Y0214508D02*
X0265500Y0214508D01*
X0264473Y0212909D02*
X0267527Y0212909D01*
X0269125Y0211311D02*
X0262875Y0211311D01*
X0263452Y0209712D02*
X0268548Y0209712D01*
X0266950Y0208114D02*
X0265050Y0208114D01*
X0265500Y0206515D02*
X0266500Y0206515D01*
X0266500Y0204917D02*
X0265500Y0204917D01*
X0264882Y0203318D02*
X0267118Y0203318D01*
X0268716Y0201720D02*
X0263284Y0201720D01*
X0222000Y0156300D02*
X0215720Y0162580D01*
X0219300Y0153765D02*
X0219869Y0153765D01*
X0213752Y0150568D02*
X0212248Y0150568D01*
X0212531Y0148969D02*
X0213469Y0148969D01*
X0216543Y0147300D02*
X0221500Y0147300D01*
X0224000Y0144800D01*
X0224000Y0139300D01*
X0220000Y0142300D02*
X0217000Y0139300D01*
X0221000Y0132300D02*
X0223000Y0130300D01*
X0228394Y0130300D02*
X0228394Y0134800D01*
X0213469Y0124991D02*
X0212531Y0124991D01*
X0201543Y0127300D02*
X0201543Y0117300D01*
X0198469Y0116999D02*
X0198011Y0116999D01*
X0198469Y0118597D02*
X0197531Y0118597D01*
X0197531Y0120196D02*
X0198469Y0120196D01*
X0198469Y0124991D02*
X0197531Y0124991D01*
X0201543Y0127300D02*
X0201543Y0127843D01*
X0191382Y0124991D02*
X0189618Y0124991D01*
X0189618Y0120196D02*
X0191382Y0120196D01*
X0191897Y0113802D02*
X0189103Y0113802D01*
X0189297Y0110605D02*
X0191703Y0110605D01*
X0194457Y0107300D02*
X0186543Y0107300D01*
X0179823Y0100580D01*
X0173516Y0100580D01*
X0173516Y0098020D01*
X0173516Y0095461D02*
X0192161Y0095461D01*
X0198000Y0101300D01*
X0198000Y0113757D01*
X0201543Y0107300D02*
X0209457Y0107300D01*
X0209457Y0097300D01*
X0206382Y0097817D02*
X0197769Y0097817D01*
X0199368Y0099415D02*
X0206382Y0099415D01*
X0207112Y0101014D02*
X0200300Y0101014D01*
X0200300Y0102612D02*
X0207157Y0102612D01*
X0206488Y0104211D02*
X0204512Y0104211D01*
X0206382Y0096218D02*
X0196171Y0096218D01*
X0194572Y0094620D02*
X0206382Y0094620D01*
X0210700Y0093021D02*
X0179859Y0093021D01*
X0180300Y0091423D02*
X0211625Y0091423D01*
X0213223Y0089824D02*
X0179961Y0089824D01*
X0183741Y0088226D02*
X0214822Y0088226D01*
X0213278Y0075437D02*
X0207872Y0075437D01*
X0209471Y0073839D02*
X0211679Y0073839D01*
X0211075Y0072240D02*
X0210075Y0072240D01*
X0210075Y0070642D02*
X0211075Y0070642D01*
X0211538Y0069043D02*
X0209612Y0069043D01*
X0208013Y0067445D02*
X0213137Y0067445D01*
X0213687Y0065846D02*
X0207463Y0065846D01*
X0209062Y0064248D02*
X0212088Y0064248D01*
X0211075Y0062649D02*
X0210075Y0062649D01*
X0210075Y0061051D02*
X0211075Y0061051D01*
X0211130Y0059452D02*
X0210020Y0059452D01*
X0208422Y0057854D02*
X0212728Y0057854D01*
X0180257Y0077036D02*
X0169900Y0077036D01*
X0169900Y0078634D02*
X0170170Y0078634D01*
X0173516Y0080461D02*
X0173677Y0080300D01*
X0181000Y0080300D01*
X0173516Y0080461D02*
X0173516Y0083020D01*
X0173516Y0085580D02*
X0173736Y0085800D01*
X0177500Y0085800D01*
X0178000Y0086300D01*
X0181000Y0086300D01*
X0178870Y0102880D02*
X0177678Y0102880D01*
X0177678Y0103139D01*
X0177678Y0103438D01*
X0179428Y0103438D01*
X0178870Y0102880D01*
X0177678Y0103139D02*
X0173516Y0103139D01*
X0173516Y0103139D01*
X0173516Y0105628D01*
X0176115Y0105628D01*
X0176382Y0105556D01*
X0176382Y0108705D01*
X0176355Y0108700D01*
X0176000Y0108700D01*
X0176000Y0112300D01*
X0176000Y0112300D01*
X0176000Y0112300D01*
X0172400Y0112300D01*
X0172400Y0112655D01*
X0172538Y0113350D01*
X0172575Y0113438D01*
X0169900Y0113438D01*
X0169900Y0105120D01*
X0170048Y0105268D01*
X0170459Y0105505D01*
X0170917Y0105628D01*
X0173516Y0105628D01*
X0173516Y0103139D01*
X0177678Y0103139D01*
X0176382Y0105809D02*
X0169900Y0105809D01*
X0169900Y0107408D02*
X0176382Y0107408D01*
X0176000Y0108700D02*
X0176000Y0112300D01*
X0172400Y0112300D01*
X0172400Y0111945D01*
X0172538Y0111250D01*
X0172810Y0110595D01*
X0173204Y0110005D01*
X0173705Y0109504D01*
X0174295Y0109110D01*
X0174950Y0108838D01*
X0175645Y0108700D01*
X0176000Y0108700D01*
X0176000Y0109006D02*
X0176000Y0109006D01*
X0174545Y0109006D02*
X0169900Y0109006D01*
X0169900Y0110605D02*
X0172806Y0110605D01*
X0172400Y0112203D02*
X0169900Y0112203D01*
X0176000Y0112203D02*
X0176000Y0112203D01*
X0176000Y0110605D02*
X0176000Y0110605D01*
X0182017Y0113802D02*
X0183983Y0113802D01*
X0183469Y0115400D02*
X0182531Y0115400D01*
X0173516Y0104211D02*
X0173516Y0104211D01*
X0173516Y0103139D02*
X0173516Y0103139D01*
X0164457Y0117300D02*
X0156543Y0117300D01*
X0156543Y0109198D01*
X0150646Y0103300D01*
X0150484Y0103139D01*
X0150646Y0103300D02*
X0156000Y0103300D01*
X0147557Y0109006D02*
X0146618Y0109006D01*
X0146297Y0110605D02*
X0147557Y0110605D01*
X0143543Y0107300D02*
X0142000Y0107300D01*
X0134468Y0093021D02*
X0133140Y0093021D01*
X0105861Y0056255D02*
X0104488Y0056255D01*
X0099700Y0053058D02*
X0043000Y0053058D01*
X0043000Y0051460D02*
X0049473Y0051460D01*
X0047874Y0049861D02*
X0043000Y0049861D01*
X0043000Y0048263D02*
X0046276Y0048263D01*
X0044677Y0046664D02*
X0043000Y0046664D01*
X0043000Y0045066D02*
X0043079Y0045066D01*
X0045900Y0041869D02*
X0054100Y0041869D01*
X0054100Y0043467D02*
X0046854Y0043467D01*
X0048453Y0045066D02*
X0055079Y0045066D01*
X0055700Y0046664D02*
X0050051Y0046664D01*
X0051650Y0048263D02*
X0056296Y0048263D01*
X0061704Y0048263D02*
X0071350Y0048263D01*
X0072949Y0046664D02*
X0062300Y0046664D01*
X0062061Y0045066D02*
X0066039Y0045066D01*
X0066605Y0045300D02*
X0064951Y0044615D01*
X0063685Y0043349D01*
X0063000Y0041695D01*
X0063000Y0033905D01*
X0063685Y0032251D01*
X0064951Y0030985D01*
X0066605Y0030300D01*
X0068395Y0030300D01*
X0070049Y0030985D01*
X0071315Y0032251D01*
X0072000Y0033905D01*
X0072000Y0041695D01*
X0071315Y0043349D01*
X0070049Y0044615D01*
X0068395Y0045300D01*
X0066605Y0045300D01*
X0068961Y0045066D02*
X0074547Y0045066D01*
X0073803Y0043467D02*
X0071197Y0043467D01*
X0071928Y0041869D02*
X0073072Y0041869D01*
X0073000Y0040270D02*
X0072000Y0040270D01*
X0072000Y0038672D02*
X0073000Y0038672D01*
X0073000Y0037073D02*
X0072000Y0037073D01*
X0072000Y0035475D02*
X0073000Y0035475D01*
X0073012Y0033876D02*
X0071988Y0033876D01*
X0071326Y0032278D02*
X0073674Y0032278D01*
X0075690Y0030679D02*
X0069310Y0030679D01*
X0067917Y0029081D02*
X0064083Y0029081D01*
X0065500Y0027482D02*
X0066500Y0027482D01*
X0066500Y0025884D02*
X0065500Y0025884D01*
X0065500Y0024285D02*
X0066500Y0024285D01*
X0067749Y0022687D02*
X0064251Y0022687D01*
X0063674Y0019490D02*
X0068326Y0019490D01*
X0066727Y0017891D02*
X0065273Y0017891D01*
X0065500Y0016293D02*
X0066500Y0016293D01*
X0066500Y0014694D02*
X0065500Y0014694D01*
X0064659Y0013096D02*
X0067341Y0013096D01*
X0068939Y0011497D02*
X0063061Y0011497D01*
X0058939Y0011497D02*
X0053061Y0011497D01*
X0054659Y0013096D02*
X0057341Y0013096D01*
X0056500Y0014694D02*
X0055500Y0014694D01*
X0055500Y0016293D02*
X0056500Y0016293D01*
X0055722Y0017891D02*
X0055273Y0017891D01*
X0054123Y0019490D02*
X0053674Y0019490D01*
X0054100Y0021088D02*
X0045900Y0021088D01*
X0045900Y0019490D02*
X0048326Y0019490D01*
X0046727Y0017891D02*
X0046096Y0017891D01*
X0043919Y0014694D02*
X0043000Y0014694D01*
X0043000Y0013096D02*
X0047341Y0013096D01*
X0048939Y0011497D02*
X0043000Y0011497D01*
X0045900Y0022687D02*
X0047749Y0022687D01*
X0046500Y0024285D02*
X0045900Y0024285D01*
X0045900Y0025884D02*
X0046500Y0025884D01*
X0046500Y0027482D02*
X0045900Y0027482D01*
X0045900Y0029081D02*
X0047917Y0029081D01*
X0045900Y0030679D02*
X0054100Y0030679D01*
X0054083Y0029081D02*
X0054100Y0029081D01*
X0057900Y0029081D02*
X0057917Y0029081D01*
X0057900Y0030679D02*
X0065690Y0030679D01*
X0063674Y0032278D02*
X0057900Y0032278D01*
X0057900Y0033876D02*
X0063012Y0033876D01*
X0063000Y0035475D02*
X0057900Y0035475D01*
X0057900Y0037073D02*
X0063000Y0037073D01*
X0063000Y0038672D02*
X0057900Y0038672D01*
X0057900Y0040270D02*
X0063000Y0040270D01*
X0063072Y0041869D02*
X0057900Y0041869D01*
X0060784Y0043467D02*
X0063803Y0043467D01*
X0054100Y0040270D02*
X0045900Y0040270D01*
X0045900Y0038672D02*
X0054100Y0038672D01*
X0054100Y0037073D02*
X0045900Y0037073D01*
X0045900Y0035475D02*
X0054100Y0035475D01*
X0054100Y0033876D02*
X0045900Y0033876D01*
X0045900Y0032278D02*
X0054100Y0032278D01*
X0057900Y0021088D02*
X0073535Y0021088D01*
X0076000Y0020300D02*
X0071500Y0015800D01*
X0071000Y0015800D01*
X0075500Y0016293D02*
X0076200Y0016293D01*
X0076200Y0015600D02*
X0076200Y0013812D01*
X0079012Y0011000D01*
X0080800Y0011000D01*
X0080800Y0015600D01*
X0076200Y0015600D01*
X0076200Y0014694D02*
X0075500Y0014694D01*
X0074659Y0013096D02*
X0076916Y0013096D01*
X0078515Y0011497D02*
X0073061Y0011497D01*
X0080800Y0011497D02*
X0081200Y0011497D01*
X0081200Y0013096D02*
X0080800Y0013096D01*
X0080800Y0014694D02*
X0081200Y0014694D01*
X0081200Y0016293D02*
X0080800Y0016293D01*
X0080800Y0017891D02*
X0081200Y0017891D01*
X0081200Y0019490D02*
X0080800Y0019490D01*
X0074528Y0029081D02*
X0074083Y0029081D01*
X0076724Y0048263D02*
X0078276Y0048263D01*
X0079874Y0049861D02*
X0075126Y0049861D01*
X0073527Y0051460D02*
X0081473Y0051460D01*
X0106300Y0043467D02*
X0109303Y0043467D01*
X0108572Y0041869D02*
X0105979Y0041869D01*
X0125500Y0027482D02*
X0126500Y0027482D01*
X0126500Y0025884D02*
X0125500Y0025884D01*
X0125500Y0024285D02*
X0126500Y0024285D01*
X0127749Y0022687D02*
X0124251Y0022687D01*
X0123674Y0019490D02*
X0128326Y0019490D01*
X0126727Y0017891D02*
X0125273Y0017891D01*
X0125500Y0016293D02*
X0126500Y0016293D01*
X0126500Y0014694D02*
X0125500Y0014694D01*
X0124659Y0013096D02*
X0127341Y0013096D01*
X0128939Y0011497D02*
X0123061Y0011497D01*
X0150484Y0155363D02*
X0150484Y0155363D01*
X0150484Y0156962D02*
X0150484Y0156962D01*
X0150484Y0157461D02*
X0150484Y0157461D01*
X0074684Y0155363D02*
X0066840Y0155363D01*
X0066178Y0156962D02*
X0073086Y0156962D01*
X0071487Y0158560D02*
X0064723Y0158560D01*
X0061663Y0160159D02*
X0069889Y0160159D01*
D26*
X0145000Y0145300D02*
X0150205Y0145300D01*
X0150484Y0145020D01*
X0149457Y0127300D02*
X0149457Y0125843D01*
X0153000Y0122300D01*
X0149457Y0117300D02*
X0149457Y0107757D01*
X0146500Y0104800D01*
X0146500Y0100800D01*
X0145000Y0099300D01*
X0145000Y0098300D01*
X0147000Y0100300D02*
X0146500Y0100800D01*
X0147000Y0100300D02*
X0150205Y0100300D01*
X0150484Y0100580D01*
X0150484Y0098020D02*
X0155720Y0098020D01*
X0161000Y0103300D01*
X0173516Y0103139D02*
X0173516Y0109816D01*
X0176000Y0112300D01*
X0168000Y0122300D02*
X0168000Y0074300D01*
X0172000Y0070300D01*
X0178000Y0070300D01*
X0184000Y0064300D01*
X0180000Y0057300D02*
X0174291Y0057300D01*
X0174071Y0057520D01*
X0173732Y0055300D02*
X0174071Y0054961D01*
X0173732Y0055300D02*
X0168000Y0055300D01*
X0164000Y0056300D02*
X0164000Y0053300D01*
X0162000Y0051300D01*
X0123000Y0051300D01*
X0119000Y0055300D01*
X0116268Y0055300D01*
X0115929Y0054961D01*
X0114268Y0053300D01*
X0103000Y0053300D01*
X0109000Y0057300D02*
X0109220Y0057520D01*
X0115929Y0057520D01*
X0115929Y0062639D02*
X0115929Y0069229D01*
X0116000Y0069300D01*
X0132071Y0063371D02*
X0135000Y0066300D01*
X0132071Y0063371D02*
X0132071Y0062639D01*
X0132291Y0060300D02*
X0132071Y0060080D01*
X0132291Y0060300D02*
X0137000Y0060300D01*
X0138000Y0061300D01*
X0139000Y0061300D01*
X0150000Y0061300D01*
X0153780Y0057520D01*
X0157929Y0057520D01*
X0157929Y0054961D02*
X0151661Y0054961D01*
X0151500Y0054800D01*
X0144000Y0057300D02*
X0132291Y0057300D01*
X0132071Y0057520D01*
X0131732Y0055300D02*
X0132071Y0054961D01*
X0131732Y0055300D02*
X0126000Y0055300D01*
X0119000Y0050300D02*
X0123000Y0046300D01*
X0123000Y0045300D01*
X0126000Y0048300D01*
X0179000Y0048300D01*
X0189500Y0037800D01*
X0183000Y0056300D02*
X0181000Y0056300D01*
X0180000Y0057300D01*
X0174071Y0060080D02*
X0194284Y0060080D01*
X0195575Y0061371D01*
X0174071Y0062639D02*
X0170339Y0062639D01*
X0164000Y0056300D01*
X0157929Y0060080D02*
X0157709Y0060300D01*
X0154000Y0060300D01*
X0149000Y0065300D01*
X0147000Y0065300D01*
X0154000Y0066300D02*
X0157661Y0062639D01*
X0157929Y0062639D01*
X0173516Y0088139D02*
X0173839Y0088139D01*
X0177000Y0091300D01*
X0150484Y0093784D02*
X0149000Y0092300D01*
X0146000Y0092300D01*
X0150484Y0093784D02*
X0150484Y0095461D01*
X0135000Y0097300D02*
X0128598Y0097300D01*
X0164457Y0125843D02*
X0164457Y0127300D01*
X0164457Y0125843D02*
X0168000Y0122300D01*
X0206000Y0113843D02*
X0206000Y0112300D01*
X0206000Y0113843D02*
X0209457Y0117300D01*
X0119000Y0050300D02*
X0083000Y0050300D01*
X0077500Y0044800D01*
X0077500Y0037800D01*
X0077500Y0044800D02*
X0072000Y0050300D01*
X0051000Y0050300D01*
X0044000Y0043300D01*
X0044000Y0017300D01*
X0046000Y0015300D01*
X0050500Y0015300D01*
X0051000Y0015800D01*
X0056000Y0020300D02*
X0056000Y0043300D01*
X0059000Y0046300D01*
X0087000Y0037300D02*
X0087000Y0034300D01*
X0101000Y0041300D02*
X0101000Y0025800D01*
X0113000Y0033300D02*
X0116000Y0030300D01*
X0116500Y0030300D01*
X0121000Y0025800D01*
X0113000Y0033300D02*
X0113000Y0037800D01*
X0103000Y0043300D02*
X0101000Y0041300D01*
X0061000Y0015800D02*
X0060500Y0015800D01*
X0056000Y0020300D01*
D27*
X0059000Y0046300D03*
X0073500Y0060800D03*
X0103000Y0053300D03*
X0109000Y0057300D03*
X0116000Y0069300D03*
X0126000Y0055300D03*
X0135000Y0066300D03*
X0139000Y0061300D03*
X0144000Y0057300D03*
X0151500Y0054800D03*
X0147000Y0065300D03*
X0154000Y0066300D03*
X0168000Y0055300D03*
X0183000Y0056300D03*
X0184000Y0064300D03*
X0181000Y0080300D03*
X0181000Y0086300D03*
X0177000Y0091300D03*
X0161000Y0103300D03*
X0156000Y0103300D03*
X0160000Y0097300D03*
X0146000Y0092300D03*
X0145000Y0098300D03*
X0135000Y0097300D03*
X0129000Y0121300D03*
X0153000Y0122300D03*
X0151000Y0138300D03*
X0145000Y0145300D03*
X0173000Y0134300D03*
X0176000Y0122300D03*
X0176000Y0112300D03*
X0206000Y0112300D03*
X0221000Y0106300D03*
X0228000Y0097300D03*
X0253000Y0077300D03*
X0221000Y0132300D03*
X0220000Y0142300D03*
X0206000Y0132300D03*
X0222000Y0156300D03*
X0178000Y0170300D03*
X0103000Y0043300D03*
M02*
