%
M48
M72
T01C0.02000
T02C0.03600
T03C0.04000
T04C0.07100
%
T01
X59000Y46300
X73500Y60800
X103000Y53300
X109000Y57300
X116000Y69300
X126000Y55300
X135000Y66300
X139000Y61300
X144000Y57300
X151500Y54800
X147000Y65300
X154000Y66300
X168000Y55300
X183000Y56300
X184000Y64300
X181000Y80300
X181000Y86300
X177000Y91300
X161000Y103300
X156000Y103300
X160000Y97300
X146000Y92300
X145000Y98300
X135000Y97300
X129000Y121300
X153000Y122300
X151000Y138300
X145000Y145300
X173000Y134300
X176000Y122300
X176000Y112300
X206000Y112300
X221000Y106300
X228000Y97300
X253000Y77300
X221000Y132300
X220000Y142300
X206000Y132300
X222000Y156300
X178000Y170300
X103000Y43300
T02
X91000Y75300
X91000Y168300
T03
X51000Y15800
X61000Y15800
X71000Y15800
X81000Y15800
X91000Y15800
X101000Y15800
X111000Y15800
X121000Y15800
X131000Y15800
X141000Y15800
X151000Y15800
X161000Y15800
X171000Y15800
X181000Y15800
X191000Y15800
X201000Y15800
X211000Y15800
X221000Y15800
X231000Y15800
X241000Y15800
X251000Y15800
X261000Y15800
X271000Y15800
X271000Y25800
X261000Y25800
X251000Y25800
X241000Y25800
X231000Y25800
X221000Y25800
X211000Y25800
X201000Y25800
X191000Y25800
X181000Y25800
X171000Y25800
X161000Y25800
X151000Y25800
X141000Y25800
X131000Y25800
X121000Y25800
X111000Y25800
X101000Y25800
X91000Y25800
X81000Y25800
X71000Y25800
X61000Y25800
X51000Y25800
X67500Y37800
X77500Y37800
X87500Y37800
X113000Y37800
X123000Y37800
X133000Y37800
X195575Y61371
X195575Y71371
X205575Y71371
X215575Y71371
X225575Y71371
X235575Y71371
X235575Y61371
X225575Y61371
X215575Y61371
X205575Y61371
X249500Y124800
X249500Y134800
X251000Y205800
X241000Y205800
X241000Y215800
X251000Y215800
X261000Y215800
X271000Y215800
X271000Y205800
X261000Y205800
X231000Y205800
X221000Y205800
X211000Y205800
X211000Y215800
X221000Y215800
X231000Y215800
X201000Y215800
X191000Y215800
X191000Y205800
X201000Y205800
X181000Y205800
X171000Y205800
X161000Y205800
X161000Y215800
X171000Y215800
X181000Y215800
X151000Y215800
X141000Y215800
X141000Y205800
X151000Y205800
X131000Y205800
X121000Y205800
X121000Y215800
X131000Y215800
X111000Y215800
X101000Y215800
X91000Y215800
X91000Y205800
X101000Y205800
X111000Y205800
X81000Y205800
X71000Y205800
X71000Y215800
X81000Y215800
X61000Y215800
X51000Y215800
X51000Y205800
X61000Y205800
T04
X60291Y183261
X60291Y153339
X60291Y90261
X60291Y60339
M30
