G75*
%MOIN*%
%OFA0B0*%
%FSLAX25Y25*%
%IPPOS*%
%LPD*%
%AMOC8*
5,1,8,0,0,1.08239X$1,22.5*
%
%ADD10C,0.00300*%
%ADD11OC8,0.06000*%
%ADD12C,0.00000*%
%ADD13R,0.09000X0.09000*%
%ADD14C,0.06000*%
%ADD15C,0.05700*%
%ADD16R,0.06693X0.02362*%
%ADD17R,0.10630X0.03937*%
%ADD18C,0.01000*%
%ADD19C,0.02578*%
%ADD20C,0.10000*%
%ADD21C,0.02400*%
%ADD22C,0.01600*%
%ADD23C,0.01200*%
%ADD24C,0.03200*%
%ADD25C,0.02000*%
D10*
X0430000Y0315000D02*
X0430000Y0515000D01*
X0630000Y0515000D01*
X0630000Y0315000D01*
X0430000Y0315000D01*
D11*
X0470000Y0325000D03*
X0470000Y0335000D03*
X0470000Y0345000D03*
X0480000Y0345000D03*
X0480000Y0335000D03*
X0480000Y0325000D03*
X0490000Y0325000D03*
X0490000Y0335000D03*
X0490000Y0345000D03*
X0490000Y0355000D03*
X0490000Y0365000D03*
X0490000Y0375000D03*
X0480000Y0375000D03*
X0480000Y0365000D03*
X0480000Y0355000D03*
X0470000Y0355000D03*
X0470000Y0365000D03*
X0470000Y0375000D03*
X0470000Y0385000D03*
X0470000Y0395000D03*
X0480000Y0395000D03*
X0480000Y0385000D03*
X0490000Y0385000D03*
X0490000Y0395000D03*
X0515000Y0335000D03*
X0515000Y0325000D03*
X0525000Y0325000D03*
X0525000Y0335000D03*
X0535000Y0335000D03*
X0535000Y0325000D03*
X0545000Y0325000D03*
X0545000Y0335000D03*
X0555000Y0335000D03*
X0555000Y0325000D03*
X0565000Y0325000D03*
X0565000Y0335000D03*
X0585000Y0335000D03*
X0585000Y0325000D03*
X0595000Y0325000D03*
X0595000Y0335000D03*
X0610000Y0350000D03*
X0610000Y0360000D03*
X0620000Y0360000D03*
X0620000Y0350000D03*
X0620000Y0370000D03*
X0620000Y0380000D03*
X0620000Y0390000D03*
X0610000Y0390000D03*
X0610000Y0380000D03*
X0610000Y0370000D03*
X0610000Y0400000D03*
X0620000Y0400000D03*
X0590000Y0497500D03*
X0590000Y0507500D03*
X0580000Y0507500D03*
X0580000Y0497500D03*
X0570000Y0497500D03*
X0570000Y0507500D03*
X0560000Y0507500D03*
X0560000Y0497500D03*
X0525000Y0497500D03*
X0525000Y0507500D03*
X0515000Y0507500D03*
X0515000Y0497500D03*
X0505000Y0497500D03*
X0505000Y0507500D03*
D12*
X0438500Y0500000D02*
X0438502Y0500161D01*
X0438508Y0500321D01*
X0438518Y0500482D01*
X0438532Y0500642D01*
X0438550Y0500802D01*
X0438571Y0500961D01*
X0438597Y0501120D01*
X0438627Y0501278D01*
X0438660Y0501435D01*
X0438698Y0501592D01*
X0438739Y0501747D01*
X0438784Y0501901D01*
X0438833Y0502054D01*
X0438886Y0502206D01*
X0438942Y0502357D01*
X0439003Y0502506D01*
X0439066Y0502654D01*
X0439134Y0502800D01*
X0439205Y0502944D01*
X0439279Y0503086D01*
X0439357Y0503227D01*
X0439439Y0503365D01*
X0439524Y0503502D01*
X0439612Y0503636D01*
X0439704Y0503768D01*
X0439799Y0503898D01*
X0439897Y0504026D01*
X0439998Y0504151D01*
X0440102Y0504273D01*
X0440209Y0504393D01*
X0440319Y0504510D01*
X0440432Y0504625D01*
X0440548Y0504736D01*
X0440667Y0504845D01*
X0440788Y0504950D01*
X0440912Y0505053D01*
X0441038Y0505153D01*
X0441166Y0505249D01*
X0441297Y0505342D01*
X0441431Y0505432D01*
X0441566Y0505519D01*
X0441704Y0505602D01*
X0441843Y0505682D01*
X0441985Y0505758D01*
X0442128Y0505831D01*
X0442273Y0505900D01*
X0442420Y0505966D01*
X0442568Y0506028D01*
X0442718Y0506086D01*
X0442869Y0506141D01*
X0443022Y0506192D01*
X0443176Y0506239D01*
X0443331Y0506282D01*
X0443487Y0506321D01*
X0443643Y0506357D01*
X0443801Y0506388D01*
X0443959Y0506416D01*
X0444118Y0506440D01*
X0444278Y0506460D01*
X0444438Y0506476D01*
X0444598Y0506488D01*
X0444759Y0506496D01*
X0444920Y0506500D01*
X0445080Y0506500D01*
X0445241Y0506496D01*
X0445402Y0506488D01*
X0445562Y0506476D01*
X0445722Y0506460D01*
X0445882Y0506440D01*
X0446041Y0506416D01*
X0446199Y0506388D01*
X0446357Y0506357D01*
X0446513Y0506321D01*
X0446669Y0506282D01*
X0446824Y0506239D01*
X0446978Y0506192D01*
X0447131Y0506141D01*
X0447282Y0506086D01*
X0447432Y0506028D01*
X0447580Y0505966D01*
X0447727Y0505900D01*
X0447872Y0505831D01*
X0448015Y0505758D01*
X0448157Y0505682D01*
X0448296Y0505602D01*
X0448434Y0505519D01*
X0448569Y0505432D01*
X0448703Y0505342D01*
X0448834Y0505249D01*
X0448962Y0505153D01*
X0449088Y0505053D01*
X0449212Y0504950D01*
X0449333Y0504845D01*
X0449452Y0504736D01*
X0449568Y0504625D01*
X0449681Y0504510D01*
X0449791Y0504393D01*
X0449898Y0504273D01*
X0450002Y0504151D01*
X0450103Y0504026D01*
X0450201Y0503898D01*
X0450296Y0503768D01*
X0450388Y0503636D01*
X0450476Y0503502D01*
X0450561Y0503365D01*
X0450643Y0503227D01*
X0450721Y0503086D01*
X0450795Y0502944D01*
X0450866Y0502800D01*
X0450934Y0502654D01*
X0450997Y0502506D01*
X0451058Y0502357D01*
X0451114Y0502206D01*
X0451167Y0502054D01*
X0451216Y0501901D01*
X0451261Y0501747D01*
X0451302Y0501592D01*
X0451340Y0501435D01*
X0451373Y0501278D01*
X0451403Y0501120D01*
X0451429Y0500961D01*
X0451450Y0500802D01*
X0451468Y0500642D01*
X0451482Y0500482D01*
X0451492Y0500321D01*
X0451498Y0500161D01*
X0451500Y0500000D01*
X0451498Y0499839D01*
X0451492Y0499679D01*
X0451482Y0499518D01*
X0451468Y0499358D01*
X0451450Y0499198D01*
X0451429Y0499039D01*
X0451403Y0498880D01*
X0451373Y0498722D01*
X0451340Y0498565D01*
X0451302Y0498408D01*
X0451261Y0498253D01*
X0451216Y0498099D01*
X0451167Y0497946D01*
X0451114Y0497794D01*
X0451058Y0497643D01*
X0450997Y0497494D01*
X0450934Y0497346D01*
X0450866Y0497200D01*
X0450795Y0497056D01*
X0450721Y0496914D01*
X0450643Y0496773D01*
X0450561Y0496635D01*
X0450476Y0496498D01*
X0450388Y0496364D01*
X0450296Y0496232D01*
X0450201Y0496102D01*
X0450103Y0495974D01*
X0450002Y0495849D01*
X0449898Y0495727D01*
X0449791Y0495607D01*
X0449681Y0495490D01*
X0449568Y0495375D01*
X0449452Y0495264D01*
X0449333Y0495155D01*
X0449212Y0495050D01*
X0449088Y0494947D01*
X0448962Y0494847D01*
X0448834Y0494751D01*
X0448703Y0494658D01*
X0448569Y0494568D01*
X0448434Y0494481D01*
X0448296Y0494398D01*
X0448157Y0494318D01*
X0448015Y0494242D01*
X0447872Y0494169D01*
X0447727Y0494100D01*
X0447580Y0494034D01*
X0447432Y0493972D01*
X0447282Y0493914D01*
X0447131Y0493859D01*
X0446978Y0493808D01*
X0446824Y0493761D01*
X0446669Y0493718D01*
X0446513Y0493679D01*
X0446357Y0493643D01*
X0446199Y0493612D01*
X0446041Y0493584D01*
X0445882Y0493560D01*
X0445722Y0493540D01*
X0445562Y0493524D01*
X0445402Y0493512D01*
X0445241Y0493504D01*
X0445080Y0493500D01*
X0444920Y0493500D01*
X0444759Y0493504D01*
X0444598Y0493512D01*
X0444438Y0493524D01*
X0444278Y0493540D01*
X0444118Y0493560D01*
X0443959Y0493584D01*
X0443801Y0493612D01*
X0443643Y0493643D01*
X0443487Y0493679D01*
X0443331Y0493718D01*
X0443176Y0493761D01*
X0443022Y0493808D01*
X0442869Y0493859D01*
X0442718Y0493914D01*
X0442568Y0493972D01*
X0442420Y0494034D01*
X0442273Y0494100D01*
X0442128Y0494169D01*
X0441985Y0494242D01*
X0441843Y0494318D01*
X0441704Y0494398D01*
X0441566Y0494481D01*
X0441431Y0494568D01*
X0441297Y0494658D01*
X0441166Y0494751D01*
X0441038Y0494847D01*
X0440912Y0494947D01*
X0440788Y0495050D01*
X0440667Y0495155D01*
X0440548Y0495264D01*
X0440432Y0495375D01*
X0440319Y0495490D01*
X0440209Y0495607D01*
X0440102Y0495727D01*
X0439998Y0495849D01*
X0439897Y0495974D01*
X0439799Y0496102D01*
X0439704Y0496232D01*
X0439612Y0496364D01*
X0439524Y0496498D01*
X0439439Y0496635D01*
X0439357Y0496773D01*
X0439279Y0496914D01*
X0439205Y0497056D01*
X0439134Y0497200D01*
X0439066Y0497346D01*
X0439003Y0497494D01*
X0438942Y0497643D01*
X0438886Y0497794D01*
X0438833Y0497946D01*
X0438784Y0498099D01*
X0438739Y0498253D01*
X0438698Y0498408D01*
X0438660Y0498565D01*
X0438627Y0498722D01*
X0438597Y0498880D01*
X0438571Y0499039D01*
X0438550Y0499198D01*
X0438532Y0499358D01*
X0438518Y0499518D01*
X0438508Y0499679D01*
X0438502Y0499839D01*
X0438500Y0500000D01*
X0608500Y0500000D02*
X0608502Y0500161D01*
X0608508Y0500321D01*
X0608518Y0500482D01*
X0608532Y0500642D01*
X0608550Y0500802D01*
X0608571Y0500961D01*
X0608597Y0501120D01*
X0608627Y0501278D01*
X0608660Y0501435D01*
X0608698Y0501592D01*
X0608739Y0501747D01*
X0608784Y0501901D01*
X0608833Y0502054D01*
X0608886Y0502206D01*
X0608942Y0502357D01*
X0609003Y0502506D01*
X0609066Y0502654D01*
X0609134Y0502800D01*
X0609205Y0502944D01*
X0609279Y0503086D01*
X0609357Y0503227D01*
X0609439Y0503365D01*
X0609524Y0503502D01*
X0609612Y0503636D01*
X0609704Y0503768D01*
X0609799Y0503898D01*
X0609897Y0504026D01*
X0609998Y0504151D01*
X0610102Y0504273D01*
X0610209Y0504393D01*
X0610319Y0504510D01*
X0610432Y0504625D01*
X0610548Y0504736D01*
X0610667Y0504845D01*
X0610788Y0504950D01*
X0610912Y0505053D01*
X0611038Y0505153D01*
X0611166Y0505249D01*
X0611297Y0505342D01*
X0611431Y0505432D01*
X0611566Y0505519D01*
X0611704Y0505602D01*
X0611843Y0505682D01*
X0611985Y0505758D01*
X0612128Y0505831D01*
X0612273Y0505900D01*
X0612420Y0505966D01*
X0612568Y0506028D01*
X0612718Y0506086D01*
X0612869Y0506141D01*
X0613022Y0506192D01*
X0613176Y0506239D01*
X0613331Y0506282D01*
X0613487Y0506321D01*
X0613643Y0506357D01*
X0613801Y0506388D01*
X0613959Y0506416D01*
X0614118Y0506440D01*
X0614278Y0506460D01*
X0614438Y0506476D01*
X0614598Y0506488D01*
X0614759Y0506496D01*
X0614920Y0506500D01*
X0615080Y0506500D01*
X0615241Y0506496D01*
X0615402Y0506488D01*
X0615562Y0506476D01*
X0615722Y0506460D01*
X0615882Y0506440D01*
X0616041Y0506416D01*
X0616199Y0506388D01*
X0616357Y0506357D01*
X0616513Y0506321D01*
X0616669Y0506282D01*
X0616824Y0506239D01*
X0616978Y0506192D01*
X0617131Y0506141D01*
X0617282Y0506086D01*
X0617432Y0506028D01*
X0617580Y0505966D01*
X0617727Y0505900D01*
X0617872Y0505831D01*
X0618015Y0505758D01*
X0618157Y0505682D01*
X0618296Y0505602D01*
X0618434Y0505519D01*
X0618569Y0505432D01*
X0618703Y0505342D01*
X0618834Y0505249D01*
X0618962Y0505153D01*
X0619088Y0505053D01*
X0619212Y0504950D01*
X0619333Y0504845D01*
X0619452Y0504736D01*
X0619568Y0504625D01*
X0619681Y0504510D01*
X0619791Y0504393D01*
X0619898Y0504273D01*
X0620002Y0504151D01*
X0620103Y0504026D01*
X0620201Y0503898D01*
X0620296Y0503768D01*
X0620388Y0503636D01*
X0620476Y0503502D01*
X0620561Y0503365D01*
X0620643Y0503227D01*
X0620721Y0503086D01*
X0620795Y0502944D01*
X0620866Y0502800D01*
X0620934Y0502654D01*
X0620997Y0502506D01*
X0621058Y0502357D01*
X0621114Y0502206D01*
X0621167Y0502054D01*
X0621216Y0501901D01*
X0621261Y0501747D01*
X0621302Y0501592D01*
X0621340Y0501435D01*
X0621373Y0501278D01*
X0621403Y0501120D01*
X0621429Y0500961D01*
X0621450Y0500802D01*
X0621468Y0500642D01*
X0621482Y0500482D01*
X0621492Y0500321D01*
X0621498Y0500161D01*
X0621500Y0500000D01*
X0621498Y0499839D01*
X0621492Y0499679D01*
X0621482Y0499518D01*
X0621468Y0499358D01*
X0621450Y0499198D01*
X0621429Y0499039D01*
X0621403Y0498880D01*
X0621373Y0498722D01*
X0621340Y0498565D01*
X0621302Y0498408D01*
X0621261Y0498253D01*
X0621216Y0498099D01*
X0621167Y0497946D01*
X0621114Y0497794D01*
X0621058Y0497643D01*
X0620997Y0497494D01*
X0620934Y0497346D01*
X0620866Y0497200D01*
X0620795Y0497056D01*
X0620721Y0496914D01*
X0620643Y0496773D01*
X0620561Y0496635D01*
X0620476Y0496498D01*
X0620388Y0496364D01*
X0620296Y0496232D01*
X0620201Y0496102D01*
X0620103Y0495974D01*
X0620002Y0495849D01*
X0619898Y0495727D01*
X0619791Y0495607D01*
X0619681Y0495490D01*
X0619568Y0495375D01*
X0619452Y0495264D01*
X0619333Y0495155D01*
X0619212Y0495050D01*
X0619088Y0494947D01*
X0618962Y0494847D01*
X0618834Y0494751D01*
X0618703Y0494658D01*
X0618569Y0494568D01*
X0618434Y0494481D01*
X0618296Y0494398D01*
X0618157Y0494318D01*
X0618015Y0494242D01*
X0617872Y0494169D01*
X0617727Y0494100D01*
X0617580Y0494034D01*
X0617432Y0493972D01*
X0617282Y0493914D01*
X0617131Y0493859D01*
X0616978Y0493808D01*
X0616824Y0493761D01*
X0616669Y0493718D01*
X0616513Y0493679D01*
X0616357Y0493643D01*
X0616199Y0493612D01*
X0616041Y0493584D01*
X0615882Y0493560D01*
X0615722Y0493540D01*
X0615562Y0493524D01*
X0615402Y0493512D01*
X0615241Y0493504D01*
X0615080Y0493500D01*
X0614920Y0493500D01*
X0614759Y0493504D01*
X0614598Y0493512D01*
X0614438Y0493524D01*
X0614278Y0493540D01*
X0614118Y0493560D01*
X0613959Y0493584D01*
X0613801Y0493612D01*
X0613643Y0493643D01*
X0613487Y0493679D01*
X0613331Y0493718D01*
X0613176Y0493761D01*
X0613022Y0493808D01*
X0612869Y0493859D01*
X0612718Y0493914D01*
X0612568Y0493972D01*
X0612420Y0494034D01*
X0612273Y0494100D01*
X0612128Y0494169D01*
X0611985Y0494242D01*
X0611843Y0494318D01*
X0611704Y0494398D01*
X0611566Y0494481D01*
X0611431Y0494568D01*
X0611297Y0494658D01*
X0611166Y0494751D01*
X0611038Y0494847D01*
X0610912Y0494947D01*
X0610788Y0495050D01*
X0610667Y0495155D01*
X0610548Y0495264D01*
X0610432Y0495375D01*
X0610319Y0495490D01*
X0610209Y0495607D01*
X0610102Y0495727D01*
X0609998Y0495849D01*
X0609897Y0495974D01*
X0609799Y0496102D01*
X0609704Y0496232D01*
X0609612Y0496364D01*
X0609524Y0496498D01*
X0609439Y0496635D01*
X0609357Y0496773D01*
X0609279Y0496914D01*
X0609205Y0497056D01*
X0609134Y0497200D01*
X0609066Y0497346D01*
X0609003Y0497494D01*
X0608942Y0497643D01*
X0608886Y0497794D01*
X0608833Y0497946D01*
X0608784Y0498099D01*
X0608739Y0498253D01*
X0608698Y0498408D01*
X0608660Y0498565D01*
X0608627Y0498722D01*
X0608597Y0498880D01*
X0608571Y0499039D01*
X0608550Y0499198D01*
X0608532Y0499358D01*
X0608518Y0499518D01*
X0608508Y0499679D01*
X0608502Y0499839D01*
X0608500Y0500000D01*
X0608500Y0330000D02*
X0608502Y0330161D01*
X0608508Y0330321D01*
X0608518Y0330482D01*
X0608532Y0330642D01*
X0608550Y0330802D01*
X0608571Y0330961D01*
X0608597Y0331120D01*
X0608627Y0331278D01*
X0608660Y0331435D01*
X0608698Y0331592D01*
X0608739Y0331747D01*
X0608784Y0331901D01*
X0608833Y0332054D01*
X0608886Y0332206D01*
X0608942Y0332357D01*
X0609003Y0332506D01*
X0609066Y0332654D01*
X0609134Y0332800D01*
X0609205Y0332944D01*
X0609279Y0333086D01*
X0609357Y0333227D01*
X0609439Y0333365D01*
X0609524Y0333502D01*
X0609612Y0333636D01*
X0609704Y0333768D01*
X0609799Y0333898D01*
X0609897Y0334026D01*
X0609998Y0334151D01*
X0610102Y0334273D01*
X0610209Y0334393D01*
X0610319Y0334510D01*
X0610432Y0334625D01*
X0610548Y0334736D01*
X0610667Y0334845D01*
X0610788Y0334950D01*
X0610912Y0335053D01*
X0611038Y0335153D01*
X0611166Y0335249D01*
X0611297Y0335342D01*
X0611431Y0335432D01*
X0611566Y0335519D01*
X0611704Y0335602D01*
X0611843Y0335682D01*
X0611985Y0335758D01*
X0612128Y0335831D01*
X0612273Y0335900D01*
X0612420Y0335966D01*
X0612568Y0336028D01*
X0612718Y0336086D01*
X0612869Y0336141D01*
X0613022Y0336192D01*
X0613176Y0336239D01*
X0613331Y0336282D01*
X0613487Y0336321D01*
X0613643Y0336357D01*
X0613801Y0336388D01*
X0613959Y0336416D01*
X0614118Y0336440D01*
X0614278Y0336460D01*
X0614438Y0336476D01*
X0614598Y0336488D01*
X0614759Y0336496D01*
X0614920Y0336500D01*
X0615080Y0336500D01*
X0615241Y0336496D01*
X0615402Y0336488D01*
X0615562Y0336476D01*
X0615722Y0336460D01*
X0615882Y0336440D01*
X0616041Y0336416D01*
X0616199Y0336388D01*
X0616357Y0336357D01*
X0616513Y0336321D01*
X0616669Y0336282D01*
X0616824Y0336239D01*
X0616978Y0336192D01*
X0617131Y0336141D01*
X0617282Y0336086D01*
X0617432Y0336028D01*
X0617580Y0335966D01*
X0617727Y0335900D01*
X0617872Y0335831D01*
X0618015Y0335758D01*
X0618157Y0335682D01*
X0618296Y0335602D01*
X0618434Y0335519D01*
X0618569Y0335432D01*
X0618703Y0335342D01*
X0618834Y0335249D01*
X0618962Y0335153D01*
X0619088Y0335053D01*
X0619212Y0334950D01*
X0619333Y0334845D01*
X0619452Y0334736D01*
X0619568Y0334625D01*
X0619681Y0334510D01*
X0619791Y0334393D01*
X0619898Y0334273D01*
X0620002Y0334151D01*
X0620103Y0334026D01*
X0620201Y0333898D01*
X0620296Y0333768D01*
X0620388Y0333636D01*
X0620476Y0333502D01*
X0620561Y0333365D01*
X0620643Y0333227D01*
X0620721Y0333086D01*
X0620795Y0332944D01*
X0620866Y0332800D01*
X0620934Y0332654D01*
X0620997Y0332506D01*
X0621058Y0332357D01*
X0621114Y0332206D01*
X0621167Y0332054D01*
X0621216Y0331901D01*
X0621261Y0331747D01*
X0621302Y0331592D01*
X0621340Y0331435D01*
X0621373Y0331278D01*
X0621403Y0331120D01*
X0621429Y0330961D01*
X0621450Y0330802D01*
X0621468Y0330642D01*
X0621482Y0330482D01*
X0621492Y0330321D01*
X0621498Y0330161D01*
X0621500Y0330000D01*
X0621498Y0329839D01*
X0621492Y0329679D01*
X0621482Y0329518D01*
X0621468Y0329358D01*
X0621450Y0329198D01*
X0621429Y0329039D01*
X0621403Y0328880D01*
X0621373Y0328722D01*
X0621340Y0328565D01*
X0621302Y0328408D01*
X0621261Y0328253D01*
X0621216Y0328099D01*
X0621167Y0327946D01*
X0621114Y0327794D01*
X0621058Y0327643D01*
X0620997Y0327494D01*
X0620934Y0327346D01*
X0620866Y0327200D01*
X0620795Y0327056D01*
X0620721Y0326914D01*
X0620643Y0326773D01*
X0620561Y0326635D01*
X0620476Y0326498D01*
X0620388Y0326364D01*
X0620296Y0326232D01*
X0620201Y0326102D01*
X0620103Y0325974D01*
X0620002Y0325849D01*
X0619898Y0325727D01*
X0619791Y0325607D01*
X0619681Y0325490D01*
X0619568Y0325375D01*
X0619452Y0325264D01*
X0619333Y0325155D01*
X0619212Y0325050D01*
X0619088Y0324947D01*
X0618962Y0324847D01*
X0618834Y0324751D01*
X0618703Y0324658D01*
X0618569Y0324568D01*
X0618434Y0324481D01*
X0618296Y0324398D01*
X0618157Y0324318D01*
X0618015Y0324242D01*
X0617872Y0324169D01*
X0617727Y0324100D01*
X0617580Y0324034D01*
X0617432Y0323972D01*
X0617282Y0323914D01*
X0617131Y0323859D01*
X0616978Y0323808D01*
X0616824Y0323761D01*
X0616669Y0323718D01*
X0616513Y0323679D01*
X0616357Y0323643D01*
X0616199Y0323612D01*
X0616041Y0323584D01*
X0615882Y0323560D01*
X0615722Y0323540D01*
X0615562Y0323524D01*
X0615402Y0323512D01*
X0615241Y0323504D01*
X0615080Y0323500D01*
X0614920Y0323500D01*
X0614759Y0323504D01*
X0614598Y0323512D01*
X0614438Y0323524D01*
X0614278Y0323540D01*
X0614118Y0323560D01*
X0613959Y0323584D01*
X0613801Y0323612D01*
X0613643Y0323643D01*
X0613487Y0323679D01*
X0613331Y0323718D01*
X0613176Y0323761D01*
X0613022Y0323808D01*
X0612869Y0323859D01*
X0612718Y0323914D01*
X0612568Y0323972D01*
X0612420Y0324034D01*
X0612273Y0324100D01*
X0612128Y0324169D01*
X0611985Y0324242D01*
X0611843Y0324318D01*
X0611704Y0324398D01*
X0611566Y0324481D01*
X0611431Y0324568D01*
X0611297Y0324658D01*
X0611166Y0324751D01*
X0611038Y0324847D01*
X0610912Y0324947D01*
X0610788Y0325050D01*
X0610667Y0325155D01*
X0610548Y0325264D01*
X0610432Y0325375D01*
X0610319Y0325490D01*
X0610209Y0325607D01*
X0610102Y0325727D01*
X0609998Y0325849D01*
X0609897Y0325974D01*
X0609799Y0326102D01*
X0609704Y0326232D01*
X0609612Y0326364D01*
X0609524Y0326498D01*
X0609439Y0326635D01*
X0609357Y0326773D01*
X0609279Y0326914D01*
X0609205Y0327056D01*
X0609134Y0327200D01*
X0609066Y0327346D01*
X0609003Y0327494D01*
X0608942Y0327643D01*
X0608886Y0327794D01*
X0608833Y0327946D01*
X0608784Y0328099D01*
X0608739Y0328253D01*
X0608698Y0328408D01*
X0608660Y0328565D01*
X0608627Y0328722D01*
X0608597Y0328880D01*
X0608571Y0329039D01*
X0608550Y0329198D01*
X0608532Y0329358D01*
X0608518Y0329518D01*
X0608508Y0329679D01*
X0608502Y0329839D01*
X0608500Y0330000D01*
X0438500Y0330000D02*
X0438502Y0330161D01*
X0438508Y0330321D01*
X0438518Y0330482D01*
X0438532Y0330642D01*
X0438550Y0330802D01*
X0438571Y0330961D01*
X0438597Y0331120D01*
X0438627Y0331278D01*
X0438660Y0331435D01*
X0438698Y0331592D01*
X0438739Y0331747D01*
X0438784Y0331901D01*
X0438833Y0332054D01*
X0438886Y0332206D01*
X0438942Y0332357D01*
X0439003Y0332506D01*
X0439066Y0332654D01*
X0439134Y0332800D01*
X0439205Y0332944D01*
X0439279Y0333086D01*
X0439357Y0333227D01*
X0439439Y0333365D01*
X0439524Y0333502D01*
X0439612Y0333636D01*
X0439704Y0333768D01*
X0439799Y0333898D01*
X0439897Y0334026D01*
X0439998Y0334151D01*
X0440102Y0334273D01*
X0440209Y0334393D01*
X0440319Y0334510D01*
X0440432Y0334625D01*
X0440548Y0334736D01*
X0440667Y0334845D01*
X0440788Y0334950D01*
X0440912Y0335053D01*
X0441038Y0335153D01*
X0441166Y0335249D01*
X0441297Y0335342D01*
X0441431Y0335432D01*
X0441566Y0335519D01*
X0441704Y0335602D01*
X0441843Y0335682D01*
X0441985Y0335758D01*
X0442128Y0335831D01*
X0442273Y0335900D01*
X0442420Y0335966D01*
X0442568Y0336028D01*
X0442718Y0336086D01*
X0442869Y0336141D01*
X0443022Y0336192D01*
X0443176Y0336239D01*
X0443331Y0336282D01*
X0443487Y0336321D01*
X0443643Y0336357D01*
X0443801Y0336388D01*
X0443959Y0336416D01*
X0444118Y0336440D01*
X0444278Y0336460D01*
X0444438Y0336476D01*
X0444598Y0336488D01*
X0444759Y0336496D01*
X0444920Y0336500D01*
X0445080Y0336500D01*
X0445241Y0336496D01*
X0445402Y0336488D01*
X0445562Y0336476D01*
X0445722Y0336460D01*
X0445882Y0336440D01*
X0446041Y0336416D01*
X0446199Y0336388D01*
X0446357Y0336357D01*
X0446513Y0336321D01*
X0446669Y0336282D01*
X0446824Y0336239D01*
X0446978Y0336192D01*
X0447131Y0336141D01*
X0447282Y0336086D01*
X0447432Y0336028D01*
X0447580Y0335966D01*
X0447727Y0335900D01*
X0447872Y0335831D01*
X0448015Y0335758D01*
X0448157Y0335682D01*
X0448296Y0335602D01*
X0448434Y0335519D01*
X0448569Y0335432D01*
X0448703Y0335342D01*
X0448834Y0335249D01*
X0448962Y0335153D01*
X0449088Y0335053D01*
X0449212Y0334950D01*
X0449333Y0334845D01*
X0449452Y0334736D01*
X0449568Y0334625D01*
X0449681Y0334510D01*
X0449791Y0334393D01*
X0449898Y0334273D01*
X0450002Y0334151D01*
X0450103Y0334026D01*
X0450201Y0333898D01*
X0450296Y0333768D01*
X0450388Y0333636D01*
X0450476Y0333502D01*
X0450561Y0333365D01*
X0450643Y0333227D01*
X0450721Y0333086D01*
X0450795Y0332944D01*
X0450866Y0332800D01*
X0450934Y0332654D01*
X0450997Y0332506D01*
X0451058Y0332357D01*
X0451114Y0332206D01*
X0451167Y0332054D01*
X0451216Y0331901D01*
X0451261Y0331747D01*
X0451302Y0331592D01*
X0451340Y0331435D01*
X0451373Y0331278D01*
X0451403Y0331120D01*
X0451429Y0330961D01*
X0451450Y0330802D01*
X0451468Y0330642D01*
X0451482Y0330482D01*
X0451492Y0330321D01*
X0451498Y0330161D01*
X0451500Y0330000D01*
X0451498Y0329839D01*
X0451492Y0329679D01*
X0451482Y0329518D01*
X0451468Y0329358D01*
X0451450Y0329198D01*
X0451429Y0329039D01*
X0451403Y0328880D01*
X0451373Y0328722D01*
X0451340Y0328565D01*
X0451302Y0328408D01*
X0451261Y0328253D01*
X0451216Y0328099D01*
X0451167Y0327946D01*
X0451114Y0327794D01*
X0451058Y0327643D01*
X0450997Y0327494D01*
X0450934Y0327346D01*
X0450866Y0327200D01*
X0450795Y0327056D01*
X0450721Y0326914D01*
X0450643Y0326773D01*
X0450561Y0326635D01*
X0450476Y0326498D01*
X0450388Y0326364D01*
X0450296Y0326232D01*
X0450201Y0326102D01*
X0450103Y0325974D01*
X0450002Y0325849D01*
X0449898Y0325727D01*
X0449791Y0325607D01*
X0449681Y0325490D01*
X0449568Y0325375D01*
X0449452Y0325264D01*
X0449333Y0325155D01*
X0449212Y0325050D01*
X0449088Y0324947D01*
X0448962Y0324847D01*
X0448834Y0324751D01*
X0448703Y0324658D01*
X0448569Y0324568D01*
X0448434Y0324481D01*
X0448296Y0324398D01*
X0448157Y0324318D01*
X0448015Y0324242D01*
X0447872Y0324169D01*
X0447727Y0324100D01*
X0447580Y0324034D01*
X0447432Y0323972D01*
X0447282Y0323914D01*
X0447131Y0323859D01*
X0446978Y0323808D01*
X0446824Y0323761D01*
X0446669Y0323718D01*
X0446513Y0323679D01*
X0446357Y0323643D01*
X0446199Y0323612D01*
X0446041Y0323584D01*
X0445882Y0323560D01*
X0445722Y0323540D01*
X0445562Y0323524D01*
X0445402Y0323512D01*
X0445241Y0323504D01*
X0445080Y0323500D01*
X0444920Y0323500D01*
X0444759Y0323504D01*
X0444598Y0323512D01*
X0444438Y0323524D01*
X0444278Y0323540D01*
X0444118Y0323560D01*
X0443959Y0323584D01*
X0443801Y0323612D01*
X0443643Y0323643D01*
X0443487Y0323679D01*
X0443331Y0323718D01*
X0443176Y0323761D01*
X0443022Y0323808D01*
X0442869Y0323859D01*
X0442718Y0323914D01*
X0442568Y0323972D01*
X0442420Y0324034D01*
X0442273Y0324100D01*
X0442128Y0324169D01*
X0441985Y0324242D01*
X0441843Y0324318D01*
X0441704Y0324398D01*
X0441566Y0324481D01*
X0441431Y0324568D01*
X0441297Y0324658D01*
X0441166Y0324751D01*
X0441038Y0324847D01*
X0440912Y0324947D01*
X0440788Y0325050D01*
X0440667Y0325155D01*
X0440548Y0325264D01*
X0440432Y0325375D01*
X0440319Y0325490D01*
X0440209Y0325607D01*
X0440102Y0325727D01*
X0439998Y0325849D01*
X0439897Y0325974D01*
X0439799Y0326102D01*
X0439704Y0326232D01*
X0439612Y0326364D01*
X0439524Y0326498D01*
X0439439Y0326635D01*
X0439357Y0326773D01*
X0439279Y0326914D01*
X0439205Y0327056D01*
X0439134Y0327200D01*
X0439066Y0327346D01*
X0439003Y0327494D01*
X0438942Y0327643D01*
X0438886Y0327794D01*
X0438833Y0327946D01*
X0438784Y0328099D01*
X0438739Y0328253D01*
X0438698Y0328408D01*
X0438660Y0328565D01*
X0438627Y0328722D01*
X0438597Y0328880D01*
X0438571Y0329039D01*
X0438550Y0329198D01*
X0438532Y0329358D01*
X0438518Y0329518D01*
X0438508Y0329679D01*
X0438502Y0329839D01*
X0438500Y0330000D01*
D13*
X0465000Y0434775D03*
X0465000Y0456475D03*
D14*
X0474500Y0417500D02*
X0480500Y0417500D01*
X0480500Y0407500D02*
X0474500Y0407500D01*
D15*
X0490000Y0420000D03*
X0500000Y0420000D03*
X0510000Y0420000D03*
X0520000Y0420000D03*
X0530000Y0420000D03*
X0540000Y0420000D03*
X0550000Y0420000D03*
X0560000Y0420000D03*
X0570000Y0420000D03*
X0580000Y0420000D03*
X0590000Y0420000D03*
X0600000Y0420000D03*
X0610000Y0420000D03*
X0620000Y0420000D03*
X0620000Y0480000D03*
X0610000Y0480000D03*
X0600000Y0480000D03*
X0590000Y0480000D03*
X0580000Y0480000D03*
X0570000Y0480000D03*
X0560000Y0480000D03*
X0550000Y0480000D03*
X0540000Y0480000D03*
X0530000Y0480000D03*
X0520000Y0480000D03*
X0510000Y0480000D03*
X0500000Y0480000D03*
X0490000Y0480000D03*
D16*
X0609779Y0454921D03*
X0609779Y0450000D03*
X0609779Y0445079D03*
D17*
X0622377Y0437795D03*
X0622377Y0462205D03*
D18*
X0621893Y0462318D02*
X0470174Y0462318D01*
X0470079Y0462373D02*
X0469697Y0462475D01*
X0465500Y0462475D01*
X0465500Y0456975D01*
X0471000Y0456975D01*
X0471000Y0461172D01*
X0470898Y0461554D01*
X0470700Y0461896D01*
X0470421Y0462175D01*
X0470079Y0462373D01*
X0470961Y0461320D02*
X0615562Y0461320D01*
X0615562Y0461720D02*
X0615562Y0460039D01*
X0615664Y0459657D01*
X0615862Y0459315D01*
X0616141Y0459036D01*
X0616483Y0458838D01*
X0616865Y0458736D01*
X0621893Y0458736D01*
X0621893Y0461720D01*
X0622861Y0461720D01*
X0622861Y0458736D01*
X0627889Y0458736D01*
X0628271Y0458838D01*
X0628350Y0458884D01*
X0628350Y0441116D01*
X0628271Y0441162D01*
X0627889Y0441264D01*
X0622861Y0441264D01*
X0622861Y0438280D01*
X0621893Y0438280D01*
X0621893Y0441264D01*
X0616865Y0441264D01*
X0616483Y0441162D01*
X0616141Y0440964D01*
X0615862Y0440685D01*
X0615664Y0440343D01*
X0615562Y0439961D01*
X0615562Y0438280D01*
X0621893Y0438280D01*
X0621893Y0437311D01*
X0622861Y0437311D01*
X0622861Y0434327D01*
X0627889Y0434327D01*
X0628271Y0434429D01*
X0628350Y0434475D01*
X0628350Y0316650D01*
X0431650Y0316650D01*
X0431650Y0513350D01*
X0628350Y0513350D01*
X0628350Y0465525D01*
X0628271Y0465571D01*
X0627889Y0465673D01*
X0622861Y0465673D01*
X0622861Y0462689D01*
X0621893Y0462689D01*
X0621893Y0465673D01*
X0616865Y0465673D01*
X0616483Y0465571D01*
X0616141Y0465374D01*
X0615862Y0465094D01*
X0615664Y0464752D01*
X0615562Y0464371D01*
X0615562Y0462689D01*
X0621893Y0462689D01*
X0621893Y0461720D01*
X0615562Y0461720D01*
X0615562Y0460321D02*
X0471000Y0460321D01*
X0471000Y0459323D02*
X0615857Y0459323D01*
X0619326Y0457421D02*
X0609281Y0457421D01*
X0609236Y0457402D01*
X0605894Y0457402D01*
X0605132Y0456641D01*
X0605132Y0453202D01*
X0605834Y0452500D01*
X0591980Y0452500D01*
X0591765Y0452589D01*
X0590735Y0452589D01*
X0589783Y0452195D01*
X0589055Y0451467D01*
X0588661Y0450515D01*
X0588661Y0449485D01*
X0589055Y0448533D01*
X0589783Y0447805D01*
X0590735Y0447411D01*
X0591765Y0447411D01*
X0591980Y0447500D01*
X0605834Y0447500D01*
X0605132Y0446798D01*
X0605132Y0443359D01*
X0605894Y0442598D01*
X0609236Y0442598D01*
X0609281Y0442579D01*
X0615576Y0442579D01*
X0616495Y0442959D01*
X0618369Y0444834D01*
X0618750Y0445753D01*
X0618750Y0447715D01*
X0619485Y0447411D01*
X0620515Y0447411D01*
X0621467Y0447805D01*
X0622195Y0448533D01*
X0622589Y0449485D01*
X0622589Y0450515D01*
X0622500Y0450730D01*
X0622500Y0454247D01*
X0622119Y0455166D01*
X0621416Y0455869D01*
X0620245Y0457041D01*
X0619326Y0457421D01*
X0619557Y0457326D02*
X0628350Y0457326D01*
X0628350Y0458324D02*
X0471000Y0458324D01*
X0471000Y0457326D02*
X0605817Y0457326D01*
X0605132Y0456327D02*
X0465500Y0456327D01*
X0465500Y0455975D02*
X0465500Y0456975D01*
X0464500Y0456975D01*
X0464500Y0462475D01*
X0460303Y0462475D01*
X0459921Y0462373D01*
X0459579Y0462175D01*
X0459300Y0461896D01*
X0459102Y0461554D01*
X0459000Y0461172D01*
X0459000Y0456975D01*
X0464500Y0456975D01*
X0464500Y0455975D01*
X0465500Y0455975D01*
X0471000Y0455975D01*
X0471000Y0451778D01*
X0470898Y0451396D01*
X0470700Y0451054D01*
X0470421Y0450775D01*
X0470079Y0450577D01*
X0469697Y0450475D01*
X0465500Y0450475D01*
X0465500Y0455975D01*
X0465500Y0455329D02*
X0464500Y0455329D01*
X0464500Y0455975D02*
X0464500Y0450475D01*
X0460303Y0450475D01*
X0459921Y0450577D01*
X0459579Y0450775D01*
X0459300Y0451054D01*
X0459102Y0451396D01*
X0459000Y0451778D01*
X0459000Y0455975D01*
X0464500Y0455975D01*
X0464500Y0456327D02*
X0431650Y0456327D01*
X0431650Y0455329D02*
X0459000Y0455329D01*
X0459000Y0454330D02*
X0431650Y0454330D01*
X0431650Y0453332D02*
X0459000Y0453332D01*
X0459000Y0452333D02*
X0431650Y0452333D01*
X0431650Y0451335D02*
X0459138Y0451335D01*
X0457500Y0451335D02*
X0472500Y0451335D01*
X0472500Y0452333D02*
X0457500Y0452333D01*
X0457500Y0453332D02*
X0472500Y0453332D01*
X0472500Y0454330D02*
X0457500Y0454330D01*
X0457500Y0455329D02*
X0472500Y0455329D01*
X0472500Y0456327D02*
X0457500Y0456327D01*
X0457500Y0457326D02*
X0472500Y0457326D01*
X0472500Y0458324D02*
X0457500Y0458324D01*
X0457500Y0459323D02*
X0472500Y0459323D01*
X0472500Y0460321D02*
X0457500Y0460321D01*
X0457500Y0461320D02*
X0472500Y0461320D01*
X0472500Y0462318D02*
X0457500Y0462318D01*
X0457500Y0462500D02*
X0472500Y0462500D01*
X0472500Y0450000D01*
X0457500Y0450000D01*
X0457500Y0462500D01*
X0459039Y0461320D02*
X0431650Y0461320D01*
X0431650Y0462318D02*
X0459826Y0462318D01*
X0459000Y0460321D02*
X0431650Y0460321D01*
X0431650Y0459323D02*
X0459000Y0459323D01*
X0459000Y0458324D02*
X0431650Y0458324D01*
X0431650Y0457326D02*
X0459000Y0457326D01*
X0464500Y0457326D02*
X0465500Y0457326D01*
X0465500Y0458324D02*
X0464500Y0458324D01*
X0464500Y0459323D02*
X0465500Y0459323D01*
X0465500Y0460321D02*
X0464500Y0460321D01*
X0464500Y0461320D02*
X0465500Y0461320D01*
X0465500Y0462318D02*
X0464500Y0462318D01*
X0464500Y0454330D02*
X0465500Y0454330D01*
X0465500Y0453332D02*
X0464500Y0453332D01*
X0464500Y0452333D02*
X0465500Y0452333D01*
X0465500Y0451335D02*
X0464500Y0451335D01*
X0470862Y0451335D02*
X0556501Y0451335D01*
X0556555Y0451467D02*
X0556161Y0450515D01*
X0556161Y0449485D01*
X0556250Y0449270D01*
X0556250Y0429503D01*
X0556631Y0428584D01*
X0557334Y0427881D01*
X0561233Y0423981D01*
X0560825Y0424150D01*
X0559175Y0424150D01*
X0557649Y0423518D01*
X0556482Y0422351D01*
X0555850Y0420825D01*
X0555850Y0419175D01*
X0556482Y0417649D01*
X0557649Y0416482D01*
X0559175Y0415850D01*
X0560825Y0415850D01*
X0562351Y0416482D01*
X0563518Y0417649D01*
X0564150Y0419175D01*
X0564150Y0420825D01*
X0563518Y0422350D01*
X0564365Y0422350D01*
X0564486Y0422400D01*
X0566531Y0422400D01*
X0566482Y0422351D01*
X0565850Y0420825D01*
X0565850Y0419175D01*
X0566482Y0417649D01*
X0567649Y0416482D01*
X0569175Y0415850D01*
X0570825Y0415850D01*
X0572351Y0416482D01*
X0573518Y0417649D01*
X0574150Y0419175D01*
X0574150Y0420825D01*
X0573518Y0422351D01*
X0573469Y0422400D01*
X0576531Y0422400D01*
X0576482Y0422351D01*
X0575850Y0420825D01*
X0575850Y0419175D01*
X0576482Y0417649D01*
X0577649Y0416482D01*
X0579175Y0415850D01*
X0580825Y0415850D01*
X0582351Y0416482D01*
X0583518Y0417649D01*
X0584150Y0419175D01*
X0584150Y0420825D01*
X0583518Y0422351D01*
X0583469Y0422400D01*
X0586531Y0422400D01*
X0586482Y0422351D01*
X0585850Y0420825D01*
X0585850Y0419175D01*
X0586482Y0417649D01*
X0587649Y0416482D01*
X0589175Y0415850D01*
X0590825Y0415850D01*
X0592351Y0416482D01*
X0593518Y0417649D01*
X0594150Y0419175D01*
X0594150Y0420825D01*
X0593518Y0422351D01*
X0593469Y0422400D01*
X0596531Y0422400D01*
X0596482Y0422351D01*
X0595850Y0420825D01*
X0595850Y0419175D01*
X0596482Y0417649D01*
X0597649Y0416482D01*
X0599175Y0415850D01*
X0600825Y0415850D01*
X0602351Y0416482D01*
X0603518Y0417649D01*
X0604150Y0419175D01*
X0604150Y0420825D01*
X0603518Y0422351D01*
X0603469Y0422400D01*
X0606531Y0422400D01*
X0606482Y0422351D01*
X0605850Y0420825D01*
X0605850Y0419175D01*
X0606482Y0417649D01*
X0607649Y0416482D01*
X0609175Y0415850D01*
X0610825Y0415850D01*
X0612351Y0416482D01*
X0613518Y0417649D01*
X0614150Y0419175D01*
X0614150Y0419244D01*
X0615514Y0417881D01*
X0616432Y0417500D01*
X0616631Y0417500D01*
X0617649Y0416482D01*
X0619175Y0415850D01*
X0620825Y0415850D01*
X0622351Y0416482D01*
X0623518Y0417649D01*
X0624150Y0419175D01*
X0624150Y0420825D01*
X0623518Y0422351D01*
X0622351Y0423518D01*
X0620825Y0424150D01*
X0619175Y0424150D01*
X0617649Y0423518D01*
X0617298Y0423167D01*
X0614149Y0426316D01*
X0614149Y0426316D01*
X0613446Y0427019D01*
X0612527Y0427400D01*
X0564886Y0427400D01*
X0561250Y0431036D01*
X0561250Y0449270D01*
X0561339Y0449485D01*
X0561339Y0450515D01*
X0560945Y0451467D01*
X0560217Y0452195D01*
X0559265Y0452589D01*
X0558235Y0452589D01*
X0557283Y0452195D01*
X0556555Y0451467D01*
X0556161Y0450336D02*
X0431650Y0450336D01*
X0431650Y0449338D02*
X0556222Y0449338D01*
X0556250Y0448339D02*
X0431650Y0448339D01*
X0431650Y0447341D02*
X0556250Y0447341D01*
X0556250Y0446342D02*
X0431650Y0446342D01*
X0431650Y0445343D02*
X0556250Y0445343D01*
X0556250Y0444345D02*
X0431650Y0444345D01*
X0431650Y0443346D02*
X0556250Y0443346D01*
X0556250Y0442348D02*
X0531097Y0442348D01*
X0531467Y0442195D02*
X0530515Y0442589D01*
X0529485Y0442589D01*
X0528533Y0442195D01*
X0527805Y0441467D01*
X0527500Y0440730D01*
X0527195Y0441467D01*
X0526467Y0442195D01*
X0525515Y0442589D01*
X0524485Y0442589D01*
X0523533Y0442195D01*
X0522805Y0441467D01*
X0522411Y0440515D01*
X0522411Y0439485D01*
X0522805Y0438533D01*
X0523100Y0438239D01*
X0523100Y0434213D01*
X0536037Y0421276D01*
X0535850Y0420825D01*
X0535850Y0419175D01*
X0536482Y0417649D01*
X0537649Y0416482D01*
X0539175Y0415850D01*
X0540825Y0415850D01*
X0541276Y0416037D01*
X0544463Y0412850D01*
X0544463Y0411985D01*
X0544857Y0411033D01*
X0545585Y0410305D01*
X0546537Y0409911D01*
X0547567Y0409911D01*
X0548518Y0410305D01*
X0549246Y0411033D01*
X0549641Y0411985D01*
X0549641Y0413015D01*
X0549246Y0413967D01*
X0548518Y0414695D01*
X0547620Y0415067D01*
X0543963Y0418724D01*
X0544150Y0419175D01*
X0544150Y0420825D01*
X0543518Y0422351D01*
X0542351Y0423518D01*
X0540825Y0424150D01*
X0539175Y0424150D01*
X0538724Y0423963D01*
X0526900Y0435787D01*
X0526900Y0438239D01*
X0527195Y0438533D01*
X0527500Y0439270D01*
X0527805Y0438533D01*
X0528533Y0437805D01*
X0529485Y0437411D01*
X0529902Y0437411D01*
X0546037Y0421276D01*
X0545850Y0420825D01*
X0545850Y0419175D01*
X0546482Y0417649D01*
X0547649Y0416482D01*
X0549175Y0415850D01*
X0550825Y0415850D01*
X0552351Y0416482D01*
X0553518Y0417649D01*
X0554150Y0419175D01*
X0554150Y0420825D01*
X0553518Y0422351D01*
X0552351Y0423518D01*
X0550825Y0424150D01*
X0549175Y0424150D01*
X0548724Y0423963D01*
X0532589Y0440098D01*
X0532589Y0440515D01*
X0532195Y0441467D01*
X0531467Y0442195D01*
X0532243Y0441349D02*
X0556250Y0441349D01*
X0556250Y0440351D02*
X0532589Y0440351D01*
X0533335Y0439352D02*
X0556250Y0439352D01*
X0556250Y0438354D02*
X0534333Y0438354D01*
X0535332Y0437355D02*
X0556250Y0437355D01*
X0556250Y0436357D02*
X0536330Y0436357D01*
X0537329Y0435358D02*
X0556250Y0435358D01*
X0556250Y0434360D02*
X0538327Y0434360D01*
X0539326Y0433361D02*
X0556250Y0433361D01*
X0556250Y0432363D02*
X0540324Y0432363D01*
X0541323Y0431364D02*
X0556250Y0431364D01*
X0556250Y0430366D02*
X0542321Y0430366D01*
X0543320Y0429367D02*
X0556306Y0429367D01*
X0556846Y0428369D02*
X0544318Y0428369D01*
X0545317Y0427370D02*
X0557844Y0427370D01*
X0557334Y0427881D02*
X0557334Y0427881D01*
X0558843Y0426372D02*
X0546315Y0426372D01*
X0547314Y0425373D02*
X0559841Y0425373D01*
X0560840Y0424375D02*
X0548312Y0424375D01*
X0545934Y0421379D02*
X0543921Y0421379D01*
X0544150Y0420381D02*
X0545850Y0420381D01*
X0545850Y0419382D02*
X0544150Y0419382D01*
X0544303Y0418384D02*
X0546178Y0418384D01*
X0546746Y0417385D02*
X0545302Y0417385D01*
X0546300Y0416387D02*
X0547879Y0416387D01*
X0547299Y0415388D02*
X0628350Y0415388D01*
X0628350Y0414390D02*
X0548823Y0414390D01*
X0549485Y0413391D02*
X0628350Y0413391D01*
X0628350Y0412393D02*
X0549641Y0412393D01*
X0549396Y0411394D02*
X0628350Y0411394D01*
X0628350Y0410396D02*
X0548609Y0410396D01*
X0545495Y0410396D02*
X0483686Y0410396D01*
X0484145Y0409936D02*
X0482936Y0411145D01*
X0481355Y0411800D01*
X0473645Y0411800D01*
X0472438Y0411300D01*
X0471300Y0411300D01*
X0471300Y0414619D01*
X0472064Y0413855D01*
X0473645Y0413200D01*
X0481355Y0413200D01*
X0482936Y0413855D01*
X0484145Y0415064D01*
X0484800Y0416645D01*
X0484800Y0418355D01*
X0484145Y0419936D01*
X0482936Y0421145D01*
X0481355Y0421800D01*
X0473645Y0421800D01*
X0472064Y0421145D01*
X0471300Y0420381D01*
X0471300Y0436028D01*
X0470800Y0437235D01*
X0470800Y0439813D01*
X0470038Y0440575D01*
X0467460Y0440575D01*
X0466253Y0441075D01*
X0463747Y0441075D01*
X0462540Y0440575D01*
X0459962Y0440575D01*
X0459200Y0439813D01*
X0459200Y0437235D01*
X0458700Y0436028D01*
X0458700Y0403747D01*
X0459659Y0401431D01*
X0461431Y0399659D01*
X0463747Y0398700D01*
X0467336Y0398700D01*
X0465500Y0396864D01*
X0465500Y0395500D01*
X0469500Y0395500D01*
X0469500Y0394500D01*
X0470500Y0394500D01*
X0470500Y0390500D01*
X0471864Y0390500D01*
X0473700Y0392336D01*
X0473700Y0387664D01*
X0471864Y0389500D01*
X0470500Y0389500D01*
X0470500Y0385500D01*
X0469500Y0385500D01*
X0469500Y0389500D01*
X0468136Y0389500D01*
X0465500Y0386864D01*
X0465500Y0385500D01*
X0469500Y0385500D01*
X0469500Y0384500D01*
X0470500Y0384500D01*
X0470500Y0380500D01*
X0471864Y0380500D01*
X0473700Y0382336D01*
X0473700Y0377664D01*
X0471864Y0379500D01*
X0470500Y0379500D01*
X0470500Y0375500D01*
X0469500Y0375500D01*
X0469500Y0379500D01*
X0468136Y0379500D01*
X0465500Y0376864D01*
X0465500Y0375500D01*
X0469500Y0375500D01*
X0469500Y0374500D01*
X0470500Y0374500D01*
X0470500Y0370500D01*
X0471864Y0370500D01*
X0473700Y0372336D01*
X0473700Y0367664D01*
X0471864Y0369500D01*
X0470500Y0369500D01*
X0470500Y0365500D01*
X0469500Y0365500D01*
X0469500Y0369500D01*
X0468136Y0369500D01*
X0465500Y0366864D01*
X0465500Y0365500D01*
X0469500Y0365500D01*
X0469500Y0364500D01*
X0470500Y0364500D01*
X0470500Y0360500D01*
X0471864Y0360500D01*
X0473700Y0362336D01*
X0473700Y0357664D01*
X0471864Y0359500D01*
X0470500Y0359500D01*
X0470500Y0355500D01*
X0469500Y0355500D01*
X0469500Y0359500D01*
X0468136Y0359500D01*
X0465500Y0356864D01*
X0465500Y0355500D01*
X0469500Y0355500D01*
X0469500Y0354500D01*
X0470500Y0354500D01*
X0470500Y0350500D01*
X0471864Y0350500D01*
X0473700Y0352336D01*
X0473700Y0347664D01*
X0471864Y0349500D01*
X0470500Y0349500D01*
X0470500Y0345500D01*
X0469500Y0345500D01*
X0469500Y0349500D01*
X0468136Y0349500D01*
X0465500Y0346864D01*
X0465500Y0345500D01*
X0469500Y0345500D01*
X0469500Y0344500D01*
X0470500Y0344500D01*
X0470500Y0340500D01*
X0471864Y0340500D01*
X0473700Y0342336D01*
X0473700Y0337664D01*
X0471864Y0339500D01*
X0470500Y0339500D01*
X0470500Y0335500D01*
X0469500Y0335500D01*
X0469500Y0339500D01*
X0468136Y0339500D01*
X0465500Y0336864D01*
X0465500Y0335500D01*
X0469500Y0335500D01*
X0469500Y0334500D01*
X0470500Y0334500D01*
X0470500Y0330500D01*
X0471864Y0330500D01*
X0473700Y0332336D01*
X0473700Y0327664D01*
X0471864Y0329500D01*
X0470500Y0329500D01*
X0470500Y0325500D01*
X0469500Y0325500D01*
X0469500Y0329500D01*
X0468136Y0329500D01*
X0465500Y0326864D01*
X0465500Y0325500D01*
X0469500Y0325500D01*
X0469500Y0324500D01*
X0470500Y0324500D01*
X0470500Y0320500D01*
X0471864Y0320500D01*
X0474113Y0322749D01*
X0474659Y0321431D01*
X0475000Y0321090D01*
X0475000Y0320000D01*
X0465000Y0320000D01*
X0465000Y0398700D01*
X0473700Y0398700D01*
X0473700Y0396253D01*
X0473700Y0323747D01*
X0474659Y0321431D01*
X0476431Y0319659D01*
X0478747Y0318700D01*
X0481253Y0318700D01*
X0483569Y0319659D01*
X0485341Y0321431D01*
X0485970Y0322949D01*
X0488219Y0320700D01*
X0491781Y0320700D01*
X0494300Y0323219D01*
X0494300Y0326781D01*
X0491781Y0329300D01*
X0488219Y0329300D01*
X0486300Y0327381D01*
X0486300Y0332619D01*
X0488219Y0330700D01*
X0491781Y0330700D01*
X0494300Y0333219D01*
X0494300Y0336781D01*
X0491781Y0339300D01*
X0488219Y0339300D01*
X0486300Y0337381D01*
X0486300Y0342619D01*
X0488219Y0340700D01*
X0491781Y0340700D01*
X0494300Y0343219D01*
X0494300Y0346781D01*
X0491781Y0349300D01*
X0488219Y0349300D01*
X0486300Y0347381D01*
X0486300Y0352619D01*
X0488219Y0350700D01*
X0491781Y0350700D01*
X0494300Y0353219D01*
X0494300Y0356781D01*
X0491781Y0359300D01*
X0488219Y0359300D01*
X0486300Y0357381D01*
X0486300Y0362619D01*
X0488219Y0360700D01*
X0491781Y0360700D01*
X0494300Y0363219D01*
X0494300Y0366781D01*
X0491781Y0369300D01*
X0488219Y0369300D01*
X0486300Y0367381D01*
X0486300Y0372619D01*
X0488219Y0370700D01*
X0491781Y0370700D01*
X0494300Y0373219D01*
X0494300Y0376781D01*
X0491781Y0379300D01*
X0488219Y0379300D01*
X0486300Y0377381D01*
X0486300Y0382619D01*
X0488219Y0380700D01*
X0491781Y0380700D01*
X0494300Y0383219D01*
X0494300Y0386781D01*
X0491781Y0389300D01*
X0488219Y0389300D01*
X0486300Y0387381D01*
X0486300Y0392619D01*
X0488219Y0390700D01*
X0491781Y0390700D01*
X0494300Y0393219D01*
X0494300Y0396781D01*
X0491781Y0399300D01*
X0488219Y0399300D01*
X0486300Y0397381D01*
X0486300Y0406253D01*
X0485341Y0408569D01*
X0484267Y0409643D01*
X0484145Y0409936D01*
X0484512Y0409397D02*
X0628350Y0409397D01*
X0628350Y0408399D02*
X0485411Y0408399D01*
X0485825Y0407400D02*
X0628350Y0407400D01*
X0628350Y0406402D02*
X0486239Y0406402D01*
X0486300Y0405403D02*
X0628350Y0405403D01*
X0628350Y0404405D02*
X0621959Y0404405D01*
X0621864Y0404500D02*
X0624500Y0401864D01*
X0624500Y0400500D01*
X0620500Y0400500D01*
X0620500Y0399500D01*
X0624500Y0399500D01*
X0624500Y0398136D01*
X0621864Y0395500D01*
X0620500Y0395500D01*
X0620500Y0399500D01*
X0619500Y0399500D01*
X0619500Y0395500D01*
X0618136Y0395500D01*
X0615500Y0398136D01*
X0615500Y0399500D01*
X0619500Y0399500D01*
X0619500Y0400500D01*
X0619500Y0404500D01*
X0618136Y0404500D01*
X0615500Y0401864D01*
X0615500Y0400500D01*
X0619500Y0400500D01*
X0620500Y0400500D01*
X0620500Y0404500D01*
X0621864Y0404500D01*
X0620500Y0404405D02*
X0619500Y0404405D01*
X0619500Y0403406D02*
X0620500Y0403406D01*
X0620500Y0402408D02*
X0619500Y0402408D01*
X0619500Y0401409D02*
X0620500Y0401409D01*
X0620500Y0400410D02*
X0628350Y0400410D01*
X0628350Y0399412D02*
X0624500Y0399412D01*
X0624500Y0398413D02*
X0628350Y0398413D01*
X0628350Y0397415D02*
X0623779Y0397415D01*
X0622780Y0396416D02*
X0628350Y0396416D01*
X0628350Y0395418D02*
X0494300Y0395418D01*
X0494300Y0396416D02*
X0607502Y0396416D01*
X0608219Y0395700D02*
X0611781Y0395700D01*
X0614300Y0398219D01*
X0614300Y0401781D01*
X0611781Y0404300D01*
X0608219Y0404300D01*
X0605700Y0401781D01*
X0605700Y0398219D01*
X0608219Y0395700D01*
X0608219Y0394300D02*
X0605700Y0391781D01*
X0605700Y0388219D01*
X0608219Y0385700D01*
X0611781Y0385700D01*
X0614300Y0388219D01*
X0614300Y0391781D01*
X0611781Y0394300D01*
X0608219Y0394300D01*
X0607340Y0393421D02*
X0494300Y0393421D01*
X0494300Y0394419D02*
X0618055Y0394419D01*
X0618136Y0394500D02*
X0615500Y0391864D01*
X0615500Y0390500D01*
X0619500Y0390500D01*
X0619500Y0394500D01*
X0618136Y0394500D01*
X0619500Y0394419D02*
X0620500Y0394419D01*
X0620500Y0394500D02*
X0621864Y0394500D01*
X0624500Y0391864D01*
X0624500Y0390500D01*
X0620500Y0390500D01*
X0620500Y0389500D01*
X0624500Y0389500D01*
X0624500Y0388136D01*
X0621864Y0385500D01*
X0620500Y0385500D01*
X0620500Y0389500D01*
X0619500Y0389500D01*
X0619500Y0385500D01*
X0618136Y0385500D01*
X0615500Y0388136D01*
X0615500Y0389500D01*
X0619500Y0389500D01*
X0619500Y0390500D01*
X0620500Y0390500D01*
X0620500Y0394500D01*
X0620500Y0393421D02*
X0619500Y0393421D01*
X0619500Y0392422D02*
X0620500Y0392422D01*
X0620500Y0391424D02*
X0619500Y0391424D01*
X0619500Y0390425D02*
X0614300Y0390425D01*
X0614300Y0389427D02*
X0615500Y0389427D01*
X0615500Y0388428D02*
X0614300Y0388428D01*
X0613511Y0387430D02*
X0616206Y0387430D01*
X0617205Y0386431D02*
X0612512Y0386431D01*
X0611781Y0384300D02*
X0614300Y0381781D01*
X0614300Y0378219D01*
X0611781Y0375700D01*
X0608219Y0375700D01*
X0605700Y0378219D01*
X0605700Y0381781D01*
X0608219Y0384300D01*
X0611781Y0384300D01*
X0612645Y0383436D02*
X0617072Y0383436D01*
X0618070Y0384434D02*
X0494300Y0384434D01*
X0494300Y0383436D02*
X0607355Y0383436D01*
X0606356Y0382437D02*
X0493518Y0382437D01*
X0492520Y0381439D02*
X0605700Y0381439D01*
X0605700Y0380440D02*
X0486300Y0380440D01*
X0486300Y0379442D02*
X0605700Y0379442D01*
X0605700Y0378443D02*
X0492638Y0378443D01*
X0493636Y0377445D02*
X0537418Y0377445D01*
X0537552Y0377500D02*
X0536601Y0377106D01*
X0535873Y0376378D01*
X0535478Y0375426D01*
X0535478Y0374396D01*
X0535763Y0373709D01*
X0535038Y0372984D01*
X0534644Y0372032D01*
X0534644Y0371002D01*
X0535038Y0370051D01*
X0535766Y0369323D01*
X0536718Y0368929D01*
X0537276Y0368929D01*
X0550593Y0355611D01*
X0556818Y0355611D01*
X0557872Y0356665D01*
X0569407Y0368200D01*
X0571889Y0368200D01*
X0572283Y0367805D01*
X0573235Y0367411D01*
X0574265Y0367411D01*
X0575217Y0367805D01*
X0575945Y0368533D01*
X0576339Y0369485D01*
X0576339Y0370515D01*
X0575945Y0371467D01*
X0575217Y0372195D01*
X0574265Y0372589D01*
X0573235Y0372589D01*
X0572283Y0372195D01*
X0571889Y0371800D01*
X0567916Y0371800D01*
X0557308Y0361193D01*
X0557195Y0361467D01*
X0556467Y0362195D01*
X0555515Y0362589D01*
X0554957Y0362589D01*
X0551800Y0365746D01*
X0551800Y0373139D01*
X0552195Y0373533D01*
X0552589Y0374485D01*
X0552589Y0375515D01*
X0552195Y0376467D01*
X0551467Y0377195D01*
X0550515Y0377589D01*
X0549485Y0377589D01*
X0548533Y0377195D01*
X0548050Y0376711D01*
X0539929Y0376711D01*
X0539534Y0377106D01*
X0538582Y0377500D01*
X0537552Y0377500D01*
X0538717Y0377445D02*
X0549137Y0377445D01*
X0550863Y0377445D02*
X0606474Y0377445D01*
X0607473Y0376446D02*
X0552203Y0376446D01*
X0552589Y0375448D02*
X0628350Y0375448D01*
X0628350Y0376446D02*
X0622810Y0376446D01*
X0621864Y0375500D02*
X0624500Y0378136D01*
X0624500Y0379500D01*
X0620500Y0379500D01*
X0620500Y0380500D01*
X0624500Y0380500D01*
X0624500Y0381864D01*
X0621864Y0384500D01*
X0620500Y0384500D01*
X0620500Y0380500D01*
X0619500Y0380500D01*
X0619500Y0384500D01*
X0618136Y0384500D01*
X0615500Y0381864D01*
X0615500Y0380500D01*
X0619500Y0380500D01*
X0619500Y0379500D01*
X0620500Y0379500D01*
X0620500Y0375500D01*
X0621864Y0375500D01*
X0621864Y0374500D02*
X0620500Y0374500D01*
X0620500Y0370500D01*
X0624500Y0370500D01*
X0624500Y0371864D01*
X0621864Y0374500D01*
X0621915Y0374449D02*
X0628350Y0374449D01*
X0628350Y0373451D02*
X0622913Y0373451D01*
X0623912Y0372452D02*
X0628350Y0372452D01*
X0628350Y0371454D02*
X0624500Y0371454D01*
X0624500Y0369500D02*
X0620500Y0369500D01*
X0620500Y0370500D01*
X0619500Y0370500D01*
X0619500Y0374500D01*
X0618136Y0374500D01*
X0615500Y0371864D01*
X0615500Y0370500D01*
X0619500Y0370500D01*
X0619500Y0369500D01*
X0620500Y0369500D01*
X0620500Y0365500D01*
X0621864Y0365500D01*
X0624500Y0368136D01*
X0624500Y0369500D01*
X0624500Y0369457D02*
X0628350Y0369457D01*
X0628350Y0370455D02*
X0620500Y0370455D01*
X0620500Y0369457D02*
X0619500Y0369457D01*
X0619500Y0369500D02*
X0619500Y0365500D01*
X0618136Y0365500D01*
X0615500Y0368136D01*
X0615500Y0369500D01*
X0619500Y0369500D01*
X0619500Y0370455D02*
X0614300Y0370455D01*
X0614300Y0369457D02*
X0615500Y0369457D01*
X0615500Y0368458D02*
X0614300Y0368458D01*
X0614300Y0368219D02*
X0611781Y0365700D01*
X0608219Y0365700D01*
X0605700Y0368219D01*
X0605700Y0371781D01*
X0608219Y0374300D01*
X0611781Y0374300D01*
X0614300Y0371781D01*
X0614300Y0368219D01*
X0613541Y0367460D02*
X0616176Y0367460D01*
X0617175Y0366461D02*
X0612542Y0366461D01*
X0611781Y0364300D02*
X0614300Y0361781D01*
X0614300Y0358219D01*
X0611781Y0355700D01*
X0608219Y0355700D01*
X0605700Y0358219D01*
X0605700Y0361781D01*
X0608219Y0364300D01*
X0611781Y0364300D01*
X0612616Y0363466D02*
X0617102Y0363466D01*
X0618100Y0364464D02*
X0565671Y0364464D01*
X0564673Y0363466D02*
X0607384Y0363466D01*
X0606386Y0362467D02*
X0563674Y0362467D01*
X0562675Y0361469D02*
X0605700Y0361469D01*
X0605700Y0360470D02*
X0561677Y0360470D01*
X0560678Y0359472D02*
X0605700Y0359472D01*
X0605700Y0358473D02*
X0559680Y0358473D01*
X0558681Y0357474D02*
X0606444Y0357474D01*
X0607443Y0356476D02*
X0557683Y0356476D01*
X0556072Y0357411D02*
X0551339Y0357411D01*
X0537233Y0371517D01*
X0534644Y0371454D02*
X0492535Y0371454D01*
X0493533Y0372452D02*
X0534817Y0372452D01*
X0535504Y0373451D02*
X0494300Y0373451D01*
X0494300Y0374449D02*
X0535478Y0374449D01*
X0535487Y0375448D02*
X0494300Y0375448D01*
X0494300Y0376446D02*
X0535941Y0376446D01*
X0538067Y0374911D02*
X0549911Y0374911D01*
X0550000Y0375000D01*
X0550000Y0365000D01*
X0555000Y0360000D01*
X0555809Y0362467D02*
X0558583Y0362467D01*
X0559581Y0363466D02*
X0554080Y0363466D01*
X0553081Y0364464D02*
X0560580Y0364464D01*
X0561578Y0365463D02*
X0552083Y0365463D01*
X0551800Y0366461D02*
X0562577Y0366461D01*
X0563575Y0367460D02*
X0551800Y0367460D01*
X0551800Y0368458D02*
X0564574Y0368458D01*
X0565572Y0369457D02*
X0551800Y0369457D01*
X0551800Y0370455D02*
X0566571Y0370455D01*
X0567569Y0371454D02*
X0551800Y0371454D01*
X0551800Y0372452D02*
X0572905Y0372452D01*
X0574595Y0372452D02*
X0606371Y0372452D01*
X0605700Y0371454D02*
X0575950Y0371454D01*
X0576339Y0370455D02*
X0605700Y0370455D01*
X0605700Y0369457D02*
X0576327Y0369457D01*
X0575869Y0368458D02*
X0605700Y0368458D01*
X0606459Y0367460D02*
X0574382Y0367460D01*
X0573118Y0367460D02*
X0568667Y0367460D01*
X0567668Y0366461D02*
X0607458Y0366461D01*
X0607370Y0373451D02*
X0552112Y0373451D01*
X0552574Y0374449D02*
X0618085Y0374449D01*
X0618136Y0375500D02*
X0619500Y0375500D01*
X0619500Y0379500D01*
X0615500Y0379500D01*
X0615500Y0378136D01*
X0618136Y0375500D01*
X0617190Y0376446D02*
X0612527Y0376446D01*
X0613526Y0377445D02*
X0616191Y0377445D01*
X0615500Y0378443D02*
X0614300Y0378443D01*
X0614300Y0379442D02*
X0615500Y0379442D01*
X0614300Y0380440D02*
X0619500Y0380440D01*
X0619500Y0379442D02*
X0620500Y0379442D01*
X0620500Y0380440D02*
X0628350Y0380440D01*
X0628350Y0379442D02*
X0624500Y0379442D01*
X0624500Y0378443D02*
X0628350Y0378443D01*
X0628350Y0377445D02*
X0623809Y0377445D01*
X0620500Y0377445D02*
X0619500Y0377445D01*
X0619500Y0378443D02*
X0620500Y0378443D01*
X0620500Y0376446D02*
X0619500Y0376446D01*
X0619500Y0374449D02*
X0620500Y0374449D01*
X0620500Y0373451D02*
X0619500Y0373451D01*
X0619500Y0372452D02*
X0620500Y0372452D01*
X0620500Y0371454D02*
X0619500Y0371454D01*
X0619500Y0368458D02*
X0620500Y0368458D01*
X0620500Y0367460D02*
X0619500Y0367460D01*
X0619500Y0366461D02*
X0620500Y0366461D01*
X0620500Y0364500D02*
X0621864Y0364500D01*
X0624500Y0361864D01*
X0624500Y0360500D01*
X0620500Y0360500D01*
X0620500Y0359500D01*
X0624500Y0359500D01*
X0624500Y0358136D01*
X0621864Y0355500D01*
X0620500Y0355500D01*
X0620500Y0359500D01*
X0619500Y0359500D01*
X0619500Y0355500D01*
X0618136Y0355500D01*
X0615500Y0358136D01*
X0615500Y0359500D01*
X0619500Y0359500D01*
X0619500Y0360500D01*
X0619500Y0364500D01*
X0618136Y0364500D01*
X0615500Y0361864D01*
X0615500Y0360500D01*
X0619500Y0360500D01*
X0620500Y0360500D01*
X0620500Y0364500D01*
X0620500Y0364464D02*
X0619500Y0364464D01*
X0619500Y0363466D02*
X0620500Y0363466D01*
X0620500Y0362467D02*
X0619500Y0362467D01*
X0619500Y0361469D02*
X0620500Y0361469D01*
X0620500Y0360470D02*
X0628350Y0360470D01*
X0628350Y0359472D02*
X0624500Y0359472D01*
X0624500Y0358473D02*
X0628350Y0358473D01*
X0628350Y0357474D02*
X0623838Y0357474D01*
X0622840Y0356476D02*
X0628350Y0356476D01*
X0628350Y0355477D02*
X0494300Y0355477D01*
X0494300Y0354479D02*
X0618115Y0354479D01*
X0618136Y0354500D02*
X0615500Y0351864D01*
X0615500Y0350500D01*
X0619500Y0350500D01*
X0619500Y0354500D01*
X0618136Y0354500D01*
X0619500Y0354479D02*
X0620500Y0354479D01*
X0620500Y0354500D02*
X0621864Y0354500D01*
X0624500Y0351864D01*
X0624500Y0350500D01*
X0620500Y0350500D01*
X0620500Y0349500D01*
X0624500Y0349500D01*
X0624500Y0348136D01*
X0621864Y0345500D01*
X0620500Y0345500D01*
X0620500Y0349500D01*
X0619500Y0349500D01*
X0619500Y0345500D01*
X0618136Y0345500D01*
X0615500Y0348136D01*
X0615500Y0349500D01*
X0619500Y0349500D01*
X0619500Y0350500D01*
X0620500Y0350500D01*
X0620500Y0354500D01*
X0620500Y0353480D02*
X0619500Y0353480D01*
X0619500Y0352482D02*
X0620500Y0352482D01*
X0620500Y0351483D02*
X0619500Y0351483D01*
X0619500Y0350485D02*
X0614300Y0350485D01*
X0614300Y0351483D02*
X0615500Y0351483D01*
X0616118Y0352482D02*
X0613599Y0352482D01*
X0614300Y0351781D02*
X0611781Y0354300D01*
X0608219Y0354300D01*
X0605700Y0351781D01*
X0605700Y0348219D01*
X0608219Y0345700D01*
X0611781Y0345700D01*
X0614300Y0348219D01*
X0614300Y0351781D01*
X0614300Y0349486D02*
X0615500Y0349486D01*
X0615500Y0348488D02*
X0614300Y0348488D01*
X0613570Y0347489D02*
X0616147Y0347489D01*
X0617145Y0346491D02*
X0612572Y0346491D01*
X0607428Y0346491D02*
X0494300Y0346491D01*
X0494300Y0345492D02*
X0628350Y0345492D01*
X0628350Y0344494D02*
X0494300Y0344494D01*
X0494300Y0343495D02*
X0628350Y0343495D01*
X0628350Y0342497D02*
X0493578Y0342497D01*
X0492579Y0341498D02*
X0628350Y0341498D01*
X0628350Y0340500D02*
X0486300Y0340500D01*
X0486300Y0341498D02*
X0487421Y0341498D01*
X0486422Y0342497D02*
X0486300Y0342497D01*
X0486300Y0339501D02*
X0628350Y0339501D01*
X0628350Y0338503D02*
X0597578Y0338503D01*
X0596781Y0339300D02*
X0599300Y0336781D01*
X0599300Y0333219D01*
X0596781Y0330700D01*
X0593219Y0330700D01*
X0590700Y0333219D01*
X0590700Y0336781D01*
X0593219Y0339300D01*
X0596781Y0339300D01*
X0598577Y0337504D02*
X0611689Y0337504D01*
X0610355Y0336952D02*
X0610355Y0336952D01*
X0608048Y0334645D01*
X0608048Y0334645D01*
X0606800Y0331631D01*
X0606800Y0328369D01*
X0608048Y0325355D01*
X0610355Y0323048D01*
X0613369Y0321800D01*
X0614627Y0321800D01*
X0616631Y0321800D01*
X0619645Y0323048D01*
X0621952Y0325355D01*
X0623200Y0328369D01*
X0623200Y0331631D01*
X0621952Y0334645D01*
X0619645Y0336952D01*
X0616631Y0338200D01*
X0613369Y0338200D01*
X0610355Y0336952D01*
X0609909Y0336506D02*
X0599300Y0336506D01*
X0599300Y0335507D02*
X0608911Y0335507D01*
X0607992Y0334509D02*
X0599300Y0334509D01*
X0599300Y0333510D02*
X0607578Y0333510D01*
X0607165Y0332512D02*
X0598593Y0332512D01*
X0597594Y0331513D02*
X0606800Y0331513D01*
X0606800Y0330515D02*
X0486300Y0330515D01*
X0486300Y0331513D02*
X0487406Y0331513D01*
X0486407Y0332512D02*
X0486300Y0332512D01*
X0486300Y0329516D02*
X0606800Y0329516D01*
X0606800Y0328518D02*
X0597846Y0328518D01*
X0596864Y0329500D02*
X0595500Y0329500D01*
X0595500Y0325500D01*
X0594500Y0325500D01*
X0594500Y0329500D01*
X0593136Y0329500D01*
X0590500Y0326864D01*
X0590500Y0325500D01*
X0594500Y0325500D01*
X0594500Y0324500D01*
X0590500Y0324500D01*
X0590500Y0323136D01*
X0593136Y0320500D01*
X0594500Y0320500D01*
X0594500Y0324500D01*
X0595500Y0324500D01*
X0595500Y0325500D01*
X0599500Y0325500D01*
X0599500Y0326864D01*
X0596864Y0329500D01*
X0595500Y0328518D02*
X0594500Y0328518D01*
X0594500Y0327519D02*
X0595500Y0327519D01*
X0595500Y0326521D02*
X0594500Y0326521D01*
X0594500Y0325522D02*
X0595500Y0325522D01*
X0595500Y0324524D02*
X0608880Y0324524D01*
X0608048Y0325355D02*
X0608048Y0325355D01*
X0607979Y0325522D02*
X0599500Y0325522D01*
X0599500Y0326521D02*
X0607566Y0326521D01*
X0607152Y0327519D02*
X0598845Y0327519D01*
X0599500Y0324500D02*
X0595500Y0324500D01*
X0595500Y0320500D01*
X0596864Y0320500D01*
X0599500Y0323136D01*
X0599500Y0324500D01*
X0599500Y0323525D02*
X0609878Y0323525D01*
X0610355Y0323048D02*
X0610355Y0323048D01*
X0611615Y0322527D02*
X0598891Y0322527D01*
X0597892Y0321528D02*
X0628350Y0321528D01*
X0628350Y0320530D02*
X0596894Y0320530D01*
X0595500Y0320530D02*
X0594500Y0320530D01*
X0594500Y0321528D02*
X0595500Y0321528D01*
X0595500Y0322527D02*
X0594500Y0322527D01*
X0594500Y0323525D02*
X0595500Y0323525D01*
X0594500Y0324524D02*
X0585500Y0324524D01*
X0585500Y0324500D02*
X0585500Y0325500D01*
X0584500Y0325500D01*
X0584500Y0329500D01*
X0583136Y0329500D01*
X0580500Y0326864D01*
X0580500Y0325500D01*
X0584500Y0325500D01*
X0584500Y0324500D01*
X0580500Y0324500D01*
X0580500Y0323136D01*
X0583136Y0320500D01*
X0584500Y0320500D01*
X0584500Y0324500D01*
X0585500Y0324500D01*
X0589500Y0324500D01*
X0589500Y0323136D01*
X0586864Y0320500D01*
X0585500Y0320500D01*
X0585500Y0324500D01*
X0585500Y0323525D02*
X0584500Y0323525D01*
X0584500Y0322527D02*
X0585500Y0322527D01*
X0585500Y0321528D02*
X0584500Y0321528D01*
X0584500Y0320530D02*
X0585500Y0320530D01*
X0586894Y0320530D02*
X0593106Y0320530D01*
X0592108Y0321528D02*
X0587892Y0321528D01*
X0588891Y0322527D02*
X0591109Y0322527D01*
X0590500Y0323525D02*
X0589500Y0323525D01*
X0589500Y0325500D02*
X0589500Y0326864D01*
X0586864Y0329500D01*
X0585500Y0329500D01*
X0585500Y0325500D01*
X0589500Y0325500D01*
X0589500Y0325522D02*
X0590500Y0325522D01*
X0590500Y0326521D02*
X0589500Y0326521D01*
X0588845Y0327519D02*
X0591155Y0327519D01*
X0592154Y0328518D02*
X0587846Y0328518D01*
X0585500Y0328518D02*
X0584500Y0328518D01*
X0584500Y0327519D02*
X0585500Y0327519D01*
X0585500Y0326521D02*
X0584500Y0326521D01*
X0584500Y0325522D02*
X0585500Y0325522D01*
X0584500Y0324524D02*
X0569300Y0324524D01*
X0569300Y0325522D02*
X0580500Y0325522D01*
X0580500Y0326521D02*
X0569300Y0326521D01*
X0569300Y0326781D02*
X0566781Y0329300D01*
X0563219Y0329300D01*
X0560700Y0326781D01*
X0560700Y0323219D01*
X0563219Y0320700D01*
X0566781Y0320700D01*
X0569300Y0323219D01*
X0569300Y0326781D01*
X0568562Y0327519D02*
X0581155Y0327519D01*
X0582154Y0328518D02*
X0567563Y0328518D01*
X0566781Y0330700D02*
X0569300Y0333219D01*
X0569300Y0336781D01*
X0566781Y0339300D01*
X0563219Y0339300D01*
X0560700Y0336781D01*
X0560700Y0333219D01*
X0563219Y0330700D01*
X0566781Y0330700D01*
X0567594Y0331513D02*
X0582406Y0331513D01*
X0583219Y0330700D02*
X0580700Y0333219D01*
X0580700Y0336781D01*
X0583219Y0339300D01*
X0586781Y0339300D01*
X0589300Y0336781D01*
X0589300Y0333219D01*
X0586781Y0330700D01*
X0583219Y0330700D01*
X0581407Y0332512D02*
X0568593Y0332512D01*
X0569300Y0333510D02*
X0580700Y0333510D01*
X0580700Y0334509D02*
X0569300Y0334509D01*
X0569300Y0335507D02*
X0580700Y0335507D01*
X0580700Y0336506D02*
X0569300Y0336506D01*
X0568577Y0337504D02*
X0581423Y0337504D01*
X0582422Y0338503D02*
X0567578Y0338503D01*
X0562422Y0338503D02*
X0557578Y0338503D01*
X0556781Y0339300D02*
X0559300Y0336781D01*
X0559300Y0333219D01*
X0556781Y0330700D01*
X0553219Y0330700D01*
X0550700Y0333219D01*
X0550700Y0336781D01*
X0553219Y0339300D01*
X0556781Y0339300D01*
X0558577Y0337504D02*
X0561423Y0337504D01*
X0560700Y0336506D02*
X0559300Y0336506D01*
X0559300Y0335507D02*
X0560700Y0335507D01*
X0560700Y0334509D02*
X0559300Y0334509D01*
X0559300Y0333510D02*
X0560700Y0333510D01*
X0561407Y0332512D02*
X0558593Y0332512D01*
X0557594Y0331513D02*
X0562406Y0331513D01*
X0562437Y0328518D02*
X0557563Y0328518D01*
X0556781Y0329300D02*
X0553219Y0329300D01*
X0550700Y0326781D01*
X0550700Y0323219D01*
X0553219Y0320700D01*
X0556781Y0320700D01*
X0559300Y0323219D01*
X0559300Y0326781D01*
X0556781Y0329300D01*
X0558562Y0327519D02*
X0561438Y0327519D01*
X0560700Y0326521D02*
X0559300Y0326521D01*
X0559300Y0325522D02*
X0560700Y0325522D01*
X0560700Y0324524D02*
X0559300Y0324524D01*
X0559300Y0323525D02*
X0560700Y0323525D01*
X0561392Y0322527D02*
X0558608Y0322527D01*
X0557609Y0321528D02*
X0562391Y0321528D01*
X0567609Y0321528D02*
X0582108Y0321528D01*
X0583106Y0320530D02*
X0484439Y0320530D01*
X0485381Y0321528D02*
X0487391Y0321528D01*
X0486392Y0322527D02*
X0485795Y0322527D01*
X0483259Y0319531D02*
X0628350Y0319531D01*
X0628350Y0318533D02*
X0431650Y0318533D01*
X0431650Y0319531D02*
X0476740Y0319531D01*
X0475561Y0320530D02*
X0471894Y0320530D01*
X0470500Y0320530D02*
X0469500Y0320530D01*
X0469500Y0320500D02*
X0469500Y0324500D01*
X0465500Y0324500D01*
X0465500Y0323136D01*
X0468136Y0320500D01*
X0469500Y0320500D01*
X0469500Y0321528D02*
X0470500Y0321528D01*
X0470500Y0322527D02*
X0469500Y0322527D01*
X0469500Y0323525D02*
X0470500Y0323525D01*
X0469500Y0324524D02*
X0451120Y0324524D01*
X0451952Y0325355D02*
X0451952Y0325355D01*
X0453200Y0328369D01*
X0453200Y0331631D01*
X0451952Y0334645D01*
X0449645Y0336952D01*
X0446631Y0338200D01*
X0443369Y0338200D01*
X0440355Y0336952D01*
X0440355Y0336952D01*
X0438048Y0334645D01*
X0436800Y0331631D01*
X0436800Y0328369D01*
X0438048Y0325355D01*
X0440355Y0323048D01*
X0443369Y0321800D01*
X0444627Y0321800D01*
X0446631Y0321800D01*
X0449645Y0323048D01*
X0451952Y0325355D01*
X0452021Y0325522D02*
X0465500Y0325522D01*
X0465000Y0325522D02*
X0473700Y0325522D01*
X0473700Y0324524D02*
X0465000Y0324524D01*
X0465000Y0323525D02*
X0473792Y0323525D01*
X0473891Y0322527D02*
X0474205Y0322527D01*
X0465000Y0322527D01*
X0465000Y0321528D02*
X0474619Y0321528D01*
X0472892Y0321528D01*
X0475000Y0320530D02*
X0465000Y0320530D01*
X0466109Y0322527D02*
X0448385Y0322527D01*
X0449645Y0323048D02*
X0449645Y0323048D01*
X0450122Y0323525D02*
X0465500Y0323525D01*
X0467108Y0321528D02*
X0431650Y0321528D01*
X0431650Y0320530D02*
X0468106Y0320530D01*
X0469500Y0325522D02*
X0470500Y0325522D01*
X0470500Y0326521D02*
X0469500Y0326521D01*
X0469500Y0327519D02*
X0470500Y0327519D01*
X0470500Y0328518D02*
X0469500Y0328518D01*
X0469500Y0330500D02*
X0469500Y0334500D01*
X0465500Y0334500D01*
X0465500Y0333136D01*
X0468136Y0330500D01*
X0469500Y0330500D01*
X0469500Y0330515D02*
X0470500Y0330515D01*
X0470500Y0331513D02*
X0469500Y0331513D01*
X0469500Y0332512D02*
X0470500Y0332512D01*
X0470500Y0333510D02*
X0469500Y0333510D01*
X0469500Y0334509D02*
X0452008Y0334509D01*
X0451952Y0334645D02*
X0451952Y0334645D01*
X0451089Y0335507D02*
X0465500Y0335507D01*
X0465000Y0335507D02*
X0473700Y0335507D01*
X0473700Y0334509D02*
X0465000Y0334509D01*
X0465000Y0333510D02*
X0473700Y0333510D01*
X0473700Y0332512D02*
X0465000Y0332512D01*
X0465000Y0331513D02*
X0473700Y0331513D01*
X0472877Y0331513D01*
X0473700Y0330515D02*
X0465000Y0330515D01*
X0465000Y0329516D02*
X0473700Y0329516D01*
X0453200Y0329516D01*
X0453200Y0328518D02*
X0467154Y0328518D01*
X0466155Y0327519D02*
X0452848Y0327519D01*
X0452434Y0326521D02*
X0465500Y0326521D01*
X0465000Y0326521D02*
X0473700Y0326521D01*
X0473700Y0327519D02*
X0465000Y0327519D01*
X0465000Y0328518D02*
X0473700Y0328518D01*
X0472846Y0328518D01*
X0473700Y0330515D02*
X0471879Y0330515D01*
X0468121Y0330515D02*
X0453200Y0330515D01*
X0453200Y0331513D02*
X0467123Y0331513D01*
X0466124Y0332512D02*
X0452835Y0332512D01*
X0452422Y0333510D02*
X0465500Y0333510D01*
X0465500Y0336506D02*
X0450091Y0336506D01*
X0449645Y0336952D02*
X0449645Y0336952D01*
X0448311Y0337504D02*
X0466140Y0337504D01*
X0465000Y0337504D02*
X0473700Y0337504D01*
X0473700Y0336506D02*
X0465000Y0336506D01*
X0465000Y0338503D02*
X0473700Y0338503D01*
X0472861Y0338503D01*
X0473700Y0339501D02*
X0465000Y0339501D01*
X0465000Y0340500D02*
X0473700Y0340500D01*
X0431650Y0340500D01*
X0431650Y0341498D02*
X0467138Y0341498D01*
X0468136Y0340500D02*
X0469500Y0340500D01*
X0469500Y0344500D01*
X0465500Y0344500D01*
X0465500Y0343136D01*
X0468136Y0340500D01*
X0469500Y0341498D02*
X0470500Y0341498D01*
X0470500Y0342497D02*
X0469500Y0342497D01*
X0469500Y0343495D02*
X0470500Y0343495D01*
X0470500Y0344494D02*
X0469500Y0344494D01*
X0469500Y0345492D02*
X0431650Y0345492D01*
X0431650Y0344494D02*
X0465500Y0344494D01*
X0465000Y0344494D02*
X0473700Y0344494D01*
X0473700Y0345492D02*
X0465000Y0345492D01*
X0465000Y0346491D02*
X0473700Y0346491D01*
X0473700Y0347489D02*
X0465000Y0347489D01*
X0465000Y0348488D02*
X0473700Y0348488D01*
X0472876Y0348488D01*
X0473700Y0349486D02*
X0465000Y0349486D01*
X0465000Y0350485D02*
X0473700Y0350485D01*
X0431650Y0350485D01*
X0431650Y0351483D02*
X0467153Y0351483D01*
X0468136Y0350500D02*
X0469500Y0350500D01*
X0469500Y0354500D01*
X0465500Y0354500D01*
X0465500Y0353136D01*
X0468136Y0350500D01*
X0468122Y0349486D02*
X0431650Y0349486D01*
X0431650Y0348488D02*
X0467124Y0348488D01*
X0466125Y0347489D02*
X0431650Y0347489D01*
X0431650Y0346491D02*
X0465500Y0346491D01*
X0465500Y0343495D02*
X0431650Y0343495D01*
X0431650Y0342497D02*
X0466139Y0342497D01*
X0465000Y0342497D02*
X0473700Y0342497D01*
X0473700Y0343495D02*
X0465000Y0343495D01*
X0465000Y0341498D02*
X0473700Y0341498D01*
X0472862Y0341498D01*
X0473700Y0339501D02*
X0431650Y0339501D01*
X0431650Y0338503D02*
X0467139Y0338503D01*
X0469500Y0338503D02*
X0470500Y0338503D01*
X0470500Y0337504D02*
X0469500Y0337504D01*
X0469500Y0336506D02*
X0470500Y0336506D01*
X0470500Y0335507D02*
X0469500Y0335507D01*
X0469500Y0346491D02*
X0470500Y0346491D01*
X0470500Y0347489D02*
X0469500Y0347489D01*
X0469500Y0348488D02*
X0470500Y0348488D01*
X0470500Y0349486D02*
X0469500Y0349486D01*
X0469500Y0351483D02*
X0470500Y0351483D01*
X0470500Y0352482D02*
X0469500Y0352482D01*
X0469500Y0353480D02*
X0470500Y0353480D01*
X0470500Y0354479D02*
X0469500Y0354479D01*
X0469500Y0355477D02*
X0431650Y0355477D01*
X0431650Y0354479D02*
X0465500Y0354479D01*
X0465000Y0354479D02*
X0473700Y0354479D01*
X0473700Y0355477D02*
X0465000Y0355477D01*
X0465000Y0356476D02*
X0473700Y0356476D01*
X0473700Y0357474D02*
X0465000Y0357474D01*
X0465000Y0358473D02*
X0473700Y0358473D01*
X0472891Y0358473D01*
X0473700Y0359472D02*
X0465000Y0359472D01*
X0465000Y0360470D02*
X0473700Y0360470D01*
X0431650Y0360470D01*
X0431650Y0359472D02*
X0468108Y0359472D01*
X0468136Y0360500D02*
X0469500Y0360500D01*
X0469500Y0364500D01*
X0465500Y0364500D01*
X0465500Y0363136D01*
X0468136Y0360500D01*
X0467167Y0361469D02*
X0431650Y0361469D01*
X0431650Y0362467D02*
X0466169Y0362467D01*
X0465000Y0362467D02*
X0473700Y0362467D01*
X0473700Y0361469D02*
X0465000Y0361469D01*
X0465000Y0363466D02*
X0473700Y0363466D01*
X0473700Y0364464D02*
X0465000Y0364464D01*
X0465500Y0364464D02*
X0431650Y0364464D01*
X0431650Y0363466D02*
X0465500Y0363466D01*
X0465000Y0365463D02*
X0473700Y0365463D01*
X0473700Y0366461D02*
X0465000Y0366461D01*
X0465500Y0366461D02*
X0431650Y0366461D01*
X0431650Y0365463D02*
X0469500Y0365463D01*
X0469500Y0366461D02*
X0470500Y0366461D01*
X0470500Y0367460D02*
X0469500Y0367460D01*
X0469500Y0368458D02*
X0470500Y0368458D01*
X0470500Y0369457D02*
X0469500Y0369457D01*
X0469500Y0370500D02*
X0469500Y0374500D01*
X0465500Y0374500D01*
X0465500Y0373136D01*
X0468136Y0370500D01*
X0469500Y0370500D01*
X0469500Y0371454D02*
X0470500Y0371454D01*
X0470500Y0372452D02*
X0469500Y0372452D01*
X0469500Y0373451D02*
X0470500Y0373451D01*
X0470500Y0374449D02*
X0469500Y0374449D01*
X0469500Y0375448D02*
X0431650Y0375448D01*
X0431650Y0376446D02*
X0465500Y0376446D01*
X0465000Y0376446D02*
X0473700Y0376446D01*
X0473700Y0375448D02*
X0465000Y0375448D01*
X0465000Y0374449D02*
X0473700Y0374449D01*
X0473700Y0373451D02*
X0465000Y0373451D01*
X0465500Y0373451D02*
X0431650Y0373451D01*
X0431650Y0374449D02*
X0465500Y0374449D01*
X0465000Y0372452D02*
X0473700Y0372452D01*
X0473700Y0371454D02*
X0465000Y0371454D01*
X0465000Y0370455D02*
X0473700Y0370455D01*
X0431650Y0370455D01*
X0431650Y0369457D02*
X0468093Y0369457D01*
X0467094Y0368458D02*
X0431650Y0368458D01*
X0431650Y0367460D02*
X0466096Y0367460D01*
X0465000Y0367460D02*
X0473700Y0367460D01*
X0473700Y0368458D02*
X0465000Y0368458D01*
X0465000Y0369457D02*
X0473700Y0369457D01*
X0471907Y0369457D01*
X0472906Y0368458D02*
X0473700Y0368458D01*
X0473700Y0371454D02*
X0472818Y0371454D01*
X0470500Y0376446D02*
X0469500Y0376446D01*
X0469500Y0377445D02*
X0470500Y0377445D01*
X0470500Y0378443D02*
X0469500Y0378443D01*
X0469500Y0379442D02*
X0470500Y0379442D01*
X0471922Y0379442D02*
X0473700Y0379442D01*
X0465000Y0379442D01*
X0465000Y0380440D02*
X0473700Y0380440D01*
X0431650Y0380440D01*
X0431650Y0379442D02*
X0468078Y0379442D01*
X0468136Y0380500D02*
X0469500Y0380500D01*
X0469500Y0384500D01*
X0465500Y0384500D01*
X0465500Y0383136D01*
X0468136Y0380500D01*
X0467197Y0381439D02*
X0431650Y0381439D01*
X0431650Y0382437D02*
X0466199Y0382437D01*
X0465000Y0382437D02*
X0473700Y0382437D01*
X0473700Y0381439D02*
X0465000Y0381439D01*
X0465000Y0383436D02*
X0473700Y0383436D01*
X0473700Y0384434D02*
X0465000Y0384434D01*
X0465500Y0384434D02*
X0431650Y0384434D01*
X0431650Y0383436D02*
X0465500Y0383436D01*
X0465000Y0385433D02*
X0473700Y0385433D01*
X0473700Y0386431D02*
X0465000Y0386431D01*
X0465500Y0386431D02*
X0431650Y0386431D01*
X0431650Y0385433D02*
X0469500Y0385433D01*
X0469500Y0386431D02*
X0470500Y0386431D01*
X0470500Y0387430D02*
X0469500Y0387430D01*
X0469500Y0388428D02*
X0470500Y0388428D01*
X0470500Y0389427D02*
X0469500Y0389427D01*
X0469500Y0390500D02*
X0469500Y0394500D01*
X0465500Y0394500D01*
X0465500Y0393136D01*
X0468136Y0390500D01*
X0469500Y0390500D01*
X0469500Y0391424D02*
X0470500Y0391424D01*
X0470500Y0392422D02*
X0469500Y0392422D01*
X0469500Y0393421D02*
X0470500Y0393421D01*
X0470500Y0394419D02*
X0469500Y0394419D01*
X0469500Y0395418D02*
X0431650Y0395418D01*
X0431650Y0396416D02*
X0465500Y0396416D01*
X0465000Y0396416D02*
X0473700Y0396416D01*
X0473700Y0395418D02*
X0465000Y0395418D01*
X0465000Y0394419D02*
X0473700Y0394419D01*
X0473700Y0393421D02*
X0465000Y0393421D01*
X0465500Y0393421D02*
X0431650Y0393421D01*
X0431650Y0394419D02*
X0465500Y0394419D01*
X0465000Y0392422D02*
X0473700Y0392422D01*
X0473700Y0391424D02*
X0465000Y0391424D01*
X0465000Y0390425D02*
X0473700Y0390425D01*
X0431650Y0390425D01*
X0431650Y0389427D02*
X0468063Y0389427D01*
X0467064Y0388428D02*
X0431650Y0388428D01*
X0431650Y0387430D02*
X0466066Y0387430D01*
X0465000Y0387430D02*
X0473700Y0387430D01*
X0473700Y0388428D02*
X0465000Y0388428D01*
X0465000Y0389427D02*
X0473700Y0389427D01*
X0471937Y0389427D01*
X0472936Y0388428D02*
X0473700Y0388428D01*
X0473700Y0391424D02*
X0472788Y0391424D01*
X0467212Y0391424D02*
X0431650Y0391424D01*
X0431650Y0392422D02*
X0466214Y0392422D01*
X0466051Y0397415D02*
X0431650Y0397415D01*
X0431650Y0398413D02*
X0467050Y0398413D01*
X0465000Y0398413D02*
X0473700Y0398413D01*
X0473700Y0397415D02*
X0465000Y0397415D01*
X0462028Y0399412D02*
X0431650Y0399412D01*
X0431650Y0400410D02*
X0460680Y0400410D01*
X0459681Y0401409D02*
X0431650Y0401409D01*
X0431650Y0402408D02*
X0459255Y0402408D01*
X0458841Y0403406D02*
X0431650Y0403406D01*
X0431650Y0404405D02*
X0458700Y0404405D01*
X0458700Y0405403D02*
X0431650Y0405403D01*
X0431650Y0406402D02*
X0458700Y0406402D01*
X0458700Y0407400D02*
X0431650Y0407400D01*
X0431650Y0408399D02*
X0458700Y0408399D01*
X0458700Y0409397D02*
X0431650Y0409397D01*
X0431650Y0410396D02*
X0458700Y0410396D01*
X0458700Y0411394D02*
X0431650Y0411394D01*
X0431650Y0412393D02*
X0458700Y0412393D01*
X0458700Y0413391D02*
X0431650Y0413391D01*
X0431650Y0414390D02*
X0458700Y0414390D01*
X0458700Y0415388D02*
X0431650Y0415388D01*
X0431650Y0416387D02*
X0458700Y0416387D01*
X0458700Y0417385D02*
X0431650Y0417385D01*
X0431650Y0418384D02*
X0458700Y0418384D01*
X0458700Y0419382D02*
X0431650Y0419382D01*
X0431650Y0420381D02*
X0458700Y0420381D01*
X0458700Y0421379D02*
X0431650Y0421379D01*
X0431650Y0422378D02*
X0458700Y0422378D01*
X0458700Y0423376D02*
X0431650Y0423376D01*
X0431650Y0424375D02*
X0458700Y0424375D01*
X0458700Y0425373D02*
X0431650Y0425373D01*
X0431650Y0426372D02*
X0458700Y0426372D01*
X0458700Y0427370D02*
X0431650Y0427370D01*
X0431650Y0428369D02*
X0458700Y0428369D01*
X0458700Y0429367D02*
X0431650Y0429367D01*
X0431650Y0430366D02*
X0458700Y0430366D01*
X0458700Y0431364D02*
X0431650Y0431364D01*
X0431650Y0432363D02*
X0458700Y0432363D01*
X0458700Y0433361D02*
X0431650Y0433361D01*
X0431650Y0434360D02*
X0458700Y0434360D01*
X0458700Y0435358D02*
X0431650Y0435358D01*
X0431650Y0436357D02*
X0458836Y0436357D01*
X0459200Y0437355D02*
X0431650Y0437355D01*
X0431650Y0438354D02*
X0459200Y0438354D01*
X0459200Y0439352D02*
X0431650Y0439352D01*
X0431650Y0440351D02*
X0459737Y0440351D01*
X0470263Y0440351D02*
X0522411Y0440351D01*
X0522466Y0439352D02*
X0470800Y0439352D01*
X0470800Y0438354D02*
X0522985Y0438354D01*
X0523100Y0437355D02*
X0470800Y0437355D01*
X0471164Y0436357D02*
X0523100Y0436357D01*
X0523100Y0435358D02*
X0471300Y0435358D01*
X0471300Y0434360D02*
X0523100Y0434360D01*
X0523952Y0433361D02*
X0471300Y0433361D01*
X0471300Y0432363D02*
X0524950Y0432363D01*
X0525949Y0431364D02*
X0471300Y0431364D01*
X0471300Y0430366D02*
X0526947Y0430366D01*
X0527946Y0429367D02*
X0471300Y0429367D01*
X0471300Y0428369D02*
X0528944Y0428369D01*
X0529943Y0427370D02*
X0471300Y0427370D01*
X0471300Y0426372D02*
X0530941Y0426372D01*
X0531940Y0425373D02*
X0471300Y0425373D01*
X0471300Y0424375D02*
X0532938Y0424375D01*
X0532351Y0423518D02*
X0530825Y0424150D01*
X0529175Y0424150D01*
X0527649Y0423518D01*
X0526482Y0422351D01*
X0525850Y0420825D01*
X0525850Y0419175D01*
X0526482Y0417649D01*
X0527649Y0416482D01*
X0529175Y0415850D01*
X0530825Y0415850D01*
X0532351Y0416482D01*
X0533518Y0417649D01*
X0534150Y0419175D01*
X0534150Y0420825D01*
X0533518Y0422351D01*
X0532351Y0423518D01*
X0532493Y0423376D02*
X0533937Y0423376D01*
X0533491Y0422378D02*
X0534935Y0422378D01*
X0535934Y0421379D02*
X0533921Y0421379D01*
X0534150Y0420381D02*
X0535850Y0420381D01*
X0535850Y0419382D02*
X0534150Y0419382D01*
X0533822Y0418384D02*
X0536178Y0418384D01*
X0536746Y0417385D02*
X0533254Y0417385D01*
X0532121Y0416387D02*
X0537879Y0416387D01*
X0541925Y0415388D02*
X0484280Y0415388D01*
X0484693Y0416387D02*
X0487879Y0416387D01*
X0487649Y0416482D02*
X0489175Y0415850D01*
X0490825Y0415850D01*
X0492351Y0416482D01*
X0493518Y0417649D01*
X0494150Y0419175D01*
X0494150Y0420825D01*
X0493518Y0422351D01*
X0492351Y0423518D01*
X0490825Y0424150D01*
X0489175Y0424150D01*
X0487649Y0423518D01*
X0486482Y0422351D01*
X0485850Y0420825D01*
X0485850Y0419175D01*
X0486482Y0417649D01*
X0487649Y0416482D01*
X0486746Y0417385D02*
X0484800Y0417385D01*
X0484788Y0418384D02*
X0486178Y0418384D01*
X0485850Y0419382D02*
X0484375Y0419382D01*
X0483700Y0420381D02*
X0485850Y0420381D01*
X0486079Y0421379D02*
X0482371Y0421379D01*
X0486509Y0422378D02*
X0471300Y0422378D01*
X0471300Y0423376D02*
X0487507Y0423376D01*
X0492493Y0423376D02*
X0497507Y0423376D01*
X0497649Y0423518D02*
X0496482Y0422351D01*
X0495850Y0420825D01*
X0495850Y0419175D01*
X0496482Y0417649D01*
X0497649Y0416482D01*
X0499175Y0415850D01*
X0500825Y0415850D01*
X0502351Y0416482D01*
X0503518Y0417649D01*
X0504150Y0419175D01*
X0504150Y0420825D01*
X0503518Y0422351D01*
X0502351Y0423518D01*
X0500825Y0424150D01*
X0499175Y0424150D01*
X0497649Y0423518D01*
X0496509Y0422378D02*
X0493491Y0422378D01*
X0493921Y0421379D02*
X0496079Y0421379D01*
X0495850Y0420381D02*
X0494150Y0420381D01*
X0494150Y0419382D02*
X0495850Y0419382D01*
X0496178Y0418384D02*
X0493822Y0418384D01*
X0493254Y0417385D02*
X0496746Y0417385D01*
X0497879Y0416387D02*
X0492121Y0416387D01*
X0483471Y0414390D02*
X0542923Y0414390D01*
X0543922Y0413391D02*
X0481817Y0413391D01*
X0482335Y0411394D02*
X0544707Y0411394D01*
X0544463Y0412393D02*
X0471300Y0412393D01*
X0471300Y0413391D02*
X0473183Y0413391D01*
X0471529Y0414390D02*
X0471300Y0414390D01*
X0471300Y0411394D02*
X0472665Y0411394D01*
X0472629Y0421379D02*
X0471300Y0421379D01*
X0486300Y0404405D02*
X0618041Y0404405D01*
X0617042Y0403406D02*
X0612675Y0403406D01*
X0613674Y0402408D02*
X0616044Y0402408D01*
X0615500Y0401409D02*
X0614300Y0401409D01*
X0614300Y0400410D02*
X0619500Y0400410D01*
X0619500Y0399412D02*
X0620500Y0399412D01*
X0620500Y0398413D02*
X0619500Y0398413D01*
X0619500Y0397415D02*
X0620500Y0397415D01*
X0620500Y0396416D02*
X0619500Y0396416D01*
X0617220Y0396416D02*
X0612498Y0396416D01*
X0613496Y0397415D02*
X0616221Y0397415D01*
X0615500Y0398413D02*
X0614300Y0398413D01*
X0614300Y0399412D02*
X0615500Y0399412D01*
X0617057Y0393421D02*
X0612660Y0393421D01*
X0613659Y0392422D02*
X0616058Y0392422D01*
X0615500Y0391424D02*
X0614300Y0391424D01*
X0619500Y0389427D02*
X0620500Y0389427D01*
X0620500Y0390425D02*
X0628350Y0390425D01*
X0628350Y0389427D02*
X0624500Y0389427D01*
X0624500Y0388428D02*
X0628350Y0388428D01*
X0628350Y0387430D02*
X0623794Y0387430D01*
X0622795Y0386431D02*
X0628350Y0386431D01*
X0628350Y0385433D02*
X0494300Y0385433D01*
X0494300Y0386431D02*
X0607488Y0386431D01*
X0606489Y0387430D02*
X0493651Y0387430D01*
X0492653Y0388428D02*
X0605700Y0388428D01*
X0605700Y0389427D02*
X0486300Y0389427D01*
X0486300Y0390425D02*
X0605700Y0390425D01*
X0605700Y0391424D02*
X0492505Y0391424D01*
X0493503Y0392422D02*
X0606341Y0392422D01*
X0606504Y0397415D02*
X0493666Y0397415D01*
X0492668Y0398413D02*
X0605700Y0398413D01*
X0605700Y0399412D02*
X0486300Y0399412D01*
X0486300Y0400410D02*
X0605700Y0400410D01*
X0605700Y0401409D02*
X0486300Y0401409D01*
X0486300Y0402408D02*
X0606326Y0402408D01*
X0607325Y0403406D02*
X0486300Y0403406D01*
X0486300Y0398413D02*
X0487332Y0398413D01*
X0486334Y0397415D02*
X0486300Y0397415D01*
X0486300Y0392422D02*
X0486496Y0392422D01*
X0486300Y0391424D02*
X0487495Y0391424D01*
X0487347Y0388428D02*
X0486300Y0388428D01*
X0486300Y0387430D02*
X0486349Y0387430D01*
X0486300Y0382437D02*
X0486482Y0382437D01*
X0486300Y0381439D02*
X0487480Y0381439D01*
X0487362Y0378443D02*
X0486300Y0378443D01*
X0486300Y0377445D02*
X0486364Y0377445D01*
X0486300Y0372452D02*
X0486467Y0372452D01*
X0486300Y0371454D02*
X0487465Y0371454D01*
X0486300Y0370455D02*
X0534870Y0370455D01*
X0535632Y0369457D02*
X0486300Y0369457D01*
X0486300Y0368458D02*
X0487377Y0368458D01*
X0486379Y0367460D02*
X0486300Y0367460D01*
X0486300Y0362467D02*
X0486452Y0362467D01*
X0486300Y0361469D02*
X0487450Y0361469D01*
X0486300Y0360470D02*
X0545734Y0360470D01*
X0544736Y0361469D02*
X0492550Y0361469D01*
X0493548Y0362467D02*
X0543737Y0362467D01*
X0542739Y0363466D02*
X0494300Y0363466D01*
X0494300Y0364464D02*
X0541740Y0364464D01*
X0540742Y0365463D02*
X0494300Y0365463D01*
X0494300Y0366461D02*
X0539743Y0366461D01*
X0538745Y0367460D02*
X0493621Y0367460D01*
X0492623Y0368458D02*
X0537746Y0368458D01*
X0546733Y0359472D02*
X0486300Y0359472D01*
X0486300Y0358473D02*
X0487392Y0358473D01*
X0486393Y0357474D02*
X0486300Y0357474D01*
X0486300Y0352482D02*
X0486437Y0352482D01*
X0486300Y0351483D02*
X0487435Y0351483D01*
X0486300Y0350485D02*
X0605700Y0350485D01*
X0605700Y0351483D02*
X0492565Y0351483D01*
X0493563Y0352482D02*
X0606401Y0352482D01*
X0607399Y0353480D02*
X0494300Y0353480D01*
X0494300Y0356476D02*
X0549728Y0356476D01*
X0548730Y0357474D02*
X0493607Y0357474D01*
X0492608Y0358473D02*
X0547731Y0358473D01*
X0556072Y0357411D02*
X0568661Y0370000D01*
X0573750Y0370000D01*
X0566670Y0365463D02*
X0628350Y0365463D01*
X0628350Y0366461D02*
X0622825Y0366461D01*
X0623824Y0367460D02*
X0628350Y0367460D01*
X0628350Y0368458D02*
X0624500Y0368458D01*
X0621900Y0364464D02*
X0628350Y0364464D01*
X0628350Y0363466D02*
X0622898Y0363466D01*
X0623897Y0362467D02*
X0628350Y0362467D01*
X0628350Y0361469D02*
X0624500Y0361469D01*
X0620500Y0359472D02*
X0619500Y0359472D01*
X0619500Y0360470D02*
X0614300Y0360470D01*
X0614300Y0359472D02*
X0615500Y0359472D01*
X0615500Y0358473D02*
X0614300Y0358473D01*
X0613556Y0357474D02*
X0616162Y0357474D01*
X0617160Y0356476D02*
X0612557Y0356476D01*
X0612601Y0353480D02*
X0617116Y0353480D01*
X0619500Y0356476D02*
X0620500Y0356476D01*
X0620500Y0357474D02*
X0619500Y0357474D01*
X0619500Y0358473D02*
X0620500Y0358473D01*
X0621885Y0354479D02*
X0628350Y0354479D01*
X0628350Y0353480D02*
X0622883Y0353480D01*
X0623882Y0352482D02*
X0628350Y0352482D01*
X0628350Y0351483D02*
X0624500Y0351483D01*
X0624500Y0349486D02*
X0628350Y0349486D01*
X0628350Y0348488D02*
X0624500Y0348488D01*
X0623853Y0347489D02*
X0628350Y0347489D01*
X0628350Y0346491D02*
X0622855Y0346491D01*
X0620500Y0346491D02*
X0619500Y0346491D01*
X0619500Y0347489D02*
X0620500Y0347489D01*
X0620500Y0348488D02*
X0619500Y0348488D01*
X0619500Y0349486D02*
X0620500Y0349486D01*
X0620500Y0350485D02*
X0628350Y0350485D01*
X0628350Y0337504D02*
X0618311Y0337504D01*
X0619645Y0336952D02*
X0619645Y0336952D01*
X0620091Y0336506D02*
X0628350Y0336506D01*
X0628350Y0335507D02*
X0621089Y0335507D01*
X0621952Y0334645D02*
X0621952Y0334645D01*
X0622008Y0334509D02*
X0628350Y0334509D01*
X0628350Y0333510D02*
X0622422Y0333510D01*
X0622835Y0332512D02*
X0628350Y0332512D01*
X0628350Y0331513D02*
X0623200Y0331513D01*
X0623200Y0330515D02*
X0628350Y0330515D01*
X0628350Y0329516D02*
X0623200Y0329516D01*
X0623200Y0328518D02*
X0628350Y0328518D01*
X0628350Y0327519D02*
X0622848Y0327519D01*
X0622434Y0326521D02*
X0628350Y0326521D01*
X0628350Y0325522D02*
X0622021Y0325522D01*
X0621952Y0325355D02*
X0621952Y0325355D01*
X0621952Y0325355D01*
X0621120Y0324524D02*
X0628350Y0324524D01*
X0628350Y0323525D02*
X0620122Y0323525D01*
X0618385Y0322527D02*
X0628350Y0322527D01*
X0628350Y0317534D02*
X0431650Y0317534D01*
X0431650Y0322527D02*
X0441615Y0322527D01*
X0440355Y0323048D02*
X0440355Y0323048D01*
X0440355Y0323048D01*
X0439878Y0323525D02*
X0431650Y0323525D01*
X0431650Y0324524D02*
X0438880Y0324524D01*
X0438048Y0325355D02*
X0438048Y0325355D01*
X0437979Y0325522D02*
X0431650Y0325522D01*
X0431650Y0326521D02*
X0437566Y0326521D01*
X0437152Y0327519D02*
X0431650Y0327519D01*
X0431650Y0328518D02*
X0436800Y0328518D01*
X0436800Y0329516D02*
X0431650Y0329516D01*
X0431650Y0330515D02*
X0436800Y0330515D01*
X0436800Y0331513D02*
X0431650Y0331513D01*
X0431650Y0332512D02*
X0437165Y0332512D01*
X0437578Y0333510D02*
X0431650Y0333510D01*
X0431650Y0334509D02*
X0437992Y0334509D01*
X0438048Y0334645D02*
X0438048Y0334645D01*
X0438911Y0335507D02*
X0431650Y0335507D01*
X0431650Y0336506D02*
X0439909Y0336506D01*
X0441689Y0337504D02*
X0431650Y0337504D01*
X0431650Y0352482D02*
X0466154Y0352482D01*
X0465000Y0352482D02*
X0473700Y0352482D01*
X0473700Y0353480D02*
X0465000Y0353480D01*
X0465500Y0353480D02*
X0431650Y0353480D01*
X0431650Y0356476D02*
X0465500Y0356476D01*
X0466111Y0357474D02*
X0431650Y0357474D01*
X0431650Y0358473D02*
X0467109Y0358473D01*
X0469500Y0358473D02*
X0470500Y0358473D01*
X0470500Y0357474D02*
X0469500Y0357474D01*
X0469500Y0356476D02*
X0470500Y0356476D01*
X0470500Y0359472D02*
X0469500Y0359472D01*
X0469500Y0361469D02*
X0470500Y0361469D01*
X0470500Y0362467D02*
X0469500Y0362467D01*
X0469500Y0363466D02*
X0470500Y0363466D01*
X0470500Y0364464D02*
X0469500Y0364464D01*
X0472832Y0361469D02*
X0473700Y0361469D01*
X0473700Y0359472D02*
X0471892Y0359472D01*
X0472847Y0351483D02*
X0473700Y0351483D01*
X0465000Y0351483D01*
X0471878Y0349486D02*
X0473700Y0349486D01*
X0486300Y0349486D02*
X0605700Y0349486D01*
X0605700Y0348488D02*
X0492593Y0348488D01*
X0493592Y0347489D02*
X0606430Y0347489D01*
X0614300Y0361469D02*
X0615500Y0361469D01*
X0616103Y0362467D02*
X0613614Y0362467D01*
X0614300Y0371454D02*
X0615500Y0371454D01*
X0616088Y0372452D02*
X0613629Y0372452D01*
X0612630Y0373451D02*
X0617087Y0373451D01*
X0615500Y0381439D02*
X0614300Y0381439D01*
X0613644Y0382437D02*
X0616073Y0382437D01*
X0619500Y0382437D02*
X0620500Y0382437D01*
X0620500Y0381439D02*
X0619500Y0381439D01*
X0619500Y0383436D02*
X0620500Y0383436D01*
X0620500Y0384434D02*
X0619500Y0384434D01*
X0619500Y0386431D02*
X0620500Y0386431D01*
X0620500Y0387430D02*
X0619500Y0387430D01*
X0619500Y0388428D02*
X0620500Y0388428D01*
X0621930Y0384434D02*
X0628350Y0384434D01*
X0628350Y0383436D02*
X0622928Y0383436D01*
X0623927Y0382437D02*
X0628350Y0382437D01*
X0628350Y0381439D02*
X0624500Y0381439D01*
X0624500Y0391424D02*
X0628350Y0391424D01*
X0628350Y0392422D02*
X0623942Y0392422D01*
X0622943Y0393421D02*
X0628350Y0393421D01*
X0628350Y0394419D02*
X0621945Y0394419D01*
X0624500Y0401409D02*
X0628350Y0401409D01*
X0628350Y0402408D02*
X0623956Y0402408D01*
X0622958Y0403406D02*
X0628350Y0403406D01*
X0628350Y0416387D02*
X0622121Y0416387D01*
X0623254Y0417385D02*
X0628350Y0417385D01*
X0628350Y0418384D02*
X0623822Y0418384D01*
X0624150Y0419382D02*
X0628350Y0419382D01*
X0628350Y0420381D02*
X0624150Y0420381D01*
X0623921Y0421379D02*
X0628350Y0421379D01*
X0628350Y0422378D02*
X0623491Y0422378D01*
X0622493Y0423376D02*
X0628350Y0423376D01*
X0628350Y0424375D02*
X0616090Y0424375D01*
X0615092Y0425373D02*
X0628350Y0425373D01*
X0628350Y0426372D02*
X0614093Y0426372D01*
X0612599Y0427370D02*
X0628350Y0427370D01*
X0628350Y0428369D02*
X0563917Y0428369D01*
X0562918Y0429367D02*
X0628350Y0429367D01*
X0628350Y0430366D02*
X0561920Y0430366D01*
X0561250Y0431364D02*
X0628350Y0431364D01*
X0628350Y0432363D02*
X0561250Y0432363D01*
X0561250Y0433361D02*
X0628350Y0433361D01*
X0628350Y0434360D02*
X0628013Y0434360D01*
X0622861Y0434360D02*
X0621893Y0434360D01*
X0621893Y0434327D02*
X0616865Y0434327D01*
X0616483Y0434429D01*
X0616141Y0434626D01*
X0615862Y0434906D01*
X0615664Y0435248D01*
X0615562Y0435629D01*
X0615562Y0437311D01*
X0621893Y0437311D01*
X0621893Y0434327D01*
X0621893Y0435358D02*
X0622861Y0435358D01*
X0622861Y0436357D02*
X0621893Y0436357D01*
X0621893Y0437355D02*
X0561250Y0437355D01*
X0561250Y0436357D02*
X0615562Y0436357D01*
X0615635Y0435358D02*
X0561250Y0435358D01*
X0561250Y0434360D02*
X0616741Y0434360D01*
X0615562Y0438354D02*
X0561250Y0438354D01*
X0561250Y0439352D02*
X0615562Y0439352D01*
X0615669Y0440351D02*
X0561250Y0440351D01*
X0561250Y0441349D02*
X0628350Y0441349D01*
X0628350Y0442348D02*
X0561250Y0442348D01*
X0561250Y0443346D02*
X0605145Y0443346D01*
X0605132Y0444345D02*
X0561250Y0444345D01*
X0561250Y0445343D02*
X0605132Y0445343D01*
X0605132Y0446342D02*
X0561250Y0446342D01*
X0561250Y0447341D02*
X0605674Y0447341D01*
X0605132Y0453332D02*
X0471000Y0453332D01*
X0471000Y0454330D02*
X0605132Y0454330D01*
X0605132Y0455329D02*
X0471000Y0455329D01*
X0471000Y0452333D02*
X0557617Y0452333D01*
X0559883Y0452333D02*
X0590117Y0452333D01*
X0589001Y0451335D02*
X0560999Y0451335D01*
X0561339Y0450336D02*
X0588661Y0450336D01*
X0588722Y0449338D02*
X0561278Y0449338D01*
X0561250Y0448339D02*
X0589250Y0448339D01*
X0586509Y0422378D02*
X0583491Y0422378D01*
X0583921Y0421379D02*
X0586079Y0421379D01*
X0585850Y0420381D02*
X0584150Y0420381D01*
X0584150Y0419382D02*
X0585850Y0419382D01*
X0586178Y0418384D02*
X0583822Y0418384D01*
X0583254Y0417385D02*
X0586746Y0417385D01*
X0587879Y0416387D02*
X0582121Y0416387D01*
X0577879Y0416387D02*
X0572121Y0416387D01*
X0573254Y0417385D02*
X0576746Y0417385D01*
X0576178Y0418384D02*
X0573822Y0418384D01*
X0574150Y0419382D02*
X0575850Y0419382D01*
X0575850Y0420381D02*
X0574150Y0420381D01*
X0573921Y0421379D02*
X0576079Y0421379D01*
X0576509Y0422378D02*
X0573491Y0422378D01*
X0566509Y0422378D02*
X0564432Y0422378D01*
X0563921Y0421379D02*
X0566079Y0421379D01*
X0565850Y0420381D02*
X0564150Y0420381D01*
X0564150Y0419382D02*
X0565850Y0419382D01*
X0566178Y0418384D02*
X0563822Y0418384D01*
X0563254Y0417385D02*
X0566746Y0417385D01*
X0567879Y0416387D02*
X0562121Y0416387D01*
X0557879Y0416387D02*
X0552121Y0416387D01*
X0553254Y0417385D02*
X0556746Y0417385D01*
X0556178Y0418384D02*
X0553822Y0418384D01*
X0554150Y0419382D02*
X0555850Y0419382D01*
X0555850Y0420381D02*
X0554150Y0420381D01*
X0553921Y0421379D02*
X0556079Y0421379D01*
X0556509Y0422378D02*
X0553491Y0422378D01*
X0552493Y0423376D02*
X0557507Y0423376D01*
X0544935Y0422378D02*
X0543491Y0422378D01*
X0543937Y0423376D02*
X0542493Y0423376D01*
X0542938Y0424375D02*
X0538312Y0424375D01*
X0537314Y0425373D02*
X0541940Y0425373D01*
X0540941Y0426372D02*
X0536315Y0426372D01*
X0535317Y0427370D02*
X0539943Y0427370D01*
X0538944Y0428369D02*
X0534318Y0428369D01*
X0533320Y0429367D02*
X0537946Y0429367D01*
X0536947Y0430366D02*
X0532321Y0430366D01*
X0531323Y0431364D02*
X0535949Y0431364D01*
X0534950Y0432363D02*
X0530324Y0432363D01*
X0529326Y0433361D02*
X0533952Y0433361D01*
X0532953Y0434360D02*
X0528327Y0434360D01*
X0527329Y0435358D02*
X0531955Y0435358D01*
X0530956Y0436357D02*
X0526900Y0436357D01*
X0526900Y0437355D02*
X0529958Y0437355D01*
X0527985Y0438354D02*
X0527015Y0438354D01*
X0527243Y0441349D02*
X0527757Y0441349D01*
X0528903Y0442348D02*
X0526097Y0442348D01*
X0523903Y0442348D02*
X0431650Y0442348D01*
X0431650Y0441349D02*
X0522757Y0441349D01*
X0520825Y0424150D02*
X0519175Y0424150D01*
X0517649Y0423518D01*
X0516482Y0422351D01*
X0515850Y0420825D01*
X0515850Y0419175D01*
X0516482Y0417649D01*
X0517649Y0416482D01*
X0519175Y0415850D01*
X0520825Y0415850D01*
X0522351Y0416482D01*
X0523518Y0417649D01*
X0524150Y0419175D01*
X0524150Y0420825D01*
X0523518Y0422351D01*
X0522351Y0423518D01*
X0520825Y0424150D01*
X0522493Y0423376D02*
X0527507Y0423376D01*
X0526509Y0422378D02*
X0523491Y0422378D01*
X0523921Y0421379D02*
X0526079Y0421379D01*
X0525850Y0420381D02*
X0524150Y0420381D01*
X0524150Y0419382D02*
X0525850Y0419382D01*
X0526178Y0418384D02*
X0523822Y0418384D01*
X0523254Y0417385D02*
X0526746Y0417385D01*
X0527879Y0416387D02*
X0522121Y0416387D01*
X0517879Y0416387D02*
X0512121Y0416387D01*
X0512351Y0416482D02*
X0513518Y0417649D01*
X0514150Y0419175D01*
X0514150Y0420825D01*
X0513518Y0422351D01*
X0512351Y0423518D01*
X0510825Y0424150D01*
X0509175Y0424150D01*
X0507649Y0423518D01*
X0506482Y0422351D01*
X0505850Y0420825D01*
X0505850Y0419175D01*
X0506482Y0417649D01*
X0507649Y0416482D01*
X0509175Y0415850D01*
X0510825Y0415850D01*
X0512351Y0416482D01*
X0513254Y0417385D02*
X0516746Y0417385D01*
X0516178Y0418384D02*
X0513822Y0418384D01*
X0514150Y0419382D02*
X0515850Y0419382D01*
X0515850Y0420381D02*
X0514150Y0420381D01*
X0513921Y0421379D02*
X0516079Y0421379D01*
X0516509Y0422378D02*
X0513491Y0422378D01*
X0512493Y0423376D02*
X0517507Y0423376D01*
X0507507Y0423376D02*
X0502493Y0423376D01*
X0503491Y0422378D02*
X0506509Y0422378D01*
X0506079Y0421379D02*
X0503921Y0421379D01*
X0504150Y0420381D02*
X0505850Y0420381D01*
X0505850Y0419382D02*
X0504150Y0419382D01*
X0503822Y0418384D02*
X0506178Y0418384D01*
X0506746Y0417385D02*
X0503254Y0417385D01*
X0502121Y0416387D02*
X0507879Y0416387D01*
X0470500Y0384434D02*
X0469500Y0384434D01*
X0469500Y0383436D02*
X0470500Y0383436D01*
X0470500Y0382437D02*
X0469500Y0382437D01*
X0469500Y0381439D02*
X0470500Y0381439D01*
X0472803Y0381439D02*
X0473700Y0381439D01*
X0473700Y0378443D02*
X0465000Y0378443D01*
X0465000Y0377445D02*
X0473700Y0377445D01*
X0473700Y0378443D02*
X0472921Y0378443D01*
X0467079Y0378443D02*
X0431650Y0378443D01*
X0431650Y0377445D02*
X0466081Y0377445D01*
X0466184Y0372452D02*
X0431650Y0372452D01*
X0431650Y0371454D02*
X0467182Y0371454D01*
X0486300Y0348488D02*
X0487407Y0348488D01*
X0486408Y0347489D02*
X0486300Y0347489D01*
X0486300Y0338503D02*
X0487422Y0338503D01*
X0486423Y0337504D02*
X0486300Y0337504D01*
X0492578Y0338503D02*
X0512422Y0338503D01*
X0513219Y0339300D02*
X0510700Y0336781D01*
X0510700Y0333219D01*
X0513219Y0330700D01*
X0516781Y0330700D01*
X0519300Y0333219D01*
X0519300Y0336781D01*
X0516781Y0339300D01*
X0513219Y0339300D01*
X0511423Y0337504D02*
X0493577Y0337504D01*
X0494300Y0336506D02*
X0510700Y0336506D01*
X0510700Y0335507D02*
X0494300Y0335507D01*
X0494300Y0334509D02*
X0510700Y0334509D01*
X0510700Y0333510D02*
X0494300Y0333510D01*
X0493593Y0332512D02*
X0511407Y0332512D01*
X0512406Y0331513D02*
X0492594Y0331513D01*
X0492563Y0328518D02*
X0512437Y0328518D01*
X0513219Y0329300D02*
X0510700Y0326781D01*
X0510700Y0323219D01*
X0513219Y0320700D01*
X0516781Y0320700D01*
X0519300Y0323219D01*
X0519300Y0326781D01*
X0516781Y0329300D01*
X0513219Y0329300D01*
X0511438Y0327519D02*
X0493562Y0327519D01*
X0494300Y0326521D02*
X0510700Y0326521D01*
X0510700Y0325522D02*
X0494300Y0325522D01*
X0494300Y0324524D02*
X0510700Y0324524D01*
X0510700Y0323525D02*
X0494300Y0323525D01*
X0493608Y0322527D02*
X0511392Y0322527D01*
X0512391Y0321528D02*
X0492609Y0321528D01*
X0486438Y0327519D02*
X0486300Y0327519D01*
X0486300Y0328518D02*
X0487437Y0328518D01*
X0517563Y0328518D02*
X0522437Y0328518D01*
X0523219Y0329300D02*
X0520700Y0326781D01*
X0520700Y0323219D01*
X0523219Y0320700D01*
X0526781Y0320700D01*
X0529300Y0323219D01*
X0529300Y0326781D01*
X0526781Y0329300D01*
X0523219Y0329300D01*
X0523219Y0330700D02*
X0526781Y0330700D01*
X0529300Y0333219D01*
X0529300Y0336781D01*
X0526781Y0339300D01*
X0523219Y0339300D01*
X0520700Y0336781D01*
X0520700Y0333219D01*
X0523219Y0330700D01*
X0522406Y0331513D02*
X0517594Y0331513D01*
X0518593Y0332512D02*
X0521407Y0332512D01*
X0520700Y0333510D02*
X0519300Y0333510D01*
X0519300Y0334509D02*
X0520700Y0334509D01*
X0520700Y0335507D02*
X0519300Y0335507D01*
X0519300Y0336506D02*
X0520700Y0336506D01*
X0521423Y0337504D02*
X0518577Y0337504D01*
X0517578Y0338503D02*
X0522422Y0338503D01*
X0527578Y0338503D02*
X0532422Y0338503D01*
X0533219Y0339300D02*
X0530700Y0336781D01*
X0530700Y0333219D01*
X0533219Y0330700D01*
X0536781Y0330700D01*
X0539300Y0333219D01*
X0539300Y0336781D01*
X0536781Y0339300D01*
X0533219Y0339300D01*
X0531423Y0337504D02*
X0528577Y0337504D01*
X0529300Y0336506D02*
X0530700Y0336506D01*
X0530700Y0335507D02*
X0529300Y0335507D01*
X0529300Y0334509D02*
X0530700Y0334509D01*
X0530700Y0333510D02*
X0529300Y0333510D01*
X0528593Y0332512D02*
X0531407Y0332512D01*
X0532406Y0331513D02*
X0527594Y0331513D01*
X0527563Y0328518D02*
X0532437Y0328518D01*
X0533219Y0329300D02*
X0530700Y0326781D01*
X0530700Y0323219D01*
X0533219Y0320700D01*
X0536781Y0320700D01*
X0539300Y0323219D01*
X0539300Y0326781D01*
X0536781Y0329300D01*
X0533219Y0329300D01*
X0531438Y0327519D02*
X0528562Y0327519D01*
X0529300Y0326521D02*
X0530700Y0326521D01*
X0530700Y0325522D02*
X0529300Y0325522D01*
X0529300Y0324524D02*
X0530700Y0324524D01*
X0530700Y0323525D02*
X0529300Y0323525D01*
X0528608Y0322527D02*
X0531392Y0322527D01*
X0532391Y0321528D02*
X0527609Y0321528D01*
X0522391Y0321528D02*
X0517609Y0321528D01*
X0518608Y0322527D02*
X0521392Y0322527D01*
X0520700Y0323525D02*
X0519300Y0323525D01*
X0519300Y0324524D02*
X0520700Y0324524D01*
X0520700Y0325522D02*
X0519300Y0325522D01*
X0519300Y0326521D02*
X0520700Y0326521D01*
X0521438Y0327519D02*
X0518562Y0327519D01*
X0537563Y0328518D02*
X0542437Y0328518D01*
X0543219Y0329300D02*
X0540700Y0326781D01*
X0540700Y0323219D01*
X0543219Y0320700D01*
X0546781Y0320700D01*
X0549300Y0323219D01*
X0549300Y0326781D01*
X0546781Y0329300D01*
X0543219Y0329300D01*
X0543219Y0330700D02*
X0546781Y0330700D01*
X0549300Y0333219D01*
X0549300Y0336781D01*
X0546781Y0339300D01*
X0543219Y0339300D01*
X0540700Y0336781D01*
X0540700Y0333219D01*
X0543219Y0330700D01*
X0542406Y0331513D02*
X0537594Y0331513D01*
X0538593Y0332512D02*
X0541407Y0332512D01*
X0540700Y0333510D02*
X0539300Y0333510D01*
X0539300Y0334509D02*
X0540700Y0334509D01*
X0540700Y0335507D02*
X0539300Y0335507D01*
X0539300Y0336506D02*
X0540700Y0336506D01*
X0541423Y0337504D02*
X0538577Y0337504D01*
X0537578Y0338503D02*
X0542422Y0338503D01*
X0547578Y0338503D02*
X0552422Y0338503D01*
X0551423Y0337504D02*
X0548577Y0337504D01*
X0549300Y0336506D02*
X0550700Y0336506D01*
X0550700Y0335507D02*
X0549300Y0335507D01*
X0549300Y0334509D02*
X0550700Y0334509D01*
X0550700Y0333510D02*
X0549300Y0333510D01*
X0548593Y0332512D02*
X0551407Y0332512D01*
X0552406Y0331513D02*
X0547594Y0331513D01*
X0547563Y0328518D02*
X0552437Y0328518D01*
X0551438Y0327519D02*
X0548562Y0327519D01*
X0549300Y0326521D02*
X0550700Y0326521D01*
X0550700Y0325522D02*
X0549300Y0325522D01*
X0549300Y0324524D02*
X0550700Y0324524D01*
X0550700Y0323525D02*
X0549300Y0323525D01*
X0548608Y0322527D02*
X0551392Y0322527D01*
X0552391Y0321528D02*
X0547609Y0321528D01*
X0542391Y0321528D02*
X0537609Y0321528D01*
X0538608Y0322527D02*
X0541392Y0322527D01*
X0540700Y0323525D02*
X0539300Y0323525D01*
X0539300Y0324524D02*
X0540700Y0324524D01*
X0540700Y0325522D02*
X0539300Y0325522D01*
X0539300Y0326521D02*
X0540700Y0326521D01*
X0541438Y0327519D02*
X0538562Y0327519D01*
X0568608Y0322527D02*
X0581109Y0322527D01*
X0580500Y0323525D02*
X0569300Y0323525D01*
X0587594Y0331513D02*
X0592406Y0331513D01*
X0591407Y0332512D02*
X0588593Y0332512D01*
X0589300Y0333510D02*
X0590700Y0333510D01*
X0590700Y0334509D02*
X0589300Y0334509D01*
X0589300Y0335507D02*
X0590700Y0335507D01*
X0590700Y0336506D02*
X0589300Y0336506D01*
X0588577Y0337504D02*
X0591423Y0337504D01*
X0592422Y0338503D02*
X0587578Y0338503D01*
X0557584Y0361469D02*
X0557193Y0361469D01*
X0592121Y0416387D02*
X0597879Y0416387D01*
X0596746Y0417385D02*
X0593254Y0417385D01*
X0593822Y0418384D02*
X0596178Y0418384D01*
X0595850Y0419382D02*
X0594150Y0419382D01*
X0594150Y0420381D02*
X0595850Y0420381D01*
X0596079Y0421379D02*
X0593921Y0421379D01*
X0593491Y0422378D02*
X0596509Y0422378D01*
X0603491Y0422378D02*
X0606509Y0422378D01*
X0606079Y0421379D02*
X0603921Y0421379D01*
X0604150Y0420381D02*
X0605850Y0420381D01*
X0605850Y0419382D02*
X0604150Y0419382D01*
X0603822Y0418384D02*
X0606178Y0418384D01*
X0606746Y0417385D02*
X0603254Y0417385D01*
X0602121Y0416387D02*
X0607879Y0416387D01*
X0612121Y0416387D02*
X0617879Y0416387D01*
X0616746Y0417385D02*
X0613254Y0417385D01*
X0613822Y0418384D02*
X0615010Y0418384D01*
X0617089Y0423376D02*
X0617507Y0423376D01*
X0621893Y0438354D02*
X0622861Y0438354D01*
X0622861Y0439352D02*
X0621893Y0439352D01*
X0621893Y0440351D02*
X0622861Y0440351D01*
X0628350Y0443346D02*
X0616882Y0443346D01*
X0617881Y0444345D02*
X0628350Y0444345D01*
X0628350Y0445343D02*
X0618580Y0445343D01*
X0618750Y0446342D02*
X0628350Y0446342D01*
X0628350Y0447341D02*
X0618750Y0447341D01*
X0622000Y0448339D02*
X0628350Y0448339D01*
X0628350Y0449338D02*
X0622528Y0449338D01*
X0622589Y0450336D02*
X0628350Y0450336D01*
X0628350Y0451335D02*
X0622500Y0451335D01*
X0622500Y0452333D02*
X0628350Y0452333D01*
X0628350Y0453332D02*
X0622500Y0453332D01*
X0622466Y0454330D02*
X0628350Y0454330D01*
X0628350Y0455329D02*
X0621957Y0455329D01*
X0620958Y0456327D02*
X0628350Y0456327D01*
X0622861Y0459323D02*
X0621893Y0459323D01*
X0621893Y0460321D02*
X0622861Y0460321D01*
X0622861Y0461320D02*
X0621893Y0461320D01*
X0621893Y0463317D02*
X0622861Y0463317D01*
X0622861Y0464315D02*
X0621893Y0464315D01*
X0621893Y0465314D02*
X0622861Y0465314D01*
X0628350Y0466312D02*
X0431650Y0466312D01*
X0431650Y0465314D02*
X0616081Y0465314D01*
X0615562Y0464315D02*
X0431650Y0464315D01*
X0431650Y0463317D02*
X0615562Y0463317D01*
X0628350Y0467311D02*
X0431650Y0467311D01*
X0431650Y0468309D02*
X0488155Y0468309D01*
X0487881Y0468584D02*
X0488584Y0467881D01*
X0489503Y0467500D01*
X0519270Y0467500D01*
X0519485Y0467411D01*
X0520515Y0467411D01*
X0521467Y0467805D01*
X0522195Y0468533D01*
X0522589Y0469485D01*
X0522589Y0470515D01*
X0522195Y0471467D01*
X0521467Y0472195D01*
X0520515Y0472589D01*
X0519485Y0472589D01*
X0519270Y0472500D01*
X0491036Y0472500D01*
X0487500Y0476036D01*
X0487500Y0476631D01*
X0487649Y0476482D01*
X0489175Y0475850D01*
X0490825Y0475850D01*
X0492351Y0476482D01*
X0493518Y0477649D01*
X0494150Y0479175D01*
X0494150Y0480825D01*
X0493518Y0482351D01*
X0492351Y0483518D01*
X0490825Y0484150D01*
X0489175Y0484150D01*
X0487649Y0483518D01*
X0487500Y0483369D01*
X0487500Y0484270D01*
X0487589Y0484485D01*
X0487589Y0485515D01*
X0487195Y0486467D01*
X0486467Y0487195D01*
X0485515Y0487589D01*
X0484485Y0487589D01*
X0483533Y0487195D01*
X0482805Y0486467D01*
X0482411Y0485515D01*
X0482411Y0484485D01*
X0482500Y0484270D01*
X0482500Y0474503D01*
X0482881Y0473584D01*
X0483584Y0472881D01*
X0487881Y0468584D01*
X0487881Y0468584D01*
X0487157Y0469308D02*
X0431650Y0469308D01*
X0431650Y0470306D02*
X0486158Y0470306D01*
X0485160Y0471305D02*
X0431650Y0471305D01*
X0431650Y0472303D02*
X0484161Y0472303D01*
X0483163Y0473302D02*
X0431650Y0473302D01*
X0431650Y0474300D02*
X0482584Y0474300D01*
X0482500Y0475299D02*
X0431650Y0475299D01*
X0431650Y0476297D02*
X0482500Y0476297D01*
X0482500Y0477296D02*
X0431650Y0477296D01*
X0431650Y0478294D02*
X0482500Y0478294D01*
X0482500Y0479293D02*
X0431650Y0479293D01*
X0431650Y0480291D02*
X0482500Y0480291D01*
X0482500Y0481290D02*
X0431650Y0481290D01*
X0431650Y0482288D02*
X0482500Y0482288D01*
X0482500Y0483287D02*
X0431650Y0483287D01*
X0431650Y0484285D02*
X0482494Y0484285D01*
X0482411Y0485284D02*
X0431650Y0485284D01*
X0431650Y0486282D02*
X0482729Y0486282D01*
X0483741Y0487281D02*
X0431650Y0487281D01*
X0431650Y0488279D02*
X0628350Y0488279D01*
X0628350Y0487281D02*
X0486259Y0487281D01*
X0487271Y0486282D02*
X0628350Y0486282D01*
X0628350Y0485284D02*
X0487589Y0485284D01*
X0487506Y0484285D02*
X0619250Y0484285D01*
X0618981Y0484243D02*
X0618330Y0484031D01*
X0617720Y0483720D01*
X0617166Y0483318D01*
X0616682Y0482834D01*
X0616280Y0482280D01*
X0615969Y0481670D01*
X0615757Y0481019D01*
X0615667Y0480450D01*
X0619550Y0480450D01*
X0619550Y0484333D01*
X0618981Y0484243D01*
X0619550Y0484285D02*
X0620450Y0484285D01*
X0620450Y0484333D02*
X0620450Y0480450D01*
X0619550Y0480450D01*
X0619550Y0479550D01*
X0615667Y0479550D01*
X0615757Y0478981D01*
X0615969Y0478330D01*
X0616280Y0477720D01*
X0616682Y0477166D01*
X0617166Y0476682D01*
X0617720Y0476280D01*
X0618330Y0475969D01*
X0618981Y0475757D01*
X0619550Y0475667D01*
X0619550Y0479550D01*
X0620450Y0479550D01*
X0620450Y0480450D01*
X0624333Y0480450D01*
X0624243Y0481019D01*
X0624031Y0481670D01*
X0623720Y0482280D01*
X0623318Y0482834D01*
X0622834Y0483318D01*
X0622280Y0483720D01*
X0621670Y0484031D01*
X0621019Y0484243D01*
X0620450Y0484333D01*
X0620750Y0484285D02*
X0628350Y0484285D01*
X0628350Y0483287D02*
X0622865Y0483287D01*
X0623714Y0482288D02*
X0628350Y0482288D01*
X0628350Y0481290D02*
X0624155Y0481290D01*
X0624333Y0479550D02*
X0620450Y0479550D01*
X0620450Y0475667D01*
X0621019Y0475757D01*
X0621670Y0475969D01*
X0622280Y0476280D01*
X0622834Y0476682D01*
X0623318Y0477166D01*
X0623720Y0477720D01*
X0624031Y0478330D01*
X0624243Y0478981D01*
X0624333Y0479550D01*
X0624292Y0479293D02*
X0628350Y0479293D01*
X0628350Y0480291D02*
X0620450Y0480291D01*
X0619550Y0480291D02*
X0614150Y0480291D01*
X0614150Y0480825D02*
X0613518Y0482351D01*
X0612351Y0483518D01*
X0610825Y0484150D01*
X0609175Y0484150D01*
X0607649Y0483518D01*
X0606482Y0482351D01*
X0605850Y0480825D01*
X0605850Y0479175D01*
X0606482Y0477649D01*
X0607649Y0476482D01*
X0609175Y0475850D01*
X0610825Y0475850D01*
X0612351Y0476482D01*
X0613518Y0477649D01*
X0614150Y0479175D01*
X0614150Y0480825D01*
X0613958Y0481290D02*
X0615845Y0481290D01*
X0616286Y0482288D02*
X0613544Y0482288D01*
X0612582Y0483287D02*
X0617135Y0483287D01*
X0619550Y0483287D02*
X0620450Y0483287D01*
X0620450Y0482288D02*
X0619550Y0482288D01*
X0619550Y0481290D02*
X0620450Y0481290D01*
X0620450Y0479293D02*
X0619550Y0479293D01*
X0619550Y0478294D02*
X0620450Y0478294D01*
X0620450Y0477296D02*
X0619550Y0477296D01*
X0619550Y0476297D02*
X0620450Y0476297D01*
X0622304Y0476297D02*
X0628350Y0476297D01*
X0628350Y0475299D02*
X0488237Y0475299D01*
X0488095Y0476297D02*
X0487500Y0476297D01*
X0489235Y0474300D02*
X0628350Y0474300D01*
X0628350Y0473302D02*
X0490234Y0473302D01*
X0491905Y0476297D02*
X0498095Y0476297D01*
X0497649Y0476482D02*
X0499175Y0475850D01*
X0500825Y0475850D01*
X0502351Y0476482D01*
X0503518Y0477649D01*
X0504150Y0479175D01*
X0504150Y0480825D01*
X0503518Y0482351D01*
X0502351Y0483518D01*
X0500825Y0484150D01*
X0499175Y0484150D01*
X0497649Y0483518D01*
X0496482Y0482351D01*
X0495850Y0480825D01*
X0495850Y0479175D01*
X0496482Y0477649D01*
X0497649Y0476482D01*
X0496835Y0477296D02*
X0493165Y0477296D01*
X0493785Y0478294D02*
X0496215Y0478294D01*
X0495850Y0479293D02*
X0494150Y0479293D01*
X0494150Y0480291D02*
X0495850Y0480291D01*
X0496042Y0481290D02*
X0493958Y0481290D01*
X0493544Y0482288D02*
X0496456Y0482288D01*
X0497418Y0483287D02*
X0492582Y0483287D01*
X0502582Y0483287D02*
X0507418Y0483287D01*
X0507649Y0483518D02*
X0506482Y0482351D01*
X0505850Y0480825D01*
X0505850Y0479175D01*
X0506482Y0477649D01*
X0507649Y0476482D01*
X0509175Y0475850D01*
X0510825Y0475850D01*
X0512351Y0476482D01*
X0513518Y0477649D01*
X0514150Y0479175D01*
X0514150Y0480825D01*
X0513518Y0482351D01*
X0512351Y0483518D01*
X0510825Y0484150D01*
X0509175Y0484150D01*
X0507649Y0483518D01*
X0506456Y0482288D02*
X0503544Y0482288D01*
X0503958Y0481290D02*
X0506042Y0481290D01*
X0505850Y0480291D02*
X0504150Y0480291D01*
X0504150Y0479293D02*
X0505850Y0479293D01*
X0506215Y0478294D02*
X0503785Y0478294D01*
X0503165Y0477296D02*
X0506835Y0477296D01*
X0508095Y0476297D02*
X0501905Y0476297D01*
X0511905Y0476297D02*
X0518095Y0476297D01*
X0517649Y0476482D02*
X0519175Y0475850D01*
X0520825Y0475850D01*
X0522351Y0476482D01*
X0523518Y0477649D01*
X0524150Y0479175D01*
X0524150Y0480825D01*
X0523518Y0482351D01*
X0522351Y0483518D01*
X0520825Y0484150D01*
X0519175Y0484150D01*
X0517649Y0483518D01*
X0516482Y0482351D01*
X0515850Y0480825D01*
X0515850Y0479175D01*
X0516482Y0477649D01*
X0517649Y0476482D01*
X0516835Y0477296D02*
X0513165Y0477296D01*
X0513785Y0478294D02*
X0516215Y0478294D01*
X0515850Y0479293D02*
X0514150Y0479293D01*
X0514150Y0480291D02*
X0515850Y0480291D01*
X0516042Y0481290D02*
X0513958Y0481290D01*
X0513544Y0482288D02*
X0516456Y0482288D01*
X0517418Y0483287D02*
X0512582Y0483287D01*
X0513219Y0493200D02*
X0516781Y0493200D01*
X0519300Y0495719D01*
X0519300Y0499281D01*
X0518381Y0500200D01*
X0521619Y0500200D01*
X0520700Y0499281D01*
X0520700Y0495719D01*
X0523219Y0493200D01*
X0526781Y0493200D01*
X0529300Y0495719D01*
X0529300Y0499281D01*
X0528381Y0500200D01*
X0555297Y0500200D01*
X0555958Y0499539D01*
X0555700Y0499281D01*
X0555700Y0495719D01*
X0558219Y0493200D01*
X0561781Y0493200D01*
X0564300Y0495719D01*
X0564300Y0499281D01*
X0562900Y0500681D01*
X0562900Y0504319D01*
X0564300Y0505719D01*
X0564300Y0509281D01*
X0561781Y0511800D01*
X0558219Y0511800D01*
X0555700Y0509281D01*
X0555700Y0505719D01*
X0555958Y0505461D01*
X0555297Y0504800D01*
X0528381Y0504800D01*
X0529300Y0505719D01*
X0529300Y0509281D01*
X0526781Y0511800D01*
X0523219Y0511800D01*
X0520700Y0509281D01*
X0520700Y0505719D01*
X0521619Y0504800D01*
X0518381Y0504800D01*
X0519300Y0505719D01*
X0519300Y0509281D01*
X0516781Y0511800D01*
X0513219Y0511800D01*
X0510700Y0509281D01*
X0510700Y0505719D01*
X0511619Y0504800D01*
X0510297Y0504800D01*
X0508950Y0503453D01*
X0507039Y0501542D01*
X0506781Y0501800D01*
X0503219Y0501800D01*
X0500700Y0499281D01*
X0500700Y0495719D01*
X0503219Y0493200D01*
X0506781Y0493200D01*
X0509300Y0495719D01*
X0509300Y0497297D01*
X0510700Y0498697D01*
X0510700Y0495719D01*
X0513219Y0493200D01*
X0513147Y0493272D02*
X0506853Y0493272D01*
X0507852Y0494271D02*
X0512148Y0494271D01*
X0511150Y0495269D02*
X0508850Y0495269D01*
X0509300Y0496268D02*
X0510700Y0496268D01*
X0510700Y0497266D02*
X0509300Y0497266D01*
X0510267Y0498265D02*
X0510700Y0498265D01*
X0507756Y0502259D02*
X0452940Y0502259D01*
X0453200Y0501631D02*
X0451952Y0504645D01*
X0449645Y0506952D01*
X0446631Y0508200D01*
X0443369Y0508200D01*
X0440355Y0506952D01*
X0438048Y0504645D01*
X0438048Y0504645D01*
X0436800Y0501631D01*
X0436800Y0498369D01*
X0438048Y0495355D01*
X0440355Y0493048D01*
X0443369Y0491800D01*
X0445373Y0491800D01*
X0446631Y0491800D01*
X0446631Y0491800D01*
X0449645Y0493048D01*
X0451952Y0495355D01*
X0453200Y0498369D01*
X0453200Y0501631D01*
X0453200Y0501260D02*
X0502679Y0501260D01*
X0501681Y0500262D02*
X0453200Y0500262D01*
X0453200Y0499263D02*
X0500700Y0499263D01*
X0500700Y0498265D02*
X0453157Y0498265D01*
X0452743Y0497266D02*
X0500700Y0497266D01*
X0500700Y0496268D02*
X0452330Y0496268D01*
X0451952Y0495355D02*
X0451952Y0495355D01*
X0451866Y0495269D02*
X0501150Y0495269D01*
X0502148Y0494271D02*
X0450867Y0494271D01*
X0449869Y0493272D02*
X0503147Y0493272D01*
X0503219Y0503200D02*
X0506781Y0503200D01*
X0509300Y0505719D01*
X0509300Y0509281D01*
X0506781Y0511800D01*
X0503219Y0511800D01*
X0500700Y0509281D01*
X0500700Y0505719D01*
X0503219Y0503200D01*
X0503162Y0503257D02*
X0452526Y0503257D01*
X0452113Y0504256D02*
X0502163Y0504256D01*
X0501165Y0505254D02*
X0451342Y0505254D01*
X0451952Y0504645D02*
X0451952Y0504645D01*
X0450344Y0506253D02*
X0500700Y0506253D01*
X0500700Y0507251D02*
X0448922Y0507251D01*
X0449645Y0506952D02*
X0449645Y0506952D01*
X0441078Y0507251D02*
X0431650Y0507251D01*
X0431650Y0506253D02*
X0439656Y0506253D01*
X0440355Y0506952D02*
X0440355Y0506952D01*
X0438658Y0505254D02*
X0431650Y0505254D01*
X0431650Y0504256D02*
X0437887Y0504256D01*
X0437474Y0503257D02*
X0431650Y0503257D01*
X0431650Y0502259D02*
X0437060Y0502259D01*
X0436800Y0501260D02*
X0431650Y0501260D01*
X0431650Y0500262D02*
X0436800Y0500262D01*
X0436800Y0499263D02*
X0431650Y0499263D01*
X0431650Y0498265D02*
X0436843Y0498265D01*
X0437257Y0497266D02*
X0431650Y0497266D01*
X0431650Y0496268D02*
X0437670Y0496268D01*
X0438048Y0495355D02*
X0438048Y0495355D01*
X0438134Y0495269D02*
X0431650Y0495269D01*
X0431650Y0494271D02*
X0439133Y0494271D01*
X0440131Y0493272D02*
X0431650Y0493272D01*
X0431650Y0492274D02*
X0442226Y0492274D01*
X0440355Y0493048D02*
X0440355Y0493048D01*
X0447774Y0492274D02*
X0612226Y0492274D01*
X0613369Y0491800D02*
X0614627Y0491800D01*
X0616631Y0491800D01*
X0619645Y0493048D01*
X0621952Y0495355D01*
X0623200Y0498369D01*
X0623200Y0501631D01*
X0621952Y0504645D01*
X0619645Y0506952D01*
X0616631Y0508200D01*
X0613369Y0508200D01*
X0610355Y0506952D01*
X0608048Y0504645D01*
X0608048Y0504645D01*
X0606800Y0501631D01*
X0606800Y0498369D01*
X0608048Y0495355D01*
X0610355Y0493048D01*
X0613369Y0491800D01*
X0610355Y0493048D02*
X0610355Y0493048D01*
X0610131Y0493272D02*
X0592136Y0493272D01*
X0591864Y0493000D02*
X0594500Y0495636D01*
X0594500Y0497000D01*
X0590500Y0497000D01*
X0590500Y0498000D01*
X0594500Y0498000D01*
X0594500Y0499364D01*
X0591864Y0502000D01*
X0590500Y0502000D01*
X0590500Y0498000D01*
X0589500Y0498000D01*
X0589500Y0502000D01*
X0588136Y0502000D01*
X0585500Y0499364D01*
X0585500Y0498000D01*
X0589500Y0498000D01*
X0589500Y0497000D01*
X0590500Y0497000D01*
X0590500Y0493000D01*
X0591864Y0493000D01*
X0590500Y0493272D02*
X0589500Y0493272D01*
X0589500Y0493000D02*
X0589500Y0497000D01*
X0585500Y0497000D01*
X0585500Y0495636D01*
X0588136Y0493000D01*
X0589500Y0493000D01*
X0589500Y0494271D02*
X0590500Y0494271D01*
X0590500Y0495269D02*
X0589500Y0495269D01*
X0589500Y0496268D02*
X0590500Y0496268D01*
X0590500Y0497266D02*
X0607257Y0497266D01*
X0607670Y0496268D02*
X0594500Y0496268D01*
X0594133Y0495269D02*
X0608134Y0495269D01*
X0608048Y0495355D02*
X0608048Y0495355D01*
X0609133Y0494271D02*
X0593134Y0494271D01*
X0594500Y0498265D02*
X0606843Y0498265D01*
X0606800Y0499263D02*
X0594500Y0499263D01*
X0593602Y0500262D02*
X0606800Y0500262D01*
X0606800Y0501260D02*
X0592604Y0501260D01*
X0591864Y0503000D02*
X0594500Y0505636D01*
X0594500Y0507000D01*
X0590500Y0507000D01*
X0590500Y0508000D01*
X0594500Y0508000D01*
X0594500Y0509364D01*
X0591864Y0512000D01*
X0590500Y0512000D01*
X0590500Y0508000D01*
X0589500Y0508000D01*
X0589500Y0512000D01*
X0588136Y0512000D01*
X0585500Y0509364D01*
X0585500Y0508000D01*
X0589500Y0508000D01*
X0589500Y0507000D01*
X0590500Y0507000D01*
X0590500Y0503000D01*
X0591864Y0503000D01*
X0592121Y0503257D02*
X0607474Y0503257D01*
X0607887Y0504256D02*
X0593120Y0504256D01*
X0594118Y0505254D02*
X0608658Y0505254D01*
X0609656Y0506253D02*
X0594500Y0506253D01*
X0594500Y0508250D02*
X0628350Y0508250D01*
X0628350Y0509248D02*
X0594500Y0509248D01*
X0593617Y0510247D02*
X0628350Y0510247D01*
X0628350Y0511245D02*
X0592619Y0511245D01*
X0590500Y0511245D02*
X0589500Y0511245D01*
X0589500Y0510247D02*
X0590500Y0510247D01*
X0590500Y0509248D02*
X0589500Y0509248D01*
X0589500Y0508250D02*
X0590500Y0508250D01*
X0590500Y0507251D02*
X0611078Y0507251D01*
X0610355Y0506952D02*
X0610355Y0506952D01*
X0607060Y0502259D02*
X0582100Y0502259D01*
X0582100Y0501481D02*
X0582100Y0503519D01*
X0584300Y0505719D01*
X0584300Y0509281D01*
X0581781Y0511800D01*
X0578219Y0511800D01*
X0575700Y0509281D01*
X0575700Y0505719D01*
X0577900Y0503519D01*
X0577900Y0501481D01*
X0575700Y0499281D01*
X0575700Y0495719D01*
X0578219Y0493200D01*
X0581781Y0493200D01*
X0584300Y0495719D01*
X0584300Y0499281D01*
X0582100Y0501481D01*
X0582321Y0501260D02*
X0587396Y0501260D01*
X0586398Y0500262D02*
X0583319Y0500262D01*
X0584300Y0499263D02*
X0585500Y0499263D01*
X0585500Y0498265D02*
X0584300Y0498265D01*
X0584300Y0497266D02*
X0589500Y0497266D01*
X0589500Y0498265D02*
X0590500Y0498265D01*
X0590500Y0499263D02*
X0589500Y0499263D01*
X0589500Y0500262D02*
X0590500Y0500262D01*
X0590500Y0501260D02*
X0589500Y0501260D01*
X0589500Y0503000D02*
X0589500Y0507000D01*
X0585500Y0507000D01*
X0585500Y0505636D01*
X0588136Y0503000D01*
X0589500Y0503000D01*
X0589500Y0503257D02*
X0590500Y0503257D01*
X0590500Y0504256D02*
X0589500Y0504256D01*
X0589500Y0505254D02*
X0590500Y0505254D01*
X0590500Y0506253D02*
X0589500Y0506253D01*
X0589500Y0507251D02*
X0584300Y0507251D01*
X0584300Y0506253D02*
X0585500Y0506253D01*
X0585882Y0505254D02*
X0583835Y0505254D01*
X0582837Y0504256D02*
X0586880Y0504256D01*
X0587879Y0503257D02*
X0582100Y0503257D01*
X0577900Y0503257D02*
X0572100Y0503257D01*
X0572100Y0503519D02*
X0574300Y0505719D01*
X0574300Y0509281D01*
X0571781Y0511800D01*
X0568219Y0511800D01*
X0565700Y0509281D01*
X0565700Y0505719D01*
X0567900Y0503519D01*
X0567900Y0501481D01*
X0565700Y0499281D01*
X0565700Y0495719D01*
X0568219Y0493200D01*
X0571781Y0493200D01*
X0574300Y0495719D01*
X0574300Y0499281D01*
X0572100Y0501481D01*
X0572100Y0503519D01*
X0572837Y0504256D02*
X0577163Y0504256D01*
X0576165Y0505254D02*
X0573835Y0505254D01*
X0574300Y0506253D02*
X0575700Y0506253D01*
X0575700Y0507251D02*
X0574300Y0507251D01*
X0574300Y0508250D02*
X0575700Y0508250D01*
X0575700Y0509248D02*
X0574300Y0509248D01*
X0573334Y0510247D02*
X0576666Y0510247D01*
X0577664Y0511245D02*
X0572336Y0511245D01*
X0567664Y0511245D02*
X0562336Y0511245D01*
X0563334Y0510247D02*
X0566666Y0510247D01*
X0565700Y0509248D02*
X0564300Y0509248D01*
X0564300Y0508250D02*
X0565700Y0508250D01*
X0565700Y0507251D02*
X0564300Y0507251D01*
X0564300Y0506253D02*
X0565700Y0506253D01*
X0566165Y0505254D02*
X0563835Y0505254D01*
X0562900Y0504256D02*
X0567163Y0504256D01*
X0567900Y0503257D02*
X0562900Y0503257D01*
X0562900Y0502259D02*
X0567900Y0502259D01*
X0567679Y0501260D02*
X0562900Y0501260D01*
X0563319Y0500262D02*
X0566681Y0500262D01*
X0565700Y0499263D02*
X0564300Y0499263D01*
X0564300Y0498265D02*
X0565700Y0498265D01*
X0565700Y0497266D02*
X0564300Y0497266D01*
X0564300Y0496268D02*
X0565700Y0496268D01*
X0566150Y0495269D02*
X0563850Y0495269D01*
X0562852Y0494271D02*
X0567148Y0494271D01*
X0568147Y0493272D02*
X0561853Y0493272D01*
X0558147Y0493272D02*
X0526853Y0493272D01*
X0527852Y0494271D02*
X0557148Y0494271D01*
X0556150Y0495269D02*
X0528850Y0495269D01*
X0529300Y0496268D02*
X0555700Y0496268D01*
X0555700Y0497266D02*
X0529300Y0497266D01*
X0529300Y0498265D02*
X0555700Y0498265D01*
X0555700Y0499263D02*
X0529300Y0499263D01*
X0528835Y0505254D02*
X0555751Y0505254D01*
X0555700Y0506253D02*
X0529300Y0506253D01*
X0529300Y0507251D02*
X0555700Y0507251D01*
X0555700Y0508250D02*
X0529300Y0508250D01*
X0529300Y0509248D02*
X0555700Y0509248D01*
X0556666Y0510247D02*
X0528334Y0510247D01*
X0527336Y0511245D02*
X0557664Y0511245D01*
X0572100Y0502259D02*
X0577900Y0502259D01*
X0577679Y0501260D02*
X0572321Y0501260D01*
X0573319Y0500262D02*
X0576681Y0500262D01*
X0575700Y0499263D02*
X0574300Y0499263D01*
X0574300Y0498265D02*
X0575700Y0498265D01*
X0575700Y0497266D02*
X0574300Y0497266D01*
X0574300Y0496268D02*
X0575700Y0496268D01*
X0576150Y0495269D02*
X0573850Y0495269D01*
X0572852Y0494271D02*
X0577148Y0494271D01*
X0578147Y0493272D02*
X0571853Y0493272D01*
X0570825Y0484150D02*
X0569175Y0484150D01*
X0567649Y0483518D01*
X0566482Y0482351D01*
X0565850Y0480825D01*
X0565850Y0479175D01*
X0566482Y0477649D01*
X0567649Y0476482D01*
X0569175Y0475850D01*
X0570825Y0475850D01*
X0572351Y0476482D01*
X0573518Y0477649D01*
X0574150Y0479175D01*
X0574150Y0480825D01*
X0573518Y0482351D01*
X0572351Y0483518D01*
X0570825Y0484150D01*
X0572582Y0483287D02*
X0577418Y0483287D01*
X0577649Y0483518D02*
X0576482Y0482351D01*
X0575850Y0480825D01*
X0575850Y0479175D01*
X0576482Y0477649D01*
X0577649Y0476482D01*
X0579175Y0475850D01*
X0580825Y0475850D01*
X0582351Y0476482D01*
X0583518Y0477649D01*
X0584150Y0479175D01*
X0584150Y0480825D01*
X0583518Y0482351D01*
X0582351Y0483518D01*
X0580825Y0484150D01*
X0579175Y0484150D01*
X0577649Y0483518D01*
X0576456Y0482288D02*
X0573544Y0482288D01*
X0573958Y0481290D02*
X0576042Y0481290D01*
X0575850Y0480291D02*
X0574150Y0480291D01*
X0574150Y0479293D02*
X0575850Y0479293D01*
X0576215Y0478294D02*
X0573785Y0478294D01*
X0573165Y0477296D02*
X0576835Y0477296D01*
X0578095Y0476297D02*
X0571905Y0476297D01*
X0568095Y0476297D02*
X0561905Y0476297D01*
X0562351Y0476482D02*
X0563518Y0477649D01*
X0564150Y0479175D01*
X0564150Y0480825D01*
X0563518Y0482351D01*
X0562351Y0483518D01*
X0560825Y0484150D01*
X0559175Y0484150D01*
X0557649Y0483518D01*
X0556482Y0482351D01*
X0555850Y0480825D01*
X0555850Y0479175D01*
X0556482Y0477649D01*
X0557649Y0476482D01*
X0559175Y0475850D01*
X0560825Y0475850D01*
X0562351Y0476482D01*
X0563165Y0477296D02*
X0566835Y0477296D01*
X0566215Y0478294D02*
X0563785Y0478294D01*
X0564150Y0479293D02*
X0565850Y0479293D01*
X0565850Y0480291D02*
X0564150Y0480291D01*
X0563958Y0481290D02*
X0566042Y0481290D01*
X0566456Y0482288D02*
X0563544Y0482288D01*
X0562582Y0483287D02*
X0567418Y0483287D01*
X0557418Y0483287D02*
X0552582Y0483287D01*
X0552351Y0483518D02*
X0550825Y0484150D01*
X0549175Y0484150D01*
X0547649Y0483518D01*
X0546482Y0482351D01*
X0545850Y0480825D01*
X0545850Y0479175D01*
X0546482Y0477649D01*
X0547649Y0476482D01*
X0549175Y0475850D01*
X0550825Y0475850D01*
X0552351Y0476482D01*
X0553518Y0477649D01*
X0554150Y0479175D01*
X0554150Y0480825D01*
X0553518Y0482351D01*
X0552351Y0483518D01*
X0553544Y0482288D02*
X0556456Y0482288D01*
X0556042Y0481290D02*
X0553958Y0481290D01*
X0554150Y0480291D02*
X0555850Y0480291D01*
X0555850Y0479293D02*
X0554150Y0479293D01*
X0553785Y0478294D02*
X0556215Y0478294D01*
X0556835Y0477296D02*
X0553165Y0477296D01*
X0551905Y0476297D02*
X0558095Y0476297D01*
X0548095Y0476297D02*
X0541905Y0476297D01*
X0542351Y0476482D02*
X0543518Y0477649D01*
X0544150Y0479175D01*
X0544150Y0480825D01*
X0543518Y0482351D01*
X0542351Y0483518D01*
X0540825Y0484150D01*
X0539175Y0484150D01*
X0537649Y0483518D01*
X0536482Y0482351D01*
X0535850Y0480825D01*
X0535850Y0479175D01*
X0536482Y0477649D01*
X0537649Y0476482D01*
X0539175Y0475850D01*
X0540825Y0475850D01*
X0542351Y0476482D01*
X0543165Y0477296D02*
X0546835Y0477296D01*
X0546215Y0478294D02*
X0543785Y0478294D01*
X0544150Y0479293D02*
X0545850Y0479293D01*
X0545850Y0480291D02*
X0544150Y0480291D01*
X0543958Y0481290D02*
X0546042Y0481290D01*
X0546456Y0482288D02*
X0543544Y0482288D01*
X0542582Y0483287D02*
X0547418Y0483287D01*
X0537418Y0483287D02*
X0532582Y0483287D01*
X0532351Y0483518D02*
X0530825Y0484150D01*
X0529175Y0484150D01*
X0527649Y0483518D01*
X0526482Y0482351D01*
X0525850Y0480825D01*
X0525850Y0479175D01*
X0526482Y0477649D01*
X0527649Y0476482D01*
X0529175Y0475850D01*
X0530825Y0475850D01*
X0532351Y0476482D01*
X0533518Y0477649D01*
X0534150Y0479175D01*
X0534150Y0480825D01*
X0533518Y0482351D01*
X0532351Y0483518D01*
X0533544Y0482288D02*
X0536456Y0482288D01*
X0536042Y0481290D02*
X0533958Y0481290D01*
X0534150Y0480291D02*
X0535850Y0480291D01*
X0535850Y0479293D02*
X0534150Y0479293D01*
X0533785Y0478294D02*
X0536215Y0478294D01*
X0536835Y0477296D02*
X0533165Y0477296D01*
X0531905Y0476297D02*
X0538095Y0476297D01*
X0528095Y0476297D02*
X0521905Y0476297D01*
X0523165Y0477296D02*
X0526835Y0477296D01*
X0526215Y0478294D02*
X0523785Y0478294D01*
X0524150Y0479293D02*
X0525850Y0479293D01*
X0525850Y0480291D02*
X0524150Y0480291D01*
X0523958Y0481290D02*
X0526042Y0481290D01*
X0526456Y0482288D02*
X0523544Y0482288D01*
X0522582Y0483287D02*
X0527418Y0483287D01*
X0523147Y0493272D02*
X0516853Y0493272D01*
X0517852Y0494271D02*
X0522148Y0494271D01*
X0521150Y0495269D02*
X0518850Y0495269D01*
X0519300Y0496268D02*
X0520700Y0496268D01*
X0520700Y0497266D02*
X0519300Y0497266D01*
X0519300Y0498265D02*
X0520700Y0498265D01*
X0520700Y0499263D02*
X0519300Y0499263D01*
X0518835Y0505254D02*
X0521165Y0505254D01*
X0520700Y0506253D02*
X0519300Y0506253D01*
X0519300Y0507251D02*
X0520700Y0507251D01*
X0520700Y0508250D02*
X0519300Y0508250D01*
X0519300Y0509248D02*
X0520700Y0509248D01*
X0521666Y0510247D02*
X0518334Y0510247D01*
X0517336Y0511245D02*
X0522664Y0511245D01*
X0512664Y0511245D02*
X0507336Y0511245D01*
X0508334Y0510247D02*
X0511666Y0510247D01*
X0510700Y0509248D02*
X0509300Y0509248D01*
X0509300Y0508250D02*
X0510700Y0508250D01*
X0510700Y0507251D02*
X0509300Y0507251D01*
X0509300Y0506253D02*
X0510700Y0506253D01*
X0511165Y0505254D02*
X0508835Y0505254D01*
X0509753Y0504256D02*
X0507837Y0504256D01*
X0508754Y0503257D02*
X0506838Y0503257D01*
X0500700Y0508250D02*
X0431650Y0508250D01*
X0431650Y0509248D02*
X0500700Y0509248D01*
X0501666Y0510247D02*
X0431650Y0510247D01*
X0431650Y0511245D02*
X0502664Y0511245D01*
X0521205Y0472303D02*
X0628350Y0472303D01*
X0628350Y0471305D02*
X0522262Y0471305D01*
X0522589Y0470306D02*
X0628350Y0470306D01*
X0628350Y0469308D02*
X0522516Y0469308D01*
X0521971Y0468309D02*
X0628350Y0468309D01*
X0628350Y0477296D02*
X0623412Y0477296D01*
X0624013Y0478294D02*
X0628350Y0478294D01*
X0617696Y0476297D02*
X0611905Y0476297D01*
X0613165Y0477296D02*
X0616588Y0477296D01*
X0615987Y0478294D02*
X0613785Y0478294D01*
X0614150Y0479293D02*
X0615708Y0479293D01*
X0608095Y0476297D02*
X0601905Y0476297D01*
X0602351Y0476482D02*
X0600825Y0475850D01*
X0599175Y0475850D01*
X0597649Y0476482D01*
X0596482Y0477649D01*
X0595850Y0479175D01*
X0595850Y0480825D01*
X0596482Y0482351D01*
X0597649Y0483518D01*
X0599175Y0484150D01*
X0600825Y0484150D01*
X0602351Y0483518D01*
X0603518Y0482351D01*
X0604150Y0480825D01*
X0604150Y0479175D01*
X0603518Y0477649D01*
X0602351Y0476482D01*
X0603165Y0477296D02*
X0606835Y0477296D01*
X0606215Y0478294D02*
X0603785Y0478294D01*
X0604150Y0479293D02*
X0605850Y0479293D01*
X0605850Y0480291D02*
X0604150Y0480291D01*
X0603958Y0481290D02*
X0606042Y0481290D01*
X0606456Y0482288D02*
X0603544Y0482288D01*
X0602582Y0483287D02*
X0607418Y0483287D01*
X0597418Y0483287D02*
X0592582Y0483287D01*
X0592351Y0483518D02*
X0590825Y0484150D01*
X0589175Y0484150D01*
X0587649Y0483518D01*
X0586482Y0482351D01*
X0585850Y0480825D01*
X0585850Y0479175D01*
X0586482Y0477649D01*
X0587649Y0476482D01*
X0589175Y0475850D01*
X0590825Y0475850D01*
X0592351Y0476482D01*
X0593518Y0477649D01*
X0594150Y0479175D01*
X0594150Y0480825D01*
X0593518Y0482351D01*
X0592351Y0483518D01*
X0593544Y0482288D02*
X0596456Y0482288D01*
X0596042Y0481290D02*
X0593958Y0481290D01*
X0594150Y0480291D02*
X0595850Y0480291D01*
X0595850Y0479293D02*
X0594150Y0479293D01*
X0593785Y0478294D02*
X0596215Y0478294D01*
X0596835Y0477296D02*
X0593165Y0477296D01*
X0591905Y0476297D02*
X0598095Y0476297D01*
X0588095Y0476297D02*
X0581905Y0476297D01*
X0583165Y0477296D02*
X0586835Y0477296D01*
X0586215Y0478294D02*
X0583785Y0478294D01*
X0584150Y0479293D02*
X0585850Y0479293D01*
X0585850Y0480291D02*
X0584150Y0480291D01*
X0583958Y0481290D02*
X0586042Y0481290D01*
X0586456Y0482288D02*
X0583544Y0482288D01*
X0582582Y0483287D02*
X0587418Y0483287D01*
X0587864Y0493272D02*
X0581853Y0493272D01*
X0582852Y0494271D02*
X0586865Y0494271D01*
X0585867Y0495269D02*
X0583850Y0495269D01*
X0584300Y0496268D02*
X0585500Y0496268D01*
X0585500Y0508250D02*
X0584300Y0508250D01*
X0584300Y0509248D02*
X0585500Y0509248D01*
X0586383Y0510247D02*
X0583334Y0510247D01*
X0582336Y0511245D02*
X0587381Y0511245D01*
X0618922Y0507251D02*
X0628350Y0507251D01*
X0628350Y0506253D02*
X0620344Y0506253D01*
X0619645Y0506952D02*
X0619645Y0506952D01*
X0619645Y0506952D01*
X0621342Y0505254D02*
X0628350Y0505254D01*
X0628350Y0504256D02*
X0622113Y0504256D01*
X0621952Y0504645D02*
X0621952Y0504645D01*
X0622526Y0503257D02*
X0628350Y0503257D01*
X0628350Y0502259D02*
X0622940Y0502259D01*
X0623200Y0501260D02*
X0628350Y0501260D01*
X0628350Y0500262D02*
X0623200Y0500262D01*
X0623200Y0499263D02*
X0628350Y0499263D01*
X0628350Y0498265D02*
X0623157Y0498265D01*
X0622743Y0497266D02*
X0628350Y0497266D01*
X0628350Y0496268D02*
X0622330Y0496268D01*
X0621866Y0495269D02*
X0628350Y0495269D01*
X0628350Y0494271D02*
X0620867Y0494271D01*
X0619869Y0493272D02*
X0628350Y0493272D01*
X0628350Y0492274D02*
X0617774Y0492274D01*
X0619645Y0493048D02*
X0619645Y0493048D01*
X0628350Y0491275D02*
X0431650Y0491275D01*
X0431650Y0490277D02*
X0628350Y0490277D01*
X0628350Y0489278D02*
X0431650Y0489278D01*
X0449645Y0493048D02*
X0449645Y0493048D01*
X0431650Y0512244D02*
X0628350Y0512244D01*
X0628350Y0513242D02*
X0431650Y0513242D01*
X0457500Y0450336D02*
X0472500Y0450336D01*
D19*
X0444896Y0455000D03*
X0444896Y0430000D03*
X0444896Y0405000D03*
X0444896Y0380000D03*
X0444896Y0355000D03*
X0499896Y0390000D03*
X0504896Y0385000D03*
X0504896Y0365000D03*
X0504896Y0355000D03*
X0504896Y0345000D03*
X0504896Y0325000D03*
X0532396Y0350000D03*
X0534896Y0367500D03*
X0537233Y0371517D03*
X0538067Y0374911D03*
X0550000Y0375000D03*
X0555000Y0360000D03*
X0573750Y0370000D03*
X0559896Y0393750D03*
X0559896Y0396250D03*
X0547052Y0412500D03*
X0563850Y0424939D03*
X0571875Y0435625D03*
X0571875Y0438125D03*
X0568750Y0453750D03*
X0568750Y0456250D03*
X0558750Y0450000D03*
X0530000Y0440000D03*
X0525000Y0440000D03*
X0504896Y0450000D03*
X0520000Y0470000D03*
X0536875Y0490000D03*
X0495625Y0490000D03*
X0485000Y0485000D03*
X0484896Y0510000D03*
X0444896Y0480000D03*
X0591250Y0450000D03*
X0604896Y0470000D03*
X0616250Y0450000D03*
X0620000Y0450000D03*
X0604896Y0430000D03*
X0574896Y0325000D03*
D20*
X0480000Y0325000D02*
X0480000Y0335000D01*
X0480000Y0345000D01*
X0480000Y0355000D01*
X0480000Y0365000D01*
X0480000Y0375000D01*
X0480000Y0385000D01*
X0480000Y0395000D01*
X0480000Y0405000D01*
X0465000Y0405000D01*
X0465000Y0434775D01*
D21*
X0490000Y0470000D02*
X0520000Y0470000D01*
X0490000Y0470000D02*
X0485000Y0475000D01*
X0485000Y0485000D01*
X0558750Y0450000D02*
X0558750Y0430000D01*
X0563850Y0424900D01*
X0612030Y0424900D01*
X0616930Y0420000D01*
X0620000Y0420000D01*
X0615079Y0445079D02*
X0609779Y0445079D01*
X0609779Y0450000D02*
X0591250Y0450000D01*
X0609779Y0454921D02*
X0618829Y0454921D01*
X0620000Y0453750D01*
X0620000Y0450000D01*
X0616250Y0450000D02*
X0616250Y0446250D01*
X0615079Y0445079D01*
D22*
X0580000Y0497500D02*
X0580000Y0507500D01*
X0570000Y0507500D02*
X0570000Y0497500D01*
D23*
X0530000Y0440000D02*
X0550000Y0420000D01*
X0547052Y0412948D02*
X0547052Y0412500D01*
X0547052Y0412948D02*
X0540000Y0420000D01*
X0525000Y0435000D01*
X0525000Y0440000D01*
D24*
X0560000Y0497500D02*
X0560000Y0498750D01*
X0560000Y0502500D01*
X0560000Y0506250D01*
X0560000Y0507500D01*
D25*
X0560000Y0506250D02*
X0556250Y0502500D01*
X0560000Y0498750D01*
X0560000Y0502500D02*
X0511250Y0502500D01*
X0506250Y0497500D01*
X0505000Y0497500D01*
M02*
