%
M48
M72
T01C0.01378
T02C0.03800
T03C0.04000
T04C0.06000
T05C0.13000
%
T01
X444896Y355000
X444896Y380000
X444896Y405000
X444896Y430000
X444896Y455000
X444896Y480000
X485000Y485000
X495625Y490000
X484896Y510000
X536875Y490000
X520000Y470000
X504896Y450000
X525000Y440000
X530000Y440000
X558750Y450000
X568750Y453750
X568750Y456250
X571875Y438125
X571875Y435625
X563850Y424939
X547052Y412500
X559896Y396250
X559896Y393750
X550000Y375000
X538067Y374911
X537233Y371517
X534896Y367500
X532396Y350000
X504896Y345000
X504896Y355000
X504896Y365000
X504896Y385000
X499896Y390000
X555000Y360000
X573750Y370000
X574896Y325000
X504896Y325000
X604896Y430000
X616250Y450000
X620000Y450000
X604896Y470000
X591250Y450000
T02
X590000Y480000
X580000Y480000
X570000Y480000
X560000Y480000
X550000Y480000
X540000Y480000
X530000Y480000
X520000Y480000
X510000Y480000
X500000Y480000
X490000Y480000
X490000Y420000
X500000Y420000
X510000Y420000
X520000Y420000
X530000Y420000
X540000Y420000
X550000Y420000
X560000Y420000
X570000Y420000
X580000Y420000
X590000Y420000
X600000Y420000
X610000Y420000
X620000Y420000
X620000Y480000
X610000Y480000
X600000Y480000
T03
X590000Y497500
X590000Y507500
X580000Y507500
X580000Y497500
X570000Y497500
X570000Y507500
X560000Y507500
X560000Y497500
X525000Y497500
X525000Y507500
X515000Y507500
X515000Y497500
X505000Y497500
X505000Y507500
X477500Y417500
X477500Y407500
X480000Y395000
X480000Y385000
X470000Y385000
X470000Y395000
X490000Y395000
X490000Y385000
X490000Y375000
X490000Y365000
X490000Y355000
X480000Y355000
X480000Y365000
X480000Y375000
X470000Y375000
X470000Y365000
X470000Y355000
X470000Y345000
X470000Y335000
X470000Y325000
X480000Y325000
X480000Y335000
X480000Y345000
X490000Y345000
X490000Y335000
X490000Y325000
X515000Y325000
X515000Y335000
X525000Y335000
X525000Y325000
X535000Y325000
X535000Y335000
X545000Y335000
X545000Y325000
X555000Y325000
X555000Y335000
X565000Y335000
X565000Y325000
X585000Y325000
X585000Y335000
X595000Y335000
X595000Y325000
X610000Y350000
X610000Y360000
X620000Y360000
X620000Y350000
X620000Y370000
X620000Y380000
X620000Y390000
X610000Y390000
X610000Y380000
X610000Y370000
X610000Y400000
X620000Y400000
T04
X465000Y434775
X465000Y456475
T05
X445000Y330000
X615000Y330000
X615000Y500000
X445000Y500000
M30
