%
M48
M72
T01C0.02362
T02C0.04000
%
T01
X40000Y75000
X51250Y114062
X65000Y135000
X51250Y135000
X41875Y147188
X41900Y130200
X42813Y57187
X65000Y115000
X60400Y148700
X41600Y123900
X41563Y153750
X50000Y156250
X30937Y161875
X42188Y139688
X63437Y142188
T02
X15000Y85000
X15000Y75000
X15000Y65000
X15000Y55000
X15000Y45000
X15000Y35000
X15000Y25000
X15000Y15000
X85000Y15000
X85000Y25000
X85000Y35000
X85000Y45000
X85000Y55000
X85000Y65000
X85000Y75000
X85000Y85000
X85600Y166400
X85600Y156400
X85600Y146400
X85600Y136400
X85600Y126400
X14800Y125600
X14800Y135600
X14800Y145600
X14800Y155600
X14800Y165600
M30
