G75*
%MOIN*%
%OFA0B0*%
%FSLAX25Y25*%
%IPPOS*%
%LPD*%
%AMOC8*
5,1,8,0,0,1.08239X$1,22.5*
%
%ADD10C,0.00000*%
%ADD11C,0.08400*%
%ADD12C,0.08200*%
%ADD13R,0.08200X0.08200*%
%ADD14C,0.07400*%
%ADD15C,0.13800*%
%ADD16C,0.06600*%
%ADD17C,0.04800*%
D10*
X0011800Y0011800D02*
X0011800Y0296761D01*
X0355501Y0296761D01*
X0355501Y0011800D01*
X0011800Y0011800D01*
X0055300Y0102800D02*
X0055302Y0102961D01*
X0055308Y0103121D01*
X0055318Y0103282D01*
X0055332Y0103442D01*
X0055350Y0103602D01*
X0055371Y0103761D01*
X0055397Y0103920D01*
X0055427Y0104078D01*
X0055460Y0104235D01*
X0055498Y0104392D01*
X0055539Y0104547D01*
X0055584Y0104701D01*
X0055633Y0104854D01*
X0055686Y0105006D01*
X0055742Y0105157D01*
X0055803Y0105306D01*
X0055866Y0105454D01*
X0055934Y0105600D01*
X0056005Y0105744D01*
X0056079Y0105886D01*
X0056157Y0106027D01*
X0056239Y0106165D01*
X0056324Y0106302D01*
X0056412Y0106436D01*
X0056504Y0106568D01*
X0056599Y0106698D01*
X0056697Y0106826D01*
X0056798Y0106951D01*
X0056902Y0107073D01*
X0057009Y0107193D01*
X0057119Y0107310D01*
X0057232Y0107425D01*
X0057348Y0107536D01*
X0057467Y0107645D01*
X0057588Y0107750D01*
X0057712Y0107853D01*
X0057838Y0107953D01*
X0057966Y0108049D01*
X0058097Y0108142D01*
X0058231Y0108232D01*
X0058366Y0108319D01*
X0058504Y0108402D01*
X0058643Y0108482D01*
X0058785Y0108558D01*
X0058928Y0108631D01*
X0059073Y0108700D01*
X0059220Y0108766D01*
X0059368Y0108828D01*
X0059518Y0108886D01*
X0059669Y0108941D01*
X0059822Y0108992D01*
X0059976Y0109039D01*
X0060131Y0109082D01*
X0060287Y0109121D01*
X0060443Y0109157D01*
X0060601Y0109188D01*
X0060759Y0109216D01*
X0060918Y0109240D01*
X0061078Y0109260D01*
X0061238Y0109276D01*
X0061398Y0109288D01*
X0061559Y0109296D01*
X0061720Y0109300D01*
X0061880Y0109300D01*
X0062041Y0109296D01*
X0062202Y0109288D01*
X0062362Y0109276D01*
X0062522Y0109260D01*
X0062682Y0109240D01*
X0062841Y0109216D01*
X0062999Y0109188D01*
X0063157Y0109157D01*
X0063313Y0109121D01*
X0063469Y0109082D01*
X0063624Y0109039D01*
X0063778Y0108992D01*
X0063931Y0108941D01*
X0064082Y0108886D01*
X0064232Y0108828D01*
X0064380Y0108766D01*
X0064527Y0108700D01*
X0064672Y0108631D01*
X0064815Y0108558D01*
X0064957Y0108482D01*
X0065096Y0108402D01*
X0065234Y0108319D01*
X0065369Y0108232D01*
X0065503Y0108142D01*
X0065634Y0108049D01*
X0065762Y0107953D01*
X0065888Y0107853D01*
X0066012Y0107750D01*
X0066133Y0107645D01*
X0066252Y0107536D01*
X0066368Y0107425D01*
X0066481Y0107310D01*
X0066591Y0107193D01*
X0066698Y0107073D01*
X0066802Y0106951D01*
X0066903Y0106826D01*
X0067001Y0106698D01*
X0067096Y0106568D01*
X0067188Y0106436D01*
X0067276Y0106302D01*
X0067361Y0106165D01*
X0067443Y0106027D01*
X0067521Y0105886D01*
X0067595Y0105744D01*
X0067666Y0105600D01*
X0067734Y0105454D01*
X0067797Y0105306D01*
X0067858Y0105157D01*
X0067914Y0105006D01*
X0067967Y0104854D01*
X0068016Y0104701D01*
X0068061Y0104547D01*
X0068102Y0104392D01*
X0068140Y0104235D01*
X0068173Y0104078D01*
X0068203Y0103920D01*
X0068229Y0103761D01*
X0068250Y0103602D01*
X0068268Y0103442D01*
X0068282Y0103282D01*
X0068292Y0103121D01*
X0068298Y0102961D01*
X0068300Y0102800D01*
X0068298Y0102639D01*
X0068292Y0102479D01*
X0068282Y0102318D01*
X0068268Y0102158D01*
X0068250Y0101998D01*
X0068229Y0101839D01*
X0068203Y0101680D01*
X0068173Y0101522D01*
X0068140Y0101365D01*
X0068102Y0101208D01*
X0068061Y0101053D01*
X0068016Y0100899D01*
X0067967Y0100746D01*
X0067914Y0100594D01*
X0067858Y0100443D01*
X0067797Y0100294D01*
X0067734Y0100146D01*
X0067666Y0100000D01*
X0067595Y0099856D01*
X0067521Y0099714D01*
X0067443Y0099573D01*
X0067361Y0099435D01*
X0067276Y0099298D01*
X0067188Y0099164D01*
X0067096Y0099032D01*
X0067001Y0098902D01*
X0066903Y0098774D01*
X0066802Y0098649D01*
X0066698Y0098527D01*
X0066591Y0098407D01*
X0066481Y0098290D01*
X0066368Y0098175D01*
X0066252Y0098064D01*
X0066133Y0097955D01*
X0066012Y0097850D01*
X0065888Y0097747D01*
X0065762Y0097647D01*
X0065634Y0097551D01*
X0065503Y0097458D01*
X0065369Y0097368D01*
X0065234Y0097281D01*
X0065096Y0097198D01*
X0064957Y0097118D01*
X0064815Y0097042D01*
X0064672Y0096969D01*
X0064527Y0096900D01*
X0064380Y0096834D01*
X0064232Y0096772D01*
X0064082Y0096714D01*
X0063931Y0096659D01*
X0063778Y0096608D01*
X0063624Y0096561D01*
X0063469Y0096518D01*
X0063313Y0096479D01*
X0063157Y0096443D01*
X0062999Y0096412D01*
X0062841Y0096384D01*
X0062682Y0096360D01*
X0062522Y0096340D01*
X0062362Y0096324D01*
X0062202Y0096312D01*
X0062041Y0096304D01*
X0061880Y0096300D01*
X0061720Y0096300D01*
X0061559Y0096304D01*
X0061398Y0096312D01*
X0061238Y0096324D01*
X0061078Y0096340D01*
X0060918Y0096360D01*
X0060759Y0096384D01*
X0060601Y0096412D01*
X0060443Y0096443D01*
X0060287Y0096479D01*
X0060131Y0096518D01*
X0059976Y0096561D01*
X0059822Y0096608D01*
X0059669Y0096659D01*
X0059518Y0096714D01*
X0059368Y0096772D01*
X0059220Y0096834D01*
X0059073Y0096900D01*
X0058928Y0096969D01*
X0058785Y0097042D01*
X0058643Y0097118D01*
X0058504Y0097198D01*
X0058366Y0097281D01*
X0058231Y0097368D01*
X0058097Y0097458D01*
X0057966Y0097551D01*
X0057838Y0097647D01*
X0057712Y0097747D01*
X0057588Y0097850D01*
X0057467Y0097955D01*
X0057348Y0098064D01*
X0057232Y0098175D01*
X0057119Y0098290D01*
X0057009Y0098407D01*
X0056902Y0098527D01*
X0056798Y0098649D01*
X0056697Y0098774D01*
X0056599Y0098902D01*
X0056504Y0099032D01*
X0056412Y0099164D01*
X0056324Y0099298D01*
X0056239Y0099435D01*
X0056157Y0099573D01*
X0056079Y0099714D01*
X0056005Y0099856D01*
X0055934Y0100000D01*
X0055866Y0100146D01*
X0055803Y0100294D01*
X0055742Y0100443D01*
X0055686Y0100594D01*
X0055633Y0100746D01*
X0055584Y0100899D01*
X0055539Y0101053D01*
X0055498Y0101208D01*
X0055460Y0101365D01*
X0055427Y0101522D01*
X0055397Y0101680D01*
X0055371Y0101839D01*
X0055350Y0101998D01*
X0055332Y0102158D01*
X0055318Y0102318D01*
X0055308Y0102479D01*
X0055302Y0102639D01*
X0055300Y0102800D01*
X0130300Y0102800D02*
X0130302Y0102961D01*
X0130308Y0103121D01*
X0130318Y0103282D01*
X0130332Y0103442D01*
X0130350Y0103602D01*
X0130371Y0103761D01*
X0130397Y0103920D01*
X0130427Y0104078D01*
X0130460Y0104235D01*
X0130498Y0104392D01*
X0130539Y0104547D01*
X0130584Y0104701D01*
X0130633Y0104854D01*
X0130686Y0105006D01*
X0130742Y0105157D01*
X0130803Y0105306D01*
X0130866Y0105454D01*
X0130934Y0105600D01*
X0131005Y0105744D01*
X0131079Y0105886D01*
X0131157Y0106027D01*
X0131239Y0106165D01*
X0131324Y0106302D01*
X0131412Y0106436D01*
X0131504Y0106568D01*
X0131599Y0106698D01*
X0131697Y0106826D01*
X0131798Y0106951D01*
X0131902Y0107073D01*
X0132009Y0107193D01*
X0132119Y0107310D01*
X0132232Y0107425D01*
X0132348Y0107536D01*
X0132467Y0107645D01*
X0132588Y0107750D01*
X0132712Y0107853D01*
X0132838Y0107953D01*
X0132966Y0108049D01*
X0133097Y0108142D01*
X0133231Y0108232D01*
X0133366Y0108319D01*
X0133504Y0108402D01*
X0133643Y0108482D01*
X0133785Y0108558D01*
X0133928Y0108631D01*
X0134073Y0108700D01*
X0134220Y0108766D01*
X0134368Y0108828D01*
X0134518Y0108886D01*
X0134669Y0108941D01*
X0134822Y0108992D01*
X0134976Y0109039D01*
X0135131Y0109082D01*
X0135287Y0109121D01*
X0135443Y0109157D01*
X0135601Y0109188D01*
X0135759Y0109216D01*
X0135918Y0109240D01*
X0136078Y0109260D01*
X0136238Y0109276D01*
X0136398Y0109288D01*
X0136559Y0109296D01*
X0136720Y0109300D01*
X0136880Y0109300D01*
X0137041Y0109296D01*
X0137202Y0109288D01*
X0137362Y0109276D01*
X0137522Y0109260D01*
X0137682Y0109240D01*
X0137841Y0109216D01*
X0137999Y0109188D01*
X0138157Y0109157D01*
X0138313Y0109121D01*
X0138469Y0109082D01*
X0138624Y0109039D01*
X0138778Y0108992D01*
X0138931Y0108941D01*
X0139082Y0108886D01*
X0139232Y0108828D01*
X0139380Y0108766D01*
X0139527Y0108700D01*
X0139672Y0108631D01*
X0139815Y0108558D01*
X0139957Y0108482D01*
X0140096Y0108402D01*
X0140234Y0108319D01*
X0140369Y0108232D01*
X0140503Y0108142D01*
X0140634Y0108049D01*
X0140762Y0107953D01*
X0140888Y0107853D01*
X0141012Y0107750D01*
X0141133Y0107645D01*
X0141252Y0107536D01*
X0141368Y0107425D01*
X0141481Y0107310D01*
X0141591Y0107193D01*
X0141698Y0107073D01*
X0141802Y0106951D01*
X0141903Y0106826D01*
X0142001Y0106698D01*
X0142096Y0106568D01*
X0142188Y0106436D01*
X0142276Y0106302D01*
X0142361Y0106165D01*
X0142443Y0106027D01*
X0142521Y0105886D01*
X0142595Y0105744D01*
X0142666Y0105600D01*
X0142734Y0105454D01*
X0142797Y0105306D01*
X0142858Y0105157D01*
X0142914Y0105006D01*
X0142967Y0104854D01*
X0143016Y0104701D01*
X0143061Y0104547D01*
X0143102Y0104392D01*
X0143140Y0104235D01*
X0143173Y0104078D01*
X0143203Y0103920D01*
X0143229Y0103761D01*
X0143250Y0103602D01*
X0143268Y0103442D01*
X0143282Y0103282D01*
X0143292Y0103121D01*
X0143298Y0102961D01*
X0143300Y0102800D01*
X0143298Y0102639D01*
X0143292Y0102479D01*
X0143282Y0102318D01*
X0143268Y0102158D01*
X0143250Y0101998D01*
X0143229Y0101839D01*
X0143203Y0101680D01*
X0143173Y0101522D01*
X0143140Y0101365D01*
X0143102Y0101208D01*
X0143061Y0101053D01*
X0143016Y0100899D01*
X0142967Y0100746D01*
X0142914Y0100594D01*
X0142858Y0100443D01*
X0142797Y0100294D01*
X0142734Y0100146D01*
X0142666Y0100000D01*
X0142595Y0099856D01*
X0142521Y0099714D01*
X0142443Y0099573D01*
X0142361Y0099435D01*
X0142276Y0099298D01*
X0142188Y0099164D01*
X0142096Y0099032D01*
X0142001Y0098902D01*
X0141903Y0098774D01*
X0141802Y0098649D01*
X0141698Y0098527D01*
X0141591Y0098407D01*
X0141481Y0098290D01*
X0141368Y0098175D01*
X0141252Y0098064D01*
X0141133Y0097955D01*
X0141012Y0097850D01*
X0140888Y0097747D01*
X0140762Y0097647D01*
X0140634Y0097551D01*
X0140503Y0097458D01*
X0140369Y0097368D01*
X0140234Y0097281D01*
X0140096Y0097198D01*
X0139957Y0097118D01*
X0139815Y0097042D01*
X0139672Y0096969D01*
X0139527Y0096900D01*
X0139380Y0096834D01*
X0139232Y0096772D01*
X0139082Y0096714D01*
X0138931Y0096659D01*
X0138778Y0096608D01*
X0138624Y0096561D01*
X0138469Y0096518D01*
X0138313Y0096479D01*
X0138157Y0096443D01*
X0137999Y0096412D01*
X0137841Y0096384D01*
X0137682Y0096360D01*
X0137522Y0096340D01*
X0137362Y0096324D01*
X0137202Y0096312D01*
X0137041Y0096304D01*
X0136880Y0096300D01*
X0136720Y0096300D01*
X0136559Y0096304D01*
X0136398Y0096312D01*
X0136238Y0096324D01*
X0136078Y0096340D01*
X0135918Y0096360D01*
X0135759Y0096384D01*
X0135601Y0096412D01*
X0135443Y0096443D01*
X0135287Y0096479D01*
X0135131Y0096518D01*
X0134976Y0096561D01*
X0134822Y0096608D01*
X0134669Y0096659D01*
X0134518Y0096714D01*
X0134368Y0096772D01*
X0134220Y0096834D01*
X0134073Y0096900D01*
X0133928Y0096969D01*
X0133785Y0097042D01*
X0133643Y0097118D01*
X0133504Y0097198D01*
X0133366Y0097281D01*
X0133231Y0097368D01*
X0133097Y0097458D01*
X0132966Y0097551D01*
X0132838Y0097647D01*
X0132712Y0097747D01*
X0132588Y0097850D01*
X0132467Y0097955D01*
X0132348Y0098064D01*
X0132232Y0098175D01*
X0132119Y0098290D01*
X0132009Y0098407D01*
X0131902Y0098527D01*
X0131798Y0098649D01*
X0131697Y0098774D01*
X0131599Y0098902D01*
X0131504Y0099032D01*
X0131412Y0099164D01*
X0131324Y0099298D01*
X0131239Y0099435D01*
X0131157Y0099573D01*
X0131079Y0099714D01*
X0131005Y0099856D01*
X0130934Y0100000D01*
X0130866Y0100146D01*
X0130803Y0100294D01*
X0130742Y0100443D01*
X0130686Y0100594D01*
X0130633Y0100746D01*
X0130584Y0100899D01*
X0130539Y0101053D01*
X0130498Y0101208D01*
X0130460Y0101365D01*
X0130427Y0101522D01*
X0130397Y0101680D01*
X0130371Y0101839D01*
X0130350Y0101998D01*
X0130332Y0102158D01*
X0130318Y0102318D01*
X0130308Y0102479D01*
X0130302Y0102639D01*
X0130300Y0102800D01*
X0205300Y0141800D02*
X0205302Y0141961D01*
X0205308Y0142121D01*
X0205318Y0142282D01*
X0205332Y0142442D01*
X0205350Y0142602D01*
X0205371Y0142761D01*
X0205397Y0142920D01*
X0205427Y0143078D01*
X0205460Y0143235D01*
X0205498Y0143392D01*
X0205539Y0143547D01*
X0205584Y0143701D01*
X0205633Y0143854D01*
X0205686Y0144006D01*
X0205742Y0144157D01*
X0205803Y0144306D01*
X0205866Y0144454D01*
X0205934Y0144600D01*
X0206005Y0144744D01*
X0206079Y0144886D01*
X0206157Y0145027D01*
X0206239Y0145165D01*
X0206324Y0145302D01*
X0206412Y0145436D01*
X0206504Y0145568D01*
X0206599Y0145698D01*
X0206697Y0145826D01*
X0206798Y0145951D01*
X0206902Y0146073D01*
X0207009Y0146193D01*
X0207119Y0146310D01*
X0207232Y0146425D01*
X0207348Y0146536D01*
X0207467Y0146645D01*
X0207588Y0146750D01*
X0207712Y0146853D01*
X0207838Y0146953D01*
X0207966Y0147049D01*
X0208097Y0147142D01*
X0208231Y0147232D01*
X0208366Y0147319D01*
X0208504Y0147402D01*
X0208643Y0147482D01*
X0208785Y0147558D01*
X0208928Y0147631D01*
X0209073Y0147700D01*
X0209220Y0147766D01*
X0209368Y0147828D01*
X0209518Y0147886D01*
X0209669Y0147941D01*
X0209822Y0147992D01*
X0209976Y0148039D01*
X0210131Y0148082D01*
X0210287Y0148121D01*
X0210443Y0148157D01*
X0210601Y0148188D01*
X0210759Y0148216D01*
X0210918Y0148240D01*
X0211078Y0148260D01*
X0211238Y0148276D01*
X0211398Y0148288D01*
X0211559Y0148296D01*
X0211720Y0148300D01*
X0211880Y0148300D01*
X0212041Y0148296D01*
X0212202Y0148288D01*
X0212362Y0148276D01*
X0212522Y0148260D01*
X0212682Y0148240D01*
X0212841Y0148216D01*
X0212999Y0148188D01*
X0213157Y0148157D01*
X0213313Y0148121D01*
X0213469Y0148082D01*
X0213624Y0148039D01*
X0213778Y0147992D01*
X0213931Y0147941D01*
X0214082Y0147886D01*
X0214232Y0147828D01*
X0214380Y0147766D01*
X0214527Y0147700D01*
X0214672Y0147631D01*
X0214815Y0147558D01*
X0214957Y0147482D01*
X0215096Y0147402D01*
X0215234Y0147319D01*
X0215369Y0147232D01*
X0215503Y0147142D01*
X0215634Y0147049D01*
X0215762Y0146953D01*
X0215888Y0146853D01*
X0216012Y0146750D01*
X0216133Y0146645D01*
X0216252Y0146536D01*
X0216368Y0146425D01*
X0216481Y0146310D01*
X0216591Y0146193D01*
X0216698Y0146073D01*
X0216802Y0145951D01*
X0216903Y0145826D01*
X0217001Y0145698D01*
X0217096Y0145568D01*
X0217188Y0145436D01*
X0217276Y0145302D01*
X0217361Y0145165D01*
X0217443Y0145027D01*
X0217521Y0144886D01*
X0217595Y0144744D01*
X0217666Y0144600D01*
X0217734Y0144454D01*
X0217797Y0144306D01*
X0217858Y0144157D01*
X0217914Y0144006D01*
X0217967Y0143854D01*
X0218016Y0143701D01*
X0218061Y0143547D01*
X0218102Y0143392D01*
X0218140Y0143235D01*
X0218173Y0143078D01*
X0218203Y0142920D01*
X0218229Y0142761D01*
X0218250Y0142602D01*
X0218268Y0142442D01*
X0218282Y0142282D01*
X0218292Y0142121D01*
X0218298Y0141961D01*
X0218300Y0141800D01*
X0218298Y0141639D01*
X0218292Y0141479D01*
X0218282Y0141318D01*
X0218268Y0141158D01*
X0218250Y0140998D01*
X0218229Y0140839D01*
X0218203Y0140680D01*
X0218173Y0140522D01*
X0218140Y0140365D01*
X0218102Y0140208D01*
X0218061Y0140053D01*
X0218016Y0139899D01*
X0217967Y0139746D01*
X0217914Y0139594D01*
X0217858Y0139443D01*
X0217797Y0139294D01*
X0217734Y0139146D01*
X0217666Y0139000D01*
X0217595Y0138856D01*
X0217521Y0138714D01*
X0217443Y0138573D01*
X0217361Y0138435D01*
X0217276Y0138298D01*
X0217188Y0138164D01*
X0217096Y0138032D01*
X0217001Y0137902D01*
X0216903Y0137774D01*
X0216802Y0137649D01*
X0216698Y0137527D01*
X0216591Y0137407D01*
X0216481Y0137290D01*
X0216368Y0137175D01*
X0216252Y0137064D01*
X0216133Y0136955D01*
X0216012Y0136850D01*
X0215888Y0136747D01*
X0215762Y0136647D01*
X0215634Y0136551D01*
X0215503Y0136458D01*
X0215369Y0136368D01*
X0215234Y0136281D01*
X0215096Y0136198D01*
X0214957Y0136118D01*
X0214815Y0136042D01*
X0214672Y0135969D01*
X0214527Y0135900D01*
X0214380Y0135834D01*
X0214232Y0135772D01*
X0214082Y0135714D01*
X0213931Y0135659D01*
X0213778Y0135608D01*
X0213624Y0135561D01*
X0213469Y0135518D01*
X0213313Y0135479D01*
X0213157Y0135443D01*
X0212999Y0135412D01*
X0212841Y0135384D01*
X0212682Y0135360D01*
X0212522Y0135340D01*
X0212362Y0135324D01*
X0212202Y0135312D01*
X0212041Y0135304D01*
X0211880Y0135300D01*
X0211720Y0135300D01*
X0211559Y0135304D01*
X0211398Y0135312D01*
X0211238Y0135324D01*
X0211078Y0135340D01*
X0210918Y0135360D01*
X0210759Y0135384D01*
X0210601Y0135412D01*
X0210443Y0135443D01*
X0210287Y0135479D01*
X0210131Y0135518D01*
X0209976Y0135561D01*
X0209822Y0135608D01*
X0209669Y0135659D01*
X0209518Y0135714D01*
X0209368Y0135772D01*
X0209220Y0135834D01*
X0209073Y0135900D01*
X0208928Y0135969D01*
X0208785Y0136042D01*
X0208643Y0136118D01*
X0208504Y0136198D01*
X0208366Y0136281D01*
X0208231Y0136368D01*
X0208097Y0136458D01*
X0207966Y0136551D01*
X0207838Y0136647D01*
X0207712Y0136747D01*
X0207588Y0136850D01*
X0207467Y0136955D01*
X0207348Y0137064D01*
X0207232Y0137175D01*
X0207119Y0137290D01*
X0207009Y0137407D01*
X0206902Y0137527D01*
X0206798Y0137649D01*
X0206697Y0137774D01*
X0206599Y0137902D01*
X0206504Y0138032D01*
X0206412Y0138164D01*
X0206324Y0138298D01*
X0206239Y0138435D01*
X0206157Y0138573D01*
X0206079Y0138714D01*
X0206005Y0138856D01*
X0205934Y0139000D01*
X0205866Y0139146D01*
X0205803Y0139294D01*
X0205742Y0139443D01*
X0205686Y0139594D01*
X0205633Y0139746D01*
X0205584Y0139899D01*
X0205539Y0140053D01*
X0205498Y0140208D01*
X0205460Y0140365D01*
X0205427Y0140522D01*
X0205397Y0140680D01*
X0205371Y0140839D01*
X0205350Y0140998D01*
X0205332Y0141158D01*
X0205318Y0141318D01*
X0205308Y0141479D01*
X0205302Y0141639D01*
X0205300Y0141800D01*
X0260300Y0141800D02*
X0260302Y0141961D01*
X0260308Y0142121D01*
X0260318Y0142282D01*
X0260332Y0142442D01*
X0260350Y0142602D01*
X0260371Y0142761D01*
X0260397Y0142920D01*
X0260427Y0143078D01*
X0260460Y0143235D01*
X0260498Y0143392D01*
X0260539Y0143547D01*
X0260584Y0143701D01*
X0260633Y0143854D01*
X0260686Y0144006D01*
X0260742Y0144157D01*
X0260803Y0144306D01*
X0260866Y0144454D01*
X0260934Y0144600D01*
X0261005Y0144744D01*
X0261079Y0144886D01*
X0261157Y0145027D01*
X0261239Y0145165D01*
X0261324Y0145302D01*
X0261412Y0145436D01*
X0261504Y0145568D01*
X0261599Y0145698D01*
X0261697Y0145826D01*
X0261798Y0145951D01*
X0261902Y0146073D01*
X0262009Y0146193D01*
X0262119Y0146310D01*
X0262232Y0146425D01*
X0262348Y0146536D01*
X0262467Y0146645D01*
X0262588Y0146750D01*
X0262712Y0146853D01*
X0262838Y0146953D01*
X0262966Y0147049D01*
X0263097Y0147142D01*
X0263231Y0147232D01*
X0263366Y0147319D01*
X0263504Y0147402D01*
X0263643Y0147482D01*
X0263785Y0147558D01*
X0263928Y0147631D01*
X0264073Y0147700D01*
X0264220Y0147766D01*
X0264368Y0147828D01*
X0264518Y0147886D01*
X0264669Y0147941D01*
X0264822Y0147992D01*
X0264976Y0148039D01*
X0265131Y0148082D01*
X0265287Y0148121D01*
X0265443Y0148157D01*
X0265601Y0148188D01*
X0265759Y0148216D01*
X0265918Y0148240D01*
X0266078Y0148260D01*
X0266238Y0148276D01*
X0266398Y0148288D01*
X0266559Y0148296D01*
X0266720Y0148300D01*
X0266880Y0148300D01*
X0267041Y0148296D01*
X0267202Y0148288D01*
X0267362Y0148276D01*
X0267522Y0148260D01*
X0267682Y0148240D01*
X0267841Y0148216D01*
X0267999Y0148188D01*
X0268157Y0148157D01*
X0268313Y0148121D01*
X0268469Y0148082D01*
X0268624Y0148039D01*
X0268778Y0147992D01*
X0268931Y0147941D01*
X0269082Y0147886D01*
X0269232Y0147828D01*
X0269380Y0147766D01*
X0269527Y0147700D01*
X0269672Y0147631D01*
X0269815Y0147558D01*
X0269957Y0147482D01*
X0270096Y0147402D01*
X0270234Y0147319D01*
X0270369Y0147232D01*
X0270503Y0147142D01*
X0270634Y0147049D01*
X0270762Y0146953D01*
X0270888Y0146853D01*
X0271012Y0146750D01*
X0271133Y0146645D01*
X0271252Y0146536D01*
X0271368Y0146425D01*
X0271481Y0146310D01*
X0271591Y0146193D01*
X0271698Y0146073D01*
X0271802Y0145951D01*
X0271903Y0145826D01*
X0272001Y0145698D01*
X0272096Y0145568D01*
X0272188Y0145436D01*
X0272276Y0145302D01*
X0272361Y0145165D01*
X0272443Y0145027D01*
X0272521Y0144886D01*
X0272595Y0144744D01*
X0272666Y0144600D01*
X0272734Y0144454D01*
X0272797Y0144306D01*
X0272858Y0144157D01*
X0272914Y0144006D01*
X0272967Y0143854D01*
X0273016Y0143701D01*
X0273061Y0143547D01*
X0273102Y0143392D01*
X0273140Y0143235D01*
X0273173Y0143078D01*
X0273203Y0142920D01*
X0273229Y0142761D01*
X0273250Y0142602D01*
X0273268Y0142442D01*
X0273282Y0142282D01*
X0273292Y0142121D01*
X0273298Y0141961D01*
X0273300Y0141800D01*
X0273298Y0141639D01*
X0273292Y0141479D01*
X0273282Y0141318D01*
X0273268Y0141158D01*
X0273250Y0140998D01*
X0273229Y0140839D01*
X0273203Y0140680D01*
X0273173Y0140522D01*
X0273140Y0140365D01*
X0273102Y0140208D01*
X0273061Y0140053D01*
X0273016Y0139899D01*
X0272967Y0139746D01*
X0272914Y0139594D01*
X0272858Y0139443D01*
X0272797Y0139294D01*
X0272734Y0139146D01*
X0272666Y0139000D01*
X0272595Y0138856D01*
X0272521Y0138714D01*
X0272443Y0138573D01*
X0272361Y0138435D01*
X0272276Y0138298D01*
X0272188Y0138164D01*
X0272096Y0138032D01*
X0272001Y0137902D01*
X0271903Y0137774D01*
X0271802Y0137649D01*
X0271698Y0137527D01*
X0271591Y0137407D01*
X0271481Y0137290D01*
X0271368Y0137175D01*
X0271252Y0137064D01*
X0271133Y0136955D01*
X0271012Y0136850D01*
X0270888Y0136747D01*
X0270762Y0136647D01*
X0270634Y0136551D01*
X0270503Y0136458D01*
X0270369Y0136368D01*
X0270234Y0136281D01*
X0270096Y0136198D01*
X0269957Y0136118D01*
X0269815Y0136042D01*
X0269672Y0135969D01*
X0269527Y0135900D01*
X0269380Y0135834D01*
X0269232Y0135772D01*
X0269082Y0135714D01*
X0268931Y0135659D01*
X0268778Y0135608D01*
X0268624Y0135561D01*
X0268469Y0135518D01*
X0268313Y0135479D01*
X0268157Y0135443D01*
X0267999Y0135412D01*
X0267841Y0135384D01*
X0267682Y0135360D01*
X0267522Y0135340D01*
X0267362Y0135324D01*
X0267202Y0135312D01*
X0267041Y0135304D01*
X0266880Y0135300D01*
X0266720Y0135300D01*
X0266559Y0135304D01*
X0266398Y0135312D01*
X0266238Y0135324D01*
X0266078Y0135340D01*
X0265918Y0135360D01*
X0265759Y0135384D01*
X0265601Y0135412D01*
X0265443Y0135443D01*
X0265287Y0135479D01*
X0265131Y0135518D01*
X0264976Y0135561D01*
X0264822Y0135608D01*
X0264669Y0135659D01*
X0264518Y0135714D01*
X0264368Y0135772D01*
X0264220Y0135834D01*
X0264073Y0135900D01*
X0263928Y0135969D01*
X0263785Y0136042D01*
X0263643Y0136118D01*
X0263504Y0136198D01*
X0263366Y0136281D01*
X0263231Y0136368D01*
X0263097Y0136458D01*
X0262966Y0136551D01*
X0262838Y0136647D01*
X0262712Y0136747D01*
X0262588Y0136850D01*
X0262467Y0136955D01*
X0262348Y0137064D01*
X0262232Y0137175D01*
X0262119Y0137290D01*
X0262009Y0137407D01*
X0261902Y0137527D01*
X0261798Y0137649D01*
X0261697Y0137774D01*
X0261599Y0137902D01*
X0261504Y0138032D01*
X0261412Y0138164D01*
X0261324Y0138298D01*
X0261239Y0138435D01*
X0261157Y0138573D01*
X0261079Y0138714D01*
X0261005Y0138856D01*
X0260934Y0139000D01*
X0260866Y0139146D01*
X0260803Y0139294D01*
X0260742Y0139443D01*
X0260686Y0139594D01*
X0260633Y0139746D01*
X0260584Y0139899D01*
X0260539Y0140053D01*
X0260498Y0140208D01*
X0260460Y0140365D01*
X0260427Y0140522D01*
X0260397Y0140680D01*
X0260371Y0140839D01*
X0260350Y0140998D01*
X0260332Y0141158D01*
X0260318Y0141318D01*
X0260308Y0141479D01*
X0260302Y0141639D01*
X0260300Y0141800D01*
D11*
X0156800Y0226800D03*
X0116800Y0226800D03*
X0076800Y0226800D03*
X0036800Y0226800D03*
D12*
X0051800Y0266800D03*
X0061800Y0266800D03*
X0131800Y0266800D03*
X0141800Y0266800D03*
X0206800Y0266800D03*
X0216800Y0266800D03*
X0261800Y0266800D03*
X0271800Y0266800D03*
X0301800Y0266800D03*
X0311800Y0266800D03*
X0321800Y0266800D03*
X0116800Y0071800D03*
X0116800Y0061800D03*
X0116800Y0051800D03*
X0116800Y0041800D03*
X0116800Y0031800D03*
D13*
X0121800Y0266800D03*
X0196800Y0266800D03*
X0251800Y0266800D03*
X0331800Y0266800D03*
X0041800Y0266800D03*
D14*
X0051800Y0175100D02*
X0051800Y0168500D01*
X0061800Y0168500D02*
X0061800Y0175100D01*
X0071800Y0175100D02*
X0071800Y0168500D01*
X0126800Y0168500D02*
X0126800Y0175100D01*
X0136800Y0175100D02*
X0136800Y0168500D01*
X0146800Y0168500D02*
X0146800Y0175100D01*
X0202800Y0178500D02*
X0202800Y0185100D01*
X0211800Y0185100D02*
X0211800Y0178500D01*
X0220800Y0178500D02*
X0220800Y0185100D01*
X0257800Y0185100D02*
X0257800Y0178500D01*
X0266800Y0178500D02*
X0266800Y0185100D01*
X0275800Y0185100D02*
X0275800Y0178500D01*
D15*
X0266800Y0141800D03*
X0211800Y0141800D03*
X0136800Y0102800D03*
X0061800Y0102800D03*
D16*
X0201800Y0096800D03*
X0201800Y0086800D03*
X0211800Y0096800D03*
X0221800Y0096800D03*
X0231800Y0096800D03*
X0241800Y0096800D03*
X0251800Y0096800D03*
X0261800Y0096800D03*
X0271800Y0096800D03*
X0281800Y0096800D03*
X0291800Y0096800D03*
X0301800Y0096800D03*
X0311800Y0096800D03*
X0321800Y0096800D03*
X0331800Y0096800D03*
X0331800Y0036800D03*
X0321800Y0036800D03*
X0311800Y0036800D03*
X0301800Y0036800D03*
X0291800Y0036800D03*
X0281800Y0036800D03*
X0271800Y0036800D03*
X0261800Y0036800D03*
X0251800Y0036800D03*
X0241800Y0036800D03*
X0231800Y0036800D03*
X0221800Y0036800D03*
X0211800Y0036800D03*
X0201800Y0036800D03*
X0201800Y0046800D03*
X0201800Y0056800D03*
X0201800Y0066800D03*
X0201800Y0076800D03*
D17*
X0160300Y0113500D03*
M02*
