%
M48
M72
T01C0.01378
T02C0.01969
T03C0.03800
T04C0.04000
T05C0.05000
T06C0.05200
T07C0.06000
T08C0.13000
%
T01
X175000Y110000
X120000Y135000
X155000Y180000
X185000Y135000
X263125Y52500
X285000Y66875
X280000Y96250
X282500Y96250
X205000Y117500
X201250Y58750
X201250Y67500
X150000Y170000
X135625Y116875
X116250Y165625
X136250Y131250
T02
X137500Y77500
X222500Y79375
X217500Y79375
X212500Y79375
X207500Y79375
X227500Y79375
X167500Y79375
X162500Y79375
X157500Y79375
X152500Y79375
X172500Y79375
X117500Y77500
X62500Y77500
X62500Y72500
X72500Y77500
X72500Y72500
X82500Y77500
X82500Y72500
X92500Y77500
X92500Y72500
X62500Y82500
X72500Y82500
X82500Y82500
X92500Y82500
X155000Y145000
X150000Y3750
X225000Y155000
X162500Y155000
T03
X280000Y165000
X270000Y165000
X260000Y165000
X250000Y165000
X270000Y105000
X240000Y165000
X230000Y165000
X220000Y165000
X210000Y165000
X200000Y165000
X190000Y165000
X180000Y165000
X170000Y165000
X160000Y165000
X160000Y105000
X170000Y105000
X180000Y105000
X190000Y105000
X200000Y105000
X210000Y105000
X220000Y105000
X230000Y105000
X240000Y105000
X250000Y105000
X260000Y105000
X280000Y105000
X290000Y165000
X290000Y105000
T04
X195000Y192500
X195000Y182500
X185000Y192500
X185000Y182500
X175000Y192500
X175000Y182500
X260000Y20000
X260000Y10000
X260000Y192500
X260000Y182500
X250000Y192500
X250000Y182500
X240000Y192500
X240000Y182500
X230000Y192500
X230000Y182500
X145000Y192500
X145000Y182500
X135000Y192500
X135000Y182500
X125000Y192500
X125000Y182500
X115000Y192500
X115000Y182500
X105000Y192500
X105000Y182500
X95000Y192500
X95000Y182500
X45000Y160000
X45000Y150000
X35000Y160000
X35000Y150000
X25000Y160000
X25000Y150000
X45000Y140000
X45000Y130000
X35000Y140000
X35000Y130000
X25000Y140000
X25000Y130000
X45000Y120000
X45000Y110000
X35000Y120000
X35000Y110000
X25000Y120000
X25000Y110000
X45000Y100000
X45000Y90000
X35000Y100000
X35000Y90000
X25000Y100000
X25000Y90000
X45000Y80000
X45000Y70000
X35000Y80000
X35000Y70000
X25000Y80000
X25000Y70000
X45000Y60000
X45000Y50000
X35000Y60000
X35000Y50000
X25000Y60000
X25000Y50000
X125000Y97500
X125000Y107500
X135000Y97500
X135000Y107500
X145000Y97500
X145000Y107500
T05
X285000Y35000
X285000Y45000
T06
X60000Y25000
X70000Y25000
X80000Y25000
X90000Y25000
X100000Y25000
T07
X121750Y33250
X138250Y33250
X138250Y16750
X121750Y16750
X220000Y25000
X240000Y25000
X165000Y25000
X185000Y25000
X38625Y187500
X55125Y187500
T08
X285000Y15000
X15000Y15000
X15000Y185000
X285000Y185000
M30
