G75*
%MOIN*%
%OFA0B0*%
%FSLAX25Y25*%
%IPPOS*%
%LPD*%
%AMOC8*
5,1,8,0,0,1.08239X$1,22.5*
%
%ADD10R,0.07400X0.07400*%
%ADD11C,0.07400*%
%ADD12OC8,0.06000*%
%ADD13C,0.07800*%
%ADD14C,0.05800*%
%ADD15OC8,0.05200*%
%ADD16R,0.09449X0.09449*%
%ADD17C,0.06000*%
%ADD18C,0.02500*%
%ADD19C,0.04000*%
%ADD20C,0.05000*%
%ADD21C,0.01600*%
D10*
X0086719Y0074051D03*
X0087113Y0115154D03*
X0088058Y0155154D03*
X0088058Y0194445D03*
X0353018Y0180154D03*
X0353018Y0143028D03*
X0353018Y0106020D03*
X0352625Y0068185D03*
D11*
X0352625Y0078185D03*
X0352625Y0088185D03*
X0353018Y0116020D03*
X0353018Y0126020D03*
X0353018Y0153028D03*
X0353018Y0163028D03*
X0353018Y0190154D03*
X0353018Y0200154D03*
X0088058Y0204445D03*
X0088058Y0214445D03*
X0088058Y0175154D03*
X0088058Y0165154D03*
X0087113Y0135154D03*
X0087113Y0125154D03*
X0086719Y0094051D03*
X0086719Y0084051D03*
D12*
X0158007Y0096965D03*
X0217007Y0096965D03*
X0217007Y0053697D03*
X0158007Y0053697D03*
D13*
X0107507Y0044524D03*
X0107507Y0084524D03*
X0107507Y0104524D03*
X0107507Y0144524D03*
D14*
X0266168Y0146295D03*
X0266168Y0136295D03*
X0266168Y0126295D03*
X0266168Y0116295D03*
X0266168Y0106295D03*
X0266168Y0096295D03*
X0276168Y0096295D03*
X0286168Y0096295D03*
X0296168Y0096295D03*
X0306168Y0096295D03*
X0316168Y0096295D03*
X0326168Y0096295D03*
X0326168Y0106295D03*
X0326168Y0116295D03*
X0326168Y0126295D03*
X0326168Y0136295D03*
X0326168Y0146295D03*
X0326168Y0156295D03*
X0326168Y0166295D03*
X0326168Y0176295D03*
X0326168Y0186295D03*
X0326168Y0196295D03*
X0326168Y0206295D03*
X0326168Y0216295D03*
X0326168Y0226295D03*
X0266168Y0226295D03*
X0266168Y0216295D03*
X0266168Y0206295D03*
X0266168Y0196295D03*
X0266168Y0186295D03*
X0266168Y0176295D03*
X0266168Y0166295D03*
X0266168Y0156295D03*
D15*
X0236955Y0157319D03*
X0229455Y0162319D03*
X0236955Y0167319D03*
X0242703Y0063618D03*
X0235203Y0058618D03*
X0242703Y0053618D03*
X0272605Y0051925D03*
X0280105Y0046925D03*
X0280105Y0056925D03*
D16*
X0195459Y0197516D03*
X0178924Y0197516D03*
X0178924Y0219169D03*
X0195459Y0219169D03*
D17*
X0301325Y0058390D02*
X0301325Y0052390D01*
X0311325Y0052390D02*
X0311325Y0058390D01*
X0321325Y0058390D02*
X0321325Y0052390D01*
X0331325Y0052390D02*
X0331325Y0058390D01*
D18*
X0347231Y0068185D02*
X0337192Y0078224D01*
X0337192Y0154996D01*
X0326168Y0166020D01*
X0326168Y0166295D01*
X0327349Y0164445D01*
X0343491Y0180193D02*
X0343491Y0147909D01*
X0348373Y0143028D01*
X0353018Y0143028D01*
X0353018Y0180154D02*
X0336877Y0196295D01*
X0326168Y0196295D01*
X0326168Y0186295D02*
X0337388Y0186295D01*
X0343491Y0180193D01*
X0327349Y0186098D02*
X0326168Y0186295D01*
X0266168Y0166295D02*
X0264357Y0164445D01*
X0262388Y0164445D01*
X0248609Y0150665D01*
X0234829Y0150665D01*
X0228924Y0156571D01*
X0228924Y0160508D01*
X0229455Y0162319D01*
X0236955Y0167319D02*
X0236955Y0167437D01*
X0206877Y0197516D01*
X0195459Y0197516D01*
X0195459Y0187280D01*
X0191129Y0182949D01*
X0168294Y0182949D01*
X0158845Y0192398D01*
X0147388Y0192398D01*
X0147152Y0192634D01*
X0110814Y0154602D02*
X0089160Y0154602D01*
X0088058Y0155154D01*
X0082073Y0145941D02*
X0077349Y0150665D01*
X0077349Y0190823D01*
X0080892Y0194366D01*
X0087979Y0194366D01*
X0088058Y0194445D01*
X0110814Y0154602D02*
X0136404Y0129012D01*
X0262388Y0129012D01*
X0264357Y0127043D01*
X0266168Y0126295D01*
X0264357Y0134917D02*
X0266168Y0136295D01*
X0264357Y0134917D02*
X0189554Y0134917D01*
X0199396Y0147122D02*
X0158058Y0146728D01*
X0199396Y0147122D02*
X0264357Y0147122D01*
X0266168Y0146295D01*
X0256483Y0125075D02*
X0102940Y0125075D01*
X0102940Y0125469D01*
X0097034Y0131374D01*
X0097034Y0139642D01*
X0090735Y0145941D01*
X0082073Y0145941D01*
X0087113Y0115154D02*
X0087192Y0115075D01*
X0087192Y0107358D01*
X0090026Y0104524D01*
X0107507Y0104524D01*
X0108845Y0103421D01*
X0203333Y0103421D01*
X0211207Y0095547D01*
X0215144Y0095547D01*
X0217007Y0096965D01*
X0236798Y0069957D02*
X0165935Y0070302D01*
X0162371Y0070302D01*
X0159451Y0067382D01*
X0156301Y0067382D01*
X0156089Y0067594D01*
X0156089Y0064839D01*
X0156907Y0064839D01*
X0159451Y0067382D01*
X0156494Y0070339D01*
X0156101Y0070339D01*
X0156089Y0070350D02*
X0156089Y0067594D01*
X0156089Y0064839D02*
X0149003Y0071925D01*
X0112782Y0071925D01*
X0107664Y0077043D01*
X0107664Y0084366D01*
X0107507Y0084524D01*
X0106877Y0083736D01*
X0104908Y0083736D01*
X0107664Y0077043D02*
X0101759Y0077043D01*
X0094672Y0084130D01*
X0086798Y0084130D01*
X0086719Y0084051D01*
X0107507Y0104524D02*
X0106877Y0105390D01*
X0156089Y0095547D02*
X0156089Y0079799D01*
X0156089Y0075075D01*
X0156089Y0073500D01*
X0156089Y0072697D01*
X0158058Y0070729D01*
X0160017Y0070331D02*
X0162388Y0070320D01*
X0164739Y0070320D01*
X0164750Y0070308D01*
X0164750Y0071138D01*
X0156089Y0079799D01*
X0148215Y0071925D01*
X0149003Y0071925D01*
X0152546Y0071925D01*
X0154514Y0071925D02*
X0156089Y0071925D01*
X0156089Y0070350D01*
X0156089Y0071925D02*
X0156089Y0072697D01*
X0162371Y0070302D02*
X0162388Y0070320D01*
X0164750Y0070308D01*
X0165935Y0070302D01*
X0156089Y0064839D02*
X0156089Y0054209D01*
X0158007Y0053697D01*
X0156089Y0095547D02*
X0158007Y0096965D01*
X0226955Y0056177D02*
X0240735Y0042398D01*
X0276168Y0042398D01*
X0278136Y0040429D01*
X0305696Y0040429D01*
X0311207Y0045941D01*
X0311207Y0055272D01*
X0311325Y0055390D01*
X0301325Y0055390D02*
X0292703Y0055390D01*
X0290735Y0053421D01*
X0290735Y0050272D01*
X0287388Y0046925D01*
X0280105Y0046925D01*
X0280105Y0048303D01*
X0280105Y0056925D02*
X0280105Y0058146D01*
X0278136Y0058146D01*
X0274199Y0062083D01*
X0242703Y0062083D01*
X0242703Y0063618D01*
X0242703Y0064051D01*
X0236798Y0069957D01*
X0264357Y0117201D02*
X0266168Y0116295D01*
X0264357Y0117201D02*
X0256483Y0125075D01*
X0236955Y0167319D02*
X0236798Y0168382D01*
X0347231Y0068185D02*
X0352625Y0068185D01*
D19*
X0248609Y0089642D03*
X0226955Y0056177D03*
X0136404Y0062083D03*
X0136404Y0117201D03*
X0158058Y0146728D03*
X0189554Y0134917D03*
X0199396Y0147122D03*
X0238766Y0192004D03*
X0120656Y0164445D03*
D20*
X0154908Y0075075D02*
X0156089Y0075075D01*
X0156089Y0073500D02*
X0156089Y0070350D01*
X0156090Y0070345D01*
X0156093Y0070342D01*
X0156096Y0070339D01*
X0156101Y0070338D01*
X0156101Y0070339D02*
X0158448Y0070339D01*
X0158471Y0070331D02*
X0160017Y0070331D01*
X0160017Y0072309D01*
X0160016Y0072309D02*
X0160017Y0072314D01*
X0160021Y0072318D01*
X0160026Y0072319D01*
X0160026Y0073106D01*
X0160027Y0073106D02*
X0160025Y0073192D01*
X0160020Y0073278D01*
X0160010Y0073363D01*
X0159997Y0073448D01*
X0159980Y0073532D01*
X0159960Y0073616D01*
X0159936Y0073698D01*
X0159908Y0073779D01*
X0159877Y0073860D01*
X0159843Y0073938D01*
X0159805Y0074015D01*
X0159763Y0074091D01*
X0159719Y0074164D01*
X0159671Y0074235D01*
X0159620Y0074305D01*
X0159566Y0074372D01*
X0159510Y0074436D01*
X0159450Y0074498D01*
X0159388Y0074558D01*
X0159324Y0074614D01*
X0159257Y0074668D01*
X0159187Y0074719D01*
X0159116Y0074767D01*
X0159043Y0074811D01*
X0158967Y0074853D01*
X0158890Y0074891D01*
X0158812Y0074925D01*
X0158731Y0074956D01*
X0158650Y0074984D01*
X0158568Y0075008D01*
X0158484Y0075028D01*
X0158400Y0075045D01*
X0158315Y0075058D01*
X0158230Y0075068D01*
X0158144Y0075073D01*
X0158058Y0075075D01*
X0157664Y0075075D01*
X0157587Y0075073D01*
X0157510Y0075067D01*
X0157433Y0075058D01*
X0157357Y0075045D01*
X0157281Y0075028D01*
X0157207Y0075007D01*
X0157133Y0074983D01*
X0157061Y0074955D01*
X0156991Y0074924D01*
X0156922Y0074889D01*
X0156854Y0074851D01*
X0156789Y0074810D01*
X0156726Y0074765D01*
X0156665Y0074717D01*
X0156606Y0074667D01*
X0156550Y0074614D01*
X0156497Y0074558D01*
X0156447Y0074499D01*
X0156399Y0074438D01*
X0156354Y0074375D01*
X0156313Y0074310D01*
X0156275Y0074242D01*
X0156240Y0074173D01*
X0156209Y0074103D01*
X0156181Y0074031D01*
X0156157Y0073957D01*
X0156136Y0073883D01*
X0156119Y0073807D01*
X0156106Y0073731D01*
X0156097Y0073654D01*
X0156091Y0073577D01*
X0156089Y0073500D01*
X0156877Y0072713D02*
X0158058Y0072713D01*
X0156877Y0072712D02*
X0156823Y0072710D01*
X0156770Y0072705D01*
X0156717Y0072696D01*
X0156665Y0072683D01*
X0156613Y0072667D01*
X0156563Y0072647D01*
X0156515Y0072624D01*
X0156468Y0072597D01*
X0156423Y0072568D01*
X0156380Y0072535D01*
X0156340Y0072500D01*
X0156302Y0072462D01*
X0156267Y0072422D01*
X0156234Y0072379D01*
X0156205Y0072334D01*
X0156178Y0072287D01*
X0156155Y0072239D01*
X0156135Y0072189D01*
X0156119Y0072137D01*
X0156106Y0072085D01*
X0156097Y0072032D01*
X0156092Y0071979D01*
X0156090Y0071925D01*
X0154514Y0071925D02*
X0154514Y0070350D01*
X0156089Y0070350D02*
X0156087Y0070427D01*
X0156081Y0070504D01*
X0156072Y0070581D01*
X0156059Y0070657D01*
X0156042Y0070733D01*
X0156021Y0070807D01*
X0155997Y0070881D01*
X0155969Y0070953D01*
X0155938Y0071023D01*
X0155903Y0071092D01*
X0155865Y0071160D01*
X0155824Y0071225D01*
X0155779Y0071288D01*
X0155731Y0071349D01*
X0155681Y0071408D01*
X0155628Y0071464D01*
X0155572Y0071517D01*
X0155513Y0071567D01*
X0155452Y0071615D01*
X0155389Y0071660D01*
X0155324Y0071701D01*
X0155256Y0071739D01*
X0155187Y0071774D01*
X0155117Y0071805D01*
X0155045Y0071833D01*
X0154971Y0071857D01*
X0154897Y0071878D01*
X0154821Y0071895D01*
X0154745Y0071908D01*
X0154668Y0071917D01*
X0154591Y0071923D01*
X0154514Y0071925D01*
X0152546Y0071925D01*
X0153727Y0072713D02*
X0153727Y0073894D01*
X0153729Y0073960D01*
X0153734Y0074026D01*
X0153744Y0074092D01*
X0153757Y0074157D01*
X0153773Y0074221D01*
X0153793Y0074284D01*
X0153817Y0074346D01*
X0153844Y0074406D01*
X0153874Y0074465D01*
X0153908Y0074522D01*
X0153945Y0074577D01*
X0153985Y0074630D01*
X0154027Y0074681D01*
X0154073Y0074729D01*
X0154121Y0074775D01*
X0154172Y0074817D01*
X0154225Y0074857D01*
X0154280Y0074894D01*
X0154337Y0074928D01*
X0154396Y0074958D01*
X0154456Y0074985D01*
X0154518Y0075009D01*
X0154581Y0075029D01*
X0154645Y0075045D01*
X0154710Y0075058D01*
X0154776Y0075068D01*
X0154842Y0075073D01*
X0154908Y0075075D01*
X0153727Y0072713D02*
X0153729Y0072659D01*
X0153734Y0072606D01*
X0153743Y0072553D01*
X0153756Y0072501D01*
X0153772Y0072449D01*
X0153792Y0072399D01*
X0153815Y0072351D01*
X0153842Y0072304D01*
X0153871Y0072259D01*
X0153904Y0072216D01*
X0153939Y0072176D01*
X0153977Y0072138D01*
X0154017Y0072103D01*
X0154060Y0072070D01*
X0154105Y0072041D01*
X0154152Y0072014D01*
X0154200Y0071991D01*
X0154250Y0071971D01*
X0154302Y0071955D01*
X0154354Y0071942D01*
X0154407Y0071933D01*
X0154460Y0071928D01*
X0154514Y0071926D01*
X0154514Y0071925D02*
X0154475Y0071923D01*
X0154437Y0071917D01*
X0154400Y0071908D01*
X0154363Y0071895D01*
X0154328Y0071878D01*
X0154295Y0071859D01*
X0154264Y0071836D01*
X0154235Y0071810D01*
X0154209Y0071781D01*
X0154186Y0071750D01*
X0154167Y0071717D01*
X0154150Y0071682D01*
X0154137Y0071645D01*
X0154128Y0071608D01*
X0154122Y0071570D01*
X0154120Y0071531D01*
X0154121Y0071531D02*
X0154121Y0069957D01*
X0154121Y0069956D02*
X0154160Y0069958D01*
X0154198Y0069964D01*
X0154235Y0069973D01*
X0154272Y0069986D01*
X0154307Y0070003D01*
X0154340Y0070022D01*
X0154371Y0070045D01*
X0154400Y0070071D01*
X0154426Y0070100D01*
X0154449Y0070131D01*
X0154468Y0070164D01*
X0154485Y0070199D01*
X0154498Y0070236D01*
X0154507Y0070273D01*
X0154513Y0070311D01*
X0154515Y0070350D01*
X0158058Y0070729D02*
X0158058Y0070744D01*
X0158058Y0070729D02*
X0158060Y0070691D01*
X0158065Y0070653D01*
X0158075Y0070616D01*
X0158088Y0070580D01*
X0158104Y0070545D01*
X0158124Y0070512D01*
X0158147Y0070482D01*
X0158172Y0070453D01*
X0158201Y0070428D01*
X0158231Y0070405D01*
X0158264Y0070385D01*
X0158299Y0070369D01*
X0158335Y0070356D01*
X0158372Y0070346D01*
X0158410Y0070341D01*
X0158448Y0070339D01*
X0158471Y0070331D02*
X0158433Y0070333D01*
X0158395Y0070338D01*
X0158358Y0070347D01*
X0158322Y0070359D01*
X0158287Y0070374D01*
X0158254Y0070393D01*
X0158222Y0070414D01*
X0158193Y0070439D01*
X0158166Y0070466D01*
X0158141Y0070495D01*
X0158120Y0070527D01*
X0158101Y0070560D01*
X0158086Y0070595D01*
X0158074Y0070631D01*
X0158065Y0070668D01*
X0158060Y0070706D01*
X0158058Y0070744D01*
D21*
X0072307Y0055020D02*
X0072307Y0229527D01*
X0109411Y0229527D01*
X0108625Y0228740D01*
X0107164Y0226209D01*
X0106407Y0223386D01*
X0106407Y0220464D01*
X0107164Y0217641D01*
X0108625Y0215110D01*
X0110691Y0213044D01*
X0113222Y0211582D01*
X0116045Y0210826D01*
X0118968Y0210826D01*
X0121791Y0211582D01*
X0124322Y0213044D01*
X0126388Y0215110D01*
X0127849Y0217641D01*
X0128606Y0220464D01*
X0128606Y0223386D01*
X0127849Y0226209D01*
X0126388Y0228740D01*
X0125602Y0229527D01*
X0262753Y0229527D01*
X0262583Y0229357D01*
X0262148Y0228759D01*
X0261812Y0228099D01*
X0261584Y0227396D01*
X0261468Y0226665D01*
X0261468Y0226445D01*
X0266018Y0226445D01*
X0266018Y0226145D01*
X0266318Y0226145D01*
X0266318Y0221595D01*
X0266538Y0221595D01*
X0267269Y0221711D01*
X0267972Y0221940D01*
X0268631Y0222275D01*
X0269230Y0222710D01*
X0269753Y0223233D01*
X0270188Y0223832D01*
X0270524Y0224491D01*
X0270752Y0225195D01*
X0270868Y0225925D01*
X0270868Y0226145D01*
X0266318Y0226145D01*
X0266318Y0226445D01*
X0270868Y0226445D01*
X0270868Y0226665D01*
X0270752Y0227396D01*
X0270524Y0228099D01*
X0270188Y0228759D01*
X0269753Y0229357D01*
X0269583Y0229527D01*
X0322753Y0229527D01*
X0322184Y0228958D01*
X0321468Y0227230D01*
X0321468Y0225360D01*
X0322184Y0223633D01*
X0323506Y0222311D01*
X0325233Y0221595D01*
X0327103Y0221595D01*
X0328830Y0222311D01*
X0330152Y0223633D01*
X0330868Y0225360D01*
X0330868Y0227230D01*
X0330152Y0228958D01*
X0329583Y0229527D01*
X0346813Y0229527D01*
X0346027Y0228740D01*
X0344565Y0226209D01*
X0343809Y0223386D01*
X0343809Y0220464D01*
X0344565Y0217641D01*
X0346027Y0215110D01*
X0348093Y0213044D01*
X0350624Y0211582D01*
X0353447Y0210826D01*
X0356369Y0210826D01*
X0359192Y0211582D01*
X0361723Y0213044D01*
X0362628Y0213948D01*
X0362628Y0055099D01*
X0361723Y0056004D01*
X0359192Y0057465D01*
X0356369Y0058221D01*
X0353447Y0058221D01*
X0350624Y0057465D01*
X0348093Y0056004D01*
X0346027Y0053937D01*
X0344565Y0051406D01*
X0343809Y0048583D01*
X0343809Y0045661D01*
X0344565Y0042838D01*
X0346027Y0040307D01*
X0347037Y0039297D01*
X0308826Y0039247D01*
X0312935Y0043355D01*
X0313793Y0044213D01*
X0314257Y0045334D01*
X0314257Y0048533D01*
X0315395Y0049671D01*
X0316125Y0051435D01*
X0316125Y0059345D01*
X0315395Y0061109D01*
X0314044Y0062459D01*
X0312280Y0063190D01*
X0310371Y0063190D01*
X0308606Y0062459D01*
X0307256Y0061109D01*
X0306525Y0059345D01*
X0306525Y0051435D01*
X0307256Y0049671D01*
X0308157Y0048770D01*
X0308157Y0047204D01*
X0304432Y0043479D01*
X0282881Y0043479D01*
X0283277Y0043875D01*
X0287995Y0043875D01*
X0289116Y0044340D01*
X0292463Y0047686D01*
X0293321Y0048544D01*
X0293785Y0049665D01*
X0293785Y0052158D01*
X0293967Y0052340D01*
X0296525Y0052340D01*
X0296525Y0051435D01*
X0297256Y0049671D01*
X0298606Y0048321D01*
X0300371Y0047590D01*
X0302280Y0047590D01*
X0304044Y0048321D01*
X0305395Y0049671D01*
X0306125Y0051435D01*
X0306125Y0059345D01*
X0305395Y0061109D01*
X0304044Y0062459D01*
X0302280Y0063190D01*
X0300371Y0063190D01*
X0298606Y0062459D01*
X0297256Y0061109D01*
X0296525Y0059345D01*
X0296525Y0058440D01*
X0292097Y0058440D01*
X0290976Y0057975D01*
X0290118Y0057117D01*
X0288149Y0055149D01*
X0287685Y0054028D01*
X0287685Y0051535D01*
X0286125Y0049975D01*
X0283277Y0049975D01*
X0281928Y0051325D01*
X0280779Y0051325D01*
X0280712Y0051353D01*
X0279498Y0051353D01*
X0279431Y0051325D01*
X0278282Y0051325D01*
X0275705Y0048748D01*
X0275705Y0045448D01*
X0241998Y0045448D01*
X0230755Y0056691D01*
X0230755Y0056933D01*
X0230177Y0058330D01*
X0229108Y0059399D01*
X0227711Y0059977D01*
X0226199Y0059977D01*
X0224803Y0059399D01*
X0223734Y0058330D01*
X0223155Y0056933D01*
X0223155Y0055421D01*
X0223734Y0054025D01*
X0224803Y0052956D01*
X0226199Y0052377D01*
X0226442Y0052377D01*
X0238149Y0040670D01*
X0239007Y0039812D01*
X0240128Y0039348D01*
X0274905Y0039348D01*
X0275050Y0039202D01*
X0109029Y0038984D01*
X0110735Y0039691D01*
X0112339Y0041295D01*
X0113207Y0043390D01*
X0113207Y0045657D01*
X0112339Y0047752D01*
X0110735Y0049356D01*
X0108640Y0050224D01*
X0106373Y0050224D01*
X0104278Y0049356D01*
X0102674Y0047752D01*
X0101807Y0045657D01*
X0101807Y0043390D01*
X0102674Y0041295D01*
X0104278Y0039691D01*
X0105994Y0038980D01*
X0087636Y0038956D01*
X0088987Y0040307D01*
X0090448Y0042838D01*
X0091204Y0045661D01*
X0091204Y0048583D01*
X0090448Y0051406D01*
X0088987Y0053937D01*
X0086920Y0056004D01*
X0084389Y0057465D01*
X0081566Y0058221D01*
X0078644Y0058221D01*
X0075821Y0057465D01*
X0073290Y0056004D01*
X0072307Y0055020D01*
X0072307Y0055304D02*
X0072591Y0055304D01*
X0072307Y0056903D02*
X0074847Y0056903D01*
X0072307Y0058501D02*
X0153039Y0058501D01*
X0153039Y0056903D02*
X0085363Y0056903D01*
X0087619Y0055304D02*
X0153039Y0055304D01*
X0153039Y0054609D02*
X0152986Y0054409D01*
X0153039Y0054007D01*
X0153039Y0053602D01*
X0153118Y0053411D01*
X0153145Y0053206D01*
X0153207Y0053101D01*
X0153207Y0051709D01*
X0156018Y0048897D01*
X0159995Y0048897D01*
X0162807Y0051709D01*
X0162807Y0055685D01*
X0159995Y0058497D01*
X0159139Y0058497D01*
X0159139Y0062757D01*
X0161179Y0064797D01*
X0162037Y0065655D01*
X0163634Y0067252D01*
X0165927Y0067252D01*
X0235528Y0066913D01*
X0238303Y0064138D01*
X0238303Y0061796D01*
X0240881Y0059218D01*
X0241649Y0059218D01*
X0242097Y0059033D01*
X0272936Y0059033D01*
X0275551Y0056418D01*
X0275705Y0056264D01*
X0275705Y0055103D01*
X0278282Y0052525D01*
X0281928Y0052525D01*
X0284505Y0055103D01*
X0284505Y0058748D01*
X0281928Y0061325D01*
X0279270Y0061325D01*
X0275927Y0064668D01*
X0274806Y0065133D01*
X0247103Y0065133D01*
X0247103Y0065441D01*
X0244526Y0068018D01*
X0243050Y0068018D01*
X0238960Y0072108D01*
X0238538Y0072534D01*
X0238531Y0072537D01*
X0238526Y0072542D01*
X0237973Y0072771D01*
X0237419Y0073004D01*
X0237412Y0073004D01*
X0237405Y0073007D01*
X0236807Y0073007D01*
X0166854Y0073348D01*
X0159139Y0081063D01*
X0159139Y0092165D01*
X0159995Y0092165D01*
X0162807Y0094976D01*
X0162807Y0098953D01*
X0161388Y0100371D01*
X0202070Y0100371D01*
X0208622Y0093820D01*
X0209480Y0092962D01*
X0210601Y0092497D01*
X0214686Y0092497D01*
X0215018Y0092165D01*
X0218995Y0092165D01*
X0221807Y0094976D01*
X0221807Y0098953D01*
X0218995Y0101765D01*
X0215018Y0101765D01*
X0212207Y0098953D01*
X0212207Y0098861D01*
X0205061Y0106007D01*
X0203940Y0106471D01*
X0112869Y0106471D01*
X0112339Y0107752D01*
X0110735Y0109356D01*
X0108640Y0110224D01*
X0106373Y0110224D01*
X0104278Y0109356D01*
X0102674Y0107752D01*
X0102600Y0107574D01*
X0091290Y0107574D01*
X0090242Y0108622D01*
X0090242Y0109654D01*
X0091558Y0109654D01*
X0092613Y0110708D01*
X0092613Y0119599D01*
X0091558Y0120654D01*
X0090391Y0120654D01*
X0091776Y0122038D01*
X0092613Y0124060D01*
X0092613Y0126248D01*
X0091776Y0128269D01*
X0090228Y0129816D01*
X0089414Y0130154D01*
X0090228Y0130491D01*
X0091776Y0132038D01*
X0092613Y0134060D01*
X0092613Y0136248D01*
X0091776Y0138269D01*
X0090228Y0139816D01*
X0088207Y0140654D01*
X0086019Y0140654D01*
X0083997Y0139816D01*
X0082450Y0138269D01*
X0081613Y0136248D01*
X0081613Y0134060D01*
X0082450Y0132038D01*
X0083997Y0130491D01*
X0084812Y0130154D01*
X0083997Y0129816D01*
X0082450Y0128269D01*
X0081613Y0126248D01*
X0081613Y0124060D01*
X0082450Y0122038D01*
X0083835Y0120654D01*
X0082667Y0120654D01*
X0081613Y0119599D01*
X0081613Y0110708D01*
X0082667Y0109654D01*
X0072307Y0109654D01*
X0072307Y0111252D02*
X0081613Y0111252D01*
X0081613Y0112851D02*
X0072307Y0112851D01*
X0072307Y0114449D02*
X0081613Y0114449D01*
X0081613Y0116048D02*
X0072307Y0116048D01*
X0072307Y0117646D02*
X0081613Y0117646D01*
X0081613Y0119245D02*
X0072307Y0119245D01*
X0072307Y0120843D02*
X0083645Y0120843D01*
X0082283Y0122442D02*
X0072307Y0122442D01*
X0072307Y0124040D02*
X0081621Y0124040D01*
X0081613Y0125639D02*
X0072307Y0125639D01*
X0072307Y0127237D02*
X0082023Y0127237D01*
X0083017Y0128836D02*
X0072307Y0128836D01*
X0072307Y0130434D02*
X0084134Y0130434D01*
X0082455Y0132033D02*
X0072307Y0132033D01*
X0072307Y0133631D02*
X0081790Y0133631D01*
X0081613Y0135230D02*
X0072307Y0135230D01*
X0072307Y0136828D02*
X0081853Y0136828D01*
X0082608Y0138427D02*
X0072307Y0138427D01*
X0072307Y0140025D02*
X0084502Y0140025D01*
X0081467Y0142891D02*
X0089472Y0142891D01*
X0093984Y0138378D01*
X0093984Y0130767D01*
X0094448Y0129646D01*
X0095306Y0128788D01*
X0100076Y0124019D01*
X0100354Y0123347D01*
X0101212Y0122489D01*
X0102333Y0122025D01*
X0255220Y0122025D01*
X0261468Y0115776D01*
X0261468Y0115360D01*
X0262184Y0113633D01*
X0263506Y0112311D01*
X0265233Y0111595D01*
X0267103Y0111595D01*
X0268830Y0112311D01*
X0270152Y0113633D01*
X0270868Y0115360D01*
X0270868Y0117230D01*
X0270152Y0118958D01*
X0268830Y0120280D01*
X0267103Y0120995D01*
X0265233Y0120995D01*
X0264980Y0120891D01*
X0263599Y0122272D01*
X0265233Y0121595D01*
X0267103Y0121595D01*
X0268830Y0122311D01*
X0270152Y0123633D01*
X0270868Y0125360D01*
X0270868Y0127230D01*
X0270152Y0128958D01*
X0268830Y0130280D01*
X0267103Y0130995D01*
X0265233Y0130995D01*
X0264869Y0130844D01*
X0264116Y0131597D01*
X0263465Y0131867D01*
X0264151Y0131867D01*
X0264548Y0131813D01*
X0264645Y0131839D01*
X0265233Y0131595D01*
X0267103Y0131595D01*
X0268830Y0132311D01*
X0270152Y0133633D01*
X0270868Y0135360D01*
X0270868Y0137230D01*
X0270152Y0138958D01*
X0268830Y0140280D01*
X0267103Y0140995D01*
X0265233Y0140995D01*
X0263506Y0140280D01*
X0262184Y0138958D01*
X0261773Y0137967D01*
X0191878Y0137967D01*
X0191706Y0138139D01*
X0190310Y0138717D01*
X0188798Y0138717D01*
X0187401Y0138139D01*
X0186332Y0137070D01*
X0185754Y0135673D01*
X0185754Y0134161D01*
X0186332Y0132765D01*
X0187035Y0132062D01*
X0137668Y0132062D01*
X0113399Y0156330D01*
X0112541Y0157188D01*
X0111420Y0157652D01*
X0093558Y0157652D01*
X0093558Y0159599D01*
X0092503Y0160654D01*
X0091336Y0160654D01*
X0092720Y0162038D01*
X0093558Y0164060D01*
X0093558Y0166248D01*
X0092720Y0168269D01*
X0091173Y0169816D01*
X0090359Y0170153D01*
X0090940Y0170450D01*
X0091641Y0170958D01*
X0092253Y0171571D01*
X0092762Y0172271D01*
X0093155Y0173042D01*
X0093422Y0173866D01*
X0093558Y0174721D01*
X0093558Y0174954D01*
X0088258Y0174954D01*
X0088258Y0175354D01*
X0087858Y0175354D01*
X0087858Y0180654D01*
X0087625Y0180654D01*
X0086770Y0180518D01*
X0085946Y0180251D01*
X0085175Y0179858D01*
X0084475Y0179349D01*
X0083863Y0178737D01*
X0083354Y0178036D01*
X0082961Y0177265D01*
X0082693Y0176441D01*
X0082558Y0175586D01*
X0082558Y0175354D01*
X0087858Y0175354D01*
X0087858Y0174954D01*
X0082558Y0174954D01*
X0082558Y0174721D01*
X0082693Y0173866D01*
X0082961Y0173042D01*
X0083354Y0172271D01*
X0083863Y0171571D01*
X0084475Y0170958D01*
X0085175Y0170450D01*
X0085756Y0170153D01*
X0084942Y0169816D01*
X0083395Y0168269D01*
X0082558Y0166248D01*
X0082558Y0164060D01*
X0083395Y0162038D01*
X0084780Y0160654D01*
X0083612Y0160654D01*
X0082558Y0159599D01*
X0082558Y0150708D01*
X0083612Y0149654D01*
X0092503Y0149654D01*
X0093558Y0150708D01*
X0093558Y0151552D01*
X0109550Y0151552D01*
X0132978Y0128125D01*
X0104597Y0128125D01*
X0100084Y0132637D01*
X0100084Y0140248D01*
X0099620Y0141369D01*
X0093321Y0147669D01*
X0092463Y0148527D01*
X0091342Y0148991D01*
X0083337Y0148991D01*
X0080399Y0151929D01*
X0080399Y0189559D01*
X0082156Y0191316D01*
X0082558Y0191316D01*
X0082558Y0189999D01*
X0083612Y0188945D01*
X0092503Y0188945D01*
X0093558Y0189999D01*
X0093558Y0198890D01*
X0092503Y0199945D01*
X0091336Y0199945D01*
X0092720Y0201329D01*
X0093558Y0203351D01*
X0093558Y0205539D01*
X0092720Y0207560D01*
X0091173Y0209108D01*
X0090359Y0209445D01*
X0090940Y0209741D01*
X0091641Y0210250D01*
X0092253Y0210862D01*
X0092762Y0211562D01*
X0093155Y0212334D01*
X0093422Y0213157D01*
X0093558Y0214012D01*
X0093558Y0214245D01*
X0088258Y0214245D01*
X0088258Y0214645D01*
X0093558Y0214645D01*
X0093558Y0214878D01*
X0093422Y0215733D01*
X0093155Y0216556D01*
X0092762Y0217328D01*
X0092253Y0218028D01*
X0091641Y0218640D01*
X0090940Y0219149D01*
X0090169Y0219542D01*
X0089346Y0219809D01*
X0088491Y0219945D01*
X0088258Y0219945D01*
X0088258Y0214645D01*
X0087858Y0214645D01*
X0087858Y0219945D01*
X0087625Y0219945D01*
X0086770Y0219809D01*
X0085946Y0219542D01*
X0085175Y0219149D01*
X0084475Y0218640D01*
X0083863Y0218028D01*
X0083354Y0217328D01*
X0082961Y0216556D01*
X0082693Y0215733D01*
X0082558Y0214878D01*
X0082558Y0214645D01*
X0087858Y0214645D01*
X0087858Y0214245D01*
X0082558Y0214245D01*
X0082558Y0214012D01*
X0082693Y0213157D01*
X0082961Y0212334D01*
X0083354Y0211562D01*
X0083863Y0210862D01*
X0084475Y0210250D01*
X0085175Y0209741D01*
X0085756Y0209445D01*
X0084942Y0209108D01*
X0083395Y0207560D01*
X0082558Y0205539D01*
X0082558Y0203351D01*
X0083395Y0201329D01*
X0084780Y0199945D01*
X0083612Y0199945D01*
X0082558Y0198890D01*
X0082558Y0197416D01*
X0080286Y0197416D01*
X0079165Y0196952D01*
X0078307Y0196094D01*
X0074763Y0192551D01*
X0074299Y0191430D01*
X0074299Y0150059D01*
X0074763Y0148938D01*
X0080346Y0143355D01*
X0081467Y0142891D01*
X0080667Y0143222D02*
X0072307Y0143222D01*
X0072307Y0141624D02*
X0090739Y0141624D01*
X0089723Y0140025D02*
X0092337Y0140025D01*
X0091618Y0138427D02*
X0093936Y0138427D01*
X0093984Y0136828D02*
X0092372Y0136828D01*
X0092613Y0135230D02*
X0093984Y0135230D01*
X0093984Y0133631D02*
X0092435Y0133631D01*
X0091770Y0132033D02*
X0093984Y0132033D01*
X0094122Y0130434D02*
X0090092Y0130434D01*
X0091209Y0128836D02*
X0095259Y0128836D01*
X0096857Y0127237D02*
X0092203Y0127237D01*
X0092613Y0125639D02*
X0098456Y0125639D01*
X0100055Y0124040D02*
X0092605Y0124040D01*
X0091943Y0122442D02*
X0101326Y0122442D01*
X0103886Y0128836D02*
X0132267Y0128836D01*
X0130668Y0130434D02*
X0102287Y0130434D01*
X0100689Y0132033D02*
X0129070Y0132033D01*
X0127471Y0133631D02*
X0100084Y0133631D01*
X0100084Y0135230D02*
X0125873Y0135230D01*
X0124274Y0136828D02*
X0100084Y0136828D01*
X0100084Y0138427D02*
X0122676Y0138427D01*
X0121077Y0140025D02*
X0111069Y0140025D01*
X0110735Y0139691D02*
X0112339Y0141295D01*
X0113207Y0143390D01*
X0113207Y0145657D01*
X0112339Y0147752D01*
X0110735Y0149356D01*
X0108640Y0150224D01*
X0106373Y0150224D01*
X0104278Y0149356D01*
X0102674Y0147752D01*
X0101807Y0145657D01*
X0101807Y0143390D01*
X0102674Y0141295D01*
X0104278Y0139691D01*
X0106373Y0138824D01*
X0108640Y0138824D01*
X0110735Y0139691D01*
X0112475Y0141624D02*
X0119479Y0141624D01*
X0117880Y0143222D02*
X0113137Y0143222D01*
X0113207Y0144821D02*
X0116282Y0144821D01*
X0114683Y0146419D02*
X0112891Y0146419D01*
X0113085Y0148018D02*
X0112073Y0148018D01*
X0111486Y0149616D02*
X0110106Y0149616D01*
X0109888Y0151215D02*
X0093558Y0151215D01*
X0092971Y0148018D02*
X0102940Y0148018D01*
X0102122Y0146419D02*
X0094570Y0146419D01*
X0096168Y0144821D02*
X0101807Y0144821D01*
X0101876Y0143222D02*
X0097767Y0143222D01*
X0099365Y0141624D02*
X0102538Y0141624D01*
X0103944Y0140025D02*
X0100084Y0140025D01*
X0104907Y0149616D02*
X0082711Y0149616D01*
X0082558Y0151215D02*
X0081113Y0151215D01*
X0080399Y0152813D02*
X0082558Y0152813D01*
X0082558Y0154412D02*
X0080399Y0154412D01*
X0080399Y0156010D02*
X0082558Y0156010D01*
X0082558Y0157609D02*
X0080399Y0157609D01*
X0080399Y0159208D02*
X0082558Y0159208D01*
X0084627Y0160806D02*
X0080399Y0160806D01*
X0080399Y0162405D02*
X0083243Y0162405D01*
X0082581Y0164003D02*
X0080399Y0164003D01*
X0080399Y0165602D02*
X0082558Y0165602D01*
X0082952Y0167200D02*
X0080399Y0167200D01*
X0080399Y0168799D02*
X0083925Y0168799D01*
X0085278Y0170397D02*
X0080399Y0170397D01*
X0080399Y0171996D02*
X0083554Y0171996D01*
X0082781Y0173594D02*
X0080399Y0173594D01*
X0080399Y0175193D02*
X0087858Y0175193D01*
X0088258Y0175193D02*
X0224886Y0175193D01*
X0223288Y0176791D02*
X0093309Y0176791D01*
X0093422Y0176441D02*
X0093155Y0177265D01*
X0092762Y0178036D01*
X0092253Y0178737D01*
X0091641Y0179349D01*
X0090940Y0179858D01*
X0090169Y0180251D01*
X0089346Y0180518D01*
X0088491Y0180654D01*
X0088258Y0180654D01*
X0088258Y0175354D01*
X0093558Y0175354D01*
X0093558Y0175586D01*
X0093422Y0176441D01*
X0092505Y0178390D02*
X0221689Y0178390D01*
X0220091Y0179988D02*
X0191951Y0179988D01*
X0191735Y0179899D02*
X0192856Y0180363D01*
X0193714Y0181221D01*
X0198045Y0185552D01*
X0198509Y0186673D01*
X0198509Y0190991D01*
X0200929Y0190991D01*
X0201984Y0192046D01*
X0201984Y0194466D01*
X0205613Y0194466D01*
X0232555Y0167524D01*
X0232555Y0165496D01*
X0235133Y0162919D01*
X0238778Y0162919D01*
X0241355Y0165496D01*
X0241355Y0169141D01*
X0238778Y0171719D01*
X0236987Y0171719D01*
X0209462Y0199243D01*
X0208604Y0200101D01*
X0207483Y0200566D01*
X0201984Y0200566D01*
X0201984Y0202986D01*
X0200929Y0204040D01*
X0189989Y0204040D01*
X0188935Y0202986D01*
X0188935Y0192046D01*
X0189989Y0190991D01*
X0192409Y0190991D01*
X0192409Y0188543D01*
X0189865Y0185999D01*
X0169557Y0185999D01*
X0161431Y0194125D01*
X0160573Y0194983D01*
X0159452Y0195448D01*
X0148329Y0195448D01*
X0147759Y0195684D01*
X0146546Y0195684D01*
X0145425Y0195220D01*
X0144567Y0194362D01*
X0144102Y0193241D01*
X0144102Y0192027D01*
X0144567Y0190906D01*
X0144803Y0190670D01*
X0145661Y0189812D01*
X0146782Y0189348D01*
X0157582Y0189348D01*
X0166566Y0180363D01*
X0167687Y0179899D01*
X0191735Y0179899D01*
X0194080Y0181587D02*
X0218492Y0181587D01*
X0216894Y0183185D02*
X0195678Y0183185D01*
X0197277Y0184784D02*
X0215295Y0184784D01*
X0213697Y0186382D02*
X0198389Y0186382D01*
X0198509Y0187981D02*
X0212098Y0187981D01*
X0210500Y0189579D02*
X0198509Y0189579D01*
X0201116Y0191178D02*
X0208901Y0191178D01*
X0207303Y0192776D02*
X0201984Y0192776D01*
X0201984Y0194375D02*
X0205704Y0194375D01*
X0209535Y0199170D02*
X0262396Y0199170D01*
X0262184Y0198958D02*
X0261468Y0197230D01*
X0261468Y0195360D01*
X0262184Y0193633D01*
X0263506Y0192311D01*
X0265233Y0191595D01*
X0267103Y0191595D01*
X0268830Y0192311D01*
X0270152Y0193633D01*
X0270868Y0195360D01*
X0270868Y0197230D01*
X0270152Y0198958D01*
X0268830Y0200280D01*
X0267103Y0200995D01*
X0265233Y0200995D01*
X0263506Y0200280D01*
X0262184Y0198958D01*
X0261609Y0197572D02*
X0211134Y0197572D01*
X0212732Y0195973D02*
X0261468Y0195973D01*
X0261876Y0194375D02*
X0214331Y0194375D01*
X0215929Y0192776D02*
X0263040Y0192776D01*
X0263506Y0190280D02*
X0265233Y0190995D01*
X0267103Y0190995D01*
X0268830Y0190280D01*
X0270152Y0188958D01*
X0270868Y0187230D01*
X0270868Y0185360D01*
X0270152Y0183633D01*
X0268830Y0182311D01*
X0267103Y0181595D01*
X0265233Y0181595D01*
X0263506Y0182311D01*
X0262184Y0183633D01*
X0261468Y0185360D01*
X0261468Y0187230D01*
X0262184Y0188958D01*
X0263506Y0190280D01*
X0262805Y0189579D02*
X0219127Y0189579D01*
X0220725Y0187981D02*
X0261779Y0187981D01*
X0261468Y0186382D02*
X0222324Y0186382D01*
X0223922Y0184784D02*
X0261707Y0184784D01*
X0262631Y0183185D02*
X0225521Y0183185D01*
X0227119Y0181587D02*
X0337784Y0181587D01*
X0336185Y0183185D02*
X0329705Y0183185D01*
X0329765Y0183245D02*
X0336125Y0183245D01*
X0340441Y0178930D01*
X0340441Y0147303D01*
X0340905Y0146182D01*
X0341763Y0145324D01*
X0346645Y0140442D01*
X0347518Y0140080D01*
X0347518Y0138582D01*
X0348573Y0137528D01*
X0357464Y0137528D01*
X0358518Y0138582D01*
X0358518Y0147473D01*
X0357464Y0148528D01*
X0356297Y0148528D01*
X0357681Y0149912D01*
X0358518Y0151934D01*
X0358518Y0154122D01*
X0357681Y0156143D01*
X0356134Y0157690D01*
X0355320Y0158027D01*
X0355901Y0158324D01*
X0356601Y0158832D01*
X0357214Y0159445D01*
X0357722Y0160145D01*
X0358115Y0160916D01*
X0358383Y0161740D01*
X0358518Y0162595D01*
X0358518Y0162828D01*
X0353218Y0162828D01*
X0353218Y0163228D01*
X0352818Y0163228D01*
X0352818Y0168528D01*
X0352585Y0168528D01*
X0351730Y0168392D01*
X0350907Y0168125D01*
X0350136Y0167732D01*
X0349435Y0167223D01*
X0348823Y0166611D01*
X0348314Y0165910D01*
X0347921Y0165139D01*
X0347654Y0164315D01*
X0347518Y0163460D01*
X0347518Y0163228D01*
X0352818Y0163228D01*
X0352818Y0162828D01*
X0347518Y0162828D01*
X0347518Y0162595D01*
X0347654Y0161740D01*
X0347921Y0160916D01*
X0348314Y0160145D01*
X0348823Y0159445D01*
X0349435Y0158832D01*
X0350136Y0158324D01*
X0350717Y0158027D01*
X0349903Y0157690D01*
X0348356Y0156143D01*
X0347518Y0154122D01*
X0347518Y0151934D01*
X0348356Y0149912D01*
X0349740Y0148528D01*
X0348573Y0148528D01*
X0347879Y0147834D01*
X0346541Y0149173D01*
X0346541Y0180800D01*
X0346076Y0181921D01*
X0345218Y0182779D01*
X0339116Y0188881D01*
X0337995Y0189345D01*
X0329765Y0189345D01*
X0328830Y0190280D01*
X0327103Y0190995D01*
X0325233Y0190995D01*
X0323506Y0190280D01*
X0322184Y0188958D01*
X0321468Y0187230D01*
X0321468Y0185360D01*
X0322184Y0183633D01*
X0323506Y0182311D01*
X0325233Y0181595D01*
X0327103Y0181595D01*
X0328830Y0182311D01*
X0329765Y0183245D01*
X0328830Y0180280D02*
X0327103Y0180995D01*
X0325233Y0180995D01*
X0323506Y0180280D01*
X0322184Y0178958D01*
X0321468Y0177230D01*
X0321468Y0175360D01*
X0322184Y0173633D01*
X0323506Y0172311D01*
X0325233Y0171595D01*
X0327103Y0171595D01*
X0328830Y0172311D01*
X0330152Y0173633D01*
X0330868Y0175360D01*
X0330868Y0177230D01*
X0330152Y0178958D01*
X0328830Y0180280D01*
X0329122Y0179988D02*
X0339382Y0179988D01*
X0340441Y0178390D02*
X0330388Y0178390D01*
X0330868Y0176791D02*
X0340441Y0176791D01*
X0340441Y0175193D02*
X0330798Y0175193D01*
X0330114Y0173594D02*
X0340441Y0173594D01*
X0340441Y0171996D02*
X0328069Y0171996D01*
X0327103Y0170995D02*
X0325233Y0170995D01*
X0323506Y0170280D01*
X0322184Y0168958D01*
X0321468Y0167230D01*
X0321468Y0165360D01*
X0322184Y0163633D01*
X0323506Y0162311D01*
X0325233Y0161595D01*
X0326109Y0161595D01*
X0326327Y0161547D01*
X0326879Y0160995D01*
X0325233Y0160995D01*
X0323506Y0160280D01*
X0322184Y0158958D01*
X0321468Y0157230D01*
X0321468Y0155360D01*
X0322184Y0153633D01*
X0323506Y0152311D01*
X0325233Y0151595D01*
X0327103Y0151595D01*
X0328830Y0152311D01*
X0330152Y0153633D01*
X0330868Y0155360D01*
X0330868Y0157006D01*
X0334142Y0153733D01*
X0334142Y0077618D01*
X0334606Y0076497D01*
X0345503Y0065599D01*
X0346624Y0065135D01*
X0347125Y0065135D01*
X0347125Y0063739D01*
X0348179Y0062685D01*
X0357070Y0062685D01*
X0358125Y0063739D01*
X0358125Y0072631D01*
X0357070Y0073685D01*
X0355903Y0073685D01*
X0357287Y0075070D01*
X0358125Y0077091D01*
X0358125Y0079279D01*
X0357287Y0081301D01*
X0355740Y0082848D01*
X0354926Y0083185D01*
X0355507Y0083481D01*
X0356208Y0083990D01*
X0356820Y0084602D01*
X0357329Y0085302D01*
X0357722Y0086074D01*
X0357989Y0086897D01*
X0358125Y0087752D01*
X0358125Y0087985D01*
X0352825Y0087985D01*
X0352825Y0088385D01*
X0358125Y0088385D01*
X0358125Y0088618D01*
X0357989Y0089473D01*
X0357722Y0090296D01*
X0357329Y0091068D01*
X0356820Y0091768D01*
X0356208Y0092380D01*
X0355507Y0092889D01*
X0354736Y0093282D01*
X0353913Y0093550D01*
X0353058Y0093685D01*
X0352825Y0093685D01*
X0352825Y0088385D01*
X0352425Y0088385D01*
X0352425Y0093685D01*
X0352192Y0093685D01*
X0351337Y0093550D01*
X0350513Y0093282D01*
X0349742Y0092889D01*
X0349042Y0092380D01*
X0348430Y0091768D01*
X0347921Y0091068D01*
X0347528Y0090296D01*
X0347260Y0089473D01*
X0347125Y0088618D01*
X0347125Y0088385D01*
X0352425Y0088385D01*
X0352425Y0087985D01*
X0347125Y0087985D01*
X0347125Y0087752D01*
X0347260Y0086897D01*
X0347528Y0086074D01*
X0347921Y0085302D01*
X0348430Y0084602D01*
X0349042Y0083990D01*
X0349742Y0083481D01*
X0350323Y0083185D01*
X0349509Y0082848D01*
X0347962Y0081301D01*
X0347125Y0079279D01*
X0347125Y0077091D01*
X0347962Y0075070D01*
X0349347Y0073685D01*
X0348179Y0073685D01*
X0347125Y0072631D01*
X0347125Y0072605D01*
X0340242Y0079488D01*
X0340242Y0155603D01*
X0339777Y0156724D01*
X0338919Y0157582D01*
X0330868Y0165633D01*
X0330868Y0167230D01*
X0330152Y0168958D01*
X0328830Y0170280D01*
X0327103Y0170995D01*
X0328547Y0170397D02*
X0340441Y0170397D01*
X0340441Y0168799D02*
X0330218Y0168799D01*
X0330868Y0167200D02*
X0340441Y0167200D01*
X0340441Y0165602D02*
X0330899Y0165602D01*
X0332498Y0164003D02*
X0340441Y0164003D01*
X0340441Y0162405D02*
X0334096Y0162405D01*
X0335695Y0160806D02*
X0340441Y0160806D01*
X0340441Y0159208D02*
X0337293Y0159208D01*
X0338892Y0157609D02*
X0340441Y0157609D01*
X0340441Y0156010D02*
X0340073Y0156010D01*
X0340242Y0154412D02*
X0340441Y0154412D01*
X0340441Y0152813D02*
X0340242Y0152813D01*
X0340242Y0151215D02*
X0340441Y0151215D01*
X0340441Y0149616D02*
X0340242Y0149616D01*
X0340242Y0148018D02*
X0340441Y0148018D01*
X0340242Y0146419D02*
X0340807Y0146419D01*
X0340242Y0144821D02*
X0342266Y0144821D01*
X0343865Y0143222D02*
X0340242Y0143222D01*
X0340242Y0141624D02*
X0345463Y0141624D01*
X0347518Y0140025D02*
X0340242Y0140025D01*
X0340242Y0138427D02*
X0347673Y0138427D01*
X0340242Y0136828D02*
X0362628Y0136828D01*
X0362628Y0135230D02*
X0340242Y0135230D01*
X0340242Y0133631D02*
X0362628Y0133631D01*
X0362628Y0132033D02*
X0340242Y0132033D01*
X0340242Y0130434D02*
X0349737Y0130434D01*
X0349435Y0130215D02*
X0348823Y0129603D01*
X0348314Y0128902D01*
X0347921Y0128131D01*
X0347654Y0127308D01*
X0347518Y0126453D01*
X0347518Y0126220D01*
X0352818Y0126220D01*
X0352818Y0125820D01*
X0347518Y0125820D01*
X0347518Y0125587D01*
X0347654Y0124732D01*
X0347921Y0123908D01*
X0348314Y0123137D01*
X0348823Y0122437D01*
X0349435Y0121825D01*
X0350136Y0121316D01*
X0350717Y0121020D01*
X0349903Y0120682D01*
X0348356Y0119135D01*
X0347518Y0117114D01*
X0347518Y0114926D01*
X0348356Y0112904D01*
X0349740Y0111520D01*
X0348573Y0111520D01*
X0347518Y0110465D01*
X0347518Y0101574D01*
X0348573Y0100520D01*
X0357464Y0100520D01*
X0358518Y0101574D01*
X0358518Y0110465D01*
X0357464Y0111520D01*
X0356297Y0111520D01*
X0357681Y0112904D01*
X0358518Y0114926D01*
X0358518Y0117114D01*
X0357681Y0119135D01*
X0356134Y0120682D01*
X0355320Y0121020D01*
X0355901Y0121316D01*
X0356601Y0121825D01*
X0357214Y0122437D01*
X0357722Y0123137D01*
X0358115Y0123908D01*
X0358383Y0124732D01*
X0358518Y0125587D01*
X0358518Y0125820D01*
X0353218Y0125820D01*
X0353218Y0126220D01*
X0352818Y0126220D01*
X0352818Y0131520D01*
X0352585Y0131520D01*
X0351730Y0131384D01*
X0350907Y0131117D01*
X0350136Y0130724D01*
X0349435Y0130215D01*
X0348280Y0128836D02*
X0340242Y0128836D01*
X0340242Y0127237D02*
X0347643Y0127237D01*
X0347518Y0125639D02*
X0340242Y0125639D01*
X0340242Y0124040D02*
X0347878Y0124040D01*
X0348820Y0122442D02*
X0340242Y0122442D01*
X0340242Y0120843D02*
X0350291Y0120843D01*
X0348465Y0119245D02*
X0340242Y0119245D01*
X0340242Y0117646D02*
X0347739Y0117646D01*
X0347518Y0116048D02*
X0340242Y0116048D01*
X0340242Y0114449D02*
X0347716Y0114449D01*
X0348409Y0112851D02*
X0340242Y0112851D01*
X0340242Y0111252D02*
X0348305Y0111252D01*
X0347518Y0109654D02*
X0340242Y0109654D01*
X0340242Y0108055D02*
X0347518Y0108055D01*
X0347518Y0106457D02*
X0340242Y0106457D01*
X0340242Y0104858D02*
X0347518Y0104858D01*
X0347518Y0103260D02*
X0340242Y0103260D01*
X0340242Y0101661D02*
X0347518Y0101661D01*
X0340242Y0100063D02*
X0362628Y0100063D01*
X0362628Y0101661D02*
X0358518Y0101661D01*
X0358518Y0103260D02*
X0362628Y0103260D01*
X0362628Y0104858D02*
X0358518Y0104858D01*
X0358518Y0106457D02*
X0362628Y0106457D01*
X0362628Y0108055D02*
X0358518Y0108055D01*
X0358518Y0109654D02*
X0362628Y0109654D01*
X0362628Y0111252D02*
X0357731Y0111252D01*
X0357628Y0112851D02*
X0362628Y0112851D01*
X0362628Y0114449D02*
X0358321Y0114449D01*
X0358518Y0116048D02*
X0362628Y0116048D01*
X0362628Y0117646D02*
X0358298Y0117646D01*
X0357571Y0119245D02*
X0362628Y0119245D01*
X0362628Y0120843D02*
X0355745Y0120843D01*
X0357217Y0122442D02*
X0362628Y0122442D01*
X0362628Y0124040D02*
X0358158Y0124040D01*
X0358518Y0125639D02*
X0362628Y0125639D01*
X0362628Y0127237D02*
X0358394Y0127237D01*
X0358383Y0127308D02*
X0358115Y0128131D01*
X0357722Y0128902D01*
X0357214Y0129603D01*
X0356601Y0130215D01*
X0355901Y0130724D01*
X0355130Y0131117D01*
X0354306Y0131384D01*
X0353451Y0131520D01*
X0353218Y0131520D01*
X0353218Y0126220D01*
X0358518Y0126220D01*
X0358518Y0126453D01*
X0358383Y0127308D01*
X0357756Y0128836D02*
X0362628Y0128836D01*
X0362628Y0130434D02*
X0356299Y0130434D01*
X0353218Y0130434D02*
X0352818Y0130434D01*
X0352818Y0128836D02*
X0353218Y0128836D01*
X0353218Y0127237D02*
X0352818Y0127237D01*
X0358363Y0138427D02*
X0362628Y0138427D01*
X0362628Y0140025D02*
X0358518Y0140025D01*
X0358518Y0141624D02*
X0362628Y0141624D01*
X0362628Y0143222D02*
X0358518Y0143222D01*
X0358518Y0144821D02*
X0362628Y0144821D01*
X0362628Y0146419D02*
X0358518Y0146419D01*
X0357974Y0148018D02*
X0362628Y0148018D01*
X0362628Y0149616D02*
X0357385Y0149616D01*
X0358221Y0151215D02*
X0362628Y0151215D01*
X0362628Y0152813D02*
X0358518Y0152813D01*
X0358398Y0154412D02*
X0362628Y0154412D01*
X0362628Y0156010D02*
X0357736Y0156010D01*
X0356215Y0157609D02*
X0362628Y0157609D01*
X0362628Y0159208D02*
X0356976Y0159208D01*
X0358059Y0160806D02*
X0362628Y0160806D01*
X0362628Y0162405D02*
X0358488Y0162405D01*
X0358518Y0163228D02*
X0353218Y0163228D01*
X0353218Y0168528D01*
X0353451Y0168528D01*
X0354306Y0168392D01*
X0355130Y0168125D01*
X0355901Y0167732D01*
X0356601Y0167223D01*
X0357214Y0166611D01*
X0357722Y0165910D01*
X0358115Y0165139D01*
X0358383Y0164315D01*
X0358518Y0163460D01*
X0358518Y0163228D01*
X0358432Y0164003D02*
X0362628Y0164003D01*
X0362628Y0165602D02*
X0357880Y0165602D01*
X0356624Y0167200D02*
X0362628Y0167200D01*
X0362628Y0168799D02*
X0346541Y0168799D01*
X0346541Y0170397D02*
X0362628Y0170397D01*
X0362628Y0171996D02*
X0346541Y0171996D01*
X0346541Y0173594D02*
X0362628Y0173594D01*
X0362628Y0175193D02*
X0358003Y0175193D01*
X0358518Y0175708D02*
X0357464Y0174654D01*
X0348573Y0174654D01*
X0347518Y0175708D01*
X0347518Y0181340D01*
X0335613Y0193245D01*
X0329765Y0193245D01*
X0328830Y0192311D01*
X0327103Y0191595D01*
X0325233Y0191595D01*
X0323506Y0192311D01*
X0322184Y0193633D01*
X0321468Y0195360D01*
X0321468Y0197230D01*
X0322184Y0198958D01*
X0323506Y0200280D01*
X0325233Y0200995D01*
X0327103Y0200995D01*
X0328830Y0200280D01*
X0329765Y0199345D01*
X0337483Y0199345D01*
X0338604Y0198881D01*
X0347518Y0189967D01*
X0347518Y0191248D01*
X0348356Y0193269D01*
X0349903Y0194816D01*
X0350717Y0195153D01*
X0350136Y0195450D01*
X0349435Y0195958D01*
X0348823Y0196571D01*
X0348314Y0197271D01*
X0347921Y0198042D01*
X0347654Y0198866D01*
X0347518Y0199721D01*
X0347518Y0199954D01*
X0352818Y0199954D01*
X0352818Y0200354D01*
X0352818Y0205654D01*
X0352585Y0205654D01*
X0351730Y0205518D01*
X0350907Y0205251D01*
X0350136Y0204858D01*
X0349435Y0204349D01*
X0348823Y0203737D01*
X0348314Y0203036D01*
X0347921Y0202265D01*
X0347654Y0201441D01*
X0347518Y0200586D01*
X0347518Y0200354D01*
X0352818Y0200354D01*
X0353218Y0200354D01*
X0353218Y0205654D01*
X0353451Y0205654D01*
X0354306Y0205518D01*
X0355130Y0205251D01*
X0355901Y0204858D01*
X0356601Y0204349D01*
X0357214Y0203737D01*
X0357722Y0203036D01*
X0358115Y0202265D01*
X0358383Y0201441D01*
X0358518Y0200586D01*
X0358518Y0200354D01*
X0353218Y0200354D01*
X0353218Y0199954D01*
X0358518Y0199954D01*
X0358518Y0199721D01*
X0358383Y0198866D01*
X0358115Y0198042D01*
X0357722Y0197271D01*
X0357214Y0196571D01*
X0356601Y0195958D01*
X0355901Y0195450D01*
X0355320Y0195153D01*
X0356134Y0194816D01*
X0357681Y0193269D01*
X0358518Y0191248D01*
X0358518Y0189060D01*
X0357681Y0187038D01*
X0356297Y0185654D01*
X0357464Y0185654D01*
X0358518Y0184599D01*
X0358518Y0175708D01*
X0358518Y0176791D02*
X0362628Y0176791D01*
X0362628Y0178390D02*
X0358518Y0178390D01*
X0358518Y0179988D02*
X0362628Y0179988D01*
X0362628Y0181587D02*
X0358518Y0181587D01*
X0358518Y0183185D02*
X0362628Y0183185D01*
X0362628Y0184784D02*
X0358334Y0184784D01*
X0357025Y0186382D02*
X0362628Y0186382D01*
X0362628Y0187981D02*
X0358071Y0187981D01*
X0358518Y0189579D02*
X0362628Y0189579D01*
X0362628Y0191178D02*
X0358518Y0191178D01*
X0357885Y0192776D02*
X0362628Y0192776D01*
X0362628Y0194375D02*
X0356575Y0194375D01*
X0356616Y0195973D02*
X0362628Y0195973D01*
X0362628Y0197572D02*
X0357876Y0197572D01*
X0358431Y0199170D02*
X0362628Y0199170D01*
X0362628Y0200769D02*
X0358489Y0200769D01*
X0358063Y0202367D02*
X0362628Y0202367D01*
X0362628Y0203966D02*
X0356984Y0203966D01*
X0354014Y0205564D02*
X0362628Y0205564D01*
X0362628Y0207163D02*
X0330868Y0207163D01*
X0330868Y0207230D02*
X0330152Y0208958D01*
X0328830Y0210280D01*
X0327103Y0210995D01*
X0325233Y0210995D01*
X0323506Y0210280D01*
X0322184Y0208958D01*
X0321468Y0207230D01*
X0321468Y0205360D01*
X0322184Y0203633D01*
X0323506Y0202311D01*
X0325233Y0201595D01*
X0327103Y0201595D01*
X0328830Y0202311D01*
X0330152Y0203633D01*
X0330868Y0205360D01*
X0330868Y0207230D01*
X0330234Y0208761D02*
X0362628Y0208761D01*
X0362628Y0210360D02*
X0328637Y0210360D01*
X0327972Y0211940D02*
X0328631Y0212275D01*
X0329230Y0212710D01*
X0329753Y0213233D01*
X0330188Y0213832D01*
X0330524Y0214491D01*
X0330752Y0215195D01*
X0330868Y0215925D01*
X0330868Y0216145D01*
X0326318Y0216145D01*
X0326318Y0211595D01*
X0326538Y0211595D01*
X0327269Y0211711D01*
X0327972Y0211940D01*
X0328009Y0211958D02*
X0349973Y0211958D01*
X0347580Y0213557D02*
X0329988Y0213557D01*
X0330739Y0215155D02*
X0346000Y0215155D01*
X0345077Y0216754D02*
X0330854Y0216754D01*
X0330868Y0216665D02*
X0330752Y0217396D01*
X0330524Y0218099D01*
X0330188Y0218759D01*
X0329753Y0219357D01*
X0329230Y0219880D01*
X0328631Y0220315D01*
X0327972Y0220651D01*
X0327269Y0220880D01*
X0326538Y0220995D01*
X0326318Y0220995D01*
X0326318Y0216445D01*
X0330868Y0216445D01*
X0330868Y0216665D01*
X0330395Y0218352D02*
X0344375Y0218352D01*
X0343946Y0219951D02*
X0329132Y0219951D01*
X0326318Y0219951D02*
X0326018Y0219951D01*
X0326018Y0220995D02*
X0325798Y0220995D01*
X0325067Y0220880D01*
X0324364Y0220651D01*
X0323705Y0220315D01*
X0323106Y0219880D01*
X0322583Y0219357D01*
X0322148Y0218759D01*
X0321812Y0218099D01*
X0321584Y0217396D01*
X0321468Y0216665D01*
X0321468Y0216445D01*
X0326018Y0216445D01*
X0326018Y0216145D01*
X0326318Y0216145D01*
X0326318Y0216445D01*
X0326018Y0216445D01*
X0326018Y0220995D01*
X0326018Y0218352D02*
X0326318Y0218352D01*
X0326318Y0216754D02*
X0326018Y0216754D01*
X0326018Y0216145D02*
X0321468Y0216145D01*
X0321468Y0215925D01*
X0321584Y0215195D01*
X0321812Y0214491D01*
X0322148Y0213832D01*
X0322583Y0213233D01*
X0323106Y0212710D01*
X0323705Y0212275D01*
X0324364Y0211940D01*
X0325067Y0211711D01*
X0325798Y0211595D01*
X0326018Y0211595D01*
X0326018Y0216145D01*
X0326018Y0215155D02*
X0326318Y0215155D01*
X0326318Y0213557D02*
X0326018Y0213557D01*
X0326018Y0211958D02*
X0326318Y0211958D01*
X0324327Y0211958D02*
X0267979Y0211958D01*
X0268830Y0212311D02*
X0270152Y0213633D01*
X0270868Y0215360D01*
X0270868Y0217230D01*
X0270152Y0218958D01*
X0268830Y0220280D01*
X0267103Y0220995D01*
X0265233Y0220995D01*
X0263506Y0220280D01*
X0262184Y0218958D01*
X0261468Y0217230D01*
X0261468Y0215360D01*
X0262184Y0213633D01*
X0263506Y0212311D01*
X0265233Y0211595D01*
X0267103Y0211595D01*
X0268830Y0212311D01*
X0270076Y0213557D02*
X0322348Y0213557D01*
X0321596Y0215155D02*
X0270783Y0215155D01*
X0270868Y0216754D02*
X0321482Y0216754D01*
X0321941Y0218352D02*
X0270403Y0218352D01*
X0269159Y0219951D02*
X0323203Y0219951D01*
X0322668Y0223148D02*
X0269667Y0223148D01*
X0270607Y0224746D02*
X0321722Y0224746D01*
X0321468Y0226345D02*
X0266318Y0226345D01*
X0266018Y0226345D02*
X0127771Y0226345D01*
X0128241Y0224746D02*
X0172613Y0224746D01*
X0172522Y0224588D02*
X0172759Y0224999D01*
X0173094Y0225334D01*
X0173505Y0225571D01*
X0173962Y0225694D01*
X0178149Y0225694D01*
X0178149Y0219944D01*
X0178149Y0218394D01*
X0179699Y0218394D01*
X0179699Y0219944D01*
X0185448Y0219944D01*
X0185448Y0224131D01*
X0185326Y0224588D01*
X0185089Y0224999D01*
X0184754Y0225334D01*
X0184343Y0225571D01*
X0183885Y0225694D01*
X0179699Y0225694D01*
X0179699Y0219944D01*
X0178149Y0219944D01*
X0172399Y0219944D01*
X0172399Y0224131D01*
X0172522Y0224588D01*
X0172399Y0223148D02*
X0128606Y0223148D01*
X0128606Y0221549D02*
X0172399Y0221549D01*
X0172399Y0219951D02*
X0128468Y0219951D01*
X0128040Y0218352D02*
X0172399Y0218352D01*
X0172399Y0218394D02*
X0172399Y0214208D01*
X0172522Y0213750D01*
X0172759Y0213340D01*
X0173094Y0213005D01*
X0173505Y0212768D01*
X0173962Y0212645D01*
X0178149Y0212645D01*
X0178149Y0218394D01*
X0172399Y0218394D01*
X0172399Y0216754D02*
X0127337Y0216754D01*
X0126414Y0215155D02*
X0172399Y0215155D01*
X0172634Y0213557D02*
X0124835Y0213557D01*
X0122442Y0211958D02*
X0264356Y0211958D01*
X0265233Y0210995D02*
X0263506Y0210280D01*
X0262184Y0208958D01*
X0261468Y0207230D01*
X0261468Y0205360D01*
X0262184Y0203633D01*
X0263506Y0202311D01*
X0265233Y0201595D01*
X0267103Y0201595D01*
X0268830Y0202311D01*
X0270152Y0203633D01*
X0270868Y0205360D01*
X0270868Y0207230D01*
X0270152Y0208958D01*
X0268830Y0210280D01*
X0267103Y0210995D01*
X0265233Y0210995D01*
X0263699Y0210360D02*
X0091751Y0210360D01*
X0091519Y0208761D02*
X0262102Y0208761D01*
X0261468Y0207163D02*
X0092885Y0207163D01*
X0093547Y0205564D02*
X0261468Y0205564D01*
X0262046Y0203966D02*
X0201004Y0203966D01*
X0201984Y0202367D02*
X0263449Y0202367D01*
X0264686Y0200769D02*
X0201984Y0200769D01*
X0189915Y0203966D02*
X0184468Y0203966D01*
X0184394Y0204040D02*
X0173454Y0204040D01*
X0172399Y0202986D01*
X0172399Y0192046D01*
X0173454Y0190991D01*
X0184394Y0190991D01*
X0185448Y0192046D01*
X0185448Y0202986D01*
X0184394Y0204040D01*
X0185448Y0202367D02*
X0188935Y0202367D01*
X0188935Y0200769D02*
X0185448Y0200769D01*
X0185448Y0199170D02*
X0188935Y0199170D01*
X0188935Y0197572D02*
X0185448Y0197572D01*
X0185448Y0195973D02*
X0188935Y0195973D01*
X0188935Y0194375D02*
X0185448Y0194375D01*
X0185448Y0192776D02*
X0188935Y0192776D01*
X0189803Y0191178D02*
X0184580Y0191178D01*
X0190249Y0186382D02*
X0169174Y0186382D01*
X0167575Y0187981D02*
X0191847Y0187981D01*
X0192409Y0189579D02*
X0165977Y0189579D01*
X0164378Y0191178D02*
X0173267Y0191178D01*
X0172399Y0192776D02*
X0162780Y0192776D01*
X0161181Y0194375D02*
X0172399Y0194375D01*
X0172399Y0195973D02*
X0093558Y0195973D01*
X0093558Y0194375D02*
X0144580Y0194375D01*
X0144102Y0192776D02*
X0093558Y0192776D01*
X0093558Y0191178D02*
X0144454Y0191178D01*
X0144803Y0190670D02*
X0144803Y0190670D01*
X0146223Y0189579D02*
X0093138Y0189579D01*
X0082978Y0189579D02*
X0080419Y0189579D01*
X0080399Y0187981D02*
X0158949Y0187981D01*
X0160547Y0186382D02*
X0080399Y0186382D01*
X0080399Y0184784D02*
X0162146Y0184784D01*
X0163744Y0183185D02*
X0080399Y0183185D01*
X0080399Y0181587D02*
X0165343Y0181587D01*
X0167472Y0179988D02*
X0090684Y0179988D01*
X0088258Y0179988D02*
X0087858Y0179988D01*
X0087858Y0178390D02*
X0088258Y0178390D01*
X0088258Y0176791D02*
X0087858Y0176791D01*
X0085431Y0179988D02*
X0080399Y0179988D01*
X0080399Y0178390D02*
X0083611Y0178390D01*
X0082807Y0176791D02*
X0080399Y0176791D01*
X0074299Y0176791D02*
X0072307Y0176791D01*
X0072307Y0175193D02*
X0074299Y0175193D01*
X0074299Y0173594D02*
X0072307Y0173594D01*
X0072307Y0171996D02*
X0074299Y0171996D01*
X0074299Y0170397D02*
X0072307Y0170397D01*
X0072307Y0168799D02*
X0074299Y0168799D01*
X0074299Y0167200D02*
X0072307Y0167200D01*
X0072307Y0165602D02*
X0074299Y0165602D01*
X0074299Y0164003D02*
X0072307Y0164003D01*
X0072307Y0162405D02*
X0074299Y0162405D01*
X0074299Y0160806D02*
X0072307Y0160806D01*
X0072307Y0159208D02*
X0074299Y0159208D01*
X0074299Y0157609D02*
X0072307Y0157609D01*
X0072307Y0156010D02*
X0074299Y0156010D01*
X0074299Y0154412D02*
X0072307Y0154412D01*
X0072307Y0152813D02*
X0074299Y0152813D01*
X0074299Y0151215D02*
X0072307Y0151215D01*
X0072307Y0149616D02*
X0074482Y0149616D01*
X0075683Y0148018D02*
X0072307Y0148018D01*
X0072307Y0146419D02*
X0077282Y0146419D01*
X0078880Y0144821D02*
X0072307Y0144821D01*
X0093558Y0159208D02*
X0225874Y0159208D01*
X0225874Y0159678D02*
X0225874Y0155964D01*
X0226338Y0154843D01*
X0227196Y0153985D01*
X0231009Y0150172D01*
X0201720Y0150172D01*
X0201549Y0150344D01*
X0200152Y0150922D01*
X0198640Y0150922D01*
X0197244Y0150344D01*
X0197050Y0150150D01*
X0160360Y0149800D01*
X0160210Y0149950D01*
X0158814Y0150528D01*
X0157302Y0150528D01*
X0155905Y0149950D01*
X0154836Y0148881D01*
X0154258Y0147484D01*
X0154258Y0145972D01*
X0154836Y0144576D01*
X0155905Y0143507D01*
X0157302Y0142928D01*
X0158814Y0142928D01*
X0160210Y0143507D01*
X0160404Y0143701D01*
X0197094Y0144050D01*
X0197244Y0143901D01*
X0198640Y0143322D01*
X0200152Y0143322D01*
X0201549Y0143901D01*
X0201720Y0144072D01*
X0262002Y0144072D01*
X0262184Y0143633D01*
X0263506Y0142311D01*
X0265233Y0141595D01*
X0267103Y0141595D01*
X0268830Y0142311D01*
X0270152Y0143633D01*
X0270868Y0145360D01*
X0270868Y0147230D01*
X0270152Y0148958D01*
X0268830Y0150280D01*
X0267103Y0150995D01*
X0265233Y0150995D01*
X0263506Y0150280D01*
X0263398Y0150172D01*
X0252429Y0150172D01*
X0263652Y0161395D01*
X0263767Y0161395D01*
X0263783Y0161389D01*
X0264373Y0161395D01*
X0264964Y0161395D01*
X0264979Y0161401D01*
X0264996Y0161402D01*
X0265450Y0161595D01*
X0267103Y0161595D01*
X0268830Y0162311D01*
X0270152Y0163633D01*
X0270868Y0165360D01*
X0270868Y0167230D01*
X0270152Y0168958D01*
X0268830Y0170280D01*
X0267103Y0170995D01*
X0265233Y0170995D01*
X0263506Y0170280D01*
X0262184Y0168958D01*
X0261535Y0167393D01*
X0260661Y0167031D01*
X0247346Y0153715D01*
X0239574Y0153715D01*
X0241355Y0155496D01*
X0241355Y0159141D01*
X0238778Y0161719D01*
X0235133Y0161719D01*
X0232555Y0159141D01*
X0232555Y0157253D01*
X0231974Y0157834D01*
X0231974Y0158615D01*
X0233855Y0160496D01*
X0233855Y0164141D01*
X0231278Y0166719D01*
X0227633Y0166719D01*
X0225055Y0164141D01*
X0225055Y0160496D01*
X0225874Y0159678D01*
X0225055Y0160806D02*
X0091488Y0160806D01*
X0092872Y0162405D02*
X0225055Y0162405D01*
X0225055Y0164003D02*
X0093534Y0164003D01*
X0093558Y0165602D02*
X0226516Y0165602D01*
X0231280Y0168799D02*
X0092191Y0168799D01*
X0093163Y0167200D02*
X0232555Y0167200D01*
X0232555Y0165602D02*
X0232395Y0165602D01*
X0233855Y0164003D02*
X0234049Y0164003D01*
X0233855Y0162405D02*
X0256035Y0162405D01*
X0257633Y0164003D02*
X0239862Y0164003D01*
X0241355Y0165602D02*
X0259232Y0165602D01*
X0261070Y0167200D02*
X0241355Y0167200D01*
X0241355Y0168799D02*
X0262118Y0168799D01*
X0263789Y0170397D02*
X0240100Y0170397D01*
X0236710Y0171996D02*
X0264267Y0171996D01*
X0263506Y0172311D02*
X0265233Y0171595D01*
X0267103Y0171595D01*
X0268830Y0172311D01*
X0270152Y0173633D01*
X0270868Y0175360D01*
X0270868Y0177230D01*
X0270152Y0178958D01*
X0268830Y0180280D01*
X0267103Y0180995D01*
X0265233Y0180995D01*
X0263506Y0180280D01*
X0262184Y0178958D01*
X0261468Y0177230D01*
X0261468Y0175360D01*
X0262184Y0173633D01*
X0263506Y0172311D01*
X0262222Y0173594D02*
X0235112Y0173594D01*
X0233513Y0175193D02*
X0261537Y0175193D01*
X0261468Y0176791D02*
X0231915Y0176791D01*
X0230316Y0178390D02*
X0261948Y0178390D01*
X0263214Y0179988D02*
X0228718Y0179988D01*
X0226485Y0173594D02*
X0093334Y0173594D01*
X0092562Y0171996D02*
X0228083Y0171996D01*
X0229682Y0170397D02*
X0090837Y0170397D01*
X0074299Y0178390D02*
X0072307Y0178390D01*
X0072307Y0179988D02*
X0074299Y0179988D01*
X0074299Y0181587D02*
X0072307Y0181587D01*
X0072307Y0183185D02*
X0074299Y0183185D01*
X0074299Y0184784D02*
X0072307Y0184784D01*
X0072307Y0186382D02*
X0074299Y0186382D01*
X0074299Y0187981D02*
X0072307Y0187981D01*
X0072307Y0189579D02*
X0074299Y0189579D01*
X0074299Y0191178D02*
X0072307Y0191178D01*
X0072307Y0192776D02*
X0074989Y0192776D01*
X0076588Y0194375D02*
X0072307Y0194375D01*
X0072307Y0195973D02*
X0078186Y0195973D01*
X0082558Y0197572D02*
X0072307Y0197572D01*
X0072307Y0199170D02*
X0082838Y0199170D01*
X0083956Y0200769D02*
X0072307Y0200769D01*
X0072307Y0202367D02*
X0082965Y0202367D01*
X0082558Y0203966D02*
X0072307Y0203966D01*
X0072307Y0205564D02*
X0082568Y0205564D01*
X0083230Y0207163D02*
X0072307Y0207163D01*
X0072307Y0208761D02*
X0084596Y0208761D01*
X0084365Y0210360D02*
X0072307Y0210360D01*
X0072307Y0211958D02*
X0083152Y0211958D01*
X0082630Y0213557D02*
X0072307Y0213557D01*
X0072307Y0215155D02*
X0082602Y0215155D01*
X0083061Y0216754D02*
X0072307Y0216754D01*
X0072307Y0218352D02*
X0084187Y0218352D01*
X0087858Y0218352D02*
X0088258Y0218352D01*
X0088258Y0216754D02*
X0087858Y0216754D01*
X0087858Y0215155D02*
X0088258Y0215155D01*
X0091928Y0218352D02*
X0106973Y0218352D01*
X0106545Y0219951D02*
X0072307Y0219951D01*
X0072307Y0221549D02*
X0106407Y0221549D01*
X0106407Y0223148D02*
X0072307Y0223148D01*
X0072307Y0224746D02*
X0106772Y0224746D01*
X0107242Y0226345D02*
X0072307Y0226345D01*
X0072307Y0227943D02*
X0108165Y0227943D01*
X0107676Y0216754D02*
X0093054Y0216754D01*
X0093514Y0215155D02*
X0108599Y0215155D01*
X0110178Y0213557D02*
X0093486Y0213557D01*
X0092964Y0211958D02*
X0112571Y0211958D01*
X0093558Y0203966D02*
X0173380Y0203966D01*
X0172399Y0202367D02*
X0093150Y0202367D01*
X0092160Y0200769D02*
X0172399Y0200769D01*
X0172399Y0199170D02*
X0093278Y0199170D01*
X0093558Y0197572D02*
X0172399Y0197572D01*
X0179699Y0212645D02*
X0183885Y0212645D01*
X0184343Y0212768D01*
X0184754Y0213005D01*
X0185089Y0213340D01*
X0185326Y0213750D01*
X0185448Y0214208D01*
X0185448Y0218394D01*
X0179699Y0218394D01*
X0179699Y0212645D01*
X0179699Y0213557D02*
X0178149Y0213557D01*
X0178149Y0215155D02*
X0179699Y0215155D01*
X0179699Y0216754D02*
X0178149Y0216754D01*
X0178149Y0218352D02*
X0179699Y0218352D01*
X0179699Y0219951D02*
X0178149Y0219951D01*
X0178149Y0221549D02*
X0179699Y0221549D01*
X0179699Y0223148D02*
X0178149Y0223148D01*
X0178149Y0224746D02*
X0179699Y0224746D01*
X0185234Y0224746D02*
X0189042Y0224746D01*
X0188935Y0224639D02*
X0189989Y0225694D01*
X0200929Y0225694D01*
X0201984Y0224639D01*
X0201984Y0213699D01*
X0200929Y0212645D01*
X0189989Y0212645D01*
X0188935Y0213699D01*
X0188935Y0224639D01*
X0188935Y0223148D02*
X0185448Y0223148D01*
X0185448Y0221549D02*
X0188935Y0221549D01*
X0188935Y0219951D02*
X0185448Y0219951D01*
X0185448Y0218352D02*
X0188935Y0218352D01*
X0188935Y0216754D02*
X0185448Y0216754D01*
X0185448Y0215155D02*
X0188935Y0215155D01*
X0189077Y0213557D02*
X0185214Y0213557D01*
X0201841Y0213557D02*
X0262260Y0213557D01*
X0261553Y0215155D02*
X0201984Y0215155D01*
X0201984Y0216754D02*
X0261468Y0216754D01*
X0261933Y0218352D02*
X0201984Y0218352D01*
X0201984Y0219951D02*
X0263177Y0219951D01*
X0264364Y0221940D02*
X0265067Y0221711D01*
X0265798Y0221595D01*
X0266018Y0221595D01*
X0266018Y0226145D01*
X0261468Y0226145D01*
X0261468Y0225925D01*
X0261584Y0225195D01*
X0261812Y0224491D01*
X0262148Y0223832D01*
X0262583Y0223233D01*
X0263106Y0222710D01*
X0263705Y0222275D01*
X0264364Y0221940D01*
X0266018Y0223148D02*
X0266318Y0223148D01*
X0266318Y0224746D02*
X0266018Y0224746D01*
X0262668Y0223148D02*
X0201984Y0223148D01*
X0201984Y0221549D02*
X0343809Y0221549D01*
X0343809Y0223148D02*
X0329667Y0223148D01*
X0330614Y0224746D02*
X0344173Y0224746D01*
X0344644Y0226345D02*
X0330868Y0226345D01*
X0330573Y0227943D02*
X0345567Y0227943D01*
X0321763Y0227943D02*
X0270574Y0227943D01*
X0261762Y0227943D02*
X0126848Y0227943D01*
X0082558Y0191178D02*
X0082017Y0191178D01*
X0111525Y0157609D02*
X0225874Y0157609D01*
X0225874Y0156010D02*
X0113719Y0156010D01*
X0115317Y0154412D02*
X0226769Y0154412D01*
X0228368Y0152813D02*
X0116916Y0152813D01*
X0118514Y0151215D02*
X0229966Y0151215D01*
X0232199Y0157609D02*
X0232555Y0157609D01*
X0232566Y0159208D02*
X0232621Y0159208D01*
X0233855Y0160806D02*
X0234220Y0160806D01*
X0239691Y0160806D02*
X0254436Y0160806D01*
X0252838Y0159208D02*
X0241289Y0159208D01*
X0241355Y0157609D02*
X0251239Y0157609D01*
X0249641Y0156010D02*
X0241355Y0156010D01*
X0240271Y0154412D02*
X0248042Y0154412D01*
X0253472Y0151215D02*
X0334142Y0151215D01*
X0334142Y0152813D02*
X0329333Y0152813D01*
X0330475Y0154412D02*
X0333462Y0154412D01*
X0331864Y0156010D02*
X0330868Y0156010D01*
X0328830Y0150280D02*
X0327103Y0150995D01*
X0325233Y0150995D01*
X0323506Y0150280D01*
X0322184Y0148958D01*
X0321468Y0147230D01*
X0321468Y0145360D01*
X0322184Y0143633D01*
X0323506Y0142311D01*
X0325233Y0141595D01*
X0327103Y0141595D01*
X0328830Y0142311D01*
X0330152Y0143633D01*
X0330868Y0145360D01*
X0330868Y0147230D01*
X0330152Y0148958D01*
X0328830Y0150280D01*
X0329494Y0149616D02*
X0334142Y0149616D01*
X0334142Y0148018D02*
X0330542Y0148018D01*
X0330868Y0146419D02*
X0334142Y0146419D01*
X0334142Y0144821D02*
X0330645Y0144821D01*
X0329742Y0143222D02*
X0334142Y0143222D01*
X0334142Y0141624D02*
X0327172Y0141624D01*
X0327103Y0140995D02*
X0325233Y0140995D01*
X0323506Y0140280D01*
X0322184Y0138958D01*
X0321468Y0137230D01*
X0321468Y0135360D01*
X0322184Y0133633D01*
X0323506Y0132311D01*
X0325233Y0131595D01*
X0327103Y0131595D01*
X0328830Y0132311D01*
X0330152Y0133633D01*
X0330868Y0135360D01*
X0330868Y0137230D01*
X0330152Y0138958D01*
X0328830Y0140280D01*
X0327103Y0140995D01*
X0325164Y0141624D02*
X0267172Y0141624D01*
X0265164Y0141624D02*
X0128105Y0141624D01*
X0126507Y0143222D02*
X0156592Y0143222D01*
X0154735Y0144821D02*
X0124908Y0144821D01*
X0123310Y0146419D02*
X0154258Y0146419D01*
X0154479Y0148018D02*
X0121711Y0148018D01*
X0120113Y0149616D02*
X0155572Y0149616D01*
X0159523Y0143222D02*
X0262594Y0143222D01*
X0263251Y0140025D02*
X0129704Y0140025D01*
X0131302Y0138427D02*
X0188097Y0138427D01*
X0186232Y0136828D02*
X0132901Y0136828D01*
X0134500Y0135230D02*
X0185754Y0135230D01*
X0185973Y0133631D02*
X0136098Y0133631D01*
X0112036Y0108055D02*
X0261810Y0108055D01*
X0261468Y0107230D02*
X0262184Y0108958D01*
X0263506Y0110280D01*
X0265233Y0110995D01*
X0267103Y0110995D01*
X0268830Y0110280D01*
X0270152Y0108958D01*
X0270868Y0107230D01*
X0270868Y0105360D01*
X0270152Y0103633D01*
X0268830Y0102311D01*
X0267103Y0101595D01*
X0265233Y0101595D01*
X0263506Y0102311D01*
X0262184Y0103633D01*
X0261468Y0105360D01*
X0261468Y0107230D01*
X0261468Y0106457D02*
X0203975Y0106457D01*
X0206210Y0104858D02*
X0261676Y0104858D01*
X0262557Y0103260D02*
X0207808Y0103260D01*
X0209407Y0101661D02*
X0214915Y0101661D01*
X0213316Y0100063D02*
X0211005Y0100063D01*
X0219098Y0101661D02*
X0265074Y0101661D01*
X0265233Y0100995D02*
X0263506Y0100280D01*
X0262184Y0098958D01*
X0261468Y0097230D01*
X0261468Y0095360D01*
X0262184Y0093633D01*
X0263506Y0092311D01*
X0265233Y0091595D01*
X0267103Y0091595D01*
X0268830Y0092311D01*
X0270152Y0093633D01*
X0270868Y0095360D01*
X0270868Y0097230D01*
X0270152Y0098958D01*
X0268830Y0100280D01*
X0267103Y0100995D01*
X0265233Y0100995D01*
X0267262Y0101661D02*
X0325074Y0101661D01*
X0325233Y0101595D02*
X0327103Y0101595D01*
X0328830Y0102311D01*
X0330152Y0103633D01*
X0330868Y0105360D01*
X0330868Y0107230D01*
X0330152Y0108958D01*
X0328830Y0110280D01*
X0327103Y0110995D01*
X0325233Y0110995D01*
X0323506Y0110280D01*
X0322184Y0108958D01*
X0321468Y0107230D01*
X0321468Y0105360D01*
X0322184Y0103633D01*
X0323506Y0102311D01*
X0325233Y0101595D01*
X0325233Y0100995D02*
X0323506Y0100280D01*
X0322184Y0098958D01*
X0321468Y0097230D01*
X0321468Y0095360D01*
X0322184Y0093633D01*
X0323506Y0092311D01*
X0325233Y0091595D01*
X0327103Y0091595D01*
X0328830Y0092311D01*
X0330152Y0093633D01*
X0330868Y0095360D01*
X0330868Y0097230D01*
X0330152Y0098958D01*
X0328830Y0100280D01*
X0327103Y0100995D01*
X0325233Y0100995D01*
X0327262Y0101661D02*
X0334142Y0101661D01*
X0334142Y0100063D02*
X0329047Y0100063D01*
X0330357Y0098464D02*
X0334142Y0098464D01*
X0334142Y0096866D02*
X0330868Y0096866D01*
X0330829Y0095267D02*
X0334142Y0095267D01*
X0334142Y0093669D02*
X0330167Y0093669D01*
X0328249Y0092070D02*
X0334142Y0092070D01*
X0334142Y0090472D02*
X0159139Y0090472D01*
X0159139Y0092070D02*
X0264087Y0092070D01*
X0262169Y0093669D02*
X0220499Y0093669D01*
X0221807Y0095267D02*
X0261507Y0095267D01*
X0261468Y0096866D02*
X0221807Y0096866D01*
X0221807Y0098464D02*
X0261979Y0098464D01*
X0263288Y0100063D02*
X0220697Y0100063D01*
X0208773Y0093669D02*
X0161499Y0093669D01*
X0162807Y0095267D02*
X0207174Y0095267D01*
X0205576Y0096866D02*
X0162807Y0096866D01*
X0162807Y0098464D02*
X0203977Y0098464D01*
X0202379Y0100063D02*
X0161697Y0100063D01*
X0154625Y0100371D02*
X0153207Y0098953D01*
X0153207Y0096672D01*
X0153163Y0096599D01*
X0153128Y0096369D01*
X0153039Y0096154D01*
X0153039Y0095775D01*
X0152983Y0095400D01*
X0153039Y0095173D01*
X0153039Y0081063D01*
X0146952Y0074975D01*
X0114045Y0074975D01*
X0110714Y0078307D01*
X0110714Y0079683D01*
X0110735Y0079691D01*
X0112339Y0081295D01*
X0113207Y0083390D01*
X0113207Y0085657D01*
X0112339Y0087752D01*
X0110735Y0089356D01*
X0108640Y0090224D01*
X0106373Y0090224D01*
X0104278Y0089356D01*
X0102674Y0087752D01*
X0101807Y0085657D01*
X0101807Y0083390D01*
X0101858Y0083265D01*
X0101858Y0083130D01*
X0102322Y0082009D01*
X0102418Y0081913D01*
X0102674Y0081295D01*
X0103876Y0080093D01*
X0103022Y0080093D01*
X0097258Y0085858D01*
X0096400Y0086716D01*
X0095279Y0087180D01*
X0091369Y0087180D01*
X0089835Y0088714D01*
X0089020Y0089051D01*
X0089835Y0089389D01*
X0091382Y0090936D01*
X0092219Y0092957D01*
X0092219Y0095145D01*
X0091382Y0097167D01*
X0089835Y0098714D01*
X0087813Y0099551D01*
X0085625Y0099551D01*
X0083604Y0098714D01*
X0082056Y0097167D01*
X0081219Y0095145D01*
X0081219Y0092957D01*
X0082056Y0090936D01*
X0083604Y0089389D01*
X0084418Y0089051D01*
X0083604Y0088714D01*
X0082056Y0087167D01*
X0081219Y0085145D01*
X0081219Y0082957D01*
X0082056Y0080936D01*
X0083441Y0079551D01*
X0082274Y0079551D01*
X0081219Y0078497D01*
X0081219Y0069606D01*
X0082274Y0068551D01*
X0091165Y0068551D01*
X0092219Y0069606D01*
X0092219Y0078497D01*
X0091165Y0079551D01*
X0089997Y0079551D01*
X0091382Y0080936D01*
X0091442Y0081080D01*
X0093409Y0081080D01*
X0100031Y0074458D01*
X0101152Y0073993D01*
X0106401Y0073993D01*
X0111054Y0069340D01*
X0112175Y0068875D01*
X0147739Y0068875D01*
X0153039Y0063575D01*
X0153039Y0054609D01*
X0153039Y0053706D02*
X0089120Y0053706D01*
X0090043Y0052107D02*
X0153207Y0052107D01*
X0154406Y0050509D02*
X0090688Y0050509D01*
X0091117Y0048910D02*
X0103832Y0048910D01*
X0102492Y0047312D02*
X0091204Y0047312D01*
X0091204Y0045713D02*
X0101830Y0045713D01*
X0101807Y0044115D02*
X0090790Y0044115D01*
X0090262Y0042516D02*
X0102168Y0042516D01*
X0103051Y0040918D02*
X0089339Y0040918D01*
X0087999Y0039319D02*
X0105176Y0039319D01*
X0109837Y0039319D02*
X0274933Y0039319D01*
X0275705Y0045713D02*
X0241733Y0045713D01*
X0240134Y0047312D02*
X0275705Y0047312D01*
X0274428Y0047525D02*
X0277005Y0050103D01*
X0277005Y0053748D01*
X0274428Y0056325D01*
X0270782Y0056325D01*
X0268205Y0053748D01*
X0268205Y0050103D01*
X0270782Y0047525D01*
X0274428Y0047525D01*
X0275813Y0048910D02*
X0275867Y0048910D01*
X0277005Y0050509D02*
X0277466Y0050509D01*
X0277005Y0052107D02*
X0287685Y0052107D01*
X0287685Y0053706D02*
X0283108Y0053706D01*
X0284505Y0055304D02*
X0288305Y0055304D01*
X0289903Y0056903D02*
X0284505Y0056903D01*
X0284505Y0058501D02*
X0296525Y0058501D01*
X0296838Y0060100D02*
X0283153Y0060100D01*
X0278897Y0061698D02*
X0297846Y0061698D01*
X0304805Y0061698D02*
X0307846Y0061698D01*
X0306838Y0060100D02*
X0305813Y0060100D01*
X0306125Y0058501D02*
X0306525Y0058501D01*
X0306525Y0056903D02*
X0306125Y0056903D01*
X0306125Y0055304D02*
X0306525Y0055304D01*
X0306525Y0053706D02*
X0306125Y0053706D01*
X0306125Y0052107D02*
X0306525Y0052107D01*
X0306909Y0050509D02*
X0305742Y0050509D01*
X0304634Y0048910D02*
X0308017Y0048910D01*
X0308157Y0047312D02*
X0292088Y0047312D01*
X0293472Y0048910D02*
X0298017Y0048910D01*
X0296909Y0050509D02*
X0293785Y0050509D01*
X0293785Y0052107D02*
X0296525Y0052107D01*
X0290490Y0045713D02*
X0306666Y0045713D01*
X0305068Y0044115D02*
X0288573Y0044115D01*
X0286659Y0050509D02*
X0282744Y0050509D01*
X0277102Y0053706D02*
X0277005Y0053706D01*
X0275705Y0055304D02*
X0275448Y0055304D01*
X0275551Y0056418D02*
X0275551Y0056418D01*
X0275066Y0056903D02*
X0245641Y0056903D01*
X0244526Y0058018D02*
X0240881Y0058018D01*
X0238303Y0055441D01*
X0238303Y0051796D01*
X0240881Y0049218D01*
X0244526Y0049218D01*
X0247103Y0051796D01*
X0247103Y0055441D01*
X0244526Y0058018D01*
X0247103Y0055304D02*
X0269762Y0055304D01*
X0268205Y0053706D02*
X0247103Y0053706D01*
X0247103Y0052107D02*
X0268205Y0052107D01*
X0268205Y0050509D02*
X0245817Y0050509D01*
X0239590Y0050509D02*
X0236937Y0050509D01*
X0238303Y0052107D02*
X0235339Y0052107D01*
X0233740Y0053706D02*
X0238303Y0053706D01*
X0237026Y0054218D02*
X0239603Y0056796D01*
X0239603Y0060441D01*
X0237026Y0063018D01*
X0233381Y0063018D01*
X0230803Y0060441D01*
X0230803Y0056796D01*
X0233381Y0054218D01*
X0237026Y0054218D01*
X0238112Y0055304D02*
X0238303Y0055304D01*
X0239603Y0056903D02*
X0239766Y0056903D01*
X0239603Y0058501D02*
X0273467Y0058501D01*
X0277299Y0063297D02*
X0347567Y0063297D01*
X0347125Y0064895D02*
X0275379Y0064895D01*
X0246050Y0066494D02*
X0344609Y0066494D01*
X0343010Y0068092D02*
X0242976Y0068092D01*
X0241377Y0069691D02*
X0341412Y0069691D01*
X0339813Y0071289D02*
X0239779Y0071289D01*
X0237695Y0072888D02*
X0338215Y0072888D01*
X0336616Y0074486D02*
X0165715Y0074486D01*
X0164117Y0076085D02*
X0335018Y0076085D01*
X0334142Y0077683D02*
X0162518Y0077683D01*
X0160920Y0079282D02*
X0334142Y0079282D01*
X0334142Y0080880D02*
X0159321Y0080880D01*
X0159139Y0082479D02*
X0334142Y0082479D01*
X0334142Y0084077D02*
X0159139Y0084077D01*
X0159139Y0085676D02*
X0334142Y0085676D01*
X0334142Y0087274D02*
X0159139Y0087274D01*
X0159139Y0088873D02*
X0334142Y0088873D01*
X0340242Y0088873D02*
X0347165Y0088873D01*
X0347200Y0087274D02*
X0340242Y0087274D01*
X0340242Y0085676D02*
X0347730Y0085676D01*
X0348954Y0084077D02*
X0340242Y0084077D01*
X0340242Y0082479D02*
X0349140Y0082479D01*
X0347788Y0080880D02*
X0340242Y0080880D01*
X0340447Y0079282D02*
X0347126Y0079282D01*
X0347125Y0077683D02*
X0342046Y0077683D01*
X0343644Y0076085D02*
X0347541Y0076085D01*
X0348545Y0074486D02*
X0345243Y0074486D01*
X0346841Y0072888D02*
X0347382Y0072888D01*
X0356704Y0074486D02*
X0362628Y0074486D01*
X0362628Y0072888D02*
X0357867Y0072888D01*
X0358125Y0071289D02*
X0362628Y0071289D01*
X0362628Y0069691D02*
X0358125Y0069691D01*
X0358125Y0068092D02*
X0362628Y0068092D01*
X0362628Y0066494D02*
X0358125Y0066494D01*
X0358125Y0064895D02*
X0362628Y0064895D01*
X0362628Y0063297D02*
X0357682Y0063297D01*
X0362628Y0061698D02*
X0334805Y0061698D01*
X0334987Y0061517D02*
X0334452Y0062051D01*
X0333841Y0062495D01*
X0333168Y0062838D01*
X0332449Y0063072D01*
X0331703Y0063190D01*
X0331525Y0063190D01*
X0331525Y0055590D01*
X0331125Y0055590D01*
X0331125Y0055190D01*
X0326525Y0055190D01*
X0326525Y0052012D01*
X0326644Y0051266D01*
X0326877Y0050547D01*
X0327220Y0049874D01*
X0327664Y0049263D01*
X0328198Y0048729D01*
X0328810Y0048284D01*
X0329483Y0047941D01*
X0330201Y0047708D01*
X0330948Y0047590D01*
X0331125Y0047590D01*
X0331125Y0055190D01*
X0331525Y0055190D01*
X0331525Y0047590D01*
X0331703Y0047590D01*
X0332449Y0047708D01*
X0333168Y0047941D01*
X0333841Y0048284D01*
X0334452Y0048729D01*
X0334987Y0049263D01*
X0335431Y0049874D01*
X0335774Y0050547D01*
X0336007Y0051266D01*
X0336125Y0052012D01*
X0336125Y0055190D01*
X0331526Y0055190D01*
X0331526Y0055590D01*
X0336125Y0055590D01*
X0336125Y0058768D01*
X0336007Y0059514D01*
X0335774Y0060232D01*
X0335431Y0060905D01*
X0334987Y0061517D01*
X0335817Y0060100D02*
X0362628Y0060100D01*
X0362628Y0058501D02*
X0336125Y0058501D01*
X0336125Y0056903D02*
X0349650Y0056903D01*
X0347394Y0055304D02*
X0331526Y0055304D01*
X0331125Y0055304D02*
X0326125Y0055304D01*
X0326525Y0055590D02*
X0331125Y0055590D01*
X0331125Y0063190D01*
X0330948Y0063190D01*
X0330201Y0063072D01*
X0329483Y0062838D01*
X0328810Y0062495D01*
X0328198Y0062051D01*
X0327664Y0061517D01*
X0327220Y0060905D01*
X0326877Y0060232D01*
X0326644Y0059514D01*
X0326525Y0058768D01*
X0326525Y0055590D01*
X0326525Y0056903D02*
X0326125Y0056903D01*
X0326125Y0058501D02*
X0326525Y0058501D01*
X0326125Y0059345D02*
X0325395Y0061109D01*
X0324044Y0062459D01*
X0322280Y0063190D01*
X0320371Y0063190D01*
X0318606Y0062459D01*
X0317256Y0061109D01*
X0316525Y0059345D01*
X0316525Y0051435D01*
X0317256Y0049671D01*
X0318606Y0048321D01*
X0320371Y0047590D01*
X0322280Y0047590D01*
X0324044Y0048321D01*
X0325395Y0049671D01*
X0326125Y0051435D01*
X0326125Y0059345D01*
X0325813Y0060100D02*
X0326834Y0060100D01*
X0327846Y0061698D02*
X0324805Y0061698D01*
X0331125Y0061698D02*
X0331525Y0061698D01*
X0331525Y0060100D02*
X0331125Y0060100D01*
X0331125Y0058501D02*
X0331525Y0058501D01*
X0331525Y0056903D02*
X0331125Y0056903D01*
X0331125Y0053706D02*
X0331525Y0053706D01*
X0331525Y0052107D02*
X0331125Y0052107D01*
X0331125Y0050509D02*
X0331525Y0050509D01*
X0331525Y0048910D02*
X0331125Y0048910D01*
X0328017Y0048910D02*
X0324634Y0048910D01*
X0325742Y0050509D02*
X0326897Y0050509D01*
X0326525Y0052107D02*
X0326125Y0052107D01*
X0326125Y0053706D02*
X0326525Y0053706D01*
X0336125Y0053706D02*
X0345893Y0053706D01*
X0344970Y0052107D02*
X0336125Y0052107D01*
X0335754Y0050509D02*
X0344325Y0050509D01*
X0343897Y0048910D02*
X0334634Y0048910D01*
X0343809Y0047312D02*
X0314257Y0047312D01*
X0314257Y0045713D02*
X0343809Y0045713D01*
X0344223Y0044115D02*
X0313694Y0044115D01*
X0312096Y0042516D02*
X0344751Y0042516D01*
X0345674Y0040918D02*
X0310497Y0040918D01*
X0308899Y0039319D02*
X0347014Y0039319D01*
X0362423Y0055304D02*
X0362628Y0055304D01*
X0362628Y0056903D02*
X0360166Y0056903D01*
X0357708Y0076085D02*
X0362628Y0076085D01*
X0362628Y0077683D02*
X0358125Y0077683D01*
X0358123Y0079282D02*
X0362628Y0079282D01*
X0362628Y0080880D02*
X0357461Y0080880D01*
X0356109Y0082479D02*
X0362628Y0082479D01*
X0362628Y0084077D02*
X0356295Y0084077D01*
X0357519Y0085676D02*
X0362628Y0085676D01*
X0362628Y0087274D02*
X0358049Y0087274D01*
X0358084Y0088873D02*
X0362628Y0088873D01*
X0362628Y0090472D02*
X0357632Y0090472D01*
X0356518Y0092070D02*
X0362628Y0092070D01*
X0362628Y0093669D02*
X0353162Y0093669D01*
X0352825Y0093669D02*
X0352425Y0093669D01*
X0352088Y0093669D02*
X0340242Y0093669D01*
X0340242Y0095267D02*
X0362628Y0095267D01*
X0362628Y0096866D02*
X0340242Y0096866D01*
X0340242Y0098464D02*
X0362628Y0098464D01*
X0352825Y0092070D02*
X0352425Y0092070D01*
X0352425Y0090472D02*
X0352825Y0090472D01*
X0352825Y0088873D02*
X0352425Y0088873D01*
X0348731Y0092070D02*
X0340242Y0092070D01*
X0340242Y0090472D02*
X0347617Y0090472D01*
X0334142Y0103260D02*
X0329779Y0103260D01*
X0330660Y0104858D02*
X0334142Y0104858D01*
X0334142Y0106457D02*
X0330868Y0106457D01*
X0330526Y0108055D02*
X0334142Y0108055D01*
X0334142Y0109654D02*
X0329456Y0109654D01*
X0328830Y0112311D02*
X0330152Y0113633D01*
X0330868Y0115360D01*
X0330868Y0117230D01*
X0330152Y0118958D01*
X0328830Y0120280D01*
X0327103Y0120995D01*
X0325233Y0120995D01*
X0323506Y0120280D01*
X0322184Y0118958D01*
X0321468Y0117230D01*
X0321468Y0115360D01*
X0322184Y0113633D01*
X0323506Y0112311D01*
X0325233Y0111595D01*
X0327103Y0111595D01*
X0328830Y0112311D01*
X0329370Y0112851D02*
X0334142Y0112851D01*
X0334142Y0114449D02*
X0330491Y0114449D01*
X0330868Y0116048D02*
X0334142Y0116048D01*
X0334142Y0117646D02*
X0330696Y0117646D01*
X0329865Y0119245D02*
X0334142Y0119245D01*
X0334142Y0120843D02*
X0327470Y0120843D01*
X0327103Y0121595D02*
X0328830Y0122311D01*
X0330152Y0123633D01*
X0330868Y0125360D01*
X0330868Y0127230D01*
X0330152Y0128958D01*
X0328830Y0130280D01*
X0327103Y0130995D01*
X0325233Y0130995D01*
X0323506Y0130280D01*
X0322184Y0128958D01*
X0321468Y0127230D01*
X0321468Y0125360D01*
X0322184Y0123633D01*
X0323506Y0122311D01*
X0325233Y0121595D01*
X0327103Y0121595D01*
X0328961Y0122442D02*
X0334142Y0122442D01*
X0334142Y0124040D02*
X0330321Y0124040D01*
X0330868Y0125639D02*
X0334142Y0125639D01*
X0334142Y0127237D02*
X0330865Y0127237D01*
X0330203Y0128836D02*
X0334142Y0128836D01*
X0334142Y0130434D02*
X0328457Y0130434D01*
X0328159Y0132033D02*
X0334142Y0132033D01*
X0334142Y0133631D02*
X0330151Y0133631D01*
X0330814Y0135230D02*
X0334142Y0135230D01*
X0334142Y0136828D02*
X0330868Y0136828D01*
X0330372Y0138427D02*
X0334142Y0138427D01*
X0334142Y0140025D02*
X0329085Y0140025D01*
X0323251Y0140025D02*
X0269085Y0140025D01*
X0270372Y0138427D02*
X0321964Y0138427D01*
X0321468Y0136828D02*
X0270868Y0136828D01*
X0270814Y0135230D02*
X0321522Y0135230D01*
X0322185Y0133631D02*
X0270151Y0133631D01*
X0268159Y0132033D02*
X0324177Y0132033D01*
X0323879Y0130434D02*
X0268457Y0130434D01*
X0270203Y0128836D02*
X0322133Y0128836D01*
X0321471Y0127237D02*
X0270865Y0127237D01*
X0270868Y0125639D02*
X0321468Y0125639D01*
X0322015Y0124040D02*
X0270321Y0124040D01*
X0268961Y0122442D02*
X0323375Y0122442D01*
X0324866Y0120843D02*
X0267470Y0120843D01*
X0269865Y0119245D02*
X0322471Y0119245D01*
X0321640Y0117646D02*
X0270696Y0117646D01*
X0270868Y0116048D02*
X0321468Y0116048D01*
X0321845Y0114449D02*
X0270491Y0114449D01*
X0269370Y0112851D02*
X0322966Y0112851D01*
X0322880Y0109654D02*
X0269456Y0109654D01*
X0270526Y0108055D02*
X0321810Y0108055D01*
X0321468Y0106457D02*
X0270868Y0106457D01*
X0270660Y0104858D02*
X0321676Y0104858D01*
X0322557Y0103260D02*
X0269779Y0103260D01*
X0269047Y0100063D02*
X0273288Y0100063D01*
X0273506Y0100280D02*
X0272184Y0098958D01*
X0271468Y0097230D01*
X0271468Y0095360D01*
X0272184Y0093633D01*
X0273506Y0092311D01*
X0275233Y0091595D01*
X0277103Y0091595D01*
X0278830Y0092311D01*
X0280152Y0093633D01*
X0280868Y0095360D01*
X0280868Y0097230D01*
X0280152Y0098958D01*
X0278830Y0100280D01*
X0277103Y0100995D01*
X0275233Y0100995D01*
X0273506Y0100280D01*
X0271979Y0098464D02*
X0270357Y0098464D01*
X0270868Y0096866D02*
X0271468Y0096866D01*
X0271507Y0095267D02*
X0270829Y0095267D01*
X0270167Y0093669D02*
X0272169Y0093669D01*
X0274087Y0092070D02*
X0268249Y0092070D01*
X0278249Y0092070D02*
X0284087Y0092070D01*
X0283506Y0092311D02*
X0285233Y0091595D01*
X0287103Y0091595D01*
X0288830Y0092311D01*
X0290152Y0093633D01*
X0290868Y0095360D01*
X0290868Y0097230D01*
X0290152Y0098958D01*
X0288830Y0100280D01*
X0287103Y0100995D01*
X0285233Y0100995D01*
X0283506Y0100280D01*
X0282184Y0098958D01*
X0281468Y0097230D01*
X0281468Y0095360D01*
X0282184Y0093633D01*
X0283506Y0092311D01*
X0282169Y0093669D02*
X0280167Y0093669D01*
X0280829Y0095267D02*
X0281507Y0095267D01*
X0281468Y0096866D02*
X0280868Y0096866D01*
X0280357Y0098464D02*
X0281979Y0098464D01*
X0283288Y0100063D02*
X0279047Y0100063D01*
X0289047Y0100063D02*
X0293357Y0100063D01*
X0293106Y0099880D02*
X0292583Y0099357D01*
X0292148Y0098759D01*
X0291812Y0098099D01*
X0291584Y0097396D01*
X0291468Y0096665D01*
X0291468Y0096445D01*
X0296018Y0096445D01*
X0296018Y0096145D01*
X0296318Y0096145D01*
X0296318Y0091595D01*
X0296538Y0091595D01*
X0297269Y0091711D01*
X0297972Y0091940D01*
X0298631Y0092275D01*
X0299230Y0092710D01*
X0299753Y0093233D01*
X0300188Y0093832D01*
X0300524Y0094491D01*
X0300752Y0095195D01*
X0300868Y0095925D01*
X0300868Y0096145D01*
X0296318Y0096145D01*
X0296318Y0096445D01*
X0300868Y0096445D01*
X0300868Y0096665D01*
X0300752Y0097396D01*
X0300524Y0098099D01*
X0300188Y0098759D01*
X0299753Y0099357D01*
X0299230Y0099880D01*
X0298631Y0100315D01*
X0297972Y0100651D01*
X0297269Y0100880D01*
X0296538Y0100995D01*
X0296318Y0100995D01*
X0296318Y0096445D01*
X0296018Y0096445D01*
X0296018Y0100995D01*
X0295798Y0100995D01*
X0295067Y0100880D01*
X0294364Y0100651D01*
X0293705Y0100315D01*
X0293106Y0099880D01*
X0291998Y0098464D02*
X0290357Y0098464D01*
X0290868Y0096866D02*
X0291500Y0096866D01*
X0291468Y0096145D02*
X0291468Y0095925D01*
X0291584Y0095195D01*
X0291812Y0094491D01*
X0292148Y0093832D01*
X0292583Y0093233D01*
X0293106Y0092710D01*
X0293705Y0092275D01*
X0294364Y0091940D01*
X0295067Y0091711D01*
X0295798Y0091595D01*
X0296018Y0091595D01*
X0296018Y0096145D01*
X0291468Y0096145D01*
X0291572Y0095267D02*
X0290829Y0095267D01*
X0290167Y0093669D02*
X0292267Y0093669D01*
X0294108Y0092070D02*
X0288249Y0092070D01*
X0296018Y0092070D02*
X0296318Y0092070D01*
X0296318Y0093669D02*
X0296018Y0093669D01*
X0296018Y0095267D02*
X0296318Y0095267D01*
X0296318Y0096866D02*
X0296018Y0096866D01*
X0296018Y0098464D02*
X0296318Y0098464D01*
X0296318Y0100063D02*
X0296018Y0100063D01*
X0298979Y0100063D02*
X0303288Y0100063D01*
X0303506Y0100280D02*
X0302184Y0098958D01*
X0301468Y0097230D01*
X0301468Y0095360D01*
X0302184Y0093633D01*
X0303506Y0092311D01*
X0305233Y0091595D01*
X0307103Y0091595D01*
X0308830Y0092311D01*
X0310152Y0093633D01*
X0310868Y0095360D01*
X0310868Y0097230D01*
X0310152Y0098958D01*
X0308830Y0100280D01*
X0307103Y0100995D01*
X0305233Y0100995D01*
X0303506Y0100280D01*
X0301979Y0098464D02*
X0300338Y0098464D01*
X0300836Y0096866D02*
X0301468Y0096866D01*
X0301507Y0095267D02*
X0300764Y0095267D01*
X0300069Y0093669D02*
X0302169Y0093669D01*
X0304087Y0092070D02*
X0298228Y0092070D01*
X0308249Y0092070D02*
X0314087Y0092070D01*
X0313506Y0092311D02*
X0315233Y0091595D01*
X0317103Y0091595D01*
X0318830Y0092311D01*
X0320152Y0093633D01*
X0320868Y0095360D01*
X0320868Y0097230D01*
X0320152Y0098958D01*
X0318830Y0100280D01*
X0317103Y0100995D01*
X0315233Y0100995D01*
X0313506Y0100280D01*
X0312184Y0098958D01*
X0311468Y0097230D01*
X0311468Y0095360D01*
X0312184Y0093633D01*
X0313506Y0092311D01*
X0312169Y0093669D02*
X0310167Y0093669D01*
X0310829Y0095267D02*
X0311507Y0095267D01*
X0311468Y0096866D02*
X0310868Y0096866D01*
X0310357Y0098464D02*
X0311979Y0098464D01*
X0313288Y0100063D02*
X0309047Y0100063D01*
X0319047Y0100063D02*
X0323288Y0100063D01*
X0321979Y0098464D02*
X0320357Y0098464D01*
X0320868Y0096866D02*
X0321468Y0096866D01*
X0321507Y0095267D02*
X0320829Y0095267D01*
X0320167Y0093669D02*
X0322169Y0093669D01*
X0324087Y0092070D02*
X0318249Y0092070D01*
X0334142Y0111252D02*
X0092613Y0111252D01*
X0092613Y0112851D02*
X0262966Y0112851D01*
X0261845Y0114449D02*
X0092613Y0114449D01*
X0092613Y0116048D02*
X0261197Y0116048D01*
X0259598Y0117646D02*
X0092613Y0117646D01*
X0092613Y0119245D02*
X0258000Y0119245D01*
X0256401Y0120843D02*
X0090581Y0120843D01*
X0091559Y0109654D02*
X0104997Y0109654D01*
X0102977Y0108055D02*
X0090808Y0108055D01*
X0085464Y0104773D02*
X0088299Y0101938D01*
X0089420Y0101474D01*
X0102600Y0101474D01*
X0102674Y0101295D01*
X0104278Y0099691D01*
X0106373Y0098824D01*
X0108640Y0098824D01*
X0110735Y0099691D01*
X0111415Y0100371D01*
X0154625Y0100371D01*
X0154316Y0100063D02*
X0111107Y0100063D01*
X0103907Y0100063D02*
X0072307Y0100063D01*
X0072307Y0101661D02*
X0088967Y0101661D01*
X0086977Y0103260D02*
X0072307Y0103260D01*
X0072307Y0104858D02*
X0085378Y0104858D01*
X0085464Y0104773D02*
X0084606Y0105631D01*
X0084142Y0106752D01*
X0084142Y0109654D01*
X0082667Y0109654D01*
X0084142Y0108055D02*
X0072307Y0108055D01*
X0072307Y0106457D02*
X0084264Y0106457D01*
X0083354Y0098464D02*
X0072307Y0098464D01*
X0072307Y0096866D02*
X0081932Y0096866D01*
X0081270Y0095267D02*
X0072307Y0095267D01*
X0072307Y0093669D02*
X0081219Y0093669D01*
X0081587Y0092070D02*
X0072307Y0092070D01*
X0072307Y0090472D02*
X0082521Y0090472D01*
X0083988Y0088873D02*
X0072307Y0088873D01*
X0072307Y0087274D02*
X0082164Y0087274D01*
X0081439Y0085676D02*
X0072307Y0085676D01*
X0072307Y0084077D02*
X0081219Y0084077D01*
X0081417Y0082479D02*
X0072307Y0082479D01*
X0072307Y0080880D02*
X0082112Y0080880D01*
X0082004Y0079282D02*
X0072307Y0079282D01*
X0072307Y0077683D02*
X0081219Y0077683D01*
X0081219Y0076085D02*
X0072307Y0076085D01*
X0072307Y0074486D02*
X0081219Y0074486D01*
X0081219Y0072888D02*
X0072307Y0072888D01*
X0072307Y0071289D02*
X0081219Y0071289D01*
X0081219Y0069691D02*
X0072307Y0069691D01*
X0072307Y0068092D02*
X0148522Y0068092D01*
X0150121Y0066494D02*
X0072307Y0066494D01*
X0072307Y0064895D02*
X0151719Y0064895D01*
X0153039Y0063297D02*
X0072307Y0063297D01*
X0072307Y0061698D02*
X0153039Y0061698D01*
X0153039Y0060100D02*
X0072307Y0060100D01*
X0092219Y0069691D02*
X0110703Y0069691D01*
X0109105Y0071289D02*
X0092219Y0071289D01*
X0092219Y0072888D02*
X0107506Y0072888D01*
X0112936Y0076085D02*
X0148062Y0076085D01*
X0149660Y0077683D02*
X0111337Y0077683D01*
X0110714Y0079282D02*
X0151259Y0079282D01*
X0152857Y0080880D02*
X0111924Y0080880D01*
X0112829Y0082479D02*
X0153039Y0082479D01*
X0153039Y0084077D02*
X0113207Y0084077D01*
X0113199Y0085676D02*
X0153039Y0085676D01*
X0153039Y0087274D02*
X0112537Y0087274D01*
X0111218Y0088873D02*
X0153039Y0088873D01*
X0153039Y0090472D02*
X0090918Y0090472D01*
X0091852Y0092070D02*
X0153039Y0092070D01*
X0153039Y0093669D02*
X0092219Y0093669D01*
X0092169Y0095267D02*
X0153016Y0095267D01*
X0153207Y0096866D02*
X0091507Y0096866D01*
X0090084Y0098464D02*
X0153207Y0098464D01*
X0110016Y0109654D02*
X0262880Y0109654D01*
X0261964Y0138427D02*
X0191011Y0138427D01*
X0255070Y0152813D02*
X0263003Y0152813D01*
X0263506Y0152311D02*
X0265233Y0151595D01*
X0267103Y0151595D01*
X0268830Y0152311D01*
X0270152Y0153633D01*
X0270868Y0155360D01*
X0270868Y0157230D01*
X0270152Y0158958D01*
X0268830Y0160280D01*
X0267103Y0160995D01*
X0265233Y0160995D01*
X0263506Y0160280D01*
X0262184Y0158958D01*
X0261468Y0157230D01*
X0261468Y0155360D01*
X0262184Y0153633D01*
X0263506Y0152311D01*
X0261861Y0154412D02*
X0256669Y0154412D01*
X0258267Y0156010D02*
X0261468Y0156010D01*
X0261625Y0157609D02*
X0259866Y0157609D01*
X0261464Y0159208D02*
X0262433Y0159208D01*
X0263063Y0160806D02*
X0264776Y0160806D01*
X0267560Y0160806D02*
X0324776Y0160806D01*
X0323412Y0162405D02*
X0268924Y0162405D01*
X0270306Y0164003D02*
X0322030Y0164003D01*
X0321468Y0165602D02*
X0270868Y0165602D01*
X0270868Y0167200D02*
X0321468Y0167200D01*
X0322118Y0168799D02*
X0270218Y0168799D01*
X0268547Y0170397D02*
X0323789Y0170397D01*
X0324267Y0171996D02*
X0268069Y0171996D01*
X0270114Y0173594D02*
X0322222Y0173594D01*
X0321537Y0175193D02*
X0270798Y0175193D01*
X0270868Y0176791D02*
X0321468Y0176791D01*
X0321948Y0178390D02*
X0270388Y0178390D01*
X0269122Y0179988D02*
X0323214Y0179988D01*
X0322631Y0183185D02*
X0269705Y0183185D01*
X0270629Y0184784D02*
X0321707Y0184784D01*
X0321468Y0186382D02*
X0270868Y0186382D01*
X0270557Y0187981D02*
X0321779Y0187981D01*
X0322805Y0189579D02*
X0269531Y0189579D01*
X0269296Y0192776D02*
X0323040Y0192776D01*
X0321876Y0194375D02*
X0270460Y0194375D01*
X0270868Y0195973D02*
X0321468Y0195973D01*
X0321609Y0197572D02*
X0270726Y0197572D01*
X0269940Y0199170D02*
X0322396Y0199170D01*
X0324686Y0200769D02*
X0267650Y0200769D01*
X0268887Y0202367D02*
X0323449Y0202367D01*
X0322046Y0203966D02*
X0270290Y0203966D01*
X0270868Y0205564D02*
X0321468Y0205564D01*
X0321468Y0207163D02*
X0270868Y0207163D01*
X0270234Y0208761D02*
X0322102Y0208761D01*
X0323699Y0210360D02*
X0268637Y0210360D01*
X0261729Y0224746D02*
X0201877Y0224746D01*
X0217528Y0191178D02*
X0337681Y0191178D01*
X0336082Y0192776D02*
X0329296Y0192776D01*
X0329531Y0189579D02*
X0339279Y0189579D01*
X0340016Y0187981D02*
X0340878Y0187981D01*
X0341615Y0186382D02*
X0342476Y0186382D01*
X0343213Y0184784D02*
X0344075Y0184784D01*
X0344812Y0183185D02*
X0345673Y0183185D01*
X0345218Y0182779D02*
X0345218Y0182779D01*
X0346215Y0181587D02*
X0347272Y0181587D01*
X0347518Y0179988D02*
X0346541Y0179988D01*
X0346541Y0178390D02*
X0347518Y0178390D01*
X0347518Y0176791D02*
X0346541Y0176791D01*
X0346541Y0175193D02*
X0348034Y0175193D01*
X0349413Y0167200D02*
X0346541Y0167200D01*
X0346541Y0165602D02*
X0348157Y0165602D01*
X0347604Y0164003D02*
X0346541Y0164003D01*
X0346541Y0162405D02*
X0347548Y0162405D01*
X0347977Y0160806D02*
X0346541Y0160806D01*
X0346541Y0159208D02*
X0349060Y0159208D01*
X0349822Y0157609D02*
X0346541Y0157609D01*
X0346541Y0156010D02*
X0348301Y0156010D01*
X0347639Y0154412D02*
X0346541Y0154412D01*
X0346541Y0152813D02*
X0347518Y0152813D01*
X0347816Y0151215D02*
X0346541Y0151215D01*
X0346541Y0149616D02*
X0348651Y0149616D01*
X0348063Y0148018D02*
X0347696Y0148018D01*
X0352818Y0164003D02*
X0353218Y0164003D01*
X0353218Y0165602D02*
X0352818Y0165602D01*
X0352818Y0167200D02*
X0353218Y0167200D01*
X0322433Y0159208D02*
X0269903Y0159208D01*
X0270711Y0157609D02*
X0321625Y0157609D01*
X0321468Y0156010D02*
X0270868Y0156010D01*
X0270475Y0154412D02*
X0321861Y0154412D01*
X0323003Y0152813D02*
X0269333Y0152813D01*
X0269494Y0149616D02*
X0322842Y0149616D01*
X0321794Y0148018D02*
X0270542Y0148018D01*
X0270868Y0146419D02*
X0321468Y0146419D01*
X0321691Y0144821D02*
X0270645Y0144821D01*
X0269742Y0143222D02*
X0322594Y0143222D01*
X0346308Y0191178D02*
X0347518Y0191178D01*
X0348152Y0192776D02*
X0344709Y0192776D01*
X0343110Y0194375D02*
X0349461Y0194375D01*
X0349420Y0195973D02*
X0341512Y0195973D01*
X0339913Y0197572D02*
X0348161Y0197572D01*
X0347606Y0199170D02*
X0337906Y0199170D01*
X0330290Y0203966D02*
X0349052Y0203966D01*
X0347974Y0202367D02*
X0328887Y0202367D01*
X0327650Y0200769D02*
X0347547Y0200769D01*
X0352818Y0200769D02*
X0353218Y0200769D01*
X0353218Y0202367D02*
X0352818Y0202367D01*
X0352818Y0203966D02*
X0353218Y0203966D01*
X0353218Y0205564D02*
X0352818Y0205564D01*
X0352022Y0205564D02*
X0330868Y0205564D01*
X0359844Y0211958D02*
X0362628Y0211958D01*
X0362628Y0213557D02*
X0362236Y0213557D01*
X0235947Y0066494D02*
X0162876Y0066494D01*
X0162037Y0065655D02*
X0162037Y0065655D01*
X0161277Y0064895D02*
X0237546Y0064895D01*
X0238303Y0063297D02*
X0159679Y0063297D01*
X0159139Y0061698D02*
X0232061Y0061698D01*
X0230803Y0060100D02*
X0159139Y0060100D01*
X0159139Y0058501D02*
X0223905Y0058501D01*
X0223155Y0056903D02*
X0220589Y0056903D01*
X0221807Y0055685D02*
X0218995Y0058497D01*
X0215018Y0058497D01*
X0212207Y0055685D01*
X0212207Y0051709D01*
X0215018Y0048897D01*
X0218995Y0048897D01*
X0221807Y0051709D01*
X0221807Y0055685D01*
X0221807Y0055304D02*
X0223204Y0055304D01*
X0224053Y0053706D02*
X0221807Y0053706D01*
X0221807Y0052107D02*
X0226712Y0052107D01*
X0228310Y0050509D02*
X0220607Y0050509D01*
X0219008Y0048910D02*
X0229909Y0048910D01*
X0231507Y0047312D02*
X0112521Y0047312D01*
X0113183Y0045713D02*
X0233106Y0045713D01*
X0234704Y0044115D02*
X0113207Y0044115D01*
X0112845Y0042516D02*
X0236303Y0042516D01*
X0237902Y0040918D02*
X0111962Y0040918D01*
X0111181Y0048910D02*
X0156005Y0048910D01*
X0160008Y0048910D02*
X0215005Y0048910D01*
X0213406Y0050509D02*
X0161607Y0050509D01*
X0162807Y0052107D02*
X0212207Y0052107D01*
X0212207Y0053706D02*
X0162807Y0053706D01*
X0162807Y0055304D02*
X0212207Y0055304D01*
X0213424Y0056903D02*
X0161589Y0056903D01*
X0103089Y0080880D02*
X0102235Y0080880D01*
X0102128Y0082479D02*
X0100636Y0082479D01*
X0101807Y0084077D02*
X0099038Y0084077D01*
X0097439Y0085676D02*
X0101814Y0085676D01*
X0102476Y0087274D02*
X0091274Y0087274D01*
X0089450Y0088873D02*
X0103795Y0088873D01*
X0093608Y0080880D02*
X0091327Y0080880D01*
X0091434Y0079282D02*
X0095207Y0079282D01*
X0096805Y0077683D02*
X0092219Y0077683D01*
X0092219Y0076085D02*
X0098404Y0076085D01*
X0100002Y0074486D02*
X0092219Y0074486D01*
X0230005Y0058501D02*
X0230803Y0058501D01*
X0230755Y0056903D02*
X0230803Y0056903D01*
X0232142Y0055304D02*
X0232295Y0055304D01*
X0239603Y0060100D02*
X0239999Y0060100D01*
X0238401Y0061698D02*
X0238346Y0061698D01*
X0238536Y0048910D02*
X0269397Y0048910D01*
X0314634Y0048910D02*
X0318017Y0048910D01*
X0316909Y0050509D02*
X0315742Y0050509D01*
X0316125Y0052107D02*
X0316525Y0052107D01*
X0316525Y0053706D02*
X0316125Y0053706D01*
X0316125Y0055304D02*
X0316525Y0055304D01*
X0316525Y0056903D02*
X0316125Y0056903D01*
X0316125Y0058501D02*
X0316525Y0058501D01*
X0316838Y0060100D02*
X0315813Y0060100D01*
X0314805Y0061698D02*
X0317846Y0061698D01*
M02*
