G75*
%MOIN*%
%OFA0B0*%
%FSLAX25Y25*%
%IPPOS*%
%LPD*%
%AMOC8*
5,1,8,0,0,1.08239X$1,22.5*
%
%ADD10C,0.00000*%
%ADD11R,0.03150X0.04724*%
%ADD12C,0.07600*%
%ADD13C,0.07400*%
%ADD14R,0.07400X0.07400*%
%ADD15R,0.03150X0.03150*%
%ADD16C,0.06600*%
%ADD17R,0.04724X0.03150*%
%ADD18C,0.05800*%
%ADD19C,0.01000*%
%ADD20C,0.01600*%
%ADD21C,0.04000*%
D10*
X0011800Y0011800D02*
X0011800Y0296761D01*
X0355501Y0296761D01*
X0355501Y0011800D01*
X0011800Y0011800D01*
X0055300Y0102800D02*
X0055302Y0102961D01*
X0055308Y0103121D01*
X0055318Y0103282D01*
X0055332Y0103442D01*
X0055350Y0103602D01*
X0055371Y0103761D01*
X0055397Y0103920D01*
X0055427Y0104078D01*
X0055460Y0104235D01*
X0055498Y0104392D01*
X0055539Y0104547D01*
X0055584Y0104701D01*
X0055633Y0104854D01*
X0055686Y0105006D01*
X0055742Y0105157D01*
X0055803Y0105306D01*
X0055866Y0105454D01*
X0055934Y0105600D01*
X0056005Y0105744D01*
X0056079Y0105886D01*
X0056157Y0106027D01*
X0056239Y0106165D01*
X0056324Y0106302D01*
X0056412Y0106436D01*
X0056504Y0106568D01*
X0056599Y0106698D01*
X0056697Y0106826D01*
X0056798Y0106951D01*
X0056902Y0107073D01*
X0057009Y0107193D01*
X0057119Y0107310D01*
X0057232Y0107425D01*
X0057348Y0107536D01*
X0057467Y0107645D01*
X0057588Y0107750D01*
X0057712Y0107853D01*
X0057838Y0107953D01*
X0057966Y0108049D01*
X0058097Y0108142D01*
X0058231Y0108232D01*
X0058366Y0108319D01*
X0058504Y0108402D01*
X0058643Y0108482D01*
X0058785Y0108558D01*
X0058928Y0108631D01*
X0059073Y0108700D01*
X0059220Y0108766D01*
X0059368Y0108828D01*
X0059518Y0108886D01*
X0059669Y0108941D01*
X0059822Y0108992D01*
X0059976Y0109039D01*
X0060131Y0109082D01*
X0060287Y0109121D01*
X0060443Y0109157D01*
X0060601Y0109188D01*
X0060759Y0109216D01*
X0060918Y0109240D01*
X0061078Y0109260D01*
X0061238Y0109276D01*
X0061398Y0109288D01*
X0061559Y0109296D01*
X0061720Y0109300D01*
X0061880Y0109300D01*
X0062041Y0109296D01*
X0062202Y0109288D01*
X0062362Y0109276D01*
X0062522Y0109260D01*
X0062682Y0109240D01*
X0062841Y0109216D01*
X0062999Y0109188D01*
X0063157Y0109157D01*
X0063313Y0109121D01*
X0063469Y0109082D01*
X0063624Y0109039D01*
X0063778Y0108992D01*
X0063931Y0108941D01*
X0064082Y0108886D01*
X0064232Y0108828D01*
X0064380Y0108766D01*
X0064527Y0108700D01*
X0064672Y0108631D01*
X0064815Y0108558D01*
X0064957Y0108482D01*
X0065096Y0108402D01*
X0065234Y0108319D01*
X0065369Y0108232D01*
X0065503Y0108142D01*
X0065634Y0108049D01*
X0065762Y0107953D01*
X0065888Y0107853D01*
X0066012Y0107750D01*
X0066133Y0107645D01*
X0066252Y0107536D01*
X0066368Y0107425D01*
X0066481Y0107310D01*
X0066591Y0107193D01*
X0066698Y0107073D01*
X0066802Y0106951D01*
X0066903Y0106826D01*
X0067001Y0106698D01*
X0067096Y0106568D01*
X0067188Y0106436D01*
X0067276Y0106302D01*
X0067361Y0106165D01*
X0067443Y0106027D01*
X0067521Y0105886D01*
X0067595Y0105744D01*
X0067666Y0105600D01*
X0067734Y0105454D01*
X0067797Y0105306D01*
X0067858Y0105157D01*
X0067914Y0105006D01*
X0067967Y0104854D01*
X0068016Y0104701D01*
X0068061Y0104547D01*
X0068102Y0104392D01*
X0068140Y0104235D01*
X0068173Y0104078D01*
X0068203Y0103920D01*
X0068229Y0103761D01*
X0068250Y0103602D01*
X0068268Y0103442D01*
X0068282Y0103282D01*
X0068292Y0103121D01*
X0068298Y0102961D01*
X0068300Y0102800D01*
X0068298Y0102639D01*
X0068292Y0102479D01*
X0068282Y0102318D01*
X0068268Y0102158D01*
X0068250Y0101998D01*
X0068229Y0101839D01*
X0068203Y0101680D01*
X0068173Y0101522D01*
X0068140Y0101365D01*
X0068102Y0101208D01*
X0068061Y0101053D01*
X0068016Y0100899D01*
X0067967Y0100746D01*
X0067914Y0100594D01*
X0067858Y0100443D01*
X0067797Y0100294D01*
X0067734Y0100146D01*
X0067666Y0100000D01*
X0067595Y0099856D01*
X0067521Y0099714D01*
X0067443Y0099573D01*
X0067361Y0099435D01*
X0067276Y0099298D01*
X0067188Y0099164D01*
X0067096Y0099032D01*
X0067001Y0098902D01*
X0066903Y0098774D01*
X0066802Y0098649D01*
X0066698Y0098527D01*
X0066591Y0098407D01*
X0066481Y0098290D01*
X0066368Y0098175D01*
X0066252Y0098064D01*
X0066133Y0097955D01*
X0066012Y0097850D01*
X0065888Y0097747D01*
X0065762Y0097647D01*
X0065634Y0097551D01*
X0065503Y0097458D01*
X0065369Y0097368D01*
X0065234Y0097281D01*
X0065096Y0097198D01*
X0064957Y0097118D01*
X0064815Y0097042D01*
X0064672Y0096969D01*
X0064527Y0096900D01*
X0064380Y0096834D01*
X0064232Y0096772D01*
X0064082Y0096714D01*
X0063931Y0096659D01*
X0063778Y0096608D01*
X0063624Y0096561D01*
X0063469Y0096518D01*
X0063313Y0096479D01*
X0063157Y0096443D01*
X0062999Y0096412D01*
X0062841Y0096384D01*
X0062682Y0096360D01*
X0062522Y0096340D01*
X0062362Y0096324D01*
X0062202Y0096312D01*
X0062041Y0096304D01*
X0061880Y0096300D01*
X0061720Y0096300D01*
X0061559Y0096304D01*
X0061398Y0096312D01*
X0061238Y0096324D01*
X0061078Y0096340D01*
X0060918Y0096360D01*
X0060759Y0096384D01*
X0060601Y0096412D01*
X0060443Y0096443D01*
X0060287Y0096479D01*
X0060131Y0096518D01*
X0059976Y0096561D01*
X0059822Y0096608D01*
X0059669Y0096659D01*
X0059518Y0096714D01*
X0059368Y0096772D01*
X0059220Y0096834D01*
X0059073Y0096900D01*
X0058928Y0096969D01*
X0058785Y0097042D01*
X0058643Y0097118D01*
X0058504Y0097198D01*
X0058366Y0097281D01*
X0058231Y0097368D01*
X0058097Y0097458D01*
X0057966Y0097551D01*
X0057838Y0097647D01*
X0057712Y0097747D01*
X0057588Y0097850D01*
X0057467Y0097955D01*
X0057348Y0098064D01*
X0057232Y0098175D01*
X0057119Y0098290D01*
X0057009Y0098407D01*
X0056902Y0098527D01*
X0056798Y0098649D01*
X0056697Y0098774D01*
X0056599Y0098902D01*
X0056504Y0099032D01*
X0056412Y0099164D01*
X0056324Y0099298D01*
X0056239Y0099435D01*
X0056157Y0099573D01*
X0056079Y0099714D01*
X0056005Y0099856D01*
X0055934Y0100000D01*
X0055866Y0100146D01*
X0055803Y0100294D01*
X0055742Y0100443D01*
X0055686Y0100594D01*
X0055633Y0100746D01*
X0055584Y0100899D01*
X0055539Y0101053D01*
X0055498Y0101208D01*
X0055460Y0101365D01*
X0055427Y0101522D01*
X0055397Y0101680D01*
X0055371Y0101839D01*
X0055350Y0101998D01*
X0055332Y0102158D01*
X0055318Y0102318D01*
X0055308Y0102479D01*
X0055302Y0102639D01*
X0055300Y0102800D01*
X0130300Y0102800D02*
X0130302Y0102961D01*
X0130308Y0103121D01*
X0130318Y0103282D01*
X0130332Y0103442D01*
X0130350Y0103602D01*
X0130371Y0103761D01*
X0130397Y0103920D01*
X0130427Y0104078D01*
X0130460Y0104235D01*
X0130498Y0104392D01*
X0130539Y0104547D01*
X0130584Y0104701D01*
X0130633Y0104854D01*
X0130686Y0105006D01*
X0130742Y0105157D01*
X0130803Y0105306D01*
X0130866Y0105454D01*
X0130934Y0105600D01*
X0131005Y0105744D01*
X0131079Y0105886D01*
X0131157Y0106027D01*
X0131239Y0106165D01*
X0131324Y0106302D01*
X0131412Y0106436D01*
X0131504Y0106568D01*
X0131599Y0106698D01*
X0131697Y0106826D01*
X0131798Y0106951D01*
X0131902Y0107073D01*
X0132009Y0107193D01*
X0132119Y0107310D01*
X0132232Y0107425D01*
X0132348Y0107536D01*
X0132467Y0107645D01*
X0132588Y0107750D01*
X0132712Y0107853D01*
X0132838Y0107953D01*
X0132966Y0108049D01*
X0133097Y0108142D01*
X0133231Y0108232D01*
X0133366Y0108319D01*
X0133504Y0108402D01*
X0133643Y0108482D01*
X0133785Y0108558D01*
X0133928Y0108631D01*
X0134073Y0108700D01*
X0134220Y0108766D01*
X0134368Y0108828D01*
X0134518Y0108886D01*
X0134669Y0108941D01*
X0134822Y0108992D01*
X0134976Y0109039D01*
X0135131Y0109082D01*
X0135287Y0109121D01*
X0135443Y0109157D01*
X0135601Y0109188D01*
X0135759Y0109216D01*
X0135918Y0109240D01*
X0136078Y0109260D01*
X0136238Y0109276D01*
X0136398Y0109288D01*
X0136559Y0109296D01*
X0136720Y0109300D01*
X0136880Y0109300D01*
X0137041Y0109296D01*
X0137202Y0109288D01*
X0137362Y0109276D01*
X0137522Y0109260D01*
X0137682Y0109240D01*
X0137841Y0109216D01*
X0137999Y0109188D01*
X0138157Y0109157D01*
X0138313Y0109121D01*
X0138469Y0109082D01*
X0138624Y0109039D01*
X0138778Y0108992D01*
X0138931Y0108941D01*
X0139082Y0108886D01*
X0139232Y0108828D01*
X0139380Y0108766D01*
X0139527Y0108700D01*
X0139672Y0108631D01*
X0139815Y0108558D01*
X0139957Y0108482D01*
X0140096Y0108402D01*
X0140234Y0108319D01*
X0140369Y0108232D01*
X0140503Y0108142D01*
X0140634Y0108049D01*
X0140762Y0107953D01*
X0140888Y0107853D01*
X0141012Y0107750D01*
X0141133Y0107645D01*
X0141252Y0107536D01*
X0141368Y0107425D01*
X0141481Y0107310D01*
X0141591Y0107193D01*
X0141698Y0107073D01*
X0141802Y0106951D01*
X0141903Y0106826D01*
X0142001Y0106698D01*
X0142096Y0106568D01*
X0142188Y0106436D01*
X0142276Y0106302D01*
X0142361Y0106165D01*
X0142443Y0106027D01*
X0142521Y0105886D01*
X0142595Y0105744D01*
X0142666Y0105600D01*
X0142734Y0105454D01*
X0142797Y0105306D01*
X0142858Y0105157D01*
X0142914Y0105006D01*
X0142967Y0104854D01*
X0143016Y0104701D01*
X0143061Y0104547D01*
X0143102Y0104392D01*
X0143140Y0104235D01*
X0143173Y0104078D01*
X0143203Y0103920D01*
X0143229Y0103761D01*
X0143250Y0103602D01*
X0143268Y0103442D01*
X0143282Y0103282D01*
X0143292Y0103121D01*
X0143298Y0102961D01*
X0143300Y0102800D01*
X0143298Y0102639D01*
X0143292Y0102479D01*
X0143282Y0102318D01*
X0143268Y0102158D01*
X0143250Y0101998D01*
X0143229Y0101839D01*
X0143203Y0101680D01*
X0143173Y0101522D01*
X0143140Y0101365D01*
X0143102Y0101208D01*
X0143061Y0101053D01*
X0143016Y0100899D01*
X0142967Y0100746D01*
X0142914Y0100594D01*
X0142858Y0100443D01*
X0142797Y0100294D01*
X0142734Y0100146D01*
X0142666Y0100000D01*
X0142595Y0099856D01*
X0142521Y0099714D01*
X0142443Y0099573D01*
X0142361Y0099435D01*
X0142276Y0099298D01*
X0142188Y0099164D01*
X0142096Y0099032D01*
X0142001Y0098902D01*
X0141903Y0098774D01*
X0141802Y0098649D01*
X0141698Y0098527D01*
X0141591Y0098407D01*
X0141481Y0098290D01*
X0141368Y0098175D01*
X0141252Y0098064D01*
X0141133Y0097955D01*
X0141012Y0097850D01*
X0140888Y0097747D01*
X0140762Y0097647D01*
X0140634Y0097551D01*
X0140503Y0097458D01*
X0140369Y0097368D01*
X0140234Y0097281D01*
X0140096Y0097198D01*
X0139957Y0097118D01*
X0139815Y0097042D01*
X0139672Y0096969D01*
X0139527Y0096900D01*
X0139380Y0096834D01*
X0139232Y0096772D01*
X0139082Y0096714D01*
X0138931Y0096659D01*
X0138778Y0096608D01*
X0138624Y0096561D01*
X0138469Y0096518D01*
X0138313Y0096479D01*
X0138157Y0096443D01*
X0137999Y0096412D01*
X0137841Y0096384D01*
X0137682Y0096360D01*
X0137522Y0096340D01*
X0137362Y0096324D01*
X0137202Y0096312D01*
X0137041Y0096304D01*
X0136880Y0096300D01*
X0136720Y0096300D01*
X0136559Y0096304D01*
X0136398Y0096312D01*
X0136238Y0096324D01*
X0136078Y0096340D01*
X0135918Y0096360D01*
X0135759Y0096384D01*
X0135601Y0096412D01*
X0135443Y0096443D01*
X0135287Y0096479D01*
X0135131Y0096518D01*
X0134976Y0096561D01*
X0134822Y0096608D01*
X0134669Y0096659D01*
X0134518Y0096714D01*
X0134368Y0096772D01*
X0134220Y0096834D01*
X0134073Y0096900D01*
X0133928Y0096969D01*
X0133785Y0097042D01*
X0133643Y0097118D01*
X0133504Y0097198D01*
X0133366Y0097281D01*
X0133231Y0097368D01*
X0133097Y0097458D01*
X0132966Y0097551D01*
X0132838Y0097647D01*
X0132712Y0097747D01*
X0132588Y0097850D01*
X0132467Y0097955D01*
X0132348Y0098064D01*
X0132232Y0098175D01*
X0132119Y0098290D01*
X0132009Y0098407D01*
X0131902Y0098527D01*
X0131798Y0098649D01*
X0131697Y0098774D01*
X0131599Y0098902D01*
X0131504Y0099032D01*
X0131412Y0099164D01*
X0131324Y0099298D01*
X0131239Y0099435D01*
X0131157Y0099573D01*
X0131079Y0099714D01*
X0131005Y0099856D01*
X0130934Y0100000D01*
X0130866Y0100146D01*
X0130803Y0100294D01*
X0130742Y0100443D01*
X0130686Y0100594D01*
X0130633Y0100746D01*
X0130584Y0100899D01*
X0130539Y0101053D01*
X0130498Y0101208D01*
X0130460Y0101365D01*
X0130427Y0101522D01*
X0130397Y0101680D01*
X0130371Y0101839D01*
X0130350Y0101998D01*
X0130332Y0102158D01*
X0130318Y0102318D01*
X0130308Y0102479D01*
X0130302Y0102639D01*
X0130300Y0102800D01*
X0205300Y0141800D02*
X0205302Y0141961D01*
X0205308Y0142121D01*
X0205318Y0142282D01*
X0205332Y0142442D01*
X0205350Y0142602D01*
X0205371Y0142761D01*
X0205397Y0142920D01*
X0205427Y0143078D01*
X0205460Y0143235D01*
X0205498Y0143392D01*
X0205539Y0143547D01*
X0205584Y0143701D01*
X0205633Y0143854D01*
X0205686Y0144006D01*
X0205742Y0144157D01*
X0205803Y0144306D01*
X0205866Y0144454D01*
X0205934Y0144600D01*
X0206005Y0144744D01*
X0206079Y0144886D01*
X0206157Y0145027D01*
X0206239Y0145165D01*
X0206324Y0145302D01*
X0206412Y0145436D01*
X0206504Y0145568D01*
X0206599Y0145698D01*
X0206697Y0145826D01*
X0206798Y0145951D01*
X0206902Y0146073D01*
X0207009Y0146193D01*
X0207119Y0146310D01*
X0207232Y0146425D01*
X0207348Y0146536D01*
X0207467Y0146645D01*
X0207588Y0146750D01*
X0207712Y0146853D01*
X0207838Y0146953D01*
X0207966Y0147049D01*
X0208097Y0147142D01*
X0208231Y0147232D01*
X0208366Y0147319D01*
X0208504Y0147402D01*
X0208643Y0147482D01*
X0208785Y0147558D01*
X0208928Y0147631D01*
X0209073Y0147700D01*
X0209220Y0147766D01*
X0209368Y0147828D01*
X0209518Y0147886D01*
X0209669Y0147941D01*
X0209822Y0147992D01*
X0209976Y0148039D01*
X0210131Y0148082D01*
X0210287Y0148121D01*
X0210443Y0148157D01*
X0210601Y0148188D01*
X0210759Y0148216D01*
X0210918Y0148240D01*
X0211078Y0148260D01*
X0211238Y0148276D01*
X0211398Y0148288D01*
X0211559Y0148296D01*
X0211720Y0148300D01*
X0211880Y0148300D01*
X0212041Y0148296D01*
X0212202Y0148288D01*
X0212362Y0148276D01*
X0212522Y0148260D01*
X0212682Y0148240D01*
X0212841Y0148216D01*
X0212999Y0148188D01*
X0213157Y0148157D01*
X0213313Y0148121D01*
X0213469Y0148082D01*
X0213624Y0148039D01*
X0213778Y0147992D01*
X0213931Y0147941D01*
X0214082Y0147886D01*
X0214232Y0147828D01*
X0214380Y0147766D01*
X0214527Y0147700D01*
X0214672Y0147631D01*
X0214815Y0147558D01*
X0214957Y0147482D01*
X0215096Y0147402D01*
X0215234Y0147319D01*
X0215369Y0147232D01*
X0215503Y0147142D01*
X0215634Y0147049D01*
X0215762Y0146953D01*
X0215888Y0146853D01*
X0216012Y0146750D01*
X0216133Y0146645D01*
X0216252Y0146536D01*
X0216368Y0146425D01*
X0216481Y0146310D01*
X0216591Y0146193D01*
X0216698Y0146073D01*
X0216802Y0145951D01*
X0216903Y0145826D01*
X0217001Y0145698D01*
X0217096Y0145568D01*
X0217188Y0145436D01*
X0217276Y0145302D01*
X0217361Y0145165D01*
X0217443Y0145027D01*
X0217521Y0144886D01*
X0217595Y0144744D01*
X0217666Y0144600D01*
X0217734Y0144454D01*
X0217797Y0144306D01*
X0217858Y0144157D01*
X0217914Y0144006D01*
X0217967Y0143854D01*
X0218016Y0143701D01*
X0218061Y0143547D01*
X0218102Y0143392D01*
X0218140Y0143235D01*
X0218173Y0143078D01*
X0218203Y0142920D01*
X0218229Y0142761D01*
X0218250Y0142602D01*
X0218268Y0142442D01*
X0218282Y0142282D01*
X0218292Y0142121D01*
X0218298Y0141961D01*
X0218300Y0141800D01*
X0218298Y0141639D01*
X0218292Y0141479D01*
X0218282Y0141318D01*
X0218268Y0141158D01*
X0218250Y0140998D01*
X0218229Y0140839D01*
X0218203Y0140680D01*
X0218173Y0140522D01*
X0218140Y0140365D01*
X0218102Y0140208D01*
X0218061Y0140053D01*
X0218016Y0139899D01*
X0217967Y0139746D01*
X0217914Y0139594D01*
X0217858Y0139443D01*
X0217797Y0139294D01*
X0217734Y0139146D01*
X0217666Y0139000D01*
X0217595Y0138856D01*
X0217521Y0138714D01*
X0217443Y0138573D01*
X0217361Y0138435D01*
X0217276Y0138298D01*
X0217188Y0138164D01*
X0217096Y0138032D01*
X0217001Y0137902D01*
X0216903Y0137774D01*
X0216802Y0137649D01*
X0216698Y0137527D01*
X0216591Y0137407D01*
X0216481Y0137290D01*
X0216368Y0137175D01*
X0216252Y0137064D01*
X0216133Y0136955D01*
X0216012Y0136850D01*
X0215888Y0136747D01*
X0215762Y0136647D01*
X0215634Y0136551D01*
X0215503Y0136458D01*
X0215369Y0136368D01*
X0215234Y0136281D01*
X0215096Y0136198D01*
X0214957Y0136118D01*
X0214815Y0136042D01*
X0214672Y0135969D01*
X0214527Y0135900D01*
X0214380Y0135834D01*
X0214232Y0135772D01*
X0214082Y0135714D01*
X0213931Y0135659D01*
X0213778Y0135608D01*
X0213624Y0135561D01*
X0213469Y0135518D01*
X0213313Y0135479D01*
X0213157Y0135443D01*
X0212999Y0135412D01*
X0212841Y0135384D01*
X0212682Y0135360D01*
X0212522Y0135340D01*
X0212362Y0135324D01*
X0212202Y0135312D01*
X0212041Y0135304D01*
X0211880Y0135300D01*
X0211720Y0135300D01*
X0211559Y0135304D01*
X0211398Y0135312D01*
X0211238Y0135324D01*
X0211078Y0135340D01*
X0210918Y0135360D01*
X0210759Y0135384D01*
X0210601Y0135412D01*
X0210443Y0135443D01*
X0210287Y0135479D01*
X0210131Y0135518D01*
X0209976Y0135561D01*
X0209822Y0135608D01*
X0209669Y0135659D01*
X0209518Y0135714D01*
X0209368Y0135772D01*
X0209220Y0135834D01*
X0209073Y0135900D01*
X0208928Y0135969D01*
X0208785Y0136042D01*
X0208643Y0136118D01*
X0208504Y0136198D01*
X0208366Y0136281D01*
X0208231Y0136368D01*
X0208097Y0136458D01*
X0207966Y0136551D01*
X0207838Y0136647D01*
X0207712Y0136747D01*
X0207588Y0136850D01*
X0207467Y0136955D01*
X0207348Y0137064D01*
X0207232Y0137175D01*
X0207119Y0137290D01*
X0207009Y0137407D01*
X0206902Y0137527D01*
X0206798Y0137649D01*
X0206697Y0137774D01*
X0206599Y0137902D01*
X0206504Y0138032D01*
X0206412Y0138164D01*
X0206324Y0138298D01*
X0206239Y0138435D01*
X0206157Y0138573D01*
X0206079Y0138714D01*
X0206005Y0138856D01*
X0205934Y0139000D01*
X0205866Y0139146D01*
X0205803Y0139294D01*
X0205742Y0139443D01*
X0205686Y0139594D01*
X0205633Y0139746D01*
X0205584Y0139899D01*
X0205539Y0140053D01*
X0205498Y0140208D01*
X0205460Y0140365D01*
X0205427Y0140522D01*
X0205397Y0140680D01*
X0205371Y0140839D01*
X0205350Y0140998D01*
X0205332Y0141158D01*
X0205318Y0141318D01*
X0205308Y0141479D01*
X0205302Y0141639D01*
X0205300Y0141800D01*
X0260300Y0141800D02*
X0260302Y0141961D01*
X0260308Y0142121D01*
X0260318Y0142282D01*
X0260332Y0142442D01*
X0260350Y0142602D01*
X0260371Y0142761D01*
X0260397Y0142920D01*
X0260427Y0143078D01*
X0260460Y0143235D01*
X0260498Y0143392D01*
X0260539Y0143547D01*
X0260584Y0143701D01*
X0260633Y0143854D01*
X0260686Y0144006D01*
X0260742Y0144157D01*
X0260803Y0144306D01*
X0260866Y0144454D01*
X0260934Y0144600D01*
X0261005Y0144744D01*
X0261079Y0144886D01*
X0261157Y0145027D01*
X0261239Y0145165D01*
X0261324Y0145302D01*
X0261412Y0145436D01*
X0261504Y0145568D01*
X0261599Y0145698D01*
X0261697Y0145826D01*
X0261798Y0145951D01*
X0261902Y0146073D01*
X0262009Y0146193D01*
X0262119Y0146310D01*
X0262232Y0146425D01*
X0262348Y0146536D01*
X0262467Y0146645D01*
X0262588Y0146750D01*
X0262712Y0146853D01*
X0262838Y0146953D01*
X0262966Y0147049D01*
X0263097Y0147142D01*
X0263231Y0147232D01*
X0263366Y0147319D01*
X0263504Y0147402D01*
X0263643Y0147482D01*
X0263785Y0147558D01*
X0263928Y0147631D01*
X0264073Y0147700D01*
X0264220Y0147766D01*
X0264368Y0147828D01*
X0264518Y0147886D01*
X0264669Y0147941D01*
X0264822Y0147992D01*
X0264976Y0148039D01*
X0265131Y0148082D01*
X0265287Y0148121D01*
X0265443Y0148157D01*
X0265601Y0148188D01*
X0265759Y0148216D01*
X0265918Y0148240D01*
X0266078Y0148260D01*
X0266238Y0148276D01*
X0266398Y0148288D01*
X0266559Y0148296D01*
X0266720Y0148300D01*
X0266880Y0148300D01*
X0267041Y0148296D01*
X0267202Y0148288D01*
X0267362Y0148276D01*
X0267522Y0148260D01*
X0267682Y0148240D01*
X0267841Y0148216D01*
X0267999Y0148188D01*
X0268157Y0148157D01*
X0268313Y0148121D01*
X0268469Y0148082D01*
X0268624Y0148039D01*
X0268778Y0147992D01*
X0268931Y0147941D01*
X0269082Y0147886D01*
X0269232Y0147828D01*
X0269380Y0147766D01*
X0269527Y0147700D01*
X0269672Y0147631D01*
X0269815Y0147558D01*
X0269957Y0147482D01*
X0270096Y0147402D01*
X0270234Y0147319D01*
X0270369Y0147232D01*
X0270503Y0147142D01*
X0270634Y0147049D01*
X0270762Y0146953D01*
X0270888Y0146853D01*
X0271012Y0146750D01*
X0271133Y0146645D01*
X0271252Y0146536D01*
X0271368Y0146425D01*
X0271481Y0146310D01*
X0271591Y0146193D01*
X0271698Y0146073D01*
X0271802Y0145951D01*
X0271903Y0145826D01*
X0272001Y0145698D01*
X0272096Y0145568D01*
X0272188Y0145436D01*
X0272276Y0145302D01*
X0272361Y0145165D01*
X0272443Y0145027D01*
X0272521Y0144886D01*
X0272595Y0144744D01*
X0272666Y0144600D01*
X0272734Y0144454D01*
X0272797Y0144306D01*
X0272858Y0144157D01*
X0272914Y0144006D01*
X0272967Y0143854D01*
X0273016Y0143701D01*
X0273061Y0143547D01*
X0273102Y0143392D01*
X0273140Y0143235D01*
X0273173Y0143078D01*
X0273203Y0142920D01*
X0273229Y0142761D01*
X0273250Y0142602D01*
X0273268Y0142442D01*
X0273282Y0142282D01*
X0273292Y0142121D01*
X0273298Y0141961D01*
X0273300Y0141800D01*
X0273298Y0141639D01*
X0273292Y0141479D01*
X0273282Y0141318D01*
X0273268Y0141158D01*
X0273250Y0140998D01*
X0273229Y0140839D01*
X0273203Y0140680D01*
X0273173Y0140522D01*
X0273140Y0140365D01*
X0273102Y0140208D01*
X0273061Y0140053D01*
X0273016Y0139899D01*
X0272967Y0139746D01*
X0272914Y0139594D01*
X0272858Y0139443D01*
X0272797Y0139294D01*
X0272734Y0139146D01*
X0272666Y0139000D01*
X0272595Y0138856D01*
X0272521Y0138714D01*
X0272443Y0138573D01*
X0272361Y0138435D01*
X0272276Y0138298D01*
X0272188Y0138164D01*
X0272096Y0138032D01*
X0272001Y0137902D01*
X0271903Y0137774D01*
X0271802Y0137649D01*
X0271698Y0137527D01*
X0271591Y0137407D01*
X0271481Y0137290D01*
X0271368Y0137175D01*
X0271252Y0137064D01*
X0271133Y0136955D01*
X0271012Y0136850D01*
X0270888Y0136747D01*
X0270762Y0136647D01*
X0270634Y0136551D01*
X0270503Y0136458D01*
X0270369Y0136368D01*
X0270234Y0136281D01*
X0270096Y0136198D01*
X0269957Y0136118D01*
X0269815Y0136042D01*
X0269672Y0135969D01*
X0269527Y0135900D01*
X0269380Y0135834D01*
X0269232Y0135772D01*
X0269082Y0135714D01*
X0268931Y0135659D01*
X0268778Y0135608D01*
X0268624Y0135561D01*
X0268469Y0135518D01*
X0268313Y0135479D01*
X0268157Y0135443D01*
X0267999Y0135412D01*
X0267841Y0135384D01*
X0267682Y0135360D01*
X0267522Y0135340D01*
X0267362Y0135324D01*
X0267202Y0135312D01*
X0267041Y0135304D01*
X0266880Y0135300D01*
X0266720Y0135300D01*
X0266559Y0135304D01*
X0266398Y0135312D01*
X0266238Y0135324D01*
X0266078Y0135340D01*
X0265918Y0135360D01*
X0265759Y0135384D01*
X0265601Y0135412D01*
X0265443Y0135443D01*
X0265287Y0135479D01*
X0265131Y0135518D01*
X0264976Y0135561D01*
X0264822Y0135608D01*
X0264669Y0135659D01*
X0264518Y0135714D01*
X0264368Y0135772D01*
X0264220Y0135834D01*
X0264073Y0135900D01*
X0263928Y0135969D01*
X0263785Y0136042D01*
X0263643Y0136118D01*
X0263504Y0136198D01*
X0263366Y0136281D01*
X0263231Y0136368D01*
X0263097Y0136458D01*
X0262966Y0136551D01*
X0262838Y0136647D01*
X0262712Y0136747D01*
X0262588Y0136850D01*
X0262467Y0136955D01*
X0262348Y0137064D01*
X0262232Y0137175D01*
X0262119Y0137290D01*
X0262009Y0137407D01*
X0261902Y0137527D01*
X0261798Y0137649D01*
X0261697Y0137774D01*
X0261599Y0137902D01*
X0261504Y0138032D01*
X0261412Y0138164D01*
X0261324Y0138298D01*
X0261239Y0138435D01*
X0261157Y0138573D01*
X0261079Y0138714D01*
X0261005Y0138856D01*
X0260934Y0139000D01*
X0260866Y0139146D01*
X0260803Y0139294D01*
X0260742Y0139443D01*
X0260686Y0139594D01*
X0260633Y0139746D01*
X0260584Y0139899D01*
X0260539Y0140053D01*
X0260498Y0140208D01*
X0260460Y0140365D01*
X0260427Y0140522D01*
X0260397Y0140680D01*
X0260371Y0140839D01*
X0260350Y0140998D01*
X0260332Y0141158D01*
X0260318Y0141318D01*
X0260308Y0141479D01*
X0260302Y0141639D01*
X0260300Y0141800D01*
D11*
X0140343Y0191800D03*
X0133257Y0191800D03*
X0133257Y0246800D03*
X0140343Y0246800D03*
X0060343Y0246800D03*
X0053257Y0246800D03*
X0163257Y0041800D03*
X0170343Y0041800D03*
D12*
X0156800Y0226800D03*
X0116800Y0226800D03*
X0076800Y0226800D03*
X0036800Y0226800D03*
D13*
X0051800Y0266800D03*
X0061800Y0266800D03*
X0131800Y0266800D03*
X0141800Y0266800D03*
X0206800Y0266800D03*
X0216800Y0266800D03*
X0261800Y0266800D03*
X0271800Y0266800D03*
X0301800Y0266800D03*
X0311800Y0266800D03*
X0321800Y0266800D03*
X0116800Y0071800D03*
X0116800Y0061800D03*
X0116800Y0051800D03*
X0116800Y0041800D03*
X0116800Y0031800D03*
D14*
X0121800Y0266800D03*
X0196800Y0266800D03*
X0251800Y0266800D03*
X0331800Y0266800D03*
X0041800Y0266800D03*
D15*
X0076800Y0194753D03*
X0076800Y0188847D03*
X0156800Y0188847D03*
X0156800Y0194753D03*
X0176800Y0059753D03*
X0176800Y0053847D03*
D16*
X0146800Y0168500D02*
X0146800Y0175100D01*
X0136800Y0175100D02*
X0136800Y0168500D01*
X0126800Y0168500D02*
X0126800Y0175100D01*
X0071800Y0175100D02*
X0071800Y0168500D01*
X0061800Y0168500D02*
X0061800Y0175100D01*
X0051800Y0175100D02*
X0051800Y0168500D01*
X0202800Y0178500D02*
X0202800Y0185100D01*
X0211800Y0185100D02*
X0211800Y0178500D01*
X0220800Y0178500D02*
X0220800Y0185100D01*
X0257800Y0185100D02*
X0257800Y0178500D01*
X0266800Y0178500D02*
X0266800Y0185100D01*
X0275800Y0185100D02*
X0275800Y0178500D01*
D17*
X0251800Y0213257D03*
X0251800Y0220343D03*
X0201800Y0220343D03*
X0201800Y0213257D03*
X0156800Y0215343D03*
X0156800Y0208257D03*
X0076800Y0208257D03*
X0076800Y0215343D03*
X0061800Y0195343D03*
X0061800Y0188257D03*
D18*
X0201800Y0096800D03*
X0201800Y0086800D03*
X0211800Y0096800D03*
X0221800Y0096800D03*
X0231800Y0096800D03*
X0241800Y0096800D03*
X0251800Y0096800D03*
X0261800Y0096800D03*
X0271800Y0096800D03*
X0281800Y0096800D03*
X0291800Y0096800D03*
X0301800Y0096800D03*
X0311800Y0096800D03*
X0321800Y0096800D03*
X0331800Y0096800D03*
X0331800Y0036800D03*
X0321800Y0036800D03*
X0311800Y0036800D03*
X0301800Y0036800D03*
X0291800Y0036800D03*
X0281800Y0036800D03*
X0271800Y0036800D03*
X0261800Y0036800D03*
X0251800Y0036800D03*
X0241800Y0036800D03*
X0231800Y0036800D03*
X0221800Y0036800D03*
X0211800Y0036800D03*
X0201800Y0036800D03*
X0201800Y0046800D03*
X0201800Y0056800D03*
X0201800Y0066800D03*
X0201800Y0076800D03*
D19*
X0221800Y0096800D02*
X0221500Y0097300D01*
X0221500Y0099100D01*
X0154000Y0166600D01*
X0154000Y0168400D01*
X0150400Y0172000D01*
X0146800Y0172000D01*
X0146800Y0171800D01*
X0150400Y0172000D02*
X0156700Y0178300D01*
X0156700Y0188200D01*
X0156800Y0188847D01*
X0157600Y0188200D01*
X0159400Y0188200D01*
X0162100Y0190900D01*
X0162100Y0198100D01*
X0156700Y0203500D01*
X0156700Y0208000D01*
X0156800Y0208257D01*
X0156800Y0194753D02*
X0156700Y0194500D01*
X0146800Y0194500D01*
X0144100Y0191800D01*
X0140343Y0191800D01*
X0082900Y0190900D02*
X0160300Y0113500D01*
X0172000Y0059500D02*
X0170200Y0057700D01*
X0170200Y0042400D01*
X0170343Y0041800D01*
X0176500Y0037900D02*
X0173800Y0035200D01*
X0134200Y0035200D01*
X0117100Y0052300D01*
X0116800Y0051800D01*
X0172000Y0059500D02*
X0176500Y0059500D01*
X0176800Y0059753D01*
X0176800Y0053847D02*
X0176500Y0053200D01*
X0176500Y0037900D01*
X0217000Y0171100D02*
X0262000Y0171100D01*
X0266500Y0175600D01*
X0266500Y0181000D01*
X0266800Y0181800D01*
X0257800Y0181800D02*
X0257500Y0181900D01*
X0257500Y0185500D01*
X0252100Y0190900D01*
X0252100Y0212500D01*
X0251800Y0213257D01*
X0212500Y0181000D02*
X0211800Y0181800D01*
X0212500Y0181000D02*
X0212500Y0175600D01*
X0217000Y0171100D01*
X0202800Y0181800D02*
X0202600Y0181900D01*
X0202600Y0190000D01*
X0201700Y0190900D01*
X0201700Y0212500D01*
X0201800Y0213257D01*
X0140343Y0246800D02*
X0140500Y0247600D01*
X0140500Y0262900D01*
X0141400Y0263800D01*
X0141400Y0266500D01*
X0141800Y0266800D01*
X0133300Y0262900D02*
X0132400Y0263800D01*
X0132400Y0266500D01*
X0131800Y0266800D01*
X0133300Y0262900D02*
X0133300Y0247600D01*
X0133257Y0246800D01*
X0076800Y0208257D02*
X0076600Y0208000D01*
X0076600Y0203500D01*
X0082900Y0197200D01*
X0082900Y0190900D01*
X0080200Y0188200D01*
X0077500Y0188200D01*
X0076800Y0188847D01*
X0076600Y0188200D01*
X0076600Y0184600D01*
X0071200Y0179200D01*
X0071200Y0172000D01*
X0071800Y0171800D01*
X0067600Y0194500D02*
X0066700Y0195400D01*
X0062200Y0195400D01*
X0061800Y0195343D01*
X0067600Y0194500D02*
X0076600Y0194500D01*
X0076800Y0194753D01*
X0060343Y0246800D02*
X0060400Y0247600D01*
X0060400Y0262900D01*
X0061300Y0263800D01*
X0061300Y0266500D01*
X0061800Y0266800D01*
X0053200Y0262900D02*
X0052300Y0263800D01*
X0052300Y0266500D01*
X0051800Y0266800D01*
X0053200Y0262900D02*
X0053200Y0247600D01*
X0053257Y0246800D01*
D20*
X0056431Y0246781D02*
X0057169Y0246781D01*
X0057169Y0245183D02*
X0056431Y0245183D01*
X0056431Y0243775D02*
X0056431Y0249825D01*
X0055494Y0250762D01*
X0055300Y0250762D01*
X0055300Y0262805D01*
X0056293Y0263798D01*
X0056800Y0265022D01*
X0057307Y0263798D01*
X0058300Y0262805D01*
X0058300Y0250762D01*
X0058106Y0250762D01*
X0057169Y0249825D01*
X0057169Y0243775D01*
X0058106Y0242838D01*
X0062581Y0242838D01*
X0063518Y0243775D01*
X0063518Y0249825D01*
X0062581Y0250762D01*
X0062500Y0250762D01*
X0062500Y0261500D01*
X0062854Y0261500D01*
X0064802Y0262307D01*
X0066293Y0263798D01*
X0067100Y0265746D01*
X0067100Y0267854D01*
X0066293Y0269802D01*
X0064802Y0271293D01*
X0062854Y0272100D01*
X0060746Y0272100D01*
X0058798Y0271293D01*
X0057307Y0269802D01*
X0056800Y0268578D01*
X0056293Y0269802D01*
X0054802Y0271293D01*
X0052854Y0272100D01*
X0050746Y0272100D01*
X0048798Y0271293D01*
X0047307Y0269802D01*
X0047100Y0269303D01*
X0047100Y0271163D01*
X0046163Y0272100D01*
X0037437Y0272100D01*
X0036500Y0271163D01*
X0036500Y0262437D01*
X0037437Y0261500D01*
X0046163Y0261500D01*
X0047100Y0262437D01*
X0047100Y0264297D01*
X0047307Y0263798D01*
X0048798Y0262307D01*
X0050746Y0261500D01*
X0051100Y0261500D01*
X0051100Y0250762D01*
X0051019Y0250762D01*
X0050082Y0249825D01*
X0050082Y0243775D01*
X0051019Y0242838D01*
X0055494Y0242838D01*
X0056431Y0243775D01*
X0056241Y0243584D02*
X0057359Y0243584D01*
X0057169Y0248380D02*
X0056431Y0248380D01*
X0056278Y0249978D02*
X0057322Y0249978D01*
X0058300Y0251577D02*
X0055300Y0251577D01*
X0055300Y0253175D02*
X0058300Y0253175D01*
X0058300Y0254774D02*
X0055300Y0254774D01*
X0055300Y0256372D02*
X0058300Y0256372D01*
X0058300Y0257971D02*
X0055300Y0257971D01*
X0055300Y0259569D02*
X0058300Y0259569D01*
X0058300Y0261168D02*
X0055300Y0261168D01*
X0055300Y0262766D02*
X0058300Y0262766D01*
X0057072Y0264365D02*
X0056528Y0264365D01*
X0062500Y0261168D02*
X0131200Y0261168D01*
X0131200Y0261500D02*
X0131200Y0250762D01*
X0131019Y0250762D01*
X0130082Y0249825D01*
X0130082Y0243775D01*
X0131019Y0242838D01*
X0135494Y0242838D01*
X0136431Y0243775D01*
X0136431Y0249825D01*
X0135494Y0250762D01*
X0135400Y0250762D01*
X0135400Y0262905D01*
X0136293Y0263798D01*
X0136800Y0265022D01*
X0137307Y0263798D01*
X0138400Y0262705D01*
X0138400Y0250762D01*
X0138106Y0250762D01*
X0137169Y0249825D01*
X0137169Y0243775D01*
X0138106Y0242838D01*
X0142581Y0242838D01*
X0143518Y0243775D01*
X0143518Y0249825D01*
X0142600Y0250743D01*
X0142600Y0261500D01*
X0142854Y0261500D01*
X0144802Y0262307D01*
X0146293Y0263798D01*
X0147100Y0265746D01*
X0147100Y0267854D01*
X0146293Y0269802D01*
X0144802Y0271293D01*
X0142854Y0272100D01*
X0140746Y0272100D01*
X0138798Y0271293D01*
X0137307Y0269802D01*
X0136800Y0268578D01*
X0136293Y0269802D01*
X0134802Y0271293D01*
X0132854Y0272100D01*
X0130746Y0272100D01*
X0128798Y0271293D01*
X0127307Y0269802D01*
X0127100Y0269303D01*
X0127100Y0271163D01*
X0126163Y0272100D01*
X0117437Y0272100D01*
X0116500Y0271163D01*
X0116500Y0262437D01*
X0117437Y0261500D01*
X0126163Y0261500D01*
X0127100Y0262437D01*
X0127100Y0264297D01*
X0127307Y0263798D01*
X0128798Y0262307D01*
X0130746Y0261500D01*
X0131200Y0261500D01*
X0131200Y0259569D02*
X0062500Y0259569D01*
X0062500Y0257971D02*
X0131200Y0257971D01*
X0131200Y0256372D02*
X0062500Y0256372D01*
X0062500Y0254774D02*
X0131200Y0254774D01*
X0131200Y0253175D02*
X0062500Y0253175D01*
X0062500Y0251577D02*
X0131200Y0251577D01*
X0130235Y0249978D02*
X0063365Y0249978D01*
X0063518Y0248380D02*
X0130082Y0248380D01*
X0130082Y0246781D02*
X0063518Y0246781D01*
X0063518Y0245183D02*
X0130082Y0245183D01*
X0130273Y0243584D02*
X0063327Y0243584D01*
X0073741Y0231378D02*
X0075726Y0232200D01*
X0077874Y0232200D01*
X0079859Y0231378D01*
X0081378Y0229859D01*
X0082200Y0227874D01*
X0082200Y0225726D01*
X0081378Y0223741D01*
X0079859Y0222222D01*
X0077874Y0221400D01*
X0075726Y0221400D01*
X0073741Y0222222D01*
X0072222Y0223741D01*
X0071400Y0225726D01*
X0071400Y0227874D01*
X0072222Y0229859D01*
X0073741Y0231378D01*
X0073159Y0230796D02*
X0040441Y0230796D01*
X0039859Y0231378D02*
X0037874Y0232200D01*
X0035726Y0232200D01*
X0033741Y0231378D01*
X0032222Y0229859D01*
X0031400Y0227874D01*
X0031400Y0225726D01*
X0032222Y0223741D01*
X0033741Y0222222D01*
X0035726Y0221400D01*
X0037874Y0221400D01*
X0039859Y0222222D01*
X0041378Y0223741D01*
X0042200Y0225726D01*
X0042200Y0227874D01*
X0041378Y0229859D01*
X0039859Y0231378D01*
X0041652Y0229198D02*
X0071948Y0229198D01*
X0071400Y0227599D02*
X0042200Y0227599D01*
X0042200Y0226001D02*
X0071400Y0226001D01*
X0071948Y0224402D02*
X0041652Y0224402D01*
X0040440Y0222803D02*
X0073160Y0222803D01*
X0074201Y0218718D02*
X0073743Y0218595D01*
X0073333Y0218358D01*
X0072997Y0218023D01*
X0072760Y0217613D01*
X0072638Y0217155D01*
X0072638Y0215343D01*
X0072638Y0213532D01*
X0072760Y0213074D01*
X0072997Y0212663D01*
X0073333Y0212328D01*
X0073743Y0212091D01*
X0074201Y0211969D01*
X0076800Y0211968D01*
X0076800Y0215343D01*
X0076800Y0211969D01*
X0079399Y0211969D01*
X0079857Y0212091D01*
X0080267Y0212328D01*
X0080603Y0212663D01*
X0080840Y0213074D01*
X0080962Y0213532D01*
X0080962Y0215343D01*
X0076800Y0215343D01*
X0076800Y0215343D01*
X0072638Y0215343D01*
X0076800Y0215343D01*
X0076800Y0215343D01*
X0076800Y0215343D01*
X0080962Y0215343D01*
X0080962Y0217155D01*
X0080840Y0217613D01*
X0080603Y0218023D01*
X0080267Y0218358D01*
X0079857Y0218595D01*
X0079399Y0218718D01*
X0076800Y0218718D01*
X0076800Y0215343D01*
X0076800Y0218718D01*
X0074201Y0218718D01*
X0072989Y0218008D02*
X0016600Y0218008D01*
X0016600Y0219606D02*
X0197638Y0219606D01*
X0197638Y0220343D02*
X0197638Y0218532D01*
X0197760Y0218074D01*
X0197997Y0217663D01*
X0198333Y0217328D01*
X0198743Y0217091D01*
X0199201Y0216969D01*
X0201800Y0216968D01*
X0201800Y0220343D01*
X0201800Y0216969D01*
X0204399Y0216969D01*
X0204857Y0217091D01*
X0205267Y0217328D01*
X0205603Y0217663D01*
X0205840Y0218074D01*
X0205962Y0218532D01*
X0205962Y0220343D01*
X0201800Y0220343D01*
X0201800Y0220343D01*
X0197638Y0220343D01*
X0201800Y0220343D01*
X0201800Y0220343D01*
X0201800Y0220343D01*
X0205962Y0220343D01*
X0205962Y0222155D01*
X0205840Y0222613D01*
X0205603Y0223023D01*
X0205267Y0223358D01*
X0204857Y0223595D01*
X0204399Y0223718D01*
X0201800Y0223718D01*
X0201800Y0220343D01*
X0201800Y0223718D01*
X0199201Y0223718D01*
X0198743Y0223595D01*
X0198333Y0223358D01*
X0197997Y0223023D01*
X0197760Y0222613D01*
X0197638Y0222155D01*
X0197638Y0220343D01*
X0197638Y0221205D02*
X0016600Y0221205D01*
X0016600Y0222803D02*
X0033160Y0222803D01*
X0031948Y0224402D02*
X0016600Y0224402D01*
X0016600Y0226001D02*
X0031400Y0226001D01*
X0031400Y0227599D02*
X0016600Y0227599D01*
X0016600Y0229198D02*
X0031948Y0229198D01*
X0033159Y0230796D02*
X0016600Y0230796D01*
X0016600Y0232395D02*
X0350701Y0232395D01*
X0350701Y0233993D02*
X0016600Y0233993D01*
X0016600Y0235592D02*
X0350701Y0235592D01*
X0350701Y0237190D02*
X0016600Y0237190D01*
X0016600Y0238789D02*
X0350701Y0238789D01*
X0350701Y0240387D02*
X0016600Y0240387D01*
X0016600Y0241986D02*
X0350701Y0241986D01*
X0350701Y0243584D02*
X0143327Y0243584D01*
X0143518Y0245183D02*
X0350701Y0245183D01*
X0350701Y0246781D02*
X0143518Y0246781D01*
X0143518Y0248380D02*
X0350701Y0248380D01*
X0350701Y0249978D02*
X0143365Y0249978D01*
X0142600Y0251577D02*
X0350701Y0251577D01*
X0350701Y0253175D02*
X0142600Y0253175D01*
X0142600Y0254774D02*
X0350701Y0254774D01*
X0350701Y0256372D02*
X0142600Y0256372D01*
X0142600Y0257971D02*
X0350701Y0257971D01*
X0350701Y0259569D02*
X0142600Y0259569D01*
X0142600Y0261168D02*
X0350701Y0261168D01*
X0350701Y0262766D02*
X0337100Y0262766D01*
X0337100Y0262437D02*
X0337100Y0271163D01*
X0336163Y0272100D01*
X0327437Y0272100D01*
X0326500Y0271163D01*
X0326500Y0269303D01*
X0326293Y0269802D01*
X0324802Y0271293D01*
X0322854Y0272100D01*
X0320746Y0272100D01*
X0318798Y0271293D01*
X0317307Y0269802D01*
X0316800Y0268578D01*
X0316293Y0269802D01*
X0314802Y0271293D01*
X0312854Y0272100D01*
X0310746Y0272100D01*
X0308798Y0271293D01*
X0307307Y0269802D01*
X0306915Y0268856D01*
X0306897Y0268911D01*
X0306504Y0269683D01*
X0305995Y0270383D01*
X0305383Y0270995D01*
X0304683Y0271504D01*
X0303911Y0271897D01*
X0303088Y0272165D01*
X0302233Y0272300D01*
X0302000Y0272300D01*
X0302000Y0267000D01*
X0301600Y0267000D01*
X0301600Y0272300D01*
X0301367Y0272300D01*
X0300512Y0272165D01*
X0299689Y0271897D01*
X0298917Y0271504D01*
X0298217Y0270995D01*
X0297605Y0270383D01*
X0297096Y0269683D01*
X0296703Y0268911D01*
X0296435Y0268088D01*
X0296300Y0267233D01*
X0296300Y0267000D01*
X0301600Y0267000D01*
X0301600Y0266600D01*
X0302000Y0266600D01*
X0302000Y0261300D01*
X0302233Y0261300D01*
X0303088Y0261435D01*
X0303911Y0261703D01*
X0304683Y0262096D01*
X0305383Y0262605D01*
X0305995Y0263217D01*
X0306504Y0263917D01*
X0306897Y0264689D01*
X0306915Y0264744D01*
X0307307Y0263798D01*
X0308798Y0262307D01*
X0310746Y0261500D01*
X0312854Y0261500D01*
X0314802Y0262307D01*
X0316293Y0263798D01*
X0316800Y0265022D01*
X0317307Y0263798D01*
X0318798Y0262307D01*
X0320746Y0261500D01*
X0322854Y0261500D01*
X0324802Y0262307D01*
X0326293Y0263798D01*
X0326500Y0264297D01*
X0326500Y0262437D01*
X0327437Y0261500D01*
X0336163Y0261500D01*
X0337100Y0262437D01*
X0337100Y0264365D02*
X0350701Y0264365D01*
X0350701Y0265963D02*
X0337100Y0265963D01*
X0337100Y0267562D02*
X0350701Y0267562D01*
X0350701Y0269160D02*
X0337100Y0269160D01*
X0337100Y0270759D02*
X0350701Y0270759D01*
X0350701Y0272357D02*
X0016600Y0272357D01*
X0016600Y0270759D02*
X0036500Y0270759D01*
X0036500Y0269160D02*
X0016600Y0269160D01*
X0016600Y0267562D02*
X0036500Y0267562D01*
X0036500Y0265963D02*
X0016600Y0265963D01*
X0016600Y0264365D02*
X0036500Y0264365D01*
X0036500Y0262766D02*
X0016600Y0262766D01*
X0016600Y0261168D02*
X0051100Y0261168D01*
X0051100Y0259569D02*
X0016600Y0259569D01*
X0016600Y0257971D02*
X0051100Y0257971D01*
X0051100Y0256372D02*
X0016600Y0256372D01*
X0016600Y0254774D02*
X0051100Y0254774D01*
X0051100Y0253175D02*
X0016600Y0253175D01*
X0016600Y0251577D02*
X0051100Y0251577D01*
X0050235Y0249978D02*
X0016600Y0249978D01*
X0016600Y0248380D02*
X0050082Y0248380D01*
X0050082Y0246781D02*
X0016600Y0246781D01*
X0016600Y0245183D02*
X0050082Y0245183D01*
X0050273Y0243584D02*
X0016600Y0243584D01*
X0016600Y0216409D02*
X0072638Y0216409D01*
X0072638Y0214811D02*
X0016600Y0214811D01*
X0016600Y0213212D02*
X0072723Y0213212D01*
X0073775Y0211431D02*
X0072838Y0210494D01*
X0072838Y0206019D01*
X0073775Y0205082D01*
X0074500Y0205082D01*
X0074500Y0202630D01*
X0080800Y0196330D01*
X0080800Y0191770D01*
X0079975Y0190945D01*
X0079975Y0191085D01*
X0079260Y0191800D01*
X0079975Y0192515D01*
X0079975Y0196990D01*
X0079038Y0197928D01*
X0074562Y0197928D01*
X0073625Y0196990D01*
X0073625Y0196600D01*
X0068470Y0196600D01*
X0067570Y0197500D01*
X0065762Y0197500D01*
X0065762Y0197581D01*
X0064825Y0198518D01*
X0058775Y0198518D01*
X0057838Y0197581D01*
X0057838Y0193106D01*
X0058775Y0192169D01*
X0064825Y0192169D01*
X0065762Y0193106D01*
X0065762Y0193300D01*
X0065830Y0193300D01*
X0066730Y0192400D01*
X0073740Y0192400D01*
X0074340Y0191800D01*
X0073625Y0191085D01*
X0073625Y0186610D01*
X0074500Y0185735D01*
X0074500Y0185470D01*
X0070330Y0181300D01*
X0069100Y0180070D01*
X0069100Y0179285D01*
X0069024Y0179254D01*
X0067646Y0177876D01*
X0066900Y0176075D01*
X0066900Y0167525D01*
X0067646Y0165724D01*
X0069024Y0164346D01*
X0070825Y0163600D01*
X0072775Y0163600D01*
X0074576Y0164346D01*
X0075954Y0165724D01*
X0076700Y0167525D01*
X0076700Y0176075D01*
X0075954Y0177876D01*
X0074576Y0179254D01*
X0074327Y0179357D01*
X0078700Y0183730D01*
X0078700Y0185672D01*
X0079038Y0185672D01*
X0079465Y0186100D01*
X0081070Y0186100D01*
X0082300Y0187330D01*
X0082900Y0187930D01*
X0156700Y0114130D01*
X0156700Y0112784D01*
X0157248Y0111461D01*
X0158261Y0110448D01*
X0159584Y0109900D01*
X0161016Y0109900D01*
X0162339Y0110448D01*
X0163352Y0111461D01*
X0163900Y0112784D01*
X0163900Y0114216D01*
X0163352Y0115539D01*
X0162339Y0116552D01*
X0161016Y0117100D01*
X0159670Y0117100D01*
X0085000Y0191770D01*
X0085000Y0198070D01*
X0083770Y0199300D01*
X0078700Y0204370D01*
X0078700Y0205082D01*
X0079825Y0205082D01*
X0080762Y0206019D01*
X0080762Y0210494D01*
X0079825Y0211431D01*
X0073775Y0211431D01*
X0072838Y0210015D02*
X0016600Y0210015D01*
X0016600Y0208417D02*
X0072838Y0208417D01*
X0072838Y0206818D02*
X0016600Y0206818D01*
X0016600Y0205220D02*
X0073637Y0205220D01*
X0074500Y0203621D02*
X0016600Y0203621D01*
X0016600Y0202023D02*
X0075107Y0202023D01*
X0076706Y0200424D02*
X0016600Y0200424D01*
X0016600Y0198826D02*
X0078304Y0198826D01*
X0079738Y0197227D02*
X0079903Y0197227D01*
X0079975Y0195629D02*
X0080800Y0195629D01*
X0080800Y0194030D02*
X0079975Y0194030D01*
X0079891Y0192432D02*
X0080800Y0192432D01*
X0073862Y0197227D02*
X0067843Y0197227D01*
X0066698Y0192432D02*
X0065088Y0192432D01*
X0064857Y0191509D02*
X0064399Y0191631D01*
X0061800Y0191631D01*
X0059201Y0191631D01*
X0058743Y0191509D01*
X0058333Y0191272D01*
X0057997Y0190937D01*
X0057760Y0190526D01*
X0057638Y0190068D01*
X0057638Y0188257D01*
X0061800Y0188257D01*
X0061800Y0188257D01*
X0061800Y0191631D01*
X0061800Y0188257D01*
X0065962Y0188257D01*
X0065962Y0190068D01*
X0065840Y0190526D01*
X0065603Y0190937D01*
X0065267Y0191272D01*
X0064857Y0191509D01*
X0065662Y0190833D02*
X0073625Y0190833D01*
X0073625Y0189235D02*
X0065962Y0189235D01*
X0065962Y0188257D02*
X0061800Y0188257D01*
X0061800Y0188257D01*
X0061800Y0188257D01*
X0057638Y0188257D01*
X0057638Y0186445D01*
X0057760Y0185987D01*
X0057997Y0185577D01*
X0058333Y0185242D01*
X0058743Y0185005D01*
X0059201Y0184882D01*
X0061800Y0184882D01*
X0064399Y0184882D01*
X0064857Y0185005D01*
X0065267Y0185242D01*
X0065603Y0185577D01*
X0065840Y0185987D01*
X0065962Y0186445D01*
X0065962Y0188257D01*
X0065962Y0187636D02*
X0073625Y0187636D01*
X0074197Y0186038D02*
X0065853Y0186038D01*
X0061800Y0186038D02*
X0061800Y0186038D01*
X0061800Y0184882D02*
X0061800Y0188257D01*
X0061800Y0188257D01*
X0061800Y0184882D01*
X0061800Y0187636D02*
X0061800Y0187636D01*
X0061800Y0189235D02*
X0061800Y0189235D01*
X0061800Y0190833D02*
X0061800Y0190833D01*
X0058512Y0192432D02*
X0016600Y0192432D01*
X0016600Y0194030D02*
X0057838Y0194030D01*
X0057838Y0195629D02*
X0016600Y0195629D01*
X0016600Y0197227D02*
X0057838Y0197227D01*
X0057938Y0190833D02*
X0016600Y0190833D01*
X0016600Y0189235D02*
X0057638Y0189235D01*
X0057638Y0187636D02*
X0016600Y0187636D01*
X0016600Y0186038D02*
X0057747Y0186038D01*
X0059965Y0179644D02*
X0054116Y0179644D01*
X0054473Y0179462D02*
X0053758Y0179826D01*
X0052994Y0180074D01*
X0052201Y0180200D01*
X0052100Y0180200D01*
X0052100Y0172100D01*
X0051500Y0172100D01*
X0051500Y0180200D01*
X0051399Y0180200D01*
X0050606Y0180074D01*
X0049842Y0179826D01*
X0049127Y0179462D01*
X0048478Y0178990D01*
X0047910Y0178422D01*
X0047438Y0177773D01*
X0047074Y0177058D01*
X0046826Y0176294D01*
X0046700Y0175501D01*
X0046700Y0172100D01*
X0051500Y0172100D01*
X0051500Y0171500D01*
X0046700Y0171500D01*
X0046700Y0168099D01*
X0046826Y0167306D01*
X0047074Y0166542D01*
X0047438Y0165827D01*
X0047910Y0165178D01*
X0048478Y0164610D01*
X0049127Y0164138D01*
X0049842Y0163774D01*
X0050606Y0163526D01*
X0051399Y0163400D01*
X0051500Y0163400D01*
X0051500Y0171500D01*
X0052100Y0171500D01*
X0052100Y0172100D01*
X0056900Y0172100D01*
X0056900Y0175501D01*
X0056774Y0176294D01*
X0056526Y0177058D01*
X0056162Y0177773D01*
X0055690Y0178422D01*
X0055122Y0178990D01*
X0054473Y0179462D01*
X0055964Y0178045D02*
X0057816Y0178045D01*
X0057646Y0177876D02*
X0056900Y0176075D01*
X0056900Y0167525D01*
X0057646Y0165724D01*
X0059024Y0164346D01*
X0060825Y0163600D01*
X0062775Y0163600D01*
X0064576Y0164346D01*
X0065954Y0165724D01*
X0066700Y0167525D01*
X0066700Y0176075D01*
X0065954Y0177876D01*
X0064576Y0179254D01*
X0062775Y0180000D01*
X0060825Y0180000D01*
X0059024Y0179254D01*
X0057646Y0177876D01*
X0057054Y0176447D02*
X0056725Y0176447D01*
X0056900Y0174848D02*
X0056900Y0174848D01*
X0056900Y0173250D02*
X0056900Y0173250D01*
X0056900Y0171651D02*
X0052100Y0171651D01*
X0052100Y0171500D02*
X0056900Y0171500D01*
X0056900Y0168099D01*
X0056774Y0167306D01*
X0056526Y0166542D01*
X0056162Y0165827D01*
X0055690Y0165178D01*
X0055122Y0164610D01*
X0054473Y0164138D01*
X0053758Y0163774D01*
X0052994Y0163526D01*
X0052201Y0163400D01*
X0052100Y0163400D01*
X0052100Y0171500D01*
X0051500Y0171651D02*
X0016600Y0171651D01*
X0016600Y0170053D02*
X0046700Y0170053D01*
X0046700Y0168454D02*
X0016600Y0168454D01*
X0016600Y0166856D02*
X0046972Y0166856D01*
X0047852Y0165257D02*
X0016600Y0165257D01*
X0016600Y0163659D02*
X0050196Y0163659D01*
X0051500Y0163659D02*
X0052100Y0163659D01*
X0053404Y0163659D02*
X0060684Y0163659D01*
X0062916Y0163659D02*
X0070684Y0163659D01*
X0072916Y0163659D02*
X0107172Y0163659D01*
X0108770Y0162060D02*
X0016600Y0162060D01*
X0016600Y0160462D02*
X0110369Y0160462D01*
X0111967Y0158863D02*
X0016600Y0158863D01*
X0016600Y0157265D02*
X0113566Y0157265D01*
X0115164Y0155666D02*
X0016600Y0155666D01*
X0016600Y0154068D02*
X0116763Y0154068D01*
X0118361Y0152469D02*
X0016600Y0152469D01*
X0016600Y0150870D02*
X0119960Y0150870D01*
X0121558Y0149272D02*
X0016600Y0149272D01*
X0016600Y0147673D02*
X0123157Y0147673D01*
X0124755Y0146075D02*
X0016600Y0146075D01*
X0016600Y0144476D02*
X0126354Y0144476D01*
X0127952Y0142878D02*
X0016600Y0142878D01*
X0016600Y0141279D02*
X0129551Y0141279D01*
X0131149Y0139681D02*
X0016600Y0139681D01*
X0016600Y0138082D02*
X0132748Y0138082D01*
X0134346Y0136484D02*
X0016600Y0136484D01*
X0016600Y0134885D02*
X0135945Y0134885D01*
X0137543Y0133287D02*
X0016600Y0133287D01*
X0016600Y0131688D02*
X0139142Y0131688D01*
X0140740Y0130090D02*
X0016600Y0130090D01*
X0016600Y0128491D02*
X0142339Y0128491D01*
X0143937Y0126893D02*
X0016600Y0126893D01*
X0016600Y0125294D02*
X0145536Y0125294D01*
X0147134Y0123696D02*
X0016600Y0123696D01*
X0016600Y0122097D02*
X0148733Y0122097D01*
X0150331Y0120499D02*
X0016600Y0120499D01*
X0016600Y0118900D02*
X0151930Y0118900D01*
X0153528Y0117302D02*
X0016600Y0117302D01*
X0016600Y0115703D02*
X0155127Y0115703D01*
X0156700Y0114105D02*
X0016600Y0114105D01*
X0016600Y0112506D02*
X0056012Y0112506D01*
X0054862Y0111842D02*
X0057438Y0113330D01*
X0060312Y0114100D01*
X0063288Y0114100D01*
X0066162Y0113330D01*
X0068738Y0111842D01*
X0070842Y0109738D01*
X0072330Y0107162D01*
X0073100Y0104288D01*
X0073100Y0101312D01*
X0072330Y0098438D01*
X0070842Y0095862D01*
X0068738Y0093758D01*
X0066162Y0092270D01*
X0063288Y0091500D01*
X0060312Y0091500D01*
X0057438Y0092270D01*
X0054862Y0093758D01*
X0052758Y0095862D01*
X0051270Y0098438D01*
X0050500Y0101312D01*
X0050500Y0104288D01*
X0051270Y0107162D01*
X0052758Y0109738D01*
X0054862Y0111842D01*
X0053927Y0110908D02*
X0016600Y0110908D01*
X0016600Y0109309D02*
X0052510Y0109309D01*
X0051587Y0107711D02*
X0016600Y0107711D01*
X0016600Y0106112D02*
X0050989Y0106112D01*
X0050561Y0104514D02*
X0016600Y0104514D01*
X0016600Y0102915D02*
X0050500Y0102915D01*
X0050500Y0101317D02*
X0016600Y0101317D01*
X0016600Y0099718D02*
X0050927Y0099718D01*
X0051454Y0098120D02*
X0016600Y0098120D01*
X0016600Y0096521D02*
X0052377Y0096521D01*
X0053697Y0094923D02*
X0016600Y0094923D01*
X0016600Y0093324D02*
X0055613Y0093324D01*
X0059470Y0091726D02*
X0016600Y0091726D01*
X0016600Y0090127D02*
X0198763Y0090127D01*
X0199251Y0090615D02*
X0197985Y0089349D01*
X0197300Y0087695D01*
X0197300Y0085905D01*
X0197985Y0084251D01*
X0199251Y0082985D01*
X0200905Y0082300D01*
X0202695Y0082300D01*
X0204349Y0082985D01*
X0205615Y0084251D01*
X0206300Y0085905D01*
X0206300Y0087695D01*
X0205615Y0089349D01*
X0204349Y0090615D01*
X0202695Y0091300D01*
X0200905Y0091300D01*
X0199251Y0090615D01*
X0200905Y0092300D02*
X0202695Y0092300D01*
X0204349Y0092985D01*
X0205615Y0094251D01*
X0206300Y0095905D01*
X0206300Y0097695D01*
X0205615Y0099349D01*
X0204349Y0100615D01*
X0202695Y0101300D01*
X0200905Y0101300D01*
X0199251Y0100615D01*
X0197985Y0099349D01*
X0197300Y0097695D01*
X0197300Y0095905D01*
X0197985Y0094251D01*
X0199251Y0092985D01*
X0200905Y0092300D01*
X0198912Y0093324D02*
X0142987Y0093324D01*
X0143738Y0093758D02*
X0145842Y0095862D01*
X0147330Y0098438D01*
X0148100Y0101312D01*
X0148100Y0104288D01*
X0147330Y0107162D01*
X0145842Y0109738D01*
X0143738Y0111842D01*
X0141162Y0113330D01*
X0138288Y0114100D01*
X0135312Y0114100D01*
X0132438Y0113330D01*
X0129862Y0111842D01*
X0127758Y0109738D01*
X0126270Y0107162D01*
X0125500Y0104288D01*
X0125500Y0101312D01*
X0126270Y0098438D01*
X0127758Y0095862D01*
X0129862Y0093758D01*
X0132438Y0092270D01*
X0135312Y0091500D01*
X0138288Y0091500D01*
X0141162Y0092270D01*
X0143738Y0093758D01*
X0144903Y0094923D02*
X0197707Y0094923D01*
X0197300Y0096521D02*
X0146223Y0096521D01*
X0147146Y0098120D02*
X0197476Y0098120D01*
X0198354Y0099718D02*
X0147673Y0099718D01*
X0148100Y0101317D02*
X0216314Y0101317D01*
X0215246Y0099718D02*
X0217912Y0099718D01*
X0218133Y0099497D02*
X0217985Y0099349D01*
X0217300Y0097695D01*
X0217300Y0095905D01*
X0217985Y0094251D01*
X0219251Y0092985D01*
X0220905Y0092300D01*
X0222695Y0092300D01*
X0224349Y0092985D01*
X0225615Y0094251D01*
X0226300Y0095905D01*
X0226300Y0097695D01*
X0225615Y0099349D01*
X0224349Y0100615D01*
X0222695Y0101300D01*
X0222270Y0101300D01*
X0156100Y0167470D01*
X0156100Y0169270D01*
X0153370Y0172000D01*
X0158800Y0177430D01*
X0158800Y0185672D01*
X0159038Y0185672D01*
X0159465Y0186100D01*
X0160270Y0186100D01*
X0161500Y0187330D01*
X0164200Y0190030D01*
X0164200Y0198970D01*
X0162970Y0200200D01*
X0158800Y0204370D01*
X0158800Y0205082D01*
X0159825Y0205082D01*
X0160762Y0206019D01*
X0160762Y0210494D01*
X0159825Y0211431D01*
X0153775Y0211431D01*
X0152838Y0210494D01*
X0152838Y0206019D01*
X0153775Y0205082D01*
X0154600Y0205082D01*
X0154600Y0202630D01*
X0160000Y0197230D01*
X0160000Y0191770D01*
X0159645Y0191415D01*
X0159260Y0191800D01*
X0159975Y0192515D01*
X0159975Y0196990D01*
X0159038Y0197928D01*
X0154562Y0197928D01*
X0153625Y0196990D01*
X0153625Y0196600D01*
X0145930Y0196600D01*
X0143518Y0194188D01*
X0143518Y0194825D01*
X0142581Y0195762D01*
X0138106Y0195762D01*
X0137169Y0194825D01*
X0137169Y0188775D01*
X0138106Y0187838D01*
X0142581Y0187838D01*
X0143518Y0188775D01*
X0143518Y0189700D01*
X0144970Y0189700D01*
X0146200Y0190930D01*
X0147670Y0192400D01*
X0153740Y0192400D01*
X0154340Y0191800D01*
X0153625Y0191085D01*
X0153625Y0186610D01*
X0154562Y0185672D01*
X0154600Y0185672D01*
X0154600Y0179170D01*
X0151643Y0176213D01*
X0150954Y0177876D01*
X0149576Y0179254D01*
X0147775Y0180000D01*
X0145825Y0180000D01*
X0144024Y0179254D01*
X0142646Y0177876D01*
X0141900Y0176075D01*
X0141900Y0167525D01*
X0142646Y0165724D01*
X0144024Y0164346D01*
X0145825Y0163600D01*
X0147775Y0163600D01*
X0149576Y0164346D01*
X0150954Y0165724D01*
X0151700Y0167525D01*
X0151700Y0167730D01*
X0151900Y0167530D01*
X0151900Y0165730D01*
X0153130Y0164500D01*
X0218133Y0099497D01*
X0217476Y0098120D02*
X0216124Y0098120D01*
X0216300Y0097695D02*
X0215615Y0099349D01*
X0214349Y0100615D01*
X0212695Y0101300D01*
X0210905Y0101300D01*
X0209251Y0100615D01*
X0207985Y0099349D01*
X0207300Y0097695D01*
X0207300Y0095905D01*
X0207985Y0094251D01*
X0209251Y0092985D01*
X0210905Y0092300D01*
X0212695Y0092300D01*
X0214349Y0092985D01*
X0215615Y0094251D01*
X0216300Y0095905D01*
X0216300Y0097695D01*
X0216300Y0096521D02*
X0217300Y0096521D01*
X0217707Y0094923D02*
X0215893Y0094923D01*
X0214688Y0093324D02*
X0218912Y0093324D01*
X0224688Y0093324D02*
X0228912Y0093324D01*
X0229251Y0092985D02*
X0230905Y0092300D01*
X0232695Y0092300D01*
X0234349Y0092985D01*
X0235615Y0094251D01*
X0236300Y0095905D01*
X0236300Y0097695D01*
X0235615Y0099349D01*
X0234349Y0100615D01*
X0232695Y0101300D01*
X0230905Y0101300D01*
X0229251Y0100615D01*
X0227985Y0099349D01*
X0227300Y0097695D01*
X0227300Y0095905D01*
X0227985Y0094251D01*
X0229251Y0092985D01*
X0227707Y0094923D02*
X0225893Y0094923D01*
X0226300Y0096521D02*
X0227300Y0096521D01*
X0227476Y0098120D02*
X0226124Y0098120D01*
X0225246Y0099718D02*
X0228354Y0099718D01*
X0222253Y0101317D02*
X0330491Y0101317D01*
X0330699Y0101384D02*
X0329996Y0101156D01*
X0329337Y0100820D01*
X0328738Y0100385D01*
X0328215Y0099862D01*
X0327780Y0099263D01*
X0327444Y0098604D01*
X0327216Y0097901D01*
X0327100Y0097170D01*
X0327100Y0096950D01*
X0331650Y0096950D01*
X0331650Y0101500D01*
X0331430Y0101500D01*
X0330699Y0101384D01*
X0331650Y0101317D02*
X0331950Y0101317D01*
X0331950Y0101500D02*
X0331950Y0096950D01*
X0331650Y0096950D01*
X0331650Y0096650D01*
X0327100Y0096650D01*
X0327100Y0096430D01*
X0327216Y0095699D01*
X0327444Y0094996D01*
X0327780Y0094337D01*
X0328215Y0093738D01*
X0328738Y0093215D01*
X0329337Y0092780D01*
X0329996Y0092444D01*
X0330699Y0092216D01*
X0331430Y0092100D01*
X0331650Y0092100D01*
X0331650Y0096650D01*
X0331950Y0096650D01*
X0331950Y0096950D01*
X0336500Y0096950D01*
X0336500Y0097170D01*
X0336384Y0097901D01*
X0336156Y0098604D01*
X0335820Y0099263D01*
X0335385Y0099862D01*
X0334862Y0100385D01*
X0334263Y0100820D01*
X0333604Y0101156D01*
X0332901Y0101384D01*
X0332170Y0101500D01*
X0331950Y0101500D01*
X0333109Y0101317D02*
X0350701Y0101317D01*
X0350701Y0102915D02*
X0220655Y0102915D01*
X0219056Y0104514D02*
X0350701Y0104514D01*
X0350701Y0106112D02*
X0217458Y0106112D01*
X0215859Y0107711D02*
X0350701Y0107711D01*
X0350701Y0109309D02*
X0214261Y0109309D01*
X0212662Y0110908D02*
X0350701Y0110908D01*
X0350701Y0112506D02*
X0211064Y0112506D01*
X0209465Y0114105D02*
X0350701Y0114105D01*
X0350701Y0115703D02*
X0207867Y0115703D01*
X0206268Y0117302D02*
X0350701Y0117302D01*
X0350701Y0118900D02*
X0204670Y0118900D01*
X0203071Y0120499D02*
X0350701Y0120499D01*
X0350701Y0122097D02*
X0201473Y0122097D01*
X0199874Y0123696D02*
X0350701Y0123696D01*
X0350701Y0125294D02*
X0198276Y0125294D01*
X0196677Y0126893D02*
X0350701Y0126893D01*
X0350701Y0128491D02*
X0195079Y0128491D01*
X0193480Y0130090D02*
X0350701Y0130090D01*
X0350701Y0131688D02*
X0271886Y0131688D01*
X0271162Y0131270D02*
X0273738Y0132758D01*
X0275842Y0134862D01*
X0277330Y0137438D01*
X0278100Y0140312D01*
X0278100Y0143288D01*
X0277330Y0146162D01*
X0275842Y0148738D01*
X0273738Y0150842D01*
X0271162Y0152330D01*
X0268288Y0153100D01*
X0265312Y0153100D01*
X0262438Y0152330D01*
X0259862Y0150842D01*
X0257758Y0148738D01*
X0256270Y0146162D01*
X0255500Y0143288D01*
X0255500Y0140312D01*
X0256270Y0137438D01*
X0257758Y0134862D01*
X0259862Y0132758D01*
X0262438Y0131270D01*
X0265312Y0130500D01*
X0268288Y0130500D01*
X0271162Y0131270D01*
X0274267Y0133287D02*
X0350701Y0133287D01*
X0350701Y0134885D02*
X0275856Y0134885D01*
X0276779Y0136484D02*
X0350701Y0136484D01*
X0350701Y0138082D02*
X0277502Y0138082D01*
X0277931Y0139681D02*
X0350701Y0139681D01*
X0350701Y0141279D02*
X0278100Y0141279D01*
X0278100Y0142878D02*
X0350701Y0142878D01*
X0350701Y0144476D02*
X0277781Y0144476D01*
X0277353Y0146075D02*
X0350701Y0146075D01*
X0350701Y0147673D02*
X0276457Y0147673D01*
X0275309Y0149272D02*
X0350701Y0149272D01*
X0350701Y0150870D02*
X0273689Y0150870D01*
X0270643Y0152469D02*
X0350701Y0152469D01*
X0350701Y0154068D02*
X0169502Y0154068D01*
X0167904Y0155666D02*
X0350701Y0155666D01*
X0350701Y0157265D02*
X0166305Y0157265D01*
X0164707Y0158863D02*
X0350701Y0158863D01*
X0350701Y0160462D02*
X0163108Y0160462D01*
X0161510Y0162060D02*
X0350701Y0162060D01*
X0350701Y0163659D02*
X0159911Y0163659D01*
X0158313Y0165257D02*
X0350701Y0165257D01*
X0350701Y0166856D02*
X0156714Y0166856D01*
X0156100Y0168454D02*
X0350701Y0168454D01*
X0350701Y0170053D02*
X0263922Y0170053D01*
X0262870Y0169000D02*
X0267370Y0173500D01*
X0267470Y0173600D01*
X0267775Y0173600D01*
X0269576Y0174346D01*
X0270954Y0175724D01*
X0271300Y0176560D01*
X0271646Y0175724D01*
X0273024Y0174346D01*
X0274825Y0173600D01*
X0276775Y0173600D01*
X0278576Y0174346D01*
X0279954Y0175724D01*
X0280700Y0177525D01*
X0280700Y0186075D01*
X0279954Y0187876D01*
X0278576Y0189254D01*
X0276775Y0190000D01*
X0274825Y0190000D01*
X0273024Y0189254D01*
X0271646Y0187876D01*
X0271300Y0187040D01*
X0270954Y0187876D01*
X0269576Y0189254D01*
X0267775Y0190000D01*
X0265825Y0190000D01*
X0264024Y0189254D01*
X0262646Y0187876D01*
X0262300Y0187040D01*
X0261954Y0187876D01*
X0260576Y0189254D01*
X0258775Y0190000D01*
X0256825Y0190000D01*
X0256220Y0189749D01*
X0254200Y0191770D01*
X0254200Y0210082D01*
X0254825Y0210082D01*
X0255762Y0211019D01*
X0255762Y0215494D01*
X0254825Y0216431D01*
X0248775Y0216431D01*
X0247838Y0215494D01*
X0247838Y0211019D01*
X0248775Y0210082D01*
X0250000Y0210082D01*
X0250000Y0190030D01*
X0253209Y0186821D01*
X0252900Y0186075D01*
X0252900Y0177525D01*
X0253646Y0175724D01*
X0255024Y0174346D01*
X0256825Y0173600D01*
X0258775Y0173600D01*
X0260576Y0174346D01*
X0261954Y0175724D01*
X0262300Y0176560D01*
X0262646Y0175724D01*
X0263150Y0175220D01*
X0261130Y0173200D01*
X0217870Y0173200D01*
X0215650Y0175420D01*
X0215954Y0175724D01*
X0216300Y0176560D01*
X0216646Y0175724D01*
X0218024Y0174346D01*
X0219825Y0173600D01*
X0221775Y0173600D01*
X0223576Y0174346D01*
X0224954Y0175724D01*
X0225700Y0177525D01*
X0225700Y0186075D01*
X0224954Y0187876D01*
X0223576Y0189254D01*
X0221775Y0190000D01*
X0219825Y0190000D01*
X0218024Y0189254D01*
X0216646Y0187876D01*
X0216300Y0187040D01*
X0215954Y0187876D01*
X0214576Y0189254D01*
X0212775Y0190000D01*
X0210825Y0190000D01*
X0209024Y0189254D01*
X0207646Y0187876D01*
X0207300Y0187040D01*
X0206954Y0187876D01*
X0205576Y0189254D01*
X0204700Y0189617D01*
X0204700Y0190870D01*
X0203800Y0191770D01*
X0203800Y0210082D01*
X0204825Y0210082D01*
X0205762Y0211019D01*
X0205762Y0215494D01*
X0204825Y0216431D01*
X0198775Y0216431D01*
X0197838Y0215494D01*
X0197838Y0211019D01*
X0198775Y0210082D01*
X0199600Y0210082D01*
X0199600Y0190030D01*
X0200273Y0189357D01*
X0200024Y0189254D01*
X0198646Y0187876D01*
X0197900Y0186075D01*
X0197900Y0177525D01*
X0198646Y0175724D01*
X0200024Y0174346D01*
X0201825Y0173600D01*
X0203775Y0173600D01*
X0205576Y0174346D01*
X0206954Y0175724D01*
X0207300Y0176560D01*
X0207646Y0175724D01*
X0209024Y0174346D01*
X0210825Y0173600D01*
X0211530Y0173600D01*
X0214900Y0170230D01*
X0216130Y0169000D01*
X0262870Y0169000D01*
X0265521Y0171651D02*
X0350701Y0171651D01*
X0350701Y0173250D02*
X0267119Y0173250D01*
X0270078Y0174848D02*
X0272522Y0174848D01*
X0271347Y0176447D02*
X0271253Y0176447D01*
X0279078Y0174848D02*
X0350701Y0174848D01*
X0350701Y0176447D02*
X0280253Y0176447D01*
X0280700Y0178045D02*
X0350701Y0178045D01*
X0350701Y0179644D02*
X0280700Y0179644D01*
X0280700Y0181242D02*
X0350701Y0181242D01*
X0350701Y0182841D02*
X0280700Y0182841D01*
X0280700Y0184439D02*
X0350701Y0184439D01*
X0350701Y0186038D02*
X0280700Y0186038D01*
X0280053Y0187636D02*
X0350701Y0187636D01*
X0350701Y0189235D02*
X0278595Y0189235D01*
X0273005Y0189235D02*
X0269595Y0189235D01*
X0271053Y0187636D02*
X0271547Y0187636D01*
X0264005Y0189235D02*
X0260595Y0189235D01*
X0262053Y0187636D02*
X0262547Y0187636D01*
X0255137Y0190833D02*
X0350701Y0190833D01*
X0350701Y0192432D02*
X0254200Y0192432D01*
X0254200Y0194030D02*
X0350701Y0194030D01*
X0350701Y0195629D02*
X0254200Y0195629D01*
X0254200Y0197227D02*
X0350701Y0197227D01*
X0350701Y0198826D02*
X0254200Y0198826D01*
X0254200Y0200424D02*
X0350701Y0200424D01*
X0350701Y0202023D02*
X0254200Y0202023D01*
X0254200Y0203621D02*
X0350701Y0203621D01*
X0350701Y0205220D02*
X0254200Y0205220D01*
X0254200Y0206818D02*
X0350701Y0206818D01*
X0350701Y0208417D02*
X0254200Y0208417D01*
X0254200Y0210015D02*
X0350701Y0210015D01*
X0350701Y0211614D02*
X0255762Y0211614D01*
X0255762Y0213212D02*
X0350701Y0213212D01*
X0350701Y0214811D02*
X0255762Y0214811D01*
X0254847Y0216409D02*
X0350701Y0216409D01*
X0350701Y0218008D02*
X0255802Y0218008D01*
X0255840Y0218074D02*
X0255962Y0218532D01*
X0255962Y0220343D01*
X0251800Y0220343D01*
X0251800Y0216969D01*
X0254399Y0216969D01*
X0254857Y0217091D01*
X0255267Y0217328D01*
X0255603Y0217663D01*
X0255840Y0218074D01*
X0255962Y0219606D02*
X0350701Y0219606D01*
X0350701Y0221205D02*
X0255962Y0221205D01*
X0255962Y0220343D02*
X0255962Y0222155D01*
X0255840Y0222613D01*
X0255603Y0223023D01*
X0255267Y0223358D01*
X0254857Y0223595D01*
X0254399Y0223718D01*
X0251800Y0223718D01*
X0251800Y0220343D01*
X0251800Y0220343D01*
X0251800Y0216968D01*
X0249201Y0216969D01*
X0248743Y0217091D01*
X0248333Y0217328D01*
X0247997Y0217663D01*
X0247760Y0218074D01*
X0247638Y0218532D01*
X0247638Y0220343D01*
X0251800Y0220343D01*
X0251800Y0220343D01*
X0251800Y0220343D01*
X0255962Y0220343D01*
X0255729Y0222803D02*
X0350701Y0222803D01*
X0350701Y0224402D02*
X0161652Y0224402D01*
X0161378Y0223741D02*
X0162200Y0225726D01*
X0162200Y0227874D01*
X0161378Y0229859D01*
X0159859Y0231378D01*
X0157874Y0232200D01*
X0155726Y0232200D01*
X0153741Y0231378D01*
X0152222Y0229859D01*
X0151400Y0227874D01*
X0151400Y0225726D01*
X0152222Y0223741D01*
X0153741Y0222222D01*
X0155726Y0221400D01*
X0157874Y0221400D01*
X0159859Y0222222D01*
X0161378Y0223741D01*
X0160440Y0222803D02*
X0197871Y0222803D01*
X0201800Y0222803D02*
X0201800Y0222803D01*
X0201800Y0221205D02*
X0201800Y0221205D01*
X0201800Y0220343D02*
X0201800Y0220343D01*
X0201800Y0219606D02*
X0201800Y0219606D01*
X0201800Y0218008D02*
X0201800Y0218008D01*
X0204847Y0216409D02*
X0248753Y0216409D01*
X0247838Y0214811D02*
X0205762Y0214811D01*
X0205762Y0213212D02*
X0247838Y0213212D01*
X0247838Y0211614D02*
X0205762Y0211614D01*
X0203800Y0210015D02*
X0250000Y0210015D01*
X0250000Y0208417D02*
X0203800Y0208417D01*
X0203800Y0206818D02*
X0250000Y0206818D01*
X0250000Y0205220D02*
X0203800Y0205220D01*
X0203800Y0203621D02*
X0250000Y0203621D01*
X0250000Y0202023D02*
X0203800Y0202023D01*
X0203800Y0200424D02*
X0250000Y0200424D01*
X0250000Y0198826D02*
X0203800Y0198826D01*
X0203800Y0197227D02*
X0250000Y0197227D01*
X0250000Y0195629D02*
X0203800Y0195629D01*
X0203800Y0194030D02*
X0250000Y0194030D01*
X0250000Y0192432D02*
X0203800Y0192432D01*
X0204700Y0190833D02*
X0250000Y0190833D01*
X0250795Y0189235D02*
X0223595Y0189235D01*
X0225053Y0187636D02*
X0252394Y0187636D01*
X0252900Y0186038D02*
X0225700Y0186038D01*
X0225700Y0184439D02*
X0252900Y0184439D01*
X0252900Y0182841D02*
X0225700Y0182841D01*
X0225700Y0181242D02*
X0252900Y0181242D01*
X0252900Y0179644D02*
X0225700Y0179644D01*
X0225700Y0178045D02*
X0252900Y0178045D01*
X0253347Y0176447D02*
X0225253Y0176447D01*
X0224078Y0174848D02*
X0254522Y0174848D01*
X0261078Y0174848D02*
X0262778Y0174848D01*
X0262347Y0176447D02*
X0262253Y0176447D01*
X0261180Y0173250D02*
X0217820Y0173250D01*
X0217522Y0174848D02*
X0216222Y0174848D01*
X0216253Y0176447D02*
X0216347Y0176447D01*
X0211880Y0173250D02*
X0154619Y0173250D01*
X0153719Y0171651D02*
X0213479Y0171651D01*
X0215078Y0170053D02*
X0155317Y0170053D01*
X0151900Y0166856D02*
X0151423Y0166856D01*
X0150487Y0165257D02*
X0152373Y0165257D01*
X0153972Y0163659D02*
X0147916Y0163659D01*
X0145684Y0163659D02*
X0137916Y0163659D01*
X0137775Y0163600D02*
X0139576Y0164346D01*
X0140954Y0165724D01*
X0141700Y0167525D01*
X0141700Y0176075D01*
X0140954Y0177876D01*
X0139576Y0179254D01*
X0137775Y0180000D01*
X0135825Y0180000D01*
X0134024Y0179254D01*
X0132646Y0177876D01*
X0131900Y0176075D01*
X0131900Y0167525D01*
X0132646Y0165724D01*
X0134024Y0164346D01*
X0135825Y0163600D01*
X0137775Y0163600D01*
X0135684Y0163659D02*
X0128404Y0163659D01*
X0128758Y0163774D02*
X0129473Y0164138D01*
X0130122Y0164610D01*
X0130690Y0165178D01*
X0131162Y0165827D01*
X0131526Y0166542D01*
X0131774Y0167306D01*
X0131900Y0168099D01*
X0131900Y0171500D01*
X0127100Y0171500D01*
X0127100Y0172100D01*
X0126500Y0172100D01*
X0126500Y0180200D01*
X0126399Y0180200D01*
X0125606Y0180074D01*
X0124842Y0179826D01*
X0124127Y0179462D01*
X0123478Y0178990D01*
X0122910Y0178422D01*
X0122438Y0177773D01*
X0122074Y0177058D01*
X0121826Y0176294D01*
X0121700Y0175501D01*
X0121700Y0172100D01*
X0126500Y0172100D01*
X0126500Y0171500D01*
X0121700Y0171500D01*
X0121700Y0168099D01*
X0121826Y0167306D01*
X0122074Y0166542D01*
X0122438Y0165827D01*
X0122910Y0165178D01*
X0123478Y0164610D01*
X0124127Y0164138D01*
X0124842Y0163774D01*
X0125606Y0163526D01*
X0126399Y0163400D01*
X0126500Y0163400D01*
X0126500Y0171500D01*
X0127100Y0171500D01*
X0127100Y0163400D01*
X0127201Y0163400D01*
X0127994Y0163526D01*
X0128758Y0163774D01*
X0127100Y0163659D02*
X0126500Y0163659D01*
X0125196Y0163659D02*
X0113111Y0163659D01*
X0111513Y0165257D02*
X0122852Y0165257D01*
X0121972Y0166856D02*
X0109914Y0166856D01*
X0108316Y0168454D02*
X0121700Y0168454D01*
X0121700Y0170053D02*
X0106717Y0170053D01*
X0105119Y0171651D02*
X0126500Y0171651D01*
X0127100Y0171651D02*
X0131900Y0171651D01*
X0131900Y0172100D02*
X0131900Y0175501D01*
X0131774Y0176294D01*
X0131526Y0177058D01*
X0131162Y0177773D01*
X0130690Y0178422D01*
X0130122Y0178990D01*
X0129473Y0179462D01*
X0128758Y0179826D01*
X0127994Y0180074D01*
X0127201Y0180200D01*
X0127100Y0180200D01*
X0127100Y0172100D01*
X0131900Y0172100D01*
X0131900Y0173250D02*
X0131900Y0173250D01*
X0131900Y0174848D02*
X0131900Y0174848D01*
X0132054Y0176447D02*
X0131725Y0176447D01*
X0130964Y0178045D02*
X0132816Y0178045D01*
X0134965Y0179644D02*
X0129116Y0179644D01*
X0127100Y0179644D02*
X0126500Y0179644D01*
X0126500Y0178045D02*
X0127100Y0178045D01*
X0127100Y0176447D02*
X0126500Y0176447D01*
X0126500Y0174848D02*
X0127100Y0174848D01*
X0127100Y0173250D02*
X0126500Y0173250D01*
X0126500Y0170053D02*
X0127100Y0170053D01*
X0127100Y0168454D02*
X0126500Y0168454D01*
X0126500Y0166856D02*
X0127100Y0166856D01*
X0127100Y0165257D02*
X0126500Y0165257D01*
X0130748Y0165257D02*
X0133113Y0165257D01*
X0132177Y0166856D02*
X0131628Y0166856D01*
X0131900Y0168454D02*
X0131900Y0168454D01*
X0131900Y0170053D02*
X0131900Y0170053D01*
X0121700Y0173250D02*
X0103520Y0173250D01*
X0101922Y0174848D02*
X0121700Y0174848D01*
X0121875Y0176447D02*
X0100323Y0176447D01*
X0098725Y0178045D02*
X0122636Y0178045D01*
X0124484Y0179644D02*
X0097126Y0179644D01*
X0095528Y0181242D02*
X0154600Y0181242D01*
X0154600Y0179644D02*
X0148635Y0179644D01*
X0150784Y0178045D02*
X0153475Y0178045D01*
X0151877Y0176447D02*
X0151546Y0176447D01*
X0156218Y0174848D02*
X0199522Y0174848D01*
X0198347Y0176447D02*
X0157817Y0176447D01*
X0158800Y0178045D02*
X0197900Y0178045D01*
X0197900Y0179644D02*
X0158800Y0179644D01*
X0158800Y0181242D02*
X0197900Y0181242D01*
X0197900Y0182841D02*
X0158800Y0182841D01*
X0158800Y0184439D02*
X0197900Y0184439D01*
X0197900Y0186038D02*
X0159403Y0186038D01*
X0161806Y0187636D02*
X0198547Y0187636D01*
X0200005Y0189235D02*
X0163405Y0189235D01*
X0164200Y0190833D02*
X0199600Y0190833D01*
X0199600Y0192432D02*
X0164200Y0192432D01*
X0164200Y0194030D02*
X0199600Y0194030D01*
X0199600Y0195629D02*
X0164200Y0195629D01*
X0164200Y0197227D02*
X0199600Y0197227D01*
X0199600Y0198826D02*
X0164200Y0198826D01*
X0162745Y0200424D02*
X0199600Y0200424D01*
X0199600Y0202023D02*
X0161147Y0202023D01*
X0159548Y0203621D02*
X0199600Y0203621D01*
X0199600Y0205220D02*
X0159963Y0205220D01*
X0160762Y0206818D02*
X0199600Y0206818D01*
X0199600Y0208417D02*
X0160762Y0208417D01*
X0160762Y0210015D02*
X0199600Y0210015D01*
X0197838Y0211614D02*
X0016600Y0211614D01*
X0016600Y0184439D02*
X0073469Y0184439D01*
X0071871Y0182841D02*
X0016600Y0182841D01*
X0016600Y0181242D02*
X0070272Y0181242D01*
X0069100Y0179644D02*
X0063635Y0179644D01*
X0065784Y0178045D02*
X0067816Y0178045D01*
X0067054Y0176447D02*
X0066546Y0176447D01*
X0066700Y0174848D02*
X0066900Y0174848D01*
X0066900Y0173250D02*
X0066700Y0173250D01*
X0066700Y0171651D02*
X0066900Y0171651D01*
X0066900Y0170053D02*
X0066700Y0170053D01*
X0066700Y0168454D02*
X0066900Y0168454D01*
X0067177Y0166856D02*
X0066423Y0166856D01*
X0065487Y0165257D02*
X0068113Y0165257D01*
X0075487Y0165257D02*
X0105573Y0165257D01*
X0103975Y0166856D02*
X0076423Y0166856D01*
X0076700Y0168454D02*
X0102376Y0168454D01*
X0100778Y0170053D02*
X0076700Y0170053D01*
X0076700Y0171651D02*
X0099179Y0171651D01*
X0097580Y0173250D02*
X0076700Y0173250D01*
X0076700Y0174848D02*
X0095982Y0174848D01*
X0094383Y0176447D02*
X0076546Y0176447D01*
X0075784Y0178045D02*
X0092785Y0178045D01*
X0091186Y0179644D02*
X0074614Y0179644D01*
X0076212Y0181242D02*
X0089588Y0181242D01*
X0087989Y0182841D02*
X0077811Y0182841D01*
X0078700Y0184439D02*
X0086391Y0184439D01*
X0084792Y0186038D02*
X0079403Y0186038D01*
X0082606Y0187636D02*
X0083194Y0187636D01*
X0085937Y0190833D02*
X0129882Y0190833D01*
X0129882Y0191800D02*
X0129882Y0189201D01*
X0130005Y0188743D01*
X0130242Y0188333D01*
X0130577Y0187997D01*
X0130987Y0187760D01*
X0131445Y0187638D01*
X0133257Y0187638D01*
X0135068Y0187638D01*
X0135526Y0187760D01*
X0135937Y0187997D01*
X0136272Y0188333D01*
X0136509Y0188743D01*
X0136631Y0189201D01*
X0136631Y0191800D01*
X0136631Y0194399D01*
X0136509Y0194857D01*
X0136272Y0195267D01*
X0135937Y0195603D01*
X0135526Y0195840D01*
X0135068Y0195962D01*
X0133257Y0195962D01*
X0133257Y0191800D01*
X0136631Y0191800D01*
X0133257Y0191800D01*
X0133257Y0191800D01*
X0133257Y0187638D01*
X0133257Y0191800D01*
X0133257Y0191800D01*
X0133257Y0191800D01*
X0133257Y0195962D01*
X0131445Y0195962D01*
X0130987Y0195840D01*
X0130577Y0195603D01*
X0130242Y0195267D01*
X0130005Y0194857D01*
X0129882Y0194399D01*
X0129882Y0191800D01*
X0133257Y0191800D01*
X0133257Y0191800D01*
X0129882Y0191800D01*
X0129882Y0192432D02*
X0085000Y0192432D01*
X0085000Y0194030D02*
X0129882Y0194030D01*
X0130622Y0195629D02*
X0085000Y0195629D01*
X0085000Y0197227D02*
X0153862Y0197227D01*
X0156806Y0200424D02*
X0082645Y0200424D01*
X0081047Y0202023D02*
X0155207Y0202023D01*
X0154600Y0203621D02*
X0079448Y0203621D01*
X0079963Y0205220D02*
X0153637Y0205220D01*
X0152838Y0206818D02*
X0080762Y0206818D01*
X0080762Y0208417D02*
X0152838Y0208417D01*
X0152838Y0210015D02*
X0080762Y0210015D01*
X0080877Y0213212D02*
X0152723Y0213212D01*
X0152760Y0213074D02*
X0152997Y0212663D01*
X0153333Y0212328D01*
X0153743Y0212091D01*
X0154201Y0211969D01*
X0156800Y0211968D01*
X0156800Y0215343D01*
X0156800Y0211969D01*
X0159399Y0211969D01*
X0159857Y0212091D01*
X0160267Y0212328D01*
X0160603Y0212663D01*
X0160840Y0213074D01*
X0160962Y0213532D01*
X0160962Y0215343D01*
X0156800Y0215343D01*
X0156800Y0215343D01*
X0152638Y0215343D01*
X0152638Y0213532D01*
X0152760Y0213074D01*
X0152638Y0214811D02*
X0080962Y0214811D01*
X0080962Y0216409D02*
X0152638Y0216409D01*
X0152638Y0217155D02*
X0152638Y0215343D01*
X0156800Y0215343D01*
X0156800Y0215343D01*
X0156800Y0215343D01*
X0160962Y0215343D01*
X0160962Y0217155D01*
X0160840Y0217613D01*
X0160603Y0218023D01*
X0160267Y0218358D01*
X0159857Y0218595D01*
X0159399Y0218718D01*
X0156800Y0218718D01*
X0156800Y0215343D01*
X0156800Y0218718D01*
X0154201Y0218718D01*
X0153743Y0218595D01*
X0153333Y0218358D01*
X0152997Y0218023D01*
X0152760Y0217613D01*
X0152638Y0217155D01*
X0152989Y0218008D02*
X0080611Y0218008D01*
X0076800Y0218008D02*
X0076800Y0218008D01*
X0076800Y0216409D02*
X0076800Y0216409D01*
X0076800Y0215343D02*
X0076800Y0215343D01*
X0076800Y0214811D02*
X0076800Y0214811D01*
X0076800Y0213212D02*
X0076800Y0213212D01*
X0080440Y0222803D02*
X0113160Y0222803D01*
X0113741Y0222222D02*
X0115726Y0221400D01*
X0117874Y0221400D01*
X0119859Y0222222D01*
X0121378Y0223741D01*
X0122200Y0225726D01*
X0122200Y0227874D01*
X0121378Y0229859D01*
X0119859Y0231378D01*
X0117874Y0232200D01*
X0115726Y0232200D01*
X0113741Y0231378D01*
X0112222Y0229859D01*
X0111400Y0227874D01*
X0111400Y0225726D01*
X0112222Y0223741D01*
X0113741Y0222222D01*
X0111948Y0224402D02*
X0081652Y0224402D01*
X0082200Y0226001D02*
X0111400Y0226001D01*
X0111400Y0227599D02*
X0082200Y0227599D01*
X0081652Y0229198D02*
X0111948Y0229198D01*
X0113159Y0230796D02*
X0080441Y0230796D01*
X0084244Y0198826D02*
X0158404Y0198826D01*
X0159738Y0197227D02*
X0160000Y0197227D01*
X0159975Y0195629D02*
X0160000Y0195629D01*
X0159975Y0194030D02*
X0160000Y0194030D01*
X0160000Y0192432D02*
X0159891Y0192432D01*
X0153625Y0190833D02*
X0146103Y0190833D01*
X0143518Y0189235D02*
X0153625Y0189235D01*
X0153625Y0187636D02*
X0089134Y0187636D01*
X0090732Y0186038D02*
X0154197Y0186038D01*
X0154600Y0184439D02*
X0092331Y0184439D01*
X0093929Y0182841D02*
X0154600Y0182841D01*
X0144965Y0179644D02*
X0138635Y0179644D01*
X0140784Y0178045D02*
X0142816Y0178045D01*
X0142054Y0176447D02*
X0141546Y0176447D01*
X0141700Y0174848D02*
X0141900Y0174848D01*
X0141900Y0173250D02*
X0141700Y0173250D01*
X0141700Y0171651D02*
X0141900Y0171651D01*
X0141900Y0170053D02*
X0141700Y0170053D01*
X0141700Y0168454D02*
X0141900Y0168454D01*
X0142177Y0166856D02*
X0141423Y0166856D01*
X0140487Y0165257D02*
X0143113Y0165257D01*
X0155570Y0162060D02*
X0114710Y0162060D01*
X0116308Y0160462D02*
X0157169Y0160462D01*
X0158767Y0158863D02*
X0117907Y0158863D01*
X0119505Y0157265D02*
X0160366Y0157265D01*
X0161964Y0155666D02*
X0121104Y0155666D01*
X0122702Y0154068D02*
X0163563Y0154068D01*
X0165161Y0152469D02*
X0124301Y0152469D01*
X0125899Y0150870D02*
X0166760Y0150870D01*
X0168358Y0149272D02*
X0127498Y0149272D01*
X0129096Y0147673D02*
X0169957Y0147673D01*
X0171555Y0146075D02*
X0130695Y0146075D01*
X0132293Y0144476D02*
X0173154Y0144476D01*
X0174752Y0142878D02*
X0133892Y0142878D01*
X0135490Y0141279D02*
X0176351Y0141279D01*
X0177949Y0139681D02*
X0137089Y0139681D01*
X0138687Y0138082D02*
X0179548Y0138082D01*
X0181146Y0136484D02*
X0140286Y0136484D01*
X0141884Y0134885D02*
X0182745Y0134885D01*
X0184343Y0133287D02*
X0143483Y0133287D01*
X0145081Y0131688D02*
X0185942Y0131688D01*
X0187540Y0130090D02*
X0146680Y0130090D01*
X0148279Y0128491D02*
X0189139Y0128491D01*
X0190737Y0126893D02*
X0149877Y0126893D01*
X0151476Y0125294D02*
X0192336Y0125294D01*
X0193934Y0123696D02*
X0153074Y0123696D01*
X0154673Y0122097D02*
X0195533Y0122097D01*
X0197131Y0120499D02*
X0156271Y0120499D01*
X0157870Y0118900D02*
X0198730Y0118900D01*
X0200328Y0117302D02*
X0159468Y0117302D01*
X0163188Y0115703D02*
X0201927Y0115703D01*
X0203525Y0114105D02*
X0163900Y0114105D01*
X0163785Y0112506D02*
X0205124Y0112506D01*
X0206722Y0110908D02*
X0162799Y0110908D01*
X0157801Y0110908D02*
X0144673Y0110908D01*
X0146090Y0109309D02*
X0208321Y0109309D01*
X0209919Y0107711D02*
X0147013Y0107711D01*
X0147611Y0106112D02*
X0211518Y0106112D01*
X0213116Y0104514D02*
X0148039Y0104514D01*
X0148100Y0102915D02*
X0214715Y0102915D01*
X0208354Y0099718D02*
X0205246Y0099718D01*
X0206124Y0098120D02*
X0207476Y0098120D01*
X0207300Y0096521D02*
X0206300Y0096521D01*
X0205893Y0094923D02*
X0207707Y0094923D01*
X0208912Y0093324D02*
X0204688Y0093324D01*
X0204837Y0090127D02*
X0350701Y0090127D01*
X0350701Y0088529D02*
X0205955Y0088529D01*
X0206300Y0086930D02*
X0350701Y0086930D01*
X0350701Y0085332D02*
X0206062Y0085332D01*
X0205097Y0083733D02*
X0350701Y0083733D01*
X0350701Y0082134D02*
X0016600Y0082134D01*
X0016600Y0080536D02*
X0199172Y0080536D01*
X0199251Y0080615D02*
X0197985Y0079349D01*
X0197300Y0077695D01*
X0197300Y0075905D01*
X0197985Y0074251D01*
X0199251Y0072985D01*
X0200905Y0072300D01*
X0202695Y0072300D01*
X0204349Y0072985D01*
X0205615Y0074251D01*
X0206300Y0075905D01*
X0206300Y0077695D01*
X0205615Y0079349D01*
X0204349Y0080615D01*
X0202695Y0081300D01*
X0200905Y0081300D01*
X0199251Y0080615D01*
X0197815Y0078937D02*
X0016600Y0078937D01*
X0016600Y0077339D02*
X0197300Y0077339D01*
X0197368Y0075740D02*
X0120355Y0075740D01*
X0119802Y0076293D02*
X0117854Y0077100D01*
X0115746Y0077100D01*
X0113798Y0076293D01*
X0112307Y0074802D01*
X0111500Y0072854D01*
X0111500Y0070746D01*
X0112307Y0068798D01*
X0113798Y0067307D01*
X0115022Y0066800D01*
X0113798Y0066293D01*
X0112307Y0064802D01*
X0111500Y0062854D01*
X0111500Y0060746D01*
X0112307Y0058798D01*
X0113798Y0057307D01*
X0115022Y0056800D01*
X0113798Y0056293D01*
X0112307Y0054802D01*
X0111500Y0052854D01*
X0111500Y0050746D01*
X0112307Y0048798D01*
X0113798Y0047307D01*
X0114744Y0046915D01*
X0114689Y0046897D01*
X0113917Y0046504D01*
X0113217Y0045995D01*
X0112605Y0045383D01*
X0112096Y0044683D01*
X0111703Y0043911D01*
X0111435Y0043088D01*
X0111300Y0042233D01*
X0111300Y0042000D01*
X0116600Y0042000D01*
X0116600Y0041600D01*
X0111300Y0041600D01*
X0111300Y0041367D01*
X0111435Y0040512D01*
X0111703Y0039689D01*
X0112096Y0038917D01*
X0112605Y0038217D01*
X0113217Y0037605D01*
X0113917Y0037096D01*
X0114689Y0036703D01*
X0114744Y0036685D01*
X0113798Y0036293D01*
X0112307Y0034802D01*
X0111500Y0032854D01*
X0111500Y0030746D01*
X0112307Y0028798D01*
X0113798Y0027307D01*
X0115746Y0026500D01*
X0117854Y0026500D01*
X0119802Y0027307D01*
X0121293Y0028798D01*
X0122100Y0030746D01*
X0122100Y0032854D01*
X0121293Y0034802D01*
X0119802Y0036293D01*
X0118856Y0036685D01*
X0118911Y0036703D01*
X0119683Y0037096D01*
X0120383Y0037605D01*
X0120995Y0038217D01*
X0121504Y0038917D01*
X0121897Y0039689D01*
X0122165Y0040512D01*
X0122300Y0041367D01*
X0122300Y0041600D01*
X0117000Y0041600D01*
X0117000Y0042000D01*
X0122300Y0042000D01*
X0122300Y0042233D01*
X0122165Y0043088D01*
X0121897Y0043911D01*
X0121504Y0044683D01*
X0120995Y0045383D01*
X0120383Y0045995D01*
X0119683Y0046504D01*
X0118911Y0046897D01*
X0118856Y0046915D01*
X0119322Y0047108D01*
X0133330Y0033100D01*
X0174670Y0033100D01*
X0175900Y0034330D01*
X0175900Y0034330D01*
X0178600Y0037030D01*
X0178600Y0050672D01*
X0179038Y0050672D01*
X0179975Y0051610D01*
X0179975Y0056085D01*
X0179260Y0056800D01*
X0179975Y0057515D01*
X0179975Y0061990D01*
X0179038Y0062928D01*
X0174562Y0062928D01*
X0173625Y0061990D01*
X0173625Y0061600D01*
X0171130Y0061600D01*
X0169330Y0059800D01*
X0168100Y0058570D01*
X0168100Y0045756D01*
X0167169Y0044825D01*
X0167169Y0038775D01*
X0168106Y0037838D01*
X0172581Y0037838D01*
X0173518Y0038775D01*
X0173518Y0044825D01*
X0172581Y0045762D01*
X0172300Y0045762D01*
X0172300Y0056830D01*
X0172870Y0057400D01*
X0173740Y0057400D01*
X0174340Y0056800D01*
X0173625Y0056085D01*
X0173625Y0051610D01*
X0174400Y0050835D01*
X0174400Y0038770D01*
X0172930Y0037300D01*
X0135070Y0037300D01*
X0121961Y0050409D01*
X0122100Y0050746D01*
X0122100Y0052854D01*
X0121293Y0054802D01*
X0119802Y0056293D01*
X0118578Y0056800D01*
X0119802Y0057307D01*
X0121293Y0058798D01*
X0122100Y0060746D01*
X0122100Y0062854D01*
X0121293Y0064802D01*
X0119802Y0066293D01*
X0118578Y0066800D01*
X0119802Y0067307D01*
X0121293Y0068798D01*
X0122100Y0070746D01*
X0122100Y0072854D01*
X0121293Y0074802D01*
X0119802Y0076293D01*
X0121567Y0074142D02*
X0198094Y0074142D01*
X0200317Y0072543D02*
X0122100Y0072543D01*
X0122100Y0070945D02*
X0199582Y0070945D01*
X0199337Y0070820D02*
X0198738Y0070385D01*
X0198215Y0069862D01*
X0197780Y0069263D01*
X0197444Y0068604D01*
X0197216Y0067901D01*
X0197100Y0067170D01*
X0197100Y0066950D01*
X0201650Y0066950D01*
X0201650Y0071500D01*
X0201430Y0071500D01*
X0200699Y0071384D01*
X0199996Y0071156D01*
X0199337Y0070820D01*
X0197841Y0069346D02*
X0121520Y0069346D01*
X0120243Y0067748D02*
X0197192Y0067748D01*
X0197100Y0066650D02*
X0197100Y0066430D01*
X0197216Y0065699D01*
X0197444Y0064996D01*
X0197780Y0064337D01*
X0198215Y0063738D01*
X0198738Y0063215D01*
X0199337Y0062780D01*
X0199996Y0062444D01*
X0200699Y0062216D01*
X0201430Y0062100D01*
X0201650Y0062100D01*
X0201650Y0066650D01*
X0197100Y0066650D01*
X0197144Y0066149D02*
X0119946Y0066149D01*
X0121397Y0064551D02*
X0197671Y0064551D01*
X0199100Y0062952D02*
X0122059Y0062952D01*
X0122100Y0061354D02*
X0170884Y0061354D01*
X0169285Y0059755D02*
X0121690Y0059755D01*
X0120652Y0058157D02*
X0168100Y0058157D01*
X0168100Y0056558D02*
X0119162Y0056558D01*
X0121136Y0054960D02*
X0168100Y0054960D01*
X0168100Y0053361D02*
X0121890Y0053361D01*
X0122100Y0051763D02*
X0168100Y0051763D01*
X0168100Y0050164D02*
X0122206Y0050164D01*
X0123804Y0048566D02*
X0168100Y0048566D01*
X0168100Y0046967D02*
X0125403Y0046967D01*
X0127001Y0045369D02*
X0160343Y0045369D01*
X0160242Y0045267D02*
X0160005Y0044857D01*
X0159882Y0044399D01*
X0159882Y0041800D01*
X0159882Y0039201D01*
X0160005Y0038743D01*
X0160242Y0038333D01*
X0160577Y0037997D01*
X0160987Y0037760D01*
X0161445Y0037638D01*
X0163257Y0037638D01*
X0165068Y0037638D01*
X0165526Y0037760D01*
X0165937Y0037997D01*
X0166272Y0038333D01*
X0166509Y0038743D01*
X0166631Y0039201D01*
X0166631Y0041800D01*
X0166631Y0044399D01*
X0166509Y0044857D01*
X0166272Y0045267D01*
X0165937Y0045603D01*
X0165526Y0045840D01*
X0165068Y0045962D01*
X0163257Y0045962D01*
X0163257Y0041800D01*
X0166631Y0041800D01*
X0163257Y0041800D01*
X0163257Y0041800D01*
X0163257Y0037638D01*
X0163257Y0041800D01*
X0163257Y0041800D01*
X0163257Y0041800D01*
X0163257Y0045962D01*
X0161445Y0045962D01*
X0160987Y0045840D01*
X0160577Y0045603D01*
X0160242Y0045267D01*
X0159882Y0043770D02*
X0128600Y0043770D01*
X0130198Y0042172D02*
X0159882Y0042172D01*
X0159882Y0041800D02*
X0163257Y0041800D01*
X0159882Y0041800D01*
X0159882Y0040573D02*
X0131797Y0040573D01*
X0133395Y0038975D02*
X0159942Y0038975D01*
X0163257Y0038975D02*
X0163257Y0038975D01*
X0163257Y0040573D02*
X0163257Y0040573D01*
X0163257Y0041800D02*
X0163257Y0041800D01*
X0163257Y0042172D02*
X0163257Y0042172D01*
X0163257Y0043770D02*
X0163257Y0043770D01*
X0163257Y0045369D02*
X0163257Y0045369D01*
X0166171Y0045369D02*
X0167712Y0045369D01*
X0167169Y0043770D02*
X0166631Y0043770D01*
X0166631Y0042172D02*
X0167169Y0042172D01*
X0167169Y0040573D02*
X0166631Y0040573D01*
X0166571Y0038975D02*
X0167169Y0038975D01*
X0173006Y0037376D02*
X0134994Y0037376D01*
X0132251Y0034179D02*
X0121551Y0034179D01*
X0122100Y0032581D02*
X0200227Y0032581D01*
X0200905Y0032300D02*
X0202695Y0032300D01*
X0204349Y0032985D01*
X0205615Y0034251D01*
X0206300Y0035905D01*
X0206300Y0037695D01*
X0205615Y0039349D01*
X0204349Y0040615D01*
X0202695Y0041300D01*
X0200905Y0041300D01*
X0199251Y0040615D01*
X0197985Y0039349D01*
X0197300Y0037695D01*
X0197300Y0035905D01*
X0197985Y0034251D01*
X0199251Y0032985D01*
X0200905Y0032300D01*
X0203373Y0032581D02*
X0210227Y0032581D01*
X0210905Y0032300D02*
X0212695Y0032300D01*
X0214349Y0032985D01*
X0215615Y0034251D01*
X0216300Y0035905D01*
X0216300Y0037695D01*
X0215615Y0039349D01*
X0214349Y0040615D01*
X0212695Y0041300D01*
X0210905Y0041300D01*
X0209251Y0040615D01*
X0207985Y0039349D01*
X0207300Y0037695D01*
X0207300Y0035905D01*
X0207985Y0034251D01*
X0209251Y0032985D01*
X0210905Y0032300D01*
X0213373Y0032581D02*
X0220227Y0032581D01*
X0220905Y0032300D02*
X0222695Y0032300D01*
X0224349Y0032985D01*
X0225615Y0034251D01*
X0226300Y0035905D01*
X0226300Y0037695D01*
X0225615Y0039349D01*
X0224349Y0040615D01*
X0222695Y0041300D01*
X0220905Y0041300D01*
X0219251Y0040615D01*
X0217985Y0039349D01*
X0217300Y0037695D01*
X0217300Y0035905D01*
X0217985Y0034251D01*
X0219251Y0032985D01*
X0220905Y0032300D01*
X0223373Y0032581D02*
X0230227Y0032581D01*
X0230905Y0032300D02*
X0232695Y0032300D01*
X0234349Y0032985D01*
X0235615Y0034251D01*
X0236300Y0035905D01*
X0236300Y0037695D01*
X0235615Y0039349D01*
X0234349Y0040615D01*
X0232695Y0041300D01*
X0230905Y0041300D01*
X0229251Y0040615D01*
X0227985Y0039349D01*
X0227300Y0037695D01*
X0227300Y0035905D01*
X0227985Y0034251D01*
X0229251Y0032985D01*
X0230905Y0032300D01*
X0233373Y0032581D02*
X0240227Y0032581D01*
X0240905Y0032300D02*
X0242695Y0032300D01*
X0244349Y0032985D01*
X0245615Y0034251D01*
X0246300Y0035905D01*
X0246300Y0037695D01*
X0245615Y0039349D01*
X0244349Y0040615D01*
X0242695Y0041300D01*
X0240905Y0041300D01*
X0239251Y0040615D01*
X0237985Y0039349D01*
X0237300Y0037695D01*
X0237300Y0035905D01*
X0237985Y0034251D01*
X0239251Y0032985D01*
X0240905Y0032300D01*
X0243373Y0032581D02*
X0250227Y0032581D01*
X0250905Y0032300D02*
X0249251Y0032985D01*
X0247985Y0034251D01*
X0247300Y0035905D01*
X0247300Y0037695D01*
X0247985Y0039349D01*
X0249251Y0040615D01*
X0250905Y0041300D01*
X0252695Y0041300D01*
X0254349Y0040615D01*
X0255615Y0039349D01*
X0256300Y0037695D01*
X0256300Y0035905D01*
X0255615Y0034251D01*
X0254349Y0032985D01*
X0252695Y0032300D01*
X0250905Y0032300D01*
X0253373Y0032581D02*
X0260227Y0032581D01*
X0260905Y0032300D02*
X0262695Y0032300D01*
X0264349Y0032985D01*
X0265615Y0034251D01*
X0266300Y0035905D01*
X0266300Y0037695D01*
X0265615Y0039349D01*
X0264349Y0040615D01*
X0262695Y0041300D01*
X0260905Y0041300D01*
X0259251Y0040615D01*
X0257985Y0039349D01*
X0257300Y0037695D01*
X0257300Y0035905D01*
X0257985Y0034251D01*
X0259251Y0032985D01*
X0260905Y0032300D01*
X0263373Y0032581D02*
X0270227Y0032581D01*
X0270905Y0032300D02*
X0272695Y0032300D01*
X0274349Y0032985D01*
X0275615Y0034251D01*
X0276300Y0035905D01*
X0276300Y0037695D01*
X0275615Y0039349D01*
X0274349Y0040615D01*
X0272695Y0041300D01*
X0270905Y0041300D01*
X0269251Y0040615D01*
X0267985Y0039349D01*
X0267300Y0037695D01*
X0267300Y0035905D01*
X0267985Y0034251D01*
X0269251Y0032985D01*
X0270905Y0032300D01*
X0273373Y0032581D02*
X0280227Y0032581D01*
X0280905Y0032300D02*
X0282695Y0032300D01*
X0284349Y0032985D01*
X0285615Y0034251D01*
X0286300Y0035905D01*
X0286300Y0037695D01*
X0285615Y0039349D01*
X0284349Y0040615D01*
X0282695Y0041300D01*
X0280905Y0041300D01*
X0279251Y0040615D01*
X0277985Y0039349D01*
X0277300Y0037695D01*
X0277300Y0035905D01*
X0277985Y0034251D01*
X0279251Y0032985D01*
X0280905Y0032300D01*
X0283373Y0032581D02*
X0290227Y0032581D01*
X0290905Y0032300D02*
X0292695Y0032300D01*
X0294349Y0032985D01*
X0295615Y0034251D01*
X0296300Y0035905D01*
X0296300Y0037695D01*
X0295615Y0039349D01*
X0294349Y0040615D01*
X0292695Y0041300D01*
X0290905Y0041300D01*
X0289251Y0040615D01*
X0287985Y0039349D01*
X0287300Y0037695D01*
X0287300Y0035905D01*
X0287985Y0034251D01*
X0289251Y0032985D01*
X0290905Y0032300D01*
X0293373Y0032581D02*
X0300227Y0032581D01*
X0300905Y0032300D02*
X0302695Y0032300D01*
X0304349Y0032985D01*
X0305615Y0034251D01*
X0306300Y0035905D01*
X0306300Y0037695D01*
X0305615Y0039349D01*
X0304349Y0040615D01*
X0302695Y0041300D01*
X0300905Y0041300D01*
X0299251Y0040615D01*
X0297985Y0039349D01*
X0297300Y0037695D01*
X0297300Y0035905D01*
X0297985Y0034251D01*
X0299251Y0032985D01*
X0300905Y0032300D01*
X0303373Y0032581D02*
X0310227Y0032581D01*
X0310905Y0032300D02*
X0312695Y0032300D01*
X0314349Y0032985D01*
X0315615Y0034251D01*
X0316300Y0035905D01*
X0316300Y0037695D01*
X0315615Y0039349D01*
X0314349Y0040615D01*
X0312695Y0041300D01*
X0310905Y0041300D01*
X0309251Y0040615D01*
X0307985Y0039349D01*
X0307300Y0037695D01*
X0307300Y0035905D01*
X0307985Y0034251D01*
X0309251Y0032985D01*
X0310905Y0032300D01*
X0313373Y0032581D02*
X0320227Y0032581D01*
X0320905Y0032300D02*
X0319251Y0032985D01*
X0317985Y0034251D01*
X0317300Y0035905D01*
X0317300Y0037695D01*
X0317985Y0039349D01*
X0319251Y0040615D01*
X0320905Y0041300D01*
X0322695Y0041300D01*
X0324349Y0040615D01*
X0325615Y0039349D01*
X0326300Y0037695D01*
X0326300Y0035905D01*
X0325615Y0034251D01*
X0324349Y0032985D01*
X0322695Y0032300D01*
X0320905Y0032300D01*
X0323373Y0032581D02*
X0330227Y0032581D01*
X0330905Y0032300D02*
X0332695Y0032300D01*
X0334349Y0032985D01*
X0335615Y0034251D01*
X0336300Y0035905D01*
X0336300Y0037695D01*
X0335615Y0039349D01*
X0334349Y0040615D01*
X0332695Y0041300D01*
X0330905Y0041300D01*
X0329251Y0040615D01*
X0327985Y0039349D01*
X0327300Y0037695D01*
X0327300Y0035905D01*
X0327985Y0034251D01*
X0329251Y0032985D01*
X0330905Y0032300D01*
X0333373Y0032581D02*
X0350701Y0032581D01*
X0350701Y0034179D02*
X0335543Y0034179D01*
X0336247Y0035778D02*
X0350701Y0035778D01*
X0350701Y0037376D02*
X0336300Y0037376D01*
X0335770Y0038975D02*
X0350701Y0038975D01*
X0350701Y0040573D02*
X0334391Y0040573D01*
X0329209Y0040573D02*
X0324391Y0040573D01*
X0325770Y0038975D02*
X0327830Y0038975D01*
X0327300Y0037376D02*
X0326300Y0037376D01*
X0326247Y0035778D02*
X0327353Y0035778D01*
X0328057Y0034179D02*
X0325543Y0034179D01*
X0318057Y0034179D02*
X0315543Y0034179D01*
X0316247Y0035778D02*
X0317353Y0035778D01*
X0317300Y0037376D02*
X0316300Y0037376D01*
X0315770Y0038975D02*
X0317830Y0038975D01*
X0319209Y0040573D02*
X0314391Y0040573D01*
X0309209Y0040573D02*
X0304391Y0040573D01*
X0305770Y0038975D02*
X0307830Y0038975D01*
X0307300Y0037376D02*
X0306300Y0037376D01*
X0306247Y0035778D02*
X0307353Y0035778D01*
X0308057Y0034179D02*
X0305543Y0034179D01*
X0298057Y0034179D02*
X0295543Y0034179D01*
X0296247Y0035778D02*
X0297353Y0035778D01*
X0297300Y0037376D02*
X0296300Y0037376D01*
X0295770Y0038975D02*
X0297830Y0038975D01*
X0299209Y0040573D02*
X0294391Y0040573D01*
X0289209Y0040573D02*
X0284391Y0040573D01*
X0285770Y0038975D02*
X0287830Y0038975D01*
X0287300Y0037376D02*
X0286300Y0037376D01*
X0286247Y0035778D02*
X0287353Y0035778D01*
X0288057Y0034179D02*
X0285543Y0034179D01*
X0278057Y0034179D02*
X0275543Y0034179D01*
X0276247Y0035778D02*
X0277353Y0035778D01*
X0277300Y0037376D02*
X0276300Y0037376D01*
X0275770Y0038975D02*
X0277830Y0038975D01*
X0279209Y0040573D02*
X0274391Y0040573D01*
X0269209Y0040573D02*
X0264391Y0040573D01*
X0265770Y0038975D02*
X0267830Y0038975D01*
X0267300Y0037376D02*
X0266300Y0037376D01*
X0266247Y0035778D02*
X0267353Y0035778D01*
X0268057Y0034179D02*
X0265543Y0034179D01*
X0258057Y0034179D02*
X0255543Y0034179D01*
X0256247Y0035778D02*
X0257353Y0035778D01*
X0257300Y0037376D02*
X0256300Y0037376D01*
X0255770Y0038975D02*
X0257830Y0038975D01*
X0259209Y0040573D02*
X0254391Y0040573D01*
X0249209Y0040573D02*
X0244391Y0040573D01*
X0245770Y0038975D02*
X0247830Y0038975D01*
X0247300Y0037376D02*
X0246300Y0037376D01*
X0246247Y0035778D02*
X0247353Y0035778D01*
X0248057Y0034179D02*
X0245543Y0034179D01*
X0238057Y0034179D02*
X0235543Y0034179D01*
X0236247Y0035778D02*
X0237353Y0035778D01*
X0237300Y0037376D02*
X0236300Y0037376D01*
X0235770Y0038975D02*
X0237830Y0038975D01*
X0239209Y0040573D02*
X0234391Y0040573D01*
X0229209Y0040573D02*
X0224391Y0040573D01*
X0225770Y0038975D02*
X0227830Y0038975D01*
X0227300Y0037376D02*
X0226300Y0037376D01*
X0226247Y0035778D02*
X0227353Y0035778D01*
X0228057Y0034179D02*
X0225543Y0034179D01*
X0218057Y0034179D02*
X0215543Y0034179D01*
X0216247Y0035778D02*
X0217353Y0035778D01*
X0217300Y0037376D02*
X0216300Y0037376D01*
X0215770Y0038975D02*
X0217830Y0038975D01*
X0219209Y0040573D02*
X0214391Y0040573D01*
X0209209Y0040573D02*
X0204391Y0040573D01*
X0205770Y0038975D02*
X0207830Y0038975D01*
X0207300Y0037376D02*
X0206300Y0037376D01*
X0206247Y0035778D02*
X0207353Y0035778D01*
X0208057Y0034179D02*
X0205543Y0034179D01*
X0198057Y0034179D02*
X0175749Y0034179D01*
X0177348Y0035778D02*
X0197353Y0035778D01*
X0197300Y0037376D02*
X0178600Y0037376D01*
X0178600Y0038975D02*
X0197830Y0038975D01*
X0199209Y0040573D02*
X0178600Y0040573D01*
X0178600Y0042172D02*
X0350701Y0042172D01*
X0350701Y0043770D02*
X0205134Y0043770D01*
X0205615Y0044251D02*
X0206300Y0045905D01*
X0206300Y0047695D01*
X0205615Y0049349D01*
X0204349Y0050615D01*
X0202695Y0051300D01*
X0200905Y0051300D01*
X0199251Y0050615D01*
X0197985Y0049349D01*
X0197300Y0047695D01*
X0197300Y0045905D01*
X0197985Y0044251D01*
X0199251Y0042985D01*
X0200905Y0042300D01*
X0202695Y0042300D01*
X0204349Y0042985D01*
X0205615Y0044251D01*
X0206078Y0045369D02*
X0350701Y0045369D01*
X0350701Y0046967D02*
X0206300Y0046967D01*
X0205939Y0048566D02*
X0350701Y0048566D01*
X0350701Y0050164D02*
X0204800Y0050164D01*
X0204349Y0052985D02*
X0205615Y0054251D01*
X0206300Y0055905D01*
X0206300Y0057695D01*
X0205615Y0059349D01*
X0204349Y0060615D01*
X0202695Y0061300D01*
X0200905Y0061300D01*
X0199251Y0060615D01*
X0197985Y0059349D01*
X0197300Y0057695D01*
X0197300Y0055905D01*
X0197985Y0054251D01*
X0199251Y0052985D01*
X0200905Y0052300D01*
X0202695Y0052300D01*
X0204349Y0052985D01*
X0204725Y0053361D02*
X0350701Y0053361D01*
X0350701Y0051763D02*
X0179975Y0051763D01*
X0179975Y0053361D02*
X0198875Y0053361D01*
X0197691Y0054960D02*
X0179975Y0054960D01*
X0179501Y0056558D02*
X0197300Y0056558D01*
X0197491Y0058157D02*
X0179975Y0058157D01*
X0179975Y0059755D02*
X0198391Y0059755D01*
X0201950Y0062100D02*
X0202170Y0062100D01*
X0202901Y0062216D01*
X0203604Y0062444D01*
X0204263Y0062780D01*
X0204862Y0063215D01*
X0205385Y0063738D01*
X0205820Y0064337D01*
X0206156Y0064996D01*
X0206384Y0065699D01*
X0206500Y0066430D01*
X0206500Y0066650D01*
X0201950Y0066650D01*
X0201950Y0066950D01*
X0201650Y0066950D01*
X0201650Y0066650D01*
X0201950Y0066650D01*
X0201950Y0062100D01*
X0201950Y0062952D02*
X0201650Y0062952D01*
X0201650Y0064551D02*
X0201950Y0064551D01*
X0201950Y0066149D02*
X0201650Y0066149D01*
X0201950Y0066950D02*
X0206500Y0066950D01*
X0206500Y0067170D01*
X0206384Y0067901D01*
X0206156Y0068604D01*
X0205820Y0069263D01*
X0205385Y0069862D01*
X0204862Y0070385D01*
X0204263Y0070820D01*
X0203604Y0071156D01*
X0202901Y0071384D01*
X0202170Y0071500D01*
X0201950Y0071500D01*
X0201950Y0066950D01*
X0201950Y0067748D02*
X0201650Y0067748D01*
X0201650Y0069346D02*
X0201950Y0069346D01*
X0201950Y0070945D02*
X0201650Y0070945D01*
X0203283Y0072543D02*
X0350701Y0072543D01*
X0350701Y0070945D02*
X0204018Y0070945D01*
X0205759Y0069346D02*
X0350701Y0069346D01*
X0350701Y0067748D02*
X0206408Y0067748D01*
X0206456Y0066149D02*
X0350701Y0066149D01*
X0350701Y0064551D02*
X0205929Y0064551D01*
X0204500Y0062952D02*
X0350701Y0062952D01*
X0350701Y0061354D02*
X0179975Y0061354D01*
X0174099Y0056558D02*
X0172300Y0056558D01*
X0172300Y0054960D02*
X0173625Y0054960D01*
X0173625Y0053361D02*
X0172300Y0053361D01*
X0172300Y0051763D02*
X0173625Y0051763D01*
X0174400Y0050164D02*
X0172300Y0050164D01*
X0172300Y0048566D02*
X0174400Y0048566D01*
X0174400Y0046967D02*
X0172300Y0046967D01*
X0172974Y0045369D02*
X0174400Y0045369D01*
X0174400Y0043770D02*
X0173518Y0043770D01*
X0173518Y0042172D02*
X0174400Y0042172D01*
X0174400Y0040573D02*
X0173518Y0040573D01*
X0173518Y0038975D02*
X0174400Y0038975D01*
X0178600Y0043770D02*
X0198466Y0043770D01*
X0197522Y0045369D02*
X0178600Y0045369D01*
X0178600Y0046967D02*
X0197300Y0046967D01*
X0197661Y0048566D02*
X0178600Y0048566D01*
X0178600Y0050164D02*
X0198800Y0050164D01*
X0205909Y0054960D02*
X0350701Y0054960D01*
X0350701Y0056558D02*
X0206300Y0056558D01*
X0206109Y0058157D02*
X0350701Y0058157D01*
X0350701Y0059755D02*
X0205209Y0059755D01*
X0205506Y0074142D02*
X0350701Y0074142D01*
X0350701Y0075740D02*
X0206232Y0075740D01*
X0206300Y0077339D02*
X0350701Y0077339D01*
X0350701Y0078937D02*
X0205785Y0078937D01*
X0204428Y0080536D02*
X0350701Y0080536D01*
X0350701Y0091726D02*
X0139129Y0091726D01*
X0134470Y0091726D02*
X0064129Y0091726D01*
X0067987Y0093324D02*
X0130613Y0093324D01*
X0128697Y0094923D02*
X0069903Y0094923D01*
X0071223Y0096521D02*
X0127377Y0096521D01*
X0126454Y0098120D02*
X0072146Y0098120D01*
X0072673Y0099718D02*
X0125927Y0099718D01*
X0125500Y0101317D02*
X0073100Y0101317D01*
X0073100Y0102915D02*
X0125500Y0102915D01*
X0125561Y0104514D02*
X0073039Y0104514D01*
X0072611Y0106112D02*
X0125989Y0106112D01*
X0126587Y0107711D02*
X0072013Y0107711D01*
X0071090Y0109309D02*
X0127510Y0109309D01*
X0128927Y0110908D02*
X0069673Y0110908D01*
X0067588Y0112506D02*
X0131012Y0112506D01*
X0142588Y0112506D02*
X0156815Y0112506D01*
X0185487Y0138082D02*
X0201098Y0138082D01*
X0201270Y0137438D02*
X0202758Y0134862D01*
X0204862Y0132758D01*
X0207438Y0131270D01*
X0210312Y0130500D01*
X0213288Y0130500D01*
X0216162Y0131270D01*
X0218738Y0132758D01*
X0220842Y0134862D01*
X0222330Y0137438D01*
X0223100Y0140312D01*
X0223100Y0143288D01*
X0222330Y0146162D01*
X0220842Y0148738D01*
X0218738Y0150842D01*
X0216162Y0152330D01*
X0213288Y0153100D01*
X0210312Y0153100D01*
X0207438Y0152330D01*
X0204862Y0150842D01*
X0202758Y0148738D01*
X0201270Y0146162D01*
X0200500Y0143288D01*
X0200500Y0140312D01*
X0201270Y0137438D01*
X0201821Y0136484D02*
X0187086Y0136484D01*
X0188684Y0134885D02*
X0202744Y0134885D01*
X0204333Y0133287D02*
X0190283Y0133287D01*
X0191881Y0131688D02*
X0206714Y0131688D01*
X0216886Y0131688D02*
X0261714Y0131688D01*
X0259333Y0133287D02*
X0219267Y0133287D01*
X0220856Y0134885D02*
X0257744Y0134885D01*
X0256821Y0136484D02*
X0221779Y0136484D01*
X0222502Y0138082D02*
X0256098Y0138082D01*
X0255669Y0139681D02*
X0222931Y0139681D01*
X0223100Y0141279D02*
X0255500Y0141279D01*
X0255500Y0142878D02*
X0223100Y0142878D01*
X0222781Y0144476D02*
X0255819Y0144476D01*
X0256247Y0146075D02*
X0222353Y0146075D01*
X0221457Y0147673D02*
X0257143Y0147673D01*
X0258291Y0149272D02*
X0220309Y0149272D01*
X0218689Y0150870D02*
X0259911Y0150870D01*
X0262957Y0152469D02*
X0215643Y0152469D01*
X0207957Y0152469D02*
X0171101Y0152469D01*
X0172699Y0150870D02*
X0204911Y0150870D01*
X0203291Y0149272D02*
X0174298Y0149272D01*
X0175896Y0147673D02*
X0202143Y0147673D01*
X0201247Y0146075D02*
X0177495Y0146075D01*
X0179093Y0144476D02*
X0200819Y0144476D01*
X0200500Y0142878D02*
X0180692Y0142878D01*
X0182290Y0141279D02*
X0200500Y0141279D01*
X0200669Y0139681D02*
X0183889Y0139681D01*
X0206078Y0174848D02*
X0208522Y0174848D01*
X0207347Y0176447D02*
X0207253Y0176447D01*
X0207053Y0187636D02*
X0207547Y0187636D01*
X0209005Y0189235D02*
X0205595Y0189235D01*
X0214595Y0189235D02*
X0218005Y0189235D01*
X0216547Y0187636D02*
X0216053Y0187636D01*
X0197838Y0213212D02*
X0160877Y0213212D01*
X0160962Y0214811D02*
X0197838Y0214811D01*
X0198753Y0216409D02*
X0160962Y0216409D01*
X0160611Y0218008D02*
X0197798Y0218008D01*
X0205802Y0218008D02*
X0247798Y0218008D01*
X0247638Y0219606D02*
X0205962Y0219606D01*
X0205962Y0221205D02*
X0247638Y0221205D01*
X0247638Y0220343D02*
X0251800Y0220343D01*
X0251800Y0223718D01*
X0249201Y0223718D01*
X0248743Y0223595D01*
X0248333Y0223358D01*
X0247997Y0223023D01*
X0247760Y0222613D01*
X0247638Y0222155D01*
X0247638Y0220343D01*
X0247871Y0222803D02*
X0205729Y0222803D01*
X0162200Y0226001D02*
X0350701Y0226001D01*
X0350701Y0227599D02*
X0162200Y0227599D01*
X0161652Y0229198D02*
X0350701Y0229198D01*
X0350701Y0230796D02*
X0160441Y0230796D01*
X0153159Y0230796D02*
X0120441Y0230796D01*
X0121652Y0229198D02*
X0151948Y0229198D01*
X0151400Y0227599D02*
X0122200Y0227599D01*
X0122200Y0226001D02*
X0151400Y0226001D01*
X0151948Y0224402D02*
X0121652Y0224402D01*
X0120440Y0222803D02*
X0153160Y0222803D01*
X0156800Y0218008D02*
X0156800Y0218008D01*
X0156800Y0216409D02*
X0156800Y0216409D01*
X0156800Y0215343D02*
X0156800Y0215343D01*
X0156800Y0214811D02*
X0156800Y0214811D01*
X0156800Y0213212D02*
X0156800Y0213212D01*
X0144959Y0195629D02*
X0142714Y0195629D01*
X0137972Y0195629D02*
X0135891Y0195629D01*
X0136631Y0194030D02*
X0137169Y0194030D01*
X0137169Y0192432D02*
X0136631Y0192432D01*
X0136631Y0190833D02*
X0137169Y0190833D01*
X0137169Y0189235D02*
X0136631Y0189235D01*
X0133257Y0189235D02*
X0133257Y0189235D01*
X0133257Y0190833D02*
X0133257Y0190833D01*
X0133257Y0192432D02*
X0133257Y0192432D01*
X0133257Y0194030D02*
X0133257Y0194030D01*
X0133257Y0195629D02*
X0133257Y0195629D01*
X0129882Y0189235D02*
X0087535Y0189235D01*
X0056900Y0170053D02*
X0056900Y0170053D01*
X0056900Y0168454D02*
X0056900Y0168454D01*
X0056628Y0166856D02*
X0057177Y0166856D01*
X0058113Y0165257D02*
X0055748Y0165257D01*
X0052100Y0165257D02*
X0051500Y0165257D01*
X0051500Y0166856D02*
X0052100Y0166856D01*
X0052100Y0168454D02*
X0051500Y0168454D01*
X0051500Y0170053D02*
X0052100Y0170053D01*
X0052100Y0173250D02*
X0051500Y0173250D01*
X0051500Y0174848D02*
X0052100Y0174848D01*
X0052100Y0176447D02*
X0051500Y0176447D01*
X0051500Y0178045D02*
X0052100Y0178045D01*
X0052100Y0179644D02*
X0051500Y0179644D01*
X0049484Y0179644D02*
X0016600Y0179644D01*
X0016600Y0178045D02*
X0047636Y0178045D01*
X0046875Y0176447D02*
X0016600Y0176447D01*
X0016600Y0174848D02*
X0046700Y0174848D01*
X0046700Y0173250D02*
X0016600Y0173250D01*
X0016600Y0088529D02*
X0197645Y0088529D01*
X0197300Y0086930D02*
X0016600Y0086930D01*
X0016600Y0085332D02*
X0197537Y0085332D01*
X0198503Y0083733D02*
X0016600Y0083733D01*
X0016600Y0075740D02*
X0113245Y0075740D01*
X0112033Y0074142D02*
X0016600Y0074142D01*
X0016600Y0072543D02*
X0111500Y0072543D01*
X0111500Y0070945D02*
X0016600Y0070945D01*
X0016600Y0069346D02*
X0112080Y0069346D01*
X0113357Y0067748D02*
X0016600Y0067748D01*
X0016600Y0066149D02*
X0113654Y0066149D01*
X0112203Y0064551D02*
X0016600Y0064551D01*
X0016600Y0062952D02*
X0111541Y0062952D01*
X0111500Y0061354D02*
X0016600Y0061354D01*
X0016600Y0059755D02*
X0111910Y0059755D01*
X0112948Y0058157D02*
X0016600Y0058157D01*
X0016600Y0056558D02*
X0114438Y0056558D01*
X0112464Y0054960D02*
X0016600Y0054960D01*
X0016600Y0053361D02*
X0111710Y0053361D01*
X0111500Y0051763D02*
X0016600Y0051763D01*
X0016600Y0050164D02*
X0111741Y0050164D01*
X0112539Y0048566D02*
X0016600Y0048566D01*
X0016600Y0046967D02*
X0114618Y0046967D01*
X0112594Y0045369D02*
X0016600Y0045369D01*
X0016600Y0043770D02*
X0111657Y0043770D01*
X0111300Y0042172D02*
X0016600Y0042172D01*
X0016600Y0040573D02*
X0111426Y0040573D01*
X0112067Y0038975D02*
X0016600Y0038975D01*
X0016600Y0037376D02*
X0113532Y0037376D01*
X0113282Y0035778D02*
X0016600Y0035778D01*
X0016600Y0034179D02*
X0112049Y0034179D01*
X0111500Y0032581D02*
X0016600Y0032581D01*
X0016600Y0030982D02*
X0111500Y0030982D01*
X0112064Y0029384D02*
X0016600Y0029384D01*
X0016600Y0027785D02*
X0113320Y0027785D01*
X0120280Y0027785D02*
X0350701Y0027785D01*
X0350701Y0026187D02*
X0016600Y0026187D01*
X0016600Y0024588D02*
X0350701Y0024588D01*
X0350701Y0022990D02*
X0016600Y0022990D01*
X0016600Y0021391D02*
X0350701Y0021391D01*
X0350701Y0019793D02*
X0016600Y0019793D01*
X0016600Y0018194D02*
X0350701Y0018194D01*
X0350701Y0016600D02*
X0016600Y0016600D01*
X0016600Y0291961D01*
X0350701Y0291961D01*
X0350701Y0016600D01*
X0350701Y0029384D02*
X0121536Y0029384D01*
X0122100Y0030982D02*
X0350701Y0030982D01*
X0332901Y0092216D02*
X0333604Y0092444D01*
X0334263Y0092780D01*
X0334862Y0093215D01*
X0335385Y0093738D01*
X0335820Y0094337D01*
X0336156Y0094996D01*
X0336384Y0095699D01*
X0336500Y0096430D01*
X0336500Y0096650D01*
X0331950Y0096650D01*
X0331950Y0092100D01*
X0332170Y0092100D01*
X0332901Y0092216D01*
X0331950Y0093324D02*
X0331650Y0093324D01*
X0331650Y0094923D02*
X0331950Y0094923D01*
X0331950Y0096521D02*
X0331650Y0096521D01*
X0331650Y0098120D02*
X0331950Y0098120D01*
X0331950Y0099718D02*
X0331650Y0099718D01*
X0328111Y0099718D02*
X0325246Y0099718D01*
X0325615Y0099349D02*
X0324349Y0100615D01*
X0322695Y0101300D01*
X0320905Y0101300D01*
X0319251Y0100615D01*
X0317985Y0099349D01*
X0317300Y0097695D01*
X0317300Y0095905D01*
X0317985Y0094251D01*
X0319251Y0092985D01*
X0320905Y0092300D01*
X0322695Y0092300D01*
X0324349Y0092985D01*
X0325615Y0094251D01*
X0326300Y0095905D01*
X0326300Y0097695D01*
X0325615Y0099349D01*
X0326124Y0098120D02*
X0327287Y0098120D01*
X0327100Y0096521D02*
X0326300Y0096521D01*
X0325893Y0094923D02*
X0327482Y0094923D01*
X0328629Y0093324D02*
X0324688Y0093324D01*
X0318912Y0093324D02*
X0314688Y0093324D01*
X0314349Y0092985D02*
X0315615Y0094251D01*
X0316300Y0095905D01*
X0316300Y0097695D01*
X0315615Y0099349D01*
X0314349Y0100615D01*
X0312695Y0101300D01*
X0310905Y0101300D01*
X0309251Y0100615D01*
X0307985Y0099349D01*
X0307300Y0097695D01*
X0307300Y0095905D01*
X0307985Y0094251D01*
X0309251Y0092985D01*
X0310905Y0092300D01*
X0312695Y0092300D01*
X0314349Y0092985D01*
X0315893Y0094923D02*
X0317707Y0094923D01*
X0317300Y0096521D02*
X0316300Y0096521D01*
X0316124Y0098120D02*
X0317476Y0098120D01*
X0318354Y0099718D02*
X0315246Y0099718D01*
X0308354Y0099718D02*
X0305246Y0099718D01*
X0305615Y0099349D02*
X0304349Y0100615D01*
X0302695Y0101300D01*
X0300905Y0101300D01*
X0299251Y0100615D01*
X0297985Y0099349D01*
X0297300Y0097695D01*
X0297300Y0095905D01*
X0297985Y0094251D01*
X0299251Y0092985D01*
X0300905Y0092300D01*
X0302695Y0092300D01*
X0304349Y0092985D01*
X0305615Y0094251D01*
X0306300Y0095905D01*
X0306300Y0097695D01*
X0305615Y0099349D01*
X0306124Y0098120D02*
X0307476Y0098120D01*
X0307300Y0096521D02*
X0306300Y0096521D01*
X0305893Y0094923D02*
X0307707Y0094923D01*
X0308912Y0093324D02*
X0304688Y0093324D01*
X0298912Y0093324D02*
X0294688Y0093324D01*
X0294349Y0092985D02*
X0295615Y0094251D01*
X0296300Y0095905D01*
X0296300Y0097695D01*
X0295615Y0099349D01*
X0294349Y0100615D01*
X0292695Y0101300D01*
X0290905Y0101300D01*
X0289251Y0100615D01*
X0287985Y0099349D01*
X0287300Y0097695D01*
X0287300Y0095905D01*
X0287985Y0094251D01*
X0289251Y0092985D01*
X0290905Y0092300D01*
X0292695Y0092300D01*
X0294349Y0092985D01*
X0295893Y0094923D02*
X0297707Y0094923D01*
X0297300Y0096521D02*
X0296300Y0096521D01*
X0296124Y0098120D02*
X0297476Y0098120D01*
X0298354Y0099718D02*
X0295246Y0099718D01*
X0288354Y0099718D02*
X0285246Y0099718D01*
X0285615Y0099349D02*
X0284349Y0100615D01*
X0282695Y0101300D01*
X0280905Y0101300D01*
X0279251Y0100615D01*
X0277985Y0099349D01*
X0277300Y0097695D01*
X0277300Y0095905D01*
X0277985Y0094251D01*
X0279251Y0092985D01*
X0280905Y0092300D01*
X0282695Y0092300D01*
X0284349Y0092985D01*
X0285615Y0094251D01*
X0286300Y0095905D01*
X0286300Y0097695D01*
X0285615Y0099349D01*
X0286124Y0098120D02*
X0287476Y0098120D01*
X0287300Y0096521D02*
X0286300Y0096521D01*
X0285893Y0094923D02*
X0287707Y0094923D01*
X0288912Y0093324D02*
X0284688Y0093324D01*
X0278912Y0093324D02*
X0274688Y0093324D01*
X0274349Y0092985D02*
X0275615Y0094251D01*
X0276300Y0095905D01*
X0276300Y0097695D01*
X0275615Y0099349D01*
X0274349Y0100615D01*
X0272695Y0101300D01*
X0270905Y0101300D01*
X0269251Y0100615D01*
X0267985Y0099349D01*
X0267300Y0097695D01*
X0267300Y0095905D01*
X0267985Y0094251D01*
X0269251Y0092985D01*
X0270905Y0092300D01*
X0272695Y0092300D01*
X0274349Y0092985D01*
X0275893Y0094923D02*
X0277707Y0094923D01*
X0277300Y0096521D02*
X0276300Y0096521D01*
X0276124Y0098120D02*
X0277476Y0098120D01*
X0278354Y0099718D02*
X0275246Y0099718D01*
X0268354Y0099718D02*
X0265246Y0099718D01*
X0265615Y0099349D02*
X0264349Y0100615D01*
X0262695Y0101300D01*
X0260905Y0101300D01*
X0259251Y0100615D01*
X0257985Y0099349D01*
X0257300Y0097695D01*
X0257300Y0095905D01*
X0257985Y0094251D01*
X0259251Y0092985D01*
X0260905Y0092300D01*
X0262695Y0092300D01*
X0264349Y0092985D01*
X0265615Y0094251D01*
X0266300Y0095905D01*
X0266300Y0097695D01*
X0265615Y0099349D01*
X0266124Y0098120D02*
X0267476Y0098120D01*
X0267300Y0096521D02*
X0266300Y0096521D01*
X0265893Y0094923D02*
X0267707Y0094923D01*
X0268912Y0093324D02*
X0264688Y0093324D01*
X0258912Y0093324D02*
X0254688Y0093324D01*
X0254349Y0092985D02*
X0255615Y0094251D01*
X0256300Y0095905D01*
X0256300Y0097695D01*
X0255615Y0099349D01*
X0254349Y0100615D01*
X0252695Y0101300D01*
X0250905Y0101300D01*
X0249251Y0100615D01*
X0247985Y0099349D01*
X0247300Y0097695D01*
X0247300Y0095905D01*
X0247985Y0094251D01*
X0249251Y0092985D01*
X0250905Y0092300D01*
X0252695Y0092300D01*
X0254349Y0092985D01*
X0255893Y0094923D02*
X0257707Y0094923D01*
X0257300Y0096521D02*
X0256300Y0096521D01*
X0256124Y0098120D02*
X0257476Y0098120D01*
X0258354Y0099718D02*
X0255246Y0099718D01*
X0248354Y0099718D02*
X0245246Y0099718D01*
X0245615Y0099349D02*
X0244349Y0100615D01*
X0242695Y0101300D01*
X0240905Y0101300D01*
X0239251Y0100615D01*
X0237985Y0099349D01*
X0237300Y0097695D01*
X0237300Y0095905D01*
X0237985Y0094251D01*
X0239251Y0092985D01*
X0240905Y0092300D01*
X0242695Y0092300D01*
X0244349Y0092985D01*
X0245615Y0094251D01*
X0246300Y0095905D01*
X0246300Y0097695D01*
X0245615Y0099349D01*
X0246124Y0098120D02*
X0247476Y0098120D01*
X0247300Y0096521D02*
X0246300Y0096521D01*
X0245893Y0094923D02*
X0247707Y0094923D01*
X0248912Y0093324D02*
X0244688Y0093324D01*
X0238912Y0093324D02*
X0234688Y0093324D01*
X0235893Y0094923D02*
X0237707Y0094923D01*
X0237300Y0096521D02*
X0236300Y0096521D01*
X0236124Y0098120D02*
X0237476Y0098120D01*
X0238354Y0099718D02*
X0235246Y0099718D01*
X0334971Y0093324D02*
X0350701Y0093324D01*
X0350701Y0094923D02*
X0336118Y0094923D01*
X0336500Y0096521D02*
X0350701Y0096521D01*
X0350701Y0098120D02*
X0336313Y0098120D01*
X0335489Y0099718D02*
X0350701Y0099718D01*
X0251800Y0218008D02*
X0251800Y0218008D01*
X0251800Y0219606D02*
X0251800Y0219606D01*
X0251800Y0220343D02*
X0251800Y0220343D01*
X0251800Y0221205D02*
X0251800Y0221205D01*
X0251800Y0222803D02*
X0251800Y0222803D01*
X0247437Y0261500D02*
X0256163Y0261500D01*
X0257100Y0262437D01*
X0257100Y0264297D01*
X0257307Y0263798D01*
X0258798Y0262307D01*
X0260746Y0261500D01*
X0262854Y0261500D01*
X0264802Y0262307D01*
X0266293Y0263798D01*
X0266685Y0264744D01*
X0266703Y0264689D01*
X0267096Y0263917D01*
X0267605Y0263217D01*
X0268217Y0262605D01*
X0268917Y0262096D01*
X0269689Y0261703D01*
X0270512Y0261435D01*
X0271367Y0261300D01*
X0271600Y0261300D01*
X0271600Y0266600D01*
X0272000Y0266600D01*
X0272000Y0267000D01*
X0277300Y0267000D01*
X0277300Y0267233D01*
X0277165Y0268088D01*
X0276897Y0268911D01*
X0276504Y0269683D01*
X0275995Y0270383D01*
X0275383Y0270995D01*
X0274683Y0271504D01*
X0273911Y0271897D01*
X0273088Y0272165D01*
X0272233Y0272300D01*
X0272000Y0272300D01*
X0272000Y0267000D01*
X0271600Y0267000D01*
X0271600Y0272300D01*
X0271367Y0272300D01*
X0270512Y0272165D01*
X0269689Y0271897D01*
X0268917Y0271504D01*
X0268217Y0270995D01*
X0267605Y0270383D01*
X0267096Y0269683D01*
X0266703Y0268911D01*
X0266685Y0268856D01*
X0266293Y0269802D01*
X0264802Y0271293D01*
X0262854Y0272100D01*
X0260746Y0272100D01*
X0258798Y0271293D01*
X0257307Y0269802D01*
X0257100Y0269303D01*
X0257100Y0271163D01*
X0256163Y0272100D01*
X0247437Y0272100D01*
X0246500Y0271163D01*
X0246500Y0262437D01*
X0247437Y0261500D01*
X0246500Y0262766D02*
X0220544Y0262766D01*
X0220383Y0262605D02*
X0220995Y0263217D01*
X0221504Y0263917D01*
X0221897Y0264689D01*
X0222165Y0265512D01*
X0222300Y0266367D01*
X0222300Y0266600D01*
X0217000Y0266600D01*
X0217000Y0267000D01*
X0222300Y0267000D01*
X0222300Y0267233D01*
X0222165Y0268088D01*
X0221897Y0268911D01*
X0221504Y0269683D01*
X0220995Y0270383D01*
X0220383Y0270995D01*
X0219683Y0271504D01*
X0218911Y0271897D01*
X0218088Y0272165D01*
X0217233Y0272300D01*
X0217000Y0272300D01*
X0217000Y0267000D01*
X0216600Y0267000D01*
X0216600Y0272300D01*
X0216367Y0272300D01*
X0215512Y0272165D01*
X0214689Y0271897D01*
X0213917Y0271504D01*
X0213217Y0270995D01*
X0212605Y0270383D01*
X0212096Y0269683D01*
X0211703Y0268911D01*
X0211685Y0268856D01*
X0211293Y0269802D01*
X0209802Y0271293D01*
X0207854Y0272100D01*
X0205746Y0272100D01*
X0203798Y0271293D01*
X0202307Y0269802D01*
X0202100Y0269303D01*
X0202100Y0271163D01*
X0201163Y0272100D01*
X0192437Y0272100D01*
X0191500Y0271163D01*
X0191500Y0262437D01*
X0192437Y0261500D01*
X0201163Y0261500D01*
X0202100Y0262437D01*
X0202100Y0264297D01*
X0202307Y0263798D01*
X0203798Y0262307D01*
X0205746Y0261500D01*
X0207854Y0261500D01*
X0209802Y0262307D01*
X0211293Y0263798D01*
X0211685Y0264744D01*
X0211703Y0264689D01*
X0212096Y0263917D01*
X0212605Y0263217D01*
X0213217Y0262605D01*
X0213917Y0262096D01*
X0214689Y0261703D01*
X0215512Y0261435D01*
X0216367Y0261300D01*
X0216600Y0261300D01*
X0216600Y0266600D01*
X0217000Y0266600D01*
X0217000Y0261300D01*
X0217233Y0261300D01*
X0218088Y0261435D01*
X0218911Y0261703D01*
X0219683Y0262096D01*
X0220383Y0262605D01*
X0221732Y0264365D02*
X0246500Y0264365D01*
X0246500Y0265963D02*
X0222236Y0265963D01*
X0222248Y0267562D02*
X0246500Y0267562D01*
X0246500Y0269160D02*
X0221770Y0269160D01*
X0220619Y0270759D02*
X0246500Y0270759D01*
X0257100Y0270759D02*
X0258264Y0270759D01*
X0265336Y0270759D02*
X0267981Y0270759D01*
X0266830Y0269160D02*
X0266559Y0269160D01*
X0271600Y0269160D02*
X0272000Y0269160D01*
X0272000Y0267562D02*
X0271600Y0267562D01*
X0272000Y0266600D02*
X0277300Y0266600D01*
X0277300Y0266367D01*
X0277165Y0265512D01*
X0276897Y0264689D01*
X0276504Y0263917D01*
X0275995Y0263217D01*
X0275383Y0262605D01*
X0274683Y0262096D01*
X0273911Y0261703D01*
X0273088Y0261435D01*
X0272233Y0261300D01*
X0272000Y0261300D01*
X0272000Y0266600D01*
X0272000Y0265963D02*
X0271600Y0265963D01*
X0271600Y0264365D02*
X0272000Y0264365D01*
X0272000Y0262766D02*
X0271600Y0262766D01*
X0268056Y0262766D02*
X0265262Y0262766D01*
X0266528Y0264365D02*
X0266868Y0264365D01*
X0271600Y0270759D02*
X0272000Y0270759D01*
X0275619Y0270759D02*
X0297981Y0270759D01*
X0296830Y0269160D02*
X0276770Y0269160D01*
X0277248Y0267562D02*
X0296352Y0267562D01*
X0296300Y0266600D02*
X0296300Y0266367D01*
X0296435Y0265512D01*
X0296703Y0264689D01*
X0297096Y0263917D01*
X0297605Y0263217D01*
X0298217Y0262605D01*
X0298917Y0262096D01*
X0299689Y0261703D01*
X0300512Y0261435D01*
X0301367Y0261300D01*
X0301600Y0261300D01*
X0301600Y0266600D01*
X0296300Y0266600D01*
X0296364Y0265963D02*
X0277236Y0265963D01*
X0276732Y0264365D02*
X0296868Y0264365D01*
X0298056Y0262766D02*
X0275544Y0262766D01*
X0258338Y0262766D02*
X0257100Y0262766D01*
X0217000Y0262766D02*
X0216600Y0262766D01*
X0216600Y0264365D02*
X0217000Y0264365D01*
X0217000Y0265963D02*
X0216600Y0265963D01*
X0216600Y0267562D02*
X0217000Y0267562D01*
X0217000Y0269160D02*
X0216600Y0269160D01*
X0216600Y0270759D02*
X0217000Y0270759D01*
X0212981Y0270759D02*
X0210336Y0270759D01*
X0211559Y0269160D02*
X0211830Y0269160D01*
X0211868Y0264365D02*
X0211528Y0264365D01*
X0210262Y0262766D02*
X0213056Y0262766D01*
X0203338Y0262766D02*
X0202100Y0262766D01*
X0202100Y0270759D02*
X0203264Y0270759D01*
X0191500Y0270759D02*
X0145336Y0270759D01*
X0146559Y0269160D02*
X0191500Y0269160D01*
X0191500Y0267562D02*
X0147100Y0267562D01*
X0147100Y0265963D02*
X0191500Y0265963D01*
X0191500Y0264365D02*
X0146528Y0264365D01*
X0145262Y0262766D02*
X0191500Y0262766D01*
X0138400Y0261168D02*
X0135400Y0261168D01*
X0135400Y0262766D02*
X0138338Y0262766D01*
X0137072Y0264365D02*
X0136528Y0264365D01*
X0135400Y0259569D02*
X0138400Y0259569D01*
X0138400Y0257971D02*
X0135400Y0257971D01*
X0135400Y0256372D02*
X0138400Y0256372D01*
X0138400Y0254774D02*
X0135400Y0254774D01*
X0135400Y0253175D02*
X0138400Y0253175D01*
X0138400Y0251577D02*
X0135400Y0251577D01*
X0136278Y0249978D02*
X0137322Y0249978D01*
X0137169Y0248380D02*
X0136431Y0248380D01*
X0136431Y0246781D02*
X0137169Y0246781D01*
X0137169Y0245183D02*
X0136431Y0245183D01*
X0136241Y0243584D02*
X0137359Y0243584D01*
X0128338Y0262766D02*
X0127100Y0262766D01*
X0127100Y0270759D02*
X0128264Y0270759D01*
X0135336Y0270759D02*
X0138264Y0270759D01*
X0137041Y0269160D02*
X0136559Y0269160D01*
X0116500Y0269160D02*
X0066559Y0269160D01*
X0067100Y0267562D02*
X0116500Y0267562D01*
X0116500Y0265963D02*
X0067100Y0265963D01*
X0066528Y0264365D02*
X0116500Y0264365D01*
X0116500Y0262766D02*
X0065262Y0262766D01*
X0065336Y0270759D02*
X0116500Y0270759D01*
X0058264Y0270759D02*
X0055336Y0270759D01*
X0056559Y0269160D02*
X0057041Y0269160D01*
X0048264Y0270759D02*
X0047100Y0270759D01*
X0047100Y0262766D02*
X0048338Y0262766D01*
X0016600Y0273956D02*
X0350701Y0273956D01*
X0350701Y0275554D02*
X0016600Y0275554D01*
X0016600Y0277153D02*
X0350701Y0277153D01*
X0350701Y0278751D02*
X0016600Y0278751D01*
X0016600Y0280350D02*
X0350701Y0280350D01*
X0350701Y0281948D02*
X0016600Y0281948D01*
X0016600Y0283547D02*
X0350701Y0283547D01*
X0350701Y0285145D02*
X0016600Y0285145D01*
X0016600Y0286744D02*
X0350701Y0286744D01*
X0350701Y0288342D02*
X0016600Y0288342D01*
X0016600Y0289941D02*
X0350701Y0289941D01*
X0350701Y0291539D02*
X0016600Y0291539D01*
X0301600Y0270759D02*
X0302000Y0270759D01*
X0302000Y0269160D02*
X0301600Y0269160D01*
X0301600Y0267562D02*
X0302000Y0267562D01*
X0302000Y0265963D02*
X0301600Y0265963D01*
X0301600Y0264365D02*
X0302000Y0264365D01*
X0302000Y0262766D02*
X0301600Y0262766D01*
X0305544Y0262766D02*
X0308338Y0262766D01*
X0307072Y0264365D02*
X0306732Y0264365D01*
X0306770Y0269160D02*
X0307041Y0269160D01*
X0308264Y0270759D02*
X0305619Y0270759D01*
X0315336Y0270759D02*
X0318264Y0270759D01*
X0317041Y0269160D02*
X0316559Y0269160D01*
X0316528Y0264365D02*
X0317072Y0264365D01*
X0318338Y0262766D02*
X0315262Y0262766D01*
X0325262Y0262766D02*
X0326500Y0262766D01*
X0326500Y0270759D02*
X0325336Y0270759D01*
X0119463Y0046967D02*
X0118982Y0046967D01*
X0121006Y0045369D02*
X0121061Y0045369D01*
X0121943Y0043770D02*
X0122660Y0043770D01*
X0122300Y0042172D02*
X0124258Y0042172D01*
X0125857Y0040573D02*
X0122174Y0040573D01*
X0121533Y0038975D02*
X0127455Y0038975D01*
X0129054Y0037376D02*
X0120068Y0037376D01*
X0120318Y0035778D02*
X0130652Y0035778D01*
D21*
X0160300Y0113500D03*
M02*
