G75*
%MOIN*%
%OFA0B0*%
%FSLAX25Y25*%
%IPPOS*%
%LPD*%
%AMOC8*
5,1,8,0,0,1.08239X$1,22.5*
%
%ADD10C,0.00300*%
%ADD11C,0.00600*%
%ADD12C,0.00400*%
%ADD13C,0.01000*%
%ADD14C,0.00500*%
%ADD15C,0.00200*%
%ADD16R,0.01181X0.08268*%
%ADD17R,0.01673X0.01280*%
%ADD18R,0.01378X0.01378*%
%ADD19R,0.01280X0.01673*%
%ADD20C,0.00800*%
%ADD21C,0.00000*%
D10*
X0330000Y0290000D02*
X0330000Y0490000D01*
X0630000Y0490000D01*
X0630000Y0290000D01*
X0330000Y0290000D01*
X0350242Y0328775D02*
X0351477Y0328775D01*
X0352094Y0329392D01*
X0352094Y0330627D01*
X0350860Y0330627D01*
X0352094Y0331861D02*
X0351477Y0332478D01*
X0350242Y0332478D01*
X0349625Y0331861D01*
X0349625Y0329392D01*
X0350242Y0328775D01*
X0353308Y0328775D02*
X0353308Y0332478D01*
X0355777Y0328775D01*
X0355777Y0332478D01*
X0356992Y0332478D02*
X0358843Y0332478D01*
X0359460Y0331861D01*
X0359460Y0329392D01*
X0358843Y0328775D01*
X0356992Y0328775D01*
X0356992Y0332478D01*
X0363147Y0332686D02*
X0365616Y0332686D01*
X0366850Y0331451D01*
X0365616Y0330217D01*
X0363147Y0330217D01*
X0363147Y0329002D02*
X0363147Y0326534D01*
X0364998Y0326534D01*
X0364381Y0327768D01*
X0364381Y0328385D01*
X0364998Y0329002D01*
X0366233Y0329002D01*
X0366850Y0328385D01*
X0366850Y0327151D01*
X0366233Y0326534D01*
X0369625Y0328775D02*
X0369625Y0332478D01*
X0371477Y0332478D01*
X0372094Y0331861D01*
X0372094Y0330627D01*
X0371477Y0330009D01*
X0369625Y0330009D01*
X0373308Y0328775D02*
X0374543Y0330009D01*
X0375777Y0328775D01*
X0375777Y0332478D01*
X0376992Y0332478D02*
X0378226Y0331244D01*
X0379460Y0332478D01*
X0379460Y0328775D01*
X0376992Y0328775D02*
X0376992Y0332478D01*
X0373308Y0332478D02*
X0373308Y0328775D01*
X0348325Y0340634D02*
X0347841Y0340150D01*
X0348325Y0340634D02*
X0348325Y0341601D01*
X0347841Y0342085D01*
X0347358Y0342085D01*
X0346874Y0341601D01*
X0346874Y0340634D01*
X0346390Y0340150D01*
X0345906Y0340150D01*
X0345423Y0340634D01*
X0345423Y0341601D01*
X0345906Y0342085D01*
X0345423Y0343097D02*
X0348325Y0343097D01*
X0347358Y0343097D02*
X0347358Y0344548D01*
X0346874Y0345031D01*
X0345906Y0345031D01*
X0345423Y0344548D01*
X0345423Y0343097D01*
X0347358Y0344064D02*
X0348325Y0345031D01*
X0347358Y0346043D02*
X0348325Y0347011D01*
X0347358Y0347978D01*
X0345423Y0347978D01*
X0345423Y0346043D02*
X0347358Y0346043D01*
X0348809Y0348990D02*
X0348809Y0350925D01*
X0348325Y0351936D02*
X0348325Y0353871D01*
X0348325Y0352904D02*
X0345423Y0352904D01*
X0346390Y0351936D01*
X0346390Y0354883D02*
X0345423Y0355850D01*
X0348325Y0355850D01*
X0348325Y0354883D02*
X0348325Y0356818D01*
X0395773Y0390150D02*
X0396740Y0391117D01*
X0395773Y0392085D01*
X0398675Y0392085D01*
X0398191Y0393097D02*
X0398675Y0393580D01*
X0398675Y0394548D01*
X0398191Y0395031D01*
X0395773Y0395031D01*
X0395773Y0396043D02*
X0398675Y0396043D01*
X0398675Y0397978D01*
X0400573Y0398007D02*
X0402508Y0398007D01*
X0403475Y0398975D01*
X0402508Y0399942D01*
X0400573Y0399942D01*
X0400573Y0400954D02*
X0403475Y0400954D01*
X0403475Y0402889D01*
X0403475Y0403900D02*
X0400573Y0403900D01*
X0400573Y0405352D01*
X0401056Y0405835D01*
X0402024Y0405835D01*
X0402508Y0405352D01*
X0402508Y0403900D01*
X0402508Y0404868D02*
X0403475Y0405835D01*
X0405373Y0405366D02*
X0405373Y0406334D01*
X0405856Y0406818D01*
X0407791Y0404883D01*
X0408275Y0405366D01*
X0408275Y0406334D01*
X0407791Y0406818D01*
X0405856Y0406818D01*
X0406340Y0407829D02*
X0405373Y0408797D01*
X0408275Y0408797D01*
X0408275Y0409764D02*
X0408275Y0407829D01*
X0410173Y0407829D02*
X0412591Y0407829D01*
X0413075Y0408313D01*
X0413075Y0409280D01*
X0412591Y0409764D01*
X0410173Y0409764D01*
X0410173Y0410776D02*
X0410173Y0412227D01*
X0410656Y0412711D01*
X0411624Y0412711D01*
X0412108Y0412227D01*
X0412108Y0410776D01*
X0413075Y0410776D02*
X0410173Y0410776D01*
X0408275Y0410776D02*
X0407791Y0410776D01*
X0405856Y0412711D01*
X0405373Y0412711D01*
X0405373Y0410776D01*
X0403475Y0411245D02*
X0403475Y0409793D01*
X0400573Y0409793D01*
X0400573Y0411245D01*
X0401056Y0411728D01*
X0401540Y0411728D01*
X0402024Y0411245D01*
X0402024Y0409793D01*
X0402024Y0411245D02*
X0402508Y0411728D01*
X0402991Y0411728D01*
X0403475Y0411245D01*
X0402991Y0412740D02*
X0403475Y0413224D01*
X0403475Y0414191D01*
X0402991Y0414675D01*
X0401056Y0414675D01*
X0400573Y0414191D01*
X0400573Y0413224D01*
X0401056Y0412740D01*
X0402991Y0412740D01*
X0403475Y0415686D02*
X0401540Y0415686D01*
X0400573Y0416654D01*
X0401540Y0417621D01*
X0403475Y0417621D01*
X0403475Y0418633D02*
X0400573Y0418633D01*
X0400573Y0420084D01*
X0401056Y0420568D01*
X0402024Y0420568D01*
X0402508Y0420084D01*
X0402508Y0418633D01*
X0402508Y0419600D02*
X0403475Y0420568D01*
X0403475Y0421580D02*
X0403475Y0423031D01*
X0402991Y0423515D01*
X0401056Y0423515D01*
X0400573Y0423031D01*
X0400573Y0421580D01*
X0403475Y0421580D01*
X0402024Y0417621D02*
X0402024Y0415686D01*
X0398675Y0415686D02*
X0395773Y0415686D01*
X0395773Y0417138D01*
X0396256Y0417621D01*
X0397224Y0417621D01*
X0397708Y0417138D01*
X0397708Y0415686D01*
X0397224Y0414675D02*
X0397708Y0414191D01*
X0397708Y0412740D01*
X0398675Y0412740D02*
X0395773Y0412740D01*
X0395773Y0414191D01*
X0396256Y0414675D01*
X0397224Y0414675D01*
X0397708Y0413707D02*
X0398675Y0414675D01*
X0398191Y0411728D02*
X0395773Y0411728D01*
X0395773Y0409793D02*
X0398191Y0409793D01*
X0398675Y0410277D01*
X0398675Y0411245D01*
X0398191Y0411728D01*
X0397224Y0408782D02*
X0397708Y0408298D01*
X0397708Y0406847D01*
X0398675Y0406847D02*
X0395773Y0406847D01*
X0395773Y0408298D01*
X0396256Y0408782D01*
X0397224Y0408782D01*
X0397224Y0405835D02*
X0397224Y0403900D01*
X0398675Y0402904D02*
X0398675Y0401936D01*
X0398675Y0402420D02*
X0395773Y0402420D01*
X0395773Y0401936D02*
X0395773Y0402904D01*
X0395773Y0400925D02*
X0395773Y0398990D01*
X0395773Y0399957D02*
X0398675Y0399957D01*
X0400573Y0400954D02*
X0400573Y0402889D01*
X0402024Y0401921D02*
X0402024Y0400954D01*
X0405373Y0402420D02*
X0405856Y0401936D01*
X0405373Y0402420D02*
X0405373Y0403387D01*
X0405856Y0403871D01*
X0406340Y0403871D01*
X0408275Y0401936D01*
X0408275Y0403871D01*
X0407791Y0404883D02*
X0405856Y0404883D01*
X0405373Y0405366D01*
X0410173Y0405366D02*
X0410656Y0404883D01*
X0412591Y0404883D01*
X0413075Y0405366D01*
X0413075Y0406334D01*
X0412591Y0406818D01*
X0410656Y0406818D01*
X0410173Y0406334D01*
X0410173Y0405366D01*
X0410173Y0403871D02*
X0410173Y0401936D01*
X0410173Y0402904D02*
X0413075Y0402904D01*
X0413075Y0400925D02*
X0413075Y0398990D01*
X0410173Y0398990D01*
X0410173Y0400925D01*
X0411624Y0399957D02*
X0411624Y0398990D01*
X0413075Y0397978D02*
X0413075Y0396043D01*
X0410173Y0396043D01*
X0408275Y0397011D02*
X0407308Y0397978D01*
X0405373Y0397978D01*
X0405373Y0396043D02*
X0407308Y0396043D01*
X0408275Y0397011D01*
X0407791Y0395031D02*
X0405856Y0395031D01*
X0405373Y0394548D01*
X0405373Y0393580D01*
X0405856Y0393097D01*
X0407791Y0393097D01*
X0408275Y0393580D01*
X0408275Y0394548D01*
X0407791Y0395031D01*
X0408275Y0392085D02*
X0405373Y0392085D01*
X0405373Y0390150D02*
X0408275Y0392085D01*
X0408275Y0390150D02*
X0405373Y0390150D01*
X0403475Y0390150D02*
X0403475Y0391601D01*
X0402991Y0392085D01*
X0401056Y0392085D01*
X0400573Y0391601D01*
X0400573Y0390150D01*
X0403475Y0390150D01*
X0403475Y0393097D02*
X0400573Y0393097D01*
X0400573Y0394548D01*
X0401056Y0395031D01*
X0402024Y0395031D01*
X0402508Y0394548D01*
X0402508Y0393097D01*
X0402508Y0394064D02*
X0403475Y0395031D01*
X0403475Y0396043D02*
X0403475Y0397011D01*
X0403475Y0396527D02*
X0400573Y0396527D01*
X0400573Y0396043D02*
X0400573Y0397011D01*
X0398191Y0393097D02*
X0395773Y0393097D01*
X0395773Y0390150D02*
X0398675Y0390150D01*
X0410173Y0391117D02*
X0411140Y0392085D01*
X0413075Y0392085D01*
X0411624Y0392085D02*
X0411624Y0390150D01*
X0411140Y0390150D02*
X0410173Y0391117D01*
X0411140Y0390150D02*
X0413075Y0390150D01*
X0412108Y0411743D02*
X0413075Y0412711D01*
X0413075Y0413722D02*
X0410173Y0413722D01*
X0413075Y0415657D01*
X0410173Y0415657D01*
X0410173Y0416669D02*
X0413075Y0416669D01*
X0413075Y0418604D01*
X0413075Y0419615D02*
X0411140Y0419615D01*
X0410173Y0420583D01*
X0411140Y0421550D01*
X0413075Y0421550D01*
X0412591Y0422562D02*
X0413075Y0423045D01*
X0413075Y0424013D01*
X0412591Y0424497D01*
X0410173Y0424497D01*
X0410173Y0422562D02*
X0412591Y0422562D01*
X0411624Y0421550D02*
X0411624Y0419615D01*
X0410173Y0418604D02*
X0410173Y0416669D01*
X0411624Y0416669D02*
X0411624Y0417636D01*
X0398675Y0419117D02*
X0398675Y0420084D01*
X0398191Y0420568D01*
X0396256Y0420568D01*
X0395773Y0420084D01*
X0395773Y0419117D01*
X0396256Y0418633D01*
X0398191Y0418633D01*
X0398675Y0419117D01*
X0398191Y0421580D02*
X0398675Y0422063D01*
X0398675Y0423031D01*
X0398191Y0423515D01*
X0397708Y0423515D01*
X0397224Y0423031D01*
X0397224Y0422063D01*
X0396740Y0421580D01*
X0396256Y0421580D01*
X0395773Y0422063D01*
X0395773Y0423031D01*
X0396256Y0423515D01*
X0395773Y0424526D02*
X0398675Y0424526D01*
X0398675Y0426461D01*
X0397224Y0425494D02*
X0397224Y0424526D01*
X0395773Y0424526D02*
X0395773Y0426461D01*
X0436400Y0451534D02*
X0436884Y0451050D01*
X0437851Y0451050D01*
X0438335Y0451534D01*
X0439347Y0451050D02*
X0439347Y0453952D01*
X0438335Y0453469D02*
X0437851Y0453952D01*
X0436884Y0453952D01*
X0436400Y0453469D01*
X0436400Y0451534D01*
X0439347Y0452501D02*
X0441281Y0452501D01*
X0442293Y0451534D02*
X0444228Y0453469D01*
X0444228Y0451534D01*
X0443744Y0451050D01*
X0442777Y0451050D01*
X0442293Y0451534D01*
X0442293Y0453469D01*
X0442777Y0453952D01*
X0443744Y0453952D01*
X0444228Y0453469D01*
X0441281Y0453952D02*
X0441281Y0451050D01*
X0442114Y0461050D02*
X0443082Y0461050D01*
X0442598Y0461050D02*
X0442598Y0463952D01*
X0442114Y0463952D02*
X0443082Y0463952D01*
X0444078Y0463469D02*
X0444078Y0461534D01*
X0444562Y0461050D01*
X0445530Y0461050D01*
X0446013Y0461534D01*
X0446013Y0462501D01*
X0445046Y0462501D01*
X0446013Y0463469D02*
X0445530Y0463952D01*
X0444562Y0463952D01*
X0444078Y0463469D01*
X0441103Y0463952D02*
X0439168Y0463952D01*
X0439168Y0461050D01*
X0438156Y0461050D02*
X0438156Y0463952D01*
X0439168Y0462501D02*
X0440135Y0462501D01*
X0438156Y0461050D02*
X0436221Y0463952D01*
X0436221Y0461050D01*
X0435210Y0461534D02*
X0435210Y0463469D01*
X0434726Y0463952D01*
X0433758Y0463952D01*
X0433275Y0463469D01*
X0433275Y0461534D01*
X0433758Y0461050D01*
X0434726Y0461050D01*
X0435210Y0461534D01*
X0432263Y0461534D02*
X0431779Y0461050D01*
X0430812Y0461050D01*
X0430328Y0461534D01*
X0430328Y0463469D01*
X0430812Y0463952D01*
X0431779Y0463952D01*
X0432263Y0463469D01*
X0426370Y0463469D02*
X0425886Y0463952D01*
X0424919Y0463952D01*
X0424435Y0463469D01*
X0424435Y0461534D01*
X0424919Y0461050D01*
X0425886Y0461050D01*
X0426370Y0461534D01*
X0423423Y0461050D02*
X0421489Y0461050D01*
X0423423Y0462985D01*
X0423423Y0463469D01*
X0422940Y0463952D01*
X0421972Y0463952D01*
X0421489Y0463469D01*
X0420492Y0463952D02*
X0419524Y0463952D01*
X0420008Y0463952D02*
X0420008Y0461050D01*
X0419524Y0461050D02*
X0420492Y0461050D01*
X0481400Y0471050D02*
X0481400Y0472985D01*
X0482367Y0473952D01*
X0483335Y0472985D01*
X0483335Y0471050D01*
X0484347Y0471534D02*
X0486281Y0473469D01*
X0486281Y0471534D01*
X0485798Y0471050D01*
X0484830Y0471050D01*
X0484347Y0471534D01*
X0484347Y0473469D01*
X0484830Y0473952D01*
X0485798Y0473952D01*
X0486281Y0473469D01*
X0483335Y0472501D02*
X0481400Y0472501D01*
X0490060Y0471552D02*
X0491512Y0471552D01*
X0491995Y0471069D01*
X0491995Y0470101D01*
X0491512Y0469617D01*
X0490060Y0469617D01*
X0490060Y0468650D02*
X0490060Y0471552D01*
X0491043Y0473450D02*
X0492010Y0473450D01*
X0491526Y0473450D02*
X0491526Y0476352D01*
X0491043Y0476352D02*
X0492010Y0476352D01*
X0493007Y0475869D02*
X0493491Y0476352D01*
X0494458Y0476352D01*
X0494942Y0475869D01*
X0494942Y0475385D01*
X0493007Y0473450D01*
X0494942Y0473450D01*
X0495953Y0473934D02*
X0496437Y0473450D01*
X0497405Y0473450D01*
X0497888Y0473934D01*
X0495953Y0473934D02*
X0495953Y0475869D01*
X0496437Y0476352D01*
X0497405Y0476352D01*
X0497888Y0475869D01*
X0497405Y0471552D02*
X0497888Y0471069D01*
X0497888Y0470101D01*
X0497405Y0469617D01*
X0495953Y0469617D01*
X0495953Y0468650D02*
X0495953Y0471552D01*
X0497405Y0471552D01*
X0496921Y0469617D02*
X0497888Y0468650D01*
X0494942Y0468650D02*
X0494942Y0471552D01*
X0493007Y0471552D02*
X0493007Y0468650D01*
X0493974Y0469617D01*
X0494942Y0468650D01*
X0500730Y0464719D02*
X0501214Y0465202D01*
X0502181Y0465202D01*
X0502665Y0464719D01*
X0502665Y0464235D01*
X0502181Y0463751D01*
X0502665Y0463267D01*
X0502665Y0462784D01*
X0502181Y0462300D01*
X0501214Y0462300D01*
X0500730Y0462784D01*
X0501698Y0463751D02*
X0502181Y0463751D01*
X0503677Y0463267D02*
X0503677Y0465202D01*
X0503677Y0463267D02*
X0504644Y0462300D01*
X0505612Y0463267D01*
X0505612Y0465202D01*
X0506623Y0464719D02*
X0507107Y0465202D01*
X0508074Y0465202D01*
X0508558Y0464719D01*
X0508558Y0464235D01*
X0508074Y0463751D01*
X0508558Y0463267D01*
X0508558Y0462784D01*
X0508074Y0462300D01*
X0507107Y0462300D01*
X0506623Y0462784D01*
X0507591Y0463751D02*
X0508074Y0463751D01*
X0510730Y0464235D02*
X0511214Y0463751D01*
X0512181Y0463751D01*
X0512665Y0463267D01*
X0512665Y0462784D01*
X0512181Y0462300D01*
X0511214Y0462300D01*
X0510730Y0462784D01*
X0510730Y0464235D02*
X0510730Y0464719D01*
X0511214Y0465202D01*
X0512181Y0465202D01*
X0512665Y0464719D01*
X0513677Y0465202D02*
X0513677Y0462300D01*
X0515128Y0462300D01*
X0515612Y0462784D01*
X0515612Y0464719D01*
X0515128Y0465202D01*
X0513677Y0465202D01*
X0516623Y0464235D02*
X0517591Y0465202D01*
X0518558Y0464235D01*
X0518558Y0462300D01*
X0518558Y0463751D02*
X0516623Y0463751D01*
X0516623Y0464235D02*
X0516623Y0462300D01*
X0520730Y0462784D02*
X0521214Y0462300D01*
X0522181Y0462300D01*
X0522665Y0462784D01*
X0522665Y0463267D01*
X0522181Y0463751D01*
X0521214Y0463751D01*
X0520730Y0464235D01*
X0520730Y0464719D01*
X0521214Y0465202D01*
X0522181Y0465202D01*
X0522665Y0464719D01*
X0523677Y0464719D02*
X0523677Y0462784D01*
X0524160Y0462300D01*
X0525128Y0462300D01*
X0525612Y0462784D01*
X0526623Y0462300D02*
X0528558Y0462300D01*
X0526623Y0462300D02*
X0526623Y0465202D01*
X0525612Y0464719D02*
X0525128Y0465202D01*
X0524160Y0465202D01*
X0523677Y0464719D01*
X0555730Y0464719D02*
X0556214Y0465202D01*
X0557181Y0465202D01*
X0557665Y0464719D01*
X0557665Y0464235D01*
X0557181Y0463751D01*
X0557665Y0463267D01*
X0557665Y0462784D01*
X0557181Y0462300D01*
X0556214Y0462300D01*
X0555730Y0462784D01*
X0556698Y0463751D02*
X0557181Y0463751D01*
X0558677Y0463267D02*
X0559644Y0462300D01*
X0560612Y0463267D01*
X0560612Y0465202D01*
X0561623Y0464719D02*
X0562107Y0465202D01*
X0563074Y0465202D01*
X0563558Y0464719D01*
X0563558Y0464235D01*
X0563074Y0463751D01*
X0563558Y0463267D01*
X0563558Y0462784D01*
X0563074Y0462300D01*
X0562107Y0462300D01*
X0561623Y0462784D01*
X0562591Y0463751D02*
X0563074Y0463751D01*
X0565730Y0464235D02*
X0566214Y0463751D01*
X0567181Y0463751D01*
X0567665Y0463267D01*
X0567665Y0462784D01*
X0567181Y0462300D01*
X0566214Y0462300D01*
X0565730Y0462784D01*
X0565730Y0464235D02*
X0565730Y0464719D01*
X0566214Y0465202D01*
X0567181Y0465202D01*
X0567665Y0464719D01*
X0568677Y0464719D02*
X0568677Y0462784D01*
X0569160Y0462300D01*
X0570128Y0462300D01*
X0570612Y0462784D01*
X0571623Y0462300D02*
X0573558Y0462300D01*
X0571623Y0462300D02*
X0571623Y0465202D01*
X0570612Y0464719D02*
X0570128Y0465202D01*
X0569160Y0465202D01*
X0568677Y0464719D01*
X0575730Y0464719D02*
X0575730Y0464235D01*
X0576214Y0463751D01*
X0577181Y0463751D01*
X0577665Y0463267D01*
X0577665Y0462784D01*
X0577181Y0462300D01*
X0576214Y0462300D01*
X0575730Y0462784D01*
X0575730Y0464719D02*
X0576214Y0465202D01*
X0577181Y0465202D01*
X0577665Y0464719D01*
X0578677Y0465202D02*
X0580128Y0465202D01*
X0580612Y0464719D01*
X0580612Y0462784D01*
X0580128Y0462300D01*
X0578677Y0462300D01*
X0578677Y0465202D01*
X0581623Y0464235D02*
X0582591Y0465202D01*
X0583558Y0464235D01*
X0583558Y0462300D01*
X0583558Y0463751D02*
X0581623Y0463751D01*
X0581623Y0464235D02*
X0581623Y0462300D01*
X0585730Y0462784D02*
X0585730Y0464719D01*
X0586214Y0465202D01*
X0587181Y0465202D01*
X0587665Y0464719D01*
X0587665Y0463751D02*
X0586698Y0463751D01*
X0587665Y0463751D02*
X0587665Y0462784D01*
X0587181Y0462300D01*
X0586214Y0462300D01*
X0585730Y0462784D01*
X0588677Y0462300D02*
X0588677Y0465202D01*
X0590612Y0462300D01*
X0590612Y0465202D01*
X0591623Y0465202D02*
X0593074Y0465202D01*
X0593558Y0464719D01*
X0593558Y0462784D01*
X0593074Y0462300D01*
X0591623Y0462300D01*
X0591623Y0465202D01*
X0558677Y0465202D02*
X0558677Y0463267D01*
X0493558Y0481534D02*
X0493074Y0481050D01*
X0492107Y0481050D01*
X0491623Y0481534D01*
X0490612Y0482017D02*
X0490612Y0483952D01*
X0491623Y0483469D02*
X0492107Y0483952D01*
X0493074Y0483952D01*
X0493558Y0483469D01*
X0493558Y0482985D01*
X0493074Y0482501D01*
X0493558Y0482017D01*
X0493558Y0481534D01*
X0493074Y0482501D02*
X0492591Y0482501D01*
X0490612Y0482017D02*
X0489644Y0481050D01*
X0488677Y0482017D01*
X0488677Y0483952D01*
X0487665Y0483469D02*
X0487665Y0482985D01*
X0487181Y0482501D01*
X0487665Y0482017D01*
X0487665Y0481534D01*
X0487181Y0481050D01*
X0486214Y0481050D01*
X0485730Y0481534D01*
X0486698Y0482501D02*
X0487181Y0482501D01*
X0487665Y0483469D02*
X0487181Y0483952D01*
X0486214Y0483952D01*
X0485730Y0483469D01*
X0447175Y0398952D02*
X0445240Y0398952D01*
X0445240Y0397501D01*
X0446207Y0397985D01*
X0446691Y0397985D01*
X0447175Y0397501D01*
X0447175Y0396534D01*
X0446691Y0396050D01*
X0445723Y0396050D01*
X0445240Y0396534D01*
X0444228Y0396050D02*
X0442293Y0396050D01*
X0443261Y0396050D02*
X0443261Y0398952D01*
X0442293Y0397985D01*
X0441281Y0397501D02*
X0439347Y0397501D01*
X0438335Y0396534D02*
X0437851Y0396050D01*
X0436884Y0396050D01*
X0436400Y0396534D01*
X0436400Y0398469D01*
X0436884Y0398952D01*
X0437851Y0398952D01*
X0438335Y0398469D01*
X0439347Y0398952D02*
X0439347Y0396050D01*
X0441281Y0396050D02*
X0441281Y0398952D01*
X0348325Y0435901D02*
X0347841Y0435417D01*
X0348325Y0435901D02*
X0348325Y0436869D01*
X0347841Y0437352D01*
X0347358Y0437352D01*
X0346874Y0436869D01*
X0346874Y0435901D01*
X0346390Y0435417D01*
X0345906Y0435417D01*
X0345423Y0435901D01*
X0345423Y0436869D01*
X0345906Y0437352D01*
X0345423Y0438364D02*
X0348325Y0438364D01*
X0347358Y0438364D02*
X0347358Y0439815D01*
X0346874Y0440299D01*
X0345906Y0440299D01*
X0345423Y0439815D01*
X0345423Y0438364D01*
X0347358Y0439331D02*
X0348325Y0440299D01*
X0347358Y0441310D02*
X0348325Y0442278D01*
X0347358Y0443245D01*
X0345423Y0443245D01*
X0345423Y0441310D02*
X0347358Y0441310D01*
X0348809Y0444257D02*
X0348809Y0446192D01*
X0347841Y0447203D02*
X0345906Y0449138D01*
X0347841Y0449138D01*
X0348325Y0448655D01*
X0348325Y0447687D01*
X0347841Y0447203D01*
X0345906Y0447203D01*
X0345423Y0447687D01*
X0345423Y0448655D01*
X0345906Y0449138D01*
X0388677Y0298327D02*
X0388677Y0295425D01*
X0389644Y0296392D01*
X0390612Y0295425D01*
X0390612Y0298327D01*
X0398677Y0298327D02*
X0400128Y0298327D01*
X0400612Y0297844D01*
X0400612Y0296876D01*
X0400128Y0296392D01*
X0398677Y0296392D01*
X0398677Y0295425D02*
X0398677Y0298327D01*
X0399644Y0296392D02*
X0400612Y0295425D01*
X0408677Y0295909D02*
X0409160Y0295425D01*
X0410128Y0295425D01*
X0410612Y0295909D01*
X0410612Y0296876D01*
X0409644Y0296876D01*
X0408677Y0295909D02*
X0408677Y0297844D01*
X0409160Y0298327D01*
X0410128Y0298327D01*
X0410612Y0297844D01*
X0418677Y0298327D02*
X0420128Y0298327D01*
X0420612Y0297844D01*
X0420612Y0297360D01*
X0420128Y0296876D01*
X0418677Y0296876D01*
X0420128Y0296876D02*
X0420612Y0296392D01*
X0420612Y0295909D01*
X0420128Y0295425D01*
X0418677Y0295425D01*
X0418677Y0298327D01*
X0425730Y0297360D02*
X0426698Y0298327D01*
X0426698Y0295425D01*
X0427665Y0295425D02*
X0425730Y0295425D01*
X0428677Y0295425D02*
X0430612Y0297360D01*
X0430612Y0297844D01*
X0430128Y0298327D01*
X0429160Y0298327D01*
X0428677Y0297844D01*
X0428677Y0295425D02*
X0430612Y0295425D01*
X0431623Y0296392D02*
X0432591Y0295425D01*
X0433558Y0296392D01*
X0433558Y0298327D01*
X0431623Y0298327D02*
X0431623Y0296392D01*
X0486802Y0295909D02*
X0487285Y0295425D01*
X0488253Y0295425D01*
X0488737Y0295909D01*
X0488737Y0296392D01*
X0488253Y0296876D01*
X0487285Y0296876D01*
X0486802Y0297360D01*
X0486802Y0297844D01*
X0487285Y0298327D01*
X0488253Y0298327D01*
X0488737Y0297844D01*
X0489748Y0298327D02*
X0489748Y0295425D01*
X0490716Y0296392D01*
X0491683Y0295425D01*
X0491683Y0298327D01*
X0492695Y0298327D02*
X0493662Y0298327D01*
X0493178Y0298327D02*
X0493178Y0295425D01*
X0492695Y0295425D02*
X0493662Y0295425D01*
X0495626Y0295425D02*
X0495626Y0298327D01*
X0494659Y0298327D02*
X0496594Y0298327D01*
X0497605Y0297844D02*
X0497605Y0295909D01*
X0498089Y0295425D01*
X0499057Y0295425D01*
X0499540Y0295909D01*
X0500552Y0295425D02*
X0500552Y0298327D01*
X0499540Y0297844D02*
X0499057Y0298327D01*
X0498089Y0298327D01*
X0497605Y0297844D01*
X0500552Y0296876D02*
X0502487Y0296876D01*
X0502487Y0298327D02*
X0502487Y0295425D01*
X0510730Y0295425D02*
X0512665Y0295425D01*
X0511698Y0295425D02*
X0511698Y0298327D01*
X0510730Y0297360D01*
X0513677Y0297844D02*
X0514160Y0298327D01*
X0515128Y0298327D01*
X0515612Y0297844D01*
X0515612Y0297360D01*
X0513677Y0295425D01*
X0515612Y0295425D01*
X0516623Y0296392D02*
X0517591Y0295425D01*
X0518558Y0296392D01*
X0518558Y0298327D01*
X0516623Y0298327D02*
X0516623Y0296392D01*
X0541802Y0295909D02*
X0542285Y0295425D01*
X0543253Y0295425D01*
X0543737Y0295909D01*
X0543737Y0296392D01*
X0543253Y0296876D01*
X0542285Y0296876D01*
X0541802Y0297360D01*
X0541802Y0297844D01*
X0542285Y0298327D01*
X0543253Y0298327D01*
X0543737Y0297844D01*
X0544748Y0298327D02*
X0544748Y0295425D01*
X0545716Y0296392D01*
X0546683Y0295425D01*
X0546683Y0298327D01*
X0547695Y0298327D02*
X0548662Y0298327D01*
X0548178Y0298327D02*
X0548178Y0295425D01*
X0547695Y0295425D02*
X0548662Y0295425D01*
X0550626Y0295425D02*
X0550626Y0298327D01*
X0549659Y0298327D02*
X0551594Y0298327D01*
X0552605Y0297844D02*
X0552605Y0295909D01*
X0553089Y0295425D01*
X0554057Y0295425D01*
X0554540Y0295909D01*
X0555552Y0295425D02*
X0555552Y0298327D01*
X0554540Y0297844D02*
X0554057Y0298327D01*
X0553089Y0298327D01*
X0552605Y0297844D01*
X0555552Y0296876D02*
X0557487Y0296876D01*
X0557487Y0298327D02*
X0557487Y0295425D01*
X0565730Y0295425D02*
X0567665Y0295425D01*
X0566698Y0295425D02*
X0566698Y0298327D01*
X0565730Y0297360D01*
X0568677Y0297844D02*
X0569160Y0298327D01*
X0570128Y0298327D01*
X0570612Y0297844D01*
X0570612Y0297360D01*
X0568677Y0295425D01*
X0570612Y0295425D01*
X0571623Y0296392D02*
X0572591Y0295425D01*
X0573558Y0296392D01*
X0573558Y0298327D01*
X0571623Y0298327D02*
X0571623Y0296392D01*
X0585150Y0316725D02*
X0586117Y0316725D01*
X0585634Y0316725D02*
X0585634Y0319627D01*
X0586117Y0319627D02*
X0585150Y0319627D01*
X0585150Y0321525D02*
X0586117Y0322492D01*
X0587085Y0321525D01*
X0587085Y0324427D01*
X0588097Y0324427D02*
X0588097Y0321525D01*
X0588097Y0322976D02*
X0590031Y0322976D01*
X0591043Y0322976D02*
X0592011Y0322976D01*
X0592978Y0321525D02*
X0591043Y0321525D01*
X0591043Y0324427D01*
X0592978Y0324427D01*
X0593990Y0324427D02*
X0595925Y0321525D01*
X0595925Y0324427D01*
X0595925Y0326325D02*
X0594957Y0327292D01*
X0595441Y0327292D02*
X0593990Y0327292D01*
X0593990Y0326325D02*
X0593990Y0329227D01*
X0595441Y0329227D01*
X0595925Y0328744D01*
X0595925Y0327776D01*
X0595441Y0327292D01*
X0596936Y0329227D02*
X0598871Y0329227D01*
X0597904Y0329227D02*
X0597904Y0326325D01*
X0599883Y0324427D02*
X0599883Y0322009D01*
X0600366Y0321525D01*
X0601334Y0321525D01*
X0601818Y0322009D01*
X0601818Y0324427D01*
X0602829Y0323944D02*
X0602829Y0323460D01*
X0603313Y0322976D01*
X0604280Y0322976D01*
X0604764Y0322492D01*
X0604764Y0322009D01*
X0604280Y0321525D01*
X0603313Y0321525D01*
X0602829Y0322009D01*
X0602829Y0323944D02*
X0603313Y0324427D01*
X0604280Y0324427D01*
X0604764Y0323944D01*
X0605776Y0324427D02*
X0605776Y0321525D01*
X0607227Y0321525D01*
X0607711Y0322009D01*
X0607711Y0322492D01*
X0607227Y0322976D01*
X0605776Y0322976D01*
X0607227Y0322976D02*
X0607711Y0323460D01*
X0607711Y0323944D01*
X0607227Y0324427D01*
X0605776Y0324427D01*
X0605776Y0326325D02*
X0605776Y0329227D01*
X0607227Y0329227D01*
X0607711Y0328744D01*
X0607711Y0327776D01*
X0607227Y0327292D01*
X0605776Y0327292D01*
X0604280Y0326809D02*
X0604280Y0329227D01*
X0603797Y0329227D02*
X0604764Y0329227D01*
X0604280Y0326809D02*
X0603797Y0326325D01*
X0603313Y0326325D01*
X0602829Y0326809D01*
X0608722Y0326325D02*
X0610657Y0326325D01*
X0609690Y0326325D02*
X0609690Y0329227D01*
X0608722Y0328260D01*
X0611669Y0328260D02*
X0612636Y0329227D01*
X0612636Y0326325D01*
X0611669Y0326325D02*
X0613604Y0326325D01*
X0613604Y0324427D02*
X0613604Y0321525D01*
X0611669Y0324427D01*
X0611669Y0321525D01*
X0614615Y0322009D02*
X0615099Y0321525D01*
X0616066Y0321525D01*
X0616550Y0322009D01*
X0616550Y0323944D01*
X0616066Y0324427D01*
X0615099Y0324427D01*
X0614615Y0323944D01*
X0614615Y0322009D01*
X0617562Y0324427D02*
X0619497Y0324427D01*
X0618529Y0324427D02*
X0618529Y0321525D01*
X0600835Y0319627D02*
X0598900Y0319627D01*
X0598900Y0316725D01*
X0600835Y0316725D01*
X0599868Y0318176D02*
X0598900Y0318176D01*
X0597889Y0317692D02*
X0597889Y0317209D01*
X0597405Y0316725D01*
X0596438Y0316725D01*
X0595954Y0317209D01*
X0594942Y0317209D02*
X0594942Y0319627D01*
X0595954Y0319144D02*
X0595954Y0318660D01*
X0596438Y0318176D01*
X0597405Y0318176D01*
X0597889Y0317692D01*
X0597889Y0319144D02*
X0597405Y0319627D01*
X0596438Y0319627D01*
X0595954Y0319144D01*
X0594942Y0317209D02*
X0594459Y0316725D01*
X0593491Y0316725D01*
X0593007Y0317209D01*
X0593007Y0319627D01*
X0593990Y0321525D02*
X0593990Y0324427D01*
X0592494Y0326325D02*
X0592978Y0326809D01*
X0592978Y0328744D01*
X0592494Y0329227D01*
X0591527Y0329227D01*
X0591043Y0328744D01*
X0591043Y0326809D01*
X0591527Y0326325D01*
X0592494Y0326325D01*
X0590031Y0326325D02*
X0590031Y0329227D01*
X0590031Y0327776D02*
X0588097Y0327776D01*
X0587085Y0327292D02*
X0587085Y0326809D01*
X0586601Y0326325D01*
X0585634Y0326325D01*
X0585150Y0326809D01*
X0585634Y0327776D02*
X0586601Y0327776D01*
X0587085Y0327292D01*
X0588097Y0326325D02*
X0588097Y0329227D01*
X0587085Y0328744D02*
X0586601Y0329227D01*
X0585634Y0329227D01*
X0585150Y0328744D01*
X0585150Y0328260D01*
X0585634Y0327776D01*
X0585150Y0324427D02*
X0585150Y0321525D01*
X0587114Y0319627D02*
X0589049Y0316725D01*
X0589049Y0319627D01*
X0587114Y0319627D02*
X0587114Y0316725D01*
X0590031Y0321525D02*
X0590031Y0324427D01*
X0624798Y0356214D02*
X0624798Y0357181D01*
X0625281Y0357665D01*
X0625765Y0357665D01*
X0626249Y0357181D01*
X0626733Y0357665D01*
X0627216Y0357665D01*
X0627700Y0357181D01*
X0627700Y0356214D01*
X0627216Y0355730D01*
X0626249Y0356698D02*
X0626249Y0357181D01*
X0626733Y0358677D02*
X0627700Y0359644D01*
X0626733Y0360612D01*
X0624798Y0360612D01*
X0625281Y0361623D02*
X0624798Y0362107D01*
X0624798Y0363074D01*
X0625281Y0363558D01*
X0625765Y0363558D01*
X0626249Y0363074D01*
X0626733Y0363558D01*
X0627216Y0363558D01*
X0627700Y0363074D01*
X0627700Y0362107D01*
X0627216Y0361623D01*
X0626249Y0362591D02*
X0626249Y0363074D01*
X0627216Y0365730D02*
X0627700Y0366214D01*
X0627700Y0367181D01*
X0627216Y0367665D01*
X0626733Y0367665D01*
X0626249Y0367181D01*
X0626249Y0366698D01*
X0626249Y0367181D02*
X0625765Y0367665D01*
X0625281Y0367665D01*
X0624798Y0367181D01*
X0624798Y0366214D01*
X0625281Y0365730D01*
X0624798Y0368677D02*
X0626733Y0368677D01*
X0627700Y0369644D01*
X0626733Y0370612D01*
X0624798Y0370612D01*
X0625281Y0371623D02*
X0624798Y0372107D01*
X0624798Y0373074D01*
X0625281Y0373558D01*
X0625765Y0373558D01*
X0626249Y0373074D01*
X0626733Y0373558D01*
X0627216Y0373558D01*
X0627700Y0373074D01*
X0627700Y0372107D01*
X0627216Y0371623D01*
X0626249Y0372591D02*
X0626249Y0373074D01*
X0627216Y0375730D02*
X0627700Y0376214D01*
X0627700Y0377181D01*
X0627216Y0377665D01*
X0626733Y0377665D01*
X0626249Y0377181D01*
X0626249Y0376698D01*
X0626249Y0377181D02*
X0625765Y0377665D01*
X0625281Y0377665D01*
X0624798Y0377181D01*
X0624798Y0376214D01*
X0625281Y0375730D01*
X0624798Y0378677D02*
X0626733Y0378677D01*
X0627700Y0379644D01*
X0626733Y0380612D01*
X0624798Y0380612D01*
X0625281Y0381623D02*
X0624798Y0382107D01*
X0624798Y0383074D01*
X0625281Y0383558D01*
X0625765Y0383558D01*
X0626249Y0383074D01*
X0626733Y0383558D01*
X0627216Y0383558D01*
X0627700Y0383074D01*
X0627700Y0382107D01*
X0627216Y0381623D01*
X0626249Y0382591D02*
X0626249Y0383074D01*
X0626733Y0358677D02*
X0624798Y0358677D01*
X0624798Y0356214D02*
X0625281Y0355730D01*
D11*
X0622500Y0357500D02*
X0622500Y0362500D01*
X0620000Y0365000D01*
X0605000Y0365000D01*
X0602500Y0367500D01*
X0602500Y0372500D01*
X0605000Y0375000D01*
X0602500Y0377500D01*
X0602500Y0382500D01*
X0605000Y0385000D01*
X0620000Y0385000D01*
X0622500Y0382500D01*
X0622500Y0377500D01*
X0620000Y0375000D01*
X0605000Y0375000D01*
X0605000Y0365000D02*
X0602500Y0362500D01*
X0602500Y0357500D01*
X0605000Y0355000D01*
X0620000Y0355000D01*
X0622500Y0357500D01*
X0620000Y0352500D02*
X0615000Y0352500D01*
X0612500Y0350000D01*
X0610000Y0352500D01*
X0605000Y0352500D01*
X0602500Y0350000D01*
X0602500Y0345000D01*
X0605000Y0342500D01*
X0610000Y0342500D01*
X0612500Y0345000D01*
X0612500Y0350000D01*
X0612500Y0345000D02*
X0615000Y0342500D01*
X0620000Y0342500D01*
X0622500Y0345000D01*
X0622500Y0350000D01*
X0620000Y0352500D01*
X0620000Y0365000D02*
X0622500Y0367500D01*
X0622500Y0372500D01*
X0620000Y0375000D01*
X0582000Y0331500D02*
X0538000Y0331500D01*
X0538000Y0301500D01*
X0545000Y0301500D01*
X0545000Y0303000D01*
X0555000Y0303000D01*
X0555000Y0301500D01*
X0565000Y0301500D01*
X0565000Y0303000D01*
X0575000Y0303000D01*
X0575000Y0301500D01*
X0582000Y0301500D01*
X0582000Y0331500D01*
X0575000Y0301500D02*
X0565000Y0301500D01*
X0555000Y0301500D02*
X0545000Y0301500D01*
X0527000Y0301500D02*
X0527000Y0331500D01*
X0483000Y0331500D01*
X0483000Y0301500D01*
X0490000Y0301500D01*
X0490000Y0303000D01*
X0500000Y0303000D01*
X0500000Y0301500D01*
X0510000Y0301500D01*
X0510000Y0303000D01*
X0520000Y0303000D01*
X0520000Y0301500D01*
X0527000Y0301500D01*
X0520000Y0301500D02*
X0510000Y0301500D01*
X0500000Y0301500D02*
X0490000Y0301500D01*
X0436000Y0301500D02*
X0405000Y0301500D01*
X0384000Y0301500D01*
X0384000Y0315000D01*
X0384000Y0328500D01*
X0405000Y0328500D01*
X0436000Y0328500D01*
X0436000Y0315000D01*
X0436000Y0301500D01*
X0432500Y0301500D02*
X0432500Y0303000D01*
X0427500Y0303000D01*
X0427500Y0301500D01*
X0422500Y0301500D02*
X0422500Y0303000D01*
X0417500Y0303000D01*
X0417500Y0301500D01*
X0412500Y0301500D02*
X0412500Y0303000D01*
X0407500Y0303000D01*
X0407500Y0301500D01*
X0402500Y0301500D02*
X0402500Y0303000D01*
X0397500Y0303000D01*
X0397500Y0301500D01*
X0392500Y0301500D02*
X0392500Y0303000D01*
X0387500Y0303000D01*
X0387500Y0301500D01*
X0377500Y0335000D02*
X0372500Y0335000D01*
X0370000Y0337500D01*
X0370000Y0352500D01*
X0367500Y0355000D01*
X0362500Y0355000D01*
X0360000Y0352500D01*
X0357500Y0355000D01*
X0352500Y0355000D01*
X0350000Y0352500D01*
X0350000Y0337500D01*
X0352500Y0335000D01*
X0357500Y0335000D01*
X0360000Y0337500D01*
X0360000Y0352500D01*
X0357500Y0355000D02*
X0352500Y0355000D01*
X0350000Y0357500D01*
X0350000Y0372500D01*
X0352500Y0375000D01*
X0357500Y0375000D01*
X0360000Y0372500D01*
X0360000Y0357500D01*
X0357500Y0355000D01*
X0360000Y0357500D02*
X0362500Y0355000D01*
X0367500Y0355000D01*
X0370000Y0357500D01*
X0370000Y0372500D01*
X0367500Y0375000D01*
X0362500Y0375000D01*
X0360000Y0372500D01*
X0357500Y0375000D02*
X0352500Y0375000D01*
X0350000Y0377500D01*
X0350000Y0392500D01*
X0352500Y0395000D01*
X0357500Y0395000D01*
X0360000Y0392500D01*
X0360000Y0377500D01*
X0357500Y0375000D01*
X0360000Y0377500D02*
X0362500Y0375000D01*
X0367500Y0375000D01*
X0370000Y0377500D01*
X0370000Y0392500D01*
X0367500Y0395000D01*
X0362500Y0395000D01*
X0360000Y0392500D01*
X0357500Y0395000D02*
X0352500Y0395000D01*
X0350000Y0397500D01*
X0350000Y0412500D01*
X0352500Y0415000D01*
X0357500Y0415000D01*
X0360000Y0412500D01*
X0360000Y0397500D01*
X0357500Y0395000D01*
X0360000Y0397500D02*
X0362500Y0395000D01*
X0367500Y0395000D01*
X0370000Y0397500D01*
X0370000Y0412500D01*
X0367500Y0415000D01*
X0362500Y0415000D01*
X0360000Y0412500D01*
X0357500Y0415000D02*
X0352500Y0415000D01*
X0350000Y0417500D01*
X0350000Y0432500D01*
X0352500Y0435000D01*
X0357500Y0435000D01*
X0360000Y0432500D01*
X0360000Y0417500D01*
X0357500Y0415000D01*
X0360000Y0417500D02*
X0362500Y0415000D01*
X0367500Y0415000D01*
X0370000Y0417500D01*
X0370000Y0432500D01*
X0367500Y0435000D01*
X0362500Y0435000D01*
X0360000Y0432500D01*
X0357500Y0435000D02*
X0352500Y0435000D01*
X0350000Y0437500D01*
X0350000Y0452500D01*
X0352500Y0455000D01*
X0357500Y0455000D01*
X0360000Y0452500D01*
X0360000Y0437500D01*
X0357500Y0435000D01*
X0360000Y0437500D02*
X0362500Y0435000D01*
X0367500Y0435000D01*
X0370000Y0437500D01*
X0370000Y0452500D01*
X0367500Y0455000D01*
X0362500Y0455000D01*
X0360000Y0452500D01*
X0370000Y0452500D02*
X0372500Y0455000D01*
X0377500Y0455000D01*
X0380000Y0452500D01*
X0380000Y0437500D01*
X0377500Y0435000D01*
X0372500Y0435000D01*
X0370000Y0432500D01*
X0372500Y0435000D02*
X0370000Y0437500D01*
X0372500Y0435000D02*
X0377500Y0435000D01*
X0380000Y0432500D01*
X0380000Y0417500D01*
X0377500Y0415000D01*
X0372500Y0415000D01*
X0370000Y0412500D01*
X0372500Y0415000D02*
X0370000Y0417500D01*
X0372500Y0415000D02*
X0377500Y0415000D01*
X0380000Y0412500D01*
X0380000Y0397500D01*
X0377500Y0395000D01*
X0372500Y0395000D01*
X0370000Y0392500D01*
X0372500Y0395000D02*
X0370000Y0397500D01*
X0372500Y0395000D02*
X0377500Y0395000D01*
X0380000Y0392500D01*
X0380000Y0377500D01*
X0377500Y0375000D01*
X0372500Y0375000D01*
X0370000Y0372500D01*
X0372500Y0375000D02*
X0370000Y0377500D01*
X0372500Y0375000D02*
X0377500Y0375000D01*
X0380000Y0372500D01*
X0380000Y0357500D01*
X0377500Y0355000D01*
X0372500Y0355000D01*
X0370000Y0352500D01*
X0372500Y0355000D02*
X0370000Y0357500D01*
X0372500Y0355000D02*
X0377500Y0355000D01*
X0380000Y0352500D01*
X0380000Y0337500D01*
X0377500Y0335000D01*
X0370000Y0337500D02*
X0367500Y0335000D01*
X0362500Y0335000D01*
X0360000Y0337500D01*
X0440000Y0345000D02*
X0440000Y0365000D01*
X0455000Y0365000D01*
X0455000Y0345000D01*
X0440000Y0345000D01*
X0461250Y0345000D02*
X0461250Y0365000D01*
X0476250Y0365000D01*
X0476250Y0345000D01*
X0461250Y0345000D01*
X0450882Y0362000D02*
X0450884Y0362066D01*
X0450890Y0362132D01*
X0450900Y0362198D01*
X0450913Y0362263D01*
X0450931Y0362327D01*
X0450952Y0362389D01*
X0450977Y0362451D01*
X0451005Y0362511D01*
X0451037Y0362569D01*
X0451073Y0362625D01*
X0451111Y0362678D01*
X0451153Y0362730D01*
X0451198Y0362779D01*
X0451245Y0362825D01*
X0451296Y0362868D01*
X0451348Y0362908D01*
X0451403Y0362945D01*
X0451460Y0362979D01*
X0451519Y0363009D01*
X0451580Y0363036D01*
X0451642Y0363059D01*
X0451705Y0363078D01*
X0451770Y0363094D01*
X0451835Y0363106D01*
X0451901Y0363114D01*
X0451967Y0363118D01*
X0452033Y0363118D01*
X0452099Y0363114D01*
X0452165Y0363106D01*
X0452230Y0363094D01*
X0452295Y0363078D01*
X0452358Y0363059D01*
X0452420Y0363036D01*
X0452481Y0363009D01*
X0452540Y0362979D01*
X0452597Y0362945D01*
X0452652Y0362908D01*
X0452704Y0362868D01*
X0452755Y0362825D01*
X0452802Y0362779D01*
X0452847Y0362730D01*
X0452889Y0362678D01*
X0452927Y0362625D01*
X0452963Y0362569D01*
X0452995Y0362511D01*
X0453023Y0362451D01*
X0453048Y0362389D01*
X0453069Y0362327D01*
X0453087Y0362263D01*
X0453100Y0362198D01*
X0453110Y0362132D01*
X0453116Y0362066D01*
X0453118Y0362000D01*
X0453116Y0361934D01*
X0453110Y0361868D01*
X0453100Y0361802D01*
X0453087Y0361737D01*
X0453069Y0361673D01*
X0453048Y0361611D01*
X0453023Y0361549D01*
X0452995Y0361489D01*
X0452963Y0361431D01*
X0452927Y0361375D01*
X0452889Y0361322D01*
X0452847Y0361270D01*
X0452802Y0361221D01*
X0452755Y0361175D01*
X0452704Y0361132D01*
X0452652Y0361092D01*
X0452597Y0361055D01*
X0452540Y0361021D01*
X0452481Y0360991D01*
X0452420Y0360964D01*
X0452358Y0360941D01*
X0452295Y0360922D01*
X0452230Y0360906D01*
X0452165Y0360894D01*
X0452099Y0360886D01*
X0452033Y0360882D01*
X0451967Y0360882D01*
X0451901Y0360886D01*
X0451835Y0360894D01*
X0451770Y0360906D01*
X0451705Y0360922D01*
X0451642Y0360941D01*
X0451580Y0360964D01*
X0451519Y0360991D01*
X0451460Y0361021D01*
X0451403Y0361055D01*
X0451348Y0361092D01*
X0451296Y0361132D01*
X0451245Y0361175D01*
X0451198Y0361221D01*
X0451153Y0361270D01*
X0451111Y0361322D01*
X0451073Y0361375D01*
X0451037Y0361431D01*
X0451005Y0361489D01*
X0450977Y0361549D01*
X0450952Y0361611D01*
X0450931Y0361673D01*
X0450913Y0361737D01*
X0450900Y0361802D01*
X0450890Y0361868D01*
X0450884Y0361934D01*
X0450882Y0362000D01*
X0472132Y0362000D02*
X0472134Y0362066D01*
X0472140Y0362132D01*
X0472150Y0362198D01*
X0472163Y0362263D01*
X0472181Y0362327D01*
X0472202Y0362389D01*
X0472227Y0362451D01*
X0472255Y0362511D01*
X0472287Y0362569D01*
X0472323Y0362625D01*
X0472361Y0362678D01*
X0472403Y0362730D01*
X0472448Y0362779D01*
X0472495Y0362825D01*
X0472546Y0362868D01*
X0472598Y0362908D01*
X0472653Y0362945D01*
X0472710Y0362979D01*
X0472769Y0363009D01*
X0472830Y0363036D01*
X0472892Y0363059D01*
X0472955Y0363078D01*
X0473020Y0363094D01*
X0473085Y0363106D01*
X0473151Y0363114D01*
X0473217Y0363118D01*
X0473283Y0363118D01*
X0473349Y0363114D01*
X0473415Y0363106D01*
X0473480Y0363094D01*
X0473545Y0363078D01*
X0473608Y0363059D01*
X0473670Y0363036D01*
X0473731Y0363009D01*
X0473790Y0362979D01*
X0473847Y0362945D01*
X0473902Y0362908D01*
X0473954Y0362868D01*
X0474005Y0362825D01*
X0474052Y0362779D01*
X0474097Y0362730D01*
X0474139Y0362678D01*
X0474177Y0362625D01*
X0474213Y0362569D01*
X0474245Y0362511D01*
X0474273Y0362451D01*
X0474298Y0362389D01*
X0474319Y0362327D01*
X0474337Y0362263D01*
X0474350Y0362198D01*
X0474360Y0362132D01*
X0474366Y0362066D01*
X0474368Y0362000D01*
X0474366Y0361934D01*
X0474360Y0361868D01*
X0474350Y0361802D01*
X0474337Y0361737D01*
X0474319Y0361673D01*
X0474298Y0361611D01*
X0474273Y0361549D01*
X0474245Y0361489D01*
X0474213Y0361431D01*
X0474177Y0361375D01*
X0474139Y0361322D01*
X0474097Y0361270D01*
X0474052Y0361221D01*
X0474005Y0361175D01*
X0473954Y0361132D01*
X0473902Y0361092D01*
X0473847Y0361055D01*
X0473790Y0361021D01*
X0473731Y0360991D01*
X0473670Y0360964D01*
X0473608Y0360941D01*
X0473545Y0360922D01*
X0473480Y0360906D01*
X0473415Y0360894D01*
X0473349Y0360886D01*
X0473283Y0360882D01*
X0473217Y0360882D01*
X0473151Y0360886D01*
X0473085Y0360894D01*
X0473020Y0360906D01*
X0472955Y0360922D01*
X0472892Y0360941D01*
X0472830Y0360964D01*
X0472769Y0360991D01*
X0472710Y0361021D01*
X0472653Y0361055D01*
X0472598Y0361092D01*
X0472546Y0361132D01*
X0472495Y0361175D01*
X0472448Y0361221D01*
X0472403Y0361270D01*
X0472361Y0361322D01*
X0472323Y0361375D01*
X0472287Y0361431D01*
X0472255Y0361489D01*
X0472227Y0361549D01*
X0472202Y0361611D01*
X0472181Y0361673D01*
X0472163Y0361737D01*
X0472150Y0361802D01*
X0472140Y0361868D01*
X0472134Y0361934D01*
X0472132Y0362000D01*
X0430300Y0395700D02*
X0429700Y0395700D01*
X0429700Y0409300D02*
X0430300Y0409300D01*
X0430300Y0410700D02*
X0429700Y0410700D01*
X0442393Y0416013D02*
X0480107Y0416013D01*
X0480107Y0433987D01*
X0442393Y0433987D01*
X0442393Y0416013D01*
X0430300Y0424300D02*
X0429700Y0424300D01*
X0429700Y0425700D02*
X0430300Y0425700D01*
X0430300Y0439300D02*
X0429700Y0439300D01*
X0429700Y0440700D02*
X0430300Y0440700D01*
X0430300Y0454300D02*
X0429700Y0454300D01*
X0427500Y0467500D02*
X0422500Y0467500D01*
X0420000Y0470000D01*
X0420000Y0485000D01*
X0422500Y0487500D01*
X0427500Y0487500D01*
X0430000Y0485000D01*
X0430000Y0470000D01*
X0427500Y0467500D01*
X0430000Y0470000D02*
X0432500Y0467500D01*
X0437500Y0467500D01*
X0440000Y0470000D01*
X0440000Y0485000D01*
X0437500Y0487500D01*
X0432500Y0487500D01*
X0430000Y0485000D01*
X0440000Y0485000D02*
X0442500Y0487500D01*
X0447500Y0487500D01*
X0450000Y0485000D01*
X0450000Y0470000D01*
X0447500Y0467500D01*
X0442500Y0467500D01*
X0440000Y0470000D01*
X0450000Y0470000D02*
X0452500Y0467500D01*
X0457500Y0467500D01*
X0460000Y0470000D01*
X0460000Y0485000D01*
X0457500Y0487500D01*
X0452500Y0487500D01*
X0450000Y0485000D01*
X0460000Y0485000D02*
X0462500Y0487500D01*
X0467500Y0487500D01*
X0470000Y0485000D01*
X0470000Y0470000D01*
X0467500Y0467500D01*
X0462500Y0467500D01*
X0460000Y0470000D01*
X0461800Y0460300D02*
X0461800Y0459700D01*
X0463200Y0459700D02*
X0463200Y0460300D01*
X0472500Y0467500D02*
X0470000Y0470000D01*
X0472500Y0467500D02*
X0477500Y0467500D01*
X0480000Y0470000D01*
X0480000Y0485000D01*
X0477500Y0487500D01*
X0472500Y0487500D01*
X0470000Y0485000D01*
X0480000Y0485000D02*
X0500000Y0485000D01*
X0500000Y0470000D01*
X0502500Y0467500D01*
X0507500Y0467500D01*
X0510000Y0470000D01*
X0510000Y0485000D01*
X0507500Y0487500D01*
X0502500Y0487500D01*
X0500000Y0485000D01*
X0500000Y0480000D02*
X0480000Y0480000D01*
X0476800Y0460300D02*
X0476800Y0459700D01*
X0448200Y0459700D02*
X0448200Y0460300D01*
X0473527Y0429800D02*
X0473529Y0429884D01*
X0473535Y0429969D01*
X0473545Y0430052D01*
X0473559Y0430136D01*
X0473576Y0430218D01*
X0473598Y0430300D01*
X0473623Y0430380D01*
X0473652Y0430459D01*
X0473685Y0430537D01*
X0473721Y0430613D01*
X0473761Y0430688D01*
X0473805Y0430760D01*
X0473851Y0430831D01*
X0473901Y0430899D01*
X0473954Y0430964D01*
X0474010Y0431027D01*
X0474069Y0431088D01*
X0474131Y0431145D01*
X0474195Y0431200D01*
X0474262Y0431251D01*
X0474331Y0431300D01*
X0474403Y0431345D01*
X0474476Y0431386D01*
X0474551Y0431424D01*
X0474628Y0431459D01*
X0474707Y0431490D01*
X0474787Y0431517D01*
X0474868Y0431540D01*
X0474950Y0431560D01*
X0475033Y0431576D01*
X0475116Y0431588D01*
X0475201Y0431596D01*
X0475285Y0431600D01*
X0475369Y0431600D01*
X0475453Y0431596D01*
X0475538Y0431588D01*
X0475621Y0431576D01*
X0475704Y0431560D01*
X0475786Y0431540D01*
X0475867Y0431517D01*
X0475947Y0431490D01*
X0476026Y0431459D01*
X0476103Y0431424D01*
X0476178Y0431386D01*
X0476251Y0431345D01*
X0476323Y0431300D01*
X0476392Y0431251D01*
X0476459Y0431200D01*
X0476523Y0431145D01*
X0476585Y0431088D01*
X0476644Y0431027D01*
X0476700Y0430964D01*
X0476753Y0430899D01*
X0476803Y0430831D01*
X0476849Y0430760D01*
X0476893Y0430688D01*
X0476933Y0430613D01*
X0476969Y0430537D01*
X0477002Y0430459D01*
X0477031Y0430380D01*
X0477056Y0430300D01*
X0477078Y0430218D01*
X0477095Y0430136D01*
X0477109Y0430052D01*
X0477119Y0429969D01*
X0477125Y0429884D01*
X0477127Y0429800D01*
X0477125Y0429716D01*
X0477119Y0429631D01*
X0477109Y0429548D01*
X0477095Y0429464D01*
X0477078Y0429382D01*
X0477056Y0429300D01*
X0477031Y0429220D01*
X0477002Y0429141D01*
X0476969Y0429063D01*
X0476933Y0428987D01*
X0476893Y0428912D01*
X0476849Y0428840D01*
X0476803Y0428769D01*
X0476753Y0428701D01*
X0476700Y0428636D01*
X0476644Y0428573D01*
X0476585Y0428512D01*
X0476523Y0428455D01*
X0476459Y0428400D01*
X0476392Y0428349D01*
X0476323Y0428300D01*
X0476251Y0428255D01*
X0476178Y0428214D01*
X0476103Y0428176D01*
X0476026Y0428141D01*
X0475947Y0428110D01*
X0475867Y0428083D01*
X0475786Y0428060D01*
X0475704Y0428040D01*
X0475621Y0428024D01*
X0475538Y0428012D01*
X0475453Y0428004D01*
X0475369Y0428000D01*
X0475285Y0428000D01*
X0475201Y0428004D01*
X0475116Y0428012D01*
X0475033Y0428024D01*
X0474950Y0428040D01*
X0474868Y0428060D01*
X0474787Y0428083D01*
X0474707Y0428110D01*
X0474628Y0428141D01*
X0474551Y0428176D01*
X0474476Y0428214D01*
X0474403Y0428255D01*
X0474331Y0428300D01*
X0474262Y0428349D01*
X0474195Y0428400D01*
X0474131Y0428455D01*
X0474069Y0428512D01*
X0474010Y0428573D01*
X0473954Y0428636D01*
X0473901Y0428701D01*
X0473851Y0428769D01*
X0473805Y0428840D01*
X0473761Y0428912D01*
X0473721Y0428987D01*
X0473685Y0429063D01*
X0473652Y0429141D01*
X0473623Y0429220D01*
X0473598Y0429300D01*
X0473576Y0429382D01*
X0473559Y0429464D01*
X0473545Y0429548D01*
X0473535Y0429631D01*
X0473529Y0429716D01*
X0473527Y0429800D01*
X0512500Y0467500D02*
X0510000Y0470000D01*
X0512500Y0467500D02*
X0517500Y0467500D01*
X0520000Y0470000D01*
X0520000Y0485000D01*
X0517500Y0487500D01*
X0512500Y0487500D01*
X0510000Y0485000D01*
X0520000Y0485000D02*
X0522500Y0487500D01*
X0527500Y0487500D01*
X0530000Y0485000D01*
X0530000Y0470000D01*
X0527500Y0467500D01*
X0522500Y0467500D01*
X0520000Y0470000D01*
X0555000Y0470000D02*
X0555000Y0485000D01*
X0557500Y0487500D01*
X0562500Y0487500D01*
X0565000Y0485000D01*
X0565000Y0470000D01*
X0562500Y0467500D01*
X0557500Y0467500D01*
X0555000Y0470000D01*
X0565000Y0470000D02*
X0567500Y0467500D01*
X0572500Y0467500D01*
X0575000Y0470000D01*
X0575000Y0485000D01*
X0572500Y0487500D01*
X0567500Y0487500D01*
X0565000Y0485000D01*
X0575000Y0485000D02*
X0577500Y0487500D01*
X0582500Y0487500D01*
X0585000Y0485000D01*
X0585000Y0470000D01*
X0582500Y0467500D01*
X0577500Y0467500D01*
X0575000Y0470000D01*
X0585000Y0470000D02*
X0587500Y0467500D01*
X0592500Y0467500D01*
X0595000Y0470000D01*
X0595000Y0485000D01*
X0592500Y0487500D01*
X0587500Y0487500D01*
X0585000Y0485000D01*
D12*
X0597071Y0482162D02*
X0597071Y0480627D01*
X0597838Y0479860D01*
X0600908Y0479860D01*
X0601675Y0480627D01*
X0601675Y0482162D01*
X0600908Y0482929D01*
X0597838Y0482929D02*
X0597071Y0482162D01*
X0597838Y0478325D02*
X0597071Y0477558D01*
X0597071Y0476023D01*
X0597838Y0475256D01*
X0597071Y0473721D02*
X0597071Y0472186D01*
X0597071Y0472954D02*
X0601675Y0472954D01*
X0601675Y0473721D02*
X0601675Y0472186D01*
X0601675Y0475256D02*
X0598606Y0478325D01*
X0597838Y0478325D01*
X0601675Y0478325D02*
X0601675Y0475256D01*
X0601425Y0445429D02*
X0602960Y0445429D01*
X0603727Y0444662D01*
X0603727Y0443894D01*
X0602960Y0443127D01*
X0603727Y0442360D01*
X0603727Y0441592D01*
X0602960Y0440825D01*
X0601425Y0440825D01*
X0600658Y0441592D01*
X0599123Y0440825D02*
X0596054Y0440825D01*
X0597589Y0440825D02*
X0597589Y0445429D01*
X0596054Y0443894D01*
X0594519Y0443127D02*
X0593752Y0442360D01*
X0591450Y0442360D01*
X0592985Y0442360D02*
X0594519Y0440825D01*
X0594519Y0443127D02*
X0594519Y0444662D01*
X0593752Y0445429D01*
X0591450Y0445429D01*
X0591450Y0440825D01*
X0590821Y0433071D02*
X0595425Y0433071D01*
X0590821Y0430002D01*
X0595425Y0430002D01*
X0595425Y0428467D02*
X0592356Y0428467D01*
X0590821Y0426933D01*
X0592356Y0425398D01*
X0595425Y0425398D01*
X0594658Y0423863D02*
X0595425Y0423096D01*
X0595425Y0421561D01*
X0594658Y0420794D01*
X0591588Y0420794D01*
X0590821Y0421561D01*
X0590821Y0423096D01*
X0591588Y0423863D01*
X0593123Y0425398D02*
X0593123Y0428467D01*
X0599571Y0427898D02*
X0604175Y0427898D01*
X0604175Y0425967D02*
X0604175Y0422898D01*
X0599571Y0422898D01*
X0600338Y0420967D02*
X0599571Y0420200D01*
X0599571Y0418665D01*
X0600338Y0417898D01*
X0601106Y0417898D01*
X0601873Y0418665D01*
X0601873Y0420200D01*
X0602640Y0420967D01*
X0603408Y0420967D01*
X0604175Y0420200D01*
X0604175Y0418665D01*
X0603408Y0417898D01*
X0598356Y0414179D02*
X0596054Y0411877D01*
X0599123Y0411877D01*
X0598356Y0409575D02*
X0598356Y0414179D01*
X0594519Y0413412D02*
X0593752Y0414179D01*
X0592217Y0414179D01*
X0591450Y0413412D01*
X0591450Y0410342D01*
X0592217Y0409575D01*
X0593752Y0409575D01*
X0594519Y0410342D01*
X0601873Y0427898D02*
X0601873Y0430967D01*
X0599571Y0430967D02*
X0604175Y0430967D01*
X0602960Y0443127D02*
X0602192Y0443127D01*
X0600658Y0444662D02*
X0601425Y0445429D01*
X0546790Y0444662D02*
X0546790Y0443894D01*
X0546023Y0443127D01*
X0544488Y0443127D01*
X0543721Y0443894D01*
X0543721Y0444662D01*
X0544488Y0445429D01*
X0546023Y0445429D01*
X0546790Y0444662D01*
X0546023Y0443127D02*
X0546790Y0442360D01*
X0546790Y0441592D01*
X0546023Y0440825D01*
X0544488Y0440825D01*
X0543721Y0441592D01*
X0543721Y0442360D01*
X0544488Y0443127D01*
X0542186Y0440825D02*
X0539117Y0440825D01*
X0537582Y0440825D02*
X0536048Y0442360D01*
X0536815Y0442360D02*
X0534513Y0442360D01*
X0534513Y0440825D02*
X0534513Y0445429D01*
X0536815Y0445429D01*
X0537582Y0444662D01*
X0537582Y0443127D01*
X0536815Y0442360D01*
X0539117Y0443894D02*
X0540652Y0445429D01*
X0540652Y0440825D01*
X0541134Y0429804D02*
X0540367Y0429037D01*
X0540367Y0425967D01*
X0541134Y0425200D01*
X0542669Y0425200D01*
X0543436Y0425967D01*
X0544971Y0425967D02*
X0545738Y0425200D01*
X0547273Y0425200D01*
X0548040Y0425967D01*
X0548040Y0426735D01*
X0547273Y0427502D01*
X0546506Y0427502D01*
X0547273Y0427502D02*
X0548040Y0428269D01*
X0548040Y0429037D01*
X0547273Y0429804D01*
X0545738Y0429804D01*
X0544971Y0429037D01*
X0543436Y0429037D02*
X0542669Y0429804D01*
X0541134Y0429804D01*
X0540652Y0414179D02*
X0540652Y0409575D01*
X0542186Y0409575D02*
X0539117Y0409575D01*
X0537582Y0409575D02*
X0536048Y0411110D01*
X0536815Y0411110D02*
X0534513Y0411110D01*
X0534513Y0409575D02*
X0534513Y0414179D01*
X0536815Y0414179D01*
X0537582Y0413412D01*
X0537582Y0411877D01*
X0536815Y0411110D01*
X0539117Y0412644D02*
X0540652Y0414179D01*
X0543721Y0413412D02*
X0543721Y0412644D01*
X0544488Y0411877D01*
X0546790Y0411877D01*
X0546790Y0410342D02*
X0546790Y0413412D01*
X0546023Y0414179D01*
X0544488Y0414179D01*
X0543721Y0413412D01*
X0543721Y0410342D02*
X0544488Y0409575D01*
X0546023Y0409575D01*
X0546790Y0410342D01*
X0546190Y0385429D02*
X0546957Y0384662D01*
X0546957Y0381592D01*
X0546190Y0380825D01*
X0544655Y0380825D01*
X0543888Y0381592D01*
X0543888Y0384662D01*
X0544655Y0385429D01*
X0546190Y0385429D01*
X0548492Y0385429D02*
X0550794Y0385429D01*
X0551561Y0384662D01*
X0551561Y0383127D01*
X0550794Y0382360D01*
X0548492Y0382360D01*
X0550027Y0382360D02*
X0551561Y0380825D01*
X0553096Y0380825D02*
X0553096Y0385429D01*
X0555398Y0385429D01*
X0556165Y0384662D01*
X0556165Y0383127D01*
X0555398Y0382360D01*
X0553096Y0382360D01*
X0557700Y0383127D02*
X0559235Y0383127D01*
X0560769Y0385429D02*
X0557700Y0385429D01*
X0557700Y0380825D01*
X0560769Y0380825D01*
X0562304Y0380825D02*
X0564606Y0380825D01*
X0565373Y0381592D01*
X0565373Y0384662D01*
X0564606Y0385429D01*
X0562304Y0385429D01*
X0562304Y0380825D01*
X0566908Y0381592D02*
X0566908Y0384662D01*
X0567675Y0385429D01*
X0569210Y0385429D01*
X0569977Y0384662D01*
X0569977Y0381592D01*
X0569210Y0380825D01*
X0567675Y0380825D01*
X0566908Y0381592D01*
X0571512Y0381592D02*
X0574581Y0384662D01*
X0574581Y0381592D01*
X0573814Y0380825D01*
X0572279Y0380825D01*
X0571512Y0381592D01*
X0571512Y0384662D01*
X0572279Y0385429D01*
X0573814Y0385429D01*
X0574581Y0384662D01*
X0596446Y0383894D02*
X0596446Y0380825D01*
X0601050Y0380825D01*
X0601050Y0383894D01*
X0598748Y0382360D02*
X0598748Y0380825D01*
X0597213Y0379290D02*
X0596446Y0378523D01*
X0596446Y0376988D01*
X0597213Y0376221D01*
X0600283Y0376221D01*
X0601050Y0376988D01*
X0601050Y0378523D01*
X0600283Y0379290D01*
X0597213Y0379290D01*
X0601050Y0373269D02*
X0601050Y0370200D01*
X0601050Y0371735D02*
X0596446Y0371735D01*
X0597981Y0370200D01*
X0596446Y0368665D02*
X0596446Y0365596D01*
X0596446Y0367131D02*
X0601050Y0367131D01*
X0600283Y0363269D02*
X0601050Y0362502D01*
X0601050Y0360967D01*
X0600283Y0360200D01*
X0597213Y0363269D01*
X0600283Y0363269D01*
X0600283Y0360200D02*
X0597213Y0360200D01*
X0596446Y0360967D01*
X0596446Y0362502D01*
X0597213Y0363269D01*
X0596446Y0358665D02*
X0596446Y0355596D01*
X0596446Y0357131D02*
X0601050Y0357131D01*
X0547131Y0337929D02*
X0547131Y0333325D01*
X0548665Y0333325D02*
X0545596Y0333325D01*
X0544061Y0333325D02*
X0542527Y0334860D01*
X0544061Y0334092D02*
X0543294Y0333325D01*
X0541759Y0333325D01*
X0540992Y0334092D01*
X0540992Y0337162D01*
X0541759Y0337929D01*
X0543294Y0337929D01*
X0544061Y0337162D01*
X0544061Y0334092D01*
X0545596Y0336394D02*
X0547131Y0337929D01*
X0493665Y0337162D02*
X0492898Y0337929D01*
X0491363Y0337929D01*
X0490596Y0337162D01*
X0489061Y0337162D02*
X0489061Y0334092D01*
X0488294Y0333325D01*
X0486759Y0333325D01*
X0485992Y0334092D01*
X0485992Y0337162D01*
X0486759Y0337929D01*
X0488294Y0337929D01*
X0489061Y0337162D01*
X0487527Y0334860D02*
X0489061Y0333325D01*
X0490596Y0333325D02*
X0493665Y0336394D01*
X0493665Y0337162D01*
X0493665Y0333325D02*
X0490596Y0333325D01*
X0491190Y0380825D02*
X0491957Y0381592D01*
X0491957Y0384662D01*
X0491190Y0385429D01*
X0489655Y0385429D01*
X0488888Y0384662D01*
X0488888Y0381592D01*
X0489655Y0380825D01*
X0491190Y0380825D01*
X0493492Y0380825D02*
X0493492Y0385429D01*
X0495794Y0385429D01*
X0496561Y0384662D01*
X0496561Y0383127D01*
X0495794Y0382360D01*
X0493492Y0382360D01*
X0495027Y0382360D02*
X0496561Y0380825D01*
X0498096Y0380825D02*
X0498096Y0385429D01*
X0500398Y0385429D01*
X0501165Y0384662D01*
X0501165Y0383127D01*
X0500398Y0382360D01*
X0498096Y0382360D01*
X0502700Y0383127D02*
X0504235Y0383127D01*
X0505769Y0385429D02*
X0502700Y0385429D01*
X0502700Y0380825D01*
X0505769Y0380825D01*
X0507304Y0380825D02*
X0509606Y0380825D01*
X0510373Y0381592D01*
X0510373Y0384662D01*
X0509606Y0385429D01*
X0507304Y0385429D01*
X0507304Y0380825D01*
X0511908Y0381592D02*
X0512675Y0380825D01*
X0514210Y0380825D01*
X0514977Y0381592D01*
X0514977Y0384662D01*
X0514210Y0385429D01*
X0512675Y0385429D01*
X0511908Y0384662D01*
X0511908Y0381592D01*
X0516512Y0380825D02*
X0519581Y0380825D01*
X0518046Y0380825D02*
X0518046Y0385429D01*
X0516512Y0383894D01*
X0539284Y0385429D02*
X0542354Y0385429D01*
X0540819Y0385429D02*
X0540819Y0380825D01*
X0548492Y0380825D02*
X0548492Y0385429D01*
X0494800Y0414259D02*
X0494800Y0415794D01*
X0494033Y0416561D01*
X0494033Y0418096D02*
X0494800Y0418863D01*
X0494800Y0420398D01*
X0494033Y0421165D01*
X0492498Y0421165D01*
X0491731Y0420398D01*
X0491731Y0419631D01*
X0492498Y0418096D01*
X0490196Y0418096D01*
X0490196Y0421165D01*
X0490963Y0416561D02*
X0490196Y0415794D01*
X0490196Y0414259D01*
X0490963Y0413492D01*
X0494033Y0413492D01*
X0494800Y0414259D01*
X0487354Y0385429D02*
X0484284Y0385429D01*
X0485819Y0385429D02*
X0485819Y0380825D01*
X0434175Y0380485D02*
X0429571Y0380485D01*
X0431106Y0378950D01*
X0434175Y0378950D02*
X0434175Y0382019D01*
X0434175Y0383554D02*
X0431106Y0386623D01*
X0430338Y0386623D01*
X0429571Y0385856D01*
X0429571Y0384321D01*
X0430338Y0383554D01*
X0434175Y0383554D02*
X0434175Y0386623D01*
X0432640Y0388158D02*
X0434175Y0389692D01*
X0432640Y0391227D01*
X0429571Y0391227D01*
X0429571Y0388158D02*
X0432640Y0388158D01*
X0413071Y0381537D02*
X0412304Y0382304D01*
X0410002Y0382304D01*
X0410002Y0377700D01*
X0412304Y0377700D01*
X0413071Y0378467D01*
X0413071Y0381537D01*
X0408467Y0382304D02*
X0405398Y0382304D01*
X0405398Y0377700D01*
X0408467Y0377700D01*
X0406933Y0380002D02*
X0405398Y0380002D01*
X0403863Y0377700D02*
X0400794Y0377700D01*
X0400794Y0382304D01*
X0347300Y0384457D02*
X0346533Y0383690D01*
X0347300Y0384457D02*
X0347300Y0385992D01*
X0346533Y0386759D01*
X0345765Y0386759D01*
X0344998Y0385992D01*
X0344998Y0384457D01*
X0344231Y0383690D01*
X0343463Y0383690D01*
X0342696Y0384457D01*
X0342696Y0385992D01*
X0343463Y0386759D01*
X0342696Y0388294D02*
X0347300Y0388294D01*
X0347300Y0391363D01*
X0347300Y0392898D02*
X0342696Y0392898D01*
X0342696Y0395200D01*
X0343463Y0395967D01*
X0344998Y0395967D01*
X0345765Y0395200D01*
X0345765Y0392898D01*
X0345765Y0394433D02*
X0347300Y0395967D01*
X0345765Y0397502D02*
X0347300Y0399037D01*
X0345765Y0400571D01*
X0342696Y0400571D01*
X0343463Y0402106D02*
X0346533Y0402106D01*
X0347300Y0402873D01*
X0347300Y0404408D01*
X0346533Y0405175D01*
X0343463Y0405175D01*
X0342696Y0404408D01*
X0342696Y0402873D01*
X0343463Y0402106D01*
X0342696Y0397502D02*
X0345765Y0397502D01*
X0342696Y0391363D02*
X0342696Y0388294D01*
X0344998Y0388294D02*
X0344998Y0389829D01*
X0340140Y0376623D02*
X0337071Y0376623D01*
X0337071Y0373554D02*
X0340140Y0373554D01*
X0341675Y0375089D01*
X0340140Y0376623D01*
X0339373Y0372019D02*
X0340908Y0372019D01*
X0341675Y0371252D01*
X0341675Y0369717D01*
X0340908Y0368950D01*
X0339373Y0368950D02*
X0338606Y0370485D01*
X0338606Y0371252D01*
X0339373Y0372019D01*
X0337071Y0372019D02*
X0337071Y0368950D01*
X0339373Y0368950D01*
X0345825Y0324179D02*
X0348127Y0324179D01*
X0348894Y0323412D01*
X0348894Y0321877D01*
X0348127Y0321110D01*
X0345825Y0321110D01*
X0347360Y0321110D02*
X0348894Y0319575D01*
X0350429Y0319575D02*
X0353498Y0322644D01*
X0353498Y0323412D01*
X0352731Y0324179D01*
X0351196Y0324179D01*
X0350429Y0323412D01*
X0350429Y0319575D02*
X0353498Y0319575D01*
X0355033Y0321877D02*
X0358102Y0321877D01*
X0357335Y0324179D02*
X0355033Y0321877D01*
X0357335Y0319575D02*
X0357335Y0324179D01*
X0345825Y0324179D02*
X0345825Y0319575D01*
X0443226Y0439932D02*
X0444427Y0439932D01*
X0445027Y0440532D01*
X0445027Y0443535D01*
X0446308Y0441733D02*
X0448110Y0443535D01*
X0448110Y0439932D01*
X0448710Y0441733D02*
X0446308Y0441733D01*
X0443226Y0439932D02*
X0442625Y0440532D01*
X0442625Y0443535D01*
X0416050Y0452638D02*
X0411446Y0452638D01*
X0411446Y0454940D01*
X0412213Y0455707D01*
X0413748Y0455707D01*
X0414515Y0454940D01*
X0414515Y0452638D01*
X0414515Y0454173D02*
X0416050Y0455707D01*
X0416050Y0457242D02*
X0412981Y0460311D01*
X0412213Y0460311D01*
X0411446Y0459544D01*
X0411446Y0458009D01*
X0412213Y0457242D01*
X0416050Y0457242D02*
X0416050Y0460311D01*
X0415283Y0461846D02*
X0416050Y0462613D01*
X0416050Y0464148D01*
X0415283Y0464915D01*
X0414515Y0464915D01*
X0413748Y0464148D01*
X0413748Y0463381D01*
X0413748Y0464148D02*
X0412981Y0464915D01*
X0412213Y0464915D01*
X0411446Y0464148D01*
X0411446Y0462613D01*
X0412213Y0461846D01*
X0407300Y0462613D02*
X0406533Y0461846D01*
X0407300Y0462613D02*
X0407300Y0464148D01*
X0406533Y0464915D01*
X0405765Y0464915D01*
X0404998Y0464148D01*
X0404998Y0463381D01*
X0404998Y0464148D02*
X0404231Y0464915D01*
X0403463Y0464915D01*
X0402696Y0464148D01*
X0402696Y0462613D01*
X0403463Y0461846D01*
X0402696Y0460311D02*
X0405765Y0460311D01*
X0407300Y0458777D01*
X0405765Y0457242D01*
X0402696Y0457242D01*
X0403463Y0455707D02*
X0404231Y0455707D01*
X0404998Y0454940D01*
X0405765Y0455707D01*
X0406533Y0455707D01*
X0407300Y0454940D01*
X0407300Y0453406D01*
X0406533Y0452638D01*
X0404998Y0454173D02*
X0404998Y0454940D01*
X0403463Y0455707D02*
X0402696Y0454940D01*
X0402696Y0453406D01*
X0403463Y0452638D01*
X0368269Y0459235D02*
X0368269Y0462304D01*
X0365200Y0462304D02*
X0365200Y0459235D01*
X0366735Y0457700D01*
X0368269Y0459235D01*
X0363665Y0460002D02*
X0363665Y0458467D01*
X0362898Y0457700D01*
X0361363Y0457700D01*
X0360596Y0458467D01*
X0360596Y0460002D02*
X0362131Y0460769D01*
X0362898Y0460769D01*
X0363665Y0460002D01*
X0363665Y0462304D02*
X0360596Y0462304D01*
X0360596Y0460002D01*
D13*
X0357584Y0467264D02*
X0357584Y0487736D01*
X0394592Y0487736D01*
X0394592Y0467264D01*
X0368214Y0467264D01*
X0368213Y0467264D02*
X0368211Y0467172D01*
X0368205Y0467080D01*
X0368195Y0466989D01*
X0368182Y0466898D01*
X0368164Y0466808D01*
X0368143Y0466718D01*
X0368118Y0466630D01*
X0368089Y0466543D01*
X0368057Y0466457D01*
X0368021Y0466372D01*
X0367981Y0466289D01*
X0367938Y0466208D01*
X0367892Y0466129D01*
X0367842Y0466052D01*
X0367789Y0465977D01*
X0367732Y0465904D01*
X0367673Y0465834D01*
X0367611Y0465766D01*
X0367546Y0465701D01*
X0367478Y0465639D01*
X0367408Y0465580D01*
X0367335Y0465523D01*
X0367260Y0465470D01*
X0367183Y0465420D01*
X0367104Y0465374D01*
X0367023Y0465331D01*
X0366940Y0465291D01*
X0366855Y0465255D01*
X0366769Y0465223D01*
X0366682Y0465194D01*
X0366594Y0465169D01*
X0366504Y0465148D01*
X0366414Y0465130D01*
X0366323Y0465117D01*
X0366232Y0465107D01*
X0366140Y0465101D01*
X0366048Y0465099D01*
X0365956Y0465101D01*
X0365864Y0465107D01*
X0365773Y0465117D01*
X0365682Y0465130D01*
X0365592Y0465148D01*
X0365502Y0465169D01*
X0365414Y0465194D01*
X0365327Y0465223D01*
X0365241Y0465255D01*
X0365156Y0465291D01*
X0365073Y0465331D01*
X0364992Y0465374D01*
X0364913Y0465420D01*
X0364836Y0465470D01*
X0364761Y0465523D01*
X0364688Y0465580D01*
X0364618Y0465639D01*
X0364550Y0465701D01*
X0364485Y0465766D01*
X0364423Y0465834D01*
X0364364Y0465904D01*
X0364307Y0465977D01*
X0364254Y0466052D01*
X0364204Y0466129D01*
X0364158Y0466208D01*
X0364115Y0466289D01*
X0364075Y0466372D01*
X0364039Y0466457D01*
X0364007Y0466543D01*
X0363978Y0466630D01*
X0363953Y0466718D01*
X0363932Y0466808D01*
X0363914Y0466898D01*
X0363901Y0466989D01*
X0363891Y0467080D01*
X0363885Y0467172D01*
X0363883Y0467264D01*
X0357584Y0467264D01*
X0511516Y0340256D02*
X0515650Y0337500D01*
X0511516Y0334547D01*
X0511516Y0340256D01*
X0478504Y0334291D02*
X0478504Y0297283D01*
X0441496Y0297283D01*
X0441496Y0323661D01*
X0441496Y0323662D02*
X0441404Y0323664D01*
X0441312Y0323670D01*
X0441221Y0323680D01*
X0441130Y0323693D01*
X0441040Y0323711D01*
X0440950Y0323732D01*
X0440862Y0323757D01*
X0440775Y0323786D01*
X0440689Y0323818D01*
X0440604Y0323854D01*
X0440521Y0323894D01*
X0440440Y0323937D01*
X0440361Y0323983D01*
X0440284Y0324033D01*
X0440209Y0324086D01*
X0440136Y0324143D01*
X0440066Y0324202D01*
X0439998Y0324264D01*
X0439933Y0324329D01*
X0439871Y0324397D01*
X0439812Y0324467D01*
X0439755Y0324540D01*
X0439702Y0324615D01*
X0439652Y0324692D01*
X0439606Y0324771D01*
X0439563Y0324852D01*
X0439523Y0324935D01*
X0439487Y0325020D01*
X0439455Y0325106D01*
X0439426Y0325193D01*
X0439401Y0325281D01*
X0439380Y0325371D01*
X0439362Y0325461D01*
X0439349Y0325552D01*
X0439339Y0325643D01*
X0439333Y0325735D01*
X0439331Y0325827D01*
X0439333Y0325919D01*
X0439339Y0326011D01*
X0439349Y0326102D01*
X0439362Y0326193D01*
X0439380Y0326283D01*
X0439401Y0326373D01*
X0439426Y0326461D01*
X0439455Y0326548D01*
X0439487Y0326634D01*
X0439523Y0326719D01*
X0439563Y0326802D01*
X0439606Y0326883D01*
X0439652Y0326962D01*
X0439702Y0327039D01*
X0439755Y0327114D01*
X0439812Y0327187D01*
X0439871Y0327257D01*
X0439933Y0327325D01*
X0439998Y0327390D01*
X0440066Y0327452D01*
X0440136Y0327511D01*
X0440209Y0327568D01*
X0440284Y0327621D01*
X0440361Y0327671D01*
X0440440Y0327717D01*
X0440521Y0327760D01*
X0440604Y0327800D01*
X0440689Y0327836D01*
X0440775Y0327868D01*
X0440862Y0327897D01*
X0440950Y0327922D01*
X0441040Y0327943D01*
X0441130Y0327961D01*
X0441221Y0327974D01*
X0441312Y0327984D01*
X0441404Y0327990D01*
X0441496Y0327992D01*
X0441496Y0334291D01*
X0478504Y0334291D01*
X0566516Y0334547D02*
X0566516Y0340256D01*
X0570650Y0337500D01*
X0566516Y0334547D01*
D14*
X0580250Y0335250D02*
X0580250Y0339754D01*
X0582502Y0339754D01*
X0583253Y0339003D01*
X0583253Y0336001D01*
X0582502Y0335250D01*
X0580250Y0335250D01*
X0584854Y0335250D02*
X0587856Y0335250D01*
X0586355Y0335250D02*
X0586355Y0339754D01*
X0584854Y0338253D01*
X0603375Y0336501D02*
X0604126Y0335750D01*
X0604876Y0335750D01*
X0605627Y0336501D01*
X0605627Y0340254D01*
X0604876Y0340254D02*
X0606378Y0340254D01*
X0607979Y0340254D02*
X0610231Y0340254D01*
X0610981Y0339503D01*
X0610981Y0338002D01*
X0610231Y0337251D01*
X0607979Y0337251D01*
X0607979Y0335750D02*
X0607979Y0340254D01*
X0612583Y0338753D02*
X0614084Y0340254D01*
X0614084Y0335750D01*
X0612583Y0335750D02*
X0615585Y0335750D01*
X0617187Y0335750D02*
X0620189Y0335750D01*
X0618688Y0335750D02*
X0618688Y0340254D01*
X0617187Y0338753D01*
X0554300Y0345600D02*
X0554300Y0359400D01*
X0535700Y0359400D01*
X0535700Y0345600D01*
X0554300Y0345600D01*
X0532856Y0339003D02*
X0532106Y0339754D01*
X0530605Y0339754D01*
X0529854Y0339003D01*
X0528253Y0339003D02*
X0527502Y0339754D01*
X0525250Y0339754D01*
X0525250Y0335250D01*
X0527502Y0335250D01*
X0528253Y0336001D01*
X0528253Y0339003D01*
X0529854Y0335250D02*
X0532856Y0338253D01*
X0532856Y0339003D01*
X0532856Y0335250D02*
X0529854Y0335250D01*
X0499300Y0345600D02*
X0499300Y0359400D01*
X0480700Y0359400D01*
X0480700Y0345600D01*
X0499300Y0345600D01*
X0424300Y0351900D02*
X0424300Y0338100D01*
X0405700Y0338100D01*
X0405700Y0351900D01*
X0424300Y0351900D01*
X0414856Y0361751D02*
X0414106Y0361000D01*
X0412605Y0361000D01*
X0411854Y0361751D01*
X0410253Y0361751D02*
X0409502Y0361000D01*
X0408001Y0361000D01*
X0407250Y0361751D01*
X0407250Y0364753D01*
X0408001Y0365504D01*
X0409502Y0365504D01*
X0410253Y0364753D01*
X0410253Y0361751D01*
X0410253Y0361000D02*
X0408751Y0362501D01*
X0411854Y0364753D02*
X0412605Y0365504D01*
X0414106Y0365504D01*
X0414856Y0364753D01*
X0414856Y0364003D01*
X0414106Y0363252D01*
X0414856Y0362501D01*
X0414856Y0361751D01*
X0414106Y0363252D02*
X0413355Y0363252D01*
X0404300Y0351900D02*
X0385700Y0351900D01*
X0385700Y0338100D01*
X0404300Y0338100D01*
X0404300Y0351900D01*
X0394106Y0361000D02*
X0394106Y0365504D01*
X0391854Y0363252D01*
X0394856Y0363252D01*
X0390253Y0364753D02*
X0390253Y0361751D01*
X0389502Y0361000D01*
X0388001Y0361000D01*
X0387250Y0361751D01*
X0387250Y0364753D01*
X0388001Y0365504D01*
X0389502Y0365504D01*
X0390253Y0364753D01*
X0388751Y0362501D02*
X0390253Y0361000D01*
X0390100Y0390900D02*
X0384500Y0401200D01*
X0384400Y0401400D02*
X0390100Y0401400D01*
X0390100Y0402700D02*
X0388700Y0402700D01*
X0388700Y0412000D01*
X0388700Y0412100D01*
X0388700Y0412200D02*
X0388691Y0412250D01*
X0388679Y0412299D01*
X0388663Y0412347D01*
X0388644Y0412393D01*
X0388622Y0412438D01*
X0388596Y0412482D01*
X0388567Y0412523D01*
X0388535Y0412562D01*
X0388501Y0412599D01*
X0388464Y0412633D01*
X0388425Y0412665D01*
X0388383Y0412693D01*
X0388339Y0412718D01*
X0388294Y0412740D01*
X0388247Y0412759D01*
X0388199Y0412774D01*
X0388150Y0412786D01*
X0388101Y0412794D01*
X0388051Y0412799D01*
X0388000Y0412800D01*
X0388100Y0412800D01*
X0388000Y0412800D02*
X0385100Y0412800D01*
X0385050Y0412791D01*
X0385001Y0412779D01*
X0384953Y0412763D01*
X0384907Y0412744D01*
X0384862Y0412722D01*
X0384818Y0412696D01*
X0384777Y0412667D01*
X0384738Y0412635D01*
X0384701Y0412601D01*
X0384667Y0412564D01*
X0384635Y0412525D01*
X0384607Y0412483D01*
X0384582Y0412439D01*
X0384560Y0412394D01*
X0384541Y0412347D01*
X0384526Y0412299D01*
X0384514Y0412250D01*
X0384506Y0412201D01*
X0384501Y0412151D01*
X0384500Y0412100D01*
X0384500Y0402700D01*
X0388700Y0402700D01*
X0388700Y0401200D02*
X0388700Y0393500D01*
X0388700Y0412000D02*
X0388701Y0412050D01*
X0388706Y0412100D01*
X0388714Y0412150D01*
X0388725Y0412199D01*
X0388741Y0412247D01*
X0388760Y0412294D01*
X0388782Y0412339D01*
X0388807Y0412383D01*
X0388835Y0412425D01*
X0388867Y0412464D01*
X0388901Y0412501D01*
X0388938Y0412536D01*
X0388977Y0412567D01*
X0389018Y0412596D01*
X0389062Y0412622D01*
X0389107Y0412644D01*
X0389154Y0412663D01*
X0389201Y0412679D01*
X0389250Y0412691D01*
X0389300Y0412700D01*
X0389200Y0412700D02*
X0390100Y0412700D01*
X0389900Y0414400D02*
X0384400Y0414400D01*
X0389900Y0414400D02*
X0384500Y0422200D01*
X0384500Y0423700D02*
X0384500Y0432100D01*
X0384501Y0432151D01*
X0384506Y0432201D01*
X0384514Y0432250D01*
X0384526Y0432299D01*
X0384541Y0432347D01*
X0384560Y0432394D01*
X0384582Y0432439D01*
X0384607Y0432483D01*
X0384635Y0432525D01*
X0384667Y0432564D01*
X0384701Y0432601D01*
X0384738Y0432635D01*
X0384777Y0432667D01*
X0384818Y0432696D01*
X0384862Y0432722D01*
X0384907Y0432744D01*
X0384953Y0432763D01*
X0385001Y0432779D01*
X0385050Y0432791D01*
X0385100Y0432800D01*
X0388000Y0432800D01*
X0388100Y0432800D01*
X0388000Y0432800D02*
X0388051Y0432799D01*
X0388101Y0432794D01*
X0388150Y0432786D01*
X0388199Y0432774D01*
X0388247Y0432759D01*
X0388294Y0432740D01*
X0388339Y0432718D01*
X0388383Y0432693D01*
X0388425Y0432665D01*
X0388464Y0432633D01*
X0388501Y0432599D01*
X0388535Y0432562D01*
X0388567Y0432523D01*
X0388596Y0432482D01*
X0388622Y0432438D01*
X0388644Y0432393D01*
X0388663Y0432347D01*
X0388679Y0432299D01*
X0388691Y0432250D01*
X0388700Y0432200D01*
X0388700Y0432100D02*
X0388700Y0423700D01*
X0390100Y0423700D01*
X0388700Y0423700D02*
X0384500Y0423700D01*
X0568100Y0418200D02*
X0581900Y0418200D01*
X0581900Y0436800D01*
X0568100Y0436800D01*
X0568100Y0418200D01*
X0610797Y0411220D02*
X0610797Y0438780D01*
X0627530Y0438780D01*
X0627530Y0411220D01*
X0610797Y0411220D01*
D15*
X0568700Y0434600D02*
X0568702Y0434675D01*
X0568708Y0434749D01*
X0568718Y0434823D01*
X0568732Y0434896D01*
X0568749Y0434968D01*
X0568771Y0435040D01*
X0568796Y0435110D01*
X0568825Y0435178D01*
X0568858Y0435246D01*
X0568894Y0435311D01*
X0568933Y0435374D01*
X0568976Y0435435D01*
X0569022Y0435494D01*
X0569071Y0435550D01*
X0569123Y0435603D01*
X0569178Y0435654D01*
X0569235Y0435701D01*
X0569295Y0435746D01*
X0569357Y0435787D01*
X0569422Y0435825D01*
X0569488Y0435859D01*
X0569556Y0435890D01*
X0569625Y0435917D01*
X0569696Y0435940D01*
X0569768Y0435960D01*
X0569841Y0435976D01*
X0569914Y0435988D01*
X0569988Y0435996D01*
X0570063Y0436000D01*
X0570137Y0436000D01*
X0570212Y0435996D01*
X0570286Y0435988D01*
X0570359Y0435976D01*
X0570432Y0435960D01*
X0570504Y0435940D01*
X0570575Y0435917D01*
X0570644Y0435890D01*
X0570712Y0435859D01*
X0570778Y0435825D01*
X0570843Y0435787D01*
X0570905Y0435746D01*
X0570965Y0435701D01*
X0571022Y0435654D01*
X0571077Y0435603D01*
X0571129Y0435550D01*
X0571178Y0435494D01*
X0571224Y0435435D01*
X0571267Y0435374D01*
X0571306Y0435311D01*
X0571342Y0435246D01*
X0571375Y0435178D01*
X0571404Y0435110D01*
X0571429Y0435040D01*
X0571451Y0434968D01*
X0571468Y0434896D01*
X0571482Y0434823D01*
X0571492Y0434749D01*
X0571498Y0434675D01*
X0571500Y0434600D01*
X0571498Y0434525D01*
X0571492Y0434451D01*
X0571482Y0434377D01*
X0571468Y0434304D01*
X0571451Y0434232D01*
X0571429Y0434160D01*
X0571404Y0434090D01*
X0571375Y0434022D01*
X0571342Y0433954D01*
X0571306Y0433889D01*
X0571267Y0433826D01*
X0571224Y0433765D01*
X0571178Y0433706D01*
X0571129Y0433650D01*
X0571077Y0433597D01*
X0571022Y0433546D01*
X0570965Y0433499D01*
X0570905Y0433454D01*
X0570843Y0433413D01*
X0570778Y0433375D01*
X0570712Y0433341D01*
X0570644Y0433310D01*
X0570575Y0433283D01*
X0570504Y0433260D01*
X0570432Y0433240D01*
X0570359Y0433224D01*
X0570286Y0433212D01*
X0570212Y0433204D01*
X0570137Y0433200D01*
X0570063Y0433200D01*
X0569988Y0433204D01*
X0569914Y0433212D01*
X0569841Y0433224D01*
X0569768Y0433240D01*
X0569696Y0433260D01*
X0569625Y0433283D01*
X0569556Y0433310D01*
X0569488Y0433341D01*
X0569422Y0433375D01*
X0569357Y0433413D01*
X0569295Y0433454D01*
X0569235Y0433499D01*
X0569178Y0433546D01*
X0569123Y0433597D01*
X0569071Y0433650D01*
X0569022Y0433706D01*
X0568976Y0433765D01*
X0568933Y0433826D01*
X0568894Y0433889D01*
X0568858Y0433954D01*
X0568825Y0434022D01*
X0568796Y0434090D01*
X0568771Y0434160D01*
X0568749Y0434232D01*
X0568732Y0434304D01*
X0568718Y0434377D01*
X0568708Y0434451D01*
X0568702Y0434525D01*
X0568700Y0434600D01*
X0479207Y0433087D02*
X0479207Y0416913D01*
X0443293Y0416913D01*
X0443293Y0433087D01*
X0479207Y0433087D01*
X0389300Y0390700D02*
X0388400Y0389500D01*
X0388200Y0390000D01*
X0387500Y0389700D01*
X0387700Y0390500D01*
X0387200Y0390600D01*
X0387900Y0391400D01*
X0386300Y0391000D01*
X0386600Y0391700D01*
X0385500Y0392200D01*
X0386600Y0392700D01*
X0386300Y0393300D01*
X0387900Y0392900D01*
X0400700Y0349900D02*
X0400702Y0349975D01*
X0400708Y0350049D01*
X0400718Y0350123D01*
X0400732Y0350196D01*
X0400749Y0350268D01*
X0400771Y0350340D01*
X0400796Y0350410D01*
X0400825Y0350478D01*
X0400858Y0350546D01*
X0400894Y0350611D01*
X0400933Y0350674D01*
X0400976Y0350735D01*
X0401022Y0350794D01*
X0401071Y0350850D01*
X0401123Y0350903D01*
X0401178Y0350954D01*
X0401235Y0351001D01*
X0401295Y0351046D01*
X0401357Y0351087D01*
X0401422Y0351125D01*
X0401488Y0351159D01*
X0401556Y0351190D01*
X0401625Y0351217D01*
X0401696Y0351240D01*
X0401768Y0351260D01*
X0401841Y0351276D01*
X0401914Y0351288D01*
X0401988Y0351296D01*
X0402063Y0351300D01*
X0402137Y0351300D01*
X0402212Y0351296D01*
X0402286Y0351288D01*
X0402359Y0351276D01*
X0402432Y0351260D01*
X0402504Y0351240D01*
X0402575Y0351217D01*
X0402644Y0351190D01*
X0402712Y0351159D01*
X0402778Y0351125D01*
X0402843Y0351087D01*
X0402905Y0351046D01*
X0402965Y0351001D01*
X0403022Y0350954D01*
X0403077Y0350903D01*
X0403129Y0350850D01*
X0403178Y0350794D01*
X0403224Y0350735D01*
X0403267Y0350674D01*
X0403306Y0350611D01*
X0403342Y0350546D01*
X0403375Y0350478D01*
X0403404Y0350410D01*
X0403429Y0350340D01*
X0403451Y0350268D01*
X0403468Y0350196D01*
X0403482Y0350123D01*
X0403492Y0350049D01*
X0403498Y0349975D01*
X0403500Y0349900D01*
X0403498Y0349825D01*
X0403492Y0349751D01*
X0403482Y0349677D01*
X0403468Y0349604D01*
X0403451Y0349532D01*
X0403429Y0349460D01*
X0403404Y0349390D01*
X0403375Y0349322D01*
X0403342Y0349254D01*
X0403306Y0349189D01*
X0403267Y0349126D01*
X0403224Y0349065D01*
X0403178Y0349006D01*
X0403129Y0348950D01*
X0403077Y0348897D01*
X0403022Y0348846D01*
X0402965Y0348799D01*
X0402905Y0348754D01*
X0402843Y0348713D01*
X0402778Y0348675D01*
X0402712Y0348641D01*
X0402644Y0348610D01*
X0402575Y0348583D01*
X0402504Y0348560D01*
X0402432Y0348540D01*
X0402359Y0348524D01*
X0402286Y0348512D01*
X0402212Y0348504D01*
X0402137Y0348500D01*
X0402063Y0348500D01*
X0401988Y0348504D01*
X0401914Y0348512D01*
X0401841Y0348524D01*
X0401768Y0348540D01*
X0401696Y0348560D01*
X0401625Y0348583D01*
X0401556Y0348610D01*
X0401488Y0348641D01*
X0401422Y0348675D01*
X0401357Y0348713D01*
X0401295Y0348754D01*
X0401235Y0348799D01*
X0401178Y0348846D01*
X0401123Y0348897D01*
X0401071Y0348950D01*
X0401022Y0349006D01*
X0400976Y0349065D01*
X0400933Y0349126D01*
X0400894Y0349189D01*
X0400858Y0349254D01*
X0400825Y0349322D01*
X0400796Y0349390D01*
X0400771Y0349460D01*
X0400749Y0349532D01*
X0400732Y0349604D01*
X0400718Y0349677D01*
X0400708Y0349751D01*
X0400702Y0349825D01*
X0400700Y0349900D01*
X0420700Y0349900D02*
X0420702Y0349975D01*
X0420708Y0350049D01*
X0420718Y0350123D01*
X0420732Y0350196D01*
X0420749Y0350268D01*
X0420771Y0350340D01*
X0420796Y0350410D01*
X0420825Y0350478D01*
X0420858Y0350546D01*
X0420894Y0350611D01*
X0420933Y0350674D01*
X0420976Y0350735D01*
X0421022Y0350794D01*
X0421071Y0350850D01*
X0421123Y0350903D01*
X0421178Y0350954D01*
X0421235Y0351001D01*
X0421295Y0351046D01*
X0421357Y0351087D01*
X0421422Y0351125D01*
X0421488Y0351159D01*
X0421556Y0351190D01*
X0421625Y0351217D01*
X0421696Y0351240D01*
X0421768Y0351260D01*
X0421841Y0351276D01*
X0421914Y0351288D01*
X0421988Y0351296D01*
X0422063Y0351300D01*
X0422137Y0351300D01*
X0422212Y0351296D01*
X0422286Y0351288D01*
X0422359Y0351276D01*
X0422432Y0351260D01*
X0422504Y0351240D01*
X0422575Y0351217D01*
X0422644Y0351190D01*
X0422712Y0351159D01*
X0422778Y0351125D01*
X0422843Y0351087D01*
X0422905Y0351046D01*
X0422965Y0351001D01*
X0423022Y0350954D01*
X0423077Y0350903D01*
X0423129Y0350850D01*
X0423178Y0350794D01*
X0423224Y0350735D01*
X0423267Y0350674D01*
X0423306Y0350611D01*
X0423342Y0350546D01*
X0423375Y0350478D01*
X0423404Y0350410D01*
X0423429Y0350340D01*
X0423451Y0350268D01*
X0423468Y0350196D01*
X0423482Y0350123D01*
X0423492Y0350049D01*
X0423498Y0349975D01*
X0423500Y0349900D01*
X0423498Y0349825D01*
X0423492Y0349751D01*
X0423482Y0349677D01*
X0423468Y0349604D01*
X0423451Y0349532D01*
X0423429Y0349460D01*
X0423404Y0349390D01*
X0423375Y0349322D01*
X0423342Y0349254D01*
X0423306Y0349189D01*
X0423267Y0349126D01*
X0423224Y0349065D01*
X0423178Y0349006D01*
X0423129Y0348950D01*
X0423077Y0348897D01*
X0423022Y0348846D01*
X0422965Y0348799D01*
X0422905Y0348754D01*
X0422843Y0348713D01*
X0422778Y0348675D01*
X0422712Y0348641D01*
X0422644Y0348610D01*
X0422575Y0348583D01*
X0422504Y0348560D01*
X0422432Y0348540D01*
X0422359Y0348524D01*
X0422286Y0348512D01*
X0422212Y0348504D01*
X0422137Y0348500D01*
X0422063Y0348500D01*
X0421988Y0348504D01*
X0421914Y0348512D01*
X0421841Y0348524D01*
X0421768Y0348540D01*
X0421696Y0348560D01*
X0421625Y0348583D01*
X0421556Y0348610D01*
X0421488Y0348641D01*
X0421422Y0348675D01*
X0421357Y0348713D01*
X0421295Y0348754D01*
X0421235Y0348799D01*
X0421178Y0348846D01*
X0421123Y0348897D01*
X0421071Y0348950D01*
X0421022Y0349006D01*
X0420976Y0349065D01*
X0420933Y0349126D01*
X0420894Y0349189D01*
X0420858Y0349254D01*
X0420825Y0349322D01*
X0420796Y0349390D01*
X0420771Y0349460D01*
X0420749Y0349532D01*
X0420732Y0349604D01*
X0420718Y0349677D01*
X0420708Y0349751D01*
X0420702Y0349825D01*
X0420700Y0349900D01*
X0495700Y0357400D02*
X0495702Y0357475D01*
X0495708Y0357549D01*
X0495718Y0357623D01*
X0495732Y0357696D01*
X0495749Y0357768D01*
X0495771Y0357840D01*
X0495796Y0357910D01*
X0495825Y0357978D01*
X0495858Y0358046D01*
X0495894Y0358111D01*
X0495933Y0358174D01*
X0495976Y0358235D01*
X0496022Y0358294D01*
X0496071Y0358350D01*
X0496123Y0358403D01*
X0496178Y0358454D01*
X0496235Y0358501D01*
X0496295Y0358546D01*
X0496357Y0358587D01*
X0496422Y0358625D01*
X0496488Y0358659D01*
X0496556Y0358690D01*
X0496625Y0358717D01*
X0496696Y0358740D01*
X0496768Y0358760D01*
X0496841Y0358776D01*
X0496914Y0358788D01*
X0496988Y0358796D01*
X0497063Y0358800D01*
X0497137Y0358800D01*
X0497212Y0358796D01*
X0497286Y0358788D01*
X0497359Y0358776D01*
X0497432Y0358760D01*
X0497504Y0358740D01*
X0497575Y0358717D01*
X0497644Y0358690D01*
X0497712Y0358659D01*
X0497778Y0358625D01*
X0497843Y0358587D01*
X0497905Y0358546D01*
X0497965Y0358501D01*
X0498022Y0358454D01*
X0498077Y0358403D01*
X0498129Y0358350D01*
X0498178Y0358294D01*
X0498224Y0358235D01*
X0498267Y0358174D01*
X0498306Y0358111D01*
X0498342Y0358046D01*
X0498375Y0357978D01*
X0498404Y0357910D01*
X0498429Y0357840D01*
X0498451Y0357768D01*
X0498468Y0357696D01*
X0498482Y0357623D01*
X0498492Y0357549D01*
X0498498Y0357475D01*
X0498500Y0357400D01*
X0498498Y0357325D01*
X0498492Y0357251D01*
X0498482Y0357177D01*
X0498468Y0357104D01*
X0498451Y0357032D01*
X0498429Y0356960D01*
X0498404Y0356890D01*
X0498375Y0356822D01*
X0498342Y0356754D01*
X0498306Y0356689D01*
X0498267Y0356626D01*
X0498224Y0356565D01*
X0498178Y0356506D01*
X0498129Y0356450D01*
X0498077Y0356397D01*
X0498022Y0356346D01*
X0497965Y0356299D01*
X0497905Y0356254D01*
X0497843Y0356213D01*
X0497778Y0356175D01*
X0497712Y0356141D01*
X0497644Y0356110D01*
X0497575Y0356083D01*
X0497504Y0356060D01*
X0497432Y0356040D01*
X0497359Y0356024D01*
X0497286Y0356012D01*
X0497212Y0356004D01*
X0497137Y0356000D01*
X0497063Y0356000D01*
X0496988Y0356004D01*
X0496914Y0356012D01*
X0496841Y0356024D01*
X0496768Y0356040D01*
X0496696Y0356060D01*
X0496625Y0356083D01*
X0496556Y0356110D01*
X0496488Y0356141D01*
X0496422Y0356175D01*
X0496357Y0356213D01*
X0496295Y0356254D01*
X0496235Y0356299D01*
X0496178Y0356346D01*
X0496123Y0356397D01*
X0496071Y0356450D01*
X0496022Y0356506D01*
X0495976Y0356565D01*
X0495933Y0356626D01*
X0495894Y0356689D01*
X0495858Y0356754D01*
X0495825Y0356822D01*
X0495796Y0356890D01*
X0495771Y0356960D01*
X0495749Y0357032D01*
X0495732Y0357104D01*
X0495718Y0357177D01*
X0495708Y0357251D01*
X0495702Y0357325D01*
X0495700Y0357400D01*
X0550700Y0357400D02*
X0550702Y0357475D01*
X0550708Y0357549D01*
X0550718Y0357623D01*
X0550732Y0357696D01*
X0550749Y0357768D01*
X0550771Y0357840D01*
X0550796Y0357910D01*
X0550825Y0357978D01*
X0550858Y0358046D01*
X0550894Y0358111D01*
X0550933Y0358174D01*
X0550976Y0358235D01*
X0551022Y0358294D01*
X0551071Y0358350D01*
X0551123Y0358403D01*
X0551178Y0358454D01*
X0551235Y0358501D01*
X0551295Y0358546D01*
X0551357Y0358587D01*
X0551422Y0358625D01*
X0551488Y0358659D01*
X0551556Y0358690D01*
X0551625Y0358717D01*
X0551696Y0358740D01*
X0551768Y0358760D01*
X0551841Y0358776D01*
X0551914Y0358788D01*
X0551988Y0358796D01*
X0552063Y0358800D01*
X0552137Y0358800D01*
X0552212Y0358796D01*
X0552286Y0358788D01*
X0552359Y0358776D01*
X0552432Y0358760D01*
X0552504Y0358740D01*
X0552575Y0358717D01*
X0552644Y0358690D01*
X0552712Y0358659D01*
X0552778Y0358625D01*
X0552843Y0358587D01*
X0552905Y0358546D01*
X0552965Y0358501D01*
X0553022Y0358454D01*
X0553077Y0358403D01*
X0553129Y0358350D01*
X0553178Y0358294D01*
X0553224Y0358235D01*
X0553267Y0358174D01*
X0553306Y0358111D01*
X0553342Y0358046D01*
X0553375Y0357978D01*
X0553404Y0357910D01*
X0553429Y0357840D01*
X0553451Y0357768D01*
X0553468Y0357696D01*
X0553482Y0357623D01*
X0553492Y0357549D01*
X0553498Y0357475D01*
X0553500Y0357400D01*
X0553498Y0357325D01*
X0553492Y0357251D01*
X0553482Y0357177D01*
X0553468Y0357104D01*
X0553451Y0357032D01*
X0553429Y0356960D01*
X0553404Y0356890D01*
X0553375Y0356822D01*
X0553342Y0356754D01*
X0553306Y0356689D01*
X0553267Y0356626D01*
X0553224Y0356565D01*
X0553178Y0356506D01*
X0553129Y0356450D01*
X0553077Y0356397D01*
X0553022Y0356346D01*
X0552965Y0356299D01*
X0552905Y0356254D01*
X0552843Y0356213D01*
X0552778Y0356175D01*
X0552712Y0356141D01*
X0552644Y0356110D01*
X0552575Y0356083D01*
X0552504Y0356060D01*
X0552432Y0356040D01*
X0552359Y0356024D01*
X0552286Y0356012D01*
X0552212Y0356004D01*
X0552137Y0356000D01*
X0552063Y0356000D01*
X0551988Y0356004D01*
X0551914Y0356012D01*
X0551841Y0356024D01*
X0551768Y0356040D01*
X0551696Y0356060D01*
X0551625Y0356083D01*
X0551556Y0356110D01*
X0551488Y0356141D01*
X0551422Y0356175D01*
X0551357Y0356213D01*
X0551295Y0356254D01*
X0551235Y0356299D01*
X0551178Y0356346D01*
X0551123Y0356397D01*
X0551071Y0356450D01*
X0551022Y0356506D01*
X0550976Y0356565D01*
X0550933Y0356626D01*
X0550894Y0356689D01*
X0550858Y0356754D01*
X0550825Y0356822D01*
X0550796Y0356890D01*
X0550771Y0356960D01*
X0550749Y0357032D01*
X0550732Y0357104D01*
X0550718Y0357177D01*
X0550708Y0357251D01*
X0550702Y0357325D01*
X0550700Y0357400D01*
D16*
X0570846Y0337500D03*
X0515846Y0337500D03*
D17*
X0490285Y0373543D03*
X0490285Y0378957D03*
X0545285Y0378957D03*
X0545285Y0373543D03*
D18*
X0546811Y0376250D03*
X0491811Y0376250D03*
X0431875Y0366314D03*
X0339375Y0356314D03*
X0405000Y0477436D03*
D19*
X0407707Y0475910D03*
X0402293Y0475910D03*
X0429168Y0367840D03*
X0434582Y0367840D03*
X0342082Y0357840D03*
X0336668Y0357840D03*
D20*
X0485000Y0390000D02*
X0485000Y0460000D01*
X0625000Y0460000D01*
X0625000Y0430000D01*
X0620000Y0430000D01*
X0620000Y0420000D01*
X0625000Y0420000D01*
X0625000Y0390000D01*
X0485000Y0390000D01*
D21*
X0608500Y0305000D02*
X0608502Y0305161D01*
X0608508Y0305321D01*
X0608518Y0305482D01*
X0608532Y0305642D01*
X0608550Y0305802D01*
X0608571Y0305961D01*
X0608597Y0306120D01*
X0608627Y0306278D01*
X0608660Y0306435D01*
X0608698Y0306592D01*
X0608739Y0306747D01*
X0608784Y0306901D01*
X0608833Y0307054D01*
X0608886Y0307206D01*
X0608942Y0307357D01*
X0609003Y0307506D01*
X0609066Y0307654D01*
X0609134Y0307800D01*
X0609205Y0307944D01*
X0609279Y0308086D01*
X0609357Y0308227D01*
X0609439Y0308365D01*
X0609524Y0308502D01*
X0609612Y0308636D01*
X0609704Y0308768D01*
X0609799Y0308898D01*
X0609897Y0309026D01*
X0609998Y0309151D01*
X0610102Y0309273D01*
X0610209Y0309393D01*
X0610319Y0309510D01*
X0610432Y0309625D01*
X0610548Y0309736D01*
X0610667Y0309845D01*
X0610788Y0309950D01*
X0610912Y0310053D01*
X0611038Y0310153D01*
X0611166Y0310249D01*
X0611297Y0310342D01*
X0611431Y0310432D01*
X0611566Y0310519D01*
X0611704Y0310602D01*
X0611843Y0310682D01*
X0611985Y0310758D01*
X0612128Y0310831D01*
X0612273Y0310900D01*
X0612420Y0310966D01*
X0612568Y0311028D01*
X0612718Y0311086D01*
X0612869Y0311141D01*
X0613022Y0311192D01*
X0613176Y0311239D01*
X0613331Y0311282D01*
X0613487Y0311321D01*
X0613643Y0311357D01*
X0613801Y0311388D01*
X0613959Y0311416D01*
X0614118Y0311440D01*
X0614278Y0311460D01*
X0614438Y0311476D01*
X0614598Y0311488D01*
X0614759Y0311496D01*
X0614920Y0311500D01*
X0615080Y0311500D01*
X0615241Y0311496D01*
X0615402Y0311488D01*
X0615562Y0311476D01*
X0615722Y0311460D01*
X0615882Y0311440D01*
X0616041Y0311416D01*
X0616199Y0311388D01*
X0616357Y0311357D01*
X0616513Y0311321D01*
X0616669Y0311282D01*
X0616824Y0311239D01*
X0616978Y0311192D01*
X0617131Y0311141D01*
X0617282Y0311086D01*
X0617432Y0311028D01*
X0617580Y0310966D01*
X0617727Y0310900D01*
X0617872Y0310831D01*
X0618015Y0310758D01*
X0618157Y0310682D01*
X0618296Y0310602D01*
X0618434Y0310519D01*
X0618569Y0310432D01*
X0618703Y0310342D01*
X0618834Y0310249D01*
X0618962Y0310153D01*
X0619088Y0310053D01*
X0619212Y0309950D01*
X0619333Y0309845D01*
X0619452Y0309736D01*
X0619568Y0309625D01*
X0619681Y0309510D01*
X0619791Y0309393D01*
X0619898Y0309273D01*
X0620002Y0309151D01*
X0620103Y0309026D01*
X0620201Y0308898D01*
X0620296Y0308768D01*
X0620388Y0308636D01*
X0620476Y0308502D01*
X0620561Y0308365D01*
X0620643Y0308227D01*
X0620721Y0308086D01*
X0620795Y0307944D01*
X0620866Y0307800D01*
X0620934Y0307654D01*
X0620997Y0307506D01*
X0621058Y0307357D01*
X0621114Y0307206D01*
X0621167Y0307054D01*
X0621216Y0306901D01*
X0621261Y0306747D01*
X0621302Y0306592D01*
X0621340Y0306435D01*
X0621373Y0306278D01*
X0621403Y0306120D01*
X0621429Y0305961D01*
X0621450Y0305802D01*
X0621468Y0305642D01*
X0621482Y0305482D01*
X0621492Y0305321D01*
X0621498Y0305161D01*
X0621500Y0305000D01*
X0621498Y0304839D01*
X0621492Y0304679D01*
X0621482Y0304518D01*
X0621468Y0304358D01*
X0621450Y0304198D01*
X0621429Y0304039D01*
X0621403Y0303880D01*
X0621373Y0303722D01*
X0621340Y0303565D01*
X0621302Y0303408D01*
X0621261Y0303253D01*
X0621216Y0303099D01*
X0621167Y0302946D01*
X0621114Y0302794D01*
X0621058Y0302643D01*
X0620997Y0302494D01*
X0620934Y0302346D01*
X0620866Y0302200D01*
X0620795Y0302056D01*
X0620721Y0301914D01*
X0620643Y0301773D01*
X0620561Y0301635D01*
X0620476Y0301498D01*
X0620388Y0301364D01*
X0620296Y0301232D01*
X0620201Y0301102D01*
X0620103Y0300974D01*
X0620002Y0300849D01*
X0619898Y0300727D01*
X0619791Y0300607D01*
X0619681Y0300490D01*
X0619568Y0300375D01*
X0619452Y0300264D01*
X0619333Y0300155D01*
X0619212Y0300050D01*
X0619088Y0299947D01*
X0618962Y0299847D01*
X0618834Y0299751D01*
X0618703Y0299658D01*
X0618569Y0299568D01*
X0618434Y0299481D01*
X0618296Y0299398D01*
X0618157Y0299318D01*
X0618015Y0299242D01*
X0617872Y0299169D01*
X0617727Y0299100D01*
X0617580Y0299034D01*
X0617432Y0298972D01*
X0617282Y0298914D01*
X0617131Y0298859D01*
X0616978Y0298808D01*
X0616824Y0298761D01*
X0616669Y0298718D01*
X0616513Y0298679D01*
X0616357Y0298643D01*
X0616199Y0298612D01*
X0616041Y0298584D01*
X0615882Y0298560D01*
X0615722Y0298540D01*
X0615562Y0298524D01*
X0615402Y0298512D01*
X0615241Y0298504D01*
X0615080Y0298500D01*
X0614920Y0298500D01*
X0614759Y0298504D01*
X0614598Y0298512D01*
X0614438Y0298524D01*
X0614278Y0298540D01*
X0614118Y0298560D01*
X0613959Y0298584D01*
X0613801Y0298612D01*
X0613643Y0298643D01*
X0613487Y0298679D01*
X0613331Y0298718D01*
X0613176Y0298761D01*
X0613022Y0298808D01*
X0612869Y0298859D01*
X0612718Y0298914D01*
X0612568Y0298972D01*
X0612420Y0299034D01*
X0612273Y0299100D01*
X0612128Y0299169D01*
X0611985Y0299242D01*
X0611843Y0299318D01*
X0611704Y0299398D01*
X0611566Y0299481D01*
X0611431Y0299568D01*
X0611297Y0299658D01*
X0611166Y0299751D01*
X0611038Y0299847D01*
X0610912Y0299947D01*
X0610788Y0300050D01*
X0610667Y0300155D01*
X0610548Y0300264D01*
X0610432Y0300375D01*
X0610319Y0300490D01*
X0610209Y0300607D01*
X0610102Y0300727D01*
X0609998Y0300849D01*
X0609897Y0300974D01*
X0609799Y0301102D01*
X0609704Y0301232D01*
X0609612Y0301364D01*
X0609524Y0301498D01*
X0609439Y0301635D01*
X0609357Y0301773D01*
X0609279Y0301914D01*
X0609205Y0302056D01*
X0609134Y0302200D01*
X0609066Y0302346D01*
X0609003Y0302494D01*
X0608942Y0302643D01*
X0608886Y0302794D01*
X0608833Y0302946D01*
X0608784Y0303099D01*
X0608739Y0303253D01*
X0608698Y0303408D01*
X0608660Y0303565D01*
X0608627Y0303722D01*
X0608597Y0303880D01*
X0608571Y0304039D01*
X0608550Y0304198D01*
X0608532Y0304358D01*
X0608518Y0304518D01*
X0608508Y0304679D01*
X0608502Y0304839D01*
X0608500Y0305000D01*
X0608500Y0475000D02*
X0608502Y0475161D01*
X0608508Y0475321D01*
X0608518Y0475482D01*
X0608532Y0475642D01*
X0608550Y0475802D01*
X0608571Y0475961D01*
X0608597Y0476120D01*
X0608627Y0476278D01*
X0608660Y0476435D01*
X0608698Y0476592D01*
X0608739Y0476747D01*
X0608784Y0476901D01*
X0608833Y0477054D01*
X0608886Y0477206D01*
X0608942Y0477357D01*
X0609003Y0477506D01*
X0609066Y0477654D01*
X0609134Y0477800D01*
X0609205Y0477944D01*
X0609279Y0478086D01*
X0609357Y0478227D01*
X0609439Y0478365D01*
X0609524Y0478502D01*
X0609612Y0478636D01*
X0609704Y0478768D01*
X0609799Y0478898D01*
X0609897Y0479026D01*
X0609998Y0479151D01*
X0610102Y0479273D01*
X0610209Y0479393D01*
X0610319Y0479510D01*
X0610432Y0479625D01*
X0610548Y0479736D01*
X0610667Y0479845D01*
X0610788Y0479950D01*
X0610912Y0480053D01*
X0611038Y0480153D01*
X0611166Y0480249D01*
X0611297Y0480342D01*
X0611431Y0480432D01*
X0611566Y0480519D01*
X0611704Y0480602D01*
X0611843Y0480682D01*
X0611985Y0480758D01*
X0612128Y0480831D01*
X0612273Y0480900D01*
X0612420Y0480966D01*
X0612568Y0481028D01*
X0612718Y0481086D01*
X0612869Y0481141D01*
X0613022Y0481192D01*
X0613176Y0481239D01*
X0613331Y0481282D01*
X0613487Y0481321D01*
X0613643Y0481357D01*
X0613801Y0481388D01*
X0613959Y0481416D01*
X0614118Y0481440D01*
X0614278Y0481460D01*
X0614438Y0481476D01*
X0614598Y0481488D01*
X0614759Y0481496D01*
X0614920Y0481500D01*
X0615080Y0481500D01*
X0615241Y0481496D01*
X0615402Y0481488D01*
X0615562Y0481476D01*
X0615722Y0481460D01*
X0615882Y0481440D01*
X0616041Y0481416D01*
X0616199Y0481388D01*
X0616357Y0481357D01*
X0616513Y0481321D01*
X0616669Y0481282D01*
X0616824Y0481239D01*
X0616978Y0481192D01*
X0617131Y0481141D01*
X0617282Y0481086D01*
X0617432Y0481028D01*
X0617580Y0480966D01*
X0617727Y0480900D01*
X0617872Y0480831D01*
X0618015Y0480758D01*
X0618157Y0480682D01*
X0618296Y0480602D01*
X0618434Y0480519D01*
X0618569Y0480432D01*
X0618703Y0480342D01*
X0618834Y0480249D01*
X0618962Y0480153D01*
X0619088Y0480053D01*
X0619212Y0479950D01*
X0619333Y0479845D01*
X0619452Y0479736D01*
X0619568Y0479625D01*
X0619681Y0479510D01*
X0619791Y0479393D01*
X0619898Y0479273D01*
X0620002Y0479151D01*
X0620103Y0479026D01*
X0620201Y0478898D01*
X0620296Y0478768D01*
X0620388Y0478636D01*
X0620476Y0478502D01*
X0620561Y0478365D01*
X0620643Y0478227D01*
X0620721Y0478086D01*
X0620795Y0477944D01*
X0620866Y0477800D01*
X0620934Y0477654D01*
X0620997Y0477506D01*
X0621058Y0477357D01*
X0621114Y0477206D01*
X0621167Y0477054D01*
X0621216Y0476901D01*
X0621261Y0476747D01*
X0621302Y0476592D01*
X0621340Y0476435D01*
X0621373Y0476278D01*
X0621403Y0476120D01*
X0621429Y0475961D01*
X0621450Y0475802D01*
X0621468Y0475642D01*
X0621482Y0475482D01*
X0621492Y0475321D01*
X0621498Y0475161D01*
X0621500Y0475000D01*
X0621498Y0474839D01*
X0621492Y0474679D01*
X0621482Y0474518D01*
X0621468Y0474358D01*
X0621450Y0474198D01*
X0621429Y0474039D01*
X0621403Y0473880D01*
X0621373Y0473722D01*
X0621340Y0473565D01*
X0621302Y0473408D01*
X0621261Y0473253D01*
X0621216Y0473099D01*
X0621167Y0472946D01*
X0621114Y0472794D01*
X0621058Y0472643D01*
X0620997Y0472494D01*
X0620934Y0472346D01*
X0620866Y0472200D01*
X0620795Y0472056D01*
X0620721Y0471914D01*
X0620643Y0471773D01*
X0620561Y0471635D01*
X0620476Y0471498D01*
X0620388Y0471364D01*
X0620296Y0471232D01*
X0620201Y0471102D01*
X0620103Y0470974D01*
X0620002Y0470849D01*
X0619898Y0470727D01*
X0619791Y0470607D01*
X0619681Y0470490D01*
X0619568Y0470375D01*
X0619452Y0470264D01*
X0619333Y0470155D01*
X0619212Y0470050D01*
X0619088Y0469947D01*
X0618962Y0469847D01*
X0618834Y0469751D01*
X0618703Y0469658D01*
X0618569Y0469568D01*
X0618434Y0469481D01*
X0618296Y0469398D01*
X0618157Y0469318D01*
X0618015Y0469242D01*
X0617872Y0469169D01*
X0617727Y0469100D01*
X0617580Y0469034D01*
X0617432Y0468972D01*
X0617282Y0468914D01*
X0617131Y0468859D01*
X0616978Y0468808D01*
X0616824Y0468761D01*
X0616669Y0468718D01*
X0616513Y0468679D01*
X0616357Y0468643D01*
X0616199Y0468612D01*
X0616041Y0468584D01*
X0615882Y0468560D01*
X0615722Y0468540D01*
X0615562Y0468524D01*
X0615402Y0468512D01*
X0615241Y0468504D01*
X0615080Y0468500D01*
X0614920Y0468500D01*
X0614759Y0468504D01*
X0614598Y0468512D01*
X0614438Y0468524D01*
X0614278Y0468540D01*
X0614118Y0468560D01*
X0613959Y0468584D01*
X0613801Y0468612D01*
X0613643Y0468643D01*
X0613487Y0468679D01*
X0613331Y0468718D01*
X0613176Y0468761D01*
X0613022Y0468808D01*
X0612869Y0468859D01*
X0612718Y0468914D01*
X0612568Y0468972D01*
X0612420Y0469034D01*
X0612273Y0469100D01*
X0612128Y0469169D01*
X0611985Y0469242D01*
X0611843Y0469318D01*
X0611704Y0469398D01*
X0611566Y0469481D01*
X0611431Y0469568D01*
X0611297Y0469658D01*
X0611166Y0469751D01*
X0611038Y0469847D01*
X0610912Y0469947D01*
X0610788Y0470050D01*
X0610667Y0470155D01*
X0610548Y0470264D01*
X0610432Y0470375D01*
X0610319Y0470490D01*
X0610209Y0470607D01*
X0610102Y0470727D01*
X0609998Y0470849D01*
X0609897Y0470974D01*
X0609799Y0471102D01*
X0609704Y0471232D01*
X0609612Y0471364D01*
X0609524Y0471498D01*
X0609439Y0471635D01*
X0609357Y0471773D01*
X0609279Y0471914D01*
X0609205Y0472056D01*
X0609134Y0472200D01*
X0609066Y0472346D01*
X0609003Y0472494D01*
X0608942Y0472643D01*
X0608886Y0472794D01*
X0608833Y0472946D01*
X0608784Y0473099D01*
X0608739Y0473253D01*
X0608698Y0473408D01*
X0608660Y0473565D01*
X0608627Y0473722D01*
X0608597Y0473880D01*
X0608571Y0474039D01*
X0608550Y0474198D01*
X0608532Y0474358D01*
X0608518Y0474518D01*
X0608508Y0474679D01*
X0608502Y0474839D01*
X0608500Y0475000D01*
X0338500Y0475000D02*
X0338502Y0475161D01*
X0338508Y0475321D01*
X0338518Y0475482D01*
X0338532Y0475642D01*
X0338550Y0475802D01*
X0338571Y0475961D01*
X0338597Y0476120D01*
X0338627Y0476278D01*
X0338660Y0476435D01*
X0338698Y0476592D01*
X0338739Y0476747D01*
X0338784Y0476901D01*
X0338833Y0477054D01*
X0338886Y0477206D01*
X0338942Y0477357D01*
X0339003Y0477506D01*
X0339066Y0477654D01*
X0339134Y0477800D01*
X0339205Y0477944D01*
X0339279Y0478086D01*
X0339357Y0478227D01*
X0339439Y0478365D01*
X0339524Y0478502D01*
X0339612Y0478636D01*
X0339704Y0478768D01*
X0339799Y0478898D01*
X0339897Y0479026D01*
X0339998Y0479151D01*
X0340102Y0479273D01*
X0340209Y0479393D01*
X0340319Y0479510D01*
X0340432Y0479625D01*
X0340548Y0479736D01*
X0340667Y0479845D01*
X0340788Y0479950D01*
X0340912Y0480053D01*
X0341038Y0480153D01*
X0341166Y0480249D01*
X0341297Y0480342D01*
X0341431Y0480432D01*
X0341566Y0480519D01*
X0341704Y0480602D01*
X0341843Y0480682D01*
X0341985Y0480758D01*
X0342128Y0480831D01*
X0342273Y0480900D01*
X0342420Y0480966D01*
X0342568Y0481028D01*
X0342718Y0481086D01*
X0342869Y0481141D01*
X0343022Y0481192D01*
X0343176Y0481239D01*
X0343331Y0481282D01*
X0343487Y0481321D01*
X0343643Y0481357D01*
X0343801Y0481388D01*
X0343959Y0481416D01*
X0344118Y0481440D01*
X0344278Y0481460D01*
X0344438Y0481476D01*
X0344598Y0481488D01*
X0344759Y0481496D01*
X0344920Y0481500D01*
X0345080Y0481500D01*
X0345241Y0481496D01*
X0345402Y0481488D01*
X0345562Y0481476D01*
X0345722Y0481460D01*
X0345882Y0481440D01*
X0346041Y0481416D01*
X0346199Y0481388D01*
X0346357Y0481357D01*
X0346513Y0481321D01*
X0346669Y0481282D01*
X0346824Y0481239D01*
X0346978Y0481192D01*
X0347131Y0481141D01*
X0347282Y0481086D01*
X0347432Y0481028D01*
X0347580Y0480966D01*
X0347727Y0480900D01*
X0347872Y0480831D01*
X0348015Y0480758D01*
X0348157Y0480682D01*
X0348296Y0480602D01*
X0348434Y0480519D01*
X0348569Y0480432D01*
X0348703Y0480342D01*
X0348834Y0480249D01*
X0348962Y0480153D01*
X0349088Y0480053D01*
X0349212Y0479950D01*
X0349333Y0479845D01*
X0349452Y0479736D01*
X0349568Y0479625D01*
X0349681Y0479510D01*
X0349791Y0479393D01*
X0349898Y0479273D01*
X0350002Y0479151D01*
X0350103Y0479026D01*
X0350201Y0478898D01*
X0350296Y0478768D01*
X0350388Y0478636D01*
X0350476Y0478502D01*
X0350561Y0478365D01*
X0350643Y0478227D01*
X0350721Y0478086D01*
X0350795Y0477944D01*
X0350866Y0477800D01*
X0350934Y0477654D01*
X0350997Y0477506D01*
X0351058Y0477357D01*
X0351114Y0477206D01*
X0351167Y0477054D01*
X0351216Y0476901D01*
X0351261Y0476747D01*
X0351302Y0476592D01*
X0351340Y0476435D01*
X0351373Y0476278D01*
X0351403Y0476120D01*
X0351429Y0475961D01*
X0351450Y0475802D01*
X0351468Y0475642D01*
X0351482Y0475482D01*
X0351492Y0475321D01*
X0351498Y0475161D01*
X0351500Y0475000D01*
X0351498Y0474839D01*
X0351492Y0474679D01*
X0351482Y0474518D01*
X0351468Y0474358D01*
X0351450Y0474198D01*
X0351429Y0474039D01*
X0351403Y0473880D01*
X0351373Y0473722D01*
X0351340Y0473565D01*
X0351302Y0473408D01*
X0351261Y0473253D01*
X0351216Y0473099D01*
X0351167Y0472946D01*
X0351114Y0472794D01*
X0351058Y0472643D01*
X0350997Y0472494D01*
X0350934Y0472346D01*
X0350866Y0472200D01*
X0350795Y0472056D01*
X0350721Y0471914D01*
X0350643Y0471773D01*
X0350561Y0471635D01*
X0350476Y0471498D01*
X0350388Y0471364D01*
X0350296Y0471232D01*
X0350201Y0471102D01*
X0350103Y0470974D01*
X0350002Y0470849D01*
X0349898Y0470727D01*
X0349791Y0470607D01*
X0349681Y0470490D01*
X0349568Y0470375D01*
X0349452Y0470264D01*
X0349333Y0470155D01*
X0349212Y0470050D01*
X0349088Y0469947D01*
X0348962Y0469847D01*
X0348834Y0469751D01*
X0348703Y0469658D01*
X0348569Y0469568D01*
X0348434Y0469481D01*
X0348296Y0469398D01*
X0348157Y0469318D01*
X0348015Y0469242D01*
X0347872Y0469169D01*
X0347727Y0469100D01*
X0347580Y0469034D01*
X0347432Y0468972D01*
X0347282Y0468914D01*
X0347131Y0468859D01*
X0346978Y0468808D01*
X0346824Y0468761D01*
X0346669Y0468718D01*
X0346513Y0468679D01*
X0346357Y0468643D01*
X0346199Y0468612D01*
X0346041Y0468584D01*
X0345882Y0468560D01*
X0345722Y0468540D01*
X0345562Y0468524D01*
X0345402Y0468512D01*
X0345241Y0468504D01*
X0345080Y0468500D01*
X0344920Y0468500D01*
X0344759Y0468504D01*
X0344598Y0468512D01*
X0344438Y0468524D01*
X0344278Y0468540D01*
X0344118Y0468560D01*
X0343959Y0468584D01*
X0343801Y0468612D01*
X0343643Y0468643D01*
X0343487Y0468679D01*
X0343331Y0468718D01*
X0343176Y0468761D01*
X0343022Y0468808D01*
X0342869Y0468859D01*
X0342718Y0468914D01*
X0342568Y0468972D01*
X0342420Y0469034D01*
X0342273Y0469100D01*
X0342128Y0469169D01*
X0341985Y0469242D01*
X0341843Y0469318D01*
X0341704Y0469398D01*
X0341566Y0469481D01*
X0341431Y0469568D01*
X0341297Y0469658D01*
X0341166Y0469751D01*
X0341038Y0469847D01*
X0340912Y0469947D01*
X0340788Y0470050D01*
X0340667Y0470155D01*
X0340548Y0470264D01*
X0340432Y0470375D01*
X0340319Y0470490D01*
X0340209Y0470607D01*
X0340102Y0470727D01*
X0339998Y0470849D01*
X0339897Y0470974D01*
X0339799Y0471102D01*
X0339704Y0471232D01*
X0339612Y0471364D01*
X0339524Y0471498D01*
X0339439Y0471635D01*
X0339357Y0471773D01*
X0339279Y0471914D01*
X0339205Y0472056D01*
X0339134Y0472200D01*
X0339066Y0472346D01*
X0339003Y0472494D01*
X0338942Y0472643D01*
X0338886Y0472794D01*
X0338833Y0472946D01*
X0338784Y0473099D01*
X0338739Y0473253D01*
X0338698Y0473408D01*
X0338660Y0473565D01*
X0338627Y0473722D01*
X0338597Y0473880D01*
X0338571Y0474039D01*
X0338550Y0474198D01*
X0338532Y0474358D01*
X0338518Y0474518D01*
X0338508Y0474679D01*
X0338502Y0474839D01*
X0338500Y0475000D01*
X0338500Y0305000D02*
X0338502Y0305161D01*
X0338508Y0305321D01*
X0338518Y0305482D01*
X0338532Y0305642D01*
X0338550Y0305802D01*
X0338571Y0305961D01*
X0338597Y0306120D01*
X0338627Y0306278D01*
X0338660Y0306435D01*
X0338698Y0306592D01*
X0338739Y0306747D01*
X0338784Y0306901D01*
X0338833Y0307054D01*
X0338886Y0307206D01*
X0338942Y0307357D01*
X0339003Y0307506D01*
X0339066Y0307654D01*
X0339134Y0307800D01*
X0339205Y0307944D01*
X0339279Y0308086D01*
X0339357Y0308227D01*
X0339439Y0308365D01*
X0339524Y0308502D01*
X0339612Y0308636D01*
X0339704Y0308768D01*
X0339799Y0308898D01*
X0339897Y0309026D01*
X0339998Y0309151D01*
X0340102Y0309273D01*
X0340209Y0309393D01*
X0340319Y0309510D01*
X0340432Y0309625D01*
X0340548Y0309736D01*
X0340667Y0309845D01*
X0340788Y0309950D01*
X0340912Y0310053D01*
X0341038Y0310153D01*
X0341166Y0310249D01*
X0341297Y0310342D01*
X0341431Y0310432D01*
X0341566Y0310519D01*
X0341704Y0310602D01*
X0341843Y0310682D01*
X0341985Y0310758D01*
X0342128Y0310831D01*
X0342273Y0310900D01*
X0342420Y0310966D01*
X0342568Y0311028D01*
X0342718Y0311086D01*
X0342869Y0311141D01*
X0343022Y0311192D01*
X0343176Y0311239D01*
X0343331Y0311282D01*
X0343487Y0311321D01*
X0343643Y0311357D01*
X0343801Y0311388D01*
X0343959Y0311416D01*
X0344118Y0311440D01*
X0344278Y0311460D01*
X0344438Y0311476D01*
X0344598Y0311488D01*
X0344759Y0311496D01*
X0344920Y0311500D01*
X0345080Y0311500D01*
X0345241Y0311496D01*
X0345402Y0311488D01*
X0345562Y0311476D01*
X0345722Y0311460D01*
X0345882Y0311440D01*
X0346041Y0311416D01*
X0346199Y0311388D01*
X0346357Y0311357D01*
X0346513Y0311321D01*
X0346669Y0311282D01*
X0346824Y0311239D01*
X0346978Y0311192D01*
X0347131Y0311141D01*
X0347282Y0311086D01*
X0347432Y0311028D01*
X0347580Y0310966D01*
X0347727Y0310900D01*
X0347872Y0310831D01*
X0348015Y0310758D01*
X0348157Y0310682D01*
X0348296Y0310602D01*
X0348434Y0310519D01*
X0348569Y0310432D01*
X0348703Y0310342D01*
X0348834Y0310249D01*
X0348962Y0310153D01*
X0349088Y0310053D01*
X0349212Y0309950D01*
X0349333Y0309845D01*
X0349452Y0309736D01*
X0349568Y0309625D01*
X0349681Y0309510D01*
X0349791Y0309393D01*
X0349898Y0309273D01*
X0350002Y0309151D01*
X0350103Y0309026D01*
X0350201Y0308898D01*
X0350296Y0308768D01*
X0350388Y0308636D01*
X0350476Y0308502D01*
X0350561Y0308365D01*
X0350643Y0308227D01*
X0350721Y0308086D01*
X0350795Y0307944D01*
X0350866Y0307800D01*
X0350934Y0307654D01*
X0350997Y0307506D01*
X0351058Y0307357D01*
X0351114Y0307206D01*
X0351167Y0307054D01*
X0351216Y0306901D01*
X0351261Y0306747D01*
X0351302Y0306592D01*
X0351340Y0306435D01*
X0351373Y0306278D01*
X0351403Y0306120D01*
X0351429Y0305961D01*
X0351450Y0305802D01*
X0351468Y0305642D01*
X0351482Y0305482D01*
X0351492Y0305321D01*
X0351498Y0305161D01*
X0351500Y0305000D01*
X0351498Y0304839D01*
X0351492Y0304679D01*
X0351482Y0304518D01*
X0351468Y0304358D01*
X0351450Y0304198D01*
X0351429Y0304039D01*
X0351403Y0303880D01*
X0351373Y0303722D01*
X0351340Y0303565D01*
X0351302Y0303408D01*
X0351261Y0303253D01*
X0351216Y0303099D01*
X0351167Y0302946D01*
X0351114Y0302794D01*
X0351058Y0302643D01*
X0350997Y0302494D01*
X0350934Y0302346D01*
X0350866Y0302200D01*
X0350795Y0302056D01*
X0350721Y0301914D01*
X0350643Y0301773D01*
X0350561Y0301635D01*
X0350476Y0301498D01*
X0350388Y0301364D01*
X0350296Y0301232D01*
X0350201Y0301102D01*
X0350103Y0300974D01*
X0350002Y0300849D01*
X0349898Y0300727D01*
X0349791Y0300607D01*
X0349681Y0300490D01*
X0349568Y0300375D01*
X0349452Y0300264D01*
X0349333Y0300155D01*
X0349212Y0300050D01*
X0349088Y0299947D01*
X0348962Y0299847D01*
X0348834Y0299751D01*
X0348703Y0299658D01*
X0348569Y0299568D01*
X0348434Y0299481D01*
X0348296Y0299398D01*
X0348157Y0299318D01*
X0348015Y0299242D01*
X0347872Y0299169D01*
X0347727Y0299100D01*
X0347580Y0299034D01*
X0347432Y0298972D01*
X0347282Y0298914D01*
X0347131Y0298859D01*
X0346978Y0298808D01*
X0346824Y0298761D01*
X0346669Y0298718D01*
X0346513Y0298679D01*
X0346357Y0298643D01*
X0346199Y0298612D01*
X0346041Y0298584D01*
X0345882Y0298560D01*
X0345722Y0298540D01*
X0345562Y0298524D01*
X0345402Y0298512D01*
X0345241Y0298504D01*
X0345080Y0298500D01*
X0344920Y0298500D01*
X0344759Y0298504D01*
X0344598Y0298512D01*
X0344438Y0298524D01*
X0344278Y0298540D01*
X0344118Y0298560D01*
X0343959Y0298584D01*
X0343801Y0298612D01*
X0343643Y0298643D01*
X0343487Y0298679D01*
X0343331Y0298718D01*
X0343176Y0298761D01*
X0343022Y0298808D01*
X0342869Y0298859D01*
X0342718Y0298914D01*
X0342568Y0298972D01*
X0342420Y0299034D01*
X0342273Y0299100D01*
X0342128Y0299169D01*
X0341985Y0299242D01*
X0341843Y0299318D01*
X0341704Y0299398D01*
X0341566Y0299481D01*
X0341431Y0299568D01*
X0341297Y0299658D01*
X0341166Y0299751D01*
X0341038Y0299847D01*
X0340912Y0299947D01*
X0340788Y0300050D01*
X0340667Y0300155D01*
X0340548Y0300264D01*
X0340432Y0300375D01*
X0340319Y0300490D01*
X0340209Y0300607D01*
X0340102Y0300727D01*
X0339998Y0300849D01*
X0339897Y0300974D01*
X0339799Y0301102D01*
X0339704Y0301232D01*
X0339612Y0301364D01*
X0339524Y0301498D01*
X0339439Y0301635D01*
X0339357Y0301773D01*
X0339279Y0301914D01*
X0339205Y0302056D01*
X0339134Y0302200D01*
X0339066Y0302346D01*
X0339003Y0302494D01*
X0338942Y0302643D01*
X0338886Y0302794D01*
X0338833Y0302946D01*
X0338784Y0303099D01*
X0338739Y0303253D01*
X0338698Y0303408D01*
X0338660Y0303565D01*
X0338627Y0303722D01*
X0338597Y0303880D01*
X0338571Y0304039D01*
X0338550Y0304198D01*
X0338532Y0304358D01*
X0338518Y0304518D01*
X0338508Y0304679D01*
X0338502Y0304839D01*
X0338500Y0305000D01*
M02*
