%
M48
M72
T01C0.02400
T02C0.03200
T03C0.03800
T04C0.03937
T05C0.04000
T06C0.06299
T07C0.12598
%
T01
X136404Y62083
X136404Y117201
X158058Y146728
X189554Y134917
X199396Y147122
X238766Y192004
X120656Y164445
X248609Y89642
X226955Y56177
T02
X235203Y58618
X242703Y53618
X242703Y63618
X272605Y51925
X280105Y46925
X280105Y56925
X236955Y157319
X229455Y162319
X236955Y167319
T03
X266168Y166295
X266168Y176295
X266168Y186295
X266168Y196295
X266168Y206295
X266168Y216295
X266168Y226295
X326168Y226295
X326168Y216295
X326168Y206295
X326168Y196295
X326168Y186295
X326168Y176295
X326168Y166295
X326168Y156295
X326168Y146295
X326168Y136295
X326168Y126295
X326168Y116295
X326168Y106295
X326168Y96295
X316168Y96295
X306168Y96295
X296168Y96295
X286168Y96295
X276168Y96295
X266168Y96295
X266168Y106295
X266168Y116295
X266168Y126295
X266168Y136295
X266168Y146295
X266168Y156295
T04
X107507Y144524
X107507Y104524
X107507Y84524
X107507Y44524
T05
X86719Y74051
X86719Y84051
X86719Y94051
X87113Y115154
X87113Y125154
X87113Y135154
X88058Y155154
X88058Y165154
X88058Y175154
X88058Y194445
X88058Y204445
X88058Y214445
X158007Y96965
X217007Y96965
X217007Y53697
X158007Y53697
X301325Y55390
X311325Y55390
X321325Y55390
X331325Y55390
X352625Y68185
X352625Y78185
X352625Y88185
X353018Y106020
X353018Y116020
X353018Y126020
X353018Y143028
X353018Y153028
X353018Y163028
X353018Y180154
X353018Y190154
X353018Y200154
T06
X195459Y197516
X178924Y197516
X178924Y219169
X195459Y219169
T07
X80105Y47122
X354908Y47122
X354908Y221925
X117507Y221925
M30
