G75*
%MOIN*%
%OFA0B0*%
%FSLAX25Y25*%
%IPPOS*%
%LPD*%
%AMOC8*
5,1,8,0,0,1.08239X$1,22.5*
%
%ADD10R,0.09400X0.09400*%
%ADD11C,0.06400*%
%ADD12OC8,0.06400*%
%ADD13C,0.06200*%
%ADD14C,0.09400*%
%ADD15C,0.13400*%
%ADD16C,0.08200*%
D10*
X0461750Y0306750D03*
X0461750Y0323250D03*
X0478250Y0323250D03*
X0478250Y0306750D03*
D11*
X0604500Y0345000D02*
X0610500Y0345000D01*
X0610500Y0355000D02*
X0604500Y0355000D01*
X0604500Y0365000D02*
X0610500Y0365000D01*
X0610500Y0375000D02*
X0604500Y0375000D01*
X0610000Y0328000D02*
X0610000Y0322000D01*
X0620000Y0322000D02*
X0620000Y0328000D01*
D12*
X0475000Y0387500D03*
X0475000Y0397500D03*
X0465000Y0397500D03*
X0465000Y0387500D03*
X0455000Y0387500D03*
X0455000Y0397500D03*
X0385000Y0395000D03*
X0385000Y0385000D03*
X0375000Y0385000D03*
X0375000Y0395000D03*
X0375000Y0405000D03*
X0365000Y0405000D03*
X0365000Y0395000D03*
X0365000Y0385000D03*
X0365000Y0375000D03*
X0365000Y0365000D03*
X0365000Y0355000D03*
X0375000Y0355000D03*
X0375000Y0365000D03*
X0375000Y0375000D03*
X0385000Y0375000D03*
X0385000Y0365000D03*
X0385000Y0355000D03*
X0385000Y0405000D03*
X0385000Y0415000D03*
X0385000Y0425000D03*
X0375000Y0425000D03*
X0375000Y0415000D03*
X0365000Y0415000D03*
X0365000Y0425000D03*
X0365000Y0435000D03*
X0365000Y0445000D03*
X0365000Y0455000D03*
X0375000Y0455000D03*
X0375000Y0445000D03*
X0375000Y0435000D03*
X0385000Y0435000D03*
X0385000Y0445000D03*
X0385000Y0455000D03*
X0385000Y0465000D03*
X0375000Y0465000D03*
X0365000Y0465000D03*
X0425000Y0472500D03*
X0425000Y0482500D03*
X0435000Y0482500D03*
X0435000Y0472500D03*
X0445000Y0472500D03*
X0445000Y0482500D03*
X0455000Y0482500D03*
X0455000Y0472500D03*
X0465000Y0472500D03*
X0465000Y0482500D03*
X0475000Y0482500D03*
X0475000Y0472500D03*
X0505000Y0472500D03*
X0505000Y0482500D03*
X0515000Y0482500D03*
X0515000Y0472500D03*
X0525000Y0472500D03*
X0525000Y0482500D03*
X0560000Y0482500D03*
X0560000Y0472500D03*
X0570000Y0472500D03*
X0570000Y0482500D03*
X0580000Y0482500D03*
X0580000Y0472500D03*
X0590000Y0472500D03*
X0590000Y0482500D03*
D13*
X0590000Y0455000D03*
X0580000Y0455000D03*
X0570000Y0455000D03*
X0560000Y0455000D03*
X0550000Y0455000D03*
X0540000Y0455000D03*
X0530000Y0455000D03*
X0520000Y0455000D03*
X0510000Y0455000D03*
X0500000Y0455000D03*
X0490000Y0455000D03*
X0490000Y0395000D03*
X0500000Y0395000D03*
X0510000Y0395000D03*
X0520000Y0395000D03*
X0530000Y0395000D03*
X0540000Y0395000D03*
X0550000Y0395000D03*
X0560000Y0395000D03*
X0570000Y0395000D03*
X0580000Y0395000D03*
X0590000Y0395000D03*
X0600000Y0395000D03*
X0610000Y0395000D03*
X0620000Y0395000D03*
X0620000Y0455000D03*
X0610000Y0455000D03*
X0600000Y0455000D03*
D14*
X0580000Y0319500D02*
X0580000Y0310500D01*
X0560000Y0310500D02*
X0560000Y0319500D01*
X0525000Y0319500D02*
X0525000Y0310500D01*
X0505000Y0310500D02*
X0505000Y0319500D01*
D15*
X0345000Y0305000D03*
X0345000Y0475000D03*
X0615000Y0475000D03*
X0615000Y0305000D03*
D16*
X0440000Y0315000D03*
X0430000Y0315000D03*
X0420000Y0315000D03*
X0410000Y0315000D03*
X0400000Y0315000D03*
M02*
