%
M48
M72
T01C0.01378
T02C0.01969
T03C0.03800
T04C0.04000
T05C0.05200
T06C0.06000
T07C0.13000
%
T01
X541250Y348750
X541250Y357500
X505000Y400000
X515000Y425000
X535000Y407500
X580000Y421875
X608750Y403125
X610000Y440000
X485000Y470000
X480000Y460000
X446250Y455625
X450000Y425000
X466250Y421250
X465625Y406875
X405000Y420000
X400000Y425000
X395000Y430000
T02
X402500Y372500
X402500Y367500
X402500Y362500
X412500Y362500
X412500Y367500
X412500Y372500
X422500Y372500
X422500Y367500
X422500Y362500
X432500Y362500
X432500Y367500
X432500Y372500
X457500Y367500
X477500Y367500
X492500Y369375
X497500Y369375
X502500Y369375
X507500Y369375
X512500Y369375
X547500Y369375
X552500Y369375
X557500Y369375
X562500Y369375
X567500Y369375
X485000Y435000
X492500Y445000
X555000Y445000
T03
X550000Y455000
X540000Y455000
X530000Y455000
X520000Y455000
X510000Y455000
X500000Y455000
X490000Y455000
X560000Y455000
X570000Y455000
X580000Y455000
X590000Y455000
X600000Y455000
X610000Y455000
X620000Y455000
X620000Y395000
X610000Y395000
X600000Y395000
X590000Y395000
X580000Y395000
X570000Y395000
X560000Y395000
X550000Y395000
X540000Y395000
X530000Y395000
X520000Y395000
X510000Y395000
X500000Y395000
X490000Y395000
T04
X475000Y397500
X475000Y387500
X465000Y387500
X465000Y397500
X455000Y397500
X455000Y387500
X385000Y385000
X385000Y395000
X385000Y405000
X375000Y405000
X375000Y395000
X375000Y385000
X365000Y385000
X365000Y395000
X365000Y405000
X365000Y415000
X365000Y425000
X375000Y425000
X375000Y415000
X385000Y415000
X385000Y425000
X385000Y435000
X385000Y445000
X385000Y455000
X375000Y455000
X375000Y445000
X375000Y435000
X365000Y435000
X365000Y445000
X365000Y455000
X365000Y465000
X375000Y465000
X385000Y465000
X425000Y472500
X425000Y482500
X435000Y482500
X435000Y472500
X445000Y472500
X445000Y482500
X455000Y482500
X455000Y472500
X465000Y472500
X465000Y482500
X475000Y482500
X475000Y472500
X505000Y472500
X505000Y482500
X515000Y482500
X515000Y472500
X525000Y472500
X525000Y482500
X560000Y482500
X560000Y472500
X570000Y472500
X570000Y482500
X580000Y482500
X580000Y472500
X590000Y472500
X590000Y482500
X607500Y375000
X607500Y365000
X607500Y355000
X607500Y345000
X610000Y325000
X620000Y325000
X385000Y355000
X385000Y365000
X385000Y375000
X375000Y375000
X375000Y365000
X375000Y355000
X365000Y355000
X365000Y365000
X365000Y375000
T05
X400000Y315000
X410000Y315000
X420000Y315000
X430000Y315000
X440000Y315000
T06
X461750Y306750
X461750Y323250
X478250Y323250
X478250Y306750
X505000Y315000
X525000Y315000
X560000Y315000
X580000Y315000
T07
X345000Y305000
X345000Y475000
X615000Y475000
X615000Y305000
M30
