G75*
%MOIN*%
%OFA0B0*%
%FSLAX25Y25*%
%IPPOS*%
%LPD*%
%AMOC8*
5,1,8,0,0,1.08239X$1,22.5*
%
%ADD10R,0.09000X0.09000*%
%ADD11OC8,0.06000*%
%ADD12C,0.06000*%
%ADD13C,0.05800*%
%ADD14C,0.09000*%
%ADD15C,0.07800*%
%ADD16C,0.07500*%
%ADD17C,0.03169*%
%ADD18C,0.01000*%
%ADD19C,0.02578*%
%ADD20C,0.10000*%
%ADD21C,0.03365*%
%ADD22C,0.04000*%
%ADD23C,0.03200*%
%ADD24C,0.01600*%
%ADD25C,0.02000*%
D10*
X0451750Y0306750D03*
X0451750Y0323250D03*
X0468250Y0323250D03*
X0468250Y0306750D03*
X0385125Y0477500D03*
X0368625Y0477500D03*
D11*
X0365000Y0450000D03*
X0355000Y0450000D03*
X0355000Y0440000D03*
X0355000Y0430000D03*
X0365000Y0430000D03*
X0365000Y0440000D03*
X0375000Y0440000D03*
X0375000Y0430000D03*
X0375000Y0420000D03*
X0375000Y0410000D03*
X0375000Y0400000D03*
X0365000Y0400000D03*
X0365000Y0410000D03*
X0365000Y0420000D03*
X0355000Y0420000D03*
X0355000Y0410000D03*
X0355000Y0400000D03*
X0355000Y0390000D03*
X0355000Y0380000D03*
X0355000Y0370000D03*
X0365000Y0370000D03*
X0365000Y0380000D03*
X0365000Y0390000D03*
X0375000Y0390000D03*
X0375000Y0380000D03*
X0375000Y0370000D03*
X0375000Y0360000D03*
X0375000Y0350000D03*
X0375000Y0340000D03*
X0365000Y0340000D03*
X0365000Y0350000D03*
X0365000Y0360000D03*
X0355000Y0360000D03*
X0355000Y0350000D03*
X0355000Y0340000D03*
X0455000Y0387500D03*
X0455000Y0397500D03*
X0465000Y0397500D03*
X0465000Y0387500D03*
X0475000Y0387500D03*
X0475000Y0397500D03*
X0475000Y0472500D03*
X0475000Y0482500D03*
X0465000Y0482500D03*
X0465000Y0472500D03*
X0455000Y0472500D03*
X0455000Y0482500D03*
X0445000Y0482500D03*
X0445000Y0472500D03*
X0435000Y0472500D03*
X0435000Y0482500D03*
X0425000Y0482500D03*
X0425000Y0472500D03*
X0375000Y0450000D03*
X0505000Y0472500D03*
X0505000Y0482500D03*
X0515000Y0482500D03*
X0515000Y0472500D03*
X0525000Y0472500D03*
X0525000Y0482500D03*
X0560000Y0482500D03*
X0560000Y0472500D03*
X0570000Y0472500D03*
X0570000Y0482500D03*
X0580000Y0482500D03*
X0580000Y0472500D03*
X0590000Y0472500D03*
X0590000Y0482500D03*
D12*
X0587000Y0310000D02*
X0593000Y0310000D01*
X0593000Y0300000D02*
X0587000Y0300000D01*
D13*
X0590000Y0395000D03*
X0580000Y0395000D03*
X0570000Y0395000D03*
X0560000Y0395000D03*
X0550000Y0395000D03*
X0540000Y0395000D03*
X0530000Y0395000D03*
X0520000Y0395000D03*
X0510000Y0395000D03*
X0500000Y0395000D03*
X0490000Y0395000D03*
X0490000Y0455000D03*
X0500000Y0455000D03*
X0510000Y0455000D03*
X0520000Y0455000D03*
X0530000Y0455000D03*
X0540000Y0455000D03*
X0550000Y0455000D03*
X0560000Y0455000D03*
X0570000Y0455000D03*
X0580000Y0455000D03*
X0590000Y0455000D03*
X0600000Y0455000D03*
X0610000Y0455000D03*
X0620000Y0455000D03*
X0620000Y0395000D03*
X0610000Y0395000D03*
X0600000Y0395000D03*
D14*
X0570000Y0319500D02*
X0570000Y0310500D01*
X0550000Y0310500D02*
X0550000Y0319500D01*
X0515000Y0319500D02*
X0515000Y0310500D01*
X0495000Y0310500D02*
X0495000Y0319500D01*
D15*
X0430000Y0315000D03*
X0420000Y0315000D03*
X0410000Y0315000D03*
X0400000Y0315000D03*
X0390000Y0315000D03*
D16*
X0615000Y0325000D03*
X0615000Y0335000D03*
D17*
X0557500Y0369375D03*
X0552500Y0369375D03*
X0547500Y0369375D03*
X0542500Y0369375D03*
X0537500Y0369375D03*
X0502500Y0369375D03*
X0497500Y0369375D03*
X0492500Y0369375D03*
X0487500Y0369375D03*
X0482500Y0369375D03*
X0467500Y0367500D03*
X0447500Y0367500D03*
X0422500Y0367500D03*
X0422500Y0362500D03*
X0422500Y0372500D03*
X0412500Y0372500D03*
X0412500Y0367500D03*
X0412500Y0362500D03*
X0402500Y0362500D03*
X0402500Y0367500D03*
X0402500Y0372500D03*
X0392500Y0372500D03*
X0392500Y0367500D03*
X0392500Y0362500D03*
X0485000Y0435000D03*
X0492500Y0445000D03*
X0555000Y0445000D03*
D18*
X0331250Y0488750D02*
X0331250Y0291250D01*
X0477208Y0291250D01*
X0477202Y0291256D01*
X0476700Y0292469D01*
X0476700Y0293781D01*
X0476977Y0294450D01*
X0476129Y0294450D01*
X0475075Y0295504D01*
X0475075Y0312379D01*
X0473004Y0314450D01*
X0473750Y0313704D01*
X0473750Y0298125D01*
X0446250Y0298125D01*
X0446250Y0301412D01*
X0446712Y0300950D01*
X0456788Y0300950D01*
X0457550Y0301712D01*
X0457550Y0311788D01*
X0456788Y0312550D01*
X0446712Y0312550D01*
X0446250Y0312088D01*
X0446250Y0329375D01*
X0461325Y0329375D01*
X0461325Y0315504D01*
X0462379Y0314450D01*
X0473004Y0314450D01*
X0463871Y0314450D01*
X0462379Y0314450D01*
X0461325Y0315504D01*
X0461325Y0330746D01*
X0462379Y0331800D01*
X0575746Y0331800D01*
X0576800Y0330746D01*
X0576800Y0296425D01*
X0581758Y0296425D01*
X0583221Y0297888D01*
X0582700Y0299145D01*
X0582700Y0300855D01*
X0583355Y0302436D01*
X0584564Y0303645D01*
X0586145Y0304300D01*
X0591033Y0304300D01*
X0589633Y0305700D01*
X0586145Y0305700D01*
X0584564Y0306355D01*
X0583355Y0307564D01*
X0582700Y0309145D01*
X0582700Y0310855D01*
X0583355Y0312436D01*
X0584564Y0313645D01*
X0586145Y0314300D01*
X0593855Y0314300D01*
X0595436Y0313645D01*
X0596645Y0312436D01*
X0597300Y0310855D01*
X0597300Y0309145D01*
X0597102Y0308668D01*
X0597272Y0308598D01*
X0600669Y0305200D01*
X0601598Y0304272D01*
X0602100Y0303059D01*
X0602100Y0302567D01*
X0606367Y0298300D01*
X0610103Y0298300D01*
X0608048Y0300355D01*
X0608048Y0300355D01*
X0606800Y0303369D01*
X0606800Y0306631D01*
X0608048Y0309645D01*
X0608048Y0309645D01*
X0610355Y0311952D01*
X0610355Y0311952D01*
X0613369Y0313200D01*
X0616631Y0313200D01*
X0619645Y0311952D01*
X0619645Y0311952D01*
X0619645Y0311952D01*
X0621700Y0309897D01*
X0621700Y0388633D01*
X0619533Y0390800D01*
X0619165Y0390800D01*
X0617621Y0391439D01*
X0616439Y0392621D01*
X0615800Y0394165D01*
X0615800Y0395835D01*
X0616439Y0397379D01*
X0617621Y0398561D01*
X0619165Y0399200D01*
X0620835Y0399200D01*
X0622379Y0398561D01*
X0623561Y0397379D01*
X0624200Y0395835D01*
X0624200Y0395467D01*
X0627798Y0391869D01*
X0628300Y0390656D01*
X0628300Y0299344D01*
X0627798Y0298131D01*
X0626869Y0297202D01*
X0621869Y0292202D01*
X0620656Y0291700D01*
X0604344Y0291700D01*
X0603131Y0292202D01*
X0602202Y0293131D01*
X0596974Y0298359D01*
X0596645Y0297564D01*
X0595436Y0296355D01*
X0593855Y0295700D01*
X0590367Y0295700D01*
X0585917Y0291250D01*
X0628750Y0291250D01*
X0628750Y0488750D01*
X0331250Y0488750D01*
X0331250Y0488704D02*
X0628750Y0488704D01*
X0628750Y0487705D02*
X0331250Y0487705D01*
X0331250Y0486707D02*
X0423126Y0486707D01*
X0423219Y0486800D02*
X0420700Y0484281D01*
X0420700Y0480719D01*
X0423219Y0478200D01*
X0426781Y0478200D01*
X0429300Y0480719D01*
X0429300Y0484281D01*
X0426781Y0486800D01*
X0423219Y0486800D01*
X0422127Y0485708D02*
X0331250Y0485708D01*
X0331250Y0484710D02*
X0421129Y0484710D01*
X0420700Y0483711D02*
X0331250Y0483711D01*
X0331250Y0482713D02*
X0342192Y0482713D01*
X0343369Y0483200D02*
X0340355Y0481952D01*
X0338048Y0479645D01*
X0338048Y0479645D01*
X0336800Y0476631D01*
X0336800Y0473369D01*
X0338048Y0470355D01*
X0340355Y0468048D01*
X0343369Y0466800D01*
X0345373Y0466800D01*
X0346631Y0466800D01*
X0346631Y0466800D01*
X0349645Y0468048D01*
X0351952Y0470355D01*
X0353200Y0473369D01*
X0353200Y0476631D01*
X0351952Y0479645D01*
X0349645Y0481952D01*
X0346631Y0483200D01*
X0343369Y0483200D01*
X0340355Y0481952D02*
X0340355Y0481952D01*
X0340118Y0481714D02*
X0331250Y0481714D01*
X0331250Y0480716D02*
X0339119Y0480716D01*
X0338121Y0479717D02*
X0331250Y0479717D01*
X0331250Y0478719D02*
X0337665Y0478719D01*
X0337251Y0477720D02*
X0331250Y0477720D01*
X0331250Y0476722D02*
X0336838Y0476722D01*
X0336800Y0475723D02*
X0331250Y0475723D01*
X0331250Y0474725D02*
X0336800Y0474725D01*
X0336800Y0473726D02*
X0331250Y0473726D01*
X0331250Y0472728D02*
X0337066Y0472728D01*
X0337479Y0471729D02*
X0331250Y0471729D01*
X0331250Y0470731D02*
X0337893Y0470731D01*
X0338048Y0470355D02*
X0338048Y0470355D01*
X0338671Y0469732D02*
X0331250Y0469732D01*
X0331250Y0468734D02*
X0339670Y0468734D01*
X0340355Y0468048D02*
X0340355Y0468048D01*
X0341112Y0467735D02*
X0331250Y0467735D01*
X0331250Y0466737D02*
X0628750Y0466737D01*
X0628750Y0467735D02*
X0618888Y0467735D01*
X0619645Y0468048D02*
X0619645Y0468048D01*
X0621952Y0470355D01*
X0623200Y0473369D01*
X0623200Y0476631D01*
X0621952Y0479645D01*
X0619645Y0481952D01*
X0616631Y0483200D01*
X0613369Y0483200D01*
X0610355Y0481952D01*
X0608048Y0479645D01*
X0608048Y0479645D01*
X0606800Y0476631D01*
X0606800Y0473369D01*
X0608048Y0470355D01*
X0610355Y0468048D01*
X0613369Y0466800D01*
X0614627Y0466800D01*
X0616631Y0466800D01*
X0619645Y0468048D01*
X0620330Y0468734D02*
X0628750Y0468734D01*
X0628750Y0469732D02*
X0621329Y0469732D01*
X0621952Y0470355D02*
X0621952Y0470355D01*
X0622107Y0470731D02*
X0628750Y0470731D01*
X0628750Y0471729D02*
X0622521Y0471729D01*
X0622934Y0472728D02*
X0628750Y0472728D01*
X0628750Y0473726D02*
X0623200Y0473726D01*
X0623200Y0474725D02*
X0628750Y0474725D01*
X0628750Y0475723D02*
X0623200Y0475723D01*
X0623162Y0476722D02*
X0628750Y0476722D01*
X0628750Y0477720D02*
X0622749Y0477720D01*
X0622335Y0478719D02*
X0628750Y0478719D01*
X0628750Y0479717D02*
X0621879Y0479717D01*
X0621952Y0479645D02*
X0621952Y0479645D01*
X0620881Y0480716D02*
X0628750Y0480716D01*
X0628750Y0481714D02*
X0619882Y0481714D01*
X0617808Y0482713D02*
X0628750Y0482713D01*
X0628750Y0483711D02*
X0594500Y0483711D01*
X0594500Y0484364D02*
X0591864Y0487000D01*
X0590500Y0487000D01*
X0590500Y0483000D01*
X0594500Y0483000D01*
X0594500Y0484364D01*
X0594154Y0484710D02*
X0628750Y0484710D01*
X0628750Y0485708D02*
X0593156Y0485708D01*
X0592157Y0486707D02*
X0628750Y0486707D01*
X0612192Y0482713D02*
X0590500Y0482713D01*
X0590500Y0483000D02*
X0590500Y0482000D01*
X0594500Y0482000D01*
X0594500Y0480636D01*
X0591864Y0478000D01*
X0590500Y0478000D01*
X0590500Y0482000D01*
X0589500Y0482000D01*
X0589500Y0478000D01*
X0588136Y0478000D01*
X0585500Y0480636D01*
X0585500Y0482000D01*
X0589500Y0482000D01*
X0589500Y0483000D01*
X0589500Y0487000D01*
X0588136Y0487000D01*
X0585500Y0484364D01*
X0585500Y0483000D01*
X0589500Y0483000D01*
X0590500Y0483000D01*
X0590500Y0483711D02*
X0589500Y0483711D01*
X0589500Y0482713D02*
X0584300Y0482713D01*
X0584300Y0483711D02*
X0585500Y0483711D01*
X0585846Y0484710D02*
X0583871Y0484710D01*
X0584300Y0484281D02*
X0581781Y0486800D01*
X0578219Y0486800D01*
X0575700Y0484281D01*
X0575700Y0480719D01*
X0577900Y0478519D01*
X0577900Y0476481D01*
X0575700Y0474281D01*
X0575700Y0470719D01*
X0578219Y0468200D01*
X0581781Y0468200D01*
X0584300Y0470719D01*
X0584300Y0474281D01*
X0582100Y0476481D01*
X0582100Y0478519D01*
X0584300Y0480719D01*
X0584300Y0484281D01*
X0582873Y0485708D02*
X0586844Y0485708D01*
X0587843Y0486707D02*
X0581874Y0486707D01*
X0578126Y0486707D02*
X0571874Y0486707D01*
X0571781Y0486800D02*
X0568219Y0486800D01*
X0565700Y0484281D01*
X0565700Y0480719D01*
X0567900Y0478519D01*
X0567900Y0476481D01*
X0565700Y0474281D01*
X0565700Y0470719D01*
X0568219Y0468200D01*
X0571781Y0468200D01*
X0574300Y0470719D01*
X0574300Y0474281D01*
X0572100Y0476481D01*
X0572100Y0478519D01*
X0574300Y0480719D01*
X0574300Y0484281D01*
X0571781Y0486800D01*
X0572873Y0485708D02*
X0577127Y0485708D01*
X0576129Y0484710D02*
X0573871Y0484710D01*
X0574300Y0483711D02*
X0575700Y0483711D01*
X0575700Y0482713D02*
X0574300Y0482713D01*
X0574300Y0481714D02*
X0575700Y0481714D01*
X0575703Y0480716D02*
X0574297Y0480716D01*
X0573298Y0479717D02*
X0576702Y0479717D01*
X0577700Y0478719D02*
X0572300Y0478719D01*
X0572100Y0477720D02*
X0577900Y0477720D01*
X0577900Y0476722D02*
X0572100Y0476722D01*
X0572858Y0475723D02*
X0577142Y0475723D01*
X0576143Y0474725D02*
X0573856Y0474725D01*
X0574300Y0473726D02*
X0575700Y0473726D01*
X0575700Y0472728D02*
X0574300Y0472728D01*
X0574300Y0471729D02*
X0575700Y0471729D01*
X0575700Y0470731D02*
X0574300Y0470731D01*
X0573313Y0469732D02*
X0576687Y0469732D01*
X0577685Y0468734D02*
X0572315Y0468734D01*
X0567685Y0468734D02*
X0562315Y0468734D01*
X0561781Y0468200D02*
X0564300Y0470719D01*
X0564300Y0474281D01*
X0562900Y0475681D01*
X0562900Y0479319D01*
X0564300Y0480719D01*
X0564300Y0484281D01*
X0561781Y0486800D01*
X0558219Y0486800D01*
X0555700Y0484281D01*
X0555700Y0480719D01*
X0555958Y0480461D01*
X0555297Y0479800D01*
X0528381Y0479800D01*
X0529300Y0480719D01*
X0529300Y0484281D01*
X0526781Y0486800D01*
X0523219Y0486800D01*
X0520700Y0484281D01*
X0520700Y0480719D01*
X0521619Y0479800D01*
X0518381Y0479800D01*
X0519300Y0480719D01*
X0519300Y0484281D01*
X0516781Y0486800D01*
X0513219Y0486800D01*
X0510700Y0484281D01*
X0510700Y0480719D01*
X0511619Y0479800D01*
X0510297Y0479800D01*
X0508950Y0478453D01*
X0507039Y0476542D01*
X0506781Y0476800D01*
X0503219Y0476800D01*
X0500700Y0474281D01*
X0500700Y0470719D01*
X0503219Y0468200D01*
X0506781Y0468200D01*
X0509300Y0470719D01*
X0509300Y0472297D01*
X0510700Y0473697D01*
X0510700Y0470719D01*
X0513219Y0468200D01*
X0516781Y0468200D01*
X0519300Y0470719D01*
X0519300Y0474281D01*
X0518381Y0475200D01*
X0521619Y0475200D01*
X0520700Y0474281D01*
X0520700Y0470719D01*
X0523219Y0468200D01*
X0526781Y0468200D01*
X0529300Y0470719D01*
X0529300Y0474281D01*
X0528381Y0475200D01*
X0555297Y0475200D01*
X0555958Y0474539D01*
X0555700Y0474281D01*
X0555700Y0470719D01*
X0558219Y0468200D01*
X0561781Y0468200D01*
X0563313Y0469732D02*
X0566687Y0469732D01*
X0565700Y0470731D02*
X0564300Y0470731D01*
X0564300Y0471729D02*
X0565700Y0471729D01*
X0565700Y0472728D02*
X0564300Y0472728D01*
X0564300Y0473726D02*
X0565700Y0473726D01*
X0566143Y0474725D02*
X0563856Y0474725D01*
X0562900Y0475723D02*
X0567142Y0475723D01*
X0567900Y0476722D02*
X0562900Y0476722D01*
X0562900Y0477720D02*
X0567900Y0477720D01*
X0567700Y0478719D02*
X0562900Y0478719D01*
X0563298Y0479717D02*
X0566702Y0479717D01*
X0565703Y0480716D02*
X0564297Y0480716D01*
X0564300Y0481714D02*
X0565700Y0481714D01*
X0565700Y0482713D02*
X0564300Y0482713D01*
X0564300Y0483711D02*
X0565700Y0483711D01*
X0566129Y0484710D02*
X0563871Y0484710D01*
X0562873Y0485708D02*
X0567127Y0485708D01*
X0568126Y0486707D02*
X0561874Y0486707D01*
X0558126Y0486707D02*
X0526874Y0486707D01*
X0527873Y0485708D02*
X0557127Y0485708D01*
X0556129Y0484710D02*
X0528871Y0484710D01*
X0529300Y0483711D02*
X0555700Y0483711D01*
X0555700Y0482713D02*
X0529300Y0482713D01*
X0529300Y0481714D02*
X0555700Y0481714D01*
X0555703Y0480716D02*
X0529297Y0480716D01*
X0528856Y0474725D02*
X0555773Y0474725D01*
X0555700Y0473726D02*
X0529300Y0473726D01*
X0529300Y0472728D02*
X0555700Y0472728D01*
X0555700Y0471729D02*
X0529300Y0471729D01*
X0529300Y0470731D02*
X0555700Y0470731D01*
X0556687Y0469732D02*
X0528313Y0469732D01*
X0527315Y0468734D02*
X0557685Y0468734D01*
X0559165Y0459200D02*
X0557621Y0458561D01*
X0556439Y0457379D01*
X0555800Y0455835D01*
X0555800Y0454165D01*
X0556439Y0452621D01*
X0557621Y0451439D01*
X0559165Y0450800D01*
X0560835Y0450800D01*
X0562379Y0451439D01*
X0563561Y0452621D01*
X0564200Y0454165D01*
X0564200Y0455835D01*
X0563561Y0457379D01*
X0562379Y0458561D01*
X0560835Y0459200D01*
X0559165Y0459200D01*
X0558074Y0458748D02*
X0551926Y0458748D01*
X0552379Y0458561D02*
X0550835Y0459200D01*
X0549165Y0459200D01*
X0547621Y0458561D01*
X0546439Y0457379D01*
X0545800Y0455835D01*
X0545800Y0454165D01*
X0546439Y0452621D01*
X0547621Y0451439D01*
X0549165Y0450800D01*
X0550835Y0450800D01*
X0552379Y0451439D01*
X0553561Y0452621D01*
X0554200Y0454165D01*
X0554200Y0455835D01*
X0553561Y0457379D01*
X0552379Y0458561D01*
X0553190Y0457750D02*
X0556810Y0457750D01*
X0556179Y0456751D02*
X0553821Y0456751D01*
X0554200Y0455753D02*
X0555800Y0455753D01*
X0555800Y0454754D02*
X0554200Y0454754D01*
X0554031Y0453756D02*
X0555969Y0453756D01*
X0556383Y0452757D02*
X0553617Y0452757D01*
X0552699Y0451759D02*
X0557301Y0451759D01*
X0555577Y0447900D02*
X0491923Y0447900D01*
X0490857Y0447458D01*
X0490041Y0446643D01*
X0489600Y0445577D01*
X0489600Y0444423D01*
X0490041Y0443357D01*
X0490857Y0442541D01*
X0491923Y0442100D01*
X0555577Y0442100D01*
X0556643Y0442541D01*
X0557458Y0443357D01*
X0557900Y0444423D01*
X0557900Y0445577D01*
X0557458Y0446643D01*
X0556643Y0447458D01*
X0555577Y0447900D01*
X0555903Y0447765D02*
X0628750Y0447765D01*
X0628750Y0448763D02*
X0448050Y0448763D01*
X0448050Y0447765D02*
X0491597Y0447765D01*
X0490165Y0446766D02*
X0448050Y0446766D01*
X0448050Y0445768D02*
X0489679Y0445768D01*
X0489600Y0444769D02*
X0448050Y0444769D01*
X0448050Y0443771D02*
X0489870Y0443771D01*
X0490627Y0442772D02*
X0448050Y0442772D01*
X0448050Y0441996D02*
X0448050Y0453764D01*
X0448445Y0454158D01*
X0448839Y0455110D01*
X0448839Y0456140D01*
X0448445Y0457092D01*
X0447717Y0457820D01*
X0446765Y0458214D01*
X0445735Y0458214D01*
X0444783Y0457820D01*
X0444055Y0457092D01*
X0443661Y0456140D01*
X0443661Y0455110D01*
X0444055Y0454158D01*
X0444450Y0453764D01*
X0444450Y0440504D01*
X0463661Y0421293D01*
X0463661Y0420735D01*
X0464055Y0419783D01*
X0464783Y0419055D01*
X0465735Y0418661D01*
X0466765Y0418661D01*
X0467717Y0419055D01*
X0468445Y0419783D01*
X0468839Y0420735D01*
X0468839Y0421765D01*
X0468445Y0422717D01*
X0467717Y0423445D01*
X0466765Y0423839D01*
X0466207Y0423839D01*
X0448050Y0441996D01*
X0448272Y0441774D02*
X0628750Y0441774D01*
X0628750Y0442772D02*
X0556873Y0442772D01*
X0557630Y0443771D02*
X0628750Y0443771D01*
X0628750Y0444769D02*
X0557900Y0444769D01*
X0557821Y0445768D02*
X0628750Y0445768D01*
X0628750Y0446766D02*
X0557335Y0446766D01*
X0562699Y0451759D02*
X0567301Y0451759D01*
X0567621Y0451439D02*
X0569165Y0450800D01*
X0570835Y0450800D01*
X0572379Y0451439D01*
X0573561Y0452621D01*
X0574200Y0454165D01*
X0574200Y0455835D01*
X0573561Y0457379D01*
X0572379Y0458561D01*
X0570835Y0459200D01*
X0569165Y0459200D01*
X0567621Y0458561D01*
X0566439Y0457379D01*
X0565800Y0455835D01*
X0565800Y0454165D01*
X0566439Y0452621D01*
X0567621Y0451439D01*
X0566383Y0452757D02*
X0563617Y0452757D01*
X0564031Y0453756D02*
X0565969Y0453756D01*
X0565800Y0454754D02*
X0564200Y0454754D01*
X0564200Y0455753D02*
X0565800Y0455753D01*
X0566179Y0456751D02*
X0563821Y0456751D01*
X0563190Y0457750D02*
X0566810Y0457750D01*
X0568074Y0458748D02*
X0561926Y0458748D01*
X0571926Y0458748D02*
X0578074Y0458748D01*
X0577621Y0458561D02*
X0576439Y0457379D01*
X0575800Y0455835D01*
X0575800Y0454165D01*
X0576439Y0452621D01*
X0577621Y0451439D01*
X0579165Y0450800D01*
X0580835Y0450800D01*
X0582379Y0451439D01*
X0583561Y0452621D01*
X0584200Y0454165D01*
X0584200Y0455835D01*
X0583561Y0457379D01*
X0582379Y0458561D01*
X0580835Y0459200D01*
X0579165Y0459200D01*
X0577621Y0458561D01*
X0576810Y0457750D02*
X0573190Y0457750D01*
X0573821Y0456751D02*
X0576179Y0456751D01*
X0575800Y0455753D02*
X0574200Y0455753D01*
X0574200Y0454754D02*
X0575800Y0454754D01*
X0575969Y0453756D02*
X0574031Y0453756D01*
X0573617Y0452757D02*
X0576383Y0452757D01*
X0577301Y0451759D02*
X0572699Y0451759D01*
X0582699Y0451759D02*
X0587301Y0451759D01*
X0587621Y0451439D02*
X0589165Y0450800D01*
X0590835Y0450800D01*
X0592379Y0451439D01*
X0593561Y0452621D01*
X0594200Y0454165D01*
X0594200Y0455835D01*
X0593561Y0457379D01*
X0592379Y0458561D01*
X0590835Y0459200D01*
X0589165Y0459200D01*
X0587621Y0458561D01*
X0586439Y0457379D01*
X0585800Y0455835D01*
X0585800Y0454165D01*
X0586439Y0452621D01*
X0587621Y0451439D01*
X0586383Y0452757D02*
X0583617Y0452757D01*
X0584031Y0453756D02*
X0585969Y0453756D01*
X0585800Y0454754D02*
X0584200Y0454754D01*
X0584200Y0455753D02*
X0585800Y0455753D01*
X0586179Y0456751D02*
X0583821Y0456751D01*
X0583190Y0457750D02*
X0586810Y0457750D01*
X0588074Y0458748D02*
X0581926Y0458748D01*
X0582315Y0468734D02*
X0587403Y0468734D01*
X0588136Y0468000D02*
X0589500Y0468000D01*
X0589500Y0472000D01*
X0590500Y0472000D01*
X0590500Y0473000D01*
X0594500Y0473000D01*
X0594500Y0474364D01*
X0591864Y0477000D01*
X0590500Y0477000D01*
X0590500Y0473000D01*
X0589500Y0473000D01*
X0589500Y0477000D01*
X0588136Y0477000D01*
X0585500Y0474364D01*
X0585500Y0473000D01*
X0589500Y0473000D01*
X0589500Y0472000D01*
X0585500Y0472000D01*
X0585500Y0470636D01*
X0588136Y0468000D01*
X0589500Y0468734D02*
X0590500Y0468734D01*
X0590500Y0468000D02*
X0591864Y0468000D01*
X0594500Y0470636D01*
X0594500Y0472000D01*
X0590500Y0472000D01*
X0590500Y0468000D01*
X0590500Y0469732D02*
X0589500Y0469732D01*
X0589500Y0470731D02*
X0590500Y0470731D01*
X0590500Y0471729D02*
X0589500Y0471729D01*
X0589500Y0472728D02*
X0584300Y0472728D01*
X0584300Y0473726D02*
X0585500Y0473726D01*
X0585861Y0474725D02*
X0583856Y0474725D01*
X0582858Y0475723D02*
X0586859Y0475723D01*
X0587858Y0476722D02*
X0582100Y0476722D01*
X0582100Y0477720D02*
X0607251Y0477720D01*
X0606838Y0476722D02*
X0592142Y0476722D01*
X0593141Y0475723D02*
X0606800Y0475723D01*
X0606800Y0474725D02*
X0594139Y0474725D01*
X0594500Y0473726D02*
X0606800Y0473726D01*
X0607066Y0472728D02*
X0590500Y0472728D01*
X0590500Y0473726D02*
X0589500Y0473726D01*
X0589500Y0474725D02*
X0590500Y0474725D01*
X0590500Y0475723D02*
X0589500Y0475723D01*
X0589500Y0476722D02*
X0590500Y0476722D01*
X0590500Y0478719D02*
X0589500Y0478719D01*
X0589500Y0479717D02*
X0590500Y0479717D01*
X0590500Y0480716D02*
X0589500Y0480716D01*
X0589500Y0481714D02*
X0590500Y0481714D01*
X0590500Y0484710D02*
X0589500Y0484710D01*
X0589500Y0485708D02*
X0590500Y0485708D01*
X0590500Y0486707D02*
X0589500Y0486707D01*
X0585500Y0481714D02*
X0584300Y0481714D01*
X0584297Y0480716D02*
X0585500Y0480716D01*
X0586419Y0479717D02*
X0583298Y0479717D01*
X0582300Y0478719D02*
X0587417Y0478719D01*
X0592583Y0478719D02*
X0607665Y0478719D01*
X0608121Y0479717D02*
X0593581Y0479717D01*
X0594500Y0480716D02*
X0609119Y0480716D01*
X0610118Y0481714D02*
X0594500Y0481714D01*
X0610355Y0481952D02*
X0610355Y0481952D01*
X0607479Y0471729D02*
X0594500Y0471729D01*
X0594500Y0470731D02*
X0607893Y0470731D01*
X0608048Y0470355D02*
X0608048Y0470355D01*
X0608671Y0469732D02*
X0593596Y0469732D01*
X0592597Y0468734D02*
X0609670Y0468734D01*
X0610355Y0468048D02*
X0610355Y0468048D01*
X0611112Y0467735D02*
X0348888Y0467735D01*
X0349645Y0468048D02*
X0349645Y0468048D01*
X0350330Y0468734D02*
X0422685Y0468734D01*
X0423219Y0468200D02*
X0426781Y0468200D01*
X0429300Y0470719D01*
X0429300Y0474281D01*
X0426781Y0476800D01*
X0423219Y0476800D01*
X0420700Y0474281D01*
X0420700Y0470719D01*
X0423219Y0468200D01*
X0421687Y0469732D02*
X0351329Y0469732D01*
X0351952Y0470355D02*
X0351952Y0470355D01*
X0352107Y0470731D02*
X0420700Y0470731D01*
X0420700Y0471729D02*
X0390424Y0471729D01*
X0390546Y0471800D02*
X0390204Y0471602D01*
X0389822Y0471500D01*
X0385625Y0471500D01*
X0385625Y0477000D01*
X0385625Y0478000D01*
X0384625Y0478000D01*
X0384625Y0483500D01*
X0380428Y0483500D01*
X0380046Y0483398D01*
X0379704Y0483200D01*
X0379425Y0482921D01*
X0379227Y0482579D01*
X0379125Y0482197D01*
X0379125Y0478000D01*
X0384625Y0478000D01*
X0384625Y0477000D01*
X0385625Y0477000D01*
X0391125Y0477000D01*
X0391125Y0472803D01*
X0391023Y0472421D01*
X0390825Y0472079D01*
X0390546Y0471800D01*
X0390625Y0471875D02*
X0379375Y0471875D01*
X0379375Y0483125D01*
X0390625Y0483125D01*
X0390625Y0471875D01*
X0390625Y0472728D02*
X0379375Y0472728D01*
X0379145Y0472728D02*
X0374425Y0472728D01*
X0374425Y0472462D02*
X0374425Y0482538D01*
X0373663Y0483300D01*
X0363587Y0483300D01*
X0362825Y0482538D01*
X0362825Y0472462D01*
X0363587Y0471700D01*
X0373663Y0471700D01*
X0374425Y0472462D01*
X0373693Y0471729D02*
X0379826Y0471729D01*
X0379704Y0471800D02*
X0380046Y0471602D01*
X0380428Y0471500D01*
X0384625Y0471500D01*
X0384625Y0477000D01*
X0379125Y0477000D01*
X0379125Y0472803D01*
X0379227Y0472421D01*
X0379425Y0472079D01*
X0379704Y0471800D01*
X0379375Y0473726D02*
X0390625Y0473726D01*
X0391125Y0473726D02*
X0420700Y0473726D01*
X0420700Y0472728D02*
X0391105Y0472728D01*
X0391125Y0474725D02*
X0421143Y0474725D01*
X0422142Y0475723D02*
X0391125Y0475723D01*
X0390625Y0475723D02*
X0379375Y0475723D01*
X0379125Y0475723D02*
X0374425Y0475723D01*
X0374425Y0474725D02*
X0379125Y0474725D01*
X0379375Y0474725D02*
X0390625Y0474725D01*
X0390625Y0476722D02*
X0379375Y0476722D01*
X0379125Y0476722D02*
X0374425Y0476722D01*
X0374425Y0477720D02*
X0384625Y0477720D01*
X0384625Y0476722D02*
X0385625Y0476722D01*
X0385625Y0477720D02*
X0508217Y0477720D01*
X0507300Y0478719D02*
X0509216Y0478719D01*
X0508298Y0479717D02*
X0510214Y0479717D01*
X0510703Y0480716D02*
X0509297Y0480716D01*
X0509300Y0480719D02*
X0506781Y0478200D01*
X0503219Y0478200D01*
X0500700Y0480719D01*
X0500700Y0484281D01*
X0503219Y0486800D01*
X0506781Y0486800D01*
X0509300Y0484281D01*
X0509300Y0480719D01*
X0509300Y0481714D02*
X0510700Y0481714D01*
X0510700Y0482713D02*
X0509300Y0482713D01*
X0509300Y0483711D02*
X0510700Y0483711D01*
X0511129Y0484710D02*
X0508871Y0484710D01*
X0507873Y0485708D02*
X0512127Y0485708D01*
X0513126Y0486707D02*
X0506874Y0486707D01*
X0503126Y0486707D02*
X0476874Y0486707D01*
X0476781Y0486800D02*
X0473219Y0486800D01*
X0470700Y0484281D01*
X0470700Y0480719D01*
X0473219Y0478200D01*
X0476781Y0478200D01*
X0479300Y0480719D01*
X0479300Y0484281D01*
X0476781Y0486800D01*
X0477873Y0485708D02*
X0502127Y0485708D01*
X0501129Y0484710D02*
X0478871Y0484710D01*
X0479300Y0483711D02*
X0500700Y0483711D01*
X0500700Y0482713D02*
X0479300Y0482713D01*
X0479300Y0481714D02*
X0500700Y0481714D01*
X0500703Y0480716D02*
X0479297Y0480716D01*
X0478298Y0479717D02*
X0501702Y0479717D01*
X0502700Y0478719D02*
X0477300Y0478719D01*
X0476781Y0476800D02*
X0473219Y0476800D01*
X0470700Y0474281D01*
X0470700Y0470719D01*
X0473219Y0468200D01*
X0476781Y0468200D01*
X0479300Y0470719D01*
X0479300Y0474281D01*
X0476781Y0476800D01*
X0476859Y0476722D02*
X0503141Y0476722D01*
X0502142Y0475723D02*
X0477858Y0475723D01*
X0478856Y0474725D02*
X0501143Y0474725D01*
X0500700Y0473726D02*
X0479300Y0473726D01*
X0479300Y0472728D02*
X0500700Y0472728D01*
X0500700Y0471729D02*
X0479300Y0471729D01*
X0479300Y0470731D02*
X0500700Y0470731D01*
X0501687Y0469732D02*
X0478313Y0469732D01*
X0477315Y0468734D02*
X0502685Y0468734D01*
X0507315Y0468734D02*
X0512685Y0468734D01*
X0511687Y0469732D02*
X0508313Y0469732D01*
X0509300Y0470731D02*
X0510700Y0470731D01*
X0510700Y0471729D02*
X0509300Y0471729D01*
X0509730Y0472728D02*
X0510700Y0472728D01*
X0507219Y0476722D02*
X0506859Y0476722D01*
X0518856Y0474725D02*
X0521144Y0474725D01*
X0520700Y0473726D02*
X0519300Y0473726D01*
X0519300Y0472728D02*
X0520700Y0472728D01*
X0520700Y0471729D02*
X0519300Y0471729D01*
X0519300Y0470731D02*
X0520700Y0470731D01*
X0521687Y0469732D02*
X0518313Y0469732D01*
X0517315Y0468734D02*
X0522685Y0468734D01*
X0520835Y0459200D02*
X0519165Y0459200D01*
X0517621Y0458561D01*
X0516439Y0457379D01*
X0515800Y0455835D01*
X0515800Y0454165D01*
X0516439Y0452621D01*
X0517621Y0451439D01*
X0519165Y0450800D01*
X0520835Y0450800D01*
X0522379Y0451439D01*
X0523561Y0452621D01*
X0524200Y0454165D01*
X0524200Y0455835D01*
X0523561Y0457379D01*
X0522379Y0458561D01*
X0520835Y0459200D01*
X0521926Y0458748D02*
X0528074Y0458748D01*
X0527621Y0458561D02*
X0526439Y0457379D01*
X0525800Y0455835D01*
X0525800Y0454165D01*
X0526439Y0452621D01*
X0527621Y0451439D01*
X0529165Y0450800D01*
X0530835Y0450800D01*
X0532379Y0451439D01*
X0533561Y0452621D01*
X0534200Y0454165D01*
X0534200Y0455835D01*
X0533561Y0457379D01*
X0532379Y0458561D01*
X0530835Y0459200D01*
X0529165Y0459200D01*
X0527621Y0458561D01*
X0526810Y0457750D02*
X0523190Y0457750D01*
X0523821Y0456751D02*
X0526179Y0456751D01*
X0525800Y0455753D02*
X0524200Y0455753D01*
X0524200Y0454754D02*
X0525800Y0454754D01*
X0525969Y0453756D02*
X0524031Y0453756D01*
X0523617Y0452757D02*
X0526383Y0452757D01*
X0527301Y0451759D02*
X0522699Y0451759D01*
X0517301Y0451759D02*
X0512699Y0451759D01*
X0512379Y0451439D02*
X0513561Y0452621D01*
X0514200Y0454165D01*
X0514200Y0455835D01*
X0513561Y0457379D01*
X0512379Y0458561D01*
X0510835Y0459200D01*
X0509165Y0459200D01*
X0507621Y0458561D01*
X0506439Y0457379D01*
X0505800Y0455835D01*
X0505800Y0454165D01*
X0506439Y0452621D01*
X0507621Y0451439D01*
X0509165Y0450800D01*
X0510835Y0450800D01*
X0512379Y0451439D01*
X0513617Y0452757D02*
X0516383Y0452757D01*
X0515969Y0453756D02*
X0514031Y0453756D01*
X0514200Y0454754D02*
X0515800Y0454754D01*
X0515800Y0455753D02*
X0514200Y0455753D01*
X0513821Y0456751D02*
X0516179Y0456751D01*
X0516810Y0457750D02*
X0513190Y0457750D01*
X0511926Y0458748D02*
X0518074Y0458748D01*
X0508074Y0458748D02*
X0501926Y0458748D01*
X0502379Y0458561D02*
X0500835Y0459200D01*
X0499165Y0459200D01*
X0498585Y0458960D01*
X0496800Y0460746D01*
X0495746Y0461800D01*
X0481861Y0461800D01*
X0481467Y0462195D01*
X0480515Y0462589D01*
X0479485Y0462589D01*
X0478533Y0462195D01*
X0477805Y0461467D01*
X0477411Y0460515D01*
X0477411Y0459485D01*
X0477805Y0458533D01*
X0478533Y0457805D01*
X0479485Y0457411D01*
X0480515Y0457411D01*
X0481467Y0457805D01*
X0481861Y0458200D01*
X0487260Y0458200D01*
X0486439Y0457379D01*
X0485800Y0455835D01*
X0485800Y0454165D01*
X0486439Y0452621D01*
X0487621Y0451439D01*
X0489165Y0450800D01*
X0490835Y0450800D01*
X0492379Y0451439D01*
X0493561Y0452621D01*
X0494200Y0454165D01*
X0494200Y0455835D01*
X0493561Y0457379D01*
X0492740Y0458200D01*
X0494254Y0458200D01*
X0496040Y0456415D01*
X0495800Y0455835D01*
X0495800Y0454165D01*
X0496439Y0452621D01*
X0497621Y0451439D01*
X0499165Y0450800D01*
X0500835Y0450800D01*
X0502379Y0451439D01*
X0503561Y0452621D01*
X0504200Y0454165D01*
X0504200Y0455835D01*
X0503561Y0457379D01*
X0502379Y0458561D01*
X0503190Y0457750D02*
X0506810Y0457750D01*
X0506179Y0456751D02*
X0503821Y0456751D01*
X0504200Y0455753D02*
X0505800Y0455753D01*
X0505800Y0454754D02*
X0504200Y0454754D01*
X0504031Y0453756D02*
X0505969Y0453756D01*
X0506383Y0452757D02*
X0503617Y0452757D01*
X0502699Y0451759D02*
X0507301Y0451759D01*
X0500000Y0455000D02*
X0495000Y0460000D01*
X0480000Y0460000D01*
X0478083Y0461744D02*
X0331250Y0461744D01*
X0331250Y0462742D02*
X0628750Y0462742D01*
X0628750Y0461744D02*
X0495802Y0461744D01*
X0496800Y0460745D02*
X0628750Y0460745D01*
X0628750Y0459747D02*
X0497799Y0459747D01*
X0495703Y0456751D02*
X0493821Y0456751D01*
X0494200Y0455753D02*
X0495800Y0455753D01*
X0495800Y0454754D02*
X0494200Y0454754D01*
X0494031Y0453756D02*
X0495969Y0453756D01*
X0496383Y0452757D02*
X0493617Y0452757D01*
X0492699Y0451759D02*
X0497301Y0451759D01*
X0494705Y0457750D02*
X0493190Y0457750D01*
X0486810Y0457750D02*
X0481333Y0457750D01*
X0478667Y0457750D02*
X0447786Y0457750D01*
X0448586Y0456751D02*
X0486179Y0456751D01*
X0485800Y0455753D02*
X0448839Y0455753D01*
X0448692Y0454754D02*
X0485800Y0454754D01*
X0485969Y0453756D02*
X0448050Y0453756D01*
X0448050Y0452757D02*
X0486383Y0452757D01*
X0487301Y0451759D02*
X0448050Y0451759D01*
X0448050Y0450760D02*
X0618810Y0450760D01*
X0618970Y0450708D02*
X0618311Y0450922D01*
X0617694Y0451237D01*
X0617134Y0451644D01*
X0616644Y0452134D01*
X0616237Y0452694D01*
X0615922Y0453311D01*
X0615708Y0453970D01*
X0615616Y0454550D01*
X0619550Y0454550D01*
X0619550Y0455450D01*
X0619550Y0459384D01*
X0618970Y0459292D01*
X0618311Y0459078D01*
X0617694Y0458763D01*
X0617134Y0458356D01*
X0616644Y0457866D01*
X0616237Y0457306D01*
X0615922Y0456689D01*
X0615708Y0456030D01*
X0615616Y0455450D01*
X0619550Y0455450D01*
X0620450Y0455450D01*
X0620450Y0459384D01*
X0621030Y0459292D01*
X0621689Y0459078D01*
X0622306Y0458763D01*
X0622866Y0458356D01*
X0623356Y0457866D01*
X0623763Y0457306D01*
X0624078Y0456689D01*
X0624292Y0456030D01*
X0624384Y0455450D01*
X0620450Y0455450D01*
X0620450Y0454550D01*
X0624384Y0454550D01*
X0624292Y0453970D01*
X0624078Y0453311D01*
X0623763Y0452694D01*
X0623356Y0452134D01*
X0622866Y0451644D01*
X0622306Y0451237D01*
X0621689Y0450922D01*
X0621030Y0450708D01*
X0620450Y0450616D01*
X0620450Y0454550D01*
X0619550Y0454550D01*
X0619550Y0450616D01*
X0618970Y0450708D01*
X0619550Y0450760D02*
X0620450Y0450760D01*
X0621190Y0450760D02*
X0628750Y0450760D01*
X0628750Y0449762D02*
X0448050Y0449762D01*
X0444450Y0449762D02*
X0379300Y0449762D01*
X0379300Y0450760D02*
X0444450Y0450760D01*
X0444450Y0451759D02*
X0379300Y0451759D01*
X0379300Y0451781D02*
X0376781Y0454300D01*
X0373219Y0454300D01*
X0370970Y0452051D01*
X0370341Y0453569D01*
X0368569Y0455341D01*
X0366253Y0456300D01*
X0363747Y0456300D01*
X0361431Y0455341D01*
X0359659Y0453569D01*
X0358700Y0451253D01*
X0358700Y0338747D01*
X0359659Y0336431D01*
X0360000Y0336090D01*
X0360000Y0335000D01*
X0350000Y0335000D01*
X0350000Y0455000D01*
X0360000Y0455000D01*
X0360000Y0453910D01*
X0359659Y0453569D01*
X0359113Y0452251D01*
X0356864Y0454500D01*
X0355500Y0454500D01*
X0355500Y0450500D01*
X0354500Y0450500D01*
X0354500Y0454500D01*
X0353136Y0454500D01*
X0350500Y0451864D01*
X0350500Y0450500D01*
X0354500Y0450500D01*
X0354500Y0449500D01*
X0355500Y0449500D01*
X0355500Y0445500D01*
X0356864Y0445500D01*
X0358700Y0447336D01*
X0358700Y0442664D01*
X0356864Y0444500D01*
X0355500Y0444500D01*
X0355500Y0440500D01*
X0354500Y0440500D01*
X0354500Y0444500D01*
X0353136Y0444500D01*
X0350500Y0441864D01*
X0350500Y0440500D01*
X0354500Y0440500D01*
X0354500Y0439500D01*
X0355500Y0439500D01*
X0355500Y0435500D01*
X0356864Y0435500D01*
X0358700Y0437336D01*
X0358700Y0432664D01*
X0356864Y0434500D01*
X0355500Y0434500D01*
X0355500Y0430500D01*
X0354500Y0430500D01*
X0354500Y0434500D01*
X0353136Y0434500D01*
X0350500Y0431864D01*
X0350500Y0430500D01*
X0354500Y0430500D01*
X0354500Y0429500D01*
X0355500Y0429500D01*
X0355500Y0425500D01*
X0356864Y0425500D01*
X0358700Y0427336D01*
X0358700Y0422664D01*
X0356864Y0424500D01*
X0355500Y0424500D01*
X0355500Y0420500D01*
X0354500Y0420500D01*
X0354500Y0424500D01*
X0353136Y0424500D01*
X0350500Y0421864D01*
X0350500Y0420500D01*
X0354500Y0420500D01*
X0354500Y0419500D01*
X0355500Y0419500D01*
X0355500Y0415500D01*
X0356864Y0415500D01*
X0358700Y0417336D01*
X0358700Y0412664D01*
X0356864Y0414500D01*
X0355500Y0414500D01*
X0355500Y0410500D01*
X0354500Y0410500D01*
X0354500Y0414500D01*
X0353136Y0414500D01*
X0350500Y0411864D01*
X0350500Y0410500D01*
X0354500Y0410500D01*
X0354500Y0409500D01*
X0355500Y0409500D01*
X0355500Y0405500D01*
X0356864Y0405500D01*
X0358700Y0407336D01*
X0358700Y0402664D01*
X0356864Y0404500D01*
X0355500Y0404500D01*
X0355500Y0400500D01*
X0354500Y0400500D01*
X0354500Y0404500D01*
X0353136Y0404500D01*
X0350500Y0401864D01*
X0350500Y0400500D01*
X0354500Y0400500D01*
X0354500Y0399500D01*
X0355500Y0399500D01*
X0355500Y0395500D01*
X0356864Y0395500D01*
X0358700Y0397336D01*
X0358700Y0392664D01*
X0356864Y0394500D01*
X0355500Y0394500D01*
X0355500Y0390500D01*
X0354500Y0390500D01*
X0354500Y0394500D01*
X0353136Y0394500D01*
X0350500Y0391864D01*
X0350500Y0390500D01*
X0354500Y0390500D01*
X0354500Y0389500D01*
X0355500Y0389500D01*
X0355500Y0385500D01*
X0356864Y0385500D01*
X0358700Y0387336D01*
X0358700Y0382664D01*
X0356864Y0384500D01*
X0355500Y0384500D01*
X0355500Y0380500D01*
X0354500Y0380500D01*
X0354500Y0384500D01*
X0353136Y0384500D01*
X0350500Y0381864D01*
X0350500Y0380500D01*
X0354500Y0380500D01*
X0354500Y0379500D01*
X0355500Y0379500D01*
X0355500Y0375500D01*
X0356864Y0375500D01*
X0358700Y0377336D01*
X0358700Y0372664D01*
X0356864Y0374500D01*
X0355500Y0374500D01*
X0355500Y0370500D01*
X0354500Y0370500D01*
X0354500Y0374500D01*
X0353136Y0374500D01*
X0350500Y0371864D01*
X0350500Y0370500D01*
X0354500Y0370500D01*
X0354500Y0369500D01*
X0355500Y0369500D01*
X0355500Y0365500D01*
X0356864Y0365500D01*
X0358700Y0367336D01*
X0358700Y0362664D01*
X0356864Y0364500D01*
X0355500Y0364500D01*
X0355500Y0360500D01*
X0354500Y0360500D01*
X0354500Y0364500D01*
X0353136Y0364500D01*
X0350500Y0361864D01*
X0350500Y0360500D01*
X0354500Y0360500D01*
X0354500Y0359500D01*
X0355500Y0359500D01*
X0355500Y0355500D01*
X0356864Y0355500D01*
X0358700Y0357336D01*
X0358700Y0352664D01*
X0356864Y0354500D01*
X0355500Y0354500D01*
X0355500Y0350500D01*
X0354500Y0350500D01*
X0354500Y0354500D01*
X0353136Y0354500D01*
X0350500Y0351864D01*
X0350500Y0350500D01*
X0354500Y0350500D01*
X0354500Y0349500D01*
X0355500Y0349500D01*
X0355500Y0345500D01*
X0356864Y0345500D01*
X0358700Y0347336D01*
X0358700Y0342664D01*
X0356864Y0344500D01*
X0355500Y0344500D01*
X0355500Y0340500D01*
X0354500Y0340500D01*
X0354500Y0344500D01*
X0353136Y0344500D01*
X0350500Y0341864D01*
X0350500Y0340500D01*
X0354500Y0340500D01*
X0354500Y0339500D01*
X0355500Y0339500D01*
X0355500Y0335500D01*
X0356864Y0335500D01*
X0359113Y0337749D01*
X0359659Y0336431D01*
X0361431Y0334659D01*
X0363747Y0333700D01*
X0366253Y0333700D01*
X0368569Y0334659D01*
X0370341Y0336431D01*
X0370970Y0337949D01*
X0373219Y0335700D01*
X0376781Y0335700D01*
X0379300Y0338219D01*
X0379300Y0341781D01*
X0376781Y0344300D01*
X0373219Y0344300D01*
X0371300Y0342381D01*
X0371300Y0347619D01*
X0373219Y0345700D01*
X0376781Y0345700D01*
X0379300Y0348219D01*
X0379300Y0351781D01*
X0376781Y0354300D01*
X0373219Y0354300D01*
X0371300Y0352381D01*
X0371300Y0357619D01*
X0373219Y0355700D01*
X0376781Y0355700D01*
X0379300Y0358219D01*
X0379300Y0361781D01*
X0376781Y0364300D01*
X0373219Y0364300D01*
X0371300Y0362381D01*
X0371300Y0367619D01*
X0373219Y0365700D01*
X0376781Y0365700D01*
X0379300Y0368219D01*
X0379300Y0371781D01*
X0376781Y0374300D01*
X0373219Y0374300D01*
X0371300Y0372381D01*
X0371300Y0377619D01*
X0373219Y0375700D01*
X0376781Y0375700D01*
X0379300Y0378219D01*
X0379300Y0381781D01*
X0376781Y0384300D01*
X0373219Y0384300D01*
X0371300Y0382381D01*
X0371300Y0387619D01*
X0373219Y0385700D01*
X0376781Y0385700D01*
X0379300Y0388219D01*
X0379300Y0391781D01*
X0376781Y0394300D01*
X0373219Y0394300D01*
X0371300Y0392381D01*
X0371300Y0397619D01*
X0373219Y0395700D01*
X0376781Y0395700D01*
X0379300Y0398219D01*
X0379300Y0401781D01*
X0376781Y0404300D01*
X0373219Y0404300D01*
X0371300Y0402381D01*
X0371300Y0407619D01*
X0373219Y0405700D01*
X0376781Y0405700D01*
X0379300Y0408219D01*
X0379300Y0411781D01*
X0376781Y0414300D01*
X0373219Y0414300D01*
X0371300Y0412381D01*
X0371300Y0417619D01*
X0373219Y0415700D01*
X0376781Y0415700D01*
X0379300Y0418219D01*
X0379300Y0421781D01*
X0376781Y0424300D01*
X0373219Y0424300D01*
X0371300Y0422381D01*
X0371300Y0427619D01*
X0373219Y0425700D01*
X0376781Y0425700D01*
X0379300Y0428219D01*
X0379300Y0431781D01*
X0376781Y0434300D01*
X0373219Y0434300D01*
X0371300Y0432381D01*
X0371300Y0437619D01*
X0373219Y0435700D01*
X0376781Y0435700D01*
X0379300Y0438219D01*
X0379300Y0441781D01*
X0376781Y0444300D01*
X0373219Y0444300D01*
X0371300Y0442381D01*
X0371300Y0447619D01*
X0373219Y0445700D01*
X0376781Y0445700D01*
X0379300Y0448219D01*
X0379300Y0451781D01*
X0378324Y0452757D02*
X0444450Y0452757D01*
X0444450Y0453756D02*
X0377325Y0453756D01*
X0372675Y0453756D02*
X0370154Y0453756D01*
X0370677Y0452757D02*
X0371676Y0452757D01*
X0369155Y0454754D02*
X0443808Y0454754D01*
X0443661Y0455753D02*
X0367574Y0455753D01*
X0362426Y0455753D02*
X0331250Y0455753D01*
X0331250Y0456751D02*
X0443914Y0456751D01*
X0444714Y0457750D02*
X0331250Y0457750D01*
X0331250Y0458748D02*
X0477716Y0458748D01*
X0477411Y0459747D02*
X0331250Y0459747D01*
X0331250Y0460745D02*
X0477506Y0460745D01*
X0472685Y0468734D02*
X0467315Y0468734D01*
X0466781Y0468200D02*
X0469300Y0470719D01*
X0469300Y0474281D01*
X0466781Y0476800D01*
X0463219Y0476800D01*
X0460700Y0474281D01*
X0460700Y0470719D01*
X0463219Y0468200D01*
X0466781Y0468200D01*
X0468313Y0469732D02*
X0471687Y0469732D01*
X0470700Y0470731D02*
X0469300Y0470731D01*
X0469300Y0471729D02*
X0470700Y0471729D01*
X0470700Y0472728D02*
X0469300Y0472728D01*
X0469300Y0473726D02*
X0470700Y0473726D01*
X0471143Y0474725D02*
X0468856Y0474725D01*
X0467858Y0475723D02*
X0472142Y0475723D01*
X0473141Y0476722D02*
X0466859Y0476722D01*
X0466781Y0478200D02*
X0469300Y0480719D01*
X0469300Y0484281D01*
X0466781Y0486800D01*
X0463219Y0486800D01*
X0460700Y0484281D01*
X0460700Y0480719D01*
X0463219Y0478200D01*
X0466781Y0478200D01*
X0467300Y0478719D02*
X0472700Y0478719D01*
X0471702Y0479717D02*
X0468298Y0479717D01*
X0469297Y0480716D02*
X0470703Y0480716D01*
X0470700Y0481714D02*
X0469300Y0481714D01*
X0469300Y0482713D02*
X0470700Y0482713D01*
X0470700Y0483711D02*
X0469300Y0483711D01*
X0468871Y0484710D02*
X0471129Y0484710D01*
X0472127Y0485708D02*
X0467873Y0485708D01*
X0466874Y0486707D02*
X0473126Y0486707D01*
X0463126Y0486707D02*
X0456874Y0486707D01*
X0456781Y0486800D02*
X0453219Y0486800D01*
X0450700Y0484281D01*
X0450700Y0480719D01*
X0453219Y0478200D01*
X0456781Y0478200D01*
X0459300Y0480719D01*
X0459300Y0484281D01*
X0456781Y0486800D01*
X0457873Y0485708D02*
X0462127Y0485708D01*
X0461129Y0484710D02*
X0458871Y0484710D01*
X0459300Y0483711D02*
X0460700Y0483711D01*
X0460700Y0482713D02*
X0459300Y0482713D01*
X0459300Y0481714D02*
X0460700Y0481714D01*
X0460703Y0480716D02*
X0459297Y0480716D01*
X0458298Y0479717D02*
X0461702Y0479717D01*
X0462700Y0478719D02*
X0457300Y0478719D01*
X0456781Y0476800D02*
X0453219Y0476800D01*
X0450700Y0474281D01*
X0450700Y0470719D01*
X0453219Y0468200D01*
X0456781Y0468200D01*
X0459300Y0470719D01*
X0459300Y0474281D01*
X0456781Y0476800D01*
X0456859Y0476722D02*
X0463141Y0476722D01*
X0462142Y0475723D02*
X0457858Y0475723D01*
X0458856Y0474725D02*
X0461143Y0474725D01*
X0460700Y0473726D02*
X0459300Y0473726D01*
X0459300Y0472728D02*
X0460700Y0472728D01*
X0460700Y0471729D02*
X0459300Y0471729D01*
X0459300Y0470731D02*
X0460700Y0470731D01*
X0461687Y0469732D02*
X0458313Y0469732D01*
X0457315Y0468734D02*
X0462685Y0468734D01*
X0452685Y0468734D02*
X0447315Y0468734D01*
X0446781Y0468200D02*
X0449300Y0470719D01*
X0449300Y0474281D01*
X0446781Y0476800D01*
X0443219Y0476800D01*
X0440700Y0474281D01*
X0440700Y0470719D01*
X0443219Y0468200D01*
X0446781Y0468200D01*
X0448313Y0469732D02*
X0451687Y0469732D01*
X0450700Y0470731D02*
X0449300Y0470731D01*
X0449300Y0471729D02*
X0450700Y0471729D01*
X0450700Y0472728D02*
X0449300Y0472728D01*
X0449300Y0473726D02*
X0450700Y0473726D01*
X0451143Y0474725D02*
X0448856Y0474725D01*
X0447858Y0475723D02*
X0452142Y0475723D01*
X0453141Y0476722D02*
X0446859Y0476722D01*
X0446781Y0478200D02*
X0449300Y0480719D01*
X0449300Y0484281D01*
X0446781Y0486800D01*
X0443219Y0486800D01*
X0440700Y0484281D01*
X0440700Y0480719D01*
X0443219Y0478200D01*
X0446781Y0478200D01*
X0447300Y0478719D02*
X0452700Y0478719D01*
X0451702Y0479717D02*
X0448298Y0479717D01*
X0449297Y0480716D02*
X0450703Y0480716D01*
X0450700Y0481714D02*
X0449300Y0481714D01*
X0449300Y0482713D02*
X0450700Y0482713D01*
X0450700Y0483711D02*
X0449300Y0483711D01*
X0448871Y0484710D02*
X0451129Y0484710D01*
X0452127Y0485708D02*
X0447873Y0485708D01*
X0446874Y0486707D02*
X0453126Y0486707D01*
X0443126Y0486707D02*
X0436874Y0486707D01*
X0436781Y0486800D02*
X0433219Y0486800D01*
X0430700Y0484281D01*
X0430700Y0480719D01*
X0433219Y0478200D01*
X0436781Y0478200D01*
X0439300Y0480719D01*
X0439300Y0484281D01*
X0436781Y0486800D01*
X0437873Y0485708D02*
X0442127Y0485708D01*
X0441129Y0484710D02*
X0438871Y0484710D01*
X0439300Y0483711D02*
X0440700Y0483711D01*
X0440700Y0482713D02*
X0439300Y0482713D01*
X0439300Y0481714D02*
X0440700Y0481714D01*
X0440703Y0480716D02*
X0439297Y0480716D01*
X0438298Y0479717D02*
X0441702Y0479717D01*
X0442700Y0478719D02*
X0437300Y0478719D01*
X0436781Y0476800D02*
X0433219Y0476800D01*
X0430700Y0474281D01*
X0430700Y0470719D01*
X0433219Y0468200D01*
X0436781Y0468200D01*
X0439300Y0470719D01*
X0439300Y0474281D01*
X0436781Y0476800D01*
X0436859Y0476722D02*
X0443141Y0476722D01*
X0442142Y0475723D02*
X0437858Y0475723D01*
X0438856Y0474725D02*
X0441143Y0474725D01*
X0440700Y0473726D02*
X0439300Y0473726D01*
X0439300Y0472728D02*
X0440700Y0472728D01*
X0440700Y0471729D02*
X0439300Y0471729D01*
X0439300Y0470731D02*
X0440700Y0470731D01*
X0441687Y0469732D02*
X0438313Y0469732D01*
X0437315Y0468734D02*
X0442685Y0468734D01*
X0432685Y0468734D02*
X0427315Y0468734D01*
X0428313Y0469732D02*
X0431687Y0469732D01*
X0430700Y0470731D02*
X0429300Y0470731D01*
X0429300Y0471729D02*
X0430700Y0471729D01*
X0430700Y0472728D02*
X0429300Y0472728D01*
X0429300Y0473726D02*
X0430700Y0473726D01*
X0431143Y0474725D02*
X0428856Y0474725D01*
X0427858Y0475723D02*
X0432142Y0475723D01*
X0433141Y0476722D02*
X0426859Y0476722D01*
X0427300Y0478719D02*
X0432700Y0478719D01*
X0431702Y0479717D02*
X0428298Y0479717D01*
X0429297Y0480716D02*
X0430703Y0480716D01*
X0430700Y0481714D02*
X0429300Y0481714D01*
X0429300Y0482713D02*
X0430700Y0482713D01*
X0430700Y0483711D02*
X0429300Y0483711D01*
X0428871Y0484710D02*
X0431129Y0484710D01*
X0432127Y0485708D02*
X0427873Y0485708D01*
X0426874Y0486707D02*
X0433126Y0486707D01*
X0420700Y0482713D02*
X0390946Y0482713D01*
X0391023Y0482579D02*
X0390825Y0482921D01*
X0390546Y0483200D01*
X0390204Y0483398D01*
X0389822Y0483500D01*
X0385625Y0483500D01*
X0385625Y0478000D01*
X0391125Y0478000D01*
X0391125Y0482197D01*
X0391023Y0482579D01*
X0390625Y0482713D02*
X0379375Y0482713D01*
X0379304Y0482713D02*
X0374251Y0482713D01*
X0374425Y0481714D02*
X0379125Y0481714D01*
X0379375Y0481714D02*
X0390625Y0481714D01*
X0391125Y0481714D02*
X0420700Y0481714D01*
X0420703Y0480716D02*
X0391125Y0480716D01*
X0390625Y0480716D02*
X0379375Y0480716D01*
X0379125Y0480716D02*
X0374425Y0480716D01*
X0374425Y0479717D02*
X0379125Y0479717D01*
X0379375Y0479717D02*
X0390625Y0479717D01*
X0391125Y0479717D02*
X0421702Y0479717D01*
X0422700Y0478719D02*
X0391125Y0478719D01*
X0390625Y0478719D02*
X0379375Y0478719D01*
X0379125Y0478719D02*
X0374425Y0478719D01*
X0374425Y0473726D02*
X0379125Y0473726D01*
X0379375Y0477720D02*
X0390625Y0477720D01*
X0391125Y0476722D02*
X0423141Y0476722D01*
X0446250Y0455625D02*
X0446250Y0441250D01*
X0466250Y0421250D01*
X0467120Y0418808D02*
X0628750Y0418808D01*
X0628750Y0419806D02*
X0468454Y0419806D01*
X0468839Y0420805D02*
X0628750Y0420805D01*
X0628750Y0421803D02*
X0468823Y0421803D01*
X0468359Y0422802D02*
X0628750Y0422802D01*
X0628750Y0423801D02*
X0466858Y0423801D01*
X0465247Y0424799D02*
X0628750Y0424799D01*
X0628750Y0425798D02*
X0464248Y0425798D01*
X0463250Y0426796D02*
X0628750Y0426796D01*
X0628750Y0427795D02*
X0462251Y0427795D01*
X0461252Y0428793D02*
X0628750Y0428793D01*
X0628750Y0429792D02*
X0460254Y0429792D01*
X0459255Y0430790D02*
X0628750Y0430790D01*
X0628750Y0431789D02*
X0458257Y0431789D01*
X0457258Y0432787D02*
X0628750Y0432787D01*
X0628750Y0433786D02*
X0456260Y0433786D01*
X0455261Y0434784D02*
X0628750Y0434784D01*
X0628750Y0435783D02*
X0454263Y0435783D01*
X0453264Y0436781D02*
X0628750Y0436781D01*
X0628750Y0437780D02*
X0452266Y0437780D01*
X0451267Y0438778D02*
X0628750Y0438778D01*
X0628750Y0439777D02*
X0450269Y0439777D01*
X0449270Y0440775D02*
X0628750Y0440775D01*
X0628750Y0451759D02*
X0622981Y0451759D01*
X0623796Y0452757D02*
X0628750Y0452757D01*
X0628750Y0453756D02*
X0624222Y0453756D01*
X0624336Y0455753D02*
X0628750Y0455753D01*
X0628750Y0456751D02*
X0624046Y0456751D01*
X0623441Y0457750D02*
X0628750Y0457750D01*
X0628750Y0458748D02*
X0622326Y0458748D01*
X0620450Y0458748D02*
X0619550Y0458748D01*
X0619550Y0457750D02*
X0620450Y0457750D01*
X0620450Y0456751D02*
X0619550Y0456751D01*
X0619550Y0455753D02*
X0620450Y0455753D01*
X0620450Y0454754D02*
X0628750Y0454754D01*
X0620450Y0453756D02*
X0619550Y0453756D01*
X0619550Y0454754D02*
X0614200Y0454754D01*
X0614200Y0454165D02*
X0613561Y0452621D01*
X0612379Y0451439D01*
X0610835Y0450800D01*
X0609165Y0450800D01*
X0607621Y0451439D01*
X0606439Y0452621D01*
X0605800Y0454165D01*
X0605800Y0455835D01*
X0606439Y0457379D01*
X0607621Y0458561D01*
X0609165Y0459200D01*
X0610835Y0459200D01*
X0612379Y0458561D01*
X0613561Y0457379D01*
X0614200Y0455835D01*
X0614200Y0454165D01*
X0614031Y0453756D02*
X0615778Y0453756D01*
X0616204Y0452757D02*
X0613617Y0452757D01*
X0612699Y0451759D02*
X0617019Y0451759D01*
X0619550Y0451759D02*
X0620450Y0451759D01*
X0620450Y0452757D02*
X0619550Y0452757D01*
X0615664Y0455753D02*
X0614200Y0455753D01*
X0613821Y0456751D02*
X0615954Y0456751D01*
X0616559Y0457750D02*
X0613190Y0457750D01*
X0611926Y0458748D02*
X0617674Y0458748D01*
X0608074Y0458748D02*
X0601926Y0458748D01*
X0602379Y0458561D02*
X0600835Y0459200D01*
X0599165Y0459200D01*
X0597621Y0458561D01*
X0596439Y0457379D01*
X0595800Y0455835D01*
X0595800Y0454165D01*
X0596439Y0452621D01*
X0597621Y0451439D01*
X0599165Y0450800D01*
X0600835Y0450800D01*
X0602379Y0451439D01*
X0603561Y0452621D01*
X0604200Y0454165D01*
X0604200Y0455835D01*
X0603561Y0457379D01*
X0602379Y0458561D01*
X0603190Y0457750D02*
X0606810Y0457750D01*
X0606179Y0456751D02*
X0603821Y0456751D01*
X0604200Y0455753D02*
X0605800Y0455753D01*
X0605800Y0454754D02*
X0604200Y0454754D01*
X0604031Y0453756D02*
X0605969Y0453756D01*
X0606383Y0452757D02*
X0603617Y0452757D01*
X0602699Y0451759D02*
X0607301Y0451759D01*
X0597301Y0451759D02*
X0592699Y0451759D01*
X0593617Y0452757D02*
X0596383Y0452757D01*
X0595969Y0453756D02*
X0594031Y0453756D01*
X0594200Y0454754D02*
X0595800Y0454754D01*
X0595800Y0455753D02*
X0594200Y0455753D01*
X0593821Y0456751D02*
X0596179Y0456751D01*
X0596810Y0457750D02*
X0593190Y0457750D01*
X0591926Y0458748D02*
X0598074Y0458748D01*
X0586404Y0469732D02*
X0583313Y0469732D01*
X0584300Y0470731D02*
X0585500Y0470731D01*
X0585500Y0471729D02*
X0584300Y0471729D01*
X0548074Y0458748D02*
X0541926Y0458748D01*
X0542379Y0458561D02*
X0540835Y0459200D01*
X0539165Y0459200D01*
X0537621Y0458561D01*
X0536439Y0457379D01*
X0535800Y0455835D01*
X0535800Y0454165D01*
X0536439Y0452621D01*
X0537621Y0451439D01*
X0539165Y0450800D01*
X0540835Y0450800D01*
X0542379Y0451439D01*
X0543561Y0452621D01*
X0544200Y0454165D01*
X0544200Y0455835D01*
X0543561Y0457379D01*
X0542379Y0458561D01*
X0543190Y0457750D02*
X0546810Y0457750D01*
X0546179Y0456751D02*
X0543821Y0456751D01*
X0544200Y0455753D02*
X0545800Y0455753D01*
X0545800Y0454754D02*
X0544200Y0454754D01*
X0544031Y0453756D02*
X0545969Y0453756D01*
X0546383Y0452757D02*
X0543617Y0452757D01*
X0542699Y0451759D02*
X0547301Y0451759D01*
X0537301Y0451759D02*
X0532699Y0451759D01*
X0533617Y0452757D02*
X0536383Y0452757D01*
X0535969Y0453756D02*
X0534031Y0453756D01*
X0534200Y0454754D02*
X0535800Y0454754D01*
X0535800Y0455753D02*
X0534200Y0455753D01*
X0533821Y0456751D02*
X0536179Y0456751D01*
X0536810Y0457750D02*
X0533190Y0457750D01*
X0531926Y0458748D02*
X0538074Y0458748D01*
X0520703Y0480716D02*
X0519297Y0480716D01*
X0519300Y0481714D02*
X0520700Y0481714D01*
X0520700Y0482713D02*
X0519300Y0482713D01*
X0519300Y0483711D02*
X0520700Y0483711D01*
X0521129Y0484710D02*
X0518871Y0484710D01*
X0517873Y0485708D02*
X0522127Y0485708D01*
X0523126Y0486707D02*
X0516874Y0486707D01*
X0444450Y0448763D02*
X0379300Y0448763D01*
X0378846Y0447765D02*
X0444450Y0447765D01*
X0444450Y0446766D02*
X0377847Y0446766D01*
X0376849Y0445768D02*
X0444450Y0445768D01*
X0444450Y0444769D02*
X0371300Y0444769D01*
X0371300Y0443771D02*
X0372690Y0443771D01*
X0371691Y0442772D02*
X0371300Y0442772D01*
X0371300Y0445768D02*
X0373151Y0445768D01*
X0372153Y0446766D02*
X0371300Y0446766D01*
X0377310Y0443771D02*
X0444450Y0443771D01*
X0444450Y0442772D02*
X0378309Y0442772D01*
X0379300Y0441774D02*
X0444450Y0441774D01*
X0444450Y0440775D02*
X0379300Y0440775D01*
X0379300Y0439777D02*
X0445178Y0439777D01*
X0446176Y0438778D02*
X0379300Y0438778D01*
X0378861Y0437780D02*
X0447175Y0437780D01*
X0448173Y0436781D02*
X0377862Y0436781D01*
X0376864Y0435783D02*
X0449172Y0435783D01*
X0450170Y0434784D02*
X0371300Y0434784D01*
X0371300Y0433786D02*
X0372705Y0433786D01*
X0371706Y0432787D02*
X0371300Y0432787D01*
X0371300Y0435783D02*
X0373136Y0435783D01*
X0372138Y0436781D02*
X0371300Y0436781D01*
X0377295Y0433786D02*
X0451169Y0433786D01*
X0452167Y0432787D02*
X0378294Y0432787D01*
X0379292Y0431789D02*
X0453166Y0431789D01*
X0454164Y0430790D02*
X0379300Y0430790D01*
X0379300Y0429792D02*
X0455163Y0429792D01*
X0456161Y0428793D02*
X0379300Y0428793D01*
X0378876Y0427795D02*
X0457160Y0427795D01*
X0458158Y0426796D02*
X0377877Y0426796D01*
X0376879Y0425798D02*
X0459157Y0425798D01*
X0460155Y0424799D02*
X0371300Y0424799D01*
X0371300Y0423801D02*
X0372719Y0423801D01*
X0371721Y0422802D02*
X0371300Y0422802D01*
X0371300Y0425798D02*
X0373121Y0425798D01*
X0372123Y0426796D02*
X0371300Y0426796D01*
X0377281Y0423801D02*
X0461154Y0423801D01*
X0462152Y0422802D02*
X0378279Y0422802D01*
X0379278Y0421803D02*
X0463151Y0421803D01*
X0463661Y0420805D02*
X0379300Y0420805D01*
X0379300Y0419806D02*
X0464046Y0419806D01*
X0465380Y0418808D02*
X0379300Y0418808D01*
X0378891Y0417809D02*
X0628750Y0417809D01*
X0628750Y0416811D02*
X0377892Y0416811D01*
X0376894Y0415812D02*
X0628750Y0415812D01*
X0628750Y0414814D02*
X0371300Y0414814D01*
X0371300Y0415812D02*
X0373106Y0415812D01*
X0372108Y0416811D02*
X0371300Y0416811D01*
X0371300Y0413815D02*
X0372734Y0413815D01*
X0371736Y0412817D02*
X0371300Y0412817D01*
X0371300Y0406826D02*
X0372093Y0406826D01*
X0371300Y0405827D02*
X0373092Y0405827D01*
X0372749Y0403830D02*
X0371300Y0403830D01*
X0371300Y0402832D02*
X0371751Y0402832D01*
X0371300Y0404829D02*
X0464010Y0404829D01*
X0464158Y0404680D02*
X0465110Y0404286D01*
X0465668Y0404286D01*
X0470700Y0399254D01*
X0470700Y0395719D01*
X0473219Y0393200D01*
X0476781Y0393200D01*
X0479300Y0395719D01*
X0479300Y0399281D01*
X0476781Y0401800D01*
X0473246Y0401800D01*
X0468214Y0406832D01*
X0468214Y0407390D01*
X0467820Y0408342D01*
X0467092Y0409070D01*
X0466140Y0409464D01*
X0465110Y0409464D01*
X0464158Y0409070D01*
X0463430Y0408342D01*
X0463036Y0407390D01*
X0463036Y0406360D01*
X0463430Y0405408D01*
X0464158Y0404680D01*
X0463257Y0405827D02*
X0376908Y0405827D01*
X0377907Y0406826D02*
X0463036Y0406826D01*
X0463216Y0407824D02*
X0378905Y0407824D01*
X0379300Y0408823D02*
X0463911Y0408823D01*
X0465625Y0406875D02*
X0475000Y0397500D01*
X0479300Y0397839D02*
X0486900Y0397839D01*
X0486439Y0397379D02*
X0485800Y0395835D01*
X0485800Y0394165D01*
X0486439Y0392621D01*
X0487621Y0391439D01*
X0489165Y0390800D01*
X0490835Y0390800D01*
X0492379Y0391439D01*
X0493561Y0392621D01*
X0494200Y0394165D01*
X0494200Y0395835D01*
X0493561Y0397379D01*
X0492379Y0398561D01*
X0490835Y0399200D01*
X0489165Y0399200D01*
X0487621Y0398561D01*
X0486439Y0397379D01*
X0486216Y0396841D02*
X0479300Y0396841D01*
X0479300Y0395842D02*
X0485803Y0395842D01*
X0485800Y0394844D02*
X0478425Y0394844D01*
X0477426Y0393845D02*
X0485932Y0393845D01*
X0486346Y0392847D02*
X0378234Y0392847D01*
X0377236Y0393845D02*
X0452574Y0393845D01*
X0453219Y0393200D02*
X0456781Y0393200D01*
X0459300Y0395719D01*
X0459300Y0399281D01*
X0456781Y0401800D01*
X0453219Y0401800D01*
X0450700Y0399281D01*
X0450700Y0395719D01*
X0453219Y0393200D01*
X0453136Y0392000D02*
X0450500Y0389364D01*
X0450500Y0388000D01*
X0454500Y0388000D01*
X0454500Y0392000D01*
X0453136Y0392000D01*
X0452984Y0391848D02*
X0379233Y0391848D01*
X0379300Y0390850D02*
X0451986Y0390850D01*
X0450987Y0389851D02*
X0379300Y0389851D01*
X0379300Y0388853D02*
X0450500Y0388853D01*
X0450500Y0387000D02*
X0450500Y0385636D01*
X0453136Y0383000D01*
X0454500Y0383000D01*
X0454500Y0387000D01*
X0455500Y0387000D01*
X0455500Y0388000D01*
X0459500Y0388000D01*
X0459500Y0389364D01*
X0456864Y0392000D01*
X0455500Y0392000D01*
X0455500Y0388000D01*
X0454500Y0388000D01*
X0454500Y0387000D01*
X0450500Y0387000D01*
X0450500Y0386856D02*
X0377937Y0386856D01*
X0378935Y0387854D02*
X0454500Y0387854D01*
X0454500Y0386856D02*
X0455500Y0386856D01*
X0455500Y0387000D02*
X0455500Y0383000D01*
X0456864Y0383000D01*
X0459500Y0385636D01*
X0459500Y0387000D01*
X0455500Y0387000D01*
X0455500Y0387854D02*
X0464500Y0387854D01*
X0464500Y0388000D02*
X0464500Y0387000D01*
X0465500Y0387000D01*
X0465500Y0388000D01*
X0469500Y0388000D01*
X0469500Y0389364D01*
X0466864Y0392000D01*
X0465500Y0392000D01*
X0465500Y0388000D01*
X0464500Y0388000D01*
X0464500Y0392000D01*
X0463136Y0392000D01*
X0460500Y0389364D01*
X0460500Y0388000D01*
X0464500Y0388000D01*
X0464500Y0388853D02*
X0465500Y0388853D01*
X0465500Y0389851D02*
X0464500Y0389851D01*
X0464500Y0390850D02*
X0465500Y0390850D01*
X0465500Y0391848D02*
X0464500Y0391848D01*
X0462984Y0391848D02*
X0457016Y0391848D01*
X0458014Y0390850D02*
X0461986Y0390850D01*
X0460987Y0389851D02*
X0459013Y0389851D01*
X0459500Y0388853D02*
X0460500Y0388853D01*
X0460500Y0387000D02*
X0460500Y0385636D01*
X0463136Y0383000D01*
X0464500Y0383000D01*
X0464500Y0387000D01*
X0460500Y0387000D01*
X0460500Y0386856D02*
X0459500Y0386856D01*
X0459500Y0385857D02*
X0460500Y0385857D01*
X0461277Y0384859D02*
X0458723Y0384859D01*
X0457724Y0383860D02*
X0462276Y0383860D01*
X0464500Y0383860D02*
X0465500Y0383860D01*
X0465500Y0383000D02*
X0465500Y0387000D01*
X0469500Y0387000D01*
X0469500Y0385636D01*
X0466864Y0383000D01*
X0465500Y0383000D01*
X0465500Y0384859D02*
X0464500Y0384859D01*
X0464500Y0385857D02*
X0465500Y0385857D01*
X0465500Y0386856D02*
X0464500Y0386856D01*
X0465500Y0387854D02*
X0474500Y0387854D01*
X0474500Y0388000D02*
X0474500Y0387000D01*
X0475500Y0387000D01*
X0475500Y0388000D01*
X0479500Y0388000D01*
X0479500Y0389364D01*
X0476864Y0392000D01*
X0475500Y0392000D01*
X0475500Y0388000D01*
X0474500Y0388000D01*
X0474500Y0392000D01*
X0473136Y0392000D01*
X0470500Y0389364D01*
X0470500Y0388000D01*
X0474500Y0388000D01*
X0474500Y0388853D02*
X0475500Y0388853D01*
X0475500Y0389851D02*
X0474500Y0389851D01*
X0474500Y0390850D02*
X0475500Y0390850D01*
X0475500Y0391848D02*
X0474500Y0391848D01*
X0472984Y0391848D02*
X0467016Y0391848D01*
X0466781Y0393200D02*
X0469300Y0395719D01*
X0469300Y0399281D01*
X0466781Y0401800D01*
X0463219Y0401800D01*
X0460700Y0399281D01*
X0460700Y0395719D01*
X0463219Y0393200D01*
X0466781Y0393200D01*
X0467426Y0393845D02*
X0472574Y0393845D01*
X0471575Y0394844D02*
X0468425Y0394844D01*
X0469300Y0395842D02*
X0470700Y0395842D01*
X0470700Y0396841D02*
X0469300Y0396841D01*
X0469300Y0397839D02*
X0470700Y0397839D01*
X0470700Y0398838D02*
X0469300Y0398838D01*
X0468745Y0399836D02*
X0470118Y0399836D01*
X0469120Y0400835D02*
X0467746Y0400835D01*
X0468121Y0401833D02*
X0379248Y0401833D01*
X0379300Y0400835D02*
X0452254Y0400835D01*
X0451255Y0399836D02*
X0379300Y0399836D01*
X0379300Y0398838D02*
X0450700Y0398838D01*
X0450700Y0397839D02*
X0378920Y0397839D01*
X0377922Y0396841D02*
X0450700Y0396841D01*
X0450700Y0395842D02*
X0376923Y0395842D01*
X0373077Y0395842D02*
X0371300Y0395842D01*
X0371300Y0394844D02*
X0451575Y0394844D01*
X0454500Y0391848D02*
X0455500Y0391848D01*
X0455500Y0390850D02*
X0454500Y0390850D01*
X0454500Y0389851D02*
X0455500Y0389851D01*
X0455500Y0388853D02*
X0454500Y0388853D01*
X0454500Y0385857D02*
X0455500Y0385857D01*
X0455500Y0384859D02*
X0454500Y0384859D01*
X0454500Y0383860D02*
X0455500Y0383860D01*
X0452276Y0383860D02*
X0377221Y0383860D01*
X0378220Y0382862D02*
X0621700Y0382862D01*
X0621700Y0383860D02*
X0477724Y0383860D01*
X0476864Y0383000D02*
X0479500Y0385636D01*
X0479500Y0387000D01*
X0475500Y0387000D01*
X0475500Y0383000D01*
X0476864Y0383000D01*
X0475500Y0383860D02*
X0474500Y0383860D01*
X0474500Y0383000D02*
X0474500Y0387000D01*
X0470500Y0387000D01*
X0470500Y0385636D01*
X0473136Y0383000D01*
X0474500Y0383000D01*
X0474500Y0384859D02*
X0475500Y0384859D01*
X0475500Y0385857D02*
X0474500Y0385857D01*
X0474500Y0386856D02*
X0475500Y0386856D01*
X0475500Y0387854D02*
X0621700Y0387854D01*
X0621700Y0386856D02*
X0479500Y0386856D01*
X0479500Y0385857D02*
X0621700Y0385857D01*
X0621700Y0384859D02*
X0478723Y0384859D01*
X0479500Y0388853D02*
X0621480Y0388853D01*
X0620482Y0389851D02*
X0479013Y0389851D01*
X0478014Y0390850D02*
X0489045Y0390850D01*
X0490955Y0390850D02*
X0499045Y0390850D01*
X0499165Y0390800D02*
X0500835Y0390800D01*
X0502379Y0391439D01*
X0503561Y0392621D01*
X0504200Y0394165D01*
X0504200Y0395835D01*
X0503561Y0397379D01*
X0502379Y0398561D01*
X0500835Y0399200D01*
X0499165Y0399200D01*
X0497621Y0398561D01*
X0496439Y0397379D01*
X0495800Y0395835D01*
X0495800Y0394165D01*
X0496439Y0392621D01*
X0497621Y0391439D01*
X0499165Y0390800D01*
X0500955Y0390850D02*
X0509045Y0390850D01*
X0509165Y0390800D02*
X0510835Y0390800D01*
X0512379Y0391439D01*
X0513561Y0392621D01*
X0514200Y0394165D01*
X0514200Y0395835D01*
X0513561Y0397379D01*
X0512379Y0398561D01*
X0510835Y0399200D01*
X0509165Y0399200D01*
X0507621Y0398561D01*
X0506439Y0397379D01*
X0505800Y0395835D01*
X0505800Y0394165D01*
X0506439Y0392621D01*
X0507621Y0391439D01*
X0509165Y0390800D01*
X0510955Y0390850D02*
X0519045Y0390850D01*
X0519165Y0390800D02*
X0520835Y0390800D01*
X0522379Y0391439D01*
X0523561Y0392621D01*
X0524200Y0394165D01*
X0524200Y0395835D01*
X0523561Y0397379D01*
X0522379Y0398561D01*
X0520835Y0399200D01*
X0519165Y0399200D01*
X0517621Y0398561D01*
X0516439Y0397379D01*
X0515800Y0395835D01*
X0515800Y0394165D01*
X0516439Y0392621D01*
X0517621Y0391439D01*
X0519165Y0390800D01*
X0520955Y0390850D02*
X0529045Y0390850D01*
X0529165Y0390800D02*
X0530835Y0390800D01*
X0532379Y0391439D01*
X0533561Y0392621D01*
X0534200Y0394165D01*
X0534200Y0395835D01*
X0533561Y0397379D01*
X0532379Y0398561D01*
X0530835Y0399200D01*
X0529165Y0399200D01*
X0527621Y0398561D01*
X0526439Y0397379D01*
X0525800Y0395835D01*
X0525800Y0394165D01*
X0526439Y0392621D01*
X0527621Y0391439D01*
X0529165Y0390800D01*
X0530955Y0390850D02*
X0539045Y0390850D01*
X0539165Y0390800D02*
X0540835Y0390800D01*
X0542379Y0391439D01*
X0543561Y0392621D01*
X0544200Y0394165D01*
X0544200Y0395754D01*
X0545700Y0394254D01*
X0545807Y0394147D01*
X0546439Y0392621D01*
X0547621Y0391439D01*
X0549165Y0390800D01*
X0550835Y0390800D01*
X0552379Y0391439D01*
X0553561Y0392621D01*
X0554200Y0394165D01*
X0554200Y0395835D01*
X0553561Y0397379D01*
X0552379Y0398561D01*
X0550835Y0399200D01*
X0549165Y0399200D01*
X0547621Y0398561D01*
X0547053Y0397993D01*
X0537589Y0407457D01*
X0537589Y0408015D01*
X0537195Y0408967D01*
X0536467Y0409695D01*
X0535515Y0410089D01*
X0534485Y0410089D01*
X0533533Y0409695D01*
X0532805Y0408967D01*
X0532411Y0408015D01*
X0532411Y0406985D01*
X0532805Y0406033D01*
X0533533Y0405305D01*
X0534485Y0404911D01*
X0535043Y0404911D01*
X0540754Y0399200D01*
X0539165Y0399200D01*
X0537621Y0398561D01*
X0536439Y0397379D01*
X0535800Y0395835D01*
X0535800Y0394165D01*
X0536439Y0392621D01*
X0537621Y0391439D01*
X0539165Y0390800D01*
X0540955Y0390850D02*
X0549045Y0390850D01*
X0550955Y0390850D02*
X0559045Y0390850D01*
X0559165Y0390800D02*
X0560835Y0390800D01*
X0562379Y0391439D01*
X0563561Y0392621D01*
X0564200Y0394165D01*
X0564200Y0395835D01*
X0563561Y0397379D01*
X0562379Y0398561D01*
X0560835Y0399200D01*
X0559165Y0399200D01*
X0557621Y0398561D01*
X0556439Y0397379D01*
X0555800Y0395835D01*
X0555800Y0394165D01*
X0556439Y0392621D01*
X0557621Y0391439D01*
X0559165Y0390800D01*
X0560955Y0390850D02*
X0569045Y0390850D01*
X0569165Y0390800D02*
X0570835Y0390800D01*
X0572379Y0391439D01*
X0573561Y0392621D01*
X0574200Y0394165D01*
X0574200Y0395835D01*
X0573561Y0397379D01*
X0572379Y0398561D01*
X0570835Y0399200D01*
X0569165Y0399200D01*
X0567621Y0398561D01*
X0566439Y0397379D01*
X0565800Y0395835D01*
X0565800Y0394165D01*
X0566439Y0392621D01*
X0567621Y0391439D01*
X0569165Y0390800D01*
X0570955Y0390850D02*
X0579045Y0390850D01*
X0579165Y0390800D02*
X0580835Y0390800D01*
X0582379Y0391439D01*
X0583561Y0392621D01*
X0584200Y0394165D01*
X0584200Y0395835D01*
X0583561Y0397379D01*
X0582379Y0398561D01*
X0580835Y0399200D01*
X0579165Y0399200D01*
X0577621Y0398561D01*
X0576439Y0397379D01*
X0575800Y0395835D01*
X0575800Y0394165D01*
X0576439Y0392621D01*
X0577621Y0391439D01*
X0579165Y0390800D01*
X0580955Y0390850D02*
X0589045Y0390850D01*
X0589165Y0390800D02*
X0590835Y0390800D01*
X0592379Y0391439D01*
X0593561Y0392621D01*
X0594200Y0394165D01*
X0594200Y0395835D01*
X0593561Y0397379D01*
X0592379Y0398561D01*
X0590835Y0399200D01*
X0589165Y0399200D01*
X0587621Y0398561D01*
X0586439Y0397379D01*
X0585800Y0395835D01*
X0585800Y0394165D01*
X0586439Y0392621D01*
X0587621Y0391439D01*
X0589165Y0390800D01*
X0590955Y0390850D02*
X0599045Y0390850D01*
X0599165Y0390800D02*
X0600835Y0390800D01*
X0602379Y0391439D01*
X0603561Y0392621D01*
X0604200Y0394165D01*
X0604200Y0395835D01*
X0603561Y0397379D01*
X0602379Y0398561D01*
X0600835Y0399200D01*
X0599165Y0399200D01*
X0597621Y0398561D01*
X0596439Y0397379D01*
X0595800Y0395835D01*
X0595800Y0394165D01*
X0596439Y0392621D01*
X0597621Y0391439D01*
X0599165Y0390800D01*
X0600955Y0390850D02*
X0609045Y0390850D01*
X0609165Y0390800D02*
X0610835Y0390800D01*
X0612379Y0391439D01*
X0613561Y0392621D01*
X0614200Y0394165D01*
X0614200Y0395835D01*
X0613561Y0397379D01*
X0612379Y0398561D01*
X0610835Y0399200D01*
X0609165Y0399200D01*
X0607621Y0398561D01*
X0606439Y0397379D01*
X0605800Y0395835D01*
X0605800Y0394165D01*
X0606439Y0392621D01*
X0607621Y0391439D01*
X0609165Y0390800D01*
X0610955Y0390850D02*
X0619045Y0390850D01*
X0617212Y0391848D02*
X0612788Y0391848D01*
X0613654Y0392847D02*
X0616346Y0392847D01*
X0615932Y0393845D02*
X0614068Y0393845D01*
X0614200Y0394844D02*
X0615800Y0394844D01*
X0615803Y0395842D02*
X0614197Y0395842D01*
X0613784Y0396841D02*
X0616216Y0396841D01*
X0616900Y0397839D02*
X0613100Y0397839D01*
X0611710Y0398838D02*
X0618290Y0398838D01*
X0621710Y0398838D02*
X0628750Y0398838D01*
X0628750Y0399836D02*
X0545209Y0399836D01*
X0544211Y0400835D02*
X0628750Y0400835D01*
X0628750Y0401833D02*
X0543212Y0401833D01*
X0542214Y0402832D02*
X0628750Y0402832D01*
X0628750Y0403830D02*
X0541215Y0403830D01*
X0540217Y0404829D02*
X0628750Y0404829D01*
X0628750Y0405827D02*
X0539218Y0405827D01*
X0538220Y0406826D02*
X0628750Y0406826D01*
X0628750Y0407824D02*
X0537589Y0407824D01*
X0537254Y0408823D02*
X0628750Y0408823D01*
X0628750Y0409821D02*
X0536161Y0409821D01*
X0533839Y0409821D02*
X0379300Y0409821D01*
X0379300Y0410820D02*
X0628750Y0410820D01*
X0628750Y0411818D02*
X0379263Y0411818D01*
X0378264Y0412817D02*
X0628750Y0412817D01*
X0628750Y0413815D02*
X0377266Y0413815D01*
X0377251Y0403830D02*
X0466124Y0403830D01*
X0467123Y0402832D02*
X0378249Y0402832D01*
X0372078Y0396841D02*
X0371300Y0396841D01*
X0371300Y0393845D02*
X0372764Y0393845D01*
X0371766Y0392847D02*
X0371300Y0392847D01*
X0371300Y0386856D02*
X0372063Y0386856D01*
X0371300Y0385857D02*
X0373062Y0385857D01*
X0372779Y0383860D02*
X0371300Y0383860D01*
X0371300Y0382862D02*
X0371780Y0382862D01*
X0371300Y0384859D02*
X0451277Y0384859D01*
X0450500Y0385857D02*
X0376938Y0385857D01*
X0379218Y0381863D02*
X0621700Y0381863D01*
X0621700Y0380865D02*
X0379300Y0380865D01*
X0379300Y0379866D02*
X0621700Y0379866D01*
X0621700Y0378868D02*
X0379300Y0378868D01*
X0378950Y0377869D02*
X0621700Y0377869D01*
X0621700Y0376870D02*
X0377952Y0376870D01*
X0376953Y0375872D02*
X0621700Y0375872D01*
X0621700Y0374873D02*
X0371300Y0374873D01*
X0371300Y0373875D02*
X0372794Y0373875D01*
X0371795Y0372876D02*
X0371300Y0372876D01*
X0371300Y0375872D02*
X0373047Y0375872D01*
X0372048Y0376870D02*
X0371300Y0376870D01*
X0377206Y0373875D02*
X0621700Y0373875D01*
X0621700Y0372876D02*
X0378205Y0372876D01*
X0379203Y0371878D02*
X0621700Y0371878D01*
X0621700Y0370879D02*
X0379300Y0370879D01*
X0379300Y0369881D02*
X0621700Y0369881D01*
X0621700Y0368882D02*
X0379300Y0368882D01*
X0378965Y0367884D02*
X0621700Y0367884D01*
X0621700Y0366885D02*
X0377966Y0366885D01*
X0376968Y0365887D02*
X0621700Y0365887D01*
X0621700Y0364888D02*
X0371300Y0364888D01*
X0371300Y0363890D02*
X0372809Y0363890D01*
X0371810Y0362891D02*
X0371300Y0362891D01*
X0371300Y0365887D02*
X0373032Y0365887D01*
X0372034Y0366885D02*
X0371300Y0366885D01*
X0377191Y0363890D02*
X0621700Y0363890D01*
X0621700Y0362891D02*
X0378190Y0362891D01*
X0379188Y0361893D02*
X0621700Y0361893D01*
X0621700Y0360894D02*
X0379300Y0360894D01*
X0379300Y0359896D02*
X0530269Y0359896D01*
X0530735Y0360089D02*
X0529783Y0359695D01*
X0529055Y0358967D01*
X0528661Y0358015D01*
X0528661Y0356985D01*
X0529055Y0356033D01*
X0529450Y0355639D01*
X0529450Y0350611D01*
X0529055Y0350217D01*
X0528661Y0349265D01*
X0528661Y0348235D01*
X0529055Y0347283D01*
X0529783Y0346555D01*
X0530735Y0346161D01*
X0531765Y0346161D01*
X0532717Y0346555D01*
X0533445Y0347283D01*
X0533839Y0348235D01*
X0533839Y0349265D01*
X0533445Y0350217D01*
X0533050Y0350611D01*
X0533050Y0355639D01*
X0533445Y0356033D01*
X0533839Y0356985D01*
X0533839Y0358015D01*
X0533445Y0358967D01*
X0532717Y0359695D01*
X0531765Y0360089D01*
X0530735Y0360089D01*
X0532231Y0359896D02*
X0621700Y0359896D01*
X0621700Y0358897D02*
X0533474Y0358897D01*
X0533839Y0357899D02*
X0621700Y0357899D01*
X0621700Y0356900D02*
X0533804Y0356900D01*
X0533313Y0355902D02*
X0621700Y0355902D01*
X0621700Y0354903D02*
X0533050Y0354903D01*
X0533050Y0353905D02*
X0621700Y0353905D01*
X0621700Y0352906D02*
X0533050Y0352906D01*
X0533050Y0351908D02*
X0621700Y0351908D01*
X0621700Y0350909D02*
X0533050Y0350909D01*
X0533572Y0349911D02*
X0621700Y0349911D01*
X0621700Y0348912D02*
X0533839Y0348912D01*
X0533706Y0347914D02*
X0621700Y0347914D01*
X0621700Y0346915D02*
X0533077Y0346915D01*
X0531250Y0348750D02*
X0531250Y0357500D01*
X0529187Y0355902D02*
X0376983Y0355902D01*
X0377981Y0356900D02*
X0528696Y0356900D01*
X0528661Y0357899D02*
X0378980Y0357899D01*
X0379300Y0358897D02*
X0529026Y0358897D01*
X0529450Y0354903D02*
X0371300Y0354903D01*
X0371300Y0353905D02*
X0372824Y0353905D01*
X0371825Y0352906D02*
X0371300Y0352906D01*
X0371300Y0355902D02*
X0373017Y0355902D01*
X0372019Y0356900D02*
X0371300Y0356900D01*
X0377176Y0353905D02*
X0529450Y0353905D01*
X0529450Y0352906D02*
X0378175Y0352906D01*
X0379173Y0351908D02*
X0529450Y0351908D01*
X0529450Y0350909D02*
X0379300Y0350909D01*
X0379300Y0349911D02*
X0528928Y0349911D01*
X0528661Y0348912D02*
X0379300Y0348912D01*
X0378995Y0347914D02*
X0528794Y0347914D01*
X0529423Y0346915D02*
X0377996Y0346915D01*
X0376998Y0345917D02*
X0621700Y0345917D01*
X0621700Y0344918D02*
X0371300Y0344918D01*
X0371300Y0343920D02*
X0372839Y0343920D01*
X0371840Y0342921D02*
X0371300Y0342921D01*
X0371300Y0345917D02*
X0373002Y0345917D01*
X0372004Y0346915D02*
X0371300Y0346915D01*
X0377161Y0343920D02*
X0621700Y0343920D01*
X0621700Y0342921D02*
X0378160Y0342921D01*
X0379159Y0341923D02*
X0621700Y0341923D01*
X0621700Y0340924D02*
X0379300Y0340924D01*
X0379300Y0339926D02*
X0613695Y0339926D01*
X0613995Y0340050D02*
X0612139Y0339281D01*
X0610719Y0337861D01*
X0609950Y0336005D01*
X0609950Y0333995D01*
X0610719Y0332139D01*
X0612139Y0330719D01*
X0613875Y0330000D01*
X0612139Y0329281D01*
X0610719Y0327861D01*
X0609950Y0326005D01*
X0609950Y0323995D01*
X0610719Y0322139D01*
X0612139Y0320719D01*
X0613995Y0319950D01*
X0616005Y0319950D01*
X0617861Y0320719D01*
X0619281Y0322139D01*
X0620050Y0323995D01*
X0620050Y0326005D01*
X0619281Y0327861D01*
X0617861Y0329281D01*
X0616125Y0330000D01*
X0617861Y0330719D01*
X0619281Y0332139D01*
X0620050Y0333995D01*
X0620050Y0336005D01*
X0619281Y0337861D01*
X0617861Y0339281D01*
X0616005Y0340050D01*
X0613995Y0340050D01*
X0616305Y0339926D02*
X0621700Y0339926D01*
X0621700Y0338927D02*
X0618215Y0338927D01*
X0619213Y0337929D02*
X0621700Y0337929D01*
X0621700Y0336930D02*
X0619667Y0336930D01*
X0620050Y0335932D02*
X0621700Y0335932D01*
X0621700Y0334933D02*
X0620050Y0334933D01*
X0620025Y0333934D02*
X0621700Y0333934D01*
X0621700Y0332936D02*
X0619611Y0332936D01*
X0619079Y0331937D02*
X0621700Y0331937D01*
X0621700Y0330939D02*
X0618081Y0330939D01*
X0618200Y0328942D02*
X0621700Y0328942D01*
X0621700Y0329940D02*
X0616269Y0329940D01*
X0613731Y0329940D02*
X0576800Y0329940D01*
X0576800Y0328942D02*
X0611800Y0328942D01*
X0610802Y0327943D02*
X0576800Y0327943D01*
X0576800Y0326945D02*
X0610340Y0326945D01*
X0609950Y0325946D02*
X0576800Y0325946D01*
X0576800Y0324948D02*
X0609950Y0324948D01*
X0609969Y0323949D02*
X0576800Y0323949D01*
X0576800Y0322951D02*
X0610383Y0322951D01*
X0610906Y0321952D02*
X0576800Y0321952D01*
X0576800Y0320954D02*
X0611904Y0320954D01*
X0613983Y0319955D02*
X0576800Y0319955D01*
X0576800Y0318957D02*
X0621700Y0318957D01*
X0621700Y0319955D02*
X0616017Y0319955D01*
X0618096Y0320954D02*
X0621700Y0320954D01*
X0621700Y0321952D02*
X0619094Y0321952D01*
X0619617Y0322951D02*
X0621700Y0322951D01*
X0621700Y0323949D02*
X0620031Y0323949D01*
X0620050Y0324948D02*
X0621700Y0324948D01*
X0621700Y0325946D02*
X0620050Y0325946D01*
X0619660Y0326945D02*
X0621700Y0326945D01*
X0621700Y0327943D02*
X0619198Y0327943D01*
X0611919Y0330939D02*
X0576607Y0330939D01*
X0575000Y0330000D02*
X0575000Y0296425D01*
X0479344Y0296425D01*
X0478921Y0296250D01*
X0476875Y0296250D01*
X0476875Y0313125D01*
X0473750Y0316250D01*
X0463125Y0316250D01*
X0463125Y0330000D01*
X0575000Y0330000D01*
X0575000Y0329940D02*
X0463125Y0329940D01*
X0463125Y0328942D02*
X0575000Y0328942D01*
X0575000Y0327943D02*
X0463125Y0327943D01*
X0463125Y0326945D02*
X0575000Y0326945D01*
X0575000Y0325946D02*
X0463125Y0325946D01*
X0463125Y0324948D02*
X0492996Y0324948D01*
X0493846Y0325300D02*
X0491715Y0324417D01*
X0490083Y0322785D01*
X0489200Y0320654D01*
X0489200Y0309346D01*
X0490083Y0307215D01*
X0491715Y0305583D01*
X0493846Y0304700D01*
X0496154Y0304700D01*
X0498285Y0305583D01*
X0499917Y0307215D01*
X0500800Y0309346D01*
X0500800Y0320654D01*
X0499917Y0322785D01*
X0498285Y0324417D01*
X0496154Y0325300D01*
X0493846Y0325300D01*
X0491247Y0323949D02*
X0463125Y0323949D01*
X0463125Y0322951D02*
X0490248Y0322951D01*
X0489738Y0321952D02*
X0463125Y0321952D01*
X0463125Y0320954D02*
X0489324Y0320954D01*
X0489200Y0319955D02*
X0463125Y0319955D01*
X0463125Y0318957D02*
X0489200Y0318957D01*
X0489200Y0317958D02*
X0463125Y0317958D01*
X0463125Y0316960D02*
X0489200Y0316960D01*
X0489200Y0315961D02*
X0474039Y0315961D01*
X0475037Y0314963D02*
X0489200Y0314963D01*
X0489200Y0313964D02*
X0476036Y0313964D01*
X0476875Y0312966D02*
X0489200Y0312966D01*
X0489200Y0311967D02*
X0476875Y0311967D01*
X0476875Y0310969D02*
X0489200Y0310969D01*
X0489200Y0309970D02*
X0476875Y0309970D01*
X0476875Y0308972D02*
X0489355Y0308972D01*
X0489769Y0307973D02*
X0476875Y0307973D01*
X0476875Y0306975D02*
X0490323Y0306975D01*
X0491321Y0305976D02*
X0476875Y0305976D01*
X0476875Y0304978D02*
X0493176Y0304978D01*
X0496824Y0304978D02*
X0548176Y0304978D01*
X0548846Y0304700D02*
X0551154Y0304700D01*
X0553285Y0305583D01*
X0554917Y0307215D01*
X0555800Y0309346D01*
X0555800Y0320654D01*
X0554917Y0322785D01*
X0553285Y0324417D01*
X0551154Y0325300D01*
X0548846Y0325300D01*
X0546715Y0324417D01*
X0545083Y0322785D01*
X0544200Y0320654D01*
X0544200Y0309346D01*
X0545083Y0307215D01*
X0546715Y0305583D01*
X0548846Y0304700D01*
X0546321Y0305976D02*
X0498679Y0305976D01*
X0499677Y0306975D02*
X0545323Y0306975D01*
X0544769Y0307973D02*
X0500231Y0307973D01*
X0500645Y0308972D02*
X0544355Y0308972D01*
X0544200Y0309970D02*
X0500800Y0309970D01*
X0500800Y0310969D02*
X0544200Y0310969D01*
X0544200Y0311967D02*
X0500800Y0311967D01*
X0500800Y0312966D02*
X0544200Y0312966D01*
X0544200Y0313964D02*
X0500800Y0313964D01*
X0500800Y0314963D02*
X0544200Y0314963D01*
X0544200Y0315961D02*
X0500800Y0315961D01*
X0500800Y0316960D02*
X0544200Y0316960D01*
X0544200Y0317958D02*
X0500800Y0317958D01*
X0500800Y0318957D02*
X0544200Y0318957D01*
X0544200Y0319955D02*
X0500800Y0319955D01*
X0500676Y0320954D02*
X0544324Y0320954D01*
X0544738Y0321952D02*
X0500262Y0321952D01*
X0499752Y0322951D02*
X0545248Y0322951D01*
X0546247Y0323949D02*
X0498753Y0323949D01*
X0497004Y0324948D02*
X0547996Y0324948D01*
X0552004Y0324948D02*
X0575000Y0324948D01*
X0575000Y0323949D02*
X0553753Y0323949D01*
X0554752Y0322951D02*
X0575000Y0322951D01*
X0575000Y0321952D02*
X0555262Y0321952D01*
X0555676Y0320954D02*
X0575000Y0320954D01*
X0575000Y0319955D02*
X0555800Y0319955D01*
X0555800Y0318957D02*
X0575000Y0318957D01*
X0575000Y0317958D02*
X0555800Y0317958D01*
X0555800Y0316960D02*
X0575000Y0316960D01*
X0575000Y0315961D02*
X0555800Y0315961D01*
X0555800Y0314963D02*
X0575000Y0314963D01*
X0575000Y0313964D02*
X0555800Y0313964D01*
X0555800Y0312966D02*
X0575000Y0312966D01*
X0575000Y0311967D02*
X0555800Y0311967D01*
X0555800Y0310969D02*
X0575000Y0310969D01*
X0575000Y0309970D02*
X0555800Y0309970D01*
X0555645Y0308972D02*
X0575000Y0308972D01*
X0575000Y0307973D02*
X0555231Y0307973D01*
X0554677Y0306975D02*
X0575000Y0306975D01*
X0575000Y0305976D02*
X0553679Y0305976D01*
X0551824Y0304978D02*
X0575000Y0304978D01*
X0575000Y0303979D02*
X0476875Y0303979D01*
X0476875Y0302981D02*
X0575000Y0302981D01*
X0575000Y0301982D02*
X0476875Y0301982D01*
X0476875Y0300984D02*
X0575000Y0300984D01*
X0575000Y0299985D02*
X0476875Y0299985D01*
X0476875Y0298987D02*
X0575000Y0298987D01*
X0575000Y0297988D02*
X0476875Y0297988D01*
X0476875Y0296990D02*
X0575000Y0296990D01*
X0576800Y0296990D02*
X0582323Y0296990D01*
X0583179Y0297988D02*
X0576800Y0297988D01*
X0576800Y0298987D02*
X0582765Y0298987D01*
X0582700Y0299985D02*
X0576800Y0299985D01*
X0576800Y0300984D02*
X0582753Y0300984D01*
X0583167Y0301982D02*
X0576800Y0301982D01*
X0576800Y0302981D02*
X0583900Y0302981D01*
X0585370Y0303979D02*
X0576800Y0303979D01*
X0576800Y0304978D02*
X0590355Y0304978D01*
X0585478Y0305976D02*
X0576800Y0305976D01*
X0576800Y0306975D02*
X0583944Y0306975D01*
X0583185Y0307973D02*
X0576800Y0307973D01*
X0576800Y0308972D02*
X0582772Y0308972D01*
X0582700Y0309970D02*
X0576800Y0309970D01*
X0576800Y0310969D02*
X0582747Y0310969D01*
X0583161Y0311967D02*
X0576800Y0311967D01*
X0576800Y0312966D02*
X0583885Y0312966D01*
X0585334Y0313964D02*
X0576800Y0313964D01*
X0576800Y0314963D02*
X0621700Y0314963D01*
X0621700Y0315961D02*
X0576800Y0315961D01*
X0576800Y0316960D02*
X0621700Y0316960D01*
X0621700Y0317958D02*
X0576800Y0317958D01*
X0594666Y0313964D02*
X0621700Y0313964D01*
X0621700Y0312966D02*
X0617197Y0312966D01*
X0619607Y0311967D02*
X0621700Y0311967D01*
X0621700Y0310969D02*
X0620628Y0310969D01*
X0621626Y0309970D02*
X0621700Y0309970D01*
X0628300Y0309970D02*
X0628750Y0309970D01*
X0628750Y0308972D02*
X0628300Y0308972D01*
X0628300Y0307973D02*
X0628750Y0307973D01*
X0628750Y0306975D02*
X0628300Y0306975D01*
X0628300Y0305976D02*
X0628750Y0305976D01*
X0628750Y0304978D02*
X0628300Y0304978D01*
X0628300Y0303979D02*
X0628750Y0303979D01*
X0628750Y0302981D02*
X0628300Y0302981D01*
X0628300Y0301982D02*
X0628750Y0301982D01*
X0628750Y0300984D02*
X0628300Y0300984D01*
X0628300Y0299985D02*
X0628750Y0299985D01*
X0628750Y0298987D02*
X0628152Y0298987D01*
X0627655Y0297988D02*
X0628750Y0297988D01*
X0628750Y0296990D02*
X0626656Y0296990D01*
X0625658Y0295991D02*
X0628750Y0295991D01*
X0628750Y0294993D02*
X0624659Y0294993D01*
X0623661Y0293994D02*
X0628750Y0293994D01*
X0628750Y0292996D02*
X0622662Y0292996D01*
X0621373Y0291997D02*
X0628750Y0291997D01*
X0609417Y0298987D02*
X0605680Y0298987D01*
X0604682Y0299985D02*
X0608418Y0299985D01*
X0607788Y0300984D02*
X0603683Y0300984D01*
X0602685Y0301982D02*
X0607374Y0301982D01*
X0606961Y0302981D02*
X0602100Y0302981D01*
X0601719Y0303979D02*
X0606800Y0303979D01*
X0606800Y0304978D02*
X0600892Y0304978D01*
X0599893Y0305976D02*
X0606800Y0305976D01*
X0606942Y0306975D02*
X0598895Y0306975D01*
X0597896Y0307973D02*
X0607356Y0307973D01*
X0607770Y0308972D02*
X0597228Y0308972D01*
X0597300Y0309970D02*
X0608374Y0309970D01*
X0609372Y0310969D02*
X0597253Y0310969D01*
X0596839Y0311967D02*
X0610393Y0311967D01*
X0612803Y0312966D02*
X0596115Y0312966D01*
X0596821Y0297988D02*
X0597345Y0297988D01*
X0598344Y0296990D02*
X0596071Y0296990D01*
X0594558Y0295991D02*
X0599342Y0295991D01*
X0600341Y0294993D02*
X0589659Y0294993D01*
X0588661Y0293994D02*
X0601339Y0293994D01*
X0602338Y0292996D02*
X0587662Y0292996D01*
X0586664Y0291997D02*
X0603627Y0291997D01*
X0628300Y0310969D02*
X0628750Y0310969D01*
X0628750Y0311967D02*
X0628300Y0311967D01*
X0628300Y0312966D02*
X0628750Y0312966D01*
X0628750Y0313964D02*
X0628300Y0313964D01*
X0628300Y0314963D02*
X0628750Y0314963D01*
X0628750Y0315961D02*
X0628300Y0315961D01*
X0628300Y0316960D02*
X0628750Y0316960D01*
X0628750Y0317958D02*
X0628300Y0317958D01*
X0628300Y0318957D02*
X0628750Y0318957D01*
X0628750Y0319955D02*
X0628300Y0319955D01*
X0628300Y0320954D02*
X0628750Y0320954D01*
X0628750Y0321952D02*
X0628300Y0321952D01*
X0628300Y0322951D02*
X0628750Y0322951D01*
X0628750Y0323949D02*
X0628300Y0323949D01*
X0628300Y0324948D02*
X0628750Y0324948D01*
X0628750Y0325946D02*
X0628300Y0325946D01*
X0628300Y0326945D02*
X0628750Y0326945D01*
X0628750Y0327943D02*
X0628300Y0327943D01*
X0628300Y0328942D02*
X0628750Y0328942D01*
X0628750Y0329940D02*
X0628300Y0329940D01*
X0628300Y0330939D02*
X0628750Y0330939D01*
X0628750Y0331937D02*
X0628300Y0331937D01*
X0628300Y0332936D02*
X0628750Y0332936D01*
X0628750Y0333934D02*
X0628300Y0333934D01*
X0628300Y0334933D02*
X0628750Y0334933D01*
X0628750Y0335932D02*
X0628300Y0335932D01*
X0628300Y0336930D02*
X0628750Y0336930D01*
X0628750Y0337929D02*
X0628300Y0337929D01*
X0628300Y0338927D02*
X0628750Y0338927D01*
X0628750Y0339926D02*
X0628300Y0339926D01*
X0628300Y0340924D02*
X0628750Y0340924D01*
X0628750Y0341923D02*
X0628300Y0341923D01*
X0628300Y0342921D02*
X0628750Y0342921D01*
X0628750Y0343920D02*
X0628300Y0343920D01*
X0628300Y0344918D02*
X0628750Y0344918D01*
X0628750Y0345917D02*
X0628300Y0345917D01*
X0628300Y0346915D02*
X0628750Y0346915D01*
X0628750Y0347914D02*
X0628300Y0347914D01*
X0628300Y0348912D02*
X0628750Y0348912D01*
X0628750Y0349911D02*
X0628300Y0349911D01*
X0628300Y0350909D02*
X0628750Y0350909D01*
X0628750Y0351908D02*
X0628300Y0351908D01*
X0628300Y0352906D02*
X0628750Y0352906D01*
X0628750Y0353905D02*
X0628300Y0353905D01*
X0628300Y0354903D02*
X0628750Y0354903D01*
X0628750Y0355902D02*
X0628300Y0355902D01*
X0628300Y0356900D02*
X0628750Y0356900D01*
X0628750Y0357899D02*
X0628300Y0357899D01*
X0628300Y0358897D02*
X0628750Y0358897D01*
X0628750Y0359896D02*
X0628300Y0359896D01*
X0628300Y0360894D02*
X0628750Y0360894D01*
X0628750Y0361893D02*
X0628300Y0361893D01*
X0628300Y0362891D02*
X0628750Y0362891D01*
X0628750Y0363890D02*
X0628300Y0363890D01*
X0628300Y0364888D02*
X0628750Y0364888D01*
X0628750Y0365887D02*
X0628300Y0365887D01*
X0628300Y0366885D02*
X0628750Y0366885D01*
X0628750Y0367884D02*
X0628300Y0367884D01*
X0628300Y0368882D02*
X0628750Y0368882D01*
X0628750Y0369881D02*
X0628300Y0369881D01*
X0628300Y0370879D02*
X0628750Y0370879D01*
X0628750Y0371878D02*
X0628300Y0371878D01*
X0628300Y0372876D02*
X0628750Y0372876D01*
X0628750Y0373875D02*
X0628300Y0373875D01*
X0628300Y0374873D02*
X0628750Y0374873D01*
X0628750Y0375872D02*
X0628300Y0375872D01*
X0628300Y0376870D02*
X0628750Y0376870D01*
X0628750Y0377869D02*
X0628300Y0377869D01*
X0628300Y0378868D02*
X0628750Y0378868D01*
X0628750Y0379866D02*
X0628300Y0379866D01*
X0628300Y0380865D02*
X0628750Y0380865D01*
X0628750Y0381863D02*
X0628300Y0381863D01*
X0628300Y0382862D02*
X0628750Y0382862D01*
X0628750Y0383860D02*
X0628300Y0383860D01*
X0628300Y0384859D02*
X0628750Y0384859D01*
X0628750Y0385857D02*
X0628300Y0385857D01*
X0628300Y0386856D02*
X0628750Y0386856D01*
X0628750Y0387854D02*
X0628300Y0387854D01*
X0628300Y0388853D02*
X0628750Y0388853D01*
X0628750Y0389851D02*
X0628300Y0389851D01*
X0628220Y0390850D02*
X0628750Y0390850D01*
X0628750Y0391848D02*
X0627806Y0391848D01*
X0628750Y0392847D02*
X0626820Y0392847D01*
X0625822Y0393845D02*
X0628750Y0393845D01*
X0628750Y0394844D02*
X0624823Y0394844D01*
X0624197Y0395842D02*
X0628750Y0395842D01*
X0628750Y0396841D02*
X0623784Y0396841D01*
X0623100Y0397839D02*
X0628750Y0397839D01*
X0608290Y0398838D02*
X0601710Y0398838D01*
X0603100Y0397839D02*
X0606900Y0397839D01*
X0606216Y0396841D02*
X0603784Y0396841D01*
X0604197Y0395842D02*
X0605803Y0395842D01*
X0605800Y0394844D02*
X0604200Y0394844D01*
X0604068Y0393845D02*
X0605932Y0393845D01*
X0606346Y0392847D02*
X0603654Y0392847D01*
X0602788Y0391848D02*
X0607212Y0391848D01*
X0597212Y0391848D02*
X0592788Y0391848D01*
X0593654Y0392847D02*
X0596346Y0392847D01*
X0595932Y0393845D02*
X0594068Y0393845D01*
X0594200Y0394844D02*
X0595800Y0394844D01*
X0595803Y0395842D02*
X0594197Y0395842D01*
X0593784Y0396841D02*
X0596216Y0396841D01*
X0596900Y0397839D02*
X0593100Y0397839D01*
X0591710Y0398838D02*
X0598290Y0398838D01*
X0588290Y0398838D02*
X0581710Y0398838D01*
X0583100Y0397839D02*
X0586900Y0397839D01*
X0586216Y0396841D02*
X0583784Y0396841D01*
X0584197Y0395842D02*
X0585803Y0395842D01*
X0585800Y0394844D02*
X0584200Y0394844D01*
X0584068Y0393845D02*
X0585932Y0393845D01*
X0586346Y0392847D02*
X0583654Y0392847D01*
X0582788Y0391848D02*
X0587212Y0391848D01*
X0577212Y0391848D02*
X0572788Y0391848D01*
X0573654Y0392847D02*
X0576346Y0392847D01*
X0575932Y0393845D02*
X0574068Y0393845D01*
X0574200Y0394844D02*
X0575800Y0394844D01*
X0575803Y0395842D02*
X0574197Y0395842D01*
X0573784Y0396841D02*
X0576216Y0396841D01*
X0576900Y0397839D02*
X0573100Y0397839D01*
X0571710Y0398838D02*
X0578290Y0398838D01*
X0568290Y0398838D02*
X0561710Y0398838D01*
X0563100Y0397839D02*
X0566900Y0397839D01*
X0566216Y0396841D02*
X0563784Y0396841D01*
X0564197Y0395842D02*
X0565803Y0395842D01*
X0565800Y0394844D02*
X0564200Y0394844D01*
X0564068Y0393845D02*
X0565932Y0393845D01*
X0566346Y0392847D02*
X0563654Y0392847D01*
X0562788Y0391848D02*
X0567212Y0391848D01*
X0557212Y0391848D02*
X0552788Y0391848D01*
X0553654Y0392847D02*
X0556346Y0392847D01*
X0555932Y0393845D02*
X0554068Y0393845D01*
X0554200Y0394844D02*
X0555800Y0394844D01*
X0555803Y0395842D02*
X0554197Y0395842D01*
X0553784Y0396841D02*
X0556216Y0396841D01*
X0556900Y0397839D02*
X0553100Y0397839D01*
X0551710Y0398838D02*
X0558290Y0398838D01*
X0550000Y0395000D02*
X0547500Y0395000D01*
X0535000Y0407500D01*
X0533011Y0405827D02*
X0469218Y0405827D01*
X0470217Y0404829D02*
X0535126Y0404829D01*
X0536124Y0403830D02*
X0471215Y0403830D01*
X0472214Y0402832D02*
X0537123Y0402832D01*
X0538121Y0401833D02*
X0473212Y0401833D01*
X0477746Y0400835D02*
X0539120Y0400835D01*
X0540118Y0399836D02*
X0478745Y0399836D01*
X0479300Y0398838D02*
X0488290Y0398838D01*
X0491710Y0398838D02*
X0498290Y0398838D01*
X0496900Y0397839D02*
X0493100Y0397839D01*
X0493784Y0396841D02*
X0496216Y0396841D01*
X0495803Y0395842D02*
X0494197Y0395842D01*
X0494200Y0394844D02*
X0495800Y0394844D01*
X0495932Y0393845D02*
X0494068Y0393845D01*
X0493654Y0392847D02*
X0496346Y0392847D01*
X0497212Y0391848D02*
X0492788Y0391848D01*
X0487212Y0391848D02*
X0477016Y0391848D01*
X0471986Y0390850D02*
X0468014Y0390850D01*
X0469013Y0389851D02*
X0470987Y0389851D01*
X0470500Y0388853D02*
X0469500Y0388853D01*
X0469500Y0386856D02*
X0470500Y0386856D01*
X0470500Y0385857D02*
X0469500Y0385857D01*
X0468723Y0384859D02*
X0471277Y0384859D01*
X0472276Y0383860D02*
X0467724Y0383860D01*
X0462574Y0393845D02*
X0457426Y0393845D01*
X0458425Y0394844D02*
X0461575Y0394844D01*
X0460700Y0395842D02*
X0459300Y0395842D01*
X0459300Y0396841D02*
X0460700Y0396841D01*
X0460700Y0397839D02*
X0459300Y0397839D01*
X0459300Y0398838D02*
X0460700Y0398838D01*
X0461255Y0399836D02*
X0458745Y0399836D01*
X0457746Y0400835D02*
X0462254Y0400835D01*
X0468220Y0406826D02*
X0532477Y0406826D01*
X0532411Y0407824D02*
X0468034Y0407824D01*
X0467339Y0408823D02*
X0532746Y0408823D01*
X0531710Y0398838D02*
X0538290Y0398838D01*
X0536900Y0397839D02*
X0533100Y0397839D01*
X0533784Y0396841D02*
X0536216Y0396841D01*
X0535803Y0395842D02*
X0534197Y0395842D01*
X0534200Y0394844D02*
X0535800Y0394844D01*
X0535932Y0393845D02*
X0534068Y0393845D01*
X0533654Y0392847D02*
X0536346Y0392847D01*
X0537212Y0391848D02*
X0532788Y0391848D01*
X0527212Y0391848D02*
X0522788Y0391848D01*
X0523654Y0392847D02*
X0526346Y0392847D01*
X0525932Y0393845D02*
X0524068Y0393845D01*
X0524200Y0394844D02*
X0525800Y0394844D01*
X0525803Y0395842D02*
X0524197Y0395842D01*
X0523784Y0396841D02*
X0526216Y0396841D01*
X0526900Y0397839D02*
X0523100Y0397839D01*
X0521710Y0398838D02*
X0528290Y0398838D01*
X0518290Y0398838D02*
X0511710Y0398838D01*
X0513100Y0397839D02*
X0516900Y0397839D01*
X0516216Y0396841D02*
X0513784Y0396841D01*
X0514197Y0395842D02*
X0515803Y0395842D01*
X0515800Y0394844D02*
X0514200Y0394844D01*
X0514068Y0393845D02*
X0515932Y0393845D01*
X0516346Y0392847D02*
X0513654Y0392847D01*
X0512788Y0391848D02*
X0517212Y0391848D01*
X0507212Y0391848D02*
X0502788Y0391848D01*
X0503654Y0392847D02*
X0506346Y0392847D01*
X0505932Y0393845D02*
X0504068Y0393845D01*
X0504200Y0394844D02*
X0505800Y0394844D01*
X0505803Y0395842D02*
X0504197Y0395842D01*
X0503784Y0396841D02*
X0506216Y0396841D01*
X0506900Y0397839D02*
X0503100Y0397839D01*
X0501710Y0398838D02*
X0508290Y0398838D01*
X0542788Y0391848D02*
X0547212Y0391848D01*
X0546346Y0392847D02*
X0543654Y0392847D01*
X0544068Y0393845D02*
X0545932Y0393845D01*
X0545111Y0394844D02*
X0544200Y0394844D01*
X0546208Y0398838D02*
X0548290Y0398838D01*
X0628750Y0463741D02*
X0331250Y0463741D01*
X0331250Y0464739D02*
X0628750Y0464739D01*
X0628750Y0465738D02*
X0331250Y0465738D01*
X0331250Y0454754D02*
X0360845Y0454754D01*
X0360000Y0454754D02*
X0350000Y0454754D01*
X0350000Y0453756D02*
X0359846Y0453756D01*
X0357608Y0453756D01*
X0358607Y0452757D02*
X0359323Y0452757D01*
X0350000Y0452757D01*
X0350000Y0451759D02*
X0358909Y0451759D01*
X0358700Y0450760D02*
X0350000Y0450760D01*
X0350500Y0450760D02*
X0331250Y0450760D01*
X0331250Y0449762D02*
X0354500Y0449762D01*
X0354500Y0449500D02*
X0350500Y0449500D01*
X0350500Y0448136D01*
X0353136Y0445500D01*
X0354500Y0445500D01*
X0354500Y0449500D01*
X0354500Y0448763D02*
X0355500Y0448763D01*
X0355500Y0447765D02*
X0354500Y0447765D01*
X0354500Y0446766D02*
X0355500Y0446766D01*
X0355500Y0445768D02*
X0354500Y0445768D01*
X0352868Y0445768D02*
X0331250Y0445768D01*
X0331250Y0446766D02*
X0351870Y0446766D01*
X0350871Y0447765D02*
X0331250Y0447765D01*
X0331250Y0448763D02*
X0350500Y0448763D01*
X0350000Y0448763D02*
X0358700Y0448763D01*
X0358700Y0447765D02*
X0350000Y0447765D01*
X0350000Y0446766D02*
X0358700Y0446766D01*
X0358130Y0446766D01*
X0358700Y0445768D02*
X0350000Y0445768D01*
X0350000Y0444769D02*
X0358700Y0444769D01*
X0331250Y0444769D01*
X0331250Y0443771D02*
X0352407Y0443771D01*
X0351408Y0442772D02*
X0331250Y0442772D01*
X0331250Y0441774D02*
X0350500Y0441774D01*
X0350000Y0441774D02*
X0358700Y0441774D01*
X0358700Y0442772D02*
X0350000Y0442772D01*
X0350000Y0443771D02*
X0358700Y0443771D01*
X0357593Y0443771D01*
X0358592Y0442772D02*
X0358700Y0442772D01*
X0358700Y0440775D02*
X0350000Y0440775D01*
X0350500Y0440775D02*
X0331250Y0440775D01*
X0331250Y0439777D02*
X0354500Y0439777D01*
X0354500Y0439500D02*
X0350500Y0439500D01*
X0350500Y0438136D01*
X0353136Y0435500D01*
X0354500Y0435500D01*
X0354500Y0439500D01*
X0354500Y0438778D02*
X0355500Y0438778D01*
X0355500Y0437780D02*
X0354500Y0437780D01*
X0354500Y0436781D02*
X0355500Y0436781D01*
X0355500Y0435783D02*
X0354500Y0435783D01*
X0352853Y0435783D02*
X0331250Y0435783D01*
X0331250Y0436781D02*
X0351855Y0436781D01*
X0350856Y0437780D02*
X0331250Y0437780D01*
X0331250Y0438778D02*
X0350500Y0438778D01*
X0350000Y0438778D02*
X0358700Y0438778D01*
X0358700Y0437780D02*
X0350000Y0437780D01*
X0350000Y0436781D02*
X0358700Y0436781D01*
X0358145Y0436781D01*
X0358700Y0435783D02*
X0350000Y0435783D01*
X0350000Y0434784D02*
X0358700Y0434784D01*
X0331250Y0434784D01*
X0331250Y0433786D02*
X0352422Y0433786D01*
X0351423Y0432787D02*
X0331250Y0432787D01*
X0331250Y0431789D02*
X0350500Y0431789D01*
X0350000Y0431789D02*
X0358700Y0431789D01*
X0358700Y0432787D02*
X0350000Y0432787D01*
X0350000Y0433786D02*
X0358700Y0433786D01*
X0357578Y0433786D01*
X0358577Y0432787D02*
X0358700Y0432787D01*
X0358700Y0430790D02*
X0350000Y0430790D01*
X0350500Y0430790D02*
X0331250Y0430790D01*
X0331250Y0429792D02*
X0354500Y0429792D01*
X0354500Y0429500D02*
X0350500Y0429500D01*
X0350500Y0428136D01*
X0353136Y0425500D01*
X0354500Y0425500D01*
X0354500Y0429500D01*
X0354500Y0428793D02*
X0355500Y0428793D01*
X0355500Y0427795D02*
X0354500Y0427795D01*
X0354500Y0426796D02*
X0355500Y0426796D01*
X0355500Y0425798D02*
X0354500Y0425798D01*
X0352838Y0425798D02*
X0331250Y0425798D01*
X0331250Y0426796D02*
X0351840Y0426796D01*
X0350841Y0427795D02*
X0331250Y0427795D01*
X0331250Y0428793D02*
X0350500Y0428793D01*
X0350000Y0428793D02*
X0358700Y0428793D01*
X0358700Y0427795D02*
X0350000Y0427795D01*
X0350000Y0426796D02*
X0358700Y0426796D01*
X0358160Y0426796D01*
X0358700Y0425798D02*
X0350000Y0425798D01*
X0350000Y0424799D02*
X0358700Y0424799D01*
X0331250Y0424799D01*
X0331250Y0423801D02*
X0352437Y0423801D01*
X0351438Y0422802D02*
X0331250Y0422802D01*
X0331250Y0421803D02*
X0350500Y0421803D01*
X0350000Y0421803D02*
X0358700Y0421803D01*
X0358700Y0420805D02*
X0350000Y0420805D01*
X0350500Y0420805D02*
X0331250Y0420805D01*
X0331250Y0419806D02*
X0354500Y0419806D01*
X0354500Y0419500D02*
X0350500Y0419500D01*
X0350500Y0418136D01*
X0353136Y0415500D01*
X0354500Y0415500D01*
X0354500Y0419500D01*
X0354500Y0418808D02*
X0355500Y0418808D01*
X0355500Y0417809D02*
X0354500Y0417809D01*
X0354500Y0416811D02*
X0355500Y0416811D01*
X0355500Y0415812D02*
X0354500Y0415812D01*
X0352824Y0415812D02*
X0331250Y0415812D01*
X0331250Y0414814D02*
X0358700Y0414814D01*
X0350000Y0414814D01*
X0350000Y0415812D02*
X0358700Y0415812D01*
X0357176Y0415812D01*
X0358175Y0416811D02*
X0358700Y0416811D01*
X0350000Y0416811D01*
X0350000Y0417809D02*
X0358700Y0417809D01*
X0358700Y0418808D02*
X0350000Y0418808D01*
X0350500Y0418808D02*
X0331250Y0418808D01*
X0331250Y0417809D02*
X0350827Y0417809D01*
X0351825Y0416811D02*
X0331250Y0416811D01*
X0331250Y0413815D02*
X0352451Y0413815D01*
X0351453Y0412817D02*
X0331250Y0412817D01*
X0331250Y0411818D02*
X0350500Y0411818D01*
X0350000Y0411818D02*
X0358700Y0411818D01*
X0358700Y0410820D02*
X0350000Y0410820D01*
X0350500Y0410820D02*
X0331250Y0410820D01*
X0331250Y0409821D02*
X0354500Y0409821D01*
X0354500Y0409500D02*
X0350500Y0409500D01*
X0350500Y0408136D01*
X0353136Y0405500D01*
X0354500Y0405500D01*
X0354500Y0409500D01*
X0354500Y0408823D02*
X0355500Y0408823D01*
X0355500Y0407824D02*
X0354500Y0407824D01*
X0354500Y0406826D02*
X0355500Y0406826D01*
X0355500Y0405827D02*
X0354500Y0405827D01*
X0352809Y0405827D02*
X0331250Y0405827D01*
X0331250Y0404829D02*
X0358700Y0404829D01*
X0350000Y0404829D01*
X0350000Y0405827D02*
X0358700Y0405827D01*
X0357191Y0405827D01*
X0358190Y0406826D02*
X0358700Y0406826D01*
X0350000Y0406826D01*
X0350000Y0407824D02*
X0358700Y0407824D01*
X0358700Y0408823D02*
X0350000Y0408823D01*
X0350500Y0408823D02*
X0331250Y0408823D01*
X0331250Y0407824D02*
X0350812Y0407824D01*
X0351810Y0406826D02*
X0331250Y0406826D01*
X0331250Y0403830D02*
X0352466Y0403830D01*
X0351468Y0402832D02*
X0331250Y0402832D01*
X0331250Y0401833D02*
X0350500Y0401833D01*
X0350000Y0401833D02*
X0358700Y0401833D01*
X0358700Y0400835D02*
X0350000Y0400835D01*
X0350500Y0400835D02*
X0331250Y0400835D01*
X0331250Y0399836D02*
X0354500Y0399836D01*
X0354500Y0399500D02*
X0350500Y0399500D01*
X0350500Y0398136D01*
X0353136Y0395500D01*
X0354500Y0395500D01*
X0354500Y0399500D01*
X0354500Y0398838D02*
X0355500Y0398838D01*
X0355500Y0397839D02*
X0354500Y0397839D01*
X0354500Y0396841D02*
X0355500Y0396841D01*
X0355500Y0395842D02*
X0354500Y0395842D01*
X0352794Y0395842D02*
X0331250Y0395842D01*
X0331250Y0394844D02*
X0358700Y0394844D01*
X0350000Y0394844D01*
X0350000Y0395842D02*
X0358700Y0395842D01*
X0357206Y0395842D01*
X0358205Y0396841D02*
X0358700Y0396841D01*
X0350000Y0396841D01*
X0350000Y0397839D02*
X0358700Y0397839D01*
X0358700Y0398838D02*
X0350000Y0398838D01*
X0350500Y0398838D02*
X0331250Y0398838D01*
X0331250Y0397839D02*
X0350797Y0397839D01*
X0351795Y0396841D02*
X0331250Y0396841D01*
X0331250Y0393845D02*
X0352481Y0393845D01*
X0351483Y0392847D02*
X0331250Y0392847D01*
X0331250Y0391848D02*
X0350500Y0391848D01*
X0350000Y0391848D02*
X0358700Y0391848D01*
X0358700Y0390850D02*
X0350000Y0390850D01*
X0350500Y0390850D02*
X0331250Y0390850D01*
X0331250Y0389851D02*
X0354500Y0389851D01*
X0354500Y0389500D02*
X0350500Y0389500D01*
X0350500Y0388136D01*
X0353136Y0385500D01*
X0354500Y0385500D01*
X0354500Y0389500D01*
X0354500Y0388853D02*
X0355500Y0388853D01*
X0355500Y0387854D02*
X0354500Y0387854D01*
X0354500Y0386856D02*
X0355500Y0386856D01*
X0355500Y0385857D02*
X0354500Y0385857D01*
X0352779Y0385857D02*
X0331250Y0385857D01*
X0331250Y0384859D02*
X0358700Y0384859D01*
X0350000Y0384859D01*
X0350000Y0385857D02*
X0358700Y0385857D01*
X0357221Y0385857D01*
X0358220Y0386856D02*
X0358700Y0386856D01*
X0350000Y0386856D01*
X0350000Y0387854D02*
X0358700Y0387854D01*
X0358700Y0388853D02*
X0350000Y0388853D01*
X0350500Y0388853D02*
X0331250Y0388853D01*
X0331250Y0387854D02*
X0350782Y0387854D01*
X0351780Y0386856D02*
X0331250Y0386856D01*
X0331250Y0383860D02*
X0352496Y0383860D01*
X0351498Y0382862D02*
X0331250Y0382862D01*
X0331250Y0381863D02*
X0350500Y0381863D01*
X0350000Y0381863D02*
X0358700Y0381863D01*
X0358700Y0380865D02*
X0350000Y0380865D01*
X0350500Y0380865D02*
X0331250Y0380865D01*
X0331250Y0379866D02*
X0354500Y0379866D01*
X0354500Y0379500D02*
X0350500Y0379500D01*
X0350500Y0378136D01*
X0353136Y0375500D01*
X0354500Y0375500D01*
X0354500Y0379500D01*
X0354500Y0378868D02*
X0355500Y0378868D01*
X0355500Y0377869D02*
X0354500Y0377869D01*
X0354500Y0376870D02*
X0355500Y0376870D01*
X0355500Y0375872D02*
X0354500Y0375872D01*
X0352764Y0375872D02*
X0331250Y0375872D01*
X0331250Y0376870D02*
X0351766Y0376870D01*
X0350767Y0377869D02*
X0331250Y0377869D01*
X0331250Y0378868D02*
X0350500Y0378868D01*
X0350000Y0378868D02*
X0358700Y0378868D01*
X0358700Y0379866D02*
X0350000Y0379866D01*
X0350000Y0377869D02*
X0358700Y0377869D01*
X0358700Y0376870D02*
X0350000Y0376870D01*
X0350000Y0375872D02*
X0358700Y0375872D01*
X0357236Y0375872D01*
X0358234Y0376870D02*
X0358700Y0376870D01*
X0358700Y0374873D02*
X0350000Y0374873D01*
X0350000Y0373875D02*
X0358700Y0373875D01*
X0357489Y0373875D01*
X0358487Y0372876D02*
X0358700Y0372876D01*
X0350000Y0372876D01*
X0350000Y0371878D02*
X0358700Y0371878D01*
X0358700Y0370879D02*
X0350000Y0370879D01*
X0350500Y0370879D02*
X0331250Y0370879D01*
X0331250Y0369881D02*
X0354500Y0369881D01*
X0354500Y0369500D02*
X0350500Y0369500D01*
X0350500Y0368136D01*
X0353136Y0365500D01*
X0354500Y0365500D01*
X0354500Y0369500D01*
X0354500Y0368882D02*
X0355500Y0368882D01*
X0355500Y0367884D02*
X0354500Y0367884D01*
X0354500Y0366885D02*
X0355500Y0366885D01*
X0355500Y0365887D02*
X0354500Y0365887D01*
X0352749Y0365887D02*
X0331250Y0365887D01*
X0331250Y0366885D02*
X0351751Y0366885D01*
X0350752Y0367884D02*
X0331250Y0367884D01*
X0331250Y0368882D02*
X0350500Y0368882D01*
X0350000Y0368882D02*
X0358700Y0368882D01*
X0358700Y0367884D02*
X0350000Y0367884D01*
X0350000Y0366885D02*
X0358700Y0366885D01*
X0358249Y0366885D01*
X0358700Y0365887D02*
X0350000Y0365887D01*
X0350000Y0364888D02*
X0358700Y0364888D01*
X0331250Y0364888D01*
X0331250Y0363890D02*
X0352526Y0363890D01*
X0351527Y0362891D02*
X0331250Y0362891D01*
X0331250Y0361893D02*
X0350529Y0361893D01*
X0350000Y0361893D02*
X0358700Y0361893D01*
X0358700Y0362891D02*
X0350000Y0362891D01*
X0350000Y0363890D02*
X0358700Y0363890D01*
X0357474Y0363890D01*
X0358473Y0362891D02*
X0358700Y0362891D01*
X0358700Y0360894D02*
X0350000Y0360894D01*
X0350500Y0360894D02*
X0331250Y0360894D01*
X0331250Y0359896D02*
X0354500Y0359896D01*
X0354500Y0359500D02*
X0350500Y0359500D01*
X0350500Y0358136D01*
X0353136Y0355500D01*
X0354500Y0355500D01*
X0354500Y0359500D01*
X0354500Y0358897D02*
X0355500Y0358897D01*
X0355500Y0357899D02*
X0354500Y0357899D01*
X0354500Y0356900D02*
X0355500Y0356900D01*
X0355500Y0355902D02*
X0354500Y0355902D01*
X0352734Y0355902D02*
X0331250Y0355902D01*
X0331250Y0356900D02*
X0351736Y0356900D01*
X0350737Y0357899D02*
X0331250Y0357899D01*
X0331250Y0358897D02*
X0350500Y0358897D01*
X0350000Y0358897D02*
X0358700Y0358897D01*
X0358700Y0357899D02*
X0350000Y0357899D01*
X0350000Y0356900D02*
X0358700Y0356900D01*
X0358264Y0356900D01*
X0358700Y0355902D02*
X0350000Y0355902D01*
X0350000Y0354903D02*
X0358700Y0354903D01*
X0331250Y0354903D01*
X0331250Y0353905D02*
X0352541Y0353905D01*
X0351542Y0352906D02*
X0331250Y0352906D01*
X0331250Y0351908D02*
X0350544Y0351908D01*
X0350000Y0351908D02*
X0358700Y0351908D01*
X0358700Y0352906D02*
X0350000Y0352906D01*
X0350000Y0353905D02*
X0358700Y0353905D01*
X0357459Y0353905D01*
X0358458Y0352906D02*
X0358700Y0352906D01*
X0358700Y0350909D02*
X0350000Y0350909D01*
X0350500Y0350909D02*
X0331250Y0350909D01*
X0331250Y0349911D02*
X0354500Y0349911D01*
X0354500Y0349500D02*
X0350500Y0349500D01*
X0350500Y0348136D01*
X0353136Y0345500D01*
X0354500Y0345500D01*
X0354500Y0349500D01*
X0354500Y0348912D02*
X0355500Y0348912D01*
X0355500Y0347914D02*
X0354500Y0347914D01*
X0354500Y0346915D02*
X0355500Y0346915D01*
X0355500Y0345917D02*
X0354500Y0345917D01*
X0352719Y0345917D02*
X0331250Y0345917D01*
X0331250Y0346915D02*
X0351721Y0346915D01*
X0350722Y0347914D02*
X0331250Y0347914D01*
X0331250Y0348912D02*
X0350500Y0348912D01*
X0350000Y0348912D02*
X0358700Y0348912D01*
X0358700Y0347914D02*
X0350000Y0347914D01*
X0350000Y0346915D02*
X0358700Y0346915D01*
X0358279Y0346915D01*
X0358700Y0345917D02*
X0350000Y0345917D01*
X0350000Y0344918D02*
X0358700Y0344918D01*
X0331250Y0344918D01*
X0331250Y0343920D02*
X0352556Y0343920D01*
X0351557Y0342921D02*
X0331250Y0342921D01*
X0331250Y0341923D02*
X0350559Y0341923D01*
X0350000Y0341923D02*
X0358700Y0341923D01*
X0358700Y0342921D02*
X0350000Y0342921D01*
X0350000Y0343920D02*
X0358700Y0343920D01*
X0357444Y0343920D01*
X0358443Y0342921D02*
X0358700Y0342921D01*
X0358700Y0340924D02*
X0350000Y0340924D01*
X0350500Y0340924D02*
X0331250Y0340924D01*
X0331250Y0339926D02*
X0354500Y0339926D01*
X0354500Y0339500D02*
X0350500Y0339500D01*
X0350500Y0338136D01*
X0353136Y0335500D01*
X0354500Y0335500D01*
X0354500Y0339500D01*
X0354500Y0338927D02*
X0355500Y0338927D01*
X0355500Y0337929D02*
X0354500Y0337929D01*
X0354500Y0336930D02*
X0355500Y0336930D01*
X0355500Y0335932D02*
X0354500Y0335932D01*
X0352705Y0335932D02*
X0331250Y0335932D01*
X0331250Y0336930D02*
X0351706Y0336930D01*
X0350707Y0337929D02*
X0331250Y0337929D01*
X0331250Y0338927D02*
X0350500Y0338927D01*
X0350000Y0338927D02*
X0358700Y0338927D01*
X0358700Y0339926D02*
X0350000Y0339926D01*
X0350000Y0337929D02*
X0359039Y0337929D01*
X0359453Y0336930D02*
X0350000Y0336930D01*
X0350000Y0335932D02*
X0360000Y0335932D01*
X0360159Y0335932D02*
X0357295Y0335932D01*
X0358294Y0336930D02*
X0359453Y0336930D01*
X0361157Y0334933D02*
X0331250Y0334933D01*
X0331250Y0333934D02*
X0363181Y0333934D01*
X0366819Y0333934D02*
X0609975Y0333934D01*
X0609950Y0334933D02*
X0368843Y0334933D01*
X0369841Y0335932D02*
X0372987Y0335932D01*
X0371989Y0336930D02*
X0370547Y0336930D01*
X0370961Y0337929D02*
X0370990Y0337929D01*
X0377013Y0335932D02*
X0609950Y0335932D01*
X0610333Y0336930D02*
X0378011Y0336930D01*
X0379010Y0337929D02*
X0610787Y0337929D01*
X0611785Y0338927D02*
X0379300Y0338927D01*
X0387054Y0319408D02*
X0385592Y0317946D01*
X0384800Y0316034D01*
X0384800Y0313966D01*
X0385592Y0312054D01*
X0387054Y0310592D01*
X0388966Y0309800D01*
X0391034Y0309800D01*
X0392946Y0310592D01*
X0394408Y0312054D01*
X0395000Y0313483D01*
X0395592Y0312054D01*
X0397054Y0310592D01*
X0398966Y0309800D01*
X0401034Y0309800D01*
X0402946Y0310592D01*
X0404408Y0312054D01*
X0405000Y0313483D01*
X0405592Y0312054D01*
X0407054Y0310592D01*
X0408966Y0309800D01*
X0411034Y0309800D01*
X0412946Y0310592D01*
X0414408Y0312054D01*
X0415000Y0313483D01*
X0415592Y0312054D01*
X0417054Y0310592D01*
X0418966Y0309800D01*
X0421034Y0309800D01*
X0422946Y0310592D01*
X0424408Y0312054D01*
X0425000Y0313483D01*
X0425592Y0312054D01*
X0427054Y0310592D01*
X0428966Y0309800D01*
X0431034Y0309800D01*
X0432946Y0310592D01*
X0434408Y0312054D01*
X0435200Y0313966D01*
X0435200Y0316034D01*
X0434408Y0317946D01*
X0432946Y0319408D01*
X0431034Y0320200D01*
X0428966Y0320200D01*
X0427054Y0319408D01*
X0425592Y0317946D01*
X0425000Y0316517D01*
X0424408Y0317946D01*
X0422946Y0319408D01*
X0421034Y0320200D01*
X0418966Y0320200D01*
X0417054Y0319408D01*
X0415592Y0317946D01*
X0415000Y0316517D01*
X0414408Y0317946D01*
X0412946Y0319408D01*
X0411034Y0320200D01*
X0408966Y0320200D01*
X0407054Y0319408D01*
X0405592Y0317946D01*
X0405000Y0316517D01*
X0404408Y0317946D01*
X0402946Y0319408D01*
X0401034Y0320200D01*
X0398966Y0320200D01*
X0397054Y0319408D01*
X0395592Y0317946D01*
X0395000Y0316517D01*
X0394408Y0317946D01*
X0392946Y0319408D01*
X0391034Y0320200D01*
X0388966Y0320200D01*
X0387054Y0319408D01*
X0386603Y0318957D02*
X0331250Y0318957D01*
X0331250Y0319955D02*
X0388375Y0319955D01*
X0391625Y0319955D02*
X0398375Y0319955D01*
X0396603Y0318957D02*
X0393397Y0318957D01*
X0394396Y0317958D02*
X0395604Y0317958D01*
X0395183Y0316960D02*
X0394817Y0316960D01*
X0394786Y0312966D02*
X0395214Y0312966D01*
X0395679Y0311967D02*
X0394321Y0311967D01*
X0393323Y0310969D02*
X0396677Y0310969D01*
X0398555Y0309970D02*
X0391445Y0309970D01*
X0388555Y0309970D02*
X0351626Y0309970D01*
X0351952Y0309645D02*
X0349645Y0311952D01*
X0346631Y0313200D01*
X0343369Y0313200D01*
X0340355Y0311952D01*
X0338048Y0309645D01*
X0338048Y0309645D01*
X0336800Y0306631D01*
X0336800Y0303369D01*
X0338048Y0300355D01*
X0338048Y0300355D01*
X0340355Y0298048D01*
X0343369Y0296800D01*
X0344627Y0296800D01*
X0346631Y0296800D01*
X0349645Y0298048D01*
X0351952Y0300355D01*
X0353200Y0303369D01*
X0353200Y0306631D01*
X0351952Y0309645D01*
X0351952Y0309645D01*
X0352230Y0308972D02*
X0445950Y0308972D01*
X0445950Y0309970D02*
X0431445Y0309970D01*
X0433323Y0310969D02*
X0445950Y0310969D01*
X0445950Y0311788D02*
X0446712Y0312550D01*
X0456788Y0312550D01*
X0457550Y0311788D01*
X0457550Y0301712D01*
X0456788Y0300950D01*
X0446712Y0300950D01*
X0445950Y0301712D01*
X0445950Y0311788D01*
X0446129Y0311967D02*
X0434321Y0311967D01*
X0434786Y0312966D02*
X0474489Y0312966D01*
X0473750Y0312966D02*
X0446250Y0312966D01*
X0446250Y0313964D02*
X0473490Y0313964D01*
X0435199Y0313964D01*
X0435200Y0314963D02*
X0461867Y0314963D01*
X0446250Y0314963D01*
X0446250Y0315961D02*
X0461325Y0315961D01*
X0435200Y0315961D01*
X0434817Y0316960D02*
X0461325Y0316960D01*
X0446250Y0316960D01*
X0446671Y0317352D02*
X0447053Y0317250D01*
X0451250Y0317250D01*
X0451250Y0322750D01*
X0445750Y0322750D01*
X0445750Y0318553D01*
X0445852Y0318171D01*
X0446050Y0317829D01*
X0446329Y0317550D01*
X0446671Y0317352D01*
X0446250Y0317958D02*
X0461325Y0317958D01*
X0457525Y0317958D01*
X0457450Y0317829D02*
X0457648Y0318171D01*
X0457750Y0318553D01*
X0457750Y0322750D01*
X0452250Y0322750D01*
X0452250Y0323750D01*
X0451250Y0323750D01*
X0451250Y0329250D01*
X0447053Y0329250D01*
X0446671Y0329148D01*
X0446329Y0328950D01*
X0446050Y0328671D01*
X0445852Y0328329D01*
X0445750Y0327947D01*
X0445750Y0323750D01*
X0451250Y0323750D01*
X0451250Y0322750D01*
X0452250Y0322750D01*
X0452250Y0317250D01*
X0456447Y0317250D01*
X0456829Y0317352D01*
X0457171Y0317550D01*
X0457450Y0317829D01*
X0457750Y0318957D02*
X0461325Y0318957D01*
X0446250Y0318957D01*
X0445750Y0318957D02*
X0433397Y0318957D01*
X0434396Y0317958D02*
X0445975Y0317958D01*
X0445750Y0319955D02*
X0431625Y0319955D01*
X0428375Y0319955D02*
X0421625Y0319955D01*
X0423397Y0318957D02*
X0426603Y0318957D01*
X0425604Y0317958D02*
X0424396Y0317958D01*
X0424817Y0316960D02*
X0425183Y0316960D01*
X0425214Y0312966D02*
X0424786Y0312966D01*
X0424321Y0311967D02*
X0425679Y0311967D01*
X0426677Y0310969D02*
X0423323Y0310969D01*
X0421445Y0309970D02*
X0428555Y0309970D01*
X0418555Y0309970D02*
X0411445Y0309970D01*
X0413323Y0310969D02*
X0416677Y0310969D01*
X0415679Y0311967D02*
X0414321Y0311967D01*
X0414786Y0312966D02*
X0415214Y0312966D01*
X0415183Y0316960D02*
X0414817Y0316960D01*
X0414396Y0317958D02*
X0415604Y0317958D01*
X0416603Y0318957D02*
X0413397Y0318957D01*
X0411625Y0319955D02*
X0418375Y0319955D01*
X0408375Y0319955D02*
X0401625Y0319955D01*
X0403397Y0318957D02*
X0406603Y0318957D01*
X0405604Y0317958D02*
X0404396Y0317958D01*
X0404817Y0316960D02*
X0405183Y0316960D01*
X0405214Y0312966D02*
X0404786Y0312966D01*
X0404321Y0311967D02*
X0405679Y0311967D01*
X0406677Y0310969D02*
X0403323Y0310969D01*
X0401445Y0309970D02*
X0408555Y0309970D01*
X0386677Y0310969D02*
X0350628Y0310969D01*
X0349645Y0311952D02*
X0349645Y0311952D01*
X0349607Y0311967D02*
X0385679Y0311967D01*
X0385214Y0312966D02*
X0347197Y0312966D01*
X0342803Y0312966D02*
X0331250Y0312966D01*
X0331250Y0313964D02*
X0384801Y0313964D01*
X0384800Y0314963D02*
X0331250Y0314963D01*
X0331250Y0315961D02*
X0384800Y0315961D01*
X0385183Y0316960D02*
X0331250Y0316960D01*
X0331250Y0317958D02*
X0385604Y0317958D01*
X0355500Y0340924D02*
X0354500Y0340924D01*
X0354500Y0341923D02*
X0355500Y0341923D01*
X0355500Y0342921D02*
X0354500Y0342921D01*
X0354500Y0343920D02*
X0355500Y0343920D01*
X0357281Y0345917D02*
X0358700Y0345917D01*
X0358700Y0349911D02*
X0350000Y0349911D01*
X0354500Y0350909D02*
X0355500Y0350909D01*
X0355500Y0351908D02*
X0354500Y0351908D01*
X0354500Y0352906D02*
X0355500Y0352906D01*
X0355500Y0353905D02*
X0354500Y0353905D01*
X0357266Y0355902D02*
X0358700Y0355902D01*
X0358700Y0359896D02*
X0350000Y0359896D01*
X0354500Y0360894D02*
X0355500Y0360894D01*
X0355500Y0361893D02*
X0354500Y0361893D01*
X0354500Y0362891D02*
X0355500Y0362891D01*
X0355500Y0363890D02*
X0354500Y0363890D01*
X0357251Y0365887D02*
X0358700Y0365887D01*
X0358700Y0369881D02*
X0350000Y0369881D01*
X0350514Y0371878D02*
X0331250Y0371878D01*
X0331250Y0372876D02*
X0351512Y0372876D01*
X0352511Y0373875D02*
X0331250Y0373875D01*
X0331250Y0374873D02*
X0358700Y0374873D01*
X0355500Y0373875D02*
X0354500Y0373875D01*
X0354500Y0372876D02*
X0355500Y0372876D01*
X0355500Y0371878D02*
X0354500Y0371878D01*
X0354500Y0370879D02*
X0355500Y0370879D01*
X0355500Y0380865D02*
X0354500Y0380865D01*
X0354500Y0381863D02*
X0355500Y0381863D01*
X0355500Y0382862D02*
X0354500Y0382862D01*
X0354500Y0383860D02*
X0355500Y0383860D01*
X0357504Y0383860D02*
X0358700Y0383860D01*
X0350000Y0383860D01*
X0350000Y0382862D02*
X0358700Y0382862D01*
X0358502Y0382862D01*
X0358700Y0389851D02*
X0350000Y0389851D01*
X0350000Y0392847D02*
X0358700Y0392847D01*
X0358517Y0392847D01*
X0358700Y0393845D02*
X0350000Y0393845D01*
X0354500Y0393845D02*
X0355500Y0393845D01*
X0355500Y0392847D02*
X0354500Y0392847D01*
X0354500Y0391848D02*
X0355500Y0391848D01*
X0355500Y0390850D02*
X0354500Y0390850D01*
X0357519Y0393845D02*
X0358700Y0393845D01*
X0358700Y0399836D02*
X0350000Y0399836D01*
X0350000Y0402832D02*
X0358700Y0402832D01*
X0358532Y0402832D01*
X0358700Y0403830D02*
X0350000Y0403830D01*
X0354500Y0403830D02*
X0355500Y0403830D01*
X0355500Y0402832D02*
X0354500Y0402832D01*
X0354500Y0401833D02*
X0355500Y0401833D01*
X0355500Y0400835D02*
X0354500Y0400835D01*
X0357534Y0403830D02*
X0358700Y0403830D01*
X0358700Y0409821D02*
X0350000Y0409821D01*
X0350000Y0412817D02*
X0358700Y0412817D01*
X0358547Y0412817D01*
X0358700Y0413815D02*
X0350000Y0413815D01*
X0354500Y0413815D02*
X0355500Y0413815D01*
X0355500Y0412817D02*
X0354500Y0412817D01*
X0354500Y0411818D02*
X0355500Y0411818D01*
X0355500Y0410820D02*
X0354500Y0410820D01*
X0357549Y0413815D02*
X0358700Y0413815D01*
X0358700Y0419806D02*
X0350000Y0419806D01*
X0350000Y0422802D02*
X0358700Y0422802D01*
X0358562Y0422802D01*
X0358700Y0423801D02*
X0350000Y0423801D01*
X0354500Y0423801D02*
X0355500Y0423801D01*
X0355500Y0422802D02*
X0354500Y0422802D01*
X0354500Y0421803D02*
X0355500Y0421803D01*
X0355500Y0420805D02*
X0354500Y0420805D01*
X0357563Y0423801D02*
X0358700Y0423801D01*
X0358700Y0425798D02*
X0357161Y0425798D01*
X0358700Y0429792D02*
X0350000Y0429792D01*
X0354500Y0430790D02*
X0355500Y0430790D01*
X0355500Y0431789D02*
X0354500Y0431789D01*
X0354500Y0432787D02*
X0355500Y0432787D01*
X0355500Y0433786D02*
X0354500Y0433786D01*
X0357147Y0435783D02*
X0358700Y0435783D01*
X0358700Y0439777D02*
X0350000Y0439777D01*
X0354500Y0440775D02*
X0355500Y0440775D01*
X0355500Y0441774D02*
X0354500Y0441774D01*
X0354500Y0442772D02*
X0355500Y0442772D01*
X0355500Y0443771D02*
X0354500Y0443771D01*
X0357132Y0445768D02*
X0358700Y0445768D01*
X0358700Y0449762D02*
X0350000Y0449762D01*
X0350500Y0451759D02*
X0331250Y0451759D01*
X0331250Y0452757D02*
X0351393Y0452757D01*
X0352392Y0453756D02*
X0331250Y0453756D01*
X0354500Y0453756D02*
X0355500Y0453756D01*
X0355500Y0452757D02*
X0354500Y0452757D01*
X0354500Y0451759D02*
X0355500Y0451759D01*
X0355500Y0450760D02*
X0354500Y0450760D01*
X0352521Y0471729D02*
X0363557Y0471729D01*
X0362825Y0472728D02*
X0352934Y0472728D01*
X0353200Y0473726D02*
X0362825Y0473726D01*
X0362825Y0474725D02*
X0353200Y0474725D01*
X0353200Y0475723D02*
X0362825Y0475723D01*
X0362825Y0476722D02*
X0353162Y0476722D01*
X0352749Y0477720D02*
X0362825Y0477720D01*
X0362825Y0478719D02*
X0352335Y0478719D01*
X0351952Y0479645D02*
X0351952Y0479645D01*
X0351879Y0479717D02*
X0362825Y0479717D01*
X0362825Y0480716D02*
X0350881Y0480716D01*
X0349882Y0481714D02*
X0362825Y0481714D01*
X0362999Y0482713D02*
X0347808Y0482713D01*
X0349645Y0481952D02*
X0349645Y0481952D01*
X0384625Y0481714D02*
X0385625Y0481714D01*
X0385625Y0480716D02*
X0384625Y0480716D01*
X0384625Y0479717D02*
X0385625Y0479717D01*
X0385625Y0478719D02*
X0384625Y0478719D01*
X0384625Y0475723D02*
X0385625Y0475723D01*
X0385625Y0474725D02*
X0384625Y0474725D01*
X0384625Y0473726D02*
X0385625Y0473726D01*
X0385625Y0472728D02*
X0384625Y0472728D01*
X0384625Y0471729D02*
X0385625Y0471729D01*
X0385625Y0482713D02*
X0384625Y0482713D01*
X0331250Y0332936D02*
X0610389Y0332936D01*
X0610921Y0331937D02*
X0331250Y0331937D01*
X0331250Y0330939D02*
X0461518Y0330939D01*
X0461325Y0329940D02*
X0331250Y0329940D01*
X0331250Y0328942D02*
X0446321Y0328942D01*
X0446250Y0328942D02*
X0461325Y0328942D01*
X0457179Y0328942D01*
X0457171Y0328950D02*
X0456829Y0329148D01*
X0456447Y0329250D01*
X0452250Y0329250D01*
X0452250Y0323750D01*
X0457750Y0323750D01*
X0457750Y0327947D01*
X0457648Y0328329D01*
X0457450Y0328671D01*
X0457171Y0328950D01*
X0457750Y0327943D02*
X0461325Y0327943D01*
X0446250Y0327943D01*
X0445750Y0327943D02*
X0331250Y0327943D01*
X0331250Y0326945D02*
X0445750Y0326945D01*
X0446250Y0326945D02*
X0461325Y0326945D01*
X0457750Y0326945D01*
X0457750Y0325946D02*
X0461325Y0325946D01*
X0446250Y0325946D01*
X0445750Y0325946D02*
X0331250Y0325946D01*
X0331250Y0324948D02*
X0445750Y0324948D01*
X0446250Y0324948D02*
X0461325Y0324948D01*
X0457750Y0324948D01*
X0457750Y0323949D02*
X0461325Y0323949D01*
X0446250Y0323949D01*
X0445750Y0323949D02*
X0331250Y0323949D01*
X0331250Y0322951D02*
X0451250Y0322951D01*
X0451250Y0323949D02*
X0452250Y0323949D01*
X0452250Y0322951D02*
X0461325Y0322951D01*
X0446250Y0322951D01*
X0446250Y0321952D02*
X0461325Y0321952D01*
X0457750Y0321952D01*
X0457750Y0320954D02*
X0461325Y0320954D01*
X0446250Y0320954D01*
X0445750Y0320954D02*
X0331250Y0320954D01*
X0331250Y0321952D02*
X0445750Y0321952D01*
X0446250Y0319955D02*
X0461325Y0319955D01*
X0457750Y0319955D01*
X0452250Y0319955D02*
X0451250Y0319955D01*
X0451250Y0318957D02*
X0452250Y0318957D01*
X0452250Y0317958D02*
X0451250Y0317958D01*
X0451250Y0320954D02*
X0452250Y0320954D01*
X0452250Y0321952D02*
X0451250Y0321952D01*
X0451250Y0324948D02*
X0452250Y0324948D01*
X0452250Y0325946D02*
X0451250Y0325946D01*
X0451250Y0326945D02*
X0452250Y0326945D01*
X0452250Y0327943D02*
X0451250Y0327943D01*
X0451250Y0328942D02*
X0452250Y0328942D01*
X0457371Y0311967D02*
X0473750Y0311967D01*
X0473950Y0312171D02*
X0473671Y0312450D01*
X0473329Y0312648D01*
X0472947Y0312750D01*
X0468750Y0312750D01*
X0468750Y0307250D01*
X0467750Y0307250D01*
X0467750Y0312750D01*
X0463553Y0312750D01*
X0463171Y0312648D01*
X0462829Y0312450D01*
X0462550Y0312171D01*
X0462352Y0311829D01*
X0462250Y0311447D01*
X0462250Y0307250D01*
X0467750Y0307250D01*
X0467750Y0306250D01*
X0462250Y0306250D01*
X0462250Y0302053D01*
X0462352Y0301671D01*
X0462550Y0301329D01*
X0462829Y0301050D01*
X0463171Y0300852D01*
X0463553Y0300750D01*
X0467750Y0300750D01*
X0467750Y0306250D01*
X0468750Y0306250D01*
X0468750Y0307250D01*
X0474250Y0307250D01*
X0474250Y0311447D01*
X0474148Y0311829D01*
X0473950Y0312171D01*
X0474068Y0311967D02*
X0475075Y0311967D01*
X0475075Y0310969D02*
X0474250Y0310969D01*
X0473750Y0310969D02*
X0457550Y0310969D01*
X0462250Y0310969D01*
X0462250Y0309970D02*
X0457550Y0309970D01*
X0473750Y0309970D01*
X0474250Y0309970D02*
X0475075Y0309970D01*
X0475075Y0308972D02*
X0474250Y0308972D01*
X0473750Y0308972D02*
X0457550Y0308972D01*
X0462250Y0308972D01*
X0462250Y0307973D02*
X0457550Y0307973D01*
X0473750Y0307973D01*
X0474250Y0307973D02*
X0475075Y0307973D01*
X0475075Y0306975D02*
X0468750Y0306975D01*
X0468750Y0306250D02*
X0474250Y0306250D01*
X0474250Y0302053D01*
X0474148Y0301671D01*
X0473950Y0301329D01*
X0473671Y0301050D01*
X0473329Y0300852D01*
X0472947Y0300750D01*
X0468750Y0300750D01*
X0468750Y0306250D01*
X0468750Y0305976D02*
X0467750Y0305976D01*
X0467750Y0304978D02*
X0468750Y0304978D01*
X0468750Y0303979D02*
X0467750Y0303979D01*
X0467750Y0302981D02*
X0468750Y0302981D01*
X0468750Y0301982D02*
X0467750Y0301982D01*
X0467750Y0300984D02*
X0468750Y0300984D01*
X0473557Y0300984D02*
X0475075Y0300984D01*
X0475075Y0301982D02*
X0474231Y0301982D01*
X0473750Y0301982D02*
X0457550Y0301982D01*
X0462269Y0301982D01*
X0462250Y0302981D02*
X0457550Y0302981D01*
X0473750Y0302981D01*
X0474250Y0302981D02*
X0475075Y0302981D01*
X0475075Y0303979D02*
X0474250Y0303979D01*
X0473750Y0303979D02*
X0457550Y0303979D01*
X0462250Y0303979D01*
X0462250Y0304978D02*
X0457550Y0304978D01*
X0473750Y0304978D01*
X0474250Y0304978D02*
X0475075Y0304978D01*
X0475075Y0305976D02*
X0474250Y0305976D01*
X0473750Y0305976D02*
X0457550Y0305976D01*
X0462250Y0305976D01*
X0457550Y0306975D02*
X0473750Y0306975D01*
X0468750Y0307973D02*
X0467750Y0307973D01*
X0467750Y0306975D02*
X0457550Y0306975D01*
X0457371Y0311967D02*
X0462432Y0311967D01*
X0467750Y0311967D02*
X0468750Y0311967D01*
X0468750Y0310969D02*
X0467750Y0310969D01*
X0467750Y0309970D02*
X0468750Y0309970D01*
X0468750Y0308972D02*
X0467750Y0308972D01*
X0462943Y0300984D02*
X0456822Y0300984D01*
X0473750Y0300984D01*
X0473750Y0299985D02*
X0446250Y0299985D01*
X0446250Y0298987D02*
X0473750Y0298987D01*
X0475075Y0298987D02*
X0350583Y0298987D01*
X0349645Y0298048D02*
X0349645Y0298048D01*
X0349499Y0297988D02*
X0475075Y0297988D01*
X0475075Y0296990D02*
X0347089Y0296990D01*
X0342911Y0296990D02*
X0331250Y0296990D01*
X0331250Y0297988D02*
X0340501Y0297988D01*
X0340355Y0298048D02*
X0340355Y0298048D01*
X0339417Y0298987D02*
X0331250Y0298987D01*
X0331250Y0299985D02*
X0338418Y0299985D01*
X0337788Y0300984D02*
X0331250Y0300984D01*
X0331250Y0301982D02*
X0337374Y0301982D01*
X0336961Y0302981D02*
X0331250Y0302981D01*
X0331250Y0303979D02*
X0336800Y0303979D01*
X0336800Y0304978D02*
X0331250Y0304978D01*
X0331250Y0305976D02*
X0336800Y0305976D01*
X0336942Y0306975D02*
X0331250Y0306975D01*
X0331250Y0307973D02*
X0337356Y0307973D01*
X0337770Y0308972D02*
X0331250Y0308972D01*
X0331250Y0309970D02*
X0338374Y0309970D01*
X0339372Y0310969D02*
X0331250Y0310969D01*
X0331250Y0311967D02*
X0340393Y0311967D01*
X0340355Y0311952D02*
X0340355Y0311952D01*
X0352644Y0307973D02*
X0445950Y0307973D01*
X0445950Y0306975D02*
X0353058Y0306975D01*
X0353200Y0305976D02*
X0445950Y0305976D01*
X0445950Y0304978D02*
X0353200Y0304978D01*
X0353200Y0303979D02*
X0445950Y0303979D01*
X0445950Y0302981D02*
X0353039Y0302981D01*
X0352626Y0301982D02*
X0445950Y0301982D01*
X0446250Y0300984D02*
X0446678Y0300984D01*
X0352212Y0300984D01*
X0351952Y0300355D02*
X0351952Y0300355D01*
X0351582Y0299985D02*
X0475075Y0299985D01*
X0475075Y0295991D02*
X0331250Y0295991D01*
X0331250Y0294993D02*
X0475587Y0294993D01*
X0476788Y0293994D02*
X0331250Y0293994D01*
X0331250Y0292996D02*
X0476700Y0292996D01*
X0476895Y0291997D02*
X0331250Y0291997D01*
D19*
X0465625Y0406875D03*
X0466250Y0421250D03*
X0450000Y0425000D03*
X0446250Y0455625D03*
X0480000Y0460000D03*
X0485000Y0470000D03*
X0515000Y0425000D03*
X0535000Y0407500D03*
X0505000Y0400000D03*
X0531250Y0357500D03*
X0531250Y0348750D03*
X0593125Y0342500D03*
X0615000Y0356875D03*
X0611250Y0386250D03*
X0606875Y0386250D03*
D20*
X0365000Y0390000D02*
X0365000Y0380000D01*
X0365000Y0370000D01*
X0365000Y0360000D01*
X0365000Y0350000D01*
X0365000Y0340000D01*
X0365000Y0390000D02*
X0365000Y0400000D01*
X0365000Y0410000D01*
X0365000Y0420000D01*
X0365000Y0430000D01*
X0365000Y0440000D01*
X0365000Y0450000D01*
D21*
X0480000Y0293125D03*
D22*
X0583125Y0293125D01*
X0590000Y0300000D01*
X0594200Y0305800D02*
X0595402Y0305800D01*
X0598800Y0302402D01*
X0598800Y0301200D01*
X0605000Y0295000D01*
X0620000Y0295000D01*
X0625000Y0300000D01*
X0625000Y0390000D01*
X0620000Y0395000D01*
X0590000Y0310000D02*
X0594200Y0305800D01*
D23*
X0555000Y0445000D02*
X0492500Y0445000D01*
X0560000Y0472500D02*
X0560000Y0473750D01*
X0560000Y0477500D01*
X0560000Y0481250D01*
X0560000Y0482500D01*
D24*
X0570000Y0482500D02*
X0570000Y0472500D01*
X0580000Y0472500D02*
X0580000Y0482500D01*
D25*
X0560000Y0481250D02*
X0556250Y0477500D01*
X0560000Y0473750D01*
X0560000Y0477500D02*
X0511250Y0477500D01*
X0506250Y0472500D01*
X0505000Y0472500D01*
M02*
