G75*
%MOIN*%
%OFA0B0*%
%FSLAX25Y25*%
%IPPOS*%
%LPD*%
%AMOC8*
5,1,8,0,0,1.08239X$1,22.5*
%
%ADD10R,0.09400X0.09400*%
%ADD11C,0.06400*%
%ADD12OC8,0.06400*%
%ADD13R,0.07498X0.06699*%
%ADD14C,0.06200*%
%ADD15C,0.09400*%
%ADD16R,0.02800X0.06400*%
%ADD17R,0.07487X0.07093*%
%ADD18R,0.03400X0.04900*%
%ADD19R,0.06699X0.07498*%
%ADD20R,0.07487X0.06699*%
%ADD21C,0.13400*%
%ADD22R,0.01600X0.04300*%
%ADD23R,0.04400X0.02800*%
%ADD24R,0.02800X0.04400*%
%ADD25C,0.08200*%
%ADD26R,0.06306X0.06306*%
D10*
X0461750Y0306750D03*
X0461750Y0323250D03*
X0478250Y0323250D03*
X0478250Y0306750D03*
D11*
X0604500Y0345000D02*
X0610500Y0345000D01*
X0610500Y0355000D02*
X0604500Y0355000D01*
X0604500Y0365000D02*
X0610500Y0365000D01*
X0610500Y0375000D02*
X0604500Y0375000D01*
X0610000Y0328000D02*
X0610000Y0322000D01*
X0620000Y0322000D02*
X0620000Y0328000D01*
D12*
X0475000Y0387500D03*
X0475000Y0397500D03*
X0465000Y0397500D03*
X0465000Y0387500D03*
X0455000Y0387500D03*
X0455000Y0397500D03*
X0385000Y0395000D03*
X0385000Y0385000D03*
X0375000Y0385000D03*
X0375000Y0395000D03*
X0375000Y0405000D03*
X0365000Y0405000D03*
X0365000Y0395000D03*
X0365000Y0385000D03*
X0365000Y0375000D03*
X0365000Y0365000D03*
X0365000Y0355000D03*
X0375000Y0355000D03*
X0375000Y0365000D03*
X0375000Y0375000D03*
X0385000Y0375000D03*
X0385000Y0365000D03*
X0385000Y0355000D03*
X0385000Y0405000D03*
X0385000Y0415000D03*
X0385000Y0425000D03*
X0375000Y0425000D03*
X0375000Y0415000D03*
X0365000Y0415000D03*
X0365000Y0425000D03*
X0365000Y0435000D03*
X0365000Y0445000D03*
X0365000Y0455000D03*
X0375000Y0455000D03*
X0375000Y0445000D03*
X0375000Y0435000D03*
X0385000Y0435000D03*
X0385000Y0445000D03*
X0385000Y0455000D03*
X0385000Y0465000D03*
X0375000Y0465000D03*
X0365000Y0465000D03*
X0425000Y0472500D03*
X0425000Y0482500D03*
X0435000Y0482500D03*
X0435000Y0472500D03*
X0445000Y0472500D03*
X0445000Y0482500D03*
X0455000Y0482500D03*
X0455000Y0472500D03*
X0465000Y0472500D03*
X0465000Y0482500D03*
X0475000Y0482500D03*
X0475000Y0472500D03*
X0505000Y0472500D03*
X0505000Y0482500D03*
X0515000Y0482500D03*
X0515000Y0472500D03*
X0525000Y0472500D03*
X0525000Y0482500D03*
X0560000Y0482500D03*
X0560000Y0472500D03*
X0570000Y0472500D03*
X0570000Y0482500D03*
X0580000Y0482500D03*
X0580000Y0472500D03*
X0590000Y0472500D03*
X0590000Y0482500D03*
D13*
X0547500Y0483098D03*
X0537500Y0483098D03*
X0537500Y0471902D03*
X0547500Y0471902D03*
X0575000Y0443098D03*
X0585000Y0443098D03*
X0585000Y0431902D03*
X0575000Y0431902D03*
X0572500Y0358098D03*
X0572500Y0346902D03*
X0590000Y0346902D03*
X0590000Y0358098D03*
X0535000Y0358098D03*
X0535000Y0346902D03*
X0517500Y0346902D03*
X0517500Y0358098D03*
X0387500Y0333723D03*
X0378750Y0333723D03*
X0378750Y0322527D03*
X0387500Y0322527D03*
X0406875Y0472527D03*
X0406875Y0483723D03*
D14*
X0490000Y0455000D03*
X0500000Y0455000D03*
X0510000Y0455000D03*
X0520000Y0455000D03*
X0530000Y0455000D03*
X0540000Y0455000D03*
X0550000Y0455000D03*
X0560000Y0455000D03*
X0570000Y0455000D03*
X0580000Y0455000D03*
X0590000Y0455000D03*
X0600000Y0455000D03*
X0610000Y0455000D03*
X0620000Y0455000D03*
X0620000Y0395000D03*
X0610000Y0395000D03*
X0600000Y0395000D03*
X0590000Y0395000D03*
X0580000Y0395000D03*
X0570000Y0395000D03*
X0560000Y0395000D03*
X0550000Y0395000D03*
X0540000Y0395000D03*
X0530000Y0395000D03*
X0520000Y0395000D03*
X0510000Y0395000D03*
X0500000Y0395000D03*
X0490000Y0395000D03*
D15*
X0505000Y0319500D02*
X0505000Y0310500D01*
X0525000Y0310500D02*
X0525000Y0319500D01*
X0560000Y0319500D02*
X0560000Y0310500D01*
X0580000Y0310500D02*
X0580000Y0319500D01*
D16*
X0562500Y0341900D03*
X0557500Y0341900D03*
X0552500Y0341900D03*
X0547500Y0341900D03*
X0547500Y0363100D03*
X0552500Y0363100D03*
X0557500Y0363100D03*
X0562500Y0363100D03*
X0507500Y0363100D03*
X0502500Y0363100D03*
X0497500Y0363100D03*
X0492500Y0363100D03*
X0492500Y0341900D03*
X0497500Y0341900D03*
X0502500Y0341900D03*
X0507500Y0341900D03*
X0432500Y0334400D03*
X0427500Y0334400D03*
X0422500Y0334400D03*
X0417500Y0334400D03*
X0412500Y0334400D03*
X0407500Y0334400D03*
X0402500Y0334400D03*
X0397500Y0334400D03*
X0397500Y0355600D03*
X0402500Y0355600D03*
X0407500Y0355600D03*
X0412500Y0355600D03*
X0417500Y0355600D03*
X0422500Y0355600D03*
X0427500Y0355600D03*
X0432500Y0355600D03*
D17*
X0514429Y0337500D03*
X0530571Y0337500D03*
X0569429Y0337500D03*
X0585571Y0337500D03*
D18*
X0482500Y0342000D03*
X0472500Y0342000D03*
X0462500Y0342000D03*
X0452500Y0342000D03*
X0452500Y0368000D03*
X0462500Y0368000D03*
X0472500Y0368000D03*
X0482500Y0368000D03*
D19*
X0481848Y0375000D03*
X0470652Y0375000D03*
X0461848Y0375000D03*
X0450652Y0375000D03*
X0518777Y0376250D03*
X0529973Y0376250D03*
X0529973Y0367500D03*
X0518777Y0367500D03*
X0574402Y0367500D03*
X0585598Y0367500D03*
X0585598Y0376250D03*
X0574402Y0376250D03*
D20*
X0581250Y0358012D03*
X0581250Y0346988D03*
X0526250Y0346988D03*
X0526250Y0358012D03*
X0486250Y0411988D03*
X0486250Y0423012D03*
D21*
X0345000Y0305000D03*
X0345000Y0475000D03*
X0615000Y0475000D03*
X0615000Y0305000D03*
D22*
X0477884Y0413513D03*
X0475325Y0413513D03*
X0472766Y0413513D03*
X0470207Y0413513D03*
X0467648Y0413513D03*
X0465089Y0413513D03*
X0462530Y0413513D03*
X0459970Y0413513D03*
X0457411Y0413513D03*
X0454852Y0413513D03*
X0452293Y0413513D03*
X0449734Y0413513D03*
X0447175Y0413513D03*
X0444616Y0413513D03*
X0444616Y0436487D03*
X0447175Y0436487D03*
X0449734Y0436487D03*
X0452293Y0436487D03*
X0454852Y0436487D03*
X0457411Y0436487D03*
X0459970Y0436487D03*
X0462530Y0436487D03*
X0465089Y0436487D03*
X0467648Y0436487D03*
X0470207Y0436487D03*
X0472766Y0436487D03*
X0475325Y0436487D03*
X0477884Y0436487D03*
D23*
X0433350Y0437300D03*
X0433350Y0434100D03*
X0433350Y0430900D03*
X0433350Y0427700D03*
X0433350Y0422300D03*
X0433350Y0419100D03*
X0433350Y0415900D03*
X0433350Y0412700D03*
X0433350Y0407300D03*
X0433350Y0404100D03*
X0433350Y0400900D03*
X0433350Y0397700D03*
X0426650Y0397700D03*
X0426650Y0400900D03*
X0426650Y0404100D03*
X0426650Y0407300D03*
X0426650Y0412700D03*
X0426650Y0415900D03*
X0426650Y0419100D03*
X0426650Y0422300D03*
X0426650Y0427700D03*
X0426650Y0430900D03*
X0426650Y0434100D03*
X0426650Y0437300D03*
X0426650Y0442700D03*
X0426650Y0445900D03*
X0426650Y0449100D03*
X0426650Y0452300D03*
X0433350Y0452300D03*
X0433350Y0449100D03*
X0433350Y0445900D03*
X0433350Y0442700D03*
D24*
X0450200Y0456650D03*
X0453400Y0456650D03*
X0456600Y0456650D03*
X0459800Y0456650D03*
X0465200Y0456650D03*
X0468400Y0456650D03*
X0471600Y0456650D03*
X0474800Y0456650D03*
X0474800Y0463350D03*
X0471600Y0463350D03*
X0468400Y0463350D03*
X0465200Y0463350D03*
X0459800Y0463350D03*
X0456600Y0463350D03*
X0453400Y0463350D03*
X0450200Y0463350D03*
D25*
X0440000Y0315000D03*
X0430000Y0315000D03*
X0420000Y0315000D03*
X0410000Y0315000D03*
X0400000Y0315000D03*
D26*
X0370000Y0321235D03*
X0361250Y0321235D03*
X0361250Y0335015D03*
X0370000Y0335015D03*
X0495610Y0376250D03*
X0509390Y0376250D03*
X0550610Y0376250D03*
X0564390Y0376250D03*
X0398125Y0471235D03*
X0398125Y0485015D03*
M02*
