G75*
%MOIN*%
%OFA0B0*%
%FSLAX25Y25*%
%IPPOS*%
%LPD*%
%AMOC8*
5,1,8,0,0,1.08239X$1,22.5*
%
%ADD10R,0.09000X0.09000*%
%ADD11C,0.06000*%
%ADD12OC8,0.06000*%
%ADD13C,0.05800*%
%ADD14C,0.09000*%
%ADD15C,0.07800*%
%ADD16C,0.03169*%
%ADD17C,0.01000*%
%ADD18C,0.02578*%
%ADD19C,0.04000*%
%ADD20C,0.10000*%
%ADD21C,0.03200*%
%ADD22C,0.01600*%
%ADD23C,0.02000*%
D10*
X0461750Y0306750D03*
X0461750Y0323250D03*
X0478250Y0323250D03*
X0478250Y0306750D03*
D11*
X0604500Y0345000D02*
X0610500Y0345000D01*
X0610500Y0355000D02*
X0604500Y0355000D01*
X0604500Y0365000D02*
X0610500Y0365000D01*
X0610500Y0375000D02*
X0604500Y0375000D01*
X0610000Y0328000D02*
X0610000Y0322000D01*
X0620000Y0322000D02*
X0620000Y0328000D01*
D12*
X0475000Y0387500D03*
X0475000Y0397500D03*
X0465000Y0397500D03*
X0465000Y0387500D03*
X0455000Y0387500D03*
X0455000Y0397500D03*
X0385000Y0395000D03*
X0385000Y0385000D03*
X0375000Y0385000D03*
X0375000Y0395000D03*
X0375000Y0405000D03*
X0365000Y0405000D03*
X0365000Y0395000D03*
X0365000Y0385000D03*
X0365000Y0375000D03*
X0365000Y0365000D03*
X0365000Y0355000D03*
X0375000Y0355000D03*
X0375000Y0365000D03*
X0375000Y0375000D03*
X0385000Y0375000D03*
X0385000Y0365000D03*
X0385000Y0355000D03*
X0385000Y0405000D03*
X0385000Y0415000D03*
X0385000Y0425000D03*
X0375000Y0425000D03*
X0375000Y0415000D03*
X0365000Y0415000D03*
X0365000Y0425000D03*
X0365000Y0435000D03*
X0365000Y0445000D03*
X0365000Y0455000D03*
X0375000Y0455000D03*
X0375000Y0445000D03*
X0375000Y0435000D03*
X0385000Y0435000D03*
X0385000Y0445000D03*
X0385000Y0455000D03*
X0385000Y0465000D03*
X0375000Y0465000D03*
X0365000Y0465000D03*
X0425000Y0472500D03*
X0425000Y0482500D03*
X0435000Y0482500D03*
X0435000Y0472500D03*
X0445000Y0472500D03*
X0445000Y0482500D03*
X0455000Y0482500D03*
X0455000Y0472500D03*
X0465000Y0472500D03*
X0465000Y0482500D03*
X0475000Y0482500D03*
X0475000Y0472500D03*
X0505000Y0472500D03*
X0505000Y0482500D03*
X0515000Y0482500D03*
X0515000Y0472500D03*
X0525000Y0472500D03*
X0525000Y0482500D03*
X0560000Y0482500D03*
X0560000Y0472500D03*
X0570000Y0472500D03*
X0570000Y0482500D03*
X0580000Y0482500D03*
X0580000Y0472500D03*
X0590000Y0472500D03*
X0590000Y0482500D03*
D13*
X0590000Y0455000D03*
X0580000Y0455000D03*
X0570000Y0455000D03*
X0560000Y0455000D03*
X0550000Y0455000D03*
X0540000Y0455000D03*
X0530000Y0455000D03*
X0520000Y0455000D03*
X0510000Y0455000D03*
X0500000Y0455000D03*
X0490000Y0455000D03*
X0490000Y0395000D03*
X0500000Y0395000D03*
X0510000Y0395000D03*
X0520000Y0395000D03*
X0530000Y0395000D03*
X0540000Y0395000D03*
X0550000Y0395000D03*
X0560000Y0395000D03*
X0570000Y0395000D03*
X0580000Y0395000D03*
X0590000Y0395000D03*
X0600000Y0395000D03*
X0610000Y0395000D03*
X0620000Y0395000D03*
X0620000Y0455000D03*
X0610000Y0455000D03*
X0600000Y0455000D03*
D14*
X0580000Y0319500D02*
X0580000Y0310500D01*
X0560000Y0310500D02*
X0560000Y0319500D01*
X0525000Y0319500D02*
X0525000Y0310500D01*
X0505000Y0310500D02*
X0505000Y0319500D01*
D15*
X0440000Y0315000D03*
X0430000Y0315000D03*
X0420000Y0315000D03*
X0410000Y0315000D03*
X0400000Y0315000D03*
D16*
X0402500Y0362500D03*
X0402500Y0367500D03*
X0402500Y0372500D03*
X0412500Y0372500D03*
X0412500Y0367500D03*
X0412500Y0362500D03*
X0422500Y0362500D03*
X0422500Y0367500D03*
X0422500Y0372500D03*
X0432500Y0372500D03*
X0432500Y0367500D03*
X0432500Y0362500D03*
X0457500Y0367500D03*
X0477500Y0367500D03*
X0492500Y0369375D03*
X0497500Y0369375D03*
X0502500Y0369375D03*
X0507500Y0369375D03*
X0512500Y0369375D03*
X0547500Y0369375D03*
X0552500Y0369375D03*
X0557500Y0369375D03*
X0562500Y0369375D03*
X0567500Y0369375D03*
X0485000Y0435000D03*
X0492500Y0445000D03*
X0555000Y0445000D03*
D17*
X0331250Y0488750D02*
X0331250Y0291250D01*
X0485075Y0291250D01*
X0485075Y0291508D01*
X0483756Y0292827D01*
X0483756Y0292827D01*
X0482827Y0293756D01*
X0482325Y0294969D01*
X0482325Y0300750D01*
X0478750Y0300750D01*
X0478750Y0306250D01*
X0477750Y0306250D01*
X0477750Y0300750D01*
X0473553Y0300750D01*
X0473171Y0300852D01*
X0472829Y0301050D01*
X0472550Y0301329D01*
X0472352Y0301671D01*
X0472250Y0302053D01*
X0472250Y0306250D01*
X0477750Y0306250D01*
X0477750Y0307250D01*
X0472250Y0307250D01*
X0472250Y0311447D01*
X0472318Y0311700D01*
X0469344Y0311700D01*
X0481758Y0311700D01*
X0482325Y0311133D01*
X0482325Y0298125D01*
X0455000Y0298125D01*
X0455000Y0313125D01*
X0467208Y0313125D01*
X0468131Y0312202D01*
X0469344Y0311700D01*
X0468131Y0312202D01*
X0462883Y0317450D01*
X0456712Y0317450D01*
X0455950Y0318212D01*
X0455950Y0328288D01*
X0456712Y0329050D01*
X0466788Y0329050D01*
X0467550Y0328288D01*
X0467550Y0322117D01*
X0471325Y0318342D01*
X0471325Y0330746D01*
X0472379Y0331800D01*
X0585746Y0331800D01*
X0586800Y0330746D01*
X0586800Y0305898D01*
X0587202Y0306869D01*
X0605700Y0325367D01*
X0605700Y0328855D01*
X0606355Y0330436D01*
X0607564Y0331645D01*
X0609145Y0332300D01*
X0610855Y0332300D01*
X0612436Y0331645D01*
X0613645Y0330436D01*
X0614300Y0328855D01*
X0614300Y0321145D01*
X0613645Y0319564D01*
X0612436Y0318355D01*
X0610855Y0317700D01*
X0609145Y0317700D01*
X0607888Y0318221D01*
X0593300Y0303633D01*
X0593300Y0294969D01*
X0592798Y0293756D01*
X0591869Y0292827D01*
X0590298Y0291256D01*
X0590298Y0291256D01*
X0590292Y0291250D01*
X0628750Y0291250D01*
X0628750Y0488750D01*
X0331250Y0488750D01*
X0331250Y0488704D02*
X0628750Y0488704D01*
X0628750Y0487705D02*
X0331250Y0487705D01*
X0331250Y0486707D02*
X0423126Y0486707D01*
X0423219Y0486800D02*
X0420700Y0484281D01*
X0420700Y0480719D01*
X0423219Y0478200D01*
X0426781Y0478200D01*
X0429300Y0480719D01*
X0429300Y0484281D01*
X0426781Y0486800D01*
X0423219Y0486800D01*
X0422127Y0485708D02*
X0331250Y0485708D01*
X0331250Y0484710D02*
X0421129Y0484710D01*
X0420700Y0483711D02*
X0331250Y0483711D01*
X0331250Y0482713D02*
X0342192Y0482713D01*
X0343369Y0483200D02*
X0340355Y0481952D01*
X0338048Y0479645D01*
X0338048Y0479645D01*
X0336800Y0476631D01*
X0336800Y0473369D01*
X0338048Y0470355D01*
X0340355Y0468048D01*
X0343369Y0466800D01*
X0345373Y0466800D01*
X0346631Y0466800D01*
X0346631Y0466800D01*
X0349645Y0468048D01*
X0351952Y0470355D01*
X0353200Y0473369D01*
X0353200Y0476631D01*
X0351952Y0479645D01*
X0349645Y0481952D01*
X0346631Y0483200D01*
X0343369Y0483200D01*
X0340355Y0481952D02*
X0340355Y0481952D01*
X0340118Y0481714D02*
X0331250Y0481714D01*
X0331250Y0480716D02*
X0339119Y0480716D01*
X0338121Y0479717D02*
X0331250Y0479717D01*
X0331250Y0478719D02*
X0337665Y0478719D01*
X0337251Y0477720D02*
X0331250Y0477720D01*
X0331250Y0476722D02*
X0336838Y0476722D01*
X0336800Y0475723D02*
X0331250Y0475723D01*
X0331250Y0474725D02*
X0336800Y0474725D01*
X0336800Y0473726D02*
X0331250Y0473726D01*
X0331250Y0472728D02*
X0337066Y0472728D01*
X0337479Y0471729D02*
X0331250Y0471729D01*
X0331250Y0470731D02*
X0337893Y0470731D01*
X0338048Y0470355D02*
X0338048Y0470355D01*
X0338671Y0469732D02*
X0331250Y0469732D01*
X0331250Y0468734D02*
X0339670Y0468734D01*
X0340355Y0468048D02*
X0340355Y0468048D01*
X0341112Y0467735D02*
X0331250Y0467735D01*
X0331250Y0466737D02*
X0360500Y0466737D01*
X0360500Y0466864D02*
X0360500Y0465500D01*
X0364500Y0465500D01*
X0364500Y0469500D01*
X0363136Y0469500D01*
X0360500Y0466864D01*
X0360000Y0466737D02*
X0368900Y0466737D01*
X0368700Y0466253D02*
X0368700Y0353747D01*
X0369659Y0351431D01*
X0370000Y0351090D01*
X0370000Y0350000D01*
X0360000Y0350000D01*
X0360000Y0470000D01*
X0370000Y0470000D01*
X0370000Y0468910D01*
X0369659Y0468569D01*
X0368700Y0466253D01*
X0368700Y0465738D02*
X0360000Y0465738D01*
X0360500Y0465738D02*
X0331250Y0465738D01*
X0331250Y0464739D02*
X0364500Y0464739D01*
X0364500Y0464500D02*
X0360500Y0464500D01*
X0360500Y0463136D01*
X0363136Y0460500D01*
X0364500Y0460500D01*
X0364500Y0464500D01*
X0365500Y0464500D01*
X0365500Y0460500D01*
X0366864Y0460500D01*
X0368700Y0462336D01*
X0368700Y0457664D01*
X0366864Y0459500D01*
X0365500Y0459500D01*
X0365500Y0455500D01*
X0364500Y0455500D01*
X0364500Y0459500D01*
X0363136Y0459500D01*
X0360500Y0456864D01*
X0360500Y0455500D01*
X0364500Y0455500D01*
X0364500Y0454500D01*
X0365500Y0454500D01*
X0365500Y0450500D01*
X0366864Y0450500D01*
X0368700Y0452336D01*
X0368700Y0447664D01*
X0366864Y0449500D01*
X0365500Y0449500D01*
X0365500Y0445500D01*
X0364500Y0445500D01*
X0364500Y0449500D01*
X0363136Y0449500D01*
X0360500Y0446864D01*
X0360500Y0445500D01*
X0364500Y0445500D01*
X0364500Y0444500D01*
X0365500Y0444500D01*
X0365500Y0440500D01*
X0366864Y0440500D01*
X0368700Y0442336D01*
X0368700Y0437664D01*
X0366864Y0439500D01*
X0365500Y0439500D01*
X0365500Y0435500D01*
X0364500Y0435500D01*
X0364500Y0439500D01*
X0363136Y0439500D01*
X0360500Y0436864D01*
X0360500Y0435500D01*
X0364500Y0435500D01*
X0364500Y0434500D01*
X0365500Y0434500D01*
X0365500Y0430500D01*
X0366864Y0430500D01*
X0368700Y0432336D01*
X0368700Y0427664D01*
X0366864Y0429500D01*
X0365500Y0429500D01*
X0365500Y0425500D01*
X0364500Y0425500D01*
X0364500Y0429500D01*
X0363136Y0429500D01*
X0360500Y0426864D01*
X0360500Y0425500D01*
X0364500Y0425500D01*
X0364500Y0424500D01*
X0365500Y0424500D01*
X0365500Y0420500D01*
X0366864Y0420500D01*
X0368700Y0422336D01*
X0368700Y0417664D01*
X0366864Y0419500D01*
X0365500Y0419500D01*
X0365500Y0415500D01*
X0364500Y0415500D01*
X0364500Y0419500D01*
X0363136Y0419500D01*
X0360500Y0416864D01*
X0360500Y0415500D01*
X0364500Y0415500D01*
X0364500Y0414500D01*
X0365500Y0414500D01*
X0365500Y0410500D01*
X0366864Y0410500D01*
X0368700Y0412336D01*
X0368700Y0407664D01*
X0366864Y0409500D01*
X0365500Y0409500D01*
X0365500Y0405500D01*
X0364500Y0405500D01*
X0364500Y0409500D01*
X0363136Y0409500D01*
X0360500Y0406864D01*
X0360500Y0405500D01*
X0364500Y0405500D01*
X0364500Y0404500D01*
X0365500Y0404500D01*
X0365500Y0400500D01*
X0366864Y0400500D01*
X0368700Y0402336D01*
X0368700Y0397664D01*
X0366864Y0399500D01*
X0365500Y0399500D01*
X0365500Y0395500D01*
X0364500Y0395500D01*
X0364500Y0399500D01*
X0363136Y0399500D01*
X0360500Y0396864D01*
X0360500Y0395500D01*
X0364500Y0395500D01*
X0364500Y0394500D01*
X0365500Y0394500D01*
X0365500Y0390500D01*
X0366864Y0390500D01*
X0368700Y0392336D01*
X0368700Y0387664D01*
X0366864Y0389500D01*
X0365500Y0389500D01*
X0365500Y0385500D01*
X0364500Y0385500D01*
X0364500Y0389500D01*
X0363136Y0389500D01*
X0360500Y0386864D01*
X0360500Y0385500D01*
X0364500Y0385500D01*
X0364500Y0384500D01*
X0365500Y0384500D01*
X0365500Y0380500D01*
X0366864Y0380500D01*
X0368700Y0382336D01*
X0368700Y0377664D01*
X0366864Y0379500D01*
X0365500Y0379500D01*
X0365500Y0375500D01*
X0364500Y0375500D01*
X0364500Y0379500D01*
X0363136Y0379500D01*
X0360500Y0376864D01*
X0360500Y0375500D01*
X0364500Y0375500D01*
X0364500Y0374500D01*
X0365500Y0374500D01*
X0365500Y0370500D01*
X0366864Y0370500D01*
X0368700Y0372336D01*
X0368700Y0367664D01*
X0366864Y0369500D01*
X0365500Y0369500D01*
X0365500Y0365500D01*
X0364500Y0365500D01*
X0364500Y0369500D01*
X0363136Y0369500D01*
X0360500Y0366864D01*
X0360500Y0365500D01*
X0364500Y0365500D01*
X0364500Y0364500D01*
X0365500Y0364500D01*
X0365500Y0360500D01*
X0366864Y0360500D01*
X0368700Y0362336D01*
X0368700Y0357664D01*
X0366864Y0359500D01*
X0365500Y0359500D01*
X0365500Y0355500D01*
X0364500Y0355500D01*
X0364500Y0359500D01*
X0363136Y0359500D01*
X0360500Y0356864D01*
X0360500Y0355500D01*
X0364500Y0355500D01*
X0364500Y0354500D01*
X0365500Y0354500D01*
X0365500Y0350500D01*
X0366864Y0350500D01*
X0369113Y0352749D01*
X0369659Y0351431D01*
X0371431Y0349659D01*
X0373747Y0348700D01*
X0376253Y0348700D01*
X0378569Y0349659D01*
X0380341Y0351431D01*
X0380970Y0352949D01*
X0383219Y0350700D01*
X0386781Y0350700D01*
X0389300Y0353219D01*
X0389300Y0356781D01*
X0386781Y0359300D01*
X0383219Y0359300D01*
X0381300Y0357381D01*
X0381300Y0362619D01*
X0383219Y0360700D01*
X0386781Y0360700D01*
X0389300Y0363219D01*
X0389300Y0366781D01*
X0386781Y0369300D01*
X0383219Y0369300D01*
X0381300Y0367381D01*
X0381300Y0372619D01*
X0383219Y0370700D01*
X0386781Y0370700D01*
X0389300Y0373219D01*
X0389300Y0376781D01*
X0386781Y0379300D01*
X0383219Y0379300D01*
X0381300Y0377381D01*
X0381300Y0382619D01*
X0383219Y0380700D01*
X0386781Y0380700D01*
X0389300Y0383219D01*
X0389300Y0386781D01*
X0386781Y0389300D01*
X0383219Y0389300D01*
X0381300Y0387381D01*
X0381300Y0392619D01*
X0383219Y0390700D01*
X0386781Y0390700D01*
X0389300Y0393219D01*
X0389300Y0396781D01*
X0386781Y0399300D01*
X0383219Y0399300D01*
X0381300Y0397381D01*
X0381300Y0402619D01*
X0383219Y0400700D01*
X0386781Y0400700D01*
X0389300Y0403219D01*
X0389300Y0406781D01*
X0386781Y0409300D01*
X0383219Y0409300D01*
X0381300Y0407381D01*
X0381300Y0412619D01*
X0383219Y0410700D01*
X0386781Y0410700D01*
X0389300Y0413219D01*
X0389300Y0416781D01*
X0386781Y0419300D01*
X0383219Y0419300D01*
X0381300Y0417381D01*
X0381300Y0422619D01*
X0383219Y0420700D01*
X0386781Y0420700D01*
X0389300Y0423219D01*
X0389300Y0426781D01*
X0386781Y0429300D01*
X0383219Y0429300D01*
X0381300Y0427381D01*
X0381300Y0432619D01*
X0383219Y0430700D01*
X0386781Y0430700D01*
X0389300Y0433219D01*
X0389300Y0436781D01*
X0386781Y0439300D01*
X0383219Y0439300D01*
X0381300Y0437381D01*
X0381300Y0442619D01*
X0383219Y0440700D01*
X0386781Y0440700D01*
X0389300Y0443219D01*
X0389300Y0446781D01*
X0386781Y0449300D01*
X0383219Y0449300D01*
X0381300Y0447381D01*
X0381300Y0452619D01*
X0383219Y0450700D01*
X0386781Y0450700D01*
X0389300Y0453219D01*
X0389300Y0456781D01*
X0386781Y0459300D01*
X0383219Y0459300D01*
X0381300Y0457381D01*
X0381300Y0462619D01*
X0383219Y0460700D01*
X0386781Y0460700D01*
X0389300Y0463219D01*
X0389300Y0466781D01*
X0386781Y0469300D01*
X0383219Y0469300D01*
X0380970Y0467051D01*
X0380341Y0468569D01*
X0378569Y0470341D01*
X0376253Y0471300D01*
X0373747Y0471300D01*
X0371431Y0470341D01*
X0369659Y0468569D01*
X0369113Y0467251D01*
X0366864Y0469500D01*
X0365500Y0469500D01*
X0365500Y0465500D01*
X0364500Y0465500D01*
X0364500Y0464500D01*
X0364500Y0463741D02*
X0365500Y0463741D01*
X0365500Y0462742D02*
X0364500Y0462742D01*
X0364500Y0461744D02*
X0365500Y0461744D01*
X0365500Y0460745D02*
X0364500Y0460745D01*
X0362891Y0460745D02*
X0331250Y0460745D01*
X0331250Y0459747D02*
X0368700Y0459747D01*
X0360000Y0459747D01*
X0360000Y0460745D02*
X0368700Y0460745D01*
X0367109Y0460745D01*
X0368108Y0461744D02*
X0368700Y0461744D01*
X0360000Y0461744D01*
X0360000Y0462742D02*
X0368700Y0462742D01*
X0368700Y0463741D02*
X0360000Y0463741D01*
X0360500Y0463741D02*
X0331250Y0463741D01*
X0331250Y0462742D02*
X0360894Y0462742D01*
X0361892Y0461744D02*
X0331250Y0461744D01*
X0331250Y0458748D02*
X0362384Y0458748D01*
X0361386Y0457750D02*
X0331250Y0457750D01*
X0331250Y0456751D02*
X0360500Y0456751D01*
X0360000Y0456751D02*
X0368700Y0456751D01*
X0368700Y0455753D02*
X0360000Y0455753D01*
X0360500Y0455753D02*
X0331250Y0455753D01*
X0331250Y0454754D02*
X0364500Y0454754D01*
X0364500Y0454500D02*
X0360500Y0454500D01*
X0360500Y0453136D01*
X0363136Y0450500D01*
X0364500Y0450500D01*
X0364500Y0454500D01*
X0364500Y0453756D02*
X0365500Y0453756D01*
X0365500Y0452757D02*
X0364500Y0452757D01*
X0364500Y0451759D02*
X0365500Y0451759D01*
X0365500Y0450760D02*
X0364500Y0450760D01*
X0362876Y0450760D02*
X0331250Y0450760D01*
X0331250Y0449762D02*
X0368700Y0449762D01*
X0360000Y0449762D01*
X0360000Y0450760D02*
X0368700Y0450760D01*
X0367124Y0450760D01*
X0368123Y0451759D02*
X0368700Y0451759D01*
X0360000Y0451759D01*
X0360000Y0452757D02*
X0368700Y0452757D01*
X0368700Y0453756D02*
X0360000Y0453756D01*
X0360500Y0453756D02*
X0331250Y0453756D01*
X0331250Y0452757D02*
X0360879Y0452757D01*
X0361877Y0451759D02*
X0331250Y0451759D01*
X0331250Y0448763D02*
X0362399Y0448763D01*
X0361401Y0447765D02*
X0331250Y0447765D01*
X0331250Y0446766D02*
X0360500Y0446766D01*
X0360000Y0446766D02*
X0368700Y0446766D01*
X0368700Y0445768D02*
X0360000Y0445768D01*
X0360500Y0445768D02*
X0331250Y0445768D01*
X0331250Y0444769D02*
X0364500Y0444769D01*
X0364500Y0444500D02*
X0360500Y0444500D01*
X0360500Y0443136D01*
X0363136Y0440500D01*
X0364500Y0440500D01*
X0364500Y0444500D01*
X0364500Y0443771D02*
X0365500Y0443771D01*
X0365500Y0442772D02*
X0364500Y0442772D01*
X0364500Y0441774D02*
X0365500Y0441774D01*
X0365500Y0440775D02*
X0364500Y0440775D01*
X0362861Y0440775D02*
X0331250Y0440775D01*
X0331250Y0439777D02*
X0368700Y0439777D01*
X0360000Y0439777D01*
X0360000Y0440775D02*
X0368700Y0440775D01*
X0367139Y0440775D01*
X0368138Y0441774D02*
X0368700Y0441774D01*
X0360000Y0441774D01*
X0360000Y0442772D02*
X0368700Y0442772D01*
X0368700Y0443771D02*
X0360000Y0443771D01*
X0360500Y0443771D02*
X0331250Y0443771D01*
X0331250Y0442772D02*
X0360864Y0442772D01*
X0361862Y0441774D02*
X0331250Y0441774D01*
X0331250Y0438778D02*
X0362414Y0438778D01*
X0361416Y0437780D02*
X0331250Y0437780D01*
X0331250Y0436781D02*
X0360500Y0436781D01*
X0360000Y0436781D02*
X0368700Y0436781D01*
X0368700Y0435783D02*
X0360000Y0435783D01*
X0360500Y0435783D02*
X0331250Y0435783D01*
X0331250Y0434784D02*
X0364500Y0434784D01*
X0364500Y0434500D02*
X0360500Y0434500D01*
X0360500Y0433136D01*
X0363136Y0430500D01*
X0364500Y0430500D01*
X0364500Y0434500D01*
X0364500Y0433786D02*
X0365500Y0433786D01*
X0365500Y0432787D02*
X0364500Y0432787D01*
X0364500Y0431789D02*
X0365500Y0431789D01*
X0365500Y0430790D02*
X0364500Y0430790D01*
X0362846Y0430790D02*
X0331250Y0430790D01*
X0331250Y0429792D02*
X0368700Y0429792D01*
X0360000Y0429792D01*
X0360000Y0430790D02*
X0368700Y0430790D01*
X0367154Y0430790D01*
X0368153Y0431789D02*
X0368700Y0431789D01*
X0360000Y0431789D01*
X0360000Y0432787D02*
X0368700Y0432787D01*
X0368700Y0433786D02*
X0360000Y0433786D01*
X0360500Y0433786D02*
X0331250Y0433786D01*
X0331250Y0432787D02*
X0360849Y0432787D01*
X0361847Y0431789D02*
X0331250Y0431789D01*
X0331250Y0428793D02*
X0362429Y0428793D01*
X0361431Y0427795D02*
X0331250Y0427795D01*
X0331250Y0426796D02*
X0360500Y0426796D01*
X0360000Y0426796D02*
X0368700Y0426796D01*
X0368700Y0425798D02*
X0360000Y0425798D01*
X0360500Y0425798D02*
X0331250Y0425798D01*
X0331250Y0424799D02*
X0364500Y0424799D01*
X0364500Y0424500D02*
X0360500Y0424500D01*
X0360500Y0423136D01*
X0363136Y0420500D01*
X0364500Y0420500D01*
X0364500Y0424500D01*
X0364500Y0423801D02*
X0365500Y0423801D01*
X0365500Y0422802D02*
X0364500Y0422802D01*
X0364500Y0421803D02*
X0365500Y0421803D01*
X0365500Y0420805D02*
X0364500Y0420805D01*
X0362831Y0420805D02*
X0331250Y0420805D01*
X0331250Y0421803D02*
X0361833Y0421803D01*
X0360834Y0422802D02*
X0331250Y0422802D01*
X0331250Y0423801D02*
X0360500Y0423801D01*
X0360000Y0423801D02*
X0368700Y0423801D01*
X0368700Y0424799D02*
X0360000Y0424799D01*
X0360000Y0422802D02*
X0368700Y0422802D01*
X0368700Y0421803D02*
X0360000Y0421803D01*
X0360000Y0420805D02*
X0368700Y0420805D01*
X0367169Y0420805D01*
X0368167Y0421803D02*
X0368700Y0421803D01*
X0368700Y0419806D02*
X0360000Y0419806D01*
X0360000Y0418808D02*
X0368700Y0418808D01*
X0367556Y0418808D01*
X0368554Y0417809D02*
X0368700Y0417809D01*
X0360000Y0417809D01*
X0360000Y0416811D02*
X0368700Y0416811D01*
X0368700Y0415812D02*
X0360000Y0415812D01*
X0360500Y0415812D02*
X0331250Y0415812D01*
X0331250Y0414814D02*
X0364500Y0414814D01*
X0364500Y0414500D02*
X0360500Y0414500D01*
X0360500Y0413136D01*
X0363136Y0410500D01*
X0364500Y0410500D01*
X0364500Y0414500D01*
X0364500Y0413815D02*
X0365500Y0413815D01*
X0365500Y0412817D02*
X0364500Y0412817D01*
X0364500Y0411818D02*
X0365500Y0411818D01*
X0365500Y0410820D02*
X0364500Y0410820D01*
X0362816Y0410820D02*
X0331250Y0410820D01*
X0331250Y0411818D02*
X0361818Y0411818D01*
X0360819Y0412817D02*
X0331250Y0412817D01*
X0331250Y0413815D02*
X0360500Y0413815D01*
X0360000Y0413815D02*
X0368700Y0413815D01*
X0368700Y0412817D02*
X0360000Y0412817D01*
X0360000Y0411818D02*
X0368700Y0411818D01*
X0368182Y0411818D01*
X0368700Y0410820D02*
X0360000Y0410820D01*
X0360000Y0409821D02*
X0368700Y0409821D01*
X0331250Y0409821D01*
X0331250Y0408823D02*
X0362459Y0408823D01*
X0361460Y0407824D02*
X0331250Y0407824D01*
X0331250Y0406826D02*
X0360500Y0406826D01*
X0360000Y0406826D02*
X0368700Y0406826D01*
X0368700Y0407824D02*
X0360000Y0407824D01*
X0360000Y0408823D02*
X0368700Y0408823D01*
X0367541Y0408823D01*
X0368540Y0407824D02*
X0368700Y0407824D01*
X0368700Y0405827D02*
X0360000Y0405827D01*
X0360500Y0405827D02*
X0331250Y0405827D01*
X0331250Y0404829D02*
X0364500Y0404829D01*
X0364500Y0404500D02*
X0360500Y0404500D01*
X0360500Y0403136D01*
X0363136Y0400500D01*
X0364500Y0400500D01*
X0364500Y0404500D01*
X0364500Y0403830D02*
X0365500Y0403830D01*
X0365500Y0402832D02*
X0364500Y0402832D01*
X0364500Y0401833D02*
X0365500Y0401833D01*
X0365500Y0400835D02*
X0364500Y0400835D01*
X0362801Y0400835D02*
X0331250Y0400835D01*
X0331250Y0401833D02*
X0361803Y0401833D01*
X0360804Y0402832D02*
X0331250Y0402832D01*
X0331250Y0403830D02*
X0360500Y0403830D01*
X0360000Y0403830D02*
X0368700Y0403830D01*
X0368700Y0402832D02*
X0360000Y0402832D01*
X0360000Y0401833D02*
X0368700Y0401833D01*
X0368197Y0401833D01*
X0368700Y0400835D02*
X0360000Y0400835D01*
X0360000Y0399836D02*
X0368700Y0399836D01*
X0331250Y0399836D01*
X0331250Y0398838D02*
X0362474Y0398838D01*
X0361475Y0397839D02*
X0331250Y0397839D01*
X0331250Y0396841D02*
X0360500Y0396841D01*
X0360000Y0396841D02*
X0368700Y0396841D01*
X0368700Y0397839D02*
X0360000Y0397839D01*
X0360000Y0398838D02*
X0368700Y0398838D01*
X0367526Y0398838D01*
X0368525Y0397839D02*
X0368700Y0397839D01*
X0368700Y0395842D02*
X0360000Y0395842D01*
X0360500Y0395842D02*
X0331250Y0395842D01*
X0331250Y0394844D02*
X0364500Y0394844D01*
X0364500Y0394500D02*
X0360500Y0394500D01*
X0360500Y0393136D01*
X0363136Y0390500D01*
X0364500Y0390500D01*
X0364500Y0394500D01*
X0364500Y0393845D02*
X0365500Y0393845D01*
X0365500Y0392847D02*
X0364500Y0392847D01*
X0364500Y0391848D02*
X0365500Y0391848D01*
X0365500Y0390850D02*
X0364500Y0390850D01*
X0362786Y0390850D02*
X0331250Y0390850D01*
X0331250Y0391848D02*
X0361788Y0391848D01*
X0360789Y0392847D02*
X0331250Y0392847D01*
X0331250Y0393845D02*
X0360500Y0393845D01*
X0360000Y0393845D02*
X0368700Y0393845D01*
X0368700Y0392847D02*
X0360000Y0392847D01*
X0360000Y0391848D02*
X0368700Y0391848D01*
X0368212Y0391848D01*
X0368700Y0390850D02*
X0360000Y0390850D01*
X0360000Y0389851D02*
X0368700Y0389851D01*
X0331250Y0389851D01*
X0331250Y0388853D02*
X0362489Y0388853D01*
X0361490Y0387854D02*
X0331250Y0387854D01*
X0331250Y0386856D02*
X0360500Y0386856D01*
X0360000Y0386856D02*
X0368700Y0386856D01*
X0368700Y0387854D02*
X0360000Y0387854D01*
X0360000Y0388853D02*
X0368700Y0388853D01*
X0367511Y0388853D01*
X0368510Y0387854D02*
X0368700Y0387854D01*
X0368700Y0385857D02*
X0360000Y0385857D01*
X0360500Y0385857D02*
X0331250Y0385857D01*
X0331250Y0384859D02*
X0364500Y0384859D01*
X0364500Y0384500D02*
X0360500Y0384500D01*
X0360500Y0383136D01*
X0363136Y0380500D01*
X0364500Y0380500D01*
X0364500Y0384500D01*
X0364500Y0383860D02*
X0365500Y0383860D01*
X0365500Y0382862D02*
X0364500Y0382862D01*
X0364500Y0381863D02*
X0365500Y0381863D01*
X0365500Y0380865D02*
X0364500Y0380865D01*
X0362772Y0380865D02*
X0331250Y0380865D01*
X0331250Y0381863D02*
X0361773Y0381863D01*
X0360774Y0382862D02*
X0331250Y0382862D01*
X0331250Y0383860D02*
X0360500Y0383860D01*
X0360000Y0383860D02*
X0368700Y0383860D01*
X0368700Y0382862D02*
X0360000Y0382862D01*
X0360000Y0381863D02*
X0368700Y0381863D01*
X0368227Y0381863D01*
X0368700Y0380865D02*
X0360000Y0380865D01*
X0360000Y0379866D02*
X0368700Y0379866D01*
X0331250Y0379866D01*
X0331250Y0378868D02*
X0362504Y0378868D01*
X0361505Y0377869D02*
X0331250Y0377869D01*
X0331250Y0376870D02*
X0360507Y0376870D01*
X0360000Y0376870D02*
X0368700Y0376870D01*
X0368700Y0375872D02*
X0360000Y0375872D01*
X0360500Y0375872D02*
X0331250Y0375872D01*
X0331250Y0374873D02*
X0364500Y0374873D01*
X0364500Y0374500D02*
X0360500Y0374500D01*
X0360500Y0373136D01*
X0363136Y0370500D01*
X0364500Y0370500D01*
X0364500Y0374500D01*
X0364500Y0373875D02*
X0365500Y0373875D01*
X0365500Y0372876D02*
X0364500Y0372876D01*
X0364500Y0371878D02*
X0365500Y0371878D01*
X0365500Y0370879D02*
X0364500Y0370879D01*
X0362757Y0370879D02*
X0331250Y0370879D01*
X0331250Y0369881D02*
X0368700Y0369881D01*
X0360000Y0369881D01*
X0360000Y0370879D02*
X0368700Y0370879D01*
X0367243Y0370879D01*
X0368242Y0371878D02*
X0368700Y0371878D01*
X0360000Y0371878D01*
X0360000Y0372876D02*
X0368700Y0372876D01*
X0368700Y0373875D02*
X0360000Y0373875D01*
X0360500Y0373875D02*
X0331250Y0373875D01*
X0331250Y0372876D02*
X0360760Y0372876D01*
X0361758Y0371878D02*
X0331250Y0371878D01*
X0331250Y0368882D02*
X0362518Y0368882D01*
X0361520Y0367884D02*
X0331250Y0367884D01*
X0331250Y0366885D02*
X0360521Y0366885D01*
X0360000Y0366885D02*
X0368700Y0366885D01*
X0368700Y0365887D02*
X0360000Y0365887D01*
X0360500Y0365887D02*
X0331250Y0365887D01*
X0331250Y0364888D02*
X0364500Y0364888D01*
X0364500Y0364500D02*
X0360500Y0364500D01*
X0360500Y0363136D01*
X0363136Y0360500D01*
X0364500Y0360500D01*
X0364500Y0364500D01*
X0364500Y0363890D02*
X0365500Y0363890D01*
X0365500Y0362891D02*
X0364500Y0362891D01*
X0364500Y0361893D02*
X0365500Y0361893D01*
X0365500Y0360894D02*
X0364500Y0360894D01*
X0362742Y0360894D02*
X0331250Y0360894D01*
X0331250Y0359896D02*
X0368700Y0359896D01*
X0360000Y0359896D01*
X0360000Y0360894D02*
X0368700Y0360894D01*
X0367258Y0360894D01*
X0368257Y0361893D02*
X0368700Y0361893D01*
X0360000Y0361893D01*
X0360000Y0362891D02*
X0368700Y0362891D01*
X0368700Y0363890D02*
X0360000Y0363890D01*
X0360500Y0363890D02*
X0331250Y0363890D01*
X0331250Y0362891D02*
X0360745Y0362891D01*
X0361743Y0361893D02*
X0331250Y0361893D01*
X0331250Y0358897D02*
X0362533Y0358897D01*
X0361535Y0357899D02*
X0331250Y0357899D01*
X0331250Y0356900D02*
X0360536Y0356900D01*
X0360000Y0356900D02*
X0368700Y0356900D01*
X0368700Y0355902D02*
X0360000Y0355902D01*
X0360500Y0355902D02*
X0331250Y0355902D01*
X0331250Y0354903D02*
X0364500Y0354903D01*
X0364500Y0354500D02*
X0360500Y0354500D01*
X0360500Y0353136D01*
X0363136Y0350500D01*
X0364500Y0350500D01*
X0364500Y0354500D01*
X0364500Y0353905D02*
X0365500Y0353905D01*
X0365500Y0352906D02*
X0364500Y0352906D01*
X0364500Y0351908D02*
X0365500Y0351908D01*
X0365500Y0350909D02*
X0364500Y0350909D01*
X0362727Y0350909D02*
X0331250Y0350909D01*
X0331250Y0349911D02*
X0371180Y0349911D01*
X0370181Y0350909D02*
X0367273Y0350909D01*
X0368272Y0351908D02*
X0369462Y0351908D01*
X0360000Y0351908D01*
X0360000Y0352906D02*
X0369048Y0352906D01*
X0368700Y0353905D02*
X0360000Y0353905D01*
X0360500Y0353905D02*
X0331250Y0353905D01*
X0331250Y0352906D02*
X0360730Y0352906D01*
X0361728Y0351908D02*
X0331250Y0351908D01*
X0331250Y0348912D02*
X0373235Y0348912D01*
X0376765Y0348912D02*
X0538661Y0348912D01*
X0538661Y0349265D02*
X0538661Y0348235D01*
X0539055Y0347283D01*
X0539783Y0346555D01*
X0540735Y0346161D01*
X0541765Y0346161D01*
X0542717Y0346555D01*
X0543445Y0347283D01*
X0543839Y0348235D01*
X0543839Y0349265D01*
X0543445Y0350217D01*
X0543050Y0350611D01*
X0543050Y0355639D01*
X0543445Y0356033D01*
X0543839Y0356985D01*
X0543839Y0358015D01*
X0543445Y0358967D01*
X0542717Y0359695D01*
X0541765Y0360089D01*
X0540735Y0360089D01*
X0539783Y0359695D01*
X0539055Y0358967D01*
X0538661Y0358015D01*
X0538661Y0356985D01*
X0539055Y0356033D01*
X0539450Y0355639D01*
X0539450Y0350611D01*
X0539055Y0350217D01*
X0538661Y0349265D01*
X0538928Y0349911D02*
X0378820Y0349911D01*
X0379819Y0350909D02*
X0383010Y0350909D01*
X0382011Y0351908D02*
X0380538Y0351908D01*
X0380952Y0352906D02*
X0381013Y0352906D01*
X0381300Y0357899D02*
X0381818Y0357899D01*
X0381300Y0358897D02*
X0382816Y0358897D01*
X0381300Y0359896D02*
X0540269Y0359896D01*
X0539026Y0358897D02*
X0387184Y0358897D01*
X0388182Y0357899D02*
X0538661Y0357899D01*
X0538696Y0356900D02*
X0389181Y0356900D01*
X0389300Y0355902D02*
X0539187Y0355902D01*
X0539450Y0354903D02*
X0389300Y0354903D01*
X0389300Y0353905D02*
X0539450Y0353905D01*
X0539450Y0352906D02*
X0388987Y0352906D01*
X0387989Y0351908D02*
X0539450Y0351908D01*
X0539450Y0350909D02*
X0386990Y0350909D01*
X0386975Y0360894D02*
X0603176Y0360894D01*
X0603645Y0360700D02*
X0602064Y0361355D01*
X0600855Y0362564D01*
X0600200Y0364145D01*
X0600200Y0365855D01*
X0600855Y0367436D01*
X0602064Y0368645D01*
X0603645Y0369300D01*
X0611355Y0369300D01*
X0612936Y0368645D01*
X0614145Y0367436D01*
X0614800Y0365855D01*
X0614800Y0364145D01*
X0614145Y0362564D01*
X0612936Y0361355D01*
X0611355Y0360700D01*
X0603645Y0360700D01*
X0604146Y0359500D02*
X0603446Y0359389D01*
X0602773Y0359170D01*
X0602141Y0358849D01*
X0601568Y0358432D01*
X0601068Y0357932D01*
X0600651Y0357359D01*
X0600330Y0356727D01*
X0600111Y0356054D01*
X0600023Y0355500D01*
X0607000Y0355500D01*
X0607000Y0359500D01*
X0604146Y0359500D01*
X0602237Y0358897D02*
X0543474Y0358897D01*
X0543839Y0357899D02*
X0601044Y0357899D01*
X0600418Y0356900D02*
X0543804Y0356900D01*
X0543313Y0355902D02*
X0600087Y0355902D01*
X0600023Y0354500D02*
X0600111Y0353946D01*
X0600330Y0353273D01*
X0600651Y0352641D01*
X0601068Y0352068D01*
X0601568Y0351568D01*
X0602141Y0351151D01*
X0602773Y0350830D01*
X0603446Y0350611D01*
X0604146Y0350500D01*
X0607000Y0350500D01*
X0607000Y0354500D01*
X0608000Y0354500D01*
X0608000Y0355500D01*
X0607000Y0355500D01*
X0607000Y0354500D01*
X0600023Y0354500D01*
X0600124Y0353905D02*
X0543050Y0353905D01*
X0543050Y0354903D02*
X0607000Y0354903D01*
X0607000Y0353905D02*
X0608000Y0353905D01*
X0608000Y0354500D02*
X0608000Y0350500D01*
X0610854Y0350500D01*
X0611554Y0350611D01*
X0612227Y0350830D01*
X0612859Y0351151D01*
X0613432Y0351568D01*
X0613932Y0352068D01*
X0614349Y0352641D01*
X0614670Y0353273D01*
X0614889Y0353946D01*
X0614977Y0354500D01*
X0608000Y0354500D01*
X0608000Y0354903D02*
X0628750Y0354903D01*
X0628750Y0353905D02*
X0614876Y0353905D01*
X0614484Y0352906D02*
X0628750Y0352906D01*
X0628750Y0351908D02*
X0613772Y0351908D01*
X0612383Y0350909D02*
X0628750Y0350909D01*
X0628750Y0349911D02*
X0543572Y0349911D01*
X0543839Y0348912D02*
X0602708Y0348912D01*
X0602064Y0348645D02*
X0603645Y0349300D01*
X0611355Y0349300D01*
X0612936Y0348645D01*
X0614145Y0347436D01*
X0614800Y0345855D01*
X0614800Y0344145D01*
X0614145Y0342564D01*
X0612936Y0341355D01*
X0611355Y0340700D01*
X0603645Y0340700D01*
X0602064Y0341355D01*
X0600855Y0342564D01*
X0600200Y0344145D01*
X0600200Y0345855D01*
X0600855Y0347436D01*
X0602064Y0348645D01*
X0601333Y0347914D02*
X0543706Y0347914D01*
X0543077Y0346915D02*
X0600639Y0346915D01*
X0600225Y0345917D02*
X0331250Y0345917D01*
X0331250Y0346915D02*
X0539423Y0346915D01*
X0538794Y0347914D02*
X0331250Y0347914D01*
X0331250Y0344918D02*
X0600200Y0344918D01*
X0600293Y0343920D02*
X0331250Y0343920D01*
X0331250Y0342921D02*
X0600707Y0342921D01*
X0601496Y0341923D02*
X0331250Y0341923D01*
X0331250Y0340924D02*
X0603104Y0340924D01*
X0611896Y0340924D02*
X0628750Y0340924D01*
X0628750Y0339926D02*
X0331250Y0339926D01*
X0331250Y0338927D02*
X0628750Y0338927D01*
X0628750Y0337929D02*
X0331250Y0337929D01*
X0331250Y0336930D02*
X0628750Y0336930D01*
X0628750Y0335932D02*
X0331250Y0335932D01*
X0331250Y0334933D02*
X0628750Y0334933D01*
X0628750Y0333934D02*
X0331250Y0333934D01*
X0331250Y0332936D02*
X0628750Y0332936D01*
X0628750Y0331937D02*
X0621730Y0331937D01*
X0622436Y0331645D02*
X0620855Y0332300D01*
X0619145Y0332300D01*
X0617564Y0331645D01*
X0616355Y0330436D01*
X0615700Y0328855D01*
X0615700Y0321145D01*
X0616355Y0319564D01*
X0617564Y0318355D01*
X0619145Y0317700D01*
X0620855Y0317700D01*
X0622436Y0318355D01*
X0623645Y0319564D01*
X0624300Y0321145D01*
X0624300Y0328855D01*
X0623645Y0330436D01*
X0622436Y0331645D01*
X0623142Y0330939D02*
X0628750Y0330939D01*
X0628750Y0329940D02*
X0623851Y0329940D01*
X0624264Y0328942D02*
X0628750Y0328942D01*
X0628750Y0327943D02*
X0624300Y0327943D01*
X0624300Y0326945D02*
X0628750Y0326945D01*
X0628750Y0325946D02*
X0624300Y0325946D01*
X0624300Y0324948D02*
X0628750Y0324948D01*
X0628750Y0323949D02*
X0624300Y0323949D01*
X0624300Y0322951D02*
X0628750Y0322951D01*
X0628750Y0321952D02*
X0624300Y0321952D01*
X0624221Y0320954D02*
X0628750Y0320954D01*
X0628750Y0319955D02*
X0623807Y0319955D01*
X0623038Y0318957D02*
X0628750Y0318957D01*
X0628750Y0317958D02*
X0621479Y0317958D01*
X0618521Y0317958D02*
X0611479Y0317958D01*
X0613038Y0318957D02*
X0616962Y0318957D01*
X0616193Y0319955D02*
X0613807Y0319955D01*
X0614221Y0320954D02*
X0615779Y0320954D01*
X0615700Y0321952D02*
X0614300Y0321952D01*
X0614300Y0322951D02*
X0615700Y0322951D01*
X0615700Y0323949D02*
X0614300Y0323949D01*
X0614300Y0324948D02*
X0615700Y0324948D01*
X0615700Y0325946D02*
X0614300Y0325946D01*
X0614300Y0326945D02*
X0615700Y0326945D01*
X0615700Y0327943D02*
X0614300Y0327943D01*
X0614264Y0328942D02*
X0615736Y0328942D01*
X0616149Y0329940D02*
X0613851Y0329940D01*
X0613142Y0330939D02*
X0616858Y0330939D01*
X0618270Y0331937D02*
X0611730Y0331937D01*
X0608270Y0331937D02*
X0331250Y0331937D01*
X0331250Y0330939D02*
X0471518Y0330939D01*
X0471325Y0329940D02*
X0331250Y0329940D01*
X0331250Y0328942D02*
X0456603Y0328942D01*
X0455950Y0327943D02*
X0331250Y0327943D01*
X0331250Y0326945D02*
X0455950Y0326945D01*
X0455950Y0325946D02*
X0331250Y0325946D01*
X0331250Y0324948D02*
X0455950Y0324948D01*
X0455950Y0323949D02*
X0331250Y0323949D01*
X0331250Y0322951D02*
X0455950Y0322951D01*
X0455950Y0321952D02*
X0331250Y0321952D01*
X0331250Y0320954D02*
X0455950Y0320954D01*
X0455950Y0319955D02*
X0441625Y0319955D01*
X0441034Y0320200D02*
X0438966Y0320200D01*
X0437054Y0319408D01*
X0435592Y0317946D01*
X0435000Y0316517D01*
X0434408Y0317946D01*
X0432946Y0319408D01*
X0431034Y0320200D01*
X0428966Y0320200D01*
X0427054Y0319408D01*
X0425592Y0317946D01*
X0425000Y0316517D01*
X0424408Y0317946D01*
X0422946Y0319408D01*
X0421034Y0320200D01*
X0418966Y0320200D01*
X0417054Y0319408D01*
X0415592Y0317946D01*
X0415000Y0316517D01*
X0414408Y0317946D01*
X0412946Y0319408D01*
X0411034Y0320200D01*
X0408966Y0320200D01*
X0407054Y0319408D01*
X0405592Y0317946D01*
X0405000Y0316517D01*
X0404408Y0317946D01*
X0402946Y0319408D01*
X0401034Y0320200D01*
X0398966Y0320200D01*
X0397054Y0319408D01*
X0395592Y0317946D01*
X0394800Y0316034D01*
X0394800Y0313966D01*
X0395592Y0312054D01*
X0397054Y0310592D01*
X0398966Y0309800D01*
X0401034Y0309800D01*
X0402946Y0310592D01*
X0404408Y0312054D01*
X0405000Y0313483D01*
X0405592Y0312054D01*
X0407054Y0310592D01*
X0408966Y0309800D01*
X0411034Y0309800D01*
X0412946Y0310592D01*
X0414408Y0312054D01*
X0415000Y0313483D01*
X0415592Y0312054D01*
X0417054Y0310592D01*
X0418966Y0309800D01*
X0421034Y0309800D01*
X0422946Y0310592D01*
X0424408Y0312054D01*
X0425000Y0313483D01*
X0425592Y0312054D01*
X0427054Y0310592D01*
X0428966Y0309800D01*
X0431034Y0309800D01*
X0432946Y0310592D01*
X0434408Y0312054D01*
X0435000Y0313483D01*
X0435592Y0312054D01*
X0437054Y0310592D01*
X0438966Y0309800D01*
X0441034Y0309800D01*
X0442946Y0310592D01*
X0444408Y0312054D01*
X0445200Y0313966D01*
X0445200Y0316034D01*
X0444408Y0317946D01*
X0442946Y0319408D01*
X0441034Y0320200D01*
X0443397Y0318957D02*
X0455950Y0318957D01*
X0456203Y0317958D02*
X0444396Y0317958D01*
X0444817Y0316960D02*
X0463373Y0316960D01*
X0464372Y0315961D02*
X0445200Y0315961D01*
X0445200Y0314963D02*
X0465370Y0314963D01*
X0466369Y0313964D02*
X0445199Y0313964D01*
X0444786Y0312966D02*
X0467367Y0312966D01*
X0455000Y0312966D01*
X0455000Y0311967D02*
X0468698Y0311967D01*
X0467568Y0311967D01*
X0467648Y0311829D02*
X0467450Y0312171D01*
X0467171Y0312450D01*
X0466829Y0312648D01*
X0466447Y0312750D01*
X0462250Y0312750D01*
X0462250Y0307250D01*
X0461250Y0307250D01*
X0461250Y0312750D01*
X0457053Y0312750D01*
X0456671Y0312648D01*
X0456329Y0312450D01*
X0456050Y0312171D01*
X0455852Y0311829D01*
X0455750Y0311447D01*
X0455750Y0307250D01*
X0461250Y0307250D01*
X0461250Y0306250D01*
X0455750Y0306250D01*
X0455750Y0302053D01*
X0455852Y0301671D01*
X0456050Y0301329D01*
X0456329Y0301050D01*
X0456671Y0300852D01*
X0457053Y0300750D01*
X0461250Y0300750D01*
X0461250Y0306250D01*
X0462250Y0306250D01*
X0462250Y0307250D01*
X0467750Y0307250D01*
X0467750Y0311447D01*
X0467648Y0311829D01*
X0467750Y0310969D02*
X0472250Y0310969D01*
X0472250Y0309970D02*
X0467750Y0309970D01*
X0467750Y0308972D02*
X0472250Y0308972D01*
X0472250Y0307973D02*
X0467750Y0307973D01*
X0467750Y0306250D02*
X0462250Y0306250D01*
X0462250Y0300750D01*
X0466447Y0300750D01*
X0466829Y0300852D01*
X0467171Y0301050D01*
X0467450Y0301329D01*
X0467648Y0301671D01*
X0467750Y0302053D01*
X0467750Y0306250D01*
X0467750Y0305976D02*
X0472250Y0305976D01*
X0472250Y0304978D02*
X0467750Y0304978D01*
X0467750Y0303979D02*
X0472250Y0303979D01*
X0472250Y0302981D02*
X0467750Y0302981D01*
X0467731Y0301982D02*
X0472269Y0301982D01*
X0472943Y0300984D02*
X0467057Y0300984D01*
X0462250Y0300984D02*
X0461250Y0300984D01*
X0461250Y0301982D02*
X0462250Y0301982D01*
X0462250Y0302981D02*
X0461250Y0302981D01*
X0461250Y0303979D02*
X0462250Y0303979D01*
X0462250Y0304978D02*
X0461250Y0304978D01*
X0461250Y0305976D02*
X0462250Y0305976D01*
X0462250Y0306975D02*
X0477750Y0306975D01*
X0477750Y0305976D02*
X0478750Y0305976D01*
X0478750Y0304978D02*
X0477750Y0304978D01*
X0477750Y0303979D02*
X0478750Y0303979D01*
X0478750Y0302981D02*
X0477750Y0302981D01*
X0477750Y0301982D02*
X0478750Y0301982D01*
X0478750Y0300984D02*
X0477750Y0300984D01*
X0482325Y0300984D02*
X0455000Y0300984D01*
X0455000Y0301982D02*
X0482325Y0301982D01*
X0482325Y0302981D02*
X0455000Y0302981D01*
X0455750Y0302981D02*
X0353039Y0302981D01*
X0353200Y0303369D02*
X0353200Y0306631D01*
X0351952Y0309645D01*
X0349645Y0311952D01*
X0346631Y0313200D01*
X0343369Y0313200D01*
X0340355Y0311952D01*
X0338048Y0309645D01*
X0338048Y0309645D01*
X0338048Y0309645D01*
X0336800Y0306631D01*
X0336800Y0303369D01*
X0338048Y0300355D01*
X0340355Y0298048D01*
X0343369Y0296800D01*
X0344627Y0296800D01*
X0346631Y0296800D01*
X0349645Y0298048D01*
X0351952Y0300355D01*
X0353200Y0303369D01*
X0353200Y0303979D02*
X0455750Y0303979D01*
X0455000Y0303979D02*
X0482325Y0303979D01*
X0482325Y0304978D02*
X0455000Y0304978D01*
X0455750Y0304978D02*
X0353200Y0304978D01*
X0353200Y0305976D02*
X0455750Y0305976D01*
X0455000Y0305976D02*
X0482325Y0305976D01*
X0482325Y0306975D02*
X0455000Y0306975D01*
X0455000Y0307973D02*
X0482325Y0307973D01*
X0482325Y0308972D02*
X0455000Y0308972D01*
X0455750Y0308972D02*
X0352230Y0308972D01*
X0351952Y0309645D02*
X0351952Y0309645D01*
X0351626Y0309970D02*
X0398555Y0309970D01*
X0396677Y0310969D02*
X0350628Y0310969D01*
X0349645Y0311952D02*
X0349645Y0311952D01*
X0349607Y0311967D02*
X0395679Y0311967D01*
X0395214Y0312966D02*
X0347197Y0312966D01*
X0342803Y0312966D02*
X0331250Y0312966D01*
X0331250Y0313964D02*
X0394801Y0313964D01*
X0394800Y0314963D02*
X0331250Y0314963D01*
X0331250Y0315961D02*
X0394800Y0315961D01*
X0395183Y0316960D02*
X0331250Y0316960D01*
X0331250Y0317958D02*
X0395604Y0317958D01*
X0396603Y0318957D02*
X0331250Y0318957D01*
X0331250Y0319955D02*
X0398375Y0319955D01*
X0401625Y0319955D02*
X0408375Y0319955D01*
X0406603Y0318957D02*
X0403397Y0318957D01*
X0404396Y0317958D02*
X0405604Y0317958D01*
X0405183Y0316960D02*
X0404817Y0316960D01*
X0404786Y0312966D02*
X0405214Y0312966D01*
X0405679Y0311967D02*
X0404321Y0311967D01*
X0403323Y0310969D02*
X0406677Y0310969D01*
X0408555Y0309970D02*
X0401445Y0309970D01*
X0411445Y0309970D02*
X0418555Y0309970D01*
X0416677Y0310969D02*
X0413323Y0310969D01*
X0414321Y0311967D02*
X0415679Y0311967D01*
X0415214Y0312966D02*
X0414786Y0312966D01*
X0414817Y0316960D02*
X0415183Y0316960D01*
X0415604Y0317958D02*
X0414396Y0317958D01*
X0413397Y0318957D02*
X0416603Y0318957D01*
X0418375Y0319955D02*
X0411625Y0319955D01*
X0421625Y0319955D02*
X0428375Y0319955D01*
X0426603Y0318957D02*
X0423397Y0318957D01*
X0424396Y0317958D02*
X0425604Y0317958D01*
X0425183Y0316960D02*
X0424817Y0316960D01*
X0424786Y0312966D02*
X0425214Y0312966D01*
X0425679Y0311967D02*
X0424321Y0311967D01*
X0423323Y0310969D02*
X0426677Y0310969D01*
X0428555Y0309970D02*
X0421445Y0309970D01*
X0431445Y0309970D02*
X0438555Y0309970D01*
X0436677Y0310969D02*
X0433323Y0310969D01*
X0434321Y0311967D02*
X0435679Y0311967D01*
X0435214Y0312966D02*
X0434786Y0312966D01*
X0434817Y0316960D02*
X0435183Y0316960D01*
X0435604Y0317958D02*
X0434396Y0317958D01*
X0433397Y0318957D02*
X0436603Y0318957D01*
X0438375Y0319955D02*
X0431625Y0319955D01*
X0441445Y0309970D02*
X0455750Y0309970D01*
X0455000Y0309970D02*
X0482325Y0309970D01*
X0482325Y0310969D02*
X0455000Y0310969D01*
X0455750Y0310969D02*
X0443323Y0310969D01*
X0444321Y0311967D02*
X0455932Y0311967D01*
X0455750Y0307973D02*
X0352644Y0307973D01*
X0353058Y0306975D02*
X0461250Y0306975D01*
X0461250Y0307973D02*
X0462250Y0307973D01*
X0462250Y0308972D02*
X0461250Y0308972D01*
X0461250Y0309970D02*
X0462250Y0309970D01*
X0462250Y0310969D02*
X0461250Y0310969D01*
X0461250Y0311967D02*
X0462250Y0311967D01*
X0469712Y0319955D02*
X0471325Y0319955D01*
X0471325Y0318957D02*
X0470710Y0318957D01*
X0471325Y0320954D02*
X0468713Y0320954D01*
X0467715Y0321952D02*
X0471325Y0321952D01*
X0471325Y0322951D02*
X0467550Y0322951D01*
X0467550Y0323949D02*
X0471325Y0323949D01*
X0471325Y0324948D02*
X0467550Y0324948D01*
X0467550Y0325946D02*
X0471325Y0325946D01*
X0471325Y0326945D02*
X0467550Y0326945D01*
X0467550Y0327943D02*
X0471325Y0327943D01*
X0471325Y0328942D02*
X0466897Y0328942D01*
X0473125Y0328942D02*
X0585000Y0328942D01*
X0585000Y0329940D02*
X0473125Y0329940D01*
X0473125Y0330000D02*
X0585000Y0330000D01*
X0585000Y0296425D01*
X0489492Y0296425D01*
X0488925Y0296992D01*
X0488925Y0313156D01*
X0488423Y0314369D01*
X0487494Y0315298D01*
X0484994Y0317798D01*
X0483781Y0318300D01*
X0473125Y0318300D01*
X0473125Y0330000D01*
X0473125Y0327943D02*
X0585000Y0327943D01*
X0585000Y0326945D02*
X0473125Y0326945D01*
X0473125Y0325946D02*
X0585000Y0325946D01*
X0585000Y0324948D02*
X0562004Y0324948D01*
X0561154Y0325300D02*
X0558846Y0325300D01*
X0556715Y0324417D01*
X0555083Y0322785D01*
X0554200Y0320654D01*
X0554200Y0309346D01*
X0555083Y0307215D01*
X0556715Y0305583D01*
X0558846Y0304700D01*
X0561154Y0304700D01*
X0563285Y0305583D01*
X0564917Y0307215D01*
X0565800Y0309346D01*
X0565800Y0320654D01*
X0564917Y0322785D01*
X0563285Y0324417D01*
X0561154Y0325300D01*
X0563753Y0323949D02*
X0585000Y0323949D01*
X0585000Y0322951D02*
X0564752Y0322951D01*
X0565262Y0321952D02*
X0585000Y0321952D01*
X0585000Y0320954D02*
X0565676Y0320954D01*
X0565800Y0319955D02*
X0585000Y0319955D01*
X0585000Y0318957D02*
X0565800Y0318957D01*
X0565800Y0317958D02*
X0585000Y0317958D01*
X0585000Y0316960D02*
X0565800Y0316960D01*
X0565800Y0315961D02*
X0585000Y0315961D01*
X0585000Y0314963D02*
X0565800Y0314963D01*
X0565800Y0313964D02*
X0585000Y0313964D01*
X0585000Y0312966D02*
X0565800Y0312966D01*
X0565800Y0311967D02*
X0585000Y0311967D01*
X0585000Y0310969D02*
X0565800Y0310969D01*
X0565800Y0309970D02*
X0585000Y0309970D01*
X0585000Y0308972D02*
X0565645Y0308972D01*
X0565231Y0307973D02*
X0585000Y0307973D01*
X0585000Y0306975D02*
X0564677Y0306975D01*
X0563679Y0305976D02*
X0585000Y0305976D01*
X0585000Y0304978D02*
X0561824Y0304978D01*
X0558176Y0304978D02*
X0506824Y0304978D01*
X0506154Y0304700D02*
X0508285Y0305583D01*
X0509917Y0307215D01*
X0510800Y0309346D01*
X0510800Y0320654D01*
X0509917Y0322785D01*
X0508285Y0324417D01*
X0506154Y0325300D01*
X0503846Y0325300D01*
X0501715Y0324417D01*
X0500083Y0322785D01*
X0499200Y0320654D01*
X0499200Y0309346D01*
X0500083Y0307215D01*
X0501715Y0305583D01*
X0503846Y0304700D01*
X0506154Y0304700D01*
X0508679Y0305976D02*
X0556321Y0305976D01*
X0555323Y0306975D02*
X0509677Y0306975D01*
X0510231Y0307973D02*
X0554769Y0307973D01*
X0554355Y0308972D02*
X0510645Y0308972D01*
X0510800Y0309970D02*
X0554200Y0309970D01*
X0554200Y0310969D02*
X0510800Y0310969D01*
X0510800Y0311967D02*
X0554200Y0311967D01*
X0554200Y0312966D02*
X0510800Y0312966D01*
X0510800Y0313964D02*
X0554200Y0313964D01*
X0554200Y0314963D02*
X0510800Y0314963D01*
X0510800Y0315961D02*
X0554200Y0315961D01*
X0554200Y0316960D02*
X0510800Y0316960D01*
X0510800Y0317958D02*
X0554200Y0317958D01*
X0554200Y0318957D02*
X0510800Y0318957D01*
X0510800Y0319955D02*
X0554200Y0319955D01*
X0554324Y0320954D02*
X0510676Y0320954D01*
X0510262Y0321952D02*
X0554738Y0321952D01*
X0555248Y0322951D02*
X0509752Y0322951D01*
X0508753Y0323949D02*
X0556247Y0323949D01*
X0557996Y0324948D02*
X0507004Y0324948D01*
X0502996Y0324948D02*
X0473125Y0324948D01*
X0473125Y0323949D02*
X0501247Y0323949D01*
X0500248Y0322951D02*
X0473125Y0322951D01*
X0473125Y0321952D02*
X0499738Y0321952D01*
X0499324Y0320954D02*
X0473125Y0320954D01*
X0473125Y0319955D02*
X0499200Y0319955D01*
X0499200Y0318957D02*
X0473125Y0318957D01*
X0484606Y0317958D02*
X0499200Y0317958D01*
X0499200Y0316960D02*
X0485832Y0316960D01*
X0486831Y0315961D02*
X0499200Y0315961D01*
X0499200Y0314963D02*
X0487829Y0314963D01*
X0488590Y0313964D02*
X0499200Y0313964D01*
X0499200Y0312966D02*
X0488925Y0312966D01*
X0488925Y0311967D02*
X0499200Y0311967D01*
X0499200Y0310969D02*
X0488925Y0310969D01*
X0488925Y0309970D02*
X0499200Y0309970D01*
X0499355Y0308972D02*
X0488925Y0308972D01*
X0488925Y0307973D02*
X0499769Y0307973D01*
X0500323Y0306975D02*
X0488925Y0306975D01*
X0488925Y0305976D02*
X0501321Y0305976D01*
X0503176Y0304978D02*
X0488925Y0304978D01*
X0488925Y0303979D02*
X0585000Y0303979D01*
X0585000Y0302981D02*
X0488925Y0302981D01*
X0488925Y0301982D02*
X0585000Y0301982D01*
X0585000Y0300984D02*
X0488925Y0300984D01*
X0488925Y0299985D02*
X0585000Y0299985D01*
X0585000Y0298987D02*
X0488925Y0298987D01*
X0488925Y0297988D02*
X0585000Y0297988D01*
X0585000Y0296990D02*
X0488927Y0296990D01*
X0482325Y0296990D02*
X0347089Y0296990D01*
X0349499Y0297988D02*
X0482325Y0297988D01*
X0482325Y0298987D02*
X0455000Y0298987D01*
X0455000Y0299985D02*
X0482325Y0299985D01*
X0351582Y0299985D01*
X0351952Y0300355D02*
X0351952Y0300355D01*
X0352212Y0300984D02*
X0456443Y0300984D01*
X0455769Y0301982D02*
X0352626Y0301982D01*
X0350583Y0298987D02*
X0482325Y0298987D01*
X0482325Y0295991D02*
X0331250Y0295991D01*
X0331250Y0294993D02*
X0482325Y0294993D01*
X0482729Y0293994D02*
X0331250Y0293994D01*
X0331250Y0292996D02*
X0483588Y0292996D01*
X0484586Y0291997D02*
X0331250Y0291997D01*
X0331250Y0296990D02*
X0342911Y0296990D01*
X0340501Y0297988D02*
X0331250Y0297988D01*
X0331250Y0298987D02*
X0339417Y0298987D01*
X0340355Y0298048D02*
X0340355Y0298048D01*
X0338418Y0299985D02*
X0331250Y0299985D01*
X0331250Y0300984D02*
X0337788Y0300984D01*
X0338048Y0300355D02*
X0338048Y0300355D01*
X0337374Y0301982D02*
X0331250Y0301982D01*
X0331250Y0302981D02*
X0336961Y0302981D01*
X0336800Y0303979D02*
X0331250Y0303979D01*
X0331250Y0304978D02*
X0336800Y0304978D01*
X0336800Y0305976D02*
X0331250Y0305976D01*
X0331250Y0306975D02*
X0336942Y0306975D01*
X0337356Y0307973D02*
X0331250Y0307973D01*
X0331250Y0308972D02*
X0337770Y0308972D01*
X0338374Y0309970D02*
X0331250Y0309970D01*
X0331250Y0310969D02*
X0339372Y0310969D01*
X0340355Y0311952D02*
X0340355Y0311952D01*
X0340393Y0311967D02*
X0331250Y0311967D01*
X0349645Y0298048D02*
X0349645Y0298048D01*
X0360000Y0350909D02*
X0370000Y0350909D01*
X0368700Y0354903D02*
X0360000Y0354903D01*
X0360000Y0357899D02*
X0368700Y0357899D01*
X0368465Y0357899D01*
X0368700Y0358897D02*
X0360000Y0358897D01*
X0364500Y0358897D02*
X0365500Y0358897D01*
X0365500Y0357899D02*
X0364500Y0357899D01*
X0364500Y0356900D02*
X0365500Y0356900D01*
X0365500Y0355902D02*
X0364500Y0355902D01*
X0367467Y0358897D02*
X0368700Y0358897D01*
X0368700Y0364888D02*
X0360000Y0364888D01*
X0360000Y0367884D02*
X0368700Y0367884D01*
X0368480Y0367884D01*
X0368700Y0368882D02*
X0360000Y0368882D01*
X0364500Y0368882D02*
X0365500Y0368882D01*
X0365500Y0367884D02*
X0364500Y0367884D01*
X0364500Y0366885D02*
X0365500Y0366885D01*
X0365500Y0365887D02*
X0364500Y0365887D01*
X0367482Y0368882D02*
X0368700Y0368882D01*
X0368700Y0374873D02*
X0360000Y0374873D01*
X0360000Y0377869D02*
X0368700Y0377869D01*
X0368495Y0377869D01*
X0368700Y0378868D02*
X0360000Y0378868D01*
X0364500Y0378868D02*
X0365500Y0378868D01*
X0365500Y0377869D02*
X0364500Y0377869D01*
X0364500Y0376870D02*
X0365500Y0376870D01*
X0365500Y0375872D02*
X0364500Y0375872D01*
X0367496Y0378868D02*
X0368700Y0378868D01*
X0368700Y0380865D02*
X0367228Y0380865D01*
X0368700Y0384859D02*
X0360000Y0384859D01*
X0364500Y0385857D02*
X0365500Y0385857D01*
X0365500Y0386856D02*
X0364500Y0386856D01*
X0364500Y0387854D02*
X0365500Y0387854D01*
X0365500Y0388853D02*
X0364500Y0388853D01*
X0367214Y0390850D02*
X0368700Y0390850D01*
X0368700Y0394844D02*
X0360000Y0394844D01*
X0364500Y0395842D02*
X0365500Y0395842D01*
X0365500Y0396841D02*
X0364500Y0396841D01*
X0364500Y0397839D02*
X0365500Y0397839D01*
X0365500Y0398838D02*
X0364500Y0398838D01*
X0367199Y0400835D02*
X0368700Y0400835D01*
X0368700Y0404829D02*
X0360000Y0404829D01*
X0364500Y0405827D02*
X0365500Y0405827D01*
X0365500Y0406826D02*
X0364500Y0406826D01*
X0364500Y0407824D02*
X0365500Y0407824D01*
X0365500Y0408823D02*
X0364500Y0408823D01*
X0367184Y0410820D02*
X0368700Y0410820D01*
X0368700Y0414814D02*
X0360000Y0414814D01*
X0360500Y0416811D02*
X0331250Y0416811D01*
X0331250Y0417809D02*
X0361445Y0417809D01*
X0362444Y0418808D02*
X0331250Y0418808D01*
X0331250Y0419806D02*
X0368700Y0419806D01*
X0365500Y0418808D02*
X0364500Y0418808D01*
X0364500Y0417809D02*
X0365500Y0417809D01*
X0365500Y0416811D02*
X0364500Y0416811D01*
X0364500Y0415812D02*
X0365500Y0415812D01*
X0365500Y0425798D02*
X0364500Y0425798D01*
X0364500Y0426796D02*
X0365500Y0426796D01*
X0365500Y0427795D02*
X0364500Y0427795D01*
X0364500Y0428793D02*
X0365500Y0428793D01*
X0367571Y0428793D02*
X0368700Y0428793D01*
X0360000Y0428793D01*
X0360000Y0427795D02*
X0368700Y0427795D01*
X0368569Y0427795D01*
X0368700Y0434784D02*
X0360000Y0434784D01*
X0360000Y0437780D02*
X0368700Y0437780D01*
X0368584Y0437780D01*
X0368700Y0438778D02*
X0360000Y0438778D01*
X0364500Y0438778D02*
X0365500Y0438778D01*
X0365500Y0437780D02*
X0364500Y0437780D01*
X0364500Y0436781D02*
X0365500Y0436781D01*
X0365500Y0435783D02*
X0364500Y0435783D01*
X0367586Y0438778D02*
X0368700Y0438778D01*
X0368700Y0444769D02*
X0360000Y0444769D01*
X0360000Y0447765D02*
X0368700Y0447765D01*
X0368599Y0447765D01*
X0368700Y0448763D02*
X0360000Y0448763D01*
X0364500Y0448763D02*
X0365500Y0448763D01*
X0365500Y0447765D02*
X0364500Y0447765D01*
X0364500Y0446766D02*
X0365500Y0446766D01*
X0365500Y0445768D02*
X0364500Y0445768D01*
X0367601Y0448763D02*
X0368700Y0448763D01*
X0368700Y0454754D02*
X0360000Y0454754D01*
X0360000Y0457750D02*
X0368700Y0457750D01*
X0368614Y0457750D01*
X0368700Y0458748D02*
X0360000Y0458748D01*
X0364500Y0458748D02*
X0365500Y0458748D01*
X0365500Y0457750D02*
X0364500Y0457750D01*
X0364500Y0456751D02*
X0365500Y0456751D01*
X0365500Y0455753D02*
X0364500Y0455753D01*
X0367616Y0458748D02*
X0368700Y0458748D01*
X0368700Y0464739D02*
X0360000Y0464739D01*
X0360000Y0467735D02*
X0369314Y0467735D01*
X0368629Y0467735D01*
X0367630Y0468734D02*
X0369824Y0468734D01*
X0360000Y0468734D01*
X0360000Y0469732D02*
X0370000Y0469732D01*
X0370823Y0469732D02*
X0351329Y0469732D01*
X0351952Y0470355D02*
X0351952Y0470355D01*
X0352107Y0470731D02*
X0372372Y0470731D01*
X0377628Y0470731D02*
X0420700Y0470731D01*
X0420700Y0470719D02*
X0423219Y0468200D01*
X0426781Y0468200D01*
X0429300Y0470719D01*
X0429300Y0474281D01*
X0426781Y0476800D01*
X0423219Y0476800D01*
X0420700Y0474281D01*
X0420700Y0470719D01*
X0420700Y0471729D02*
X0352521Y0471729D01*
X0352934Y0472728D02*
X0420700Y0472728D01*
X0420700Y0473726D02*
X0353200Y0473726D01*
X0353200Y0474725D02*
X0421143Y0474725D01*
X0422142Y0475723D02*
X0353200Y0475723D01*
X0353162Y0476722D02*
X0423141Y0476722D01*
X0422700Y0478719D02*
X0352335Y0478719D01*
X0351952Y0479645D02*
X0351952Y0479645D01*
X0351879Y0479717D02*
X0421702Y0479717D01*
X0420703Y0480716D02*
X0350881Y0480716D01*
X0349882Y0481714D02*
X0420700Y0481714D01*
X0420700Y0482713D02*
X0347808Y0482713D01*
X0349645Y0481952D02*
X0349645Y0481952D01*
X0352749Y0477720D02*
X0508217Y0477720D01*
X0508950Y0478453D02*
X0507039Y0476542D01*
X0506781Y0476800D01*
X0503219Y0476800D01*
X0500700Y0474281D01*
X0500700Y0470719D01*
X0503219Y0468200D01*
X0506781Y0468200D01*
X0509300Y0470719D01*
X0509300Y0472297D01*
X0510700Y0473697D01*
X0510700Y0470719D01*
X0513219Y0468200D01*
X0516781Y0468200D01*
X0519300Y0470719D01*
X0519300Y0474281D01*
X0518381Y0475200D01*
X0521619Y0475200D01*
X0520700Y0474281D01*
X0520700Y0470719D01*
X0523219Y0468200D01*
X0526781Y0468200D01*
X0529300Y0470719D01*
X0529300Y0474281D01*
X0528381Y0475200D01*
X0555297Y0475200D01*
X0555958Y0474539D01*
X0555700Y0474281D01*
X0555700Y0470719D01*
X0558219Y0468200D01*
X0561781Y0468200D01*
X0564300Y0470719D01*
X0564300Y0474281D01*
X0562900Y0475681D01*
X0562900Y0479319D01*
X0564300Y0480719D01*
X0564300Y0484281D01*
X0561781Y0486800D01*
X0558219Y0486800D01*
X0555700Y0484281D01*
X0555700Y0480719D01*
X0555958Y0480461D01*
X0555297Y0479800D01*
X0528381Y0479800D01*
X0529300Y0480719D01*
X0529300Y0484281D01*
X0526781Y0486800D01*
X0523219Y0486800D01*
X0520700Y0484281D01*
X0520700Y0480719D01*
X0521619Y0479800D01*
X0518381Y0479800D01*
X0519300Y0480719D01*
X0519300Y0484281D01*
X0516781Y0486800D01*
X0513219Y0486800D01*
X0510700Y0484281D01*
X0510700Y0480719D01*
X0511619Y0479800D01*
X0510297Y0479800D01*
X0508950Y0478453D01*
X0509216Y0478719D02*
X0507300Y0478719D01*
X0506781Y0478200D02*
X0509300Y0480719D01*
X0509300Y0484281D01*
X0506781Y0486800D01*
X0503219Y0486800D01*
X0500700Y0484281D01*
X0500700Y0480719D01*
X0503219Y0478200D01*
X0506781Y0478200D01*
X0506859Y0476722D02*
X0507219Y0476722D01*
X0508298Y0479717D02*
X0510214Y0479717D01*
X0510703Y0480716D02*
X0509297Y0480716D01*
X0509300Y0481714D02*
X0510700Y0481714D01*
X0510700Y0482713D02*
X0509300Y0482713D01*
X0509300Y0483711D02*
X0510700Y0483711D01*
X0511129Y0484710D02*
X0508871Y0484710D01*
X0507873Y0485708D02*
X0512127Y0485708D01*
X0513126Y0486707D02*
X0506874Y0486707D01*
X0503126Y0486707D02*
X0476874Y0486707D01*
X0476781Y0486800D02*
X0473219Y0486800D01*
X0470700Y0484281D01*
X0470700Y0480719D01*
X0473219Y0478200D01*
X0476781Y0478200D01*
X0479300Y0480719D01*
X0479300Y0484281D01*
X0476781Y0486800D01*
X0477873Y0485708D02*
X0502127Y0485708D01*
X0501129Y0484710D02*
X0478871Y0484710D01*
X0479300Y0483711D02*
X0500700Y0483711D01*
X0500700Y0482713D02*
X0479300Y0482713D01*
X0479300Y0481714D02*
X0500700Y0481714D01*
X0500703Y0480716D02*
X0479297Y0480716D01*
X0478298Y0479717D02*
X0501702Y0479717D01*
X0502700Y0478719D02*
X0477300Y0478719D01*
X0476781Y0476800D02*
X0473219Y0476800D01*
X0470700Y0474281D01*
X0470700Y0470719D01*
X0473219Y0468200D01*
X0476781Y0468200D01*
X0479300Y0470719D01*
X0479300Y0474281D01*
X0476781Y0476800D01*
X0476859Y0476722D02*
X0503141Y0476722D01*
X0502142Y0475723D02*
X0477858Y0475723D01*
X0478856Y0474725D02*
X0501143Y0474725D01*
X0500700Y0473726D02*
X0479300Y0473726D01*
X0479300Y0472728D02*
X0500700Y0472728D01*
X0500700Y0471729D02*
X0479300Y0471729D01*
X0479300Y0470731D02*
X0500700Y0470731D01*
X0501687Y0469732D02*
X0478313Y0469732D01*
X0477315Y0468734D02*
X0502685Y0468734D01*
X0507315Y0468734D02*
X0512685Y0468734D01*
X0511687Y0469732D02*
X0508313Y0469732D01*
X0509300Y0470731D02*
X0510700Y0470731D01*
X0510700Y0471729D02*
X0509300Y0471729D01*
X0509730Y0472728D02*
X0510700Y0472728D01*
X0517315Y0468734D02*
X0522685Y0468734D01*
X0521687Y0469732D02*
X0518313Y0469732D01*
X0519300Y0470731D02*
X0520700Y0470731D01*
X0520700Y0471729D02*
X0519300Y0471729D01*
X0519300Y0472728D02*
X0520700Y0472728D01*
X0520700Y0473726D02*
X0519300Y0473726D01*
X0518856Y0474725D02*
X0521144Y0474725D01*
X0520703Y0480716D02*
X0519297Y0480716D01*
X0519300Y0481714D02*
X0520700Y0481714D01*
X0520700Y0482713D02*
X0519300Y0482713D01*
X0519300Y0483711D02*
X0520700Y0483711D01*
X0521129Y0484710D02*
X0518871Y0484710D01*
X0517873Y0485708D02*
X0522127Y0485708D01*
X0523126Y0486707D02*
X0516874Y0486707D01*
X0526874Y0486707D02*
X0558126Y0486707D01*
X0557127Y0485708D02*
X0527873Y0485708D01*
X0528871Y0484710D02*
X0556129Y0484710D01*
X0555700Y0483711D02*
X0529300Y0483711D01*
X0529300Y0482713D02*
X0555700Y0482713D01*
X0555700Y0481714D02*
X0529300Y0481714D01*
X0529297Y0480716D02*
X0555703Y0480716D01*
X0555773Y0474725D02*
X0528856Y0474725D01*
X0529300Y0473726D02*
X0555700Y0473726D01*
X0555700Y0472728D02*
X0529300Y0472728D01*
X0529300Y0471729D02*
X0555700Y0471729D01*
X0555700Y0470731D02*
X0529300Y0470731D01*
X0528313Y0469732D02*
X0556687Y0469732D01*
X0557685Y0468734D02*
X0527315Y0468734D01*
X0529165Y0459200D02*
X0527621Y0458561D01*
X0526439Y0457379D01*
X0525800Y0455835D01*
X0525800Y0454165D01*
X0526439Y0452621D01*
X0527621Y0451439D01*
X0529165Y0450800D01*
X0530835Y0450800D01*
X0532379Y0451439D01*
X0533561Y0452621D01*
X0534200Y0454165D01*
X0534200Y0455835D01*
X0533561Y0457379D01*
X0532379Y0458561D01*
X0530835Y0459200D01*
X0529165Y0459200D01*
X0528074Y0458748D02*
X0521926Y0458748D01*
X0522379Y0458561D02*
X0520835Y0459200D01*
X0519165Y0459200D01*
X0517621Y0458561D01*
X0516439Y0457379D01*
X0515800Y0455835D01*
X0515800Y0454165D01*
X0516439Y0452621D01*
X0517621Y0451439D01*
X0519165Y0450800D01*
X0520835Y0450800D01*
X0522379Y0451439D01*
X0523561Y0452621D01*
X0524200Y0454165D01*
X0524200Y0455835D01*
X0523561Y0457379D01*
X0522379Y0458561D01*
X0523190Y0457750D02*
X0526810Y0457750D01*
X0526179Y0456751D02*
X0523821Y0456751D01*
X0524200Y0455753D02*
X0525800Y0455753D01*
X0525800Y0454754D02*
X0524200Y0454754D01*
X0524031Y0453756D02*
X0525969Y0453756D01*
X0526383Y0452757D02*
X0523617Y0452757D01*
X0522699Y0451759D02*
X0527301Y0451759D01*
X0532699Y0451759D02*
X0537301Y0451759D01*
X0537621Y0451439D02*
X0539165Y0450800D01*
X0540835Y0450800D01*
X0542379Y0451439D01*
X0543561Y0452621D01*
X0544200Y0454165D01*
X0544200Y0455835D01*
X0543561Y0457379D01*
X0542379Y0458561D01*
X0540835Y0459200D01*
X0539165Y0459200D01*
X0537621Y0458561D01*
X0536439Y0457379D01*
X0535800Y0455835D01*
X0535800Y0454165D01*
X0536439Y0452621D01*
X0537621Y0451439D01*
X0536383Y0452757D02*
X0533617Y0452757D01*
X0534031Y0453756D02*
X0535969Y0453756D01*
X0535800Y0454754D02*
X0534200Y0454754D01*
X0534200Y0455753D02*
X0535800Y0455753D01*
X0536179Y0456751D02*
X0533821Y0456751D01*
X0533190Y0457750D02*
X0536810Y0457750D01*
X0538074Y0458748D02*
X0531926Y0458748D01*
X0541926Y0458748D02*
X0548074Y0458748D01*
X0547621Y0458561D02*
X0546439Y0457379D01*
X0545800Y0455835D01*
X0545800Y0454165D01*
X0546439Y0452621D01*
X0547621Y0451439D01*
X0549165Y0450800D01*
X0550835Y0450800D01*
X0552379Y0451439D01*
X0553561Y0452621D01*
X0554200Y0454165D01*
X0554200Y0455835D01*
X0553561Y0457379D01*
X0552379Y0458561D01*
X0550835Y0459200D01*
X0549165Y0459200D01*
X0547621Y0458561D01*
X0546810Y0457750D02*
X0543190Y0457750D01*
X0543821Y0456751D02*
X0546179Y0456751D01*
X0545800Y0455753D02*
X0544200Y0455753D01*
X0544200Y0454754D02*
X0545800Y0454754D01*
X0545969Y0453756D02*
X0544031Y0453756D01*
X0543617Y0452757D02*
X0546383Y0452757D01*
X0547301Y0451759D02*
X0542699Y0451759D01*
X0552699Y0451759D02*
X0557301Y0451759D01*
X0557621Y0451439D02*
X0559165Y0450800D01*
X0560835Y0450800D01*
X0562379Y0451439D01*
X0563561Y0452621D01*
X0564200Y0454165D01*
X0564200Y0455835D01*
X0563561Y0457379D01*
X0562379Y0458561D01*
X0560835Y0459200D01*
X0559165Y0459200D01*
X0557621Y0458561D01*
X0556439Y0457379D01*
X0555800Y0455835D01*
X0555800Y0454165D01*
X0556439Y0452621D01*
X0557621Y0451439D01*
X0556383Y0452757D02*
X0553617Y0452757D01*
X0554031Y0453756D02*
X0555969Y0453756D01*
X0555800Y0454754D02*
X0554200Y0454754D01*
X0554200Y0455753D02*
X0555800Y0455753D01*
X0556179Y0456751D02*
X0553821Y0456751D01*
X0553190Y0457750D02*
X0556810Y0457750D01*
X0558074Y0458748D02*
X0551926Y0458748D01*
X0561926Y0458748D02*
X0568074Y0458748D01*
X0567621Y0458561D02*
X0566439Y0457379D01*
X0565800Y0455835D01*
X0565800Y0454165D01*
X0566439Y0452621D01*
X0567621Y0451439D01*
X0569165Y0450800D01*
X0570835Y0450800D01*
X0572379Y0451439D01*
X0573561Y0452621D01*
X0574200Y0454165D01*
X0574200Y0455835D01*
X0573561Y0457379D01*
X0572379Y0458561D01*
X0570835Y0459200D01*
X0569165Y0459200D01*
X0567621Y0458561D01*
X0566810Y0457750D02*
X0563190Y0457750D01*
X0563821Y0456751D02*
X0566179Y0456751D01*
X0565800Y0455753D02*
X0564200Y0455753D01*
X0564200Y0454754D02*
X0565800Y0454754D01*
X0565969Y0453756D02*
X0564031Y0453756D01*
X0563617Y0452757D02*
X0566383Y0452757D01*
X0567301Y0451759D02*
X0562699Y0451759D01*
X0557458Y0446643D02*
X0556643Y0447458D01*
X0555577Y0447900D01*
X0491923Y0447900D01*
X0490857Y0447458D01*
X0490041Y0446643D01*
X0489600Y0445577D01*
X0489600Y0444423D01*
X0490041Y0443357D01*
X0490857Y0442541D01*
X0491923Y0442100D01*
X0555577Y0442100D01*
X0556643Y0442541D01*
X0557458Y0443357D01*
X0557900Y0444423D01*
X0557900Y0445577D01*
X0557458Y0446643D01*
X0557335Y0446766D02*
X0628750Y0446766D01*
X0628750Y0445768D02*
X0557821Y0445768D01*
X0557900Y0444769D02*
X0628750Y0444769D01*
X0628750Y0443771D02*
X0557630Y0443771D01*
X0556873Y0442772D02*
X0628750Y0442772D01*
X0628750Y0441774D02*
X0448272Y0441774D01*
X0448050Y0441996D02*
X0448050Y0453764D01*
X0448445Y0454158D01*
X0448839Y0455110D01*
X0448839Y0456140D01*
X0448445Y0457092D01*
X0447717Y0457820D01*
X0446765Y0458214D01*
X0445735Y0458214D01*
X0444783Y0457820D01*
X0444055Y0457092D01*
X0443661Y0456140D01*
X0443661Y0455110D01*
X0444055Y0454158D01*
X0444450Y0453764D01*
X0444450Y0440504D01*
X0463661Y0421293D01*
X0463661Y0420735D01*
X0464055Y0419783D01*
X0464783Y0419055D01*
X0465735Y0418661D01*
X0466765Y0418661D01*
X0467717Y0419055D01*
X0468445Y0419783D01*
X0468839Y0420735D01*
X0468839Y0421765D01*
X0468445Y0422717D01*
X0467717Y0423445D01*
X0466765Y0423839D01*
X0466207Y0423839D01*
X0448050Y0441996D01*
X0448050Y0442772D02*
X0490627Y0442772D01*
X0489870Y0443771D02*
X0448050Y0443771D01*
X0448050Y0444769D02*
X0489600Y0444769D01*
X0489679Y0445768D02*
X0448050Y0445768D01*
X0448050Y0446766D02*
X0490165Y0446766D01*
X0491597Y0447765D02*
X0448050Y0447765D01*
X0448050Y0448763D02*
X0628750Y0448763D01*
X0628750Y0447765D02*
X0555903Y0447765D01*
X0572699Y0451759D02*
X0577301Y0451759D01*
X0577621Y0451439D02*
X0579165Y0450800D01*
X0580835Y0450800D01*
X0582379Y0451439D01*
X0583561Y0452621D01*
X0584200Y0454165D01*
X0584200Y0455835D01*
X0583561Y0457379D01*
X0582379Y0458561D01*
X0580835Y0459200D01*
X0579165Y0459200D01*
X0577621Y0458561D01*
X0576439Y0457379D01*
X0575800Y0455835D01*
X0575800Y0454165D01*
X0576439Y0452621D01*
X0577621Y0451439D01*
X0576383Y0452757D02*
X0573617Y0452757D01*
X0574031Y0453756D02*
X0575969Y0453756D01*
X0575800Y0454754D02*
X0574200Y0454754D01*
X0574200Y0455753D02*
X0575800Y0455753D01*
X0576179Y0456751D02*
X0573821Y0456751D01*
X0573190Y0457750D02*
X0576810Y0457750D01*
X0578074Y0458748D02*
X0571926Y0458748D01*
X0571781Y0468200D02*
X0574300Y0470719D01*
X0574300Y0474281D01*
X0572100Y0476481D01*
X0572100Y0478519D01*
X0574300Y0480719D01*
X0574300Y0484281D01*
X0571781Y0486800D01*
X0568219Y0486800D01*
X0565700Y0484281D01*
X0565700Y0480719D01*
X0567900Y0478519D01*
X0567900Y0476481D01*
X0565700Y0474281D01*
X0565700Y0470719D01*
X0568219Y0468200D01*
X0571781Y0468200D01*
X0572315Y0468734D02*
X0577685Y0468734D01*
X0578219Y0468200D02*
X0581781Y0468200D01*
X0584300Y0470719D01*
X0584300Y0474281D01*
X0582100Y0476481D01*
X0582100Y0478519D01*
X0584300Y0480719D01*
X0584300Y0484281D01*
X0581781Y0486800D01*
X0578219Y0486800D01*
X0575700Y0484281D01*
X0575700Y0480719D01*
X0577900Y0478519D01*
X0577900Y0476481D01*
X0575700Y0474281D01*
X0575700Y0470719D01*
X0578219Y0468200D01*
X0576687Y0469732D02*
X0573313Y0469732D01*
X0574300Y0470731D02*
X0575700Y0470731D01*
X0575700Y0471729D02*
X0574300Y0471729D01*
X0574300Y0472728D02*
X0575700Y0472728D01*
X0575700Y0473726D02*
X0574300Y0473726D01*
X0573856Y0474725D02*
X0576143Y0474725D01*
X0577142Y0475723D02*
X0572858Y0475723D01*
X0572100Y0476722D02*
X0577900Y0476722D01*
X0577900Y0477720D02*
X0572100Y0477720D01*
X0572300Y0478719D02*
X0577700Y0478719D01*
X0576702Y0479717D02*
X0573298Y0479717D01*
X0574297Y0480716D02*
X0575703Y0480716D01*
X0575700Y0481714D02*
X0574300Y0481714D01*
X0574300Y0482713D02*
X0575700Y0482713D01*
X0575700Y0483711D02*
X0574300Y0483711D01*
X0573871Y0484710D02*
X0576129Y0484710D01*
X0577127Y0485708D02*
X0572873Y0485708D01*
X0571874Y0486707D02*
X0578126Y0486707D01*
X0581874Y0486707D02*
X0587843Y0486707D01*
X0588136Y0487000D02*
X0585500Y0484364D01*
X0585500Y0483000D01*
X0589500Y0483000D01*
X0589500Y0487000D01*
X0588136Y0487000D01*
X0589500Y0486707D02*
X0590500Y0486707D01*
X0590500Y0487000D02*
X0591864Y0487000D01*
X0594500Y0484364D01*
X0594500Y0483000D01*
X0590500Y0483000D01*
X0590500Y0482000D01*
X0594500Y0482000D01*
X0594500Y0480636D01*
X0591864Y0478000D01*
X0590500Y0478000D01*
X0590500Y0482000D01*
X0589500Y0482000D01*
X0589500Y0478000D01*
X0588136Y0478000D01*
X0585500Y0480636D01*
X0585500Y0482000D01*
X0589500Y0482000D01*
X0589500Y0483000D01*
X0590500Y0483000D01*
X0590500Y0487000D01*
X0590500Y0485708D02*
X0589500Y0485708D01*
X0589500Y0484710D02*
X0590500Y0484710D01*
X0590500Y0483711D02*
X0589500Y0483711D01*
X0589500Y0482713D02*
X0584300Y0482713D01*
X0584300Y0483711D02*
X0585500Y0483711D01*
X0585846Y0484710D02*
X0583871Y0484710D01*
X0582873Y0485708D02*
X0586844Y0485708D01*
X0585500Y0481714D02*
X0584300Y0481714D01*
X0584297Y0480716D02*
X0585500Y0480716D01*
X0586419Y0479717D02*
X0583298Y0479717D01*
X0582300Y0478719D02*
X0587417Y0478719D01*
X0588136Y0477000D02*
X0585500Y0474364D01*
X0585500Y0473000D01*
X0589500Y0473000D01*
X0589500Y0477000D01*
X0588136Y0477000D01*
X0587858Y0476722D02*
X0582100Y0476722D01*
X0582100Y0477720D02*
X0607251Y0477720D01*
X0606838Y0476722D02*
X0592142Y0476722D01*
X0591864Y0477000D02*
X0590500Y0477000D01*
X0590500Y0473000D01*
X0594500Y0473000D01*
X0594500Y0474364D01*
X0591864Y0477000D01*
X0590500Y0476722D02*
X0589500Y0476722D01*
X0589500Y0475723D02*
X0590500Y0475723D01*
X0590500Y0474725D02*
X0589500Y0474725D01*
X0589500Y0473726D02*
X0590500Y0473726D01*
X0590500Y0473000D02*
X0589500Y0473000D01*
X0589500Y0472000D01*
X0590500Y0472000D01*
X0590500Y0473000D01*
X0590500Y0472728D02*
X0607066Y0472728D01*
X0606800Y0473369D02*
X0608048Y0470355D01*
X0610355Y0468048D01*
X0613369Y0466800D01*
X0615373Y0466800D01*
X0616631Y0466800D01*
X0619645Y0468048D01*
X0621952Y0470355D01*
X0623200Y0473369D01*
X0623200Y0476631D01*
X0621952Y0479645D01*
X0619645Y0481952D01*
X0616631Y0483200D01*
X0613369Y0483200D01*
X0610355Y0481952D01*
X0608048Y0479645D01*
X0608048Y0479645D01*
X0606800Y0476631D01*
X0606800Y0473369D01*
X0606800Y0473726D02*
X0594500Y0473726D01*
X0594139Y0474725D02*
X0606800Y0474725D01*
X0606800Y0475723D02*
X0593141Y0475723D01*
X0592583Y0478719D02*
X0607665Y0478719D01*
X0608121Y0479717D02*
X0593581Y0479717D01*
X0594500Y0480716D02*
X0609119Y0480716D01*
X0610118Y0481714D02*
X0594500Y0481714D01*
X0594500Y0483711D02*
X0628750Y0483711D01*
X0628750Y0482713D02*
X0617808Y0482713D01*
X0619645Y0481952D02*
X0619645Y0481952D01*
X0619882Y0481714D02*
X0628750Y0481714D01*
X0628750Y0480716D02*
X0620881Y0480716D01*
X0621879Y0479717D02*
X0628750Y0479717D01*
X0628750Y0478719D02*
X0622335Y0478719D01*
X0621952Y0479645D02*
X0621952Y0479645D01*
X0622749Y0477720D02*
X0628750Y0477720D01*
X0628750Y0476722D02*
X0623162Y0476722D01*
X0623200Y0475723D02*
X0628750Y0475723D01*
X0628750Y0474725D02*
X0623200Y0474725D01*
X0623200Y0473726D02*
X0628750Y0473726D01*
X0628750Y0472728D02*
X0622934Y0472728D01*
X0622521Y0471729D02*
X0628750Y0471729D01*
X0628750Y0470731D02*
X0622107Y0470731D01*
X0621952Y0470355D02*
X0621952Y0470355D01*
X0621952Y0470355D01*
X0621329Y0469732D02*
X0628750Y0469732D01*
X0628750Y0468734D02*
X0620330Y0468734D01*
X0619645Y0468048D02*
X0619645Y0468048D01*
X0618888Y0467735D02*
X0628750Y0467735D01*
X0628750Y0466737D02*
X0389300Y0466737D01*
X0389300Y0465738D02*
X0628750Y0465738D01*
X0628750Y0464739D02*
X0389300Y0464739D01*
X0389300Y0463741D02*
X0628750Y0463741D01*
X0628750Y0462742D02*
X0388824Y0462742D01*
X0387825Y0461744D02*
X0478083Y0461744D01*
X0477805Y0461467D02*
X0477411Y0460515D01*
X0477411Y0459485D01*
X0477805Y0458533D01*
X0478533Y0457805D01*
X0479485Y0457411D01*
X0480515Y0457411D01*
X0481467Y0457805D01*
X0481861Y0458200D01*
X0487260Y0458200D01*
X0486439Y0457379D01*
X0485800Y0455835D01*
X0485800Y0454165D01*
X0486439Y0452621D01*
X0487621Y0451439D01*
X0489165Y0450800D01*
X0490835Y0450800D01*
X0492379Y0451439D01*
X0493561Y0452621D01*
X0494200Y0454165D01*
X0494200Y0455835D01*
X0493561Y0457379D01*
X0492740Y0458200D01*
X0494254Y0458200D01*
X0496040Y0456415D01*
X0495800Y0455835D01*
X0495800Y0454165D01*
X0496439Y0452621D01*
X0497621Y0451439D01*
X0499165Y0450800D01*
X0500835Y0450800D01*
X0502379Y0451439D01*
X0503561Y0452621D01*
X0504200Y0454165D01*
X0504200Y0455835D01*
X0503561Y0457379D01*
X0502379Y0458561D01*
X0500835Y0459200D01*
X0499165Y0459200D01*
X0498585Y0458960D01*
X0496800Y0460746D01*
X0495746Y0461800D01*
X0481861Y0461800D01*
X0481467Y0462195D01*
X0480515Y0462589D01*
X0479485Y0462589D01*
X0478533Y0462195D01*
X0477805Y0461467D01*
X0477506Y0460745D02*
X0386827Y0460745D01*
X0387333Y0458748D02*
X0477716Y0458748D01*
X0477411Y0459747D02*
X0381300Y0459747D01*
X0381300Y0460745D02*
X0383173Y0460745D01*
X0382175Y0461744D02*
X0381300Y0461744D01*
X0381300Y0458748D02*
X0382667Y0458748D01*
X0381669Y0457750D02*
X0381300Y0457750D01*
X0381300Y0451759D02*
X0382160Y0451759D01*
X0381300Y0450760D02*
X0383159Y0450760D01*
X0382682Y0448763D02*
X0381300Y0448763D01*
X0381300Y0447765D02*
X0381684Y0447765D01*
X0381300Y0449762D02*
X0444450Y0449762D01*
X0444450Y0450760D02*
X0386841Y0450760D01*
X0387840Y0451759D02*
X0444450Y0451759D01*
X0444450Y0452757D02*
X0388838Y0452757D01*
X0389300Y0453756D02*
X0444450Y0453756D01*
X0443808Y0454754D02*
X0389300Y0454754D01*
X0389300Y0455753D02*
X0443661Y0455753D01*
X0443914Y0456751D02*
X0389300Y0456751D01*
X0388331Y0457750D02*
X0444714Y0457750D01*
X0446250Y0455625D02*
X0446250Y0441250D01*
X0466250Y0421250D01*
X0467120Y0418808D02*
X0628750Y0418808D01*
X0628750Y0419806D02*
X0468454Y0419806D01*
X0468839Y0420805D02*
X0628750Y0420805D01*
X0628750Y0421803D02*
X0468823Y0421803D01*
X0468359Y0422802D02*
X0628750Y0422802D01*
X0628750Y0423801D02*
X0466858Y0423801D01*
X0465247Y0424799D02*
X0628750Y0424799D01*
X0628750Y0425798D02*
X0464248Y0425798D01*
X0463250Y0426796D02*
X0628750Y0426796D01*
X0628750Y0427795D02*
X0462251Y0427795D01*
X0461252Y0428793D02*
X0628750Y0428793D01*
X0628750Y0429792D02*
X0460254Y0429792D01*
X0459255Y0430790D02*
X0628750Y0430790D01*
X0628750Y0431789D02*
X0458257Y0431789D01*
X0457258Y0432787D02*
X0628750Y0432787D01*
X0628750Y0433786D02*
X0456260Y0433786D01*
X0455261Y0434784D02*
X0628750Y0434784D01*
X0628750Y0435783D02*
X0454263Y0435783D01*
X0453264Y0436781D02*
X0628750Y0436781D01*
X0628750Y0437780D02*
X0452266Y0437780D01*
X0451267Y0438778D02*
X0628750Y0438778D01*
X0628750Y0439777D02*
X0450269Y0439777D01*
X0449270Y0440775D02*
X0628750Y0440775D01*
X0628750Y0449762D02*
X0448050Y0449762D01*
X0448050Y0450760D02*
X0618810Y0450760D01*
X0618970Y0450708D02*
X0618311Y0450922D01*
X0617694Y0451237D01*
X0617134Y0451644D01*
X0616644Y0452134D01*
X0616237Y0452694D01*
X0615922Y0453311D01*
X0615708Y0453970D01*
X0615616Y0454550D01*
X0619550Y0454550D01*
X0619550Y0455450D01*
X0619550Y0459384D01*
X0618970Y0459292D01*
X0618311Y0459078D01*
X0617694Y0458763D01*
X0617134Y0458356D01*
X0616644Y0457866D01*
X0616237Y0457306D01*
X0615922Y0456689D01*
X0615708Y0456030D01*
X0615616Y0455450D01*
X0619550Y0455450D01*
X0620450Y0455450D01*
X0620450Y0459384D01*
X0621030Y0459292D01*
X0621689Y0459078D01*
X0622306Y0458763D01*
X0622866Y0458356D01*
X0623356Y0457866D01*
X0623763Y0457306D01*
X0624078Y0456689D01*
X0624292Y0456030D01*
X0624384Y0455450D01*
X0620450Y0455450D01*
X0620450Y0454550D01*
X0624384Y0454550D01*
X0624292Y0453970D01*
X0624078Y0453311D01*
X0623763Y0452694D01*
X0623356Y0452134D01*
X0622866Y0451644D01*
X0622306Y0451237D01*
X0621689Y0450922D01*
X0621030Y0450708D01*
X0620450Y0450616D01*
X0620450Y0454550D01*
X0619550Y0454550D01*
X0619550Y0450616D01*
X0618970Y0450708D01*
X0619550Y0450760D02*
X0620450Y0450760D01*
X0621190Y0450760D02*
X0628750Y0450760D01*
X0628750Y0451759D02*
X0622981Y0451759D01*
X0623796Y0452757D02*
X0628750Y0452757D01*
X0628750Y0453756D02*
X0624222Y0453756D01*
X0624336Y0455753D02*
X0628750Y0455753D01*
X0628750Y0456751D02*
X0624046Y0456751D01*
X0623441Y0457750D02*
X0628750Y0457750D01*
X0628750Y0458748D02*
X0622326Y0458748D01*
X0620450Y0458748D02*
X0619550Y0458748D01*
X0619550Y0457750D02*
X0620450Y0457750D01*
X0620450Y0456751D02*
X0619550Y0456751D01*
X0619550Y0455753D02*
X0620450Y0455753D01*
X0620450Y0454754D02*
X0628750Y0454754D01*
X0628750Y0459747D02*
X0497799Y0459747D01*
X0496800Y0460745D02*
X0628750Y0460745D01*
X0628750Y0461744D02*
X0495802Y0461744D01*
X0495000Y0460000D02*
X0480000Y0460000D01*
X0481333Y0457750D02*
X0486810Y0457750D01*
X0486179Y0456751D02*
X0448586Y0456751D01*
X0448839Y0455753D02*
X0485800Y0455753D01*
X0485800Y0454754D02*
X0448692Y0454754D01*
X0448050Y0453756D02*
X0485969Y0453756D01*
X0486383Y0452757D02*
X0448050Y0452757D01*
X0448050Y0451759D02*
X0487301Y0451759D01*
X0492699Y0451759D02*
X0497301Y0451759D01*
X0496383Y0452757D02*
X0493617Y0452757D01*
X0494031Y0453756D02*
X0495969Y0453756D01*
X0495800Y0454754D02*
X0494200Y0454754D01*
X0494200Y0455753D02*
X0495800Y0455753D01*
X0495703Y0456751D02*
X0493821Y0456751D01*
X0493190Y0457750D02*
X0494705Y0457750D01*
X0495000Y0460000D02*
X0500000Y0455000D01*
X0503821Y0456751D02*
X0506179Y0456751D01*
X0506439Y0457379D02*
X0505800Y0455835D01*
X0505800Y0454165D01*
X0506439Y0452621D01*
X0507621Y0451439D01*
X0509165Y0450800D01*
X0510835Y0450800D01*
X0512379Y0451439D01*
X0513561Y0452621D01*
X0514200Y0454165D01*
X0514200Y0455835D01*
X0513561Y0457379D01*
X0512379Y0458561D01*
X0510835Y0459200D01*
X0509165Y0459200D01*
X0507621Y0458561D01*
X0506439Y0457379D01*
X0506810Y0457750D02*
X0503190Y0457750D01*
X0501926Y0458748D02*
X0508074Y0458748D01*
X0505800Y0455753D02*
X0504200Y0455753D01*
X0504200Y0454754D02*
X0505800Y0454754D01*
X0505969Y0453756D02*
X0504031Y0453756D01*
X0503617Y0452757D02*
X0506383Y0452757D01*
X0507301Y0451759D02*
X0502699Y0451759D01*
X0512699Y0451759D02*
X0517301Y0451759D01*
X0516383Y0452757D02*
X0513617Y0452757D01*
X0514031Y0453756D02*
X0515969Y0453756D01*
X0515800Y0454754D02*
X0514200Y0454754D01*
X0514200Y0455753D02*
X0515800Y0455753D01*
X0516179Y0456751D02*
X0513821Y0456751D01*
X0513190Y0457750D02*
X0516810Y0457750D01*
X0518074Y0458748D02*
X0511926Y0458748D01*
X0478667Y0457750D02*
X0447786Y0457750D01*
X0446781Y0468200D02*
X0443219Y0468200D01*
X0440700Y0470719D01*
X0440700Y0474281D01*
X0443219Y0476800D01*
X0446781Y0476800D01*
X0449300Y0474281D01*
X0449300Y0470719D01*
X0446781Y0468200D01*
X0447315Y0468734D02*
X0452685Y0468734D01*
X0453219Y0468200D02*
X0456781Y0468200D01*
X0459300Y0470719D01*
X0459300Y0474281D01*
X0456781Y0476800D01*
X0453219Y0476800D01*
X0450700Y0474281D01*
X0450700Y0470719D01*
X0453219Y0468200D01*
X0451687Y0469732D02*
X0448313Y0469732D01*
X0449300Y0470731D02*
X0450700Y0470731D01*
X0450700Y0471729D02*
X0449300Y0471729D01*
X0449300Y0472728D02*
X0450700Y0472728D01*
X0450700Y0473726D02*
X0449300Y0473726D01*
X0448856Y0474725D02*
X0451143Y0474725D01*
X0452142Y0475723D02*
X0447858Y0475723D01*
X0446859Y0476722D02*
X0453141Y0476722D01*
X0453219Y0478200D02*
X0456781Y0478200D01*
X0459300Y0480719D01*
X0459300Y0484281D01*
X0456781Y0486800D01*
X0453219Y0486800D01*
X0450700Y0484281D01*
X0450700Y0480719D01*
X0453219Y0478200D01*
X0452700Y0478719D02*
X0447300Y0478719D01*
X0446781Y0478200D02*
X0449300Y0480719D01*
X0449300Y0484281D01*
X0446781Y0486800D01*
X0443219Y0486800D01*
X0440700Y0484281D01*
X0440700Y0480719D01*
X0443219Y0478200D01*
X0446781Y0478200D01*
X0448298Y0479717D02*
X0451702Y0479717D01*
X0450703Y0480716D02*
X0449297Y0480716D01*
X0449300Y0481714D02*
X0450700Y0481714D01*
X0450700Y0482713D02*
X0449300Y0482713D01*
X0449300Y0483711D02*
X0450700Y0483711D01*
X0451129Y0484710D02*
X0448871Y0484710D01*
X0447873Y0485708D02*
X0452127Y0485708D01*
X0453126Y0486707D02*
X0446874Y0486707D01*
X0443126Y0486707D02*
X0436874Y0486707D01*
X0436781Y0486800D02*
X0433219Y0486800D01*
X0430700Y0484281D01*
X0430700Y0480719D01*
X0433219Y0478200D01*
X0436781Y0478200D01*
X0439300Y0480719D01*
X0439300Y0484281D01*
X0436781Y0486800D01*
X0437873Y0485708D02*
X0442127Y0485708D01*
X0441129Y0484710D02*
X0438871Y0484710D01*
X0439300Y0483711D02*
X0440700Y0483711D01*
X0440700Y0482713D02*
X0439300Y0482713D01*
X0439300Y0481714D02*
X0440700Y0481714D01*
X0440703Y0480716D02*
X0439297Y0480716D01*
X0438298Y0479717D02*
X0441702Y0479717D01*
X0442700Y0478719D02*
X0437300Y0478719D01*
X0436781Y0476800D02*
X0433219Y0476800D01*
X0430700Y0474281D01*
X0430700Y0470719D01*
X0433219Y0468200D01*
X0436781Y0468200D01*
X0439300Y0470719D01*
X0439300Y0474281D01*
X0436781Y0476800D01*
X0436859Y0476722D02*
X0443141Y0476722D01*
X0442142Y0475723D02*
X0437858Y0475723D01*
X0438856Y0474725D02*
X0441143Y0474725D01*
X0440700Y0473726D02*
X0439300Y0473726D01*
X0439300Y0472728D02*
X0440700Y0472728D01*
X0440700Y0471729D02*
X0439300Y0471729D01*
X0439300Y0470731D02*
X0440700Y0470731D01*
X0441687Y0469732D02*
X0438313Y0469732D01*
X0437315Y0468734D02*
X0442685Y0468734D01*
X0432685Y0468734D02*
X0427315Y0468734D01*
X0428313Y0469732D02*
X0431687Y0469732D01*
X0430700Y0470731D02*
X0429300Y0470731D01*
X0429300Y0471729D02*
X0430700Y0471729D01*
X0430700Y0472728D02*
X0429300Y0472728D01*
X0429300Y0473726D02*
X0430700Y0473726D01*
X0431143Y0474725D02*
X0428856Y0474725D01*
X0427858Y0475723D02*
X0432142Y0475723D01*
X0433141Y0476722D02*
X0426859Y0476722D01*
X0427300Y0478719D02*
X0432700Y0478719D01*
X0431702Y0479717D02*
X0428298Y0479717D01*
X0429297Y0480716D02*
X0430703Y0480716D01*
X0430700Y0481714D02*
X0429300Y0481714D01*
X0429300Y0482713D02*
X0430700Y0482713D01*
X0430700Y0483711D02*
X0429300Y0483711D01*
X0428871Y0484710D02*
X0431129Y0484710D01*
X0432127Y0485708D02*
X0427873Y0485708D01*
X0426874Y0486707D02*
X0433126Y0486707D01*
X0421687Y0469732D02*
X0379177Y0469732D01*
X0380176Y0468734D02*
X0382652Y0468734D01*
X0381654Y0467735D02*
X0380686Y0467735D01*
X0387348Y0468734D02*
X0422685Y0468734D01*
X0444450Y0448763D02*
X0387318Y0448763D01*
X0388316Y0447765D02*
X0444450Y0447765D01*
X0444450Y0446766D02*
X0389300Y0446766D01*
X0389300Y0445768D02*
X0444450Y0445768D01*
X0444450Y0444769D02*
X0389300Y0444769D01*
X0389300Y0443771D02*
X0444450Y0443771D01*
X0444450Y0442772D02*
X0388853Y0442772D01*
X0387855Y0441774D02*
X0444450Y0441774D01*
X0444450Y0440775D02*
X0386856Y0440775D01*
X0387303Y0438778D02*
X0446176Y0438778D01*
X0445178Y0439777D02*
X0381300Y0439777D01*
X0381300Y0440775D02*
X0383144Y0440775D01*
X0382145Y0441774D02*
X0381300Y0441774D01*
X0381300Y0438778D02*
X0382697Y0438778D01*
X0381699Y0437780D02*
X0381300Y0437780D01*
X0381300Y0431789D02*
X0382130Y0431789D01*
X0381300Y0430790D02*
X0383129Y0430790D01*
X0382712Y0428793D02*
X0381300Y0428793D01*
X0381300Y0427795D02*
X0381713Y0427795D01*
X0381300Y0429792D02*
X0455163Y0429792D01*
X0454164Y0430790D02*
X0386871Y0430790D01*
X0387870Y0431789D02*
X0453166Y0431789D01*
X0452167Y0432787D02*
X0388868Y0432787D01*
X0389300Y0433786D02*
X0451169Y0433786D01*
X0450170Y0434784D02*
X0389300Y0434784D01*
X0389300Y0435783D02*
X0449172Y0435783D01*
X0448173Y0436781D02*
X0389300Y0436781D01*
X0388301Y0437780D02*
X0447175Y0437780D01*
X0456161Y0428793D02*
X0387288Y0428793D01*
X0388287Y0427795D02*
X0457160Y0427795D01*
X0458158Y0426796D02*
X0389285Y0426796D01*
X0389300Y0425798D02*
X0459157Y0425798D01*
X0460155Y0424799D02*
X0389300Y0424799D01*
X0389300Y0423801D02*
X0461154Y0423801D01*
X0462152Y0422802D02*
X0388883Y0422802D01*
X0387885Y0421803D02*
X0463151Y0421803D01*
X0463661Y0420805D02*
X0386886Y0420805D01*
X0387273Y0418808D02*
X0465380Y0418808D01*
X0464046Y0419806D02*
X0381300Y0419806D01*
X0381300Y0418808D02*
X0382727Y0418808D01*
X0381728Y0417809D02*
X0381300Y0417809D01*
X0381300Y0420805D02*
X0383114Y0420805D01*
X0382115Y0421803D02*
X0381300Y0421803D01*
X0388272Y0417809D02*
X0628750Y0417809D01*
X0628750Y0416811D02*
X0389270Y0416811D01*
X0389300Y0415812D02*
X0628750Y0415812D01*
X0628750Y0414814D02*
X0389300Y0414814D01*
X0389300Y0413815D02*
X0628750Y0413815D01*
X0628750Y0412817D02*
X0388898Y0412817D01*
X0387899Y0411818D02*
X0628750Y0411818D01*
X0628750Y0410820D02*
X0386901Y0410820D01*
X0387258Y0408823D02*
X0463911Y0408823D01*
X0464158Y0409070D02*
X0463430Y0408342D01*
X0463036Y0407390D01*
X0463036Y0406360D01*
X0463430Y0405408D01*
X0464158Y0404680D01*
X0465110Y0404286D01*
X0465668Y0404286D01*
X0470700Y0399254D01*
X0470700Y0395719D01*
X0473219Y0393200D01*
X0476781Y0393200D01*
X0479300Y0395719D01*
X0479300Y0399281D01*
X0476781Y0401800D01*
X0473246Y0401800D01*
X0468214Y0406832D01*
X0468214Y0407390D01*
X0467820Y0408342D01*
X0467092Y0409070D01*
X0466140Y0409464D01*
X0465110Y0409464D01*
X0464158Y0409070D01*
X0463216Y0407824D02*
X0388257Y0407824D01*
X0389255Y0406826D02*
X0463036Y0406826D01*
X0463257Y0405827D02*
X0389300Y0405827D01*
X0389300Y0404829D02*
X0464010Y0404829D01*
X0466124Y0403830D02*
X0389300Y0403830D01*
X0388913Y0402832D02*
X0467123Y0402832D01*
X0466781Y0401800D02*
X0463219Y0401800D01*
X0460700Y0399281D01*
X0460700Y0395719D01*
X0463219Y0393200D01*
X0466781Y0393200D01*
X0469300Y0395719D01*
X0469300Y0399281D01*
X0466781Y0401800D01*
X0468121Y0401833D02*
X0387914Y0401833D01*
X0386916Y0400835D02*
X0452254Y0400835D01*
X0453219Y0401800D02*
X0450700Y0399281D01*
X0450700Y0395719D01*
X0453219Y0393200D01*
X0456781Y0393200D01*
X0459300Y0395719D01*
X0459300Y0399281D01*
X0456781Y0401800D01*
X0453219Y0401800D01*
X0451255Y0399836D02*
X0381300Y0399836D01*
X0381300Y0398838D02*
X0382757Y0398838D01*
X0381758Y0397839D02*
X0381300Y0397839D01*
X0381300Y0400835D02*
X0383084Y0400835D01*
X0382086Y0401833D02*
X0381300Y0401833D01*
X0381300Y0407824D02*
X0381743Y0407824D01*
X0381300Y0408823D02*
X0382742Y0408823D01*
X0381300Y0409821D02*
X0533839Y0409821D01*
X0533533Y0409695D02*
X0532805Y0408967D01*
X0532411Y0408015D01*
X0532411Y0406985D01*
X0532805Y0406033D01*
X0533533Y0405305D01*
X0534485Y0404911D01*
X0535043Y0404911D01*
X0540754Y0399200D01*
X0539165Y0399200D01*
X0537621Y0398561D01*
X0536439Y0397379D01*
X0535800Y0395835D01*
X0535800Y0394165D01*
X0536439Y0392621D01*
X0537621Y0391439D01*
X0539165Y0390800D01*
X0540835Y0390800D01*
X0542379Y0391439D01*
X0543561Y0392621D01*
X0544200Y0394165D01*
X0544200Y0395754D01*
X0545700Y0394254D01*
X0545807Y0394147D01*
X0546439Y0392621D01*
X0547621Y0391439D01*
X0549165Y0390800D01*
X0550835Y0390800D01*
X0552379Y0391439D01*
X0553561Y0392621D01*
X0554200Y0394165D01*
X0554200Y0395835D01*
X0553561Y0397379D01*
X0552379Y0398561D01*
X0550835Y0399200D01*
X0549165Y0399200D01*
X0547621Y0398561D01*
X0547053Y0397993D01*
X0537589Y0407457D01*
X0537589Y0408015D01*
X0537195Y0408967D01*
X0536467Y0409695D01*
X0535515Y0410089D01*
X0534485Y0410089D01*
X0533533Y0409695D01*
X0532746Y0408823D02*
X0467339Y0408823D01*
X0468034Y0407824D02*
X0532411Y0407824D01*
X0532477Y0406826D02*
X0468220Y0406826D01*
X0469218Y0405827D02*
X0533011Y0405827D01*
X0535126Y0404829D02*
X0470217Y0404829D01*
X0471215Y0403830D02*
X0536124Y0403830D01*
X0537123Y0402832D02*
X0472214Y0402832D01*
X0473212Y0401833D02*
X0538121Y0401833D01*
X0539120Y0400835D02*
X0477746Y0400835D01*
X0478745Y0399836D02*
X0540118Y0399836D01*
X0538290Y0398838D02*
X0531710Y0398838D01*
X0532379Y0398561D02*
X0530835Y0399200D01*
X0529165Y0399200D01*
X0527621Y0398561D01*
X0526439Y0397379D01*
X0525800Y0395835D01*
X0525800Y0394165D01*
X0526439Y0392621D01*
X0527621Y0391439D01*
X0529165Y0390800D01*
X0530835Y0390800D01*
X0532379Y0391439D01*
X0533561Y0392621D01*
X0534200Y0394165D01*
X0534200Y0395835D01*
X0533561Y0397379D01*
X0532379Y0398561D01*
X0533100Y0397839D02*
X0536900Y0397839D01*
X0536216Y0396841D02*
X0533784Y0396841D01*
X0534197Y0395842D02*
X0535803Y0395842D01*
X0535800Y0394844D02*
X0534200Y0394844D01*
X0534068Y0393845D02*
X0535932Y0393845D01*
X0536346Y0392847D02*
X0533654Y0392847D01*
X0532788Y0391848D02*
X0537212Y0391848D01*
X0539045Y0390850D02*
X0530955Y0390850D01*
X0529045Y0390850D02*
X0520955Y0390850D01*
X0520835Y0390800D02*
X0522379Y0391439D01*
X0523561Y0392621D01*
X0524200Y0394165D01*
X0524200Y0395835D01*
X0523561Y0397379D01*
X0522379Y0398561D01*
X0520835Y0399200D01*
X0519165Y0399200D01*
X0517621Y0398561D01*
X0516439Y0397379D01*
X0515800Y0395835D01*
X0515800Y0394165D01*
X0516439Y0392621D01*
X0517621Y0391439D01*
X0519165Y0390800D01*
X0520835Y0390800D01*
X0519045Y0390850D02*
X0510955Y0390850D01*
X0510835Y0390800D02*
X0512379Y0391439D01*
X0513561Y0392621D01*
X0514200Y0394165D01*
X0514200Y0395835D01*
X0513561Y0397379D01*
X0512379Y0398561D01*
X0510835Y0399200D01*
X0509165Y0399200D01*
X0507621Y0398561D01*
X0506439Y0397379D01*
X0505800Y0395835D01*
X0505800Y0394165D01*
X0506439Y0392621D01*
X0507621Y0391439D01*
X0509165Y0390800D01*
X0510835Y0390800D01*
X0509045Y0390850D02*
X0500955Y0390850D01*
X0500835Y0390800D02*
X0502379Y0391439D01*
X0503561Y0392621D01*
X0504200Y0394165D01*
X0504200Y0395835D01*
X0503561Y0397379D01*
X0502379Y0398561D01*
X0500835Y0399200D01*
X0499165Y0399200D01*
X0497621Y0398561D01*
X0496439Y0397379D01*
X0495800Y0395835D01*
X0495800Y0394165D01*
X0496439Y0392621D01*
X0497621Y0391439D01*
X0499165Y0390800D01*
X0500835Y0390800D01*
X0499045Y0390850D02*
X0490955Y0390850D01*
X0490835Y0390800D02*
X0492379Y0391439D01*
X0493561Y0392621D01*
X0494200Y0394165D01*
X0494200Y0395835D01*
X0493561Y0397379D01*
X0492379Y0398561D01*
X0490835Y0399200D01*
X0489165Y0399200D01*
X0487621Y0398561D01*
X0486439Y0397379D01*
X0485800Y0395835D01*
X0485800Y0394165D01*
X0486439Y0392621D01*
X0487621Y0391439D01*
X0489165Y0390800D01*
X0490835Y0390800D01*
X0489045Y0390850D02*
X0478014Y0390850D01*
X0477016Y0391848D02*
X0487212Y0391848D01*
X0486346Y0392847D02*
X0388928Y0392847D01*
X0389300Y0393845D02*
X0452574Y0393845D01*
X0451575Y0394844D02*
X0389300Y0394844D01*
X0389300Y0395842D02*
X0450700Y0395842D01*
X0450700Y0396841D02*
X0389240Y0396841D01*
X0388242Y0397839D02*
X0450700Y0397839D01*
X0450700Y0398838D02*
X0387243Y0398838D01*
X0387929Y0391848D02*
X0452984Y0391848D01*
X0453136Y0392000D02*
X0450500Y0389364D01*
X0450500Y0388000D01*
X0454500Y0388000D01*
X0454500Y0392000D01*
X0453136Y0392000D01*
X0454500Y0391848D02*
X0455500Y0391848D01*
X0455500Y0392000D02*
X0456864Y0392000D01*
X0459500Y0389364D01*
X0459500Y0388000D01*
X0455500Y0388000D01*
X0455500Y0387000D01*
X0459500Y0387000D01*
X0459500Y0385636D01*
X0456864Y0383000D01*
X0455500Y0383000D01*
X0455500Y0387000D01*
X0454500Y0387000D01*
X0454500Y0383000D01*
X0453136Y0383000D01*
X0450500Y0385636D01*
X0450500Y0387000D01*
X0454500Y0387000D01*
X0454500Y0388000D01*
X0455500Y0388000D01*
X0455500Y0392000D01*
X0455500Y0390850D02*
X0454500Y0390850D01*
X0454500Y0389851D02*
X0455500Y0389851D01*
X0455500Y0388853D02*
X0454500Y0388853D01*
X0454500Y0387854D02*
X0388227Y0387854D01*
X0389225Y0386856D02*
X0450500Y0386856D01*
X0450500Y0385857D02*
X0389300Y0385857D01*
X0389300Y0384859D02*
X0451277Y0384859D01*
X0452276Y0383860D02*
X0389300Y0383860D01*
X0388943Y0382862D02*
X0628750Y0382862D01*
X0628750Y0383860D02*
X0477724Y0383860D01*
X0476864Y0383000D02*
X0479500Y0385636D01*
X0479500Y0387000D01*
X0475500Y0387000D01*
X0475500Y0388000D01*
X0479500Y0388000D01*
X0479500Y0389364D01*
X0476864Y0392000D01*
X0475500Y0392000D01*
X0475500Y0388000D01*
X0474500Y0388000D01*
X0474500Y0392000D01*
X0473136Y0392000D01*
X0470500Y0389364D01*
X0470500Y0388000D01*
X0474500Y0388000D01*
X0474500Y0387000D01*
X0475500Y0387000D01*
X0475500Y0383000D01*
X0476864Y0383000D01*
X0475500Y0383860D02*
X0474500Y0383860D01*
X0474500Y0383000D02*
X0474500Y0387000D01*
X0470500Y0387000D01*
X0470500Y0385636D01*
X0473136Y0383000D01*
X0474500Y0383000D01*
X0474500Y0384859D02*
X0475500Y0384859D01*
X0475500Y0385857D02*
X0474500Y0385857D01*
X0474500Y0386856D02*
X0475500Y0386856D01*
X0475500Y0387854D02*
X0628750Y0387854D01*
X0628750Y0386856D02*
X0479500Y0386856D01*
X0479500Y0385857D02*
X0628750Y0385857D01*
X0628750Y0384859D02*
X0478723Y0384859D01*
X0479500Y0388853D02*
X0628750Y0388853D01*
X0628750Y0389851D02*
X0479013Y0389851D01*
X0475500Y0389851D02*
X0474500Y0389851D01*
X0474500Y0388853D02*
X0475500Y0388853D01*
X0474500Y0387854D02*
X0465500Y0387854D01*
X0465500Y0388000D02*
X0469500Y0388000D01*
X0469500Y0389364D01*
X0466864Y0392000D01*
X0465500Y0392000D01*
X0465500Y0388000D01*
X0465500Y0387000D01*
X0469500Y0387000D01*
X0469500Y0385636D01*
X0466864Y0383000D01*
X0465500Y0383000D01*
X0465500Y0387000D01*
X0464500Y0387000D01*
X0464500Y0383000D01*
X0463136Y0383000D01*
X0460500Y0385636D01*
X0460500Y0387000D01*
X0464500Y0387000D01*
X0464500Y0388000D01*
X0464500Y0392000D01*
X0463136Y0392000D01*
X0460500Y0389364D01*
X0460500Y0388000D01*
X0464500Y0388000D01*
X0465500Y0388000D01*
X0465500Y0388853D02*
X0464500Y0388853D01*
X0464500Y0389851D02*
X0465500Y0389851D01*
X0465500Y0390850D02*
X0464500Y0390850D01*
X0464500Y0391848D02*
X0465500Y0391848D01*
X0467016Y0391848D02*
X0472984Y0391848D01*
X0471986Y0390850D02*
X0468014Y0390850D01*
X0469013Y0389851D02*
X0470987Y0389851D01*
X0470500Y0388853D02*
X0469500Y0388853D01*
X0469500Y0386856D02*
X0470500Y0386856D01*
X0470500Y0385857D02*
X0469500Y0385857D01*
X0468723Y0384859D02*
X0471277Y0384859D01*
X0472276Y0383860D02*
X0467724Y0383860D01*
X0465500Y0383860D02*
X0464500Y0383860D01*
X0464500Y0384859D02*
X0465500Y0384859D01*
X0465500Y0385857D02*
X0464500Y0385857D01*
X0464500Y0386856D02*
X0465500Y0386856D01*
X0464500Y0387854D02*
X0455500Y0387854D01*
X0455500Y0386856D02*
X0454500Y0386856D01*
X0454500Y0385857D02*
X0455500Y0385857D01*
X0455500Y0384859D02*
X0454500Y0384859D01*
X0454500Y0383860D02*
X0455500Y0383860D01*
X0457724Y0383860D02*
X0462276Y0383860D01*
X0461277Y0384859D02*
X0458723Y0384859D01*
X0459500Y0385857D02*
X0460500Y0385857D01*
X0460500Y0386856D02*
X0459500Y0386856D01*
X0459500Y0388853D02*
X0460500Y0388853D01*
X0460987Y0389851D02*
X0459013Y0389851D01*
X0458014Y0390850D02*
X0461986Y0390850D01*
X0462984Y0391848D02*
X0457016Y0391848D01*
X0457426Y0393845D02*
X0462574Y0393845D01*
X0461575Y0394844D02*
X0458425Y0394844D01*
X0459300Y0395842D02*
X0460700Y0395842D01*
X0460700Y0396841D02*
X0459300Y0396841D01*
X0459300Y0397839D02*
X0460700Y0397839D01*
X0460700Y0398838D02*
X0459300Y0398838D01*
X0458745Y0399836D02*
X0461255Y0399836D01*
X0462254Y0400835D02*
X0457746Y0400835D01*
X0465625Y0406875D02*
X0475000Y0397500D01*
X0479300Y0397839D02*
X0486900Y0397839D01*
X0486216Y0396841D02*
X0479300Y0396841D01*
X0479300Y0395842D02*
X0485803Y0395842D01*
X0485800Y0394844D02*
X0478425Y0394844D01*
X0477426Y0393845D02*
X0485932Y0393845D01*
X0488290Y0398838D02*
X0479300Y0398838D01*
X0475500Y0391848D02*
X0474500Y0391848D01*
X0474500Y0390850D02*
X0475500Y0390850D01*
X0472574Y0393845D02*
X0467426Y0393845D01*
X0468425Y0394844D02*
X0471575Y0394844D01*
X0470700Y0395842D02*
X0469300Y0395842D01*
X0469300Y0396841D02*
X0470700Y0396841D01*
X0470700Y0397839D02*
X0469300Y0397839D01*
X0469300Y0398838D02*
X0470700Y0398838D01*
X0470118Y0399836D02*
X0468745Y0399836D01*
X0469120Y0400835D02*
X0467746Y0400835D01*
X0451986Y0390850D02*
X0386931Y0390850D01*
X0387228Y0388853D02*
X0450500Y0388853D01*
X0450987Y0389851D02*
X0381300Y0389851D01*
X0381300Y0388853D02*
X0382772Y0388853D01*
X0381773Y0387854D02*
X0381300Y0387854D01*
X0381300Y0390850D02*
X0383069Y0390850D01*
X0382071Y0391848D02*
X0381300Y0391848D01*
X0381300Y0381863D02*
X0382056Y0381863D01*
X0381300Y0380865D02*
X0383054Y0380865D01*
X0382786Y0378868D02*
X0381300Y0378868D01*
X0381300Y0379866D02*
X0628750Y0379866D01*
X0628750Y0378868D02*
X0612399Y0378868D01*
X0612936Y0378645D02*
X0611355Y0379300D01*
X0603645Y0379300D01*
X0602064Y0378645D01*
X0600855Y0377436D01*
X0600200Y0375855D01*
X0600200Y0374145D01*
X0600855Y0372564D01*
X0602064Y0371355D01*
X0603645Y0370700D01*
X0611355Y0370700D01*
X0612936Y0371355D01*
X0614145Y0372564D01*
X0614800Y0374145D01*
X0614800Y0375855D01*
X0614145Y0377436D01*
X0612936Y0378645D01*
X0613712Y0377869D02*
X0628750Y0377869D01*
X0628750Y0376870D02*
X0614380Y0376870D01*
X0614793Y0375872D02*
X0628750Y0375872D01*
X0628750Y0374873D02*
X0614800Y0374873D01*
X0614688Y0373875D02*
X0628750Y0373875D01*
X0628750Y0372876D02*
X0614275Y0372876D01*
X0613459Y0371878D02*
X0628750Y0371878D01*
X0628750Y0370879D02*
X0611788Y0370879D01*
X0612363Y0368882D02*
X0628750Y0368882D01*
X0628750Y0367884D02*
X0613697Y0367884D01*
X0614373Y0366885D02*
X0628750Y0366885D01*
X0628750Y0365887D02*
X0614787Y0365887D01*
X0614800Y0364888D02*
X0628750Y0364888D01*
X0628750Y0363890D02*
X0614694Y0363890D01*
X0614281Y0362891D02*
X0628750Y0362891D01*
X0628750Y0361893D02*
X0613474Y0361893D01*
X0611824Y0360894D02*
X0628750Y0360894D01*
X0628750Y0359896D02*
X0542231Y0359896D01*
X0541250Y0357500D02*
X0541250Y0348750D01*
X0543050Y0350909D02*
X0602617Y0350909D01*
X0601228Y0351908D02*
X0543050Y0351908D01*
X0543050Y0352906D02*
X0600516Y0352906D01*
X0607000Y0352906D02*
X0608000Y0352906D01*
X0608000Y0351908D02*
X0607000Y0351908D01*
X0607000Y0350909D02*
X0608000Y0350909D01*
X0608000Y0355500D02*
X0614977Y0355500D01*
X0614889Y0356054D01*
X0614670Y0356727D01*
X0614349Y0357359D01*
X0613932Y0357932D01*
X0613432Y0358432D01*
X0612859Y0358849D01*
X0612227Y0359170D01*
X0611554Y0359389D01*
X0610854Y0359500D01*
X0608000Y0359500D01*
X0608000Y0355500D01*
X0608000Y0355902D02*
X0607000Y0355902D01*
X0607000Y0356900D02*
X0608000Y0356900D01*
X0608000Y0357899D02*
X0607000Y0357899D01*
X0607000Y0358897D02*
X0608000Y0358897D01*
X0612763Y0358897D02*
X0628750Y0358897D01*
X0628750Y0357899D02*
X0613956Y0357899D01*
X0614582Y0356900D02*
X0628750Y0356900D01*
X0628750Y0355902D02*
X0614913Y0355902D01*
X0612292Y0348912D02*
X0628750Y0348912D01*
X0628750Y0347914D02*
X0613667Y0347914D01*
X0614361Y0346915D02*
X0628750Y0346915D01*
X0628750Y0345917D02*
X0614775Y0345917D01*
X0614800Y0344918D02*
X0628750Y0344918D01*
X0628750Y0343920D02*
X0614707Y0343920D01*
X0614293Y0342921D02*
X0628750Y0342921D01*
X0628750Y0341923D02*
X0613504Y0341923D01*
X0606858Y0330939D02*
X0586607Y0330939D01*
X0586800Y0329940D02*
X0606149Y0329940D01*
X0605736Y0328942D02*
X0586800Y0328942D01*
X0586800Y0327943D02*
X0605700Y0327943D01*
X0605700Y0326945D02*
X0586800Y0326945D01*
X0586800Y0325946D02*
X0605700Y0325946D01*
X0605281Y0324948D02*
X0586800Y0324948D01*
X0586800Y0323949D02*
X0604283Y0323949D01*
X0603284Y0322951D02*
X0586800Y0322951D01*
X0586800Y0321952D02*
X0602285Y0321952D01*
X0601287Y0320954D02*
X0586800Y0320954D01*
X0586800Y0319955D02*
X0600288Y0319955D01*
X0599290Y0318957D02*
X0586800Y0318957D01*
X0586800Y0317958D02*
X0598291Y0317958D01*
X0597293Y0316960D02*
X0586800Y0316960D01*
X0586800Y0315961D02*
X0596294Y0315961D01*
X0595296Y0314963D02*
X0586800Y0314963D01*
X0586800Y0313964D02*
X0594297Y0313964D01*
X0593299Y0312966D02*
X0586800Y0312966D01*
X0586800Y0311967D02*
X0592300Y0311967D01*
X0591302Y0310969D02*
X0586800Y0310969D01*
X0586800Y0309970D02*
X0590303Y0309970D01*
X0589305Y0308972D02*
X0586800Y0308972D01*
X0586800Y0307973D02*
X0588306Y0307973D01*
X0587308Y0306975D02*
X0586800Y0306975D01*
X0586800Y0305976D02*
X0586832Y0305976D01*
X0593646Y0303979D02*
X0606800Y0303979D01*
X0606800Y0303369D02*
X0608048Y0300355D01*
X0610355Y0298048D01*
X0613369Y0296800D01*
X0615373Y0296800D01*
X0616631Y0296800D01*
X0616631Y0296800D01*
X0619645Y0298048D01*
X0621952Y0300355D01*
X0623200Y0303369D01*
X0623200Y0306631D01*
X0621952Y0309645D01*
X0619645Y0311952D01*
X0616631Y0313200D01*
X0613369Y0313200D01*
X0610355Y0311952D01*
X0608048Y0309645D01*
X0608048Y0309645D01*
X0606800Y0306631D01*
X0606800Y0303369D01*
X0606961Y0302981D02*
X0593300Y0302981D01*
X0593300Y0301982D02*
X0607374Y0301982D01*
X0607788Y0300984D02*
X0593300Y0300984D01*
X0593300Y0299985D02*
X0608418Y0299985D01*
X0608048Y0300355D02*
X0608048Y0300355D01*
X0609417Y0298987D02*
X0593300Y0298987D01*
X0593300Y0297988D02*
X0610501Y0297988D01*
X0610355Y0298048D02*
X0610355Y0298048D01*
X0612911Y0296990D02*
X0593300Y0296990D01*
X0593300Y0295991D02*
X0628750Y0295991D01*
X0628750Y0294993D02*
X0593300Y0294993D01*
X0592896Y0293994D02*
X0628750Y0293994D01*
X0628750Y0292996D02*
X0592037Y0292996D01*
X0591039Y0291997D02*
X0628750Y0291997D01*
X0628750Y0296990D02*
X0617089Y0296990D01*
X0619499Y0297988D02*
X0628750Y0297988D01*
X0628750Y0298987D02*
X0620583Y0298987D01*
X0619645Y0298048D02*
X0619645Y0298048D01*
X0621582Y0299985D02*
X0628750Y0299985D01*
X0628750Y0300984D02*
X0622212Y0300984D01*
X0621952Y0300355D02*
X0621952Y0300355D01*
X0622626Y0301982D02*
X0628750Y0301982D01*
X0628750Y0302981D02*
X0623039Y0302981D01*
X0623200Y0303979D02*
X0628750Y0303979D01*
X0628750Y0304978D02*
X0623200Y0304978D01*
X0623200Y0305976D02*
X0628750Y0305976D01*
X0628750Y0306975D02*
X0623058Y0306975D01*
X0622644Y0307973D02*
X0628750Y0307973D01*
X0628750Y0308972D02*
X0622230Y0308972D01*
X0621952Y0309645D02*
X0621952Y0309645D01*
X0621626Y0309970D02*
X0628750Y0309970D01*
X0628750Y0310969D02*
X0620628Y0310969D01*
X0619645Y0311952D02*
X0619645Y0311952D01*
X0619607Y0311967D02*
X0628750Y0311967D01*
X0628750Y0312966D02*
X0617197Y0312966D01*
X0612803Y0312966D02*
X0602633Y0312966D01*
X0603631Y0313964D02*
X0628750Y0313964D01*
X0628750Y0314963D02*
X0604630Y0314963D01*
X0605628Y0315961D02*
X0628750Y0315961D01*
X0628750Y0316960D02*
X0606627Y0316960D01*
X0607625Y0317958D02*
X0608521Y0317958D01*
X0610393Y0311967D02*
X0601634Y0311967D01*
X0600636Y0310969D02*
X0609372Y0310969D01*
X0610355Y0311952D02*
X0610355Y0311952D01*
X0608374Y0309970D02*
X0599637Y0309970D01*
X0598639Y0308972D02*
X0607770Y0308972D01*
X0607356Y0307973D02*
X0597640Y0307973D01*
X0596642Y0306975D02*
X0606942Y0306975D01*
X0606800Y0305976D02*
X0595643Y0305976D01*
X0594645Y0304978D02*
X0606800Y0304978D01*
X0601526Y0361893D02*
X0387974Y0361893D01*
X0388972Y0362891D02*
X0600719Y0362891D01*
X0600306Y0363890D02*
X0389300Y0363890D01*
X0389300Y0364888D02*
X0600200Y0364888D01*
X0600213Y0365887D02*
X0389300Y0365887D01*
X0389196Y0366885D02*
X0600627Y0366885D01*
X0601303Y0367884D02*
X0388197Y0367884D01*
X0387199Y0368882D02*
X0602637Y0368882D01*
X0603212Y0370879D02*
X0386961Y0370879D01*
X0387959Y0371878D02*
X0601541Y0371878D01*
X0600725Y0372876D02*
X0388958Y0372876D01*
X0389300Y0373875D02*
X0600312Y0373875D01*
X0600200Y0374873D02*
X0389300Y0374873D01*
X0389300Y0375872D02*
X0600207Y0375872D01*
X0600620Y0376870D02*
X0389211Y0376870D01*
X0388212Y0377869D02*
X0601288Y0377869D01*
X0602601Y0378868D02*
X0387214Y0378868D01*
X0386946Y0380865D02*
X0628750Y0380865D01*
X0628750Y0381863D02*
X0387944Y0381863D01*
X0381788Y0377869D02*
X0381300Y0377869D01*
X0381300Y0371878D02*
X0382041Y0371878D01*
X0381300Y0370879D02*
X0383039Y0370879D01*
X0381300Y0369881D02*
X0628750Y0369881D01*
X0628750Y0390850D02*
X0620955Y0390850D01*
X0620835Y0390800D02*
X0622379Y0391439D01*
X0623561Y0392621D01*
X0624200Y0394165D01*
X0624200Y0395835D01*
X0623561Y0397379D01*
X0622379Y0398561D01*
X0620835Y0399200D01*
X0619165Y0399200D01*
X0617621Y0398561D01*
X0616439Y0397379D01*
X0615800Y0395835D01*
X0615800Y0394165D01*
X0616439Y0392621D01*
X0617621Y0391439D01*
X0619165Y0390800D01*
X0620835Y0390800D01*
X0619045Y0390850D02*
X0610955Y0390850D01*
X0610835Y0390800D02*
X0612379Y0391439D01*
X0613561Y0392621D01*
X0614200Y0394165D01*
X0614200Y0395835D01*
X0613561Y0397379D01*
X0612379Y0398561D01*
X0610835Y0399200D01*
X0609165Y0399200D01*
X0607621Y0398561D01*
X0606439Y0397379D01*
X0605800Y0395835D01*
X0605800Y0394165D01*
X0606439Y0392621D01*
X0607621Y0391439D01*
X0609165Y0390800D01*
X0610835Y0390800D01*
X0609045Y0390850D02*
X0600955Y0390850D01*
X0600835Y0390800D02*
X0602379Y0391439D01*
X0603561Y0392621D01*
X0604200Y0394165D01*
X0604200Y0395835D01*
X0603561Y0397379D01*
X0602379Y0398561D01*
X0600835Y0399200D01*
X0599165Y0399200D01*
X0597621Y0398561D01*
X0596439Y0397379D01*
X0595800Y0395835D01*
X0595800Y0394165D01*
X0596439Y0392621D01*
X0597621Y0391439D01*
X0599165Y0390800D01*
X0600835Y0390800D01*
X0599045Y0390850D02*
X0590955Y0390850D01*
X0590835Y0390800D02*
X0592379Y0391439D01*
X0593561Y0392621D01*
X0594200Y0394165D01*
X0594200Y0395835D01*
X0593561Y0397379D01*
X0592379Y0398561D01*
X0590835Y0399200D01*
X0589165Y0399200D01*
X0587621Y0398561D01*
X0586439Y0397379D01*
X0585800Y0395835D01*
X0585800Y0394165D01*
X0586439Y0392621D01*
X0587621Y0391439D01*
X0589165Y0390800D01*
X0590835Y0390800D01*
X0589045Y0390850D02*
X0580955Y0390850D01*
X0580835Y0390800D02*
X0582379Y0391439D01*
X0583561Y0392621D01*
X0584200Y0394165D01*
X0584200Y0395835D01*
X0583561Y0397379D01*
X0582379Y0398561D01*
X0580835Y0399200D01*
X0579165Y0399200D01*
X0577621Y0398561D01*
X0576439Y0397379D01*
X0575800Y0395835D01*
X0575800Y0394165D01*
X0576439Y0392621D01*
X0577621Y0391439D01*
X0579165Y0390800D01*
X0580835Y0390800D01*
X0579045Y0390850D02*
X0570955Y0390850D01*
X0570835Y0390800D02*
X0572379Y0391439D01*
X0573561Y0392621D01*
X0574200Y0394165D01*
X0574200Y0395835D01*
X0573561Y0397379D01*
X0572379Y0398561D01*
X0570835Y0399200D01*
X0569165Y0399200D01*
X0567621Y0398561D01*
X0566439Y0397379D01*
X0565800Y0395835D01*
X0565800Y0394165D01*
X0566439Y0392621D01*
X0567621Y0391439D01*
X0569165Y0390800D01*
X0570835Y0390800D01*
X0569045Y0390850D02*
X0560955Y0390850D01*
X0560835Y0390800D02*
X0562379Y0391439D01*
X0563561Y0392621D01*
X0564200Y0394165D01*
X0564200Y0395835D01*
X0563561Y0397379D01*
X0562379Y0398561D01*
X0560835Y0399200D01*
X0559165Y0399200D01*
X0557621Y0398561D01*
X0556439Y0397379D01*
X0555800Y0395835D01*
X0555800Y0394165D01*
X0556439Y0392621D01*
X0557621Y0391439D01*
X0559165Y0390800D01*
X0560835Y0390800D01*
X0559045Y0390850D02*
X0550955Y0390850D01*
X0549045Y0390850D02*
X0540955Y0390850D01*
X0542788Y0391848D02*
X0547212Y0391848D01*
X0546346Y0392847D02*
X0543654Y0392847D01*
X0544068Y0393845D02*
X0545932Y0393845D01*
X0545111Y0394844D02*
X0544200Y0394844D01*
X0547500Y0395000D02*
X0550000Y0395000D01*
X0547500Y0395000D02*
X0535000Y0407500D01*
X0536161Y0409821D02*
X0628750Y0409821D01*
X0628750Y0408823D02*
X0537254Y0408823D01*
X0537589Y0407824D02*
X0628750Y0407824D01*
X0628750Y0406826D02*
X0538220Y0406826D01*
X0539218Y0405827D02*
X0628750Y0405827D01*
X0628750Y0404829D02*
X0540217Y0404829D01*
X0541215Y0403830D02*
X0628750Y0403830D01*
X0628750Y0402832D02*
X0542214Y0402832D01*
X0543212Y0401833D02*
X0628750Y0401833D01*
X0628750Y0400835D02*
X0544211Y0400835D01*
X0545209Y0399836D02*
X0628750Y0399836D01*
X0628750Y0398838D02*
X0621710Y0398838D01*
X0623100Y0397839D02*
X0628750Y0397839D01*
X0628750Y0396841D02*
X0623784Y0396841D01*
X0624197Y0395842D02*
X0628750Y0395842D01*
X0628750Y0394844D02*
X0624200Y0394844D01*
X0624068Y0393845D02*
X0628750Y0393845D01*
X0628750Y0392847D02*
X0623654Y0392847D01*
X0622788Y0391848D02*
X0628750Y0391848D01*
X0617212Y0391848D02*
X0612788Y0391848D01*
X0613654Y0392847D02*
X0616346Y0392847D01*
X0615932Y0393845D02*
X0614068Y0393845D01*
X0614200Y0394844D02*
X0615800Y0394844D01*
X0615803Y0395842D02*
X0614197Y0395842D01*
X0613784Y0396841D02*
X0616216Y0396841D01*
X0616900Y0397839D02*
X0613100Y0397839D01*
X0611710Y0398838D02*
X0618290Y0398838D01*
X0608290Y0398838D02*
X0601710Y0398838D01*
X0603100Y0397839D02*
X0606900Y0397839D01*
X0606216Y0396841D02*
X0603784Y0396841D01*
X0604197Y0395842D02*
X0605803Y0395842D01*
X0605800Y0394844D02*
X0604200Y0394844D01*
X0604068Y0393845D02*
X0605932Y0393845D01*
X0606346Y0392847D02*
X0603654Y0392847D01*
X0602788Y0391848D02*
X0607212Y0391848D01*
X0597212Y0391848D02*
X0592788Y0391848D01*
X0593654Y0392847D02*
X0596346Y0392847D01*
X0595932Y0393845D02*
X0594068Y0393845D01*
X0594200Y0394844D02*
X0595800Y0394844D01*
X0595803Y0395842D02*
X0594197Y0395842D01*
X0593784Y0396841D02*
X0596216Y0396841D01*
X0596900Y0397839D02*
X0593100Y0397839D01*
X0591710Y0398838D02*
X0598290Y0398838D01*
X0588290Y0398838D02*
X0581710Y0398838D01*
X0583100Y0397839D02*
X0586900Y0397839D01*
X0586216Y0396841D02*
X0583784Y0396841D01*
X0584197Y0395842D02*
X0585803Y0395842D01*
X0585800Y0394844D02*
X0584200Y0394844D01*
X0584068Y0393845D02*
X0585932Y0393845D01*
X0586346Y0392847D02*
X0583654Y0392847D01*
X0582788Y0391848D02*
X0587212Y0391848D01*
X0577212Y0391848D02*
X0572788Y0391848D01*
X0573654Y0392847D02*
X0576346Y0392847D01*
X0575932Y0393845D02*
X0574068Y0393845D01*
X0574200Y0394844D02*
X0575800Y0394844D01*
X0575803Y0395842D02*
X0574197Y0395842D01*
X0573784Y0396841D02*
X0576216Y0396841D01*
X0576900Y0397839D02*
X0573100Y0397839D01*
X0571710Y0398838D02*
X0578290Y0398838D01*
X0568290Y0398838D02*
X0561710Y0398838D01*
X0563100Y0397839D02*
X0566900Y0397839D01*
X0566216Y0396841D02*
X0563784Y0396841D01*
X0564197Y0395842D02*
X0565803Y0395842D01*
X0565800Y0394844D02*
X0564200Y0394844D01*
X0564068Y0393845D02*
X0565932Y0393845D01*
X0566346Y0392847D02*
X0563654Y0392847D01*
X0562788Y0391848D02*
X0567212Y0391848D01*
X0557212Y0391848D02*
X0552788Y0391848D01*
X0553654Y0392847D02*
X0556346Y0392847D01*
X0555932Y0393845D02*
X0554068Y0393845D01*
X0554200Y0394844D02*
X0555800Y0394844D01*
X0555803Y0395842D02*
X0554197Y0395842D01*
X0553784Y0396841D02*
X0556216Y0396841D01*
X0556900Y0397839D02*
X0553100Y0397839D01*
X0551710Y0398838D02*
X0558290Y0398838D01*
X0548290Y0398838D02*
X0546208Y0398838D01*
X0528290Y0398838D02*
X0521710Y0398838D01*
X0523100Y0397839D02*
X0526900Y0397839D01*
X0526216Y0396841D02*
X0523784Y0396841D01*
X0524197Y0395842D02*
X0525803Y0395842D01*
X0525800Y0394844D02*
X0524200Y0394844D01*
X0524068Y0393845D02*
X0525932Y0393845D01*
X0526346Y0392847D02*
X0523654Y0392847D01*
X0522788Y0391848D02*
X0527212Y0391848D01*
X0517212Y0391848D02*
X0512788Y0391848D01*
X0513654Y0392847D02*
X0516346Y0392847D01*
X0515932Y0393845D02*
X0514068Y0393845D01*
X0514200Y0394844D02*
X0515800Y0394844D01*
X0515803Y0395842D02*
X0514197Y0395842D01*
X0513784Y0396841D02*
X0516216Y0396841D01*
X0516900Y0397839D02*
X0513100Y0397839D01*
X0511710Y0398838D02*
X0518290Y0398838D01*
X0508290Y0398838D02*
X0501710Y0398838D01*
X0503100Y0397839D02*
X0506900Y0397839D01*
X0506216Y0396841D02*
X0503784Y0396841D01*
X0504197Y0395842D02*
X0505803Y0395842D01*
X0505800Y0394844D02*
X0504200Y0394844D01*
X0504068Y0393845D02*
X0505932Y0393845D01*
X0506346Y0392847D02*
X0503654Y0392847D01*
X0502788Y0391848D02*
X0507212Y0391848D01*
X0497212Y0391848D02*
X0492788Y0391848D01*
X0493654Y0392847D02*
X0496346Y0392847D01*
X0495932Y0393845D02*
X0494068Y0393845D01*
X0494200Y0394844D02*
X0495800Y0394844D01*
X0495803Y0395842D02*
X0494197Y0395842D01*
X0493784Y0396841D02*
X0496216Y0396841D01*
X0496900Y0397839D02*
X0493100Y0397839D01*
X0491710Y0398838D02*
X0498290Y0398838D01*
X0581926Y0458748D02*
X0588074Y0458748D01*
X0587621Y0458561D02*
X0586439Y0457379D01*
X0585800Y0455835D01*
X0585800Y0454165D01*
X0586439Y0452621D01*
X0587621Y0451439D01*
X0589165Y0450800D01*
X0590835Y0450800D01*
X0592379Y0451439D01*
X0593561Y0452621D01*
X0594200Y0454165D01*
X0594200Y0455835D01*
X0593561Y0457379D01*
X0592379Y0458561D01*
X0590835Y0459200D01*
X0589165Y0459200D01*
X0587621Y0458561D01*
X0586810Y0457750D02*
X0583190Y0457750D01*
X0583821Y0456751D02*
X0586179Y0456751D01*
X0585800Y0455753D02*
X0584200Y0455753D01*
X0584200Y0454754D02*
X0585800Y0454754D01*
X0585969Y0453756D02*
X0584031Y0453756D01*
X0583617Y0452757D02*
X0586383Y0452757D01*
X0587301Y0451759D02*
X0582699Y0451759D01*
X0592699Y0451759D02*
X0597301Y0451759D01*
X0597621Y0451439D02*
X0599165Y0450800D01*
X0600835Y0450800D01*
X0602379Y0451439D01*
X0603561Y0452621D01*
X0604200Y0454165D01*
X0604200Y0455835D01*
X0603561Y0457379D01*
X0602379Y0458561D01*
X0600835Y0459200D01*
X0599165Y0459200D01*
X0597621Y0458561D01*
X0596439Y0457379D01*
X0595800Y0455835D01*
X0595800Y0454165D01*
X0596439Y0452621D01*
X0597621Y0451439D01*
X0596383Y0452757D02*
X0593617Y0452757D01*
X0594031Y0453756D02*
X0595969Y0453756D01*
X0595800Y0454754D02*
X0594200Y0454754D01*
X0594200Y0455753D02*
X0595800Y0455753D01*
X0596179Y0456751D02*
X0593821Y0456751D01*
X0593190Y0457750D02*
X0596810Y0457750D01*
X0598074Y0458748D02*
X0591926Y0458748D01*
X0591864Y0468000D02*
X0594500Y0470636D01*
X0594500Y0472000D01*
X0590500Y0472000D01*
X0590500Y0468000D01*
X0591864Y0468000D01*
X0592597Y0468734D02*
X0609670Y0468734D01*
X0610355Y0468048D02*
X0610355Y0468048D01*
X0611112Y0467735D02*
X0388346Y0467735D01*
X0365500Y0467735D02*
X0364500Y0467735D01*
X0364500Y0466737D02*
X0365500Y0466737D01*
X0365500Y0465738D02*
X0364500Y0465738D01*
X0364500Y0468734D02*
X0365500Y0468734D01*
X0362370Y0468734D02*
X0350330Y0468734D01*
X0349645Y0468048D02*
X0349645Y0468048D01*
X0348888Y0467735D02*
X0361371Y0467735D01*
X0381300Y0411818D02*
X0382101Y0411818D01*
X0381300Y0410820D02*
X0383099Y0410820D01*
X0382801Y0368882D02*
X0381300Y0368882D01*
X0381300Y0367884D02*
X0381803Y0367884D01*
X0382026Y0361893D02*
X0381300Y0361893D01*
X0381300Y0360894D02*
X0383025Y0360894D01*
X0457315Y0468734D02*
X0462685Y0468734D01*
X0463219Y0468200D02*
X0466781Y0468200D01*
X0469300Y0470719D01*
X0469300Y0474281D01*
X0466781Y0476800D01*
X0463219Y0476800D01*
X0460700Y0474281D01*
X0460700Y0470719D01*
X0463219Y0468200D01*
X0461687Y0469732D02*
X0458313Y0469732D01*
X0459300Y0470731D02*
X0460700Y0470731D01*
X0460700Y0471729D02*
X0459300Y0471729D01*
X0459300Y0472728D02*
X0460700Y0472728D01*
X0460700Y0473726D02*
X0459300Y0473726D01*
X0458856Y0474725D02*
X0461143Y0474725D01*
X0462142Y0475723D02*
X0457858Y0475723D01*
X0456859Y0476722D02*
X0463141Y0476722D01*
X0463219Y0478200D02*
X0466781Y0478200D01*
X0469300Y0480719D01*
X0469300Y0484281D01*
X0466781Y0486800D01*
X0463219Y0486800D01*
X0460700Y0484281D01*
X0460700Y0480719D01*
X0463219Y0478200D01*
X0462700Y0478719D02*
X0457300Y0478719D01*
X0458298Y0479717D02*
X0461702Y0479717D01*
X0460703Y0480716D02*
X0459297Y0480716D01*
X0459300Y0481714D02*
X0460700Y0481714D01*
X0460700Y0482713D02*
X0459300Y0482713D01*
X0459300Y0483711D02*
X0460700Y0483711D01*
X0461129Y0484710D02*
X0458871Y0484710D01*
X0457873Y0485708D02*
X0462127Y0485708D01*
X0463126Y0486707D02*
X0456874Y0486707D01*
X0466874Y0486707D02*
X0473126Y0486707D01*
X0472127Y0485708D02*
X0467873Y0485708D01*
X0468871Y0484710D02*
X0471129Y0484710D01*
X0470700Y0483711D02*
X0469300Y0483711D01*
X0469300Y0482713D02*
X0470700Y0482713D01*
X0470700Y0481714D02*
X0469300Y0481714D01*
X0469297Y0480716D02*
X0470703Y0480716D01*
X0471702Y0479717D02*
X0468298Y0479717D01*
X0467300Y0478719D02*
X0472700Y0478719D01*
X0473141Y0476722D02*
X0466859Y0476722D01*
X0467858Y0475723D02*
X0472142Y0475723D01*
X0471143Y0474725D02*
X0468856Y0474725D01*
X0469300Y0473726D02*
X0470700Y0473726D01*
X0470700Y0472728D02*
X0469300Y0472728D01*
X0469300Y0471729D02*
X0470700Y0471729D01*
X0470700Y0470731D02*
X0469300Y0470731D01*
X0468313Y0469732D02*
X0471687Y0469732D01*
X0472685Y0468734D02*
X0467315Y0468734D01*
X0562315Y0468734D02*
X0567685Y0468734D01*
X0566687Y0469732D02*
X0563313Y0469732D01*
X0564300Y0470731D02*
X0565700Y0470731D01*
X0565700Y0471729D02*
X0564300Y0471729D01*
X0564300Y0472728D02*
X0565700Y0472728D01*
X0565700Y0473726D02*
X0564300Y0473726D01*
X0563856Y0474725D02*
X0566143Y0474725D01*
X0567142Y0475723D02*
X0562900Y0475723D01*
X0562900Y0476722D02*
X0567900Y0476722D01*
X0567900Y0477720D02*
X0562900Y0477720D01*
X0562900Y0478719D02*
X0567700Y0478719D01*
X0566702Y0479717D02*
X0563298Y0479717D01*
X0564297Y0480716D02*
X0565703Y0480716D01*
X0565700Y0481714D02*
X0564300Y0481714D01*
X0564300Y0482713D02*
X0565700Y0482713D01*
X0565700Y0483711D02*
X0564300Y0483711D01*
X0563871Y0484710D02*
X0566129Y0484710D01*
X0567127Y0485708D02*
X0562873Y0485708D01*
X0561874Y0486707D02*
X0568126Y0486707D01*
X0582858Y0475723D02*
X0586859Y0475723D01*
X0585861Y0474725D02*
X0583856Y0474725D01*
X0584300Y0473726D02*
X0585500Y0473726D01*
X0584300Y0472728D02*
X0589500Y0472728D01*
X0589500Y0472000D02*
X0585500Y0472000D01*
X0585500Y0470636D01*
X0588136Y0468000D01*
X0589500Y0468000D01*
X0589500Y0472000D01*
X0589500Y0471729D02*
X0590500Y0471729D01*
X0590500Y0470731D02*
X0589500Y0470731D01*
X0589500Y0469732D02*
X0590500Y0469732D01*
X0590500Y0468734D02*
X0589500Y0468734D01*
X0587403Y0468734D02*
X0582315Y0468734D01*
X0583313Y0469732D02*
X0586404Y0469732D01*
X0585500Y0470731D02*
X0584300Y0470731D01*
X0584300Y0471729D02*
X0585500Y0471729D01*
X0589500Y0478719D02*
X0590500Y0478719D01*
X0590500Y0479717D02*
X0589500Y0479717D01*
X0589500Y0480716D02*
X0590500Y0480716D01*
X0590500Y0481714D02*
X0589500Y0481714D01*
X0590500Y0482713D02*
X0612192Y0482713D01*
X0610355Y0481952D02*
X0610355Y0481952D01*
X0594154Y0484710D02*
X0628750Y0484710D01*
X0628750Y0485708D02*
X0593156Y0485708D01*
X0592157Y0486707D02*
X0628750Y0486707D01*
X0607479Y0471729D02*
X0594500Y0471729D01*
X0594500Y0470731D02*
X0607893Y0470731D01*
X0608048Y0470355D02*
X0608048Y0470355D01*
X0608671Y0469732D02*
X0593596Y0469732D01*
X0601926Y0458748D02*
X0608074Y0458748D01*
X0607621Y0458561D02*
X0606439Y0457379D01*
X0605800Y0455835D01*
X0605800Y0454165D01*
X0606439Y0452621D01*
X0607621Y0451439D01*
X0609165Y0450800D01*
X0610835Y0450800D01*
X0612379Y0451439D01*
X0613561Y0452621D01*
X0614200Y0454165D01*
X0614200Y0455835D01*
X0613561Y0457379D01*
X0612379Y0458561D01*
X0610835Y0459200D01*
X0609165Y0459200D01*
X0607621Y0458561D01*
X0606810Y0457750D02*
X0603190Y0457750D01*
X0603821Y0456751D02*
X0606179Y0456751D01*
X0605800Y0455753D02*
X0604200Y0455753D01*
X0604200Y0454754D02*
X0605800Y0454754D01*
X0605969Y0453756D02*
X0604031Y0453756D01*
X0603617Y0452757D02*
X0606383Y0452757D01*
X0607301Y0451759D02*
X0602699Y0451759D01*
X0612699Y0451759D02*
X0617019Y0451759D01*
X0616204Y0452757D02*
X0613617Y0452757D01*
X0614031Y0453756D02*
X0615778Y0453756D01*
X0614200Y0454754D02*
X0619550Y0454754D01*
X0619550Y0453756D02*
X0620450Y0453756D01*
X0620450Y0452757D02*
X0619550Y0452757D01*
X0619550Y0451759D02*
X0620450Y0451759D01*
X0615664Y0455753D02*
X0614200Y0455753D01*
X0613821Y0456751D02*
X0615954Y0456751D01*
X0616559Y0457750D02*
X0613190Y0457750D01*
X0611926Y0458748D02*
X0617674Y0458748D01*
D18*
X0610000Y0440000D03*
X0580000Y0421875D03*
X0608750Y0403125D03*
X0535000Y0407500D03*
X0515000Y0425000D03*
X0505000Y0400000D03*
X0465625Y0406875D03*
X0466250Y0421250D03*
X0450000Y0425000D03*
X0446250Y0455625D03*
X0480000Y0460000D03*
X0485000Y0470000D03*
X0405000Y0420000D03*
X0400000Y0425000D03*
X0395000Y0430000D03*
X0541250Y0357500D03*
X0541250Y0348750D03*
D19*
X0485625Y0312500D02*
X0485625Y0295625D01*
X0488125Y0293125D01*
X0587500Y0293125D01*
X0590000Y0295625D01*
X0590000Y0305000D01*
X0610000Y0325000D01*
X0485625Y0312500D02*
X0483125Y0315000D01*
X0470000Y0315000D01*
X0461750Y0323250D01*
X0461107Y0323893D01*
D20*
X0375000Y0355000D02*
X0375000Y0365000D01*
X0375000Y0375000D01*
X0375000Y0385000D01*
X0375000Y0395000D01*
X0375000Y0405000D01*
X0375000Y0415000D01*
X0375000Y0425000D01*
X0375000Y0435000D01*
X0375000Y0445000D01*
X0375000Y0455000D01*
X0375000Y0465000D01*
D21*
X0492500Y0445000D02*
X0555000Y0445000D01*
X0560000Y0472500D02*
X0560000Y0473750D01*
X0560000Y0477500D01*
X0560000Y0481250D01*
X0560000Y0482500D01*
D22*
X0570000Y0482500D02*
X0570000Y0472500D01*
X0580000Y0472500D02*
X0580000Y0482500D01*
D23*
X0560000Y0481250D02*
X0556250Y0477500D01*
X0560000Y0473750D01*
X0560000Y0477500D02*
X0555000Y0477500D01*
X0556250Y0477500D01*
X0555000Y0477500D01*
X0511250Y0477500D01*
X0506250Y0472500D01*
X0505000Y0472500D01*
M02*
