%
M48
M72
T01C0.02400
T02C0.03800
T03C0.04000
T04C0.04400
T05C0.13000
%
T01
X148500Y101700
T02
X320000Y85000
X310000Y85000
X300000Y85000
X290000Y85000
X280000Y85000
X270000Y85000
X260000Y85000
X250000Y85000
X240000Y85000
X230000Y85000
X220000Y85000
X210000Y85000
X200000Y85000
X190000Y85000
X190000Y75000
X190000Y65000
X190000Y55000
X190000Y45000
X190000Y35000
X190000Y25000
X200000Y25000
X210000Y25000
X220000Y25000
X230000Y25000
X240000Y25000
X250000Y25000
X260000Y25000
X270000Y25000
X280000Y25000
X290000Y25000
X300000Y25000
X310000Y25000
X320000Y25000
T03
X105000Y20000
X105000Y30000
X105000Y40000
X105000Y50000
X105000Y60000
X320000Y255000
X310000Y255000
X300000Y255000
X290000Y255000
X185000Y255000
X195000Y255000
X205000Y255000
X240000Y255000
X250000Y255000
X260000Y255000
X30000Y255000
X40000Y255000
X50000Y255000
X110000Y255000
X120000Y255000
X130000Y255000
T04
X25000Y215000
X65000Y215000
X105000Y215000
X145000Y215000
X60000Y160000
X50000Y160000
X40000Y160000
X135000Y160000
X125000Y160000
X115000Y160000
X209000Y170000
X200000Y170000
X191000Y170000
X264000Y170000
X255000Y170000
X246000Y170000
T05
X50000Y91000
X125000Y91000
X200000Y130000
X255000Y130000
M30
