G75*
%MOIN*%
%OFA0B0*%
%FSLAX25Y25*%
%IPPOS*%
%LPD*%
%AMOC8*
5,1,8,0,0,1.08239X$1,22.5*
%
%ADD10C,0.00000*%
%ADD11C,0.00200*%
%ADD12C,0.01600*%
%ADD13C,0.00600*%
%ADD14C,0.00800*%
%ADD15C,0.00500*%
%ADD16R,0.02000X0.10000*%
%ADD17R,0.07500X0.03000*%
%ADD18C,0.00100*%
%ADD19C,0.00400*%
%ADD20R,0.03000X0.02500*%
%ADD21R,0.05000X0.11000*%
%ADD22C,0.03400*%
%ADD23R,0.05000X0.07000*%
%ADD24R,0.03000X0.08500*%
D10*
X0003099Y0001839D02*
X0261800Y0001839D01*
X0261800Y0261800D01*
X0003099Y0261800D01*
X0003099Y0001839D01*
X0025300Y0106800D02*
X0025302Y0106961D01*
X0025308Y0107121D01*
X0025318Y0107282D01*
X0025332Y0107442D01*
X0025350Y0107602D01*
X0025371Y0107761D01*
X0025397Y0107920D01*
X0025427Y0108078D01*
X0025460Y0108235D01*
X0025498Y0108392D01*
X0025539Y0108547D01*
X0025584Y0108701D01*
X0025633Y0108854D01*
X0025686Y0109006D01*
X0025742Y0109157D01*
X0025803Y0109306D01*
X0025866Y0109454D01*
X0025934Y0109600D01*
X0026005Y0109744D01*
X0026079Y0109886D01*
X0026157Y0110027D01*
X0026239Y0110165D01*
X0026324Y0110302D01*
X0026412Y0110436D01*
X0026504Y0110568D01*
X0026599Y0110698D01*
X0026697Y0110826D01*
X0026798Y0110951D01*
X0026902Y0111073D01*
X0027009Y0111193D01*
X0027119Y0111310D01*
X0027232Y0111425D01*
X0027348Y0111536D01*
X0027467Y0111645D01*
X0027588Y0111750D01*
X0027712Y0111853D01*
X0027838Y0111953D01*
X0027966Y0112049D01*
X0028097Y0112142D01*
X0028231Y0112232D01*
X0028366Y0112319D01*
X0028504Y0112402D01*
X0028643Y0112482D01*
X0028785Y0112558D01*
X0028928Y0112631D01*
X0029073Y0112700D01*
X0029220Y0112766D01*
X0029368Y0112828D01*
X0029518Y0112886D01*
X0029669Y0112941D01*
X0029822Y0112992D01*
X0029976Y0113039D01*
X0030131Y0113082D01*
X0030287Y0113121D01*
X0030443Y0113157D01*
X0030601Y0113188D01*
X0030759Y0113216D01*
X0030918Y0113240D01*
X0031078Y0113260D01*
X0031238Y0113276D01*
X0031398Y0113288D01*
X0031559Y0113296D01*
X0031720Y0113300D01*
X0031880Y0113300D01*
X0032041Y0113296D01*
X0032202Y0113288D01*
X0032362Y0113276D01*
X0032522Y0113260D01*
X0032682Y0113240D01*
X0032841Y0113216D01*
X0032999Y0113188D01*
X0033157Y0113157D01*
X0033313Y0113121D01*
X0033469Y0113082D01*
X0033624Y0113039D01*
X0033778Y0112992D01*
X0033931Y0112941D01*
X0034082Y0112886D01*
X0034232Y0112828D01*
X0034380Y0112766D01*
X0034527Y0112700D01*
X0034672Y0112631D01*
X0034815Y0112558D01*
X0034957Y0112482D01*
X0035096Y0112402D01*
X0035234Y0112319D01*
X0035369Y0112232D01*
X0035503Y0112142D01*
X0035634Y0112049D01*
X0035762Y0111953D01*
X0035888Y0111853D01*
X0036012Y0111750D01*
X0036133Y0111645D01*
X0036252Y0111536D01*
X0036368Y0111425D01*
X0036481Y0111310D01*
X0036591Y0111193D01*
X0036698Y0111073D01*
X0036802Y0110951D01*
X0036903Y0110826D01*
X0037001Y0110698D01*
X0037096Y0110568D01*
X0037188Y0110436D01*
X0037276Y0110302D01*
X0037361Y0110165D01*
X0037443Y0110027D01*
X0037521Y0109886D01*
X0037595Y0109744D01*
X0037666Y0109600D01*
X0037734Y0109454D01*
X0037797Y0109306D01*
X0037858Y0109157D01*
X0037914Y0109006D01*
X0037967Y0108854D01*
X0038016Y0108701D01*
X0038061Y0108547D01*
X0038102Y0108392D01*
X0038140Y0108235D01*
X0038173Y0108078D01*
X0038203Y0107920D01*
X0038229Y0107761D01*
X0038250Y0107602D01*
X0038268Y0107442D01*
X0038282Y0107282D01*
X0038292Y0107121D01*
X0038298Y0106961D01*
X0038300Y0106800D01*
X0038298Y0106639D01*
X0038292Y0106479D01*
X0038282Y0106318D01*
X0038268Y0106158D01*
X0038250Y0105998D01*
X0038229Y0105839D01*
X0038203Y0105680D01*
X0038173Y0105522D01*
X0038140Y0105365D01*
X0038102Y0105208D01*
X0038061Y0105053D01*
X0038016Y0104899D01*
X0037967Y0104746D01*
X0037914Y0104594D01*
X0037858Y0104443D01*
X0037797Y0104294D01*
X0037734Y0104146D01*
X0037666Y0104000D01*
X0037595Y0103856D01*
X0037521Y0103714D01*
X0037443Y0103573D01*
X0037361Y0103435D01*
X0037276Y0103298D01*
X0037188Y0103164D01*
X0037096Y0103032D01*
X0037001Y0102902D01*
X0036903Y0102774D01*
X0036802Y0102649D01*
X0036698Y0102527D01*
X0036591Y0102407D01*
X0036481Y0102290D01*
X0036368Y0102175D01*
X0036252Y0102064D01*
X0036133Y0101955D01*
X0036012Y0101850D01*
X0035888Y0101747D01*
X0035762Y0101647D01*
X0035634Y0101551D01*
X0035503Y0101458D01*
X0035369Y0101368D01*
X0035234Y0101281D01*
X0035096Y0101198D01*
X0034957Y0101118D01*
X0034815Y0101042D01*
X0034672Y0100969D01*
X0034527Y0100900D01*
X0034380Y0100834D01*
X0034232Y0100772D01*
X0034082Y0100714D01*
X0033931Y0100659D01*
X0033778Y0100608D01*
X0033624Y0100561D01*
X0033469Y0100518D01*
X0033313Y0100479D01*
X0033157Y0100443D01*
X0032999Y0100412D01*
X0032841Y0100384D01*
X0032682Y0100360D01*
X0032522Y0100340D01*
X0032362Y0100324D01*
X0032202Y0100312D01*
X0032041Y0100304D01*
X0031880Y0100300D01*
X0031720Y0100300D01*
X0031559Y0100304D01*
X0031398Y0100312D01*
X0031238Y0100324D01*
X0031078Y0100340D01*
X0030918Y0100360D01*
X0030759Y0100384D01*
X0030601Y0100412D01*
X0030443Y0100443D01*
X0030287Y0100479D01*
X0030131Y0100518D01*
X0029976Y0100561D01*
X0029822Y0100608D01*
X0029669Y0100659D01*
X0029518Y0100714D01*
X0029368Y0100772D01*
X0029220Y0100834D01*
X0029073Y0100900D01*
X0028928Y0100969D01*
X0028785Y0101042D01*
X0028643Y0101118D01*
X0028504Y0101198D01*
X0028366Y0101281D01*
X0028231Y0101368D01*
X0028097Y0101458D01*
X0027966Y0101551D01*
X0027838Y0101647D01*
X0027712Y0101747D01*
X0027588Y0101850D01*
X0027467Y0101955D01*
X0027348Y0102064D01*
X0027232Y0102175D01*
X0027119Y0102290D01*
X0027009Y0102407D01*
X0026902Y0102527D01*
X0026798Y0102649D01*
X0026697Y0102774D01*
X0026599Y0102902D01*
X0026504Y0103032D01*
X0026412Y0103164D01*
X0026324Y0103298D01*
X0026239Y0103435D01*
X0026157Y0103573D01*
X0026079Y0103714D01*
X0026005Y0103856D01*
X0025934Y0104000D01*
X0025866Y0104146D01*
X0025803Y0104294D01*
X0025742Y0104443D01*
X0025686Y0104594D01*
X0025633Y0104746D01*
X0025584Y0104899D01*
X0025539Y0105053D01*
X0025498Y0105208D01*
X0025460Y0105365D01*
X0025427Y0105522D01*
X0025397Y0105680D01*
X0025371Y0105839D01*
X0025350Y0105998D01*
X0025332Y0106158D01*
X0025318Y0106318D01*
X0025308Y0106479D01*
X0025302Y0106639D01*
X0025300Y0106800D01*
X0062800Y0106800D02*
X0062802Y0106961D01*
X0062808Y0107121D01*
X0062818Y0107282D01*
X0062832Y0107442D01*
X0062850Y0107602D01*
X0062871Y0107761D01*
X0062897Y0107920D01*
X0062927Y0108078D01*
X0062960Y0108235D01*
X0062998Y0108392D01*
X0063039Y0108547D01*
X0063084Y0108701D01*
X0063133Y0108854D01*
X0063186Y0109006D01*
X0063242Y0109157D01*
X0063303Y0109306D01*
X0063366Y0109454D01*
X0063434Y0109600D01*
X0063505Y0109744D01*
X0063579Y0109886D01*
X0063657Y0110027D01*
X0063739Y0110165D01*
X0063824Y0110302D01*
X0063912Y0110436D01*
X0064004Y0110568D01*
X0064099Y0110698D01*
X0064197Y0110826D01*
X0064298Y0110951D01*
X0064402Y0111073D01*
X0064509Y0111193D01*
X0064619Y0111310D01*
X0064732Y0111425D01*
X0064848Y0111536D01*
X0064967Y0111645D01*
X0065088Y0111750D01*
X0065212Y0111853D01*
X0065338Y0111953D01*
X0065466Y0112049D01*
X0065597Y0112142D01*
X0065731Y0112232D01*
X0065866Y0112319D01*
X0066004Y0112402D01*
X0066143Y0112482D01*
X0066285Y0112558D01*
X0066428Y0112631D01*
X0066573Y0112700D01*
X0066720Y0112766D01*
X0066868Y0112828D01*
X0067018Y0112886D01*
X0067169Y0112941D01*
X0067322Y0112992D01*
X0067476Y0113039D01*
X0067631Y0113082D01*
X0067787Y0113121D01*
X0067943Y0113157D01*
X0068101Y0113188D01*
X0068259Y0113216D01*
X0068418Y0113240D01*
X0068578Y0113260D01*
X0068738Y0113276D01*
X0068898Y0113288D01*
X0069059Y0113296D01*
X0069220Y0113300D01*
X0069380Y0113300D01*
X0069541Y0113296D01*
X0069702Y0113288D01*
X0069862Y0113276D01*
X0070022Y0113260D01*
X0070182Y0113240D01*
X0070341Y0113216D01*
X0070499Y0113188D01*
X0070657Y0113157D01*
X0070813Y0113121D01*
X0070969Y0113082D01*
X0071124Y0113039D01*
X0071278Y0112992D01*
X0071431Y0112941D01*
X0071582Y0112886D01*
X0071732Y0112828D01*
X0071880Y0112766D01*
X0072027Y0112700D01*
X0072172Y0112631D01*
X0072315Y0112558D01*
X0072457Y0112482D01*
X0072596Y0112402D01*
X0072734Y0112319D01*
X0072869Y0112232D01*
X0073003Y0112142D01*
X0073134Y0112049D01*
X0073262Y0111953D01*
X0073388Y0111853D01*
X0073512Y0111750D01*
X0073633Y0111645D01*
X0073752Y0111536D01*
X0073868Y0111425D01*
X0073981Y0111310D01*
X0074091Y0111193D01*
X0074198Y0111073D01*
X0074302Y0110951D01*
X0074403Y0110826D01*
X0074501Y0110698D01*
X0074596Y0110568D01*
X0074688Y0110436D01*
X0074776Y0110302D01*
X0074861Y0110165D01*
X0074943Y0110027D01*
X0075021Y0109886D01*
X0075095Y0109744D01*
X0075166Y0109600D01*
X0075234Y0109454D01*
X0075297Y0109306D01*
X0075358Y0109157D01*
X0075414Y0109006D01*
X0075467Y0108854D01*
X0075516Y0108701D01*
X0075561Y0108547D01*
X0075602Y0108392D01*
X0075640Y0108235D01*
X0075673Y0108078D01*
X0075703Y0107920D01*
X0075729Y0107761D01*
X0075750Y0107602D01*
X0075768Y0107442D01*
X0075782Y0107282D01*
X0075792Y0107121D01*
X0075798Y0106961D01*
X0075800Y0106800D01*
X0075798Y0106639D01*
X0075792Y0106479D01*
X0075782Y0106318D01*
X0075768Y0106158D01*
X0075750Y0105998D01*
X0075729Y0105839D01*
X0075703Y0105680D01*
X0075673Y0105522D01*
X0075640Y0105365D01*
X0075602Y0105208D01*
X0075561Y0105053D01*
X0075516Y0104899D01*
X0075467Y0104746D01*
X0075414Y0104594D01*
X0075358Y0104443D01*
X0075297Y0104294D01*
X0075234Y0104146D01*
X0075166Y0104000D01*
X0075095Y0103856D01*
X0075021Y0103714D01*
X0074943Y0103573D01*
X0074861Y0103435D01*
X0074776Y0103298D01*
X0074688Y0103164D01*
X0074596Y0103032D01*
X0074501Y0102902D01*
X0074403Y0102774D01*
X0074302Y0102649D01*
X0074198Y0102527D01*
X0074091Y0102407D01*
X0073981Y0102290D01*
X0073868Y0102175D01*
X0073752Y0102064D01*
X0073633Y0101955D01*
X0073512Y0101850D01*
X0073388Y0101747D01*
X0073262Y0101647D01*
X0073134Y0101551D01*
X0073003Y0101458D01*
X0072869Y0101368D01*
X0072734Y0101281D01*
X0072596Y0101198D01*
X0072457Y0101118D01*
X0072315Y0101042D01*
X0072172Y0100969D01*
X0072027Y0100900D01*
X0071880Y0100834D01*
X0071732Y0100772D01*
X0071582Y0100714D01*
X0071431Y0100659D01*
X0071278Y0100608D01*
X0071124Y0100561D01*
X0070969Y0100518D01*
X0070813Y0100479D01*
X0070657Y0100443D01*
X0070499Y0100412D01*
X0070341Y0100384D01*
X0070182Y0100360D01*
X0070022Y0100340D01*
X0069862Y0100324D01*
X0069702Y0100312D01*
X0069541Y0100304D01*
X0069380Y0100300D01*
X0069220Y0100300D01*
X0069059Y0100304D01*
X0068898Y0100312D01*
X0068738Y0100324D01*
X0068578Y0100340D01*
X0068418Y0100360D01*
X0068259Y0100384D01*
X0068101Y0100412D01*
X0067943Y0100443D01*
X0067787Y0100479D01*
X0067631Y0100518D01*
X0067476Y0100561D01*
X0067322Y0100608D01*
X0067169Y0100659D01*
X0067018Y0100714D01*
X0066868Y0100772D01*
X0066720Y0100834D01*
X0066573Y0100900D01*
X0066428Y0100969D01*
X0066285Y0101042D01*
X0066143Y0101118D01*
X0066004Y0101198D01*
X0065866Y0101281D01*
X0065731Y0101368D01*
X0065597Y0101458D01*
X0065466Y0101551D01*
X0065338Y0101647D01*
X0065212Y0101747D01*
X0065088Y0101850D01*
X0064967Y0101955D01*
X0064848Y0102064D01*
X0064732Y0102175D01*
X0064619Y0102290D01*
X0064509Y0102407D01*
X0064402Y0102527D01*
X0064298Y0102649D01*
X0064197Y0102774D01*
X0064099Y0102902D01*
X0064004Y0103032D01*
X0063912Y0103164D01*
X0063824Y0103298D01*
X0063739Y0103435D01*
X0063657Y0103573D01*
X0063579Y0103714D01*
X0063505Y0103856D01*
X0063434Y0104000D01*
X0063366Y0104146D01*
X0063303Y0104294D01*
X0063242Y0104443D01*
X0063186Y0104594D01*
X0063133Y0104746D01*
X0063084Y0104899D01*
X0063039Y0105053D01*
X0062998Y0105208D01*
X0062960Y0105365D01*
X0062927Y0105522D01*
X0062897Y0105680D01*
X0062871Y0105839D01*
X0062850Y0105998D01*
X0062832Y0106158D01*
X0062818Y0106318D01*
X0062808Y0106479D01*
X0062802Y0106639D01*
X0062800Y0106800D01*
X0135300Y0140800D02*
X0135302Y0140961D01*
X0135308Y0141121D01*
X0135318Y0141282D01*
X0135332Y0141442D01*
X0135350Y0141602D01*
X0135371Y0141761D01*
X0135397Y0141920D01*
X0135427Y0142078D01*
X0135460Y0142235D01*
X0135498Y0142392D01*
X0135539Y0142547D01*
X0135584Y0142701D01*
X0135633Y0142854D01*
X0135686Y0143006D01*
X0135742Y0143157D01*
X0135803Y0143306D01*
X0135866Y0143454D01*
X0135934Y0143600D01*
X0136005Y0143744D01*
X0136079Y0143886D01*
X0136157Y0144027D01*
X0136239Y0144165D01*
X0136324Y0144302D01*
X0136412Y0144436D01*
X0136504Y0144568D01*
X0136599Y0144698D01*
X0136697Y0144826D01*
X0136798Y0144951D01*
X0136902Y0145073D01*
X0137009Y0145193D01*
X0137119Y0145310D01*
X0137232Y0145425D01*
X0137348Y0145536D01*
X0137467Y0145645D01*
X0137588Y0145750D01*
X0137712Y0145853D01*
X0137838Y0145953D01*
X0137966Y0146049D01*
X0138097Y0146142D01*
X0138231Y0146232D01*
X0138366Y0146319D01*
X0138504Y0146402D01*
X0138643Y0146482D01*
X0138785Y0146558D01*
X0138928Y0146631D01*
X0139073Y0146700D01*
X0139220Y0146766D01*
X0139368Y0146828D01*
X0139518Y0146886D01*
X0139669Y0146941D01*
X0139822Y0146992D01*
X0139976Y0147039D01*
X0140131Y0147082D01*
X0140287Y0147121D01*
X0140443Y0147157D01*
X0140601Y0147188D01*
X0140759Y0147216D01*
X0140918Y0147240D01*
X0141078Y0147260D01*
X0141238Y0147276D01*
X0141398Y0147288D01*
X0141559Y0147296D01*
X0141720Y0147300D01*
X0141880Y0147300D01*
X0142041Y0147296D01*
X0142202Y0147288D01*
X0142362Y0147276D01*
X0142522Y0147260D01*
X0142682Y0147240D01*
X0142841Y0147216D01*
X0142999Y0147188D01*
X0143157Y0147157D01*
X0143313Y0147121D01*
X0143469Y0147082D01*
X0143624Y0147039D01*
X0143778Y0146992D01*
X0143931Y0146941D01*
X0144082Y0146886D01*
X0144232Y0146828D01*
X0144380Y0146766D01*
X0144527Y0146700D01*
X0144672Y0146631D01*
X0144815Y0146558D01*
X0144957Y0146482D01*
X0145096Y0146402D01*
X0145234Y0146319D01*
X0145369Y0146232D01*
X0145503Y0146142D01*
X0145634Y0146049D01*
X0145762Y0145953D01*
X0145888Y0145853D01*
X0146012Y0145750D01*
X0146133Y0145645D01*
X0146252Y0145536D01*
X0146368Y0145425D01*
X0146481Y0145310D01*
X0146591Y0145193D01*
X0146698Y0145073D01*
X0146802Y0144951D01*
X0146903Y0144826D01*
X0147001Y0144698D01*
X0147096Y0144568D01*
X0147188Y0144436D01*
X0147276Y0144302D01*
X0147361Y0144165D01*
X0147443Y0144027D01*
X0147521Y0143886D01*
X0147595Y0143744D01*
X0147666Y0143600D01*
X0147734Y0143454D01*
X0147797Y0143306D01*
X0147858Y0143157D01*
X0147914Y0143006D01*
X0147967Y0142854D01*
X0148016Y0142701D01*
X0148061Y0142547D01*
X0148102Y0142392D01*
X0148140Y0142235D01*
X0148173Y0142078D01*
X0148203Y0141920D01*
X0148229Y0141761D01*
X0148250Y0141602D01*
X0148268Y0141442D01*
X0148282Y0141282D01*
X0148292Y0141121D01*
X0148298Y0140961D01*
X0148300Y0140800D01*
X0148298Y0140639D01*
X0148292Y0140479D01*
X0148282Y0140318D01*
X0148268Y0140158D01*
X0148250Y0139998D01*
X0148229Y0139839D01*
X0148203Y0139680D01*
X0148173Y0139522D01*
X0148140Y0139365D01*
X0148102Y0139208D01*
X0148061Y0139053D01*
X0148016Y0138899D01*
X0147967Y0138746D01*
X0147914Y0138594D01*
X0147858Y0138443D01*
X0147797Y0138294D01*
X0147734Y0138146D01*
X0147666Y0138000D01*
X0147595Y0137856D01*
X0147521Y0137714D01*
X0147443Y0137573D01*
X0147361Y0137435D01*
X0147276Y0137298D01*
X0147188Y0137164D01*
X0147096Y0137032D01*
X0147001Y0136902D01*
X0146903Y0136774D01*
X0146802Y0136649D01*
X0146698Y0136527D01*
X0146591Y0136407D01*
X0146481Y0136290D01*
X0146368Y0136175D01*
X0146252Y0136064D01*
X0146133Y0135955D01*
X0146012Y0135850D01*
X0145888Y0135747D01*
X0145762Y0135647D01*
X0145634Y0135551D01*
X0145503Y0135458D01*
X0145369Y0135368D01*
X0145234Y0135281D01*
X0145096Y0135198D01*
X0144957Y0135118D01*
X0144815Y0135042D01*
X0144672Y0134969D01*
X0144527Y0134900D01*
X0144380Y0134834D01*
X0144232Y0134772D01*
X0144082Y0134714D01*
X0143931Y0134659D01*
X0143778Y0134608D01*
X0143624Y0134561D01*
X0143469Y0134518D01*
X0143313Y0134479D01*
X0143157Y0134443D01*
X0142999Y0134412D01*
X0142841Y0134384D01*
X0142682Y0134360D01*
X0142522Y0134340D01*
X0142362Y0134324D01*
X0142202Y0134312D01*
X0142041Y0134304D01*
X0141880Y0134300D01*
X0141720Y0134300D01*
X0141559Y0134304D01*
X0141398Y0134312D01*
X0141238Y0134324D01*
X0141078Y0134340D01*
X0140918Y0134360D01*
X0140759Y0134384D01*
X0140601Y0134412D01*
X0140443Y0134443D01*
X0140287Y0134479D01*
X0140131Y0134518D01*
X0139976Y0134561D01*
X0139822Y0134608D01*
X0139669Y0134659D01*
X0139518Y0134714D01*
X0139368Y0134772D01*
X0139220Y0134834D01*
X0139073Y0134900D01*
X0138928Y0134969D01*
X0138785Y0135042D01*
X0138643Y0135118D01*
X0138504Y0135198D01*
X0138366Y0135281D01*
X0138231Y0135368D01*
X0138097Y0135458D01*
X0137966Y0135551D01*
X0137838Y0135647D01*
X0137712Y0135747D01*
X0137588Y0135850D01*
X0137467Y0135955D01*
X0137348Y0136064D01*
X0137232Y0136175D01*
X0137119Y0136290D01*
X0137009Y0136407D01*
X0136902Y0136527D01*
X0136798Y0136649D01*
X0136697Y0136774D01*
X0136599Y0136902D01*
X0136504Y0137032D01*
X0136412Y0137164D01*
X0136324Y0137298D01*
X0136239Y0137435D01*
X0136157Y0137573D01*
X0136079Y0137714D01*
X0136005Y0137856D01*
X0135934Y0138000D01*
X0135866Y0138146D01*
X0135803Y0138294D01*
X0135742Y0138443D01*
X0135686Y0138594D01*
X0135633Y0138746D01*
X0135584Y0138899D01*
X0135539Y0139053D01*
X0135498Y0139208D01*
X0135460Y0139365D01*
X0135427Y0139522D01*
X0135397Y0139680D01*
X0135371Y0139839D01*
X0135350Y0139998D01*
X0135332Y0140158D01*
X0135318Y0140318D01*
X0135308Y0140479D01*
X0135302Y0140639D01*
X0135300Y0140800D01*
X0225300Y0140800D02*
X0225302Y0140961D01*
X0225308Y0141121D01*
X0225318Y0141282D01*
X0225332Y0141442D01*
X0225350Y0141602D01*
X0225371Y0141761D01*
X0225397Y0141920D01*
X0225427Y0142078D01*
X0225460Y0142235D01*
X0225498Y0142392D01*
X0225539Y0142547D01*
X0225584Y0142701D01*
X0225633Y0142854D01*
X0225686Y0143006D01*
X0225742Y0143157D01*
X0225803Y0143306D01*
X0225866Y0143454D01*
X0225934Y0143600D01*
X0226005Y0143744D01*
X0226079Y0143886D01*
X0226157Y0144027D01*
X0226239Y0144165D01*
X0226324Y0144302D01*
X0226412Y0144436D01*
X0226504Y0144568D01*
X0226599Y0144698D01*
X0226697Y0144826D01*
X0226798Y0144951D01*
X0226902Y0145073D01*
X0227009Y0145193D01*
X0227119Y0145310D01*
X0227232Y0145425D01*
X0227348Y0145536D01*
X0227467Y0145645D01*
X0227588Y0145750D01*
X0227712Y0145853D01*
X0227838Y0145953D01*
X0227966Y0146049D01*
X0228097Y0146142D01*
X0228231Y0146232D01*
X0228366Y0146319D01*
X0228504Y0146402D01*
X0228643Y0146482D01*
X0228785Y0146558D01*
X0228928Y0146631D01*
X0229073Y0146700D01*
X0229220Y0146766D01*
X0229368Y0146828D01*
X0229518Y0146886D01*
X0229669Y0146941D01*
X0229822Y0146992D01*
X0229976Y0147039D01*
X0230131Y0147082D01*
X0230287Y0147121D01*
X0230443Y0147157D01*
X0230601Y0147188D01*
X0230759Y0147216D01*
X0230918Y0147240D01*
X0231078Y0147260D01*
X0231238Y0147276D01*
X0231398Y0147288D01*
X0231559Y0147296D01*
X0231720Y0147300D01*
X0231880Y0147300D01*
X0232041Y0147296D01*
X0232202Y0147288D01*
X0232362Y0147276D01*
X0232522Y0147260D01*
X0232682Y0147240D01*
X0232841Y0147216D01*
X0232999Y0147188D01*
X0233157Y0147157D01*
X0233313Y0147121D01*
X0233469Y0147082D01*
X0233624Y0147039D01*
X0233778Y0146992D01*
X0233931Y0146941D01*
X0234082Y0146886D01*
X0234232Y0146828D01*
X0234380Y0146766D01*
X0234527Y0146700D01*
X0234672Y0146631D01*
X0234815Y0146558D01*
X0234957Y0146482D01*
X0235096Y0146402D01*
X0235234Y0146319D01*
X0235369Y0146232D01*
X0235503Y0146142D01*
X0235634Y0146049D01*
X0235762Y0145953D01*
X0235888Y0145853D01*
X0236012Y0145750D01*
X0236133Y0145645D01*
X0236252Y0145536D01*
X0236368Y0145425D01*
X0236481Y0145310D01*
X0236591Y0145193D01*
X0236698Y0145073D01*
X0236802Y0144951D01*
X0236903Y0144826D01*
X0237001Y0144698D01*
X0237096Y0144568D01*
X0237188Y0144436D01*
X0237276Y0144302D01*
X0237361Y0144165D01*
X0237443Y0144027D01*
X0237521Y0143886D01*
X0237595Y0143744D01*
X0237666Y0143600D01*
X0237734Y0143454D01*
X0237797Y0143306D01*
X0237858Y0143157D01*
X0237914Y0143006D01*
X0237967Y0142854D01*
X0238016Y0142701D01*
X0238061Y0142547D01*
X0238102Y0142392D01*
X0238140Y0142235D01*
X0238173Y0142078D01*
X0238203Y0141920D01*
X0238229Y0141761D01*
X0238250Y0141602D01*
X0238268Y0141442D01*
X0238282Y0141282D01*
X0238292Y0141121D01*
X0238298Y0140961D01*
X0238300Y0140800D01*
X0238298Y0140639D01*
X0238292Y0140479D01*
X0238282Y0140318D01*
X0238268Y0140158D01*
X0238250Y0139998D01*
X0238229Y0139839D01*
X0238203Y0139680D01*
X0238173Y0139522D01*
X0238140Y0139365D01*
X0238102Y0139208D01*
X0238061Y0139053D01*
X0238016Y0138899D01*
X0237967Y0138746D01*
X0237914Y0138594D01*
X0237858Y0138443D01*
X0237797Y0138294D01*
X0237734Y0138146D01*
X0237666Y0138000D01*
X0237595Y0137856D01*
X0237521Y0137714D01*
X0237443Y0137573D01*
X0237361Y0137435D01*
X0237276Y0137298D01*
X0237188Y0137164D01*
X0237096Y0137032D01*
X0237001Y0136902D01*
X0236903Y0136774D01*
X0236802Y0136649D01*
X0236698Y0136527D01*
X0236591Y0136407D01*
X0236481Y0136290D01*
X0236368Y0136175D01*
X0236252Y0136064D01*
X0236133Y0135955D01*
X0236012Y0135850D01*
X0235888Y0135747D01*
X0235762Y0135647D01*
X0235634Y0135551D01*
X0235503Y0135458D01*
X0235369Y0135368D01*
X0235234Y0135281D01*
X0235096Y0135198D01*
X0234957Y0135118D01*
X0234815Y0135042D01*
X0234672Y0134969D01*
X0234527Y0134900D01*
X0234380Y0134834D01*
X0234232Y0134772D01*
X0234082Y0134714D01*
X0233931Y0134659D01*
X0233778Y0134608D01*
X0233624Y0134561D01*
X0233469Y0134518D01*
X0233313Y0134479D01*
X0233157Y0134443D01*
X0232999Y0134412D01*
X0232841Y0134384D01*
X0232682Y0134360D01*
X0232522Y0134340D01*
X0232362Y0134324D01*
X0232202Y0134312D01*
X0232041Y0134304D01*
X0231880Y0134300D01*
X0231720Y0134300D01*
X0231559Y0134304D01*
X0231398Y0134312D01*
X0231238Y0134324D01*
X0231078Y0134340D01*
X0230918Y0134360D01*
X0230759Y0134384D01*
X0230601Y0134412D01*
X0230443Y0134443D01*
X0230287Y0134479D01*
X0230131Y0134518D01*
X0229976Y0134561D01*
X0229822Y0134608D01*
X0229669Y0134659D01*
X0229518Y0134714D01*
X0229368Y0134772D01*
X0229220Y0134834D01*
X0229073Y0134900D01*
X0228928Y0134969D01*
X0228785Y0135042D01*
X0228643Y0135118D01*
X0228504Y0135198D01*
X0228366Y0135281D01*
X0228231Y0135368D01*
X0228097Y0135458D01*
X0227966Y0135551D01*
X0227838Y0135647D01*
X0227712Y0135747D01*
X0227588Y0135850D01*
X0227467Y0135955D01*
X0227348Y0136064D01*
X0227232Y0136175D01*
X0227119Y0136290D01*
X0227009Y0136407D01*
X0226902Y0136527D01*
X0226798Y0136649D01*
X0226697Y0136774D01*
X0226599Y0136902D01*
X0226504Y0137032D01*
X0226412Y0137164D01*
X0226324Y0137298D01*
X0226239Y0137435D01*
X0226157Y0137573D01*
X0226079Y0137714D01*
X0226005Y0137856D01*
X0225934Y0138000D01*
X0225866Y0138146D01*
X0225803Y0138294D01*
X0225742Y0138443D01*
X0225686Y0138594D01*
X0225633Y0138746D01*
X0225584Y0138899D01*
X0225539Y0139053D01*
X0225498Y0139208D01*
X0225460Y0139365D01*
X0225427Y0139522D01*
X0225397Y0139680D01*
X0225371Y0139839D01*
X0225350Y0139998D01*
X0225332Y0140158D01*
X0225318Y0140318D01*
X0225308Y0140479D01*
X0225302Y0140639D01*
X0225300Y0140800D01*
D11*
X0213800Y0126800D02*
X0213800Y0094300D01*
X0249800Y0094300D01*
X0249800Y0126800D01*
X0213800Y0126800D01*
X0159800Y0126800D02*
X0159800Y0094300D01*
X0123800Y0094300D01*
X0123800Y0126800D01*
X0159800Y0126800D01*
X0153257Y0201166D02*
X0153257Y0203368D01*
X0152156Y0203368D01*
X0151789Y0203001D01*
X0151789Y0202267D01*
X0152156Y0201900D01*
X0153257Y0201900D01*
X0153999Y0202267D02*
X0154366Y0202634D01*
X0155467Y0202634D01*
X0155467Y0203001D02*
X0155467Y0201900D01*
X0154366Y0201900D01*
X0153999Y0202267D01*
X0154366Y0203368D02*
X0155100Y0203368D01*
X0155467Y0203001D01*
X0156209Y0203368D02*
X0156209Y0201900D01*
X0156209Y0202634D02*
X0156943Y0203368D01*
X0157310Y0203368D01*
X0153625Y0206900D02*
X0153625Y0208001D01*
X0153258Y0208368D01*
X0152891Y0208001D01*
X0152891Y0206900D01*
X0152157Y0206900D02*
X0152157Y0208368D01*
X0152524Y0208368D01*
X0152891Y0208001D01*
X0151418Y0206900D02*
X0150684Y0206900D01*
X0151051Y0206900D02*
X0151051Y0208368D01*
X0150684Y0208368D01*
X0151051Y0209102D02*
X0151051Y0209469D01*
X0149578Y0209102D02*
X0149578Y0206900D01*
X0149211Y0206900D02*
X0149945Y0206900D01*
X0148469Y0206900D02*
X0147368Y0206900D01*
X0147001Y0207267D01*
X0147368Y0207634D01*
X0148469Y0207634D01*
X0148469Y0208001D02*
X0148469Y0206900D01*
X0148469Y0208001D02*
X0148102Y0208368D01*
X0147368Y0208368D01*
X0146259Y0208001D02*
X0144791Y0208001D01*
X0144791Y0206900D02*
X0144791Y0209102D01*
X0146259Y0209102D02*
X0146259Y0206900D01*
X0147369Y0204102D02*
X0147369Y0201900D01*
X0148103Y0202634D01*
X0148837Y0201900D01*
X0148837Y0204102D01*
X0149946Y0203368D02*
X0150680Y0203368D01*
X0151047Y0203001D01*
X0151047Y0201900D01*
X0149946Y0201900D01*
X0149579Y0202267D01*
X0149946Y0202634D01*
X0151047Y0202634D01*
X0149578Y0209102D02*
X0149211Y0209102D01*
X0149211Y0211900D02*
X0150312Y0211900D01*
X0150679Y0212267D01*
X0150312Y0212634D01*
X0149578Y0212634D01*
X0149211Y0213001D01*
X0149578Y0213368D01*
X0150679Y0213368D01*
X0148471Y0211900D02*
X0147737Y0211900D01*
X0148104Y0211900D02*
X0148104Y0214102D01*
X0147737Y0214102D01*
X0146631Y0214102D02*
X0146631Y0211900D01*
X0146264Y0211900D02*
X0146998Y0211900D01*
X0145522Y0212634D02*
X0144054Y0212634D01*
X0144054Y0213001D02*
X0144421Y0213368D01*
X0145155Y0213368D01*
X0145522Y0213001D01*
X0145522Y0212634D01*
X0145155Y0211900D02*
X0144421Y0211900D01*
X0144054Y0212267D01*
X0144054Y0213001D01*
X0143312Y0211900D02*
X0143312Y0214102D01*
X0141844Y0214102D02*
X0141844Y0211900D01*
X0142578Y0212634D01*
X0143312Y0211900D01*
X0146264Y0214102D02*
X0146631Y0214102D01*
X0147001Y0216900D02*
X0148469Y0219102D01*
X0149211Y0219102D02*
X0150312Y0219102D01*
X0150679Y0218735D01*
X0150679Y0217267D01*
X0150312Y0216900D01*
X0149211Y0216900D01*
X0149211Y0219102D01*
X0151421Y0218368D02*
X0151421Y0216900D01*
X0151421Y0217634D02*
X0152155Y0218368D01*
X0152522Y0218368D01*
X0153262Y0218001D02*
X0153262Y0217267D01*
X0153629Y0216900D01*
X0154363Y0216900D01*
X0154730Y0217267D01*
X0154730Y0218001D01*
X0154363Y0218368D01*
X0153629Y0218368D01*
X0153262Y0218001D01*
X0155472Y0218368D02*
X0156573Y0218368D01*
X0156940Y0218001D01*
X0156940Y0217267D01*
X0156573Y0216900D01*
X0155472Y0216900D01*
X0155472Y0216166D02*
X0155472Y0218368D01*
X0157682Y0218368D02*
X0158783Y0218368D01*
X0159150Y0218001D01*
X0159150Y0217267D01*
X0158783Y0216900D01*
X0157682Y0216900D01*
X0157682Y0216166D02*
X0157682Y0218368D01*
X0159892Y0218001D02*
X0160259Y0218368D01*
X0160993Y0218368D01*
X0161360Y0218001D01*
X0161360Y0217634D01*
X0159892Y0217634D01*
X0159892Y0217267D02*
X0159892Y0218001D01*
X0159892Y0217267D02*
X0160259Y0216900D01*
X0160993Y0216900D01*
X0162102Y0216900D02*
X0162102Y0218368D01*
X0162836Y0218368D02*
X0163203Y0218368D01*
X0162836Y0218368D02*
X0162102Y0217634D01*
X0166153Y0216900D02*
X0167621Y0218368D01*
X0167621Y0218735D01*
X0167254Y0219102D01*
X0166520Y0219102D01*
X0166153Y0218735D01*
X0166153Y0216900D02*
X0167621Y0216900D01*
X0168363Y0217267D02*
X0169831Y0218735D01*
X0169831Y0217267D01*
X0169464Y0216900D01*
X0168730Y0216900D01*
X0168363Y0217267D01*
X0168363Y0218735D01*
X0168730Y0219102D01*
X0169464Y0219102D01*
X0169831Y0218735D01*
X0170573Y0218368D02*
X0171307Y0219102D01*
X0171307Y0216900D01*
X0170573Y0216900D02*
X0172041Y0216900D01*
X0172783Y0216900D02*
X0172783Y0217267D01*
X0174251Y0218735D01*
X0174251Y0219102D01*
X0172783Y0219102D01*
X0172695Y0221900D02*
X0171794Y0221900D01*
X0171494Y0222200D01*
X0171494Y0222801D01*
X0171794Y0223101D01*
X0172695Y0223101D01*
X0173335Y0223702D02*
X0173636Y0223702D01*
X0173636Y0221900D01*
X0173936Y0221900D02*
X0173335Y0221900D01*
X0174563Y0222200D02*
X0174563Y0222801D01*
X0174863Y0223101D01*
X0175464Y0223101D01*
X0175764Y0222801D01*
X0175764Y0222501D01*
X0174563Y0222501D01*
X0174563Y0222200D02*
X0174863Y0221900D01*
X0175464Y0221900D01*
X0178246Y0221900D02*
X0179147Y0221900D01*
X0179447Y0222200D01*
X0179447Y0222801D01*
X0179147Y0223101D01*
X0178246Y0223101D01*
X0178246Y0221299D01*
X0180088Y0221900D02*
X0180088Y0223101D01*
X0180688Y0223101D02*
X0180989Y0223101D01*
X0180688Y0223101D02*
X0180088Y0222501D01*
X0181622Y0222801D02*
X0181622Y0222200D01*
X0181923Y0221900D01*
X0182523Y0221900D01*
X0182823Y0222200D01*
X0182823Y0222801D01*
X0182523Y0223101D01*
X0181923Y0223101D01*
X0181622Y0222801D01*
X0183464Y0221299D02*
X0183764Y0221299D01*
X0184064Y0221600D01*
X0184064Y0223101D01*
X0184064Y0223702D02*
X0184064Y0224002D01*
X0184992Y0223101D02*
X0185592Y0223101D01*
X0185893Y0222801D01*
X0185893Y0222501D01*
X0184692Y0222501D01*
X0184692Y0222801D02*
X0184992Y0223101D01*
X0184692Y0222801D02*
X0184692Y0222200D01*
X0184992Y0221900D01*
X0185592Y0221900D01*
X0186533Y0222200D02*
X0186833Y0221900D01*
X0187734Y0221900D01*
X0188675Y0222200D02*
X0188975Y0221900D01*
X0188675Y0222200D02*
X0188675Y0223401D01*
X0188375Y0223101D02*
X0188975Y0223101D01*
X0187734Y0223101D02*
X0186833Y0223101D01*
X0186533Y0222801D01*
X0186533Y0222200D01*
X0184566Y0219102D02*
X0184566Y0216900D01*
X0183832Y0216900D02*
X0185300Y0216900D01*
X0183832Y0218368D02*
X0184566Y0219102D01*
X0183090Y0219102D02*
X0183090Y0217634D01*
X0182356Y0216900D01*
X0181622Y0217634D01*
X0181622Y0219102D01*
X0178670Y0218001D02*
X0177203Y0218001D01*
X0170867Y0221900D02*
X0170266Y0221900D01*
X0170566Y0221900D02*
X0170566Y0223101D01*
X0170266Y0223101D01*
X0170566Y0223702D02*
X0170566Y0224002D01*
X0169626Y0222801D02*
X0169626Y0221900D01*
X0169626Y0222801D02*
X0169325Y0223101D01*
X0168725Y0223101D01*
X0168424Y0222801D01*
X0167784Y0222801D02*
X0167784Y0222501D01*
X0166583Y0222501D01*
X0166583Y0222801D02*
X0166883Y0223101D01*
X0167484Y0223101D01*
X0167784Y0222801D01*
X0167484Y0221900D02*
X0166883Y0221900D01*
X0166583Y0222200D01*
X0166583Y0222801D01*
X0165942Y0223101D02*
X0165342Y0221900D01*
X0164741Y0223101D01*
X0162259Y0223101D02*
X0161358Y0223101D01*
X0161058Y0222801D01*
X0161058Y0222200D01*
X0161358Y0221900D01*
X0162259Y0221900D01*
X0160431Y0221900D02*
X0159830Y0221900D01*
X0160131Y0221900D02*
X0160131Y0223101D01*
X0159830Y0223101D01*
X0159203Y0223101D02*
X0158603Y0223101D01*
X0158903Y0223401D02*
X0158903Y0222200D01*
X0159203Y0221900D01*
X0157962Y0222200D02*
X0157962Y0222801D01*
X0157662Y0223101D01*
X0157061Y0223101D01*
X0156761Y0222801D01*
X0156761Y0222200D01*
X0157061Y0221900D01*
X0157662Y0221900D01*
X0157962Y0222200D01*
X0156121Y0222200D02*
X0156121Y0222801D01*
X0155820Y0223101D01*
X0154920Y0223101D01*
X0154920Y0223702D02*
X0154920Y0221900D01*
X0155820Y0221900D01*
X0156121Y0222200D01*
X0154279Y0222200D02*
X0154279Y0222801D01*
X0153979Y0223101D01*
X0153378Y0223101D01*
X0153078Y0222801D01*
X0153078Y0222200D01*
X0153378Y0221900D01*
X0153979Y0221900D01*
X0154279Y0222200D01*
X0152444Y0223101D02*
X0152144Y0223101D01*
X0151543Y0222501D01*
X0151543Y0223101D02*
X0151543Y0221900D01*
X0149061Y0222200D02*
X0148761Y0222501D01*
X0148161Y0222501D01*
X0147860Y0222801D01*
X0148161Y0223101D01*
X0149061Y0223101D01*
X0149061Y0222200D02*
X0148761Y0221900D01*
X0147860Y0221900D01*
X0147220Y0221900D02*
X0147220Y0223101D01*
X0147220Y0221900D02*
X0146319Y0221900D01*
X0146019Y0222200D01*
X0146019Y0223101D01*
X0145378Y0222801D02*
X0145078Y0223101D01*
X0144477Y0223101D01*
X0144177Y0222801D01*
X0144177Y0222200D01*
X0144477Y0221900D01*
X0145078Y0221900D01*
X0145378Y0222200D01*
X0145378Y0222801D01*
X0143537Y0222801D02*
X0143537Y0221900D01*
X0142936Y0221900D02*
X0142936Y0222801D01*
X0143236Y0223101D01*
X0143537Y0222801D01*
X0142936Y0222801D02*
X0142636Y0223101D01*
X0142336Y0223101D01*
X0142336Y0221900D01*
X0141695Y0222200D02*
X0141695Y0222801D01*
X0141395Y0223101D01*
X0140794Y0223101D01*
X0140494Y0222801D01*
X0140494Y0222200D01*
X0140794Y0221900D01*
X0141395Y0221900D01*
X0141695Y0222200D01*
X0139853Y0221900D02*
X0139853Y0222801D01*
X0139553Y0223101D01*
X0138652Y0223101D01*
X0138652Y0221900D01*
X0138012Y0222200D02*
X0138012Y0222801D01*
X0137712Y0223101D01*
X0137111Y0223101D01*
X0136811Y0222801D01*
X0136811Y0222200D01*
X0137111Y0221900D01*
X0137712Y0221900D01*
X0138012Y0222200D01*
X0136184Y0221900D02*
X0135883Y0222200D01*
X0135883Y0223401D01*
X0135583Y0223101D02*
X0136184Y0223101D01*
X0134943Y0223101D02*
X0134943Y0221900D01*
X0134042Y0221900D01*
X0133742Y0222200D01*
X0133742Y0223101D01*
X0133101Y0222801D02*
X0133101Y0221900D01*
X0132200Y0221900D01*
X0131900Y0222200D01*
X0132200Y0222501D01*
X0133101Y0222501D01*
X0133101Y0222801D02*
X0132801Y0223101D01*
X0132200Y0223101D01*
X0132500Y0225500D02*
X0131300Y0226400D01*
X0131800Y0226600D01*
X0131500Y0227300D01*
X0132300Y0227100D01*
X0132400Y0227600D01*
X0133200Y0226900D01*
X0132800Y0228500D01*
X0133500Y0228200D01*
X0134000Y0229300D01*
X0134500Y0228200D01*
X0135100Y0228500D01*
X0134700Y0226900D01*
X0133368Y0219102D02*
X0131900Y0219102D01*
X0132634Y0219102D02*
X0132634Y0216900D01*
X0134110Y0217267D02*
X0134477Y0216900D01*
X0135211Y0216900D01*
X0135578Y0217267D01*
X0135578Y0218001D01*
X0135211Y0218368D01*
X0134477Y0218368D01*
X0134110Y0218001D01*
X0134110Y0217267D01*
X0136320Y0217634D02*
X0137054Y0218368D01*
X0137421Y0218368D01*
X0138161Y0218368D02*
X0139262Y0218368D01*
X0139629Y0218001D01*
X0139629Y0217267D01*
X0139262Y0216900D01*
X0138161Y0216900D01*
X0138161Y0216166D02*
X0138161Y0218368D01*
X0136320Y0218368D02*
X0136320Y0216900D01*
X0136318Y0214469D02*
X0136318Y0214102D01*
X0136318Y0213368D02*
X0136318Y0211900D01*
X0135951Y0211900D02*
X0136685Y0211900D01*
X0137425Y0212267D02*
X0137792Y0211900D01*
X0138893Y0211900D01*
X0138893Y0213368D02*
X0137792Y0213368D01*
X0137425Y0213001D01*
X0137425Y0212267D01*
X0136318Y0213368D02*
X0135951Y0213368D01*
X0135211Y0213368D02*
X0134844Y0213368D01*
X0134110Y0212634D01*
X0134110Y0211900D02*
X0134110Y0213368D01*
X0133368Y0214102D02*
X0131900Y0214102D01*
X0131900Y0211900D01*
X0133368Y0211900D01*
X0132634Y0213001D02*
X0131900Y0213001D01*
X0131900Y0209102D02*
X0133368Y0209102D01*
X0132634Y0208001D02*
X0131900Y0208001D01*
X0131900Y0206900D02*
X0131900Y0209102D01*
X0134477Y0208368D02*
X0135211Y0208368D01*
X0135578Y0208001D01*
X0135578Y0206900D01*
X0134477Y0206900D01*
X0134110Y0207267D01*
X0134477Y0207634D01*
X0135578Y0207634D01*
X0136320Y0207634D02*
X0137054Y0208368D01*
X0137421Y0208368D01*
X0138161Y0208001D02*
X0138528Y0208368D01*
X0139262Y0208368D01*
X0139629Y0208001D01*
X0139629Y0207634D01*
X0138161Y0207634D01*
X0138161Y0207267D02*
X0138161Y0208001D01*
X0138161Y0207267D02*
X0138528Y0206900D01*
X0139262Y0206900D01*
X0140371Y0206900D02*
X0141839Y0208368D01*
X0140371Y0208368D01*
X0140371Y0206900D02*
X0141839Y0206900D01*
X0141840Y0203368D02*
X0142207Y0203001D01*
X0142207Y0201900D01*
X0141106Y0201900D01*
X0140740Y0202267D01*
X0141106Y0202634D01*
X0142207Y0202634D01*
X0141840Y0203368D02*
X0141106Y0203368D01*
X0139998Y0203001D02*
X0139998Y0201900D01*
X0139264Y0201900D02*
X0139264Y0203001D01*
X0139631Y0203368D01*
X0139998Y0203001D01*
X0139264Y0203001D02*
X0138897Y0203368D01*
X0138530Y0203368D01*
X0138530Y0201900D01*
X0137788Y0201900D02*
X0137788Y0203001D01*
X0137421Y0203368D01*
X0137054Y0203001D01*
X0137054Y0201900D01*
X0136320Y0201900D02*
X0136320Y0203368D01*
X0136687Y0203368D01*
X0137054Y0203001D01*
X0135578Y0203368D02*
X0135578Y0201900D01*
X0134477Y0201900D01*
X0134110Y0202267D01*
X0134110Y0203368D01*
X0133368Y0203735D02*
X0133368Y0203001D01*
X0133001Y0202634D01*
X0131900Y0202634D01*
X0132634Y0202634D02*
X0133368Y0201900D01*
X0131900Y0201900D02*
X0131900Y0204102D01*
X0133001Y0204102D01*
X0133368Y0203735D01*
X0136320Y0206900D02*
X0136320Y0208368D01*
X0142949Y0203368D02*
X0142949Y0201900D01*
X0142949Y0203368D02*
X0144050Y0203368D01*
X0144417Y0203001D01*
X0144417Y0201900D01*
X0144049Y0216900D02*
X0142948Y0216900D01*
X0142581Y0217267D01*
X0142581Y0218001D01*
X0142948Y0218368D01*
X0144049Y0218368D01*
X0144049Y0219102D02*
X0144049Y0216900D01*
X0144791Y0217267D02*
X0145158Y0216900D01*
X0145892Y0216900D01*
X0146259Y0217267D01*
X0146259Y0218001D01*
X0145892Y0218368D01*
X0145158Y0218368D01*
X0144791Y0218001D01*
X0144791Y0217267D01*
X0141839Y0217634D02*
X0140371Y0217634D01*
X0140371Y0218001D02*
X0140738Y0218368D01*
X0141472Y0218368D01*
X0141839Y0218001D01*
X0141839Y0217634D01*
X0141472Y0216900D02*
X0140738Y0216900D01*
X0140371Y0217267D01*
X0140371Y0218001D01*
X0160131Y0223702D02*
X0160131Y0224002D01*
X0168424Y0223702D02*
X0168424Y0221900D01*
D12*
X0181800Y0151800D02*
X0186800Y0151800D01*
X0191800Y0151800D01*
X0191800Y0148300D02*
X0186800Y0148300D01*
X0181800Y0148300D01*
X0181800Y0066800D02*
X0186800Y0066800D01*
X0191800Y0066800D01*
X0191800Y0063300D02*
X0186800Y0063300D01*
X0181800Y0063300D01*
X0091800Y0176800D02*
X0091800Y0246800D01*
X0011800Y0246800D01*
X0011800Y0176800D01*
X0091800Y0176800D01*
D13*
X0086662Y0162981D02*
X0086662Y0160619D01*
X0081938Y0160619D02*
X0081938Y0162981D01*
X0071662Y0162981D02*
X0071662Y0160619D01*
X0066938Y0160619D02*
X0066938Y0162981D01*
X0059162Y0162981D02*
X0059162Y0160619D01*
X0054438Y0160619D02*
X0054438Y0162981D01*
X0046662Y0162981D02*
X0046662Y0160619D01*
X0041938Y0160619D02*
X0041938Y0162981D01*
X0031662Y0162981D02*
X0031662Y0160619D01*
X0026938Y0160619D02*
X0026938Y0162981D01*
X0026938Y0147981D02*
X0026938Y0145619D01*
X0031662Y0145619D02*
X0031662Y0147981D01*
X0081938Y0147981D02*
X0081938Y0145619D01*
X0086662Y0145619D02*
X0086662Y0147981D01*
X0121300Y0146800D02*
X0121300Y0154300D01*
X0162300Y0154300D01*
X0162300Y0146800D01*
X0158800Y0146800D01*
X0158800Y0140800D01*
X0162300Y0140800D01*
X0162300Y0091800D01*
X0121300Y0091800D01*
X0121300Y0140800D01*
X0124800Y0140800D01*
X0124800Y0146800D01*
X0121300Y0146800D01*
X0134700Y0140800D02*
X0134702Y0140974D01*
X0134709Y0141148D01*
X0134719Y0141322D01*
X0134734Y0141496D01*
X0134753Y0141669D01*
X0134777Y0141842D01*
X0134805Y0142014D01*
X0134836Y0142185D01*
X0134873Y0142356D01*
X0134913Y0142525D01*
X0134957Y0142694D01*
X0135006Y0142861D01*
X0135058Y0143027D01*
X0135115Y0143192D01*
X0135176Y0143355D01*
X0135240Y0143517D01*
X0135309Y0143677D01*
X0135382Y0143836D01*
X0135458Y0143992D01*
X0135538Y0144147D01*
X0135622Y0144300D01*
X0135710Y0144450D01*
X0135802Y0144598D01*
X0135897Y0144745D01*
X0135995Y0144888D01*
X0136097Y0145029D01*
X0136203Y0145168D01*
X0136312Y0145304D01*
X0136424Y0145438D01*
X0136539Y0145568D01*
X0136658Y0145696D01*
X0136780Y0145820D01*
X0136904Y0145942D01*
X0137032Y0146061D01*
X0137162Y0146176D01*
X0137296Y0146288D01*
X0137432Y0146397D01*
X0137571Y0146503D01*
X0137712Y0146605D01*
X0137855Y0146703D01*
X0138002Y0146798D01*
X0138150Y0146890D01*
X0138300Y0146978D01*
X0138453Y0147062D01*
X0138608Y0147142D01*
X0138764Y0147218D01*
X0138923Y0147291D01*
X0139083Y0147360D01*
X0139245Y0147424D01*
X0139408Y0147485D01*
X0139573Y0147542D01*
X0139739Y0147594D01*
X0139906Y0147643D01*
X0140075Y0147687D01*
X0140244Y0147727D01*
X0140415Y0147764D01*
X0140586Y0147795D01*
X0140758Y0147823D01*
X0140931Y0147847D01*
X0141104Y0147866D01*
X0141278Y0147881D01*
X0141452Y0147891D01*
X0141626Y0147898D01*
X0141800Y0147900D01*
X0141974Y0147898D01*
X0142148Y0147891D01*
X0142322Y0147881D01*
X0142496Y0147866D01*
X0142669Y0147847D01*
X0142842Y0147823D01*
X0143014Y0147795D01*
X0143185Y0147764D01*
X0143356Y0147727D01*
X0143525Y0147687D01*
X0143694Y0147643D01*
X0143861Y0147594D01*
X0144027Y0147542D01*
X0144192Y0147485D01*
X0144355Y0147424D01*
X0144517Y0147360D01*
X0144677Y0147291D01*
X0144836Y0147218D01*
X0144992Y0147142D01*
X0145147Y0147062D01*
X0145300Y0146978D01*
X0145450Y0146890D01*
X0145598Y0146798D01*
X0145745Y0146703D01*
X0145888Y0146605D01*
X0146029Y0146503D01*
X0146168Y0146397D01*
X0146304Y0146288D01*
X0146438Y0146176D01*
X0146568Y0146061D01*
X0146696Y0145942D01*
X0146820Y0145820D01*
X0146942Y0145696D01*
X0147061Y0145568D01*
X0147176Y0145438D01*
X0147288Y0145304D01*
X0147397Y0145168D01*
X0147503Y0145029D01*
X0147605Y0144888D01*
X0147703Y0144745D01*
X0147798Y0144598D01*
X0147890Y0144450D01*
X0147978Y0144300D01*
X0148062Y0144147D01*
X0148142Y0143992D01*
X0148218Y0143836D01*
X0148291Y0143677D01*
X0148360Y0143517D01*
X0148424Y0143355D01*
X0148485Y0143192D01*
X0148542Y0143027D01*
X0148594Y0142861D01*
X0148643Y0142694D01*
X0148687Y0142525D01*
X0148727Y0142356D01*
X0148764Y0142185D01*
X0148795Y0142014D01*
X0148823Y0141842D01*
X0148847Y0141669D01*
X0148866Y0141496D01*
X0148881Y0141322D01*
X0148891Y0141148D01*
X0148898Y0140974D01*
X0148900Y0140800D01*
X0148898Y0140626D01*
X0148891Y0140452D01*
X0148881Y0140278D01*
X0148866Y0140104D01*
X0148847Y0139931D01*
X0148823Y0139758D01*
X0148795Y0139586D01*
X0148764Y0139415D01*
X0148727Y0139244D01*
X0148687Y0139075D01*
X0148643Y0138906D01*
X0148594Y0138739D01*
X0148542Y0138573D01*
X0148485Y0138408D01*
X0148424Y0138245D01*
X0148360Y0138083D01*
X0148291Y0137923D01*
X0148218Y0137764D01*
X0148142Y0137608D01*
X0148062Y0137453D01*
X0147978Y0137300D01*
X0147890Y0137150D01*
X0147798Y0137002D01*
X0147703Y0136855D01*
X0147605Y0136712D01*
X0147503Y0136571D01*
X0147397Y0136432D01*
X0147288Y0136296D01*
X0147176Y0136162D01*
X0147061Y0136032D01*
X0146942Y0135904D01*
X0146820Y0135780D01*
X0146696Y0135658D01*
X0146568Y0135539D01*
X0146438Y0135424D01*
X0146304Y0135312D01*
X0146168Y0135203D01*
X0146029Y0135097D01*
X0145888Y0134995D01*
X0145745Y0134897D01*
X0145598Y0134802D01*
X0145450Y0134710D01*
X0145300Y0134622D01*
X0145147Y0134538D01*
X0144992Y0134458D01*
X0144836Y0134382D01*
X0144677Y0134309D01*
X0144517Y0134240D01*
X0144355Y0134176D01*
X0144192Y0134115D01*
X0144027Y0134058D01*
X0143861Y0134006D01*
X0143694Y0133957D01*
X0143525Y0133913D01*
X0143356Y0133873D01*
X0143185Y0133836D01*
X0143014Y0133805D01*
X0142842Y0133777D01*
X0142669Y0133753D01*
X0142496Y0133734D01*
X0142322Y0133719D01*
X0142148Y0133709D01*
X0141974Y0133702D01*
X0141800Y0133700D01*
X0141626Y0133702D01*
X0141452Y0133709D01*
X0141278Y0133719D01*
X0141104Y0133734D01*
X0140931Y0133753D01*
X0140758Y0133777D01*
X0140586Y0133805D01*
X0140415Y0133836D01*
X0140244Y0133873D01*
X0140075Y0133913D01*
X0139906Y0133957D01*
X0139739Y0134006D01*
X0139573Y0134058D01*
X0139408Y0134115D01*
X0139245Y0134176D01*
X0139083Y0134240D01*
X0138923Y0134309D01*
X0138764Y0134382D01*
X0138608Y0134458D01*
X0138453Y0134538D01*
X0138300Y0134622D01*
X0138150Y0134710D01*
X0138002Y0134802D01*
X0137855Y0134897D01*
X0137712Y0134995D01*
X0137571Y0135097D01*
X0137432Y0135203D01*
X0137296Y0135312D01*
X0137162Y0135424D01*
X0137032Y0135539D01*
X0136904Y0135658D01*
X0136780Y0135780D01*
X0136658Y0135904D01*
X0136539Y0136032D01*
X0136424Y0136162D01*
X0136312Y0136296D01*
X0136203Y0136432D01*
X0136097Y0136571D01*
X0135995Y0136712D01*
X0135897Y0136855D01*
X0135802Y0137002D01*
X0135710Y0137150D01*
X0135622Y0137300D01*
X0135538Y0137453D01*
X0135458Y0137608D01*
X0135382Y0137764D01*
X0135309Y0137923D01*
X0135240Y0138083D01*
X0135176Y0138245D01*
X0135115Y0138408D01*
X0135058Y0138573D01*
X0135006Y0138739D01*
X0134957Y0138906D01*
X0134913Y0139075D01*
X0134873Y0139244D01*
X0134836Y0139415D01*
X0134805Y0139586D01*
X0134777Y0139758D01*
X0134753Y0139931D01*
X0134734Y0140104D01*
X0134719Y0140278D01*
X0134709Y0140452D01*
X0134702Y0140626D01*
X0134700Y0140800D01*
X0176800Y0165300D02*
X0176800Y0098300D01*
X0176802Y0098213D01*
X0176808Y0098126D01*
X0176817Y0098039D01*
X0176830Y0097953D01*
X0176847Y0097867D01*
X0176868Y0097782D01*
X0176893Y0097699D01*
X0176921Y0097616D01*
X0176952Y0097535D01*
X0176987Y0097455D01*
X0177026Y0097377D01*
X0177068Y0097300D01*
X0177113Y0097225D01*
X0177162Y0097153D01*
X0177213Y0097082D01*
X0177268Y0097014D01*
X0177325Y0096949D01*
X0177386Y0096886D01*
X0177449Y0096825D01*
X0177514Y0096768D01*
X0177582Y0096713D01*
X0177653Y0096662D01*
X0177725Y0096613D01*
X0177800Y0096568D01*
X0177877Y0096526D01*
X0177955Y0096487D01*
X0178035Y0096452D01*
X0178116Y0096421D01*
X0178199Y0096393D01*
X0178282Y0096368D01*
X0178367Y0096347D01*
X0178453Y0096330D01*
X0178539Y0096317D01*
X0178626Y0096308D01*
X0178713Y0096302D01*
X0178800Y0096300D01*
X0194800Y0096300D01*
X0194887Y0096302D01*
X0194974Y0096308D01*
X0195061Y0096317D01*
X0195147Y0096330D01*
X0195233Y0096347D01*
X0195318Y0096368D01*
X0195401Y0096393D01*
X0195484Y0096421D01*
X0195565Y0096452D01*
X0195645Y0096487D01*
X0195723Y0096526D01*
X0195800Y0096568D01*
X0195875Y0096613D01*
X0195947Y0096662D01*
X0196018Y0096713D01*
X0196086Y0096768D01*
X0196151Y0096825D01*
X0196214Y0096886D01*
X0196275Y0096949D01*
X0196332Y0097014D01*
X0196387Y0097082D01*
X0196438Y0097153D01*
X0196487Y0097225D01*
X0196532Y0097300D01*
X0196574Y0097377D01*
X0196613Y0097455D01*
X0196648Y0097535D01*
X0196679Y0097616D01*
X0196707Y0097699D01*
X0196732Y0097782D01*
X0196753Y0097867D01*
X0196770Y0097953D01*
X0196783Y0098039D01*
X0196792Y0098126D01*
X0196798Y0098213D01*
X0196800Y0098300D01*
X0196800Y0165300D01*
X0196798Y0165387D01*
X0196792Y0165474D01*
X0196783Y0165561D01*
X0196770Y0165647D01*
X0196753Y0165733D01*
X0196732Y0165818D01*
X0196707Y0165901D01*
X0196679Y0165984D01*
X0196648Y0166065D01*
X0196613Y0166145D01*
X0196574Y0166223D01*
X0196532Y0166300D01*
X0196487Y0166375D01*
X0196438Y0166447D01*
X0196387Y0166518D01*
X0196332Y0166586D01*
X0196275Y0166651D01*
X0196214Y0166714D01*
X0196151Y0166775D01*
X0196086Y0166832D01*
X0196018Y0166887D01*
X0195947Y0166938D01*
X0195875Y0166987D01*
X0195800Y0167032D01*
X0195723Y0167074D01*
X0195645Y0167113D01*
X0195565Y0167148D01*
X0195484Y0167179D01*
X0195401Y0167207D01*
X0195318Y0167232D01*
X0195233Y0167253D01*
X0195147Y0167270D01*
X0195061Y0167283D01*
X0194974Y0167292D01*
X0194887Y0167298D01*
X0194800Y0167300D01*
X0178800Y0167300D01*
X0178713Y0167298D01*
X0178626Y0167292D01*
X0178539Y0167283D01*
X0178453Y0167270D01*
X0178367Y0167253D01*
X0178282Y0167232D01*
X0178199Y0167207D01*
X0178116Y0167179D01*
X0178035Y0167148D01*
X0177955Y0167113D01*
X0177877Y0167074D01*
X0177800Y0167032D01*
X0177725Y0166987D01*
X0177653Y0166938D01*
X0177582Y0166887D01*
X0177514Y0166832D01*
X0177449Y0166775D01*
X0177386Y0166714D01*
X0177325Y0166651D01*
X0177268Y0166586D01*
X0177213Y0166518D01*
X0177162Y0166447D01*
X0177113Y0166375D01*
X0177068Y0166300D01*
X0177026Y0166223D01*
X0176987Y0166145D01*
X0176952Y0166065D01*
X0176921Y0165984D01*
X0176893Y0165901D01*
X0176868Y0165818D01*
X0176847Y0165733D01*
X0176830Y0165647D01*
X0176817Y0165561D01*
X0176808Y0165474D01*
X0176802Y0165387D01*
X0176800Y0165300D01*
X0186800Y0155800D02*
X0186800Y0151800D01*
X0186800Y0148300D02*
X0186800Y0107800D01*
X0178800Y0082300D02*
X0194800Y0082300D01*
X0194887Y0082298D01*
X0194974Y0082292D01*
X0195061Y0082283D01*
X0195147Y0082270D01*
X0195233Y0082253D01*
X0195318Y0082232D01*
X0195401Y0082207D01*
X0195484Y0082179D01*
X0195565Y0082148D01*
X0195645Y0082113D01*
X0195723Y0082074D01*
X0195800Y0082032D01*
X0195875Y0081987D01*
X0195947Y0081938D01*
X0196018Y0081887D01*
X0196086Y0081832D01*
X0196151Y0081775D01*
X0196214Y0081714D01*
X0196275Y0081651D01*
X0196332Y0081586D01*
X0196387Y0081518D01*
X0196438Y0081447D01*
X0196487Y0081375D01*
X0196532Y0081300D01*
X0196574Y0081223D01*
X0196613Y0081145D01*
X0196648Y0081065D01*
X0196679Y0080984D01*
X0196707Y0080901D01*
X0196732Y0080818D01*
X0196753Y0080733D01*
X0196770Y0080647D01*
X0196783Y0080561D01*
X0196792Y0080474D01*
X0196798Y0080387D01*
X0196800Y0080300D01*
X0196800Y0013300D01*
X0196798Y0013213D01*
X0196792Y0013126D01*
X0196783Y0013039D01*
X0196770Y0012953D01*
X0196753Y0012867D01*
X0196732Y0012782D01*
X0196707Y0012699D01*
X0196679Y0012616D01*
X0196648Y0012535D01*
X0196613Y0012455D01*
X0196574Y0012377D01*
X0196532Y0012300D01*
X0196487Y0012225D01*
X0196438Y0012153D01*
X0196387Y0012082D01*
X0196332Y0012014D01*
X0196275Y0011949D01*
X0196214Y0011886D01*
X0196151Y0011825D01*
X0196086Y0011768D01*
X0196018Y0011713D01*
X0195947Y0011662D01*
X0195875Y0011613D01*
X0195800Y0011568D01*
X0195723Y0011526D01*
X0195645Y0011487D01*
X0195565Y0011452D01*
X0195484Y0011421D01*
X0195401Y0011393D01*
X0195318Y0011368D01*
X0195233Y0011347D01*
X0195147Y0011330D01*
X0195061Y0011317D01*
X0194974Y0011308D01*
X0194887Y0011302D01*
X0194800Y0011300D01*
X0178800Y0011300D01*
X0178713Y0011302D01*
X0178626Y0011308D01*
X0178539Y0011317D01*
X0178453Y0011330D01*
X0178367Y0011347D01*
X0178282Y0011368D01*
X0178199Y0011393D01*
X0178116Y0011421D01*
X0178035Y0011452D01*
X0177955Y0011487D01*
X0177877Y0011526D01*
X0177800Y0011568D01*
X0177725Y0011613D01*
X0177653Y0011662D01*
X0177582Y0011713D01*
X0177514Y0011768D01*
X0177449Y0011825D01*
X0177386Y0011886D01*
X0177325Y0011949D01*
X0177268Y0012014D01*
X0177213Y0012082D01*
X0177162Y0012153D01*
X0177113Y0012225D01*
X0177068Y0012300D01*
X0177026Y0012377D01*
X0176987Y0012455D01*
X0176952Y0012535D01*
X0176921Y0012616D01*
X0176893Y0012699D01*
X0176868Y0012782D01*
X0176847Y0012867D01*
X0176830Y0012953D01*
X0176817Y0013039D01*
X0176808Y0013126D01*
X0176802Y0013213D01*
X0176800Y0013300D01*
X0176800Y0080300D01*
X0176802Y0080387D01*
X0176808Y0080474D01*
X0176817Y0080561D01*
X0176830Y0080647D01*
X0176847Y0080733D01*
X0176868Y0080818D01*
X0176893Y0080901D01*
X0176921Y0080984D01*
X0176952Y0081065D01*
X0176987Y0081145D01*
X0177026Y0081223D01*
X0177068Y0081300D01*
X0177113Y0081375D01*
X0177162Y0081447D01*
X0177213Y0081518D01*
X0177268Y0081586D01*
X0177325Y0081651D01*
X0177386Y0081714D01*
X0177449Y0081775D01*
X0177514Y0081832D01*
X0177582Y0081887D01*
X0177653Y0081938D01*
X0177725Y0081987D01*
X0177800Y0082032D01*
X0177877Y0082074D01*
X0177955Y0082113D01*
X0178035Y0082148D01*
X0178116Y0082179D01*
X0178199Y0082207D01*
X0178282Y0082232D01*
X0178367Y0082253D01*
X0178453Y0082270D01*
X0178539Y0082283D01*
X0178626Y0082292D01*
X0178713Y0082298D01*
X0178800Y0082300D01*
X0186800Y0070800D02*
X0186800Y0066800D01*
X0186800Y0063300D02*
X0186800Y0022800D01*
X0218800Y0041800D02*
X0218800Y0051800D01*
X0234800Y0051800D01*
X0234800Y0041800D01*
X0218800Y0041800D01*
X0224300Y0046800D02*
X0226800Y0046800D01*
X0226800Y0044300D01*
X0226800Y0046800D02*
X0226800Y0049300D01*
X0226800Y0046800D02*
X0230800Y0049300D01*
X0230800Y0044300D01*
X0226800Y0046800D01*
X0232800Y0046800D01*
X0252300Y0091800D02*
X0211300Y0091800D01*
X0211300Y0140800D01*
X0214800Y0140800D01*
X0214800Y0146800D01*
X0211300Y0146800D01*
X0211300Y0154300D01*
X0252300Y0154300D01*
X0252300Y0146800D01*
X0248800Y0146800D01*
X0248800Y0140800D01*
X0252300Y0140800D01*
X0252300Y0091800D01*
X0224700Y0140800D02*
X0224702Y0140974D01*
X0224709Y0141148D01*
X0224719Y0141322D01*
X0224734Y0141496D01*
X0224753Y0141669D01*
X0224777Y0141842D01*
X0224805Y0142014D01*
X0224836Y0142185D01*
X0224873Y0142356D01*
X0224913Y0142525D01*
X0224957Y0142694D01*
X0225006Y0142861D01*
X0225058Y0143027D01*
X0225115Y0143192D01*
X0225176Y0143355D01*
X0225240Y0143517D01*
X0225309Y0143677D01*
X0225382Y0143836D01*
X0225458Y0143992D01*
X0225538Y0144147D01*
X0225622Y0144300D01*
X0225710Y0144450D01*
X0225802Y0144598D01*
X0225897Y0144745D01*
X0225995Y0144888D01*
X0226097Y0145029D01*
X0226203Y0145168D01*
X0226312Y0145304D01*
X0226424Y0145438D01*
X0226539Y0145568D01*
X0226658Y0145696D01*
X0226780Y0145820D01*
X0226904Y0145942D01*
X0227032Y0146061D01*
X0227162Y0146176D01*
X0227296Y0146288D01*
X0227432Y0146397D01*
X0227571Y0146503D01*
X0227712Y0146605D01*
X0227855Y0146703D01*
X0228002Y0146798D01*
X0228150Y0146890D01*
X0228300Y0146978D01*
X0228453Y0147062D01*
X0228608Y0147142D01*
X0228764Y0147218D01*
X0228923Y0147291D01*
X0229083Y0147360D01*
X0229245Y0147424D01*
X0229408Y0147485D01*
X0229573Y0147542D01*
X0229739Y0147594D01*
X0229906Y0147643D01*
X0230075Y0147687D01*
X0230244Y0147727D01*
X0230415Y0147764D01*
X0230586Y0147795D01*
X0230758Y0147823D01*
X0230931Y0147847D01*
X0231104Y0147866D01*
X0231278Y0147881D01*
X0231452Y0147891D01*
X0231626Y0147898D01*
X0231800Y0147900D01*
X0231974Y0147898D01*
X0232148Y0147891D01*
X0232322Y0147881D01*
X0232496Y0147866D01*
X0232669Y0147847D01*
X0232842Y0147823D01*
X0233014Y0147795D01*
X0233185Y0147764D01*
X0233356Y0147727D01*
X0233525Y0147687D01*
X0233694Y0147643D01*
X0233861Y0147594D01*
X0234027Y0147542D01*
X0234192Y0147485D01*
X0234355Y0147424D01*
X0234517Y0147360D01*
X0234677Y0147291D01*
X0234836Y0147218D01*
X0234992Y0147142D01*
X0235147Y0147062D01*
X0235300Y0146978D01*
X0235450Y0146890D01*
X0235598Y0146798D01*
X0235745Y0146703D01*
X0235888Y0146605D01*
X0236029Y0146503D01*
X0236168Y0146397D01*
X0236304Y0146288D01*
X0236438Y0146176D01*
X0236568Y0146061D01*
X0236696Y0145942D01*
X0236820Y0145820D01*
X0236942Y0145696D01*
X0237061Y0145568D01*
X0237176Y0145438D01*
X0237288Y0145304D01*
X0237397Y0145168D01*
X0237503Y0145029D01*
X0237605Y0144888D01*
X0237703Y0144745D01*
X0237798Y0144598D01*
X0237890Y0144450D01*
X0237978Y0144300D01*
X0238062Y0144147D01*
X0238142Y0143992D01*
X0238218Y0143836D01*
X0238291Y0143677D01*
X0238360Y0143517D01*
X0238424Y0143355D01*
X0238485Y0143192D01*
X0238542Y0143027D01*
X0238594Y0142861D01*
X0238643Y0142694D01*
X0238687Y0142525D01*
X0238727Y0142356D01*
X0238764Y0142185D01*
X0238795Y0142014D01*
X0238823Y0141842D01*
X0238847Y0141669D01*
X0238866Y0141496D01*
X0238881Y0141322D01*
X0238891Y0141148D01*
X0238898Y0140974D01*
X0238900Y0140800D01*
X0238898Y0140626D01*
X0238891Y0140452D01*
X0238881Y0140278D01*
X0238866Y0140104D01*
X0238847Y0139931D01*
X0238823Y0139758D01*
X0238795Y0139586D01*
X0238764Y0139415D01*
X0238727Y0139244D01*
X0238687Y0139075D01*
X0238643Y0138906D01*
X0238594Y0138739D01*
X0238542Y0138573D01*
X0238485Y0138408D01*
X0238424Y0138245D01*
X0238360Y0138083D01*
X0238291Y0137923D01*
X0238218Y0137764D01*
X0238142Y0137608D01*
X0238062Y0137453D01*
X0237978Y0137300D01*
X0237890Y0137150D01*
X0237798Y0137002D01*
X0237703Y0136855D01*
X0237605Y0136712D01*
X0237503Y0136571D01*
X0237397Y0136432D01*
X0237288Y0136296D01*
X0237176Y0136162D01*
X0237061Y0136032D01*
X0236942Y0135904D01*
X0236820Y0135780D01*
X0236696Y0135658D01*
X0236568Y0135539D01*
X0236438Y0135424D01*
X0236304Y0135312D01*
X0236168Y0135203D01*
X0236029Y0135097D01*
X0235888Y0134995D01*
X0235745Y0134897D01*
X0235598Y0134802D01*
X0235450Y0134710D01*
X0235300Y0134622D01*
X0235147Y0134538D01*
X0234992Y0134458D01*
X0234836Y0134382D01*
X0234677Y0134309D01*
X0234517Y0134240D01*
X0234355Y0134176D01*
X0234192Y0134115D01*
X0234027Y0134058D01*
X0233861Y0134006D01*
X0233694Y0133957D01*
X0233525Y0133913D01*
X0233356Y0133873D01*
X0233185Y0133836D01*
X0233014Y0133805D01*
X0232842Y0133777D01*
X0232669Y0133753D01*
X0232496Y0133734D01*
X0232322Y0133719D01*
X0232148Y0133709D01*
X0231974Y0133702D01*
X0231800Y0133700D01*
X0231626Y0133702D01*
X0231452Y0133709D01*
X0231278Y0133719D01*
X0231104Y0133734D01*
X0230931Y0133753D01*
X0230758Y0133777D01*
X0230586Y0133805D01*
X0230415Y0133836D01*
X0230244Y0133873D01*
X0230075Y0133913D01*
X0229906Y0133957D01*
X0229739Y0134006D01*
X0229573Y0134058D01*
X0229408Y0134115D01*
X0229245Y0134176D01*
X0229083Y0134240D01*
X0228923Y0134309D01*
X0228764Y0134382D01*
X0228608Y0134458D01*
X0228453Y0134538D01*
X0228300Y0134622D01*
X0228150Y0134710D01*
X0228002Y0134802D01*
X0227855Y0134897D01*
X0227712Y0134995D01*
X0227571Y0135097D01*
X0227432Y0135203D01*
X0227296Y0135312D01*
X0227162Y0135424D01*
X0227032Y0135539D01*
X0226904Y0135658D01*
X0226780Y0135780D01*
X0226658Y0135904D01*
X0226539Y0136032D01*
X0226424Y0136162D01*
X0226312Y0136296D01*
X0226203Y0136432D01*
X0226097Y0136571D01*
X0225995Y0136712D01*
X0225897Y0136855D01*
X0225802Y0137002D01*
X0225710Y0137150D01*
X0225622Y0137300D01*
X0225538Y0137453D01*
X0225458Y0137608D01*
X0225382Y0137764D01*
X0225309Y0137923D01*
X0225240Y0138083D01*
X0225176Y0138245D01*
X0225115Y0138408D01*
X0225058Y0138573D01*
X0225006Y0138739D01*
X0224957Y0138906D01*
X0224913Y0139075D01*
X0224873Y0139244D01*
X0224836Y0139415D01*
X0224805Y0139586D01*
X0224777Y0139758D01*
X0224753Y0139931D01*
X0224734Y0140104D01*
X0224719Y0140278D01*
X0224709Y0140452D01*
X0224702Y0140626D01*
X0224700Y0140800D01*
X0139800Y0051800D02*
X0123800Y0051800D01*
X0123800Y0041800D01*
X0139800Y0041800D01*
X0139800Y0051800D01*
X0135800Y0049300D02*
X0131800Y0046800D01*
X0131800Y0044300D01*
X0131800Y0046800D02*
X0129300Y0046800D01*
X0131800Y0046800D02*
X0131800Y0049300D01*
X0131800Y0046800D02*
X0137800Y0046800D01*
X0135800Y0044300D02*
X0131800Y0046800D01*
X0135800Y0049300D02*
X0135800Y0044300D01*
D14*
X0071111Y0146131D02*
X0069300Y0146131D01*
X0068380Y0147351D01*
X0067489Y0146131D02*
X0069300Y0146131D01*
X0069400Y0146191D02*
X0070160Y0147351D01*
X0058611Y0147469D02*
X0056800Y0147469D01*
X0057720Y0146249D01*
X0056800Y0147469D02*
X0054989Y0147469D01*
X0055940Y0146249D02*
X0056700Y0147409D01*
X0046111Y0147469D02*
X0044300Y0147469D01*
X0045220Y0146249D01*
X0044300Y0147469D02*
X0042489Y0147469D01*
X0043440Y0146249D02*
X0044200Y0147409D01*
X0111800Y0176800D02*
X0111800Y0246800D01*
X0251800Y0246800D01*
X0251800Y0216800D01*
X0246800Y0216800D01*
X0246800Y0206800D01*
X0251800Y0206800D01*
X0251800Y0176800D01*
X0111800Y0176800D01*
X0064300Y0231800D02*
X0059300Y0231800D01*
X0056800Y0234300D01*
X0054300Y0231800D01*
X0049300Y0231800D01*
X0046800Y0234300D01*
X0044300Y0231800D01*
X0039300Y0231800D01*
X0036800Y0234300D01*
X0034300Y0231800D01*
X0029300Y0231800D01*
X0026800Y0234300D01*
X0024300Y0231800D01*
X0019300Y0231800D01*
X0016800Y0234300D01*
X0016800Y0239300D01*
X0019300Y0241800D01*
X0024300Y0241800D01*
X0026800Y0239300D01*
X0029300Y0241800D01*
X0034300Y0241800D01*
X0036800Y0239300D01*
X0039300Y0241800D01*
X0044300Y0241800D01*
X0046800Y0239300D01*
X0049300Y0241800D01*
X0054300Y0241800D01*
X0056800Y0239300D01*
X0059300Y0241800D01*
X0064300Y0241800D01*
X0066800Y0239300D01*
X0066800Y0234300D01*
X0064300Y0231800D01*
D15*
X0065749Y0229354D02*
X0062746Y0229354D01*
X0062746Y0227102D01*
X0064247Y0227853D01*
X0064998Y0227853D01*
X0065749Y0227102D01*
X0065749Y0225601D01*
X0064998Y0224850D01*
X0063497Y0224850D01*
X0062746Y0225601D01*
X0059643Y0227102D02*
X0058142Y0227102D01*
X0056541Y0227853D02*
X0056541Y0228603D01*
X0055790Y0229354D01*
X0054289Y0229354D01*
X0053538Y0228603D01*
X0051937Y0228603D02*
X0051186Y0229354D01*
X0049685Y0229354D01*
X0048934Y0228603D01*
X0047333Y0229354D02*
X0047333Y0226351D01*
X0045832Y0224850D01*
X0044330Y0226351D01*
X0044330Y0229354D01*
X0041978Y0229354D02*
X0039726Y0227102D01*
X0042729Y0227102D01*
X0041978Y0224850D02*
X0041978Y0229354D01*
X0038125Y0228603D02*
X0037374Y0229354D01*
X0035873Y0229354D01*
X0035122Y0228603D01*
X0033521Y0228603D02*
X0033521Y0225601D01*
X0032770Y0224850D01*
X0030519Y0224850D01*
X0030519Y0229354D01*
X0032770Y0229354D01*
X0033521Y0228603D01*
X0035122Y0224850D02*
X0038125Y0227853D01*
X0038125Y0228603D01*
X0038125Y0224850D02*
X0035122Y0224850D01*
X0048934Y0224850D02*
X0051937Y0227853D01*
X0051937Y0228603D01*
X0051937Y0224850D02*
X0048934Y0224850D01*
X0053538Y0224850D02*
X0056541Y0227853D01*
X0058142Y0229354D02*
X0058142Y0224850D01*
X0056541Y0224850D02*
X0053538Y0224850D01*
X0058142Y0229354D02*
X0061145Y0229354D01*
X0132700Y0224700D02*
X0145000Y0231300D01*
X0145200Y0231400D02*
X0145200Y0224700D01*
X0146500Y0224700D02*
X0146500Y0226600D01*
X0158800Y0226600D01*
X0158900Y0226600D01*
X0159000Y0226600D02*
X0159050Y0226609D01*
X0159099Y0226621D01*
X0159147Y0226637D01*
X0159193Y0226656D01*
X0159238Y0226678D01*
X0159282Y0226704D01*
X0159323Y0226733D01*
X0159362Y0226765D01*
X0159399Y0226799D01*
X0159433Y0226836D01*
X0159465Y0226875D01*
X0159493Y0226917D01*
X0159518Y0226961D01*
X0159540Y0227006D01*
X0159559Y0227053D01*
X0159574Y0227101D01*
X0159586Y0227150D01*
X0159594Y0227199D01*
X0159599Y0227249D01*
X0159600Y0227300D01*
X0159600Y0227200D01*
X0159600Y0227300D02*
X0159600Y0230700D01*
X0159591Y0230750D01*
X0159579Y0230799D01*
X0159563Y0230847D01*
X0159544Y0230893D01*
X0159522Y0230938D01*
X0159496Y0230982D01*
X0159467Y0231023D01*
X0159435Y0231062D01*
X0159401Y0231099D01*
X0159364Y0231133D01*
X0159325Y0231165D01*
X0159283Y0231193D01*
X0159239Y0231218D01*
X0159194Y0231240D01*
X0159147Y0231259D01*
X0159099Y0231274D01*
X0159050Y0231286D01*
X0159001Y0231294D01*
X0158951Y0231299D01*
X0158900Y0231300D01*
X0146500Y0231300D01*
X0146500Y0226600D01*
X0145000Y0226600D02*
X0136300Y0226600D01*
X0158800Y0226600D02*
X0158850Y0226599D01*
X0158900Y0226594D01*
X0158950Y0226586D01*
X0158999Y0226575D01*
X0159047Y0226559D01*
X0159094Y0226540D01*
X0159139Y0226518D01*
X0159183Y0226493D01*
X0159225Y0226465D01*
X0159264Y0226433D01*
X0159301Y0226399D01*
X0159336Y0226362D01*
X0159367Y0226323D01*
X0159396Y0226282D01*
X0159422Y0226238D01*
X0159444Y0226193D01*
X0159463Y0226146D01*
X0159479Y0226099D01*
X0159491Y0226050D01*
X0159500Y0226000D01*
X0159500Y0226100D02*
X0159500Y0224700D01*
X0161200Y0224900D02*
X0174000Y0231300D01*
X0175500Y0231300D02*
X0187900Y0231300D01*
X0187951Y0231299D01*
X0188001Y0231294D01*
X0188050Y0231286D01*
X0188099Y0231274D01*
X0188147Y0231259D01*
X0188194Y0231240D01*
X0188239Y0231218D01*
X0188283Y0231193D01*
X0188325Y0231165D01*
X0188364Y0231133D01*
X0188401Y0231099D01*
X0188435Y0231062D01*
X0188467Y0231023D01*
X0188496Y0230982D01*
X0188522Y0230938D01*
X0188544Y0230893D01*
X0188563Y0230847D01*
X0188579Y0230799D01*
X0188591Y0230750D01*
X0188600Y0230700D01*
X0188600Y0227300D01*
X0188600Y0227200D01*
X0188600Y0227300D02*
X0188599Y0227249D01*
X0188594Y0227199D01*
X0188586Y0227150D01*
X0188574Y0227101D01*
X0188559Y0227053D01*
X0188540Y0227006D01*
X0188518Y0226961D01*
X0188493Y0226917D01*
X0188465Y0226875D01*
X0188433Y0226836D01*
X0188399Y0226799D01*
X0188362Y0226765D01*
X0188323Y0226733D01*
X0188282Y0226704D01*
X0188238Y0226678D01*
X0188193Y0226656D01*
X0188147Y0226637D01*
X0188099Y0226621D01*
X0188050Y0226609D01*
X0188000Y0226600D01*
X0187900Y0226600D02*
X0175500Y0226600D01*
X0175500Y0224700D01*
X0175500Y0226600D02*
X0175500Y0231300D01*
X0161200Y0231400D02*
X0161200Y0224900D01*
X0084800Y0122800D02*
X0084800Y0081800D01*
X0053800Y0081800D01*
X0053800Y0122800D01*
X0084800Y0122800D01*
X0071300Y0115575D02*
X0071300Y0112985D01*
X0067300Y0112985D02*
X0067300Y0115575D01*
X0061626Y0102098D02*
X0061739Y0101918D01*
X0061856Y0101741D01*
X0061977Y0101567D01*
X0062103Y0101396D01*
X0062232Y0101228D01*
X0062366Y0101063D01*
X0062503Y0100901D01*
X0062644Y0100742D01*
X0062789Y0100587D01*
X0062937Y0100435D01*
X0063089Y0100287D01*
X0063244Y0100142D01*
X0063403Y0100001D01*
X0063565Y0099864D01*
X0063730Y0099730D01*
X0063899Y0099601D01*
X0064070Y0099476D01*
X0064244Y0099354D01*
X0064421Y0099237D01*
X0066274Y0101047D01*
X0063478Y0103909D02*
X0061626Y0102098D01*
X0067300Y0115575D02*
X0067507Y0115620D01*
X0067716Y0115660D01*
X0067925Y0115694D01*
X0068136Y0115724D01*
X0068346Y0115749D01*
X0068558Y0115769D01*
X0068770Y0115784D01*
X0068982Y0115794D01*
X0069194Y0115799D01*
X0069406Y0115799D01*
X0069618Y0115794D01*
X0069830Y0115784D01*
X0070042Y0115769D01*
X0070254Y0115749D01*
X0070464Y0115724D01*
X0070675Y0115694D01*
X0070884Y0115660D01*
X0071093Y0115620D01*
X0071300Y0115575D01*
X0076974Y0102098D02*
X0076861Y0101918D01*
X0076744Y0101741D01*
X0076623Y0101567D01*
X0076497Y0101396D01*
X0076368Y0101228D01*
X0076234Y0101063D01*
X0076097Y0100901D01*
X0075956Y0100742D01*
X0075811Y0100587D01*
X0075663Y0100435D01*
X0075511Y0100287D01*
X0075356Y0100142D01*
X0075197Y0100001D01*
X0075035Y0099864D01*
X0074870Y0099730D01*
X0074701Y0099601D01*
X0074530Y0099476D01*
X0074356Y0099354D01*
X0074179Y0099237D01*
X0072326Y0101047D01*
X0075122Y0103909D02*
X0076974Y0102098D01*
X0062800Y0106800D02*
X0062802Y0106961D01*
X0062808Y0107121D01*
X0062818Y0107282D01*
X0062832Y0107442D01*
X0062850Y0107602D01*
X0062871Y0107761D01*
X0062897Y0107920D01*
X0062927Y0108078D01*
X0062960Y0108235D01*
X0062998Y0108392D01*
X0063039Y0108547D01*
X0063084Y0108701D01*
X0063133Y0108854D01*
X0063186Y0109006D01*
X0063242Y0109157D01*
X0063303Y0109306D01*
X0063366Y0109454D01*
X0063434Y0109600D01*
X0063505Y0109744D01*
X0063579Y0109886D01*
X0063657Y0110027D01*
X0063739Y0110165D01*
X0063824Y0110302D01*
X0063912Y0110436D01*
X0064004Y0110568D01*
X0064099Y0110698D01*
X0064197Y0110826D01*
X0064298Y0110951D01*
X0064402Y0111073D01*
X0064509Y0111193D01*
X0064619Y0111310D01*
X0064732Y0111425D01*
X0064848Y0111536D01*
X0064967Y0111645D01*
X0065088Y0111750D01*
X0065212Y0111853D01*
X0065338Y0111953D01*
X0065466Y0112049D01*
X0065597Y0112142D01*
X0065731Y0112232D01*
X0065866Y0112319D01*
X0066004Y0112402D01*
X0066143Y0112482D01*
X0066285Y0112558D01*
X0066428Y0112631D01*
X0066573Y0112700D01*
X0066720Y0112766D01*
X0066868Y0112828D01*
X0067018Y0112886D01*
X0067169Y0112941D01*
X0067322Y0112992D01*
X0067476Y0113039D01*
X0067631Y0113082D01*
X0067787Y0113121D01*
X0067943Y0113157D01*
X0068101Y0113188D01*
X0068259Y0113216D01*
X0068418Y0113240D01*
X0068578Y0113260D01*
X0068738Y0113276D01*
X0068898Y0113288D01*
X0069059Y0113296D01*
X0069220Y0113300D01*
X0069380Y0113300D01*
X0069541Y0113296D01*
X0069702Y0113288D01*
X0069862Y0113276D01*
X0070022Y0113260D01*
X0070182Y0113240D01*
X0070341Y0113216D01*
X0070499Y0113188D01*
X0070657Y0113157D01*
X0070813Y0113121D01*
X0070969Y0113082D01*
X0071124Y0113039D01*
X0071278Y0112992D01*
X0071431Y0112941D01*
X0071582Y0112886D01*
X0071732Y0112828D01*
X0071880Y0112766D01*
X0072027Y0112700D01*
X0072172Y0112631D01*
X0072315Y0112558D01*
X0072457Y0112482D01*
X0072596Y0112402D01*
X0072734Y0112319D01*
X0072869Y0112232D01*
X0073003Y0112142D01*
X0073134Y0112049D01*
X0073262Y0111953D01*
X0073388Y0111853D01*
X0073512Y0111750D01*
X0073633Y0111645D01*
X0073752Y0111536D01*
X0073868Y0111425D01*
X0073981Y0111310D01*
X0074091Y0111193D01*
X0074198Y0111073D01*
X0074302Y0110951D01*
X0074403Y0110826D01*
X0074501Y0110698D01*
X0074596Y0110568D01*
X0074688Y0110436D01*
X0074776Y0110302D01*
X0074861Y0110165D01*
X0074943Y0110027D01*
X0075021Y0109886D01*
X0075095Y0109744D01*
X0075166Y0109600D01*
X0075234Y0109454D01*
X0075297Y0109306D01*
X0075358Y0109157D01*
X0075414Y0109006D01*
X0075467Y0108854D01*
X0075516Y0108701D01*
X0075561Y0108547D01*
X0075602Y0108392D01*
X0075640Y0108235D01*
X0075673Y0108078D01*
X0075703Y0107920D01*
X0075729Y0107761D01*
X0075750Y0107602D01*
X0075768Y0107442D01*
X0075782Y0107282D01*
X0075792Y0107121D01*
X0075798Y0106961D01*
X0075800Y0106800D01*
X0075798Y0106639D01*
X0075792Y0106479D01*
X0075782Y0106318D01*
X0075768Y0106158D01*
X0075750Y0105998D01*
X0075729Y0105839D01*
X0075703Y0105680D01*
X0075673Y0105522D01*
X0075640Y0105365D01*
X0075602Y0105208D01*
X0075561Y0105053D01*
X0075516Y0104899D01*
X0075467Y0104746D01*
X0075414Y0104594D01*
X0075358Y0104443D01*
X0075297Y0104294D01*
X0075234Y0104146D01*
X0075166Y0104000D01*
X0075095Y0103856D01*
X0075021Y0103714D01*
X0074943Y0103573D01*
X0074861Y0103435D01*
X0074776Y0103298D01*
X0074688Y0103164D01*
X0074596Y0103032D01*
X0074501Y0102902D01*
X0074403Y0102774D01*
X0074302Y0102649D01*
X0074198Y0102527D01*
X0074091Y0102407D01*
X0073981Y0102290D01*
X0073868Y0102175D01*
X0073752Y0102064D01*
X0073633Y0101955D01*
X0073512Y0101850D01*
X0073388Y0101747D01*
X0073262Y0101647D01*
X0073134Y0101551D01*
X0073003Y0101458D01*
X0072869Y0101368D01*
X0072734Y0101281D01*
X0072596Y0101198D01*
X0072457Y0101118D01*
X0072315Y0101042D01*
X0072172Y0100969D01*
X0072027Y0100900D01*
X0071880Y0100834D01*
X0071732Y0100772D01*
X0071582Y0100714D01*
X0071431Y0100659D01*
X0071278Y0100608D01*
X0071124Y0100561D01*
X0070969Y0100518D01*
X0070813Y0100479D01*
X0070657Y0100443D01*
X0070499Y0100412D01*
X0070341Y0100384D01*
X0070182Y0100360D01*
X0070022Y0100340D01*
X0069862Y0100324D01*
X0069702Y0100312D01*
X0069541Y0100304D01*
X0069380Y0100300D01*
X0069220Y0100300D01*
X0069059Y0100304D01*
X0068898Y0100312D01*
X0068738Y0100324D01*
X0068578Y0100340D01*
X0068418Y0100360D01*
X0068259Y0100384D01*
X0068101Y0100412D01*
X0067943Y0100443D01*
X0067787Y0100479D01*
X0067631Y0100518D01*
X0067476Y0100561D01*
X0067322Y0100608D01*
X0067169Y0100659D01*
X0067018Y0100714D01*
X0066868Y0100772D01*
X0066720Y0100834D01*
X0066573Y0100900D01*
X0066428Y0100969D01*
X0066285Y0101042D01*
X0066143Y0101118D01*
X0066004Y0101198D01*
X0065866Y0101281D01*
X0065731Y0101368D01*
X0065597Y0101458D01*
X0065466Y0101551D01*
X0065338Y0101647D01*
X0065212Y0101747D01*
X0065088Y0101850D01*
X0064967Y0101955D01*
X0064848Y0102064D01*
X0064732Y0102175D01*
X0064619Y0102290D01*
X0064509Y0102407D01*
X0064402Y0102527D01*
X0064298Y0102649D01*
X0064197Y0102774D01*
X0064099Y0102902D01*
X0064004Y0103032D01*
X0063912Y0103164D01*
X0063824Y0103298D01*
X0063739Y0103435D01*
X0063657Y0103573D01*
X0063579Y0103714D01*
X0063505Y0103856D01*
X0063434Y0104000D01*
X0063366Y0104146D01*
X0063303Y0104294D01*
X0063242Y0104443D01*
X0063186Y0104594D01*
X0063133Y0104746D01*
X0063084Y0104899D01*
X0063039Y0105053D01*
X0062998Y0105208D01*
X0062960Y0105365D01*
X0062927Y0105522D01*
X0062897Y0105680D01*
X0062871Y0105839D01*
X0062850Y0105998D01*
X0062832Y0106158D01*
X0062818Y0106318D01*
X0062808Y0106479D01*
X0062802Y0106639D01*
X0062800Y0106800D01*
X0047300Y0122800D02*
X0047300Y0081800D01*
X0016300Y0081800D01*
X0016300Y0122800D01*
X0047300Y0122800D01*
X0033800Y0115575D02*
X0033800Y0112985D01*
X0029800Y0112985D02*
X0029800Y0115575D01*
X0024126Y0102098D02*
X0024239Y0101918D01*
X0024356Y0101741D01*
X0024477Y0101567D01*
X0024603Y0101396D01*
X0024732Y0101228D01*
X0024866Y0101063D01*
X0025003Y0100901D01*
X0025144Y0100742D01*
X0025289Y0100587D01*
X0025437Y0100435D01*
X0025589Y0100287D01*
X0025744Y0100142D01*
X0025903Y0100001D01*
X0026065Y0099864D01*
X0026230Y0099730D01*
X0026399Y0099601D01*
X0026570Y0099476D01*
X0026744Y0099354D01*
X0026921Y0099237D01*
X0028774Y0101047D01*
X0025978Y0103909D02*
X0024126Y0102098D01*
X0029800Y0115575D02*
X0030007Y0115620D01*
X0030216Y0115660D01*
X0030425Y0115694D01*
X0030636Y0115724D01*
X0030846Y0115749D01*
X0031058Y0115769D01*
X0031270Y0115784D01*
X0031482Y0115794D01*
X0031694Y0115799D01*
X0031906Y0115799D01*
X0032118Y0115794D01*
X0032330Y0115784D01*
X0032542Y0115769D01*
X0032754Y0115749D01*
X0032964Y0115724D01*
X0033175Y0115694D01*
X0033384Y0115660D01*
X0033593Y0115620D01*
X0033800Y0115575D01*
X0039474Y0102098D02*
X0039361Y0101918D01*
X0039244Y0101741D01*
X0039123Y0101567D01*
X0038997Y0101396D01*
X0038868Y0101228D01*
X0038734Y0101063D01*
X0038597Y0100901D01*
X0038456Y0100742D01*
X0038311Y0100587D01*
X0038163Y0100435D01*
X0038011Y0100287D01*
X0037856Y0100142D01*
X0037697Y0100001D01*
X0037535Y0099864D01*
X0037370Y0099730D01*
X0037201Y0099601D01*
X0037030Y0099476D01*
X0036856Y0099354D01*
X0036679Y0099237D01*
X0034826Y0101047D01*
X0037622Y0103909D02*
X0039474Y0102098D01*
X0025300Y0106800D02*
X0025302Y0106961D01*
X0025308Y0107121D01*
X0025318Y0107282D01*
X0025332Y0107442D01*
X0025350Y0107602D01*
X0025371Y0107761D01*
X0025397Y0107920D01*
X0025427Y0108078D01*
X0025460Y0108235D01*
X0025498Y0108392D01*
X0025539Y0108547D01*
X0025584Y0108701D01*
X0025633Y0108854D01*
X0025686Y0109006D01*
X0025742Y0109157D01*
X0025803Y0109306D01*
X0025866Y0109454D01*
X0025934Y0109600D01*
X0026005Y0109744D01*
X0026079Y0109886D01*
X0026157Y0110027D01*
X0026239Y0110165D01*
X0026324Y0110302D01*
X0026412Y0110436D01*
X0026504Y0110568D01*
X0026599Y0110698D01*
X0026697Y0110826D01*
X0026798Y0110951D01*
X0026902Y0111073D01*
X0027009Y0111193D01*
X0027119Y0111310D01*
X0027232Y0111425D01*
X0027348Y0111536D01*
X0027467Y0111645D01*
X0027588Y0111750D01*
X0027712Y0111853D01*
X0027838Y0111953D01*
X0027966Y0112049D01*
X0028097Y0112142D01*
X0028231Y0112232D01*
X0028366Y0112319D01*
X0028504Y0112402D01*
X0028643Y0112482D01*
X0028785Y0112558D01*
X0028928Y0112631D01*
X0029073Y0112700D01*
X0029220Y0112766D01*
X0029368Y0112828D01*
X0029518Y0112886D01*
X0029669Y0112941D01*
X0029822Y0112992D01*
X0029976Y0113039D01*
X0030131Y0113082D01*
X0030287Y0113121D01*
X0030443Y0113157D01*
X0030601Y0113188D01*
X0030759Y0113216D01*
X0030918Y0113240D01*
X0031078Y0113260D01*
X0031238Y0113276D01*
X0031398Y0113288D01*
X0031559Y0113296D01*
X0031720Y0113300D01*
X0031880Y0113300D01*
X0032041Y0113296D01*
X0032202Y0113288D01*
X0032362Y0113276D01*
X0032522Y0113260D01*
X0032682Y0113240D01*
X0032841Y0113216D01*
X0032999Y0113188D01*
X0033157Y0113157D01*
X0033313Y0113121D01*
X0033469Y0113082D01*
X0033624Y0113039D01*
X0033778Y0112992D01*
X0033931Y0112941D01*
X0034082Y0112886D01*
X0034232Y0112828D01*
X0034380Y0112766D01*
X0034527Y0112700D01*
X0034672Y0112631D01*
X0034815Y0112558D01*
X0034957Y0112482D01*
X0035096Y0112402D01*
X0035234Y0112319D01*
X0035369Y0112232D01*
X0035503Y0112142D01*
X0035634Y0112049D01*
X0035762Y0111953D01*
X0035888Y0111853D01*
X0036012Y0111750D01*
X0036133Y0111645D01*
X0036252Y0111536D01*
X0036368Y0111425D01*
X0036481Y0111310D01*
X0036591Y0111193D01*
X0036698Y0111073D01*
X0036802Y0110951D01*
X0036903Y0110826D01*
X0037001Y0110698D01*
X0037096Y0110568D01*
X0037188Y0110436D01*
X0037276Y0110302D01*
X0037361Y0110165D01*
X0037443Y0110027D01*
X0037521Y0109886D01*
X0037595Y0109744D01*
X0037666Y0109600D01*
X0037734Y0109454D01*
X0037797Y0109306D01*
X0037858Y0109157D01*
X0037914Y0109006D01*
X0037967Y0108854D01*
X0038016Y0108701D01*
X0038061Y0108547D01*
X0038102Y0108392D01*
X0038140Y0108235D01*
X0038173Y0108078D01*
X0038203Y0107920D01*
X0038229Y0107761D01*
X0038250Y0107602D01*
X0038268Y0107442D01*
X0038282Y0107282D01*
X0038292Y0107121D01*
X0038298Y0106961D01*
X0038300Y0106800D01*
X0038298Y0106639D01*
X0038292Y0106479D01*
X0038282Y0106318D01*
X0038268Y0106158D01*
X0038250Y0105998D01*
X0038229Y0105839D01*
X0038203Y0105680D01*
X0038173Y0105522D01*
X0038140Y0105365D01*
X0038102Y0105208D01*
X0038061Y0105053D01*
X0038016Y0104899D01*
X0037967Y0104746D01*
X0037914Y0104594D01*
X0037858Y0104443D01*
X0037797Y0104294D01*
X0037734Y0104146D01*
X0037666Y0104000D01*
X0037595Y0103856D01*
X0037521Y0103714D01*
X0037443Y0103573D01*
X0037361Y0103435D01*
X0037276Y0103298D01*
X0037188Y0103164D01*
X0037096Y0103032D01*
X0037001Y0102902D01*
X0036903Y0102774D01*
X0036802Y0102649D01*
X0036698Y0102527D01*
X0036591Y0102407D01*
X0036481Y0102290D01*
X0036368Y0102175D01*
X0036252Y0102064D01*
X0036133Y0101955D01*
X0036012Y0101850D01*
X0035888Y0101747D01*
X0035762Y0101647D01*
X0035634Y0101551D01*
X0035503Y0101458D01*
X0035369Y0101368D01*
X0035234Y0101281D01*
X0035096Y0101198D01*
X0034957Y0101118D01*
X0034815Y0101042D01*
X0034672Y0100969D01*
X0034527Y0100900D01*
X0034380Y0100834D01*
X0034232Y0100772D01*
X0034082Y0100714D01*
X0033931Y0100659D01*
X0033778Y0100608D01*
X0033624Y0100561D01*
X0033469Y0100518D01*
X0033313Y0100479D01*
X0033157Y0100443D01*
X0032999Y0100412D01*
X0032841Y0100384D01*
X0032682Y0100360D01*
X0032522Y0100340D01*
X0032362Y0100324D01*
X0032202Y0100312D01*
X0032041Y0100304D01*
X0031880Y0100300D01*
X0031720Y0100300D01*
X0031559Y0100304D01*
X0031398Y0100312D01*
X0031238Y0100324D01*
X0031078Y0100340D01*
X0030918Y0100360D01*
X0030759Y0100384D01*
X0030601Y0100412D01*
X0030443Y0100443D01*
X0030287Y0100479D01*
X0030131Y0100518D01*
X0029976Y0100561D01*
X0029822Y0100608D01*
X0029669Y0100659D01*
X0029518Y0100714D01*
X0029368Y0100772D01*
X0029220Y0100834D01*
X0029073Y0100900D01*
X0028928Y0100969D01*
X0028785Y0101042D01*
X0028643Y0101118D01*
X0028504Y0101198D01*
X0028366Y0101281D01*
X0028231Y0101368D01*
X0028097Y0101458D01*
X0027966Y0101551D01*
X0027838Y0101647D01*
X0027712Y0101747D01*
X0027588Y0101850D01*
X0027467Y0101955D01*
X0027348Y0102064D01*
X0027232Y0102175D01*
X0027119Y0102290D01*
X0027009Y0102407D01*
X0026902Y0102527D01*
X0026798Y0102649D01*
X0026697Y0102774D01*
X0026599Y0102902D01*
X0026504Y0103032D01*
X0026412Y0103164D01*
X0026324Y0103298D01*
X0026239Y0103435D01*
X0026157Y0103573D01*
X0026079Y0103714D01*
X0026005Y0103856D01*
X0025934Y0104000D01*
X0025866Y0104146D01*
X0025803Y0104294D01*
X0025742Y0104443D01*
X0025686Y0104594D01*
X0025633Y0104746D01*
X0025584Y0104899D01*
X0025539Y0105053D01*
X0025498Y0105208D01*
X0025460Y0105365D01*
X0025427Y0105522D01*
X0025397Y0105680D01*
X0025371Y0105839D01*
X0025350Y0105998D01*
X0025332Y0106158D01*
X0025318Y0106318D01*
X0025308Y0106479D01*
X0025302Y0106639D01*
X0025300Y0106800D01*
X0034300Y0034300D02*
X0014300Y0034300D01*
X0014300Y0029300D01*
X0034300Y0029300D01*
X0034300Y0034300D01*
X0039300Y0034300D01*
X0039300Y0012300D01*
X0009300Y0012300D01*
X0009300Y0034300D01*
X0014300Y0034300D01*
X0044300Y0034300D02*
X0044300Y0012300D01*
X0074300Y0012300D01*
X0074300Y0034300D01*
X0069300Y0034300D01*
X0069300Y0029300D01*
X0049300Y0029300D01*
X0049300Y0034300D01*
X0069300Y0034300D01*
X0081800Y0034300D02*
X0086800Y0034300D01*
X0086800Y0029300D01*
X0116800Y0029300D01*
X0116800Y0034300D01*
X0121800Y0034300D01*
X0121800Y0012300D01*
X0081800Y0012300D01*
X0081800Y0034300D01*
X0086800Y0034300D02*
X0116800Y0034300D01*
X0131800Y0034300D02*
X0136800Y0034300D01*
X0136800Y0029300D01*
X0156800Y0029300D01*
X0156800Y0034300D01*
X0161800Y0034300D01*
X0161800Y0012300D01*
X0131800Y0012300D01*
X0131800Y0034300D01*
X0136800Y0034300D02*
X0156800Y0034300D01*
X0131656Y0054301D02*
X0130906Y0053550D01*
X0129405Y0053550D01*
X0128654Y0054301D01*
X0127053Y0054301D02*
X0127053Y0057303D01*
X0126302Y0058054D01*
X0124050Y0058054D01*
X0124050Y0053550D01*
X0126302Y0053550D01*
X0127053Y0054301D01*
X0128654Y0057303D02*
X0129405Y0058054D01*
X0130906Y0058054D01*
X0131656Y0057303D01*
X0131656Y0056553D01*
X0130906Y0055802D01*
X0131656Y0055051D01*
X0131656Y0054301D01*
X0130906Y0055802D02*
X0130155Y0055802D01*
X0049300Y0034300D02*
X0044300Y0034300D01*
X0219050Y0053550D02*
X0221302Y0053550D01*
X0222053Y0054301D01*
X0222053Y0057303D01*
X0221302Y0058054D01*
X0219050Y0058054D01*
X0219050Y0053550D01*
X0223654Y0055802D02*
X0226656Y0055802D01*
X0225906Y0053550D02*
X0225906Y0058054D01*
X0223654Y0055802D01*
X0221800Y0031800D02*
X0226800Y0031800D01*
X0226800Y0026800D01*
X0246800Y0026800D01*
X0246800Y0031800D01*
X0251800Y0031800D01*
X0251800Y0009800D01*
X0221800Y0009800D01*
X0221800Y0031800D01*
X0226800Y0031800D02*
X0246800Y0031800D01*
D16*
X0221300Y0046800D03*
X0126300Y0046800D03*
D17*
X0120050Y0046800D03*
X0143550Y0046800D03*
X0215050Y0046800D03*
X0238550Y0046800D03*
D18*
X0089100Y0146903D02*
X0087599Y0146903D01*
X0087599Y0147654D01*
X0087849Y0147904D01*
X0088349Y0147904D01*
X0088600Y0147654D01*
X0088600Y0146903D01*
X0088600Y0147404D02*
X0089100Y0147904D01*
X0088850Y0148377D02*
X0089100Y0148627D01*
X0089100Y0149127D01*
X0088850Y0149378D01*
X0088349Y0149378D01*
X0088099Y0149127D01*
X0088099Y0148877D01*
X0088349Y0148377D01*
X0087599Y0148377D01*
X0087599Y0149378D01*
X0087599Y0161903D02*
X0087599Y0162654D01*
X0087849Y0162904D01*
X0088349Y0162904D01*
X0088600Y0162654D01*
X0088600Y0161903D01*
X0089100Y0161903D02*
X0087599Y0161903D01*
X0088600Y0162404D02*
X0089100Y0162904D01*
X0088349Y0163377D02*
X0088349Y0164378D01*
X0087599Y0164127D02*
X0088349Y0163377D01*
X0087599Y0164127D02*
X0089100Y0164127D01*
X0074100Y0163877D02*
X0072599Y0163877D01*
X0073099Y0163377D01*
X0072849Y0162904D02*
X0073349Y0162904D01*
X0073600Y0162654D01*
X0073600Y0161903D01*
X0074100Y0161903D02*
X0072599Y0161903D01*
X0072599Y0162654D01*
X0072849Y0162904D01*
X0073600Y0162404D02*
X0074100Y0162904D01*
X0074100Y0163377D02*
X0074100Y0164378D01*
X0073600Y0149878D02*
X0073600Y0148877D01*
X0073600Y0149377D02*
X0072099Y0149377D01*
X0072599Y0148877D01*
X0072349Y0148404D02*
X0072099Y0148154D01*
X0072099Y0147403D01*
X0073600Y0147403D01*
X0073600Y0148154D01*
X0073350Y0148404D01*
X0072349Y0148404D01*
X0072099Y0146931D02*
X0072099Y0145930D01*
X0073600Y0145930D01*
X0073600Y0146931D01*
X0072849Y0146431D02*
X0072849Y0145930D01*
X0073600Y0145458D02*
X0073600Y0144457D01*
X0072099Y0144457D01*
X0054000Y0144351D02*
X0054000Y0143350D01*
X0052499Y0143350D01*
X0052499Y0144823D02*
X0054000Y0144823D01*
X0054000Y0145824D01*
X0054000Y0146297D02*
X0054000Y0147047D01*
X0053750Y0147297D01*
X0052749Y0147297D01*
X0052499Y0147047D01*
X0052499Y0146297D01*
X0054000Y0146297D01*
X0053249Y0145324D02*
X0053249Y0144823D01*
X0052499Y0144823D02*
X0052499Y0145824D01*
X0052749Y0147770D02*
X0052499Y0148020D01*
X0052499Y0148520D01*
X0052749Y0148771D01*
X0052999Y0148771D01*
X0054000Y0147770D01*
X0054000Y0148771D01*
X0053500Y0158850D02*
X0051999Y0158850D01*
X0051999Y0159601D01*
X0052249Y0159851D01*
X0052749Y0159851D01*
X0053000Y0159601D01*
X0053000Y0158850D01*
X0053000Y0159350D02*
X0053500Y0159851D01*
X0053250Y0160323D02*
X0053500Y0160573D01*
X0053500Y0161074D01*
X0053250Y0161324D01*
X0053000Y0161324D01*
X0052749Y0161074D01*
X0052749Y0160824D01*
X0052749Y0161074D02*
X0052499Y0161324D01*
X0052249Y0161324D01*
X0051999Y0161074D01*
X0051999Y0160573D01*
X0052249Y0160323D01*
X0049100Y0161903D02*
X0047599Y0161903D01*
X0047599Y0162654D01*
X0047849Y0162904D01*
X0048349Y0162904D01*
X0048600Y0162654D01*
X0048600Y0161903D01*
X0048600Y0162404D02*
X0049100Y0162904D01*
X0049100Y0163377D02*
X0048099Y0164378D01*
X0047849Y0164378D01*
X0047599Y0164127D01*
X0047599Y0163627D01*
X0047849Y0163377D01*
X0049100Y0163377D02*
X0049100Y0164378D01*
X0034100Y0163377D02*
X0033850Y0163377D01*
X0032849Y0164378D01*
X0032599Y0164378D01*
X0032599Y0163377D01*
X0032849Y0162904D02*
X0033349Y0162904D01*
X0033600Y0162654D01*
X0033600Y0161903D01*
X0034100Y0161903D02*
X0032599Y0161903D01*
X0032599Y0162654D01*
X0032849Y0162904D01*
X0033600Y0162404D02*
X0034100Y0162904D01*
X0033850Y0149378D02*
X0033600Y0149378D01*
X0033349Y0149127D01*
X0033349Y0148377D01*
X0033850Y0148377D01*
X0034100Y0148627D01*
X0034100Y0149127D01*
X0033850Y0149378D01*
X0032849Y0148877D02*
X0033349Y0148377D01*
X0033349Y0147904D02*
X0033600Y0147654D01*
X0033600Y0146903D01*
X0034100Y0146903D02*
X0032599Y0146903D01*
X0032599Y0147654D01*
X0032849Y0147904D01*
X0033349Y0147904D01*
X0033600Y0147404D02*
X0034100Y0147904D01*
X0032849Y0148877D02*
X0032599Y0149378D01*
X0039999Y0148520D02*
X0040249Y0148771D01*
X0040499Y0148771D01*
X0040749Y0148520D01*
X0041000Y0148771D01*
X0041250Y0148771D01*
X0041500Y0148520D01*
X0041500Y0148020D01*
X0041250Y0147770D01*
X0041250Y0147297D02*
X0040249Y0147297D01*
X0039999Y0147047D01*
X0039999Y0146297D01*
X0041500Y0146297D01*
X0041500Y0147047D01*
X0041250Y0147297D01*
X0040749Y0148270D02*
X0040749Y0148520D01*
X0039999Y0148520D02*
X0039999Y0148020D01*
X0040249Y0147770D01*
X0039999Y0145824D02*
X0039999Y0144823D01*
X0041500Y0144823D01*
X0041500Y0145824D01*
X0040749Y0145324D02*
X0040749Y0144823D01*
X0041500Y0144351D02*
X0041500Y0143350D01*
X0039999Y0143350D01*
D19*
X0124500Y0130402D02*
X0124500Y0128000D01*
X0124500Y0129802D02*
X0126902Y0129802D01*
X0126902Y0130402D02*
X0126902Y0128000D01*
X0128183Y0128000D02*
X0130585Y0128000D01*
X0129384Y0128000D02*
X0129384Y0131603D01*
X0128183Y0130402D01*
X0126902Y0130402D02*
X0125701Y0131603D01*
X0124500Y0130402D01*
X0131866Y0131603D02*
X0134268Y0131603D01*
X0134268Y0131003D01*
X0131866Y0128601D01*
X0131866Y0128000D01*
X0135549Y0126799D02*
X0136750Y0128000D01*
X0136150Y0128000D01*
X0136150Y0128601D01*
X0136750Y0128601D01*
X0136750Y0128000D01*
X0138005Y0128601D02*
X0138605Y0128000D01*
X0139806Y0128000D01*
X0140407Y0128601D01*
X0140407Y0129802D01*
X0139806Y0130402D01*
X0139206Y0130402D01*
X0138005Y0129802D01*
X0138005Y0131603D01*
X0140407Y0131603D01*
X0141688Y0130402D02*
X0142289Y0130402D01*
X0142889Y0129802D01*
X0143490Y0130402D01*
X0144090Y0129802D01*
X0144090Y0128000D01*
X0142889Y0128000D02*
X0142889Y0129802D01*
X0141688Y0130402D02*
X0141688Y0128000D01*
X0145371Y0128000D02*
X0145371Y0130402D01*
X0145972Y0130402D01*
X0146572Y0129802D01*
X0147173Y0130402D01*
X0147773Y0129802D01*
X0147773Y0128000D01*
X0146572Y0128000D02*
X0146572Y0129802D01*
X0214500Y0129802D02*
X0216902Y0129802D01*
X0216902Y0130402D02*
X0216902Y0128000D01*
X0218183Y0128000D02*
X0220585Y0128000D01*
X0219384Y0128000D02*
X0219384Y0131603D01*
X0218183Y0130402D01*
X0216902Y0130402D02*
X0215701Y0131603D01*
X0214500Y0130402D01*
X0214500Y0128000D01*
X0221866Y0128000D02*
X0221866Y0128601D01*
X0224268Y0131003D01*
X0224268Y0131603D01*
X0221866Y0131603D01*
X0226150Y0128601D02*
X0226150Y0128000D01*
X0226750Y0128000D01*
X0226750Y0128601D01*
X0226150Y0128601D01*
X0226750Y0128000D02*
X0225549Y0126799D01*
X0228005Y0128601D02*
X0228605Y0128000D01*
X0229806Y0128000D01*
X0230407Y0128601D01*
X0230407Y0129802D01*
X0229806Y0130402D01*
X0229206Y0130402D01*
X0228005Y0129802D01*
X0228005Y0131603D01*
X0230407Y0131603D01*
X0231688Y0130402D02*
X0232289Y0130402D01*
X0232889Y0129802D01*
X0233490Y0130402D01*
X0234090Y0129802D01*
X0234090Y0128000D01*
X0232889Y0128000D02*
X0232889Y0129802D01*
X0231688Y0130402D02*
X0231688Y0128000D01*
X0235371Y0128000D02*
X0235371Y0130402D01*
X0235972Y0130402D01*
X0236572Y0129802D01*
X0237173Y0130402D01*
X0237773Y0129802D01*
X0237773Y0128000D01*
X0236572Y0128000D02*
X0236572Y0129802D01*
D20*
X0231800Y0079550D03*
X0221800Y0079550D03*
X0241800Y0079550D03*
X0151800Y0079550D03*
X0141800Y0079550D03*
X0131800Y0079550D03*
D21*
X0131800Y0086300D03*
X0141800Y0086300D03*
X0151800Y0086300D03*
X0221800Y0086300D03*
X0231800Y0086300D03*
X0241800Y0086300D03*
D22*
X0057000Y0084900D03*
X0019500Y0084900D03*
D23*
X0031800Y0078300D03*
X0069300Y0078300D03*
D24*
X0069300Y0077550D03*
X0078300Y0077550D03*
X0060300Y0077550D03*
X0040800Y0077550D03*
X0031800Y0077550D03*
X0022800Y0077550D03*
M02*
