G75*
%MOIN*%
%OFA0B0*%
%FSLAX25Y25*%
%IPPOS*%
%LPD*%
%AMOC8*
5,1,8,0,0,1.08239X$1,22.5*
%
%ADD10C,0.00000*%
%ADD11OC8,0.06300*%
%ADD12C,0.06300*%
%ADD13OC8,0.05200*%
%ADD14C,0.05200*%
%ADD15R,0.06500X0.15000*%
%ADD16R,0.25000X0.15000*%
%ADD17C,0.00500*%
%ADD18C,0.10039*%
%ADD19C,0.01600*%
%ADD20C,0.04134*%
%ADD21C,0.03200*%
%ADD22C,0.01000*%
%ADD23C,0.03600*%
D10*
X0027500Y0034500D02*
X0027500Y0324500D01*
X0266500Y0324500D01*
X0266500Y0034500D01*
X0027500Y0034500D01*
D11*
X0101500Y0075000D03*
X0256500Y0174500D03*
X0256500Y0184500D03*
X0256500Y0204500D03*
X0256500Y0214500D03*
D12*
X0101500Y0089000D03*
D13*
X0194000Y0284500D03*
X0186500Y0289500D03*
X0194000Y0294500D03*
X0234000Y0304500D03*
X0244000Y0304500D03*
X0086500Y0307000D03*
X0076500Y0307000D03*
X0051500Y0307000D03*
X0041500Y0307000D03*
D14*
X0129000Y0309400D02*
X0129000Y0314600D01*
X0139000Y0314600D02*
X0139000Y0309400D01*
X0139000Y0284600D02*
X0139000Y0279400D01*
X0129000Y0279400D02*
X0129000Y0284600D01*
D15*
X0156500Y0047000D03*
X0166500Y0047000D03*
X0176500Y0047000D03*
X0186500Y0047000D03*
X0196500Y0047000D03*
X0206500Y0047000D03*
X0216500Y0047000D03*
X0226500Y0047000D03*
X0236500Y0047000D03*
X0246500Y0047000D03*
X0256500Y0047000D03*
D16*
X0136500Y0047000D03*
X0106500Y0047000D03*
X0076500Y0047000D03*
X0046500Y0047000D03*
D17*
X0029500Y0034500D02*
X0149000Y0034500D01*
X0153200Y0034500D01*
X0264500Y0034500D01*
X0266500Y0036500D01*
X0029500Y0034500D02*
X0027500Y0036500D01*
D18*
X0051480Y0209205D02*
X0061520Y0209205D01*
X0061520Y0224795D02*
X0051480Y0224795D01*
X0051480Y0249205D02*
X0061520Y0249205D01*
X0061520Y0264795D02*
X0051480Y0264795D01*
D19*
X0031500Y0197000D02*
X0099475Y0197000D01*
X0099687Y0196787D01*
X0100863Y0196300D01*
X0102137Y0196300D01*
X0103313Y0196787D01*
X0103525Y0197000D01*
X0104804Y0197000D01*
X0105037Y0196437D01*
X0105937Y0195537D01*
X0107113Y0195050D01*
X0108387Y0195050D01*
X0109563Y0195537D01*
X0110463Y0196437D01*
X0110696Y0197000D01*
X0166313Y0197000D01*
X0170850Y0192463D01*
X0170850Y0191537D01*
X0158813Y0179500D01*
X0111062Y0179500D01*
X0104075Y0186487D01*
X0104075Y0187637D01*
X0103588Y0188813D01*
X0102688Y0189713D01*
X0101512Y0190200D01*
X0100238Y0190200D01*
X0099062Y0189713D01*
X0098162Y0188813D01*
X0097675Y0187637D01*
X0097675Y0186363D01*
X0098162Y0185187D01*
X0099062Y0184287D01*
X0100238Y0183800D01*
X0101388Y0183800D01*
X0104988Y0180200D01*
X0103988Y0180200D01*
X0102812Y0179713D01*
X0102600Y0179500D01*
X0041500Y0179500D01*
X0041500Y0147000D01*
X0031500Y0147000D01*
X0031500Y0197000D01*
X0031500Y0195950D02*
X0105525Y0195950D01*
X0109975Y0195950D02*
X0167363Y0195950D01*
X0168962Y0194351D02*
X0031500Y0194351D01*
X0031500Y0192753D02*
X0170560Y0192753D01*
X0170467Y0191154D02*
X0031500Y0191154D01*
X0031500Y0189556D02*
X0098905Y0189556D01*
X0097808Y0187957D02*
X0031500Y0187957D01*
X0031500Y0186359D02*
X0097677Y0186359D01*
X0098589Y0184760D02*
X0031500Y0184760D01*
X0031500Y0183162D02*
X0102026Y0183162D01*
X0103625Y0181563D02*
X0031500Y0181563D01*
X0031500Y0179965D02*
X0103420Y0179965D01*
X0107400Y0183162D02*
X0162475Y0183162D01*
X0164073Y0184760D02*
X0105802Y0184760D01*
X0104203Y0186359D02*
X0165672Y0186359D01*
X0167270Y0187957D02*
X0103942Y0187957D01*
X0102845Y0189556D02*
X0168869Y0189556D01*
X0160876Y0181563D02*
X0108999Y0181563D01*
X0110597Y0179965D02*
X0159278Y0179965D01*
X0111938Y0087000D02*
X0105596Y0087000D01*
X0105357Y0086423D01*
X0104077Y0085143D01*
X0102405Y0084450D01*
X0100595Y0084450D01*
X0098923Y0085143D01*
X0097643Y0086423D01*
X0097404Y0087000D01*
X0039000Y0087000D01*
X0039389Y0097118D01*
X0038925Y0098238D01*
X0038925Y0099512D01*
X0039412Y0100688D01*
X0039531Y0100806D01*
X0039596Y0102503D01*
X0039412Y0102687D01*
X0038925Y0103863D01*
X0038925Y0105137D01*
X0039412Y0106313D01*
X0039756Y0106656D01*
X0041500Y0152000D01*
X0031500Y0172000D01*
X0031500Y0039500D01*
X0032200Y0039500D01*
X0032200Y0046200D01*
X0045700Y0046200D01*
X0045700Y0047800D01*
X0045700Y0056300D01*
X0033763Y0056300D01*
X0033305Y0056177D01*
X0032895Y0055940D01*
X0032560Y0055605D01*
X0032323Y0055195D01*
X0032200Y0054737D01*
X0032200Y0047800D01*
X0045700Y0047800D01*
X0047300Y0047800D01*
X0047300Y0056300D01*
X0059237Y0056300D01*
X0059695Y0056177D01*
X0060105Y0055940D01*
X0060440Y0055605D01*
X0060677Y0055195D01*
X0060800Y0054737D01*
X0060800Y0047800D01*
X0047300Y0047800D01*
X0047300Y0046200D01*
X0060800Y0046200D01*
X0060800Y0039500D01*
X0062200Y0039500D01*
X0062200Y0046200D01*
X0075700Y0046200D01*
X0075700Y0047800D01*
X0075700Y0056300D01*
X0063763Y0056300D01*
X0063305Y0056177D01*
X0062895Y0055940D01*
X0062560Y0055605D01*
X0062323Y0055195D01*
X0062200Y0054737D01*
X0062200Y0047800D01*
X0075700Y0047800D01*
X0077300Y0047800D01*
X0077300Y0056300D01*
X0089237Y0056300D01*
X0089695Y0056177D01*
X0090105Y0055940D01*
X0090440Y0055605D01*
X0090677Y0055195D01*
X0090800Y0054737D01*
X0090800Y0047800D01*
X0077300Y0047800D01*
X0077300Y0046200D01*
X0090800Y0046200D01*
X0090800Y0039500D01*
X0092200Y0039500D01*
X0092200Y0046200D01*
X0105700Y0046200D01*
X0105700Y0047800D01*
X0105700Y0056300D01*
X0093763Y0056300D01*
X0093305Y0056177D01*
X0092895Y0055940D01*
X0092560Y0055605D01*
X0092323Y0055195D01*
X0092200Y0054737D01*
X0092200Y0047800D01*
X0105700Y0047800D01*
X0107300Y0047800D01*
X0107300Y0056300D01*
X0119237Y0056300D01*
X0119695Y0056177D01*
X0120105Y0055940D01*
X0120440Y0055605D01*
X0120677Y0055195D01*
X0120800Y0054737D01*
X0120800Y0047800D01*
X0107300Y0047800D01*
X0107300Y0046200D01*
X0120800Y0046200D01*
X0120800Y0039500D01*
X0122200Y0039500D01*
X0122200Y0046200D01*
X0135700Y0046200D01*
X0135700Y0047800D01*
X0135700Y0056300D01*
X0123763Y0056300D01*
X0123305Y0056177D01*
X0122895Y0055940D01*
X0122560Y0055605D01*
X0122323Y0055195D01*
X0122200Y0054737D01*
X0122200Y0047800D01*
X0135700Y0047800D01*
X0137300Y0047800D01*
X0137300Y0056300D01*
X0146500Y0056300D01*
X0146500Y0069679D01*
X0145887Y0069425D01*
X0144613Y0069425D01*
X0143450Y0069907D01*
X0143450Y0069488D01*
X0142963Y0068312D01*
X0142063Y0067412D01*
X0140887Y0066925D01*
X0139613Y0066925D01*
X0138437Y0067412D01*
X0137625Y0068225D01*
X0113213Y0068225D01*
X0112100Y0069338D01*
X0112100Y0086838D01*
X0111938Y0087000D01*
X0112100Y0085652D02*
X0104587Y0085652D01*
X0103550Y0079950D02*
X0101500Y0079950D01*
X0101500Y0075000D01*
X0101500Y0075000D01*
X0106450Y0075000D01*
X0106450Y0077050D01*
X0103550Y0079950D01*
X0104242Y0079258D02*
X0112100Y0079258D01*
X0112100Y0077660D02*
X0105841Y0077660D01*
X0106450Y0076061D02*
X0112100Y0076061D01*
X0112100Y0074463D02*
X0106450Y0074463D01*
X0106450Y0075000D02*
X0101500Y0075000D01*
X0101500Y0075000D01*
X0101500Y0075000D01*
X0096550Y0075000D01*
X0096550Y0077050D01*
X0099450Y0079950D01*
X0101500Y0079950D01*
X0101500Y0075000D01*
X0101500Y0070050D01*
X0103550Y0070050D01*
X0106450Y0072950D01*
X0106450Y0075000D01*
X0106365Y0072864D02*
X0112100Y0072864D01*
X0112100Y0071266D02*
X0104766Y0071266D01*
X0101500Y0071266D02*
X0101500Y0071266D01*
X0101500Y0070050D02*
X0099450Y0070050D01*
X0096550Y0072950D01*
X0096550Y0075000D01*
X0101500Y0075000D01*
X0101500Y0075000D01*
X0101500Y0070050D01*
X0101500Y0072864D02*
X0101500Y0072864D01*
X0101500Y0074463D02*
X0101500Y0074463D01*
X0101500Y0076061D02*
X0101500Y0076061D01*
X0101500Y0077660D02*
X0101500Y0077660D01*
X0101500Y0079258D02*
X0101500Y0079258D01*
X0098758Y0079258D02*
X0031500Y0079258D01*
X0031500Y0077660D02*
X0097159Y0077660D01*
X0096550Y0076061D02*
X0031500Y0076061D01*
X0031500Y0074463D02*
X0096550Y0074463D01*
X0096635Y0072864D02*
X0031500Y0072864D01*
X0031500Y0071266D02*
X0098234Y0071266D01*
X0112100Y0069667D02*
X0031500Y0069667D01*
X0031500Y0068069D02*
X0137781Y0068069D01*
X0142719Y0068069D02*
X0146500Y0068069D01*
X0146471Y0069667D02*
X0146500Y0069667D01*
X0144029Y0069667D02*
X0143450Y0069667D01*
X0146500Y0066470D02*
X0031500Y0066470D01*
X0031500Y0064872D02*
X0146500Y0064872D01*
X0146500Y0063273D02*
X0031500Y0063273D01*
X0031500Y0061675D02*
X0146500Y0061675D01*
X0146500Y0060076D02*
X0031500Y0060076D01*
X0031500Y0058478D02*
X0146500Y0058478D01*
X0146500Y0056879D02*
X0031500Y0056879D01*
X0031500Y0055281D02*
X0032372Y0055281D01*
X0032200Y0053682D02*
X0031500Y0053682D01*
X0031500Y0052084D02*
X0032200Y0052084D01*
X0032200Y0050485D02*
X0031500Y0050485D01*
X0031500Y0048887D02*
X0032200Y0048887D01*
X0031500Y0047288D02*
X0045700Y0047288D01*
X0045700Y0048887D02*
X0047300Y0048887D01*
X0047300Y0050485D02*
X0045700Y0050485D01*
X0045700Y0052084D02*
X0047300Y0052084D01*
X0047300Y0053682D02*
X0045700Y0053682D01*
X0045700Y0055281D02*
X0047300Y0055281D01*
X0047300Y0047288D02*
X0075700Y0047288D01*
X0075700Y0048887D02*
X0077300Y0048887D01*
X0077300Y0050485D02*
X0075700Y0050485D01*
X0075700Y0052084D02*
X0077300Y0052084D01*
X0077300Y0053682D02*
X0075700Y0053682D01*
X0075700Y0055281D02*
X0077300Y0055281D01*
X0077300Y0047288D02*
X0105700Y0047288D01*
X0105700Y0048887D02*
X0107300Y0048887D01*
X0107300Y0050485D02*
X0105700Y0050485D01*
X0105700Y0052084D02*
X0107300Y0052084D01*
X0107300Y0053682D02*
X0105700Y0053682D01*
X0105700Y0055281D02*
X0107300Y0055281D01*
X0107300Y0047288D02*
X0135700Y0047288D01*
X0135700Y0048887D02*
X0137300Y0048887D01*
X0137300Y0050485D02*
X0135700Y0050485D01*
X0135700Y0052084D02*
X0137300Y0052084D01*
X0137300Y0053682D02*
X0135700Y0053682D01*
X0135700Y0055281D02*
X0137300Y0055281D01*
X0122372Y0055281D02*
X0120628Y0055281D01*
X0120800Y0053682D02*
X0122200Y0053682D01*
X0122200Y0052084D02*
X0120800Y0052084D01*
X0120800Y0050485D02*
X0122200Y0050485D01*
X0122200Y0048887D02*
X0120800Y0048887D01*
X0120800Y0045690D02*
X0122200Y0045690D01*
X0122200Y0044091D02*
X0120800Y0044091D01*
X0120800Y0042493D02*
X0122200Y0042493D01*
X0122200Y0040894D02*
X0120800Y0040894D01*
X0092200Y0040894D02*
X0090800Y0040894D01*
X0090800Y0042493D02*
X0092200Y0042493D01*
X0092200Y0044091D02*
X0090800Y0044091D01*
X0090800Y0045690D02*
X0092200Y0045690D01*
X0092200Y0048887D02*
X0090800Y0048887D01*
X0090800Y0050485D02*
X0092200Y0050485D01*
X0092200Y0052084D02*
X0090800Y0052084D01*
X0090800Y0053682D02*
X0092200Y0053682D01*
X0092372Y0055281D02*
X0090628Y0055281D01*
X0112100Y0080857D02*
X0031500Y0080857D01*
X0031500Y0082455D02*
X0112100Y0082455D01*
X0112100Y0084054D02*
X0031500Y0084054D01*
X0031500Y0085652D02*
X0098413Y0085652D01*
X0062372Y0055281D02*
X0060628Y0055281D01*
X0060800Y0053682D02*
X0062200Y0053682D01*
X0062200Y0052084D02*
X0060800Y0052084D01*
X0060800Y0050485D02*
X0062200Y0050485D01*
X0062200Y0048887D02*
X0060800Y0048887D01*
X0060800Y0045690D02*
X0062200Y0045690D01*
X0062200Y0044091D02*
X0060800Y0044091D01*
X0060800Y0042493D02*
X0062200Y0042493D01*
X0062200Y0040894D02*
X0060800Y0040894D01*
X0032200Y0040894D02*
X0031500Y0040894D01*
X0031500Y0042493D02*
X0032200Y0042493D01*
X0032200Y0044091D02*
X0031500Y0044091D01*
X0031500Y0045690D02*
X0032200Y0045690D01*
X0031500Y0087251D02*
X0039010Y0087251D01*
X0039071Y0088849D02*
X0031500Y0088849D01*
X0031500Y0090448D02*
X0039133Y0090448D01*
X0039194Y0092046D02*
X0031500Y0092046D01*
X0031500Y0093645D02*
X0039256Y0093645D01*
X0039317Y0095243D02*
X0031500Y0095243D01*
X0031500Y0096842D02*
X0039379Y0096842D01*
X0038925Y0098440D02*
X0031500Y0098440D01*
X0031500Y0100039D02*
X0039143Y0100039D01*
X0039563Y0101637D02*
X0031500Y0101637D01*
X0031500Y0103236D02*
X0039185Y0103236D01*
X0038925Y0104834D02*
X0031500Y0104834D01*
X0031500Y0106433D02*
X0039533Y0106433D01*
X0039809Y0108032D02*
X0031500Y0108032D01*
X0031500Y0109630D02*
X0039870Y0109630D01*
X0039932Y0111229D02*
X0031500Y0111229D01*
X0031500Y0112827D02*
X0039993Y0112827D01*
X0040055Y0114426D02*
X0031500Y0114426D01*
X0031500Y0116024D02*
X0040116Y0116024D01*
X0040178Y0117623D02*
X0031500Y0117623D01*
X0031500Y0119221D02*
X0040239Y0119221D01*
X0040301Y0120820D02*
X0031500Y0120820D01*
X0031500Y0122418D02*
X0040362Y0122418D01*
X0040424Y0124017D02*
X0031500Y0124017D01*
X0031500Y0125615D02*
X0040485Y0125615D01*
X0040547Y0127214D02*
X0031500Y0127214D01*
X0031500Y0128812D02*
X0040608Y0128812D01*
X0040670Y0130411D02*
X0031500Y0130411D01*
X0031500Y0132009D02*
X0040731Y0132009D01*
X0040793Y0133608D02*
X0031500Y0133608D01*
X0031500Y0135206D02*
X0040854Y0135206D01*
X0040916Y0136805D02*
X0031500Y0136805D01*
X0031500Y0138403D02*
X0040977Y0138403D01*
X0041039Y0140002D02*
X0031500Y0140002D01*
X0031500Y0141600D02*
X0041100Y0141600D01*
X0041161Y0143199D02*
X0031500Y0143199D01*
X0031500Y0144797D02*
X0041223Y0144797D01*
X0041284Y0146396D02*
X0031500Y0146396D01*
X0031500Y0147994D02*
X0041500Y0147994D01*
X0041346Y0147994D02*
X0031500Y0147994D01*
X0031500Y0149593D02*
X0041500Y0149593D01*
X0041407Y0149593D02*
X0031500Y0149593D01*
X0031500Y0151191D02*
X0041500Y0151191D01*
X0041469Y0151191D02*
X0031500Y0151191D01*
X0031500Y0152790D02*
X0041500Y0152790D01*
X0041105Y0152790D02*
X0031500Y0152790D01*
X0031500Y0154388D02*
X0041500Y0154388D01*
X0040306Y0154388D02*
X0031500Y0154388D01*
X0031500Y0155987D02*
X0041500Y0155987D01*
X0041500Y0157585D02*
X0031500Y0157585D01*
X0038707Y0157585D01*
X0039507Y0155987D02*
X0031500Y0155987D01*
X0031500Y0159184D02*
X0041500Y0159184D01*
X0041500Y0160782D02*
X0031500Y0160782D01*
X0037109Y0160782D01*
X0037908Y0159184D02*
X0031500Y0159184D01*
X0031500Y0162381D02*
X0041500Y0162381D01*
X0041500Y0163979D02*
X0031500Y0163979D01*
X0035510Y0163979D01*
X0036310Y0162381D02*
X0031500Y0162381D01*
X0031500Y0165578D02*
X0041500Y0165578D01*
X0041500Y0167176D02*
X0031500Y0167176D01*
X0033912Y0167176D01*
X0034711Y0165578D02*
X0031500Y0165578D01*
X0031500Y0168775D02*
X0041500Y0168775D01*
X0041500Y0170373D02*
X0031500Y0170373D01*
X0032313Y0170373D01*
X0033113Y0168775D02*
X0031500Y0168775D01*
X0031500Y0171972D02*
X0041500Y0171972D01*
X0041500Y0173570D02*
X0031500Y0173570D01*
X0031500Y0171972D02*
X0031514Y0171972D01*
X0031500Y0175169D02*
X0041500Y0175169D01*
X0041500Y0176768D02*
X0031500Y0176768D01*
X0031500Y0178366D02*
X0041500Y0178366D01*
D20*
X0046500Y0192000D03*
X0054000Y0192000D03*
X0076500Y0192000D03*
X0086500Y0192000D03*
X0126500Y0192000D03*
X0134000Y0192000D03*
X0161500Y0192000D03*
X0169000Y0192000D03*
X0195000Y0199500D03*
X0195000Y0183250D03*
X0131500Y0104500D03*
X0136500Y0102000D03*
X0144000Y0102000D03*
X0151500Y0102000D03*
X0161500Y0102000D03*
X0079000Y0102000D03*
X0071500Y0102000D03*
X0064000Y0102000D03*
X0056500Y0102000D03*
X0051500Y0104500D03*
D21*
X0034000Y0082000D02*
X0046500Y0069500D01*
X0046500Y0047000D01*
X0034000Y0082000D02*
X0034000Y0192000D01*
X0054000Y0192000D01*
X0046500Y0192000D01*
X0054000Y0192000D02*
X0126500Y0192000D01*
X0169000Y0192000D01*
D22*
X0170474Y0193263D02*
X0029000Y0193263D01*
X0029000Y0192265D02*
X0171150Y0192265D01*
X0171150Y0192587D02*
X0171150Y0191413D01*
X0116462Y0136725D01*
X0115525Y0135788D01*
X0115525Y0100863D01*
X0114975Y0101413D01*
X0114975Y0175163D01*
X0103757Y0186380D01*
X0103775Y0186423D01*
X0103775Y0187577D01*
X0103333Y0188643D01*
X0102518Y0189458D01*
X0101452Y0189900D01*
X0100298Y0189900D01*
X0099232Y0189458D01*
X0098416Y0188643D01*
X0097975Y0187577D01*
X0097975Y0186423D01*
X0098416Y0185357D01*
X0099232Y0184541D01*
X0100298Y0184100D01*
X0101452Y0184100D01*
X0101495Y0184118D01*
X0106073Y0179539D01*
X0105202Y0179900D01*
X0104048Y0179900D01*
X0102982Y0179458D01*
X0102166Y0178643D01*
X0101725Y0177577D01*
X0101725Y0176423D01*
X0102166Y0175357D01*
X0102982Y0174541D01*
X0104048Y0174100D01*
X0105202Y0174100D01*
X0105245Y0174118D01*
X0109900Y0169462D01*
X0109900Y0155201D01*
X0109393Y0155708D01*
X0108327Y0156150D01*
X0107173Y0156150D01*
X0106107Y0155708D01*
X0105291Y0154893D01*
X0104850Y0153827D01*
X0104850Y0152673D01*
X0104868Y0152630D01*
X0057324Y0105087D01*
X0057130Y0105167D01*
X0055870Y0105167D01*
X0054706Y0104685D01*
X0054667Y0104646D01*
X0054667Y0105130D01*
X0054185Y0106294D01*
X0053294Y0107185D01*
X0052130Y0107667D01*
X0050870Y0107667D01*
X0049706Y0107185D01*
X0048815Y0106294D01*
X0048735Y0106100D01*
X0044601Y0106100D01*
X0044583Y0106143D01*
X0043768Y0106958D01*
X0042702Y0107400D01*
X0041548Y0107400D01*
X0040482Y0106958D01*
X0039666Y0106143D01*
X0039225Y0105077D01*
X0039225Y0103923D01*
X0039666Y0102857D01*
X0040482Y0102041D01*
X0041337Y0101687D01*
X0040482Y0101333D01*
X0039666Y0100518D01*
X0039225Y0099452D01*
X0039225Y0098298D01*
X0039666Y0097232D01*
X0040482Y0096416D01*
X0041548Y0095975D01*
X0042702Y0095975D01*
X0043768Y0096416D01*
X0044001Y0096650D01*
X0060913Y0096650D01*
X0061850Y0097587D01*
X0063176Y0098913D01*
X0063370Y0098833D01*
X0064630Y0098833D01*
X0065794Y0099315D01*
X0066685Y0100206D01*
X0067167Y0101370D01*
X0067167Y0102630D01*
X0066685Y0103794D01*
X0065794Y0104685D01*
X0064630Y0105167D01*
X0063370Y0105167D01*
X0062206Y0104685D01*
X0061315Y0103794D01*
X0060833Y0102630D01*
X0060833Y0101370D01*
X0060913Y0101176D01*
X0059587Y0099850D01*
X0058829Y0099850D01*
X0059185Y0100206D01*
X0059667Y0101370D01*
X0059667Y0102630D01*
X0059587Y0102824D01*
X0107130Y0150368D01*
X0107173Y0150350D01*
X0108327Y0150350D01*
X0109393Y0150791D01*
X0109900Y0151299D01*
X0109900Y0107701D01*
X0109393Y0108208D01*
X0108327Y0108650D01*
X0107173Y0108650D01*
X0106107Y0108208D01*
X0105291Y0107393D01*
X0105274Y0107350D01*
X0074587Y0107350D01*
X0073650Y0106413D01*
X0072324Y0105087D01*
X0072130Y0105167D01*
X0070870Y0105167D01*
X0069706Y0104685D01*
X0068815Y0103794D01*
X0068333Y0102630D01*
X0068333Y0101370D01*
X0068815Y0100206D01*
X0069706Y0099315D01*
X0070870Y0098833D01*
X0072130Y0098833D01*
X0073294Y0099315D01*
X0074185Y0100206D01*
X0074667Y0101370D01*
X0074667Y0102630D01*
X0074587Y0102824D01*
X0075913Y0104150D01*
X0076671Y0104150D01*
X0076315Y0103794D01*
X0075833Y0102630D01*
X0075833Y0101370D01*
X0076315Y0100206D01*
X0077206Y0099315D01*
X0077400Y0099235D01*
X0077400Y0092837D01*
X0078337Y0091900D01*
X0098390Y0091900D01*
X0097897Y0091407D01*
X0097250Y0089845D01*
X0097250Y0088155D01*
X0097897Y0086593D01*
X0099093Y0085397D01*
X0100655Y0084750D01*
X0102345Y0084750D01*
X0103907Y0085397D01*
X0105103Y0086593D01*
X0105750Y0088155D01*
X0105750Y0089845D01*
X0105103Y0091407D01*
X0104610Y0091900D01*
X0107462Y0091900D01*
X0112400Y0086962D01*
X0112400Y0069462D01*
X0113337Y0068525D01*
X0137774Y0068525D01*
X0137791Y0068482D01*
X0138607Y0067666D01*
X0139673Y0067225D01*
X0140827Y0067225D01*
X0141893Y0067666D01*
X0142708Y0068482D01*
X0143150Y0069548D01*
X0143150Y0070624D01*
X0143607Y0070166D01*
X0144673Y0069725D01*
X0145827Y0069725D01*
X0146893Y0070166D01*
X0147708Y0070982D01*
X0148150Y0072048D01*
X0148150Y0073202D01*
X0147708Y0074268D01*
X0146893Y0075083D01*
X0145827Y0075525D01*
X0144673Y0075525D01*
X0143995Y0075244D01*
X0141651Y0076650D01*
X0153962Y0076650D01*
X0154638Y0075974D01*
X0154638Y0063640D01*
X0154212Y0063107D01*
X0154638Y0059271D01*
X0154638Y0058697D01*
X0154652Y0058683D01*
X0154717Y0055600D01*
X0152794Y0055600D01*
X0152150Y0054956D01*
X0152150Y0039044D01*
X0152794Y0038400D01*
X0160206Y0038400D01*
X0160850Y0039044D01*
X0160850Y0054956D01*
X0160206Y0055600D01*
X0157918Y0055600D01*
X0157850Y0058813D01*
X0157901Y0058878D01*
X0157838Y0059448D01*
X0157838Y0075936D01*
X0157982Y0075791D01*
X0159048Y0075350D01*
X0160202Y0075350D01*
X0161268Y0075791D01*
X0162083Y0076607D01*
X0162525Y0077673D01*
X0162525Y0078827D01*
X0162412Y0079100D01*
X0163327Y0079100D01*
X0164393Y0079541D01*
X0164900Y0080049D01*
X0164900Y0055600D01*
X0162794Y0055600D01*
X0162150Y0054956D01*
X0162150Y0039044D01*
X0162794Y0038400D01*
X0170206Y0038400D01*
X0170850Y0039044D01*
X0170850Y0054956D01*
X0170206Y0055600D01*
X0168100Y0055600D01*
X0168100Y0085712D01*
X0170880Y0088493D01*
X0170923Y0088475D01*
X0172077Y0088475D01*
X0173143Y0088916D01*
X0173650Y0089424D01*
X0173650Y0077076D01*
X0173143Y0077583D01*
X0172077Y0078025D01*
X0170923Y0078025D01*
X0169857Y0077583D01*
X0169041Y0076768D01*
X0168600Y0075702D01*
X0168600Y0074548D01*
X0169041Y0073482D01*
X0169857Y0072666D01*
X0169900Y0072649D01*
X0169900Y0069476D01*
X0169857Y0069458D01*
X0169041Y0068643D01*
X0168600Y0067577D01*
X0168600Y0066423D01*
X0169041Y0065357D01*
X0169857Y0064541D01*
X0170923Y0064100D01*
X0172077Y0064100D01*
X0173143Y0064541D01*
X0173650Y0065049D01*
X0173650Y0056283D01*
X0173572Y0056180D01*
X0173650Y0055636D01*
X0173650Y0055600D01*
X0172794Y0055600D01*
X0172150Y0054956D01*
X0172150Y0039044D01*
X0172794Y0038400D01*
X0180206Y0038400D01*
X0180850Y0039044D01*
X0180850Y0054956D01*
X0180206Y0055600D01*
X0176888Y0055600D01*
X0176850Y0055864D01*
X0176850Y0089424D01*
X0177357Y0088916D01*
X0178423Y0088475D01*
X0179577Y0088475D01*
X0180643Y0088916D01*
X0181150Y0089424D01*
X0181150Y0070101D01*
X0181107Y0070083D01*
X0180291Y0069268D01*
X0179850Y0068202D01*
X0179850Y0067048D01*
X0180291Y0065982D01*
X0181107Y0065166D01*
X0182173Y0064725D01*
X0183327Y0064725D01*
X0184393Y0065166D01*
X0185208Y0065982D01*
X0185250Y0066082D01*
X0185291Y0065982D01*
X0186107Y0065166D01*
X0187173Y0064725D01*
X0188327Y0064725D01*
X0189393Y0065166D01*
X0189900Y0065674D01*
X0189900Y0059808D01*
X0188217Y0055600D01*
X0182794Y0055600D01*
X0182150Y0054956D01*
X0182150Y0039044D01*
X0182794Y0038400D01*
X0190206Y0038400D01*
X0190850Y0039044D01*
X0190850Y0053567D01*
X0192864Y0058601D01*
X0193100Y0058837D01*
X0193100Y0059192D01*
X0193232Y0059521D01*
X0193100Y0059828D01*
X0193100Y0065674D01*
X0193607Y0065166D01*
X0194673Y0064725D01*
X0194900Y0064725D01*
X0194900Y0055600D01*
X0192794Y0055600D01*
X0192150Y0054956D01*
X0192150Y0039044D01*
X0192794Y0038400D01*
X0200206Y0038400D01*
X0200850Y0039044D01*
X0200850Y0054956D01*
X0200206Y0055600D01*
X0198100Y0055600D01*
X0198100Y0065674D01*
X0198607Y0065166D01*
X0199673Y0064725D01*
X0200827Y0064725D01*
X0201893Y0065166D01*
X0202708Y0065982D01*
X0203150Y0067048D01*
X0203150Y0068202D01*
X0202708Y0069268D01*
X0201893Y0070083D01*
X0201225Y0070360D01*
X0201225Y0076299D01*
X0201732Y0075791D01*
X0202798Y0075350D01*
X0203952Y0075350D01*
X0205018Y0075791D01*
X0205525Y0076299D01*
X0205525Y0070101D01*
X0205482Y0070083D01*
X0204666Y0069268D01*
X0204225Y0068202D01*
X0204225Y0067048D01*
X0204666Y0065982D01*
X0205482Y0065166D01*
X0206548Y0064725D01*
X0207702Y0064725D01*
X0208768Y0065166D01*
X0209275Y0065674D01*
X0209275Y0059160D01*
X0207963Y0055600D01*
X0202794Y0055600D01*
X0202150Y0054956D01*
X0202150Y0039044D01*
X0202794Y0038400D01*
X0210206Y0038400D01*
X0210850Y0039044D01*
X0210850Y0054179D01*
X0212255Y0057992D01*
X0212475Y0058212D01*
X0212475Y0058590D01*
X0212605Y0058944D01*
X0212475Y0059226D01*
X0212475Y0069538D01*
X0212288Y0069725D01*
X0213327Y0069725D01*
X0214393Y0070166D01*
X0214900Y0070674D01*
X0214900Y0055600D01*
X0212794Y0055600D01*
X0212150Y0054956D01*
X0212150Y0039044D01*
X0212794Y0038400D01*
X0220206Y0038400D01*
X0220850Y0039044D01*
X0220850Y0054956D01*
X0220206Y0055600D01*
X0218100Y0055600D01*
X0218100Y0066746D01*
X0218416Y0065982D01*
X0219232Y0065166D01*
X0220298Y0064725D01*
X0221452Y0064725D01*
X0222518Y0065166D01*
X0223333Y0065982D01*
X0223775Y0067048D01*
X0223775Y0068202D01*
X0223333Y0069268D01*
X0222518Y0070083D01*
X0222475Y0070101D01*
X0222475Y0089424D01*
X0222982Y0088916D01*
X0224048Y0088475D01*
X0225202Y0088475D01*
X0226268Y0088916D01*
X0227083Y0089732D01*
X0227525Y0090798D01*
X0227525Y0091952D01*
X0227083Y0093018D01*
X0226268Y0093833D01*
X0226225Y0093851D01*
X0226225Y0147850D01*
X0227077Y0147850D01*
X0228025Y0148243D01*
X0228025Y0080726D01*
X0227982Y0080708D01*
X0227166Y0079893D01*
X0226725Y0078827D01*
X0226725Y0077673D01*
X0227166Y0076607D01*
X0227982Y0075791D01*
X0229048Y0075350D01*
X0230202Y0075350D01*
X0231268Y0075791D01*
X0231775Y0076299D01*
X0231775Y0067663D01*
X0225837Y0061725D01*
X0224900Y0060788D01*
X0224900Y0055600D01*
X0222794Y0055600D01*
X0222150Y0054956D01*
X0222150Y0039044D01*
X0222794Y0038400D01*
X0230206Y0038400D01*
X0230850Y0039044D01*
X0230850Y0054956D01*
X0230206Y0055600D01*
X0228100Y0055600D01*
X0228100Y0059462D01*
X0234900Y0066262D01*
X0234900Y0055600D01*
X0232794Y0055600D01*
X0232150Y0054956D01*
X0232150Y0039044D01*
X0232794Y0038400D01*
X0240206Y0038400D01*
X0240850Y0039044D01*
X0240850Y0054956D01*
X0240206Y0055600D01*
X0238100Y0055600D01*
X0238100Y0065674D01*
X0238607Y0065166D01*
X0239673Y0064725D01*
X0240827Y0064725D01*
X0240870Y0064743D01*
X0244900Y0060712D01*
X0244900Y0055600D01*
X0242794Y0055600D01*
X0242150Y0054956D01*
X0242150Y0039044D01*
X0242794Y0038400D01*
X0250206Y0038400D01*
X0250850Y0039044D01*
X0250850Y0054956D01*
X0250206Y0055600D01*
X0248100Y0055600D01*
X0248100Y0062038D01*
X0247163Y0062975D01*
X0245413Y0064725D01*
X0245827Y0064725D01*
X0246893Y0065166D01*
X0247708Y0065982D01*
X0248150Y0067048D01*
X0248150Y0068202D01*
X0247708Y0069268D01*
X0246893Y0070083D01*
X0246850Y0070101D01*
X0246850Y0083799D01*
X0247357Y0083291D01*
X0248423Y0082850D01*
X0249577Y0082850D01*
X0250643Y0083291D01*
X0251458Y0084107D01*
X0251900Y0085173D01*
X0251900Y0086327D01*
X0251882Y0086370D01*
X0254038Y0088525D01*
X0254975Y0089462D01*
X0254975Y0098174D01*
X0255482Y0097666D01*
X0256548Y0097225D01*
X0257702Y0097225D01*
X0258768Y0097666D01*
X0259583Y0098482D01*
X0259650Y0098643D01*
X0259650Y0061413D01*
X0256425Y0058188D01*
X0255974Y0057819D01*
X0255965Y0057727D01*
X0255900Y0057663D01*
X0255900Y0057080D01*
X0255752Y0055600D01*
X0252794Y0055600D01*
X0252150Y0054956D01*
X0252150Y0039044D01*
X0252794Y0038400D01*
X0260206Y0038400D01*
X0260850Y0039044D01*
X0260850Y0054956D01*
X0260206Y0055600D01*
X0258968Y0055600D01*
X0259035Y0056272D01*
X0262850Y0060087D01*
X0262850Y0187663D01*
X0261913Y0188600D01*
X0260382Y0190130D01*
X0260400Y0190173D01*
X0260400Y0191327D01*
X0259958Y0192393D01*
X0259143Y0193208D01*
X0258077Y0193650D01*
X0256923Y0193650D01*
X0255857Y0193208D01*
X0255041Y0192393D01*
X0254600Y0191327D01*
X0254600Y0190173D01*
X0255041Y0189107D01*
X0255399Y0188750D01*
X0254740Y0188750D01*
X0253100Y0187110D01*
X0253100Y0198837D01*
X0253412Y0199150D01*
X0254626Y0200363D01*
X0254740Y0200250D01*
X0258260Y0200250D01*
X0260750Y0202740D01*
X0260750Y0206260D01*
X0258260Y0208750D01*
X0254740Y0208750D01*
X0253100Y0207110D01*
X0253100Y0211890D01*
X0254740Y0210250D01*
X0258260Y0210250D01*
X0260750Y0212740D01*
X0260750Y0216260D01*
X0258260Y0218750D01*
X0254740Y0218750D01*
X0253100Y0217110D01*
X0253100Y0227038D01*
X0252163Y0227975D01*
X0244382Y0235755D01*
X0244400Y0235798D01*
X0244400Y0236387D01*
X0244663Y0236650D01*
X0245600Y0237587D01*
X0245600Y0300867D01*
X0247700Y0302967D01*
X0247700Y0306033D01*
X0245533Y0308200D01*
X0242467Y0308200D01*
X0240300Y0306033D01*
X0240300Y0302967D01*
X0242400Y0300867D01*
X0242400Y0239141D01*
X0242077Y0239275D01*
X0240923Y0239275D01*
X0239857Y0238833D01*
X0239350Y0238326D01*
X0239350Y0283913D01*
X0238413Y0284850D01*
X0238413Y0284850D01*
X0226257Y0297005D01*
X0226275Y0297048D01*
X0226275Y0298202D01*
X0225833Y0299268D01*
X0225018Y0300083D01*
X0223952Y0300525D01*
X0222798Y0300525D01*
X0221732Y0300083D01*
X0220916Y0299268D01*
X0220475Y0298202D01*
X0220475Y0297048D01*
X0220916Y0295982D01*
X0221732Y0295166D01*
X0222798Y0294725D01*
X0223952Y0294725D01*
X0223995Y0294743D01*
X0236150Y0282587D01*
X0236150Y0235238D01*
X0218757Y0252630D01*
X0218775Y0252673D01*
X0218775Y0253827D01*
X0218333Y0254893D01*
X0217518Y0255708D01*
X0216452Y0256150D01*
X0215298Y0256150D01*
X0214232Y0255708D01*
X0213416Y0254893D01*
X0213100Y0254129D01*
X0213100Y0283288D01*
X0176850Y0319538D01*
X0175913Y0320475D01*
X0132712Y0320475D01*
X0131775Y0319538D01*
X0131775Y0317058D01*
X0131096Y0317737D01*
X0129736Y0318300D01*
X0128264Y0318300D01*
X0126904Y0317737D01*
X0125863Y0316696D01*
X0125300Y0315336D01*
X0125300Y0308664D01*
X0125863Y0307304D01*
X0126904Y0306263D01*
X0128264Y0305700D01*
X0127982Y0305583D01*
X0127166Y0304768D01*
X0126725Y0303702D01*
X0126725Y0302618D01*
X0101497Y0279225D01*
X0101462Y0279225D01*
X0101015Y0278778D01*
X0100551Y0278348D01*
X0100550Y0278313D01*
X0100525Y0278288D01*
X0100525Y0277655D01*
X0100501Y0277023D01*
X0100525Y0276997D01*
X0100525Y0202235D01*
X0099857Y0201958D01*
X0099041Y0201143D01*
X0098600Y0200077D01*
X0098600Y0198923D01*
X0099041Y0197857D01*
X0099857Y0197041D01*
X0100923Y0196600D01*
X0102077Y0196600D01*
X0103143Y0197041D01*
X0103958Y0197857D01*
X0104400Y0198923D01*
X0104400Y0199337D01*
X0104868Y0198870D01*
X0104850Y0198827D01*
X0104850Y0197673D01*
X0105291Y0196607D01*
X0106107Y0195791D01*
X0107173Y0195350D01*
X0108327Y0195350D01*
X0109393Y0195791D01*
X0110208Y0196607D01*
X0110650Y0197673D01*
X0110650Y0198827D01*
X0110208Y0199893D01*
X0109393Y0200708D01*
X0109293Y0200750D01*
X0109393Y0200791D01*
X0110208Y0201607D01*
X0110650Y0202673D01*
X0110650Y0203827D01*
X0110632Y0203870D01*
X0124038Y0217275D01*
X0124975Y0218212D01*
X0124975Y0242024D01*
X0125018Y0242041D01*
X0125833Y0242857D01*
X0126275Y0243923D01*
X0126275Y0245077D01*
X0125833Y0246143D01*
X0125018Y0246958D01*
X0123952Y0247400D01*
X0122798Y0247400D01*
X0121732Y0246958D01*
X0120916Y0246143D01*
X0120475Y0245077D01*
X0120475Y0243923D01*
X0120916Y0242857D01*
X0121732Y0242041D01*
X0121775Y0242024D01*
X0121775Y0219538D01*
X0108370Y0206132D01*
X0108327Y0206150D01*
X0107173Y0206150D01*
X0106107Y0205708D01*
X0105600Y0205201D01*
X0105600Y0266962D01*
X0134975Y0296337D01*
X0134975Y0317275D01*
X0136442Y0317275D01*
X0135863Y0316696D01*
X0135300Y0315336D01*
X0135300Y0308664D01*
X0135863Y0307304D01*
X0136904Y0306263D01*
X0138264Y0305700D01*
X0139736Y0305700D01*
X0141096Y0306263D01*
X0142137Y0307304D01*
X0142146Y0307326D01*
X0151775Y0299371D01*
X0151775Y0266451D01*
X0151268Y0266958D01*
X0150202Y0267400D01*
X0149048Y0267400D01*
X0148803Y0267298D01*
X0138919Y0275700D01*
X0139736Y0275700D01*
X0141096Y0276263D01*
X0142137Y0277304D01*
X0142700Y0278664D01*
X0142700Y0285336D01*
X0142137Y0286696D01*
X0141096Y0287737D01*
X0139736Y0288300D01*
X0138264Y0288300D01*
X0136904Y0287737D01*
X0135863Y0286696D01*
X0135300Y0285336D01*
X0135300Y0278776D01*
X0132700Y0280986D01*
X0132700Y0285336D01*
X0132137Y0286696D01*
X0131096Y0287737D01*
X0129736Y0288300D01*
X0128264Y0288300D01*
X0126904Y0287737D01*
X0125863Y0286696D01*
X0125300Y0285336D01*
X0125300Y0278664D01*
X0125863Y0277304D01*
X0126904Y0276263D01*
X0128264Y0275700D01*
X0129736Y0275700D01*
X0131096Y0276263D01*
X0132116Y0277283D01*
X0146725Y0264865D01*
X0146725Y0263923D01*
X0147166Y0262857D01*
X0147982Y0262041D01*
X0148025Y0262024D01*
X0148025Y0238212D01*
X0148962Y0237275D01*
X0154243Y0231995D01*
X0154225Y0231952D01*
X0154225Y0230798D01*
X0154666Y0229732D01*
X0155482Y0228916D01*
X0156548Y0228475D01*
X0157702Y0228475D01*
X0158768Y0228916D01*
X0159583Y0229732D01*
X0160025Y0230798D01*
X0160025Y0231952D01*
X0159583Y0233018D01*
X0158768Y0233833D01*
X0158667Y0233875D01*
X0158768Y0233916D01*
X0159583Y0234732D01*
X0160025Y0235798D01*
X0160025Y0236952D01*
X0159583Y0238018D01*
X0158768Y0238833D01*
X0157702Y0239275D01*
X0156548Y0239275D01*
X0156505Y0239257D01*
X0154975Y0240788D01*
X0154975Y0245674D01*
X0155482Y0245166D01*
X0156548Y0244725D01*
X0157702Y0244725D01*
X0157745Y0244743D01*
X0162400Y0240087D01*
X0162400Y0201337D01*
X0171150Y0192587D01*
X0171004Y0191266D02*
X0029000Y0191266D01*
X0029000Y0190268D02*
X0170005Y0190268D01*
X0169007Y0189269D02*
X0102707Y0189269D01*
X0103488Y0188271D02*
X0168008Y0188271D01*
X0167010Y0187272D02*
X0103775Y0187272D01*
X0103864Y0186274D02*
X0166011Y0186274D01*
X0165012Y0185275D02*
X0104863Y0185275D01*
X0105861Y0184277D02*
X0164014Y0184277D01*
X0163015Y0183278D02*
X0106860Y0183278D01*
X0107858Y0182280D02*
X0162017Y0182280D01*
X0161018Y0181281D02*
X0108857Y0181281D01*
X0109855Y0180283D02*
X0160020Y0180283D01*
X0159021Y0179284D02*
X0110854Y0179284D01*
X0111852Y0178286D02*
X0158023Y0178286D01*
X0157024Y0177287D02*
X0112851Y0177287D01*
X0113849Y0176289D02*
X0156026Y0176289D01*
X0155027Y0175290D02*
X0114848Y0175290D01*
X0114975Y0174292D02*
X0154029Y0174292D01*
X0153030Y0173293D02*
X0114975Y0173293D01*
X0114975Y0172295D02*
X0152032Y0172295D01*
X0151033Y0171296D02*
X0114975Y0171296D01*
X0114975Y0170298D02*
X0150035Y0170298D01*
X0149036Y0169299D02*
X0114975Y0169299D01*
X0114975Y0168301D02*
X0148038Y0168301D01*
X0147039Y0167302D02*
X0114975Y0167302D01*
X0114975Y0166303D02*
X0146041Y0166303D01*
X0145042Y0165305D02*
X0114975Y0165305D01*
X0114975Y0164306D02*
X0144044Y0164306D01*
X0143045Y0163308D02*
X0114975Y0163308D01*
X0114975Y0162309D02*
X0142047Y0162309D01*
X0141048Y0161311D02*
X0114975Y0161311D01*
X0114975Y0160312D02*
X0140050Y0160312D01*
X0139051Y0159314D02*
X0114975Y0159314D01*
X0114975Y0158315D02*
X0138053Y0158315D01*
X0137054Y0157317D02*
X0114975Y0157317D01*
X0114975Y0156318D02*
X0136056Y0156318D01*
X0135057Y0155320D02*
X0114975Y0155320D01*
X0114975Y0154321D02*
X0134059Y0154321D01*
X0133060Y0153323D02*
X0114975Y0153323D01*
X0114975Y0152324D02*
X0132062Y0152324D01*
X0131063Y0151326D02*
X0114975Y0151326D01*
X0114975Y0150327D02*
X0130065Y0150327D01*
X0129066Y0149329D02*
X0114975Y0149329D01*
X0114975Y0148330D02*
X0128068Y0148330D01*
X0127069Y0147332D02*
X0114975Y0147332D01*
X0114975Y0146333D02*
X0126071Y0146333D01*
X0125072Y0145335D02*
X0114975Y0145335D01*
X0114975Y0144336D02*
X0124074Y0144336D01*
X0123075Y0143338D02*
X0114975Y0143338D01*
X0114975Y0142339D02*
X0122077Y0142339D01*
X0121078Y0141341D02*
X0114975Y0141341D01*
X0114975Y0140342D02*
X0120079Y0140342D01*
X0119081Y0139344D02*
X0114975Y0139344D01*
X0114975Y0138345D02*
X0118082Y0138345D01*
X0117084Y0137347D02*
X0114975Y0137347D01*
X0114975Y0136348D02*
X0116085Y0136348D01*
X0116462Y0136725D02*
X0116462Y0136725D01*
X0115525Y0135350D02*
X0114975Y0135350D01*
X0114975Y0134351D02*
X0115525Y0134351D01*
X0115525Y0133353D02*
X0114975Y0133353D01*
X0114975Y0132354D02*
X0115525Y0132354D01*
X0115525Y0131356D02*
X0114975Y0131356D01*
X0114975Y0130357D02*
X0115525Y0130357D01*
X0115525Y0129359D02*
X0114975Y0129359D01*
X0114975Y0128360D02*
X0115525Y0128360D01*
X0115525Y0127362D02*
X0114975Y0127362D01*
X0114975Y0126363D02*
X0115525Y0126363D01*
X0115525Y0125365D02*
X0114975Y0125365D01*
X0114975Y0124366D02*
X0115525Y0124366D01*
X0115525Y0123368D02*
X0114975Y0123368D01*
X0114975Y0122369D02*
X0115525Y0122369D01*
X0115525Y0121370D02*
X0114975Y0121370D01*
X0114975Y0120372D02*
X0115525Y0120372D01*
X0115525Y0119373D02*
X0114975Y0119373D01*
X0114975Y0118375D02*
X0115525Y0118375D01*
X0115525Y0117376D02*
X0114975Y0117376D01*
X0114975Y0116378D02*
X0115525Y0116378D01*
X0115525Y0115379D02*
X0114975Y0115379D01*
X0114975Y0114381D02*
X0115525Y0114381D01*
X0115525Y0113382D02*
X0114975Y0113382D01*
X0114975Y0112384D02*
X0115525Y0112384D01*
X0115525Y0111385D02*
X0114975Y0111385D01*
X0114975Y0110387D02*
X0115525Y0110387D01*
X0115525Y0109388D02*
X0114975Y0109388D01*
X0114975Y0108390D02*
X0115525Y0108390D01*
X0115525Y0107391D02*
X0114975Y0107391D01*
X0114975Y0106393D02*
X0115525Y0106393D01*
X0115525Y0105394D02*
X0114975Y0105394D01*
X0114975Y0104396D02*
X0115525Y0104396D01*
X0115525Y0103397D02*
X0114975Y0103397D01*
X0114975Y0102399D02*
X0115525Y0102399D01*
X0115525Y0101400D02*
X0114987Y0101400D01*
X0113375Y0100750D02*
X0113375Y0174500D01*
X0100875Y0187000D01*
X0099872Y0184277D02*
X0029000Y0184277D01*
X0029000Y0185275D02*
X0098499Y0185275D01*
X0098037Y0186274D02*
X0029000Y0186274D01*
X0029000Y0187272D02*
X0097975Y0187272D01*
X0098262Y0188271D02*
X0029000Y0188271D01*
X0029000Y0189269D02*
X0099043Y0189269D01*
X0102334Y0183278D02*
X0029000Y0183278D01*
X0029000Y0182280D02*
X0103333Y0182280D01*
X0104331Y0181281D02*
X0029000Y0181281D01*
X0029000Y0180283D02*
X0105330Y0180283D01*
X0102808Y0179284D02*
X0029000Y0179284D01*
X0029000Y0178286D02*
X0102019Y0178286D01*
X0101725Y0177287D02*
X0029000Y0177287D01*
X0029000Y0176289D02*
X0101781Y0176289D01*
X0102234Y0175290D02*
X0029000Y0175290D01*
X0029000Y0174292D02*
X0103586Y0174292D01*
X0106069Y0173293D02*
X0029000Y0173293D01*
X0029000Y0172295D02*
X0107068Y0172295D01*
X0108066Y0171296D02*
X0029000Y0171296D01*
X0029000Y0170298D02*
X0109065Y0170298D01*
X0109900Y0169299D02*
X0029000Y0169299D01*
X0029000Y0168301D02*
X0109900Y0168301D01*
X0109900Y0167302D02*
X0029000Y0167302D01*
X0029000Y0166303D02*
X0109900Y0166303D01*
X0109900Y0165305D02*
X0029000Y0165305D01*
X0029000Y0164306D02*
X0109900Y0164306D01*
X0109900Y0163308D02*
X0029000Y0163308D01*
X0029000Y0162309D02*
X0109900Y0162309D01*
X0109900Y0161311D02*
X0029000Y0161311D01*
X0029000Y0160312D02*
X0109900Y0160312D01*
X0109900Y0159314D02*
X0029000Y0159314D01*
X0029000Y0158315D02*
X0109900Y0158315D01*
X0109900Y0157317D02*
X0029000Y0157317D01*
X0029000Y0156318D02*
X0109900Y0156318D01*
X0109900Y0155320D02*
X0109781Y0155320D01*
X0107750Y0153250D02*
X0056500Y0102000D01*
X0059667Y0102399D02*
X0060833Y0102399D01*
X0060833Y0101400D02*
X0059667Y0101400D01*
X0059266Y0100402D02*
X0060139Y0100402D01*
X0060250Y0098250D02*
X0042125Y0098250D01*
X0042125Y0098875D01*
X0039594Y0097406D02*
X0029000Y0097406D01*
X0029000Y0096408D02*
X0040504Y0096408D01*
X0039225Y0098405D02*
X0029000Y0098405D01*
X0029000Y0099403D02*
X0039225Y0099403D01*
X0039618Y0100402D02*
X0029000Y0100402D01*
X0029000Y0101400D02*
X0040643Y0101400D01*
X0040125Y0102399D02*
X0029000Y0102399D01*
X0029000Y0103397D02*
X0039443Y0103397D01*
X0039225Y0104396D02*
X0029000Y0104396D01*
X0029000Y0105394D02*
X0039356Y0105394D01*
X0039917Y0106393D02*
X0029000Y0106393D01*
X0029000Y0107391D02*
X0041527Y0107391D01*
X0042723Y0107391D02*
X0050205Y0107391D01*
X0048914Y0106393D02*
X0044333Y0106393D01*
X0042125Y0104500D02*
X0051500Y0104500D01*
X0052795Y0107391D02*
X0059629Y0107391D01*
X0060627Y0108390D02*
X0029000Y0108390D01*
X0029000Y0109388D02*
X0061626Y0109388D01*
X0062624Y0110387D02*
X0029000Y0110387D01*
X0029000Y0111385D02*
X0063623Y0111385D01*
X0064621Y0112384D02*
X0029000Y0112384D01*
X0029000Y0113382D02*
X0065620Y0113382D01*
X0066618Y0114381D02*
X0029000Y0114381D01*
X0029000Y0115379D02*
X0067617Y0115379D01*
X0068615Y0116378D02*
X0029000Y0116378D01*
X0029000Y0117376D02*
X0069614Y0117376D01*
X0070612Y0118375D02*
X0029000Y0118375D01*
X0029000Y0119373D02*
X0071611Y0119373D01*
X0072609Y0120372D02*
X0029000Y0120372D01*
X0029000Y0121370D02*
X0073608Y0121370D01*
X0074606Y0122369D02*
X0029000Y0122369D01*
X0029000Y0123368D02*
X0075605Y0123368D01*
X0076603Y0124366D02*
X0029000Y0124366D01*
X0029000Y0125365D02*
X0077602Y0125365D01*
X0078600Y0126363D02*
X0029000Y0126363D01*
X0029000Y0127362D02*
X0079599Y0127362D01*
X0080597Y0128360D02*
X0029000Y0128360D01*
X0029000Y0129359D02*
X0081596Y0129359D01*
X0082594Y0130357D02*
X0029000Y0130357D01*
X0029000Y0131356D02*
X0083593Y0131356D01*
X0084591Y0132354D02*
X0029000Y0132354D01*
X0029000Y0133353D02*
X0085590Y0133353D01*
X0086588Y0134351D02*
X0029000Y0134351D01*
X0029000Y0135350D02*
X0087587Y0135350D01*
X0088585Y0136348D02*
X0029000Y0136348D01*
X0029000Y0137347D02*
X0089584Y0137347D01*
X0090582Y0138345D02*
X0029000Y0138345D01*
X0029000Y0139344D02*
X0091581Y0139344D01*
X0092579Y0140342D02*
X0029000Y0140342D01*
X0029000Y0141341D02*
X0093578Y0141341D01*
X0094577Y0142339D02*
X0029000Y0142339D01*
X0029000Y0143338D02*
X0095575Y0143338D01*
X0096574Y0144336D02*
X0029000Y0144336D01*
X0029000Y0145335D02*
X0097572Y0145335D01*
X0098571Y0146333D02*
X0029000Y0146333D01*
X0029000Y0147332D02*
X0099569Y0147332D01*
X0100568Y0148330D02*
X0029000Y0148330D01*
X0029000Y0149329D02*
X0101566Y0149329D01*
X0102565Y0150327D02*
X0029000Y0150327D01*
X0029000Y0151326D02*
X0103563Y0151326D01*
X0104562Y0152324D02*
X0029000Y0152324D01*
X0029000Y0153323D02*
X0104850Y0153323D01*
X0105055Y0154321D02*
X0029000Y0154321D01*
X0029000Y0155320D02*
X0105719Y0155320D01*
X0107090Y0150327D02*
X0109900Y0150327D01*
X0109900Y0149329D02*
X0106092Y0149329D01*
X0105093Y0148330D02*
X0109900Y0148330D01*
X0109900Y0147332D02*
X0104095Y0147332D01*
X0103096Y0146333D02*
X0109900Y0146333D01*
X0109900Y0145335D02*
X0102097Y0145335D01*
X0101099Y0144336D02*
X0109900Y0144336D01*
X0109900Y0143338D02*
X0100100Y0143338D01*
X0099102Y0142339D02*
X0109900Y0142339D01*
X0109900Y0141341D02*
X0098103Y0141341D01*
X0097105Y0140342D02*
X0109900Y0140342D01*
X0109900Y0139344D02*
X0096106Y0139344D01*
X0095108Y0138345D02*
X0109900Y0138345D01*
X0109900Y0137347D02*
X0094109Y0137347D01*
X0093111Y0136348D02*
X0109900Y0136348D01*
X0109900Y0135350D02*
X0092112Y0135350D01*
X0091114Y0134351D02*
X0109900Y0134351D01*
X0109900Y0133353D02*
X0090115Y0133353D01*
X0089117Y0132354D02*
X0109900Y0132354D01*
X0109900Y0131356D02*
X0088118Y0131356D01*
X0087120Y0130357D02*
X0109900Y0130357D01*
X0109900Y0129359D02*
X0086121Y0129359D01*
X0085123Y0128360D02*
X0109900Y0128360D01*
X0109900Y0127362D02*
X0084124Y0127362D01*
X0083126Y0126363D02*
X0109900Y0126363D01*
X0109900Y0125365D02*
X0082127Y0125365D01*
X0081129Y0124366D02*
X0109900Y0124366D01*
X0109900Y0123368D02*
X0080130Y0123368D01*
X0079132Y0122369D02*
X0109900Y0122369D01*
X0109900Y0121370D02*
X0078133Y0121370D01*
X0077135Y0120372D02*
X0109900Y0120372D01*
X0109900Y0119373D02*
X0076136Y0119373D01*
X0075138Y0118375D02*
X0109900Y0118375D01*
X0109900Y0117376D02*
X0074139Y0117376D01*
X0073141Y0116378D02*
X0109900Y0116378D01*
X0109900Y0115379D02*
X0072142Y0115379D01*
X0071144Y0114381D02*
X0109900Y0114381D01*
X0109900Y0113382D02*
X0070145Y0113382D01*
X0069147Y0112384D02*
X0109900Y0112384D01*
X0109900Y0111385D02*
X0068148Y0111385D01*
X0067150Y0110387D02*
X0109900Y0110387D01*
X0109900Y0109388D02*
X0066151Y0109388D01*
X0065153Y0108390D02*
X0106545Y0108390D01*
X0105291Y0107391D02*
X0064154Y0107391D01*
X0063156Y0106393D02*
X0073630Y0106393D01*
X0072632Y0105394D02*
X0062157Y0105394D01*
X0061917Y0104396D02*
X0061159Y0104396D01*
X0061151Y0103397D02*
X0060160Y0103397D01*
X0057632Y0105394D02*
X0054557Y0105394D01*
X0054086Y0106393D02*
X0058630Y0106393D01*
X0064000Y0102000D02*
X0060250Y0098250D01*
X0061669Y0097406D02*
X0077400Y0097406D01*
X0077400Y0096408D02*
X0043746Y0096408D01*
X0029000Y0095409D02*
X0077400Y0095409D01*
X0077400Y0094411D02*
X0029000Y0094411D01*
X0029000Y0093412D02*
X0077400Y0093412D01*
X0077824Y0092414D02*
X0029000Y0092414D01*
X0029000Y0091415D02*
X0097905Y0091415D01*
X0097487Y0090417D02*
X0029000Y0090417D01*
X0029000Y0089418D02*
X0097250Y0089418D01*
X0097250Y0088420D02*
X0029000Y0088420D01*
X0029000Y0087421D02*
X0097554Y0087421D01*
X0098067Y0086423D02*
X0029000Y0086423D01*
X0029000Y0085424D02*
X0099066Y0085424D01*
X0103934Y0085424D02*
X0112400Y0085424D01*
X0112400Y0084426D02*
X0029000Y0084426D01*
X0029000Y0083427D02*
X0112400Y0083427D01*
X0112400Y0082429D02*
X0029000Y0082429D01*
X0029000Y0081430D02*
X0112400Y0081430D01*
X0112400Y0080432D02*
X0029000Y0080432D01*
X0029000Y0079433D02*
X0099357Y0079433D01*
X0099574Y0079650D02*
X0096850Y0076926D01*
X0096850Y0075300D01*
X0101200Y0075300D01*
X0101200Y0079650D01*
X0099574Y0079650D01*
X0101200Y0079433D02*
X0101800Y0079433D01*
X0101800Y0079650D02*
X0101800Y0075300D01*
X0101200Y0075300D01*
X0101200Y0074700D01*
X0096850Y0074700D01*
X0096850Y0073074D01*
X0099574Y0070350D01*
X0101200Y0070350D01*
X0101200Y0074700D01*
X0101800Y0074700D01*
X0101800Y0075300D01*
X0106150Y0075300D01*
X0106150Y0076926D01*
X0103426Y0079650D01*
X0101800Y0079650D01*
X0101800Y0078434D02*
X0101200Y0078434D01*
X0101200Y0077436D02*
X0101800Y0077436D01*
X0101800Y0076437D02*
X0101200Y0076437D01*
X0101200Y0075439D02*
X0101800Y0075439D01*
X0101800Y0074700D02*
X0106150Y0074700D01*
X0106150Y0073074D01*
X0103426Y0070350D01*
X0101800Y0070350D01*
X0101800Y0074700D01*
X0101800Y0074440D02*
X0101200Y0074440D01*
X0101200Y0073442D02*
X0101800Y0073442D01*
X0101800Y0072443D02*
X0101200Y0072443D01*
X0101200Y0071445D02*
X0101800Y0071445D01*
X0101800Y0070446D02*
X0101200Y0070446D01*
X0099477Y0070446D02*
X0029000Y0070446D01*
X0029000Y0069448D02*
X0112414Y0069448D01*
X0112400Y0070446D02*
X0103522Y0070446D01*
X0104521Y0071445D02*
X0112400Y0071445D01*
X0112400Y0072443D02*
X0105520Y0072443D01*
X0106150Y0073442D02*
X0112400Y0073442D01*
X0112400Y0074440D02*
X0106150Y0074440D01*
X0106150Y0075439D02*
X0112400Y0075439D01*
X0112400Y0076437D02*
X0106150Y0076437D01*
X0105640Y0077436D02*
X0112400Y0077436D01*
X0112400Y0078434D02*
X0104642Y0078434D01*
X0103643Y0079433D02*
X0112400Y0079433D01*
X0115875Y0076375D02*
X0115875Y0088875D01*
X0111500Y0093250D01*
X0111500Y0170125D01*
X0104625Y0177000D01*
X0105640Y0196259D02*
X0029000Y0196259D01*
X0029000Y0197257D02*
X0099641Y0197257D01*
X0098876Y0198256D02*
X0029000Y0198256D01*
X0029000Y0199254D02*
X0098600Y0199254D01*
X0098673Y0200253D02*
X0029000Y0200253D01*
X0029000Y0201251D02*
X0099150Y0201251D01*
X0100525Y0202250D02*
X0029000Y0202250D01*
X0029000Y0203248D02*
X0049869Y0203248D01*
X0050263Y0203085D02*
X0048014Y0204017D01*
X0046292Y0205738D01*
X0045361Y0207987D01*
X0045361Y0210422D01*
X0046292Y0212671D01*
X0048014Y0214393D01*
X0050263Y0215324D01*
X0062737Y0215324D01*
X0064986Y0214393D01*
X0066708Y0212671D01*
X0067639Y0210422D01*
X0067639Y0207987D01*
X0066708Y0205738D01*
X0064986Y0204017D01*
X0062737Y0203085D01*
X0050263Y0203085D01*
X0047784Y0204247D02*
X0029000Y0204247D01*
X0029000Y0205245D02*
X0046785Y0205245D01*
X0046083Y0206244D02*
X0029000Y0206244D01*
X0029000Y0207242D02*
X0045669Y0207242D01*
X0045361Y0208241D02*
X0029000Y0208241D01*
X0029000Y0209239D02*
X0045361Y0209239D01*
X0045361Y0210238D02*
X0029000Y0210238D01*
X0029000Y0211237D02*
X0045698Y0211237D01*
X0046112Y0212235D02*
X0029000Y0212235D01*
X0029000Y0213234D02*
X0046855Y0213234D01*
X0047853Y0214232D02*
X0029000Y0214232D01*
X0029000Y0215231D02*
X0050036Y0215231D01*
X0050263Y0218676D02*
X0048014Y0219607D01*
X0046292Y0221329D01*
X0045361Y0223578D01*
X0045361Y0226013D01*
X0046292Y0228262D01*
X0048014Y0229983D01*
X0050263Y0230915D01*
X0062737Y0230915D01*
X0064986Y0229983D01*
X0066708Y0228262D01*
X0067639Y0226013D01*
X0067639Y0223578D01*
X0066708Y0221329D01*
X0064986Y0219607D01*
X0062737Y0218676D01*
X0050263Y0218676D01*
X0048938Y0219225D02*
X0029000Y0219225D01*
X0029000Y0220223D02*
X0047398Y0220223D01*
X0046399Y0221222D02*
X0029000Y0221222D01*
X0029000Y0222220D02*
X0045923Y0222220D01*
X0045509Y0223219D02*
X0029000Y0223219D01*
X0029000Y0224217D02*
X0045361Y0224217D01*
X0045361Y0225216D02*
X0029000Y0225216D01*
X0029000Y0226214D02*
X0045444Y0226214D01*
X0045858Y0227213D02*
X0029000Y0227213D01*
X0029000Y0228211D02*
X0046271Y0228211D01*
X0047240Y0229210D02*
X0029000Y0229210D01*
X0029000Y0230208D02*
X0048557Y0230208D01*
X0050263Y0243085D02*
X0048014Y0244017D01*
X0046292Y0245738D01*
X0045361Y0247987D01*
X0045361Y0250422D01*
X0046292Y0252671D01*
X0048014Y0254393D01*
X0050263Y0255324D01*
X0062737Y0255324D01*
X0064986Y0254393D01*
X0066708Y0252671D01*
X0067639Y0250422D01*
X0067639Y0247987D01*
X0066708Y0245738D01*
X0064986Y0244017D01*
X0062737Y0243085D01*
X0050263Y0243085D01*
X0050012Y0243189D02*
X0029000Y0243189D01*
X0029000Y0244187D02*
X0047843Y0244187D01*
X0046845Y0245186D02*
X0029000Y0245186D01*
X0029000Y0246184D02*
X0046107Y0246184D01*
X0045694Y0247183D02*
X0029000Y0247183D01*
X0029000Y0248181D02*
X0045361Y0248181D01*
X0045361Y0249180D02*
X0029000Y0249180D01*
X0029000Y0250178D02*
X0045361Y0250178D01*
X0045673Y0251177D02*
X0029000Y0251177D01*
X0029000Y0252175D02*
X0046087Y0252175D01*
X0046795Y0253174D02*
X0029000Y0253174D01*
X0029000Y0254172D02*
X0047794Y0254172D01*
X0049893Y0255171D02*
X0029000Y0255171D01*
X0029000Y0256170D02*
X0100525Y0256170D01*
X0100525Y0257168D02*
X0029000Y0257168D01*
X0029000Y0258167D02*
X0100525Y0258167D01*
X0100525Y0259165D02*
X0063919Y0259165D01*
X0064986Y0259607D02*
X0066708Y0261329D01*
X0067639Y0263578D01*
X0067639Y0266013D01*
X0066708Y0268262D01*
X0064986Y0269983D01*
X0062737Y0270915D01*
X0050263Y0270915D01*
X0048014Y0269983D01*
X0046292Y0268262D01*
X0045361Y0266013D01*
X0045361Y0263578D01*
X0046292Y0261329D01*
X0048014Y0259607D01*
X0050263Y0258676D01*
X0062737Y0258676D01*
X0064986Y0259607D01*
X0065542Y0260164D02*
X0100525Y0260164D01*
X0100525Y0261162D02*
X0066541Y0261162D01*
X0067052Y0262161D02*
X0100525Y0262161D01*
X0100525Y0263159D02*
X0067466Y0263159D01*
X0067639Y0264158D02*
X0100525Y0264158D01*
X0100525Y0265156D02*
X0067639Y0265156D01*
X0067581Y0266155D02*
X0100525Y0266155D01*
X0100525Y0267153D02*
X0067167Y0267153D01*
X0066753Y0268152D02*
X0100525Y0268152D01*
X0100525Y0269150D02*
X0065819Y0269150D01*
X0064587Y0270149D02*
X0100525Y0270149D01*
X0100525Y0271147D02*
X0029000Y0271147D01*
X0029000Y0270149D02*
X0048413Y0270149D01*
X0047181Y0269150D02*
X0029000Y0269150D01*
X0029000Y0268152D02*
X0046247Y0268152D01*
X0045833Y0267153D02*
X0029000Y0267153D01*
X0029000Y0266155D02*
X0045419Y0266155D01*
X0045361Y0265156D02*
X0029000Y0265156D01*
X0029000Y0264158D02*
X0045361Y0264158D01*
X0045534Y0263159D02*
X0029000Y0263159D01*
X0029000Y0262161D02*
X0045948Y0262161D01*
X0046459Y0261162D02*
X0029000Y0261162D01*
X0029000Y0260164D02*
X0047457Y0260164D01*
X0049081Y0259165D02*
X0029000Y0259165D01*
X0029000Y0272146D02*
X0100525Y0272146D01*
X0100525Y0273144D02*
X0029000Y0273144D01*
X0029000Y0274143D02*
X0100525Y0274143D01*
X0100525Y0275141D02*
X0029000Y0275141D01*
X0029000Y0276140D02*
X0100525Y0276140D01*
X0100505Y0277138D02*
X0029000Y0277138D01*
X0029000Y0278137D02*
X0100525Y0278137D01*
X0101373Y0279135D02*
X0029000Y0279135D01*
X0029000Y0280134D02*
X0102477Y0280134D01*
X0103554Y0281132D02*
X0029000Y0281132D01*
X0029000Y0282131D02*
X0104631Y0282131D01*
X0105708Y0283129D02*
X0029000Y0283129D01*
X0029000Y0284128D02*
X0106785Y0284128D01*
X0107862Y0285126D02*
X0029000Y0285126D01*
X0029000Y0286125D02*
X0108938Y0286125D01*
X0110015Y0287123D02*
X0029000Y0287123D01*
X0029000Y0288122D02*
X0111092Y0288122D01*
X0112169Y0289120D02*
X0029000Y0289120D01*
X0029000Y0290119D02*
X0113246Y0290119D01*
X0114323Y0291117D02*
X0029000Y0291117D01*
X0029000Y0292116D02*
X0115399Y0292116D01*
X0116476Y0293114D02*
X0029000Y0293114D01*
X0029000Y0294113D02*
X0117553Y0294113D01*
X0118630Y0295111D02*
X0029000Y0295111D01*
X0029000Y0296110D02*
X0119707Y0296110D01*
X0120783Y0297108D02*
X0029000Y0297108D01*
X0029000Y0298107D02*
X0121860Y0298107D01*
X0122937Y0299105D02*
X0029000Y0299105D01*
X0029000Y0300104D02*
X0124014Y0300104D01*
X0125091Y0301103D02*
X0029000Y0301103D01*
X0029000Y0302101D02*
X0126168Y0302101D01*
X0126725Y0303100D02*
X0088398Y0303100D01*
X0088198Y0302900D02*
X0090600Y0305302D01*
X0090600Y0306700D01*
X0086800Y0306700D01*
X0086800Y0307300D01*
X0090600Y0307300D01*
X0090600Y0308698D01*
X0088198Y0311100D01*
X0086800Y0311100D01*
X0086800Y0307300D01*
X0086200Y0307300D01*
X0086200Y0311100D01*
X0084802Y0311100D01*
X0082400Y0308698D01*
X0082400Y0307300D01*
X0086200Y0307300D01*
X0086200Y0306700D01*
X0086800Y0306700D01*
X0086800Y0302900D01*
X0088198Y0302900D01*
X0086800Y0303100D02*
X0086200Y0303100D01*
X0086200Y0302900D02*
X0086200Y0306700D01*
X0082400Y0306700D01*
X0082400Y0305302D01*
X0084802Y0302900D01*
X0086200Y0302900D01*
X0086200Y0304098D02*
X0086800Y0304098D01*
X0086800Y0305097D02*
X0086200Y0305097D01*
X0086200Y0306095D02*
X0086800Y0306095D01*
X0086800Y0307094D02*
X0126074Y0307094D01*
X0125537Y0308092D02*
X0090600Y0308092D01*
X0090208Y0309091D02*
X0125300Y0309091D01*
X0125300Y0310089D02*
X0089209Y0310089D01*
X0088211Y0311088D02*
X0125300Y0311088D01*
X0125300Y0312086D02*
X0029000Y0312086D01*
X0029000Y0311088D02*
X0049789Y0311088D01*
X0049802Y0311100D02*
X0047400Y0308698D01*
X0047400Y0307300D01*
X0051200Y0307300D01*
X0051200Y0311100D01*
X0049802Y0311100D01*
X0051200Y0311088D02*
X0051800Y0311088D01*
X0051800Y0311100D02*
X0053198Y0311100D01*
X0055600Y0308698D01*
X0055600Y0307300D01*
X0051800Y0307300D01*
X0051800Y0306700D01*
X0055600Y0306700D01*
X0055600Y0305302D01*
X0053198Y0302900D01*
X0051800Y0302900D01*
X0051800Y0306700D01*
X0051200Y0306700D01*
X0051200Y0302900D01*
X0049802Y0302900D01*
X0047400Y0305302D01*
X0047400Y0306700D01*
X0051200Y0306700D01*
X0051200Y0307300D01*
X0051800Y0307300D01*
X0051800Y0311100D01*
X0051800Y0310089D02*
X0051200Y0310089D01*
X0051200Y0309091D02*
X0051800Y0309091D01*
X0051800Y0308092D02*
X0051200Y0308092D01*
X0051200Y0307094D02*
X0045200Y0307094D01*
X0045200Y0308092D02*
X0047400Y0308092D01*
X0047792Y0309091D02*
X0044642Y0309091D01*
X0045200Y0308533D02*
X0043033Y0310700D01*
X0039967Y0310700D01*
X0037800Y0308533D01*
X0037800Y0305467D01*
X0039967Y0303300D01*
X0043033Y0303300D01*
X0045200Y0305467D01*
X0045200Y0308533D01*
X0043643Y0310089D02*
X0048791Y0310089D01*
X0051500Y0307000D02*
X0044625Y0302625D01*
X0044625Y0207000D01*
X0053375Y0198250D01*
X0063131Y0203248D02*
X0100525Y0203248D01*
X0100525Y0204247D02*
X0065216Y0204247D01*
X0066215Y0205245D02*
X0100525Y0205245D01*
X0100525Y0206244D02*
X0066917Y0206244D01*
X0067331Y0207242D02*
X0100525Y0207242D01*
X0100525Y0208241D02*
X0067639Y0208241D01*
X0067639Y0209239D02*
X0100525Y0209239D01*
X0100525Y0210238D02*
X0067639Y0210238D01*
X0067302Y0211237D02*
X0100525Y0211237D01*
X0100525Y0212235D02*
X0066888Y0212235D01*
X0066145Y0213234D02*
X0100525Y0213234D01*
X0100525Y0214232D02*
X0065147Y0214232D01*
X0062964Y0215231D02*
X0100525Y0215231D01*
X0100525Y0216229D02*
X0029000Y0216229D01*
X0029000Y0217228D02*
X0100525Y0217228D01*
X0100525Y0218226D02*
X0029000Y0218226D01*
X0029000Y0231207D02*
X0100525Y0231207D01*
X0100525Y0232205D02*
X0029000Y0232205D01*
X0029000Y0233204D02*
X0100525Y0233204D01*
X0100525Y0234202D02*
X0029000Y0234202D01*
X0029000Y0235201D02*
X0100525Y0235201D01*
X0100525Y0236199D02*
X0029000Y0236199D01*
X0029000Y0237198D02*
X0100525Y0237198D01*
X0100525Y0238196D02*
X0029000Y0238196D01*
X0029000Y0239195D02*
X0100525Y0239195D01*
X0100525Y0240193D02*
X0029000Y0240193D01*
X0029000Y0241192D02*
X0100525Y0241192D01*
X0100525Y0242190D02*
X0029000Y0242190D01*
X0062988Y0243189D02*
X0100525Y0243189D01*
X0100525Y0244187D02*
X0065157Y0244187D01*
X0066155Y0245186D02*
X0100525Y0245186D01*
X0100525Y0246184D02*
X0066893Y0246184D01*
X0067306Y0247183D02*
X0100525Y0247183D01*
X0100525Y0248181D02*
X0067639Y0248181D01*
X0067639Y0249180D02*
X0100525Y0249180D01*
X0100525Y0250178D02*
X0067639Y0250178D01*
X0067327Y0251177D02*
X0100525Y0251177D01*
X0100525Y0252175D02*
X0066913Y0252175D01*
X0066205Y0253174D02*
X0100525Y0253174D01*
X0100525Y0254172D02*
X0065206Y0254172D01*
X0063107Y0255171D02*
X0100525Y0255171D01*
X0105600Y0255171D02*
X0148025Y0255171D01*
X0148025Y0256170D02*
X0105600Y0256170D01*
X0105600Y0257168D02*
X0148025Y0257168D01*
X0148025Y0258167D02*
X0105600Y0258167D01*
X0105600Y0259165D02*
X0148025Y0259165D01*
X0148025Y0260164D02*
X0105600Y0260164D01*
X0105600Y0261162D02*
X0148025Y0261162D01*
X0147863Y0262161D02*
X0105600Y0262161D01*
X0105600Y0263159D02*
X0147041Y0263159D01*
X0146725Y0264158D02*
X0105600Y0264158D01*
X0105600Y0265156D02*
X0146383Y0265156D01*
X0145208Y0266155D02*
X0105600Y0266155D01*
X0105791Y0267153D02*
X0144033Y0267153D01*
X0142858Y0268152D02*
X0106789Y0268152D01*
X0107788Y0269150D02*
X0141684Y0269150D01*
X0140509Y0270149D02*
X0108786Y0270149D01*
X0109785Y0271147D02*
X0139334Y0271147D01*
X0138160Y0272146D02*
X0110783Y0272146D01*
X0111782Y0273144D02*
X0136985Y0273144D01*
X0135810Y0274143D02*
X0112780Y0274143D01*
X0113779Y0275141D02*
X0134635Y0275141D01*
X0133461Y0276140D02*
X0130798Y0276140D01*
X0131971Y0277138D02*
X0132286Y0277138D01*
X0134877Y0279135D02*
X0135300Y0279135D01*
X0135300Y0280134D02*
X0133703Y0280134D01*
X0132700Y0281132D02*
X0135300Y0281132D01*
X0135300Y0282131D02*
X0132700Y0282131D01*
X0132700Y0283129D02*
X0135300Y0283129D01*
X0135300Y0284128D02*
X0132700Y0284128D01*
X0132700Y0285126D02*
X0135300Y0285126D01*
X0135627Y0286125D02*
X0132373Y0286125D01*
X0131709Y0287123D02*
X0136291Y0287123D01*
X0137834Y0288122D02*
X0130166Y0288122D01*
X0127834Y0288122D02*
X0126760Y0288122D01*
X0126291Y0287123D02*
X0125761Y0287123D01*
X0125627Y0286125D02*
X0124763Y0286125D01*
X0125300Y0285126D02*
X0123764Y0285126D01*
X0122766Y0284128D02*
X0125300Y0284128D01*
X0125300Y0283129D02*
X0121767Y0283129D01*
X0120769Y0282131D02*
X0125300Y0282131D01*
X0125300Y0281132D02*
X0119770Y0281132D01*
X0118772Y0280134D02*
X0125300Y0280134D01*
X0125300Y0279135D02*
X0117773Y0279135D01*
X0116774Y0278137D02*
X0125518Y0278137D01*
X0126029Y0277138D02*
X0115776Y0277138D01*
X0114777Y0276140D02*
X0127202Y0276140D01*
X0129625Y0281500D02*
X0129000Y0282000D01*
X0129625Y0281500D02*
X0149625Y0264500D01*
X0149625Y0238875D01*
X0157125Y0231375D01*
X0159781Y0230208D02*
X0162400Y0230208D01*
X0162400Y0229210D02*
X0159061Y0229210D01*
X0160025Y0231207D02*
X0162400Y0231207D01*
X0162400Y0232205D02*
X0159920Y0232205D01*
X0159397Y0233204D02*
X0162400Y0233204D01*
X0162400Y0234202D02*
X0159053Y0234202D01*
X0159778Y0235201D02*
X0162400Y0235201D01*
X0162400Y0236199D02*
X0160025Y0236199D01*
X0159923Y0237198D02*
X0162400Y0237198D01*
X0162400Y0238196D02*
X0159405Y0238196D01*
X0157895Y0239195D02*
X0162400Y0239195D01*
X0162294Y0240193D02*
X0155569Y0240193D01*
X0154975Y0241192D02*
X0161295Y0241192D01*
X0160297Y0242190D02*
X0154975Y0242190D01*
X0154975Y0243189D02*
X0159298Y0243189D01*
X0158300Y0244187D02*
X0154975Y0244187D01*
X0154975Y0245186D02*
X0155463Y0245186D01*
X0157125Y0247625D02*
X0164000Y0240750D01*
X0164000Y0202000D01*
X0172750Y0193250D01*
X0172750Y0190750D01*
X0117125Y0135125D01*
X0117125Y0100125D01*
X0130250Y0087000D01*
X0142125Y0080125D02*
X0159625Y0080125D01*
X0159625Y0078250D01*
X0162525Y0078434D02*
X0164900Y0078434D01*
X0164900Y0077436D02*
X0162427Y0077436D01*
X0161914Y0076437D02*
X0164900Y0076437D01*
X0164900Y0075439D02*
X0160417Y0075439D01*
X0158833Y0075439D02*
X0157838Y0075439D01*
X0157838Y0074440D02*
X0164900Y0074440D01*
X0164900Y0073442D02*
X0157838Y0073442D01*
X0157838Y0072443D02*
X0164900Y0072443D01*
X0164900Y0071445D02*
X0157838Y0071445D01*
X0157838Y0070446D02*
X0164900Y0070446D01*
X0164900Y0069448D02*
X0157838Y0069448D01*
X0157838Y0068449D02*
X0164900Y0068449D01*
X0164900Y0067451D02*
X0157838Y0067451D01*
X0157838Y0066452D02*
X0164900Y0066452D01*
X0164900Y0065454D02*
X0157838Y0065454D01*
X0157838Y0064455D02*
X0164900Y0064455D01*
X0164900Y0063457D02*
X0157838Y0063457D01*
X0157838Y0062458D02*
X0164900Y0062458D01*
X0164900Y0061460D02*
X0157838Y0061460D01*
X0157838Y0060461D02*
X0164900Y0060461D01*
X0164900Y0059463D02*
X0157838Y0059463D01*
X0157857Y0058464D02*
X0164900Y0058464D01*
X0164900Y0057466D02*
X0157878Y0057466D01*
X0157900Y0056467D02*
X0164900Y0056467D01*
X0162663Y0055469D02*
X0160337Y0055469D01*
X0160850Y0054470D02*
X0162150Y0054470D01*
X0162150Y0053472D02*
X0160850Y0053472D01*
X0160850Y0052473D02*
X0162150Y0052473D01*
X0162150Y0051475D02*
X0160850Y0051475D01*
X0160850Y0050476D02*
X0162150Y0050476D01*
X0162150Y0049478D02*
X0160850Y0049478D01*
X0160850Y0048479D02*
X0162150Y0048479D01*
X0162150Y0047481D02*
X0160850Y0047481D01*
X0160850Y0046482D02*
X0162150Y0046482D01*
X0162150Y0045484D02*
X0160850Y0045484D01*
X0160850Y0044485D02*
X0162150Y0044485D01*
X0162150Y0043487D02*
X0160850Y0043487D01*
X0160850Y0042488D02*
X0162150Y0042488D01*
X0162150Y0041490D02*
X0160850Y0041490D01*
X0160850Y0040491D02*
X0162150Y0040491D01*
X0162150Y0039493D02*
X0160850Y0039493D01*
X0160300Y0038494D02*
X0162700Y0038494D01*
X0170300Y0038494D02*
X0172700Y0038494D01*
X0172150Y0039493D02*
X0170850Y0039493D01*
X0170850Y0040491D02*
X0172150Y0040491D01*
X0172150Y0041490D02*
X0170850Y0041490D01*
X0170850Y0042488D02*
X0172150Y0042488D01*
X0172150Y0043487D02*
X0170850Y0043487D01*
X0170850Y0044485D02*
X0172150Y0044485D01*
X0172150Y0045484D02*
X0170850Y0045484D01*
X0170850Y0046482D02*
X0172150Y0046482D01*
X0172150Y0047481D02*
X0170850Y0047481D01*
X0170850Y0048479D02*
X0172150Y0048479D01*
X0172150Y0049478D02*
X0170850Y0049478D01*
X0170850Y0050476D02*
X0172150Y0050476D01*
X0172150Y0051475D02*
X0170850Y0051475D01*
X0170850Y0052473D02*
X0172150Y0052473D01*
X0172150Y0053472D02*
X0170850Y0053472D01*
X0170850Y0054470D02*
X0172150Y0054470D01*
X0172663Y0055469D02*
X0170337Y0055469D01*
X0168100Y0056467D02*
X0173650Y0056467D01*
X0173650Y0057466D02*
X0168100Y0057466D01*
X0168100Y0058464D02*
X0173650Y0058464D01*
X0173650Y0059463D02*
X0168100Y0059463D01*
X0168100Y0060461D02*
X0173650Y0060461D01*
X0173650Y0061460D02*
X0168100Y0061460D01*
X0168100Y0062458D02*
X0173650Y0062458D01*
X0173650Y0063457D02*
X0168100Y0063457D01*
X0168100Y0064455D02*
X0170065Y0064455D01*
X0169001Y0065454D02*
X0168100Y0065454D01*
X0168100Y0066452D02*
X0168600Y0066452D01*
X0168600Y0067451D02*
X0168100Y0067451D01*
X0168100Y0068449D02*
X0168961Y0068449D01*
X0168100Y0069448D02*
X0169847Y0069448D01*
X0169900Y0070446D02*
X0168100Y0070446D01*
X0168100Y0071445D02*
X0169900Y0071445D01*
X0169900Y0072443D02*
X0168100Y0072443D01*
X0168100Y0073442D02*
X0169082Y0073442D01*
X0168645Y0074440D02*
X0168100Y0074440D01*
X0168100Y0075439D02*
X0168600Y0075439D01*
X0168905Y0076437D02*
X0168100Y0076437D01*
X0168100Y0077436D02*
X0169710Y0077436D01*
X0168100Y0078434D02*
X0173650Y0078434D01*
X0173650Y0077436D02*
X0173290Y0077436D01*
X0173650Y0079433D02*
X0168100Y0079433D01*
X0168100Y0080432D02*
X0173650Y0080432D01*
X0173650Y0081430D02*
X0168100Y0081430D01*
X0168100Y0082429D02*
X0173650Y0082429D01*
X0173650Y0083427D02*
X0168100Y0083427D01*
X0168100Y0084426D02*
X0173650Y0084426D01*
X0173650Y0085424D02*
X0168100Y0085424D01*
X0168810Y0086423D02*
X0173650Y0086423D01*
X0173650Y0087421D02*
X0169809Y0087421D01*
X0170807Y0088420D02*
X0173650Y0088420D01*
X0173644Y0089418D02*
X0173650Y0089418D01*
X0171500Y0091375D02*
X0166500Y0086375D01*
X0166500Y0047000D01*
X0156500Y0047000D02*
X0156238Y0059360D01*
X0156238Y0076637D01*
X0154625Y0078250D01*
X0117750Y0078250D01*
X0117750Y0096375D01*
X0113375Y0100750D01*
X0107750Y0105750D02*
X0075250Y0105750D01*
X0071500Y0102000D01*
X0068651Y0103397D02*
X0066849Y0103397D01*
X0067167Y0102399D02*
X0068333Y0102399D01*
X0068333Y0101400D02*
X0067167Y0101400D01*
X0066766Y0100402D02*
X0068734Y0100402D01*
X0069618Y0099403D02*
X0065882Y0099403D01*
X0062667Y0098405D02*
X0077400Y0098405D01*
X0077118Y0099403D02*
X0073382Y0099403D01*
X0074266Y0100402D02*
X0076234Y0100402D01*
X0075833Y0101400D02*
X0074667Y0101400D01*
X0074667Y0102399D02*
X0075833Y0102399D01*
X0076151Y0103397D02*
X0075160Y0103397D01*
X0079000Y0102000D02*
X0079000Y0093500D01*
X0108125Y0093500D01*
X0114000Y0087625D01*
X0114000Y0070125D01*
X0140250Y0070125D01*
X0141372Y0067451D02*
X0154638Y0067451D01*
X0154638Y0068449D02*
X0142676Y0068449D01*
X0143108Y0069448D02*
X0154638Y0069448D01*
X0154638Y0070446D02*
X0147173Y0070446D01*
X0147900Y0071445D02*
X0154638Y0071445D01*
X0154638Y0072443D02*
X0148150Y0072443D01*
X0148051Y0073442D02*
X0154638Y0073442D01*
X0154638Y0074440D02*
X0147536Y0074440D01*
X0146035Y0075439D02*
X0154638Y0075439D01*
X0154175Y0076437D02*
X0142006Y0076437D01*
X0143670Y0075439D02*
X0144465Y0075439D01*
X0145250Y0072625D02*
X0139000Y0076375D01*
X0115875Y0076375D01*
X0112400Y0086423D02*
X0104933Y0086423D01*
X0105446Y0087421D02*
X0111941Y0087421D01*
X0110943Y0088420D02*
X0105750Y0088420D01*
X0105750Y0089418D02*
X0109944Y0089418D01*
X0108946Y0090417D02*
X0105513Y0090417D01*
X0105095Y0091415D02*
X0107947Y0091415D01*
X0119000Y0103250D02*
X0142125Y0080125D01*
X0144625Y0082625D02*
X0145250Y0082000D01*
X0162750Y0082000D01*
X0164131Y0079433D02*
X0164900Y0079433D01*
X0171500Y0075125D02*
X0171500Y0067000D01*
X0172935Y0064455D02*
X0173650Y0064455D01*
X0176850Y0064455D02*
X0189900Y0064455D01*
X0189900Y0063457D02*
X0176850Y0063457D01*
X0176850Y0062458D02*
X0189900Y0062458D01*
X0189900Y0061460D02*
X0176850Y0061460D01*
X0176850Y0060461D02*
X0189900Y0060461D01*
X0189762Y0059463D02*
X0176850Y0059463D01*
X0176850Y0058464D02*
X0189362Y0058464D01*
X0188963Y0057466D02*
X0176850Y0057466D01*
X0176850Y0056467D02*
X0188564Y0056467D01*
X0191611Y0055469D02*
X0192663Y0055469D01*
X0192150Y0054470D02*
X0191211Y0054470D01*
X0190850Y0053472D02*
X0192150Y0053472D01*
X0192150Y0052473D02*
X0190850Y0052473D01*
X0190850Y0051475D02*
X0192150Y0051475D01*
X0192150Y0050476D02*
X0190850Y0050476D01*
X0190850Y0049478D02*
X0192150Y0049478D01*
X0192150Y0048479D02*
X0190850Y0048479D01*
X0190850Y0047481D02*
X0192150Y0047481D01*
X0192150Y0046482D02*
X0190850Y0046482D01*
X0190850Y0045484D02*
X0192150Y0045484D01*
X0192150Y0044485D02*
X0190850Y0044485D01*
X0190850Y0043487D02*
X0192150Y0043487D01*
X0192150Y0042488D02*
X0190850Y0042488D01*
X0190850Y0041490D02*
X0192150Y0041490D01*
X0192150Y0040491D02*
X0190850Y0040491D01*
X0190850Y0039493D02*
X0192150Y0039493D01*
X0192700Y0038494D02*
X0190300Y0038494D01*
X0182700Y0038494D02*
X0180300Y0038494D01*
X0180850Y0039493D02*
X0182150Y0039493D01*
X0182150Y0040491D02*
X0180850Y0040491D01*
X0180850Y0041490D02*
X0182150Y0041490D01*
X0182150Y0042488D02*
X0180850Y0042488D01*
X0180850Y0043487D02*
X0182150Y0043487D01*
X0182150Y0044485D02*
X0180850Y0044485D01*
X0180850Y0045484D02*
X0182150Y0045484D01*
X0182150Y0046482D02*
X0180850Y0046482D01*
X0180850Y0047481D02*
X0182150Y0047481D01*
X0182150Y0048479D02*
X0180850Y0048479D01*
X0180850Y0049478D02*
X0182150Y0049478D01*
X0182150Y0050476D02*
X0180850Y0050476D01*
X0180850Y0051475D02*
X0182150Y0051475D01*
X0182150Y0052473D02*
X0180850Y0052473D01*
X0180850Y0053472D02*
X0182150Y0053472D01*
X0182150Y0054470D02*
X0180850Y0054470D01*
X0180337Y0055469D02*
X0182663Y0055469D01*
X0175250Y0055750D02*
X0176500Y0047000D01*
X0175250Y0055750D02*
X0175250Y0100750D01*
X0170250Y0097000D02*
X0161500Y0097000D01*
X0161500Y0102000D01*
X0164000Y0104500D02*
X0162750Y0105750D01*
X0155250Y0105750D01*
X0155250Y0089500D01*
X0149625Y0083875D01*
X0146500Y0083875D01*
X0146500Y0084500D01*
X0131500Y0099500D01*
X0131500Y0104500D01*
X0127750Y0105750D02*
X0127750Y0100125D01*
X0144625Y0083250D01*
X0144625Y0082625D01*
X0148375Y0087625D02*
X0148375Y0097625D01*
X0144000Y0102000D01*
X0136500Y0102000D02*
X0179000Y0144500D01*
X0179000Y0241375D01*
X0177750Y0242625D01*
X0181500Y0242000D02*
X0181500Y0243875D01*
X0172125Y0253250D01*
X0172125Y0264500D01*
X0181500Y0248875D02*
X0200250Y0248875D01*
X0200250Y0250750D01*
X0202750Y0253250D01*
X0207750Y0253250D01*
X0207750Y0082000D01*
X0209000Y0080750D01*
X0209000Y0070750D01*
X0210875Y0068875D01*
X0210875Y0058875D01*
X0206500Y0047000D01*
X0210850Y0047481D02*
X0212150Y0047481D01*
X0212150Y0048479D02*
X0210850Y0048479D01*
X0210850Y0049478D02*
X0212150Y0049478D01*
X0212150Y0050476D02*
X0210850Y0050476D01*
X0210850Y0051475D02*
X0212150Y0051475D01*
X0212150Y0052473D02*
X0210850Y0052473D01*
X0210850Y0053472D02*
X0212150Y0053472D01*
X0212150Y0054470D02*
X0210957Y0054470D01*
X0211325Y0055469D02*
X0212663Y0055469D01*
X0211693Y0056467D02*
X0214900Y0056467D01*
X0214900Y0057466D02*
X0212061Y0057466D01*
X0212475Y0058464D02*
X0214900Y0058464D01*
X0214900Y0059463D02*
X0212475Y0059463D01*
X0212475Y0060461D02*
X0214900Y0060461D01*
X0214900Y0061460D02*
X0212475Y0061460D01*
X0212475Y0062458D02*
X0214900Y0062458D01*
X0214900Y0063457D02*
X0212475Y0063457D01*
X0212475Y0064455D02*
X0214900Y0064455D01*
X0214900Y0065454D02*
X0212475Y0065454D01*
X0212475Y0066452D02*
X0214900Y0066452D01*
X0214900Y0067451D02*
X0212475Y0067451D01*
X0212475Y0068449D02*
X0214900Y0068449D01*
X0214900Y0069448D02*
X0212475Y0069448D01*
X0214673Y0070446D02*
X0214900Y0070446D01*
X0212750Y0072625D02*
X0212750Y0077625D01*
X0213375Y0078250D01*
X0213375Y0187000D01*
X0216500Y0190125D01*
X0220250Y0196375D02*
X0220250Y0147625D01*
X0216500Y0143875D01*
X0216500Y0138250D01*
X0217125Y0137625D01*
X0217125Y0109500D01*
X0217125Y0093250D01*
X0222475Y0089418D02*
X0222481Y0089418D01*
X0222475Y0088420D02*
X0228025Y0088420D01*
X0228025Y0089418D02*
X0226769Y0089418D01*
X0227367Y0090417D02*
X0228025Y0090417D01*
X0228025Y0091415D02*
X0227525Y0091415D01*
X0227334Y0092414D02*
X0228025Y0092414D01*
X0228025Y0093412D02*
X0226689Y0093412D01*
X0226225Y0094411D02*
X0228025Y0094411D01*
X0228025Y0095409D02*
X0226225Y0095409D01*
X0226225Y0096408D02*
X0228025Y0096408D01*
X0228025Y0097406D02*
X0226225Y0097406D01*
X0226225Y0098405D02*
X0228025Y0098405D01*
X0228025Y0099403D02*
X0226225Y0099403D01*
X0226225Y0100402D02*
X0228025Y0100402D01*
X0228025Y0101400D02*
X0226225Y0101400D01*
X0226225Y0102399D02*
X0228025Y0102399D01*
X0228025Y0103397D02*
X0226225Y0103397D01*
X0226225Y0104396D02*
X0228025Y0104396D01*
X0228025Y0105394D02*
X0226225Y0105394D01*
X0226225Y0106393D02*
X0228025Y0106393D01*
X0228025Y0107391D02*
X0226225Y0107391D01*
X0226225Y0108390D02*
X0228025Y0108390D01*
X0228025Y0109388D02*
X0226225Y0109388D01*
X0226225Y0110387D02*
X0228025Y0110387D01*
X0228025Y0111385D02*
X0226225Y0111385D01*
X0226225Y0112384D02*
X0228025Y0112384D01*
X0228025Y0113382D02*
X0226225Y0113382D01*
X0226225Y0114381D02*
X0228025Y0114381D01*
X0228025Y0115379D02*
X0226225Y0115379D01*
X0226225Y0116378D02*
X0228025Y0116378D01*
X0228025Y0117376D02*
X0226225Y0117376D01*
X0226225Y0118375D02*
X0228025Y0118375D01*
X0228025Y0119373D02*
X0226225Y0119373D01*
X0226225Y0120372D02*
X0228025Y0120372D01*
X0228025Y0121370D02*
X0226225Y0121370D01*
X0226225Y0122369D02*
X0228025Y0122369D01*
X0228025Y0123368D02*
X0226225Y0123368D01*
X0226225Y0124366D02*
X0228025Y0124366D01*
X0228025Y0125365D02*
X0226225Y0125365D01*
X0226225Y0126363D02*
X0228025Y0126363D01*
X0228025Y0127362D02*
X0226225Y0127362D01*
X0226225Y0128360D02*
X0228025Y0128360D01*
X0228025Y0129359D02*
X0226225Y0129359D01*
X0226225Y0130357D02*
X0228025Y0130357D01*
X0228025Y0131356D02*
X0226225Y0131356D01*
X0226225Y0132354D02*
X0228025Y0132354D01*
X0228025Y0133353D02*
X0226225Y0133353D01*
X0226225Y0134351D02*
X0228025Y0134351D01*
X0228025Y0135350D02*
X0226225Y0135350D01*
X0226225Y0136348D02*
X0228025Y0136348D01*
X0228025Y0137347D02*
X0226225Y0137347D01*
X0226225Y0138345D02*
X0228025Y0138345D01*
X0228025Y0139344D02*
X0226225Y0139344D01*
X0226225Y0140342D02*
X0228025Y0140342D01*
X0228025Y0141341D02*
X0226225Y0141341D01*
X0226225Y0142339D02*
X0228025Y0142339D01*
X0228025Y0143338D02*
X0226225Y0143338D01*
X0226225Y0144336D02*
X0228025Y0144336D01*
X0228025Y0145335D02*
X0226225Y0145335D01*
X0226225Y0146333D02*
X0228025Y0146333D01*
X0228025Y0147332D02*
X0226225Y0147332D01*
X0224625Y0148875D02*
X0224625Y0091375D01*
X0222475Y0087421D02*
X0228025Y0087421D01*
X0228025Y0086423D02*
X0222475Y0086423D01*
X0222475Y0085424D02*
X0228025Y0085424D01*
X0228025Y0084426D02*
X0222475Y0084426D01*
X0222475Y0083427D02*
X0228025Y0083427D01*
X0228025Y0082429D02*
X0222475Y0082429D01*
X0222475Y0081430D02*
X0228025Y0081430D01*
X0227705Y0080432D02*
X0222475Y0080432D01*
X0222475Y0079433D02*
X0226976Y0079433D01*
X0226725Y0078434D02*
X0222475Y0078434D01*
X0222475Y0077436D02*
X0226823Y0077436D01*
X0227336Y0076437D02*
X0222475Y0076437D01*
X0222475Y0075439D02*
X0228833Y0075439D01*
X0230417Y0075439D02*
X0231775Y0075439D01*
X0231775Y0074440D02*
X0222475Y0074440D01*
X0222475Y0073442D02*
X0231775Y0073442D01*
X0231775Y0072443D02*
X0222475Y0072443D01*
X0222475Y0071445D02*
X0231775Y0071445D01*
X0231775Y0070446D02*
X0222475Y0070446D01*
X0223153Y0069448D02*
X0231775Y0069448D01*
X0231775Y0068449D02*
X0223672Y0068449D01*
X0223775Y0067451D02*
X0231563Y0067451D01*
X0230565Y0066452D02*
X0223528Y0066452D01*
X0222805Y0065454D02*
X0229566Y0065454D01*
X0228568Y0064455D02*
X0218100Y0064455D01*
X0218100Y0063457D02*
X0227569Y0063457D01*
X0226571Y0062458D02*
X0218100Y0062458D01*
X0218100Y0061460D02*
X0225572Y0061460D01*
X0224900Y0060461D02*
X0218100Y0060461D01*
X0218100Y0059463D02*
X0224900Y0059463D01*
X0224900Y0058464D02*
X0218100Y0058464D01*
X0218100Y0057466D02*
X0224900Y0057466D01*
X0224900Y0056467D02*
X0218100Y0056467D01*
X0220337Y0055469D02*
X0222663Y0055469D01*
X0222150Y0054470D02*
X0220850Y0054470D01*
X0220850Y0053472D02*
X0222150Y0053472D01*
X0222150Y0052473D02*
X0220850Y0052473D01*
X0220850Y0051475D02*
X0222150Y0051475D01*
X0222150Y0050476D02*
X0220850Y0050476D01*
X0220850Y0049478D02*
X0222150Y0049478D01*
X0222150Y0048479D02*
X0220850Y0048479D01*
X0220850Y0047481D02*
X0222150Y0047481D01*
X0222150Y0046482D02*
X0220850Y0046482D01*
X0220850Y0045484D02*
X0222150Y0045484D01*
X0222150Y0044485D02*
X0220850Y0044485D01*
X0220850Y0043487D02*
X0222150Y0043487D01*
X0222150Y0042488D02*
X0220850Y0042488D01*
X0220850Y0041490D02*
X0222150Y0041490D01*
X0222150Y0040491D02*
X0220850Y0040491D01*
X0220850Y0039493D02*
X0222150Y0039493D01*
X0222700Y0038494D02*
X0220300Y0038494D01*
X0212700Y0038494D02*
X0210300Y0038494D01*
X0210850Y0039493D02*
X0212150Y0039493D01*
X0212150Y0040491D02*
X0210850Y0040491D01*
X0210850Y0041490D02*
X0212150Y0041490D01*
X0212150Y0042488D02*
X0210850Y0042488D01*
X0210850Y0043487D02*
X0212150Y0043487D01*
X0212150Y0044485D02*
X0210850Y0044485D01*
X0210850Y0045484D02*
X0212150Y0045484D01*
X0212150Y0046482D02*
X0210850Y0046482D01*
X0216500Y0047000D02*
X0216500Y0076375D01*
X0220875Y0067625D02*
X0220875Y0142000D01*
X0220250Y0142625D01*
X0224625Y0148875D02*
X0226500Y0150750D01*
X0229625Y0148250D02*
X0229625Y0078250D01*
X0233375Y0067000D02*
X0226500Y0060125D01*
X0226500Y0047000D01*
X0230850Y0047481D02*
X0232150Y0047481D01*
X0232150Y0048479D02*
X0230850Y0048479D01*
X0230850Y0049478D02*
X0232150Y0049478D01*
X0232150Y0050476D02*
X0230850Y0050476D01*
X0230850Y0051475D02*
X0232150Y0051475D01*
X0232150Y0052473D02*
X0230850Y0052473D01*
X0230850Y0053472D02*
X0232150Y0053472D01*
X0232150Y0054470D02*
X0230850Y0054470D01*
X0230337Y0055469D02*
X0232663Y0055469D01*
X0234900Y0056467D02*
X0228100Y0056467D01*
X0228100Y0057466D02*
X0234900Y0057466D01*
X0234900Y0058464D02*
X0228100Y0058464D01*
X0228101Y0059463D02*
X0234900Y0059463D01*
X0234900Y0060461D02*
X0229099Y0060461D01*
X0230098Y0061460D02*
X0234900Y0061460D01*
X0234900Y0062458D02*
X0231096Y0062458D01*
X0232095Y0063457D02*
X0234900Y0063457D01*
X0234900Y0064455D02*
X0233093Y0064455D01*
X0234092Y0065454D02*
X0234900Y0065454D01*
X0233375Y0067000D02*
X0233375Y0147000D01*
X0230250Y0148875D02*
X0229625Y0148250D01*
X0230250Y0148875D02*
X0230250Y0216375D01*
X0222750Y0223875D01*
X0222750Y0226375D01*
X0224000Y0227625D01*
X0224000Y0240125D01*
X0218375Y0245750D01*
X0222208Y0249180D02*
X0236150Y0249180D01*
X0236150Y0250178D02*
X0221209Y0250178D01*
X0220211Y0251177D02*
X0236150Y0251177D01*
X0236150Y0252175D02*
X0219212Y0252175D01*
X0218775Y0253174D02*
X0236150Y0253174D01*
X0236150Y0254172D02*
X0218632Y0254172D01*
X0218055Y0255171D02*
X0236150Y0255171D01*
X0236150Y0256170D02*
X0213100Y0256170D01*
X0213100Y0257168D02*
X0236150Y0257168D01*
X0236150Y0258167D02*
X0213100Y0258167D01*
X0213100Y0259165D02*
X0236150Y0259165D01*
X0236150Y0260164D02*
X0213100Y0260164D01*
X0213100Y0261162D02*
X0236150Y0261162D01*
X0236150Y0262161D02*
X0213100Y0262161D01*
X0213100Y0263159D02*
X0236150Y0263159D01*
X0236150Y0264158D02*
X0213100Y0264158D01*
X0213100Y0265156D02*
X0236150Y0265156D01*
X0236150Y0266155D02*
X0213100Y0266155D01*
X0213100Y0267153D02*
X0236150Y0267153D01*
X0236150Y0268152D02*
X0213100Y0268152D01*
X0213100Y0269150D02*
X0236150Y0269150D01*
X0236150Y0270149D02*
X0213100Y0270149D01*
X0213100Y0271147D02*
X0236150Y0271147D01*
X0236150Y0272146D02*
X0213100Y0272146D01*
X0213100Y0273144D02*
X0236150Y0273144D01*
X0236150Y0274143D02*
X0213100Y0274143D01*
X0213100Y0275141D02*
X0236150Y0275141D01*
X0236150Y0276140D02*
X0213100Y0276140D01*
X0213100Y0277138D02*
X0231011Y0277138D01*
X0231107Y0277041D02*
X0232173Y0276600D01*
X0233327Y0276600D01*
X0234393Y0277041D01*
X0235208Y0277857D01*
X0235650Y0278923D01*
X0235650Y0280077D01*
X0235208Y0281143D01*
X0234393Y0281958D01*
X0233327Y0282400D01*
X0232173Y0282400D01*
X0232130Y0282382D01*
X0207507Y0307005D01*
X0207525Y0307048D01*
X0207525Y0308202D01*
X0207083Y0309268D01*
X0206268Y0310083D01*
X0205202Y0310525D01*
X0204048Y0310525D01*
X0202982Y0310083D01*
X0202166Y0309268D01*
X0201725Y0308202D01*
X0201725Y0307048D01*
X0202166Y0305982D01*
X0202982Y0305166D01*
X0204048Y0304725D01*
X0205202Y0304725D01*
X0205245Y0304743D01*
X0229868Y0280120D01*
X0229850Y0280077D01*
X0229850Y0278923D01*
X0230291Y0277857D01*
X0231107Y0277041D01*
X0230176Y0278137D02*
X0213100Y0278137D01*
X0213100Y0279135D02*
X0229850Y0279135D01*
X0229853Y0280134D02*
X0213100Y0280134D01*
X0213100Y0281132D02*
X0228855Y0281132D01*
X0227856Y0282131D02*
X0213100Y0282131D01*
X0213100Y0283129D02*
X0226858Y0283129D01*
X0225859Y0284128D02*
X0212260Y0284128D01*
X0211261Y0285126D02*
X0224861Y0285126D01*
X0223862Y0286125D02*
X0210263Y0286125D01*
X0209264Y0287123D02*
X0222864Y0287123D01*
X0221865Y0288122D02*
X0208266Y0288122D01*
X0207267Y0289120D02*
X0220867Y0289120D01*
X0219868Y0290119D02*
X0206269Y0290119D01*
X0205270Y0291117D02*
X0218870Y0291117D01*
X0217871Y0292116D02*
X0204272Y0292116D01*
X0203273Y0293114D02*
X0216873Y0293114D01*
X0215874Y0294113D02*
X0202275Y0294113D01*
X0201276Y0295111D02*
X0214876Y0295111D01*
X0213877Y0296110D02*
X0200278Y0296110D01*
X0199279Y0297108D02*
X0212879Y0297108D01*
X0211880Y0298107D02*
X0198281Y0298107D01*
X0197282Y0299105D02*
X0210882Y0299105D01*
X0209883Y0300104D02*
X0196284Y0300104D01*
X0195285Y0301103D02*
X0208885Y0301103D01*
X0207886Y0302101D02*
X0194287Y0302101D01*
X0193288Y0303100D02*
X0206888Y0303100D01*
X0205889Y0304098D02*
X0192290Y0304098D01*
X0191291Y0305097D02*
X0203151Y0305097D01*
X0202120Y0306095D02*
X0190293Y0306095D01*
X0189294Y0307094D02*
X0201725Y0307094D01*
X0201725Y0308092D02*
X0188296Y0308092D01*
X0187297Y0309091D02*
X0202093Y0309091D01*
X0202996Y0310089D02*
X0186299Y0310089D01*
X0185300Y0311088D02*
X0265000Y0311088D01*
X0265000Y0312086D02*
X0184302Y0312086D01*
X0183303Y0313085D02*
X0265000Y0313085D01*
X0265000Y0314083D02*
X0182305Y0314083D01*
X0181306Y0315082D02*
X0265000Y0315082D01*
X0265000Y0316080D02*
X0180308Y0316080D01*
X0179309Y0317079D02*
X0265000Y0317079D01*
X0265000Y0318077D02*
X0178311Y0318077D01*
X0177312Y0319076D02*
X0265000Y0319076D01*
X0265000Y0320074D02*
X0176313Y0320074D01*
X0175250Y0318875D02*
X0133375Y0318875D01*
X0133375Y0297000D01*
X0104000Y0267625D01*
X0104000Y0202000D01*
X0107750Y0198250D01*
X0110650Y0198256D02*
X0165481Y0198256D01*
X0164483Y0199254D02*
X0110473Y0199254D01*
X0109848Y0200253D02*
X0163484Y0200253D01*
X0162486Y0201251D02*
X0109853Y0201251D01*
X0110475Y0202250D02*
X0162400Y0202250D01*
X0162400Y0203248D02*
X0110650Y0203248D01*
X0111010Y0204247D02*
X0162400Y0204247D01*
X0162400Y0205245D02*
X0112008Y0205245D01*
X0113007Y0206244D02*
X0162400Y0206244D01*
X0162400Y0207242D02*
X0114005Y0207242D01*
X0115004Y0208241D02*
X0162400Y0208241D01*
X0162400Y0209239D02*
X0116002Y0209239D01*
X0117001Y0210238D02*
X0162400Y0210238D01*
X0162400Y0211237D02*
X0117999Y0211237D01*
X0118998Y0212235D02*
X0162400Y0212235D01*
X0162400Y0213234D02*
X0119996Y0213234D01*
X0120995Y0214232D02*
X0162400Y0214232D01*
X0162400Y0215231D02*
X0121993Y0215231D01*
X0122992Y0216229D02*
X0162400Y0216229D01*
X0162400Y0217228D02*
X0123990Y0217228D01*
X0124975Y0218226D02*
X0162400Y0218226D01*
X0162400Y0219225D02*
X0124975Y0219225D01*
X0124975Y0220223D02*
X0162400Y0220223D01*
X0162400Y0221222D02*
X0124975Y0221222D01*
X0124975Y0222220D02*
X0162400Y0222220D01*
X0162400Y0223219D02*
X0124975Y0223219D01*
X0124975Y0224217D02*
X0162400Y0224217D01*
X0162400Y0225216D02*
X0124975Y0225216D01*
X0124975Y0226214D02*
X0162400Y0226214D01*
X0162400Y0227213D02*
X0124975Y0227213D01*
X0124975Y0228211D02*
X0162400Y0228211D01*
X0155189Y0229210D02*
X0124975Y0229210D01*
X0124975Y0230208D02*
X0154469Y0230208D01*
X0154225Y0231207D02*
X0124975Y0231207D01*
X0124975Y0232205D02*
X0154032Y0232205D01*
X0153034Y0233204D02*
X0124975Y0233204D01*
X0124975Y0234202D02*
X0152035Y0234202D01*
X0151036Y0235201D02*
X0124975Y0235201D01*
X0124975Y0236199D02*
X0150038Y0236199D01*
X0149039Y0237198D02*
X0124975Y0237198D01*
X0124975Y0238196D02*
X0148041Y0238196D01*
X0148025Y0239195D02*
X0124975Y0239195D01*
X0124975Y0240193D02*
X0148025Y0240193D01*
X0148025Y0241192D02*
X0124975Y0241192D01*
X0125167Y0242190D02*
X0148025Y0242190D01*
X0148025Y0243189D02*
X0125971Y0243189D01*
X0126275Y0244187D02*
X0148025Y0244187D01*
X0148025Y0245186D02*
X0126230Y0245186D01*
X0125792Y0246184D02*
X0148025Y0246184D01*
X0148025Y0247183D02*
X0124476Y0247183D01*
X0122274Y0247183D02*
X0105600Y0247183D01*
X0105600Y0248181D02*
X0148025Y0248181D01*
X0148025Y0249180D02*
X0105600Y0249180D01*
X0105600Y0250178D02*
X0148025Y0250178D01*
X0148025Y0251177D02*
X0105600Y0251177D01*
X0105600Y0252175D02*
X0148025Y0252175D01*
X0148025Y0253174D02*
X0105600Y0253174D01*
X0105600Y0254172D02*
X0148025Y0254172D01*
X0157125Y0252625D02*
X0167750Y0242000D01*
X0167750Y0220750D01*
X0175250Y0218250D02*
X0177125Y0216375D01*
X0177125Y0155125D01*
X0127750Y0105750D01*
X0122750Y0104500D02*
X0132750Y0114500D01*
X0132750Y0118250D01*
X0119000Y0109500D02*
X0119000Y0103250D01*
X0119000Y0109500D02*
X0175250Y0165750D01*
X0175250Y0201375D01*
X0173375Y0203250D01*
X0166480Y0197257D02*
X0110478Y0197257D01*
X0109860Y0196259D02*
X0167478Y0196259D01*
X0168477Y0195260D02*
X0029000Y0195260D01*
X0029000Y0194262D02*
X0169475Y0194262D01*
X0182750Y0210750D02*
X0187125Y0206375D01*
X0187125Y0143250D01*
X0184625Y0140750D01*
X0184625Y0070750D01*
X0187750Y0067625D01*
X0189680Y0065454D02*
X0189900Y0065454D01*
X0193100Y0065454D02*
X0193320Y0065454D01*
X0193100Y0064455D02*
X0194900Y0064455D01*
X0194900Y0063457D02*
X0193100Y0063457D01*
X0193100Y0062458D02*
X0194900Y0062458D01*
X0194900Y0061460D02*
X0193100Y0061460D01*
X0193100Y0060461D02*
X0194900Y0060461D01*
X0194900Y0059463D02*
X0193208Y0059463D01*
X0192809Y0058464D02*
X0194900Y0058464D01*
X0194900Y0057466D02*
X0192410Y0057466D01*
X0192010Y0056467D02*
X0194900Y0056467D01*
X0198100Y0056467D02*
X0208283Y0056467D01*
X0208651Y0057466D02*
X0198100Y0057466D01*
X0198100Y0058464D02*
X0209019Y0058464D01*
X0209275Y0059463D02*
X0198100Y0059463D01*
X0198100Y0060461D02*
X0209275Y0060461D01*
X0209275Y0061460D02*
X0198100Y0061460D01*
X0198100Y0062458D02*
X0209275Y0062458D01*
X0209275Y0063457D02*
X0198100Y0063457D01*
X0198100Y0064455D02*
X0209275Y0064455D01*
X0209275Y0065454D02*
X0209055Y0065454D01*
X0207125Y0067625D02*
X0207125Y0079500D01*
X0205875Y0080750D01*
X0205875Y0211375D01*
X0202125Y0215125D01*
X0196500Y0213875D02*
X0194625Y0215750D01*
X0196500Y0213875D02*
X0196500Y0204500D01*
X0199375Y0201625D01*
X0199375Y0143875D01*
X0196500Y0141000D01*
X0196500Y0123250D01*
X0200250Y0119500D01*
X0200250Y0135375D02*
X0201250Y0136375D01*
X0201250Y0202875D01*
X0198375Y0205750D01*
X0198375Y0225125D01*
X0197125Y0226375D01*
X0190875Y0225125D02*
X0190875Y0218875D01*
X0190875Y0225125D02*
X0202125Y0236375D01*
X0202125Y0247625D01*
X0204000Y0249500D01*
X0198375Y0242000D02*
X0181500Y0242000D01*
X0171500Y0237625D02*
X0171500Y0212000D01*
X0187125Y0209500D02*
X0189000Y0207625D01*
X0189000Y0167000D01*
X0190875Y0165125D01*
X0194625Y0166375D02*
X0190875Y0170125D01*
X0190875Y0208875D01*
X0192750Y0210750D01*
X0187125Y0209500D02*
X0187125Y0226375D01*
X0195875Y0235125D01*
X0211500Y0218875D02*
X0211500Y0282625D01*
X0175250Y0318875D01*
X0190250Y0298875D02*
X0186500Y0295125D01*
X0186500Y0289500D01*
X0204625Y0307625D02*
X0232750Y0279500D01*
X0233977Y0282131D02*
X0236150Y0282131D01*
X0236150Y0281132D02*
X0235213Y0281132D01*
X0235626Y0280134D02*
X0236150Y0280134D01*
X0236150Y0279135D02*
X0235650Y0279135D01*
X0235324Y0278137D02*
X0236150Y0278137D01*
X0236150Y0277138D02*
X0234489Y0277138D01*
X0239350Y0277138D02*
X0242400Y0277138D01*
X0242400Y0276140D02*
X0239350Y0276140D01*
X0239350Y0275141D02*
X0242400Y0275141D01*
X0242400Y0274143D02*
X0239350Y0274143D01*
X0239350Y0273144D02*
X0242400Y0273144D01*
X0242400Y0272146D02*
X0239350Y0272146D01*
X0239350Y0271147D02*
X0242400Y0271147D01*
X0242400Y0270149D02*
X0239350Y0270149D01*
X0239350Y0269150D02*
X0242400Y0269150D01*
X0242400Y0268152D02*
X0239350Y0268152D01*
X0239350Y0267153D02*
X0242400Y0267153D01*
X0242400Y0266155D02*
X0239350Y0266155D01*
X0239350Y0265156D02*
X0242400Y0265156D01*
X0242400Y0264158D02*
X0239350Y0264158D01*
X0239350Y0263159D02*
X0242400Y0263159D01*
X0242400Y0262161D02*
X0239350Y0262161D01*
X0239350Y0261162D02*
X0242400Y0261162D01*
X0242400Y0260164D02*
X0239350Y0260164D01*
X0239350Y0259165D02*
X0242400Y0259165D01*
X0242400Y0258167D02*
X0239350Y0258167D01*
X0239350Y0257168D02*
X0242400Y0257168D01*
X0242400Y0256170D02*
X0239350Y0256170D01*
X0239350Y0255171D02*
X0242400Y0255171D01*
X0242400Y0254172D02*
X0239350Y0254172D01*
X0239350Y0253174D02*
X0242400Y0253174D01*
X0242400Y0252175D02*
X0239350Y0252175D01*
X0239350Y0251177D02*
X0242400Y0251177D01*
X0242400Y0250178D02*
X0239350Y0250178D01*
X0239350Y0249180D02*
X0242400Y0249180D01*
X0242400Y0248181D02*
X0239350Y0248181D01*
X0239350Y0247183D02*
X0242400Y0247183D01*
X0242400Y0246184D02*
X0239350Y0246184D01*
X0239350Y0245186D02*
X0242400Y0245186D01*
X0242400Y0244187D02*
X0239350Y0244187D01*
X0239350Y0243189D02*
X0242400Y0243189D01*
X0242400Y0242190D02*
X0239350Y0242190D01*
X0239350Y0241192D02*
X0242400Y0241192D01*
X0242400Y0240193D02*
X0239350Y0240193D01*
X0239350Y0239195D02*
X0240730Y0239195D01*
X0242270Y0239195D02*
X0242400Y0239195D01*
X0244000Y0238250D02*
X0242125Y0236375D01*
X0241500Y0236375D01*
X0251500Y0226375D01*
X0251500Y0200125D01*
X0251812Y0199812D01*
X0251500Y0199500D01*
X0251500Y0182625D01*
X0253375Y0180750D01*
X0253375Y0177625D01*
X0253687Y0177312D01*
X0253375Y0177000D01*
X0253375Y0165125D01*
X0249625Y0162000D02*
X0250250Y0161375D01*
X0249625Y0162000D02*
X0249625Y0177625D01*
X0245875Y0181375D02*
X0245875Y0137625D01*
X0249000Y0134500D01*
X0249000Y0110125D01*
X0257125Y0100125D02*
X0257125Y0168250D01*
X0262850Y0168301D02*
X0265000Y0168301D01*
X0265000Y0169299D02*
X0262850Y0169299D01*
X0262850Y0170298D02*
X0265000Y0170298D01*
X0265000Y0171296D02*
X0262850Y0171296D01*
X0262850Y0172295D02*
X0265000Y0172295D01*
X0265000Y0173293D02*
X0262850Y0173293D01*
X0262850Y0174292D02*
X0265000Y0174292D01*
X0265000Y0175290D02*
X0262850Y0175290D01*
X0262850Y0176289D02*
X0265000Y0176289D01*
X0265000Y0177287D02*
X0262850Y0177287D01*
X0262850Y0178286D02*
X0265000Y0178286D01*
X0265000Y0179284D02*
X0262850Y0179284D01*
X0262850Y0180283D02*
X0265000Y0180283D01*
X0265000Y0181281D02*
X0262850Y0181281D01*
X0262850Y0182280D02*
X0265000Y0182280D01*
X0265000Y0183278D02*
X0262850Y0183278D01*
X0262850Y0184277D02*
X0265000Y0184277D01*
X0265000Y0185275D02*
X0262850Y0185275D01*
X0262850Y0186274D02*
X0265000Y0186274D01*
X0265000Y0187272D02*
X0262850Y0187272D01*
X0262242Y0188271D02*
X0265000Y0188271D01*
X0265000Y0189269D02*
X0261243Y0189269D01*
X0260400Y0190268D02*
X0265000Y0190268D01*
X0265000Y0191266D02*
X0260400Y0191266D01*
X0260011Y0192265D02*
X0265000Y0192265D01*
X0265000Y0193263D02*
X0259010Y0193263D01*
X0257500Y0190750D02*
X0261250Y0187000D01*
X0261250Y0060750D01*
X0257500Y0057000D01*
X0256500Y0047000D01*
X0260850Y0047481D02*
X0265000Y0047481D01*
X0265000Y0048479D02*
X0260850Y0048479D01*
X0260850Y0049478D02*
X0265000Y0049478D01*
X0265000Y0050476D02*
X0260850Y0050476D01*
X0260850Y0051475D02*
X0265000Y0051475D01*
X0265000Y0052473D02*
X0260850Y0052473D01*
X0260850Y0053472D02*
X0265000Y0053472D01*
X0265000Y0054470D02*
X0260850Y0054470D01*
X0260337Y0055469D02*
X0265000Y0055469D01*
X0265000Y0056467D02*
X0259230Y0056467D01*
X0260228Y0057466D02*
X0265000Y0057466D01*
X0265000Y0058464D02*
X0261227Y0058464D01*
X0262226Y0059463D02*
X0265000Y0059463D01*
X0265000Y0060461D02*
X0262850Y0060461D01*
X0262850Y0061460D02*
X0265000Y0061460D01*
X0265000Y0062458D02*
X0262850Y0062458D01*
X0262850Y0063457D02*
X0265000Y0063457D01*
X0265000Y0064455D02*
X0262850Y0064455D01*
X0262850Y0065454D02*
X0265000Y0065454D01*
X0265000Y0066452D02*
X0262850Y0066452D01*
X0262850Y0067451D02*
X0265000Y0067451D01*
X0265000Y0068449D02*
X0262850Y0068449D01*
X0262850Y0069448D02*
X0265000Y0069448D01*
X0265000Y0070446D02*
X0262850Y0070446D01*
X0262850Y0071445D02*
X0265000Y0071445D01*
X0265000Y0072443D02*
X0262850Y0072443D01*
X0262850Y0073442D02*
X0265000Y0073442D01*
X0265000Y0074440D02*
X0262850Y0074440D01*
X0262850Y0075439D02*
X0265000Y0075439D01*
X0265000Y0076437D02*
X0262850Y0076437D01*
X0262850Y0077436D02*
X0265000Y0077436D01*
X0265000Y0078434D02*
X0262850Y0078434D01*
X0262850Y0079433D02*
X0265000Y0079433D01*
X0265000Y0080432D02*
X0262850Y0080432D01*
X0262850Y0081430D02*
X0265000Y0081430D01*
X0265000Y0082429D02*
X0262850Y0082429D01*
X0262850Y0083427D02*
X0265000Y0083427D01*
X0265000Y0084426D02*
X0262850Y0084426D01*
X0262850Y0085424D02*
X0265000Y0085424D01*
X0265000Y0086423D02*
X0262850Y0086423D01*
X0262850Y0087421D02*
X0265000Y0087421D01*
X0265000Y0088420D02*
X0262850Y0088420D01*
X0262850Y0089418D02*
X0265000Y0089418D01*
X0265000Y0090417D02*
X0262850Y0090417D01*
X0262850Y0091415D02*
X0265000Y0091415D01*
X0265000Y0092414D02*
X0262850Y0092414D01*
X0262850Y0093412D02*
X0265000Y0093412D01*
X0265000Y0094411D02*
X0262850Y0094411D01*
X0262850Y0095409D02*
X0265000Y0095409D01*
X0265000Y0096408D02*
X0262850Y0096408D01*
X0262850Y0097406D02*
X0265000Y0097406D01*
X0265000Y0098405D02*
X0262850Y0098405D01*
X0262850Y0099403D02*
X0265000Y0099403D01*
X0265000Y0100402D02*
X0262850Y0100402D01*
X0262850Y0101400D02*
X0265000Y0101400D01*
X0265000Y0102399D02*
X0262850Y0102399D01*
X0262850Y0103397D02*
X0265000Y0103397D01*
X0265000Y0104396D02*
X0262850Y0104396D01*
X0262850Y0105394D02*
X0265000Y0105394D01*
X0265000Y0106393D02*
X0262850Y0106393D01*
X0262850Y0107391D02*
X0265000Y0107391D01*
X0265000Y0108390D02*
X0262850Y0108390D01*
X0262850Y0109388D02*
X0265000Y0109388D01*
X0265000Y0110387D02*
X0262850Y0110387D01*
X0262850Y0111385D02*
X0265000Y0111385D01*
X0265000Y0112384D02*
X0262850Y0112384D01*
X0262850Y0113382D02*
X0265000Y0113382D01*
X0265000Y0114381D02*
X0262850Y0114381D01*
X0262850Y0115379D02*
X0265000Y0115379D01*
X0265000Y0116378D02*
X0262850Y0116378D01*
X0262850Y0117376D02*
X0265000Y0117376D01*
X0265000Y0118375D02*
X0262850Y0118375D01*
X0262850Y0119373D02*
X0265000Y0119373D01*
X0265000Y0120372D02*
X0262850Y0120372D01*
X0262850Y0121370D02*
X0265000Y0121370D01*
X0265000Y0122369D02*
X0262850Y0122369D01*
X0262850Y0123368D02*
X0265000Y0123368D01*
X0265000Y0124366D02*
X0262850Y0124366D01*
X0262850Y0125365D02*
X0265000Y0125365D01*
X0265000Y0126363D02*
X0262850Y0126363D01*
X0262850Y0127362D02*
X0265000Y0127362D01*
X0265000Y0128360D02*
X0262850Y0128360D01*
X0262850Y0129359D02*
X0265000Y0129359D01*
X0265000Y0130357D02*
X0262850Y0130357D01*
X0262850Y0131356D02*
X0265000Y0131356D01*
X0265000Y0132354D02*
X0262850Y0132354D01*
X0262850Y0133353D02*
X0265000Y0133353D01*
X0265000Y0134351D02*
X0262850Y0134351D01*
X0262850Y0135350D02*
X0265000Y0135350D01*
X0265000Y0136348D02*
X0262850Y0136348D01*
X0262850Y0137347D02*
X0265000Y0137347D01*
X0265000Y0138345D02*
X0262850Y0138345D01*
X0262850Y0139344D02*
X0265000Y0139344D01*
X0265000Y0140342D02*
X0262850Y0140342D01*
X0262850Y0141341D02*
X0265000Y0141341D01*
X0265000Y0142339D02*
X0262850Y0142339D01*
X0262850Y0143338D02*
X0265000Y0143338D01*
X0265000Y0144336D02*
X0262850Y0144336D01*
X0262850Y0145335D02*
X0265000Y0145335D01*
X0265000Y0146333D02*
X0262850Y0146333D01*
X0262850Y0147332D02*
X0265000Y0147332D01*
X0265000Y0148330D02*
X0262850Y0148330D01*
X0262850Y0149329D02*
X0265000Y0149329D01*
X0265000Y0150327D02*
X0262850Y0150327D01*
X0262850Y0151326D02*
X0265000Y0151326D01*
X0265000Y0152324D02*
X0262850Y0152324D01*
X0262850Y0153323D02*
X0265000Y0153323D01*
X0265000Y0154321D02*
X0262850Y0154321D01*
X0262850Y0155320D02*
X0265000Y0155320D01*
X0265000Y0156318D02*
X0262850Y0156318D01*
X0262850Y0157317D02*
X0265000Y0157317D01*
X0265000Y0158315D02*
X0262850Y0158315D01*
X0262850Y0159314D02*
X0265000Y0159314D01*
X0265000Y0160312D02*
X0262850Y0160312D01*
X0262850Y0161311D02*
X0265000Y0161311D01*
X0265000Y0162309D02*
X0262850Y0162309D01*
X0262850Y0163308D02*
X0265000Y0163308D01*
X0265000Y0164306D02*
X0262850Y0164306D01*
X0262850Y0165305D02*
X0265000Y0165305D01*
X0265000Y0166303D02*
X0262850Y0166303D01*
X0262850Y0167302D02*
X0265000Y0167302D01*
X0256500Y0174500D02*
X0253687Y0177312D01*
X0253262Y0187272D02*
X0253100Y0187272D01*
X0253100Y0188271D02*
X0254260Y0188271D01*
X0254974Y0189269D02*
X0253100Y0189269D01*
X0253100Y0190268D02*
X0254600Y0190268D01*
X0254600Y0191266D02*
X0253100Y0191266D01*
X0253100Y0192265D02*
X0254989Y0192265D01*
X0255990Y0193263D02*
X0253100Y0193263D01*
X0253100Y0194262D02*
X0265000Y0194262D01*
X0265000Y0195260D02*
X0253100Y0195260D01*
X0253100Y0196259D02*
X0265000Y0196259D01*
X0265000Y0197257D02*
X0253100Y0197257D01*
X0253100Y0198256D02*
X0265000Y0198256D01*
X0265000Y0199254D02*
X0253517Y0199254D01*
X0254516Y0200253D02*
X0254737Y0200253D01*
X0251812Y0199812D02*
X0256500Y0204500D01*
X0260750Y0204247D02*
X0265000Y0204247D01*
X0265000Y0205245D02*
X0260750Y0205245D01*
X0260750Y0206244D02*
X0265000Y0206244D01*
X0265000Y0207242D02*
X0259768Y0207242D01*
X0258769Y0208241D02*
X0265000Y0208241D01*
X0265000Y0209239D02*
X0253100Y0209239D01*
X0253100Y0208241D02*
X0254231Y0208241D01*
X0253232Y0207242D02*
X0253100Y0207242D01*
X0253100Y0210238D02*
X0265000Y0210238D01*
X0265000Y0211237D02*
X0259247Y0211237D01*
X0260245Y0212235D02*
X0265000Y0212235D01*
X0265000Y0213234D02*
X0260750Y0213234D01*
X0260750Y0214232D02*
X0265000Y0214232D01*
X0265000Y0215231D02*
X0260750Y0215231D01*
X0260750Y0216229D02*
X0265000Y0216229D01*
X0265000Y0217228D02*
X0259783Y0217228D01*
X0258784Y0218226D02*
X0265000Y0218226D01*
X0265000Y0219225D02*
X0253100Y0219225D01*
X0253100Y0220223D02*
X0265000Y0220223D01*
X0265000Y0221222D02*
X0253100Y0221222D01*
X0253100Y0222220D02*
X0265000Y0222220D01*
X0265000Y0223219D02*
X0253100Y0223219D01*
X0253100Y0224217D02*
X0265000Y0224217D01*
X0265000Y0225216D02*
X0253100Y0225216D01*
X0253100Y0226214D02*
X0265000Y0226214D01*
X0265000Y0227213D02*
X0252925Y0227213D01*
X0251927Y0228211D02*
X0265000Y0228211D01*
X0265000Y0229210D02*
X0250928Y0229210D01*
X0249930Y0230208D02*
X0265000Y0230208D01*
X0265000Y0231207D02*
X0248931Y0231207D01*
X0247932Y0232205D02*
X0265000Y0232205D01*
X0265000Y0233204D02*
X0246934Y0233204D01*
X0245935Y0234202D02*
X0265000Y0234202D01*
X0265000Y0235201D02*
X0244937Y0235201D01*
X0244400Y0236199D02*
X0265000Y0236199D01*
X0265000Y0237198D02*
X0245211Y0237198D01*
X0245600Y0238196D02*
X0265000Y0238196D01*
X0265000Y0239195D02*
X0245600Y0239195D01*
X0245600Y0240193D02*
X0265000Y0240193D01*
X0265000Y0241192D02*
X0245600Y0241192D01*
X0245600Y0242190D02*
X0265000Y0242190D01*
X0265000Y0243189D02*
X0245600Y0243189D01*
X0245600Y0244187D02*
X0265000Y0244187D01*
X0265000Y0245186D02*
X0245600Y0245186D01*
X0245600Y0246184D02*
X0265000Y0246184D01*
X0265000Y0247183D02*
X0245600Y0247183D01*
X0245600Y0248181D02*
X0265000Y0248181D01*
X0265000Y0249180D02*
X0245600Y0249180D01*
X0245600Y0250178D02*
X0265000Y0250178D01*
X0265000Y0251177D02*
X0245600Y0251177D01*
X0245600Y0252175D02*
X0265000Y0252175D01*
X0265000Y0253174D02*
X0245600Y0253174D01*
X0245600Y0254172D02*
X0265000Y0254172D01*
X0265000Y0255171D02*
X0245600Y0255171D01*
X0245600Y0256170D02*
X0265000Y0256170D01*
X0265000Y0257168D02*
X0245600Y0257168D01*
X0245600Y0258167D02*
X0265000Y0258167D01*
X0265000Y0259165D02*
X0245600Y0259165D01*
X0245600Y0260164D02*
X0265000Y0260164D01*
X0265000Y0261162D02*
X0245600Y0261162D01*
X0245600Y0262161D02*
X0265000Y0262161D01*
X0265000Y0263159D02*
X0245600Y0263159D01*
X0245600Y0264158D02*
X0265000Y0264158D01*
X0265000Y0265156D02*
X0245600Y0265156D01*
X0245600Y0266155D02*
X0265000Y0266155D01*
X0265000Y0267153D02*
X0245600Y0267153D01*
X0245600Y0268152D02*
X0265000Y0268152D01*
X0265000Y0269150D02*
X0245600Y0269150D01*
X0245600Y0270149D02*
X0265000Y0270149D01*
X0265000Y0271147D02*
X0245600Y0271147D01*
X0245600Y0272146D02*
X0265000Y0272146D01*
X0265000Y0273144D02*
X0245600Y0273144D01*
X0245600Y0274143D02*
X0265000Y0274143D01*
X0265000Y0275141D02*
X0245600Y0275141D01*
X0245600Y0276140D02*
X0265000Y0276140D01*
X0265000Y0277138D02*
X0245600Y0277138D01*
X0245600Y0278137D02*
X0265000Y0278137D01*
X0265000Y0279135D02*
X0245600Y0279135D01*
X0245600Y0280134D02*
X0265000Y0280134D01*
X0265000Y0281132D02*
X0245600Y0281132D01*
X0245600Y0282131D02*
X0265000Y0282131D01*
X0265000Y0283129D02*
X0245600Y0283129D01*
X0245600Y0284128D02*
X0265000Y0284128D01*
X0265000Y0285126D02*
X0245600Y0285126D01*
X0245600Y0286125D02*
X0265000Y0286125D01*
X0265000Y0287123D02*
X0245600Y0287123D01*
X0245600Y0288122D02*
X0265000Y0288122D01*
X0265000Y0289120D02*
X0245600Y0289120D01*
X0245600Y0290119D02*
X0265000Y0290119D01*
X0265000Y0291117D02*
X0245600Y0291117D01*
X0245600Y0292116D02*
X0265000Y0292116D01*
X0265000Y0293114D02*
X0245600Y0293114D01*
X0245600Y0294113D02*
X0265000Y0294113D01*
X0265000Y0295111D02*
X0245600Y0295111D01*
X0245600Y0296110D02*
X0265000Y0296110D01*
X0265000Y0297108D02*
X0245600Y0297108D01*
X0245600Y0298107D02*
X0265000Y0298107D01*
X0265000Y0299105D02*
X0245600Y0299105D01*
X0245600Y0300104D02*
X0265000Y0300104D01*
X0265000Y0301103D02*
X0245835Y0301103D01*
X0246834Y0302101D02*
X0265000Y0302101D01*
X0265000Y0303100D02*
X0247700Y0303100D01*
X0247700Y0304098D02*
X0265000Y0304098D01*
X0265000Y0305097D02*
X0247700Y0305097D01*
X0247637Y0306095D02*
X0265000Y0306095D01*
X0265000Y0307094D02*
X0246639Y0307094D01*
X0245640Y0308092D02*
X0265000Y0308092D01*
X0265000Y0309091D02*
X0207157Y0309091D01*
X0207525Y0308092D02*
X0232360Y0308092D01*
X0232467Y0308200D02*
X0230300Y0306033D01*
X0230300Y0302967D01*
X0232467Y0300800D01*
X0235533Y0300800D01*
X0237700Y0302967D01*
X0237700Y0306033D01*
X0235533Y0308200D01*
X0232467Y0308200D01*
X0231361Y0307094D02*
X0207525Y0307094D01*
X0208418Y0306095D02*
X0230362Y0306095D01*
X0230300Y0305097D02*
X0209416Y0305097D01*
X0210415Y0304098D02*
X0230300Y0304098D01*
X0230300Y0303100D02*
X0211413Y0303100D01*
X0212412Y0302101D02*
X0231166Y0302101D01*
X0232165Y0301103D02*
X0213410Y0301103D01*
X0214409Y0300104D02*
X0221782Y0300104D01*
X0220849Y0299105D02*
X0215407Y0299105D01*
X0216406Y0298107D02*
X0220475Y0298107D01*
X0220475Y0297108D02*
X0217404Y0297108D01*
X0218403Y0296110D02*
X0220864Y0296110D01*
X0221865Y0295111D02*
X0219401Y0295111D01*
X0220400Y0294113D02*
X0224624Y0294113D01*
X0225623Y0293114D02*
X0221398Y0293114D01*
X0222397Y0292116D02*
X0226621Y0292116D01*
X0227620Y0291117D02*
X0223395Y0291117D01*
X0224394Y0290119D02*
X0228618Y0290119D01*
X0229617Y0289120D02*
X0225392Y0289120D01*
X0226391Y0288122D02*
X0230615Y0288122D01*
X0231614Y0287123D02*
X0227389Y0287123D01*
X0228388Y0286125D02*
X0232612Y0286125D01*
X0233611Y0285126D02*
X0229386Y0285126D01*
X0230385Y0284128D02*
X0234609Y0284128D01*
X0235608Y0283129D02*
X0231383Y0283129D01*
X0236139Y0287123D02*
X0242400Y0287123D01*
X0242400Y0286125D02*
X0237138Y0286125D01*
X0238136Y0285126D02*
X0242400Y0285126D01*
X0242400Y0284128D02*
X0239135Y0284128D01*
X0239350Y0283129D02*
X0242400Y0283129D01*
X0242400Y0282131D02*
X0239350Y0282131D01*
X0239350Y0281132D02*
X0242400Y0281132D01*
X0242400Y0280134D02*
X0239350Y0280134D01*
X0239350Y0279135D02*
X0242400Y0279135D01*
X0242400Y0278137D02*
X0239350Y0278137D01*
X0237750Y0283250D02*
X0237750Y0234500D01*
X0238375Y0233875D01*
X0238375Y0206375D01*
X0240250Y0204500D01*
X0240250Y0132000D01*
X0236500Y0135125D02*
X0237750Y0136375D01*
X0237750Y0203875D01*
X0236500Y0205125D01*
X0236500Y0232625D01*
X0215875Y0253250D01*
X0213695Y0255171D02*
X0213100Y0255171D01*
X0213100Y0254172D02*
X0213118Y0254172D01*
X0223206Y0248181D02*
X0236150Y0248181D01*
X0236150Y0247183D02*
X0224205Y0247183D01*
X0225203Y0246184D02*
X0236150Y0246184D01*
X0236150Y0245186D02*
X0226202Y0245186D01*
X0227200Y0244187D02*
X0236150Y0244187D01*
X0236150Y0243189D02*
X0228199Y0243189D01*
X0229197Y0242190D02*
X0236150Y0242190D01*
X0236150Y0241192D02*
X0230196Y0241192D01*
X0231194Y0240193D02*
X0236150Y0240193D01*
X0236150Y0239195D02*
X0232193Y0239195D01*
X0233191Y0238196D02*
X0236150Y0238196D01*
X0236150Y0237198D02*
X0234190Y0237198D01*
X0235188Y0236199D02*
X0236150Y0236199D01*
X0244000Y0238250D02*
X0244000Y0304500D01*
X0241361Y0307094D02*
X0236639Y0307094D01*
X0235640Y0308092D02*
X0242360Y0308092D01*
X0240362Y0306095D02*
X0237637Y0306095D01*
X0237700Y0305097D02*
X0240300Y0305097D01*
X0240300Y0304098D02*
X0237700Y0304098D01*
X0237700Y0303100D02*
X0240300Y0303100D01*
X0241166Y0302101D02*
X0236834Y0302101D01*
X0235835Y0301103D02*
X0242165Y0301103D01*
X0242400Y0300104D02*
X0224968Y0300104D01*
X0225901Y0299105D02*
X0242400Y0299105D01*
X0242400Y0298107D02*
X0226275Y0298107D01*
X0226275Y0297108D02*
X0242400Y0297108D01*
X0242400Y0296110D02*
X0227153Y0296110D01*
X0228151Y0295111D02*
X0242400Y0295111D01*
X0242400Y0294113D02*
X0229150Y0294113D01*
X0230148Y0293114D02*
X0242400Y0293114D01*
X0242400Y0292116D02*
X0231147Y0292116D01*
X0232145Y0291117D02*
X0242400Y0291117D01*
X0242400Y0290119D02*
X0233144Y0290119D01*
X0234142Y0289120D02*
X0242400Y0289120D01*
X0242400Y0288122D02*
X0235141Y0288122D01*
X0237750Y0283250D02*
X0223375Y0297625D01*
X0206254Y0310089D02*
X0265000Y0310089D01*
X0265000Y0321073D02*
X0029000Y0321073D01*
X0029000Y0322071D02*
X0265000Y0322071D01*
X0265000Y0323000D02*
X0029000Y0323000D01*
X0029000Y0037475D01*
X0030225Y0036250D01*
X0263775Y0036250D01*
X0265000Y0037475D01*
X0265000Y0323000D01*
X0209625Y0268250D02*
X0209625Y0213875D01*
X0218500Y0208000D01*
X0218375Y0205125D01*
X0218375Y0198250D01*
X0220250Y0196375D01*
X0216500Y0213875D02*
X0211500Y0218875D01*
X0216500Y0221375D02*
X0216500Y0235750D01*
X0220250Y0238875D02*
X0220250Y0216375D01*
X0222125Y0214500D01*
X0222125Y0162625D01*
X0226500Y0158250D01*
X0226500Y0163250D02*
X0224000Y0165750D01*
X0224000Y0217625D01*
X0226500Y0225125D02*
X0234000Y0217625D01*
X0234000Y0152625D01*
X0242125Y0138250D02*
X0245250Y0135125D01*
X0245250Y0067625D01*
X0247903Y0066452D02*
X0259650Y0066452D01*
X0259650Y0065454D02*
X0247180Y0065454D01*
X0245682Y0064455D02*
X0259650Y0064455D01*
X0259650Y0063457D02*
X0246681Y0063457D01*
X0247679Y0062458D02*
X0259650Y0062458D01*
X0259650Y0061460D02*
X0248100Y0061460D01*
X0248100Y0060461D02*
X0258699Y0060461D01*
X0257700Y0059463D02*
X0248100Y0059463D01*
X0248100Y0058464D02*
X0256702Y0058464D01*
X0255900Y0057466D02*
X0248100Y0057466D01*
X0248100Y0056467D02*
X0255839Y0056467D01*
X0252663Y0055469D02*
X0250337Y0055469D01*
X0250850Y0054470D02*
X0252150Y0054470D01*
X0252150Y0053472D02*
X0250850Y0053472D01*
X0250850Y0052473D02*
X0252150Y0052473D01*
X0252150Y0051475D02*
X0250850Y0051475D01*
X0250850Y0050476D02*
X0252150Y0050476D01*
X0252150Y0049478D02*
X0250850Y0049478D01*
X0250850Y0048479D02*
X0252150Y0048479D01*
X0252150Y0047481D02*
X0250850Y0047481D01*
X0250850Y0046482D02*
X0252150Y0046482D01*
X0252150Y0045484D02*
X0250850Y0045484D01*
X0250850Y0044485D02*
X0252150Y0044485D01*
X0252150Y0043487D02*
X0250850Y0043487D01*
X0250850Y0042488D02*
X0252150Y0042488D01*
X0252150Y0041490D02*
X0250850Y0041490D01*
X0250850Y0040491D02*
X0252150Y0040491D01*
X0252150Y0039493D02*
X0250850Y0039493D01*
X0250300Y0038494D02*
X0252700Y0038494D01*
X0260300Y0038494D02*
X0265000Y0038494D01*
X0265000Y0037496D02*
X0029000Y0037496D01*
X0029000Y0038494D02*
X0032885Y0038494D01*
X0032800Y0038579D02*
X0033079Y0038300D01*
X0033421Y0038102D01*
X0033803Y0038000D01*
X0046000Y0038000D01*
X0046000Y0046500D01*
X0047000Y0046500D01*
X0047000Y0047500D01*
X0060500Y0047500D01*
X0060500Y0054697D01*
X0060398Y0055079D01*
X0060200Y0055421D01*
X0059921Y0055700D01*
X0059579Y0055898D01*
X0059197Y0056000D01*
X0047000Y0056000D01*
X0047000Y0047500D01*
X0046000Y0047500D01*
X0046000Y0056000D01*
X0033803Y0056000D01*
X0033421Y0055898D01*
X0033079Y0055700D01*
X0032800Y0055421D01*
X0032602Y0055079D01*
X0032500Y0054697D01*
X0032500Y0047500D01*
X0046000Y0047500D01*
X0046000Y0046500D01*
X0032500Y0046500D01*
X0032500Y0039303D01*
X0032602Y0038921D01*
X0032800Y0038579D01*
X0032500Y0039493D02*
X0029000Y0039493D01*
X0029000Y0040491D02*
X0032500Y0040491D01*
X0032500Y0041490D02*
X0029000Y0041490D01*
X0029000Y0042488D02*
X0032500Y0042488D01*
X0032500Y0043487D02*
X0029000Y0043487D01*
X0029000Y0044485D02*
X0032500Y0044485D01*
X0032500Y0045484D02*
X0029000Y0045484D01*
X0029000Y0046482D02*
X0032500Y0046482D01*
X0032500Y0048479D02*
X0029000Y0048479D01*
X0029000Y0047481D02*
X0046000Y0047481D01*
X0046000Y0048479D02*
X0047000Y0048479D01*
X0047000Y0047481D02*
X0076000Y0047481D01*
X0076000Y0047500D02*
X0076000Y0046500D01*
X0077000Y0046500D01*
X0077000Y0047500D01*
X0090500Y0047500D01*
X0090500Y0054697D01*
X0090398Y0055079D01*
X0090200Y0055421D01*
X0089921Y0055700D01*
X0089579Y0055898D01*
X0089197Y0056000D01*
X0077000Y0056000D01*
X0077000Y0047500D01*
X0076000Y0047500D01*
X0076000Y0056000D01*
X0063803Y0056000D01*
X0063421Y0055898D01*
X0063079Y0055700D01*
X0062800Y0055421D01*
X0062602Y0055079D01*
X0062500Y0054697D01*
X0062500Y0047500D01*
X0076000Y0047500D01*
X0076000Y0048479D02*
X0077000Y0048479D01*
X0077000Y0047481D02*
X0106000Y0047481D01*
X0106000Y0047500D02*
X0106000Y0046500D01*
X0107000Y0046500D01*
X0107000Y0047500D01*
X0120500Y0047500D01*
X0120500Y0054697D01*
X0120398Y0055079D01*
X0120200Y0055421D01*
X0119921Y0055700D01*
X0119579Y0055898D01*
X0119197Y0056000D01*
X0107000Y0056000D01*
X0107000Y0047500D01*
X0106000Y0047500D01*
X0106000Y0056000D01*
X0093803Y0056000D01*
X0093421Y0055898D01*
X0093079Y0055700D01*
X0092800Y0055421D01*
X0092602Y0055079D01*
X0092500Y0054697D01*
X0092500Y0047500D01*
X0106000Y0047500D01*
X0106000Y0048479D02*
X0107000Y0048479D01*
X0107000Y0047481D02*
X0136000Y0047481D01*
X0136000Y0047500D02*
X0136000Y0046500D01*
X0137000Y0046500D01*
X0137000Y0047500D01*
X0150500Y0047500D01*
X0150500Y0054697D01*
X0150398Y0055079D01*
X0150200Y0055421D01*
X0149921Y0055700D01*
X0149579Y0055898D01*
X0149197Y0056000D01*
X0137000Y0056000D01*
X0137000Y0047500D01*
X0136000Y0047500D01*
X0136000Y0056000D01*
X0123803Y0056000D01*
X0123421Y0055898D01*
X0123079Y0055700D01*
X0122800Y0055421D01*
X0122602Y0055079D01*
X0122500Y0054697D01*
X0122500Y0047500D01*
X0136000Y0047500D01*
X0136000Y0048479D02*
X0137000Y0048479D01*
X0137000Y0047481D02*
X0152150Y0047481D01*
X0152150Y0048479D02*
X0150500Y0048479D01*
X0150500Y0049478D02*
X0152150Y0049478D01*
X0152150Y0050476D02*
X0150500Y0050476D01*
X0150500Y0051475D02*
X0152150Y0051475D01*
X0152150Y0052473D02*
X0150500Y0052473D01*
X0150500Y0053472D02*
X0152150Y0053472D01*
X0152150Y0054470D02*
X0150500Y0054470D01*
X0150153Y0055469D02*
X0152663Y0055469D01*
X0154699Y0056467D02*
X0029000Y0056467D01*
X0029000Y0055469D02*
X0032847Y0055469D01*
X0032500Y0054470D02*
X0029000Y0054470D01*
X0029000Y0053472D02*
X0032500Y0053472D01*
X0032500Y0052473D02*
X0029000Y0052473D01*
X0029000Y0051475D02*
X0032500Y0051475D01*
X0032500Y0050476D02*
X0029000Y0050476D01*
X0029000Y0049478D02*
X0032500Y0049478D01*
X0029000Y0057466D02*
X0154678Y0057466D01*
X0154656Y0058464D02*
X0029000Y0058464D01*
X0029000Y0059463D02*
X0154617Y0059463D01*
X0154506Y0060461D02*
X0029000Y0060461D01*
X0029000Y0061460D02*
X0154395Y0061460D01*
X0154284Y0062458D02*
X0029000Y0062458D01*
X0029000Y0063457D02*
X0154491Y0063457D01*
X0154638Y0064455D02*
X0029000Y0064455D01*
X0029000Y0065454D02*
X0154638Y0065454D01*
X0154638Y0066452D02*
X0029000Y0066452D01*
X0029000Y0067451D02*
X0139128Y0067451D01*
X0137824Y0068449D02*
X0029000Y0068449D01*
X0029000Y0071445D02*
X0098479Y0071445D01*
X0097480Y0072443D02*
X0029000Y0072443D01*
X0029000Y0073442D02*
X0096850Y0073442D01*
X0096850Y0074440D02*
X0029000Y0074440D01*
X0029000Y0075439D02*
X0096850Y0075439D01*
X0096850Y0076437D02*
X0029000Y0076437D01*
X0029000Y0077436D02*
X0097360Y0077436D01*
X0098358Y0078434D02*
X0029000Y0078434D01*
X0046000Y0055469D02*
X0047000Y0055469D01*
X0047000Y0054470D02*
X0046000Y0054470D01*
X0046000Y0053472D02*
X0047000Y0053472D01*
X0047000Y0052473D02*
X0046000Y0052473D01*
X0046000Y0051475D02*
X0047000Y0051475D01*
X0047000Y0050476D02*
X0046000Y0050476D01*
X0046000Y0049478D02*
X0047000Y0049478D01*
X0047000Y0046500D02*
X0060500Y0046500D01*
X0060500Y0039303D01*
X0060398Y0038921D01*
X0060200Y0038579D01*
X0059921Y0038300D01*
X0059579Y0038102D01*
X0059197Y0038000D01*
X0047000Y0038000D01*
X0047000Y0046500D01*
X0047000Y0046482D02*
X0046000Y0046482D01*
X0046000Y0045484D02*
X0047000Y0045484D01*
X0047000Y0044485D02*
X0046000Y0044485D01*
X0046000Y0043487D02*
X0047000Y0043487D01*
X0047000Y0042488D02*
X0046000Y0042488D01*
X0046000Y0041490D02*
X0047000Y0041490D01*
X0047000Y0040491D02*
X0046000Y0040491D01*
X0046000Y0039493D02*
X0047000Y0039493D01*
X0047000Y0038494D02*
X0046000Y0038494D01*
X0060115Y0038494D02*
X0062885Y0038494D01*
X0062800Y0038579D02*
X0063079Y0038300D01*
X0063421Y0038102D01*
X0063803Y0038000D01*
X0076000Y0038000D01*
X0076000Y0046500D01*
X0062500Y0046500D01*
X0062500Y0039303D01*
X0062602Y0038921D01*
X0062800Y0038579D01*
X0062500Y0039493D02*
X0060500Y0039493D01*
X0060500Y0040491D02*
X0062500Y0040491D01*
X0062500Y0041490D02*
X0060500Y0041490D01*
X0060500Y0042488D02*
X0062500Y0042488D01*
X0062500Y0043487D02*
X0060500Y0043487D01*
X0060500Y0044485D02*
X0062500Y0044485D01*
X0062500Y0045484D02*
X0060500Y0045484D01*
X0060500Y0046482D02*
X0062500Y0046482D01*
X0062500Y0048479D02*
X0060500Y0048479D01*
X0060500Y0049478D02*
X0062500Y0049478D01*
X0062500Y0050476D02*
X0060500Y0050476D01*
X0060500Y0051475D02*
X0062500Y0051475D01*
X0062500Y0052473D02*
X0060500Y0052473D01*
X0060500Y0053472D02*
X0062500Y0053472D01*
X0062500Y0054470D02*
X0060500Y0054470D01*
X0060153Y0055469D02*
X0062847Y0055469D01*
X0076000Y0055469D02*
X0077000Y0055469D01*
X0077000Y0054470D02*
X0076000Y0054470D01*
X0076000Y0053472D02*
X0077000Y0053472D01*
X0077000Y0052473D02*
X0076000Y0052473D01*
X0076000Y0051475D02*
X0077000Y0051475D01*
X0077000Y0050476D02*
X0076000Y0050476D01*
X0076000Y0049478D02*
X0077000Y0049478D01*
X0077000Y0046500D02*
X0090500Y0046500D01*
X0090500Y0039303D01*
X0090398Y0038921D01*
X0090200Y0038579D01*
X0089921Y0038300D01*
X0089579Y0038102D01*
X0089197Y0038000D01*
X0077000Y0038000D01*
X0077000Y0046500D01*
X0077000Y0046482D02*
X0076000Y0046482D01*
X0076000Y0045484D02*
X0077000Y0045484D01*
X0077000Y0044485D02*
X0076000Y0044485D01*
X0076000Y0043487D02*
X0077000Y0043487D01*
X0077000Y0042488D02*
X0076000Y0042488D01*
X0076000Y0041490D02*
X0077000Y0041490D01*
X0077000Y0040491D02*
X0076000Y0040491D01*
X0076000Y0039493D02*
X0077000Y0039493D01*
X0077000Y0038494D02*
X0076000Y0038494D01*
X0090115Y0038494D02*
X0092885Y0038494D01*
X0092800Y0038579D02*
X0093079Y0038300D01*
X0093421Y0038102D01*
X0093803Y0038000D01*
X0106000Y0038000D01*
X0106000Y0046500D01*
X0092500Y0046500D01*
X0092500Y0039303D01*
X0092602Y0038921D01*
X0092800Y0038579D01*
X0092500Y0039493D02*
X0090500Y0039493D01*
X0090500Y0040491D02*
X0092500Y0040491D01*
X0092500Y0041490D02*
X0090500Y0041490D01*
X0090500Y0042488D02*
X0092500Y0042488D01*
X0092500Y0043487D02*
X0090500Y0043487D01*
X0090500Y0044485D02*
X0092500Y0044485D01*
X0092500Y0045484D02*
X0090500Y0045484D01*
X0090500Y0046482D02*
X0092500Y0046482D01*
X0092500Y0048479D02*
X0090500Y0048479D01*
X0090500Y0049478D02*
X0092500Y0049478D01*
X0092500Y0050476D02*
X0090500Y0050476D01*
X0090500Y0051475D02*
X0092500Y0051475D01*
X0092500Y0052473D02*
X0090500Y0052473D01*
X0090500Y0053472D02*
X0092500Y0053472D01*
X0092500Y0054470D02*
X0090500Y0054470D01*
X0090153Y0055469D02*
X0092847Y0055469D01*
X0106000Y0055469D02*
X0107000Y0055469D01*
X0107000Y0054470D02*
X0106000Y0054470D01*
X0106000Y0053472D02*
X0107000Y0053472D01*
X0107000Y0052473D02*
X0106000Y0052473D01*
X0106000Y0051475D02*
X0107000Y0051475D01*
X0107000Y0050476D02*
X0106000Y0050476D01*
X0106000Y0049478D02*
X0107000Y0049478D01*
X0107000Y0046500D02*
X0120500Y0046500D01*
X0120500Y0039303D01*
X0120398Y0038921D01*
X0120200Y0038579D01*
X0119921Y0038300D01*
X0119579Y0038102D01*
X0119197Y0038000D01*
X0107000Y0038000D01*
X0107000Y0046500D01*
X0107000Y0046482D02*
X0106000Y0046482D01*
X0106000Y0045484D02*
X0107000Y0045484D01*
X0107000Y0044485D02*
X0106000Y0044485D01*
X0106000Y0043487D02*
X0107000Y0043487D01*
X0107000Y0042488D02*
X0106000Y0042488D01*
X0106000Y0041490D02*
X0107000Y0041490D01*
X0107000Y0040491D02*
X0106000Y0040491D01*
X0106000Y0039493D02*
X0107000Y0039493D01*
X0107000Y0038494D02*
X0106000Y0038494D01*
X0120115Y0038494D02*
X0122885Y0038494D01*
X0122800Y0038579D02*
X0123079Y0038300D01*
X0123421Y0038102D01*
X0123803Y0038000D01*
X0136000Y0038000D01*
X0136000Y0046500D01*
X0122500Y0046500D01*
X0122500Y0039303D01*
X0122602Y0038921D01*
X0122800Y0038579D01*
X0122500Y0039493D02*
X0120500Y0039493D01*
X0120500Y0040491D02*
X0122500Y0040491D01*
X0122500Y0041490D02*
X0120500Y0041490D01*
X0120500Y0042488D02*
X0122500Y0042488D01*
X0122500Y0043487D02*
X0120500Y0043487D01*
X0120500Y0044485D02*
X0122500Y0044485D01*
X0122500Y0045484D02*
X0120500Y0045484D01*
X0120500Y0046482D02*
X0122500Y0046482D01*
X0122500Y0048479D02*
X0120500Y0048479D01*
X0120500Y0049478D02*
X0122500Y0049478D01*
X0122500Y0050476D02*
X0120500Y0050476D01*
X0120500Y0051475D02*
X0122500Y0051475D01*
X0122500Y0052473D02*
X0120500Y0052473D01*
X0120500Y0053472D02*
X0122500Y0053472D01*
X0122500Y0054470D02*
X0120500Y0054470D01*
X0120153Y0055469D02*
X0122847Y0055469D01*
X0136000Y0055469D02*
X0137000Y0055469D01*
X0137000Y0054470D02*
X0136000Y0054470D01*
X0136000Y0053472D02*
X0137000Y0053472D01*
X0137000Y0052473D02*
X0136000Y0052473D01*
X0136000Y0051475D02*
X0137000Y0051475D01*
X0137000Y0050476D02*
X0136000Y0050476D01*
X0136000Y0049478D02*
X0137000Y0049478D01*
X0137000Y0046500D02*
X0150500Y0046500D01*
X0150500Y0039303D01*
X0150398Y0038921D01*
X0150200Y0038579D01*
X0149921Y0038300D01*
X0149579Y0038102D01*
X0149197Y0038000D01*
X0137000Y0038000D01*
X0137000Y0046500D01*
X0137000Y0046482D02*
X0136000Y0046482D01*
X0136000Y0045484D02*
X0137000Y0045484D01*
X0137000Y0044485D02*
X0136000Y0044485D01*
X0136000Y0043487D02*
X0137000Y0043487D01*
X0137000Y0042488D02*
X0136000Y0042488D01*
X0136000Y0041490D02*
X0137000Y0041490D01*
X0137000Y0040491D02*
X0136000Y0040491D01*
X0136000Y0039493D02*
X0137000Y0039493D01*
X0137000Y0038494D02*
X0136000Y0038494D01*
X0150115Y0038494D02*
X0152700Y0038494D01*
X0152150Y0039493D02*
X0150500Y0039493D01*
X0150500Y0040491D02*
X0152150Y0040491D01*
X0152150Y0041490D02*
X0150500Y0041490D01*
X0150500Y0042488D02*
X0152150Y0042488D01*
X0152150Y0043487D02*
X0150500Y0043487D01*
X0150500Y0044485D02*
X0152150Y0044485D01*
X0152150Y0045484D02*
X0150500Y0045484D01*
X0150500Y0046482D02*
X0152150Y0046482D01*
X0156238Y0059360D02*
X0155875Y0062625D01*
X0143327Y0070446D02*
X0143150Y0070446D01*
X0151500Y0102000D02*
X0153375Y0103875D01*
X0153375Y0107000D01*
X0179000Y0132625D01*
X0179000Y0123250D02*
X0179000Y0091375D01*
X0181144Y0089418D02*
X0181150Y0089418D01*
X0181150Y0088420D02*
X0176850Y0088420D01*
X0176850Y0089418D02*
X0176856Y0089418D01*
X0176850Y0087421D02*
X0181150Y0087421D01*
X0181150Y0086423D02*
X0176850Y0086423D01*
X0176850Y0085424D02*
X0181150Y0085424D01*
X0181150Y0084426D02*
X0176850Y0084426D01*
X0176850Y0083427D02*
X0181150Y0083427D01*
X0181150Y0082429D02*
X0176850Y0082429D01*
X0176850Y0081430D02*
X0181150Y0081430D01*
X0181150Y0080432D02*
X0176850Y0080432D01*
X0176850Y0079433D02*
X0181150Y0079433D01*
X0181150Y0078434D02*
X0176850Y0078434D01*
X0176850Y0077436D02*
X0181150Y0077436D01*
X0181150Y0076437D02*
X0176850Y0076437D01*
X0176850Y0075439D02*
X0181150Y0075439D01*
X0181150Y0074440D02*
X0176850Y0074440D01*
X0176850Y0073442D02*
X0181150Y0073442D01*
X0181150Y0072443D02*
X0176850Y0072443D01*
X0176850Y0071445D02*
X0181150Y0071445D01*
X0181150Y0070446D02*
X0176850Y0070446D01*
X0176850Y0069448D02*
X0180472Y0069448D01*
X0179953Y0068449D02*
X0176850Y0068449D01*
X0176850Y0067451D02*
X0179850Y0067451D01*
X0180097Y0066452D02*
X0176850Y0066452D01*
X0176850Y0065454D02*
X0180820Y0065454D01*
X0182750Y0067625D02*
X0182750Y0164500D01*
X0183375Y0165125D01*
X0192750Y0158250D02*
X0194625Y0160125D01*
X0194625Y0166375D01*
X0196500Y0169500D02*
X0196500Y0145125D01*
X0192125Y0140750D01*
X0192125Y0078250D01*
X0188375Y0072000D02*
X0191500Y0068875D01*
X0191500Y0059500D01*
X0186500Y0047000D01*
X0196500Y0047000D02*
X0196500Y0066375D01*
X0195250Y0067625D01*
X0198100Y0065454D02*
X0198320Y0065454D01*
X0200250Y0067625D02*
X0199625Y0068250D01*
X0199625Y0088875D01*
X0200250Y0089500D01*
X0204000Y0078875D02*
X0203375Y0078250D01*
X0204000Y0078875D02*
X0204000Y0205125D01*
X0202125Y0207000D01*
X0195000Y0199500D02*
X0195000Y0183250D01*
X0194625Y0171375D02*
X0196500Y0169500D01*
X0188375Y0139500D02*
X0188375Y0072000D01*
X0185820Y0065454D02*
X0184680Y0065454D01*
X0201225Y0070446D02*
X0205525Y0070446D01*
X0205525Y0071445D02*
X0201225Y0071445D01*
X0201225Y0072443D02*
X0205525Y0072443D01*
X0205525Y0073442D02*
X0201225Y0073442D01*
X0201225Y0074440D02*
X0205525Y0074440D01*
X0205525Y0075439D02*
X0204167Y0075439D01*
X0202583Y0075439D02*
X0201225Y0075439D01*
X0202528Y0069448D02*
X0204847Y0069448D01*
X0204328Y0068449D02*
X0203047Y0068449D01*
X0203150Y0067451D02*
X0204225Y0067451D01*
X0204472Y0066452D02*
X0202903Y0066452D01*
X0202180Y0065454D02*
X0205195Y0065454D01*
X0202663Y0055469D02*
X0200337Y0055469D01*
X0200850Y0054470D02*
X0202150Y0054470D01*
X0202150Y0053472D02*
X0200850Y0053472D01*
X0200850Y0052473D02*
X0202150Y0052473D01*
X0202150Y0051475D02*
X0200850Y0051475D01*
X0200850Y0050476D02*
X0202150Y0050476D01*
X0202150Y0049478D02*
X0200850Y0049478D01*
X0200850Y0048479D02*
X0202150Y0048479D01*
X0202150Y0047481D02*
X0200850Y0047481D01*
X0200850Y0046482D02*
X0202150Y0046482D01*
X0202150Y0045484D02*
X0200850Y0045484D01*
X0200850Y0044485D02*
X0202150Y0044485D01*
X0202150Y0043487D02*
X0200850Y0043487D01*
X0200850Y0042488D02*
X0202150Y0042488D01*
X0202150Y0041490D02*
X0200850Y0041490D01*
X0200850Y0040491D02*
X0202150Y0040491D01*
X0202150Y0039493D02*
X0200850Y0039493D01*
X0200300Y0038494D02*
X0202700Y0038494D01*
X0230300Y0038494D02*
X0232700Y0038494D01*
X0232150Y0039493D02*
X0230850Y0039493D01*
X0230850Y0040491D02*
X0232150Y0040491D01*
X0232150Y0041490D02*
X0230850Y0041490D01*
X0230850Y0042488D02*
X0232150Y0042488D01*
X0232150Y0043487D02*
X0230850Y0043487D01*
X0230850Y0044485D02*
X0232150Y0044485D01*
X0232150Y0045484D02*
X0230850Y0045484D01*
X0230850Y0046482D02*
X0232150Y0046482D01*
X0236500Y0047000D02*
X0236500Y0135125D01*
X0242125Y0138250D02*
X0242125Y0210125D01*
X0253100Y0211237D02*
X0253753Y0211237D01*
X0253217Y0217228D02*
X0253100Y0217228D01*
X0253100Y0218226D02*
X0254216Y0218226D01*
X0260750Y0203248D02*
X0265000Y0203248D01*
X0265000Y0202250D02*
X0260260Y0202250D01*
X0259262Y0201251D02*
X0265000Y0201251D01*
X0265000Y0200253D02*
X0258263Y0200253D01*
X0253375Y0138875D02*
X0253375Y0090125D01*
X0249000Y0085750D01*
X0251590Y0084426D02*
X0259650Y0084426D01*
X0259650Y0085424D02*
X0251900Y0085424D01*
X0251935Y0086423D02*
X0259650Y0086423D01*
X0259650Y0087421D02*
X0252934Y0087421D01*
X0253932Y0088420D02*
X0259650Y0088420D01*
X0259650Y0089418D02*
X0254931Y0089418D01*
X0254975Y0090417D02*
X0259650Y0090417D01*
X0259650Y0091415D02*
X0254975Y0091415D01*
X0254975Y0092414D02*
X0259650Y0092414D01*
X0259650Y0093412D02*
X0254975Y0093412D01*
X0254975Y0094411D02*
X0259650Y0094411D01*
X0259650Y0095409D02*
X0254975Y0095409D01*
X0254975Y0096408D02*
X0259650Y0096408D01*
X0259650Y0097406D02*
X0258139Y0097406D01*
X0259506Y0098405D02*
X0259650Y0098405D01*
X0256111Y0097406D02*
X0254975Y0097406D01*
X0250778Y0083427D02*
X0259650Y0083427D01*
X0259650Y0082429D02*
X0246850Y0082429D01*
X0246850Y0083427D02*
X0247222Y0083427D01*
X0246850Y0081430D02*
X0259650Y0081430D01*
X0259650Y0080432D02*
X0246850Y0080432D01*
X0246850Y0079433D02*
X0259650Y0079433D01*
X0259650Y0078434D02*
X0246850Y0078434D01*
X0246850Y0077436D02*
X0259650Y0077436D01*
X0259650Y0076437D02*
X0246850Y0076437D01*
X0246850Y0075439D02*
X0259650Y0075439D01*
X0259650Y0074440D02*
X0246850Y0074440D01*
X0246850Y0073442D02*
X0259650Y0073442D01*
X0259650Y0072443D02*
X0246850Y0072443D01*
X0246850Y0071445D02*
X0259650Y0071445D01*
X0259650Y0070446D02*
X0246850Y0070446D01*
X0247528Y0069448D02*
X0259650Y0069448D01*
X0259650Y0068449D02*
X0248047Y0068449D01*
X0248150Y0067451D02*
X0259650Y0067451D01*
X0246500Y0061375D02*
X0246500Y0047000D01*
X0242150Y0047481D02*
X0240850Y0047481D01*
X0240850Y0048479D02*
X0242150Y0048479D01*
X0242150Y0049478D02*
X0240850Y0049478D01*
X0240850Y0050476D02*
X0242150Y0050476D01*
X0242150Y0051475D02*
X0240850Y0051475D01*
X0240850Y0052473D02*
X0242150Y0052473D01*
X0242150Y0053472D02*
X0240850Y0053472D01*
X0240850Y0054470D02*
X0242150Y0054470D01*
X0242663Y0055469D02*
X0240337Y0055469D01*
X0238100Y0056467D02*
X0244900Y0056467D01*
X0244900Y0057466D02*
X0238100Y0057466D01*
X0238100Y0058464D02*
X0244900Y0058464D01*
X0244900Y0059463D02*
X0238100Y0059463D01*
X0238100Y0060461D02*
X0244900Y0060461D01*
X0244152Y0061460D02*
X0238100Y0061460D01*
X0238100Y0062458D02*
X0243154Y0062458D01*
X0242155Y0063457D02*
X0238100Y0063457D01*
X0238100Y0064455D02*
X0241157Y0064455D01*
X0238320Y0065454D02*
X0238100Y0065454D01*
X0240250Y0067625D02*
X0246500Y0061375D01*
X0242150Y0046482D02*
X0240850Y0046482D01*
X0240850Y0045484D02*
X0242150Y0045484D01*
X0242150Y0044485D02*
X0240850Y0044485D01*
X0240850Y0043487D02*
X0242150Y0043487D01*
X0242150Y0042488D02*
X0240850Y0042488D01*
X0240850Y0041490D02*
X0242150Y0041490D01*
X0242150Y0040491D02*
X0240850Y0040491D01*
X0240850Y0039493D02*
X0242150Y0039493D01*
X0242700Y0038494D02*
X0240300Y0038494D01*
X0260850Y0039493D02*
X0265000Y0039493D01*
X0265000Y0040491D02*
X0260850Y0040491D01*
X0260850Y0041490D02*
X0265000Y0041490D01*
X0265000Y0042488D02*
X0260850Y0042488D01*
X0260850Y0043487D02*
X0265000Y0043487D01*
X0265000Y0044485D02*
X0260850Y0044485D01*
X0260850Y0045484D02*
X0265000Y0045484D01*
X0265000Y0046482D02*
X0260850Y0046482D01*
X0264022Y0036497D02*
X0029978Y0036497D01*
X0066083Y0104396D02*
X0069417Y0104396D01*
X0108955Y0108390D02*
X0109900Y0108390D01*
X0164000Y0104500D02*
X0170250Y0104500D01*
X0218100Y0066452D02*
X0218222Y0066452D01*
X0218100Y0065454D02*
X0218945Y0065454D01*
X0105022Y0197257D02*
X0103359Y0197257D01*
X0104124Y0198256D02*
X0104850Y0198256D01*
X0104483Y0199254D02*
X0104400Y0199254D01*
X0102125Y0200125D02*
X0102125Y0277625D01*
X0129625Y0303125D01*
X0127495Y0305097D02*
X0090395Y0305097D01*
X0090600Y0306095D02*
X0127310Y0306095D01*
X0126889Y0304098D02*
X0089396Y0304098D01*
X0086200Y0307094D02*
X0080200Y0307094D01*
X0080200Y0308092D02*
X0082400Y0308092D01*
X0082792Y0309091D02*
X0079642Y0309091D01*
X0080200Y0308533D02*
X0078033Y0310700D01*
X0074967Y0310700D01*
X0072800Y0308533D01*
X0072800Y0305467D01*
X0074967Y0303300D01*
X0078033Y0303300D01*
X0080200Y0305467D01*
X0080200Y0308533D01*
X0078643Y0310089D02*
X0083791Y0310089D01*
X0084789Y0311088D02*
X0053211Y0311088D01*
X0054209Y0310089D02*
X0074357Y0310089D01*
X0073358Y0309091D02*
X0055208Y0309091D01*
X0055600Y0308092D02*
X0072800Y0308092D01*
X0072800Y0307094D02*
X0051800Y0307094D01*
X0051800Y0306095D02*
X0051200Y0306095D01*
X0051200Y0305097D02*
X0051800Y0305097D01*
X0051800Y0304098D02*
X0051200Y0304098D01*
X0051200Y0303100D02*
X0051800Y0303100D01*
X0053398Y0303100D02*
X0084602Y0303100D01*
X0083604Y0304098D02*
X0078831Y0304098D01*
X0079829Y0305097D02*
X0082605Y0305097D01*
X0082400Y0306095D02*
X0080200Y0306095D01*
X0086200Y0308092D02*
X0086800Y0308092D01*
X0086800Y0309091D02*
X0086200Y0309091D01*
X0086200Y0310089D02*
X0086800Y0310089D01*
X0086800Y0311088D02*
X0086200Y0311088D01*
X0074169Y0304098D02*
X0054396Y0304098D01*
X0055395Y0305097D02*
X0073171Y0305097D01*
X0072800Y0306095D02*
X0055600Y0306095D01*
X0049602Y0303100D02*
X0029000Y0303100D01*
X0029000Y0304098D02*
X0039169Y0304098D01*
X0038171Y0305097D02*
X0029000Y0305097D01*
X0029000Y0306095D02*
X0037800Y0306095D01*
X0037800Y0307094D02*
X0029000Y0307094D01*
X0029000Y0308092D02*
X0037800Y0308092D01*
X0038358Y0309091D02*
X0029000Y0309091D01*
X0029000Y0310089D02*
X0039357Y0310089D01*
X0045200Y0306095D02*
X0047400Y0306095D01*
X0047605Y0305097D02*
X0044829Y0305097D01*
X0043831Y0304098D02*
X0048604Y0304098D01*
X0029000Y0313085D02*
X0125300Y0313085D01*
X0125300Y0314083D02*
X0029000Y0314083D01*
X0029000Y0315082D02*
X0125300Y0315082D01*
X0125608Y0316080D02*
X0029000Y0316080D01*
X0029000Y0317079D02*
X0126246Y0317079D01*
X0127726Y0318077D02*
X0029000Y0318077D01*
X0029000Y0319076D02*
X0131775Y0319076D01*
X0131775Y0318077D02*
X0130274Y0318077D01*
X0131754Y0317079D02*
X0131775Y0317079D01*
X0132312Y0320074D02*
X0029000Y0320074D01*
X0105600Y0246184D02*
X0120958Y0246184D01*
X0120520Y0245186D02*
X0105600Y0245186D01*
X0105600Y0244187D02*
X0120475Y0244187D01*
X0120779Y0243189D02*
X0105600Y0243189D01*
X0105600Y0242190D02*
X0121583Y0242190D01*
X0121775Y0241192D02*
X0105600Y0241192D01*
X0105600Y0240193D02*
X0121775Y0240193D01*
X0121775Y0239195D02*
X0105600Y0239195D01*
X0105600Y0238196D02*
X0121775Y0238196D01*
X0121775Y0237198D02*
X0105600Y0237198D01*
X0105600Y0236199D02*
X0121775Y0236199D01*
X0121775Y0235201D02*
X0105600Y0235201D01*
X0105600Y0234202D02*
X0121775Y0234202D01*
X0121775Y0233204D02*
X0105600Y0233204D01*
X0105600Y0232205D02*
X0121775Y0232205D01*
X0121775Y0231207D02*
X0105600Y0231207D01*
X0105600Y0230208D02*
X0121775Y0230208D01*
X0121775Y0229210D02*
X0105600Y0229210D01*
X0105600Y0228211D02*
X0121775Y0228211D01*
X0121775Y0227213D02*
X0105600Y0227213D01*
X0105600Y0226214D02*
X0121775Y0226214D01*
X0121775Y0225216D02*
X0105600Y0225216D01*
X0105600Y0224217D02*
X0121775Y0224217D01*
X0121775Y0223219D02*
X0105600Y0223219D01*
X0105600Y0222220D02*
X0121775Y0222220D01*
X0121775Y0221222D02*
X0105600Y0221222D01*
X0105600Y0220223D02*
X0121775Y0220223D01*
X0121462Y0219225D02*
X0105600Y0219225D01*
X0105600Y0218226D02*
X0120463Y0218226D01*
X0119465Y0217228D02*
X0105600Y0217228D01*
X0105600Y0216229D02*
X0118466Y0216229D01*
X0117468Y0215231D02*
X0105600Y0215231D01*
X0105600Y0214232D02*
X0116469Y0214232D01*
X0115471Y0213234D02*
X0105600Y0213234D01*
X0105600Y0212235D02*
X0114472Y0212235D01*
X0113474Y0211237D02*
X0105600Y0211237D01*
X0105600Y0210238D02*
X0112475Y0210238D01*
X0111477Y0209239D02*
X0105600Y0209239D01*
X0105600Y0208241D02*
X0110478Y0208241D01*
X0109480Y0207242D02*
X0105600Y0207242D01*
X0105600Y0206244D02*
X0108481Y0206244D01*
X0105644Y0205245D02*
X0105600Y0205245D01*
X0107750Y0203250D02*
X0123375Y0218875D01*
X0123375Y0244500D01*
X0100525Y0230208D02*
X0064443Y0230208D01*
X0065760Y0229210D02*
X0100525Y0229210D01*
X0100525Y0228211D02*
X0066729Y0228211D01*
X0067142Y0227213D02*
X0100525Y0227213D01*
X0100525Y0226214D02*
X0067556Y0226214D01*
X0067639Y0225216D02*
X0100525Y0225216D01*
X0100525Y0224217D02*
X0067639Y0224217D01*
X0067491Y0223219D02*
X0100525Y0223219D01*
X0100525Y0222220D02*
X0067077Y0222220D01*
X0066601Y0221222D02*
X0100525Y0221222D01*
X0100525Y0220223D02*
X0065602Y0220223D01*
X0064062Y0219225D02*
X0100525Y0219225D01*
X0102125Y0200125D02*
X0101500Y0199500D01*
X0153375Y0240125D02*
X0153375Y0268250D01*
X0209625Y0268250D01*
X0157125Y0236375D02*
X0153375Y0240125D01*
X0151775Y0267153D02*
X0150798Y0267153D01*
X0151775Y0268152D02*
X0147799Y0268152D01*
X0146625Y0269150D02*
X0151775Y0269150D01*
X0151775Y0270149D02*
X0145450Y0270149D01*
X0144275Y0271147D02*
X0151775Y0271147D01*
X0151775Y0272146D02*
X0143101Y0272146D01*
X0141926Y0273144D02*
X0151775Y0273144D01*
X0151775Y0274143D02*
X0140751Y0274143D01*
X0139576Y0275141D02*
X0151775Y0275141D01*
X0151775Y0276140D02*
X0140798Y0276140D01*
X0141971Y0277138D02*
X0151775Y0277138D01*
X0151775Y0278137D02*
X0142482Y0278137D01*
X0142700Y0279135D02*
X0151775Y0279135D01*
X0151775Y0280134D02*
X0142700Y0280134D01*
X0142700Y0281132D02*
X0151775Y0281132D01*
X0151775Y0282131D02*
X0142700Y0282131D01*
X0142700Y0283129D02*
X0151775Y0283129D01*
X0151775Y0284128D02*
X0142700Y0284128D01*
X0142700Y0285126D02*
X0151775Y0285126D01*
X0151775Y0286125D02*
X0142373Y0286125D01*
X0141709Y0287123D02*
X0151775Y0287123D01*
X0151775Y0288122D02*
X0140166Y0288122D01*
X0133749Y0295111D02*
X0151775Y0295111D01*
X0151775Y0294113D02*
X0132751Y0294113D01*
X0131752Y0293114D02*
X0151775Y0293114D01*
X0151775Y0292116D02*
X0130754Y0292116D01*
X0129755Y0291117D02*
X0151775Y0291117D01*
X0151775Y0290119D02*
X0128757Y0290119D01*
X0127758Y0289120D02*
X0151775Y0289120D01*
X0151775Y0296110D02*
X0134748Y0296110D01*
X0134975Y0297108D02*
X0151775Y0297108D01*
X0151775Y0298107D02*
X0134975Y0298107D01*
X0134975Y0299105D02*
X0151775Y0299105D01*
X0150888Y0300104D02*
X0134975Y0300104D01*
X0134975Y0301103D02*
X0149679Y0301103D01*
X0148471Y0302101D02*
X0134975Y0302101D01*
X0134975Y0303100D02*
X0147262Y0303100D01*
X0146053Y0304098D02*
X0134975Y0304098D01*
X0134975Y0305097D02*
X0144845Y0305097D01*
X0143636Y0306095D02*
X0140690Y0306095D01*
X0141926Y0307094D02*
X0142427Y0307094D01*
X0137310Y0306095D02*
X0134975Y0306095D01*
X0134975Y0307094D02*
X0136074Y0307094D01*
X0135537Y0308092D02*
X0134975Y0308092D01*
X0134975Y0309091D02*
X0135300Y0309091D01*
X0135300Y0310089D02*
X0134975Y0310089D01*
X0134975Y0311088D02*
X0135300Y0311088D01*
X0135300Y0312086D02*
X0134975Y0312086D01*
X0134975Y0313085D02*
X0135300Y0313085D01*
X0135300Y0314083D02*
X0134975Y0314083D01*
X0134975Y0315082D02*
X0135300Y0315082D01*
X0135608Y0316080D02*
X0134975Y0316080D01*
X0134975Y0317079D02*
X0136246Y0317079D01*
X0139000Y0312000D02*
X0153375Y0300125D01*
X0153375Y0268250D01*
X0049000Y0175750D02*
X0049000Y0158875D01*
X0042125Y0152000D01*
X0041500Y0152000D01*
D23*
X0049000Y0175750D03*
X0053375Y0198250D03*
X0100875Y0187000D03*
X0104625Y0177000D03*
X0107750Y0198250D03*
X0107750Y0203250D03*
X0101500Y0199500D03*
X0123375Y0244500D03*
X0149625Y0264500D03*
X0157125Y0252625D03*
X0157125Y0247625D03*
X0157125Y0236375D03*
X0157125Y0231375D03*
X0167750Y0220750D03*
X0175250Y0218250D03*
X0171500Y0212000D03*
X0173375Y0203250D03*
X0182750Y0210750D03*
X0192750Y0210750D03*
X0194625Y0215750D03*
X0190875Y0218875D03*
X0197125Y0226375D03*
X0195875Y0235125D03*
X0198375Y0242000D03*
X0204000Y0249500D03*
X0215875Y0253250D03*
X0218375Y0245750D03*
X0220250Y0238875D03*
X0216500Y0235750D03*
X0226500Y0225125D03*
X0224000Y0217625D03*
X0216500Y0221375D03*
X0216500Y0213875D03*
X0218500Y0208000D03*
X0218375Y0198250D03*
X0216500Y0190125D03*
X0202125Y0207000D03*
X0202125Y0215125D03*
X0177750Y0242625D03*
X0181500Y0248875D03*
X0171500Y0237625D03*
X0172125Y0264500D03*
X0190250Y0298875D03*
X0204625Y0307625D03*
X0223375Y0297625D03*
X0232750Y0279500D03*
X0241500Y0236375D03*
X0242125Y0210125D03*
X0257500Y0190750D03*
X0249625Y0177625D03*
X0245875Y0181375D03*
X0257125Y0168250D03*
X0253375Y0165125D03*
X0250250Y0161375D03*
X0234000Y0152625D03*
X0233375Y0147000D03*
X0226500Y0150750D03*
X0226500Y0158250D03*
X0226500Y0163250D03*
X0220250Y0142625D03*
X0217125Y0137625D03*
X0200250Y0135375D03*
X0188375Y0139500D03*
X0179000Y0132625D03*
X0179000Y0123250D03*
X0170250Y0104500D03*
X0175250Y0100750D03*
X0170250Y0097000D03*
X0171500Y0091375D03*
X0179000Y0091375D03*
X0192125Y0078250D03*
X0195250Y0067625D03*
X0200250Y0067625D03*
X0207125Y0067625D03*
X0212750Y0072625D03*
X0216500Y0076375D03*
X0220875Y0067625D03*
X0229625Y0078250D03*
X0224625Y0091375D03*
X0217125Y0093250D03*
X0203375Y0078250D03*
X0200250Y0089500D03*
X0187750Y0067625D03*
X0182750Y0067625D03*
X0171500Y0067000D03*
X0171500Y0075125D03*
X0162750Y0082000D03*
X0159625Y0078250D03*
X0148375Y0087625D03*
X0145250Y0072625D03*
X0140250Y0070125D03*
X0130250Y0087000D03*
X0122750Y0104500D03*
X0107750Y0105750D03*
X0132750Y0118250D03*
X0107750Y0153250D03*
X0042125Y0104500D03*
X0042125Y0098875D03*
X0183375Y0165125D03*
X0190875Y0165125D03*
X0192750Y0158250D03*
X0194625Y0171375D03*
X0240250Y0132000D03*
X0253375Y0138875D03*
X0249000Y0110125D03*
X0257125Y0100125D03*
X0249000Y0085750D03*
X0245250Y0067625D03*
X0240250Y0067625D03*
X0217125Y0109500D03*
X0200250Y0119500D03*
X0129625Y0303125D03*
M02*
