G75*
%MOIN*%
%OFA0B0*%
%FSLAX25Y25*%
%IPPOS*%
%LPD*%
%AMOC8*
5,1,8,0,0,1.08239X$1,22.5*
%
%ADD10C,0.00000*%
%ADD11C,0.03150*%
%ADD12R,0.08274X0.02400*%
%ADD13R,0.08661X0.02756*%
%ADD14R,0.08400X0.03000*%
%ADD15R,0.12211X0.03550*%
%ADD16R,0.35833X0.39770*%
%ADD17C,0.07800*%
%ADD18R,0.07800X0.07800*%
D10*
X0001000Y0001800D02*
X0001000Y0169261D01*
X0309701Y0169261D01*
X0309701Y0001800D01*
X0001000Y0001800D01*
D11*
X0076906Y0063178D03*
X0084780Y0063178D03*
X0092654Y0063178D03*
X0092654Y0071052D03*
X0084780Y0071052D03*
X0076906Y0071052D03*
X0065094Y0071052D03*
X0057220Y0071052D03*
X0049346Y0071052D03*
X0049346Y0078926D03*
X0057220Y0078926D03*
X0065094Y0078926D03*
X0065094Y0086800D03*
X0057220Y0086800D03*
X0049346Y0086800D03*
X0049346Y0094674D03*
X0057220Y0094674D03*
X0065094Y0094674D03*
X0065094Y0102548D03*
X0057220Y0102548D03*
X0049346Y0102548D03*
X0076906Y0102548D03*
X0084780Y0102548D03*
X0092654Y0102548D03*
X0092654Y0094674D03*
X0084780Y0094674D03*
X0076906Y0094674D03*
X0076906Y0078926D03*
X0084780Y0078926D03*
X0092654Y0078926D03*
X0092654Y0110422D03*
X0084780Y0110422D03*
X0076906Y0110422D03*
D12*
X0106433Y0110422D03*
X0106433Y0106485D03*
X0106433Y0102548D03*
X0106433Y0098611D03*
X0106433Y0090737D03*
X0106433Y0082863D03*
X0106433Y0074989D03*
X0106433Y0071052D03*
X0106433Y0067115D03*
X0106433Y0063178D03*
X0035567Y0063178D03*
X0035567Y0071052D03*
X0035567Y0074989D03*
X0035567Y0078926D03*
X0035567Y0082863D03*
X0035567Y0086800D03*
X0035567Y0090737D03*
X0035567Y0094674D03*
X0035567Y0098611D03*
X0035567Y0102548D03*
X0035567Y0110422D03*
D13*
X0035587Y0106485D03*
X0035587Y0114359D03*
X0106413Y0114359D03*
X0106413Y0094674D03*
X0106413Y0086800D03*
X0106413Y0078926D03*
X0106413Y0059241D03*
X0035587Y0059241D03*
X0035587Y0067115D03*
D14*
X0176400Y0056800D03*
X0176400Y0051800D03*
X0176400Y0046800D03*
X0176400Y0041800D03*
X0176400Y0036800D03*
X0176400Y0031800D03*
X0176400Y0026800D03*
X0200600Y0026800D03*
X0200600Y0031800D03*
X0200600Y0036800D03*
X0200600Y0041800D03*
X0200600Y0046800D03*
X0200600Y0051800D03*
X0200600Y0056800D03*
X0200600Y0109300D03*
X0200600Y0114300D03*
X0200600Y0119300D03*
X0200600Y0124300D03*
X0200600Y0129300D03*
X0200600Y0134300D03*
X0200600Y0139300D03*
X0200600Y0144300D03*
X0176400Y0144300D03*
X0176400Y0139300D03*
X0176400Y0134300D03*
X0176400Y0129300D03*
X0176400Y0124300D03*
X0176400Y0119300D03*
X0176400Y0114300D03*
X0176400Y0109300D03*
D15*
X0297250Y0126800D03*
X0297250Y0131800D03*
X0297250Y0136800D03*
X0297250Y0146800D03*
X0297250Y0151800D03*
X0297250Y0156800D03*
D16*
X0257476Y0141800D03*
D17*
X0223500Y0139300D03*
X0223500Y0129300D03*
X0223500Y0119300D03*
X0223500Y0109300D03*
X0223500Y0099300D03*
X0223500Y0071800D03*
X0223500Y0061800D03*
X0223500Y0051800D03*
X0223500Y0041800D03*
X0223500Y0031800D03*
X0223500Y0021800D03*
X0223500Y0011800D03*
X0153500Y0011800D03*
X0153500Y0021800D03*
X0153500Y0031800D03*
X0153500Y0041800D03*
X0153500Y0051800D03*
X0153500Y0061800D03*
X0153500Y0071800D03*
X0123500Y0066800D03*
X0123500Y0076800D03*
X0123500Y0086800D03*
X0123500Y0096800D03*
X0123500Y0106800D03*
X0123500Y0116800D03*
X0123500Y0126800D03*
X0123500Y0136800D03*
X0123500Y0146800D03*
X0123500Y0156800D03*
X0153500Y0149300D03*
X0153500Y0139300D03*
X0153500Y0129300D03*
X0153500Y0119300D03*
X0153500Y0109300D03*
X0153500Y0099300D03*
X0153500Y0089300D03*
X0123500Y0056800D03*
X0123500Y0046800D03*
X0123500Y0036800D03*
X0123500Y0026800D03*
X0123500Y0016800D03*
X0013500Y0016800D03*
X0013500Y0026800D03*
X0013500Y0036800D03*
X0013500Y0046800D03*
X0013500Y0056800D03*
X0013500Y0066800D03*
X0013500Y0076800D03*
X0013500Y0086800D03*
X0013500Y0096800D03*
X0013500Y0106800D03*
X0013500Y0116800D03*
X0013500Y0126800D03*
X0013500Y0136800D03*
X0013500Y0146800D03*
X0013500Y0156800D03*
X0223500Y0159300D03*
X0223500Y0149300D03*
X0276000Y0111800D03*
X0286000Y0111800D03*
X0296000Y0111800D03*
D18*
X0223500Y0089300D03*
X0153500Y0159300D03*
M02*
