G75*
%MOIN*%
%OFA0B0*%
%FSLAX25Y25*%
%IPPOS*%
%LPD*%
%AMOC8*
5,1,8,0,0,1.08239X$1,22.5*
%
%ADD10C,0.00000*%
%ADD11C,0.07800*%
%ADD12R,0.07800X0.07800*%
D10*
X0001000Y0001800D02*
X0001000Y0169261D01*
X0309701Y0169261D01*
X0309701Y0001800D01*
X0001000Y0001800D01*
D11*
X0013500Y0016800D03*
X0013500Y0026800D03*
X0013500Y0036800D03*
X0013500Y0046800D03*
X0013500Y0056800D03*
X0013500Y0066800D03*
X0013500Y0076800D03*
X0013500Y0086800D03*
X0013500Y0096800D03*
X0013500Y0106800D03*
X0013500Y0116800D03*
X0013500Y0126800D03*
X0013500Y0136800D03*
X0013500Y0146800D03*
X0013500Y0156800D03*
X0123500Y0156800D03*
X0123500Y0146800D03*
X0123500Y0136800D03*
X0123500Y0126800D03*
X0123500Y0116800D03*
X0123500Y0106800D03*
X0123500Y0096800D03*
X0123500Y0086800D03*
X0123500Y0076800D03*
X0123500Y0066800D03*
X0123500Y0056800D03*
X0123500Y0046800D03*
X0123500Y0036800D03*
X0123500Y0026800D03*
X0123500Y0016800D03*
X0153500Y0011800D03*
X0153500Y0021800D03*
X0153500Y0031800D03*
X0153500Y0041800D03*
X0153500Y0051800D03*
X0153500Y0061800D03*
X0153500Y0071800D03*
X0153500Y0089300D03*
X0153500Y0099300D03*
X0153500Y0109300D03*
X0153500Y0119300D03*
X0153500Y0129300D03*
X0153500Y0139300D03*
X0153500Y0149300D03*
X0223500Y0149300D03*
X0223500Y0139300D03*
X0223500Y0129300D03*
X0223500Y0119300D03*
X0223500Y0109300D03*
X0223500Y0099300D03*
X0223500Y0071800D03*
X0223500Y0061800D03*
X0223500Y0051800D03*
X0223500Y0041800D03*
X0223500Y0031800D03*
X0223500Y0021800D03*
X0223500Y0011800D03*
X0276000Y0111800D03*
X0286000Y0111800D03*
X0296000Y0111800D03*
X0223500Y0159300D03*
D12*
X0153500Y0159300D03*
X0223500Y0089300D03*
M02*
