%
M48
M72
T01C0.04000
%
T01
X12500Y155000
X12500Y145000
X12500Y135000
X12500Y125000
X12500Y115000
X12500Y105000
X12500Y95000
X12500Y85000
X12500Y75000
X12500Y65000
X12500Y55000
X12500Y45000
X12500Y35000
X12500Y25000
X12500Y15000
X122500Y155000
X122500Y145000
X122500Y135000
X122500Y125000
X122500Y115000
X122500Y105000
X122500Y95000
X122500Y85000
X122500Y75000
X122500Y65000
X122500Y55000
X122500Y45000
X122500Y35000
X122500Y25000
X122500Y15000
X152500Y157500
X152500Y147500
X152500Y137500
X152500Y127500
X152500Y117500
X152500Y107500
X152500Y97500
X152500Y87500
X222500Y87500
X222500Y97500
X222500Y107500
X222500Y117500
X222500Y127500
X222500Y137500
X222500Y147500
X222500Y157500
X152500Y70000
X152500Y60000
X152500Y50000
X152500Y40000
X152500Y30000
X152500Y20000
X152500Y10000
X222500Y10000
X222500Y20000
X222500Y30000
X222500Y40000
X222500Y50000
X222500Y60000
X222500Y70000
X295000Y110000
X285000Y110000
X275000Y110000
M30
