G75*
%MOIN*%
%OFA0B0*%
%FSLAX25Y25*%
%IPPOS*%
%LPD*%
%AMOC8*
5,1,8,0,0,1.08239X$1,22.5*
%
%ADD10C,0.01600*%
%ADD11R,0.05906X0.05118*%
%ADD12R,0.02700X0.12600*%
%ADD13C,0.00600*%
%ADD14C,0.02578*%
%ADD15C,0.02000*%
%ADD16C,0.01000*%
%ADD17C,0.04000*%
D10*
X0046300Y0091300D02*
X0046315Y0092527D01*
X0046360Y0093753D01*
X0046435Y0094978D01*
X0046541Y0096201D01*
X0046676Y0097421D01*
X0046841Y0098637D01*
X0047036Y0099848D01*
X0047261Y0101055D01*
X0047515Y0102255D01*
X0047798Y0103449D01*
X0048111Y0104636D01*
X0048453Y0105814D01*
X0048824Y0106984D01*
X0049223Y0108144D01*
X0049650Y0109295D01*
X0050106Y0110434D01*
X0050590Y0111562D01*
X0051101Y0112678D01*
X0051639Y0113781D01*
X0052204Y0114870D01*
X0052796Y0115945D01*
X0053414Y0117005D01*
X0054057Y0118050D01*
X0054727Y0119079D01*
X0055421Y0120090D01*
X0056140Y0121085D01*
X0056883Y0122062D01*
X0057649Y0123020D01*
X0058440Y0123959D01*
X0059252Y0124878D01*
X0060088Y0125777D01*
X0060945Y0126655D01*
X0061823Y0127512D01*
X0062722Y0128348D01*
X0063641Y0129160D01*
X0064580Y0129951D01*
X0065538Y0130717D01*
X0066515Y0131460D01*
X0067510Y0132179D01*
X0068521Y0132873D01*
X0069550Y0133543D01*
X0070595Y0134186D01*
X0071655Y0134804D01*
X0072730Y0135396D01*
X0073819Y0135961D01*
X0074922Y0136499D01*
X0076038Y0137010D01*
X0077166Y0137494D01*
X0078305Y0137950D01*
X0079456Y0138377D01*
X0080616Y0138776D01*
X0081786Y0139147D01*
X0082964Y0139489D01*
X0084151Y0139802D01*
X0085345Y0140085D01*
X0086545Y0140339D01*
X0087752Y0140564D01*
X0088963Y0140759D01*
X0090179Y0140924D01*
X0091399Y0141059D01*
X0092622Y0141165D01*
X0093847Y0141240D01*
X0095073Y0141285D01*
X0096300Y0141300D01*
X0097527Y0141285D01*
X0098753Y0141240D01*
X0099978Y0141165D01*
X0101201Y0141059D01*
X0102421Y0140924D01*
X0103637Y0140759D01*
X0104848Y0140564D01*
X0106055Y0140339D01*
X0107255Y0140085D01*
X0108449Y0139802D01*
X0109636Y0139489D01*
X0110814Y0139147D01*
X0111984Y0138776D01*
X0113144Y0138377D01*
X0114295Y0137950D01*
X0115434Y0137494D01*
X0116562Y0137010D01*
X0117678Y0136499D01*
X0118781Y0135961D01*
X0119870Y0135396D01*
X0120945Y0134804D01*
X0122005Y0134186D01*
X0123050Y0133543D01*
X0124079Y0132873D01*
X0125090Y0132179D01*
X0126085Y0131460D01*
X0127062Y0130717D01*
X0128020Y0129951D01*
X0128959Y0129160D01*
X0129878Y0128348D01*
X0130777Y0127512D01*
X0131655Y0126655D01*
X0132512Y0125777D01*
X0133348Y0124878D01*
X0134160Y0123959D01*
X0134951Y0123020D01*
X0135717Y0122062D01*
X0136460Y0121085D01*
X0137179Y0120090D01*
X0137873Y0119079D01*
X0138543Y0118050D01*
X0139186Y0117005D01*
X0139804Y0115945D01*
X0140396Y0114870D01*
X0140961Y0113781D01*
X0141499Y0112678D01*
X0142010Y0111562D01*
X0142494Y0110434D01*
X0142950Y0109295D01*
X0143377Y0108144D01*
X0143776Y0106984D01*
X0144147Y0105814D01*
X0144489Y0104636D01*
X0144802Y0103449D01*
X0145085Y0102255D01*
X0145339Y0101055D01*
X0145564Y0099848D01*
X0145759Y0098637D01*
X0145924Y0097421D01*
X0146059Y0096201D01*
X0146165Y0094978D01*
X0146240Y0093753D01*
X0146285Y0092527D01*
X0146300Y0091300D01*
X0146285Y0090073D01*
X0146240Y0088847D01*
X0146165Y0087622D01*
X0146059Y0086399D01*
X0145924Y0085179D01*
X0145759Y0083963D01*
X0145564Y0082752D01*
X0145339Y0081545D01*
X0145085Y0080345D01*
X0144802Y0079151D01*
X0144489Y0077964D01*
X0144147Y0076786D01*
X0143776Y0075616D01*
X0143377Y0074456D01*
X0142950Y0073305D01*
X0142494Y0072166D01*
X0142010Y0071038D01*
X0141499Y0069922D01*
X0140961Y0068819D01*
X0140396Y0067730D01*
X0139804Y0066655D01*
X0139186Y0065595D01*
X0138543Y0064550D01*
X0137873Y0063521D01*
X0137179Y0062510D01*
X0136460Y0061515D01*
X0135717Y0060538D01*
X0134951Y0059580D01*
X0134160Y0058641D01*
X0133348Y0057722D01*
X0132512Y0056823D01*
X0131655Y0055945D01*
X0130777Y0055088D01*
X0129878Y0054252D01*
X0128959Y0053440D01*
X0128020Y0052649D01*
X0127062Y0051883D01*
X0126085Y0051140D01*
X0125090Y0050421D01*
X0124079Y0049727D01*
X0123050Y0049057D01*
X0122005Y0048414D01*
X0120945Y0047796D01*
X0119870Y0047204D01*
X0118781Y0046639D01*
X0117678Y0046101D01*
X0116562Y0045590D01*
X0115434Y0045106D01*
X0114295Y0044650D01*
X0113144Y0044223D01*
X0111984Y0043824D01*
X0110814Y0043453D01*
X0109636Y0043111D01*
X0108449Y0042798D01*
X0107255Y0042515D01*
X0106055Y0042261D01*
X0104848Y0042036D01*
X0103637Y0041841D01*
X0102421Y0041676D01*
X0101201Y0041541D01*
X0099978Y0041435D01*
X0098753Y0041360D01*
X0097527Y0041315D01*
X0096300Y0041300D01*
X0095073Y0041315D01*
X0093847Y0041360D01*
X0092622Y0041435D01*
X0091399Y0041541D01*
X0090179Y0041676D01*
X0088963Y0041841D01*
X0087752Y0042036D01*
X0086545Y0042261D01*
X0085345Y0042515D01*
X0084151Y0042798D01*
X0082964Y0043111D01*
X0081786Y0043453D01*
X0080616Y0043824D01*
X0079456Y0044223D01*
X0078305Y0044650D01*
X0077166Y0045106D01*
X0076038Y0045590D01*
X0074922Y0046101D01*
X0073819Y0046639D01*
X0072730Y0047204D01*
X0071655Y0047796D01*
X0070595Y0048414D01*
X0069550Y0049057D01*
X0068521Y0049727D01*
X0067510Y0050421D01*
X0066515Y0051140D01*
X0065538Y0051883D01*
X0064580Y0052649D01*
X0063641Y0053440D01*
X0062722Y0054252D01*
X0061823Y0055088D01*
X0060945Y0055945D01*
X0060088Y0056823D01*
X0059252Y0057722D01*
X0058440Y0058641D01*
X0057649Y0059580D01*
X0056883Y0060538D01*
X0056140Y0061515D01*
X0055421Y0062510D01*
X0054727Y0063521D01*
X0054057Y0064550D01*
X0053414Y0065595D01*
X0052796Y0066655D01*
X0052204Y0067730D01*
X0051639Y0068819D01*
X0051101Y0069922D01*
X0050590Y0071038D01*
X0050106Y0072166D01*
X0049650Y0073305D01*
X0049223Y0074456D01*
X0048824Y0075616D01*
X0048453Y0076786D01*
X0048111Y0077964D01*
X0047798Y0079151D01*
X0047515Y0080345D01*
X0047261Y0081545D01*
X0047036Y0082752D01*
X0046841Y0083963D01*
X0046676Y0085179D01*
X0046541Y0086399D01*
X0046435Y0087622D01*
X0046360Y0088847D01*
X0046315Y0090073D01*
X0046300Y0091300D01*
D11*
X0066300Y0102560D03*
X0066300Y0110040D03*
X0124300Y0109040D03*
X0124300Y0101560D03*
D12*
X0096300Y0121200D03*
X0086300Y0131400D03*
X0106300Y0131400D03*
D13*
X0061718Y0058156D02*
X0067817Y0052789D01*
X0074735Y0048529D01*
X0082274Y0045500D01*
X0090216Y0043788D01*
X0098333Y0043443D01*
X0106392Y0044475D01*
X0114160Y0046854D01*
X0121414Y0050512D01*
X0127946Y0055343D01*
X0133568Y0061208D01*
X0138117Y0067939D01*
X0141464Y0075343D01*
X0143511Y0083205D01*
X0143511Y0083205D01*
X0144200Y0091300D01*
X0099200Y0091300D01*
X0099200Y0091899D02*
X0144149Y0091899D01*
X0144098Y0092497D02*
X0099200Y0092497D01*
X0099200Y0093096D02*
X0144047Y0093096D01*
X0143996Y0093694D02*
X0108381Y0093694D01*
X0108087Y0093400D02*
X0109087Y0094400D01*
X0121087Y0094400D01*
X0122200Y0095513D01*
X0124788Y0098101D01*
X0127626Y0098101D01*
X0128153Y0098628D01*
X0128153Y0100466D01*
X0131798Y0104111D01*
X0132207Y0104111D01*
X0133489Y0105393D01*
X0133489Y0107207D01*
X0133200Y0107496D01*
X0133200Y0117087D01*
X0132087Y0118200D01*
X0116987Y0133300D01*
X0108550Y0133300D01*
X0108550Y0137464D01*
X0114160Y0135746D01*
X0121414Y0132088D01*
X0127946Y0127257D01*
X0133568Y0121392D01*
X0138117Y0114661D01*
X0141464Y0107257D01*
X0143511Y0099395D01*
X0144200Y0091300D01*
X0144149Y0090701D02*
X0099200Y0090701D01*
X0099200Y0090103D02*
X0144098Y0090103D01*
X0144047Y0089504D02*
X0099200Y0089504D01*
X0099200Y0088906D02*
X0143996Y0088906D01*
X0143945Y0088307D02*
X0099028Y0088307D01*
X0099200Y0088723D02*
X0099200Y0121777D01*
X0098758Y0122843D01*
X0098550Y0123051D01*
X0098550Y0127873D01*
X0098023Y0128400D01*
X0094577Y0128400D01*
X0094050Y0127873D01*
X0094050Y0123051D01*
X0093841Y0122843D01*
X0093400Y0121777D01*
X0093400Y0088723D01*
X0093841Y0087657D01*
X0094657Y0086841D01*
X0095723Y0086400D01*
X0096877Y0086400D01*
X0097943Y0086841D01*
X0098758Y0087657D01*
X0099200Y0088723D01*
X0098780Y0087709D02*
X0143894Y0087709D01*
X0143843Y0087110D02*
X0098212Y0087110D01*
X0097147Y0086512D02*
X0143792Y0086512D01*
X0143742Y0085913D02*
X0048800Y0085913D01*
X0048902Y0085315D02*
X0072219Y0085315D01*
X0072393Y0085489D02*
X0071111Y0084207D01*
X0071111Y0082393D01*
X0072393Y0081111D01*
X0074207Y0081111D01*
X0074496Y0081400D01*
X0084111Y0081400D01*
X0084111Y0081393D01*
X0085393Y0080111D01*
X0087207Y0080111D01*
X0088489Y0081393D01*
X0088489Y0083207D01*
X0087207Y0084489D01*
X0086798Y0084489D01*
X0086087Y0085200D01*
X0074496Y0085200D01*
X0074207Y0085489D01*
X0072393Y0085489D01*
X0071621Y0084716D02*
X0049005Y0084716D01*
X0049108Y0084118D02*
X0071111Y0084118D01*
X0071111Y0083519D02*
X0049210Y0083519D01*
X0049313Y0082921D02*
X0071111Y0082921D01*
X0071182Y0082322D02*
X0049415Y0082322D01*
X0049518Y0081724D02*
X0071780Y0081724D01*
X0072379Y0081125D02*
X0049621Y0081125D01*
X0049723Y0080527D02*
X0084978Y0080527D01*
X0084379Y0081125D02*
X0074221Y0081125D01*
X0073551Y0079400D02*
X0073200Y0079049D01*
X0073200Y0063551D01*
X0073551Y0063200D01*
X0074049Y0063200D01*
X0089049Y0063200D01*
X0089400Y0063551D01*
X0089400Y0079049D01*
X0089049Y0079400D01*
X0073551Y0079400D01*
X0073481Y0079330D02*
X0049929Y0079330D01*
X0049946Y0079230D02*
X0048573Y0087238D01*
X0048573Y0095362D01*
X0049946Y0103370D01*
X0052652Y0111030D01*
X0056614Y0118123D01*
X0061718Y0124444D01*
X0067817Y0129811D01*
X0074735Y0134071D01*
X0082274Y0137100D01*
X0083650Y0137397D01*
X0083650Y0131700D01*
X0086000Y0131700D01*
X0086000Y0131100D01*
X0083650Y0131100D01*
X0083650Y0124929D01*
X0083739Y0124598D01*
X0083910Y0124302D01*
X0084152Y0124060D01*
X0084448Y0123889D01*
X0084779Y0123800D01*
X0086000Y0123800D01*
X0086000Y0131100D01*
X0086600Y0131100D01*
X0086600Y0131700D01*
X0088950Y0131700D01*
X0088950Y0137871D01*
X0088861Y0138202D01*
X0088698Y0138485D01*
X0090216Y0138812D01*
X0098333Y0139157D01*
X0104362Y0138385D01*
X0104050Y0138073D01*
X0104050Y0133300D01*
X0092613Y0133300D01*
X0090802Y0131489D01*
X0090393Y0131489D01*
X0089111Y0130207D01*
X0089111Y0128393D01*
X0090393Y0127111D01*
X0092207Y0127111D01*
X0093489Y0128393D01*
X0093489Y0128802D01*
X0094187Y0129500D01*
X0104050Y0129500D01*
X0104050Y0124727D01*
X0104577Y0124200D01*
X0108023Y0124200D01*
X0108550Y0124727D01*
X0108550Y0129500D01*
X0115413Y0129500D01*
X0129400Y0115513D01*
X0129400Y0107496D01*
X0129111Y0107207D01*
X0129111Y0106798D01*
X0128527Y0106214D01*
X0128553Y0106310D01*
X0128553Y0108740D01*
X0124600Y0108740D01*
X0124600Y0105181D01*
X0127424Y0105181D01*
X0127520Y0105207D01*
X0127332Y0105019D01*
X0120974Y0105019D01*
X0120447Y0104492D01*
X0120447Y0099134D01*
X0119513Y0098200D01*
X0107513Y0098200D01*
X0106802Y0097489D01*
X0105393Y0097489D01*
X0104111Y0096207D01*
X0104111Y0094393D01*
X0105393Y0093111D01*
X0107207Y0093111D01*
X0107496Y0093400D01*
X0108087Y0093400D01*
X0108980Y0094293D02*
X0143945Y0094293D01*
X0143894Y0094891D02*
X0121578Y0094891D01*
X0122177Y0095490D02*
X0143843Y0095490D01*
X0143792Y0096088D02*
X0122775Y0096088D01*
X0123374Y0096687D02*
X0143742Y0096687D01*
X0143691Y0097285D02*
X0123972Y0097285D01*
X0124571Y0097884D02*
X0143640Y0097884D01*
X0143589Y0098482D02*
X0128007Y0098482D01*
X0128153Y0099081D02*
X0143538Y0099081D01*
X0143437Y0099679D02*
X0128153Y0099679D01*
X0128153Y0100278D02*
X0143281Y0100278D01*
X0143125Y0100876D02*
X0128563Y0100876D01*
X0129162Y0101475D02*
X0142970Y0101475D01*
X0142814Y0102073D02*
X0129760Y0102073D01*
X0130359Y0102672D02*
X0142658Y0102672D01*
X0142502Y0103270D02*
X0130957Y0103270D01*
X0131556Y0103869D02*
X0142346Y0103869D01*
X0142190Y0104467D02*
X0132563Y0104467D01*
X0133161Y0105066D02*
X0142034Y0105066D01*
X0141879Y0105664D02*
X0133489Y0105664D01*
X0133489Y0106263D02*
X0141723Y0106263D01*
X0141567Y0106861D02*
X0133489Y0106861D01*
X0133236Y0107460D02*
X0141372Y0107460D01*
X0141102Y0108058D02*
X0133200Y0108058D01*
X0133200Y0108657D02*
X0140831Y0108657D01*
X0140561Y0109255D02*
X0133200Y0109255D01*
X0133200Y0109854D02*
X0140290Y0109854D01*
X0140020Y0110452D02*
X0133200Y0110452D01*
X0133200Y0111051D02*
X0139749Y0111051D01*
X0139479Y0111649D02*
X0133200Y0111649D01*
X0133200Y0112248D02*
X0139208Y0112248D01*
X0138937Y0112846D02*
X0133200Y0112846D01*
X0133200Y0113445D02*
X0138667Y0113445D01*
X0138396Y0114043D02*
X0133200Y0114043D01*
X0133200Y0114642D02*
X0138126Y0114642D01*
X0137725Y0115240D02*
X0133200Y0115240D01*
X0133200Y0115839D02*
X0137321Y0115839D01*
X0136916Y0116437D02*
X0133200Y0116437D01*
X0133200Y0117036D02*
X0136512Y0117036D01*
X0136107Y0117634D02*
X0132652Y0117634D01*
X0132054Y0118233D02*
X0135703Y0118233D01*
X0135298Y0118832D02*
X0131455Y0118832D01*
X0130857Y0119430D02*
X0134894Y0119430D01*
X0134489Y0120029D02*
X0130258Y0120029D01*
X0129660Y0120627D02*
X0134085Y0120627D01*
X0133680Y0121226D02*
X0129061Y0121226D01*
X0128463Y0121824D02*
X0133154Y0121824D01*
X0132580Y0122423D02*
X0127864Y0122423D01*
X0127266Y0123021D02*
X0132006Y0123021D01*
X0131433Y0123620D02*
X0126667Y0123620D01*
X0126069Y0124218D02*
X0130859Y0124218D01*
X0130285Y0124817D02*
X0125470Y0124817D01*
X0124872Y0125415D02*
X0129712Y0125415D01*
X0129138Y0126014D02*
X0124273Y0126014D01*
X0123675Y0126612D02*
X0128565Y0126612D01*
X0127991Y0127211D02*
X0123076Y0127211D01*
X0122478Y0127809D02*
X0127200Y0127809D01*
X0126391Y0128408D02*
X0121879Y0128408D01*
X0121281Y0129006D02*
X0125581Y0129006D01*
X0124772Y0129605D02*
X0120682Y0129605D01*
X0120084Y0130203D02*
X0123963Y0130203D01*
X0123154Y0130802D02*
X0119485Y0130802D01*
X0118887Y0131400D02*
X0122345Y0131400D01*
X0121535Y0131999D02*
X0118288Y0131999D01*
X0117690Y0132597D02*
X0120405Y0132597D01*
X0119218Y0133196D02*
X0117091Y0133196D01*
X0118031Y0133794D02*
X0108550Y0133794D01*
X0108550Y0134393D02*
X0116843Y0134393D01*
X0115656Y0134991D02*
X0108550Y0134991D01*
X0108550Y0135590D02*
X0114469Y0135590D01*
X0112715Y0136188D02*
X0108550Y0136188D01*
X0108550Y0136787D02*
X0110761Y0136787D01*
X0108806Y0137385D02*
X0108550Y0137385D01*
X0104050Y0137385D02*
X0088950Y0137385D01*
X0088950Y0136787D02*
X0104050Y0136787D01*
X0104050Y0136188D02*
X0088950Y0136188D01*
X0088950Y0135590D02*
X0104050Y0135590D01*
X0104050Y0134991D02*
X0088950Y0134991D01*
X0088950Y0134393D02*
X0104050Y0134393D01*
X0104050Y0133794D02*
X0088950Y0133794D01*
X0088950Y0133196D02*
X0092509Y0133196D01*
X0091910Y0132597D02*
X0088950Y0132597D01*
X0088950Y0131999D02*
X0091312Y0131999D01*
X0090305Y0131400D02*
X0086600Y0131400D01*
X0086600Y0131100D02*
X0088950Y0131100D01*
X0088950Y0124929D01*
X0088861Y0124598D01*
X0088690Y0124302D01*
X0088448Y0124060D01*
X0088152Y0123889D01*
X0087821Y0123800D01*
X0086600Y0123800D01*
X0086600Y0131100D01*
X0086600Y0130802D02*
X0086000Y0130802D01*
X0086000Y0131400D02*
X0070397Y0131400D01*
X0069425Y0130802D02*
X0083650Y0130802D01*
X0083650Y0130203D02*
X0068453Y0130203D01*
X0067582Y0129605D02*
X0083650Y0129605D01*
X0083650Y0129006D02*
X0066902Y0129006D01*
X0066222Y0128408D02*
X0083650Y0128408D01*
X0083650Y0127809D02*
X0065542Y0127809D01*
X0064862Y0127211D02*
X0083650Y0127211D01*
X0083650Y0126612D02*
X0064182Y0126612D01*
X0063502Y0126014D02*
X0083650Y0126014D01*
X0083650Y0125415D02*
X0062822Y0125415D01*
X0062142Y0124817D02*
X0083680Y0124817D01*
X0083993Y0124218D02*
X0061536Y0124218D01*
X0061053Y0123620D02*
X0094050Y0123620D01*
X0094050Y0124218D02*
X0088607Y0124218D01*
X0088920Y0124817D02*
X0094050Y0124817D01*
X0094050Y0125415D02*
X0088950Y0125415D01*
X0088950Y0126014D02*
X0094050Y0126014D01*
X0094050Y0126612D02*
X0088950Y0126612D01*
X0088950Y0127211D02*
X0090294Y0127211D01*
X0089695Y0127809D02*
X0088950Y0127809D01*
X0088950Y0128408D02*
X0089111Y0128408D01*
X0089111Y0129006D02*
X0088950Y0129006D01*
X0088950Y0129605D02*
X0089111Y0129605D01*
X0089111Y0130203D02*
X0088950Y0130203D01*
X0088950Y0130802D02*
X0089706Y0130802D01*
X0086600Y0130203D02*
X0086000Y0130203D01*
X0086000Y0129605D02*
X0086600Y0129605D01*
X0086600Y0129006D02*
X0086000Y0129006D01*
X0086000Y0128408D02*
X0086600Y0128408D01*
X0086600Y0127809D02*
X0086000Y0127809D01*
X0086000Y0127211D02*
X0086600Y0127211D01*
X0086600Y0126612D02*
X0086000Y0126612D01*
X0086000Y0126014D02*
X0086600Y0126014D01*
X0086600Y0125415D02*
X0086000Y0125415D01*
X0086000Y0124817D02*
X0086600Y0124817D01*
X0086600Y0124218D02*
X0086000Y0124218D01*
X0092306Y0127211D02*
X0094050Y0127211D01*
X0094050Y0127809D02*
X0092905Y0127809D01*
X0093489Y0128408D02*
X0104050Y0128408D01*
X0104050Y0129006D02*
X0093693Y0129006D01*
X0098550Y0127809D02*
X0104050Y0127809D01*
X0104050Y0127211D02*
X0098550Y0127211D01*
X0098550Y0126612D02*
X0104050Y0126612D01*
X0104050Y0126014D02*
X0098550Y0126014D01*
X0098550Y0125415D02*
X0104050Y0125415D01*
X0104050Y0124817D02*
X0098550Y0124817D01*
X0098550Y0124218D02*
X0104559Y0124218D01*
X0108041Y0124218D02*
X0120695Y0124218D01*
X0121293Y0123620D02*
X0098550Y0123620D01*
X0098580Y0123021D02*
X0121892Y0123021D01*
X0122490Y0122423D02*
X0098933Y0122423D01*
X0099180Y0121824D02*
X0123089Y0121824D01*
X0123687Y0121226D02*
X0099200Y0121226D01*
X0099200Y0120627D02*
X0124286Y0120627D01*
X0124884Y0120029D02*
X0099200Y0120029D01*
X0099200Y0119430D02*
X0125483Y0119430D01*
X0126081Y0118832D02*
X0099200Y0118832D01*
X0099200Y0118233D02*
X0126680Y0118233D01*
X0127278Y0117634D02*
X0099200Y0117634D01*
X0099200Y0117036D02*
X0127877Y0117036D01*
X0128476Y0116437D02*
X0099200Y0116437D01*
X0099200Y0115839D02*
X0129074Y0115839D01*
X0129400Y0115240D02*
X0099200Y0115240D01*
X0099200Y0114642D02*
X0129400Y0114642D01*
X0129400Y0114043D02*
X0119400Y0114043D01*
X0119400Y0114049D02*
X0119049Y0114400D01*
X0103551Y0114400D01*
X0103200Y0114049D01*
X0103200Y0098551D01*
X0103551Y0098200D01*
X0104049Y0098200D01*
X0119049Y0098200D01*
X0119400Y0098551D01*
X0119400Y0114049D01*
X0119400Y0113445D02*
X0129400Y0113445D01*
X0129400Y0112846D02*
X0127621Y0112846D01*
X0127755Y0112811D02*
X0127424Y0112899D01*
X0124600Y0112899D01*
X0124600Y0109340D01*
X0128553Y0109340D01*
X0128553Y0111770D01*
X0128464Y0112101D01*
X0128293Y0112397D01*
X0128051Y0112639D01*
X0127755Y0112811D01*
X0128379Y0112248D02*
X0129400Y0112248D01*
X0129400Y0111649D02*
X0128553Y0111649D01*
X0128553Y0111051D02*
X0129400Y0111051D01*
X0129400Y0110452D02*
X0128553Y0110452D01*
X0128553Y0109854D02*
X0129400Y0109854D01*
X0129400Y0109255D02*
X0124600Y0109255D01*
X0124600Y0109340D02*
X0124600Y0108740D01*
X0124000Y0108740D01*
X0124000Y0105181D01*
X0121176Y0105181D01*
X0120845Y0105270D01*
X0120549Y0105441D01*
X0120307Y0105683D01*
X0120136Y0105979D01*
X0120047Y0106310D01*
X0120047Y0108740D01*
X0124000Y0108740D01*
X0124000Y0109340D01*
X0120047Y0109340D01*
X0120047Y0111770D01*
X0120136Y0112101D01*
X0120307Y0112397D01*
X0120549Y0112639D01*
X0120845Y0112811D01*
X0121176Y0112899D01*
X0124000Y0112899D01*
X0124000Y0109340D01*
X0124600Y0109340D01*
X0124600Y0109854D02*
X0124000Y0109854D01*
X0124000Y0110452D02*
X0124600Y0110452D01*
X0124600Y0111051D02*
X0124000Y0111051D01*
X0124000Y0111649D02*
X0124600Y0111649D01*
X0124600Y0112248D02*
X0124000Y0112248D01*
X0124000Y0112846D02*
X0124600Y0112846D01*
X0120979Y0112846D02*
X0119400Y0112846D01*
X0119400Y0112248D02*
X0120221Y0112248D01*
X0120047Y0111649D02*
X0119400Y0111649D01*
X0119400Y0111051D02*
X0120047Y0111051D01*
X0120047Y0110452D02*
X0119400Y0110452D01*
X0119400Y0109854D02*
X0120047Y0109854D01*
X0119400Y0109255D02*
X0124000Y0109255D01*
X0124000Y0108657D02*
X0124600Y0108657D01*
X0124600Y0108058D02*
X0124000Y0108058D01*
X0124000Y0107460D02*
X0124600Y0107460D01*
X0124600Y0106861D02*
X0124000Y0106861D01*
X0124000Y0106263D02*
X0124600Y0106263D01*
X0124600Y0105664D02*
X0124000Y0105664D01*
X0127379Y0105066D02*
X0119400Y0105066D01*
X0119400Y0105664D02*
X0120326Y0105664D01*
X0120060Y0106263D02*
X0119400Y0106263D01*
X0119400Y0106861D02*
X0120047Y0106861D01*
X0120047Y0107460D02*
X0119400Y0107460D01*
X0119400Y0108058D02*
X0120047Y0108058D01*
X0120047Y0108657D02*
X0119400Y0108657D01*
X0119400Y0104467D02*
X0120447Y0104467D01*
X0120447Y0103869D02*
X0119400Y0103869D01*
X0119400Y0103270D02*
X0120447Y0103270D01*
X0120447Y0102672D02*
X0119400Y0102672D01*
X0119400Y0102073D02*
X0120447Y0102073D01*
X0120447Y0101475D02*
X0119400Y0101475D01*
X0119400Y0100876D02*
X0120447Y0100876D01*
X0120447Y0100278D02*
X0119400Y0100278D01*
X0119400Y0099679D02*
X0120447Y0099679D01*
X0120394Y0099081D02*
X0119400Y0099081D01*
X0119331Y0098482D02*
X0119795Y0098482D01*
X0128540Y0106263D02*
X0128576Y0106263D01*
X0128553Y0106861D02*
X0129111Y0106861D01*
X0129364Y0107460D02*
X0128553Y0107460D01*
X0128553Y0108058D02*
X0129400Y0108058D01*
X0129400Y0108657D02*
X0128553Y0108657D01*
X0107197Y0097884D02*
X0099200Y0097884D01*
X0099200Y0098482D02*
X0103269Y0098482D01*
X0103200Y0099081D02*
X0099200Y0099081D01*
X0099200Y0099679D02*
X0103200Y0099679D01*
X0103200Y0100278D02*
X0099200Y0100278D01*
X0099200Y0100876D02*
X0103200Y0100876D01*
X0103200Y0101475D02*
X0099200Y0101475D01*
X0099200Y0102073D02*
X0103200Y0102073D01*
X0103200Y0102672D02*
X0099200Y0102672D01*
X0099200Y0103270D02*
X0103200Y0103270D01*
X0103200Y0103869D02*
X0099200Y0103869D01*
X0099200Y0104467D02*
X0103200Y0104467D01*
X0103200Y0105066D02*
X0099200Y0105066D01*
X0099200Y0105664D02*
X0103200Y0105664D01*
X0103200Y0106263D02*
X0099200Y0106263D01*
X0099200Y0106861D02*
X0103200Y0106861D01*
X0103200Y0107460D02*
X0099200Y0107460D01*
X0099200Y0108058D02*
X0103200Y0108058D01*
X0103200Y0108657D02*
X0099200Y0108657D01*
X0099200Y0109255D02*
X0103200Y0109255D01*
X0103200Y0109854D02*
X0099200Y0109854D01*
X0099200Y0110452D02*
X0103200Y0110452D01*
X0103200Y0111051D02*
X0099200Y0111051D01*
X0099200Y0111649D02*
X0103200Y0111649D01*
X0103200Y0112248D02*
X0099200Y0112248D01*
X0099200Y0112846D02*
X0103200Y0112846D01*
X0103200Y0113445D02*
X0099200Y0113445D01*
X0099200Y0114043D02*
X0103200Y0114043D01*
X0093400Y0114043D02*
X0089400Y0114043D01*
X0089400Y0114049D02*
X0089049Y0114400D01*
X0073551Y0114400D01*
X0073200Y0114049D01*
X0073200Y0098551D01*
X0073551Y0098200D01*
X0074049Y0098200D01*
X0089049Y0098200D01*
X0089400Y0098551D01*
X0089400Y0114049D01*
X0089400Y0113445D02*
X0093400Y0113445D01*
X0093400Y0112846D02*
X0089400Y0112846D01*
X0089400Y0112248D02*
X0093400Y0112248D01*
X0093400Y0111649D02*
X0089400Y0111649D01*
X0089400Y0111051D02*
X0093400Y0111051D01*
X0093400Y0110452D02*
X0089400Y0110452D01*
X0089400Y0109854D02*
X0093400Y0109854D01*
X0093400Y0109255D02*
X0089400Y0109255D01*
X0089400Y0108657D02*
X0093400Y0108657D01*
X0093400Y0108058D02*
X0089400Y0108058D01*
X0089400Y0107460D02*
X0093400Y0107460D01*
X0093400Y0106861D02*
X0089400Y0106861D01*
X0089400Y0106263D02*
X0093400Y0106263D01*
X0093400Y0105664D02*
X0089400Y0105664D01*
X0089400Y0105066D02*
X0093400Y0105066D01*
X0093400Y0104467D02*
X0089400Y0104467D01*
X0089400Y0103869D02*
X0093400Y0103869D01*
X0093400Y0103270D02*
X0089400Y0103270D01*
X0089400Y0102672D02*
X0093400Y0102672D01*
X0093400Y0102073D02*
X0089400Y0102073D01*
X0089400Y0101475D02*
X0093400Y0101475D01*
X0093400Y0100876D02*
X0089400Y0100876D01*
X0089400Y0100278D02*
X0093400Y0100278D01*
X0093400Y0099679D02*
X0089400Y0099679D01*
X0089400Y0099081D02*
X0093400Y0099081D01*
X0093400Y0098482D02*
X0089331Y0098482D01*
X0093400Y0097884D02*
X0049005Y0097884D01*
X0049108Y0098482D02*
X0073269Y0098482D01*
X0073200Y0099081D02*
X0049210Y0099081D01*
X0049313Y0099679D02*
X0062447Y0099679D01*
X0062447Y0099628D02*
X0062974Y0099101D01*
X0069626Y0099101D01*
X0070153Y0099628D01*
X0070153Y0105492D01*
X0069626Y0106019D01*
X0062974Y0106019D01*
X0062447Y0105492D01*
X0062447Y0104840D01*
X0061489Y0105798D01*
X0061489Y0106207D01*
X0060207Y0107489D01*
X0058393Y0107489D01*
X0057111Y0106207D01*
X0057111Y0104393D01*
X0058393Y0103111D01*
X0058802Y0103111D01*
X0060400Y0101513D01*
X0061513Y0100400D01*
X0062447Y0100400D01*
X0062447Y0099628D01*
X0062447Y0100278D02*
X0049415Y0100278D01*
X0049518Y0100876D02*
X0061037Y0100876D01*
X0060438Y0101475D02*
X0049621Y0101475D01*
X0049723Y0102073D02*
X0059840Y0102073D01*
X0059241Y0102672D02*
X0049826Y0102672D01*
X0049929Y0103270D02*
X0058234Y0103270D01*
X0057636Y0103869D02*
X0050122Y0103869D01*
X0050333Y0104467D02*
X0057111Y0104467D01*
X0057111Y0105066D02*
X0050545Y0105066D01*
X0050756Y0105664D02*
X0057111Y0105664D01*
X0057167Y0106263D02*
X0050968Y0106263D01*
X0051179Y0106861D02*
X0057766Y0106861D01*
X0058364Y0107460D02*
X0051391Y0107460D01*
X0051602Y0108058D02*
X0062047Y0108058D01*
X0062047Y0107460D02*
X0060236Y0107460D01*
X0060834Y0106861D02*
X0062204Y0106861D01*
X0062136Y0106979D02*
X0062307Y0106683D01*
X0062549Y0106441D01*
X0062845Y0106270D01*
X0063176Y0106181D01*
X0066000Y0106181D01*
X0066000Y0109740D01*
X0066600Y0109740D01*
X0066600Y0106181D01*
X0069424Y0106181D01*
X0069755Y0106270D01*
X0070051Y0106441D01*
X0070293Y0106683D01*
X0070464Y0106979D01*
X0070553Y0107310D01*
X0070553Y0109740D01*
X0066600Y0109740D01*
X0066600Y0110340D01*
X0070553Y0110340D01*
X0070553Y0112770D01*
X0070464Y0113101D01*
X0070293Y0113397D01*
X0070051Y0113639D01*
X0069755Y0113811D01*
X0069424Y0113899D01*
X0066600Y0113899D01*
X0066600Y0110340D01*
X0066000Y0110340D01*
X0066000Y0109740D01*
X0062047Y0109740D01*
X0062047Y0107310D01*
X0062136Y0106979D01*
X0061433Y0106263D02*
X0062871Y0106263D01*
X0062620Y0105664D02*
X0061623Y0105664D01*
X0062221Y0105066D02*
X0062447Y0105066D01*
X0062047Y0108657D02*
X0051814Y0108657D01*
X0052025Y0109255D02*
X0062047Y0109255D01*
X0062047Y0110340D02*
X0062047Y0112770D01*
X0062136Y0113101D01*
X0062307Y0113397D01*
X0062549Y0113639D01*
X0062845Y0113811D01*
X0063176Y0113899D01*
X0066000Y0113899D01*
X0066000Y0110340D01*
X0062047Y0110340D01*
X0062047Y0110452D02*
X0052448Y0110452D01*
X0052237Y0109854D02*
X0066000Y0109854D01*
X0066000Y0110452D02*
X0066600Y0110452D01*
X0066600Y0109854D02*
X0073200Y0109854D01*
X0073200Y0110452D02*
X0070553Y0110452D01*
X0070553Y0111051D02*
X0073200Y0111051D01*
X0073200Y0111649D02*
X0070553Y0111649D01*
X0070553Y0112248D02*
X0073200Y0112248D01*
X0073200Y0112846D02*
X0070532Y0112846D01*
X0070246Y0113445D02*
X0073200Y0113445D01*
X0073200Y0114043D02*
X0054336Y0114043D01*
X0054001Y0113445D02*
X0062354Y0113445D01*
X0062068Y0112846D02*
X0053667Y0112846D01*
X0053332Y0112248D02*
X0062047Y0112248D01*
X0062047Y0111649D02*
X0052998Y0111649D01*
X0052664Y0111051D02*
X0062047Y0111051D01*
X0066000Y0111051D02*
X0066600Y0111051D01*
X0066600Y0111649D02*
X0066000Y0111649D01*
X0066000Y0112248D02*
X0066600Y0112248D01*
X0066600Y0112846D02*
X0066000Y0112846D01*
X0066000Y0113445D02*
X0066600Y0113445D01*
X0066600Y0109255D02*
X0066000Y0109255D01*
X0066000Y0108657D02*
X0066600Y0108657D01*
X0066600Y0108058D02*
X0066000Y0108058D01*
X0066000Y0107460D02*
X0066600Y0107460D01*
X0066600Y0106861D02*
X0066000Y0106861D01*
X0066000Y0106263D02*
X0066600Y0106263D01*
X0069729Y0106263D02*
X0073200Y0106263D01*
X0073200Y0106861D02*
X0070396Y0106861D01*
X0070553Y0107460D02*
X0073200Y0107460D01*
X0073200Y0108058D02*
X0070553Y0108058D01*
X0070553Y0108657D02*
X0073200Y0108657D01*
X0073200Y0109255D02*
X0070553Y0109255D01*
X0069980Y0105664D02*
X0073200Y0105664D01*
X0073200Y0105066D02*
X0070153Y0105066D01*
X0070153Y0104467D02*
X0073200Y0104467D01*
X0073200Y0103869D02*
X0070153Y0103869D01*
X0070153Y0103270D02*
X0073200Y0103270D01*
X0073200Y0102672D02*
X0070153Y0102672D01*
X0070153Y0102073D02*
X0073200Y0102073D01*
X0073200Y0101475D02*
X0070153Y0101475D01*
X0070153Y0100876D02*
X0073200Y0100876D01*
X0073200Y0100278D02*
X0070153Y0100278D01*
X0070153Y0099679D02*
X0073200Y0099679D01*
X0074381Y0085315D02*
X0143691Y0085315D01*
X0143640Y0084716D02*
X0086571Y0084716D01*
X0087578Y0084118D02*
X0143589Y0084118D01*
X0143538Y0083519D02*
X0088176Y0083519D01*
X0088489Y0082921D02*
X0143437Y0082921D01*
X0143281Y0082322D02*
X0088489Y0082322D01*
X0088489Y0081724D02*
X0143125Y0081724D01*
X0142970Y0081125D02*
X0088221Y0081125D01*
X0087622Y0080527D02*
X0142814Y0080527D01*
X0142658Y0079928D02*
X0049826Y0079928D01*
X0049946Y0079230D02*
X0052652Y0071570D01*
X0056614Y0064477D01*
X0061718Y0058156D01*
X0061536Y0058382D02*
X0130859Y0058382D01*
X0131433Y0058980D02*
X0061053Y0058980D01*
X0060569Y0059579D02*
X0132006Y0059579D01*
X0132580Y0060177D02*
X0060086Y0060177D01*
X0059603Y0060776D02*
X0133154Y0060776D01*
X0133680Y0061374D02*
X0059120Y0061374D01*
X0058636Y0061973D02*
X0134085Y0061973D01*
X0134489Y0062571D02*
X0058153Y0062571D01*
X0057670Y0063170D02*
X0134894Y0063170D01*
X0135298Y0063768D02*
X0119400Y0063768D01*
X0119400Y0063551D02*
X0119400Y0079049D01*
X0119049Y0079400D01*
X0103551Y0079400D01*
X0103200Y0079049D01*
X0103200Y0063551D01*
X0103551Y0063200D01*
X0104049Y0063200D01*
X0119049Y0063200D01*
X0119400Y0063551D01*
X0119400Y0064367D02*
X0135703Y0064367D01*
X0136107Y0064966D02*
X0119400Y0064966D01*
X0119400Y0065564D02*
X0136512Y0065564D01*
X0136916Y0066163D02*
X0119400Y0066163D01*
X0119400Y0066761D02*
X0137321Y0066761D01*
X0137725Y0067360D02*
X0119400Y0067360D01*
X0119400Y0067958D02*
X0138126Y0067958D01*
X0138396Y0068557D02*
X0119400Y0068557D01*
X0119400Y0069155D02*
X0138667Y0069155D01*
X0138937Y0069754D02*
X0119400Y0069754D01*
X0119400Y0070352D02*
X0139208Y0070352D01*
X0139479Y0070951D02*
X0119400Y0070951D01*
X0119400Y0071549D02*
X0139749Y0071549D01*
X0140020Y0072148D02*
X0119400Y0072148D01*
X0119400Y0072746D02*
X0140290Y0072746D01*
X0140561Y0073345D02*
X0119400Y0073345D01*
X0119400Y0073943D02*
X0140831Y0073943D01*
X0141102Y0074542D02*
X0119400Y0074542D01*
X0119400Y0075140D02*
X0141372Y0075140D01*
X0141567Y0075739D02*
X0119400Y0075739D01*
X0119400Y0076337D02*
X0141723Y0076337D01*
X0141879Y0076936D02*
X0119400Y0076936D01*
X0119400Y0077534D02*
X0142034Y0077534D01*
X0142190Y0078133D02*
X0119400Y0078133D01*
X0119400Y0078731D02*
X0142346Y0078731D01*
X0142502Y0079330D02*
X0119119Y0079330D01*
X0103481Y0079330D02*
X0089119Y0079330D01*
X0089400Y0078731D02*
X0103200Y0078731D01*
X0103200Y0078133D02*
X0089400Y0078133D01*
X0089400Y0077534D02*
X0103200Y0077534D01*
X0103200Y0076936D02*
X0089400Y0076936D01*
X0089400Y0076337D02*
X0103200Y0076337D01*
X0103200Y0075739D02*
X0089400Y0075739D01*
X0089400Y0075140D02*
X0103200Y0075140D01*
X0103200Y0074542D02*
X0089400Y0074542D01*
X0089400Y0073943D02*
X0103200Y0073943D01*
X0103200Y0073345D02*
X0089400Y0073345D01*
X0089400Y0072746D02*
X0103200Y0072746D01*
X0103200Y0072148D02*
X0089400Y0072148D01*
X0089400Y0071549D02*
X0103200Y0071549D01*
X0103200Y0070951D02*
X0089400Y0070951D01*
X0089400Y0070352D02*
X0103200Y0070352D01*
X0103200Y0069754D02*
X0089400Y0069754D01*
X0089400Y0069155D02*
X0103200Y0069155D01*
X0103200Y0068557D02*
X0089400Y0068557D01*
X0089400Y0067958D02*
X0103200Y0067958D01*
X0103200Y0067360D02*
X0089400Y0067360D01*
X0089400Y0066761D02*
X0103200Y0066761D01*
X0103200Y0066163D02*
X0089400Y0066163D01*
X0089400Y0065564D02*
X0103200Y0065564D01*
X0103200Y0064966D02*
X0089400Y0064966D01*
X0089400Y0064367D02*
X0103200Y0064367D01*
X0103200Y0063768D02*
X0089400Y0063768D01*
X0073200Y0063768D02*
X0057187Y0063768D01*
X0056703Y0064367D02*
X0073200Y0064367D01*
X0073200Y0064966D02*
X0056342Y0064966D01*
X0056007Y0065564D02*
X0073200Y0065564D01*
X0073200Y0066163D02*
X0055673Y0066163D01*
X0055339Y0066761D02*
X0073200Y0066761D01*
X0073200Y0067360D02*
X0055004Y0067360D01*
X0054670Y0067958D02*
X0073200Y0067958D01*
X0073200Y0068557D02*
X0054336Y0068557D01*
X0054001Y0069155D02*
X0073200Y0069155D01*
X0073200Y0069754D02*
X0053667Y0069754D01*
X0053332Y0070352D02*
X0073200Y0070352D01*
X0073200Y0070951D02*
X0052998Y0070951D01*
X0052664Y0071549D02*
X0073200Y0071549D01*
X0073200Y0072148D02*
X0052448Y0072148D01*
X0052237Y0072746D02*
X0073200Y0072746D01*
X0073200Y0073345D02*
X0052025Y0073345D01*
X0051814Y0073943D02*
X0073200Y0073943D01*
X0073200Y0074542D02*
X0051602Y0074542D01*
X0051391Y0075140D02*
X0073200Y0075140D01*
X0073200Y0075739D02*
X0051179Y0075739D01*
X0050968Y0076337D02*
X0073200Y0076337D01*
X0073200Y0076936D02*
X0050756Y0076936D01*
X0050545Y0077534D02*
X0073200Y0077534D01*
X0073200Y0078133D02*
X0050333Y0078133D01*
X0050122Y0078731D02*
X0073200Y0078731D01*
X0093820Y0087709D02*
X0048573Y0087709D01*
X0048573Y0088307D02*
X0093572Y0088307D01*
X0093400Y0088906D02*
X0048573Y0088906D01*
X0048573Y0089504D02*
X0093400Y0089504D01*
X0093400Y0090103D02*
X0048573Y0090103D01*
X0048573Y0090701D02*
X0093400Y0090701D01*
X0093400Y0091300D02*
X0048573Y0091300D01*
X0048573Y0091899D02*
X0093400Y0091899D01*
X0093400Y0092497D02*
X0048573Y0092497D01*
X0048573Y0093096D02*
X0093400Y0093096D01*
X0093400Y0093694D02*
X0048573Y0093694D01*
X0048573Y0094293D02*
X0093400Y0094293D01*
X0093400Y0094891D02*
X0048573Y0094891D01*
X0048594Y0095490D02*
X0093400Y0095490D01*
X0093400Y0096088D02*
X0048697Y0096088D01*
X0048800Y0096687D02*
X0093400Y0096687D01*
X0093400Y0097285D02*
X0048902Y0097285D01*
X0048594Y0087110D02*
X0094388Y0087110D01*
X0095453Y0086512D02*
X0048697Y0086512D01*
X0054670Y0114642D02*
X0093400Y0114642D01*
X0093400Y0115240D02*
X0055004Y0115240D01*
X0055339Y0115839D02*
X0093400Y0115839D01*
X0093400Y0116437D02*
X0055673Y0116437D01*
X0056007Y0117036D02*
X0093400Y0117036D01*
X0093400Y0117634D02*
X0056342Y0117634D01*
X0056703Y0118233D02*
X0093400Y0118233D01*
X0093400Y0118832D02*
X0057187Y0118832D01*
X0057670Y0119430D02*
X0093400Y0119430D01*
X0093400Y0120029D02*
X0058153Y0120029D01*
X0058636Y0120627D02*
X0093400Y0120627D01*
X0093400Y0121226D02*
X0059120Y0121226D01*
X0059603Y0121824D02*
X0093420Y0121824D01*
X0093667Y0122423D02*
X0060086Y0122423D01*
X0060569Y0123021D02*
X0094020Y0123021D01*
X0083650Y0131999D02*
X0071369Y0131999D01*
X0072342Y0132597D02*
X0083650Y0132597D01*
X0083650Y0133196D02*
X0073314Y0133196D01*
X0074286Y0133794D02*
X0083650Y0133794D01*
X0083650Y0134393D02*
X0075536Y0134393D01*
X0077025Y0134991D02*
X0083650Y0134991D01*
X0083650Y0135590D02*
X0078515Y0135590D01*
X0080004Y0136188D02*
X0083650Y0136188D01*
X0083650Y0136787D02*
X0081494Y0136787D01*
X0083596Y0137385D02*
X0083650Y0137385D01*
X0088920Y0137984D02*
X0104050Y0137984D01*
X0102819Y0138582D02*
X0089150Y0138582D01*
X0108550Y0129006D02*
X0115907Y0129006D01*
X0116505Y0128408D02*
X0108550Y0128408D01*
X0108550Y0127809D02*
X0117104Y0127809D01*
X0117702Y0127211D02*
X0108550Y0127211D01*
X0108550Y0126612D02*
X0118301Y0126612D01*
X0118899Y0126014D02*
X0108550Y0126014D01*
X0108550Y0125415D02*
X0119498Y0125415D01*
X0120096Y0124817D02*
X0108550Y0124817D01*
X0105189Y0097285D02*
X0099200Y0097285D01*
X0099200Y0096687D02*
X0104591Y0096687D01*
X0104111Y0096088D02*
X0099200Y0096088D01*
X0099200Y0095490D02*
X0104111Y0095490D01*
X0104111Y0094891D02*
X0099200Y0094891D01*
X0099200Y0094293D02*
X0104212Y0094293D01*
X0104810Y0093694D02*
X0099200Y0093694D01*
X0130285Y0057783D02*
X0062142Y0057783D01*
X0062822Y0057185D02*
X0129712Y0057185D01*
X0129138Y0056586D02*
X0063502Y0056586D01*
X0064182Y0055988D02*
X0128565Y0055988D01*
X0127991Y0055389D02*
X0064862Y0055389D01*
X0065542Y0054791D02*
X0127200Y0054791D01*
X0126391Y0054192D02*
X0066222Y0054192D01*
X0066902Y0053594D02*
X0125582Y0053594D01*
X0124772Y0052995D02*
X0067582Y0052995D01*
X0068453Y0052397D02*
X0123963Y0052397D01*
X0123154Y0051798D02*
X0069425Y0051798D01*
X0070397Y0051200D02*
X0122345Y0051200D01*
X0121535Y0050601D02*
X0071369Y0050601D01*
X0072342Y0050003D02*
X0120405Y0050003D01*
X0119218Y0049404D02*
X0073314Y0049404D01*
X0074286Y0048806D02*
X0118031Y0048806D01*
X0116844Y0048207D02*
X0075536Y0048207D01*
X0077025Y0047609D02*
X0115656Y0047609D01*
X0114469Y0047010D02*
X0078515Y0047010D01*
X0080004Y0046412D02*
X0112715Y0046412D01*
X0110761Y0045813D02*
X0081494Y0045813D01*
X0083596Y0045215D02*
X0108806Y0045215D01*
X0106852Y0044616D02*
X0086373Y0044616D01*
X0089150Y0044018D02*
X0102819Y0044018D01*
D14*
X0126300Y0060300D03*
X0137300Y0081300D03*
X0131300Y0106300D03*
X0106300Y0095300D03*
X0096300Y0089300D03*
X0086300Y0082300D03*
X0073300Y0083300D03*
X0056300Y0081300D03*
X0067300Y0059300D03*
X0059300Y0105300D03*
X0076300Y0128300D03*
X0091300Y0129300D03*
D15*
X0093400Y0131400D01*
X0106300Y0131400D01*
X0116200Y0131400D01*
X0131300Y0116300D01*
X0131300Y0106300D01*
X0126300Y0101300D01*
X0124300Y0100300D02*
X0120300Y0096300D01*
X0108300Y0096300D01*
X0107300Y0095300D01*
X0086300Y0082300D02*
X0085300Y0083300D01*
X0073300Y0083300D01*
X0066040Y0102300D02*
X0062300Y0102300D01*
X0059300Y0105300D01*
D16*
X0066040Y0102300D02*
X0066300Y0102560D01*
X0106300Y0095300D02*
X0107300Y0095300D01*
X0124300Y0100300D02*
X0124300Y0101560D01*
X0124560Y0101300D01*
X0126300Y0101300D01*
D17*
X0096300Y0089300D02*
X0096300Y0121200D01*
M02*
