M48
;GenerationSoftware,Autodesk,EAGLE,9.4.0*%
;CreationDate,2019-05-23T22:02:24Z*%
FMAT,2
ICI,OFF
METRIC,TZ,000.000
T2C0.350
T1C1.270
%
G90
M71
T1
X25400Y14270
X55880Y14270
X58420Y11730
X58420Y14270
X55880Y11730
X53340Y11730
X53340Y14270
X50800Y11730
X50800Y14270
X48260Y11730
X48260Y14270
X45720Y11730
X45720Y14270
X43180Y11730
X43180Y14270
X40640Y11730
X40640Y14270
X38100Y11730
X38100Y14270
X35560Y11730
X35560Y14270
X33020Y11730
X33020Y14270
X30480Y11730
X30480Y14270
X27940Y11730
X27940Y14270
X25400Y11730
X22860Y11730
X22860Y14270
X20320Y11730
X20320Y14270
X17780Y11730
X17780Y14270
X15240Y11730
X15240Y14270
X12700Y11730
X12700Y14270
X10160Y11730
X10160Y14270
T2
X55880Y25273
X5159Y8509
X54356Y6604
X44450Y3810
X44759Y8049
X37592Y24892
X54610Y30988
X55880Y27432
X29210Y9525
X30480Y21590
X9144Y28702
X12669Y28067
X63500Y16510
X59708Y8814
X5080Y29210
X7620Y27559
X51755Y7366
X13970Y15621
X54610Y16510
X63500Y17780
X36830Y20320
X36830Y6096
X62230Y3810
X55880Y7620
X5080Y25400
X18161Y20574
X41910Y3810
X25400Y7620
X20701Y7620
X3810Y7620
X16383Y28321
X48895Y23495
X58420Y25400
X60960Y30480
X48260Y30480
X18034Y3048
X39497Y6477
X62230Y25400
X21463Y27940
X8509Y17145
X14478Y16891
X63627Y15494
X34544Y9906
X32512Y7620
X20320Y24130
X9652Y5207
X20320Y20701
X27940Y23495
X48768Y25956
X52185Y23380
X34290Y21590
X51181Y21590
X53340Y6604
X45847Y17780
X7620Y16637
X57150Y8890
X7033Y6350
X52070Y2667
M30